<?xml version="1.0" encoding="UTF-8" standalone="no"?>
<!DOCTYPE svg PUBLIC "-//W3C//DTD SVG 1.1//EN"
 "http://www.w3.org/Graphics/SVG/1.1/DTD/svg11.dtd">
<!-- Generated by graphviz version 2.38.0 (20140413.2041)
 -->
<!-- Title: MainWindow.h Pages: 1 -->
<svg width="1793pt" height="364pt"
 viewBox="0.00 0.00 1793.00 364.00" xmlns="http://www.w3.org/2000/svg" xmlns:xlink="http://www.w3.org/1999/xlink">
<g id="graph0" class="graph" transform="scale(1 1) rotate(0) translate(4 360)">
<title>MainWindow.h</title>
<!-- Node1 -->
<g id="node1" class="node"><title>Node1</title>
<polygon fill="#bfbfbf" stroke="black" points="1028,-336.5 1028,-355.5 1109,-355.5 1109,-336.5 1028,-336.5"/>
<text text-anchor="middle" x="1068.5" y="-343.5" font-family="Helvetica,sans-Serif" font-size="10.00">MainWindow.h</text>
</g>
<!-- Node2 -->
<g id="node2" class="node"><title>Node2</title>
<polygon fill="none" stroke="#bfbfbf" points="547.5,-224.5 547.5,-243.5 619.5,-243.5 619.5,-224.5 547.5,-224.5"/>
<text text-anchor="middle" x="583.5" y="-231.5" font-family="Helvetica,sans-Serif" font-size="10.00">QApplication</text>
</g>
<!-- Node1&#45;&gt;Node2 -->
<g id="edge1" class="edge"><title>Node1&#45;&gt;Node2</title>
<path fill="none" stroke="midnightblue" d="M1027.91,-344.943C959.229,-343.768 816.47,-336.65 702.5,-300 665.667,-288.155 627.079,-264.728 604.171,-249.472"/>
<polygon fill="midnightblue" stroke="midnightblue" points="605.881,-246.403 595.641,-243.684 601.951,-252.195 605.881,-246.403"/>
</g>
<!-- Node3 -->
<g id="node3" class="node"><title>Node3</title>
<polygon fill="none" stroke="#bfbfbf" points="1498.5,-280.5 1498.5,-299.5 1568.5,-299.5 1568.5,-280.5 1498.5,-280.5"/>
<text text-anchor="middle" x="1533.5" y="-287.5" font-family="Helvetica,sans-Serif" font-size="10.00">QCheckBox</text>
</g>
<!-- Node1&#45;&gt;Node3 -->
<g id="edge2" class="edge"><title>Node1&#45;&gt;Node3</title>
<path fill="none" stroke="midnightblue" d="M1109.01,-341.962C1182.57,-336.165 1343.16,-322.226 1488.5,-300.018"/>
<polygon fill="midnightblue" stroke="midnightblue" points="1489.14,-303.46 1498.49,-298.474 1488.07,-296.542 1489.14,-303.46"/>
</g>
<!-- Node4 -->
<g id="node4" class="node"><title>Node4</title>
<polygon fill="none" stroke="#bfbfbf" points="1587,-280.5 1587,-299.5 1658,-299.5 1658,-280.5 1587,-280.5"/>
<text text-anchor="middle" x="1622.5" y="-287.5" font-family="Helvetica,sans-Serif" font-size="10.00">QListWidget</text>
</g>
<!-- Node1&#45;&gt;Node4 -->
<g id="edge3" class="edge"><title>Node1&#45;&gt;Node4</title>
<path fill="none" stroke="midnightblue" d="M1109.25,-342.912C1194.25,-338.231 1396.8,-325.377 1576.79,-299.943"/>
<polygon fill="midnightblue" stroke="midnightblue" points="1577.3,-303.407 1586.7,-298.527 1576.3,-296.477 1577.3,-303.407"/>
</g>
<!-- Node5 -->
<g id="node5" class="node"><title>Node5</title>
<polygon fill="none" stroke="#bfbfbf" points="638,-224.5 638,-243.5 713,-243.5 713,-224.5 638,-224.5"/>
<text text-anchor="middle" x="675.5" y="-231.5" font-family="Helvetica,sans-Serif" font-size="10.00">QPushButton</text>
</g>
<!-- Node1&#45;&gt;Node5 -->
<g id="edge4" class="edge"><title>Node1&#45;&gt;Node5</title>
<path fill="none" stroke="midnightblue" d="M1027.81,-343.344C949.055,-339.538 779.06,-328.226 728.5,-300 709.102,-289.171 694,-268.16 684.963,-252.952"/>
<polygon fill="midnightblue" stroke="midnightblue" points="687.863,-250.968 679.917,-243.961 681.759,-254.394 687.863,-250.968"/>
</g>
<!-- Node6 -->
<g id="node6" class="node"><title>Node6</title>
<polygon fill="none" stroke="#bfbfbf" points="1301,-224.5 1301,-243.5 1350,-243.5 1350,-224.5 1301,-224.5"/>
<text text-anchor="middle" x="1325.5" y="-231.5" font-family="Helvetica,sans-Serif" font-size="10.00">QSlider</text>
</g>
<!-- Node1&#45;&gt;Node6 -->
<g id="edge5" class="edge"><title>Node1&#45;&gt;Node6</title>
<path fill="none" stroke="midnightblue" d="M1088.67,-336.368C1133.8,-317.051 1243.12,-270.259 1295.95,-247.648"/>
<polygon fill="midnightblue" stroke="midnightblue" points="1297.61,-250.744 1305.43,-243.591 1294.86,-244.309 1297.61,-250.744"/>
</g>
<!-- Node7 -->
<g id="node7" class="node"><title>Node7</title>
<polygon fill="none" stroke="#bfbfbf" points="1676,-280.5 1676,-299.5 1785,-299.5 1785,-280.5 1676,-280.5"/>
<text text-anchor="middle" x="1730.5" y="-287.5" font-family="Helvetica,sans-Serif" font-size="10.00">QtGui/QMainWindow</text>
</g>
<!-- Node1&#45;&gt;Node7 -->
<g id="edge6" class="edge"><title>Node1&#45;&gt;Node7</title>
<path fill="none" stroke="midnightblue" d="M1109.26,-342.881C1204.69,-337.718 1450.25,-323.26 1665.66,-300.137"/>
<polygon fill="midnightblue" stroke="midnightblue" points="1666.33,-303.585 1675.89,-299.029 1665.57,-296.626 1666.33,-303.585"/>
</g>
<!-- Node8 -->
<g id="node8" class="node"><title>Node8</title>
<polygon fill="none" stroke="#bfbfbf" points="279.5,-224.5 279.5,-243.5 321.5,-243.5 321.5,-224.5 279.5,-224.5"/>
<text text-anchor="middle" x="300.5" y="-231.5" font-family="Helvetica,sans-Serif" font-size="10.00">QtGui</text>
</g>
<!-- Node1&#45;&gt;Node8 -->
<g id="edge7" class="edge"><title>Node1&#45;&gt;Node8</title>
<path fill="none" stroke="midnightblue" d="M1027.6,-342.152C916.474,-333.835 599.863,-306.273 331.641,-244.034"/>
<polygon fill="midnightblue" stroke="midnightblue" points="332.255,-240.583 321.72,-241.71 330.659,-247.398 332.255,-240.583"/>
</g>
<!-- Node9 -->
<g id="node9" class="node"><title>Node9</title>
<g id="a_node9"><a xlink:href="_sliding_stacked_widget_8h.html" target="_top" xlink:title="SlidingStackedWidget.h">
<polygon fill="none" stroke="black" points="198,-280.5 198,-299.5 319,-299.5 319,-280.5 198,-280.5"/>
<text text-anchor="middle" x="258.5" y="-287.5" font-family="Helvetica,sans-Serif" font-size="10.00">SlidingStackedWidget.h</text>
</a>
</g>
</g>
<!-- Node1&#45;&gt;Node9 -->
<g id="edge8" class="edge"><title>Node1&#45;&gt;Node9</title>
<path fill="none" stroke="midnightblue" d="M1027.78,-342.285C898.078,-333.639 493.561,-306.671 329.097,-295.706"/>
<polygon fill="midnightblue" stroke="midnightblue" points="329.298,-292.212 319.087,-295.039 328.832,-299.197 329.298,-292.212"/>
</g>
<!-- Node14 -->
<g id="node14" class="node"><title>Node14</title>
<g id="a_node14"><a xlink:href="filtering_8h.html" target="_top" xlink:title="filtering.h">
<polygon fill="none" stroke="black" points="922.5,-280.5 922.5,-299.5 978.5,-299.5 978.5,-280.5 922.5,-280.5"/>
<text text-anchor="middle" x="950.5" y="-287.5" font-family="Helvetica,sans-Serif" font-size="10.00">filtering.h</text>
</a>
</g>
</g>
<!-- Node1&#45;&gt;Node14 -->
<g id="edge14" class="edge"><title>Node1&#45;&gt;Node14</title>
<path fill="none" stroke="midnightblue" d="M1049.8,-336.444C1030.56,-327.636 1000.35,-313.812 978.3,-303.722"/>
<polygon fill="midnightblue" stroke="midnightblue" points="979.66,-300.495 969.11,-299.516 976.747,-306.86 979.66,-300.495"/>
</g>
<!-- Node21 -->
<g id="node21" class="node"><title>Node21</title>
<g id="a_node21"><a xlink:href="track_8h.html" target="_top" xlink:title="The class Track. ">
<polygon fill="none" stroke="black" points="1412,-168.5 1412,-187.5 1459,-187.5 1459,-168.5 1412,-168.5"/>
<text text-anchor="middle" x="1435.5" y="-175.5" font-family="Helvetica,sans-Serif" font-size="10.00">track.h</text>
</a>
</g>
</g>
<!-- Node1&#45;&gt;Node21 -->
<g id="edge59" class="edge"><title>Node1&#45;&gt;Node21</title>
<path fill="none" stroke="midnightblue" d="M1108.8,-336.436C1167.07,-322.887 1276.9,-292.91 1359.5,-244 1382.69,-230.266 1405.71,-209.284 1420.23,-194.897"/>
<polygon fill="midnightblue" stroke="midnightblue" points="1422.83,-197.243 1427.37,-187.67 1417.85,-192.323 1422.83,-197.243"/>
</g>
<!-- Node33 -->
<g id="node33" class="node"><title>Node33</title>
<g id="a_node33"><a xlink:href="loading_8h.html" target="_top" xlink:title="loading.h">
<polygon fill="none" stroke="black" points="737.5,-280.5 737.5,-299.5 793.5,-299.5 793.5,-280.5 737.5,-280.5"/>
<text text-anchor="middle" x="765.5" y="-287.5" font-family="Helvetica,sans-Serif" font-size="10.00">loading.h</text>
</a>
</g>
</g>
<!-- Node1&#45;&gt;Node33 -->
<g id="edge39" class="edge"><title>Node1&#45;&gt;Node33</title>
<path fill="none" stroke="midnightblue" d="M1027.95,-337.773C969.2,-327.303 861.172,-308.051 803.743,-297.816"/>
<polygon fill="midnightblue" stroke="midnightblue" points="804.091,-294.323 793.632,-296.014 802.863,-301.214 804.091,-294.323"/>
</g>
<!-- Node41 -->
<g id="node41" class="node"><title>Node41</title>
<g id="a_node41"><a xlink:href="grid_8h.html" target="_top" xlink:title="grid.h">
<polygon fill="none" stroke="black" points="1439,-280.5 1439,-299.5 1480,-299.5 1480,-280.5 1439,-280.5"/>
<text text-anchor="middle" x="1459.5" y="-287.5" font-family="Helvetica,sans-Serif" font-size="10.00">grid.h</text>
</a>
</g>
</g>
<!-- Node1&#45;&gt;Node41 -->
<g id="edge60" class="edge"><title>Node1&#45;&gt;Node41</title>
<path fill="none" stroke="midnightblue" d="M1109.07,-341.549C1175.43,-335.531 1311.14,-321.65 1424.5,-300 1425.96,-299.72 1427.46,-299.415 1428.96,-299.092"/>
<polygon fill="midnightblue" stroke="midnightblue" points="1429.93,-302.459 1438.87,-296.765 1428.33,-295.644 1429.93,-302.459"/>
</g>
<!-- Node9&#45;&gt;Node8 -->
<g id="edge13" class="edge"><title>Node9&#45;&gt;Node8</title>
<path fill="none" stroke="midnightblue" d="M265.435,-280.083C271.429,-272.377 280.252,-261.033 287.548,-251.653"/>
<polygon fill="midnightblue" stroke="midnightblue" points="290.317,-253.793 293.694,-243.751 284.791,-249.496 290.317,-253.793"/>
</g>
<!-- Node10 -->
<g id="node10" class="node"><title>Node10</title>
<polygon fill="none" stroke="#bfbfbf" points="170,-224.5 170,-243.5 261,-243.5 261,-224.5 170,-224.5"/>
<text text-anchor="middle" x="215.5" y="-231.5" font-family="Helvetica,sans-Serif" font-size="10.00">QStackedWidget</text>
</g>
<!-- Node9&#45;&gt;Node10 -->
<g id="edge9" class="edge"><title>Node9&#45;&gt;Node10</title>
<path fill="none" stroke="midnightblue" d="M251.399,-280.083C245.263,-272.377 236.23,-261.033 228.761,-251.653"/>
<polygon fill="midnightblue" stroke="midnightblue" points="231.436,-249.394 222.468,-243.751 225.96,-253.754 231.436,-249.394"/>
</g>
<!-- Node11 -->
<g id="node11" class="node"><title>Node11</title>
<polygon fill="none" stroke="#bfbfbf" points="0,-224.5 0,-243.5 53,-243.5 53,-224.5 0,-224.5"/>
<text text-anchor="middle" x="26.5" y="-231.5" font-family="Helvetica,sans-Serif" font-size="10.00">QDebug</text>
</g>
<!-- Node9&#45;&gt;Node11 -->
<g id="edge10" class="edge"><title>Node9&#45;&gt;Node11</title>
<path fill="none" stroke="midnightblue" d="M220.141,-280.423C182.599,-271.978 123.541,-258.556 62.9559,-244.074"/>
<polygon fill="midnightblue" stroke="midnightblue" points="63.7626,-240.669 53.2223,-241.741 62.1311,-247.476 63.7626,-240.669"/>
</g>
<!-- Node12 -->
<g id="node12" class="node"><title>Node12</title>
<polygon fill="none" stroke="#bfbfbf" points="71.5,-224.5 71.5,-243.5 151.5,-243.5 151.5,-224.5 71.5,-224.5"/>
<text text-anchor="middle" x="111.5" y="-231.5" font-family="Helvetica,sans-Serif" font-size="10.00">QEasingCurve</text>
</g>
<!-- Node9&#45;&gt;Node12 -->
<g id="edge11" class="edge"><title>Node9&#45;&gt;Node12</title>
<path fill="none" stroke="midnightblue" d="M235.207,-280.444C210.693,-271.438 171.904,-257.189 144.3,-247.049"/>
<polygon fill="midnightblue" stroke="midnightblue" points="145.277,-243.679 134.684,-243.516 142.863,-250.25 145.277,-243.679"/>
</g>
<!-- Node13 -->
<g id="node13" class="node"><title>Node13</title>
<polygon fill="none" stroke="#bfbfbf" points="474,-224.5 474,-243.5 529,-243.5 529,-224.5 474,-224.5"/>
<text text-anchor="middle" x="501.5" y="-231.5" font-family="Helvetica,sans-Serif" font-size="10.00">QWidget</text>
</g>
<!-- Node9&#45;&gt;Node13 -->
<g id="edge12" class="edge"><title>Node9&#45;&gt;Node13</title>
<path fill="none" stroke="midnightblue" d="M297.004,-280.444C342.693,-270.29 418.377,-253.472 463.738,-243.392"/>
<polygon fill="midnightblue" stroke="midnightblue" points="464.755,-246.751 473.758,-241.165 463.237,-239.918 464.755,-246.751"/>
</g>
<!-- Node14&#45;&gt;Node2 -->
<g id="edge15" class="edge"><title>Node14&#45;&gt;Node2</title>
<path fill="none" stroke="midnightblue" d="M922.419,-285.637C867.965,-278.996 744.023,-263.294 629.778,-244.137"/>
<polygon fill="midnightblue" stroke="midnightblue" points="630.259,-240.668 619.815,-242.453 629.092,-247.57 630.259,-240.668"/>
</g>
<!-- Node14&#45;&gt;Node5 -->
<g id="edge21" class="edge"><title>Node14&#45;&gt;Node5</title>
<path fill="none" stroke="midnightblue" d="M922.363,-283.475C875.486,-274.27 780.885,-255.694 723.368,-244.399"/>
<polygon fill="midnightblue" stroke="midnightblue" points="723.914,-240.94 713.427,-242.447 722.565,-247.809 723.914,-240.94"/>
</g>
<!-- Node14&#45;&gt;Node6 -->
<g id="edge22" class="edge"><title>Node14&#45;&gt;Node6</title>
<path fill="none" stroke="midnightblue" d="M978.517,-286.146C1036.34,-280.057 1173.01,-264.648 1286.5,-244 1287.95,-243.736 1289.43,-243.453 1290.93,-243.157"/>
<polygon fill="midnightblue" stroke="midnightblue" points="1291.76,-246.559 1300.81,-241.064 1290.31,-239.711 1291.76,-246.559"/>
</g>
<!-- Node14&#45;&gt;Node13 -->
<g id="edge24" class="edge"><title>Node14&#45;&gt;Node13</title>
<path fill="none" stroke="midnightblue" d="M922.348,-287.191C856.918,-282.718 689.41,-269.722 539.596,-243.967"/>
<polygon fill="midnightblue" stroke="midnightblue" points="539.751,-240.442 529.299,-242.172 538.549,-247.337 539.751,-240.442"/>
</g>
<!-- Node15 -->
<g id="node15" class="node"><title>Node15</title>
<polygon fill="none" stroke="#bfbfbf" points="1049.5,-224.5 1049.5,-243.5 1147.5,-243.5 1147.5,-224.5 1049.5,-224.5"/>
<text text-anchor="middle" x="1098.5" y="-231.5" font-family="Helvetica,sans-Serif" font-size="10.00">QDialogButtonBox</text>
</g>
<!-- Node14&#45;&gt;Node15 -->
<g id="edge16" class="edge"><title>Node14&#45;&gt;Node15</title>
<path fill="none" stroke="midnightblue" d="M973.951,-280.444C998.633,-271.438 1037.69,-257.189 1065.48,-247.049"/>
<polygon fill="midnightblue" stroke="midnightblue" points="1066.96,-250.232 1075.16,-243.516 1064.56,-243.656 1066.96,-250.232"/>
</g>
<!-- Node16 -->
<g id="node16" class="node"><title>Node16</title>
<polygon fill="none" stroke="#bfbfbf" points="731.5,-224.5 731.5,-243.5 799.5,-243.5 799.5,-224.5 731.5,-224.5"/>
<text text-anchor="middle" x="765.5" y="-231.5" font-family="Helvetica,sans-Serif" font-size="10.00">QGroupBox</text>
</g>
<!-- Node14&#45;&gt;Node16 -->
<g id="edge17" class="edge"><title>Node14&#45;&gt;Node16</title>
<path fill="none" stroke="midnightblue" d="M922.402,-280.799C891.031,-271.641 840.039,-256.757 804.741,-246.454"/>
<polygon fill="midnightblue" stroke="midnightblue" points="805.36,-242.989 794.78,-243.547 803.399,-249.709 805.36,-242.989"/>
</g>
<!-- Node17 -->
<g id="node17" class="node"><title>Node17</title>
<polygon fill="none" stroke="#bfbfbf" points="1165,-224.5 1165,-243.5 1244,-243.5 1244,-224.5 1165,-224.5"/>
<text text-anchor="middle" x="1204.5" y="-231.5" font-family="Helvetica,sans-Serif" font-size="10.00">QLCDNumber</text>
</g>
<!-- Node14&#45;&gt;Node17 -->
<g id="edge18" class="edge"><title>Node14&#45;&gt;Node17</title>
<path fill="none" stroke="midnightblue" d="M978.653,-283.015C1021.24,-273.96 1102.65,-256.652 1155.21,-245.478"/>
<polygon fill="midnightblue" stroke="midnightblue" points="1155.94,-248.901 1165,-243.398 1154.49,-242.054 1155.94,-248.901"/>
</g>
<!-- Node18 -->
<g id="node18" class="node"><title>Node18</title>
<polygon fill="none" stroke="#bfbfbf" points="818,-224.5 818,-243.5 865,-243.5 865,-224.5 818,-224.5"/>
<text text-anchor="middle" x="841.5" y="-231.5" font-family="Helvetica,sans-Serif" font-size="10.00">QLabel</text>
</g>
<!-- Node14&#45;&gt;Node18 -->
<g id="edge19" class="edge"><title>Node14&#45;&gt;Node18</title>
<path fill="none" stroke="midnightblue" d="M932.987,-280.324C915.428,-271.625 888.169,-258.12 867.969,-248.113"/>
<polygon fill="midnightblue" stroke="midnightblue" points="869.484,-244.958 858.969,-243.655 866.376,-251.23 869.484,-244.958"/>
</g>
<!-- Node19 -->
<g id="node19" class="node"><title>Node19</title>
<polygon fill="none" stroke="#bfbfbf" points="883,-224.5 883,-243.5 936,-243.5 936,-224.5 883,-224.5"/>
<text text-anchor="middle" x="909.5" y="-231.5" font-family="Helvetica,sans-Serif" font-size="10.00">QObject</text>
</g>
<!-- Node14&#45;&gt;Node19 -->
<g id="edge20" class="edge"><title>Node14&#45;&gt;Node19</title>
<path fill="none" stroke="midnightblue" d="M943.73,-280.083C937.938,-272.455 929.442,-261.264 922.362,-251.941"/>
<polygon fill="midnightblue" stroke="midnightblue" points="924.979,-249.599 916.144,-243.751 919.404,-253.832 924.979,-249.599"/>
</g>
<!-- Node20 -->
<g id="node20" class="node"><title>Node20</title>
<polygon fill="none" stroke="#bfbfbf" points="954,-224.5 954,-243.5 1031,-243.5 1031,-224.5 954,-224.5"/>
<text text-anchor="middle" x="992.5" y="-231.5" font-family="Helvetica,sans-Serif" font-size="10.00">QVBoxLayout</text>
</g>
<!-- Node14&#45;&gt;Node20 -->
<g id="edge23" class="edge"><title>Node14&#45;&gt;Node20</title>
<path fill="none" stroke="midnightblue" d="M957.435,-280.083C963.429,-272.377 972.252,-261.033 979.548,-251.653"/>
<polygon fill="midnightblue" stroke="midnightblue" points="982.317,-253.793 985.694,-243.751 976.791,-249.496 982.317,-253.793"/>
</g>
<!-- Node14&#45;&gt;Node21 -->
<g id="edge25" class="edge"><title>Node14&#45;&gt;Node21</title>
<path fill="none" stroke="midnightblue" d="M978.642,-287.761C1032.83,-284.736 1154.94,-274.799 1252.5,-244 1271.45,-238.016 1274.07,-231.451 1292.5,-224 1329.19,-209.163 1372.75,-196.074 1402.07,-187.892"/>
<polygon fill="midnightblue" stroke="midnightblue" points="1403.1,-191.238 1411.82,-185.208 1401.25,-184.49 1403.1,-191.238"/>
</g>
<!-- Node22 -->
<g id="node22" class="node"><title>Node22</title>
<g id="a_node22"><a xlink:href="point_g_p_s_8h.html" target="_top" xlink:title="pointGPS.h">
<polygon fill="none" stroke="black" points="1278,-112.5 1278,-131.5 1345,-131.5 1345,-112.5 1278,-112.5"/>
<text text-anchor="middle" x="1311.5" y="-119.5" font-family="Helvetica,sans-Serif" font-size="10.00">pointGPS.h</text>
</a>
</g>
</g>
<!-- Node21&#45;&gt;Node22 -->
<g id="edge26" class="edge"><title>Node21&#45;&gt;Node22</title>
<path fill="none" stroke="midnightblue" d="M1415.85,-168.444C1395.54,-159.596 1363.6,-145.687 1340.4,-135.586"/>
<polygon fill="midnightblue" stroke="midnightblue" points="1341.62,-132.3 1331.06,-131.516 1338.83,-138.718 1341.62,-132.3"/>
</g>
<!-- Node25 -->
<g id="node25" class="node"><title>Node25</title>
<polygon fill="none" stroke="#bfbfbf" points="1310.5,-0.5 1310.5,-19.5 1364.5,-19.5 1364.5,-0.5 1310.5,-0.5"/>
<text text-anchor="middle" x="1337.5" y="-7.5" font-family="Helvetica,sans-Serif" font-size="10.00">iostream</text>
</g>
<!-- Node21&#45;&gt;Node25 -->
<g id="edge35" class="edge"><title>Node21&#45;&gt;Node25</title>
<path fill="none" stroke="midnightblue" d="M1411.99,-171.46C1367.03,-160.76 1272.94,-137.795 1268.5,-132 1247.96,-105.188 1252.41,-85.7001 1268.5,-56 1276.25,-41.6958 1290.73,-31.2188 1304.44,-23.992"/>
<polygon fill="midnightblue" stroke="midnightblue" points="1306.24,-27.0103 1313.71,-19.501 1303.19,-20.7104 1306.24,-27.0103"/>
</g>
<!-- Node26 -->
<g id="node26" class="node"><title>Node26</title>
<polygon fill="none" stroke="#bfbfbf" points="1612.5,-56.5 1612.5,-75.5 1656.5,-75.5 1656.5,-56.5 1612.5,-56.5"/>
<text text-anchor="middle" x="1634.5" y="-63.5" font-family="Helvetica,sans-Serif" font-size="10.00">vector</text>
</g>
<!-- Node21&#45;&gt;Node26 -->
<g id="edge38" class="edge"><title>Node21&#45;&gt;Node26</title>
<path fill="none" stroke="midnightblue" d="M1459.05,-173.55C1488.67,-168.353 1540.16,-156.406 1577.5,-132 1596.46,-119.606 1612.88,-99.2312 1623.16,-84.5951"/>
<polygon fill="midnightblue" stroke="midnightblue" points="1626.3,-86.1944 1629,-75.9473 1620.5,-82.2791 1626.3,-86.1944"/>
</g>
<!-- Node27 -->
<g id="node27" class="node"><title>Node27</title>
<polygon fill="none" stroke="#bfbfbf" points="1363,-112.5 1363,-131.5 1430,-131.5 1430,-112.5 1363,-112.5"/>
<text text-anchor="middle" x="1396.5" y="-119.5" font-family="Helvetica,sans-Serif" font-size="10.00">QDateTime</text>
</g>
<!-- Node21&#45;&gt;Node27 -->
<g id="edge31" class="edge"><title>Node21&#45;&gt;Node27</title>
<path fill="none" stroke="midnightblue" d="M1429.06,-168.083C1423.55,-160.455 1415.47,-149.264 1408.74,-139.941"/>
<polygon fill="midnightblue" stroke="midnightblue" points="1411.51,-137.809 1402.82,-131.751 1405.84,-141.907 1411.51,-137.809"/>
</g>
<!-- Node28 -->
<g id="node28" class="node"><title>Node28</title>
<polygon fill="none" stroke="#bfbfbf" points="1028.5,-112.5 1028.5,-131.5 1078.5,-131.5 1078.5,-112.5 1028.5,-112.5"/>
<text text-anchor="middle" x="1053.5" y="-119.5" font-family="Helvetica,sans-Serif" font-size="10.00">QString</text>
</g>
<!-- Node21&#45;&gt;Node28 -->
<g id="edge32" class="edge"><title>Node21&#45;&gt;Node28</title>
<path fill="none" stroke="midnightblue" d="M1411.78,-174.115C1343.31,-165.762 1146.96,-141.636 1088.66,-131.859"/>
<polygon fill="midnightblue" stroke="midnightblue" points="1089.13,-128.387 1078.67,-130.052 1087.88,-135.275 1089.13,-128.387"/>
</g>
<!-- Node29 -->
<g id="node29" class="node"><title>Node29</title>
<polygon fill="none" stroke="#bfbfbf" points="1097,-112.5 1097,-131.5 1162,-131.5 1162,-112.5 1097,-112.5"/>
<text text-anchor="middle" x="1129.5" y="-119.5" font-family="Helvetica,sans-Serif" font-size="10.00">QStringList</text>
</g>
<!-- Node21&#45;&gt;Node29 -->
<g id="edge33" class="edge"><title>Node21&#45;&gt;Node29</title>
<path fill="none" stroke="midnightblue" d="M1411.68,-173.346C1366.77,-166.376 1266.32,-150.387 1172.12,-132.247"/>
<polygon fill="midnightblue" stroke="midnightblue" points="1172.63,-128.781 1162.14,-130.313 1171.3,-135.653 1172.63,-128.781"/>
</g>
<!-- Node30 -->
<g id="node30" class="node"><title>Node30</title>
<polygon fill="none" stroke="#bfbfbf" points="1448.5,-112.5 1448.5,-131.5 1498.5,-131.5 1498.5,-112.5 1448.5,-112.5"/>
<text text-anchor="middle" x="1473.5" y="-119.5" font-family="Helvetica,sans-Serif" font-size="10.00">fstream</text>
</g>
<!-- Node21&#45;&gt;Node30 -->
<g id="edge34" class="edge"><title>Node21&#45;&gt;Node30</title>
<path fill="none" stroke="midnightblue" d="M1441.77,-168.083C1447.14,-160.455 1455.02,-149.264 1461.58,-139.941"/>
<polygon fill="midnightblue" stroke="midnightblue" points="1464.45,-141.943 1467.34,-131.751 1458.72,-137.915 1464.45,-141.943"/>
</g>
<!-- Node31 -->
<g id="node31" class="node"><title>Node31</title>
<polygon fill="none" stroke="#bfbfbf" points="1516.5,-112.5 1516.5,-131.5 1568.5,-131.5 1568.5,-112.5 1516.5,-112.5"/>
<text text-anchor="middle" x="1542.5" y="-119.5" font-family="Helvetica,sans-Serif" font-size="10.00">sstream</text>
</g>
<!-- Node21&#45;&gt;Node31 -->
<g id="edge36" class="edge"><title>Node21&#45;&gt;Node31</title>
<path fill="none" stroke="midnightblue" d="M1452.69,-168.324C1469.85,-159.664 1496.45,-146.242 1516.25,-136.249"/>
<polygon fill="midnightblue" stroke="midnightblue" points="1518,-139.285 1525.35,-131.655 1514.85,-133.035 1518,-139.285"/>
</g>
<!-- Node32 -->
<g id="node32" class="node"><title>Node32</title>
<polygon fill="none" stroke="#bfbfbf" points="1180,-112.5 1180,-131.5 1221,-131.5 1221,-112.5 1180,-112.5"/>
<text text-anchor="middle" x="1200.5" y="-119.5" font-family="Helvetica,sans-Serif" font-size="10.00">string</text>
</g>
<!-- Node21&#45;&gt;Node32 -->
<g id="edge37" class="edge"><title>Node21&#45;&gt;Node32</title>
<path fill="none" stroke="midnightblue" d="M1411.8,-171.332C1407.06,-170.216 1402.13,-169.062 1397.5,-168 1325.61,-151.5 1307.23,-149.187 1235.5,-132 1234.05,-131.653 1232.57,-131.293 1231.07,-130.925"/>
<polygon fill="midnightblue" stroke="midnightblue" points="1231.75,-127.486 1221.2,-128.443 1230.05,-134.275 1231.75,-127.486"/>
</g>
<!-- Node23 -->
<g id="node23" class="node"><title>Node23</title>
<g id="a_node23"><a xlink:href="emissionprobability_8h.html" target="_top" xlink:title="emissionprobability.h">
<polygon fill="none" stroke="black" points="1277.5,-56.5 1277.5,-75.5 1385.5,-75.5 1385.5,-56.5 1277.5,-56.5"/>
<text text-anchor="middle" x="1331.5" y="-63.5" font-family="Helvetica,sans-Serif" font-size="10.00">emissionprobability.h</text>
</a>
</g>
</g>
<!-- Node22&#45;&gt;Node23 -->
<g id="edge27" class="edge"><title>Node22&#45;&gt;Node23</title>
<path fill="none" stroke="midnightblue" d="M1314.8,-112.083C1317.48,-104.849 1321.35,-94.4087 1324.69,-85.3968"/>
<polygon fill="midnightblue" stroke="midnightblue" points="1328.07,-86.3442 1328.26,-75.7511 1321.5,-83.9129 1328.07,-86.3442"/>
</g>
<!-- Node24 -->
<g id="node24" class="node"><title>Node24</title>
<g id="a_node24"><a xlink:href="point_8h.html" target="_top" xlink:title="Class Point. ">
<polygon fill="none" stroke="black" points="1403.5,-56.5 1403.5,-75.5 1449.5,-75.5 1449.5,-56.5 1403.5,-56.5"/>
<text text-anchor="middle" x="1426.5" y="-63.5" font-family="Helvetica,sans-Serif" font-size="10.00">point.h</text>
</a>
</g>
</g>
<!-- Node22&#45;&gt;Node24 -->
<g id="edge28" class="edge"><title>Node22&#45;&gt;Node24</title>
<path fill="none" stroke="midnightblue" d="M1329.72,-112.444C1348.4,-103.675 1377.66,-89.9355 1399.12,-79.8579"/>
<polygon fill="midnightblue" stroke="midnightblue" points="1400.8,-82.935 1408.36,-75.5164 1397.82,-76.5988 1400.8,-82.935"/>
</g>
<!-- Node22&#45;&gt;Node26 -->
<g id="edge30" class="edge"><title>Node22&#45;&gt;Node26</title>
<path fill="none" stroke="midnightblue" d="M1345.27,-113.775C1348.39,-113.156 1351.5,-112.555 1354.5,-112 1443.96,-95.4595 1550.14,-79.3533 1602.31,-71.6711"/>
<polygon fill="midnightblue" stroke="midnightblue" points="1602.91,-75.1202 1612.3,-70.2059 1601.9,-68.1943 1602.91,-75.1202"/>
</g>
<!-- Node24&#45;&gt;Node25 -->
<g id="edge29" class="edge"><title>Node24&#45;&gt;Node25</title>
<path fill="none" stroke="midnightblue" d="M1412.2,-56.324C1398.32,-47.9002 1377.01,-34.9709 1360.7,-25.0741"/>
<polygon fill="midnightblue" stroke="midnightblue" points="1362.13,-21.8495 1351.76,-19.6545 1358.5,-27.8341 1362.13,-21.8495"/>
</g>
<!-- Node33&#45;&gt;Node2 -->
<g id="edge40" class="edge"><title>Node33&#45;&gt;Node2</title>
<path fill="none" stroke="midnightblue" d="M737.461,-280.681C706.514,-271.499 656.513,-256.663 621.929,-246.402"/>
<polygon fill="midnightblue" stroke="midnightblue" points="622.754,-242.996 612.171,-243.507 620.763,-249.707 622.754,-242.996"/>
</g>
<!-- Node33&#45;&gt;Node5 -->
<g id="edge45" class="edge"><title>Node33&#45;&gt;Node5</title>
<path fill="none" stroke="midnightblue" d="M751.04,-280.324C737,-271.9 715.452,-258.971 698.957,-249.074"/>
<polygon fill="midnightblue" stroke="midnightblue" points="700.3,-245.798 689.924,-243.655 696.698,-251.801 700.3,-245.798"/>
</g>
<!-- Node33&#45;&gt;Node13 -->
<g id="edge48" class="edge"><title>Node33&#45;&gt;Node13</title>
<path fill="none" stroke="midnightblue" d="M737.462,-283.843C696.275,-276.18 616.775,-261.061 539.28,-244.096"/>
<polygon fill="midnightblue" stroke="midnightblue" points="539.869,-240.642 529.351,-241.91 538.364,-247.479 539.869,-240.642"/>
</g>
<!-- Node33&#45;&gt;Node15 -->
<g id="edge41" class="edge"><title>Node33&#45;&gt;Node15</title>
<path fill="none" stroke="midnightblue" d="M793.604,-284.443C847.667,-275.676 967.18,-256.295 1039.48,-244.571"/>
<polygon fill="midnightblue" stroke="midnightblue" points="1040.04,-248.025 1049.35,-242.97 1038.92,-241.116 1040.04,-248.025"/>
</g>
<!-- Node33&#45;&gt;Node16 -->
<g id="edge42" class="edge"><title>Node33&#45;&gt;Node16</title>
<path fill="none" stroke="midnightblue" d="M765.5,-280.083C765.5,-273.006 765.5,-262.861 765.5,-253.986"/>
<polygon fill="midnightblue" stroke="midnightblue" points="769,-253.751 765.5,-243.751 762,-253.751 769,-253.751"/>
</g>
<!-- Node33&#45;&gt;Node18 -->
<g id="edge43" class="edge"><title>Node33&#45;&gt;Node18</title>
<path fill="none" stroke="midnightblue" d="M777.711,-280.324C789.276,-272.107 806.875,-259.602 820.661,-249.807"/>
<polygon fill="midnightblue" stroke="midnightblue" points="822.943,-252.479 829.067,-243.834 818.888,-246.773 822.943,-252.479"/>
</g>
<!-- Node33&#45;&gt;Node19 -->
<g id="edge44" class="edge"><title>Node33&#45;&gt;Node19</title>
<path fill="none" stroke="midnightblue" d="M788.317,-280.444C812.332,-271.438 850.329,-257.189 877.369,-247.049"/>
<polygon fill="midnightblue" stroke="midnightblue" points="878.655,-250.305 886.79,-243.516 876.197,-243.751 878.655,-250.305"/>
</g>
<!-- Node33&#45;&gt;Node20 -->
<g id="edge47" class="edge"><title>Node33&#45;&gt;Node20</title>
<path fill="none" stroke="midnightblue" d="M793.791,-282.27C832.132,-273.149 901.045,-256.756 946.783,-245.875"/>
<polygon fill="midnightblue" stroke="midnightblue" points="947.821,-249.226 956.74,-243.507 946.201,-242.416 947.821,-249.226"/>
</g>
<!-- Node34 -->
<g id="node34" class="node"><title>Node34</title>
<polygon fill="none" stroke="#bfbfbf" points="339.5,-224.5 339.5,-243.5 417.5,-243.5 417.5,-224.5 339.5,-224.5"/>
<text text-anchor="middle" x="378.5" y="-231.5" font-family="Helvetica,sans-Serif" font-size="10.00">QRadioButton</text>
</g>
<!-- Node33&#45;&gt;Node34 -->
<g id="edge46" class="edge"><title>Node33&#45;&gt;Node34</title>
<path fill="none" stroke="midnightblue" d="M737.302,-285.532C679.737,-278.38 544.584,-261.214 431.5,-244 430.228,-243.806 428.94,-243.608 427.641,-243.405"/>
<polygon fill="midnightblue" stroke="midnightblue" points="427.978,-239.914 417.55,-241.787 426.87,-246.826 427.978,-239.914"/>
</g>
<!-- Node35 -->
<g id="node35" class="node"><title>Node35</title>
<g id="a_node35"><a xlink:href="file_8h.html" target="_top" xlink:title="file.h">
<polygon fill="none" stroke="black" points="895.5,-168.5 895.5,-187.5 933.5,-187.5 933.5,-168.5 895.5,-168.5"/>
<text text-anchor="middle" x="914.5" y="-175.5" font-family="Helvetica,sans-Serif" font-size="10.00">file.h</text>
</a>
</g>
</g>
<!-- Node33&#45;&gt;Node35 -->
<g id="edge49" class="edge"><title>Node33&#45;&gt;Node35</title>
<path fill="none" stroke="midnightblue" d="M737.393,-289.238C669.512,-289.152 499.636,-284.779 464.5,-244 458.698,-237.266 458.536,-230.591 464.5,-224 492.781,-192.75 790.209,-182.264 885.384,-179.695"/>
<polygon fill="midnightblue" stroke="midnightblue" points="885.554,-183.192 895.459,-179.433 885.371,-176.194 885.554,-183.192"/>
</g>
<!-- Node35&#45;&gt;Node25 -->
<g id="edge55" class="edge"><title>Node35&#45;&gt;Node25</title>
<path fill="none" stroke="midnightblue" d="M914.449,-168.477C914.849,-154.601 917.735,-127.155 933.5,-112 986.58,-60.9718 1210.95,-27.2061 1300.43,-15.5367"/>
<polygon fill="midnightblue" stroke="midnightblue" points="1300.93,-19.0009 1310.41,-14.2548 1300.04,-12.058 1300.93,-19.0009"/>
</g>
<!-- Node35&#45;&gt;Node28 -->
<g id="edge52" class="edge"><title>Node35&#45;&gt;Node28</title>
<path fill="none" stroke="midnightblue" d="M933.536,-169.605C956.316,-160.755 994.789,-145.809 1022.02,-135.231"/>
<polygon fill="midnightblue" stroke="midnightblue" points="1023.44,-138.435 1031.49,-131.551 1020.9,-131.91 1023.44,-138.435"/>
</g>
<!-- Node35&#45;&gt;Node29 -->
<g id="edge53" class="edge"><title>Node35&#45;&gt;Node29</title>
<path fill="none" stroke="midnightblue" d="M933.58,-172.208C967.857,-163.599 1040.61,-145.325 1087.17,-133.631"/>
<polygon fill="midnightblue" stroke="midnightblue" points="1088.13,-137 1096.97,-131.169 1086.42,-130.211 1088.13,-137"/>
</g>
<!-- Node35&#45;&gt;Node32 -->
<g id="edge56" class="edge"><title>Node35&#45;&gt;Node32</title>
<path fill="none" stroke="midnightblue" d="M933.604,-174.426C974.902,-168.696 1075.69,-153.827 1169.95,-131.875"/>
<polygon fill="midnightblue" stroke="midnightblue" points="1171,-135.223 1179.93,-129.518 1169.39,-128.411 1171,-135.223"/>
</g>
<!-- Node36 -->
<g id="node36" class="node"><title>Node36</title>
<polygon fill="none" stroke="#bfbfbf" points="846.5,-112.5 846.5,-131.5 886.5,-131.5 886.5,-112.5 846.5,-112.5"/>
<text text-anchor="middle" x="866.5" y="-119.5" font-family="Helvetica,sans-Serif" font-size="10.00">QFile</text>
</g>
<!-- Node35&#45;&gt;Node36 -->
<g id="edge50" class="edge"><title>Node35&#45;&gt;Node36</title>
<path fill="none" stroke="midnightblue" d="M906.574,-168.083C899.654,-160.298 889.435,-148.801 881.048,-139.367"/>
<polygon fill="midnightblue" stroke="midnightblue" points="883.538,-136.9 874.279,-131.751 878.306,-141.55 883.538,-136.9"/>
</g>
<!-- Node37 -->
<g id="node37" class="node"><title>Node37</title>
<polygon fill="none" stroke="#bfbfbf" points="942.5,-112.5 942.5,-131.5 1010.5,-131.5 1010.5,-112.5 942.5,-112.5"/>
<text text-anchor="middle" x="976.5" y="-119.5" font-family="Helvetica,sans-Serif" font-size="10.00">QFileDialog</text>
</g>
<!-- Node35&#45;&gt;Node37 -->
<g id="edge51" class="edge"><title>Node35&#45;&gt;Node37</title>
<path fill="none" stroke="midnightblue" d="M924.461,-168.324C933.627,-160.341 947.437,-148.313 958.528,-138.653"/>
<polygon fill="midnightblue" stroke="midnightblue" points="961.115,-141.041 966.357,-131.834 956.518,-135.762 961.115,-141.041"/>
</g>
<!-- Node38 -->
<g id="node38" class="node"><title>Node38</title>
<polygon fill="none" stroke="#bfbfbf" points="655,-112.5 655,-131.5 730,-131.5 730,-112.5 655,-112.5"/>
<text text-anchor="middle" x="692.5" y="-119.5" font-family="Helvetica,sans-Serif" font-size="10.00">QTextStream</text>
</g>
<!-- Node35&#45;&gt;Node38 -->
<g id="edge54" class="edge"><title>Node35&#45;&gt;Node38</title>
<path fill="none" stroke="midnightblue" d="M895.187,-172.302C860.323,-163.822 786.016,-145.747 737.713,-133.998"/>
<polygon fill="midnightblue" stroke="midnightblue" points="738.368,-130.555 727.824,-131.592 736.714,-137.357 738.368,-130.555"/>
</g>
<!-- Node39 -->
<g id="node39" class="node"><title>Node39</title>
<g id="a_node39"><a xlink:href="myexception_8h.html" target="_top" xlink:title="myexception.h">
<polygon fill="none" stroke="black" points="748.5,-112.5 748.5,-131.5 828.5,-131.5 828.5,-112.5 748.5,-112.5"/>
<text text-anchor="middle" x="788.5" y="-119.5" font-family="Helvetica,sans-Serif" font-size="10.00">myexception.h</text>
</a>
</g>
</g>
<!-- Node35&#45;&gt;Node39 -->
<g id="edge57" class="edge"><title>Node35&#45;&gt;Node39</title>
<path fill="none" stroke="midnightblue" d="M895.363,-168.799C874.791,-159.982 841.83,-145.856 817.95,-135.621"/>
<polygon fill="midnightblue" stroke="midnightblue" points="819.223,-132.359 808.652,-131.637 816.465,-138.793 819.223,-132.359"/>
</g>
<!-- Node40 -->
<g id="node40" class="node"><title>Node40</title>
<polygon fill="none" stroke="#bfbfbf" points="759,-56.5 759,-75.5 818,-75.5 818,-56.5 759,-56.5"/>
<text text-anchor="middle" x="788.5" y="-63.5" font-family="Helvetica,sans-Serif" font-size="10.00">exception</text>
</g>
<!-- Node39&#45;&gt;Node40 -->
<g id="edge58" class="edge"><title>Node39&#45;&gt;Node40</title>
<path fill="none" stroke="midnightblue" d="M788.5,-112.083C788.5,-105.006 788.5,-94.8611 788.5,-85.9865"/>
<polygon fill="midnightblue" stroke="midnightblue" points="792,-85.751 788.5,-75.7511 785,-85.7511 792,-85.751"/>
</g>
<!-- Node41&#45;&gt;Node21 -->
<g id="edge70" class="edge"><title>Node41&#45;&gt;Node21</title>
<path fill="none" stroke="midnightblue" d="M1457.62,-280.368C1453.74,-262.617 1444.81,-221.666 1439.56,-197.597"/>
<polygon fill="midnightblue" stroke="midnightblue" points="1442.93,-196.615 1437.37,-187.591 1436.09,-198.108 1442.93,-196.615"/>
</g>
<!-- Node41&#45;&gt;Node26 -->
<g id="edge73" class="edge"><title>Node41&#45;&gt;Node26</title>
<path fill="none" stroke="midnightblue" d="M1480.12,-282.659C1483.25,-281.74 1486.46,-280.826 1489.5,-280 1603.36,-249.096 1678.63,-289.657 1738.5,-188 1745.55,-176.038 1755.74,-139.336 1737.5,-112 1721.74,-88.3859 1690.64,-77.0784 1666.71,-71.7162"/>
<polygon fill="midnightblue" stroke="midnightblue" points="1667.12,-68.23 1656.63,-69.7056 1665.75,-75.0947 1667.12,-68.23"/>
</g>
<!-- Node41&#45;&gt;Node28 -->
<g id="edge71" class="edge"><title>Node41&#45;&gt;Node28</title>
<path fill="none" stroke="midnightblue" d="M1448.37,-280.38C1430.48,-266.854 1393.85,-240.489 1359.5,-224 1310.23,-200.346 1157.91,-153.963 1088.55,-133.326"/>
<polygon fill="midnightblue" stroke="midnightblue" points="1089.52,-129.964 1078.94,-130.473 1087.53,-136.674 1089.52,-129.964"/>
</g>
<!-- Node42 -->
<g id="node42" class="node"><title>Node42</title>
<g id="a_node42"><a xlink:href="road_8h.html" target="_top" xlink:title="road.h">
<polygon fill="none" stroke="black" points="1482.5,-224.5 1482.5,-243.5 1526.5,-243.5 1526.5,-224.5 1482.5,-224.5"/>
<text text-anchor="middle" x="1504.5" y="-231.5" font-family="Helvetica,sans-Serif" font-size="10.00">road.h</text>
</a>
</g>
</g>
<!-- Node41&#45;&gt;Node42 -->
<g id="edge61" class="edge"><title>Node41&#45;&gt;Node42</title>
<path fill="none" stroke="midnightblue" d="M1466.93,-280.083C1473.35,-272.377 1482.81,-261.033 1490.62,-251.653"/>
<polygon fill="midnightblue" stroke="midnightblue" points="1493.49,-253.674 1497.21,-243.751 1488.12,-249.193 1493.49,-253.674"/>
</g>
<!-- Node45 -->
<g id="node45" class="node"><title>Node45</title>
<polygon fill="none" stroke="#bfbfbf" points="1545,-224.5 1545,-243.5 1628,-243.5 1628,-224.5 1545,-224.5"/>
<text text-anchor="middle" x="1586.5" y="-231.5" font-family="Helvetica,sans-Serif" font-size="10.00">unordered_map</text>
</g>
<!-- Node41&#45;&gt;Node45 -->
<g id="edge72" class="edge"><title>Node41&#45;&gt;Node45</title>
<path fill="none" stroke="midnightblue" d="M1479.62,-280.444C1500.52,-271.557 1533.43,-257.563 1557.22,-247.451"/>
<polygon fill="midnightblue" stroke="midnightblue" points="1558.64,-250.65 1566.47,-243.516 1555.9,-244.208 1558.64,-250.65"/>
</g>
<!-- Node42&#45;&gt;Node21 -->
<g id="edge66" class="edge"><title>Node42&#45;&gt;Node21</title>
<path fill="none" stroke="midnightblue" d="M1493.41,-224.324C1483.01,-216.185 1467.24,-203.839 1454.78,-194.087"/>
<polygon fill="midnightblue" stroke="midnightblue" points="1456.82,-191.241 1446.79,-187.834 1452.51,-196.753 1456.82,-191.241"/>
</g>
<!-- Node42&#45;&gt;Node26 -->
<g id="edge69" class="edge"><title>Node42&#45;&gt;Node26</title>
<path fill="none" stroke="midnightblue" d="M1514.75,-224.408C1533.86,-207.985 1575.48,-170.345 1602.5,-132 1612.79,-117.397 1621.51,-98.99 1627.24,-85.4948"/>
<polygon fill="midnightblue" stroke="midnightblue" points="1630.62,-86.4726 1631.16,-75.8916 1624.14,-83.8255 1630.62,-86.4726"/>
</g>
<!-- Node42&#45;&gt;Node32 -->
<g id="edge68" class="edge"><title>Node42&#45;&gt;Node32</title>
<path fill="none" stroke="midnightblue" d="M1485.12,-224.416C1464.77,-215.393 1431.86,-200.762 1403.5,-188 1383.91,-179.184 1379.67,-175.39 1359.5,-168 1335.89,-159.347 1270.03,-141.439 1230.88,-131.011"/>
<polygon fill="midnightblue" stroke="midnightblue" points="1231.63,-127.591 1221.07,-128.407 1229.84,-134.356 1231.63,-127.591"/>
</g>
<!-- Node43 -->
<g id="node43" class="node"><title>Node43</title>
<g id="a_node43"><a xlink:href="pointroad_8h.html" target="_top" xlink:title="pointroad.h">
<polygon fill="none" stroke="black" points="1663,-112.5 1663,-131.5 1728,-131.5 1728,-112.5 1663,-112.5"/>
<text text-anchor="middle" x="1695.5" y="-119.5" font-family="Helvetica,sans-Serif" font-size="10.00">pointroad.h</text>
</a>
</g>
</g>
<!-- Node42&#45;&gt;Node43 -->
<g id="edge62" class="edge"><title>Node42&#45;&gt;Node43</title>
<path fill="none" stroke="midnightblue" d="M1526.8,-226.377C1565.73,-214.761 1642.46,-191.6 1647.5,-188 1664.76,-175.686 1678.37,-155.258 1686.62,-140.588"/>
<polygon fill="midnightblue" stroke="midnightblue" points="1689.84,-141.993 1691.46,-131.522 1683.66,-138.697 1689.84,-141.993"/>
</g>
<!-- Node44 -->
<g id="node44" class="node"><title>Node44</title>
<polygon fill="none" stroke="#bfbfbf" points="1699.5,-168.5 1699.5,-187.5 1729.5,-187.5 1729.5,-168.5 1699.5,-168.5"/>
<text text-anchor="middle" x="1714.5" y="-175.5" font-family="Helvetica,sans-Serif" font-size="10.00">set</text>
</g>
<!-- Node42&#45;&gt;Node44 -->
<g id="edge67" class="edge"><title>Node42&#45;&gt;Node44</title>
<path fill="none" stroke="midnightblue" d="M1526.5,-226.695C1529.85,-225.771 1533.26,-224.846 1536.5,-224 1602.41,-206.774 1619.82,-206.106 1685.5,-188 1686.76,-187.653 1688.04,-187.289 1689.34,-186.915"/>
<polygon fill="midnightblue" stroke="midnightblue" points="1690.63,-190.181 1699.2,-183.948 1688.62,-183.477 1690.63,-190.181"/>
</g>
<!-- Node43&#45;&gt;Node24 -->
<g id="edge63" class="edge"><title>Node43&#45;&gt;Node24</title>
<path fill="none" stroke="midnightblue" d="M1662.78,-114.433C1611.17,-104.072 1511.41,-84.0448 1459.57,-73.6395"/>
<polygon fill="midnightblue" stroke="midnightblue" points="1460.07,-70.169 1449.58,-71.6323 1458.69,-77.0321 1460.07,-70.169"/>
</g>
<!-- Node43&#45;&gt;Node25 -->
<g id="edge64" class="edge"><title>Node43&#45;&gt;Node25</title>
<path fill="none" stroke="midnightblue" d="M1694.16,-112.164C1691.5,-97.8362 1684.08,-69.7567 1665.5,-56 1620.06,-22.3525 1450.73,-13.8445 1374.78,-11.7086"/>
<polygon fill="midnightblue" stroke="midnightblue" points="1374.79,-8.20782 1364.7,-11.4475 1374.61,-15.2055 1374.79,-8.20782"/>
</g>
<!-- Node43&#45;&gt;Node26 -->
<g id="edge65" class="edge"><title>Node43&#45;&gt;Node26</title>
<path fill="none" stroke="midnightblue" d="M1685.7,-112.324C1676.68,-104.341 1663.09,-92.3128 1652.18,-82.6529"/>
<polygon fill="midnightblue" stroke="midnightblue" points="1654.29,-79.8416 1644.48,-75.8339 1649.65,-85.083 1654.29,-79.8416"/>
</g>
</g>
</svg>
