<?xml version="1.0" encoding="UTF-8" standalone="no"?>
<!DOCTYPE svg PUBLIC "-//W3C//DTD SVG 1.1//EN"
 "http://www.w3.org/Graphics/SVG/1.1/DTD/svg11.dtd">
<!-- Generated by graphviz version 2.38.0 (20140413.2041)
 -->
<!-- Title: SlidingStackedWidget.h Pages: 1 -->
<svg width="403pt" height="84pt"
 viewBox="0.00 0.00 402.50 84.00" xmlns="http://www.w3.org/2000/svg" xmlns:xlink="http://www.w3.org/1999/xlink">
<g id="graph0" class="graph" transform="scale(1 1) rotate(0) translate(4 80)">
<title>SlidingStackedWidget.h</title>
<!-- Node1 -->
<g id="node1" class="node"><title>Node1</title>
<polygon fill="#bfbfbf" stroke="black" points="160,-56.5 160,-75.5 281,-75.5 281,-56.5 160,-56.5"/>
<text text-anchor="middle" x="220.5" y="-63.5" font-family="Helvetica,sans-Serif" font-size="10.00">SlidingStackedWidget.h</text>
</g>
<!-- Node2 -->
<g id="node2" class="node"><title>Node2</title>
<polygon fill="none" stroke="#bfbfbf" points="0,-0.5 0,-19.5 91,-19.5 91,-0.5 0,-0.5"/>
<text text-anchor="middle" x="45.5" y="-7.5" font-family="Helvetica,sans-Serif" font-size="10.00">QStackedWidget</text>
</g>
<!-- Node1&#45;&gt;Node2 -->
<g id="edge1" class="edge"><title>Node1&#45;&gt;Node2</title>
<path fill="none" stroke="midnightblue" d="M192.771,-56.4435C163.074,-47.2801 115.784,-32.6876 82.8307,-22.5192"/>
<polygon fill="midnightblue" stroke="midnightblue" points="83.687,-19.1206 73.0995,-19.5164 81.623,-25.8094 83.687,-19.1206"/>
</g>
<!-- Node3 -->
<g id="node3" class="node"><title>Node3</title>
<polygon fill="none" stroke="#bfbfbf" points="109,-0.5 109,-19.5 162,-19.5 162,-0.5 109,-0.5"/>
<text text-anchor="middle" x="135.5" y="-7.5" font-family="Helvetica,sans-Serif" font-size="10.00">QDebug</text>
</g>
<!-- Node1&#45;&gt;Node3 -->
<g id="edge2" class="edge"><title>Node1&#45;&gt;Node3</title>
<path fill="none" stroke="midnightblue" d="M206.843,-56.324C193.584,-47.9002 173.232,-34.9709 157.654,-25.0741"/>
<polygon fill="midnightblue" stroke="midnightblue" points="159.44,-22.0626 149.123,-19.6545 155.687,-27.9711 159.44,-22.0626"/>
</g>
<!-- Node4 -->
<g id="node4" class="node"><title>Node4</title>
<polygon fill="none" stroke="#bfbfbf" points="180.5,-0.5 180.5,-19.5 260.5,-19.5 260.5,-0.5 180.5,-0.5"/>
<text text-anchor="middle" x="220.5" y="-7.5" font-family="Helvetica,sans-Serif" font-size="10.00">QEasingCurve</text>
</g>
<!-- Node1&#45;&gt;Node4 -->
<g id="edge3" class="edge"><title>Node1&#45;&gt;Node4</title>
<path fill="none" stroke="midnightblue" d="M220.5,-56.083C220.5,-49.0059 220.5,-38.8611 220.5,-29.9865"/>
<polygon fill="midnightblue" stroke="midnightblue" points="224,-29.751 220.5,-19.7511 217,-29.7511 224,-29.751"/>
</g>
<!-- Node5 -->
<g id="node5" class="node"><title>Node5</title>
<polygon fill="none" stroke="#bfbfbf" points="279,-0.5 279,-19.5 334,-19.5 334,-0.5 279,-0.5"/>
<text text-anchor="middle" x="306.5" y="-7.5" font-family="Helvetica,sans-Serif" font-size="10.00">QWidget</text>
</g>
<!-- Node1&#45;&gt;Node5 -->
<g id="edge4" class="edge"><title>Node1&#45;&gt;Node5</title>
<path fill="none" stroke="midnightblue" d="M234.317,-56.324C247.733,-47.9002 268.324,-34.9709 284.086,-25.0741"/>
<polygon fill="midnightblue" stroke="midnightblue" points="286.109,-27.9364 292.717,-19.6545 282.387,-22.0081 286.109,-27.9364"/>
</g>
<!-- Node6 -->
<g id="node6" class="node"><title>Node6</title>
<polygon fill="none" stroke="#bfbfbf" points="352.5,-0.5 352.5,-19.5 394.5,-19.5 394.5,-0.5 352.5,-0.5"/>
<text text-anchor="middle" x="373.5" y="-7.5" font-family="Helvetica,sans-Serif" font-size="10.00">QtGui</text>
</g>
<!-- Node1&#45;&gt;Node6 -->
<g id="edge5" class="edge"><title>Node1&#45;&gt;Node6</title>
<path fill="none" stroke="midnightblue" d="M244.743,-56.4435C271.275,-47.0794 313.871,-32.0456 342.737,-21.8574"/>
<polygon fill="midnightblue" stroke="midnightblue" points="344.061,-25.1018 352.326,-18.473 341.732,-18.5008 344.061,-25.1018"/>
</g>
</g>
</svg>
