<?xml version="1.0" encoding="UTF-8" standalone="no"?>
<!DOCTYPE svg PUBLIC "-//W3C//DTD SVG 1.1//EN"
 "http://www.w3.org/Graphics/SVG/1.1/DTD/svg11.dtd">
<!-- Generated by graphviz version 2.38.0 (20140413.2041)
 -->
<!-- Title: main.cpp Pages: 1 -->
<svg width="648pt" height="84pt"
 viewBox="0.00 0.00 648.00 84.00" xmlns="http://www.w3.org/2000/svg" xmlns:xlink="http://www.w3.org/1999/xlink">
<g id="graph0" class="graph" transform="scale(1 1) rotate(0) translate(4 80)">
<title>main.cpp</title>
<!-- Node1 -->
<g id="node1" class="node"><title>Node1</title>
<polygon fill="#bfbfbf" stroke="black" points="287,-56.5 287,-75.5 343,-75.5 343,-56.5 287,-56.5"/>
<text text-anchor="middle" x="315" y="-63.5" font-family="Helvetica,sans-Serif" font-size="10.00">main.cpp</text>
</g>
<!-- Node2 -->
<g id="node2" class="node"><title>Node2</title>
<polygon fill="none" stroke="#bfbfbf" points="0,-0.5 0,-19.5 72,-19.5 72,-0.5 0,-0.5"/>
<text text-anchor="middle" x="36" y="-7.5" font-family="Helvetica,sans-Serif" font-size="10.00">QApplication</text>
</g>
<!-- Node1&#45;&gt;Node2 -->
<g id="edge1" class="edge"><title>Node1&#45;&gt;Node2</title>
<path fill="none" stroke="midnightblue" d="M286.892,-59.6642C244.746,-51.6486 162.407,-35.9307 82.5713,-20.2977"/>
<polygon fill="midnightblue" stroke="midnightblue" points="82.8313,-16.7821 72.3447,-18.2929 81.4846,-23.6514 82.8313,-16.7821"/>
</g>
<!-- Node3 -->
<g id="node3" class="node"><title>Node3</title>
<polygon fill="none" stroke="#bfbfbf" points="90.5,-0.5 90.5,-19.5 127.5,-19.5 127.5,-0.5 90.5,-0.5"/>
<text text-anchor="middle" x="109" y="-7.5" font-family="Helvetica,sans-Serif" font-size="10.00">QDir</text>
</g>
<!-- Node1&#45;&gt;Node3 -->
<g id="edge2" class="edge"><title>Node1&#45;&gt;Node3</title>
<path fill="none" stroke="midnightblue" d="M286.798,-58.4542C253.432,-50.5831 196.015,-36.6419 137.419,-19.9764"/>
<polygon fill="midnightblue" stroke="midnightblue" points="138.203,-16.5603 127.626,-17.1684 136.274,-23.2892 138.203,-16.5603"/>
</g>
<!-- Node4 -->
<g id="node4" class="node"><title>Node4</title>
<polygon fill="none" stroke="#bfbfbf" points="146,-0.5 146,-19.5 186,-19.5 186,-0.5 146,-0.5"/>
<text text-anchor="middle" x="166" y="-7.5" font-family="Helvetica,sans-Serif" font-size="10.00">QFile</text>
</g>
<!-- Node1&#45;&gt;Node4 -->
<g id="edge3" class="edge"><title>Node1&#45;&gt;Node4</title>
<path fill="none" stroke="midnightblue" d="M291.391,-56.4435C265.519,-47.0673 223.963,-32.0068 195.85,-21.818"/>
<polygon fill="midnightblue" stroke="midnightblue" points="196.748,-18.421 186.154,-18.3042 194.363,-25.0021 196.748,-18.421"/>
</g>
<!-- Node5 -->
<g id="node5" class="node"><title>Node5</title>
<polygon fill="none" stroke="#bfbfbf" points="204,-0.5 204,-19.5 272,-19.5 272,-0.5 204,-0.5"/>
<text text-anchor="middle" x="238" y="-7.5" font-family="Helvetica,sans-Serif" font-size="10.00">QFileDialog</text>
</g>
<!-- Node1&#45;&gt;Node5 -->
<g id="edge4" class="edge"><title>Node1&#45;&gt;Node5</title>
<path fill="none" stroke="midnightblue" d="M302.629,-56.324C290.842,-48.0577 272.868,-35.4527 258.864,-25.6322"/>
<polygon fill="midnightblue" stroke="midnightblue" points="260.538,-22.5307 250.341,-19.6545 256.518,-28.2619 260.538,-22.5307"/>
</g>
<!-- Node6 -->
<g id="node6" class="node"><title>Node6</title>
<polygon fill="none" stroke="#bfbfbf" points="290,-0.5 290,-19.5 340,-19.5 340,-0.5 290,-0.5"/>
<text text-anchor="middle" x="315" y="-7.5" font-family="Helvetica,sans-Serif" font-size="10.00">QString</text>
</g>
<!-- Node1&#45;&gt;Node6 -->
<g id="edge5" class="edge"><title>Node1&#45;&gt;Node6</title>
<path fill="none" stroke="midnightblue" d="M315,-56.083C315,-49.0059 315,-38.8611 315,-29.9865"/>
<polygon fill="midnightblue" stroke="midnightblue" points="318.5,-29.751 315,-19.7511 311.5,-29.7511 318.5,-29.751"/>
</g>
<!-- Node7 -->
<g id="node7" class="node"><title>Node7</title>
<polygon fill="none" stroke="#bfbfbf" points="358.5,-0.5 358.5,-19.5 433.5,-19.5 433.5,-0.5 358.5,-0.5"/>
<text text-anchor="middle" x="396" y="-7.5" font-family="Helvetica,sans-Serif" font-size="10.00">QTextStream</text>
</g>
<!-- Node1&#45;&gt;Node7 -->
<g id="edge6" class="edge"><title>Node1&#45;&gt;Node7</title>
<path fill="none" stroke="midnightblue" d="M328.014,-56.324C340.532,-47.979 359.682,-35.2122 374.471,-25.3524"/>
<polygon fill="midnightblue" stroke="midnightblue" points="376.639,-28.1137 383.018,-19.6545 372.756,-22.2894 376.639,-28.1137"/>
</g>
<!-- Node8 -->
<g id="node8" class="node"><title>Node8</title>
<polygon fill="none" stroke="#bfbfbf" points="452,-0.5 452,-19.5 506,-19.5 506,-0.5 452,-0.5"/>
<text text-anchor="middle" x="479" y="-7.5" font-family="Helvetica,sans-Serif" font-size="10.00">iostream</text>
</g>
<!-- Node1&#45;&gt;Node8 -->
<g id="edge7" class="edge"><title>Node1&#45;&gt;Node8</title>
<path fill="none" stroke="midnightblue" d="M340.986,-56.4435C368.696,-47.3196 412.752,-32.8133 443.616,-22.6509"/>
<polygon fill="midnightblue" stroke="midnightblue" points="444.732,-25.9684 453.135,-19.5164 442.542,-19.3196 444.732,-25.9684"/>
</g>
<!-- Node9 -->
<g id="node9" class="node"><title>Node9</title>
<polygon fill="none" stroke="#bfbfbf" points="524.5,-0.5 524.5,-19.5 565.5,-19.5 565.5,-0.5 524.5,-0.5"/>
<text text-anchor="middle" x="545" y="-7.5" font-family="Helvetica,sans-Serif" font-size="10.00">string</text>
</g>
<!-- Node1&#45;&gt;Node9 -->
<g id="edge8" class="edge"><title>Node1&#45;&gt;Node9</title>
<path fill="none" stroke="midnightblue" d="M343.304,-59.2848C380.368,-51.6593 447.555,-37.3528 514.522,-19.9741"/>
<polygon fill="midnightblue" stroke="midnightblue" points="515.61,-23.3073 524.397,-17.3881 513.836,-16.5356 515.61,-23.3073"/>
</g>
<!-- Node10 -->
<g id="node10" class="node"><title>Node10</title>
<polygon fill="none" stroke="#bfbfbf" points="584,-0.5 584,-19.5 640,-19.5 640,-0.5 584,-0.5"/>
<text text-anchor="middle" x="612" y="-7.5" font-family="Helvetica,sans-Serif" font-size="10.00">../trace.h</text>
</g>
<!-- Node1&#45;&gt;Node10 -->
<g id="edge9" class="edge"><title>Node1&#45;&gt;Node10</title>
<path fill="none" stroke="midnightblue" d="M343.204,-60.7554C389.374,-53.6697 484.157,-38.5505 573.968,-20.1049"/>
<polygon fill="midnightblue" stroke="midnightblue" points="574.681,-23.5316 583.763,-18.0756 573.26,-16.6772 574.681,-23.5316"/>
</g>
</g>
</svg>
