<?xml version="1.0" encoding="UTF-8" standalone="no"?>
<!DOCTYPE svg PUBLIC "-//W3C//DTD SVG 1.1//EN"
 "http://www.w3.org/Graphics/SVG/1.1/DTD/svg11.dtd">
<!-- Generated by graphviz version 2.38.0 (20140413.2041)
 -->
<!-- Title: box.h Pages: 1 -->
<svg width="180pt" height="196pt"
 viewBox="0.00 0.00 179.50 196.00" xmlns="http://www.w3.org/2000/svg" xmlns:xlink="http://www.w3.org/1999/xlink">
<g id="graph0" class="graph" transform="scale(1 1) rotate(0) translate(4 192)">
<title>box.h</title>
<!-- Node1 -->
<g id="node1" class="node"><title>Node1</title>
<polygon fill="#bfbfbf" stroke="black" points="42,-168.5 42,-187.5 83,-187.5 83,-168.5 42,-168.5"/>
<text text-anchor="middle" x="62.5" y="-175.5" font-family="Helvetica,sans-Serif" font-size="10.00">box.h</text>
</g>
<!-- Node2 -->
<g id="node2" class="node"><title>Node2</title>
<g id="a_node2"><a xlink:href="box_8cpp.html" target="_top" xlink:title="box.cpp">
<polygon fill="none" stroke="black" points="0,-112.5 0,-131.5 51,-131.5 51,-112.5 0,-112.5"/>
<text text-anchor="middle" x="25.5" y="-119.5" font-family="Helvetica,sans-Serif" font-size="10.00">box.cpp</text>
</a>
</g>
</g>
<!-- Node1&#45;&gt;Node2 -->
<g id="edge1" class="edge"><title>Node1&#45;&gt;Node2</title>
<path fill="none" stroke="midnightblue" d="M50.5542,-159.566C44.1883,-150.275 36.6332,-139.248 31.4961,-131.751"/>
<polygon fill="midnightblue" stroke="midnightblue" points="47.8506,-161.812 56.3902,-168.083 53.6251,-157.855 47.8506,-161.812"/>
</g>
<!-- Node3 -->
<g id="node3" class="node"><title>Node3</title>
<g id="a_node3"><a xlink:href="boxnode_8h.html" target="_top" xlink:title="boxnode.h">
<polygon fill="none" stroke="black" points="69.5,-112.5 69.5,-131.5 131.5,-131.5 131.5,-112.5 69.5,-112.5"/>
<text text-anchor="middle" x="100.5" y="-119.5" font-family="Helvetica,sans-Serif" font-size="10.00">boxnode.h</text>
</a>
</g>
</g>
<!-- Node1&#45;&gt;Node3 -->
<g id="edge2" class="edge"><title>Node1&#45;&gt;Node3</title>
<path fill="none" stroke="midnightblue" d="M74.5647,-159.855C81.1447,-150.505 89.011,-139.327 94.3418,-131.751"/>
<polygon fill="midnightblue" stroke="midnightblue" points="71.6676,-157.891 68.7749,-168.083 77.3922,-161.919 71.6676,-157.891"/>
</g>
<!-- Node4 -->
<g id="node4" class="node"><title>Node4</title>
<g id="a_node4"><a xlink:href="boxnode_8cpp.html" target="_top" xlink:title="boxnode.cpp">
<polygon fill="none" stroke="black" points="24.5,-56.5 24.5,-75.5 96.5,-75.5 96.5,-56.5 24.5,-56.5"/>
<text text-anchor="middle" x="60.5" y="-63.5" font-family="Helvetica,sans-Serif" font-size="10.00">boxnode.cpp</text>
</a>
</g>
</g>
<!-- Node3&#45;&gt;Node4 -->
<g id="edge3" class="edge"><title>Node3&#45;&gt;Node4</title>
<path fill="none" stroke="midnightblue" d="M87.8003,-103.855C80.874,-94.5048 72.5937,-83.3265 66.9823,-75.7511"/>
<polygon fill="midnightblue" stroke="midnightblue" points="85.13,-106.131 93.8948,-112.083 90.755,-101.964 85.13,-106.131"/>
</g>
<!-- Node5 -->
<g id="node5" class="node"><title>Node5</title>
<g id="a_node5"><a xlink:href="kdtree_8h.html" target="_top" xlink:title="kdtree.h">
<polygon fill="none" stroke="black" points="114.5,-56.5 114.5,-75.5 166.5,-75.5 166.5,-56.5 114.5,-56.5"/>
<text text-anchor="middle" x="140.5" y="-63.5" font-family="Helvetica,sans-Serif" font-size="10.00">kdtree.h</text>
</a>
</g>
</g>
<!-- Node3&#45;&gt;Node5 -->
<g id="edge4" class="edge"><title>Node3&#45;&gt;Node5</title>
<path fill="none" stroke="midnightblue" d="M113.2,-103.855C120.126,-94.5048 128.406,-83.3265 134.018,-75.7511"/>
<polygon fill="midnightblue" stroke="midnightblue" points="110.245,-101.964 107.105,-112.083 115.87,-106.131 110.245,-101.964"/>
</g>
<!-- Node6 -->
<g id="node6" class="node"><title>Node6</title>
<g id="a_node6"><a xlink:href="kdtree_8cpp.html" target="_top" xlink:title="kdtree.cpp">
<polygon fill="none" stroke="black" points="109.5,-0.5 109.5,-19.5 171.5,-19.5 171.5,-0.5 109.5,-0.5"/>
<text text-anchor="middle" x="140.5" y="-7.5" font-family="Helvetica,sans-Serif" font-size="10.00">kdtree.cpp</text>
</a>
</g>
</g>
<!-- Node5&#45;&gt;Node6 -->
<g id="edge5" class="edge"><title>Node5&#45;&gt;Node6</title>
<path fill="none" stroke="midnightblue" d="M140.5,-45.8045C140.5,-36.9102 140.5,-26.7798 140.5,-19.7511"/>
<polygon fill="midnightblue" stroke="midnightblue" points="137,-46.083 140.5,-56.083 144,-46.083 137,-46.083"/>
</g>
</g>
</svg>
