<?xml version="1.0" encoding="UTF-8" standalone="no"?>
<!DOCTYPE svg PUBLIC "-//W3C//DTD SVG 1.1//EN"
 "http://www.w3.org/Graphics/SVG/1.1/DTD/svg11.dtd">
<!-- Generated by graphviz version 2.38.0 (20140413.2041)
 -->
<!-- Title: boxnode.h Pages: 1 -->
<svg width="70pt" height="196pt"
 viewBox="0.00 0.00 70.00 196.00" xmlns="http://www.w3.org/2000/svg" xmlns:xlink="http://www.w3.org/1999/xlink">
<g id="graph0" class="graph" transform="scale(1 1) rotate(0) translate(4 192)">
<title>boxnode.h</title>
<!-- Node1 -->
<g id="node1" class="node"><title>Node1</title>
<polygon fill="#bfbfbf" stroke="black" points="-3.55271e-15,-168.5 -3.55271e-15,-187.5 62,-187.5 62,-168.5 -3.55271e-15,-168.5"/>
<text text-anchor="middle" x="31" y="-175.5" font-family="Helvetica,sans-Serif" font-size="10.00">boxnode.h</text>
</g>
<!-- Node2 -->
<g id="node2" class="node"><title>Node2</title>
<g id="a_node2"><a xlink:href="box_8h.html" target="_top" xlink:title="box.h">
<polygon fill="none" stroke="black" points="10.5,-112.5 10.5,-131.5 51.5,-131.5 51.5,-112.5 10.5,-112.5"/>
<text text-anchor="middle" x="31" y="-119.5" font-family="Helvetica,sans-Serif" font-size="10.00">box.h</text>
</a>
</g>
</g>
<!-- Node1&#45;&gt;Node2 -->
<g id="edge1" class="edge"><title>Node1&#45;&gt;Node2</title>
<path fill="none" stroke="midnightblue" d="M31,-168.083C31,-161.006 31,-150.861 31,-141.986"/>
<polygon fill="midnightblue" stroke="midnightblue" points="34.5001,-141.751 31,-131.751 27.5001,-141.751 34.5001,-141.751"/>
</g>
<!-- Node3 -->
<g id="node3" class="node"><title>Node3</title>
<g id="a_node3"><a xlink:href="point_8h.html" target="_top" xlink:title="Class Point. ">
<polygon fill="none" stroke="black" points="3.5,-56.5 3.5,-75.5 58.5,-75.5 58.5,-56.5 3.5,-56.5"/>
<text text-anchor="middle" x="31" y="-63.5" font-family="Helvetica,sans-Serif" font-size="10.00">../point.h</text>
</a>
</g>
</g>
<!-- Node2&#45;&gt;Node3 -->
<g id="edge2" class="edge"><title>Node2&#45;&gt;Node3</title>
<path fill="none" stroke="midnightblue" d="M31,-112.083C31,-105.006 31,-94.8611 31,-85.9865"/>
<polygon fill="midnightblue" stroke="midnightblue" points="34.5001,-85.751 31,-75.7511 27.5001,-85.7511 34.5001,-85.751"/>
</g>
<!-- Node4 -->
<g id="node4" class="node"><title>Node4</title>
<polygon fill="none" stroke="#bfbfbf" points="4,-0.5 4,-19.5 58,-19.5 58,-0.5 4,-0.5"/>
<text text-anchor="middle" x="31" y="-7.5" font-family="Helvetica,sans-Serif" font-size="10.00">iostream</text>
</g>
<!-- Node3&#45;&gt;Node4 -->
<g id="edge3" class="edge"><title>Node3&#45;&gt;Node4</title>
<path fill="none" stroke="midnightblue" d="M31,-56.083C31,-49.0059 31,-38.8611 31,-29.9865"/>
<polygon fill="midnightblue" stroke="midnightblue" points="34.5001,-29.751 31,-19.7511 27.5001,-29.7511 34.5001,-29.751"/>
</g>
</g>
</svg>
