<?xml version="1.0" encoding="UTF-8" standalone="no"?>
<!DOCTYPE svg PUBLIC "-//W3C//DTD SVG 1.1//EN"
 "http://www.w3.org/Graphics/SVG/1.1/DTD/svg11.dtd">
<!-- Generated by graphviz version 2.38.0 (20140413.2041)
 -->
<!-- Title: PointRoad::updateBelongToRoad Pages: 1 -->
<svg width="1134pt" height="142pt"
 viewBox="0.00 0.00 1134.00 142.00" xmlns="http://www.w3.org/2000/svg" xmlns:xlink="http://www.w3.org/1999/xlink">
<g id="graph0" class="graph" transform="scale(1 1) rotate(0) translate(4 138)">
<title>PointRoad::updateBelongToRoad</title>
<!-- Node1 -->
<g id="node1" class="node"><title>Node1</title>
<polygon fill="#bfbfbf" stroke="black" points="0,-38.5 0,-57.5 162,-57.5 162,-38.5 0,-38.5"/>
<text text-anchor="middle" x="81" y="-45.5" font-family="Helvetica,sans-Serif" font-size="10.00">PointRoad::updateBelongToRoad</text>
</g>
<!-- Node2 -->
<g id="node2" class="node"><title>Node2</title>
<g id="a_node2"><a xlink:href="class_grid.html#aba1830bc145f128d6deeed29cfb94c9f" target="_top" xlink:title="Creates a new road and inserts it in m_road. ">
<polygon fill="none" stroke="black" points="215,-57.5 215,-76.5 295,-76.5 295,-57.5 215,-57.5"/>
<text text-anchor="middle" x="255" y="-64.5" font-family="Helvetica,sans-Serif" font-size="10.00">Grid::addRoad</text>
</a>
</g>
</g>
<!-- Node1&#45;&gt;Node2 -->
<g id="edge1" class="edge"><title>Node1&#45;&gt;Node2</title>
<path fill="none" stroke="midnightblue" d="M172.471,-57.9939C187.284,-59.6302 201.92,-61.2469 214.614,-62.6492"/>
<polygon fill="midnightblue" stroke="midnightblue" points="172.533,-54.4795 162.209,-56.8603 171.764,-61.4372 172.533,-54.4795"/>
</g>
<!-- Node14 -->
<g id="node14" class="node"><title>Node14</title>
<g id="a_node14"><a xlink:href="class_point_road.html#a43fd84566d77d7a3d3993818a2654954" target="_top" xlink:title="Constructor for Road points. ">
<polygon fill="none" stroke="black" points="198,-19.5 198,-38.5 312,-38.5 312,-19.5 198,-19.5"/>
<text text-anchor="middle" x="255" y="-26.5" font-family="Helvetica,sans-Serif" font-size="10.00">PointRoad::PointRoad</text>
</a>
</g>
</g>
<!-- Node1&#45;&gt;Node14 -->
<g id="edge13" class="edge"><title>Node1&#45;&gt;Node14</title>
<path fill="none" stroke="midnightblue" d="M172.422,-38.0116C181.116,-37.0512 189.749,-36.0974 197.966,-35.1898"/>
<polygon fill="midnightblue" stroke="midnightblue" points="171.764,-34.5628 162.209,-39.1397 172.533,-41.5205 171.764,-34.5628"/>
</g>
<!-- Node3 -->
<g id="node3" class="node"><title>Node3</title>
<g id="a_node3"><a xlink:href="class_grid.html#ae848f1c59c544adc1af9133409ee0106" target="_top" xlink:title="Reads a csv file and inserts info into the corresponding attributs. ">
<polygon fill="none" stroke="black" points="348,-57.5 348,-76.5 451,-76.5 451,-57.5 348,-57.5"/>
<text text-anchor="middle" x="399.5" y="-64.5" font-family="Helvetica,sans-Serif" font-size="10.00">Grid::readFromCSV</text>
</a>
</g>
</g>
<!-- Node2&#45;&gt;Node3 -->
<g id="edge2" class="edge"><title>Node2&#45;&gt;Node3</title>
<path fill="none" stroke="midnightblue" d="M305.512,-67C319.198,-67 334.066,-67 347.817,-67"/>
<polygon fill="midnightblue" stroke="midnightblue" points="305.316,-63.5001 295.316,-67 305.316,-70.5001 305.316,-63.5001"/>
</g>
<!-- Node4 -->
<g id="node4" class="node"><title>Node4</title>
<g id="a_node4"><a xlink:href="main_8cpp.html#a640261e473790d1a87c2f33332460793" target="_top" xlink:title="dev_grid">
<polygon fill="none" stroke="black" points="508,-114.5 508,-133.5 561,-133.5 561,-114.5 508,-114.5"/>
<text text-anchor="middle" x="534.5" y="-121.5" font-family="Helvetica,sans-Serif" font-size="10.00">dev_grid</text>
</a>
</g>
</g>
<!-- Node3&#45;&gt;Node4 -->
<g id="edge3" class="edge"><title>Node3&#45;&gt;Node4</title>
<path fill="none" stroke="midnightblue" d="M430.953,-80.6093C447.489,-87.9404 468.316,-97.0805 487,-105 494.387,-108.131 502.47,-111.466 509.795,-114.453"/>
<polygon fill="midnightblue" stroke="midnightblue" points="432.322,-77.3874 421.762,-76.5247 429.479,-83.7842 432.322,-77.3874"/>
</g>
<!-- Node5 -->
<g id="node5" class="node"><title>Node5</title>
<g id="a_node5"><a xlink:href="main_8cpp.html#a141063eccadf0e03662d414d897d9f5d" target="_top" xlink:title="dev_gridAndTrack">
<polygon fill="none" stroke="black" points="487,-76.5 487,-95.5 582,-95.5 582,-76.5 487,-76.5"/>
<text text-anchor="middle" x="534.5" y="-83.5" font-family="Helvetica,sans-Serif" font-size="10.00">dev_gridAndTrack</text>
</a>
</g>
</g>
<!-- Node3&#45;&gt;Node5 -->
<g id="edge4" class="edge"><title>Node3&#45;&gt;Node5</title>
<path fill="none" stroke="midnightblue" d="M461.202,-75.6717C469.837,-76.9053 478.604,-78.1577 486.913,-79.3447"/>
<polygon fill="midnightblue" stroke="midnightblue" points="461.556,-72.1868 451.161,-74.2373 460.565,-79.1164 461.556,-72.1868"/>
</g>
<!-- Node6 -->
<g id="node6" class="node"><title>Node6</title>
<g id="a_node6"><a xlink:href="class_solver.html#a97bc7169c18b339fecd4937150f907c3" target="_top" xlink:title="Solver::start">
<polygon fill="none" stroke="black" points="499.5,-38.5 499.5,-57.5 569.5,-57.5 569.5,-38.5 499.5,-38.5"/>
<text text-anchor="middle" x="534.5" y="-45.5" font-family="Helvetica,sans-Serif" font-size="10.00">Solver::start</text>
</a>
</g>
</g>
<!-- Node3&#45;&gt;Node6 -->
<g id="edge5" class="edge"><title>Node3&#45;&gt;Node6</title>
<path fill="none" stroke="midnightblue" d="M461.132,-58.3383C474.294,-56.4579 487.766,-54.5334 499.462,-52.8625"/>
<polygon fill="midnightblue" stroke="midnightblue" points="460.565,-54.8836 451.161,-59.7627 461.556,-61.8132 460.565,-54.8836"/>
</g>
<!-- Node10 -->
<g id="node10" class="node"><title>Node10</title>
<g id="a_node10"><a xlink:href="class_solver.html#acbe7e47bcad48b8ddba95c9281c8bf23" target="_top" xlink:title="readFiles Read files : track and grid ">
<polygon fill="none" stroke="black" points="489.5,-0.5 489.5,-19.5 579.5,-19.5 579.5,-0.5 489.5,-0.5"/>
<text text-anchor="middle" x="534.5" y="-7.5" font-family="Helvetica,sans-Serif" font-size="10.00">Solver::readFiles</text>
</a>
</g>
</g>
<!-- Node3&#45;&gt;Node10 -->
<g id="edge9" class="edge"><title>Node3&#45;&gt;Node10</title>
<path fill="none" stroke="midnightblue" d="M430.953,-53.3907C447.489,-46.0596 468.316,-36.9195 487,-29 494.387,-25.8689 502.47,-22.5344 509.795,-19.5471"/>
<polygon fill="midnightblue" stroke="midnightblue" points="429.479,-50.2158 421.762,-57.4753 432.322,-56.6126 429.479,-50.2158"/>
</g>
<!-- Node7 -->
<g id="node7" class="node"><title>Node7</title>
<g id="a_node7"><a xlink:href="main_8cpp.html#a9dd67c19acf7317c6296b63e29dcfab9" target="_top" xlink:title="dev_thread">
<polygon fill="none" stroke="black" points="655.5,-76.5 655.5,-95.5 720.5,-95.5 720.5,-76.5 655.5,-76.5"/>
<text text-anchor="middle" x="688" y="-83.5" font-family="Helvetica,sans-Serif" font-size="10.00">dev_thread</text>
</a>
</g>
</g>
<!-- Node6&#45;&gt;Node7 -->
<g id="edge6" class="edge"><title>Node6&#45;&gt;Node7</title>
<path fill="none" stroke="midnightblue" d="M579.894,-59.1352C604.093,-65.2049 633.477,-72.575 655.342,-78.0593"/>
<polygon fill="midnightblue" stroke="midnightblue" points="580.429,-55.6609 569.878,-56.6228 578.726,-62.4506 580.429,-55.6609"/>
</g>
<!-- Node9 -->
<g id="node9" class="node"><title>Node9</title>
<g id="a_node9"><a xlink:href="class_solver.html#a323c9c0407f26a2ed3ec3ff5ed02a760" target="_top" xlink:title="Solver::onSignalStart">
<polygon fill="none" stroke="black" points="633.5,-38.5 633.5,-57.5 742.5,-57.5 742.5,-38.5 633.5,-38.5"/>
<text text-anchor="middle" x="688" y="-45.5" font-family="Helvetica,sans-Serif" font-size="10.00">Solver::onSignalStart</text>
</a>
</g>
</g>
<!-- Node6&#45;&gt;Node9 -->
<g id="edge8" class="edge"><title>Node6&#45;&gt;Node9</title>
<path fill="none" stroke="midnightblue" d="M579.952,-48C596.706,-48 615.939,-48 633.439,-48"/>
<polygon fill="midnightblue" stroke="midnightblue" points="579.878,-44.5001 569.878,-48 579.878,-51.5001 579.878,-44.5001"/>
</g>
<!-- Node8 -->
<g id="node8" class="node"><title>Node8</title>
<g id="a_node8"><a xlink:href="main_8cpp.html#a0ddf1224851353fc92bfbff6f499fa97" target="_top" xlink:title="main">
<polygon fill="none" stroke="black" points="855.5,-76.5 855.5,-95.5 893.5,-95.5 893.5,-76.5 855.5,-76.5"/>
<text text-anchor="middle" x="874.5" y="-83.5" font-family="Helvetica,sans-Serif" font-size="10.00">main</text>
</a>
</g>
</g>
<!-- Node7&#45;&gt;Node8 -->
<g id="edge7" class="edge"><title>Node7&#45;&gt;Node8</title>
<path fill="none" stroke="midnightblue" d="M730.733,-86C769.774,-86 826.269,-86 855.087,-86"/>
<polygon fill="midnightblue" stroke="midnightblue" points="730.717,-82.5001 720.717,-86 730.717,-89.5001 730.717,-82.5001"/>
</g>
<!-- Node11 -->
<g id="node11" class="node"><title>Node11</title>
<g id="a_node11"><a xlink:href="class_main_window.html#ad39bbe8ced0d3248206ac0ca6c444d55" target="_top" xlink:title="readyToNext1 Pass informations ">
<polygon fill="none" stroke="black" points="618,-0.5 618,-19.5 758,-19.5 758,-0.5 618,-0.5"/>
<text text-anchor="middle" x="688" y="-7.5" font-family="Helvetica,sans-Serif" font-size="10.00">MainWindow::readyToNext1</text>
</a>
</g>
</g>
<!-- Node10&#45;&gt;Node11 -->
<g id="edge10" class="edge"><title>Node10&#45;&gt;Node11</title>
<path fill="none" stroke="midnightblue" d="M589.798,-10C598.915,-10 608.484,-10 617.915,-10"/>
<polygon fill="midnightblue" stroke="midnightblue" points="589.727,-6.5001 579.727,-10 589.727,-13.5001 589.727,-6.5001"/>
</g>
<!-- Node12 -->
<g id="node12" class="node"><title>Node12</title>
<g id="a_node12"><a xlink:href="class_main_window.html#af773488e0b16efe6c0fc67ad348b86b2" target="_top" xlink:title="createConnections ">
<polygon fill="none" stroke="black" points="794,-0.5 794,-19.5 955,-19.5 955,-0.5 794,-0.5"/>
<text text-anchor="middle" x="874.5" y="-7.5" font-family="Helvetica,sans-Serif" font-size="10.00">MainWindow::createConnections</text>
</a>
</g>
</g>
<!-- Node11&#45;&gt;Node12 -->
<g id="edge11" class="edge"><title>Node11&#45;&gt;Node12</title>
<path fill="none" stroke="midnightblue" d="M768.446,-10C776.9,-10 785.501,-10 793.956,-10"/>
<polygon fill="midnightblue" stroke="midnightblue" points="768.226,-6.5001 758.226,-10 768.226,-13.5001 768.226,-6.5001"/>
</g>
<!-- Node13 -->
<g id="node13" class="node"><title>Node13</title>
<g id="a_node13"><a xlink:href="class_main_window.html#a8b244be8b7b7db1b08de2a2acb9409db" target="_top" xlink:title="MainWindow::MainWindow">
<polygon fill="none" stroke="black" points="991,-0.5 991,-19.5 1126,-19.5 1126,-0.5 991,-0.5"/>
<text text-anchor="middle" x="1058.5" y="-7.5" font-family="Helvetica,sans-Serif" font-size="10.00">MainWindow::MainWindow</text>
</a>
</g>
</g>
<!-- Node12&#45;&gt;Node13 -->
<g id="edge12" class="edge"><title>Node12&#45;&gt;Node13</title>
<path fill="none" stroke="midnightblue" d="M965.196,-10C973.85,-10 982.52,-10 990.892,-10"/>
<polygon fill="midnightblue" stroke="midnightblue" points="965.063,-6.5001 955.063,-10 965.063,-13.5001 965.063,-6.5001"/>
</g>
</g>
</svg>
