<?xml version="1.0" encoding="UTF-8" standalone="no"?>
<!DOCTYPE svg PUBLIC "-//W3C//DTD SVG 1.1//EN"
 "http://www.w3.org/Graphics/SVG/1.1/DTD/svg11.dtd">
<!-- Generated by graphviz version 2.38.0 (20140413.2041)
 -->
<!-- Title: Grid::getSegmentCounter Pages: 1 -->
<svg width="456pt" height="85pt"
 viewBox="0.00 0.00 456.00 85.00" xmlns="http://www.w3.org/2000/svg" xmlns:xlink="http://www.w3.org/1999/xlink">
<g id="graph0" class="graph" transform="scale(1 1) rotate(0) translate(4 81)">
<title>Grid::getSegmentCounter</title>
<!-- Node1 -->
<g id="node1" class="node"><title>Node1</title>
<polygon fill="#bfbfbf" stroke="black" points="0,-38.5 0,-57.5 128,-57.5 128,-38.5 0,-38.5"/>
<text text-anchor="middle" x="64" y="-45.5" font-family="Helvetica,sans-Serif" font-size="10.00">Grid::getSegmentCounter</text>
</g>
<!-- Node2 -->
<g id="node2" class="node"><title>Node2</title>
<g id="a_node2"><a xlink:href="class_road.html#a2877f55c577ddff8c519e7f44c2256d5" target="_top" xlink:title="Get the vector of points composing the road. ">
<polygon fill="none" stroke="black" points="170.5,-57.5 170.5,-76.5 289.5,-76.5 289.5,-57.5 170.5,-57.5"/>
<text text-anchor="middle" x="230" y="-64.5" font-family="Helvetica,sans-Serif" font-size="10.00">Road::vectorOfPointsId</text>
</a>
</g>
</g>
<!-- Node1&#45;&gt;Node2 -->
<g id="edge1" class="edge"><title>Node1&#45;&gt;Node2</title>
<path fill="none" stroke="midnightblue" d="M128.407,-55.3459C138.858,-56.5567 149.734,-57.8167 160.307,-59.0416"/>
<polygon fill="midnightblue" stroke="midnightblue" points="159.99,-62.5283 170.327,-60.2025 160.796,-55.5748 159.99,-62.5283"/>
</g>
<!-- Node3 -->
<g id="node3" class="node"><title>Node3</title>
<g id="a_node3"><a xlink:href="class_point.html#a39daa6ebd31cdc2d7151db77bfdf2166" target="_top" xlink:title="Compute the distance between a point and a segment. ">
<polygon fill="none" stroke="black" points="164,-19.5 164,-38.5 296,-38.5 296,-19.5 164,-19.5"/>
<text text-anchor="middle" x="230" y="-26.5" font-family="Helvetica,sans-Serif" font-size="10.00">Point::distanceToSegment</text>
</a>
</g>
</g>
<!-- Node1&#45;&gt;Node3 -->
<g id="edge2" class="edge"><title>Node1&#45;&gt;Node3</title>
<path fill="none" stroke="midnightblue" d="M128.407,-40.6541C136.764,-39.6859 145.393,-38.6861 153.922,-37.6981"/>
<polygon fill="midnightblue" stroke="midnightblue" points="154.335,-41.1738 163.865,-36.5461 153.529,-34.2203 154.335,-41.1738"/>
</g>
<!-- Node4 -->
<g id="node4" class="node"><title>Node4</title>
<g id="a_node4"><a xlink:href="class_point.html#a9d93fb520b4a3e170aab25ea738b105c" target="_top" xlink:title="Check if two points share the same coordinates. ">
<polygon fill="none" stroke="black" points="338,-38.5 338,-57.5 442,-57.5 442,-38.5 338,-38.5"/>
<text text-anchor="middle" x="390" y="-45.5" font-family="Helvetica,sans-Serif" font-size="10.00">Point::samePointAs</text>
</a>
</g>
</g>
<!-- Node3&#45;&gt;Node4 -->
<g id="edge3" class="edge"><title>Node3&#45;&gt;Node4</title>
<path fill="none" stroke="midnightblue" d="M296.177,-36.8377C306.633,-38.0951 317.422,-39.3925 327.781,-40.6382"/>
<polygon fill="midnightblue" stroke="midnightblue" points="327.621,-44.1442 337.968,-41.8632 328.457,-37.1942 327.621,-44.1442"/>
</g>
<!-- Node5 -->
<g id="node5" class="node"><title>Node5</title>
<g id="a_node5"><a xlink:href="class_point.html#a7cd7f7e2c0f1a11b66eac8b6f360bfd9" target="_top" xlink:title="Calculate distance between two points. ">
<polygon fill="none" stroke="black" points="332,-0.5 332,-19.5 448,-19.5 448,-0.5 332,-0.5"/>
<text text-anchor="middle" x="390" y="-7.5" font-family="Helvetica,sans-Serif" font-size="10.00">Point::distanceToPoint</text>
</a>
</g>
</g>
<!-- Node3&#45;&gt;Node5 -->
<g id="edge4" class="edge"><title>Node3&#45;&gt;Node5</title>
<path fill="none" stroke="midnightblue" d="M296.177,-21.1623C304.517,-20.1594 313.069,-19.131 321.445,-18.1237"/>
<polygon fill="midnightblue" stroke="midnightblue" points="322.039,-21.5775 331.55,-16.9086 321.203,-14.6276 322.039,-21.5775"/>
</g>
</g>
</svg>
