<?xml version="1.0" encoding="UTF-8" standalone="no"?>
<!DOCTYPE svg PUBLIC "-//W3C//DTD SVG 1.1//EN"
 "http://www.w3.org/Graphics/SVG/1.1/DTD/svg11.dtd">
<!-- Generated by graphviz version 2.38.0 (20140413.2041)
 -->
<!-- Title: QMapViewer::signalTrackCompleted Pages: 1 -->
<svg width="571pt" height="66pt"
 viewBox="0.00 0.00 571.00 66.00" xmlns="http://www.w3.org/2000/svg" xmlns:xlink="http://www.w3.org/1999/xlink">
<g id="graph0" class="graph" transform="scale(1 1) rotate(0) translate(4 62)">
<title>QMapViewer::signalTrackCompleted</title>
<!-- Node1 -->
<g id="node1" class="node"><title>Node1</title>
<polygon fill="#bfbfbf" stroke="black" points="0,-19.5 0,-38.5 176,-38.5 176,-19.5 0,-19.5"/>
<text text-anchor="middle" x="88" y="-26.5" font-family="Helvetica,sans-Serif" font-size="10.00">QMapViewer::signalTrackCompleted</text>
</g>
<!-- Node2 -->
<g id="node2" class="node"><title>Node2</title>
<g id="a_node2"><a xlink:href="class_q_map_viewer.html#acadee31a64d4f8fe837f630e6e19dd9b" target="_top" xlink:title="QMapViewer::drawAllGPSPoints">
<polygon fill="none" stroke="black" points="212,-38.5 212,-57.5 372,-57.5 372,-38.5 212,-38.5"/>
<text text-anchor="middle" x="292" y="-45.5" font-family="Helvetica,sans-Serif" font-size="10.00">QMapViewer::drawAllGPSPoints</text>
</a>
</g>
</g>
<!-- Node1&#45;&gt;Node2 -->
<g id="edge1" class="edge"><title>Node1&#45;&gt;Node2</title>
<path fill="none" stroke="midnightblue" d="M186.179,-38.1406C194.765,-38.9482 203.388,-39.7593 211.799,-40.5504"/>
<polygon fill="midnightblue" stroke="midnightblue" points="186.416,-34.6475 176.132,-37.1956 185.76,-41.6167 186.416,-34.6475"/>
</g>
<!-- Node4 -->
<g id="node4" class="node"><title>Node4</title>
<g id="a_node4"><a xlink:href="class_q_map_viewer.html#a6cb07aee3bb914c77ede9f45f1c9cddf" target="_top" xlink:title="makePolyline ">
<polygon fill="none" stroke="black" points="223.5,-0.5 223.5,-19.5 360.5,-19.5 360.5,-0.5 223.5,-0.5"/>
<text text-anchor="middle" x="292" y="-7.5" font-family="Helvetica,sans-Serif" font-size="10.00">QMapViewer::makePolyline</text>
</a>
</g>
</g>
<!-- Node1&#45;&gt;Node4 -->
<g id="edge3" class="edge"><title>Node1&#45;&gt;Node4</title>
<path fill="none" stroke="midnightblue" d="M186.179,-19.8594C198.747,-18.6773 211.394,-17.4877 223.34,-16.3641"/>
<polygon fill="midnightblue" stroke="midnightblue" points="185.76,-16.3833 176.132,-20.8044 186.416,-23.3525 185.76,-16.3833"/>
</g>
<!-- Node3 -->
<g id="node3" class="node"><title>Node3</title>
<g id="a_node3"><a xlink:href="class_q_map_viewer.html#a348e9f7fa0b46836bb72b19a852f99ac" target="_top" xlink:title="QMapViewer::onSignalAllPoints">
<polygon fill="none" stroke="black" points="408,-38.5 408,-57.5 563,-57.5 563,-38.5 408,-38.5"/>
<text text-anchor="middle" x="485.5" y="-45.5" font-family="Helvetica,sans-Serif" font-size="10.00">QMapViewer::onSignalAllPoints</text>
</a>
</g>
</g>
<!-- Node2&#45;&gt;Node3 -->
<g id="edge2" class="edge"><title>Node2&#45;&gt;Node3</title>
<path fill="none" stroke="midnightblue" d="M382.513,-48C390.948,-48 399.449,-48 407.751,-48"/>
<polygon fill="midnightblue" stroke="midnightblue" points="382.273,-44.5001 372.273,-48 382.273,-51.5001 382.273,-44.5001"/>
</g>
</g>
</svg>
