<?xml version="1.0" encoding="UTF-8" standalone="no"?>
<!DOCTYPE svg PUBLIC "-//W3C//DTD SVG 1.1//EN"
 "http://www.w3.org/Graphics/SVG/1.1/DTD/svg11.dtd">
<!-- Generated by graphviz version 2.38.0 (20140413.2041)
 -->
<!-- Title: Loading::ready Pages: 1 -->
<svg width="642pt" height="104pt"
 viewBox="0.00 0.00 642.00 104.00" xmlns="http://www.w3.org/2000/svg" xmlns:xlink="http://www.w3.org/1999/xlink">
<g id="graph0" class="graph" transform="scale(1 1) rotate(0) translate(4 100)">
<title>Loading::ready</title>
<!-- Node1 -->
<g id="node1" class="node"><title>Node1</title>
<polygon fill="#bfbfbf" stroke="black" points="0,-38.5 0,-57.5 80,-57.5 80,-38.5 0,-38.5"/>
<text text-anchor="middle" x="40" y="-45.5" font-family="Helvetica,sans-Serif" font-size="10.00">Loading::ready</text>
</g>
<!-- Node2 -->
<g id="node2" class="node"><title>Node2</title>
<g id="a_node2"><a xlink:href="class_loading.html#a1d3058f5f9c701a3bd7300ae985ff83a" target="_top" xlink:title="Loading::launchFiles">
<polygon fill="none" stroke="black" points="116,-38.5 116,-57.5 222,-57.5 222,-38.5 116,-38.5"/>
<text text-anchor="middle" x="169" y="-45.5" font-family="Helvetica,sans-Serif" font-size="10.00">Loading::launchFiles</text>
</a>
</g>
</g>
<!-- Node1&#45;&gt;Node2 -->
<g id="edge1" class="edge"><title>Node1&#45;&gt;Node2</title>
<path fill="none" stroke="midnightblue" d="M90.4077,-48C98.6916,-48 107.312,-48 115.667,-48"/>
<polygon fill="midnightblue" stroke="midnightblue" points="90.1405,-44.5001 80.1405,-48 90.1404,-51.5001 90.1405,-44.5001"/>
</g>
<!-- Node3 -->
<g id="node3" class="node"><title>Node3</title>
<g id="a_node3"><a xlink:href="class_loading.html#ae0c96193667418083fc4a8c6cc19d9db" target="_top" xlink:title="Loading::loadFileCSVTrack">
<polygon fill="none" stroke="black" points="258,-76.5 258,-95.5 394,-95.5 394,-76.5 258,-76.5"/>
<text text-anchor="middle" x="326" y="-83.5" font-family="Helvetica,sans-Serif" font-size="10.00">Loading::loadFileCSVTrack</text>
</a>
</g>
</g>
<!-- Node2&#45;&gt;Node3 -->
<g id="edge2" class="edge"><title>Node2&#45;&gt;Node3</title>
<path fill="none" stroke="midnightblue" d="M219.111,-60.04C240.765,-65.3488 265.85,-71.4988 286.168,-76.4799"/>
<polygon fill="midnightblue" stroke="midnightblue" points="219.659,-56.5708 209.113,-57.589 217.992,-63.3695 219.659,-56.5708"/>
</g>
<!-- Node6 -->
<g id="node6" class="node"><title>Node6</title>
<g id="a_node6"><a xlink:href="class_loading.html#a9a01f3e328100b681f3f08192fc9b208" target="_top" xlink:title="Loading::loadFileSHPTrack">
<polygon fill="none" stroke="black" points="258,-38.5 258,-57.5 394,-57.5 394,-38.5 258,-38.5"/>
<text text-anchor="middle" x="326" y="-45.5" font-family="Helvetica,sans-Serif" font-size="10.00">Loading::loadFileSHPTrack</text>
</a>
</g>
</g>
<!-- Node2&#45;&gt;Node6 -->
<g id="edge5" class="edge"><title>Node2&#45;&gt;Node6</title>
<path fill="none" stroke="midnightblue" d="M232.218,-48C240.685,-48 249.406,-48 257.954,-48"/>
<polygon fill="midnightblue" stroke="midnightblue" points="232.044,-44.5001 222.044,-48 232.044,-51.5001 232.044,-44.5001"/>
</g>
<!-- Node7 -->
<g id="node7" class="node"><title>Node7</title>
<g id="a_node7"><a xlink:href="class_loading.html#a84d718939a74cf1680ea3e2409324194" target="_top" xlink:title="Loading::loadFileGrid">
<polygon fill="none" stroke="black" points="272,-0.5 272,-19.5 380,-19.5 380,-0.5 272,-0.5"/>
<text text-anchor="middle" x="326" y="-7.5" font-family="Helvetica,sans-Serif" font-size="10.00">Loading::loadFileGrid</text>
</a>
</g>
</g>
<!-- Node2&#45;&gt;Node7 -->
<g id="edge7" class="edge"><title>Node2&#45;&gt;Node7</title>
<path fill="none" stroke="midnightblue" d="M219.111,-35.96C240.765,-30.6512 265.85,-24.5012 286.168,-19.5201"/>
<polygon fill="midnightblue" stroke="midnightblue" points="217.992,-32.6305 209.113,-38.411 219.659,-39.4292 217.992,-32.6305"/>
</g>
<!-- Node4 -->
<g id="node4" class="node"><title>Node4</title>
<g id="a_node4"><a xlink:href="class_loading.html#ab603e821bd6b047fb04285e926974ff6" target="_top" xlink:title="Loading::track">
<polygon fill="none" stroke="black" points="430,-38.5 430,-57.5 508,-57.5 508,-38.5 430,-38.5"/>
<text text-anchor="middle" x="469" y="-45.5" font-family="Helvetica,sans-Serif" font-size="10.00">Loading::track</text>
</a>
</g>
</g>
<!-- Node3&#45;&gt;Node4 -->
<g id="edge3" class="edge"><title>Node3&#45;&gt;Node4</title>
<path fill="none" stroke="midnightblue" d="M372.44,-73.7538C391.875,-68.516 414.231,-62.4909 432.431,-57.5859"/>
<polygon fill="midnightblue" stroke="midnightblue" points="371.325,-70.4293 362.58,-76.411 373.147,-77.1882 371.325,-70.4293"/>
</g>
<!-- Node5 -->
<g id="node5" class="node"><title>Node5</title>
<g id="a_node5"><a xlink:href="class_loading.html#a7634c001ec052e10c402e49f5be030db" target="_top" xlink:title="Loading::Loading">
<polygon fill="none" stroke="black" points="544,-19.5 544,-38.5 634,-38.5 634,-19.5 544,-19.5"/>
<text text-anchor="middle" x="589" y="-26.5" font-family="Helvetica,sans-Serif" font-size="10.00">Loading::Loading</text>
</a>
</g>
</g>
<!-- Node4&#45;&gt;Node5 -->
<g id="edge4" class="edge"><title>Node4&#45;&gt;Node5</title>
<path fill="none" stroke="midnightblue" d="M518.358,-40.2135C526.755,-38.8614 535.45,-37.4615 543.731,-36.1281"/>
<polygon fill="midnightblue" stroke="midnightblue" points="517.628,-36.786 508.311,-41.8312 518.74,-43.697 517.628,-36.786"/>
</g>
<!-- Node6&#45;&gt;Node4 -->
<g id="edge6" class="edge"><title>Node6&#45;&gt;Node4</title>
<path fill="none" stroke="midnightblue" d="M404.204,-48C413.041,-48 421.736,-48 429.727,-48"/>
<polygon fill="midnightblue" stroke="midnightblue" points="404.196,-44.5001 394.196,-48 404.196,-51.5001 404.196,-44.5001"/>
</g>
<!-- Node8 -->
<g id="node8" class="node"><title>Node8</title>
<g id="a_node8"><a xlink:href="class_loading.html#afb0b2fe451bdc3f6f2cc186903df96b4" target="_top" xlink:title="Loading::grid">
<polygon fill="none" stroke="black" points="433,-0.5 433,-19.5 505,-19.5 505,-0.5 433,-0.5"/>
<text text-anchor="middle" x="469" y="-7.5" font-family="Helvetica,sans-Serif" font-size="10.00">Loading::grid</text>
</a>
</g>
</g>
<!-- Node7&#45;&gt;Node8 -->
<g id="edge8" class="edge"><title>Node7&#45;&gt;Node8</title>
<path fill="none" stroke="midnightblue" d="M390.35,-10C404.998,-10 420.063,-10 432.979,-10"/>
<polygon fill="midnightblue" stroke="midnightblue" points="390.306,-6.5001 380.306,-10 390.306,-13.5001 390.306,-6.5001"/>
</g>
<!-- Node8&#45;&gt;Node5 -->
<g id="edge9" class="edge"><title>Node8&#45;&gt;Node5</title>
<path fill="none" stroke="midnightblue" d="M515.014,-17.248C524.39,-18.7577 534.266,-20.3479 543.619,-21.8539"/>
<polygon fill="midnightblue" stroke="midnightblue" points="515.514,-13.7835 505.084,-15.6492 514.401,-20.6945 515.514,-13.7835"/>
</g>
</g>
</svg>
