<?xml version="1.0" encoding="UTF-8" standalone="no"?>
<!DOCTYPE svg PUBLIC "-//W3C//DTD SVG 1.1//EN"
 "http://www.w3.org/Graphics/SVG/1.1/DTD/svg11.dtd">
<!-- Generated by graphviz version 2.38.0 (20140413.2041)
 -->
<!-- Title: Grid Pages: 1 -->
<svg width="587pt" height="997pt"
 viewBox="0.00 0.00 586.50 997.00" xmlns="http://www.w3.org/2000/svg" xmlns:xlink="http://www.w3.org/1999/xlink">
<g id="graph0" class="graph" transform="scale(1 1) rotate(0) translate(4 993)">
<title>Grid</title>
<!-- Node1 -->
<g id="node1" class="node"><title>Node1</title>
<polygon fill="#bfbfbf" stroke="black" points="218,-0.5 218,-332.5 329,-332.5 329,-0.5 218,-0.5"/>
<text text-anchor="middle" x="273.5" y="-320.5" font-family="Helvetica,sans-Serif" font-size="10.00">Grid</text>
<polyline fill="none" stroke="black" points="218,-313.5 329,-313.5 "/>
<text text-anchor="start" x="226" y="-301.5" font-family="Helvetica,sans-Serif" font-size="10.00"># m_xMin</text>
<text text-anchor="start" x="226" y="-290.5" font-family="Helvetica,sans-Serif" font-size="10.00"># m_xMax</text>
<text text-anchor="start" x="226" y="-279.5" font-family="Helvetica,sans-Serif" font-size="10.00"># m_yMin</text>
<text text-anchor="start" x="226" y="-268.5" font-family="Helvetica,sans-Serif" font-size="10.00"># m_yMax</text>
<text text-anchor="start" x="226" y="-257.5" font-family="Helvetica,sans-Serif" font-size="10.00"># m_xMinGrid</text>
<text text-anchor="start" x="226" y="-246.5" font-family="Helvetica,sans-Serif" font-size="10.00"># m_xMaxGrid</text>
<text text-anchor="start" x="226" y="-235.5" font-family="Helvetica,sans-Serif" font-size="10.00"># m_yMinGrid</text>
<text text-anchor="start" x="226" y="-224.5" font-family="Helvetica,sans-Serif" font-size="10.00"># m_yMaxGrid</text>
<polyline fill="none" stroke="black" points="218,-217.5 329,-217.5 "/>
<text text-anchor="start" x="226" y="-205.5" font-family="Helvetica,sans-Serif" font-size="10.00">+ addRoad()</text>
<text text-anchor="start" x="226" y="-194.5" font-family="Helvetica,sans-Serif" font-size="10.00">+ buildKDTree()</text>
<text text-anchor="start" x="226" y="-183.5" font-family="Helvetica,sans-Serif" font-size="10.00">+ buildMarkovMatrix()</text>
<text text-anchor="start" x="226" y="-172.5" font-family="Helvetica,sans-Serif" font-size="10.00">+ getNoOfPoints()</text>
<text text-anchor="start" x="226" y="-161.5" font-family="Helvetica,sans-Serif" font-size="10.00">+ getNoOfRoads()</text>
<text text-anchor="start" x="226" y="-150.5" font-family="Helvetica,sans-Serif" font-size="10.00">+ getPoints()</text>
<text text-anchor="start" x="226" y="-139.5" font-family="Helvetica,sans-Serif" font-size="10.00">+ getRoadEntry()</text>
<text text-anchor="start" x="226" y="-128.5" font-family="Helvetica,sans-Serif" font-size="10.00">+ getRoads()</text>
<text text-anchor="start" x="226" y="-117.5" font-family="Helvetica,sans-Serif" font-size="10.00">+ Grid()</text>
<text text-anchor="start" x="226" y="-106.5" font-family="Helvetica,sans-Serif" font-size="10.00">+ inFootPrint()</text>
<text text-anchor="start" x="226" y="-95.5" font-family="Helvetica,sans-Serif" font-size="10.00">and 15 more...</text>
<text text-anchor="start" x="226" y="-84.5" font-family="Helvetica,sans-Serif" font-size="10.00">* m_xMin</text>
<text text-anchor="start" x="226" y="-73.5" font-family="Helvetica,sans-Serif" font-size="10.00">* m_xMax</text>
<text text-anchor="start" x="226" y="-62.5" font-family="Helvetica,sans-Serif" font-size="10.00">* m_yMin</text>
<text text-anchor="start" x="226" y="-51.5" font-family="Helvetica,sans-Serif" font-size="10.00">* m_yMax</text>
<text text-anchor="start" x="226" y="-40.5" font-family="Helvetica,sans-Serif" font-size="10.00">* m_xMinGrid</text>
<text text-anchor="start" x="226" y="-29.5" font-family="Helvetica,sans-Serif" font-size="10.00">* m_xMaxGrid</text>
<text text-anchor="start" x="226" y="-18.5" font-family="Helvetica,sans-Serif" font-size="10.00">* m_yMinGrid</text>
<text text-anchor="start" x="226" y="-7.5" font-family="Helvetica,sans-Serif" font-size="10.00">* m_yMaxGrid</text>
</g>
<!-- Node2 -->
<g id="node2" class="node"><title>Node2</title>
<polygon fill="none" stroke="#bfbfbf" points="0,-391.5 0,-448.5 127,-448.5 127,-391.5 0,-391.5"/>
<text text-anchor="middle" x="63.5" y="-436.5" font-family="Helvetica,sans-Serif" font-size="10.00">std::vector&lt; PointRoad &gt;</text>
<polyline fill="none" stroke="#bfbfbf" points="0,-429.5 127,-429.5 "/>
<text text-anchor="middle" x="63.5" y="-417.5" font-family="Helvetica,sans-Serif" font-size="10.00"> </text>
<polyline fill="none" stroke="#bfbfbf" points="0,-410.5 127,-410.5 "/>
<text text-anchor="middle" x="63.5" y="-398.5" font-family="Helvetica,sans-Serif" font-size="10.00"> </text>
</g>
<!-- Node2&#45;&gt;Node1 -->
<g id="edge1" class="edge"><title>Node2&#45;&gt;Node1</title>
<path fill="none" stroke="#404040" d="M86.776,-391.124C116.271,-355.8 168.282,-293.511 209.933,-243.629"/>
<polygon fill="none" stroke="#404040" points="210.157,-243.361 210.932,-236.191 217.848,-234.15 217.073,-241.319 210.157,-243.361"/>
<text text-anchor="middle" x="164.5" y="-354" font-family="Helvetica,sans-Serif" font-size="10.00"> #m_vectorOfPoints</text>
</g>
<!-- Node3 -->
<g id="node3" class="node"><title>Node3</title>
<g id="a_node3"><a xlink:href="class_point_road.html" target="_top" xlink:title="{PointRoad\n|# m_id\l# m_isNode\l# counter\l|+ id()\l+ infos()\l+ isNode()\l+ outputInfos()\l+ PointRoad()\l+ PointRoad()\l+ setid()\l+ updateBelongToRoad()\l+ vectorOfRoadId()\l}">
<polygon fill="none" stroke="black" points="66,-507.5 66,-674.5 191,-674.5 191,-507.5 66,-507.5"/>
<text text-anchor="middle" x="128.5" y="-662.5" font-family="Helvetica,sans-Serif" font-size="10.00">PointRoad</text>
<polyline fill="none" stroke="black" points="66,-655.5 191,-655.5 "/>
<text text-anchor="start" x="74" y="-643.5" font-family="Helvetica,sans-Serif" font-size="10.00"># m_id</text>
<text text-anchor="start" x="74" y="-632.5" font-family="Helvetica,sans-Serif" font-size="10.00"># m_isNode</text>
<text text-anchor="start" x="74" y="-621.5" font-family="Helvetica,sans-Serif" font-size="10.00"># counter</text>
<polyline fill="none" stroke="black" points="66,-614.5 191,-614.5 "/>
<text text-anchor="start" x="74" y="-602.5" font-family="Helvetica,sans-Serif" font-size="10.00">+ id()</text>
<text text-anchor="start" x="74" y="-591.5" font-family="Helvetica,sans-Serif" font-size="10.00">+ infos()</text>
<text text-anchor="start" x="74" y="-580.5" font-family="Helvetica,sans-Serif" font-size="10.00">+ isNode()</text>
<text text-anchor="start" x="74" y="-569.5" font-family="Helvetica,sans-Serif" font-size="10.00">+ outputInfos()</text>
<text text-anchor="start" x="74" y="-558.5" font-family="Helvetica,sans-Serif" font-size="10.00">+ PointRoad()</text>
<text text-anchor="start" x="74" y="-547.5" font-family="Helvetica,sans-Serif" font-size="10.00">+ PointRoad()</text>
<text text-anchor="start" x="74" y="-536.5" font-family="Helvetica,sans-Serif" font-size="10.00">+ setid()</text>
<text text-anchor="start" x="74" y="-525.5" font-family="Helvetica,sans-Serif" font-size="10.00">+ updateBelongToRoad()</text>
<text text-anchor="start" x="74" y="-514.5" font-family="Helvetica,sans-Serif" font-size="10.00">+ vectorOfRoadId()</text>
</a>
</g>
</g>
<!-- Node3&#45;&gt;Node2 -->
<g id="edge2" class="edge"><title>Node3&#45;&gt;Node2</title>
<path fill="none" stroke="#404040" d="M96.7617,-507.48C90.3667,-490.854 83.9325,-474.124 78.45,-459.87"/>
<polygon fill="none" stroke="#404040" points="78.3981,-459.735 72.5108,-455.571 74.0903,-448.535 79.9776,-452.699 78.3981,-459.735"/>
<text text-anchor="middle" x="113" y="-481" font-family="Helvetica,sans-Serif" font-size="10.00"> +elements</text>
</g>
<!-- Node8 -->
<g id="node8" class="node"><title>Node8</title>
<polygon fill="none" stroke="#bfbfbf" points="145.5,-380.5 145.5,-459.5 285.5,-459.5 285.5,-380.5 145.5,-380.5"/>
<text text-anchor="start" x="153.5" y="-447.5" font-family="Helvetica,sans-Serif" font-size="10.00">std::unordered_map</text>
<text text-anchor="start" x="153.5" y="-436.5" font-family="Helvetica,sans-Serif" font-size="10.00">&lt; PointRoad, int, hashFunc,</text>
<text text-anchor="middle" x="215.5" y="-425.5" font-family="Helvetica,sans-Serif" font-size="10.00"> equalsFunc &gt;</text>
<polyline fill="none" stroke="#bfbfbf" points="145.5,-418.5 285.5,-418.5 "/>
<text text-anchor="start" x="153.5" y="-406.5" font-family="Helvetica,sans-Serif" font-size="10.00">+ elements</text>
<polyline fill="none" stroke="#bfbfbf" points="145.5,-399.5 285.5,-399.5 "/>
<text text-anchor="middle" x="215.5" y="-387.5" font-family="Helvetica,sans-Serif" font-size="10.00"> </text>
</g>
<!-- Node3&#45;&gt;Node8 -->
<g id="edge8" class="edge"><title>Node3&#45;&gt;Node8</title>
<path fill="none" stroke="#404040" d="M170.981,-507.48C177.518,-494.781 184.086,-482.022 190.094,-470.352"/>
<polygon fill="none" stroke="#404040" points="190.171,-470.203 189.36,-463.038 195.663,-459.534 196.473,-466.699 190.171,-470.203"/>
<text text-anchor="middle" x="201" y="-481" font-family="Helvetica,sans-Serif" font-size="10.00"> +keys</text>
</g>
<!-- Node4 -->
<g id="node4" class="node"><title>Node4</title>
<g id="a_node4"><a xlink:href="class_point.html" target="_top" xlink:title="The Point class. ">
<polygon fill="none" stroke="black" points="6,-722.5 6,-988.5 125,-988.5 125,-722.5 6,-722.5"/>
<text text-anchor="middle" x="65.5" y="-976.5" font-family="Helvetica,sans-Serif" font-size="10.00">Point</text>
<polyline fill="none" stroke="black" points="6,-969.5 125,-969.5 "/>
<text text-anchor="start" x="14" y="-957.5" font-family="Helvetica,sans-Serif" font-size="10.00"># m_x</text>
<text text-anchor="start" x="14" y="-946.5" font-family="Helvetica,sans-Serif" font-size="10.00"># m_y</text>
<polyline fill="none" stroke="black" points="6,-939.5 125,-939.5 "/>
<text text-anchor="start" x="14" y="-927.5" font-family="Helvetica,sans-Serif" font-size="10.00">+ distanceToPoint()</text>
<text text-anchor="start" x="14" y="-916.5" font-family="Helvetica,sans-Serif" font-size="10.00">+ distanceToSegment()</text>
<text text-anchor="start" x="14" y="-905.5" font-family="Helvetica,sans-Serif" font-size="10.00">+ infos()</text>
<text text-anchor="start" x="14" y="-894.5" font-family="Helvetica,sans-Serif" font-size="10.00">+ Point()</text>
<text text-anchor="start" x="14" y="-883.5" font-family="Helvetica,sans-Serif" font-size="10.00">+ Point()</text>
<text text-anchor="start" x="14" y="-872.5" font-family="Helvetica,sans-Serif" font-size="10.00">+ samePointAs()</text>
<text text-anchor="start" x="14" y="-861.5" font-family="Helvetica,sans-Serif" font-size="10.00">+ setx()</text>
<text text-anchor="start" x="14" y="-850.5" font-family="Helvetica,sans-Serif" font-size="10.00">+ x()</text>
<text text-anchor="start" x="14" y="-839.5" font-family="Helvetica,sans-Serif" font-size="10.00">+ ~Point()</text>
<text text-anchor="start" x="14" y="-828.5" font-family="Helvetica,sans-Serif" font-size="10.00">+ x()</text>
<text text-anchor="start" x="14" y="-817.5" font-family="Helvetica,sans-Serif" font-size="10.00">+ setx()</text>
<text text-anchor="start" x="14" y="-806.5" font-family="Helvetica,sans-Serif" font-size="10.00">+ y()</text>
<text text-anchor="start" x="14" y="-795.5" font-family="Helvetica,sans-Serif" font-size="10.00">+ sety()</text>
<text text-anchor="start" x="14" y="-784.5" font-family="Helvetica,sans-Serif" font-size="10.00">* m_x</text>
<text text-anchor="start" x="14" y="-773.5" font-family="Helvetica,sans-Serif" font-size="10.00">* m_y</text>
<text text-anchor="start" x="14" y="-762.5" font-family="Helvetica,sans-Serif" font-size="10.00">* x()</text>
<text text-anchor="start" x="14" y="-751.5" font-family="Helvetica,sans-Serif" font-size="10.00">* setx()</text>
<text text-anchor="start" x="14" y="-740.5" font-family="Helvetica,sans-Serif" font-size="10.00">* y()</text>
<text text-anchor="start" x="14" y="-729.5" font-family="Helvetica,sans-Serif" font-size="10.00">* sety()</text>
</a>
</g>
</g>
<!-- Node4&#45;&gt;Node3 -->
<g id="edge3" class="edge"><title>Node4&#45;&gt;Node3</title>
<path fill="none" stroke="midnightblue" d="M99.5721,-712.533C102.688,-699.549 105.771,-686.706 108.696,-674.516"/>
<polygon fill="none" stroke="midnightblue" points="96.115,-711.94 97.1846,-722.481 102.922,-713.574 96.115,-711.94"/>
</g>
<!-- Node5 -->
<g id="node5" class="node"><title>Node5</title>
<polygon fill="none" stroke="#bfbfbf" points="143,-827 143,-884 242,-884 242,-827 143,-827"/>
<text text-anchor="middle" x="192.5" y="-872" font-family="Helvetica,sans-Serif" font-size="10.00">std::vector&lt; long &gt;</text>
<polyline fill="none" stroke="#bfbfbf" points="143,-865 242,-865 "/>
<text text-anchor="start" x="151" y="-853" font-family="Helvetica,sans-Serif" font-size="10.00">+ elements</text>
<polyline fill="none" stroke="#bfbfbf" points="143,-846 242,-846 "/>
<text text-anchor="middle" x="192.5" y="-834" font-family="Helvetica,sans-Serif" font-size="10.00"> </text>
</g>
<!-- Node5&#45;&gt;Node3 -->
<g id="edge4" class="edge"><title>Node5&#45;&gt;Node3</title>
<path fill="none" stroke="#404040" d="M185.772,-826.904C177.675,-793.696 163.653,-736.184 151.511,-686.379"/>
<polygon fill="none" stroke="#404040" points="151.473,-686.225 146.166,-681.343 148.63,-674.566 153.938,-679.448 151.473,-686.225"/>
<text text-anchor="middle" x="201" y="-696" font-family="Helvetica,sans-Serif" font-size="10.00"> #m_vectorOfRoadId</text>
</g>
<!-- Node6 -->
<g id="node6" class="node"><title>Node6</title>
<g id="a_node6"><a xlink:title="STL class. ">
<polygon fill="none" stroke="#bfbfbf" points="303.5,-391.5 303.5,-448.5 363.5,-448.5 363.5,-391.5 303.5,-391.5"/>
<text text-anchor="middle" x="333.5" y="-436.5" font-family="Helvetica,sans-Serif" font-size="10.00">std::string</text>
<polyline fill="none" stroke="#bfbfbf" points="303.5,-429.5 363.5,-429.5 "/>
<text text-anchor="middle" x="333.5" y="-417.5" font-family="Helvetica,sans-Serif" font-size="10.00"> </text>
<polyline fill="none" stroke="#bfbfbf" points="303.5,-410.5 363.5,-410.5 "/>
<text text-anchor="middle" x="333.5" y="-398.5" font-family="Helvetica,sans-Serif" font-size="10.00"> </text>
</a>
</g>
</g>
<!-- Node6&#45;&gt;Node1 -->
<g id="edge5" class="edge"><title>Node6&#45;&gt;Node1</title>
<path fill="none" stroke="#404040" d="M326.85,-391.124C323.834,-378.482 319.994,-362.387 315.76,-344.642"/>
<polygon fill="none" stroke="#404040" points="315.711,-344.435 310.428,-339.527 312.926,-332.763 318.21,-337.671 315.711,-344.435"/>
<text text-anchor="middle" x="359.5" y="-354" font-family="Helvetica,sans-Serif" font-size="10.00"> #m_gridFullName</text>
</g>
<!-- Node7 -->
<g id="node7" class="node"><title>Node7</title>
<g id="a_node7"><a xlink:title="STL class. ">
<polygon fill="none" stroke="#bfbfbf" points="276,-557 276,-625 371,-625 371,-557 276,-557"/>
<text text-anchor="start" x="284" y="-613" font-family="Helvetica,sans-Serif" font-size="10.00">std::basic_string&lt;</text>
<text text-anchor="middle" x="323.5" y="-602" font-family="Helvetica,sans-Serif" font-size="10.00"> char &gt;</text>
<polyline fill="none" stroke="#bfbfbf" points="276,-595 371,-595 "/>
<text text-anchor="middle" x="323.5" y="-583" font-family="Helvetica,sans-Serif" font-size="10.00"> </text>
<polyline fill="none" stroke="#bfbfbf" points="276,-576 371,-576 "/>
<text text-anchor="middle" x="323.5" y="-564" font-family="Helvetica,sans-Serif" font-size="10.00"> </text>
</a>
</g>
</g>
<!-- Node7&#45;&gt;Node6 -->
<g id="edge6" class="edge"><title>Node7&#45;&gt;Node6</title>
<path fill="none" stroke="midnightblue" d="M326.07,-546.56C327.894,-515.735 330.288,-475.277 331.859,-448.729"/>
<polygon fill="none" stroke="midnightblue" points="322.573,-546.422 325.476,-556.611 329.56,-546.835 322.573,-546.422"/>
</g>
<!-- Node8&#45;&gt;Node1 -->
<g id="edge7" class="edge"><title>Node8&#45;&gt;Node1</title>
<path fill="none" stroke="#404040" d="M214.154,-380.355C214.343,-370.72 214.996,-360.444 216.5,-351 216.849,-348.81 217.218,-346.609 217.606,-344.401"/>
<polygon fill="none" stroke="#404040" points="217.622,-344.317 214.809,-337.677 219.856,-332.527 222.669,-339.167 217.622,-344.317"/>
<text text-anchor="middle" x="263.5" y="-354" font-family="Helvetica,sans-Serif" font-size="10.00"> #m_mapOfExtPoints</text>
</g>
<!-- Node9 -->
<g id="node9" class="node"><title>Node9</title>
<polygon fill="none" stroke="#bfbfbf" points="387,-386 387,-454 490,-454 490,-386 387,-386"/>
<text text-anchor="start" x="395" y="-442" font-family="Helvetica,sans-Serif" font-size="10.00">std::unordered_map</text>
<text text-anchor="middle" x="438.5" y="-431" font-family="Helvetica,sans-Serif" font-size="10.00">&lt; long, Road &gt;</text>
<polyline fill="none" stroke="#bfbfbf" points="387,-424 490,-424 "/>
<text text-anchor="start" x="395" y="-412" font-family="Helvetica,sans-Serif" font-size="10.00">+ keys</text>
<polyline fill="none" stroke="#bfbfbf" points="387,-405 490,-405 "/>
<text text-anchor="middle" x="438.5" y="-393" font-family="Helvetica,sans-Serif" font-size="10.00"> </text>
</g>
<!-- Node9&#45;&gt;Node1 -->
<g id="edge9" class="edge"><title>Node9&#45;&gt;Node1</title>
<path fill="none" stroke="#404040" d="M422.68,-385.975C416.968,-374.693 410.255,-362.121 403.5,-351 383.016,-317.277 358.445,-281.582 336.206,-250.727"/>
<polygon fill="none" stroke="#404040" points="336.118,-250.605 329.358,-248.094 329.076,-240.889 335.836,-243.4 336.118,-250.605"/>
<text text-anchor="middle" x="456" y="-354" font-family="Helvetica,sans-Serif" font-size="10.00"> #m_mapOfAllRoads</text>
</g>
<!-- Node10 -->
<g id="node10" class="node"><title>Node10</title>
<g id="a_node10"><a xlink:href="class_road.html" target="_top" xlink:title="{Road\n|# m_edgeId\l|+ addNeighbor()\l+ addPoint()\l+ edgeId()\l+ getListOfPoints()\l+ getm_edgeId()\l+ getNoOfNeighbors()\l+ outputInfos()\l+ Road()\l+ Road()\l+ vectorOfPointsId()\l+ ~Road()\l}">
<polygon fill="none" stroke="black" points="389,-507.5 389,-674.5 502,-674.5 502,-507.5 389,-507.5"/>
<text text-anchor="middle" x="445.5" y="-662.5" font-family="Helvetica,sans-Serif" font-size="10.00">Road</text>
<polyline fill="none" stroke="black" points="389,-655.5 502,-655.5 "/>
<text text-anchor="start" x="397" y="-643.5" font-family="Helvetica,sans-Serif" font-size="10.00"># m_edgeId</text>
<polyline fill="none" stroke="black" points="389,-636.5 502,-636.5 "/>
<text text-anchor="start" x="397" y="-624.5" font-family="Helvetica,sans-Serif" font-size="10.00">+ addNeighbor()</text>
<text text-anchor="start" x="397" y="-613.5" font-family="Helvetica,sans-Serif" font-size="10.00">+ addPoint()</text>
<text text-anchor="start" x="397" y="-602.5" font-family="Helvetica,sans-Serif" font-size="10.00">+ edgeId()</text>
<text text-anchor="start" x="397" y="-591.5" font-family="Helvetica,sans-Serif" font-size="10.00">+ getListOfPoints()</text>
<text text-anchor="start" x="397" y="-580.5" font-family="Helvetica,sans-Serif" font-size="10.00">+ getm_edgeId()</text>
<text text-anchor="start" x="397" y="-569.5" font-family="Helvetica,sans-Serif" font-size="10.00">+ getNoOfNeighbors()</text>
<text text-anchor="start" x="397" y="-558.5" font-family="Helvetica,sans-Serif" font-size="10.00">+ outputInfos()</text>
<text text-anchor="start" x="397" y="-547.5" font-family="Helvetica,sans-Serif" font-size="10.00">+ Road()</text>
<text text-anchor="start" x="397" y="-536.5" font-family="Helvetica,sans-Serif" font-size="10.00">+ Road()</text>
<text text-anchor="start" x="397" y="-525.5" font-family="Helvetica,sans-Serif" font-size="10.00">+ vectorOfPointsId()</text>
<text text-anchor="start" x="397" y="-514.5" font-family="Helvetica,sans-Serif" font-size="10.00">+ ~Road()</text>
</a>
</g>
</g>
<!-- Node10&#45;&gt;Node9 -->
<g id="edge10" class="edge"><title>Node10&#45;&gt;Node9</title>
<path fill="none" stroke="#404040" d="M442.082,-507.48C441.494,-493.278 440.902,-479.001 440.375,-466.256"/>
<polygon fill="none" stroke="#404040" points="440.367,-466.07 436.122,-460.241 439.87,-454.08 444.115,-459.91 440.367,-466.07"/>
<text text-anchor="middle" x="466" y="-481" font-family="Helvetica,sans-Serif" font-size="10.00"> +elements</text>
</g>
<!-- Node11 -->
<g id="node11" class="node"><title>Node11</title>
<polygon fill="none" stroke="#bfbfbf" points="345.5,-827 345.5,-884 431.5,-884 431.5,-827 345.5,-827"/>
<text text-anchor="middle" x="388.5" y="-872" font-family="Helvetica,sans-Serif" font-size="10.00">std::set&lt; long &gt;</text>
<polyline fill="none" stroke="#bfbfbf" points="345.5,-865 431.5,-865 "/>
<text text-anchor="start" x="353.5" y="-853" font-family="Helvetica,sans-Serif" font-size="10.00">+ keys</text>
<polyline fill="none" stroke="#bfbfbf" points="345.5,-846 431.5,-846 "/>
<text text-anchor="middle" x="388.5" y="-834" font-family="Helvetica,sans-Serif" font-size="10.00"> </text>
</g>
<!-- Node11&#45;&gt;Node10 -->
<g id="edge11" class="edge"><title>Node11&#45;&gt;Node10</title>
<path fill="none" stroke="#404040" d="M384.574,-826.814C380.882,-794.209 377.527,-738.703 389.5,-693 390.1,-690.709 390.764,-688.414 391.485,-686.121"/>
<polygon fill="none" stroke="#404040" points="391.526,-686.006 389.756,-679.016 395.528,-674.693 397.298,-681.684 391.526,-686.006"/>
<text text-anchor="middle" x="435" y="-696" font-family="Helvetica,sans-Serif" font-size="10.00"> #m_setOfNeighbors</text>
</g>
<!-- Node12 -->
<g id="node12" class="node"><title>Node12</title>
<polygon fill="none" stroke="#bfbfbf" points="456.5,-827 456.5,-884 548.5,-884 548.5,-827 456.5,-827"/>
<text text-anchor="middle" x="502.5" y="-872" font-family="Helvetica,sans-Serif" font-size="10.00">std::vector&lt; int &gt;</text>
<polyline fill="none" stroke="#bfbfbf" points="456.5,-865 548.5,-865 "/>
<text text-anchor="start" x="464.5" y="-853" font-family="Helvetica,sans-Serif" font-size="10.00">+ elements</text>
<polyline fill="none" stroke="#bfbfbf" points="456.5,-846 548.5,-846 "/>
<text text-anchor="middle" x="502.5" y="-834" font-family="Helvetica,sans-Serif" font-size="10.00"> </text>
</g>
<!-- Node12&#45;&gt;Node10 -->
<g id="edge12" class="edge"><title>Node12&#45;&gt;Node10</title>
<path fill="none" stroke="#404040" d="M500.404,-826.761C497.568,-794.341 491.545,-739.238 480.5,-693 479.958,-690.732 479.386,-688.444 478.786,-686.143"/>
<polygon fill="none" stroke="#404040" points="478.782,-686.127 473.328,-681.41 475.585,-674.561 481.039,-679.279 478.782,-686.127"/>
<text text-anchor="middle" x="530.5" y="-696" font-family="Helvetica,sans-Serif" font-size="10.00"> #m_vectorOfPointsId</text>
</g>
</g>
</svg>
