<?xml version="1.0" encoding="UTF-8" standalone="no"?>
<!DOCTYPE svg PUBLIC "-//W3C//DTD SVG 1.1//EN"
 "http://www.w3.org/Graphics/SVG/1.1/DTD/svg11.dtd">
<!-- Generated by graphviz version 2.38.0 (20140413.2041)
 -->
<!-- Title: Solver::signalDimension Pages: 1 -->
<svg width="455pt" height="66pt"
 viewBox="0.00 0.00 455.00 66.00" xmlns="http://www.w3.org/2000/svg" xmlns:xlink="http://www.w3.org/1999/xlink">
<g id="graph0" class="graph" transform="scale(1 1) rotate(0) translate(4 62)">
<title>Solver::signalDimension</title>
<!-- Node1 -->
<g id="node1" class="node"><title>Node1</title>
<polygon fill="#bfbfbf" stroke="black" points="0,-19.5 0,-38.5 122,-38.5 122,-19.5 0,-19.5"/>
<text text-anchor="middle" x="61" y="-26.5" font-family="Helvetica,sans-Serif" font-size="10.00">Solver::signalDimension</text>
</g>
<!-- Node2 -->
<g id="node2" class="node"><title>Node2</title>
<g id="a_node2"><a xlink:href="class_solver.html#a97bc7169c18b339fecd4937150f907c3" target="_top" xlink:title="Solver::start">
<polygon fill="none" stroke="black" points="158,-19.5 158,-38.5 228,-38.5 228,-19.5 158,-19.5"/>
<text text-anchor="middle" x="193" y="-26.5" font-family="Helvetica,sans-Serif" font-size="10.00">Solver::start</text>
</a>
</g>
</g>
<!-- Node1&#45;&gt;Node2 -->
<g id="edge1" class="edge"><title>Node1&#45;&gt;Node2</title>
<path fill="none" stroke="midnightblue" d="M132.112,-29C141.004,-29 149.768,-29 157.732,-29"/>
<polygon fill="midnightblue" stroke="midnightblue" points="132.053,-25.5001 122.053,-29 132.053,-32.5001 132.053,-25.5001"/>
</g>
<!-- Node3 -->
<g id="node3" class="node"><title>Node3</title>
<g id="a_node3"><a xlink:href="main_8cpp.html#a9dd67c19acf7317c6296b63e29dcfab9" target="_top" xlink:title="dev_thread">
<polygon fill="none" stroke="black" points="286,-38.5 286,-57.5 351,-57.5 351,-38.5 286,-38.5"/>
<text text-anchor="middle" x="318.5" y="-45.5" font-family="Helvetica,sans-Serif" font-size="10.00">dev_thread</text>
</a>
</g>
</g>
<!-- Node2&#45;&gt;Node3 -->
<g id="edge2" class="edge"><title>Node2&#45;&gt;Node3</title>
<path fill="none" stroke="midnightblue" d="M238.108,-35.7858C253.813,-38.2021 271.181,-40.8741 285.658,-43.1012"/>
<polygon fill="midnightblue" stroke="midnightblue" points="238.49,-32.3035 228.074,-34.2421 237.425,-39.2221 238.49,-32.3035"/>
</g>
<!-- Node5 -->
<g id="node5" class="node"><title>Node5</title>
<g id="a_node5"><a xlink:href="class_solver.html#a323c9c0407f26a2ed3ec3ff5ed02a760" target="_top" xlink:title="Solver::onSignalStart">
<polygon fill="none" stroke="black" points="264,-0.5 264,-19.5 373,-19.5 373,-0.5 264,-0.5"/>
<text text-anchor="middle" x="318.5" y="-7.5" font-family="Helvetica,sans-Serif" font-size="10.00">Solver::onSignalStart</text>
</a>
</g>
</g>
<!-- Node2&#45;&gt;Node5 -->
<g id="edge4" class="edge"><title>Node2&#45;&gt;Node5</title>
<path fill="none" stroke="midnightblue" d="M238.207,-22.1989C246.438,-20.9326 255.122,-19.5966 263.605,-18.2916"/>
<polygon fill="midnightblue" stroke="midnightblue" points="237.425,-18.7779 228.074,-23.7579 238.49,-25.6965 237.425,-18.7779"/>
</g>
<!-- Node4 -->
<g id="node4" class="node"><title>Node4</title>
<g id="a_node4"><a xlink:href="main_8cpp.html#a0ddf1224851353fc92bfbff6f499fa97" target="_top" xlink:title="main">
<polygon fill="none" stroke="black" points="409,-38.5 409,-57.5 447,-57.5 447,-38.5 409,-38.5"/>
<text text-anchor="middle" x="428" y="-45.5" font-family="Helvetica,sans-Serif" font-size="10.00">main</text>
</a>
</g>
</g>
<!-- Node3&#45;&gt;Node4 -->
<g id="edge3" class="edge"><title>Node3&#45;&gt;Node4</title>
<path fill="none" stroke="midnightblue" d="M361.208,-48C377.755,-48 395.908,-48 408.946,-48"/>
<polygon fill="midnightblue" stroke="midnightblue" points="361.172,-44.5001 351.172,-48 361.172,-51.5001 361.172,-44.5001"/>
</g>
</g>
</svg>
