<?xml version="1.0" encoding="UTF-8" standalone="no"?>
<!DOCTYPE svg PUBLIC "-//W3C//DTD SVG 1.1//EN"
 "http://www.w3.org/Graphics/SVG/1.1/DTD/svg11.dtd">
<!-- Generated by graphviz version 2.38.0 (20140413.2041)
 -->
<!-- Title: Grid::trackInGrid Pages: 1 -->
<svg width="216pt" height="294pt"
 viewBox="0.00 0.00 216.00 294.00" xmlns="http://www.w3.org/2000/svg" xmlns:xlink="http://www.w3.org/1999/xlink">
<g id="graph0" class="graph" transform="scale(1 1) rotate(0) translate(4 290)">
<title>Grid::trackInGrid</title>
<!-- Node1 -->
<g id="node1" class="node"><title>Node1</title>
<polygon fill="#bfbfbf" stroke="black" points="0,-133.5 0,-152.5 89,-152.5 89,-133.5 0,-133.5"/>
<text text-anchor="middle" x="44.5" y="-140.5" font-family="Helvetica,sans-Serif" font-size="10.00">Grid::trackInGrid</text>
</g>
<!-- Node2 -->
<g id="node2" class="node"><title>Node2</title>
<g id="a_node2"><a xlink:href="class_grid.html#a13d6d18b26d70ab5871a8c2ddf7fa1b5" target="_top" xlink:title="Grid::xMin">
<polygon fill="none" stroke="black" points="135.5,-266.5 135.5,-285.5 197.5,-285.5 197.5,-266.5 135.5,-266.5"/>
<text text-anchor="middle" x="166.5" y="-273.5" font-family="Helvetica,sans-Serif" font-size="10.00">Grid::xMin</text>
</a>
</g>
</g>
<!-- Node1&#45;&gt;Node2 -->
<g id="edge1" class="edge"><title>Node1&#45;&gt;Node2</title>
<path fill="none" stroke="midnightblue" d="M49.9508,-152.514C60.3324,-173.815 88.0979,-225.902 125,-257 126.785,-258.505 128.71,-259.918 130.716,-261.24"/>
<polygon fill="midnightblue" stroke="midnightblue" points="129.44,-264.542 139.86,-266.461 132.911,-258.463 129.44,-264.542"/>
</g>
<!-- Node3 -->
<g id="node3" class="node"><title>Node3</title>
<g id="a_node3"><a xlink:href="class_grid.html#aa96eed7a551f45aeee1068a289bd2a7b" target="_top" xlink:title="Grid::xMinGrid">
<polygon fill="none" stroke="black" points="126.5,-228.5 126.5,-247.5 206.5,-247.5 206.5,-228.5 126.5,-228.5"/>
<text text-anchor="middle" x="166.5" y="-235.5" font-family="Helvetica,sans-Serif" font-size="10.00">Grid::xMinGrid</text>
</a>
</g>
</g>
<!-- Node1&#45;&gt;Node3 -->
<g id="edge2" class="edge"><title>Node1&#45;&gt;Node3</title>
<path fill="none" stroke="midnightblue" d="M53.9509,-152.941C67.6281,-168.567 96.0185,-199.14 125,-219 127.402,-220.646 129.97,-222.218 132.603,-223.702"/>
<polygon fill="midnightblue" stroke="midnightblue" points="131.171,-226.901 141.661,-228.387 134.387,-220.684 131.171,-226.901"/>
</g>
<!-- Node4 -->
<g id="node4" class="node"><title>Node4</title>
<g id="a_node4"><a xlink:href="class_grid.html#a5e140affdf9653d8badf596f1f151908" target="_top" xlink:title="Grid::xMax">
<polygon fill="none" stroke="black" points="134,-190.5 134,-209.5 199,-209.5 199,-190.5 134,-190.5"/>
<text text-anchor="middle" x="166.5" y="-197.5" font-family="Helvetica,sans-Serif" font-size="10.00">Grid::xMax</text>
</a>
</g>
</g>
<!-- Node1&#45;&gt;Node4 -->
<g id="edge3" class="edge"><title>Node1&#45;&gt;Node4</title>
<path fill="none" stroke="midnightblue" d="M65.4108,-152.566C81.4795,-160.274 104.676,-171.375 125,-181 128.431,-182.625 132.028,-184.321 135.602,-186.004"/>
<polygon fill="midnightblue" stroke="midnightblue" points="134.344,-189.279 144.883,-190.363 137.32,-182.944 134.344,-189.279"/>
</g>
<!-- Node5 -->
<g id="node5" class="node"><title>Node5</title>
<g id="a_node5"><a xlink:href="class_grid.html#aa3dd1e75998e6214c3ef33cdc5e02204" target="_top" xlink:title="Grid::xMaxGrid">
<polygon fill="none" stroke="black" points="125,-152.5 125,-171.5 208,-171.5 208,-152.5 125,-152.5"/>
<text text-anchor="middle" x="166.5" y="-159.5" font-family="Helvetica,sans-Serif" font-size="10.00">Grid::xMaxGrid</text>
</a>
</g>
</g>
<!-- Node1&#45;&gt;Node5 -->
<g id="edge4" class="edge"><title>Node1&#45;&gt;Node5</title>
<path fill="none" stroke="midnightblue" d="M89.1622,-149.913C97.5431,-151.24 106.384,-152.64 114.961,-153.998"/>
<polygon fill="midnightblue" stroke="midnightblue" points="114.44,-157.459 124.864,-155.566 115.535,-150.545 114.44,-157.459"/>
</g>
<!-- Node6 -->
<g id="node6" class="node"><title>Node6</title>
<g id="a_node6"><a xlink:href="class_grid.html#a6acf01d876905d8709f4fb8ebe18aa94" target="_top" xlink:title="Grid::yMin">
<polygon fill="none" stroke="black" points="135.5,-114.5 135.5,-133.5 197.5,-133.5 197.5,-114.5 135.5,-114.5"/>
<text text-anchor="middle" x="166.5" y="-121.5" font-family="Helvetica,sans-Serif" font-size="10.00">Grid::yMin</text>
</a>
</g>
</g>
<!-- Node1&#45;&gt;Node6 -->
<g id="edge5" class="edge"><title>Node1&#45;&gt;Node6</title>
<path fill="none" stroke="midnightblue" d="M89.1622,-136.087C100.86,-134.235 113.455,-132.24 124.976,-130.416"/>
<polygon fill="midnightblue" stroke="midnightblue" points="125.868,-133.819 135.197,-128.798 124.773,-126.905 125.868,-133.819"/>
</g>
<!-- Node7 -->
<g id="node7" class="node"><title>Node7</title>
<g id="a_node7"><a xlink:href="class_grid.html#afa95de5fff735d1121572075a872121c" target="_top" xlink:title="Grid::yMinGrid">
<polygon fill="none" stroke="black" points="126.5,-76.5 126.5,-95.5 206.5,-95.5 206.5,-76.5 126.5,-76.5"/>
<text text-anchor="middle" x="166.5" y="-83.5" font-family="Helvetica,sans-Serif" font-size="10.00">Grid::yMinGrid</text>
</a>
</g>
</g>
<!-- Node1&#45;&gt;Node7 -->
<g id="edge6" class="edge"><title>Node1&#45;&gt;Node7</title>
<path fill="none" stroke="midnightblue" d="M65.4108,-133.434C81.4795,-125.726 104.676,-114.625 125,-105 128.431,-103.375 132.028,-101.679 135.602,-99.9963"/>
<polygon fill="midnightblue" stroke="midnightblue" points="137.32,-103.056 144.883,-95.637 134.344,-96.7206 137.32,-103.056"/>
</g>
<!-- Node8 -->
<g id="node8" class="node"><title>Node8</title>
<g id="a_node8"><a xlink:href="class_grid.html#abfa1a601742ca69a5ecc3b6a5318d7a8" target="_top" xlink:title="Grid::yMax">
<polygon fill="none" stroke="black" points="134,-38.5 134,-57.5 199,-57.5 199,-38.5 134,-38.5"/>
<text text-anchor="middle" x="166.5" y="-45.5" font-family="Helvetica,sans-Serif" font-size="10.00">Grid::yMax</text>
</a>
</g>
</g>
<!-- Node1&#45;&gt;Node8 -->
<g id="edge7" class="edge"><title>Node1&#45;&gt;Node8</title>
<path fill="none" stroke="midnightblue" d="M53.9509,-133.059C67.6281,-117.433 96.0185,-86.8603 125,-67 127.402,-65.3536 129.97,-63.7819 132.603,-62.2983"/>
<polygon fill="midnightblue" stroke="midnightblue" points="134.387,-65.3162 141.661,-57.613 131.171,-59.0987 134.387,-65.3162"/>
</g>
<!-- Node9 -->
<g id="node9" class="node"><title>Node9</title>
<g id="a_node9"><a xlink:href="class_grid.html#a97ee4a72430770462f5e2ba140f2ca65" target="_top" xlink:title="Grid::yMaxGrid">
<polygon fill="none" stroke="black" points="125,-0.5 125,-19.5 208,-19.5 208,-0.5 125,-0.5"/>
<text text-anchor="middle" x="166.5" y="-7.5" font-family="Helvetica,sans-Serif" font-size="10.00">Grid::yMaxGrid</text>
</a>
</g>
</g>
<!-- Node1&#45;&gt;Node9 -->
<g id="edge8" class="edge"><title>Node1&#45;&gt;Node9</title>
<path fill="none" stroke="midnightblue" d="M49.9508,-133.486C60.3324,-112.185 88.0979,-60.0977 125,-29 126.785,-27.4954 128.71,-26.0822 130.716,-24.7596"/>
<polygon fill="midnightblue" stroke="midnightblue" points="132.911,-27.5371 139.86,-19.5394 129.44,-21.4582 132.911,-27.5371"/>
</g>
</g>
</svg>
