<?xml version="1.0" encoding="UTF-8" standalone="no"?>
<!DOCTYPE svg PUBLIC "-//W3C//DTD SVG 1.1//EN"
 "http://www.w3.org/Graphics/SVG/1.1/DTD/svg11.dtd">
<!-- Generated by graphviz version 2.38.0 (20140413.2041)
 -->
<!-- Title: MainWindow::MainWindow Pages: 1 -->
<svg width="1123pt" height="484pt"
 viewBox="0.00 0.00 1123.00 484.00" xmlns="http://www.w3.org/2000/svg" xmlns:xlink="http://www.w3.org/1999/xlink">
<g id="graph0" class="graph" transform="scale(1 1) rotate(0) translate(4 480)">
<title>MainWindow::MainWindow</title>
<!-- Node1 -->
<g id="node1" class="node"><title>Node1</title>
<polygon fill="#bfbfbf" stroke="black" points="0,-201.5 0,-220.5 135,-220.5 135,-201.5 0,-201.5"/>
<text text-anchor="middle" x="67.5" y="-208.5" font-family="Helvetica,sans-Serif" font-size="10.00">MainWindow::MainWindow</text>
</g>
<!-- Node2 -->
<g id="node2" class="node"><title>Node2</title>
<g id="a_node2"><a xlink:href="class_main_window.html#a684fe2be6fa67486c75ebddfbbe7d42b" target="_top" xlink:title="MainWindow::createGuiControl\lComponents">
<polygon fill="none" stroke="black" points="175.5,-294 175.5,-324 327.5,-324 327.5,-294 175.5,-294"/>
<text text-anchor="start" x="183.5" y="-312" font-family="Helvetica,sans-Serif" font-size="10.00">MainWindow::createGuiControl</text>
<text text-anchor="middle" x="251.5" y="-301" font-family="Helvetica,sans-Serif" font-size="10.00">Components</text>
</a>
</g>
</g>
<!-- Node1&#45;&gt;Node2 -->
<g id="edge1" class="edge"><title>Node1&#45;&gt;Node2</title>
<path fill="none" stroke="midnightblue" d="M79.4298,-220.575C97.4005,-235.889 134.816,-265.993 171,-284 175.578,-286.278 180.407,-288.404 185.331,-290.376"/>
<polygon fill="midnightblue" stroke="midnightblue" points="184.284,-293.722 194.876,-293.978 186.756,-287.172 184.284,-293.722"/>
</g>
<!-- Node4 -->
<g id="node4" class="node"><title>Node4</title>
<g id="a_node4"><a xlink:href="class_main_window.html#a10e39f33826503a9967be862a5b27c40" target="_top" xlink:title="MainWindow::createSubSliding\lWidgets">
<polygon fill="none" stroke="black" points="175.5,-245 175.5,-275 327.5,-275 327.5,-245 175.5,-245"/>
<text text-anchor="start" x="183.5" y="-263" font-family="Helvetica,sans-Serif" font-size="10.00">MainWindow::createSubSliding</text>
<text text-anchor="middle" x="251.5" y="-252" font-family="Helvetica,sans-Serif" font-size="10.00">Widgets</text>
</a>
</g>
</g>
<!-- Node1&#45;&gt;Node4 -->
<g id="edge3" class="edge"><title>Node1&#45;&gt;Node4</title>
<path fill="none" stroke="midnightblue" d="M104.023,-220.564C126.965,-226.74 157.513,-234.965 184.774,-242.304"/>
<polygon fill="midnightblue" stroke="midnightblue" points="184.082,-245.743 194.648,-244.963 185.902,-238.984 184.082,-245.743"/>
</g>
<!-- Node5 -->
<g id="node5" class="node"><title>Node5</title>
<g id="a_node5"><a xlink:href="class_main_window.html#a9b5bcc86b4b159c34a7631e586b7be55" target="_top" xlink:title="MainWindow::createSliding\lStackedWidget">
<polygon fill="none" stroke="black" points="184,-196 184,-226 319,-226 319,-196 184,-196"/>
<text text-anchor="start" x="192" y="-214" font-family="Helvetica,sans-Serif" font-size="10.00">MainWindow::createSliding</text>
<text text-anchor="middle" x="251.5" y="-203" font-family="Helvetica,sans-Serif" font-size="10.00">StackedWidget</text>
</a>
</g>
</g>
<!-- Node1&#45;&gt;Node5 -->
<g id="edge4" class="edge"><title>Node1&#45;&gt;Node5</title>
<path fill="none" stroke="midnightblue" d="M135.237,-211C147.725,-211 160.87,-211 173.635,-211"/>
<polygon fill="midnightblue" stroke="midnightblue" points="173.771,-214.5 183.771,-211 173.771,-207.5 173.771,-214.5"/>
</g>
<!-- Node6 -->
<g id="node6" class="node"><title>Node6</title>
<g id="a_node6"><a xlink:href="class_main_window.html#af3626d206fdb542dc454250f37418d8f" target="_top" xlink:title="MainWindow::createMainLayout">
<polygon fill="none" stroke="black" points="173.5,-157.5 173.5,-176.5 329.5,-176.5 329.5,-157.5 173.5,-157.5"/>
<text text-anchor="middle" x="251.5" y="-164.5" font-family="Helvetica,sans-Serif" font-size="10.00">MainWindow::createMainLayout</text>
</a>
</g>
</g>
<!-- Node1&#45;&gt;Node6 -->
<g id="edge5" class="edge"><title>Node1&#45;&gt;Node6</title>
<path fill="none" stroke="midnightblue" d="M107.428,-201.46C126.571,-196.781 149.99,-191.073 171,-186 180.521,-183.701 190.688,-181.261 200.459,-178.922"/>
<polygon fill="midnightblue" stroke="midnightblue" points="201.543,-182.262 210.455,-176.532 199.916,-175.453 201.543,-182.262"/>
</g>
<!-- Node7 -->
<g id="node7" class="node"><title>Node7</title>
<g id="a_node7"><a xlink:href="class_main_window.html#af773488e0b16efe6c0fc67ad348b86b2" target="_top" xlink:title="MainWindow::createConnections">
<polygon fill="none" stroke="black" points="171,-119.5 171,-138.5 332,-138.5 332,-119.5 171,-119.5"/>
<text text-anchor="middle" x="251.5" y="-126.5" font-family="Helvetica,sans-Serif" font-size="10.00">MainWindow::createConnections</text>
</a>
</g>
</g>
<!-- Node1&#45;&gt;Node7 -->
<g id="edge6" class="edge"><title>Node1&#45;&gt;Node7</title>
<path fill="none" stroke="midnightblue" d="M81.0539,-201.445C99.7024,-187.692 136.266,-162.393 171,-148 176.936,-145.54 183.26,-143.356 189.648,-141.427"/>
<polygon fill="midnightblue" stroke="midnightblue" points="191.014,-144.679 199.693,-138.603 189.119,-137.94 191.014,-144.679"/>
</g>
<!-- Node3 -->
<g id="node3" class="node"><title>Node3</title>
<g id="a_node3"><a xlink:href="class_controller.html#ab8e345d91e901e46e0ad42a0b75ef94c" target="_top" xlink:title="Controller::addSolver">
<polygon fill="none" stroke="black" points="384,-299.5 384,-318.5 492,-318.5 492,-299.5 384,-299.5"/>
<text text-anchor="middle" x="438" y="-306.5" font-family="Helvetica,sans-Serif" font-size="10.00">Controller::addSolver</text>
</a>
</g>
</g>
<!-- Node2&#45;&gt;Node3 -->
<g id="edge2" class="edge"><title>Node2&#45;&gt;Node3</title>
<path fill="none" stroke="midnightblue" d="M327.543,-309C342.863,-309 358.84,-309 373.701,-309"/>
<polygon fill="midnightblue" stroke="midnightblue" points="373.79,-312.5 383.79,-309 373.79,-305.5 373.79,-312.5"/>
</g>
<!-- Node8 -->
<g id="node8" class="node"><title>Node8</title>
<g id="a_node8"><a xlink:href="class_main_window.html#ad39bbe8ced0d3248206ac0ca6c444d55" target="_top" xlink:title="MainWindow::readyToNext1">
<polygon fill="none" stroke="black" points="368,-247.5 368,-266.5 508,-266.5 508,-247.5 368,-247.5"/>
<text text-anchor="middle" x="438" y="-254.5" font-family="Helvetica,sans-Serif" font-size="10.00">MainWindow::readyToNext1</text>
</a>
</g>
</g>
<!-- Node7&#45;&gt;Node8 -->
<g id="edge7" class="edge"><title>Node7&#45;&gt;Node8</title>
<path fill="none" stroke="midnightblue" d="M310.037,-138.582C317.69,-141.04 325.224,-144.126 332,-148 372.454,-171.127 407.249,-214.521 424.811,-239.003"/>
<polygon fill="midnightblue" stroke="midnightblue" points="422.072,-241.194 430.674,-247.379 427.807,-237.179 422.072,-241.194"/>
</g>
<!-- Node31 -->
<g id="node31" class="node"><title>Node31</title>
<g id="a_node31"><a xlink:href="class_main_window.html#ae2500bf587f9630ce61d27ca231cfd7a" target="_top" xlink:title="MainWindow::readyToNext2">
<polygon fill="none" stroke="black" points="368,-119.5 368,-138.5 508,-138.5 508,-119.5 368,-119.5"/>
<text text-anchor="middle" x="438" y="-126.5" font-family="Helvetica,sans-Serif" font-size="10.00">MainWindow::readyToNext2</text>
</a>
</g>
</g>
<!-- Node7&#45;&gt;Node31 -->
<g id="edge35" class="edge"><title>Node7&#45;&gt;Node31</title>
<path fill="none" stroke="midnightblue" d="M332.083,-129C340.542,-129 349.146,-129 357.603,-129"/>
<polygon fill="midnightblue" stroke="midnightblue" points="357.826,-132.5 367.826,-129 357.826,-125.5 357.826,-132.5"/>
</g>
<!-- Node35 -->
<g id="node35" class="node"><title>Node35</title>
<g id="a_node35"><a xlink:href="class_main_window.html#a8316cc41f24ecba912fb4c2a90103be4" target="_top" xlink:title="MainWindow::putNone">
<polygon fill="none" stroke="black" points="380,-81.5 380,-100.5 496,-100.5 496,-81.5 380,-81.5"/>
<text text-anchor="middle" x="438" y="-88.5" font-family="Helvetica,sans-Serif" font-size="10.00">MainWindow::putNone</text>
</a>
</g>
</g>
<!-- Node7&#45;&gt;Node35 -->
<g id="edge39" class="edge"><title>Node7&#45;&gt;Node35</title>
<path fill="none" stroke="midnightblue" d="M299.057,-119.411C323.843,-114.306 354.515,-107.989 380.639,-102.608"/>
<polygon fill="midnightblue" stroke="midnightblue" points="381.689,-105.965 390.778,-100.52 380.277,-99.1094 381.689,-105.965"/>
</g>
<!-- Node9 -->
<g id="node9" class="node"><title>Node9</title>
<g id="a_node9"><a xlink:href="class_track.html#aff258a8c303ee8a09a962d237f3823e7" target="_top" xlink:title="Reads a csv file and inserts each point in m_points vector. ">
<polygon fill="none" stroke="black" points="545,-380.5 545,-399.5 655,-399.5 655,-380.5 545,-380.5"/>
<text text-anchor="middle" x="600" y="-387.5" font-family="Helvetica,sans-Serif" font-size="10.00">Track::readFromCSV</text>
</a>
</g>
</g>
<!-- Node8&#45;&gt;Node9 -->
<g id="edge8" class="edge"><title>Node8&#45;&gt;Node9</title>
<path fill="none" stroke="midnightblue" d="M470.443,-266.598C483.387,-271.826 497.724,-279.433 508,-290 535.466,-318.242 514.977,-344.361 544,-371 545.723,-372.582 547.585,-374.033 549.546,-375.364"/>
<polygon fill="midnightblue" stroke="midnightblue" points="548.221,-378.633 558.656,-380.465 551.641,-372.526 548.221,-378.633"/>
</g>
<!-- Node10 -->
<g id="node10" class="node"><title>Node10</title>
<g id="a_node10"><a xlink:href="class_grid.html#a19318437702e712955d0c4631c94cb04" target="_top" xlink:title="Save data about our area of roads. ">
<polygon fill="none" stroke="black" points="544,-247.5 544,-266.5 656,-266.5 656,-247.5 544,-247.5"/>
<text text-anchor="middle" x="600" y="-254.5" font-family="Helvetica,sans-Serif" font-size="10.00">Grid::setBoundingBox</text>
</a>
</g>
</g>
<!-- Node8&#45;&gt;Node10 -->
<g id="edge9" class="edge"><title>Node8&#45;&gt;Node10</title>
<path fill="none" stroke="midnightblue" d="M508.248,-257C516.654,-257 525.221,-257 533.57,-257"/>
<polygon fill="midnightblue" stroke="midnightblue" points="533.618,-260.5 543.618,-257 533.618,-253.5 533.618,-260.5"/>
</g>
<!-- Node15 -->
<g id="node15" class="node"><title>Node15</title>
<g id="a_node15"><a xlink:href="class_grid.html#ae848f1c59c544adc1af9133409ee0106" target="_top" xlink:title="Reads a csv file and inserts info into the corresponding attributs. ">
<polygon fill="none" stroke="black" points="548.5,-342.5 548.5,-361.5 651.5,-361.5 651.5,-342.5 548.5,-342.5"/>
<text text-anchor="middle" x="600" y="-349.5" font-family="Helvetica,sans-Serif" font-size="10.00">Grid::readFromCSV</text>
</a>
</g>
</g>
<!-- Node8&#45;&gt;Node15 -->
<g id="edge14" class="edge"><title>Node8&#45;&gt;Node15</title>
<path fill="none" stroke="midnightblue" d="M461.19,-266.574C474.937,-272.758 492.807,-281.259 508,-290 532.92,-304.338 559.966,-323.227 578.04,-336.371"/>
<polygon fill="midnightblue" stroke="midnightblue" points="576.011,-339.223 586.143,-342.318 580.152,-333.58 576.011,-339.223"/>
</g>
<!-- Node26 -->
<g id="node26" class="node"><title>Node26</title>
<g id="a_node26"><a xlink:href="class_grid.html#a8d8b7fa0ee20d81f130a46d80fc2a018" target="_top" xlink:title="Check if track is in grid. ">
<polygon fill="none" stroke="black" points="555.5,-190.5 555.5,-209.5 644.5,-209.5 644.5,-190.5 555.5,-190.5"/>
<text text-anchor="middle" x="600" y="-197.5" font-family="Helvetica,sans-Serif" font-size="10.00">Grid::trackInGrid</text>
</a>
</g>
</g>
<!-- Node8&#45;&gt;Node26 -->
<g id="edge26" class="edge"><title>Node8&#45;&gt;Node26</title>
<path fill="none" stroke="midnightblue" d="M465.78,-247.459C492.316,-238.006 533.148,-223.46 562.613,-212.963"/>
<polygon fill="midnightblue" stroke="midnightblue" points="563.887,-216.225 572.132,-209.572 561.538,-209.631 563.887,-216.225"/>
</g>
<!-- Node11 -->
<g id="node11" class="node"><title>Node11</title>
<g id="a_node11"><a xlink:href="class_grid.html#a13d6d18b26d70ab5871a8c2ddf7fa1b5" target="_top" xlink:title="Grid::xMin">
<polygon fill="none" stroke="black" points="717.5,-304.5 717.5,-323.5 779.5,-323.5 779.5,-304.5 717.5,-304.5"/>
<text text-anchor="middle" x="748.5" y="-311.5" font-family="Helvetica,sans-Serif" font-size="10.00">Grid::xMin</text>
</a>
</g>
</g>
<!-- Node10&#45;&gt;Node11 -->
<g id="edge10" class="edge"><title>Node10&#45;&gt;Node11</title>
<path fill="none" stroke="midnightblue" d="M622.903,-266.623C641.235,-274.561 668.15,-285.949 692,-295 697.49,-297.083 703.322,-299.192 709.064,-301.209"/>
<polygon fill="midnightblue" stroke="midnightblue" points="707.971,-304.534 718.565,-304.496 710.259,-297.919 707.971,-304.534"/>
</g>
<!-- Node12 -->
<g id="node12" class="node"><title>Node12</title>
<g id="a_node12"><a xlink:href="class_grid.html#a5e140affdf9653d8badf596f1f151908" target="_top" xlink:title="Grid::xMax">
<polygon fill="none" stroke="black" points="716,-266.5 716,-285.5 781,-285.5 781,-266.5 716,-266.5"/>
<text text-anchor="middle" x="748.5" y="-273.5" font-family="Helvetica,sans-Serif" font-size="10.00">Grid::xMax</text>
</a>
</g>
</g>
<!-- Node10&#45;&gt;Node12 -->
<g id="edge11" class="edge"><title>Node10&#45;&gt;Node12</title>
<path fill="none" stroke="midnightblue" d="M656.385,-264.183C672.712,-266.301 690.301,-268.582 705.629,-270.57"/>
<polygon fill="midnightblue" stroke="midnightblue" points="705.469,-274.078 715.836,-271.893 706.369,-267.136 705.469,-274.078"/>
</g>
<!-- Node13 -->
<g id="node13" class="node"><title>Node13</title>
<g id="a_node13"><a xlink:href="class_grid.html#a6acf01d876905d8709f4fb8ebe18aa94" target="_top" xlink:title="Grid::yMin">
<polygon fill="none" stroke="black" points="717.5,-228.5 717.5,-247.5 779.5,-247.5 779.5,-228.5 717.5,-228.5"/>
<text text-anchor="middle" x="748.5" y="-235.5" font-family="Helvetica,sans-Serif" font-size="10.00">Grid::yMin</text>
</a>
</g>
</g>
<!-- Node10&#45;&gt;Node13 -->
<g id="edge12" class="edge"><title>Node10&#45;&gt;Node13</title>
<path fill="none" stroke="midnightblue" d="M656.385,-249.817C673.107,-247.648 691.152,-245.308 706.737,-243.287"/>
<polygon fill="midnightblue" stroke="midnightblue" points="707.62,-246.702 717.087,-241.944 706.72,-239.76 707.62,-246.702"/>
</g>
<!-- Node14 -->
<g id="node14" class="node"><title>Node14</title>
<g id="a_node14"><a xlink:href="class_grid.html#abfa1a601742ca69a5ecc3b6a5318d7a8" target="_top" xlink:title="Grid::yMax">
<polygon fill="none" stroke="black" points="716,-190.5 716,-209.5 781,-209.5 781,-190.5 716,-190.5"/>
<text text-anchor="middle" x="748.5" y="-197.5" font-family="Helvetica,sans-Serif" font-size="10.00">Grid::yMax</text>
</a>
</g>
</g>
<!-- Node10&#45;&gt;Node14 -->
<g id="edge13" class="edge"><title>Node10&#45;&gt;Node14</title>
<path fill="none" stroke="midnightblue" d="M622.903,-247.377C641.235,-239.439 668.15,-228.051 692,-219 697.49,-216.917 703.322,-214.808 709.064,-212.791"/>
<polygon fill="midnightblue" stroke="midnightblue" points="710.259,-216.081 718.565,-209.504 707.971,-209.466 710.259,-216.081"/>
</g>
<!-- Node16 -->
<g id="node16" class="node"><title>Node16</title>
<g id="a_node16"><a xlink:href="class_grid.html#a6b6af4fb2545b398b47794de576f15f5" target="_top" xlink:title="Test if a point is in the defined area of a track. ">
<polygon fill="none" stroke="black" points="704.5,-418.5 704.5,-437.5 792.5,-437.5 792.5,-418.5 704.5,-418.5"/>
<text text-anchor="middle" x="748.5" y="-425.5" font-family="Helvetica,sans-Serif" font-size="10.00">Grid::inFootPrint</text>
</a>
</g>
</g>
<!-- Node15&#45;&gt;Node16 -->
<g id="edge15" class="edge"><title>Node15&#45;&gt;Node16</title>
<path fill="none" stroke="midnightblue" d="M636.788,-361.558C643.445,-364.103 650.141,-367.224 656,-371 675.555,-383.604 672.428,-396.424 692,-409 695.141,-411.018 698.52,-412.848 702.005,-414.502"/>
<polygon fill="midnightblue" stroke="midnightblue" points="700.813,-417.798 711.386,-418.478 703.545,-411.353 700.813,-417.798"/>
</g>
<!-- Node17 -->
<g id="node17" class="node"><title>Node17</title>
<g id="a_node17"><a xlink:href="class_grid.html#a58233ab60f7477144af334f205606aa4" target="_top" xlink:title="Find max and min of the grid. ">
<polygon fill="none" stroke="black" points="704.5,-380.5 704.5,-399.5 792.5,-399.5 792.5,-380.5 704.5,-380.5"/>
<text text-anchor="middle" x="748.5" y="-387.5" font-family="Helvetica,sans-Serif" font-size="10.00">Grid::updateGrid</text>
</a>
</g>
</g>
<!-- Node15&#45;&gt;Node17 -->
<g id="edge16" class="edge"><title>Node15&#45;&gt;Node17</title>
<path fill="none" stroke="midnightblue" d="M637.968,-361.589C657.126,-366.558 680.714,-372.677 701.088,-377.961"/>
<polygon fill="midnightblue" stroke="midnightblue" points="700.239,-381.357 710.798,-380.48 701.997,-374.581 700.239,-381.357"/>
</g>
<!-- Node18 -->
<g id="node18" class="node"><title>Node18</title>
<g id="a_node18"><a xlink:href="class_grid.html#aba1830bc145f128d6deeed29cfb94c9f" target="_top" xlink:title="Creates a new road and inserts it in m_road. ">
<polygon fill="none" stroke="black" points="708.5,-342.5 708.5,-361.5 788.5,-361.5 788.5,-342.5 708.5,-342.5"/>
<text text-anchor="middle" x="748.5" y="-349.5" font-family="Helvetica,sans-Serif" font-size="10.00">Grid::addRoad</text>
</a>
</g>
</g>
<!-- Node15&#45;&gt;Node18 -->
<g id="edge17" class="edge"><title>Node15&#45;&gt;Node18</title>
<path fill="none" stroke="midnightblue" d="M651.827,-352C666.868,-352 683.305,-352 698.245,-352"/>
<polygon fill="midnightblue" stroke="midnightblue" points="698.313,-355.5 708.313,-352 698.313,-348.5 698.313,-355.5"/>
</g>
<!-- Node19 -->
<g id="node19" class="node"><title>Node19</title>
<g id="a_node19"><a xlink:href="class_point_road.html#aa1b90c3fdf8ae7a1fcd8ce6182d13287" target="_top" xlink:title="PointRoad::outputInfos">
<polygon fill="none" stroke="black" points="863.5,-456.5 863.5,-475.5 980.5,-475.5 980.5,-456.5 863.5,-456.5"/>
<text text-anchor="middle" x="922" y="-463.5" font-family="Helvetica,sans-Serif" font-size="10.00">PointRoad::outputInfos</text>
</a>
</g>
</g>
<!-- Node18&#45;&gt;Node19 -->
<g id="edge18" class="edge"><title>Node18&#45;&gt;Node19</title>
<path fill="none" stroke="midnightblue" d="M788.698,-360.949C794.608,-363.51 800.291,-366.793 805,-371 832.873,-395.9 811.957,-423.475 841,-447 844.988,-450.23 849.434,-452.928 854.131,-455.179"/>
<polygon fill="midnightblue" stroke="midnightblue" points="852.836,-458.431 863.416,-458.98 855.487,-451.953 852.836,-458.431"/>
</g>
<!-- Node20 -->
<g id="node20" class="node"><title>Node20</title>
<g id="a_node20"><a xlink:href="class_point_road.html#ab53ccb3c883bdfd27c707901c5c658c8" target="_top" xlink:title="PointRoad::updateBelongToRoad">
<polygon fill="none" stroke="black" points="841,-418.5 841,-437.5 1003,-437.5 1003,-418.5 841,-418.5"/>
<text text-anchor="middle" x="922" y="-425.5" font-family="Helvetica,sans-Serif" font-size="10.00">PointRoad::updateBelongToRoad</text>
</a>
</g>
</g>
<!-- Node18&#45;&gt;Node20 -->
<g id="edge19" class="edge"><title>Node18&#45;&gt;Node20</title>
<path fill="none" stroke="midnightblue" d="M785.614,-361.522C792.331,-364.07 799.088,-367.201 805,-371 824.572,-383.576 820.843,-397.384 841,-409 844.861,-411.225 848.97,-413.19 853.21,-414.925"/>
<polygon fill="midnightblue" stroke="midnightblue" points="852.058,-418.231 862.652,-418.369 854.457,-411.655 852.058,-418.231"/>
</g>
<!-- Node21 -->
<g id="node21" class="node"><title>Node21</title>
<g id="a_node21"><a xlink:href="class_point_road.html#a998665db2d7e4fc4935ef95df092ff2b" target="_top" xlink:title="PointRoad::setid">
<polygon fill="none" stroke="black" points="877.5,-380.5 877.5,-399.5 966.5,-399.5 966.5,-380.5 877.5,-380.5"/>
<text text-anchor="middle" x="922" y="-387.5" font-family="Helvetica,sans-Serif" font-size="10.00">PointRoad::setid</text>
</a>
</g>
</g>
<!-- Node18&#45;&gt;Node21 -->
<g id="edge20" class="edge"><title>Node18&#45;&gt;Node21</title>
<path fill="none" stroke="midnightblue" d="M788.846,-360.718C812.33,-365.922 842.46,-372.598 868.018,-378.261"/>
<polygon fill="midnightblue" stroke="midnightblue" points="867.408,-381.71 877.928,-380.456 868.922,-374.876 867.408,-381.71"/>
</g>
<!-- Node22 -->
<g id="node22" class="node"><title>Node22</title>
<g id="a_node22"><a xlink:href="class_point_road.html#a81372f2c2c0fe1084fa2397289518124" target="_top" xlink:title="PointRoad::id">
<polygon fill="none" stroke="black" points="1039,-361.5 1039,-380.5 1115,-380.5 1115,-361.5 1039,-361.5"/>
<text text-anchor="middle" x="1077" y="-368.5" font-family="Helvetica,sans-Serif" font-size="10.00">PointRoad::id</text>
</a>
</g>
</g>
<!-- Node18&#45;&gt;Node22 -->
<g id="edge23" class="edge"><title>Node18&#45;&gt;Node22</title>
<path fill="none" stroke="midnightblue" d="M788.559,-354.273C848.686,-357.772 963.743,-364.467 1028.57,-368.24"/>
<polygon fill="midnightblue" stroke="midnightblue" points="1028.72,-371.754 1038.91,-368.841 1029.13,-364.766 1028.72,-371.754"/>
</g>
<!-- Node23 -->
<g id="node23" class="node"><title>Node23</title>
<g id="a_node23"><a xlink:href="class_point_road.html#ae83941b37b026758fdd7974b4b186fbc" target="_top" xlink:title="PointRoad::isNode">
<polygon fill="none" stroke="black" points="872.5,-304.5 872.5,-323.5 971.5,-323.5 971.5,-304.5 872.5,-304.5"/>
<text text-anchor="middle" x="922" y="-311.5" font-family="Helvetica,sans-Serif" font-size="10.00">PointRoad::isNode</text>
</a>
</g>
</g>
<!-- Node18&#45;&gt;Node23 -->
<g id="edge22" class="edge"><title>Node18&#45;&gt;Node23</title>
<path fill="none" stroke="midnightblue" d="M788.846,-343.282C812.33,-338.078 842.46,-331.402 868.018,-325.739"/>
<polygon fill="midnightblue" stroke="midnightblue" points="868.922,-329.124 877.928,-323.544 867.408,-322.29 868.922,-329.124"/>
</g>
<!-- Node24 -->
<g id="node24" class="node"><title>Node24</title>
<g id="a_node24"><a xlink:href="class_road.html#a7f97b4f20c598103baad510b19a0c0b5" target="_top" xlink:title="Add a point to the road. ">
<polygon fill="none" stroke="black" points="880,-266.5 880,-285.5 964,-285.5 964,-266.5 880,-266.5"/>
<text text-anchor="middle" x="922" y="-273.5" font-family="Helvetica,sans-Serif" font-size="10.00">Road::addPoint</text>
</a>
</g>
</g>
<!-- Node18&#45;&gt;Node24 -->
<g id="edge24" class="edge"><title>Node18&#45;&gt;Node24</title>
<path fill="none" stroke="midnightblue" d="M785.614,-342.478C792.331,-339.93 799.088,-336.799 805,-333 824.572,-320.424 820.843,-306.616 841,-295 849.812,-289.921 859.917,-286.198 869.911,-283.469"/>
<polygon fill="midnightblue" stroke="midnightblue" points="870.928,-286.824 879.816,-281.058 869.272,-280.022 870.928,-286.824"/>
</g>
<!-- Node25 -->
<g id="node25" class="node"><title>Node25</title>
<g id="a_node25"><a xlink:href="class_road.html#ad6715392969e36eb10efac542519755c" target="_top" xlink:title="Get the id of the road. ">
<polygon fill="none" stroke="black" points="884.5,-228.5 884.5,-247.5 959.5,-247.5 959.5,-228.5 884.5,-228.5"/>
<text text-anchor="middle" x="922" y="-235.5" font-family="Helvetica,sans-Serif" font-size="10.00">Road::edgeId</text>
</a>
</g>
</g>
<!-- Node18&#45;&gt;Node25 -->
<g id="edge25" class="edge"><title>Node18&#45;&gt;Node25</title>
<path fill="none" stroke="midnightblue" d="M788.698,-343.051C794.608,-340.49 800.291,-337.207 805,-333 832.873,-308.1 811.957,-280.525 841,-257 850.446,-249.349 862.46,-244.685 874.288,-241.869"/>
<polygon fill="midnightblue" stroke="midnightblue" points="874.995,-245.297 884.12,-239.912 873.629,-238.431 874.995,-245.297"/>
</g>
<!-- Node21&#45;&gt;Node22 -->
<g id="edge21" class="edge"><title>Node21&#45;&gt;Node22</title>
<path fill="none" stroke="midnightblue" d="M966.844,-384.555C986.244,-382.146 1009.09,-379.309 1028.86,-376.854"/>
<polygon fill="midnightblue" stroke="midnightblue" points="1029.39,-380.315 1038.88,-375.609 1028.53,-373.369 1029.39,-380.315"/>
</g>
<!-- Node26&#45;&gt;Node11 -->
<g id="edge27" class="edge"><title>Node26&#45;&gt;Node11</title>
<path fill="none" stroke="midnightblue" d="M618.468,-209.562C630.014,-216.451 644.991,-226.527 656,-238 676.745,-259.62 668.489,-276.425 692,-295 696.71,-298.721 702.193,-301.736 707.843,-304.172"/>
<polygon fill="midnightblue" stroke="midnightblue" points="706.811,-307.523 717.403,-307.749 709.264,-300.967 706.811,-307.523"/>
</g>
<!-- Node26&#45;&gt;Node12 -->
<g id="edge29" class="edge"><title>Node26&#45;&gt;Node12</title>
<path fill="none" stroke="midnightblue" d="M614.016,-209.503C631.201,-221.728 662.718,-243.046 692,-257 696.594,-259.189 701.509,-261.248 706.445,-263.143"/>
<polygon fill="midnightblue" stroke="midnightblue" points="705.289,-266.447 715.883,-266.579 707.684,-259.869 705.289,-266.447"/>
</g>
<!-- Node26&#45;&gt;Node13 -->
<g id="edge31" class="edge"><title>Node26&#45;&gt;Node13</title>
<path fill="none" stroke="midnightblue" d="M637.968,-209.589C659.189,-215.093 685.845,-222.008 707.548,-227.637"/>
<polygon fill="midnightblue" stroke="midnightblue" points="706.886,-231.081 717.445,-230.204 708.644,-224.305 706.886,-231.081"/>
</g>
<!-- Node26&#45;&gt;Node14 -->
<g id="edge33" class="edge"><title>Node26&#45;&gt;Node14</title>
<path fill="none" stroke="midnightblue" d="M644.558,-200C663.915,-200 686.602,-200 705.745,-200"/>
<polygon fill="midnightblue" stroke="midnightblue" points="705.971,-203.5 715.971,-200 705.971,-196.5 705.971,-203.5"/>
</g>
<!-- Node27 -->
<g id="node27" class="node"><title>Node27</title>
<g id="a_node27"><a xlink:href="class_grid.html#aa96eed7a551f45aeee1068a289bd2a7b" target="_top" xlink:title="Grid::xMinGrid">
<polygon fill="none" stroke="black" points="708.5,-38.5 708.5,-57.5 788.5,-57.5 788.5,-38.5 708.5,-38.5"/>
<text text-anchor="middle" x="748.5" y="-45.5" font-family="Helvetica,sans-Serif" font-size="10.00">Grid::xMinGrid</text>
</a>
</g>
</g>
<!-- Node26&#45;&gt;Node27 -->
<g id="edge28" class="edge"><title>Node26&#45;&gt;Node27</title>
<path fill="none" stroke="midnightblue" d="M613.737,-190.424C625.867,-180.784 644.007,-164.948 656,-148 678.756,-115.842 662.94,-93.5989 692,-67 694.293,-64.9017 696.827,-63.0336 699.513,-61.3707"/>
<polygon fill="midnightblue" stroke="midnightblue" points="701.222,-64.4276 708.499,-56.7276 698.009,-58.2087 701.222,-64.4276"/>
</g>
<!-- Node28 -->
<g id="node28" class="node"><title>Node28</title>
<g id="a_node28"><a xlink:href="class_grid.html#aa3dd1e75998e6214c3ef33cdc5e02204" target="_top" xlink:title="Grid::xMaxGrid">
<polygon fill="none" stroke="black" points="707,-152.5 707,-171.5 790,-171.5 790,-152.5 707,-152.5"/>
<text text-anchor="middle" x="748.5" y="-159.5" font-family="Helvetica,sans-Serif" font-size="10.00">Grid::xMaxGrid</text>
</a>
</g>
</g>
<!-- Node26&#45;&gt;Node28 -->
<g id="edge30" class="edge"><title>Node26&#45;&gt;Node28</title>
<path fill="none" stroke="midnightblue" d="M637.968,-190.411C657.126,-185.442 680.714,-179.323 701.088,-174.039"/>
<polygon fill="midnightblue" stroke="midnightblue" points="701.997,-177.419 710.798,-171.52 700.239,-170.643 701.997,-177.419"/>
</g>
<!-- Node29 -->
<g id="node29" class="node"><title>Node29</title>
<g id="a_node29"><a xlink:href="class_grid.html#afa95de5fff735d1121572075a872121c" target="_top" xlink:title="Grid::yMinGrid">
<polygon fill="none" stroke="black" points="708.5,-114.5 708.5,-133.5 788.5,-133.5 788.5,-114.5 708.5,-114.5"/>
<text text-anchor="middle" x="748.5" y="-121.5" font-family="Helvetica,sans-Serif" font-size="10.00">Grid::yMinGrid</text>
</a>
</g>
</g>
<!-- Node26&#45;&gt;Node29 -->
<g id="edge32" class="edge"><title>Node26&#45;&gt;Node29</title>
<path fill="none" stroke="midnightblue" d="M614.016,-190.497C631.201,-178.272 662.718,-156.954 692,-143 696.422,-140.893 701.141,-138.907 705.889,-137.071"/>
<polygon fill="midnightblue" stroke="midnightblue" points="707.403,-140.244 715.593,-133.522 704.999,-133.67 707.403,-140.244"/>
</g>
<!-- Node30 -->
<g id="node30" class="node"><title>Node30</title>
<g id="a_node30"><a xlink:href="class_grid.html#a97ee4a72430770462f5e2ba140f2ca65" target="_top" xlink:title="Grid::yMaxGrid">
<polygon fill="none" stroke="black" points="707,-76.5 707,-95.5 790,-95.5 790,-76.5 707,-76.5"/>
<text text-anchor="middle" x="748.5" y="-83.5" font-family="Helvetica,sans-Serif" font-size="10.00">Grid::yMaxGrid</text>
</a>
</g>
</g>
<!-- Node26&#45;&gt;Node30 -->
<g id="edge34" class="edge"><title>Node26&#45;&gt;Node30</title>
<path fill="none" stroke="midnightblue" d="M611.899,-190.385C623.259,-180.206 641.408,-163.5 656,-148 673.085,-129.852 671.454,-119.111 692,-105 694.857,-103.038 697.935,-101.262 701.125,-99.6565"/>
<polygon fill="midnightblue" stroke="midnightblue" points="702.601,-102.831 710.321,-95.5741 699.761,-96.4328 702.601,-102.831"/>
</g>
<!-- Node32 -->
<g id="node32" class="node"><title>Node32</title>
<g id="a_node32"><a xlink:href="class_track.html#a9f1da7896167f44da967acf9fd05d92a" target="_top" xlink:title="This is a space filter, which deletes points depending on a distance interval. ">
<polygon fill="none" stroke="black" points="552.5,-119.5 552.5,-138.5 647.5,-138.5 647.5,-119.5 552.5,-119.5"/>
<text text-anchor="middle" x="600" y="-126.5" font-family="Helvetica,sans-Serif" font-size="10.00">Track::spaceFilter</text>
</a>
</g>
</g>
<!-- Node31&#45;&gt;Node32 -->
<g id="edge36" class="edge"><title>Node31&#45;&gt;Node32</title>
<path fill="none" stroke="midnightblue" d="M508.248,-129C519.512,-129 531.066,-129 541.995,-129"/>
<polygon fill="midnightblue" stroke="midnightblue" points="542.251,-132.5 552.251,-129 542.251,-125.5 542.251,-132.5"/>
</g>
<!-- Node33 -->
<g id="node33" class="node"><title>Node33</title>
<g id="a_node33"><a xlink:href="class_track.html#a58fcdaf47f2c87bb7095933616f5a4bc" target="_top" xlink:title="This is a temporal filter, which deletes points depending on a time value. ">
<polygon fill="none" stroke="black" points="546.5,-38.5 546.5,-57.5 653.5,-57.5 653.5,-38.5 546.5,-38.5"/>
<text text-anchor="middle" x="600" y="-45.5" font-family="Helvetica,sans-Serif" font-size="10.00">Track::temporalFilter</text>
</a>
</g>
</g>
<!-- Node31&#45;&gt;Node33 -->
<g id="edge37" class="edge"><title>Node31&#45;&gt;Node33</title>
<path fill="none" stroke="midnightblue" d="M482.113,-119.486C490.871,-116.903 499.881,-113.757 508,-110 534.688,-97.6504 562.161,-77.756 579.838,-63.8431"/>
<polygon fill="midnightblue" stroke="midnightblue" points="582.071,-66.5391 587.683,-57.5528 577.692,-61.0778 582.071,-66.5391"/>
</g>
<!-- Node34 -->
<g id="node34" class="node"><title>Node34</title>
<g id="a_node34"><a xlink:href="class_point_g_p_s.html#aa8a0cbf3cfbc3f4ac9d16737c00fcb88" target="_top" xlink:title="PointGPS::timeStamp">
<polygon fill="none" stroke="black" points="692,-0.5 692,-19.5 805,-19.5 805,-0.5 692,-0.5"/>
<text text-anchor="middle" x="748.5" y="-7.5" font-family="Helvetica,sans-Serif" font-size="10.00">PointGPS::timeStamp</text>
</a>
</g>
</g>
<!-- Node33&#45;&gt;Node34 -->
<g id="edge38" class="edge"><title>Node33&#45;&gt;Node34</title>
<path fill="none" stroke="midnightblue" d="M637.968,-38.411C657.126,-33.4417 680.714,-27.3233 701.088,-22.0387"/>
<polygon fill="midnightblue" stroke="midnightblue" points="701.997,-25.4188 710.798,-19.5201 700.239,-18.643 701.997,-25.4188"/>
</g>
</g>
</svg>
