<?xml version="1.0" encoding="UTF-8" standalone="no"?>
<!DOCTYPE svg PUBLIC "-//W3C//DTD SVG 1.1//EN"
 "http://www.w3.org/Graphics/SVG/1.1/DTD/svg11.dtd">
<!-- Generated by graphviz version 2.38.0 (20140413.2041)
 -->
<!-- Title: Map::save Pages: 1 -->
<svg width="233pt" height="28pt"
 viewBox="0.00 0.00 233.00 28.00" xmlns="http://www.w3.org/2000/svg" xmlns:xlink="http://www.w3.org/1999/xlink">
<g id="graph0" class="graph" transform="scale(1 1) rotate(0) translate(4 24)">
<title>Map::save</title>
<!-- Node1 -->
<g id="node1" class="node"><title>Node1</title>
<polygon fill="#bfbfbf" stroke="black" points="0,-0.5 0,-19.5 62,-19.5 62,-0.5 0,-0.5"/>
<text text-anchor="middle" x="31" y="-7.5" font-family="Helvetica,sans-Serif" font-size="10.00">Map::save</text>
</g>
<!-- Node2 -->
<g id="node2" class="node"><title>Node2</title>
<g id="a_node2"><a xlink:href="main_8cpp.html#a5e1c37b6b0ca91ad100d6bd39fc4062f" target="_top" xlink:title="dev_img">
<polygon fill="none" stroke="black" points="98,-0.5 98,-19.5 151,-19.5 151,-0.5 98,-0.5"/>
<text text-anchor="middle" x="124.5" y="-7.5" font-family="Helvetica,sans-Serif" font-size="10.00">dev_img</text>
</a>
</g>
</g>
<!-- Node1&#45;&gt;Node2 -->
<g id="edge1" class="edge"><title>Node1&#45;&gt;Node2</title>
<path fill="none" stroke="midnightblue" d="M72.2434,-10C80.9586,-10 89.9442,-10 97.9105,-10"/>
<polygon fill="midnightblue" stroke="midnightblue" points="72.2141,-6.5001 62.2141,-10 72.2141,-13.5001 72.2141,-6.5001"/>
</g>
<!-- Node3 -->
<g id="node3" class="node"><title>Node3</title>
<g id="a_node3"><a xlink:href="main_8cpp.html#a0ddf1224851353fc92bfbff6f499fa97" target="_top" xlink:title="main">
<polygon fill="none" stroke="black" points="187,-0.5 187,-19.5 225,-19.5 225,-0.5 187,-0.5"/>
<text text-anchor="middle" x="206" y="-7.5" font-family="Helvetica,sans-Serif" font-size="10.00">main</text>
</a>
</g>
</g>
<!-- Node2&#45;&gt;Node3 -->
<g id="edge2" class="edge"><title>Node2&#45;&gt;Node3</title>
<path fill="none" stroke="midnightblue" d="M161.231,-10C170.063,-10 179.162,-10 186.761,-10"/>
<polygon fill="midnightblue" stroke="midnightblue" points="161.092,-6.5001 151.092,-10 161.092,-13.5001 161.092,-6.5001"/>
</g>
</g>
</svg>
