<?xml version="1.0" encoding="UTF-8" standalone="no"?>
<!DOCTYPE svg PUBLIC "-//W3C//DTD SVG 1.1//EN"
 "http://www.w3.org/Graphics/SVG/1.1/DTD/svg11.dtd">
<!-- Generated by graphviz version 2.38.0 (20140413.2041)
 -->
<!-- Title: Solver::onSignalStart Pages: 1 -->
<!--zoomable 560 -->
<svg id="main" version="1.1" xmlns="http://www.w3.org/2000/svg" xmlns:xlink="http://www.w3.org/1999/xlink" xml:space="preserve" onload="init(evt)">
<style type="text/css"><![CDATA[
.edge:hover path { stroke: red; }
.edge:hover polygon { stroke: red; fill: red; }
]]></style>
<script type="text/javascript"><![CDATA[
var edges = document.getElementsByTagName('g');
if (edges && edges.length) {
  for (var i=0;i<edges.length;i++) {
    if (edges[i].id.substr(0,4)=='edge') {
      edges[i].setAttribute('class','edge');
    }
  }
}
]]></script>
        <defs>
                <circle id="rim" cx="0" cy="0" r="7"/>
                <circle id="rim2" cx="0" cy="0" r="3.5"/>
                <g id="zoomPlus">
                        <use xlink:href="#rim" fill="#404040">
                                <set attributeName="fill" to="#808080" begin="zoomplus.mouseover" end="zoomplus.mouseout"/>
                        </use>
                        <path d="M-4,0h8M0,-4v8" fill="none" stroke="white" stroke-width="1.5" pointer-events="none"/>
                </g>
                <g id="zoomMin">
                        <use xlink:href="#rim" fill="#404040">
                                <set attributeName="fill" to="#808080" begin="zoomminus.mouseover" end="zoomminus.mouseout"/>
                        </use>
                        <path d="M-4,0h8" fill="none" stroke="white" stroke-width="1.5" pointer-events="none"/>
                </g>
                <g id="dirArrow">
                        <path fill="none" stroke="white" stroke-width="1.5" d="M0,-3.0v7 M-2.5,-0.5L0,-3.0L2.5,-0.5"/>
                </g>
               <g id="resetDef">
                       <use xlink:href="#rim2" fill="#404040">
                               <set attributeName="fill" to="#808080" begin="reset.mouseover" end="reset.mouseout"/>
                       </use>
               </g>
        </defs>

<script type="text/javascript">
var viewWidth = 878;
var viewHeight = 560;
var sectionId = 'dynsection-9';
</script>
<script xlink:href="svgpan.js"/>
<svg id="graph" class="graph">
<g id="viewport">
<title>Solver::onSignalStart</title>
<!-- Node1 -->
<g id="node1" class="node"><title>Node1</title>
<polygon fill="#bfbfbf" stroke="black" points="0,-266.5 0,-285.5 109,-285.5 109,-266.5 0,-266.5"/>
<text text-anchor="middle" x="54.5" y="-273.5" font-family="Helvetica,sans-Serif" font-size="10.00">Solver::onSignalStart</text>
</g>
<!-- Node2 -->
<g id="node2" class="node"><title>Node2</title>
<g id="a_node2"><a xlink:href="class_solver.html#a97bc7169c18b339fecd4937150f907c3" target="_top" xlink:title="Solver::start">
<polygon fill="none" stroke="black" points="145,-266.5 145,-285.5 215,-285.5 215,-266.5 145,-266.5"/>
<text text-anchor="middle" x="180" y="-273.5" font-family="Helvetica,sans-Serif" font-size="10.00">Solver::start</text>
</a>
</g>
</g>
<!-- Node1&#45;&gt;Node2 -->
<g id="edge1" class="edge"><title>Node1&#45;&gt;Node2</title>
<path fill="none" stroke="midnightblue" d="M109.31,-276C117.811,-276 126.516,-276 134.766,-276"/>
<polygon fill="midnightblue" stroke="midnightblue" points="134.924,-279.5 144.924,-276 134.924,-272.5 134.924,-279.5"/>
</g>
<!-- Node3 -->
<g id="node3" class="node"><title>Node3</title>
<g id="a_node3"><a xlink:href="class_track.html#aff258a8c303ee8a09a962d237f3823e7" target="_top" xlink:title="Reads a csv file and inserts each point in m_points vector. ">
<polygon fill="none" stroke="black" points="261.5,-494.5 261.5,-513.5 371.5,-513.5 371.5,-494.5 261.5,-494.5"/>
<text text-anchor="middle" x="316.5" y="-501.5" font-family="Helvetica,sans-Serif" font-size="10.00">Track::readFromCSV</text>
</a>
</g>
</g>
<!-- Node2&#45;&gt;Node3 -->
<g id="edge2" class="edge"><title>Node2&#45;&gt;Node3</title>
<path fill="none" stroke="midnightblue" d="M181.234,-285.512C182.57,-318.284 191.492,-427.637 251,-485 252.639,-486.58 254.402,-488.029 256.262,-489.359"/>
<polygon fill="midnightblue" stroke="midnightblue" points="254.546,-492.41 264.942,-494.455 258.091,-486.374 254.546,-492.41"/>
</g>
<!-- Node7 -->
<g id="node7" class="node"><title>Node7</title>
<g id="a_node7"><a xlink:href="class_track.html#a58fcdaf47f2c87bb7095933616f5a4bc" target="_top" xlink:title="This is a temporal filter, which deletes points depending on a time value. ">
<polygon fill="none" stroke="black" points="263,-456.5 263,-475.5 370,-475.5 370,-456.5 263,-456.5"/>
<text text-anchor="middle" x="316.5" y="-463.5" font-family="Helvetica,sans-Serif" font-size="10.00">Track::temporalFilter</text>
</a>
</g>
</g>
<!-- Node2&#45;&gt;Node7 -->
<g id="edge6" class="edge"><title>Node2&#45;&gt;Node7</title>
<path fill="none" stroke="midnightblue" d="M182.071,-285.789C185.784,-314.888 200.76,-401.643 251,-447 252.76,-448.589 254.647,-450.045 256.629,-451.38"/>
<polygon fill="midnightblue" stroke="midnightblue" points="255.394,-454.698 265.836,-456.489 258.791,-448.577 255.394,-454.698"/>
</g>
<!-- Node9 -->
<g id="node9" class="node"><title>Node9</title>
<g id="a_node9"><a xlink:href="class_track.html#a9f1da7896167f44da967acf9fd05d92a" target="_top" xlink:title="This is a space filter, which deletes points depending on a distance interval. ">
<polygon fill="none" stroke="black" points="269,-418.5 269,-437.5 364,-437.5 364,-418.5 269,-418.5"/>
<text text-anchor="middle" x="316.5" y="-425.5" font-family="Helvetica,sans-Serif" font-size="10.00">Track::spaceFilter</text>
</a>
</g>
</g>
<!-- Node2&#45;&gt;Node9 -->
<g id="edge8" class="edge"><title>Node2&#45;&gt;Node9</title>
<path fill="none" stroke="midnightblue" d="M183.301,-285.696C189.626,-310.207 209.623,-375.1 251,-409 253.701,-411.213 256.65,-413.167 259.754,-414.895"/>
<polygon fill="midnightblue" stroke="midnightblue" points="258.295,-418.076 268.831,-419.185 261.286,-411.747 258.295,-418.076"/>
</g>
<!-- Node11 -->
<g id="node11" class="node"><title>Node11</title>
<g id="a_node11"><a xlink:href="class_track.html#ad262a30c2abcd29cf4cdc04facd290ee" target="_top" xlink:title="Track::getPointsAsPointer">
<polygon fill="none" stroke="black" points="251,-380.5 251,-399.5 382,-399.5 382,-380.5 251,-380.5"/>
<text text-anchor="middle" x="316.5" y="-387.5" font-family="Helvetica,sans-Serif" font-size="10.00">Track::getPointsAsPointer</text>
</a>
</g>
</g>
<!-- Node2&#45;&gt;Node11 -->
<g id="edge10" class="edge"><title>Node2&#45;&gt;Node11</title>
<path fill="none" stroke="midnightblue" d="M185.456,-285.707C194.792,-304.956 218.281,-348.078 251,-371 253.859,-373.003 256.931,-374.798 260.126,-376.405"/>
<polygon fill="midnightblue" stroke="midnightblue" points="258.819,-379.653 269.384,-380.456 261.626,-373.241 258.819,-379.653"/>
</g>
<!-- Node12 -->
<g id="node12" class="node"><title>Node12</title>
<g id="a_node12"><a xlink:href="class_track.html#abf3b02de2c94d38c6a79b7c932aa6c5b" target="_top" xlink:title="Return a string containing information about the content of this object. ">
<polygon fill="none" stroke="black" points="282.5,-342.5 282.5,-361.5 350.5,-361.5 350.5,-342.5 282.5,-342.5"/>
<text text-anchor="middle" x="316.5" y="-349.5" font-family="Helvetica,sans-Serif" font-size="10.00">Track::infos</text>
</a>
</g>
</g>
<!-- Node2&#45;&gt;Node12 -->
<g id="edge11" class="edge"><title>Node2&#45;&gt;Node12</title>
<path fill="none" stroke="midnightblue" d="M190.519,-285.885C203.206,-298.524 226.874,-320.288 251,-333 257.75,-336.557 265.258,-339.536 272.696,-342"/>
<polygon fill="midnightblue" stroke="midnightblue" points="271.779,-345.38 282.365,-344.949 273.821,-338.684 271.779,-345.38"/>
</g>
<!-- Node13 -->
<g id="node13" class="node"><title>Node13</title>
<g id="a_node13"><a xlink:href="class_grid.html#ae848f1c59c544adc1af9133409ee0106" target="_top" xlink:title="Reads a csv file and inserts info into the corresponding attributs. ">
<polygon fill="none" stroke="black" points="265,-304.5 265,-323.5 368,-323.5 368,-304.5 265,-304.5"/>
<text text-anchor="middle" x="316.5" y="-311.5" font-family="Helvetica,sans-Serif" font-size="10.00">Grid::readFromCSV</text>
</a>
</g>
</g>
<!-- Node2&#45;&gt;Node13 -->
<g id="edge12" class="edge"><title>Node2&#45;&gt;Node13</title>
<path fill="none" stroke="midnightblue" d="M214.94,-285.589C232.223,-290.472 253.433,-296.464 271.911,-301.685"/>
<polygon fill="midnightblue" stroke="midnightblue" points="270.996,-305.063 281.571,-304.414 272.899,-298.327 270.996,-305.063"/>
</g>
<!-- Node24 -->
<g id="node24" class="node"><title>Node24</title>
<g id="a_node24"><a xlink:href="class_grid.html#a5fa1f98ecc8f485e4eee5b55b56243a0" target="_top" xlink:title="Grid::infos">
<polygon fill="none" stroke="black" points="285.5,-266.5 285.5,-285.5 347.5,-285.5 347.5,-266.5 285.5,-266.5"/>
<text text-anchor="middle" x="316.5" y="-273.5" font-family="Helvetica,sans-Serif" font-size="10.00">Grid::infos</text>
</a>
</g>
</g>
<!-- Node2&#45;&gt;Node24 -->
<g id="edge24" class="edge"><title>Node2&#45;&gt;Node24</title>
<path fill="none" stroke="midnightblue" d="M215.288,-276C233.544,-276 256.106,-276 275.196,-276"/>
<polygon fill="midnightblue" stroke="midnightblue" points="275.395,-279.5 285.395,-276 275.395,-272.5 275.395,-279.5"/>
</g>
<!-- Node25 -->
<g id="node25" class="node"><title>Node25</title>
<g id="a_node25"><a xlink:href="class_grid.html#aa96eed7a551f45aeee1068a289bd2a7b" target="_top" xlink:title="Grid::xMinGrid">
<polygon fill="none" stroke="black" points="276.5,-228.5 276.5,-247.5 356.5,-247.5 356.5,-228.5 276.5,-228.5"/>
<text text-anchor="middle" x="316.5" y="-235.5" font-family="Helvetica,sans-Serif" font-size="10.00">Grid::xMinGrid</text>
</a>
</g>
</g>
<!-- Node2&#45;&gt;Node25 -->
<g id="edge25" class="edge"><title>Node2&#45;&gt;Node25</title>
<path fill="none" stroke="midnightblue" d="M214.94,-266.411C232.223,-261.528 253.433,-255.536 271.911,-250.315"/>
<polygon fill="midnightblue" stroke="midnightblue" points="272.899,-253.673 281.571,-247.586 270.996,-246.937 272.899,-253.673"/>
</g>
<!-- Node26 -->
<g id="node26" class="node"><title>Node26</title>
<g id="a_node26"><a xlink:href="class_grid.html#aa3dd1e75998e6214c3ef33cdc5e02204" target="_top" xlink:title="Grid::xMaxGrid">
<polygon fill="none" stroke="black" points="275,-190.5 275,-209.5 358,-209.5 358,-190.5 275,-190.5"/>
<text text-anchor="middle" x="316.5" y="-197.5" font-family="Helvetica,sans-Serif" font-size="10.00">Grid::xMaxGrid</text>
</a>
</g>
</g>
<!-- Node2&#45;&gt;Node26 -->
<g id="edge26" class="edge"><title>Node2&#45;&gt;Node26</title>
<path fill="none" stroke="midnightblue" d="M190.519,-266.115C203.206,-253.476 226.874,-231.712 251,-219 255.531,-216.612 260.404,-214.485 265.368,-212.599"/>
<polygon fill="midnightblue" stroke="midnightblue" points="266.664,-215.854 274.961,-209.264 264.366,-209.242 266.664,-215.854"/>
</g>
<!-- Node27 -->
<g id="node27" class="node"><title>Node27</title>
<g id="a_node27"><a xlink:href="class_grid.html#afa95de5fff735d1121572075a872121c" target="_top" xlink:title="Grid::yMinGrid">
<polygon fill="none" stroke="black" points="276.5,-152.5 276.5,-171.5 356.5,-171.5 356.5,-152.5 276.5,-152.5"/>
<text text-anchor="middle" x="316.5" y="-159.5" font-family="Helvetica,sans-Serif" font-size="10.00">Grid::yMinGrid</text>
</a>
</g>
</g>
<!-- Node2&#45;&gt;Node27 -->
<g id="edge27" class="edge"><title>Node2&#45;&gt;Node27</title>
<path fill="none" stroke="midnightblue" d="M185.456,-266.293C194.792,-247.044 218.281,-203.922 251,-181 255.839,-177.61 261.285,-174.818 266.91,-172.52"/>
<polygon fill="midnightblue" stroke="midnightblue" points="268.232,-175.764 276.468,-169.1 265.873,-169.173 268.232,-175.764"/>
</g>
<!-- Node28 -->
<g id="node28" class="node"><title>Node28</title>
<g id="a_node28"><a xlink:href="class_grid.html#a97ee4a72430770462f5e2ba140f2ca65" target="_top" xlink:title="Grid::yMaxGrid">
<polygon fill="none" stroke="black" points="275,-114.5 275,-133.5 358,-133.5 358,-114.5 275,-114.5"/>
<text text-anchor="middle" x="316.5" y="-121.5" font-family="Helvetica,sans-Serif" font-size="10.00">Grid::yMaxGrid</text>
</a>
</g>
</g>
<!-- Node2&#45;&gt;Node28 -->
<g id="edge28" class="edge"><title>Node2&#45;&gt;Node28</title>
<path fill="none" stroke="midnightblue" d="M183.301,-266.304C189.626,-241.793 209.623,-176.9 251,-143 255.289,-139.486 260.207,-136.622 265.373,-134.287"/>
<polygon fill="midnightblue" stroke="midnightblue" points="266.785,-137.494 274.857,-130.631 264.268,-130.962 266.785,-137.494"/>
</g>
<!-- Node29 -->
<g id="node29" class="node"><title>Node29</title>
<g id="a_node29"><a xlink:href="class_grid.html#aea292f48c96b2e9d1abee08040cd3833" target="_top" xlink:title="buildMarkovMatrix ">
<polygon fill="none" stroke="black" points="256.5,-76.5 256.5,-95.5 376.5,-95.5 376.5,-76.5 256.5,-76.5"/>
<text text-anchor="middle" x="316.5" y="-83.5" font-family="Helvetica,sans-Serif" font-size="10.00">Grid::buildMarkovMatrix</text>
</a>
</g>
</g>
<!-- Node2&#45;&gt;Node29 -->
<g id="edge29" class="edge"><title>Node2&#45;&gt;Node29</title>
<path fill="none" stroke="midnightblue" d="M182.071,-266.211C185.784,-237.112 200.76,-150.357 251,-105 252.76,-103.411 254.647,-101.955 256.629,-100.62"/>
<polygon fill="midnightblue" stroke="midnightblue" points="258.791,-103.423 265.836,-95.5107 255.394,-97.3023 258.791,-103.423"/>
</g>
<!-- Node31 -->
<g id="node31" class="node"><title>Node31</title>
<g id="a_node31"><a xlink:href="class_solver.html#a8851263dce9a1edb047e07406eb3c566" target="_top" xlink:title="Solver::viterbiSetup">
<polygon fill="none" stroke="black" points="265.5,-38.5 265.5,-57.5 367.5,-57.5 367.5,-38.5 265.5,-38.5"/>
<text text-anchor="middle" x="316.5" y="-45.5" font-family="Helvetica,sans-Serif" font-size="10.00">Solver::viterbiSetup</text>
</a>
</g>
</g>
<!-- Node2&#45;&gt;Node31 -->
<g id="edge31" class="edge"><title>Node2&#45;&gt;Node31</title>
<path fill="none" stroke="midnightblue" d="M181.234,-266.488C182.57,-233.716 191.492,-124.363 251,-67 252.673,-65.3873 254.476,-63.9105 256.378,-62.5582"/>
<polygon fill="midnightblue" stroke="midnightblue" points="258.377,-65.4444 265.262,-57.3916 254.858,-59.3933 258.377,-65.4444"/>
</g>
<!-- Node4 -->
<g id="node4" class="node"><title>Node4</title>
<g id="a_node4"><a xlink:href="class_track.html#ab0315e74b9b49e40d163a2ff978d833c" target="_top" xlink:title="Creates a new point and inserts it in m_points. ">
<polygon fill="none" stroke="black" points="446,-532.5 446,-551.5 532,-551.5 532,-532.5 446,-532.5"/>
<text text-anchor="middle" x="489" y="-539.5" font-family="Helvetica,sans-Serif" font-size="10.00">Track::addPoint</text>
</a>
</g>
</g>
<!-- Node3&#45;&gt;Node4 -->
<g id="edge3" class="edge"><title>Node3&#45;&gt;Node4</title>
<path fill="none" stroke="midnightblue" d="M360.524,-513.589C383.399,-518.687 411.7,-524.995 435.821,-530.371"/>
<polygon fill="midnightblue" stroke="midnightblue" points="435.353,-533.852 445.874,-532.611 436.875,-527.02 435.353,-533.852"/>
</g>
<!-- Node6 -->
<g id="node6" class="node"><title>Node6</title>
<g id="a_node6"><a xlink:href="class_track.html#aac5002af6aa69a20101a5709dbbebc82" target="_top" xlink:title="Apply a threshold to bounding box once the data file has been read. ">
<polygon fill="none" stroke="black" points="418,-494.5 418,-513.5 560,-513.5 560,-494.5 418,-494.5"/>
<text text-anchor="middle" x="489" y="-501.5" font-family="Helvetica,sans-Serif" font-size="10.00">Track::applyThresholdToBox</text>
</a>
</g>
</g>
<!-- Node3&#45;&gt;Node6 -->
<g id="edge5" class="edge"><title>Node3&#45;&gt;Node6</title>
<path fill="none" stroke="midnightblue" d="M371.916,-504C383.337,-504 395.611,-504 407.749,-504"/>
<polygon fill="midnightblue" stroke="midnightblue" points="407.892,-507.5 417.892,-504 407.892,-500.5 407.892,-507.5"/>
</g>
<!-- Node5 -->
<g id="node5" class="node"><title>Node5</title>
<g id="a_node5"><a xlink:href="class_track.html#af947410651d847174d7b18d8e9df9ca7" target="_top" xlink:title="Update the enclosing box of the track. ">
<polygon fill="none" stroke="black" points="630,-532.5 630,-551.5 724,-551.5 724,-532.5 630,-532.5"/>
<text text-anchor="middle" x="677" y="-539.5" font-family="Helvetica,sans-Serif" font-size="10.00">Track::updateBox</text>
</a>
</g>
</g>
<!-- Node4&#45;&gt;Node5 -->
<g id="edge4" class="edge"><title>Node4&#45;&gt;Node5</title>
<path fill="none" stroke="midnightblue" d="M532.206,-542C558.076,-542 591.51,-542 619.627,-542"/>
<polygon fill="midnightblue" stroke="midnightblue" points="619.722,-545.5 629.722,-542 619.722,-538.5 619.722,-545.5"/>
</g>
<!-- Node8 -->
<g id="node8" class="node"><title>Node8</title>
<g id="a_node8"><a xlink:href="class_point_g_p_s.html#aa8a0cbf3cfbc3f4ac9d16737c00fcb88" target="_top" xlink:title="PointGPS::timeStamp">
<polygon fill="none" stroke="black" points="432.5,-456.5 432.5,-475.5 545.5,-475.5 545.5,-456.5 432.5,-456.5"/>
<text text-anchor="middle" x="489" y="-463.5" font-family="Helvetica,sans-Serif" font-size="10.00">PointGPS::timeStamp</text>
</a>
</g>
</g>
<!-- Node7&#45;&gt;Node8 -->
<g id="edge7" class="edge"><title>Node7&#45;&gt;Node8</title>
<path fill="none" stroke="midnightblue" d="M370.047,-466C386.569,-466 405.023,-466 422.337,-466"/>
<polygon fill="midnightblue" stroke="midnightblue" points="422.377,-469.5 432.377,-466 422.376,-462.5 422.377,-469.5"/>
</g>
<!-- Node10 -->
<g id="node10" class="node"><title>Node10</title>
<g id="a_node10"><a xlink:href="class_track.html#a0477b30aca07ba3f43b25d4c6ea782e0" target="_top" xlink:title="Deletes a occurence. ">
<polygon fill="none" stroke="black" points="437,-418.5 437,-437.5 541,-437.5 541,-418.5 437,-418.5"/>
<text text-anchor="middle" x="489" y="-425.5" font-family="Helvetica,sans-Serif" font-size="10.00">Track::delPointGPS</text>
</a>
</g>
</g>
<!-- Node9&#45;&gt;Node10 -->
<g id="edge9" class="edge"><title>Node9&#45;&gt;Node10</title>
<path fill="none" stroke="midnightblue" d="M364.09,-428C383.405,-428 406.08,-428 426.716,-428"/>
<polygon fill="midnightblue" stroke="midnightblue" points="426.974,-431.5 436.974,-428 426.974,-424.5 426.974,-431.5"/>
</g>
<!-- Node14 -->
<g id="node14" class="node"><title>Node14</title>
<g id="a_node14"><a xlink:href="class_grid.html#a6b6af4fb2545b398b47794de576f15f5" target="_top" xlink:title="Test if a point is in the defined area of a track. ">
<polygon fill="none" stroke="black" points="445,-342.5 445,-361.5 533,-361.5 533,-342.5 445,-342.5"/>
<text text-anchor="middle" x="489" y="-349.5" font-family="Helvetica,sans-Serif" font-size="10.00">Grid::inFootPrint</text>
</a>
</g>
</g>
<!-- Node13&#45;&gt;Node14 -->
<g id="edge13" class="edge"><title>Node13&#45;&gt;Node14</title>
<path fill="none" stroke="midnightblue" d="M360.524,-323.589C383.226,-328.649 411.273,-334.9 435.274,-340.249"/>
<polygon fill="midnightblue" stroke="midnightblue" points="434.763,-343.721 445.285,-342.48 436.286,-336.888 434.763,-343.721"/>
</g>
<!-- Node15 -->
<g id="node15" class="node"><title>Node15</title>
<g id="a_node15"><a xlink:href="class_grid.html#a58233ab60f7477144af334f205606aa4" target="_top" xlink:title="Find max and min of the grid. ">
<polygon fill="none" stroke="black" points="445,-304.5 445,-323.5 533,-323.5 533,-304.5 445,-304.5"/>
<text text-anchor="middle" x="489" y="-311.5" font-family="Helvetica,sans-Serif" font-size="10.00">Grid::updateGrid</text>
</a>
</g>
</g>
<!-- Node13&#45;&gt;Node15 -->
<g id="edge14" class="edge"><title>Node13&#45;&gt;Node15</title>
<path fill="none" stroke="midnightblue" d="M368.194,-314C389.199,-314 413.573,-314 434.831,-314"/>
<polygon fill="midnightblue" stroke="midnightblue" points="434.989,-317.5 444.989,-314 434.989,-310.5 434.989,-317.5"/>
</g>
<!-- Node16 -->
<g id="node16" class="node"><title>Node16</title>
<g id="a_node16"><a xlink:href="class_grid.html#aba1830bc145f128d6deeed29cfb94c9f" target="_top" xlink:title="Creates a new road and inserts it in m_road. ">
<polygon fill="none" stroke="black" points="449,-266.5 449,-285.5 529,-285.5 529,-266.5 449,-266.5"/>
<text text-anchor="middle" x="489" y="-273.5" font-family="Helvetica,sans-Serif" font-size="10.00">Grid::addRoad</text>
</a>
</g>
</g>
<!-- Node13&#45;&gt;Node16 -->
<g id="edge15" class="edge"><title>Node13&#45;&gt;Node16</title>
<path fill="none" stroke="midnightblue" d="M360.524,-304.411C384.368,-299.097 414.108,-292.469 438.864,-286.951"/>
<polygon fill="midnightblue" stroke="midnightblue" points="439.784,-290.332 448.784,-284.74 438.262,-283.5 439.784,-290.332"/>
</g>
<!-- Node17 -->
<g id="node17" class="node"><title>Node17</title>
<g id="a_node17"><a xlink:href="class_point_road.html#aa1b90c3fdf8ae7a1fcd8ce6182d13287" target="_top" xlink:title="PointRoad::outputInfos">
<polygon fill="none" stroke="black" points="618.5,-380.5 618.5,-399.5 735.5,-399.5 735.5,-380.5 618.5,-380.5"/>
<text text-anchor="middle" x="677" y="-387.5" font-family="Helvetica,sans-Serif" font-size="10.00">PointRoad::outputInfos</text>
</a>
</g>
</g>
<!-- Node16&#45;&gt;Node17 -->
<g id="edge16" class="edge"><title>Node16&#45;&gt;Node17</title>
<path fill="none" stroke="midnightblue" d="M529.164,-280.432C540.076,-283.22 551.308,-287.727 560,-295 588.665,-318.985 566.957,-347.475 596,-371 599.988,-374.23 604.434,-376.928 609.131,-379.179"/>
<polygon fill="midnightblue" stroke="midnightblue" points="607.836,-382.431 618.416,-382.98 610.487,-375.953 607.836,-382.431"/>
</g>
<!-- Node18 -->
<g id="node18" class="node"><title>Node18</title>
<g id="a_node18"><a xlink:href="class_point_road.html#ab53ccb3c883bdfd27c707901c5c658c8" target="_top" xlink:title="PointRoad::updateBelongToRoad">
<polygon fill="none" stroke="black" points="596,-342.5 596,-361.5 758,-361.5 758,-342.5 596,-342.5"/>
<text text-anchor="middle" x="677" y="-349.5" font-family="Helvetica,sans-Serif" font-size="10.00">PointRoad::updateBelongToRoad</text>
</a>
</g>
</g>
<!-- Node16&#45;&gt;Node18 -->
<g id="edge17" class="edge"><title>Node16&#45;&gt;Node18</title>
<path fill="none" stroke="midnightblue" d="M529.311,-282.658C539.754,-285.477 550.704,-289.444 560,-295 579.969,-306.936 575.843,-321.384 596,-333 599.861,-335.225 603.97,-337.19 608.21,-338.925"/>
<polygon fill="midnightblue" stroke="midnightblue" points="607.058,-342.231 617.652,-342.369 609.457,-335.655 607.058,-342.231"/>
</g>
<!-- Node19 -->
<g id="node19" class="node"><title>Node19</title>
<g id="a_node19"><a xlink:href="class_point_road.html#a998665db2d7e4fc4935ef95df092ff2b" target="_top" xlink:title="PointRoad::setid">
<polygon fill="none" stroke="black" points="632.5,-304.5 632.5,-323.5 721.5,-323.5 721.5,-304.5 632.5,-304.5"/>
<text text-anchor="middle" x="677" y="-311.5" font-family="Helvetica,sans-Serif" font-size="10.00">PointRoad::setid</text>
</a>
</g>
</g>
<!-- Node16&#45;&gt;Node19 -->
<g id="edge18" class="edge"><title>Node16&#45;&gt;Node19</title>
<path fill="none" stroke="midnightblue" d="M529.446,-284.059C556.441,-289.574 592.57,-296.955 622.2,-303.009"/>
<polygon fill="midnightblue" stroke="midnightblue" points="621.886,-306.517 632.384,-305.089 623.287,-299.658 621.886,-306.517"/>
</g>
<!-- Node20 -->
<g id="node20" class="node"><title>Node20</title>
<g id="a_node20"><a xlink:href="class_point_road.html#a81372f2c2c0fe1084fa2397289518124" target="_top" xlink:title="PointRoad::id">
<polygon fill="none" stroke="black" points="794,-285.5 794,-304.5 870,-304.5 870,-285.5 794,-285.5"/>
<text text-anchor="middle" x="832" y="-292.5" font-family="Helvetica,sans-Serif" font-size="10.00">PointRoad::id</text>
</a>
</g>
</g>
<!-- Node16&#45;&gt;Node20 -->
<g id="edge21" class="edge"><title>Node16&#45;&gt;Node20</title>
<path fill="none" stroke="midnightblue" d="M529.117,-278.18C592.053,-281.686 715.588,-288.569 783.491,-292.353"/>
<polygon fill="midnightblue" stroke="midnightblue" points="783.714,-295.871 793.894,-292.932 784.104,-288.881 783.714,-295.871"/>
</g>
<!-- Node21 -->
<g id="node21" class="node"><title>Node21</title>
<g id="a_node21"><a xlink:href="class_point_road.html#ae83941b37b026758fdd7974b4b186fbc" target="_top" xlink:title="PointRoad::isNode">
<polygon fill="none" stroke="black" points="627.5,-228.5 627.5,-247.5 726.5,-247.5 726.5,-228.5 627.5,-228.5"/>
<text text-anchor="middle" x="677" y="-235.5" font-family="Helvetica,sans-Serif" font-size="10.00">PointRoad::isNode</text>
</a>
</g>
</g>
<!-- Node16&#45;&gt;Node21 -->
<g id="edge20" class="edge"><title>Node16&#45;&gt;Node21</title>
<path fill="none" stroke="midnightblue" d="M529.446,-267.941C555.583,-262.601 590.281,-255.512 619.354,-249.573"/>
<polygon fill="midnightblue" stroke="midnightblue" points="620.282,-252.956 629.379,-247.525 618.881,-246.097 620.282,-252.956"/>
</g>
<!-- Node22 -->
<g id="node22" class="node"><title>Node22</title>
<g id="a_node22"><a xlink:href="class_road.html#a7f97b4f20c598103baad510b19a0c0b5" target="_top" xlink:title="Add a point to the road. ">
<polygon fill="none" stroke="black" points="635,-190.5 635,-209.5 719,-209.5 719,-190.5 635,-190.5"/>
<text text-anchor="middle" x="677" y="-197.5" font-family="Helvetica,sans-Serif" font-size="10.00">Road::addPoint</text>
</a>
</g>
</g>
<!-- Node16&#45;&gt;Node22 -->
<g id="edge22" class="edge"><title>Node16&#45;&gt;Node22</title>
<path fill="none" stroke="midnightblue" d="M504.855,-266.394C524.837,-253.858 561.821,-231.993 596,-219 605.111,-215.536 615.053,-212.569 624.735,-210.079"/>
<polygon fill="midnightblue" stroke="midnightblue" points="625.796,-213.423 634.684,-207.656 624.14,-206.622 625.796,-213.423"/>
</g>
<!-- Node23 -->
<g id="node23" class="node"><title>Node23</title>
<g id="a_node23"><a xlink:href="class_road.html#ad6715392969e36eb10efac542519755c" target="_top" xlink:title="Get the id of the road. ">
<polygon fill="none" stroke="black" points="639.5,-152.5 639.5,-171.5 714.5,-171.5 714.5,-152.5 639.5,-152.5"/>
<text text-anchor="middle" x="677" y="-159.5" font-family="Helvetica,sans-Serif" font-size="10.00">Road::edgeId</text>
</a>
</g>
</g>
<!-- Node16&#45;&gt;Node23 -->
<g id="edge23" class="edge"><title>Node16&#45;&gt;Node23</title>
<path fill="none" stroke="midnightblue" d="M497.666,-266.49C513.747,-247.211 553.082,-203.45 596,-181 606.272,-175.627 618.078,-171.75 629.411,-168.962"/>
<polygon fill="midnightblue" stroke="midnightblue" points="630.198,-172.373 639.197,-166.781 628.676,-165.54 630.198,-172.373"/>
</g>
<!-- Node19&#45;&gt;Node20 -->
<g id="edge19" class="edge"><title>Node19&#45;&gt;Node20</title>
<path fill="none" stroke="midnightblue" d="M721.844,-308.555C741.244,-306.146 764.094,-303.309 783.861,-300.854"/>
<polygon fill="midnightblue" stroke="midnightblue" points="784.39,-304.315 793.882,-299.609 783.527,-297.369 784.39,-304.315"/>
</g>
<!-- Node30 -->
<g id="node30" class="node"><title>Node30</title>
<g id="a_node30"><a xlink:href="class_grid.html#a54c76e927f8428bca87520d8ca310bec" target="_top" xlink:title="Grid::getRoadEntry">
<polygon fill="none" stroke="black" points="438.5,-76.5 438.5,-95.5 539.5,-95.5 539.5,-76.5 438.5,-76.5"/>
<text text-anchor="middle" x="489" y="-83.5" font-family="Helvetica,sans-Serif" font-size="10.00">Grid::getRoadEntry</text>
</a>
</g>
</g>
<!-- Node29&#45;&gt;Node30 -->
<g id="edge30" class="edge"><title>Node29&#45;&gt;Node30</title>
<path fill="none" stroke="midnightblue" d="M376.654,-86C393.301,-86 411.417,-86 428.106,-86"/>
<polygon fill="midnightblue" stroke="midnightblue" points="428.288,-89.5001 438.288,-86 428.288,-82.5001 428.288,-89.5001"/>
</g>
<!-- Node32 -->
<g id="node32" class="node"><title>Node32</title>
<g id="a_node32"><a xlink:href="class_grid.html#aa0545cd5f236dced312b694dc768f137" target="_top" xlink:title="Getters. ">
<polygon fill="none" stroke="black" points="436,-38.5 436,-57.5 542,-57.5 542,-38.5 436,-38.5"/>
<text text-anchor="middle" x="489" y="-45.5" font-family="Helvetica,sans-Serif" font-size="10.00">Grid::getNoOfRoads</text>
</a>
</g>
</g>
<!-- Node31&#45;&gt;Node32 -->
<g id="edge32" class="edge"><title>Node31&#45;&gt;Node32</title>
<path fill="none" stroke="midnightblue" d="M367.733,-48C385.885,-48 406.6,-48 425.664,-48"/>
<polygon fill="midnightblue" stroke="midnightblue" points="425.758,-51.5001 435.758,-48 425.758,-44.5001 425.758,-51.5001"/>
</g>
<!-- Node33 -->
<g id="node33" class="node"><title>Node33</title>
<g id="a_node33"><a xlink:href="class_track.html#aa16b233f5eaca258da5f00aca77e00f9" target="_top" xlink:title="Track::getNoOfPoints">
<polygon fill="none" stroke="black" points="433,-0.5 433,-19.5 545,-19.5 545,-0.5 433,-0.5"/>
<text text-anchor="middle" x="489" y="-7.5" font-family="Helvetica,sans-Serif" font-size="10.00">Track::getNoOfPoints</text>
</a>
</g>
</g>
<!-- Node31&#45;&gt;Node33 -->
<g id="edge33" class="edge"><title>Node31&#45;&gt;Node33</title>
<path fill="none" stroke="midnightblue" d="M360.524,-38.411C383.226,-33.3513 411.273,-27.1004 435.274,-21.7512"/>
<polygon fill="midnightblue" stroke="midnightblue" points="436.286,-25.1117 445.285,-19.5201 434.763,-18.2793 436.286,-25.1117"/>
</g>
</g>
</svg>
        <g id="navigator" transform="translate(0 0)" fill="#404254">
                <rect fill="#f2f5e9" fill-opacity="0.5" stroke="#606060" stroke-width=".5" x="0" y="0" width="60" height="60"/>
                <use id="zoomplus" xlink:href="#zoomPlus" x="17" y="9" onmousedown="handleZoom(evt,'in')"/>
                <use id="zoomminus" xlink:href="#zoomMin" x="42" y="9" onmousedown="handleZoom(evt,'out')"/>
                <use id="reset" xlink:href="#resetDef" x="30" y="36" onmousedown="handleReset()"/>
                <g id="arrowUp" xlink:href="#dirArrow" transform="translate(30 24)" onmousedown="handlePan(0,-1)">
                  <use xlink:href="#rim" fill="#404040">
                        <set attributeName="fill" to="#808080" begin="arrowUp.mouseover" end="arrowUp.mouseout"/>
                  </use>
                  <path fill="none" stroke="white" stroke-width="1.5" d="M0,-3.0v7 M-2.5,-0.5L0,-3.0L2.5,-0.5"/>
                </g>
                <g id="arrowRight" xlink:href="#dirArrow" transform="rotate(90) translate(36 -43)" onmousedown="handlePan(1,0)">
                  <use xlink:href="#rim" fill="#404040">
                        <set attributeName="fill" to="#808080" begin="arrowRight.mouseover" end="arrowRight.mouseout"/>
                  </use>
                  <path fill="none" stroke="white" stroke-width="1.5" d="M0,-3.0v7 M-2.5,-0.5L0,-3.0L2.5,-0.5"/>
                </g>
                <g id="arrowDown" xlink:href="#dirArrow" transform="rotate(180) translate(-30 -48)" onmousedown="handlePan(0,1)">
                  <use xlink:href="#rim" fill="#404040">
                        <set attributeName="fill" to="#808080" begin="arrowDown.mouseover" end="arrowDown.mouseout"/>
                  </use>
                  <path fill="none" stroke="white" stroke-width="1.5" d="M0,-3.0v7 M-2.5,-0.5L0,-3.0L2.5,-0.5"/>
                </g>
                <g id="arrowLeft" xlink:href="#dirArrow" transform="rotate(270) translate(-36 17)" onmousedown="handlePan(-1,0)">
                  <use xlink:href="#rim" fill="#404040">
                        <set attributeName="fill" to="#808080" begin="arrowLeft.mouseover" end="arrowLeft.mouseout"/>
                  </use>
                  <path fill="none" stroke="white" stroke-width="1.5" d="M0,-3.0v7 M-2.5,-0.5L0,-3.0L2.5,-0.5"/>
                </g>
        </g>
        <svg viewBox="0 0 15 15" width="100%" height="30px" preserveAspectRatio="xMaxYMin meet">
         <g id="arrow_out" transform="scale(0.3 0.3)">
          <a xlink:href="class_solver_a323c9c0407f26a2ed3ec3ff5ed02a760_cgraph_org.svg" target="_base">
           <rect id="button" ry="5" rx="5" y="6" x="6" height="38" width="38"
                fill="#f2f5e9" fill-opacity="0.5" stroke="#606060" stroke-width="1.0"/>
           <path id="arrow"
             d="M 11.500037,31.436501 C 11.940474,20.09759 22.043105,11.32322 32.158766,21.979434 L 37.068811,17.246167 C 37.068811,17.246167 37.088388,32 37.088388,32 L 22.160133,31.978069 C 22.160133,31.978069 26.997745,27.140456 26.997745,27.140456 C 18.528582,18.264221 13.291696,25.230495 11.500037,31.436501 z"
             style="fill:#404040;"/>
          </a>
         </g>
        </svg>
</svg>
