<?xml version="1.0" encoding="UTF-8" standalone="no"?>
<!DOCTYPE svg PUBLIC "-//W3C//DTD SVG 1.1//EN"
 "http://www.w3.org/Graphics/SVG/1.1/DTD/svg11.dtd">
<!-- Generated by graphviz version 2.38.0 (20140413.2041)
 -->
<!-- Title: Track::readFromCSV Pages: 1 -->
<svg width="426pt" height="66pt"
 viewBox="0.00 0.00 426.00 66.00" xmlns="http://www.w3.org/2000/svg" xmlns:xlink="http://www.w3.org/1999/xlink">
<g id="graph0" class="graph" transform="scale(1 1) rotate(0) translate(4 62)">
<title>Track::readFromCSV</title>
<!-- Node1 -->
<g id="node1" class="node"><title>Node1</title>
<polygon fill="#bfbfbf" stroke="black" points="0,-19.5 0,-38.5 110,-38.5 110,-19.5 0,-19.5"/>
<text text-anchor="middle" x="55" y="-26.5" font-family="Helvetica,sans-Serif" font-size="10.00">Track::readFromCSV</text>
</g>
<!-- Node2 -->
<g id="node2" class="node"><title>Node2</title>
<g id="a_node2"><a xlink:href="class_track.html#ab0315e74b9b49e40d163a2ff978d833c" target="_top" xlink:title="Creates a new point and inserts it in m_points. ">
<polygon fill="none" stroke="black" points="174,-38.5 174,-57.5 260,-57.5 260,-38.5 174,-38.5"/>
<text text-anchor="middle" x="217" y="-45.5" font-family="Helvetica,sans-Serif" font-size="10.00">Track::addPoint</text>
</a>
</g>
</g>
<!-- Node1&#45;&gt;Node2 -->
<g id="edge1" class="edge"><title>Node1&#45;&gt;Node2</title>
<path fill="none" stroke="midnightblue" d="M110.169,-35.4325C127.361,-37.4742 146.337,-39.7275 163.416,-41.7557"/>
<polygon fill="midnightblue" stroke="midnightblue" points="163.429,-45.2817 173.772,-42.9855 164.255,-38.3306 163.429,-45.2817"/>
</g>
<!-- Node4 -->
<g id="node4" class="node"><title>Node4</title>
<g id="a_node4"><a xlink:href="class_track.html#aac5002af6aa69a20101a5709dbbebc82" target="_top" xlink:title="Apply a threshold to bounding box once the data file has been read. ">
<polygon fill="none" stroke="black" points="146,-0.5 146,-19.5 288,-19.5 288,-0.5 146,-0.5"/>
<text text-anchor="middle" x="217" y="-7.5" font-family="Helvetica,sans-Serif" font-size="10.00">Track::applyThresholdToBox</text>
</a>
</g>
</g>
<!-- Node1&#45;&gt;Node4 -->
<g id="edge3" class="edge"><title>Node1&#45;&gt;Node4</title>
<path fill="none" stroke="midnightblue" d="M110.169,-22.5675C118.379,-21.5925 126.996,-20.5692 135.619,-19.5453"/>
<polygon fill="midnightblue" stroke="midnightblue" points="136.202,-23.0007 145.72,-18.3458 135.377,-16.0495 136.202,-23.0007"/>
</g>
<!-- Node3 -->
<g id="node3" class="node"><title>Node3</title>
<g id="a_node3"><a xlink:href="class_track.html#af947410651d847174d7b18d8e9df9ca7" target="_top" xlink:title="Update the enclosing box of the track. ">
<polygon fill="none" stroke="black" points="324,-38.5 324,-57.5 418,-57.5 418,-38.5 324,-38.5"/>
<text text-anchor="middle" x="371" y="-45.5" font-family="Helvetica,sans-Serif" font-size="10.00">Track::updateBox</text>
</a>
</g>
</g>
<!-- Node2&#45;&gt;Node3 -->
<g id="edge2" class="edge"><title>Node2&#45;&gt;Node3</title>
<path fill="none" stroke="midnightblue" d="M260.34,-48C276.862,-48 296.044,-48 313.702,-48"/>
<polygon fill="midnightblue" stroke="midnightblue" points="313.891,-51.5001 323.891,-48 313.89,-44.5001 313.891,-51.5001"/>
</g>
</g>
</svg>
