<?xml version="1.0" encoding="UTF-8" standalone="no"?>
<!DOCTYPE svg PUBLIC "-//W3C//DTD SVG 1.1//EN"
 "http://www.w3.org/Graphics/SVG/1.1/DTD/svg11.dtd">
<!-- Generated by graphviz version 2.38.0 (20140413.2041)
 -->
<!-- Title: Road::vectorOfPointsId Pages: 1 -->
<svg width="687pt" height="251pt"
 viewBox="0.00 0.00 687.00 250.50" xmlns="http://www.w3.org/2000/svg" xmlns:xlink="http://www.w3.org/1999/xlink">
<g id="graph0" class="graph" transform="scale(1 1) rotate(0) translate(4 246.5)">
<title>Road::vectorOfPointsId</title>
<!-- Node1 -->
<g id="node1" class="node"><title>Node1</title>
<polygon fill="#bfbfbf" stroke="black" points="0,-114.5 0,-133.5 119,-133.5 119,-114.5 0,-114.5"/>
<text text-anchor="middle" x="59.5" y="-121.5" font-family="Helvetica,sans-Serif" font-size="10.00">Road::vectorOfPointsId</text>
</g>
<!-- Node2 -->
<g id="node2" class="node"><title>Node2</title>
<g id="a_node2"><a xlink:href="class_grid.html#ac4e7d17f7ac28247f6cbd55d4ae0fee8" target="_top" xlink:title="Grid::getProjectedPointAnd\lDistance">
<polygon fill="none" stroke="black" points="350.5,-212 350.5,-242 485.5,-242 485.5,-212 350.5,-212"/>
<text text-anchor="start" x="358.5" y="-230" font-family="Helvetica,sans-Serif" font-size="10.00">Grid::getProjectedPointAnd</text>
<text text-anchor="middle" x="418" y="-219" font-family="Helvetica,sans-Serif" font-size="10.00">Distance</text>
</a>
</g>
</g>
<!-- Node1&#45;&gt;Node2 -->
<g id="edge1" class="edge"><title>Node1&#45;&gt;Node2</title>
<path fill="none" stroke="midnightblue" d="M75.6704,-141.301C92.8792,-159.624 122.767,-187.701 155,-201 217.748,-226.889 295.859,-231.491 350.395,-230.792"/>
<polygon fill="midnightblue" stroke="midnightblue" points="78.0197,-138.683 68.693,-133.657 72.8496,-143.402 78.0197,-138.683"/>
</g>
<!-- Node4 -->
<g id="node4" class="node"><title>Node4</title>
<g id="a_node4"><a xlink:href="class_grid.html#a22e72ffe8491d3d9df45d870979a8f21" target="_top" xlink:title="Grid::getDistanceBetween\lProjections">
<polygon fill="none" stroke="black" points="352.5,-153 352.5,-183 483.5,-183 483.5,-153 352.5,-153"/>
<text text-anchor="start" x="360.5" y="-171" font-family="Helvetica,sans-Serif" font-size="10.00">Grid::getDistanceBetween</text>
<text text-anchor="middle" x="418" y="-160" font-family="Helvetica,sans-Serif" font-size="10.00">Projections</text>
</a>
</g>
</g>
<!-- Node1&#45;&gt;Node4 -->
<g id="edge3" class="edge"><title>Node1&#45;&gt;Node4</title>
<path fill="none" stroke="midnightblue" d="M79.7711,-139.983C97.8968,-153.9 126.447,-173.055 155,-181 220.484,-199.22 298.666,-191.777 352.482,-182.401"/>
<polygon fill="midnightblue" stroke="midnightblue" points="81.7707,-137.102 71.7561,-133.644 77.4282,-142.593 81.7707,-137.102"/>
</g>
<!-- Node5 -->
<g id="node5" class="node"><title>Node5</title>
<g id="a_node5"><a xlink:href="class_grid.html#a8923d001226c9c9d4e19ac17a40ff44b" target="_top" xlink:title="Grid::getDistanceToExtremity">
<polygon fill="none" stroke="black" points="345,-114.5 345,-133.5 491,-133.5 491,-114.5 345,-114.5"/>
<text text-anchor="middle" x="418" y="-121.5" font-family="Helvetica,sans-Serif" font-size="10.00">Grid::getDistanceToExtremity</text>
</a>
</g>
</g>
<!-- Node1&#45;&gt;Node5 -->
<g id="edge5" class="edge"><title>Node1&#45;&gt;Node5</title>
<path fill="none" stroke="midnightblue" d="M129.432,-124C191.34,-124 281.908,-124 344.8,-124"/>
<polygon fill="midnightblue" stroke="midnightblue" points="129.369,-120.5 119.369,-124 129.369,-127.5 129.369,-120.5"/>
</g>
<!-- Node6 -->
<g id="node6" class="node"><title>Node6</title>
<g id="a_node6"><a xlink:href="class_grid.html#a459ceb14878d0bb3c40286c0eb3df2fd" target="_top" xlink:title="Grid::getSegmentCounter">
<polygon fill="none" stroke="black" points="168,-152.5 168,-171.5 296,-171.5 296,-152.5 168,-152.5"/>
<text text-anchor="middle" x="232" y="-159.5" font-family="Helvetica,sans-Serif" font-size="10.00">Grid::getSegmentCounter</text>
</a>
</g>
</g>
<!-- Node1&#45;&gt;Node6 -->
<g id="edge7" class="edge"><title>Node1&#45;&gt;Node6</title>
<path fill="none" stroke="midnightblue" d="M113.554,-135.824C137.591,-141.182 165.632,-147.431 188.285,-152.48"/>
<polygon fill="midnightblue" stroke="midnightblue" points="114.046,-132.348 103.524,-133.589 112.523,-139.181 114.046,-132.348"/>
</g>
<!-- Node7 -->
<g id="node7" class="node"><title>Node7</title>
<g id="a_node7"><a xlink:href="class_q_map_scene.html#a488091d99db8ab3daf8f4fe610e520b6" target="_top" xlink:title="QMapScene::onSignalAllRoads">
<polygon fill="none" stroke="black" points="155,-76.5 155,-95.5 309,-95.5 309,-76.5 155,-76.5"/>
<text text-anchor="middle" x="232" y="-83.5" font-family="Helvetica,sans-Serif" font-size="10.00">QMapScene::onSignalAllRoads</text>
</a>
</g>
</g>
<!-- Node1&#45;&gt;Node7 -->
<g id="edge9" class="edge"><title>Node1&#45;&gt;Node7</title>
<path fill="none" stroke="midnightblue" d="M113.554,-112.176C137.591,-106.818 165.632,-100.569 188.285,-95.5201"/>
<polygon fill="midnightblue" stroke="midnightblue" points="112.523,-108.819 103.524,-114.411 114.046,-115.652 112.523,-108.819"/>
</g>
<!-- Node8 -->
<g id="node8" class="node"><title>Node8</title>
<g id="a_node8"><a xlink:href="class_road.html#ac16bb31d9710b3626bc6e4ed15f5f9ac" target="_top" xlink:title="Road::getIntersectionIDWith">
<polygon fill="none" stroke="black" points="161.5,-38.5 161.5,-57.5 302.5,-57.5 302.5,-38.5 161.5,-38.5"/>
<text text-anchor="middle" x="232" y="-45.5" font-family="Helvetica,sans-Serif" font-size="10.00">Road::getIntersectionIDWith</text>
</a>
</g>
</g>
<!-- Node1&#45;&gt;Node8 -->
<g id="edge10" class="edge"><title>Node1&#45;&gt;Node8</title>
<path fill="none" stroke="midnightblue" d="M81.8935,-108.548C100.433,-95.7949 128.392,-78.0578 155,-67 164.043,-63.2421 174.01,-60.0951 183.668,-57.5126"/>
<polygon fill="midnightblue" stroke="midnightblue" points="79.7808,-105.754 73.596,-114.356 83.7954,-111.488 79.7808,-105.754"/>
</g>
<!-- Node10 -->
<g id="node10" class="node"><title>Node10</title>
<g id="a_node10"><a xlink:href="class_solver.html#ac93808d9f79208e9917830d0ff0a5dfd" target="_top" xlink:title="setDistance Calculate distance between GPS point et Road ">
<polygon fill="none" stroke="black" points="180.5,-0.5 180.5,-19.5 283.5,-19.5 283.5,-0.5 180.5,-0.5"/>
<text text-anchor="middle" x="232" y="-7.5" font-family="Helvetica,sans-Serif" font-size="10.00">Solver::setDistance</text>
</a>
</g>
</g>
<!-- Node1&#45;&gt;Node10 -->
<g id="edge13" class="edge"><title>Node1&#45;&gt;Node10</title>
<path fill="none" stroke="midnightblue" d="M73.5042,-105.89C89.9992,-84.2762 120.485,-48.6023 155,-29 162.805,-24.5671 171.638,-21.157 180.448,-18.537"/>
<polygon fill="midnightblue" stroke="midnightblue" points="70.4798,-104.092 67.3206,-114.205 76.0968,-108.269 70.4798,-104.092"/>
</g>
<!-- Node3 -->
<g id="node3" class="node"><title>Node3</title>
<g id="a_node3"><a xlink:href="class_grid.html#afc6f21c3514d66d3ce16765ccb97411e" target="_top" xlink:title="Grid::computeDistanceFraction">
<polygon fill="none" stroke="black" points="527,-136.5 527,-155.5 679,-155.5 679,-136.5 527,-136.5"/>
<text text-anchor="middle" x="603" y="-143.5" font-family="Helvetica,sans-Serif" font-size="10.00">Grid::computeDistanceFraction</text>
</a>
</g>
</g>
<!-- Node2&#45;&gt;Node3 -->
<g id="edge2" class="edge"><title>Node2&#45;&gt;Node3</title>
<path fill="none" stroke="midnightblue" d="M462.581,-207.71C499.765,-191.252 551.656,-168.283 580.5,-155.517"/>
<polygon fill="midnightblue" stroke="midnightblue" points="460.72,-204.706 452.992,-211.954 463.553,-211.107 460.72,-204.706"/>
</g>
<!-- Node4&#45;&gt;Node3 -->
<g id="edge4" class="edge"><title>Node4&#45;&gt;Node3</title>
<path fill="none" stroke="midnightblue" d="M493.493,-159.045C504.477,-157.724 515.801,-156.363 526.799,-155.041"/>
<polygon fill="midnightblue" stroke="midnightblue" points="493.03,-155.575 483.519,-160.244 493.865,-162.525 493.03,-155.575"/>
</g>
<!-- Node5&#45;&gt;Node3 -->
<g id="edge6" class="edge"><title>Node5&#45;&gt;Node3</title>
<path fill="none" stroke="midnightblue" d="M501.111,-133.871C509.729,-134.907 518.46,-135.957 526.992,-136.983"/>
<polygon fill="midnightblue" stroke="midnightblue" points="501.41,-130.382 491.064,-132.663 500.574,-137.332 501.41,-130.382"/>
</g>
<!-- Node6&#45;&gt;Node4 -->
<g id="edge8" class="edge"><title>Node6&#45;&gt;Node4</title>
<path fill="none" stroke="midnightblue" d="M306.461,-164.395C321.673,-164.892 337.589,-165.411 352.453,-165.895"/>
<polygon fill="midnightblue" stroke="midnightblue" points="306.174,-160.884 296.065,-164.056 305.946,-167.881 306.174,-160.884"/>
</g>
<!-- Node8&#45;&gt;Node3 -->
<g id="edge11" class="edge"><title>Node8&#45;&gt;Node3</title>
<path fill="none" stroke="midnightblue" d="M296.271,-59.4759C348.879,-69.6129 425.463,-85.7543 491,-105 521.946,-114.088 556.684,-127.449 578.923,-136.425"/>
<polygon fill="midnightblue" stroke="midnightblue" points="296.887,-56.0303 286.408,-57.5915 295.573,-62.906 296.887,-56.0303"/>
</g>
<!-- Node9 -->
<g id="node9" class="node"><title>Node9</title>
<g id="a_node9"><a xlink:href="class_road.html#ae27e2447c9236e0b432cbb8ebf0222f3" target="_top" xlink:title="Constructor. Instanciates a Road object with a specific ID. ">
<polygon fill="none" stroke="black" points="383.5,-38.5 383.5,-57.5 452.5,-57.5 452.5,-38.5 383.5,-38.5"/>
<text text-anchor="middle" x="418" y="-45.5" font-family="Helvetica,sans-Serif" font-size="10.00">Road::Road</text>
</a>
</g>
</g>
<!-- Node8&#45;&gt;Node9 -->
<g id="edge12" class="edge"><title>Node8&#45;&gt;Node9</title>
<path fill="none" stroke="midnightblue" d="M312.726,-48C337.529,-48 363.544,-48 383.385,-48"/>
<polygon fill="midnightblue" stroke="midnightblue" points="312.563,-44.5001 302.563,-48 312.562,-51.5001 312.563,-44.5001"/>
</g>
<!-- Node11 -->
<g id="node11" class="node"><title>Node11</title>
<g id="a_node11"><a xlink:href="class_solver.html#a2abdc34ec29d4301a7219375f6e5ec84" target="_top" xlink:title="Solver::onSignalNeighbours">
<polygon fill="none" stroke="black" points="349.5,-0.5 349.5,-19.5 486.5,-19.5 486.5,-0.5 349.5,-0.5"/>
<text text-anchor="middle" x="418" y="-7.5" font-family="Helvetica,sans-Serif" font-size="10.00">Solver::onSignalNeighbours</text>
</a>
</g>
</g>
<!-- Node10&#45;&gt;Node11 -->
<g id="edge14" class="edge"><title>Node10&#45;&gt;Node11</title>
<path fill="none" stroke="midnightblue" d="M293.96,-10C311.655,-10 331.085,-10 349.173,-10"/>
<polygon fill="midnightblue" stroke="midnightblue" points="293.766,-6.5001 283.766,-10 293.766,-13.5001 293.766,-6.5001"/>
</g>
</g>
</svg>
