<?xml version="1.0" encoding="UTF-8" standalone="no"?>
<!DOCTYPE svg PUBLIC "-//W3C//DTD SVG 1.1//EN"
 "http://www.w3.org/Graphics/SVG/1.1/DTD/svg11.dtd">
<!-- Generated by graphviz version 2.38.0 (20140413.2041)
 -->
<!-- Title: Point::infos Pages: 1 -->
<svg width="338pt" height="66pt"
 viewBox="0.00 0.00 338.00 66.00" xmlns="http://www.w3.org/2000/svg" xmlns:xlink="http://www.w3.org/1999/xlink">
<g id="graph0" class="graph" transform="scale(1 1) rotate(0) translate(4 62)">
<title>Point::infos</title>
<!-- Node1 -->
<g id="node1" class="node"><title>Node1</title>
<polygon fill="#bfbfbf" stroke="black" points="0,-19.5 0,-38.5 66,-38.5 66,-19.5 0,-19.5"/>
<text text-anchor="middle" x="33" y="-26.5" font-family="Helvetica,sans-Serif" font-size="10.00">Point::infos</text>
</g>
<!-- Node2 -->
<g id="node2" class="node"><title>Node2</title>
<g id="a_node2"><a xlink:href="class_point_g_p_s.html#a9a622f6883b721ee5f04f092a76ece64" target="_top" xlink:title="PointGPS::infos">
<polygon fill="none" stroke="black" points="103,-38.5 103,-57.5 190,-57.5 190,-38.5 103,-38.5"/>
<text text-anchor="middle" x="146.5" y="-45.5" font-family="Helvetica,sans-Serif" font-size="10.00">PointGPS::infos</text>
</a>
</g>
</g>
<!-- Node1&#45;&gt;Node2 -->
<g id="edge1" class="edge"><title>Node1&#45;&gt;Node2</title>
<path fill="none" stroke="midnightblue" d="M76.2382,-36.1975C84.9784,-37.6869 94.19,-39.2566 102.942,-40.7479"/>
<polygon fill="midnightblue" stroke="midnightblue" points="76.6963,-32.7252 66.2504,-34.4956 75.5204,-39.6258 76.6963,-32.7252"/>
</g>
<!-- Node4 -->
<g id="node4" class="node"><title>Node4</title>
<g id="a_node4"><a xlink:href="class_point_road.html#a10e2495cf2c6b435e23e8da80e7276e6" target="_top" xlink:title="PointRoad::infos">
<polygon fill="none" stroke="black" points="102,-0.5 102,-19.5 191,-19.5 191,-0.5 102,-0.5"/>
<text text-anchor="middle" x="146.5" y="-7.5" font-family="Helvetica,sans-Serif" font-size="10.00">PointRoad::infos</text>
</a>
</g>
</g>
<!-- Node1&#45;&gt;Node4 -->
<g id="edge3" class="edge"><title>Node1&#45;&gt;Node4</title>
<path fill="none" stroke="midnightblue" d="M76.1678,-21.8145C84.5191,-20.3914 93.3034,-18.8945 101.707,-17.4624"/>
<polygon fill="midnightblue" stroke="midnightblue" points="75.5204,-18.3742 66.2504,-23.5044 76.6963,-25.2748 75.5204,-18.3742"/>
</g>
<!-- Node3 -->
<g id="node3" class="node"><title>Node3</title>
<g id="a_node3"><a xlink:href="class_solver.html#a11051ddab551fdcee7dc71dcad1d0fd7" target="_top" xlink:title="Solver::setDistance">
<polygon fill="none" stroke="black" points="227,-38.5 227,-57.5 330,-57.5 330,-38.5 227,-38.5"/>
<text text-anchor="middle" x="278.5" y="-45.5" font-family="Helvetica,sans-Serif" font-size="10.00">Solver::setDistance</text>
</a>
</g>
</g>
<!-- Node2&#45;&gt;Node3 -->
<g id="edge2" class="edge"><title>Node2&#45;&gt;Node3</title>
<path fill="none" stroke="midnightblue" d="M200.161,-48C208.915,-48 217.979,-48 226.686,-48"/>
<polygon fill="midnightblue" stroke="midnightblue" points="200.067,-44.5001 190.067,-48 200.067,-51.5001 200.067,-44.5001"/>
</g>
</g>
</svg>
