<?xml version="1.0" encoding="UTF-8" standalone="no"?>
<!DOCTYPE svg PUBLIC "-//W3C//DTD SVG 1.1//EN"
 "http://www.w3.org/Graphics/SVG/1.1/DTD/svg11.dtd">
<!-- Generated by graphviz version 2.38.0 (20140413.2041)
 -->
<!-- Title: Solver::start Pages: 1 -->
<!--zoomable 256 -->
<svg id="main" version="1.1" xmlns="http://www.w3.org/2000/svg" xmlns:xlink="http://www.w3.org/1999/xlink" xml:space="preserve" onload="init(evt)">
<style type="text/css"><![CDATA[
.edge:hover path { stroke: red; }
.edge:hover polygon { stroke: red; fill: red; }
]]></style>
<script type="text/javascript"><![CDATA[
var edges = document.getElementsByTagName('g');
if (edges && edges.length) {
  for (var i=0;i<edges.length;i++) {
    if (edges[i].id.substr(0,4)=='edge') {
      edges[i].setAttribute('class','edge');
    }
  }
}
]]></script>
        <defs>
                <circle id="rim" cx="0" cy="0" r="7"/>
                <circle id="rim2" cx="0" cy="0" r="3.5"/>
                <g id="zoomPlus">
                        <use xlink:href="#rim" fill="#404040">
                                <set attributeName="fill" to="#808080" begin="zoomplus.mouseover" end="zoomplus.mouseout"/>
                        </use>
                        <path d="M-4,0h8M0,-4v8" fill="none" stroke="white" stroke-width="1.5" pointer-events="none"/>
                </g>
                <g id="zoomMin">
                        <use xlink:href="#rim" fill="#404040">
                                <set attributeName="fill" to="#808080" begin="zoomminus.mouseover" end="zoomminus.mouseout"/>
                        </use>
                        <path d="M-4,0h8" fill="none" stroke="white" stroke-width="1.5" pointer-events="none"/>
                </g>
                <g id="dirArrow">
                        <path fill="none" stroke="white" stroke-width="1.5" d="M0,-3.0v7 M-2.5,-0.5L0,-3.0L2.5,-0.5"/>
                </g>
               <g id="resetDef">
                       <use xlink:href="#rim2" fill="#404040">
                               <set attributeName="fill" to="#808080" begin="reset.mouseover" end="reset.mouseout"/>
                       </use>
               </g>
        </defs>

<script type="text/javascript">
var viewWidth = 681;
var viewHeight = 256;
var sectionId = 'dynsection-5';
</script>
<script xlink:href="svgpan.js"/>
<svg id="graph" class="graph">
<g id="viewport">
<title>Solver::start</title>
<!-- Node1 -->
<g id="node1" class="node"><title>Node1</title>
<polygon fill="#bfbfbf" stroke="black" points="0,-152.5 0,-171.5 70,-171.5 70,-152.5 0,-152.5"/>
<text text-anchor="middle" x="35" y="-159.5" font-family="Helvetica,sans-Serif" font-size="10.00">Solver::start</text>
</g>
<!-- Node2 -->
<g id="node2" class="node"><title>Node2</title>
<g id="a_node2"><a xlink:href="class_track.html#aff258a8c303ee8a09a962d237f3823e7" target="_top" xlink:title="Reads a csv file and inserts each point in m_points vector. ">
<polygon fill="none" stroke="black" points="111,-228.5 111,-247.5 221,-247.5 221,-228.5 111,-228.5"/>
<text text-anchor="middle" x="166" y="-235.5" font-family="Helvetica,sans-Serif" font-size="10.00">Track::readFromCSV</text>
</a>
</g>
</g>
<!-- Node1&#45;&gt;Node2 -->
<g id="edge1" class="edge"><title>Node1&#45;&gt;Node2</title>
<path fill="none" stroke="midnightblue" d="M45.5688,-171.793C58.3096,-184.331 82.0357,-205.987 106,-219 109.936,-221.138 114.153,-223.082 118.453,-224.84"/>
<polygon fill="midnightblue" stroke="midnightblue" points="117.336,-228.159 127.928,-228.394 119.794,-221.605 117.336,-228.159"/>
</g>
<!-- Node3 -->
<g id="node3" class="node"><title>Node3</title>
<g id="a_node3"><a xlink:href="class_track.html#abf3b02de2c94d38c6a79b7c932aa6c5b" target="_top" xlink:title="Return a string containing information about the content of this object. ">
<polygon fill="none" stroke="black" points="132,-190.5 132,-209.5 200,-209.5 200,-190.5 132,-190.5"/>
<text text-anchor="middle" x="166" y="-197.5" font-family="Helvetica,sans-Serif" font-size="10.00">Track::infos</text>
</a>
</g>
</g>
<!-- Node1&#45;&gt;Node3 -->
<g id="edge2" class="edge"><title>Node1&#45;&gt;Node3</title>
<path fill="none" stroke="midnightblue" d="M68.5521,-171.589C84.8993,-176.404 104.909,-182.299 122.457,-187.468"/>
<polygon fill="midnightblue" stroke="midnightblue" points="121.877,-190.946 132.458,-190.414 123.855,-184.231 121.877,-190.946"/>
</g>
<!-- Node4 -->
<g id="node4" class="node"><title>Node4</title>
<g id="a_node4"><a xlink:href="class_grid.html#ae848f1c59c544adc1af9133409ee0106" target="_top" xlink:title="Reads a csv file and inserts info into the corresponding attributs. ">
<polygon fill="none" stroke="black" points="114.5,-152.5 114.5,-171.5 217.5,-171.5 217.5,-152.5 114.5,-152.5"/>
<text text-anchor="middle" x="166" y="-159.5" font-family="Helvetica,sans-Serif" font-size="10.00">Grid::readFromCSV</text>
</a>
</g>
</g>
<!-- Node1&#45;&gt;Node4 -->
<g id="edge3" class="edge"><title>Node1&#45;&gt;Node4</title>
<path fill="none" stroke="midnightblue" d="M70.231,-162C80.6226,-162 92.3698,-162 103.967,-162"/>
<polygon fill="midnightblue" stroke="midnightblue" points="104.082,-165.5 114.082,-162 104.082,-158.5 104.082,-165.5"/>
</g>
<!-- Node15 -->
<g id="node15" class="node"><title>Node15</title>
<g id="a_node15"><a xlink:href="class_grid.html#a37103de283959ce994c5c76113b7b033" target="_top" xlink:title="Grid::infos">
<polygon fill="none" stroke="black" points="135,-114.5 135,-133.5 197,-133.5 197,-114.5 135,-114.5"/>
<text text-anchor="middle" x="166" y="-121.5" font-family="Helvetica,sans-Serif" font-size="10.00">Grid::infos</text>
</a>
</g>
</g>
<!-- Node1&#45;&gt;Node15 -->
<g id="edge15" class="edge"><title>Node1&#45;&gt;Node15</title>
<path fill="none" stroke="midnightblue" d="M68.5521,-152.411C85.6818,-147.365 106.833,-141.134 124.96,-135.795"/>
<polygon fill="midnightblue" stroke="midnightblue" points="126.07,-139.116 134.674,-132.933 124.092,-132.402 126.07,-139.116"/>
</g>
<!-- Node16 -->
<g id="node16" class="node"><title>Node16</title>
<g id="a_node16"><a xlink:href="class_grid.html#aea292f48c96b2e9d1abee08040cd3833" target="_top" xlink:title="buildMarkovMatrix ">
<polygon fill="none" stroke="black" points="106,-76.5 106,-95.5 226,-95.5 226,-76.5 106,-76.5"/>
<text text-anchor="middle" x="166" y="-83.5" font-family="Helvetica,sans-Serif" font-size="10.00">Grid::buildMarkovMatrix</text>
</a>
</g>
</g>
<!-- Node1&#45;&gt;Node16 -->
<g id="edge16" class="edge"><title>Node1&#45;&gt;Node16</title>
<path fill="none" stroke="midnightblue" d="M45.5688,-152.207C58.3096,-139.669 82.0357,-118.013 106,-105 109.936,-102.862 114.153,-100.918 118.453,-99.1596"/>
<polygon fill="midnightblue" stroke="midnightblue" points="119.794,-102.395 127.928,-95.6064 117.336,-95.8407 119.794,-102.395"/>
</g>
<!-- Node5 -->
<g id="node5" class="node"><title>Node5</title>
<g id="a_node5"><a xlink:href="class_grid.html#a6b6af4fb2545b398b47794de576f15f5" target="_top" xlink:title="Test if a point is in the defined area of a track. ">
<polygon fill="none" stroke="black" points="268.5,-190.5 268.5,-209.5 356.5,-209.5 356.5,-190.5 268.5,-190.5"/>
<text text-anchor="middle" x="312.5" y="-197.5" font-family="Helvetica,sans-Serif" font-size="10.00">Grid::inFootPrint</text>
</a>
</g>
</g>
<!-- Node4&#45;&gt;Node5 -->
<g id="edge4" class="edge"><title>Node4&#45;&gt;Node5</title>
<path fill="none" stroke="midnightblue" d="M203.463,-171.589C222.274,-176.536 245.415,-182.621 265.447,-187.889"/>
<polygon fill="midnightblue" stroke="midnightblue" points="264.737,-191.322 275.299,-190.48 266.518,-184.552 264.737,-191.322"/>
</g>
<!-- Node6 -->
<g id="node6" class="node"><title>Node6</title>
<g id="a_node6"><a xlink:href="class_grid.html#a58233ab60f7477144af334f205606aa4" target="_top" xlink:title="Find max and min of the grid. ">
<polygon fill="none" stroke="black" points="268.5,-152.5 268.5,-171.5 356.5,-171.5 356.5,-152.5 268.5,-152.5"/>
<text text-anchor="middle" x="312.5" y="-159.5" font-family="Helvetica,sans-Serif" font-size="10.00">Grid::updateGrid</text>
</a>
</g>
</g>
<!-- Node4&#45;&gt;Node6 -->
<g id="edge5" class="edge"><title>Node4&#45;&gt;Node6</title>
<path fill="none" stroke="midnightblue" d="M217.539,-162C230.64,-162 244.79,-162 258.035,-162"/>
<polygon fill="midnightblue" stroke="midnightblue" points="258.427,-165.5 268.427,-162 258.426,-158.5 258.427,-165.5"/>
</g>
<!-- Node7 -->
<g id="node7" class="node"><title>Node7</title>
<g id="a_node7"><a xlink:href="class_grid.html#aba1830bc145f128d6deeed29cfb94c9f" target="_top" xlink:title="Creates a new road and inserts it in m_road. ">
<polygon fill="none" stroke="black" points="272.5,-114.5 272.5,-133.5 352.5,-133.5 352.5,-114.5 272.5,-114.5"/>
<text text-anchor="middle" x="312.5" y="-121.5" font-family="Helvetica,sans-Serif" font-size="10.00">Grid::addRoad</text>
</a>
</g>
</g>
<!-- Node4&#45;&gt;Node7 -->
<g id="edge6" class="edge"><title>Node4&#45;&gt;Node7</title>
<path fill="none" stroke="midnightblue" d="M203.463,-152.411C222.274,-147.464 245.415,-141.379 265.447,-136.111"/>
<polygon fill="midnightblue" stroke="midnightblue" points="266.518,-139.448 275.299,-133.52 264.737,-132.678 266.518,-139.448"/>
</g>
<!-- Node8 -->
<g id="node8" class="node"><title>Node8</title>
<g id="a_node8"><a xlink:href="class_point_road.html#aa1b90c3fdf8ae7a1fcd8ce6182d13287" target="_top" xlink:title="PointRoad::outputInfos">
<polygon fill="none" stroke="black" points="421.5,-228.5 421.5,-247.5 538.5,-247.5 538.5,-228.5 421.5,-228.5"/>
<text text-anchor="middle" x="480" y="-235.5" font-family="Helvetica,sans-Serif" font-size="10.00">PointRoad::outputInfos</text>
</a>
</g>
</g>
<!-- Node7&#45;&gt;Node8 -->
<g id="edge7" class="edge"><title>Node7&#45;&gt;Node8</title>
<path fill="none" stroke="midnightblue" d="M348.485,-133.513C353.753,-136.006 358.814,-139.12 363,-143 390.412,-168.407 369.957,-195.475 399,-219 402.988,-222.23 407.434,-224.928 412.131,-227.179"/>
<polygon fill="midnightblue" stroke="midnightblue" points="410.836,-230.431 421.416,-230.98 413.487,-223.953 410.836,-230.431"/>
</g>
<!-- Node9 -->
<g id="node9" class="node"><title>Node9</title>
<g id="a_node9"><a xlink:href="class_point_road.html#ab53ccb3c883bdfd27c707901c5c658c8" target="_top" xlink:title="PointRoad::updateBelongToRoad">
<polygon fill="none" stroke="black" points="399,-190.5 399,-209.5 561,-209.5 561,-190.5 399,-190.5"/>
<text text-anchor="middle" x="480" y="-197.5" font-family="Helvetica,sans-Serif" font-size="10.00">PointRoad::updateBelongToRoad</text>
</a>
</g>
</g>
<!-- Node7&#45;&gt;Node9 -->
<g id="edge8" class="edge"><title>Node7&#45;&gt;Node9</title>
<path fill="none" stroke="midnightblue" d="M344.657,-133.52C350.989,-136.114 357.414,-139.264 363,-143 382.338,-155.933 378.843,-169.384 399,-181 402.861,-183.225 406.97,-185.19 411.21,-186.925"/>
<polygon fill="midnightblue" stroke="midnightblue" points="410.058,-190.231 420.652,-190.369 412.457,-183.655 410.058,-190.231"/>
</g>
<!-- Node10 -->
<g id="node10" class="node"><title>Node10</title>
<g id="a_node10"><a xlink:href="class_point_road.html#a998665db2d7e4fc4935ef95df092ff2b" target="_top" xlink:title="PointRoad::setid">
<polygon fill="none" stroke="black" points="435.5,-152.5 435.5,-171.5 524.5,-171.5 524.5,-152.5 435.5,-152.5"/>
<text text-anchor="middle" x="480" y="-159.5" font-family="Helvetica,sans-Serif" font-size="10.00">PointRoad::setid</text>
</a>
</g>
</g>
<!-- Node7&#45;&gt;Node10 -->
<g id="edge9" class="edge"><title>Node7&#45;&gt;Node10</title>
<path fill="none" stroke="midnightblue" d="M352.721,-133.005C375.053,-138.133 403.297,-144.618 427.408,-150.154"/>
<polygon fill="midnightblue" stroke="midnightblue" points="426.93,-153.635 437.459,-152.462 428.496,-146.813 426.93,-153.635"/>
</g>
<!-- Node11 -->
<g id="node11" class="node"><title>Node11</title>
<g id="a_node11"><a xlink:href="class_point_road.html#a81372f2c2c0fe1084fa2397289518124" target="_top" xlink:title="PointRoad::id">
<polygon fill="none" stroke="black" points="597,-133.5 597,-152.5 673,-152.5 673,-133.5 597,-133.5"/>
<text text-anchor="middle" x="635" y="-140.5" font-family="Helvetica,sans-Serif" font-size="10.00">PointRoad::id</text>
</a>
</g>
</g>
<!-- Node7&#45;&gt;Node11 -->
<g id="edge12" class="edge"><title>Node7&#45;&gt;Node11</title>
<path fill="none" stroke="midnightblue" d="M352.8,-126.33C411.86,-129.831 523.323,-136.439 586.736,-140.198"/>
<polygon fill="midnightblue" stroke="midnightblue" points="586.673,-143.7 596.863,-140.798 587.087,-136.713 586.673,-143.7"/>
</g>
<!-- Node12 -->
<g id="node12" class="node"><title>Node12</title>
<g id="a_node12"><a xlink:href="class_point_road.html#ae83941b37b026758fdd7974b4b186fbc" target="_top" xlink:title="PointRoad::isNode">
<polygon fill="none" stroke="black" points="430.5,-76.5 430.5,-95.5 529.5,-95.5 529.5,-76.5 430.5,-76.5"/>
<text text-anchor="middle" x="480" y="-83.5" font-family="Helvetica,sans-Serif" font-size="10.00">PointRoad::isNode</text>
</a>
</g>
</g>
<!-- Node7&#45;&gt;Node12 -->
<g id="edge11" class="edge"><title>Node7&#45;&gt;Node12</title>
<path fill="none" stroke="midnightblue" d="M352.721,-114.995C375.053,-109.867 403.297,-103.382 427.408,-97.8458"/>
<polygon fill="midnightblue" stroke="midnightblue" points="428.496,-101.187 437.459,-95.538 426.93,-94.3647 428.496,-101.187"/>
</g>
<!-- Node13 -->
<g id="node13" class="node"><title>Node13</title>
<g id="a_node13"><a xlink:href="class_road.html#a7f97b4f20c598103baad510b19a0c0b5" target="_top" xlink:title="Add a point to the road. ">
<polygon fill="none" stroke="black" points="438,-38.5 438,-57.5 522,-57.5 522,-38.5 438,-38.5"/>
<text text-anchor="middle" x="480" y="-45.5" font-family="Helvetica,sans-Serif" font-size="10.00">Road::addPoint</text>
</a>
</g>
</g>
<!-- Node7&#45;&gt;Node13 -->
<g id="edge13" class="edge"><title>Node7&#45;&gt;Node13</title>
<path fill="none" stroke="midnightblue" d="M344.657,-114.48C350.989,-111.886 357.414,-108.736 363,-105 382.338,-92.0671 378.843,-78.6161 399,-67 407.812,-61.9215 417.917,-58.1981 427.911,-55.4689"/>
<polygon fill="midnightblue" stroke="midnightblue" points="428.928,-58.8236 437.816,-53.0578 427.272,-52.0222 428.928,-58.8236"/>
</g>
<!-- Node14 -->
<g id="node14" class="node"><title>Node14</title>
<g id="a_node14"><a xlink:href="class_road.html#ad6715392969e36eb10efac542519755c" target="_top" xlink:title="Get the id of the road. ">
<polygon fill="none" stroke="black" points="442.5,-0.5 442.5,-19.5 517.5,-19.5 517.5,-0.5 442.5,-0.5"/>
<text text-anchor="middle" x="480" y="-7.5" font-family="Helvetica,sans-Serif" font-size="10.00">Road::edgeId</text>
</a>
</g>
</g>
<!-- Node7&#45;&gt;Node14 -->
<g id="edge14" class="edge"><title>Node7&#45;&gt;Node14</title>
<path fill="none" stroke="midnightblue" d="M348.485,-114.487C353.753,-111.994 358.814,-108.88 363,-105 390.412,-79.5929 369.957,-52.5248 399,-29 408.446,-21.3487 420.46,-16.6853 432.288,-13.8686"/>
<polygon fill="midnightblue" stroke="midnightblue" points="432.995,-17.2967 442.12,-11.9119 431.629,-10.4313 432.995,-17.2967"/>
</g>
<!-- Node10&#45;&gt;Node11 -->
<g id="edge10" class="edge"><title>Node10&#45;&gt;Node11</title>
<path fill="none" stroke="midnightblue" d="M524.844,-156.555C544.244,-154.146 567.094,-151.309 586.861,-148.854"/>
<polygon fill="midnightblue" stroke="midnightblue" points="587.39,-152.315 596.882,-147.609 586.527,-145.369 587.39,-152.315"/>
</g>
<!-- Node17 -->
<g id="node17" class="node"><title>Node17</title>
<g id="a_node17"><a xlink:href="class_grid.html#a54c76e927f8428bca87520d8ca310bec" target="_top" xlink:title="Grid::getRoadEntry">
<polygon fill="none" stroke="black" points="262,-76.5 262,-95.5 363,-95.5 363,-76.5 262,-76.5"/>
<text text-anchor="middle" x="312.5" y="-83.5" font-family="Helvetica,sans-Serif" font-size="10.00">Grid::getRoadEntry</text>
</a>
</g>
</g>
<!-- Node16&#45;&gt;Node17 -->
<g id="edge17" class="edge"><title>Node16&#45;&gt;Node17</title>
<path fill="none" stroke="midnightblue" d="M226.191,-86C234.613,-86 243.28,-86 251.714,-86"/>
<polygon fill="midnightblue" stroke="midnightblue" points="251.853,-89.5001 261.853,-86 251.853,-82.5001 251.853,-89.5001"/>
</g>
</g>
</svg>
        <g id="navigator" transform="translate(0 0)" fill="#404254">
                <rect fill="#f2f5e9" fill-opacity="0.5" stroke="#606060" stroke-width=".5" x="0" y="0" width="60" height="60"/>
                <use id="zoomplus" xlink:href="#zoomPlus" x="17" y="9" onmousedown="handleZoom(evt,'in')"/>
                <use id="zoomminus" xlink:href="#zoomMin" x="42" y="9" onmousedown="handleZoom(evt,'out')"/>
                <use id="reset" xlink:href="#resetDef" x="30" y="36" onmousedown="handleReset()"/>
                <g id="arrowUp" xlink:href="#dirArrow" transform="translate(30 24)" onmousedown="handlePan(0,-1)">
                  <use xlink:href="#rim" fill="#404040">
                        <set attributeName="fill" to="#808080" begin="arrowUp.mouseover" end="arrowUp.mouseout"/>
                  </use>
                  <path fill="none" stroke="white" stroke-width="1.5" d="M0,-3.0v7 M-2.5,-0.5L0,-3.0L2.5,-0.5"/>
                </g>
                <g id="arrowRight" xlink:href="#dirArrow" transform="rotate(90) translate(36 -43)" onmousedown="handlePan(1,0)">
                  <use xlink:href="#rim" fill="#404040">
                        <set attributeName="fill" to="#808080" begin="arrowRight.mouseover" end="arrowRight.mouseout"/>
                  </use>
                  <path fill="none" stroke="white" stroke-width="1.5" d="M0,-3.0v7 M-2.5,-0.5L0,-3.0L2.5,-0.5"/>
                </g>
                <g id="arrowDown" xlink:href="#dirArrow" transform="rotate(180) translate(-30 -48)" onmousedown="handlePan(0,1)">
                  <use xlink:href="#rim" fill="#404040">
                        <set attributeName="fill" to="#808080" begin="arrowDown.mouseover" end="arrowDown.mouseout"/>
                  </use>
                  <path fill="none" stroke="white" stroke-width="1.5" d="M0,-3.0v7 M-2.5,-0.5L0,-3.0L2.5,-0.5"/>
                </g>
                <g id="arrowLeft" xlink:href="#dirArrow" transform="rotate(270) translate(-36 17)" onmousedown="handlePan(-1,0)">
                  <use xlink:href="#rim" fill="#404040">
                        <set attributeName="fill" to="#808080" begin="arrowLeft.mouseover" end="arrowLeft.mouseout"/>
                  </use>
                  <path fill="none" stroke="white" stroke-width="1.5" d="M0,-3.0v7 M-2.5,-0.5L0,-3.0L2.5,-0.5"/>
                </g>
        </g>
        <svg viewBox="0 0 15 15" width="100%" height="30px" preserveAspectRatio="xMaxYMin meet">
         <g id="arrow_out" transform="scale(0.3 0.3)">
          <a xlink:href="class_solver_a97bc7169c18b339fecd4937150f907c3_cgraph_org.svg" target="_base">
           <rect id="button" ry="5" rx="5" y="6" x="6" height="38" width="38"
                fill="#f2f5e9" fill-opacity="0.5" stroke="#606060" stroke-width="1.0"/>
           <path id="arrow"
             d="M 11.500037,31.436501 C 11.940474,20.09759 22.043105,11.32322 32.158766,21.979434 L 37.068811,17.246167 C 37.068811,17.246167 37.088388,32 37.088388,32 L 22.160133,31.978069 C 22.160133,31.978069 26.997745,27.140456 26.997745,27.140456 C 18.528582,18.264221 13.291696,25.230495 11.500037,31.436501 z"
             style="fill:#404040;"/>
          </a>
         </g>
        </svg>
</svg>
