<?xml version="1.0" encoding="UTF-8" standalone="no"?>
<!DOCTYPE svg PUBLIC "-//W3C//DTD SVG 1.1//EN"
 "http://www.w3.org/Graphics/SVG/1.1/DTD/svg11.dtd">
<!-- Generated by graphviz version 2.38.0 (20140413.2041)
 -->
<!-- Title: MainWindow::readyToNext2 Pages: 1 -->
<svg width="597pt" height="104pt"
 viewBox="0.00 0.00 597.00 104.00" xmlns="http://www.w3.org/2000/svg" xmlns:xlink="http://www.w3.org/1999/xlink">
<g id="graph0" class="graph" transform="scale(1 1) rotate(0) translate(4 100)">
<title>MainWindow::readyToNext2</title>
<!-- Node1 -->
<g id="node1" class="node"><title>Node1</title>
<polygon fill="#bfbfbf" stroke="black" points="0,-38.5 0,-57.5 140,-57.5 140,-38.5 0,-38.5"/>
<text text-anchor="middle" x="70" y="-45.5" font-family="Helvetica,sans-Serif" font-size="10.00">MainWindow::readyToNext2</text>
</g>
<!-- Node2 -->
<g id="node2" class="node"><title>Node2</title>
<g id="a_node2"><a xlink:href="class_solver.html#af677644390b609a5f496fa2362099959" target="_top" xlink:title="filterSpace Use Spatial filter with a value ">
<polygon fill="none" stroke="black" points="176,-57.5 176,-76.5 273,-76.5 273,-57.5 176,-57.5"/>
<text text-anchor="middle" x="224.5" y="-64.5" font-family="Helvetica,sans-Serif" font-size="10.00">Solver::filterSpace</text>
</a>
</g>
</g>
<!-- Node1&#45;&gt;Node2 -->
<g id="edge1" class="edge"><title>Node1&#45;&gt;Node2</title>
<path fill="none" stroke="midnightblue" d="M140.111,-56.6105C148.627,-57.6716 157.263,-58.7475 165.589,-59.7848"/>
<polygon fill="midnightblue" stroke="midnightblue" points="165.206,-63.2641 175.562,-61.0274 166.071,-56.3178 165.206,-63.2641"/>
</g>
<!-- Node6 -->
<g id="node6" class="node"><title>Node6</title>
<g id="a_node6"><a xlink:href="class_solver.html#a95af3471a75ea1b9dc7051959c70b6e7" target="_top" xlink:title="filterTemp Use Temporal filter with a value ">
<polygon fill="none" stroke="black" points="177.5,-19.5 177.5,-38.5 271.5,-38.5 271.5,-19.5 177.5,-19.5"/>
<text text-anchor="middle" x="224.5" y="-26.5" font-family="Helvetica,sans-Serif" font-size="10.00">Solver::filterTemp</text>
</a>
</g>
</g>
<!-- Node1&#45;&gt;Node6 -->
<g id="edge5" class="edge"><title>Node1&#45;&gt;Node6</title>
<path fill="none" stroke="midnightblue" d="M140.111,-39.3895C149.174,-38.2603 158.372,-37.1143 167.188,-36.0159"/>
<polygon fill="midnightblue" stroke="midnightblue" points="167.841,-39.4618 177.331,-34.7522 166.975,-32.5155 167.841,-39.4618"/>
</g>
<!-- Node3 -->
<g id="node3" class="node"><title>Node3</title>
<g id="a_node3"><a xlink:href="class_track.html#a9f1da7896167f44da967acf9fd05d92a" target="_top" xlink:title="This is a space filter, which deletes points depending on a distance interval. ">
<polygon fill="none" stroke="black" points="327,-76.5 327,-95.5 422,-95.5 422,-76.5 327,-76.5"/>
<text text-anchor="middle" x="374.5" y="-83.5" font-family="Helvetica,sans-Serif" font-size="10.00">Track::spaceFilter</text>
</a>
</g>
</g>
<!-- Node2&#45;&gt;Node3 -->
<g id="edge2" class="edge"><title>Node2&#45;&gt;Node3</title>
<path fill="none" stroke="midnightblue" d="M273.143,-73.1163C287.014,-74.8971 302.307,-76.8604 316.684,-78.7061"/>
<polygon fill="midnightblue" stroke="midnightblue" points="316.593,-82.223 326.957,-80.0249 317.485,-75.28 316.593,-82.223"/>
</g>
<!-- Node5 -->
<g id="node5" class="node"><title>Node5</title>
<g id="a_node5"><a xlink:href="class_track.html#ad262a30c2abcd29cf4cdc04facd290ee" target="_top" xlink:title="Track::getPointsAsPointer">
<polygon fill="none" stroke="black" points="309,-38.5 309,-57.5 440,-57.5 440,-38.5 309,-38.5"/>
<text text-anchor="middle" x="374.5" y="-45.5" font-family="Helvetica,sans-Serif" font-size="10.00">Track::getPointsAsPointer</text>
</a>
</g>
</g>
<!-- Node2&#45;&gt;Node5 -->
<g id="edge4" class="edge"><title>Node2&#45;&gt;Node5</title>
<path fill="none" stroke="midnightblue" d="M273.143,-60.8837C281.342,-59.8311 290.038,-58.7147 298.748,-57.5965"/>
<polygon fill="midnightblue" stroke="midnightblue" points="299.477,-61.0318 308.95,-56.2868 298.586,-54.0887 299.477,-61.0318"/>
</g>
<!-- Node4 -->
<g id="node4" class="node"><title>Node4</title>
<g id="a_node4"><a xlink:href="class_track.html#a0477b30aca07ba3f43b25d4c6ea782e0" target="_top" xlink:title="Deletes a occurence. ">
<polygon fill="none" stroke="black" points="480.5,-76.5 480.5,-95.5 584.5,-95.5 584.5,-76.5 480.5,-76.5"/>
<text text-anchor="middle" x="532.5" y="-83.5" font-family="Helvetica,sans-Serif" font-size="10.00">Track::delPointGPS</text>
</a>
</g>
</g>
<!-- Node3&#45;&gt;Node4 -->
<g id="edge3" class="edge"><title>Node3&#45;&gt;Node4</title>
<path fill="none" stroke="midnightblue" d="M422.305,-86C437.324,-86 454.19,-86 470.091,-86"/>
<polygon fill="midnightblue" stroke="midnightblue" points="470.373,-89.5001 480.373,-86 470.372,-82.5001 470.373,-89.5001"/>
</g>
<!-- Node6&#45;&gt;Node5 -->
<g id="edge8" class="edge"><title>Node6&#45;&gt;Node5</title>
<path fill="none" stroke="midnightblue" d="M271.517,-34.9076C280.179,-36.0196 289.44,-37.2086 298.718,-38.3997"/>
<polygon fill="midnightblue" stroke="midnightblue" points="298.401,-41.8875 308.765,-39.6894 299.292,-34.9445 298.401,-41.8875"/>
</g>
<!-- Node7 -->
<g id="node7" class="node"><title>Node7</title>
<g id="a_node7"><a xlink:href="class_track.html#a58fcdaf47f2c87bb7095933616f5a4bc" target="_top" xlink:title="This is a temporal filter, which deletes points depending on a time value. ">
<polygon fill="none" stroke="black" points="321,-0.5 321,-19.5 428,-19.5 428,-0.5 321,-0.5"/>
<text text-anchor="middle" x="374.5" y="-7.5" font-family="Helvetica,sans-Serif" font-size="10.00">Track::temporalFilter</text>
</a>
</g>
</g>
<!-- Node6&#45;&gt;Node7 -->
<g id="edge6" class="edge"><title>Node6&#45;&gt;Node7</title>
<path fill="none" stroke="midnightblue" d="M271.517,-23.0924C283.959,-21.4952 297.638,-19.739 310.826,-18.046"/>
<polygon fill="midnightblue" stroke="midnightblue" points="311.314,-21.5122 320.787,-16.7672 310.422,-14.5692 311.314,-21.5122"/>
</g>
<!-- Node8 -->
<g id="node8" class="node"><title>Node8</title>
<g id="a_node8"><a xlink:href="class_point_g_p_s.html#aa8a0cbf3cfbc3f4ac9d16737c00fcb88" target="_top" xlink:title="PointGPS::timeStamp">
<polygon fill="none" stroke="black" points="476,-0.5 476,-19.5 589,-19.5 589,-0.5 476,-0.5"/>
<text text-anchor="middle" x="532.5" y="-7.5" font-family="Helvetica,sans-Serif" font-size="10.00">PointGPS::timeStamp</text>
</a>
</g>
</g>
<!-- Node7&#45;&gt;Node8 -->
<g id="edge7" class="edge"><title>Node7&#45;&gt;Node8</title>
<path fill="none" stroke="midnightblue" d="M428.314,-10C440.261,-10 453.091,-10 465.505,-10"/>
<polygon fill="midnightblue" stroke="midnightblue" points="465.807,-13.5001 475.807,-10 465.807,-6.5001 465.807,-13.5001"/>
</g>
</g>
</svg>
