<?xml version="1.0" encoding="UTF-8" standalone="no"?>
<!DOCTYPE svg PUBLIC "-//W3C//DTD SVG 1.1//EN"
 "http://www.w3.org/Graphics/SVG/1.1/DTD/svg11.dtd">
<!-- Generated by graphviz version 2.38.0 (20140413.2041)
 -->
<!-- Title: QDebugStream Pages: 1 -->
<svg width="330pt" height="522pt"
 viewBox="0.00 0.00 330.00 522.00" xmlns="http://www.w3.org/2000/svg" xmlns:xlink="http://www.w3.org/1999/xlink">
<g id="graph0" class="graph" transform="scale(1 1) rotate(0) translate(4 518)">
<title>QDebugStream</title>
<!-- Node1 -->
<g id="node1" class="node"><title>Node1</title>
<polygon fill="#bfbfbf" stroke="black" points="103.5,-0.5 103.5,-101.5 208.5,-101.5 208.5,-0.5 103.5,-0.5"/>
<text text-anchor="middle" x="156" y="-89.5" font-family="Helvetica,sans-Serif" font-size="10.00">QDebugStream</text>
<polyline fill="none" stroke="black" points="103.5,-82.5 208.5,-82.5 "/>
<text text-anchor="start" x="111.5" y="-70.5" font-family="Helvetica,sans-Serif" font-size="10.00">&#45; log_window</text>
<text text-anchor="start" x="111.5" y="-59.5" font-family="Helvetica,sans-Serif" font-size="10.00">&#45; m_old_buf</text>
<polyline fill="none" stroke="black" points="103.5,-52.5 208.5,-52.5 "/>
<text text-anchor="start" x="111.5" y="-40.5" font-family="Helvetica,sans-Serif" font-size="10.00">+ QDebugStream()</text>
<text text-anchor="start" x="111.5" y="-29.5" font-family="Helvetica,sans-Serif" font-size="10.00">+ ~QDebugStream()</text>
<text text-anchor="start" x="111.5" y="-18.5" font-family="Helvetica,sans-Serif" font-size="10.00"># overflow()</text>
<text text-anchor="start" x="111.5" y="-7.5" font-family="Helvetica,sans-Serif" font-size="10.00"># xsputn()</text>
</g>
<!-- Node2 -->
<g id="node2" class="node"><title>Node2</title>
<polygon fill="none" stroke="#bfbfbf" points="0,-149.5 0,-217.5 108,-217.5 108,-149.5 0,-149.5"/>
<text text-anchor="start" x="8" y="-205.5" font-family="Helvetica,sans-Serif" font-size="10.00">std::basic_streambuf</text>
<text text-anchor="middle" x="54" y="-194.5" font-family="Helvetica,sans-Serif" font-size="10.00">&lt; char &gt;</text>
<polyline fill="none" stroke="#bfbfbf" points="0,-187.5 108,-187.5 "/>
<text text-anchor="middle" x="54" y="-175.5" font-family="Helvetica,sans-Serif" font-size="10.00"> </text>
<polyline fill="none" stroke="#bfbfbf" points="0,-168.5 108,-168.5 "/>
<text text-anchor="middle" x="54" y="-156.5" font-family="Helvetica,sans-Serif" font-size="10.00"> </text>
</g>
<!-- Node2&#45;&gt;Node1 -->
<g id="edge1" class="edge"><title>Node2&#45;&gt;Node1</title>
<path fill="none" stroke="midnightblue" d="M86.2375,-141.255C95.9854,-128.783 106.796,-114.952 116.939,-101.975"/>
<polygon fill="none" stroke="midnightblue" points="83.4034,-139.197 80.0028,-149.232 88.9187,-143.508 83.4034,-139.197"/>
</g>
<!-- Node3 -->
<g id="node3" class="node"><title>Node3</title>
<g id="a_node3"><a xlink:title="STL class. ">
<polygon fill="none" stroke="#bfbfbf" points="126,-155 126,-212 186,-212 186,-155 126,-155"/>
<text text-anchor="middle" x="156" y="-200" font-family="Helvetica,sans-Serif" font-size="10.00">std::string</text>
<polyline fill="none" stroke="#bfbfbf" points="126,-193 186,-193 "/>
<text text-anchor="middle" x="156" y="-181" font-family="Helvetica,sans-Serif" font-size="10.00"> </text>
<polyline fill="none" stroke="#bfbfbf" points="126,-174 186,-174 "/>
<text text-anchor="middle" x="156" y="-162" font-family="Helvetica,sans-Serif" font-size="10.00"> </text>
</a>
</g>
</g>
<!-- Node3&#45;&gt;Node1 -->
<g id="edge2" class="edge"><title>Node3&#45;&gt;Node1</title>
<path fill="none" stroke="#404040" d="M156,-154.824C156,-142.725 156,-128.01 156,-113.54"/>
<polygon fill="none" stroke="#404040" points="156,-113.505 152,-107.505 156,-101.505 160,-107.505 156,-113.505"/>
<text text-anchor="middle" x="178" y="-123" font-family="Helvetica,sans-Serif" font-size="10.00"> &#45;m_string</text>
</g>
<!-- Node4 -->
<g id="node4" class="node"><title>Node4</title>
<g id="a_node4"><a xlink:title="STL class. ">
<polygon fill="none" stroke="#bfbfbf" points="100.5,-255.5 100.5,-323.5 195.5,-323.5 195.5,-255.5 100.5,-255.5"/>
<text text-anchor="start" x="108.5" y="-311.5" font-family="Helvetica,sans-Serif" font-size="10.00">std::basic_string&lt;</text>
<text text-anchor="middle" x="148" y="-300.5" font-family="Helvetica,sans-Serif" font-size="10.00"> char &gt;</text>
<polyline fill="none" stroke="#bfbfbf" points="100.5,-293.5 195.5,-293.5 "/>
<text text-anchor="middle" x="148" y="-281.5" font-family="Helvetica,sans-Serif" font-size="10.00"> </text>
<polyline fill="none" stroke="#bfbfbf" points="100.5,-274.5 195.5,-274.5 "/>
<text text-anchor="middle" x="148" y="-262.5" font-family="Helvetica,sans-Serif" font-size="10.00"> </text>
</a>
</g>
</g>
<!-- Node4&#45;&gt;Node3 -->
<g id="edge3" class="edge"><title>Node4&#45;&gt;Node3</title>
<path fill="none" stroke="midnightblue" d="M151.327,-245.247C152.188,-234.054 153.092,-222.304 153.873,-212.154"/>
<polygon fill="none" stroke="midnightblue" points="147.831,-245.069 150.553,-255.308 154.81,-245.606 147.831,-245.069"/>
</g>
<!-- Node5 -->
<g id="node5" class="node"><title>Node5</title>
<g id="a_node5"><a xlink:title="STL class. ">
<polygon fill="none" stroke="#bfbfbf" points="208.5,-155 208.5,-212 279.5,-212 279.5,-155 208.5,-155"/>
<text text-anchor="middle" x="244" y="-200" font-family="Helvetica,sans-Serif" font-size="10.00">std::ostream</text>
<polyline fill="none" stroke="#bfbfbf" points="208.5,-193 279.5,-193 "/>
<text text-anchor="middle" x="244" y="-181" font-family="Helvetica,sans-Serif" font-size="10.00"> </text>
<polyline fill="none" stroke="#bfbfbf" points="208.5,-174 279.5,-174 "/>
<text text-anchor="middle" x="244" y="-162" font-family="Helvetica,sans-Serif" font-size="10.00"> </text>
</a>
</g>
</g>
<!-- Node5&#45;&gt;Node1 -->
<g id="edge4" class="edge"><title>Node5&#45;&gt;Node1</title>
<path fill="none" stroke="#404040" d="M226.743,-154.944C219.788,-143.995 211.62,-131.332 204,-120 202.173,-117.283 200.294,-114.515 198.385,-111.725"/>
<polygon fill="none" stroke="#404040" points="198.204,-111.462 191.504,-108.794 191.39,-101.584 198.09,-104.252 198.204,-111.462"/>
<text text-anchor="middle" x="235" y="-123" font-family="Helvetica,sans-Serif" font-size="10.00"> &#45;m_stream</text>
</g>
<!-- Node6 -->
<g id="node6" class="node"><title>Node6</title>
<g id="a_node6"><a xlink:title="STL class. ">
<polygon fill="none" stroke="#bfbfbf" points="214,-255.5 214,-323.5 314,-323.5 314,-255.5 214,-255.5"/>
<text text-anchor="start" x="222" y="-311.5" font-family="Helvetica,sans-Serif" font-size="10.00">std::basic_ostream</text>
<text text-anchor="middle" x="264" y="-300.5" font-family="Helvetica,sans-Serif" font-size="10.00">&lt; char &gt;</text>
<polyline fill="none" stroke="#bfbfbf" points="214,-293.5 314,-293.5 "/>
<text text-anchor="middle" x="264" y="-281.5" font-family="Helvetica,sans-Serif" font-size="10.00"> </text>
<polyline fill="none" stroke="#bfbfbf" points="214,-274.5 314,-274.5 "/>
<text text-anchor="middle" x="264" y="-262.5" font-family="Helvetica,sans-Serif" font-size="10.00"> </text>
</a>
</g>
</g>
<!-- Node6&#45;&gt;Node5 -->
<g id="edge5" class="edge"><title>Node6&#45;&gt;Node5</title>
<path fill="none" stroke="midnightblue" d="M255.682,-245.247C253.53,-234.054 251.27,-222.304 249.318,-212.154"/>
<polygon fill="none" stroke="midnightblue" points="252.291,-246.149 257.617,-255.308 259.165,-244.827 252.291,-246.149"/>
</g>
<!-- Node7 -->
<g id="node7" class="node"><title>Node7</title>
<g id="a_node7"><a xlink:title="STL class. ">
<polygon fill="none" stroke="#bfbfbf" points="206,-361.5 206,-418.5 322,-418.5 322,-361.5 206,-361.5"/>
<text text-anchor="middle" x="264" y="-406.5" font-family="Helvetica,sans-Serif" font-size="10.00">std::basic_ios&lt; Char &gt;</text>
<polyline fill="none" stroke="#bfbfbf" points="206,-399.5 322,-399.5 "/>
<text text-anchor="middle" x="264" y="-387.5" font-family="Helvetica,sans-Serif" font-size="10.00"> </text>
<polyline fill="none" stroke="#bfbfbf" points="206,-380.5 322,-380.5 "/>
<text text-anchor="middle" x="264" y="-368.5" font-family="Helvetica,sans-Serif" font-size="10.00"> </text>
</a>
</g>
</g>
<!-- Node7&#45;&gt;Node6 -->
<g id="edge6" class="edge"><title>Node7&#45;&gt;Node6</title>
<path fill="none" stroke="midnightblue" d="M264,-351.007C264,-341.962 264,-332.383 264,-323.578"/>
<polygon fill="none" stroke="midnightblue" points="260.5,-351.3 264,-361.3 267.5,-351.3 260.5,-351.3"/>
</g>
<!-- Node8 -->
<g id="node8" class="node"><title>Node8</title>
<g id="a_node8"><a xlink:title="STL class. ">
<polygon fill="none" stroke="#bfbfbf" points="226.5,-456.5 226.5,-513.5 301.5,-513.5 301.5,-456.5 226.5,-456.5"/>
<text text-anchor="middle" x="264" y="-501.5" font-family="Helvetica,sans-Serif" font-size="10.00">std::ios_base</text>
<polyline fill="none" stroke="#bfbfbf" points="226.5,-494.5 301.5,-494.5 "/>
<text text-anchor="middle" x="264" y="-482.5" font-family="Helvetica,sans-Serif" font-size="10.00"> </text>
<polyline fill="none" stroke="#bfbfbf" points="226.5,-475.5 301.5,-475.5 "/>
<text text-anchor="middle" x="264" y="-463.5" font-family="Helvetica,sans-Serif" font-size="10.00"> </text>
</a>
</g>
</g>
<!-- Node8&#45;&gt;Node7 -->
<g id="edge7" class="edge"><title>Node8&#45;&gt;Node7</title>
<path fill="none" stroke="midnightblue" d="M264,-446.235C264,-437.028 264,-427.346 264,-418.705"/>
<polygon fill="none" stroke="midnightblue" points="260.5,-446.349 264,-456.349 267.5,-446.349 260.5,-446.349"/>
</g>
</g>
</svg>
