<?xml version="1.0" encoding="UTF-8" standalone="no"?>
<!DOCTYPE svg PUBLIC "-//W3C//DTD SVG 1.1//EN"
 "http://www.w3.org/Graphics/SVG/1.1/DTD/svg11.dtd">
<!-- Generated by graphviz version 2.38.0 (20140413.2041)
 -->
<!-- Title: Grid::getRoadEntry Pages: 1 -->
<svg width="615pt" height="123pt"
 viewBox="0.00 0.00 615.00 123.00" xmlns="http://www.w3.org/2000/svg" xmlns:xlink="http://www.w3.org/1999/xlink">
<g id="graph0" class="graph" transform="scale(1 1) rotate(0) translate(4 119)">
<title>Grid::getRoadEntry</title>
<!-- Node1 -->
<g id="node1" class="node"><title>Node1</title>
<polygon fill="#bfbfbf" stroke="black" points="0,-57.5 0,-76.5 101,-76.5 101,-57.5 0,-57.5"/>
<text text-anchor="middle" x="50.5" y="-64.5" font-family="Helvetica,sans-Serif" font-size="10.00">Grid::getRoadEntry</text>
</g>
<!-- Node2 -->
<g id="node2" class="node"><title>Node2</title>
<g id="a_node2"><a xlink:href="class_grid.html#aea292f48c96b2e9d1abee08040cd3833" target="_top" xlink:title="buildMarkovMatrix ">
<polygon fill="none" stroke="black" points="137,-57.5 137,-76.5 257,-76.5 257,-57.5 137,-57.5"/>
<text text-anchor="middle" x="197" y="-64.5" font-family="Helvetica,sans-Serif" font-size="10.00">Grid::buildMarkovMatrix</text>
</a>
</g>
</g>
<!-- Node1&#45;&gt;Node2 -->
<g id="edge1" class="edge"><title>Node1&#45;&gt;Node2</title>
<path fill="none" stroke="midnightblue" d="M111.391,-67C119.843,-67 128.528,-67 136.964,-67"/>
<polygon fill="midnightblue" stroke="midnightblue" points="111.229,-63.5001 101.229,-67 111.229,-70.5001 111.229,-63.5001"/>
</g>
<!-- Node3 -->
<g id="node3" class="node"><title>Node3</title>
<g id="a_node3"><a xlink:href="main_8cpp.html#a640261e473790d1a87c2f33332460793" target="_top" xlink:title="dev_grid">
<polygon fill="none" stroke="black" points="314,-95.5 314,-114.5 367,-114.5 367,-95.5 314,-95.5"/>
<text text-anchor="middle" x="340.5" y="-102.5" font-family="Helvetica,sans-Serif" font-size="10.00">dev_grid</text>
</a>
</g>
</g>
<!-- Node2&#45;&gt;Node3 -->
<g id="edge2" class="edge"><title>Node2&#45;&gt;Node3</title>
<path fill="none" stroke="midnightblue" d="M243.368,-79.1835C266.593,-85.4207 294.026,-92.7878 313.629,-98.0523"/>
<polygon fill="midnightblue" stroke="midnightblue" points="244.272,-75.8025 233.706,-76.589 242.456,-82.5629 244.272,-75.8025"/>
</g>
<!-- Node4 -->
<g id="node4" class="node"><title>Node4</title>
<g id="a_node4"><a xlink:href="main_8cpp.html#a141063eccadf0e03662d414d897d9f5d" target="_top" xlink:title="dev_gridAndTrack">
<polygon fill="none" stroke="black" points="293,-57.5 293,-76.5 388,-76.5 388,-57.5 293,-57.5"/>
<text text-anchor="middle" x="340.5" y="-64.5" font-family="Helvetica,sans-Serif" font-size="10.00">dev_gridAndTrack</text>
</a>
</g>
</g>
<!-- Node2&#45;&gt;Node4 -->
<g id="edge3" class="edge"><title>Node2&#45;&gt;Node4</title>
<path fill="none" stroke="midnightblue" d="M267.232,-67C275.824,-67 284.446,-67 292.591,-67"/>
<polygon fill="midnightblue" stroke="midnightblue" points="267.189,-63.5001 257.189,-67 267.189,-70.5001 267.189,-63.5001"/>
</g>
<!-- Node5 -->
<g id="node5" class="node"><title>Node5</title>
<g id="a_node5"><a xlink:href="class_solver.html#a97bc7169c18b339fecd4937150f907c3" target="_top" xlink:title="Solver::start">
<polygon fill="none" stroke="black" points="305.5,-19.5 305.5,-38.5 375.5,-38.5 375.5,-19.5 305.5,-19.5"/>
<text text-anchor="middle" x="340.5" y="-26.5" font-family="Helvetica,sans-Serif" font-size="10.00">Solver::start</text>
</a>
</g>
</g>
<!-- Node2&#45;&gt;Node5 -->
<g id="edge4" class="edge"><title>Node2&#45;&gt;Node5</title>
<path fill="none" stroke="midnightblue" d="M243.56,-54.7648C263.598,-49.3836 286.737,-43.1697 305.269,-38.1927"/>
<polygon fill="midnightblue" stroke="midnightblue" points="242.456,-51.4371 233.706,-57.411 244.272,-58.1975 242.456,-51.4371"/>
</g>
<!-- Node6 -->
<g id="node6" class="node"><title>Node6</title>
<g id="a_node6"><a xlink:href="main_8cpp.html#a9dd67c19acf7317c6296b63e29dcfab9" target="_top" xlink:title="dev_thread">
<polygon fill="none" stroke="black" points="446,-38.5 446,-57.5 511,-57.5 511,-38.5 446,-38.5"/>
<text text-anchor="middle" x="478.5" y="-45.5" font-family="Helvetica,sans-Serif" font-size="10.00">dev_thread</text>
</a>
</g>
</g>
<!-- Node5&#45;&gt;Node6 -->
<g id="edge5" class="edge"><title>Node5&#45;&gt;Node6</title>
<path fill="none" stroke="midnightblue" d="M385.778,-35.1859C405.429,-37.9313 428.102,-41.0988 445.989,-43.5977"/>
<polygon fill="midnightblue" stroke="midnightblue" points="386.207,-31.7119 375.819,-33.7945 385.238,-38.6445 386.207,-31.7119"/>
</g>
<!-- Node8 -->
<g id="node8" class="node"><title>Node8</title>
<g id="a_node8"><a xlink:href="class_solver.html#a323c9c0407f26a2ed3ec3ff5ed02a760" target="_top" xlink:title="Solver::onSignalStart">
<polygon fill="none" stroke="black" points="424,-0.5 424,-19.5 533,-19.5 533,-0.5 424,-0.5"/>
<text text-anchor="middle" x="478.5" y="-7.5" font-family="Helvetica,sans-Serif" font-size="10.00">Solver::onSignalStart</text>
</a>
</g>
</g>
<!-- Node5&#45;&gt;Node8 -->
<g id="edge7" class="edge"><title>Node5&#45;&gt;Node8</title>
<path fill="none" stroke="midnightblue" d="M385.727,-22.8213C397.896,-21.1211 411.227,-19.2587 423.865,-17.4931"/>
<polygon fill="midnightblue" stroke="midnightblue" points="385.238,-19.3555 375.819,-24.2055 386.207,-26.2881 385.238,-19.3555"/>
</g>
<!-- Node7 -->
<g id="node7" class="node"><title>Node7</title>
<g id="a_node7"><a xlink:href="main_8cpp.html#a0ddf1224851353fc92bfbff6f499fa97" target="_top" xlink:title="main">
<polygon fill="none" stroke="black" points="569,-38.5 569,-57.5 607,-57.5 607,-38.5 569,-38.5"/>
<text text-anchor="middle" x="588" y="-45.5" font-family="Helvetica,sans-Serif" font-size="10.00">main</text>
</a>
</g>
</g>
<!-- Node6&#45;&gt;Node7 -->
<g id="edge6" class="edge"><title>Node6&#45;&gt;Node7</title>
<path fill="none" stroke="midnightblue" d="M521.208,-48C537.755,-48 555.908,-48 568.946,-48"/>
<polygon fill="midnightblue" stroke="midnightblue" points="521.172,-44.5001 511.172,-48 521.172,-51.5001 521.172,-44.5001"/>
</g>
</g>
</svg>
