<?xml version="1.0" encoding="UTF-8" standalone="no"?>
<!DOCTYPE svg PUBLIC "-//W3C//DTD SVG 1.1//EN"
 "http://www.w3.org/Graphics/SVG/1.1/DTD/svg11.dtd">
<!-- Generated by graphviz version 2.38.0 (20140413.2041)
 -->
<!-- Title: MainWindow::createConnections Pages: 1 -->
<!--zoomable 598 -->
<svg id="main" version="1.1" xmlns="http://www.w3.org/2000/svg" xmlns:xlink="http://www.w3.org/1999/xlink" xml:space="preserve" onload="init(evt)">
<style type="text/css"><![CDATA[
.edge:hover path { stroke: red; }
.edge:hover polygon { stroke: red; fill: red; }
]]></style>
<script type="text/javascript"><![CDATA[
var edges = document.getElementsByTagName('g');
if (edges && edges.length) {
  for (var i=0;i<edges.length;i++) {
    if (edges[i].id.substr(0,4)=='edge') {
      edges[i].setAttribute('class','edge');
    }
  }
}
]]></script>
        <defs>
                <circle id="rim" cx="0" cy="0" r="7"/>
                <circle id="rim2" cx="0" cy="0" r="3.5"/>
                <g id="zoomPlus">
                        <use xlink:href="#rim" fill="#404040">
                                <set attributeName="fill" to="#808080" begin="zoomplus.mouseover" end="zoomplus.mouseout"/>
                        </use>
                        <path d="M-4,0h8M0,-4v8" fill="none" stroke="white" stroke-width="1.5" pointer-events="none"/>
                </g>
                <g id="zoomMin">
                        <use xlink:href="#rim" fill="#404040">
                                <set attributeName="fill" to="#808080" begin="zoomminus.mouseover" end="zoomminus.mouseout"/>
                        </use>
                        <path d="M-4,0h8" fill="none" stroke="white" stroke-width="1.5" pointer-events="none"/>
                </g>
                <g id="dirArrow">
                        <path fill="none" stroke="white" stroke-width="1.5" d="M0,-3.0v7 M-2.5,-0.5L0,-3.0L2.5,-0.5"/>
                </g>
               <g id="resetDef">
                       <use xlink:href="#rim2" fill="#404040">
                               <set attributeName="fill" to="#808080" begin="reset.mouseover" end="reset.mouseout"/>
                       </use>
               </g>
        </defs>

<script type="text/javascript">
var viewWidth = 1125;
var viewHeight = 598;
var sectionId = 'dynsection-3';
</script>
<script xlink:href="svgpan.js"/>
<svg id="graph" class="graph">
<g id="viewport">
<title>MainWindow::createConnections</title>
<!-- Node1 -->
<g id="node1" class="node"><title>Node1</title>
<polygon fill="#bfbfbf" stroke="black" points="0,-278.5 0,-297.5 161,-297.5 161,-278.5 0,-278.5"/>
<text text-anchor="middle" x="80.5" y="-285.5" font-family="Helvetica,sans-Serif" font-size="10.00">MainWindow::createConnections</text>
</g>
<!-- Node2 -->
<g id="node2" class="node"><title>Node2</title>
<g id="a_node2"><a xlink:href="class_controller.html#ab8e345d91e901e46e0ad42a0b75ef94c" target="_top" xlink:title="Controller::addSolver">
<polygon fill="none" stroke="black" points="213,-354.5 213,-373.5 321,-373.5 321,-354.5 213,-354.5"/>
<text text-anchor="middle" x="267" y="-361.5" font-family="Helvetica,sans-Serif" font-size="10.00">Controller::addSolver</text>
</a>
</g>
</g>
<!-- Node1&#45;&gt;Node2 -->
<g id="edge1" class="edge"><title>Node1&#45;&gt;Node2</title>
<path fill="none" stroke="midnightblue" d="M98.2662,-297.539C120.346,-309.804 160.635,-331.164 197,-345 203.242,-347.375 209.904,-349.59 216.536,-351.608"/>
<polygon fill="midnightblue" stroke="midnightblue" points="215.597,-354.98 226.177,-354.419 217.556,-348.26 215.597,-354.98"/>
</g>
<!-- Node3 -->
<g id="node3" class="node"><title>Node3</title>
<g id="a_node3"><a xlink:href="class_controller.html#aa92b9a18a88aeb59c53272c3beab2724" target="_top" xlink:title="Controller::connectSignals">
<polygon fill="none" stroke="black" points="201.5,-316.5 201.5,-335.5 332.5,-335.5 332.5,-316.5 201.5,-316.5"/>
<text text-anchor="middle" x="267" y="-323.5" font-family="Helvetica,sans-Serif" font-size="10.00">Controller::connectSignals</text>
</a>
</g>
</g>
<!-- Node1&#45;&gt;Node3 -->
<g id="edge2" class="edge"><title>Node1&#45;&gt;Node3</title>
<path fill="none" stroke="midnightblue" d="M128.057,-297.589C152.843,-302.694 183.515,-309.011 209.639,-314.392"/>
<polygon fill="midnightblue" stroke="midnightblue" points="209.277,-317.891 219.778,-316.48 210.689,-311.035 209.277,-317.891"/>
</g>
<!-- Node4 -->
<g id="node4" class="node"><title>Node4</title>
<g id="a_node4"><a xlink:href="class_main_window.html#ad39bbe8ced0d3248206ac0ca6c444d55" target="_top" xlink:title="MainWindow::readyToNext1">
<polygon fill="none" stroke="black" points="197,-278.5 197,-297.5 337,-297.5 337,-278.5 197,-278.5"/>
<text text-anchor="middle" x="267" y="-285.5" font-family="Helvetica,sans-Serif" font-size="10.00">MainWindow::readyToNext1</text>
</a>
</g>
</g>
<!-- Node1&#45;&gt;Node4 -->
<g id="edge3" class="edge"><title>Node1&#45;&gt;Node4</title>
<path fill="none" stroke="midnightblue" d="M161.083,-288C169.542,-288 178.146,-288 186.603,-288"/>
<polygon fill="midnightblue" stroke="midnightblue" points="186.826,-291.5 196.826,-288 186.826,-284.5 186.826,-291.5"/>
</g>
<!-- Node31 -->
<g id="node31" class="node"><title>Node31</title>
<g id="a_node31"><a xlink:href="class_main_window.html#ae2500bf587f9630ce61d27ca231cfd7a" target="_top" xlink:title="MainWindow::readyToNext2">
<polygon fill="none" stroke="black" points="197,-238.5 197,-257.5 337,-257.5 337,-238.5 197,-238.5"/>
<text text-anchor="middle" x="267" y="-245.5" font-family="Helvetica,sans-Serif" font-size="10.00">MainWindow::readyToNext2</text>
</a>
</g>
</g>
<!-- Node1&#45;&gt;Node31 -->
<g id="edge35" class="edge"><title>Node1&#45;&gt;Node31</title>
<path fill="none" stroke="midnightblue" d="M125.692,-278.419C151.708,-272.779 184.798,-265.605 212.309,-259.64"/>
<polygon fill="midnightblue" stroke="midnightblue" points="213.137,-263.042 222.168,-257.503 211.654,-256.201 213.137,-263.042"/>
</g>
<!-- Node36 -->
<g id="node36" class="node"><title>Node36</title>
<g id="a_node36"><a xlink:href="class_main_window.html#a8316cc41f24ecba912fb4c2a90103be4" target="_top" xlink:title="MainWindow::putNone">
<polygon fill="none" stroke="black" points="209,-200.5 209,-219.5 325,-219.5 325,-200.5 209,-200.5"/>
<text text-anchor="middle" x="267" y="-207.5" font-family="Helvetica,sans-Serif" font-size="10.00">MainWindow::putNone</text>
</a>
</g>
</g>
<!-- Node1&#45;&gt;Node36 -->
<g id="edge40" class="edge"><title>Node1&#45;&gt;Node36</title>
<path fill="none" stroke="midnightblue" d="M97.8402,-278.303C119.783,-265.599 160.269,-243.267 197,-229 203.005,-226.668 209.407,-224.501 215.8,-222.528"/>
<polygon fill="midnightblue" stroke="midnightblue" points="217.174,-225.772 225.779,-219.592 215.198,-219.057 217.174,-225.772"/>
</g>
<!-- Node5 -->
<g id="node5" class="node"><title>Node5</title>
<g id="a_node5"><a xlink:href="class_solver.html#acbe7e47bcad48b8ddba95c9281c8bf23" target="_top" xlink:title="Solver::readFiles">
<polygon fill="none" stroke="black" points="381.5,-345.5 381.5,-364.5 471.5,-364.5 471.5,-345.5 381.5,-345.5"/>
<text text-anchor="middle" x="426.5" y="-352.5" font-family="Helvetica,sans-Serif" font-size="10.00">Solver::readFiles</text>
</a>
</g>
</g>
<!-- Node4&#45;&gt;Node5 -->
<g id="edge4" class="edge"><title>Node4&#45;&gt;Node5</title>
<path fill="none" stroke="midnightblue" d="M308.648,-297.532C318.093,-300.202 328.01,-303.38 337,-307 359.709,-316.145 384.061,-329.652 401.46,-340.01"/>
<polygon fill="midnightblue" stroke="midnightblue" points="399.988,-343.21 410.356,-345.392 403.612,-337.221 399.988,-343.21"/>
</g>
<!-- Node26 -->
<g id="node26" class="node"><title>Node26</title>
<g id="a_node26"><a xlink:href="class_grid.html#a8d8b7fa0ee20d81f130a46d80fc2a018" target="_top" xlink:title="Check if track is in grid. ">
<polygon fill="none" stroke="black" points="528,-342.5 528,-361.5 617,-361.5 617,-342.5 528,-342.5"/>
<text text-anchor="middle" x="572.5" y="-349.5" font-family="Helvetica,sans-Serif" font-size="10.00">Grid::trackInGrid</text>
</a>
</g>
</g>
<!-- Node4&#45;&gt;Node26 -->
<g id="edge26" class="edge"><title>Node4&#45;&gt;Node26</title>
<path fill="none" stroke="midnightblue" d="M313.109,-297.512C367.631,-309.009 459.288,-328.338 517.512,-340.615"/>
<polygon fill="midnightblue" stroke="midnightblue" points="517.116,-344.109 527.623,-342.748 518.56,-337.259 517.116,-344.109"/>
</g>
<!-- Node6 -->
<g id="node6" class="node"><title>Node6</title>
<g id="a_node6"><a xlink:href="class_track.html#aff258a8c303ee8a09a962d237f3823e7" target="_top" xlink:title="Reads a csv file and inserts each point in m_points vector. ">
<polygon fill="none" stroke="black" points="517.5,-532.5 517.5,-551.5 627.5,-551.5 627.5,-532.5 517.5,-532.5"/>
<text text-anchor="middle" x="572.5" y="-539.5" font-family="Helvetica,sans-Serif" font-size="10.00">Track::readFromCSV</text>
</a>
</g>
</g>
<!-- Node5&#45;&gt;Node6 -->
<g id="edge5" class="edge"><title>Node5&#45;&gt;Node6</title>
<path fill="none" stroke="midnightblue" d="M434.839,-364.53C457.655,-394.159 527.606,-484.999 557.604,-523.954"/>
<polygon fill="midnightblue" stroke="midnightblue" points="555.129,-526.477 564.003,-532.265 560.675,-522.206 555.129,-526.477"/>
</g>
<!-- Node10 -->
<g id="node10" class="node"><title>Node10</title>
<g id="a_node10"><a xlink:href="class_grid.html#a19318437702e712955d0c4631c94cb04" target="_top" xlink:title="Save data about our area of roads. ">
<polygon fill="none" stroke="black" points="516.5,-418.5 516.5,-437.5 628.5,-437.5 628.5,-418.5 516.5,-418.5"/>
<text text-anchor="middle" x="572.5" y="-425.5" font-family="Helvetica,sans-Serif" font-size="10.00">Grid::setBoundingBox</text>
</a>
</g>
</g>
<!-- Node5&#45;&gt;Node10 -->
<g id="edge9" class="edge"><title>Node5&#45;&gt;Node10</title>
<path fill="none" stroke="midnightblue" d="M446.325,-364.543C471.12,-377.113 514.923,-399.319 543.581,-413.847"/>
<polygon fill="midnightblue" stroke="midnightblue" points="542.168,-417.054 552.67,-418.454 545.333,-410.811 542.168,-417.054"/>
</g>
<!-- Node15 -->
<g id="node15" class="node"><title>Node15</title>
<g id="a_node15"><a xlink:href="class_grid.html#ae848f1c59c544adc1af9133409ee0106" target="_top" xlink:title="Reads a csv file and inserts info into the corresponding attributs. ">
<polygon fill="none" stroke="black" points="521,-247.5 521,-266.5 624,-266.5 624,-247.5 521,-247.5"/>
<text text-anchor="middle" x="572.5" y="-254.5" font-family="Helvetica,sans-Serif" font-size="10.00">Grid::readFromCSV</text>
</a>
</g>
</g>
<!-- Node5&#45;&gt;Node15 -->
<g id="edge14" class="edge"><title>Node5&#45;&gt;Node15</title>
<path fill="none" stroke="midnightblue" d="M441.57,-345.425C466.454,-328.49 518.44,-293.11 548.567,-272.607"/>
<polygon fill="midnightblue" stroke="midnightblue" points="550.862,-275.279 557.16,-266.759 546.924,-269.492 550.862,-275.279"/>
</g>
<!-- Node7 -->
<g id="node7" class="node"><title>Node7</title>
<g id="a_node7"><a xlink:href="class_track.html#ab0315e74b9b49e40d163a2ff978d833c" target="_top" xlink:title="Creates a new point and inserts it in m_points. ">
<polygon fill="none" stroke="black" points="693,-570.5 693,-589.5 779,-589.5 779,-570.5 693,-570.5"/>
<text text-anchor="middle" x="736" y="-577.5" font-family="Helvetica,sans-Serif" font-size="10.00">Track::addPoint</text>
</a>
</g>
</g>
<!-- Node6&#45;&gt;Node7 -->
<g id="edge6" class="edge"><title>Node6&#45;&gt;Node7</title>
<path fill="none" stroke="midnightblue" d="M614.253,-551.589C635.661,-556.626 662.086,-562.844 684.753,-568.177"/>
<polygon fill="midnightblue" stroke="midnightblue" points="684.004,-571.596 694.54,-570.48 685.607,-564.783 684.004,-571.596"/>
</g>
<!-- Node9 -->
<g id="node9" class="node"><title>Node9</title>
<g id="a_node9"><a xlink:href="class_track.html#aac5002af6aa69a20101a5709dbbebc82" target="_top" xlink:title="Apply a threshold to bounding box once the data file has been read. ">
<polygon fill="none" stroke="black" points="665,-532.5 665,-551.5 807,-551.5 807,-532.5 665,-532.5"/>
<text text-anchor="middle" x="736" y="-539.5" font-family="Helvetica,sans-Serif" font-size="10.00">Track::applyThresholdToBox</text>
</a>
</g>
</g>
<!-- Node6&#45;&gt;Node9 -->
<g id="edge8" class="edge"><title>Node6&#45;&gt;Node9</title>
<path fill="none" stroke="midnightblue" d="M627.726,-542C636.382,-542 645.494,-542 654.601,-542"/>
<polygon fill="midnightblue" stroke="midnightblue" points="654.856,-545.5 664.856,-542 654.855,-538.5 654.856,-545.5"/>
</g>
<!-- Node8 -->
<g id="node8" class="node"><title>Node8</title>
<g id="a_node8"><a xlink:href="class_track.html#af947410651d847174d7b18d8e9df9ca7" target="_top" xlink:title="Update the enclosing box of the track. ">
<polygon fill="none" stroke="black" points="877,-570.5 877,-589.5 971,-589.5 971,-570.5 877,-570.5"/>
<text text-anchor="middle" x="924" y="-577.5" font-family="Helvetica,sans-Serif" font-size="10.00">Track::updateBox</text>
</a>
</g>
</g>
<!-- Node7&#45;&gt;Node8 -->
<g id="edge7" class="edge"><title>Node7&#45;&gt;Node8</title>
<path fill="none" stroke="midnightblue" d="M779.206,-580C805.076,-580 838.51,-580 866.627,-580"/>
<polygon fill="midnightblue" stroke="midnightblue" points="866.722,-583.5 876.722,-580 866.722,-576.5 866.722,-583.5"/>
</g>
<!-- Node11 -->
<g id="node11" class="node"><title>Node11</title>
<g id="a_node11"><a xlink:href="class_grid.html#a13d6d18b26d70ab5871a8c2ddf7fa1b5" target="_top" xlink:title="Grid::xMin">
<polygon fill="none" stroke="black" points="705,-494.5 705,-513.5 767,-513.5 767,-494.5 705,-494.5"/>
<text text-anchor="middle" x="736" y="-501.5" font-family="Helvetica,sans-Serif" font-size="10.00">Grid::xMin</text>
</a>
</g>
</g>
<!-- Node10&#45;&gt;Node11 -->
<g id="edge10" class="edge"><title>Node10&#45;&gt;Node11</title>
<path fill="none" stroke="midnightblue" d="M586.167,-437.577C603.243,-450.082 634.976,-471.912 665,-485 674.437,-489.114 684.985,-492.538 694.972,-495.293"/>
<polygon fill="midnightblue" stroke="midnightblue" points="694.151,-498.696 704.71,-497.826 695.914,-491.921 694.151,-498.696"/>
</g>
<!-- Node12 -->
<g id="node12" class="node"><title>Node12</title>
<g id="a_node12"><a xlink:href="class_grid.html#a5e140affdf9653d8badf596f1f151908" target="_top" xlink:title="Grid::xMax">
<polygon fill="none" stroke="black" points="703.5,-456.5 703.5,-475.5 768.5,-475.5 768.5,-456.5 703.5,-456.5"/>
<text text-anchor="middle" x="736" y="-463.5" font-family="Helvetica,sans-Serif" font-size="10.00">Grid::xMax</text>
</a>
</g>
</g>
<!-- Node10&#45;&gt;Node12 -->
<g id="edge11" class="edge"><title>Node10&#45;&gt;Node12</title>
<path fill="none" stroke="midnightblue" d="M614.253,-437.589C638.455,-443.284 669.07,-450.487 693.416,-456.216"/>
<polygon fill="midnightblue" stroke="midnightblue" points="692.894,-459.688 703.43,-458.572 694.497,-452.874 692.894,-459.688"/>
</g>
<!-- Node13 -->
<g id="node13" class="node"><title>Node13</title>
<g id="a_node13"><a xlink:href="class_grid.html#a6acf01d876905d8709f4fb8ebe18aa94" target="_top" xlink:title="Grid::yMin">
<polygon fill="none" stroke="black" points="705,-418.5 705,-437.5 767,-437.5 767,-418.5 705,-418.5"/>
<text text-anchor="middle" x="736" y="-425.5" font-family="Helvetica,sans-Serif" font-size="10.00">Grid::yMin</text>
</a>
</g>
</g>
<!-- Node10&#45;&gt;Node13 -->
<g id="edge12" class="edge"><title>Node10&#45;&gt;Node13</title>
<path fill="none" stroke="midnightblue" d="M628.627,-428C650.16,-428 674.405,-428 694.304,-428"/>
<polygon fill="midnightblue" stroke="midnightblue" points="694.571,-431.5 704.571,-428 694.571,-424.5 694.571,-431.5"/>
</g>
<!-- Node14 -->
<g id="node14" class="node"><title>Node14</title>
<g id="a_node14"><a xlink:href="class_grid.html#abfa1a601742ca69a5ecc3b6a5318d7a8" target="_top" xlink:title="Grid::yMax">
<polygon fill="none" stroke="black" points="703.5,-380.5 703.5,-399.5 768.5,-399.5 768.5,-380.5 703.5,-380.5"/>
<text text-anchor="middle" x="736" y="-387.5" font-family="Helvetica,sans-Serif" font-size="10.00">Grid::yMax</text>
</a>
</g>
</g>
<!-- Node10&#45;&gt;Node14 -->
<g id="edge13" class="edge"><title>Node10&#45;&gt;Node14</title>
<path fill="none" stroke="midnightblue" d="M614.253,-418.411C638.455,-412.716 669.07,-405.513 693.416,-399.784"/>
<polygon fill="midnightblue" stroke="midnightblue" points="694.497,-403.126 703.43,-397.428 692.894,-396.312 694.497,-403.126"/>
</g>
<!-- Node16 -->
<g id="node16" class="node"><title>Node16</title>
<g id="a_node16"><a xlink:href="class_grid.html#a6b6af4fb2545b398b47794de576f15f5" target="_top" xlink:title="Test if a point is in the defined area of a track. ">
<polygon fill="none" stroke="black" points="692,-190.5 692,-209.5 780,-209.5 780,-190.5 692,-190.5"/>
<text text-anchor="middle" x="736" y="-197.5" font-family="Helvetica,sans-Serif" font-size="10.00">Grid::inFootPrint</text>
</a>
</g>
</g>
<!-- Node15&#45;&gt;Node16 -->
<g id="edge15" class="edge"><title>Node15&#45;&gt;Node16</title>
<path fill="none" stroke="midnightblue" d="M604.07,-247.488C612.265,-244.68 621.053,-241.433 629,-238 645.609,-230.826 648.168,-225.632 665,-219 670.997,-216.637 677.395,-214.459 683.792,-212.488"/>
<polygon fill="midnightblue" stroke="midnightblue" points="685.176,-215.73 693.789,-209.561 683.209,-209.012 685.176,-215.73"/>
</g>
<!-- Node17 -->
<g id="node17" class="node"><title>Node17</title>
<g id="a_node17"><a xlink:href="class_grid.html#a58233ab60f7477144af334f205606aa4" target="_top" xlink:title="Find max and min of the grid. ">
<polygon fill="none" stroke="black" points="692,-152.5 692,-171.5 780,-171.5 780,-152.5 692,-152.5"/>
<text text-anchor="middle" x="736" y="-159.5" font-family="Helvetica,sans-Serif" font-size="10.00">Grid::updateGrid</text>
</a>
</g>
</g>
<!-- Node15&#45;&gt;Node17 -->
<g id="edge16" class="edge"><title>Node15&#45;&gt;Node17</title>
<path fill="none" stroke="midnightblue" d="M612.563,-247.426C618.423,-244.946 624.125,-241.851 629,-238 652.511,-219.425 640.9,-198.804 665,-181 670.184,-177.17 676.094,-174.112 682.232,-171.67"/>
<polygon fill="midnightblue" stroke="midnightblue" points="683.672,-174.876 691.994,-168.319 681.399,-168.256 683.672,-174.876"/>
</g>
<!-- Node18 -->
<g id="node18" class="node"><title>Node18</title>
<g id="a_node18"><a xlink:href="class_grid.html#aba1830bc145f128d6deeed29cfb94c9f" target="_top" xlink:title="Creates a new road and inserts it in m_road. ">
<polygon fill="none" stroke="black" points="696,-114.5 696,-133.5 776,-133.5 776,-114.5 696,-114.5"/>
<text text-anchor="middle" x="736" y="-121.5" font-family="Helvetica,sans-Serif" font-size="10.00">Grid::addRoad</text>
</a>
</g>
</g>
<!-- Node15&#45;&gt;Node18 -->
<g id="edge17" class="edge"><title>Node15&#45;&gt;Node18</title>
<path fill="none" stroke="midnightblue" d="M614.973,-247.46C620.119,-244.995 624.976,-241.896 629,-238 661.44,-206.594 631.559,-173.339 665,-143 670.967,-137.586 678.325,-133.692 686.004,-130.895"/>
<polygon fill="midnightblue" stroke="midnightblue" points="687.275,-134.167 695.824,-127.909 685.238,-127.47 687.275,-134.167"/>
</g>
<!-- Node19 -->
<g id="node19" class="node"><title>Node19</title>
<g id="a_node19"><a xlink:href="class_point_road.html#aa1b90c3fdf8ae7a1fcd8ce6182d13287" target="_top" xlink:title="PointRoad::outputInfos">
<polygon fill="none" stroke="black" points="865.5,-228.5 865.5,-247.5 982.5,-247.5 982.5,-228.5 865.5,-228.5"/>
<text text-anchor="middle" x="924" y="-235.5" font-family="Helvetica,sans-Serif" font-size="10.00">PointRoad::outputInfos</text>
</a>
</g>
</g>
<!-- Node18&#45;&gt;Node19 -->
<g id="edge18" class="edge"><title>Node18&#45;&gt;Node19</title>
<path fill="none" stroke="midnightblue" d="M776.164,-128.432C787.076,-131.22 798.308,-135.727 807,-143 835.665,-166.985 813.957,-195.475 843,-219 846.988,-222.23 851.434,-224.928 856.131,-227.179"/>
<polygon fill="midnightblue" stroke="midnightblue" points="854.836,-230.431 865.416,-230.98 857.487,-223.953 854.836,-230.431"/>
</g>
<!-- Node20 -->
<g id="node20" class="node"><title>Node20</title>
<g id="a_node20"><a xlink:href="class_point_road.html#ab53ccb3c883bdfd27c707901c5c658c8" target="_top" xlink:title="PointRoad::updateBelongToRoad">
<polygon fill="none" stroke="black" points="843,-190.5 843,-209.5 1005,-209.5 1005,-190.5 843,-190.5"/>
<text text-anchor="middle" x="924" y="-197.5" font-family="Helvetica,sans-Serif" font-size="10.00">PointRoad::updateBelongToRoad</text>
</a>
</g>
</g>
<!-- Node18&#45;&gt;Node20 -->
<g id="edge19" class="edge"><title>Node18&#45;&gt;Node20</title>
<path fill="none" stroke="midnightblue" d="M776.059,-131.095C786.502,-133.916 797.514,-137.775 807,-143 826.012,-153.472 824.128,-165.277 843,-176 850.962,-180.524 859.865,-184.277 868.76,-187.363"/>
<polygon fill="midnightblue" stroke="midnightblue" points="867.771,-190.722 878.363,-190.456 869.917,-184.059 867.771,-190.722"/>
</g>
<!-- Node21 -->
<g id="node21" class="node"><title>Node21</title>
<g id="a_node21"><a xlink:href="class_point_road.html#a998665db2d7e4fc4935ef95df092ff2b" target="_top" xlink:title="PointRoad::setid">
<polygon fill="none" stroke="black" points="879.5,-114.5 879.5,-133.5 968.5,-133.5 968.5,-114.5 879.5,-114.5"/>
<text text-anchor="middle" x="924" y="-121.5" font-family="Helvetica,sans-Serif" font-size="10.00">PointRoad::setid</text>
</a>
</g>
</g>
<!-- Node18&#45;&gt;Node21 -->
<g id="edge20" class="edge"><title>Node18&#45;&gt;Node21</title>
<path fill="none" stroke="midnightblue" d="M776.446,-124C803.441,-124 839.57,-124 869.2,-124"/>
<polygon fill="midnightblue" stroke="midnightblue" points="869.384,-127.5 879.384,-124 869.384,-120.5 869.384,-127.5"/>
</g>
<!-- Node22 -->
<g id="node22" class="node"><title>Node22</title>
<g id="a_node22"><a xlink:href="class_point_road.html#a81372f2c2c0fe1084fa2397289518124" target="_top" xlink:title="PointRoad::id">
<polygon fill="none" stroke="black" points="1041,-133.5 1041,-152.5 1117,-152.5 1117,-133.5 1041,-133.5"/>
<text text-anchor="middle" x="1079" y="-140.5" font-family="Helvetica,sans-Serif" font-size="10.00">PointRoad::id</text>
</a>
</g>
</g>
<!-- Node18&#45;&gt;Node22 -->
<g id="edge23" class="edge"><title>Node18&#45;&gt;Node22</title>
<path fill="none" stroke="midnightblue" d="M776.041,-132.707C795.965,-136.714 820.653,-141.013 843,-143 907.93,-148.773 983.352,-147.34 1030.88,-145.447"/>
<polygon fill="midnightblue" stroke="midnightblue" points="1031.03,-148.944 1040.87,-145.025 1030.73,-141.95 1031.03,-148.944"/>
</g>
<!-- Node23 -->
<g id="node23" class="node"><title>Node23</title>
<g id="a_node23"><a xlink:href="class_point_road.html#ae83941b37b026758fdd7974b4b186fbc" target="_top" xlink:title="PointRoad::isNode">
<polygon fill="none" stroke="black" points="874.5,-76.5 874.5,-95.5 973.5,-95.5 973.5,-76.5 874.5,-76.5"/>
<text text-anchor="middle" x="924" y="-83.5" font-family="Helvetica,sans-Serif" font-size="10.00">PointRoad::isNode</text>
</a>
</g>
</g>
<!-- Node18&#45;&gt;Node23 -->
<g id="edge22" class="edge"><title>Node18&#45;&gt;Node23</title>
<path fill="none" stroke="midnightblue" d="M776.446,-115.941C802.583,-110.601 837.281,-103.512 866.354,-97.5729"/>
<polygon fill="midnightblue" stroke="midnightblue" points="867.282,-100.956 876.379,-95.5246 865.881,-94.0972 867.282,-100.956"/>
</g>
<!-- Node24 -->
<g id="node24" class="node"><title>Node24</title>
<g id="a_node24"><a xlink:href="class_road.html#a7f97b4f20c598103baad510b19a0c0b5" target="_top" xlink:title="Add a point to the road. ">
<polygon fill="none" stroke="black" points="882,-38.5 882,-57.5 966,-57.5 966,-38.5 882,-38.5"/>
<text text-anchor="middle" x="924" y="-45.5" font-family="Helvetica,sans-Serif" font-size="10.00">Road::addPoint</text>
</a>
</g>
</g>
<!-- Node18&#45;&gt;Node24 -->
<g id="edge24" class="edge"><title>Node18&#45;&gt;Node24</title>
<path fill="none" stroke="midnightblue" d="M751.855,-114.394C771.837,-101.858 808.821,-79.9933 843,-67 852.111,-63.5364 862.053,-60.5687 871.735,-58.0789"/>
<polygon fill="midnightblue" stroke="midnightblue" points="872.796,-61.4228 881.684,-55.6564 871.14,-54.6215 872.796,-61.4228"/>
</g>
<!-- Node25 -->
<g id="node25" class="node"><title>Node25</title>
<g id="a_node25"><a xlink:href="class_road.html#ad6715392969e36eb10efac542519755c" target="_top" xlink:title="Get the id of the road. ">
<polygon fill="none" stroke="black" points="886.5,-0.5 886.5,-19.5 961.5,-19.5 961.5,-0.5 886.5,-0.5"/>
<text text-anchor="middle" x="924" y="-7.5" font-family="Helvetica,sans-Serif" font-size="10.00">Road::edgeId</text>
</a>
</g>
</g>
<!-- Node18&#45;&gt;Node25 -->
<g id="edge25" class="edge"><title>Node18&#45;&gt;Node25</title>
<path fill="none" stroke="midnightblue" d="M744.666,-114.49C760.747,-95.2109 800.082,-51.4504 843,-29 853.272,-23.6265 865.078,-19.7502 876.411,-16.962"/>
<polygon fill="midnightblue" stroke="midnightblue" points="877.198,-20.3725 886.197,-14.7815 875.676,-13.54 877.198,-20.3725"/>
</g>
<!-- Node21&#45;&gt;Node22 -->
<g id="edge21" class="edge"><title>Node21&#45;&gt;Node22</title>
<path fill="none" stroke="midnightblue" d="M968.844,-129.445C988.244,-131.854 1011.09,-134.691 1030.86,-137.146"/>
<polygon fill="midnightblue" stroke="midnightblue" points="1030.53,-140.631 1040.88,-138.391 1031.39,-133.685 1030.53,-140.631"/>
</g>
<!-- Node26&#45;&gt;Node11 -->
<g id="edge27" class="edge"><title>Node26&#45;&gt;Node11</title>
<path fill="none" stroke="midnightblue" d="M584.844,-361.586C596.933,-372.237 616.075,-390.398 629,-409 650.326,-439.694 636.335,-461.015 665,-485 673.417,-492.042 684.215,-496.492 694.798,-499.298"/>
<polygon fill="midnightblue" stroke="midnightblue" points="694.273,-502.766 704.794,-501.515 695.789,-495.932 694.273,-502.766"/>
</g>
<!-- Node26&#45;&gt;Node12 -->
<g id="edge29" class="edge"><title>Node26&#45;&gt;Node12</title>
<path fill="none" stroke="midnightblue" d="M582.968,-361.643C594.048,-372.947 612.927,-392.265 629,-409 645.115,-425.779 645.031,-435.064 665,-447 673.584,-452.131 683.578,-455.906 693.282,-458.674"/>
<polygon fill="midnightblue" stroke="midnightblue" points="692.663,-462.128 703.218,-461.208 694.393,-455.346 692.663,-462.128"/>
</g>
<!-- Node26&#45;&gt;Node13 -->
<g id="edge31" class="edge"><title>Node26&#45;&gt;Node13</title>
<path fill="none" stroke="midnightblue" d="M586.167,-361.577C603.243,-374.082 634.976,-395.912 665,-409 674.437,-413.114 684.985,-416.538 694.972,-419.293"/>
<polygon fill="midnightblue" stroke="midnightblue" points="694.151,-422.696 704.71,-421.826 695.914,-415.921 694.151,-422.696"/>
</g>
<!-- Node26&#45;&gt;Node14 -->
<g id="edge33" class="edge"><title>Node26&#45;&gt;Node14</title>
<path fill="none" stroke="midnightblue" d="M614.253,-361.589C638.455,-367.284 669.07,-374.487 693.416,-380.216"/>
<polygon fill="midnightblue" stroke="midnightblue" points="692.894,-383.688 703.43,-382.572 694.497,-376.874 692.894,-383.688"/>
</g>
<!-- Node27 -->
<g id="node27" class="node"><title>Node27</title>
<g id="a_node27"><a xlink:href="class_grid.html#aa96eed7a551f45aeee1068a289bd2a7b" target="_top" xlink:title="Grid::xMinGrid">
<polygon fill="none" stroke="black" points="696,-342.5 696,-361.5 776,-361.5 776,-342.5 696,-342.5"/>
<text text-anchor="middle" x="736" y="-349.5" font-family="Helvetica,sans-Serif" font-size="10.00">Grid::xMinGrid</text>
</a>
</g>
</g>
<!-- Node26&#45;&gt;Node27 -->
<g id="edge28" class="edge"><title>Node26&#45;&gt;Node27</title>
<path fill="none" stroke="midnightblue" d="M617.204,-352C638.414,-352 663.976,-352 685.861,-352"/>
<polygon fill="midnightblue" stroke="midnightblue" points="685.95,-355.5 695.95,-352 685.95,-348.5 685.95,-355.5"/>
</g>
<!-- Node28 -->
<g id="node28" class="node"><title>Node28</title>
<g id="a_node28"><a xlink:href="class_grid.html#aa3dd1e75998e6214c3ef33cdc5e02204" target="_top" xlink:title="Grid::xMaxGrid">
<polygon fill="none" stroke="black" points="694.5,-304.5 694.5,-323.5 777.5,-323.5 777.5,-304.5 694.5,-304.5"/>
<text text-anchor="middle" x="736" y="-311.5" font-family="Helvetica,sans-Serif" font-size="10.00">Grid::xMaxGrid</text>
</a>
</g>
</g>
<!-- Node26&#45;&gt;Node28 -->
<g id="edge30" class="edge"><title>Node26&#45;&gt;Node28</title>
<path fill="none" stroke="midnightblue" d="M614.253,-342.411C635.661,-337.374 662.086,-331.156 684.753,-325.823"/>
<polygon fill="midnightblue" stroke="midnightblue" points="685.607,-329.217 694.54,-323.52 684.004,-322.404 685.607,-329.217"/>
</g>
<!-- Node29 -->
<g id="node29" class="node"><title>Node29</title>
<g id="a_node29"><a xlink:href="class_grid.html#afa95de5fff735d1121572075a872121c" target="_top" xlink:title="Grid::yMinGrid">
<polygon fill="none" stroke="black" points="696,-266.5 696,-285.5 776,-285.5 776,-266.5 696,-266.5"/>
<text text-anchor="middle" x="736" y="-273.5" font-family="Helvetica,sans-Serif" font-size="10.00">Grid::yMinGrid</text>
</a>
</g>
</g>
<!-- Node26&#45;&gt;Node29 -->
<g id="edge32" class="edge"><title>Node26&#45;&gt;Node29</title>
<path fill="none" stroke="midnightblue" d="M586.167,-342.423C603.243,-329.918 634.976,-308.088 665,-295 671.666,-292.094 678.887,-289.532 686.073,-287.307"/>
<polygon fill="midnightblue" stroke="midnightblue" points="687.17,-290.633 695.795,-284.481 685.216,-283.912 687.17,-290.633"/>
</g>
<!-- Node30 -->
<g id="node30" class="node"><title>Node30</title>
<g id="a_node30"><a xlink:href="class_grid.html#a97ee4a72430770462f5e2ba140f2ca65" target="_top" xlink:title="Grid::yMaxGrid">
<polygon fill="none" stroke="black" points="694.5,-228.5 694.5,-247.5 777.5,-247.5 777.5,-228.5 694.5,-228.5"/>
<text text-anchor="middle" x="736" y="-235.5" font-family="Helvetica,sans-Serif" font-size="10.00">Grid::yMaxGrid</text>
</a>
</g>
</g>
<!-- Node26&#45;&gt;Node30 -->
<g id="edge34" class="edge"><title>Node26&#45;&gt;Node30</title>
<path fill="none" stroke="midnightblue" d="M580.065,-342.264C593.599,-322.963 626.577,-279.751 665,-257 670.97,-253.465 677.612,-250.572 684.361,-248.208"/>
<polygon fill="midnightblue" stroke="midnightblue" points="685.761,-251.437 694.259,-245.109 683.67,-244.756 685.761,-251.437"/>
</g>
<!-- Node32 -->
<g id="node32" class="node"><title>Node32</title>
<g id="a_node32"><a xlink:href="class_track.html#a9f1da7896167f44da967acf9fd05d92a" target="_top" xlink:title="This is a space filter, which deletes points depending on a distance interval. ">
<polygon fill="none" stroke="black" points="379,-237.5 379,-256.5 474,-256.5 474,-237.5 379,-237.5"/>
<text text-anchor="middle" x="426.5" y="-244.5" font-family="Helvetica,sans-Serif" font-size="10.00">Track::spaceFilter</text>
</a>
</g>
</g>
<!-- Node31&#45;&gt;Node32 -->
<g id="edge36" class="edge"><title>Node31&#45;&gt;Node32</title>
<path fill="none" stroke="midnightblue" d="M337.082,-247.561C347.62,-247.494 358.393,-247.426 368.63,-247.361"/>
<polygon fill="midnightblue" stroke="midnightblue" points="368.682,-250.861 378.66,-247.297 368.638,-243.861 368.682,-250.861"/>
</g>
<!-- Node34 -->
<g id="node34" class="node"><title>Node34</title>
<g id="a_node34"><a xlink:href="class_track.html#a58fcdaf47f2c87bb7095933616f5a4bc" target="_top" xlink:title="This is a temporal filter, which deletes points depending on a time value. ">
<polygon fill="none" stroke="black" points="373,-190.5 373,-209.5 480,-209.5 480,-190.5 373,-190.5"/>
<text text-anchor="middle" x="426.5" y="-197.5" font-family="Helvetica,sans-Serif" font-size="10.00">Track::temporalFilter</text>
</a>
</g>
</g>
<!-- Node31&#45;&gt;Node34 -->
<g id="edge38" class="edge"><title>Node31&#45;&gt;Node34</title>
<path fill="none" stroke="midnightblue" d="M303.906,-238.464C314.586,-235.533 326.293,-232.226 337,-229 353.636,-223.987 371.9,-218.073 387.493,-212.897"/>
<polygon fill="midnightblue" stroke="midnightblue" points="388.934,-216.106 397.311,-209.619 386.717,-209.466 388.934,-216.106"/>
</g>
<!-- Node33 -->
<g id="node33" class="node"><title>Node33</title>
<g id="a_node33"><a xlink:href="class_track.html#a0477b30aca07ba3f43b25d4c6ea782e0" target="_top" xlink:title="Deletes a occurence. ">
<polygon fill="none" stroke="black" points="520.5,-209.5 520.5,-228.5 624.5,-228.5 624.5,-209.5 520.5,-209.5"/>
<text text-anchor="middle" x="572.5" y="-216.5" font-family="Helvetica,sans-Serif" font-size="10.00">Track::delPointGPS</text>
</a>
</g>
</g>
<!-- Node32&#45;&gt;Node33 -->
<g id="edge37" class="edge"><title>Node32&#45;&gt;Node33</title>
<path fill="none" stroke="midnightblue" d="M474.253,-237.909C486.435,-235.54 499.722,-232.957 512.45,-230.482"/>
<polygon fill="midnightblue" stroke="midnightblue" points="513.358,-233.871 522.506,-228.527 512.022,-227 513.358,-233.871"/>
</g>
<!-- Node35 -->
<g id="node35" class="node"><title>Node35</title>
<g id="a_node35"><a xlink:href="class_point_g_p_s.html#aa8a0cbf3cfbc3f4ac9d16737c00fcb88" target="_top" xlink:title="PointGPS::timeStamp">
<polygon fill="none" stroke="black" points="516,-171.5 516,-190.5 629,-190.5 629,-171.5 516,-171.5"/>
<text text-anchor="middle" x="572.5" y="-178.5" font-family="Helvetica,sans-Serif" font-size="10.00">PointGPS::timeStamp</text>
</a>
</g>
</g>
<!-- Node34&#45;&gt;Node35 -->
<g id="edge39" class="edge"><title>Node34&#45;&gt;Node35</title>
<path fill="none" stroke="midnightblue" d="M480.303,-193.033C488.61,-191.937 497.286,-190.792 505.841,-189.663"/>
<polygon fill="midnightblue" stroke="midnightblue" points="506.344,-193.127 515.8,-188.349 505.428,-186.188 506.344,-193.127"/>
</g>
</g>
</svg>
        <g id="navigator" transform="translate(0 0)" fill="#404254">
                <rect fill="#f2f5e9" fill-opacity="0.5" stroke="#606060" stroke-width=".5" x="0" y="0" width="60" height="60"/>
                <use id="zoomplus" xlink:href="#zoomPlus" x="17" y="9" onmousedown="handleZoom(evt,'in')"/>
                <use id="zoomminus" xlink:href="#zoomMin" x="42" y="9" onmousedown="handleZoom(evt,'out')"/>
                <use id="reset" xlink:href="#resetDef" x="30" y="36" onmousedown="handleReset()"/>
                <g id="arrowUp" xlink:href="#dirArrow" transform="translate(30 24)" onmousedown="handlePan(0,-1)">
                  <use xlink:href="#rim" fill="#404040">
                        <set attributeName="fill" to="#808080" begin="arrowUp.mouseover" end="arrowUp.mouseout"/>
                  </use>
                  <path fill="none" stroke="white" stroke-width="1.5" d="M0,-3.0v7 M-2.5,-0.5L0,-3.0L2.5,-0.5"/>
                </g>
                <g id="arrowRight" xlink:href="#dirArrow" transform="rotate(90) translate(36 -43)" onmousedown="handlePan(1,0)">
                  <use xlink:href="#rim" fill="#404040">
                        <set attributeName="fill" to="#808080" begin="arrowRight.mouseover" end="arrowRight.mouseout"/>
                  </use>
                  <path fill="none" stroke="white" stroke-width="1.5" d="M0,-3.0v7 M-2.5,-0.5L0,-3.0L2.5,-0.5"/>
                </g>
                <g id="arrowDown" xlink:href="#dirArrow" transform="rotate(180) translate(-30 -48)" onmousedown="handlePan(0,1)">
                  <use xlink:href="#rim" fill="#404040">
                        <set attributeName="fill" to="#808080" begin="arrowDown.mouseover" end="arrowDown.mouseout"/>
                  </use>
                  <path fill="none" stroke="white" stroke-width="1.5" d="M0,-3.0v7 M-2.5,-0.5L0,-3.0L2.5,-0.5"/>
                </g>
                <g id="arrowLeft" xlink:href="#dirArrow" transform="rotate(270) translate(-36 17)" onmousedown="handlePan(-1,0)">
                  <use xlink:href="#rim" fill="#404040">
                        <set attributeName="fill" to="#808080" begin="arrowLeft.mouseover" end="arrowLeft.mouseout"/>
                  </use>
                  <path fill="none" stroke="white" stroke-width="1.5" d="M0,-3.0v7 M-2.5,-0.5L0,-3.0L2.5,-0.5"/>
                </g>
        </g>
        <svg viewBox="0 0 15 15" width="100%" height="30px" preserveAspectRatio="xMaxYMin meet">
         <g id="arrow_out" transform="scale(0.3 0.3)">
          <a xlink:href="class_main_window_af773488e0b16efe6c0fc67ad348b86b2_cgraph_org.svg" target="_base">
           <rect id="button" ry="5" rx="5" y="6" x="6" height="38" width="38"
                fill="#f2f5e9" fill-opacity="0.5" stroke="#606060" stroke-width="1.0"/>
           <path id="arrow"
             d="M 11.500037,31.436501 C 11.940474,20.09759 22.043105,11.32322 32.158766,21.979434 L 37.068811,17.246167 C 37.068811,17.246167 37.088388,32 37.088388,32 L 22.160133,31.978069 C 22.160133,31.978069 26.997745,27.140456 26.997745,27.140456 C 18.528582,18.264221 13.291696,25.230495 11.500037,31.436501 z"
             style="fill:#404040;"/>
          </a>
         </g>
        </svg>
</svg>
