<?xml version="1.0" encoding="UTF-8" standalone="no"?>
<!DOCTYPE svg PUBLIC "-//W3C//DTD SVG 1.1//EN"
 "http://www.w3.org/Graphics/SVG/1.1/DTD/svg11.dtd">
<!-- Generated by graphviz version 2.38.0 (20140413.2041)
 -->
<!-- Title: QMapViewer::drawPoint Pages: 1 -->
<svg width="286pt" height="104pt"
 viewBox="0.00 0.00 286.00 104.00" xmlns="http://www.w3.org/2000/svg" xmlns:xlink="http://www.w3.org/1999/xlink">
<g id="graph0" class="graph" transform="scale(1 1) rotate(0) translate(4 100)">
<title>QMapViewer::drawPoint</title>
<!-- Node1 -->
<g id="node1" class="node"><title>Node1</title>
<polygon fill="#bfbfbf" stroke="black" points="0,-38.5 0,-57.5 122,-57.5 122,-38.5 0,-38.5"/>
<text text-anchor="middle" x="61" y="-45.5" font-family="Helvetica,sans-Serif" font-size="10.00">QMapViewer::drawPoint</text>
</g>
<!-- Node2 -->
<g id="node2" class="node"><title>Node2</title>
<g id="a_node2"><a xlink:href="class_q_map_viewer.html#a9efef2950d0fe1973b1677369861e14b" target="_top" xlink:title="QMapViewer::transform">
<polygon fill="none" stroke="black" points="158,-76.5 158,-95.5 278,-95.5 278,-76.5 158,-76.5"/>
<text text-anchor="middle" x="218" y="-83.5" font-family="Helvetica,sans-Serif" font-size="10.00">QMapViewer::transform</text>
</a>
</g>
</g>
<!-- Node1&#45;&gt;Node2 -->
<g id="edge1" class="edge"><title>Node1&#45;&gt;Node2</title>
<path fill="none" stroke="midnightblue" d="M101.113,-57.589C121.475,-62.5809 146.566,-68.7324 168.189,-74.0334"/>
<polygon fill="midnightblue" stroke="midnightblue" points="167.622,-77.4981 178.168,-76.4799 169.289,-70.6994 167.622,-77.4981"/>
</g>
<!-- Node3 -->
<g id="node3" class="node"><title>Node3</title>
<g id="a_node3"><a xlink:href="class_point.html#a3eef47b1c4849b3395a8f9c658ca7c4a" target="_top" xlink:title="Point::x">
<polygon fill="none" stroke="black" points="193,-38.5 193,-57.5 243,-57.5 243,-38.5 193,-38.5"/>
<text text-anchor="middle" x="218" y="-45.5" font-family="Helvetica,sans-Serif" font-size="10.00">Point::x</text>
</a>
</g>
</g>
<!-- Node1&#45;&gt;Node3 -->
<g id="edge2" class="edge"><title>Node1&#45;&gt;Node3</title>
<path fill="none" stroke="midnightblue" d="M122.371,-48C142.785,-48 164.868,-48 182.563,-48"/>
<polygon fill="midnightblue" stroke="midnightblue" points="182.959,-51.5001 192.959,-48 182.959,-44.5001 182.959,-51.5001"/>
</g>
<!-- Node4 -->
<g id="node4" class="node"><title>Node4</title>
<g id="a_node4"><a xlink:href="class_point.html#a96e90df6b3c18e64c31abdf196e49ae9" target="_top" xlink:title="Point::y">
<polygon fill="none" stroke="black" points="193,-0.5 193,-19.5 243,-19.5 243,-0.5 193,-0.5"/>
<text text-anchor="middle" x="218" y="-7.5" font-family="Helvetica,sans-Serif" font-size="10.00">Point::y</text>
</a>
</g>
</g>
<!-- Node1&#45;&gt;Node4 -->
<g id="edge3" class="edge"><title>Node1&#45;&gt;Node4</title>
<path fill="none" stroke="midnightblue" d="M101.113,-38.411C126.381,-32.2162 158.933,-24.2359 183.1,-18.311"/>
<polygon fill="midnightblue" stroke="midnightblue" points="184.019,-21.6893 192.898,-15.9088 182.352,-14.8907 184.019,-21.6893"/>
</g>
</g>
</svg>
