<?xml version="1.0" encoding="UTF-8" standalone="no"?>
<!DOCTYPE svg PUBLIC "-//W3C//DTD SVG 1.1//EN"
 "http://www.w3.org/Graphics/SVG/1.1/DTD/svg11.dtd">
<!-- Generated by graphviz version 2.38.0 (20140413.2041)
 -->
<!-- Title: Track Pages: 1 -->
<!--zoomable 981 -->
<svg id="main" version="1.1" xmlns="http://www.w3.org/2000/svg" xmlns:xlink="http://www.w3.org/1999/xlink" xml:space="preserve" onload="init(evt)">
<style type="text/css"><![CDATA[
.edge:hover path { stroke: red; }
.edge:hover polygon { stroke: red; fill: red; }
]]></style>
<script type="text/javascript"><![CDATA[
var edges = document.getElementsByTagName('g');
if (edges && edges.length) {
  for (var i=0;i<edges.length;i++) {
    if (edges[i].id.substr(0,4)=='edge') {
      edges[i].setAttribute('class','edge');
    }
  }
}
]]></script>
        <defs>
                <circle id="rim" cx="0" cy="0" r="7"/>
                <circle id="rim2" cx="0" cy="0" r="3.5"/>
                <g id="zoomPlus">
                        <use xlink:href="#rim" fill="#404040">
                                <set attributeName="fill" to="#808080" begin="zoomplus.mouseover" end="zoomplus.mouseout"/>
                        </use>
                        <path d="M-4,0h8M0,-4v8" fill="none" stroke="white" stroke-width="1.5" pointer-events="none"/>
                </g>
                <g id="zoomMin">
                        <use xlink:href="#rim" fill="#404040">
                                <set attributeName="fill" to="#808080" begin="zoomminus.mouseover" end="zoomminus.mouseout"/>
                        </use>
                        <path d="M-4,0h8" fill="none" stroke="white" stroke-width="1.5" pointer-events="none"/>
                </g>
                <g id="dirArrow">
                        <path fill="none" stroke="white" stroke-width="1.5" d="M0,-3.0v7 M-2.5,-0.5L0,-3.0L2.5,-0.5"/>
                </g>
               <g id="resetDef">
                       <use xlink:href="#rim2" fill="#404040">
                               <set attributeName="fill" to="#808080" begin="reset.mouseover" end="reset.mouseout"/>
                       </use>
               </g>
        </defs>

<script type="text/javascript">
var viewWidth = 436;
var viewHeight = 981;
var sectionId = 'dynsection-1';
</script>
<script xlink:href="svgpan.js"/>
<svg id="graph" class="graph">
<g id="viewport">
<title>Track</title>
<!-- Node1 -->
<g id="node1" class="node"><title>Node1</title>
<polygon fill="#bfbfbf" stroke="black" points="38.5,-0.5 38.5,-244.5 164.5,-244.5 164.5,-0.5 38.5,-0.5"/>
<text text-anchor="middle" x="101.5" y="-232.5" font-family="Helvetica,sans-Serif" font-size="10.00">Track</text>
<polyline fill="none" stroke="black" points="38.5,-225.5 164.5,-225.5 "/>
<text text-anchor="middle" x="101.5" y="-213.5" font-family="Helvetica,sans-Serif" font-size="10.00"> </text>
<polyline fill="none" stroke="black" points="38.5,-206.5 164.5,-206.5 "/>
<text text-anchor="start" x="46.5" y="-194.5" font-family="Helvetica,sans-Serif" font-size="10.00">+ addPoint()</text>
<text text-anchor="start" x="46.5" y="-183.5" font-family="Helvetica,sans-Serif" font-size="10.00">+ applyThresholdToBox()</text>
<text text-anchor="start" x="46.5" y="-172.5" font-family="Helvetica,sans-Serif" font-size="10.00">+ delPointGPS()</text>
<text text-anchor="start" x="46.5" y="-161.5" font-family="Helvetica,sans-Serif" font-size="10.00">+ getNoOfPoints()</text>
<text text-anchor="start" x="46.5" y="-150.5" font-family="Helvetica,sans-Serif" font-size="10.00">+ getPoints()</text>
<text text-anchor="start" x="46.5" y="-139.5" font-family="Helvetica,sans-Serif" font-size="10.00">+ getPointsAsPointer()</text>
<text text-anchor="start" x="46.5" y="-128.5" font-family="Helvetica,sans-Serif" font-size="10.00">+ infos()</text>
<text text-anchor="start" x="46.5" y="-117.5" font-family="Helvetica,sans-Serif" font-size="10.00">+ outputInfos()</text>
<text text-anchor="start" x="46.5" y="-106.5" font-family="Helvetica,sans-Serif" font-size="10.00">+ readFromCSV()</text>
<text text-anchor="start" x="46.5" y="-95.5" font-family="Helvetica,sans-Serif" font-size="10.00">+ spaceFilter()</text>
<text text-anchor="start" x="46.5" y="-84.5" font-family="Helvetica,sans-Serif" font-size="10.00">+ temporalFilter()</text>
<text text-anchor="start" x="46.5" y="-73.5" font-family="Helvetica,sans-Serif" font-size="10.00">+ Track()</text>
<text text-anchor="start" x="46.5" y="-62.5" font-family="Helvetica,sans-Serif" font-size="10.00">+ updateBox()</text>
<text text-anchor="start" x="46.5" y="-51.5" font-family="Helvetica,sans-Serif" font-size="10.00">+ ~Track()</text>
<text text-anchor="start" x="46.5" y="-40.5" font-family="Helvetica,sans-Serif" font-size="10.00">* m_xMin</text>
<text text-anchor="start" x="46.5" y="-29.5" font-family="Helvetica,sans-Serif" font-size="10.00">* m_xMax</text>
<text text-anchor="start" x="46.5" y="-18.5" font-family="Helvetica,sans-Serif" font-size="10.00">* m_yMin</text>
<text text-anchor="start" x="46.5" y="-7.5" font-family="Helvetica,sans-Serif" font-size="10.00">* m_yMax</text>
</g>
<!-- Node2 -->
<g id="node2" class="node"><title>Node2</title>
<polygon fill="none" stroke="#bfbfbf" points="0,-292.5 0,-349.5 53,-349.5 53,-292.5 0,-292.5"/>
<text text-anchor="middle" x="26.5" y="-337.5" font-family="Helvetica,sans-Serif" font-size="10.00">QObject</text>
<polyline fill="none" stroke="#bfbfbf" points="0,-330.5 53,-330.5 "/>
<text text-anchor="middle" x="26.5" y="-318.5" font-family="Helvetica,sans-Serif" font-size="10.00"> </text>
<polyline fill="none" stroke="#bfbfbf" points="0,-311.5 53,-311.5 "/>
<text text-anchor="middle" x="26.5" y="-299.5" font-family="Helvetica,sans-Serif" font-size="10.00"> </text>
</g>
<!-- Node2&#45;&gt;Node1 -->
<g id="edge1" class="edge"><title>Node2&#45;&gt;Node1</title>
<path fill="none" stroke="midnightblue" d="M40.6871,-282.83C44.9961,-271.54 49.9858,-258.467 55.2172,-244.761"/>
<polygon fill="none" stroke="midnightblue" points="37.3826,-281.672 37.0866,-292.263 43.9225,-284.169 37.3826,-281.672"/>
</g>
<!-- Node3 -->
<g id="node3" class="node"><title>Node3</title>
<g id="a_node3"><a xlink:title="STL class. ">
<polygon fill="none" stroke="#bfbfbf" points="71.5,-292.5 71.5,-349.5 131.5,-349.5 131.5,-292.5 71.5,-292.5"/>
<text text-anchor="middle" x="101.5" y="-337.5" font-family="Helvetica,sans-Serif" font-size="10.00">std::string</text>
<polyline fill="none" stroke="#bfbfbf" points="71.5,-330.5 131.5,-330.5 "/>
<text text-anchor="middle" x="101.5" y="-318.5" font-family="Helvetica,sans-Serif" font-size="10.00"> </text>
<polyline fill="none" stroke="#bfbfbf" points="71.5,-311.5 131.5,-311.5 "/>
<text text-anchor="middle" x="101.5" y="-299.5" font-family="Helvetica,sans-Serif" font-size="10.00"> </text>
</a>
</g>
</g>
<!-- Node3&#45;&gt;Node1 -->
<g id="edge2" class="edge"><title>Node3&#45;&gt;Node1</title>
<path fill="none" stroke="#404040" d="M101.5,-292.263C101.5,-282.22 101.5,-270.098 101.5,-257.015"/>
<polygon fill="none" stroke="#404040" points="101.5,-256.761 97.5,-250.761 101.5,-244.761 105.5,-250.761 101.5,-256.761"/>
<text text-anchor="middle" x="144.5" y="-266" font-family="Helvetica,sans-Serif" font-size="10.00"> #m_trackFullName</text>
</g>
<!-- Node4 -->
<g id="node4" class="node"><title>Node4</title>
<g id="a_node4"><a xlink:title="STL class. ">
<polygon fill="none" stroke="#bfbfbf" points="49,-430.5 49,-498.5 144,-498.5 144,-430.5 49,-430.5"/>
<text text-anchor="start" x="57" y="-486.5" font-family="Helvetica,sans-Serif" font-size="10.00">std::basic_string&lt;</text>
<text text-anchor="middle" x="96.5" y="-475.5" font-family="Helvetica,sans-Serif" font-size="10.00"> char &gt;</text>
<polyline fill="none" stroke="#bfbfbf" points="49,-468.5 144,-468.5 "/>
<text text-anchor="middle" x="96.5" y="-456.5" font-family="Helvetica,sans-Serif" font-size="10.00"> </text>
<polyline fill="none" stroke="#bfbfbf" points="49,-449.5 144,-449.5 "/>
<text text-anchor="middle" x="96.5" y="-437.5" font-family="Helvetica,sans-Serif" font-size="10.00"> </text>
</a>
</g>
</g>
<!-- Node4&#45;&gt;Node3 -->
<g id="edge3" class="edge"><title>Node4&#45;&gt;Node3</title>
<path fill="none" stroke="midnightblue" d="M98.0316,-420.155C98.8416,-397.233 99.812,-369.771 100.52,-349.732"/>
<polygon fill="none" stroke="midnightblue" points="94.5277,-420.207 97.6723,-430.325 101.523,-420.454 94.5277,-420.207"/>
</g>
<!-- Node5 -->
<g id="node5" class="node"><title>Node5</title>
<polygon fill="none" stroke="#bfbfbf" points="152,-292.5 152,-349.5 283,-349.5 283,-292.5 152,-292.5"/>
<text text-anchor="middle" x="217.5" y="-337.5" font-family="Helvetica,sans-Serif" font-size="10.00">std::vector&lt; PointGPS * &gt;</text>
<polyline fill="none" stroke="#bfbfbf" points="152,-330.5 283,-330.5 "/>
<text text-anchor="middle" x="217.5" y="-318.5" font-family="Helvetica,sans-Serif" font-size="10.00"> </text>
<polyline fill="none" stroke="#bfbfbf" points="152,-311.5 283,-311.5 "/>
<text text-anchor="middle" x="217.5" y="-299.5" font-family="Helvetica,sans-Serif" font-size="10.00"> </text>
</g>
<!-- Node5&#45;&gt;Node1 -->
<g id="edge4" class="edge"><title>Node5&#45;&gt;Node1</title>
<path fill="none" stroke="#404040" d="M205.858,-292.351C201.623,-282.897 196.615,-272.352 191.5,-263 185.136,-251.363 178.151,-239.402 170.975,-227.609"/>
<polygon fill="none" stroke="#404040" points="170.921,-227.521 164.369,-224.508 164.63,-217.302 171.182,-220.315 170.921,-227.521"/>
<text text-anchor="middle" x="221" y="-266" font-family="Helvetica,sans-Serif" font-size="10.00"> #m_points</text>
</g>
<!-- Node6 -->
<g id="node6" class="node"><title>Node6</title>
<g id="a_node6"><a xlink:href="class_point_g_p_s.html" target="_top" xlink:title="{PointGPS\n|# m_altitude\l# m_timeStamp\l|+ addEmissionProbability()\l+ altitude()\l+ infos()\l+ PointGPS()\l+ PointGPS()\l+ timeStamp()\l+ updateProbability()\l}">
<polygon fill="none" stroke="black" points="162.5,-397.5 162.5,-531.5 296.5,-531.5 296.5,-397.5 162.5,-397.5"/>
<text text-anchor="middle" x="229.5" y="-519.5" font-family="Helvetica,sans-Serif" font-size="10.00">PointGPS</text>
<polyline fill="none" stroke="black" points="162.5,-512.5 296.5,-512.5 "/>
<text text-anchor="start" x="170.5" y="-500.5" font-family="Helvetica,sans-Serif" font-size="10.00"># m_altitude</text>
<text text-anchor="start" x="170.5" y="-489.5" font-family="Helvetica,sans-Serif" font-size="10.00"># m_timeStamp</text>
<polyline fill="none" stroke="black" points="162.5,-482.5 296.5,-482.5 "/>
<text text-anchor="start" x="170.5" y="-470.5" font-family="Helvetica,sans-Serif" font-size="10.00">+ addEmissionProbability()</text>
<text text-anchor="start" x="170.5" y="-459.5" font-family="Helvetica,sans-Serif" font-size="10.00">+ altitude()</text>
<text text-anchor="start" x="170.5" y="-448.5" font-family="Helvetica,sans-Serif" font-size="10.00">+ infos()</text>
<text text-anchor="start" x="170.5" y="-437.5" font-family="Helvetica,sans-Serif" font-size="10.00">+ PointGPS()</text>
<text text-anchor="start" x="170.5" y="-426.5" font-family="Helvetica,sans-Serif" font-size="10.00">+ PointGPS()</text>
<text text-anchor="start" x="170.5" y="-415.5" font-family="Helvetica,sans-Serif" font-size="10.00">+ timeStamp()</text>
<text text-anchor="start" x="170.5" y="-404.5" font-family="Helvetica,sans-Serif" font-size="10.00">+ updateProbability()</text>
</a>
</g>
</g>
<!-- Node6&#45;&gt;Node5 -->
<g id="edge5" class="edge"><title>Node6&#45;&gt;Node5</title>
<path fill="none" stroke="#404040" d="M223.886,-397.307C222.861,-385.21 221.82,-372.934 220.884,-361.903"/>
<polygon fill="none" stroke="#404040" points="220.856,-361.566 216.363,-355.926 219.841,-349.609 224.334,-355.25 220.856,-361.566"/>
<text text-anchor="middle" x="246" y="-371" font-family="Helvetica,sans-Serif" font-size="10.00"> +elements</text>
</g>
<!-- Node7 -->
<g id="node7" class="node"><title>Node7</title>
<g id="a_node7"><a xlink:href="class_point.html" target="_top" xlink:title="The Point class. ">
<polygon fill="none" stroke="black" points="118,-579.5 118,-801.5 243,-801.5 243,-579.5 118,-579.5"/>
<text text-anchor="middle" x="180.5" y="-789.5" font-family="Helvetica,sans-Serif" font-size="10.00">Point</text>
<polyline fill="none" stroke="black" points="118,-782.5 243,-782.5 "/>
<text text-anchor="start" x="126" y="-770.5" font-family="Helvetica,sans-Serif" font-size="10.00"># POINT_RADIUS</text>
<polyline fill="none" stroke="black" points="118,-763.5 243,-763.5 "/>
<text text-anchor="start" x="126" y="-751.5" font-family="Helvetica,sans-Serif" font-size="10.00">+ distanceToPoint()</text>
<text text-anchor="start" x="126" y="-740.5" font-family="Helvetica,sans-Serif" font-size="10.00">+ distanceToSegment()</text>
<text text-anchor="start" x="126" y="-729.5" font-family="Helvetica,sans-Serif" font-size="10.00">+ infos()</text>
<text text-anchor="start" x="126" y="-718.5" font-family="Helvetica,sans-Serif" font-size="10.00">+ Point()</text>
<text text-anchor="start" x="126" y="-707.5" font-family="Helvetica,sans-Serif" font-size="10.00">+ Point()</text>
<text text-anchor="start" x="126" y="-696.5" font-family="Helvetica,sans-Serif" font-size="10.00">+ projectionOnSegment()</text>
<text text-anchor="start" x="126" y="-685.5" font-family="Helvetica,sans-Serif" font-size="10.00">+ samePointAs()</text>
<text text-anchor="start" x="126" y="-674.5" font-family="Helvetica,sans-Serif" font-size="10.00">+ setx()</text>
<text text-anchor="start" x="126" y="-663.5" font-family="Helvetica,sans-Serif" font-size="10.00">+ x()</text>
<text text-anchor="start" x="126" y="-652.5" font-family="Helvetica,sans-Serif" font-size="10.00">+ ~Point()</text>
<text text-anchor="start" x="126" y="-641.5" font-family="Helvetica,sans-Serif" font-size="10.00">* x()</text>
<text text-anchor="start" x="126" y="-630.5" font-family="Helvetica,sans-Serif" font-size="10.00">* setx()</text>
<text text-anchor="start" x="126" y="-619.5" font-family="Helvetica,sans-Serif" font-size="10.00">* y()</text>
<text text-anchor="start" x="126" y="-608.5" font-family="Helvetica,sans-Serif" font-size="10.00">* sety()</text>
<text text-anchor="start" x="126" y="-597.5" font-family="Helvetica,sans-Serif" font-size="10.00">* m_x</text>
<text text-anchor="start" x="126" y="-586.5" font-family="Helvetica,sans-Serif" font-size="10.00">* m_y</text>
</a>
</g>
</g>
<!-- Node7&#45;&gt;Node6 -->
<g id="edge6" class="edge"><title>Node7&#45;&gt;Node6</title>
<path fill="none" stroke="midnightblue" d="M206.751,-569.495C209.599,-556.474 212.416,-543.598 215.046,-531.576"/>
<polygon fill="none" stroke="midnightblue" points="203.287,-568.952 204.569,-579.469 210.126,-570.448 203.287,-568.952"/>
</g>
<!-- Node8 -->
<g id="node8" class="node"><title>Node8</title>
<polygon fill="none" stroke="#bfbfbf" points="261,-662 261,-719 428,-719 428,-662 261,-662"/>
<text text-anchor="middle" x="344.5" y="-707" font-family="Helvetica,sans-Serif" font-size="10.00">std::vector&lt; EmissionProbability &gt;</text>
<polyline fill="none" stroke="#bfbfbf" points="261,-700 428,-700 "/>
<text text-anchor="middle" x="344.5" y="-688" font-family="Helvetica,sans-Serif" font-size="10.00"> </text>
<polyline fill="none" stroke="#bfbfbf" points="261,-681 428,-681 "/>
<text text-anchor="middle" x="344.5" y="-669" font-family="Helvetica,sans-Serif" font-size="10.00"> </text>
</g>
<!-- Node8&#45;&gt;Node6 -->
<g id="edge7" class="edge"><title>Node8&#45;&gt;Node6</title>
<path fill="none" stroke="#404040" d="M330.168,-661.583C314.968,-631.977 290.285,-583.898 269.164,-542.759"/>
<polygon fill="none" stroke="#404040" points="269.078,-542.591 262.779,-539.08 263.597,-531.915 269.896,-535.426 269.078,-542.591"/>
<text text-anchor="middle" x="330.5" y="-553" font-family="Helvetica,sans-Serif" font-size="10.00"> +m_emissionProbability</text>
</g>
<!-- Node9 -->
<g id="node9" class="node"><title>Node9</title>
<g id="a_node9"><a xlink:href="class_emission_probability.html" target="_top" xlink:title="{EmissionProbability\n|# m_distance\l# m_probability\l# m_roadId\l|+ distance()\l+ EmissionProbability()\l+ probability()\l+ roadId()\l+ updateProbability()\l}">
<polygon fill="none" stroke="black" points="285.5,-849.5 285.5,-972.5 403.5,-972.5 403.5,-849.5 285.5,-849.5"/>
<text text-anchor="middle" x="344.5" y="-960.5" font-family="Helvetica,sans-Serif" font-size="10.00">EmissionProbability</text>
<polyline fill="none" stroke="black" points="285.5,-953.5 403.5,-953.5 "/>
<text text-anchor="start" x="293.5" y="-941.5" font-family="Helvetica,sans-Serif" font-size="10.00"># m_distance</text>
<text text-anchor="start" x="293.5" y="-930.5" font-family="Helvetica,sans-Serif" font-size="10.00"># m_probability</text>
<text text-anchor="start" x="293.5" y="-919.5" font-family="Helvetica,sans-Serif" font-size="10.00"># m_roadId</text>
<polyline fill="none" stroke="black" points="285.5,-912.5 403.5,-912.5 "/>
<text text-anchor="start" x="293.5" y="-900.5" font-family="Helvetica,sans-Serif" font-size="10.00">+ distance()</text>
<text text-anchor="start" x="293.5" y="-889.5" font-family="Helvetica,sans-Serif" font-size="10.00">+ EmissionProbability()</text>
<text text-anchor="start" x="293.5" y="-878.5" font-family="Helvetica,sans-Serif" font-size="10.00">+ probability()</text>
<text text-anchor="start" x="293.5" y="-867.5" font-family="Helvetica,sans-Serif" font-size="10.00">+ roadId()</text>
<text text-anchor="start" x="293.5" y="-856.5" font-family="Helvetica,sans-Serif" font-size="10.00">+ updateProbability()</text>
</a>
</g>
</g>
<!-- Node9&#45;&gt;Node8 -->
<g id="edge8" class="edge"><title>Node9&#45;&gt;Node8</title>
<path fill="none" stroke="#404040" d="M344.5,-849.426C344.5,-811.74 344.5,-764.341 344.5,-731.35"/>
<polygon fill="none" stroke="#404040" points="344.5,-731.03 340.5,-725.031 344.5,-719.03 348.5,-725.03 344.5,-731.03"/>
<text text-anchor="middle" x="369" y="-823" font-family="Helvetica,sans-Serif" font-size="10.00"> +elements</text>
</g>
</g>
</svg>
        <g id="navigator" transform="translate(0 0)" fill="#404254">
                <rect fill="#f2f5e9" fill-opacity="0.5" stroke="#606060" stroke-width=".5" x="0" y="0" width="60" height="60"/>
                <use id="zoomplus" xlink:href="#zoomPlus" x="17" y="9" onmousedown="handleZoom(evt,'in')"/>
                <use id="zoomminus" xlink:href="#zoomMin" x="42" y="9" onmousedown="handleZoom(evt,'out')"/>
                <use id="reset" xlink:href="#resetDef" x="30" y="36" onmousedown="handleReset()"/>
                <g id="arrowUp" xlink:href="#dirArrow" transform="translate(30 24)" onmousedown="handlePan(0,-1)">
                  <use xlink:href="#rim" fill="#404040">
                        <set attributeName="fill" to="#808080" begin="arrowUp.mouseover" end="arrowUp.mouseout"/>
                  </use>
                  <path fill="none" stroke="white" stroke-width="1.5" d="M0,-3.0v7 M-2.5,-0.5L0,-3.0L2.5,-0.5"/>
                </g>
                <g id="arrowRight" xlink:href="#dirArrow" transform="rotate(90) translate(36 -43)" onmousedown="handlePan(1,0)">
                  <use xlink:href="#rim" fill="#404040">
                        <set attributeName="fill" to="#808080" begin="arrowRight.mouseover" end="arrowRight.mouseout"/>
                  </use>
                  <path fill="none" stroke="white" stroke-width="1.5" d="M0,-3.0v7 M-2.5,-0.5L0,-3.0L2.5,-0.5"/>
                </g>
                <g id="arrowDown" xlink:href="#dirArrow" transform="rotate(180) translate(-30 -48)" onmousedown="handlePan(0,1)">
                  <use xlink:href="#rim" fill="#404040">
                        <set attributeName="fill" to="#808080" begin="arrowDown.mouseover" end="arrowDown.mouseout"/>
                  </use>
                  <path fill="none" stroke="white" stroke-width="1.5" d="M0,-3.0v7 M-2.5,-0.5L0,-3.0L2.5,-0.5"/>
                </g>
                <g id="arrowLeft" xlink:href="#dirArrow" transform="rotate(270) translate(-36 17)" onmousedown="handlePan(-1,0)">
                  <use xlink:href="#rim" fill="#404040">
                        <set attributeName="fill" to="#808080" begin="arrowLeft.mouseover" end="arrowLeft.mouseout"/>
                  </use>
                  <path fill="none" stroke="white" stroke-width="1.5" d="M0,-3.0v7 M-2.5,-0.5L0,-3.0L2.5,-0.5"/>
                </g>
        </g>
        <svg viewBox="0 0 15 15" width="100%" height="30px" preserveAspectRatio="xMaxYMin meet">
         <g id="arrow_out" transform="scale(0.3 0.3)">
          <a xlink:href="class_track__coll__graph_org.svg" target="_base">
           <rect id="button" ry="5" rx="5" y="6" x="6" height="38" width="38"
                fill="#f2f5e9" fill-opacity="0.5" stroke="#606060" stroke-width="1.0"/>
           <path id="arrow"
             d="M 11.500037,31.436501 C 11.940474,20.09759 22.043105,11.32322 32.158766,21.979434 L 37.068811,17.246167 C 37.068811,17.246167 37.088388,32 37.088388,32 L 22.160133,31.978069 C 22.160133,31.978069 26.997745,27.140456 26.997745,27.140456 C 18.528582,18.264221 13.291696,25.230495 11.500037,31.436501 z"
             style="fill:#404040;"/>
          </a>
         </g>
        </svg>
</svg>
