<?xml version="1.0" encoding="UTF-8" standalone="no"?>
<!DOCTYPE svg PUBLIC "-//W3C//DTD SVG 1.1//EN"
 "http://www.w3.org/Graphics/SVG/1.1/DTD/svg11.dtd">
<!-- Generated by graphviz version 2.38.0 (20140413.2041)
 -->
<!-- Title: Loading::ready Pages: 1 -->
<svg width="653pt" height="142pt"
 viewBox="0.00 0.00 653.00 142.00" xmlns="http://www.w3.org/2000/svg" xmlns:xlink="http://www.w3.org/1999/xlink">
<g id="graph0" class="graph" transform="scale(1 1) rotate(0) translate(4 138)">
<title>Loading::ready</title>
<!-- Node1 -->
<g id="node1" class="node"><title>Node1</title>
<polygon fill="#bfbfbf" stroke="black" points="0,-57.5 0,-76.5 80,-76.5 80,-57.5 0,-57.5"/>
<text text-anchor="middle" x="40" y="-64.5" font-family="Helvetica,sans-Serif" font-size="10.00">Loading::ready</text>
</g>
<!-- Node2 -->
<g id="node2" class="node"><title>Node2</title>
<g id="a_node2"><a xlink:href="class_loading.html#a1d3058f5f9c701a3bd7300ae985ff83a" target="_top" xlink:title="Loading::launchFiles">
<polygon fill="none" stroke="black" points="116,-57.5 116,-76.5 222,-76.5 222,-57.5 116,-57.5"/>
<text text-anchor="middle" x="169" y="-64.5" font-family="Helvetica,sans-Serif" font-size="10.00">Loading::launchFiles</text>
</a>
</g>
</g>
<!-- Node1&#45;&gt;Node2 -->
<g id="edge1" class="edge"><title>Node1&#45;&gt;Node2</title>
<path fill="none" stroke="midnightblue" d="M90.4077,-67C98.6916,-67 107.312,-67 115.667,-67"/>
<polygon fill="midnightblue" stroke="midnightblue" points="90.1405,-63.5001 80.1405,-67 90.1404,-70.5001 90.1405,-63.5001"/>
</g>
<!-- Node3 -->
<g id="node3" class="node"><title>Node3</title>
<g id="a_node3"><a xlink:href="class_loading.html#ae0c96193667418083fc4a8c6cc19d9db" target="_top" xlink:title="Loading::loadFileCSVTrack">
<polygon fill="none" stroke="black" points="258,-114.5 258,-133.5 394,-133.5 394,-114.5 258,-114.5"/>
<text text-anchor="middle" x="326" y="-121.5" font-family="Helvetica,sans-Serif" font-size="10.00">Loading::loadFileCSVTrack</text>
</a>
</g>
</g>
<!-- Node2&#45;&gt;Node3 -->
<g id="edge2" class="edge"><title>Node2&#45;&gt;Node3</title>
<path fill="none" stroke="midnightblue" d="M199.323,-80.8123C216.255,-88.4957 238.08,-97.909 258,-105 267.568,-108.406 278.071,-111.622 287.864,-114.407"/>
<polygon fill="midnightblue" stroke="midnightblue" points="200.52,-77.5103 189.971,-76.519 197.599,-83.872 200.52,-77.5103"/>
</g>
<!-- Node6 -->
<g id="node6" class="node"><title>Node6</title>
<g id="a_node6"><a xlink:href="class_loading.html#a9a01f3e328100b681f3f08192fc9b208" target="_top" xlink:title="Loading::loadFileSHPTrack">
<polygon fill="none" stroke="black" points="258,-76.5 258,-95.5 394,-95.5 394,-76.5 258,-76.5"/>
<text text-anchor="middle" x="326" y="-83.5" font-family="Helvetica,sans-Serif" font-size="10.00">Loading::loadFileSHPTrack</text>
</a>
</g>
</g>
<!-- Node2&#45;&gt;Node6 -->
<g id="edge5" class="edge"><title>Node2&#45;&gt;Node6</title>
<path fill="none" stroke="midnightblue" d="M232.218,-74.6267C240.685,-75.6646 249.406,-76.7336 257.954,-77.7815"/>
<polygon fill="midnightblue" stroke="midnightblue" points="232.396,-71.1224 222.044,-73.3796 231.544,-78.0704 232.396,-71.1224"/>
</g>
<!-- Node7 -->
<g id="node7" class="node"><title>Node7</title>
<g id="a_node7"><a xlink:href="class_loading.html#a84d718939a74cf1680ea3e2409324194" target="_top" xlink:title="Loading::loadFileGrid">
<polygon fill="none" stroke="black" points="272,-38.5 272,-57.5 380,-57.5 380,-38.5 272,-38.5"/>
<text text-anchor="middle" x="326" y="-45.5" font-family="Helvetica,sans-Serif" font-size="10.00">Loading::loadFileGrid</text>
</a>
</g>
</g>
<!-- Node2&#45;&gt;Node7 -->
<g id="edge7" class="edge"><title>Node2&#45;&gt;Node7</title>
<path fill="none" stroke="midnightblue" d="M231.973,-59.4033C245.151,-57.7879 258.954,-56.096 271.771,-54.5248"/>
<polygon fill="midnightblue" stroke="midnightblue" points="231.544,-55.9296 222.044,-60.6204 232.396,-62.8776 231.544,-55.9296"/>
</g>
<!-- Node9 -->
<g id="node9" class="node"><title>Node9</title>
<g id="a_node9"><a xlink:href="class_loading.html#a1925efcb9ccc2a01359b40a59cb542d9" target="_top" xlink:title="Loading::getCountry">
<polygon fill="none" stroke="black" points="274,-0.5 274,-19.5 378,-19.5 378,-0.5 274,-0.5"/>
<text text-anchor="middle" x="326" y="-7.5" font-family="Helvetica,sans-Serif" font-size="10.00">Loading::getCountry</text>
</a>
</g>
</g>
<!-- Node2&#45;&gt;Node9 -->
<g id="edge10" class="edge"><title>Node2&#45;&gt;Node9</title>
<path fill="none" stroke="midnightblue" d="M199.323,-53.1877C216.255,-45.5043 238.08,-36.091 258,-29 267.568,-25.5941 278.071,-22.3777 287.864,-19.5931"/>
<polygon fill="midnightblue" stroke="midnightblue" points="197.599,-50.128 189.971,-57.481 200.52,-56.4897 197.599,-50.128"/>
</g>
<!-- Node4 -->
<g id="node4" class="node"><title>Node4</title>
<g id="a_node4"><a xlink:href="class_loading.html#ab603e821bd6b047fb04285e926974ff6" target="_top" xlink:title="Loading::track">
<polygon fill="none" stroke="black" points="435.5,-76.5 435.5,-95.5 513.5,-95.5 513.5,-76.5 435.5,-76.5"/>
<text text-anchor="middle" x="474.5" y="-83.5" font-family="Helvetica,sans-Serif" font-size="10.00">Loading::track</text>
</a>
</g>
</g>
<!-- Node3&#45;&gt;Node4 -->
<g id="edge3" class="edge"><title>Node3&#45;&gt;Node4</title>
<path fill="none" stroke="midnightblue" d="M373.695,-111.888C394.099,-106.596 417.681,-100.479 436.798,-95.5201"/>
<polygon fill="midnightblue" stroke="midnightblue" points="372.769,-108.512 363.968,-114.411 374.527,-115.288 372.769,-108.512"/>
</g>
<!-- Node5 -->
<g id="node5" class="node"><title>Node5</title>
<g id="a_node5"><a xlink:href="class_loading.html#a7634c001ec052e10c402e49f5be030db" target="_top" xlink:title="Loading::Loading">
<polygon fill="none" stroke="black" points="555,-38.5 555,-57.5 645,-57.5 645,-38.5 555,-38.5"/>
<text text-anchor="middle" x="600" y="-45.5" font-family="Helvetica,sans-Serif" font-size="10.00">Loading::Loading</text>
</a>
</g>
</g>
<!-- Node4&#45;&gt;Node5 -->
<g id="edge4" class="edge"><title>Node4&#45;&gt;Node5</title>
<path fill="none" stroke="midnightblue" d="M516.24,-73.4647C533.04,-68.2952 552.197,-62.4009 567.846,-57.5859"/>
<polygon fill="midnightblue" stroke="midnightblue" points="515.193,-70.1248 506.664,-76.411 517.251,-76.8153 515.193,-70.1248"/>
</g>
<!-- Node6&#45;&gt;Node4 -->
<g id="edge6" class="edge"><title>Node6&#45;&gt;Node4</title>
<path fill="none" stroke="midnightblue" d="M404.544,-86C415.277,-86 425.885,-86 435.445,-86"/>
<polygon fill="midnightblue" stroke="midnightblue" points="404.247,-82.5001 394.247,-86 404.247,-89.5001 404.247,-82.5001"/>
</g>
<!-- Node8 -->
<g id="node8" class="node"><title>Node8</title>
<g id="a_node8"><a xlink:href="class_loading.html#afb0b2fe451bdc3f6f2cc186903df96b4" target="_top" xlink:title="Loading::grid">
<polygon fill="none" stroke="black" points="438.5,-38.5 438.5,-57.5 510.5,-57.5 510.5,-38.5 438.5,-38.5"/>
<text text-anchor="middle" x="474.5" y="-45.5" font-family="Helvetica,sans-Serif" font-size="10.00">Loading::grid</text>
</a>
</g>
</g>
<!-- Node7&#45;&gt;Node8 -->
<g id="edge8" class="edge"><title>Node7&#45;&gt;Node8</title>
<path fill="none" stroke="midnightblue" d="M390.407,-48C406.82,-48 423.905,-48 438.284,-48"/>
<polygon fill="midnightblue" stroke="midnightblue" points="390.304,-44.5001 380.304,-48 390.304,-51.5001 390.304,-44.5001"/>
</g>
<!-- Node8&#45;&gt;Node5 -->
<g id="edge9" class="edge"><title>Node8&#45;&gt;Node5</title>
<path fill="none" stroke="midnightblue" d="M520.839,-48C531.853,-48 543.618,-48 554.588,-48"/>
<polygon fill="midnightblue" stroke="midnightblue" points="520.56,-44.5001 510.56,-48 520.56,-51.5001 520.56,-44.5001"/>
</g>
<!-- Node10 -->
<g id="node10" class="node"><title>Node10</title>
<g id="a_node10"><a xlink:href="class_loading.html#a8393eca502e0e8946e9e9b8ca57a565d" target="_top" xlink:title="Loading::country">
<polygon fill="none" stroke="black" points="430,-0.5 430,-19.5 519,-19.5 519,-0.5 430,-0.5"/>
<text text-anchor="middle" x="474.5" y="-7.5" font-family="Helvetica,sans-Serif" font-size="10.00">Loading::country</text>
</a>
</g>
</g>
<!-- Node9&#45;&gt;Node10 -->
<g id="edge11" class="edge"><title>Node9&#45;&gt;Node10</title>
<path fill="none" stroke="midnightblue" d="M388.267,-10C402.225,-10 416.781,-10 429.83,-10"/>
<polygon fill="midnightblue" stroke="midnightblue" points="388.239,-6.5001 378.239,-10 388.239,-13.5001 388.239,-6.5001"/>
</g>
<!-- Node10&#45;&gt;Node5 -->
<g id="edge12" class="edge"><title>Node10&#45;&gt;Node5</title>
<path fill="none" stroke="midnightblue" d="M516.24,-22.5353C533.04,-27.7048 552.197,-33.5991 567.846,-38.4141"/>
<polygon fill="midnightblue" stroke="midnightblue" points="517.251,-19.1847 506.664,-19.589 515.193,-25.8752 517.251,-19.1847"/>
</g>
</g>
</svg>
