<?xml version="1.0" encoding="UTF-8" standalone="no"?>
<!DOCTYPE svg PUBLIC "-//W3C//DTD SVG 1.1//EN"
 "http://www.w3.org/Graphics/SVG/1.1/DTD/svg11.dtd">
<!-- Generated by graphviz version 2.38.0 (20140413.2041)
 -->
<!-- Title: Grid::outputInfos Pages: 1 -->
<svg width="186pt" height="66pt"
 viewBox="0.00 0.00 186.00 66.00" xmlns="http://www.w3.org/2000/svg" xmlns:xlink="http://www.w3.org/1999/xlink">
<g id="graph0" class="graph" transform="scale(1 1) rotate(0) translate(4 62)">
<title>Grid::outputInfos</title>
<!-- Node1 -->
<g id="node1" class="node"><title>Node1</title>
<polygon fill="#bfbfbf" stroke="black" points="0,-19.5 0,-38.5 89,-38.5 89,-19.5 0,-19.5"/>
<text text-anchor="middle" x="44.5" y="-26.5" font-family="Helvetica,sans-Serif" font-size="10.00">Grid::outputInfos</text>
</g>
<!-- Node2 -->
<g id="node2" class="node"><title>Node2</title>
<g id="a_node2"><a xlink:href="main_8cpp.html#a640261e473790d1a87c2f33332460793" target="_top" xlink:title="dev_grid">
<polygon fill="none" stroke="black" points="125,-38.5 125,-57.5 178,-57.5 178,-38.5 125,-38.5"/>
<text text-anchor="middle" x="151.5" y="-45.5" font-family="Helvetica,sans-Serif" font-size="10.00">dev_grid</text>
</a>
</g>
</g>
<!-- Node1&#45;&gt;Node2 -->
<g id="edge1" class="edge"><title>Node1&#45;&gt;Node2</title>
<path fill="none" stroke="midnightblue" d="M99.1924,-38.7158C108.148,-40.3363 117.057,-41.9484 124.877,-43.3635"/>
<polygon fill="midnightblue" stroke="midnightblue" points="99.5807,-35.2293 89.1173,-36.8926 98.3342,-42.1174 99.5807,-35.2293"/>
</g>
<!-- Node3 -->
<g id="node3" class="node"><title>Node3</title>
<g id="a_node3"><a xlink:href="main_8cpp.html#a175f97306b953e738471cef90ef0a8a4" target="_top" xlink:title="dev_all">
<polygon fill="none" stroke="black" points="128,-0.5 128,-19.5 175,-19.5 175,-0.5 128,-0.5"/>
<text text-anchor="middle" x="151.5" y="-7.5" font-family="Helvetica,sans-Serif" font-size="10.00">dev_all</text>
</a>
</g>
</g>
<!-- Node1&#45;&gt;Node3 -->
<g id="edge2" class="edge"><title>Node1&#45;&gt;Node3</title>
<path fill="none" stroke="midnightblue" d="M99.1817,-19.2862C109.282,-17.4585 119.324,-15.6413 127.812,-14.1055"/>
<polygon fill="midnightblue" stroke="midnightblue" points="98.3342,-15.8826 89.1173,-21.1074 99.5807,-22.7707 98.3342,-15.8826"/>
</g>
</g>
</svg>
