<?xml version="1.0" encoding="UTF-8" standalone="no"?>
<!DOCTYPE svg PUBLIC "-//W3C//DTD SVG 1.1//EN"
 "http://www.w3.org/Graphics/SVG/1.1/DTD/svg11.dtd">
<!-- Generated by graphviz version 2.38.0 (20140413.2041)
 -->
<!-- Title: PointRoad::setid Pages: 1 -->
<svg width="896pt" height="104pt"
 viewBox="0.00 0.00 896.00 104.00" xmlns="http://www.w3.org/2000/svg" xmlns:xlink="http://www.w3.org/1999/xlink">
<g id="graph0" class="graph" transform="scale(1 1) rotate(0) translate(4 100)">
<title>PointRoad::setid</title>
<!-- Node1 -->
<g id="node1" class="node"><title>Node1</title>
<polygon fill="#bfbfbf" stroke="black" points="0,-38.5 0,-57.5 89,-57.5 89,-38.5 0,-38.5"/>
<text text-anchor="middle" x="44.5" y="-45.5" font-family="Helvetica,sans-Serif" font-size="10.00">PointRoad::setid</text>
</g>
<!-- Node2 -->
<g id="node2" class="node"><title>Node2</title>
<g id="a_node2"><a xlink:href="class_grid.html#aba1830bc145f128d6deeed29cfb94c9f" target="_top" xlink:title="addRoad Creates a new road and inserts it in m_road ">
<polygon fill="none" stroke="black" points="125,-38.5 125,-57.5 205,-57.5 205,-38.5 125,-38.5"/>
<text text-anchor="middle" x="165" y="-45.5" font-family="Helvetica,sans-Serif" font-size="10.00">Grid::addRoad</text>
</a>
</g>
</g>
<!-- Node1&#45;&gt;Node2 -->
<g id="edge1" class="edge"><title>Node1&#45;&gt;Node2</title>
<path fill="none" stroke="midnightblue" d="M99.5169,-48C108,-48 116.627,-48 124.696,-48"/>
<polygon fill="midnightblue" stroke="midnightblue" points="99.2884,-44.5001 89.2883,-48 99.2883,-51.5001 99.2884,-44.5001"/>
</g>
<!-- Node3 -->
<g id="node3" class="node"><title>Node3</title>
<g id="a_node3"><a xlink:href="class_grid.html#ae848f1c59c544adc1af9133409ee0106" target="_top" xlink:title="readFromCSV Reads a csv file and inserts info into the corresponding attributs ">
<polygon fill="none" stroke="black" points="241,-38.5 241,-57.5 344,-57.5 344,-38.5 241,-38.5"/>
<text text-anchor="middle" x="292.5" y="-45.5" font-family="Helvetica,sans-Serif" font-size="10.00">Grid::readFromCSV</text>
</a>
</g>
</g>
<!-- Node2&#45;&gt;Node3 -->
<g id="edge2" class="edge"><title>Node2&#45;&gt;Node3</title>
<path fill="none" stroke="midnightblue" d="M215.141,-48C223.616,-48 232.438,-48 240.949,-48"/>
<polygon fill="midnightblue" stroke="midnightblue" points="215.021,-44.5001 205.021,-48 215.021,-51.5001 215.021,-44.5001"/>
</g>
<!-- Node4 -->
<g id="node4" class="node"><title>Node4</title>
<g id="a_node4"><a xlink:href="main_8cpp.html#a640261e473790d1a87c2f33332460793" target="_top" xlink:title="dev_grid">
<polygon fill="none" stroke="black" points="423.5,-76.5 423.5,-95.5 476.5,-95.5 476.5,-76.5 423.5,-76.5"/>
<text text-anchor="middle" x="450" y="-83.5" font-family="Helvetica,sans-Serif" font-size="10.00">dev_grid</text>
</a>
</g>
</g>
<!-- Node3&#45;&gt;Node4 -->
<g id="edge3" class="edge"><title>Node3&#45;&gt;Node4</title>
<path fill="none" stroke="midnightblue" d="M342.723,-60.0288C369.528,-66.5791 401.584,-74.4128 423.431,-79.7517"/>
<polygon fill="midnightblue" stroke="midnightblue" points="343.284,-56.563 332.739,-57.589 341.622,-63.3629 343.284,-56.563"/>
</g>
<!-- Node5 -->
<g id="node5" class="node"><title>Node5</title>
<g id="a_node5"><a xlink:href="main_8cpp.html#a175f97306b953e738471cef90ef0a8a4" target="_top" xlink:title="dev_all">
<polygon fill="none" stroke="black" points="426.5,-38.5 426.5,-57.5 473.5,-57.5 473.5,-38.5 426.5,-38.5"/>
<text text-anchor="middle" x="450" y="-45.5" font-family="Helvetica,sans-Serif" font-size="10.00">dev_all</text>
</a>
</g>
</g>
<!-- Node3&#45;&gt;Node5 -->
<g id="edge4" class="edge"><title>Node3&#45;&gt;Node5</title>
<path fill="none" stroke="midnightblue" d="M354.653,-48C379.826,-48 407.434,-48 426.243,-48"/>
<polygon fill="midnightblue" stroke="midnightblue" points="354.417,-44.5001 344.417,-48 354.416,-51.5001 354.417,-44.5001"/>
</g>
<!-- Node6 -->
<g id="node6" class="node"><title>Node6</title>
<g id="a_node6"><a xlink:href="class_main_window.html#ad39bbe8ced0d3248206ac0ca6c444d55" target="_top" xlink:title="MainWindow::readyToNext1">
<polygon fill="none" stroke="black" points="380,-0.5 380,-19.5 520,-19.5 520,-0.5 380,-0.5"/>
<text text-anchor="middle" x="450" y="-7.5" font-family="Helvetica,sans-Serif" font-size="10.00">MainWindow::readyToNext1</text>
</a>
</g>
</g>
<!-- Node3&#45;&gt;Node6 -->
<g id="edge5" class="edge"><title>Node3&#45;&gt;Node6</title>
<path fill="none" stroke="midnightblue" d="M342.474,-36.032C364.265,-30.7069 389.567,-24.5238 410.043,-19.5201"/>
<polygon fill="midnightblue" stroke="midnightblue" points="341.622,-32.6371 332.739,-38.411 343.284,-39.437 341.622,-32.6371"/>
</g>
<!-- Node7 -->
<g id="node7" class="node"><title>Node7</title>
<g id="a_node7"><a xlink:href="class_main_window.html#af773488e0b16efe6c0fc67ad348b86b2" target="_top" xlink:title="MainWindow::createConnections">
<polygon fill="none" stroke="black" points="556,-0.5 556,-19.5 717,-19.5 717,-0.5 556,-0.5"/>
<text text-anchor="middle" x="636.5" y="-7.5" font-family="Helvetica,sans-Serif" font-size="10.00">MainWindow::createConnections</text>
</a>
</g>
</g>
<!-- Node6&#45;&gt;Node7 -->
<g id="edge6" class="edge"><title>Node6&#45;&gt;Node7</title>
<path fill="none" stroke="midnightblue" d="M530.446,-10C538.9,-10 547.501,-10 555.956,-10"/>
<polygon fill="midnightblue" stroke="midnightblue" points="530.226,-6.5001 520.226,-10 530.226,-13.5001 530.226,-6.5001"/>
</g>
<!-- Node8 -->
<g id="node8" class="node"><title>Node8</title>
<g id="a_node8"><a xlink:href="class_main_window.html#a8b244be8b7b7db1b08de2a2acb9409db" target="_top" xlink:title="MainWindow::MainWindow">
<polygon fill="none" stroke="black" points="753,-0.5 753,-19.5 888,-19.5 888,-0.5 753,-0.5"/>
<text text-anchor="middle" x="820.5" y="-7.5" font-family="Helvetica,sans-Serif" font-size="10.00">MainWindow::MainWindow</text>
</a>
</g>
</g>
<!-- Node7&#45;&gt;Node8 -->
<g id="edge7" class="edge"><title>Node7&#45;&gt;Node8</title>
<path fill="none" stroke="midnightblue" d="M727.196,-10C735.85,-10 744.52,-10 752.892,-10"/>
<polygon fill="midnightblue" stroke="midnightblue" points="727.063,-6.5001 717.063,-10 727.063,-13.5001 727.063,-6.5001"/>
</g>
</g>
</svg>
