<?xml version="1.0" encoding="UTF-8" standalone="no"?>
<!DOCTYPE svg PUBLIC "-//W3C//DTD SVG 1.1//EN"
 "http://www.w3.org/Graphics/SVG/1.1/DTD/svg11.dtd">
<!-- Generated by graphviz version 2.38.0 (20140413.2041)
 -->
<!-- Title: Grid::setTrackBoundingBox Pages: 1 -->
<svg width="246pt" height="142pt"
 viewBox="0.00 0.00 246.00 142.00" xmlns="http://www.w3.org/2000/svg" xmlns:xlink="http://www.w3.org/1999/xlink">
<g id="graph0" class="graph" transform="scale(1 1) rotate(0) translate(4 138)">
<title>Grid::setTrackBoundingBox</title>
<!-- Node1 -->
<g id="node1" class="node"><title>Node1</title>
<polygon fill="#bfbfbf" stroke="black" points="0,-57.5 0,-76.5 137,-76.5 137,-57.5 0,-57.5"/>
<text text-anchor="middle" x="68.5" y="-64.5" font-family="Helvetica,sans-Serif" font-size="10.00">Grid::setTrackBoundingBox</text>
</g>
<!-- Node2 -->
<g id="node2" class="node"><title>Node2</title>
<g id="a_node2"><a xlink:href="class_grid.html#a13d6d18b26d70ab5871a8c2ddf7fa1b5" target="_top" xlink:title="Grid::xMin">
<polygon fill="none" stroke="black" points="174.5,-114.5 174.5,-133.5 236.5,-133.5 236.5,-114.5 174.5,-114.5"/>
<text text-anchor="middle" x="205.5" y="-121.5" font-family="Helvetica,sans-Serif" font-size="10.00">Grid::xMin</text>
</a>
</g>
</g>
<!-- Node1&#45;&gt;Node2 -->
<g id="edge1" class="edge"><title>Node1&#45;&gt;Node2</title>
<path fill="none" stroke="midnightblue" d="M92.096,-76.5405C114.096,-85.8294 147.743,-100.036 172.493,-110.486"/>
<polygon fill="midnightblue" stroke="midnightblue" points="171.256,-113.763 181.83,-114.428 173.979,-107.314 171.256,-113.763"/>
</g>
<!-- Node3 -->
<g id="node3" class="node"><title>Node3</title>
<g id="a_node3"><a xlink:href="class_grid.html#a5e140affdf9653d8badf596f1f151908" target="_top" xlink:title="Grid::xMax">
<polygon fill="none" stroke="black" points="173,-76.5 173,-95.5 238,-95.5 238,-76.5 173,-76.5"/>
<text text-anchor="middle" x="205.5" y="-83.5" font-family="Helvetica,sans-Serif" font-size="10.00">Grid::xMax</text>
</a>
</g>
</g>
<!-- Node1&#45;&gt;Node3 -->
<g id="edge2" class="edge"><title>Node1&#45;&gt;Node3</title>
<path fill="none" stroke="midnightblue" d="M137.396,-76.5557C145.978,-77.7636 154.553,-78.9704 162.564,-80.0978"/>
<polygon fill="midnightblue" stroke="midnightblue" points="162.333,-83.5998 172.723,-81.5277 163.309,-76.6681 162.333,-83.5998"/>
</g>
<!-- Node4 -->
<g id="node4" class="node"><title>Node4</title>
<g id="a_node4"><a xlink:href="class_grid.html#a6acf01d876905d8709f4fb8ebe18aa94" target="_top" xlink:title="Grid::yMin">
<polygon fill="none" stroke="black" points="174.5,-38.5 174.5,-57.5 236.5,-57.5 236.5,-38.5 174.5,-38.5"/>
<text text-anchor="middle" x="205.5" y="-45.5" font-family="Helvetica,sans-Serif" font-size="10.00">Grid::yMin</text>
</a>
</g>
</g>
<!-- Node1&#45;&gt;Node4 -->
<g id="edge3" class="edge"><title>Node1&#45;&gt;Node4</title>
<path fill="none" stroke="midnightblue" d="M137.396,-57.4443C146.638,-56.1435 155.871,-54.8441 164.4,-53.6436"/>
<polygon fill="midnightblue" stroke="midnightblue" points="164.995,-57.0946 174.409,-52.235 164.019,-50.1629 164.995,-57.0946"/>
</g>
<!-- Node5 -->
<g id="node5" class="node"><title>Node5</title>
<g id="a_node5"><a xlink:href="class_grid.html#abfa1a601742ca69a5ecc3b6a5318d7a8" target="_top" xlink:title="Grid::yMax">
<polygon fill="none" stroke="black" points="173,-0.5 173,-19.5 238,-19.5 238,-0.5 173,-0.5"/>
<text text-anchor="middle" x="205.5" y="-7.5" font-family="Helvetica,sans-Serif" font-size="10.00">Grid::yMax</text>
</a>
</g>
</g>
<!-- Node1&#45;&gt;Node5 -->
<g id="edge4" class="edge"><title>Node1&#45;&gt;Node5</title>
<path fill="none" stroke="midnightblue" d="M92.096,-57.4595C114.096,-48.1706 147.743,-33.9642 172.493,-23.5143"/>
<polygon fill="midnightblue" stroke="midnightblue" points="173.979,-26.6858 181.83,-19.5716 171.256,-20.237 173.979,-26.6858"/>
</g>
</g>
</svg>
