<?xml version="1.0" encoding="UTF-8" standalone="no"?>
<!DOCTYPE svg PUBLIC "-//W3C//DTD SVG 1.1//EN"
 "http://www.w3.org/Graphics/SVG/1.1/DTD/svg11.dtd">
<!-- Generated by graphviz version 2.38.0 (20140413.2041)
 -->
<!-- Title: Solver Pages: 1 -->
<svg width="1161pt" height="1328pt"
 viewBox="0.00 0.00 1161.00 1328.00" xmlns="http://www.w3.org/2000/svg" xmlns:xlink="http://www.w3.org/1999/xlink">
<g id="graph0" class="graph" transform="scale(1 1) rotate(0) translate(4 1324)">
<title>Solver</title>
<!-- Node1 -->
<g id="node1" class="node"><title>Node1</title>
<polygon fill="#bfbfbf" stroke="black" points="620.5,-0.5 620.5,-222.5 743.5,-222.5 743.5,-0.5 620.5,-0.5"/>
<text text-anchor="middle" x="682" y="-210.5" font-family="Helvetica,sans-Serif" font-size="10.00">Solver</text>
<polyline fill="none" stroke="black" points="620.5,-203.5 743.5,-203.5 "/>
<text text-anchor="start" x="628.5" y="-191.5" font-family="Helvetica,sans-Serif" font-size="10.00">+ m_gridFilename</text>
<text text-anchor="start" x="628.5" y="-180.5" font-family="Helvetica,sans-Serif" font-size="10.00">+ m_trackFilename</text>
<text text-anchor="start" x="628.5" y="-169.5" font-family="Helvetica,sans-Serif" font-size="10.00"># m_currentStep</text>
<polyline fill="none" stroke="black" points="620.5,-162.5 743.5,-162.5 "/>
<text text-anchor="start" x="628.5" y="-150.5" font-family="Helvetica,sans-Serif" font-size="10.00">+ buildRoadPath()</text>
<text text-anchor="start" x="628.5" y="-139.5" font-family="Helvetica,sans-Serif" font-size="10.00">+ filterSpace()</text>
<text text-anchor="start" x="628.5" y="-128.5" font-family="Helvetica,sans-Serif" font-size="10.00">+ filterTemp()</text>
<text text-anchor="start" x="628.5" y="-117.5" font-family="Helvetica,sans-Serif" font-size="10.00">+ getIndexFromRoadId()</text>
<text text-anchor="start" x="628.5" y="-106.5" font-family="Helvetica,sans-Serif" font-size="10.00">+ readFiles()</text>
<text text-anchor="start" x="628.5" y="-95.5" font-family="Helvetica,sans-Serif" font-size="10.00">+ setDistance()</text>
<text text-anchor="start" x="628.5" y="-84.5" font-family="Helvetica,sans-Serif" font-size="10.00">+ Solver()</text>
<text text-anchor="start" x="628.5" y="-73.5" font-family="Helvetica,sans-Serif" font-size="10.00">+ start()</text>
<text text-anchor="start" x="628.5" y="-62.5" font-family="Helvetica,sans-Serif" font-size="10.00">+ viterbiSetup()</text>
<text text-anchor="start" x="628.5" y="-51.5" font-family="Helvetica,sans-Serif" font-size="10.00">+ onSignalNeighbours()</text>
<text text-anchor="start" x="628.5" y="-40.5" font-family="Helvetica,sans-Serif" font-size="10.00">+ onSignalNextStep()</text>
<text text-anchor="start" x="628.5" y="-29.5" font-family="Helvetica,sans-Serif" font-size="10.00">+ onSignalSetGrid()</text>
<text text-anchor="start" x="628.5" y="-18.5" font-family="Helvetica,sans-Serif" font-size="10.00">+ onSignalSetTrack()</text>
<text text-anchor="start" x="628.5" y="-7.5" font-family="Helvetica,sans-Serif" font-size="10.00">+ onSignalStart()</text>
</g>
<!-- Node2 -->
<g id="node2" class="node"><title>Node2</title>
<polygon fill="none" stroke="#bfbfbf" points="226.5,-595.5 226.5,-652.5 279.5,-652.5 279.5,-595.5 226.5,-595.5"/>
<text text-anchor="middle" x="253" y="-640.5" font-family="Helvetica,sans-Serif" font-size="10.00">QObject</text>
<polyline fill="none" stroke="#bfbfbf" points="226.5,-633.5 279.5,-633.5 "/>
<text text-anchor="middle" x="253" y="-621.5" font-family="Helvetica,sans-Serif" font-size="10.00"> </text>
<polyline fill="none" stroke="#bfbfbf" points="226.5,-614.5 279.5,-614.5 "/>
<text text-anchor="middle" x="253" y="-602.5" font-family="Helvetica,sans-Serif" font-size="10.00"> </text>
</g>
<!-- Node2&#45;&gt;Node1 -->
<g id="edge1" class="edge"><title>Node2&#45;&gt;Node1</title>
<path fill="none" stroke="midnightblue" d="M239.375,-585.337C217.51,-517.738 183.155,-374.198 247,-281 331.791,-157.226 521.652,-124.352 620.119,-115.635"/>
<polygon fill="none" stroke="midnightblue" points="236.154,-586.743 242.629,-595.13 242.797,-584.536 236.154,-586.743"/>
</g>
<!-- Node3 -->
<g id="node3" class="node"><title>Node3</title>
<g id="a_node3"><a xlink:href="class_grid.html" target="_top" xlink:title="Grid embedded roads. This describes the network. ">
<polygon fill="none" stroke="black" points="256.5,-281.5 256.5,-536.5 427.5,-536.5 427.5,-281.5 256.5,-281.5"/>
<text text-anchor="middle" x="342" y="-524.5" font-family="Helvetica,sans-Serif" font-size="10.00">Grid</text>
<polyline fill="none" stroke="black" points="256.5,-517.5 427.5,-517.5 "/>
<text text-anchor="start" x="264.5" y="-505.5" font-family="Helvetica,sans-Serif" font-size="10.00"># counter</text>
<polyline fill="none" stroke="black" points="256.5,-498.5 427.5,-498.5 "/>
<text text-anchor="start" x="264.5" y="-486.5" font-family="Helvetica,sans-Serif" font-size="10.00">+ addRoad()</text>
<text text-anchor="start" x="264.5" y="-475.5" font-family="Helvetica,sans-Serif" font-size="10.00">+ buildMarkovMatrix()</text>
<text text-anchor="start" x="264.5" y="-464.5" font-family="Helvetica,sans-Serif" font-size="10.00">+ computeDistanceFraction()</text>
<text text-anchor="start" x="264.5" y="-453.5" font-family="Helvetica,sans-Serif" font-size="10.00">+ getDistanceBetweenProjections()</text>
<text text-anchor="start" x="264.5" y="-442.5" font-family="Helvetica,sans-Serif" font-size="10.00">+ getDistanceToExtremity()</text>
<text text-anchor="start" x="264.5" y="-431.5" font-family="Helvetica,sans-Serif" font-size="10.00">+ getNoOfPoints()</text>
<text text-anchor="start" x="264.5" y="-420.5" font-family="Helvetica,sans-Serif" font-size="10.00">+ getNoOfRoads()</text>
<text text-anchor="start" x="264.5" y="-409.5" font-family="Helvetica,sans-Serif" font-size="10.00">+ getPoints()</text>
<text text-anchor="start" x="264.5" y="-398.5" font-family="Helvetica,sans-Serif" font-size="10.00">+ getProjectedPointAndDistance()</text>
<text text-anchor="start" x="264.5" y="-387.5" font-family="Helvetica,sans-Serif" font-size="10.00">+ getRoadEntry()</text>
<text text-anchor="start" x="264.5" y="-376.5" font-family="Helvetica,sans-Serif" font-size="10.00">and 20 more...</text>
<text text-anchor="start" x="264.5" y="-365.5" font-family="Helvetica,sans-Serif" font-size="10.00">* m_xMin</text>
<text text-anchor="start" x="264.5" y="-354.5" font-family="Helvetica,sans-Serif" font-size="10.00">* m_xMax</text>
<text text-anchor="start" x="264.5" y="-343.5" font-family="Helvetica,sans-Serif" font-size="10.00">* m_yMin</text>
<text text-anchor="start" x="264.5" y="-332.5" font-family="Helvetica,sans-Serif" font-size="10.00">* m_yMax</text>
<text text-anchor="start" x="264.5" y="-321.5" font-family="Helvetica,sans-Serif" font-size="10.00">* m_xMinGrid</text>
<text text-anchor="start" x="264.5" y="-310.5" font-family="Helvetica,sans-Serif" font-size="10.00">* m_xMaxGrid</text>
<text text-anchor="start" x="264.5" y="-299.5" font-family="Helvetica,sans-Serif" font-size="10.00">* m_yMinGrid</text>
<text text-anchor="start" x="264.5" y="-288.5" font-family="Helvetica,sans-Serif" font-size="10.00">* m_yMaxGrid</text>
</a>
</g>
</g>
<!-- Node2&#45;&gt;Node3 -->
<g id="edge3" class="edge"><title>Node2&#45;&gt;Node3</title>
<path fill="none" stroke="midnightblue" d="M268.535,-585.821C274.463,-571.634 281.604,-554.544 289.073,-536.667"/>
<polygon fill="none" stroke="midnightblue" points="265.261,-584.578 264.635,-595.154 271.72,-587.276 265.261,-584.578"/>
</g>
<!-- Node16 -->
<g id="node16" class="node"><title>Node16</title>
<g id="a_node16"><a xlink:href="class_track.html" target="_top" xlink:title="The Track class. ">
<polygon fill="none" stroke="black" points="446,-287 446,-531 572,-531 572,-287 446,-287"/>
<text text-anchor="middle" x="509" y="-519" font-family="Helvetica,sans-Serif" font-size="10.00">Track</text>
<polyline fill="none" stroke="black" points="446,-512 572,-512 "/>
<text text-anchor="middle" x="509" y="-500" font-family="Helvetica,sans-Serif" font-size="10.00"> </text>
<polyline fill="none" stroke="black" points="446,-493 572,-493 "/>
<text text-anchor="start" x="454" y="-481" font-family="Helvetica,sans-Serif" font-size="10.00">+ addPoint()</text>
<text text-anchor="start" x="454" y="-470" font-family="Helvetica,sans-Serif" font-size="10.00">+ applyThresholdToBox()</text>
<text text-anchor="start" x="454" y="-459" font-family="Helvetica,sans-Serif" font-size="10.00">+ delPointGPS()</text>
<text text-anchor="start" x="454" y="-448" font-family="Helvetica,sans-Serif" font-size="10.00">+ getNoOfPoints()</text>
<text text-anchor="start" x="454" y="-437" font-family="Helvetica,sans-Serif" font-size="10.00">+ getPoints()</text>
<text text-anchor="start" x="454" y="-426" font-family="Helvetica,sans-Serif" font-size="10.00">+ getPointsAsPointer()</text>
<text text-anchor="start" x="454" y="-415" font-family="Helvetica,sans-Serif" font-size="10.00">+ infos()</text>
<text text-anchor="start" x="454" y="-404" font-family="Helvetica,sans-Serif" font-size="10.00">+ outputInfos()</text>
<text text-anchor="start" x="454" y="-393" font-family="Helvetica,sans-Serif" font-size="10.00">+ readFromCSV()</text>
<text text-anchor="start" x="454" y="-382" font-family="Helvetica,sans-Serif" font-size="10.00">+ spaceFilter()</text>
<text text-anchor="start" x="454" y="-371" font-family="Helvetica,sans-Serif" font-size="10.00">+ temporalFilter()</text>
<text text-anchor="start" x="454" y="-360" font-family="Helvetica,sans-Serif" font-size="10.00">+ Track()</text>
<text text-anchor="start" x="454" y="-349" font-family="Helvetica,sans-Serif" font-size="10.00">+ updateBox()</text>
<text text-anchor="start" x="454" y="-338" font-family="Helvetica,sans-Serif" font-size="10.00">+ ~Track()</text>
<text text-anchor="start" x="454" y="-327" font-family="Helvetica,sans-Serif" font-size="10.00">* m_xMin</text>
<text text-anchor="start" x="454" y="-316" font-family="Helvetica,sans-Serif" font-size="10.00">* m_xMax</text>
<text text-anchor="start" x="454" y="-305" font-family="Helvetica,sans-Serif" font-size="10.00">* m_yMin</text>
<text text-anchor="start" x="454" y="-294" font-family="Helvetica,sans-Serif" font-size="10.00">* m_yMax</text>
</a>
</g>
</g>
<!-- Node2&#45;&gt;Node16 -->
<g id="edge18" class="edge"><title>Node2&#45;&gt;Node16</title>
<path fill="none" stroke="midnightblue" d="M288.434,-604.257C301.145,-597.683 315.637,-590.356 329,-584 340.726,-578.422 426.337,-545.674 436,-537 439.407,-533.942 442.695,-530.687 445.865,-527.276"/>
<polygon fill="none" stroke="midnightblue" points="286.791,-601.167 279.535,-608.887 290.022,-607.376 286.791,-601.167"/>
</g>
<!-- Node3&#45;&gt;Node1 -->
<g id="edge2" class="edge"><title>Node3&#45;&gt;Node1</title>
<path fill="none" stroke="#404040" d="M427.557,-290.475C430.673,-287.22 433.823,-284.053 437,-281 489.496,-230.552 558.509,-184.549 609.908,-153.403"/>
<polygon fill="none" stroke="#404040" points="609.981,-153.359 613.066,-146.841 620.269,-147.181 617.184,-153.7 609.981,-153.359"/>
<text text-anchor="middle" x="492.5" y="-249.5" font-family="Helvetica,sans-Serif" font-size="10.00"> +grid</text>
</g>
<!-- Node4 -->
<g id="node4" class="node"><title>Node4</title>
<polygon fill="none" stroke="#bfbfbf" points="623.5,-595.5 623.5,-652.5 750.5,-652.5 750.5,-595.5 623.5,-595.5"/>
<text text-anchor="middle" x="687" y="-640.5" font-family="Helvetica,sans-Serif" font-size="10.00">std::vector&lt; PointRoad &gt;</text>
<polyline fill="none" stroke="#bfbfbf" points="623.5,-633.5 750.5,-633.5 "/>
<text text-anchor="middle" x="687" y="-621.5" font-family="Helvetica,sans-Serif" font-size="10.00"> </text>
<polyline fill="none" stroke="#bfbfbf" points="623.5,-614.5 750.5,-614.5 "/>
<text text-anchor="middle" x="687" y="-602.5" font-family="Helvetica,sans-Serif" font-size="10.00"> </text>
</g>
<!-- Node4&#45;&gt;Node1 -->
<g id="edge26" class="edge"><title>Node4&#45;&gt;Node1</title>
<path fill="none" stroke="#404040" d="M748.965,-595.402C773.903,-583.674 797.626,-571.459 801,-566 803.57,-561.841 804.284,-558.621 801,-555 773.4,-524.568 644.6,-567.432 617,-537 578.782,-494.861 606.587,-336.928 617,-281 619.858,-265.648 624.065,-249.891 628.987,-234.469"/>
<polygon fill="none" stroke="#404040" points="629.096,-234.141 627.191,-227.186 632.879,-222.753 634.783,-229.708 629.096,-234.141"/>
<text text-anchor="middle" x="652" y="-406.5" font-family="Helvetica,sans-Serif" font-size="10.00"> +m_roadPoints</text>
</g>
<!-- Node4&#45;&gt;Node3 -->
<g id="edge4" class="edge"><title>Node4&#45;&gt;Node3</title>
<path fill="none" stroke="#404040" d="M662.768,-595.199C648.396,-580.657 628.932,-564.043 608,-555 541.272,-526.173 506.888,-570.056 438.367,-536.788"/>
<polygon fill="none" stroke="#404040" points="438.133,-536.664 430.958,-537.382 427.535,-531.034 434.711,-530.316 438.133,-536.664"/>
<text text-anchor="middle" x="672" y="-558" font-family="Helvetica,sans-Serif" font-size="10.00"> +m_vectorOfPoints</text>
</g>
<!-- Node5 -->
<g id="node5" class="node"><title>Node5</title>
<g id="a_node5"><a xlink:href="class_point_road.html" target="_top" xlink:title="{PointRoad\n|# m_id\l# m_isNode\l# counter\l|+ id()\l+ infos()\l+ isNode()\l+ outputInfos()\l+ PointRoad()\l+ PointRoad()\l+ setid()\l+ updateBelongToRoad()\l+ vectorOfRoadId()\l}">
<polygon fill="none" stroke="black" points="624.5,-711.5 624.5,-878.5 749.5,-878.5 749.5,-711.5 624.5,-711.5"/>
<text text-anchor="middle" x="687" y="-866.5" font-family="Helvetica,sans-Serif" font-size="10.00">PointRoad</text>
<polyline fill="none" stroke="black" points="624.5,-859.5 749.5,-859.5 "/>
<text text-anchor="start" x="632.5" y="-847.5" font-family="Helvetica,sans-Serif" font-size="10.00"># m_id</text>
<text text-anchor="start" x="632.5" y="-836.5" font-family="Helvetica,sans-Serif" font-size="10.00"># m_isNode</text>
<text text-anchor="start" x="632.5" y="-825.5" font-family="Helvetica,sans-Serif" font-size="10.00"># counter</text>
<polyline fill="none" stroke="black" points="624.5,-818.5 749.5,-818.5 "/>
<text text-anchor="start" x="632.5" y="-806.5" font-family="Helvetica,sans-Serif" font-size="10.00">+ id()</text>
<text text-anchor="start" x="632.5" y="-795.5" font-family="Helvetica,sans-Serif" font-size="10.00">+ infos()</text>
<text text-anchor="start" x="632.5" y="-784.5" font-family="Helvetica,sans-Serif" font-size="10.00">+ isNode()</text>
<text text-anchor="start" x="632.5" y="-773.5" font-family="Helvetica,sans-Serif" font-size="10.00">+ outputInfos()</text>
<text text-anchor="start" x="632.5" y="-762.5" font-family="Helvetica,sans-Serif" font-size="10.00">+ PointRoad()</text>
<text text-anchor="start" x="632.5" y="-751.5" font-family="Helvetica,sans-Serif" font-size="10.00">+ PointRoad()</text>
<text text-anchor="start" x="632.5" y="-740.5" font-family="Helvetica,sans-Serif" font-size="10.00">+ setid()</text>
<text text-anchor="start" x="632.5" y="-729.5" font-family="Helvetica,sans-Serif" font-size="10.00">+ updateBelongToRoad()</text>
<text text-anchor="start" x="632.5" y="-718.5" font-family="Helvetica,sans-Serif" font-size="10.00">+ vectorOfRoadId()</text>
</a>
</g>
</g>
<!-- Node5&#45;&gt;Node4 -->
<g id="edge5" class="edge"><title>Node5&#45;&gt;Node4</title>
<path fill="none" stroke="#404040" d="M687,-711.48C687,-695.186 687,-678.794 687,-664.728"/>
<polygon fill="none" stroke="#404040" points="687,-664.535 683,-658.535 687,-652.535 691,-658.535 687,-664.535"/>
<text text-anchor="middle" x="711.5" y="-685" font-family="Helvetica,sans-Serif" font-size="10.00"> +elements</text>
</g>
<!-- Node10 -->
<g id="node10" class="node"><title>Node10</title>
<polygon fill="none" stroke="#bfbfbf" points="455,-584.5 455,-663.5 595,-663.5 595,-584.5 455,-584.5"/>
<text text-anchor="start" x="463" y="-651.5" font-family="Helvetica,sans-Serif" font-size="10.00">std::unordered_map</text>
<text text-anchor="start" x="463" y="-640.5" font-family="Helvetica,sans-Serif" font-size="10.00">&lt; PointRoad, int, hashFunc,</text>
<text text-anchor="middle" x="525" y="-629.5" font-family="Helvetica,sans-Serif" font-size="10.00"> equalsFunc &gt;</text>
<polyline fill="none" stroke="#bfbfbf" points="455,-622.5 595,-622.5 "/>
<text text-anchor="start" x="463" y="-610.5" font-family="Helvetica,sans-Serif" font-size="10.00">+ elements</text>
<polyline fill="none" stroke="#bfbfbf" points="455,-603.5 595,-603.5 "/>
<text text-anchor="middle" x="525" y="-591.5" font-family="Helvetica,sans-Serif" font-size="10.00"> </text>
</g>
<!-- Node5&#45;&gt;Node10 -->
<g id="edge11" class="edge"><title>Node5&#45;&gt;Node10</title>
<path fill="none" stroke="#404040" d="M624.367,-728.66C606.473,-709.993 587.317,-690.01 570.647,-672.619"/>
<polygon fill="none" stroke="#404040" points="570.48,-672.445 563.44,-670.881 562.176,-663.782 569.215,-665.345 570.48,-672.445"/>
<text text-anchor="middle" x="602.5" y="-685" font-family="Helvetica,sans-Serif" font-size="10.00"> +keys</text>
</g>
<!-- Node6 -->
<g id="node6" class="node"><title>Node6</title>
<g id="a_node6"><a xlink:href="class_point.html" target="_top" xlink:title="The Point class. ">
<polygon fill="none" stroke="black" points="628.5,-926.5 628.5,-1148.5 753.5,-1148.5 753.5,-926.5 628.5,-926.5"/>
<text text-anchor="middle" x="691" y="-1136.5" font-family="Helvetica,sans-Serif" font-size="10.00">Point</text>
<polyline fill="none" stroke="black" points="628.5,-1129.5 753.5,-1129.5 "/>
<text text-anchor="start" x="636.5" y="-1117.5" font-family="Helvetica,sans-Serif" font-size="10.00"># POINT_RADIUS</text>
<polyline fill="none" stroke="black" points="628.5,-1110.5 753.5,-1110.5 "/>
<text text-anchor="start" x="636.5" y="-1098.5" font-family="Helvetica,sans-Serif" font-size="10.00">+ distanceToPoint()</text>
<text text-anchor="start" x="636.5" y="-1087.5" font-family="Helvetica,sans-Serif" font-size="10.00">+ distanceToSegment()</text>
<text text-anchor="start" x="636.5" y="-1076.5" font-family="Helvetica,sans-Serif" font-size="10.00">+ infos()</text>
<text text-anchor="start" x="636.5" y="-1065.5" font-family="Helvetica,sans-Serif" font-size="10.00">+ Point()</text>
<text text-anchor="start" x="636.5" y="-1054.5" font-family="Helvetica,sans-Serif" font-size="10.00">+ Point()</text>
<text text-anchor="start" x="636.5" y="-1043.5" font-family="Helvetica,sans-Serif" font-size="10.00">+ projectionOnSegment()</text>
<text text-anchor="start" x="636.5" y="-1032.5" font-family="Helvetica,sans-Serif" font-size="10.00">+ samePointAs()</text>
<text text-anchor="start" x="636.5" y="-1021.5" font-family="Helvetica,sans-Serif" font-size="10.00">+ setx()</text>
<text text-anchor="start" x="636.5" y="-1010.5" font-family="Helvetica,sans-Serif" font-size="10.00">+ x()</text>
<text text-anchor="start" x="636.5" y="-999.5" font-family="Helvetica,sans-Serif" font-size="10.00">+ ~Point()</text>
<text text-anchor="start" x="636.5" y="-988.5" font-family="Helvetica,sans-Serif" font-size="10.00">* x()</text>
<text text-anchor="start" x="636.5" y="-977.5" font-family="Helvetica,sans-Serif" font-size="10.00">* setx()</text>
<text text-anchor="start" x="636.5" y="-966.5" font-family="Helvetica,sans-Serif" font-size="10.00">* y()</text>
<text text-anchor="start" x="636.5" y="-955.5" font-family="Helvetica,sans-Serif" font-size="10.00">* sety()</text>
<text text-anchor="start" x="636.5" y="-944.5" font-family="Helvetica,sans-Serif" font-size="10.00">* m_x</text>
<text text-anchor="start" x="636.5" y="-933.5" font-family="Helvetica,sans-Serif" font-size="10.00">* m_y</text>
</a>
</g>
</g>
<!-- Node6&#45;&gt;Node5 -->
<g id="edge6" class="edge"><title>Node6&#45;&gt;Node5</title>
<path fill="none" stroke="midnightblue" d="M689,-916.259C688.788,-903.531 688.577,-890.802 688.375,-878.644"/>
<polygon fill="none" stroke="midnightblue" points="685.504,-916.515 689.17,-926.456 692.503,-916.399 685.504,-916.515"/>
</g>
<!-- Node18 -->
<g id="node18" class="node"><title>Node18</title>
<g id="a_node18"><a xlink:href="class_point_g_p_s.html" target="_top" xlink:title="{PointGPS\n|# m_altitude\l# m_timeStamp\l|+ addEmissionProbability()\l+ altitude()\l+ infos()\l+ PointGPS()\l+ PointGPS()\l+ timeStamp()\l+ updateProbability()\l}">
<polygon fill="none" stroke="black" points="791,-728 791,-862 925,-862 925,-728 791,-728"/>
<text text-anchor="middle" x="858" y="-850" font-family="Helvetica,sans-Serif" font-size="10.00">PointGPS</text>
<polyline fill="none" stroke="black" points="791,-843 925,-843 "/>
<text text-anchor="start" x="799" y="-831" font-family="Helvetica,sans-Serif" font-size="10.00"># m_altitude</text>
<text text-anchor="start" x="799" y="-820" font-family="Helvetica,sans-Serif" font-size="10.00"># m_timeStamp</text>
<polyline fill="none" stroke="black" points="791,-813 925,-813 "/>
<text text-anchor="start" x="799" y="-801" font-family="Helvetica,sans-Serif" font-size="10.00">+ addEmissionProbability()</text>
<text text-anchor="start" x="799" y="-790" font-family="Helvetica,sans-Serif" font-size="10.00">+ altitude()</text>
<text text-anchor="start" x="799" y="-779" font-family="Helvetica,sans-Serif" font-size="10.00">+ infos()</text>
<text text-anchor="start" x="799" y="-768" font-family="Helvetica,sans-Serif" font-size="10.00">+ PointGPS()</text>
<text text-anchor="start" x="799" y="-757" font-family="Helvetica,sans-Serif" font-size="10.00">+ PointGPS()</text>
<text text-anchor="start" x="799" y="-746" font-family="Helvetica,sans-Serif" font-size="10.00">+ timeStamp()</text>
<text text-anchor="start" x="799" y="-735" font-family="Helvetica,sans-Serif" font-size="10.00">+ updateProbability()</text>
</a>
</g>
</g>
<!-- Node6&#45;&gt;Node18 -->
<g id="edge22" class="edge"><title>Node6&#45;&gt;Node18</title>
<path fill="none" stroke="midnightblue" d="M713.6,-917.096C717.154,-909.985 721.259,-903.21 726,-897 735.903,-884.031 744.556,-888.248 758,-879 768.967,-871.455 780.191,-862.98 790.97,-854.403"/>
<polygon fill="none" stroke="midnightblue" points="710.382,-915.716 709.387,-926.264 716.743,-918.639 710.382,-915.716"/>
</g>
<!-- Node7 -->
<g id="node7" class="node"><title>Node7</title>
<polygon fill="none" stroke="#bfbfbf" points="961.5,-1009 961.5,-1066 1060.5,-1066 1060.5,-1009 961.5,-1009"/>
<text text-anchor="middle" x="1011" y="-1054" font-family="Helvetica,sans-Serif" font-size="10.00">std::vector&lt; long &gt;</text>
<polyline fill="none" stroke="#bfbfbf" points="961.5,-1047 1060.5,-1047 "/>
<text text-anchor="start" x="969.5" y="-1035" font-family="Helvetica,sans-Serif" font-size="10.00">+ elements</text>
<polyline fill="none" stroke="#bfbfbf" points="961.5,-1028 1060.5,-1028 "/>
<text text-anchor="middle" x="1011" y="-1016" font-family="Helvetica,sans-Serif" font-size="10.00"> </text>
</g>
<!-- Node7&#45;&gt;Node1 -->
<g id="edge25" class="edge"><title>Node7&#45;&gt;Node1</title>
<path fill="none" stroke="#404040" d="M1011.57,-1008.73C1012.44,-963.954 1014,-873.041 1014,-796 1014,-796 1014,-796 1014,-408 1014,-325.313 990.721,-299.215 932,-241 882.093,-191.523 809.225,-157.048 755.02,-136.354"/>
<polygon fill="none" stroke="#404040" points="754.994,-136.344 747.974,-137.992 743.752,-132.146 750.772,-130.498 754.994,-136.344"/>
<text text-anchor="middle" x="1067" y="-627" font-family="Helvetica,sans-Serif" font-size="10.00"> #prevRoadIds</text>
<text text-anchor="middle" x="1067" y="-616" font-family="Helvetica,sans-Serif" font-size="10.00">#m_fromIndexToRoadId</text>
</g>
<!-- Node7&#45;&gt;Node5 -->
<g id="edge7" class="edge"><title>Node7&#45;&gt;Node5</title>
<path fill="none" stroke="#404040" d="M1004,-1008.69C995.876,-982.666 979.762,-945.036 951,-926 881.373,-879.918 835.946,-950.371 764,-908 754.841,-902.606 746.521,-895.642 739.028,-887.829"/>
<polygon fill="none" stroke="#404040" points="738.881,-887.663 731.908,-885.827 730.92,-878.684 737.894,-880.519 738.881,-887.663"/>
<text text-anchor="middle" x="809.5" y="-900" font-family="Helvetica,sans-Serif" font-size="10.00"> #m_vectorOfRoadId</text>
</g>
<!-- Node8 -->
<g id="node8" class="node"><title>Node8</title>
<g id="a_node8"><a xlink:title="STL class. ">
<polygon fill="none" stroke="#bfbfbf" points="338,-595.5 338,-652.5 398,-652.5 398,-595.5 338,-595.5"/>
<text text-anchor="middle" x="368" y="-640.5" font-family="Helvetica,sans-Serif" font-size="10.00">std::string</text>
<polyline fill="none" stroke="#bfbfbf" points="338,-633.5 398,-633.5 "/>
<text text-anchor="middle" x="368" y="-621.5" font-family="Helvetica,sans-Serif" font-size="10.00"> </text>
<polyline fill="none" stroke="#bfbfbf" points="338,-614.5 398,-614.5 "/>
<text text-anchor="middle" x="368" y="-602.5" font-family="Helvetica,sans-Serif" font-size="10.00"> </text>
</a>
</g>
</g>
<!-- Node8&#45;&gt;Node3 -->
<g id="edge8" class="edge"><title>Node8&#45;&gt;Node3</title>
<path fill="none" stroke="#404040" d="M337.994,-600.701C327.728,-591.265 317.462,-579.354 312,-566 309.737,-560.468 308.072,-554.754 306.921,-548.93"/>
<polygon fill="none" stroke="#404040" points="306.893,-548.728 302.109,-543.332 305.25,-536.841 310.034,-542.237 306.893,-548.728"/>
<text text-anchor="middle" x="352" y="-558" font-family="Helvetica,sans-Serif" font-size="10.00"> #m_gridFullName</text>
</g>
<!-- Node8&#45;&gt;Node16 -->
<g id="edge19" class="edge"><title>Node8&#45;&gt;Node16</title>
<path fill="none" stroke="#404040" d="M384.796,-595.328C393.161,-582.488 403.855,-567.366 415,-555 423.229,-545.868 428.157,-546.466 436,-537 436.728,-536.122 437.452,-535.235 438.173,-534.341"/>
<polygon fill="none" stroke="#404040" points="438.441,-533.995 438.941,-526.801 445.774,-524.495 445.274,-531.689 438.441,-533.995"/>
<text text-anchor="middle" x="458" y="-558" font-family="Helvetica,sans-Serif" font-size="10.00"> #m_trackFullName</text>
</g>
<!-- Node9 -->
<g id="node9" class="node"><title>Node9</title>
<g id="a_node9"><a xlink:title="STL class. ">
<polygon fill="none" stroke="#bfbfbf" points="320.5,-761 320.5,-829 415.5,-829 415.5,-761 320.5,-761"/>
<text text-anchor="start" x="328.5" y="-817" font-family="Helvetica,sans-Serif" font-size="10.00">std::basic_string&lt;</text>
<text text-anchor="middle" x="368" y="-806" font-family="Helvetica,sans-Serif" font-size="10.00"> char &gt;</text>
<polyline fill="none" stroke="#bfbfbf" points="320.5,-799 415.5,-799 "/>
<text text-anchor="middle" x="368" y="-787" font-family="Helvetica,sans-Serif" font-size="10.00"> </text>
<polyline fill="none" stroke="#bfbfbf" points="320.5,-780 415.5,-780 "/>
<text text-anchor="middle" x="368" y="-768" font-family="Helvetica,sans-Serif" font-size="10.00"> </text>
</a>
</g>
</g>
<!-- Node9&#45;&gt;Node8 -->
<g id="edge9" class="edge"><title>Node9&#45;&gt;Node8</title>
<path fill="none" stroke="midnightblue" d="M368,-750.56C368,-719.735 368,-679.277 368,-652.729"/>
<polygon fill="none" stroke="midnightblue" points="364.5,-750.611 368,-760.611 371.5,-750.611 364.5,-750.611"/>
</g>
<!-- Node10&#45;&gt;Node3 -->
<g id="edge10" class="edge"><title>Node10&#45;&gt;Node3</title>
<path fill="none" stroke="#404040" d="M518.303,-584.376C514.75,-573.633 509.314,-562.789 501,-555 481.796,-537.007 465.36,-550.047 438.181,-536.398"/>
<polygon fill="none" stroke="#404040" points="437.935,-536.25 430.731,-536.578 427.657,-530.055 434.861,-529.727 437.935,-536.25"/>
<text text-anchor="middle" x="557" y="-558" font-family="Helvetica,sans-Serif" font-size="10.00"> #m_mapOfExtPoints</text>
</g>
<!-- Node11 -->
<g id="node11" class="node"><title>Node11</title>
<polygon fill="none" stroke="#bfbfbf" points="53.5,-590 53.5,-658 156.5,-658 156.5,-590 53.5,-590"/>
<text text-anchor="start" x="61.5" y="-646" font-family="Helvetica,sans-Serif" font-size="10.00">std::unordered_map</text>
<text text-anchor="middle" x="105" y="-635" font-family="Helvetica,sans-Serif" font-size="10.00">&lt; long, Road &gt;</text>
<polyline fill="none" stroke="#bfbfbf" points="53.5,-628 156.5,-628 "/>
<text text-anchor="start" x="61.5" y="-616" font-family="Helvetica,sans-Serif" font-size="10.00">+ keys</text>
<polyline fill="none" stroke="#bfbfbf" points="53.5,-609 156.5,-609 "/>
<text text-anchor="middle" x="105" y="-597" font-family="Helvetica,sans-Serif" font-size="10.00"> </text>
</g>
<!-- Node11&#45;&gt;Node1 -->
<g id="edge30" class="edge"><title>Node11&#45;&gt;Node1</title>
<path fill="none" stroke="#404040" d="M100.428,-589.851C93.1874,-523.455 86.6368,-372.679 160,-281 269.648,-143.977 491.935,-116.912 607.872,-112.502"/>
<polygon fill="none" stroke="#404040" points="608.117,-112.494 613.985,-108.302 620.111,-112.106 614.243,-116.298 608.117,-112.494"/>
<text text-anchor="middle" x="183.5" y="-406.5" font-family="Helvetica,sans-Serif" font-size="10.00"> +m_roads</text>
</g>
<!-- Node11&#45;&gt;Node3 -->
<g id="edge12" class="edge"><title>Node11&#45;&gt;Node3</title>
<path fill="none" stroke="#404040" d="M141.771,-589.952C169.938,-564.638 210.117,-528.528 247.1,-495.29"/>
<polygon fill="none" stroke="#404040" points="247.499,-494.932 249.287,-487.946 256.424,-486.91 254.635,-493.896 247.499,-494.932"/>
<text text-anchor="middle" x="222" y="-558" font-family="Helvetica,sans-Serif" font-size="10.00"> +m_mapOfAllRoads</text>
</g>
<!-- Node12 -->
<g id="node12" class="node"><title>Node12</title>
<g id="a_node12"><a xlink:href="class_road.html" target="_top" xlink:title="Road is an element of a network. Road are strongly linked with Points. ">
<polygon fill="none" stroke="black" points="41.5,-717 41.5,-873 168.5,-873 168.5,-717 41.5,-717"/>
<text text-anchor="middle" x="105" y="-861" font-family="Helvetica,sans-Serif" font-size="10.00">Road</text>
<polyline fill="none" stroke="black" points="41.5,-854 168.5,-854 "/>
<text text-anchor="start" x="49.5" y="-842" font-family="Helvetica,sans-Serif" font-size="10.00"># m_edgeId</text>
<polyline fill="none" stroke="black" points="41.5,-835 168.5,-835 "/>
<text text-anchor="start" x="49.5" y="-823" font-family="Helvetica,sans-Serif" font-size="10.00">+ addNeighbor()</text>
<text text-anchor="start" x="49.5" y="-812" font-family="Helvetica,sans-Serif" font-size="10.00">+ addPoint()</text>
<text text-anchor="start" x="49.5" y="-801" font-family="Helvetica,sans-Serif" font-size="10.00">+ edgeId()</text>
<text text-anchor="start" x="49.5" y="-790" font-family="Helvetica,sans-Serif" font-size="10.00">+ getIntersectionIDWith()</text>
<text text-anchor="start" x="49.5" y="-779" font-family="Helvetica,sans-Serif" font-size="10.00">+ getNoOfNeighbors()</text>
<text text-anchor="start" x="49.5" y="-768" font-family="Helvetica,sans-Serif" font-size="10.00">+ outputInfos()</text>
<text text-anchor="start" x="49.5" y="-757" font-family="Helvetica,sans-Serif" font-size="10.00">+ Road()</text>
<text text-anchor="start" x="49.5" y="-746" font-family="Helvetica,sans-Serif" font-size="10.00">+ Road()</text>
<text text-anchor="start" x="49.5" y="-735" font-family="Helvetica,sans-Serif" font-size="10.00">+ vectorOfPointsId()</text>
<text text-anchor="start" x="49.5" y="-724" font-family="Helvetica,sans-Serif" font-size="10.00">+ ~Road()</text>
</a>
</g>
</g>
<!-- Node12&#45;&gt;Node11 -->
<g id="edge13" class="edge"><title>Node12&#45;&gt;Node11</title>
<path fill="none" stroke="#404040" d="M105,-716.918C105,-701.028 105,-684.785 105,-670.461"/>
<polygon fill="none" stroke="#404040" points="105,-670.424 101,-664.424 105,-658.424 109,-664.424 105,-670.424"/>
<text text-anchor="middle" x="129.5" y="-685" font-family="Helvetica,sans-Serif" font-size="10.00"> +elements</text>
</g>
<!-- Node13 -->
<g id="node13" class="node"><title>Node13</title>
<polygon fill="none" stroke="#bfbfbf" points="122,-1009 122,-1066 208,-1066 208,-1009 122,-1009"/>
<text text-anchor="middle" x="165" y="-1054" font-family="Helvetica,sans-Serif" font-size="10.00">std::set&lt; long &gt;</text>
<polyline fill="none" stroke="#bfbfbf" points="122,-1047 208,-1047 "/>
<text text-anchor="start" x="130" y="-1035" font-family="Helvetica,sans-Serif" font-size="10.00">+ keys</text>
<polyline fill="none" stroke="#bfbfbf" points="122,-1028 208,-1028 "/>
<text text-anchor="middle" x="165" y="-1016" font-family="Helvetica,sans-Serif" font-size="10.00"> </text>
</g>
<!-- Node13&#45;&gt;Node12 -->
<g id="edge14" class="edge"><title>Node13&#45;&gt;Node12</title>
<path fill="none" stroke="#404040" d="M162.323,-1008.89C159.18,-980.502 153.077,-935.166 143,-897 141.94,-892.984 140.778,-888.906 139.54,-884.806"/>
<polygon fill="none" stroke="#404040" points="139.498,-884.672 133.872,-880.16 135.873,-873.232 141.498,-877.744 139.498,-884.672"/>
<text text-anchor="middle" x="190.5" y="-900" font-family="Helvetica,sans-Serif" font-size="10.00"> +m_setOfNeighbors</text>
</g>
<!-- Node14 -->
<g id="node14" class="node"><title>Node14</title>
<polygon fill="none" stroke="#bfbfbf" points="0,-1009 0,-1066 92,-1066 92,-1009 0,-1009"/>
<text text-anchor="middle" x="46" y="-1054" font-family="Helvetica,sans-Serif" font-size="10.00">std::vector&lt; int &gt;</text>
<polyline fill="none" stroke="#bfbfbf" points="0,-1047 92,-1047 "/>
<text text-anchor="start" x="8" y="-1035" font-family="Helvetica,sans-Serif" font-size="10.00">+ elements</text>
<polyline fill="none" stroke="#bfbfbf" points="0,-1028 92,-1028 "/>
<text text-anchor="middle" x="46" y="-1016" font-family="Helvetica,sans-Serif" font-size="10.00"> </text>
</g>
<!-- Node14&#45;&gt;Node12 -->
<g id="edge15" class="edge"><title>Node14&#45;&gt;Node12</title>
<path fill="none" stroke="#404040" d="M42.1323,-1008.94C39.0605,-980.394 36.785,-934.757 47,-897 48.1502,-892.749 49.5245,-888.49 51.0766,-884.255"/>
<polygon fill="none" stroke="#404040" points="51.0775,-884.252 49.6133,-877.192 55.5679,-873.124 57.0321,-880.185 51.0775,-884.252"/>
<text text-anchor="middle" x="95" y="-900" font-family="Helvetica,sans-Serif" font-size="10.00"> #m_vectorOfPointsId</text>
</g>
<!-- Node15 -->
<g id="node15" class="node"><title>Node15</title>
<polygon fill="none" stroke="#bfbfbf" points="696.5,-375 696.5,-443 815.5,-443 815.5,-375 696.5,-375"/>
<text text-anchor="start" x="704.5" y="-431" font-family="Helvetica,sans-Serif" font-size="10.00">std::vector&lt; std::vector</text>
<text text-anchor="middle" x="756" y="-420" font-family="Helvetica,sans-Serif" font-size="10.00">&lt; float &gt; &gt;</text>
<polyline fill="none" stroke="#bfbfbf" points="696.5,-413 815.5,-413 "/>
<text text-anchor="start" x="704.5" y="-401" font-family="Helvetica,sans-Serif" font-size="10.00">+ elements</text>
<polyline fill="none" stroke="#bfbfbf" points="696.5,-394 815.5,-394 "/>
<text text-anchor="middle" x="756" y="-382" font-family="Helvetica,sans-Serif" font-size="10.00"> </text>
</g>
<!-- Node15&#45;&gt;Node1 -->
<g id="edge16" class="edge"><title>Node15&#45;&gt;Node1</title>
<path fill="none" stroke="#404040" d="M747.727,-374.963C739.189,-340.871 725.353,-285.62 712.573,-234.584"/>
<polygon fill="none" stroke="#404040" points="712.523,-234.387 707.186,-229.539 709.608,-222.747 714.946,-227.595 712.523,-234.387"/>
<text text-anchor="middle" x="729" y="-255" font-family="Helvetica,sans-Serif" font-size="10.00"> #T1</text>
<text text-anchor="middle" x="729" y="-244" font-family="Helvetica,sans-Serif" font-size="10.00">#T2</text>
</g>
<!-- Node16&#45;&gt;Node1 -->
<g id="edge17" class="edge"><title>Node16&#45;&gt;Node1</title>
<path fill="none" stroke="#404040" d="M541.271,-286.677C547.473,-270.837 554.683,-255.198 563,-241 576.267,-218.351 594.119,-196.365 611.954,-177.17"/>
<polygon fill="none" stroke="#404040" points="612.144,-176.969 613.376,-169.864 620.408,-168.268 619.177,-175.374 612.144,-176.969"/>
<text text-anchor="middle" x="578.5" y="-249.5" font-family="Helvetica,sans-Serif" font-size="10.00"> +track</text>
</g>
<!-- Node17 -->
<g id="node17" class="node"><title>Node17</title>
<polygon fill="none" stroke="#bfbfbf" points="786.5,-595.5 786.5,-652.5 917.5,-652.5 917.5,-595.5 786.5,-595.5"/>
<text text-anchor="middle" x="852" y="-640.5" font-family="Helvetica,sans-Serif" font-size="10.00">std::vector&lt; PointGPS * &gt;</text>
<polyline fill="none" stroke="#bfbfbf" points="786.5,-633.5 917.5,-633.5 "/>
<text text-anchor="middle" x="852" y="-621.5" font-family="Helvetica,sans-Serif" font-size="10.00"> </text>
<polyline fill="none" stroke="#bfbfbf" points="786.5,-614.5 917.5,-614.5 "/>
<text text-anchor="middle" x="852" y="-602.5" font-family="Helvetica,sans-Serif" font-size="10.00"> </text>
</g>
<!-- Node17&#45;&gt;Node1 -->
<g id="edge29" class="edge"><title>Node17&#45;&gt;Node1</title>
<path fill="none" stroke="#404040" d="M855.262,-595.083C861.118,-535.002 868.952,-390.055 824,-281 807.947,-242.055 779.434,-205.44 752.148,-176.354"/>
<polygon fill="none" stroke="#404040" points="752.038,-176.239 744.999,-174.675 743.735,-167.575 750.774,-169.14 752.038,-176.239"/>
<text text-anchor="middle" x="896.5" y="-406.5" font-family="Helvetica,sans-Serif" font-size="10.00"> +m_trackPoints</text>
</g>
<!-- Node17&#45;&gt;Node16 -->
<g id="edge20" class="edge"><title>Node17&#45;&gt;Node16</title>
<path fill="none" stroke="#404040" d="M811.396,-595.403C788.244,-581.019 758.114,-564.491 729,-555 668.097,-535.147 639.739,-571.863 586,-537 584.479,-536.013 582.984,-534.985 581.513,-533.918"/>
<polygon fill="none" stroke="#404040" points="581.496,-533.904 574.316,-533.234 572.173,-526.349 579.353,-527.019 581.496,-533.904"/>
<text text-anchor="middle" x="779.5" y="-558" font-family="Helvetica,sans-Serif" font-size="10.00"> #m_points</text>
</g>
<!-- Node18&#45;&gt;Node1 -->
<g id="edge28" class="edge"><title>Node18&#45;&gt;Node1</title>
<path fill="none" stroke="#404040" d="M898.945,-727.992C909.489,-708.102 919.645,-685.76 926,-664 950.613,-579.731 937.257,-281.478 937,-281 898.728,-209.839 815.766,-163.717 754.818,-138.024"/>
<polygon fill="none" stroke="#404040" points="754.811,-138.021 747.741,-139.442 743.71,-133.463 750.78,-132.042 754.811,-138.021"/>
<text text-anchor="middle" x="964" y="-558" font-family="Helvetica,sans-Serif" font-size="10.00"> #prevPoint</text>
</g>
<!-- Node18&#45;&gt;Node17 -->
<g id="edge21" class="edge"><title>Node18&#45;&gt;Node17</title>
<path fill="none" stroke="#404040" d="M855.646,-727.692C854.894,-706.504 854.085,-683.714 853.42,-664.999"/>
<polygon fill="none" stroke="#404040" points="853.412,-664.756 849.201,-658.902 852.986,-652.763 857.196,-658.618 853.412,-664.756"/>
<text text-anchor="middle" x="879.5" y="-685" font-family="Helvetica,sans-Serif" font-size="10.00"> +elements</text>
</g>
<!-- Node19 -->
<g id="node19" class="node"><title>Node19</title>
<polygon fill="none" stroke="#bfbfbf" points="775.5,-1009 775.5,-1066 942.5,-1066 942.5,-1009 775.5,-1009"/>
<text text-anchor="middle" x="859" y="-1054" font-family="Helvetica,sans-Serif" font-size="10.00">std::vector&lt; EmissionProbability &gt;</text>
<polyline fill="none" stroke="#bfbfbf" points="775.5,-1047 942.5,-1047 "/>
<text text-anchor="middle" x="859" y="-1035" font-family="Helvetica,sans-Serif" font-size="10.00"> </text>
<polyline fill="none" stroke="#bfbfbf" points="775.5,-1028 942.5,-1028 "/>
<text text-anchor="middle" x="859" y="-1016" font-family="Helvetica,sans-Serif" font-size="10.00"> </text>
</g>
<!-- Node19&#45;&gt;Node18 -->
<g id="edge23" class="edge"><title>Node19&#45;&gt;Node18</title>
<path fill="none" stroke="#404040" d="M858.885,-1008.91C858.75,-976.292 858.518,-920.592 858.326,-874.344"/>
<polygon fill="none" stroke="#404040" points="858.325,-874.195 854.3,-868.212 858.275,-862.195 862.3,-868.178 858.325,-874.195"/>
<text text-anchor="middle" x="913" y="-900" font-family="Helvetica,sans-Serif" font-size="10.00"> +m_emissionProbability</text>
</g>
<!-- Node20 -->
<g id="node20" class="node"><title>Node20</title>
<g id="a_node20"><a xlink:href="class_emission_probability.html" target="_top" xlink:title="{EmissionProbability\n|# m_distance\l# m_probability\l# m_roadId\l|+ distance()\l+ EmissionProbability()\l+ probability()\l+ roadId()\l+ updateProbability()\l}">
<polygon fill="none" stroke="black" points="800,-1196.5 800,-1319.5 918,-1319.5 918,-1196.5 800,-1196.5"/>
<text text-anchor="middle" x="859" y="-1307.5" font-family="Helvetica,sans-Serif" font-size="10.00">EmissionProbability</text>
<polyline fill="none" stroke="black" points="800,-1300.5 918,-1300.5 "/>
<text text-anchor="start" x="808" y="-1288.5" font-family="Helvetica,sans-Serif" font-size="10.00"># m_distance</text>
<text text-anchor="start" x="808" y="-1277.5" font-family="Helvetica,sans-Serif" font-size="10.00"># m_probability</text>
<text text-anchor="start" x="808" y="-1266.5" font-family="Helvetica,sans-Serif" font-size="10.00"># m_roadId</text>
<polyline fill="none" stroke="black" points="800,-1259.5 918,-1259.5 "/>
<text text-anchor="start" x="808" y="-1247.5" font-family="Helvetica,sans-Serif" font-size="10.00">+ distance()</text>
<text text-anchor="start" x="808" y="-1236.5" font-family="Helvetica,sans-Serif" font-size="10.00">+ EmissionProbability()</text>
<text text-anchor="start" x="808" y="-1225.5" font-family="Helvetica,sans-Serif" font-size="10.00">+ probability()</text>
<text text-anchor="start" x="808" y="-1214.5" font-family="Helvetica,sans-Serif" font-size="10.00">+ roadId()</text>
<text text-anchor="start" x="808" y="-1203.5" font-family="Helvetica,sans-Serif" font-size="10.00">+ updateProbability()</text>
</a>
</g>
</g>
<!-- Node20&#45;&gt;Node19 -->
<g id="edge24" class="edge"><title>Node20&#45;&gt;Node19</title>
<path fill="none" stroke="#404040" d="M859,-1196.43C859,-1158.74 859,-1111.34 859,-1078.35"/>
<polygon fill="none" stroke="#404040" points="859,-1078.03 855,-1072.03 859,-1066.03 863,-1072.03 859,-1078.03"/>
<text text-anchor="middle" x="883.5" y="-1170" font-family="Helvetica,sans-Serif" font-size="10.00"> +elements</text>
</g>
<!-- Node21 -->
<g id="node21" class="node"><title>Node21</title>
<polygon fill="none" stroke="#bfbfbf" points="1042.5,-369.5 1042.5,-448.5 1145.5,-448.5 1145.5,-369.5 1042.5,-369.5"/>
<text text-anchor="start" x="1050.5" y="-436.5" font-family="Helvetica,sans-Serif" font-size="10.00">std::unordered_map</text>
<text text-anchor="middle" x="1094" y="-425.5" font-family="Helvetica,sans-Serif" font-size="10.00">&lt; long, int &gt;</text>
<polyline fill="none" stroke="#bfbfbf" points="1042.5,-418.5 1145.5,-418.5 "/>
<text text-anchor="start" x="1050.5" y="-406.5" font-family="Helvetica,sans-Serif" font-size="10.00">+ elements</text>
<text text-anchor="start" x="1050.5" y="-395.5" font-family="Helvetica,sans-Serif" font-size="10.00">+ keys</text>
<polyline fill="none" stroke="#bfbfbf" points="1042.5,-388.5 1145.5,-388.5 "/>
<text text-anchor="middle" x="1094" y="-376.5" font-family="Helvetica,sans-Serif" font-size="10.00"> </text>
</g>
<!-- Node21&#45;&gt;Node1 -->
<g id="edge27" class="edge"><title>Node21&#45;&gt;Node1</title>
<path fill="none" stroke="#404040" d="M1088.01,-369.18C1080.3,-331.706 1063.41,-275.684 1028,-241 953.151,-167.69 832.773,-135.606 755.555,-121.992"/>
<polygon fill="none" stroke="#404040" points="755.378,-121.963 748.795,-124.907 743.546,-119.963 750.129,-117.019 755.378,-121.963"/>
<text text-anchor="middle" x="1098.5" y="-249.5" font-family="Helvetica,sans-Serif" font-size="10.00"> #m_fromRoadIdToIndex</text>
</g>
</g>
</svg>
