<?xml version="1.0" encoding="UTF-8" standalone="no"?>
<!DOCTYPE svg PUBLIC "-//W3C//DTD SVG 1.1//EN"
 "http://www.w3.org/Graphics/SVG/1.1/DTD/svg11.dtd">
<!-- Generated by graphviz version 2.38.0 (20140413.2041)
 -->
<!-- Title: QMapViewer::drawPoint Pages: 1 -->
<svg width="517pt" height="28pt"
 viewBox="0.00 0.00 517.00 28.00" xmlns="http://www.w3.org/2000/svg" xmlns:xlink="http://www.w3.org/1999/xlink">
<g id="graph0" class="graph" transform="scale(1 1) rotate(0) translate(4 24)">
<title>QMapViewer::drawPoint</title>
<!-- Node1 -->
<g id="node1" class="node"><title>Node1</title>
<polygon fill="#bfbfbf" stroke="black" points="0,-0.5 0,-19.5 122,-19.5 122,-0.5 0,-0.5"/>
<text text-anchor="middle" x="61" y="-7.5" font-family="Helvetica,sans-Serif" font-size="10.00">QMapViewer::drawPoint</text>
</g>
<!-- Node2 -->
<g id="node2" class="node"><title>Node2</title>
<g id="a_node2"><a xlink:href="class_q_map_viewer.html#acadee31a64d4f8fe837f630e6e19dd9b" target="_top" xlink:title="QMapViewer::drawAllGPSPoints">
<polygon fill="none" stroke="black" points="158,-0.5 158,-19.5 318,-19.5 318,-0.5 158,-0.5"/>
<text text-anchor="middle" x="238" y="-7.5" font-family="Helvetica,sans-Serif" font-size="10.00">QMapViewer::drawAllGPSPoints</text>
</a>
</g>
</g>
<!-- Node1&#45;&gt;Node2 -->
<g id="edge1" class="edge"><title>Node1&#45;&gt;Node2</title>
<path fill="none" stroke="midnightblue" d="M132.323,-10C140.709,-10 149.313,-10 157.812,-10"/>
<polygon fill="midnightblue" stroke="midnightblue" points="132.225,-6.5001 122.225,-10 132.225,-13.5001 132.225,-6.5001"/>
</g>
<!-- Node3 -->
<g id="node3" class="node"><title>Node3</title>
<g id="a_node3"><a xlink:href="class_q_map_viewer.html#a348e9f7fa0b46836bb72b19a852f99ac" target="_top" xlink:title="QMapViewer::onSignalAllPoints">
<polygon fill="none" stroke="black" points="354,-0.5 354,-19.5 509,-19.5 509,-0.5 354,-0.5"/>
<text text-anchor="middle" x="431.5" y="-7.5" font-family="Helvetica,sans-Serif" font-size="10.00">QMapViewer::onSignalAllPoints</text>
</a>
</g>
</g>
<!-- Node2&#45;&gt;Node3 -->
<g id="edge2" class="edge"><title>Node2&#45;&gt;Node3</title>
<path fill="none" stroke="midnightblue" d="M328.513,-10C336.948,-10 345.449,-10 353.751,-10"/>
<polygon fill="midnightblue" stroke="midnightblue" points="328.273,-6.5001 318.273,-10 328.273,-13.5001 328.273,-6.5001"/>
</g>
</g>
</svg>
