<?xml version="1.0" encoding="UTF-8" standalone="no"?>
<!DOCTYPE svg PUBLIC "-//W3C//DTD SVG 1.1//EN"
 "http://www.w3.org/Graphics/SVG/1.1/DTD/svg11.dtd">
<!-- Generated by graphviz version 2.38.0 (20140413.2041)
 -->
<!-- Title: QMapWidget Pages: 1 -->
<!--zoomable 1229 -->
<svg id="main" version="1.1" xmlns="http://www.w3.org/2000/svg" xmlns:xlink="http://www.w3.org/1999/xlink" xml:space="preserve" onload="init(evt)">
<style type="text/css"><![CDATA[
.edge:hover path { stroke: red; }
.edge:hover polygon { stroke: red; fill: red; }
]]></style>
<script type="text/javascript"><![CDATA[
var edges = document.getElementsByTagName('g');
if (edges && edges.length) {
  for (var i=0;i<edges.length;i++) {
    if (edges[i].id.substr(0,4)=='edge') {
      edges[i].setAttribute('class','edge');
    }
  }
}
]]></script>
        <defs>
                <circle id="rim" cx="0" cy="0" r="7"/>
                <circle id="rim2" cx="0" cy="0" r="3.5"/>
                <g id="zoomPlus">
                        <use xlink:href="#rim" fill="#404040">
                                <set attributeName="fill" to="#808080" begin="zoomplus.mouseover" end="zoomplus.mouseout"/>
                        </use>
                        <path d="M-4,0h8M0,-4v8" fill="none" stroke="white" stroke-width="1.5" pointer-events="none"/>
                </g>
                <g id="zoomMin">
                        <use xlink:href="#rim" fill="#404040">
                                <set attributeName="fill" to="#808080" begin="zoomminus.mouseover" end="zoomminus.mouseout"/>
                        </use>
                        <path d="M-4,0h8" fill="none" stroke="white" stroke-width="1.5" pointer-events="none"/>
                </g>
                <g id="dirArrow">
                        <path fill="none" stroke="white" stroke-width="1.5" d="M0,-3.0v7 M-2.5,-0.5L0,-3.0L2.5,-0.5"/>
                </g>
               <g id="resetDef">
                       <use xlink:href="#rim2" fill="#404040">
                               <set attributeName="fill" to="#808080" begin="reset.mouseover" end="reset.mouseout"/>
                       </use>
               </g>
        </defs>

<script type="text/javascript">
var viewWidth = 923;
var viewHeight = 1229;
var sectionId = 'dynsection-1';
</script>
<script xlink:href="svgpan.js"/>
<svg id="graph" class="graph">
<g id="viewport">
<title>QMapWidget</title>
<!-- Node1 -->
<g id="node1" class="node"><title>Node1</title>
<polygon fill="#bfbfbf" stroke="black" points="172,-0.5 172,-167.5 297,-167.5 297,-0.5 172,-0.5"/>
<text text-anchor="middle" x="234.5" y="-155.5" font-family="Helvetica,sans-Serif" font-size="10.00">QMapWidget</text>
<polyline fill="none" stroke="black" points="172,-148.5 297,-148.5 "/>
<text text-anchor="start" x="180" y="-136.5" font-family="Helvetica,sans-Serif" font-size="10.00">+ m_next</text>
<text text-anchor="start" x="180" y="-125.5" font-family="Helvetica,sans-Serif" font-size="10.00"># m_controlZone</text>
<text text-anchor="start" x="180" y="-114.5" font-family="Helvetica,sans-Serif" font-size="10.00"># m_layout</text>
<text text-anchor="start" x="180" y="-103.5" font-family="Helvetica,sans-Serif" font-size="10.00"># m_play</text>
<text text-anchor="start" x="180" y="-92.5" font-family="Helvetica,sans-Serif" font-size="10.00"># m_startSimulation</text>
<text text-anchor="start" x="180" y="-81.5" font-family="Helvetica,sans-Serif" font-size="10.00"># m_view</text>
<text text-anchor="start" x="180" y="-70.5" font-family="Helvetica,sans-Serif" font-size="10.00"># m_zoom</text>
<polyline fill="none" stroke="black" points="172,-63.5 297,-63.5 "/>
<text text-anchor="start" x="180" y="-51.5" font-family="Helvetica,sans-Serif" font-size="10.00">+ buildControls()</text>
<text text-anchor="start" x="180" y="-40.5" font-family="Helvetica,sans-Serif" font-size="10.00">+ QMapWidget()</text>
<text text-anchor="start" x="180" y="-29.5" font-family="Helvetica,sans-Serif" font-size="10.00">+ onSignalDimension()</text>
<text text-anchor="start" x="180" y="-18.5" font-family="Helvetica,sans-Serif" font-size="10.00">+ onSignalItemToShow()</text>
<text text-anchor="start" x="180" y="-7.5" font-family="Helvetica,sans-Serif" font-size="10.00">&#45; sceneScaleChanged()</text>
</g>
<!-- Node2 -->
<g id="node2" class="node"><title>Node2</title>
<polygon fill="none" stroke="#bfbfbf" points="172,-303.5 172,-360.5 227,-360.5 227,-303.5 172,-303.5"/>
<text text-anchor="middle" x="199.5" y="-348.5" font-family="Helvetica,sans-Serif" font-size="10.00">QWidget</text>
<polyline fill="none" stroke="#bfbfbf" points="172,-341.5 227,-341.5 "/>
<text text-anchor="middle" x="199.5" y="-329.5" font-family="Helvetica,sans-Serif" font-size="10.00"> </text>
<polyline fill="none" stroke="#bfbfbf" points="172,-322.5 227,-322.5 "/>
<text text-anchor="middle" x="199.5" y="-310.5" font-family="Helvetica,sans-Serif" font-size="10.00"> </text>
</g>
<!-- Node2&#45;&gt;Node1 -->
<g id="edge1" class="edge"><title>Node2&#45;&gt;Node1</title>
<path fill="none" stroke="midnightblue" d="M204.901,-293.035C209.646,-259.688 216.714,-210.007 222.754,-167.558"/>
<polygon fill="none" stroke="midnightblue" points="201.39,-292.866 203.447,-303.259 208.321,-293.852 201.39,-292.866"/>
</g>
<!-- Node3 -->
<g id="node3" class="node"><title>Node3</title>
<g id="a_node3"><a xlink:href="class_q_map_scene.html" target="_top" xlink:title="{QMapScene\n|# m_height\l# m_scaleFactor\l# m_selectionCircle\l# m_shiftX\l# m_shiftY\l# m_width\l|+ highlightRoadsDefault()\l+ highlightSelectedPoint()\l+ initialize()\l+ QMapScene()\l+ setBackToDefault()\l+ setNeighborRoads()\l+ transform()\l+ onSignalAllPoints()\l+ onSignalAllRoads()\l+ onSignalCurrentPoint()\l+ onSignalRoadPath()\l+ onSignalStart()\l}">
<polygon fill="none" stroke="black" points="245.5,-215.5 245.5,-448.5 373.5,-448.5 373.5,-215.5 245.5,-215.5"/>
<text text-anchor="middle" x="309.5" y="-436.5" font-family="Helvetica,sans-Serif" font-size="10.00">QMapScene</text>
<polyline fill="none" stroke="black" points="245.5,-429.5 373.5,-429.5 "/>
<text text-anchor="start" x="253.5" y="-417.5" font-family="Helvetica,sans-Serif" font-size="10.00"># m_height</text>
<text text-anchor="start" x="253.5" y="-406.5" font-family="Helvetica,sans-Serif" font-size="10.00"># m_scaleFactor</text>
<text text-anchor="start" x="253.5" y="-395.5" font-family="Helvetica,sans-Serif" font-size="10.00"># m_selectionCircle</text>
<text text-anchor="start" x="253.5" y="-384.5" font-family="Helvetica,sans-Serif" font-size="10.00"># m_shiftX</text>
<text text-anchor="start" x="253.5" y="-373.5" font-family="Helvetica,sans-Serif" font-size="10.00"># m_shiftY</text>
<text text-anchor="start" x="253.5" y="-362.5" font-family="Helvetica,sans-Serif" font-size="10.00"># m_width</text>
<polyline fill="none" stroke="black" points="245.5,-355.5 373.5,-355.5 "/>
<text text-anchor="start" x="253.5" y="-343.5" font-family="Helvetica,sans-Serif" font-size="10.00">+ highlightRoadsDefault()</text>
<text text-anchor="start" x="253.5" y="-332.5" font-family="Helvetica,sans-Serif" font-size="10.00">+ highlightSelectedPoint()</text>
<text text-anchor="start" x="253.5" y="-321.5" font-family="Helvetica,sans-Serif" font-size="10.00">+ initialize()</text>
<text text-anchor="start" x="253.5" y="-310.5" font-family="Helvetica,sans-Serif" font-size="10.00">+ QMapScene()</text>
<text text-anchor="start" x="253.5" y="-299.5" font-family="Helvetica,sans-Serif" font-size="10.00">+ setBackToDefault()</text>
<text text-anchor="start" x="253.5" y="-288.5" font-family="Helvetica,sans-Serif" font-size="10.00">+ setNeighborRoads()</text>
<text text-anchor="start" x="253.5" y="-277.5" font-family="Helvetica,sans-Serif" font-size="10.00">+ transform()</text>
<text text-anchor="start" x="253.5" y="-266.5" font-family="Helvetica,sans-Serif" font-size="10.00">+ onSignalAllPoints()</text>
<text text-anchor="start" x="253.5" y="-255.5" font-family="Helvetica,sans-Serif" font-size="10.00">+ onSignalAllRoads()</text>
<text text-anchor="start" x="253.5" y="-244.5" font-family="Helvetica,sans-Serif" font-size="10.00">+ onSignalCurrentPoint()</text>
<text text-anchor="start" x="253.5" y="-233.5" font-family="Helvetica,sans-Serif" font-size="10.00">+ onSignalRoadPath()</text>
<text text-anchor="start" x="253.5" y="-222.5" font-family="Helvetica,sans-Serif" font-size="10.00">+ onSignalStart()</text>
</a>
</g>
</g>
<!-- Node3&#45;&gt;Node1 -->
<g id="edge2" class="edge"><title>Node3&#45;&gt;Node1</title>
<path fill="none" stroke="#404040" d="M274.196,-215.203C270.52,-203.146 266.816,-190.997 263.226,-179.22"/>
<polygon fill="none" stroke="#404040" points="263.178,-179.064 257.602,-174.491 259.678,-167.585 265.254,-172.158 263.178,-179.064"/>
<text text-anchor="middle" x="293" y="-189" font-family="Helvetica,sans-Serif" font-size="10.00"> +m_scene</text>
</g>
<!-- Node4 -->
<g id="node4" class="node"><title>Node4</title>
<polygon fill="none" stroke="#bfbfbf" points="0,-502 0,-559 91,-559 91,-502 0,-502"/>
<text text-anchor="middle" x="45.5" y="-547" font-family="Helvetica,sans-Serif" font-size="10.00">QGraphicsScene</text>
<polyline fill="none" stroke="#bfbfbf" points="0,-540 91,-540 "/>
<text text-anchor="middle" x="45.5" y="-528" font-family="Helvetica,sans-Serif" font-size="10.00"> </text>
<polyline fill="none" stroke="#bfbfbf" points="0,-521 91,-521 "/>
<text text-anchor="middle" x="45.5" y="-509" font-family="Helvetica,sans-Serif" font-size="10.00"> </text>
</g>
<!-- Node4&#45;&gt;Node3 -->
<g id="edge3" class="edge"><title>Node4&#45;&gt;Node3</title>
<path fill="none" stroke="midnightblue" d="M97.9696,-497.218C98.8157,-496.803 99.6596,-496.397 100.5,-496 129.226,-482.439 210.581,-468.701 235.5,-449 238.873,-446.333 242.137,-443.468 245.292,-440.446"/>
<polygon fill="none" stroke="midnightblue" points="96.1307,-494.229 88.8661,-501.941 99.3544,-500.442 96.1307,-494.229"/>
</g>
<!-- Node5 -->
<g id="node5" class="node"><title>Node5</title>
<polygon fill="none" stroke="#bfbfbf" points="109.5,-496.5 109.5,-564.5 249.5,-564.5 249.5,-496.5 109.5,-496.5"/>
<text text-anchor="start" x="117.5" y="-552.5" font-family="Helvetica,sans-Serif" font-size="10.00">std::vector&lt; QGraphicsRect</text>
<text text-anchor="middle" x="179.5" y="-541.5" font-family="Helvetica,sans-Serif" font-size="10.00">Item * &gt;</text>
<polyline fill="none" stroke="#bfbfbf" points="109.5,-534.5 249.5,-534.5 "/>
<text text-anchor="start" x="117.5" y="-522.5" font-family="Helvetica,sans-Serif" font-size="10.00">+ elements</text>
<polyline fill="none" stroke="#bfbfbf" points="109.5,-515.5 249.5,-515.5 "/>
<text text-anchor="middle" x="179.5" y="-503.5" font-family="Helvetica,sans-Serif" font-size="10.00"> </text>
</g>
<!-- Node5&#45;&gt;Node3 -->
<g id="edge4" class="edge"><title>Node5&#45;&gt;Node3</title>
<path fill="none" stroke="#404040" d="M190.851,-496.348C195.329,-486.232 201.183,-475.537 208.5,-467 217.886,-456.05 225.405,-459.3 235.5,-449 236.023,-448.467 236.543,-447.929 237.062,-447.388"/>
<polygon fill="none" stroke="#404040" points="237.252,-447.179 238.317,-440.047 245.31,-438.287 244.245,-445.419 237.252,-447.179"/>
<text text-anchor="middle" x="236" y="-470" font-family="Helvetica,sans-Serif" font-size="10.00"> #pointItems</text>
</g>
<!-- Node6 -->
<g id="node6" class="node"><title>Node6</title>
<polygon fill="none" stroke="#bfbfbf" points="232,-910 232,-967 331,-967 331,-910 232,-910"/>
<text text-anchor="middle" x="281.5" y="-955" font-family="Helvetica,sans-Serif" font-size="10.00">std::vector&lt; long &gt;</text>
<polyline fill="none" stroke="#bfbfbf" points="232,-948 331,-948 "/>
<text text-anchor="start" x="240" y="-936" font-family="Helvetica,sans-Serif" font-size="10.00">+ elements</text>
<polyline fill="none" stroke="#bfbfbf" points="232,-929 331,-929 "/>
<text text-anchor="middle" x="281.5" y="-917" font-family="Helvetica,sans-Serif" font-size="10.00"> </text>
</g>
<!-- Node6&#45;&gt;Node3 -->
<g id="edge5" class="edge"><title>Node6&#45;&gt;Node3</title>
<path fill="none" stroke="#404040" d="M281.727,-909.903C282.321,-850.228 284.332,-704.743 290.5,-583 292.516,-543.209 295.519,-499.913 298.546,-460.705"/>
<polygon fill="none" stroke="#404040" points="298.551,-460.64 295.03,-454.347 299.485,-448.676 303.006,-454.97 298.551,-460.64"/>
<text text-anchor="middle" x="329.5" y="-586" font-family="Helvetica,sans-Serif" font-size="10.00"> #m_neighboursId</text>
</g>
<!-- Node8 -->
<g id="node8" class="node"><title>Node8</title>
<g id="a_node8"><a xlink:href="class_point_road.html" target="_top" xlink:title="{PointRoad\n|# m_id\l# m_isNode\l# counter\l|+ id()\l+ infos()\l+ isNode()\l+ outputInfos()\l+ PointRoad()\l+ PointRoad()\l+ setid()\l+ updateBelongToRoad()\l+ vectorOfRoadId()\l}">
<polygon fill="none" stroke="black" points="314,-612.5 314,-779.5 439,-779.5 439,-612.5 314,-612.5"/>
<text text-anchor="middle" x="376.5" y="-767.5" font-family="Helvetica,sans-Serif" font-size="10.00">PointRoad</text>
<polyline fill="none" stroke="black" points="314,-760.5 439,-760.5 "/>
<text text-anchor="start" x="322" y="-748.5" font-family="Helvetica,sans-Serif" font-size="10.00"># m_id</text>
<text text-anchor="start" x="322" y="-737.5" font-family="Helvetica,sans-Serif" font-size="10.00"># m_isNode</text>
<text text-anchor="start" x="322" y="-726.5" font-family="Helvetica,sans-Serif" font-size="10.00"># counter</text>
<polyline fill="none" stroke="black" points="314,-719.5 439,-719.5 "/>
<text text-anchor="start" x="322" y="-707.5" font-family="Helvetica,sans-Serif" font-size="10.00">+ id()</text>
<text text-anchor="start" x="322" y="-696.5" font-family="Helvetica,sans-Serif" font-size="10.00">+ infos()</text>
<text text-anchor="start" x="322" y="-685.5" font-family="Helvetica,sans-Serif" font-size="10.00">+ isNode()</text>
<text text-anchor="start" x="322" y="-674.5" font-family="Helvetica,sans-Serif" font-size="10.00">+ outputInfos()</text>
<text text-anchor="start" x="322" y="-663.5" font-family="Helvetica,sans-Serif" font-size="10.00">+ PointRoad()</text>
<text text-anchor="start" x="322" y="-652.5" font-family="Helvetica,sans-Serif" font-size="10.00">+ PointRoad()</text>
<text text-anchor="start" x="322" y="-641.5" font-family="Helvetica,sans-Serif" font-size="10.00">+ setid()</text>
<text text-anchor="start" x="322" y="-630.5" font-family="Helvetica,sans-Serif" font-size="10.00">+ updateBelongToRoad()</text>
<text text-anchor="start" x="322" y="-619.5" font-family="Helvetica,sans-Serif" font-size="10.00">+ vectorOfRoadId()</text>
</a>
</g>
</g>
<!-- Node6&#45;&gt;Node8 -->
<g id="edge9" class="edge"><title>Node6&#45;&gt;Node8</title>
<path fill="none" stroke="#404040" d="M283.278,-909.807C285.896,-880.951 292.26,-834.886 307.5,-798 308.538,-795.488 309.644,-792.975 310.81,-790.468"/>
<polygon fill="none" stroke="#404040" points="310.912,-790.262 310.012,-783.108 316.27,-779.525 317.17,-786.68 310.912,-790.262"/>
<text text-anchor="middle" x="353" y="-801" font-family="Helvetica,sans-Serif" font-size="10.00"> #m_vectorOfRoadId</text>
</g>
<!-- Node7 -->
<g id="node7" class="node"><title>Node7</title>
<polygon fill="none" stroke="#bfbfbf" points="307,-502 307,-559 434,-559 434,-502 307,-502"/>
<text text-anchor="middle" x="370.5" y="-547" font-family="Helvetica,sans-Serif" font-size="10.00">std::vector&lt; PointRoad &gt;</text>
<polyline fill="none" stroke="#bfbfbf" points="307,-540 434,-540 "/>
<text text-anchor="middle" x="370.5" y="-528" font-family="Helvetica,sans-Serif" font-size="10.00"> </text>
<polyline fill="none" stroke="#bfbfbf" points="307,-521 434,-521 "/>
<text text-anchor="middle" x="370.5" y="-509" font-family="Helvetica,sans-Serif" font-size="10.00"> </text>
</g>
<!-- Node7&#45;&gt;Node3 -->
<g id="edge6" class="edge"><title>Node7&#45;&gt;Node3</title>
<path fill="none" stroke="#404040" d="M361.89,-501.763C358.269,-490.1 353.779,-475.636 348.961,-460.117"/>
<polygon fill="none" stroke="#404040" points="348.961,-460.116 343.362,-455.572 345.403,-448.655 351.002,-453.2 348.961,-460.116"/>
<text text-anchor="middle" x="389" y="-470" font-family="Helvetica,sans-Serif" font-size="10.00"> #m_roadPoints</text>
</g>
<!-- Node8&#45;&gt;Node7 -->
<g id="edge7" class="edge"><title>Node8&#45;&gt;Node7</title>
<path fill="none" stroke="#404040" d="M373.465,-612.292C372.943,-598.066 372.422,-583.879 371.966,-571.453"/>
<polygon fill="none" stroke="#404040" points="371.957,-571.207 367.74,-565.358 371.517,-559.215 375.734,-565.065 371.957,-571.207"/>
<text text-anchor="middle" x="398" y="-586" font-family="Helvetica,sans-Serif" font-size="10.00"> +elements</text>
</g>
<!-- Node9 -->
<g id="node9" class="node"><title>Node9</title>
<g id="a_node9"><a xlink:href="class_point.html" target="_top" xlink:title="The Point class. ">
<polygon fill="none" stroke="black" points="351,-827.5 351,-1049.5 476,-1049.5 476,-827.5 351,-827.5"/>
<text text-anchor="middle" x="413.5" y="-1037.5" font-family="Helvetica,sans-Serif" font-size="10.00">Point</text>
<polyline fill="none" stroke="black" points="351,-1030.5 476,-1030.5 "/>
<text text-anchor="start" x="359" y="-1018.5" font-family="Helvetica,sans-Serif" font-size="10.00"># POINT_RADIUS</text>
<polyline fill="none" stroke="black" points="351,-1011.5 476,-1011.5 "/>
<text text-anchor="start" x="359" y="-999.5" font-family="Helvetica,sans-Serif" font-size="10.00">+ distanceToPoint()</text>
<text text-anchor="start" x="359" y="-988.5" font-family="Helvetica,sans-Serif" font-size="10.00">+ distanceToSegment()</text>
<text text-anchor="start" x="359" y="-977.5" font-family="Helvetica,sans-Serif" font-size="10.00">+ infos()</text>
<text text-anchor="start" x="359" y="-966.5" font-family="Helvetica,sans-Serif" font-size="10.00">+ Point()</text>
<text text-anchor="start" x="359" y="-955.5" font-family="Helvetica,sans-Serif" font-size="10.00">+ Point()</text>
<text text-anchor="start" x="359" y="-944.5" font-family="Helvetica,sans-Serif" font-size="10.00">+ projectionOnSegment()</text>
<text text-anchor="start" x="359" y="-933.5" font-family="Helvetica,sans-Serif" font-size="10.00">+ samePointAs()</text>
<text text-anchor="start" x="359" y="-922.5" font-family="Helvetica,sans-Serif" font-size="10.00">+ setx()</text>
<text text-anchor="start" x="359" y="-911.5" font-family="Helvetica,sans-Serif" font-size="10.00">+ x()</text>
<text text-anchor="start" x="359" y="-900.5" font-family="Helvetica,sans-Serif" font-size="10.00">+ ~Point()</text>
<text text-anchor="start" x="359" y="-889.5" font-family="Helvetica,sans-Serif" font-size="10.00">* x()</text>
<text text-anchor="start" x="359" y="-878.5" font-family="Helvetica,sans-Serif" font-size="10.00">* setx()</text>
<text text-anchor="start" x="359" y="-867.5" font-family="Helvetica,sans-Serif" font-size="10.00">* y()</text>
<text text-anchor="start" x="359" y="-856.5" font-family="Helvetica,sans-Serif" font-size="10.00">* sety()</text>
<text text-anchor="start" x="359" y="-845.5" font-family="Helvetica,sans-Serif" font-size="10.00">* m_x</text>
<text text-anchor="start" x="359" y="-834.5" font-family="Helvetica,sans-Serif" font-size="10.00">* m_y</text>
</a>
</g>
</g>
<!-- Node9&#45;&gt;Node8 -->
<g id="edge8" class="edge"><title>Node9&#45;&gt;Node8</title>
<path fill="none" stroke="midnightblue" d="M405.327,-817.053C404.476,-810.596 403.536,-804.212 402.5,-798 401.502,-792.017 400.32,-785.87 399.019,-779.705"/>
<polygon fill="none" stroke="midnightblue" points="401.887,-817.755 406.593,-827.248 408.834,-816.892 401.887,-817.755"/>
</g>
<!-- Node11 -->
<g id="node11" class="node"><title>Node11</title>
<g id="a_node11"><a xlink:href="class_point_g_p_s.html" target="_top" xlink:title="{PointGPS\n|# m_altitude\l# m_timeStamp\l|+ addEmissionProbability()\l+ altitude()\l+ infos()\l+ PointGPS()\l+ PointGPS()\l+ timeStamp()\l+ updateProbability()\l}">
<polygon fill="none" stroke="black" points="457.5,-629 457.5,-763 591.5,-763 591.5,-629 457.5,-629"/>
<text text-anchor="middle" x="524.5" y="-751" font-family="Helvetica,sans-Serif" font-size="10.00">PointGPS</text>
<polyline fill="none" stroke="black" points="457.5,-744 591.5,-744 "/>
<text text-anchor="start" x="465.5" y="-732" font-family="Helvetica,sans-Serif" font-size="10.00"># m_altitude</text>
<text text-anchor="start" x="465.5" y="-721" font-family="Helvetica,sans-Serif" font-size="10.00"># m_timeStamp</text>
<polyline fill="none" stroke="black" points="457.5,-714 591.5,-714 "/>
<text text-anchor="start" x="465.5" y="-702" font-family="Helvetica,sans-Serif" font-size="10.00">+ addEmissionProbability()</text>
<text text-anchor="start" x="465.5" y="-691" font-family="Helvetica,sans-Serif" font-size="10.00">+ altitude()</text>
<text text-anchor="start" x="465.5" y="-680" font-family="Helvetica,sans-Serif" font-size="10.00">+ infos()</text>
<text text-anchor="start" x="465.5" y="-669" font-family="Helvetica,sans-Serif" font-size="10.00">+ PointGPS()</text>
<text text-anchor="start" x="465.5" y="-658" font-family="Helvetica,sans-Serif" font-size="10.00">+ PointGPS()</text>
<text text-anchor="start" x="465.5" y="-647" font-family="Helvetica,sans-Serif" font-size="10.00">+ timeStamp()</text>
<text text-anchor="start" x="465.5" y="-636" font-family="Helvetica,sans-Serif" font-size="10.00">+ updateProbability()</text>
</a>
</g>
</g>
<!-- Node9&#45;&gt;Node11 -->
<g id="edge12" class="edge"><title>Node9&#45;&gt;Node11</title>
<path fill="none" stroke="midnightblue" d="M468.585,-818.149C477.345,-799.168 486.119,-780.158 494.034,-763.01"/>
<polygon fill="none" stroke="midnightblue" points="465.302,-816.909 464.29,-827.456 471.658,-819.843 465.302,-816.909"/>
</g>
<!-- Node10 -->
<g id="node10" class="node"><title>Node10</title>
<polygon fill="none" stroke="#bfbfbf" points="453,-502 453,-559 584,-559 584,-502 453,-502"/>
<text text-anchor="middle" x="518.5" y="-547" font-family="Helvetica,sans-Serif" font-size="10.00">std::vector&lt; PointGPS * &gt;</text>
<polyline fill="none" stroke="#bfbfbf" points="453,-540 584,-540 "/>
<text text-anchor="middle" x="518.5" y="-528" font-family="Helvetica,sans-Serif" font-size="10.00"> </text>
<polyline fill="none" stroke="#bfbfbf" points="453,-521 584,-521 "/>
<text text-anchor="middle" x="518.5" y="-509" font-family="Helvetica,sans-Serif" font-size="10.00"> </text>
</g>
<!-- Node10&#45;&gt;Node3 -->
<g id="edge10" class="edge"><title>Node10&#45;&gt;Node3</title>
<path fill="none" stroke="#404040" d="M488.999,-501.763C461.51,-475.919 419.388,-436.316 382.855,-401.968"/>
<polygon fill="none" stroke="#404040" points="382.442,-401.58 375.331,-400.384 373.7,-393.36 380.811,-394.556 382.442,-401.58"/>
<text text-anchor="middle" x="497.5" y="-470" font-family="Helvetica,sans-Serif" font-size="10.00"> #m_trackPoints</text>
</g>
<!-- Node11&#45;&gt;Node10 -->
<g id="edge11" class="edge"><title>Node11&#45;&gt;Node10</title>
<path fill="none" stroke="#404040" d="M522.077,-628.97C521.363,-609.523 520.604,-588.844 519.97,-571.56"/>
<polygon fill="none" stroke="#404040" points="519.963,-571.353 515.745,-565.504 519.522,-559.361 523.74,-565.211 519.963,-571.353"/>
<text text-anchor="middle" x="545" y="-586" font-family="Helvetica,sans-Serif" font-size="10.00"> +elements</text>
</g>
<!-- Node12 -->
<g id="node12" class="node"><title>Node12</title>
<polygon fill="none" stroke="#bfbfbf" points="494,-910 494,-967 661,-967 661,-910 494,-910"/>
<text text-anchor="middle" x="577.5" y="-955" font-family="Helvetica,sans-Serif" font-size="10.00">std::vector&lt; EmissionProbability &gt;</text>
<polyline fill="none" stroke="#bfbfbf" points="494,-948 661,-948 "/>
<text text-anchor="middle" x="577.5" y="-936" font-family="Helvetica,sans-Serif" font-size="10.00"> </text>
<polyline fill="none" stroke="#bfbfbf" points="494,-929 661,-929 "/>
<text text-anchor="middle" x="577.5" y="-917" font-family="Helvetica,sans-Serif" font-size="10.00"> </text>
</g>
<!-- Node12&#45;&gt;Node11 -->
<g id="edge13" class="edge"><title>Node12&#45;&gt;Node11</title>
<path fill="none" stroke="#404040" d="M571.42,-909.912C564.217,-877.223 551.905,-821.355 541.7,-775.049"/>
<polygon fill="none" stroke="#404040" points="541.67,-774.914 536.473,-769.915 539.088,-763.195 544.285,-768.194 541.67,-774.914"/>
<text text-anchor="middle" x="601.5" y="-801" font-family="Helvetica,sans-Serif" font-size="10.00"> +m_emissionProbability</text>
</g>
<!-- Node13 -->
<g id="node13" class="node"><title>Node13</title>
<g id="a_node13"><a xlink:href="class_emission_probability.html" target="_top" xlink:title="{EmissionProbability\n|# m_distance\l# m_probability\l# m_roadId\l|+ distance()\l+ EmissionProbability()\l+ probability()\l+ roadId()\l+ updateProbability()\l}">
<polygon fill="none" stroke="black" points="518.5,-1097.5 518.5,-1220.5 636.5,-1220.5 636.5,-1097.5 518.5,-1097.5"/>
<text text-anchor="middle" x="577.5" y="-1208.5" font-family="Helvetica,sans-Serif" font-size="10.00">EmissionProbability</text>
<polyline fill="none" stroke="black" points="518.5,-1201.5 636.5,-1201.5 "/>
<text text-anchor="start" x="526.5" y="-1189.5" font-family="Helvetica,sans-Serif" font-size="10.00"># m_distance</text>
<text text-anchor="start" x="526.5" y="-1178.5" font-family="Helvetica,sans-Serif" font-size="10.00"># m_probability</text>
<text text-anchor="start" x="526.5" y="-1167.5" font-family="Helvetica,sans-Serif" font-size="10.00"># m_roadId</text>
<polyline fill="none" stroke="black" points="518.5,-1160.5 636.5,-1160.5 "/>
<text text-anchor="start" x="526.5" y="-1148.5" font-family="Helvetica,sans-Serif" font-size="10.00">+ distance()</text>
<text text-anchor="start" x="526.5" y="-1137.5" font-family="Helvetica,sans-Serif" font-size="10.00">+ EmissionProbability()</text>
<text text-anchor="start" x="526.5" y="-1126.5" font-family="Helvetica,sans-Serif" font-size="10.00">+ probability()</text>
<text text-anchor="start" x="526.5" y="-1115.5" font-family="Helvetica,sans-Serif" font-size="10.00">+ roadId()</text>
<text text-anchor="start" x="526.5" y="-1104.5" font-family="Helvetica,sans-Serif" font-size="10.00">+ updateProbability()</text>
</a>
</g>
</g>
<!-- Node13&#45;&gt;Node12 -->
<g id="edge14" class="edge"><title>Node13&#45;&gt;Node12</title>
<path fill="none" stroke="#404040" d="M577.5,-1097.43C577.5,-1059.74 577.5,-1012.34 577.5,-979.35"/>
<polygon fill="none" stroke="#404040" points="577.5,-979.03 573.5,-973.031 577.5,-967.03 581.5,-973.03 577.5,-979.03"/>
<text text-anchor="middle" x="602" y="-1071" font-family="Helvetica,sans-Serif" font-size="10.00"> +elements</text>
</g>
<!-- Node14 -->
<g id="node14" class="node"><title>Node14</title>
<polygon fill="none" stroke="#bfbfbf" points="618,-496.5 618,-564.5 721,-564.5 721,-496.5 618,-496.5"/>
<text text-anchor="start" x="626" y="-552.5" font-family="Helvetica,sans-Serif" font-size="10.00">std::unordered_map</text>
<text text-anchor="middle" x="669.5" y="-541.5" font-family="Helvetica,sans-Serif" font-size="10.00">&lt; long, Road &gt;</text>
<polyline fill="none" stroke="#bfbfbf" points="618,-534.5 721,-534.5 "/>
<text text-anchor="start" x="626" y="-522.5" font-family="Helvetica,sans-Serif" font-size="10.00">+ keys</text>
<polyline fill="none" stroke="#bfbfbf" points="618,-515.5 721,-515.5 "/>
<text text-anchor="middle" x="669.5" y="-503.5" font-family="Helvetica,sans-Serif" font-size="10.00"> </text>
</g>
<!-- Node14&#45;&gt;Node3 -->
<g id="edge15" class="edge"><title>Node14&#45;&gt;Node3</title>
<path fill="none" stroke="#404040" d="M617.921,-501.346C556.836,-468.004 454.578,-412.188 384.682,-374.037"/>
<polygon fill="none" stroke="#404040" points="384.287,-373.821 377.104,-374.458 373.754,-368.072 380.937,-367.435 384.287,-373.821"/>
<text text-anchor="middle" x="595.5" y="-470" font-family="Helvetica,sans-Serif" font-size="10.00"> #m_roads</text>
</g>
<!-- Node15 -->
<g id="node15" class="node"><title>Node15</title>
<g id="a_node15"><a xlink:href="class_road.html" target="_top" xlink:title="Road is an element of a network. Road are strongly linked with Points. ">
<polygon fill="none" stroke="black" points="659,-618 659,-774 786,-774 786,-618 659,-618"/>
<text text-anchor="middle" x="722.5" y="-762" font-family="Helvetica,sans-Serif" font-size="10.00">Road</text>
<polyline fill="none" stroke="black" points="659,-755 786,-755 "/>
<text text-anchor="start" x="667" y="-743" font-family="Helvetica,sans-Serif" font-size="10.00"># m_edgeId</text>
<polyline fill="none" stroke="black" points="659,-736 786,-736 "/>
<text text-anchor="start" x="667" y="-724" font-family="Helvetica,sans-Serif" font-size="10.00">+ addNeighbor()</text>
<text text-anchor="start" x="667" y="-713" font-family="Helvetica,sans-Serif" font-size="10.00">+ addPoint()</text>
<text text-anchor="start" x="667" y="-702" font-family="Helvetica,sans-Serif" font-size="10.00">+ edgeId()</text>
<text text-anchor="start" x="667" y="-691" font-family="Helvetica,sans-Serif" font-size="10.00">+ getIntersectionIDWith()</text>
<text text-anchor="start" x="667" y="-680" font-family="Helvetica,sans-Serif" font-size="10.00">+ getNoOfNeighbors()</text>
<text text-anchor="start" x="667" y="-669" font-family="Helvetica,sans-Serif" font-size="10.00">+ outputInfos()</text>
<text text-anchor="start" x="667" y="-658" font-family="Helvetica,sans-Serif" font-size="10.00">+ Road()</text>
<text text-anchor="start" x="667" y="-647" font-family="Helvetica,sans-Serif" font-size="10.00">+ Road()</text>
<text text-anchor="start" x="667" y="-636" font-family="Helvetica,sans-Serif" font-size="10.00">+ vectorOfPointsId()</text>
<text text-anchor="start" x="667" y="-625" font-family="Helvetica,sans-Serif" font-size="10.00">+ ~Road()</text>
</a>
</g>
</g>
<!-- Node15&#45;&gt;Node14 -->
<g id="edge16" class="edge"><title>Node15&#45;&gt;Node14</title>
<path fill="none" stroke="#404040" d="M697.397,-617.559C692.815,-603.423 688.176,-589.115 684.032,-576.331"/>
<polygon fill="none" stroke="#404040" points="683.929,-576.013 678.274,-571.539 680.229,-564.597 685.884,-569.072 683.929,-576.013"/>
<text text-anchor="middle" x="714" y="-586" font-family="Helvetica,sans-Serif" font-size="10.00"> +elements</text>
</g>
<!-- Node16 -->
<g id="node16" class="node"><title>Node16</title>
<polygon fill="none" stroke="#bfbfbf" points="679.5,-910 679.5,-967 765.5,-967 765.5,-910 679.5,-910"/>
<text text-anchor="middle" x="722.5" y="-955" font-family="Helvetica,sans-Serif" font-size="10.00">std::set&lt; long &gt;</text>
<polyline fill="none" stroke="#bfbfbf" points="679.5,-948 765.5,-948 "/>
<text text-anchor="start" x="687.5" y="-936" font-family="Helvetica,sans-Serif" font-size="10.00">+ keys</text>
<polyline fill="none" stroke="#bfbfbf" points="679.5,-929 765.5,-929 "/>
<text text-anchor="middle" x="722.5" y="-917" font-family="Helvetica,sans-Serif" font-size="10.00"> </text>
</g>
<!-- Node16&#45;&gt;Node15 -->
<g id="edge17" class="edge"><title>Node16&#45;&gt;Node15</title>
<path fill="none" stroke="#404040" d="M722.5,-909.912C722.5,-879.856 722.5,-830.205 722.5,-786.407"/>
<polygon fill="none" stroke="#404040" points="722.5,-786.23 718.5,-780.23 722.5,-774.23 726.5,-780.23 722.5,-786.23"/>
<text text-anchor="middle" x="768" y="-801" font-family="Helvetica,sans-Serif" font-size="10.00"> +m_setOfNeighbors</text>
</g>
<!-- Node17 -->
<g id="node17" class="node"><title>Node17</title>
<polygon fill="none" stroke="#bfbfbf" points="790.5,-910 790.5,-967 882.5,-967 882.5,-910 790.5,-910"/>
<text text-anchor="middle" x="836.5" y="-955" font-family="Helvetica,sans-Serif" font-size="10.00">std::vector&lt; int &gt;</text>
<polyline fill="none" stroke="#bfbfbf" points="790.5,-948 882.5,-948 "/>
<text text-anchor="start" x="798.5" y="-936" font-family="Helvetica,sans-Serif" font-size="10.00">+ elements</text>
<polyline fill="none" stroke="#bfbfbf" points="790.5,-929 882.5,-929 "/>
<text text-anchor="middle" x="836.5" y="-917" font-family="Helvetica,sans-Serif" font-size="10.00"> </text>
</g>
<!-- Node17&#45;&gt;Node15 -->
<g id="edge18" class="edge"><title>Node17&#45;&gt;Node15</title>
<path fill="none" stroke="#404040" d="M836.748,-909.909C835.986,-880.731 831.797,-834.027 814.5,-798 808.959,-786.459 801.665,-775.294 793.602,-764.861"/>
<polygon fill="none" stroke="#404040" points="793.567,-764.817 786.682,-762.674 786.011,-755.495 792.897,-757.637 793.567,-764.817"/>
<text text-anchor="middle" x="866.5" y="-801" font-family="Helvetica,sans-Serif" font-size="10.00"> #m_vectorOfPointsId</text>
</g>
</g>
</svg>
        <g id="navigator" transform="translate(0 0)" fill="#404254">
                <rect fill="#f2f5e9" fill-opacity="0.5" stroke="#606060" stroke-width=".5" x="0" y="0" width="60" height="60"/>
                <use id="zoomplus" xlink:href="#zoomPlus" x="17" y="9" onmousedown="handleZoom(evt,'in')"/>
                <use id="zoomminus" xlink:href="#zoomMin" x="42" y="9" onmousedown="handleZoom(evt,'out')"/>
                <use id="reset" xlink:href="#resetDef" x="30" y="36" onmousedown="handleReset()"/>
                <g id="arrowUp" xlink:href="#dirArrow" transform="translate(30 24)" onmousedown="handlePan(0,-1)">
                  <use xlink:href="#rim" fill="#404040">
                        <set attributeName="fill" to="#808080" begin="arrowUp.mouseover" end="arrowUp.mouseout"/>
                  </use>
                  <path fill="none" stroke="white" stroke-width="1.5" d="M0,-3.0v7 M-2.5,-0.5L0,-3.0L2.5,-0.5"/>
                </g>
                <g id="arrowRight" xlink:href="#dirArrow" transform="rotate(90) translate(36 -43)" onmousedown="handlePan(1,0)">
                  <use xlink:href="#rim" fill="#404040">
                        <set attributeName="fill" to="#808080" begin="arrowRight.mouseover" end="arrowRight.mouseout"/>
                  </use>
                  <path fill="none" stroke="white" stroke-width="1.5" d="M0,-3.0v7 M-2.5,-0.5L0,-3.0L2.5,-0.5"/>
                </g>
                <g id="arrowDown" xlink:href="#dirArrow" transform="rotate(180) translate(-30 -48)" onmousedown="handlePan(0,1)">
                  <use xlink:href="#rim" fill="#404040">
                        <set attributeName="fill" to="#808080" begin="arrowDown.mouseover" end="arrowDown.mouseout"/>
                  </use>
                  <path fill="none" stroke="white" stroke-width="1.5" d="M0,-3.0v7 M-2.5,-0.5L0,-3.0L2.5,-0.5"/>
                </g>
                <g id="arrowLeft" xlink:href="#dirArrow" transform="rotate(270) translate(-36 17)" onmousedown="handlePan(-1,0)">
                  <use xlink:href="#rim" fill="#404040">
                        <set attributeName="fill" to="#808080" begin="arrowLeft.mouseover" end="arrowLeft.mouseout"/>
                  </use>
                  <path fill="none" stroke="white" stroke-width="1.5" d="M0,-3.0v7 M-2.5,-0.5L0,-3.0L2.5,-0.5"/>
                </g>
        </g>
        <svg viewBox="0 0 15 15" width="100%" height="30px" preserveAspectRatio="xMaxYMin meet">
         <g id="arrow_out" transform="scale(0.3 0.3)">
          <a xlink:href="class_q_map_widget__coll__graph_org.svg" target="_base">
           <rect id="button" ry="5" rx="5" y="6" x="6" height="38" width="38"
                fill="#f2f5e9" fill-opacity="0.5" stroke="#606060" stroke-width="1.0"/>
           <path id="arrow"
             d="M 11.500037,31.436501 C 11.940474,20.09759 22.043105,11.32322 32.158766,21.979434 L 37.068811,17.246167 C 37.068811,17.246167 37.088388,32 37.088388,32 L 22.160133,31.978069 C 22.160133,31.978069 26.997745,27.140456 26.997745,27.140456 C 18.528582,18.264221 13.291696,25.230495 11.500037,31.436501 z"
             style="fill:#404040;"/>
          </a>
         </g>
        </svg>
</svg>
