<?xml version="1.0" encoding="UTF-8" standalone="no"?>
<!DOCTYPE svg PUBLIC "-//W3C//DTD SVG 1.1//EN"
 "http://www.w3.org/Graphics/SVG/1.1/DTD/svg11.dtd">
<!-- Generated by graphviz version 2.38.0 (20140413.2041)
 -->
<!-- Title: Point::x Pages: 1 -->
<svg width="603pt" height="180pt"
 viewBox="0.00 0.00 603.00 180.00" xmlns="http://www.w3.org/2000/svg" xmlns:xlink="http://www.w3.org/1999/xlink">
<g id="graph0" class="graph" transform="scale(1 1) rotate(0) translate(4 176)">
<title>Point::x</title>
<!-- Node1 -->
<g id="node1" class="node"><title>Node1</title>
<polygon fill="#bfbfbf" stroke="black" points="0,-76.5 0,-95.5 50,-95.5 50,-76.5 0,-76.5"/>
<text text-anchor="middle" x="25" y="-83.5" font-family="Helvetica,sans-Serif" font-size="10.00">Point::x</text>
</g>
<!-- Node2 -->
<g id="node2" class="node"><title>Node2</title>
<g id="a_node2"><a xlink:href="class_box.html#a3a96bf8f86322e4885028e517ef40535" target="_top" xlink:title="Box::distanceToPoint">
<polygon fill="none" stroke="black" points="92,-152.5 92,-171.5 202,-171.5 202,-152.5 92,-152.5"/>
<text text-anchor="middle" x="147" y="-159.5" font-family="Helvetica,sans-Serif" font-size="10.00">Box::distanceToPoint</text>
</a>
</g>
</g>
<!-- Node1&#45;&gt;Node2 -->
<g id="edge1" class="edge"><title>Node1&#45;&gt;Node2</title>
<path fill="none" stroke="midnightblue" d="M40.4712,-103.479C51.72,-116.056 68.3392,-132.576 86,-143 92.3985,-146.777 99.6312,-149.888 106.804,-152.42"/>
<polygon fill="midnightblue" stroke="midnightblue" points="43.0893,-101.156 33.8976,-95.8867 37.7973,-105.738 43.0893,-101.156"/>
</g>
<!-- Node3 -->
<g id="node3" class="node"><title>Node3</title>
<g id="a_node3"><a xlink:href="structhash_func.html#a1ec440ab36b0e013a3bbc9cf48f34e35" target="_top" xlink:title="hashFunc::operator()">
<polygon fill="none" stroke="black" points="93.5,-114.5 93.5,-133.5 200.5,-133.5 200.5,-114.5 93.5,-114.5"/>
<text text-anchor="middle" x="147" y="-121.5" font-family="Helvetica,sans-Serif" font-size="10.00">hashFunc::operator()</text>
</a>
</g>
</g>
<!-- Node1&#45;&gt;Node3 -->
<g id="edge2" class="edge"><title>Node1&#45;&gt;Node3</title>
<path fill="none" stroke="midnightblue" d="M60.1278,-96.8071C77.6641,-102.36 98.8475,-109.068 115.787,-114.432"/>
<polygon fill="midnightblue" stroke="midnightblue" points="60.8739,-93.3722 50.2838,-93.6899 58.7606,-100.046 60.8739,-93.3722"/>
</g>
<!-- Node4 -->
<g id="node4" class="node"><title>Node4</title>
<g id="a_node4"><a xlink:href="class_k_d_tree.html#a39df3eb7a379ef30cf6b71136cdb320e" target="_top" xlink:title="KDTree::locate">
<polygon fill="none" stroke="black" points="105.5,-76.5 105.5,-95.5 188.5,-95.5 188.5,-76.5 105.5,-76.5"/>
<text text-anchor="middle" x="147" y="-83.5" font-family="Helvetica,sans-Serif" font-size="10.00">KDTree::locate</text>
</a>
</g>
</g>
<!-- Node1&#45;&gt;Node4 -->
<g id="edge3" class="edge"><title>Node1&#45;&gt;Node4</title>
<path fill="none" stroke="midnightblue" d="M60.456,-86C74.4226,-86 90.6596,-86 105.211,-86"/>
<polygon fill="midnightblue" stroke="midnightblue" points="60.2838,-82.5001 50.2838,-86 60.2838,-89.5001 60.2838,-82.5001"/>
</g>
<!-- Node5 -->
<g id="node5" class="node"><title>Node5</title>
<g id="a_node5"><a xlink:href="class_point.html#a6f6a42c3b4bfe6e7e5ccb502788227d6" target="_top" xlink:title="Point::setx">
<polygon fill="none" stroke="black" points="115,-38.5 115,-57.5 179,-57.5 179,-38.5 115,-38.5"/>
<text text-anchor="middle" x="147" y="-45.5" font-family="Helvetica,sans-Serif" font-size="10.00">Point::setx</text>
</a>
</g>
</g>
<!-- Node1&#45;&gt;Node5 -->
<g id="edge4" class="edge"><title>Node1&#45;&gt;Node5</title>
<path fill="none" stroke="midnightblue" d="M60.1278,-75.1929C77.6641,-69.6397 98.8475,-62.9316 115.787,-57.5675"/>
<polygon fill="midnightblue" stroke="midnightblue" points="58.7606,-71.9544 50.2838,-78.3101 60.8739,-78.6278 58.7606,-71.9544"/>
</g>
<!-- Node7 -->
<g id="node7" class="node"><title>Node7</title>
<g id="a_node7"><a xlink:href="class_q_map_viewer.html#a3e5765a7589d278777553814e4fd146b" target="_top" xlink:title="QMapViewer::drawPoint">
<polygon fill="none" stroke="black" points="86,-0.5 86,-19.5 208,-19.5 208,-0.5 86,-0.5"/>
<text text-anchor="middle" x="147" y="-7.5" font-family="Helvetica,sans-Serif" font-size="10.00">QMapViewer::drawPoint</text>
</a>
</g>
</g>
<!-- Node1&#45;&gt;Node7 -->
<g id="edge6" class="edge"><title>Node1&#45;&gt;Node7</title>
<path fill="none" stroke="midnightblue" d="M40.4712,-68.5212C51.72,-55.9439 68.3392,-39.4243 86,-29 92.3985,-25.2233 99.6312,-22.1123 106.804,-19.58"/>
<polygon fill="midnightblue" stroke="midnightblue" points="37.7973,-66.2623 33.8976,-76.1133 43.0893,-70.8443 37.7973,-66.2623"/>
</g>
<!-- Node6 -->
<g id="node6" class="node"><title>Node6</title>
<g id="a_node6"><a xlink:href="class_k_d_tree.html#a8f658d6d9211976a26b0f60471880e4a" target="_top" xlink:title="KDTree::KDTree">
<polygon fill="none" stroke="black" points="279,-38.5 279,-57.5 369,-57.5 369,-38.5 279,-38.5"/>
<text text-anchor="middle" x="324" y="-45.5" font-family="Helvetica,sans-Serif" font-size="10.00">KDTree::KDTree</text>
</a>
</g>
</g>
<!-- Node5&#45;&gt;Node6 -->
<g id="edge5" class="edge"><title>Node5&#45;&gt;Node6</title>
<path fill="none" stroke="midnightblue" d="M189.535,-48C216.435,-48 251.43,-48 278.837,-48"/>
<polygon fill="midnightblue" stroke="midnightblue" points="189.287,-44.5001 179.286,-48 189.286,-51.5001 189.287,-44.5001"/>
</g>
<!-- Node8 -->
<g id="node8" class="node"><title>Node8</title>
<g id="a_node8"><a xlink:href="class_q_map_viewer.html#acadee31a64d4f8fe837f630e6e19dd9b" target="_top" xlink:title="QMapViewer::drawAllGPSPoints">
<polygon fill="none" stroke="black" points="244,-0.5 244,-19.5 404,-19.5 404,-0.5 244,-0.5"/>
<text text-anchor="middle" x="324" y="-7.5" font-family="Helvetica,sans-Serif" font-size="10.00">QMapViewer::drawAllGPSPoints</text>
</a>
</g>
</g>
<!-- Node7&#45;&gt;Node8 -->
<g id="edge7" class="edge"><title>Node7&#45;&gt;Node8</title>
<path fill="none" stroke="midnightblue" d="M218.323,-10C226.709,-10 235.313,-10 243.812,-10"/>
<polygon fill="midnightblue" stroke="midnightblue" points="218.225,-6.5001 208.225,-10 218.225,-13.5001 218.225,-6.5001"/>
</g>
<!-- Node9 -->
<g id="node9" class="node"><title>Node9</title>
<g id="a_node9"><a xlink:href="class_q_map_viewer.html#a348e9f7fa0b46836bb72b19a852f99ac" target="_top" xlink:title="QMapViewer::onSignalAllPoints">
<polygon fill="none" stroke="black" points="440,-0.5 440,-19.5 595,-19.5 595,-0.5 440,-0.5"/>
<text text-anchor="middle" x="517.5" y="-7.5" font-family="Helvetica,sans-Serif" font-size="10.00">QMapViewer::onSignalAllPoints</text>
</a>
</g>
</g>
<!-- Node8&#45;&gt;Node9 -->
<g id="edge8" class="edge"><title>Node8&#45;&gt;Node9</title>
<path fill="none" stroke="midnightblue" d="M414.513,-10C422.948,-10 431.449,-10 439.751,-10"/>
<polygon fill="midnightblue" stroke="midnightblue" points="414.273,-6.5001 404.273,-10 414.273,-13.5001 414.273,-6.5001"/>
</g>
</g>
</svg>
