<?xml version="1.0" encoding="UTF-8" standalone="no"?>
<!DOCTYPE svg PUBLIC "-//W3C//DTD SVG 1.1//EN"
 "http://www.w3.org/Graphics/SVG/1.1/DTD/svg11.dtd">
<!-- Generated by graphviz version 2.38.0 (20140413.2041)
 -->
<!-- Title: Road::vectorOfPointsId Pages: 1 -->
<svg width="305pt" height="66pt"
 viewBox="0.00 0.00 305.00 66.00" xmlns="http://www.w3.org/2000/svg" xmlns:xlink="http://www.w3.org/1999/xlink">
<g id="graph0" class="graph" transform="scale(1 1) rotate(0) translate(4 62)">
<title>Road::vectorOfPointsId</title>
<!-- Node1 -->
<g id="node1" class="node"><title>Node1</title>
<polygon fill="#bfbfbf" stroke="black" points="0,-19.5 0,-38.5 119,-38.5 119,-19.5 0,-19.5"/>
<text text-anchor="middle" x="59.5" y="-26.5" font-family="Helvetica,sans-Serif" font-size="10.00">Road::vectorOfPointsId</text>
</g>
<!-- Node2 -->
<g id="node2" class="node"><title>Node2</title>
<g id="a_node2"><a xlink:href="class_q_map_scene.html#abd1d123ef7cfd4912a79a07a914c3b72" target="_top" xlink:title="QMapScene::signalAllRoads">
<polygon fill="none" stroke="black" points="155,-38.5 155,-57.5 297,-57.5 297,-38.5 155,-38.5"/>
<text text-anchor="middle" x="226" y="-45.5" font-family="Helvetica,sans-Serif" font-size="10.00">QMapScene::signalAllRoads</text>
</a>
</g>
</g>
<!-- Node1&#45;&gt;Node2 -->
<g id="edge1" class="edge"><title>Node1&#45;&gt;Node2</title>
<path fill="none" stroke="midnightblue" d="M129.559,-36.9765C137.966,-37.9474 146.561,-38.9402 154.981,-39.9127"/>
<polygon fill="midnightblue" stroke="midnightblue" points="129.759,-33.4764 119.424,-35.8058 128.956,-40.4301 129.759,-33.4764"/>
</g>
<!-- Node3 -->
<g id="node3" class="node"><title>Node3</title>
<g id="a_node3"><a xlink:href="class_solver.html#a11051ddab551fdcee7dc71dcad1d0fd7" target="_top" xlink:title="Solver::setDistance">
<polygon fill="none" stroke="black" points="174.5,-0.5 174.5,-19.5 277.5,-19.5 277.5,-0.5 174.5,-0.5"/>
<text text-anchor="middle" x="226" y="-7.5" font-family="Helvetica,sans-Serif" font-size="10.00">Solver::setDistance</text>
</a>
</g>
</g>
<!-- Node1&#45;&gt;Node3 -->
<g id="edge2" class="edge"><title>Node1&#45;&gt;Node3</title>
<path fill="none" stroke="midnightblue" d="M129.681,-21.0094C144.672,-19.278 160.257,-17.4779 174.375,-15.8473"/>
<polygon fill="midnightblue" stroke="midnightblue" points="128.956,-17.5699 119.424,-22.1942 129.759,-24.5236 128.956,-17.5699"/>
</g>
</g>
</svg>
