<?xml version="1.0" encoding="UTF-8" standalone="no"?>
<!DOCTYPE svg PUBLIC "-//W3C//DTD SVG 1.1//EN"
 "http://www.w3.org/Graphics/SVG/1.1/DTD/svg11.dtd">
<!-- Generated by graphviz version 2.38.0 (20140413.2041)
 -->
<!-- Title: Track::getPoints Pages: 1 -->
<svg width="282pt" height="66pt"
 viewBox="0.00 0.00 282.00 66.00" xmlns="http://www.w3.org/2000/svg" xmlns:xlink="http://www.w3.org/1999/xlink">
<g id="graph0" class="graph" transform="scale(1 1) rotate(0) translate(4 62)">
<title>Track::getPoints</title>
<!-- Node1 -->
<g id="node1" class="node"><title>Node1</title>
<polygon fill="#bfbfbf" stroke="black" points="0,-19.5 0,-38.5 89,-38.5 89,-19.5 0,-19.5"/>
<text text-anchor="middle" x="44.5" y="-26.5" font-family="Helvetica,sans-Serif" font-size="10.00">Track::getPoints</text>
</g>
<!-- Node2 -->
<g id="node2" class="node"><title>Node2</title>
<g id="a_node2"><a xlink:href="class_filtering.html#ad96665ec38911625b6778741000fbfe2" target="_top" xlink:title="getInfo ">
<polygon fill="none" stroke="black" points="156,-38.5 156,-57.5 243,-57.5 243,-38.5 156,-38.5"/>
<text text-anchor="middle" x="199.5" y="-45.5" font-family="Helvetica,sans-Serif" font-size="10.00">Filtering::getInfo</text>
</a>
</g>
</g>
<!-- Node1&#45;&gt;Node2 -->
<g id="edge1" class="edge"><title>Node1&#45;&gt;Node2</title>
<path fill="none" stroke="midnightblue" d="M99.4163,-35.6955C117.964,-37.9988 138.456,-40.5436 155.969,-42.7184"/>
<polygon fill="midnightblue" stroke="midnightblue" points="99.6988,-32.2038 89.3437,-34.4446 98.8361,-39.1504 99.6988,-32.2038"/>
</g>
<!-- Node3 -->
<g id="node3" class="node"><title>Node3</title>
<g id="a_node3"><a xlink:href="class_sauvegarde.html#ae906a8c82dd7e2c0539b9f7ff9e5d715" target="_top" xlink:title="save data in a CSV file ">
<polygon fill="none" stroke="black" points="125,-0.5 125,-19.5 274,-19.5 274,-0.5 125,-0.5"/>
<text text-anchor="middle" x="199.5" y="-7.5" font-family="Helvetica,sans-Serif" font-size="10.00">Sauvegarde::sauvegarderCSV</text>
</a>
</g>
</g>
<!-- Node1&#45;&gt;Node3 -->
<g id="edge2" class="edge"><title>Node1&#45;&gt;Node3</title>
<path fill="none" stroke="midnightblue" d="M99.5207,-22.2916C107.741,-21.2707 116.342,-20.2027 124.894,-19.1407"/>
<polygon fill="midnightblue" stroke="midnightblue" points="98.8361,-18.8496 89.3437,-23.5554 99.6988,-25.7962 98.8361,-18.8496"/>
</g>
</g>
</svg>
