<?xml version="1.0" encoding="UTF-8" standalone="no"?>
<!DOCTYPE svg PUBLIC "-//W3C//DTD SVG 1.1//EN"
 "http://www.w3.org/Graphics/SVG/1.1/DTD/svg11.dtd">
<!-- Generated by graphviz version 2.38.0 (20140413.2041)
 -->
<!-- Title: Box Pages: 1 -->
<svg width="130pt" height="248pt"
 viewBox="0.00 0.00 130.00 248.00" xmlns="http://www.w3.org/2000/svg" xmlns:xlink="http://www.w3.org/1999/xlink">
<g id="graph0" class="graph" transform="scale(1 1) rotate(0) translate(4 244)">
<title>Box</title>
<!-- Node1 -->
<g id="node1" class="node"><title>Node1</title>
<polygon fill="#bfbfbf" stroke="black" points="10,-149.5 10,-239.5 112,-239.5 112,-149.5 10,-149.5"/>
<text text-anchor="middle" x="61" y="-227.5" font-family="Helvetica,sans-Serif" font-size="10.00">Box</text>
<polyline fill="none" stroke="black" points="10,-220.5 112,-220.5 "/>
<text text-anchor="start" x="18" y="-208.5" font-family="Helvetica,sans-Serif" font-size="10.00">+ m_high</text>
<text text-anchor="start" x="18" y="-197.5" font-family="Helvetica,sans-Serif" font-size="10.00">+ m_low</text>
<polyline fill="none" stroke="black" points="10,-190.5 112,-190.5 "/>
<text text-anchor="start" x="18" y="-178.5" font-family="Helvetica,sans-Serif" font-size="10.00">+ Box()</text>
<text text-anchor="start" x="18" y="-167.5" font-family="Helvetica,sans-Serif" font-size="10.00">+ Box()</text>
<text text-anchor="start" x="18" y="-156.5" font-family="Helvetica,sans-Serif" font-size="10.00">+ distanceToPoint()</text>
</g>
<!-- Node2 -->
<g id="node2" class="node"><title>Node2</title>
<g id="a_node2"><a xlink:href="class_box_node.html" target="_top" xlink:title="{BoxNode\n|+ m_daughterBox1\l+ m_daughterBox2\l+ m_indexOfLowerPoint\l+ m_indexOfUpperPoint\l+ m_motherBox\l|+ BoxNode()\l+ BoxNode()\l}">
<polygon fill="none" stroke="black" points="0,-0.5 0,-112.5 122,-112.5 122,-0.5 0,-0.5"/>
<text text-anchor="middle" x="61" y="-100.5" font-family="Helvetica,sans-Serif" font-size="10.00">BoxNode</text>
<polyline fill="none" stroke="black" points="0,-93.5 122,-93.5 "/>
<text text-anchor="start" x="8" y="-81.5" font-family="Helvetica,sans-Serif" font-size="10.00">+ m_daughterBox1</text>
<text text-anchor="start" x="8" y="-70.5" font-family="Helvetica,sans-Serif" font-size="10.00">+ m_daughterBox2</text>
<text text-anchor="start" x="8" y="-59.5" font-family="Helvetica,sans-Serif" font-size="10.00">+ m_indexOfLowerPoint</text>
<text text-anchor="start" x="8" y="-48.5" font-family="Helvetica,sans-Serif" font-size="10.00">+ m_indexOfUpperPoint</text>
<text text-anchor="start" x="8" y="-37.5" font-family="Helvetica,sans-Serif" font-size="10.00">+ m_motherBox</text>
<polyline fill="none" stroke="black" points="0,-30.5 122,-30.5 "/>
<text text-anchor="start" x="8" y="-18.5" font-family="Helvetica,sans-Serif" font-size="10.00">+ BoxNode()</text>
<text text-anchor="start" x="8" y="-7.5" font-family="Helvetica,sans-Serif" font-size="10.00">+ BoxNode()</text>
</a>
</g>
</g>
<!-- Node1&#45;&gt;Node2 -->
<g id="edge1" class="edge"><title>Node1&#45;&gt;Node2</title>
<path fill="none" stroke="midnightblue" d="M61,-139.312C61,-130.611 61,-121.595 61,-112.867"/>
<polygon fill="none" stroke="midnightblue" points="57.5001,-139.345 61,-149.345 64.5001,-139.345 57.5001,-139.345"/>
</g>
</g>
</svg>
