<?xml version="1.0" encoding="UTF-8" standalone="no"?>
<!DOCTYPE svg PUBLIC "-//W3C//DTD SVG 1.1//EN"
 "http://www.w3.org/Graphics/SVG/1.1/DTD/svg11.dtd">
<!-- Generated by graphviz version 2.38.0 (20140413.2041)
 -->
<!-- Title: Solver::setDistance Pages: 1 -->
<svg width="467pt" height="218pt"
 viewBox="0.00 0.00 467.00 218.00" xmlns="http://www.w3.org/2000/svg" xmlns:xlink="http://www.w3.org/1999/xlink">
<g id="graph0" class="graph" transform="scale(1 1) rotate(0) translate(4 214)">
<title>Solver::setDistance</title>
<!-- Node1 -->
<g id="node1" class="node"><title>Node1</title>
<polygon fill="#bfbfbf" stroke="black" points="0,-95.5 0,-114.5 103,-114.5 103,-95.5 0,-95.5"/>
<text text-anchor="middle" x="51.5" y="-102.5" font-family="Helvetica,sans-Serif" font-size="10.00">Solver::setDistance</text>
</g>
<!-- Node2 -->
<g id="node2" class="node"><title>Node2</title>
<g id="a_node2"><a xlink:href="class_point_g_p_s.html#a9a622f6883b721ee5f04f092a76ece64" target="_top" xlink:title="PointGPS::infos">
<polygon fill="none" stroke="black" points="179.5,-190.5 179.5,-209.5 266.5,-209.5 266.5,-190.5 179.5,-190.5"/>
<text text-anchor="middle" x="223" y="-197.5" font-family="Helvetica,sans-Serif" font-size="10.00">PointGPS::infos</text>
</a>
</g>
</g>
<!-- Node1&#45;&gt;Node2 -->
<g id="edge1" class="edge"><title>Node1&#45;&gt;Node2</title>
<path fill="none" stroke="midnightblue" d="M60.4854,-114.615C74.5763,-130.918 105.544,-163.881 139,-181 148.374,-185.797 158.958,-189.395 169.353,-192.091"/>
<polygon fill="midnightblue" stroke="midnightblue" points="168.679,-195.528 179.215,-194.408 170.28,-188.713 168.679,-195.528"/>
</g>
<!-- Node4 -->
<g id="node4" class="node"><title>Node4</title>
<g id="a_node4"><a xlink:href="class_road.html#acb1a56234cdbb34e0cf5c647c7c6406d" target="_top" xlink:title="outputInfos ">
<polygon fill="none" stroke="black" points="175.5,-152.5 175.5,-171.5 270.5,-171.5 270.5,-152.5 175.5,-152.5"/>
<text text-anchor="middle" x="223" y="-159.5" font-family="Helvetica,sans-Serif" font-size="10.00">Road::outputInfos</text>
</a>
</g>
</g>
<!-- Node1&#45;&gt;Node4 -->
<g id="edge3" class="edge"><title>Node1&#45;&gt;Node4</title>
<path fill="none" stroke="midnightblue" d="M71.332,-114.512C88.5871,-122.927 115.018,-135.066 139,-143 147.463,-145.8 156.545,-148.335 165.484,-150.575"/>
<polygon fill="midnightblue" stroke="midnightblue" points="164.935,-154.042 175.476,-152.976 166.571,-147.236 164.935,-154.042"/>
</g>
<!-- Node5 -->
<g id="node5" class="node"><title>Node5</title>
<g id="a_node5"><a xlink:href="class_road.html#a2877f55c577ddff8c519e7f44c2256d5" target="_top" xlink:title="vectorOfPointsId ">
<polygon fill="none" stroke="black" points="163.5,-114.5 163.5,-133.5 282.5,-133.5 282.5,-114.5 163.5,-114.5"/>
<text text-anchor="middle" x="223" y="-121.5" font-family="Helvetica,sans-Serif" font-size="10.00">Road::vectorOfPointsId</text>
</a>
</g>
</g>
<!-- Node1&#45;&gt;Node5 -->
<g id="edge4" class="edge"><title>Node1&#45;&gt;Node5</title>
<path fill="none" stroke="midnightblue" d="M103.356,-110.701C119.022,-112.457 136.538,-114.42 153.201,-116.288"/>
<polygon fill="midnightblue" stroke="midnightblue" points="153.114,-119.8 163.442,-117.436 153.894,-112.844 153.114,-119.8"/>
</g>
<!-- Node6 -->
<g id="node6" class="node"><title>Node6</title>
<g id="a_node6"><a xlink:href="class_point.html#a39daa6ebd31cdc2d7151db77bfdf2166" target="_top" xlink:title="Compute the distance between a point and a segment. ">
<polygon fill="none" stroke="black" points="157,-76.5 157,-95.5 289,-95.5 289,-76.5 157,-76.5"/>
<text text-anchor="middle" x="223" y="-83.5" font-family="Helvetica,sans-Serif" font-size="10.00">Point::distanceToSegment</text>
</a>
</g>
</g>
<!-- Node1&#45;&gt;Node6 -->
<g id="edge5" class="edge"><title>Node1&#45;&gt;Node6</title>
<path fill="none" stroke="midnightblue" d="M103.356,-99.2994C116.983,-97.7718 132.011,-96.0873 146.659,-94.4454"/>
<polygon fill="midnightblue" stroke="midnightblue" points="147.169,-97.9101 156.717,-93.3179 146.389,-90.9537 147.169,-97.9101"/>
</g>
<!-- Node9 -->
<g id="node9" class="node"><title>Node9</title>
<g id="a_node9"><a xlink:href="class_point_g_p_s.html#a9c833db3ff338f3cd2ee8480db6c7d56" target="_top" xlink:title="PointGPS::addEmissionProbability">
<polygon fill="none" stroke="black" points="139,-38.5 139,-57.5 307,-57.5 307,-38.5 139,-38.5"/>
<text text-anchor="middle" x="223" y="-45.5" font-family="Helvetica,sans-Serif" font-size="10.00">PointGPS::addEmissionProbability</text>
</a>
</g>
</g>
<!-- Node1&#45;&gt;Node9 -->
<g id="edge8" class="edge"><title>Node1&#45;&gt;Node9</title>
<path fill="none" stroke="midnightblue" d="M71.332,-95.4878C88.5871,-87.0734 115.018,-74.9335 139,-67 146.783,-64.4254 155.088,-62.0747 163.325,-59.9717"/>
<polygon fill="midnightblue" stroke="midnightblue" points="164.416,-63.3079 173.297,-57.5309 162.752,-56.5086 164.416,-63.3079"/>
</g>
<!-- Node10 -->
<g id="node10" class="node"><title>Node10</title>
<g id="a_node10"><a xlink:href="class_road.html#ad6715392969e36eb10efac542519755c" target="_top" xlink:title="edgeId ">
<polygon fill="none" stroke="black" points="185.5,-0.5 185.5,-19.5 260.5,-19.5 260.5,-0.5 185.5,-0.5"/>
<text text-anchor="middle" x="223" y="-7.5" font-family="Helvetica,sans-Serif" font-size="10.00">Road::edgeId</text>
</a>
</g>
</g>
<!-- Node1&#45;&gt;Node10 -->
<g id="edge9" class="edge"><title>Node1&#45;&gt;Node10</title>
<path fill="none" stroke="midnightblue" d="M60.4854,-95.3854C74.5763,-79.0819 105.544,-46.1193 139,-29 150.104,-23.3184 162.904,-19.3181 175.077,-16.5079"/>
<polygon fill="midnightblue" stroke="midnightblue" points="176.029,-19.8848 185.103,-14.4165 174.599,-13.0323 176.029,-19.8848"/>
</g>
<!-- Node3 -->
<g id="node3" class="node"><title>Node3</title>
<g id="a_node3"><a xlink:href="class_point.html#a1c2033a89f5dc6faa9e50f06c2111e88" target="_top" xlink:title="Point::infos">
<polygon fill="none" stroke="black" points="368,-190.5 368,-209.5 434,-209.5 434,-190.5 368,-190.5"/>
<text text-anchor="middle" x="401" y="-197.5" font-family="Helvetica,sans-Serif" font-size="10.00">Point::infos</text>
</a>
</g>
</g>
<!-- Node2&#45;&gt;Node3 -->
<g id="edge2" class="edge"><title>Node2&#45;&gt;Node3</title>
<path fill="none" stroke="midnightblue" d="M266.605,-200C294.299,-200 330.253,-200 357.855,-200"/>
<polygon fill="midnightblue" stroke="midnightblue" points="357.991,-203.5 367.991,-200 357.991,-196.5 357.991,-203.5"/>
</g>
<!-- Node7 -->
<g id="node7" class="node"><title>Node7</title>
<g id="a_node7"><a xlink:href="class_point.html#a9d93fb520b4a3e170aab25ea738b105c" target="_top" xlink:title="Check if two points share the same coordinates. ">
<polygon fill="none" stroke="black" points="349,-95.5 349,-114.5 453,-114.5 453,-95.5 349,-95.5"/>
<text text-anchor="middle" x="401" y="-102.5" font-family="Helvetica,sans-Serif" font-size="10.00">Point::samePointAs</text>
</a>
</g>
</g>
<!-- Node6&#45;&gt;Node7 -->
<g id="edge6" class="edge"><title>Node6&#45;&gt;Node7</title>
<path fill="none" stroke="midnightblue" d="M289.036,-93.0209C305.262,-94.7726 322.608,-96.6451 338.649,-98.3769"/>
<polygon fill="midnightblue" stroke="midnightblue" points="338.659,-101.898 348.977,-99.4919 339.411,-94.9387 338.659,-101.898"/>
</g>
<!-- Node8 -->
<g id="node8" class="node"><title>Node8</title>
<g id="a_node8"><a xlink:href="class_point.html#a7cd7f7e2c0f1a11b66eac8b6f360bfd9" target="_top" xlink:title="Calculate distance between two points. ">
<polygon fill="none" stroke="black" points="343,-57.5 343,-76.5 459,-76.5 459,-57.5 343,-57.5"/>
<text text-anchor="middle" x="401" y="-64.5" font-family="Helvetica,sans-Serif" font-size="10.00">Point::distanceToPoint</text>
</a>
</g>
</g>
<!-- Node6&#45;&gt;Node8 -->
<g id="edge7" class="edge"><title>Node6&#45;&gt;Node8</title>
<path fill="none" stroke="midnightblue" d="M289.036,-78.9791C303.219,-77.4479 318.258,-75.8244 332.534,-74.2833"/>
<polygon fill="midnightblue" stroke="midnightblue" points="333.204,-77.7314 342.77,-73.1782 332.453,-70.7718 333.204,-77.7314"/>
</g>
</g>
</svg>
