<?xml version="1.0" encoding="UTF-8" standalone="no"?>
<!DOCTYPE svg PUBLIC "-//W3C//DTD SVG 1.1//EN"
 "http://www.w3.org/Graphics/SVG/1.1/DTD/svg11.dtd">
<!-- Generated by graphviz version 2.38.0 (20140413.2041)
 -->
<!-- Title: MainWindow::createConnections Pages: 1 -->
<!--zoomable 598 -->
<svg id="main" version="1.1" xmlns="http://www.w3.org/2000/svg" xmlns:xlink="http://www.w3.org/1999/xlink" xml:space="preserve" onload="init(evt)">
<style type="text/css"><![CDATA[
.edge:hover path { stroke: red; }
.edge:hover polygon { stroke: red; fill: red; }
]]></style>
<script type="text/javascript"><![CDATA[
var edges = document.getElementsByTagName('g');
if (edges && edges.length) {
  for (var i=0;i<edges.length;i++) {
    if (edges[i].id.substr(0,4)=='edge') {
      edges[i].setAttribute('class','edge');
    }
  }
}
]]></script>
        <defs>
                <circle id="rim" cx="0" cy="0" r="7"/>
                <circle id="rim2" cx="0" cy="0" r="3.5"/>
                <g id="zoomPlus">
                        <use xlink:href="#rim" fill="#404040">
                                <set attributeName="fill" to="#808080" begin="zoomplus.mouseover" end="zoomplus.mouseout"/>
                        </use>
                        <path d="M-4,0h8M0,-4v8" fill="none" stroke="white" stroke-width="1.5" pointer-events="none"/>
                </g>
                <g id="zoomMin">
                        <use xlink:href="#rim" fill="#404040">
                                <set attributeName="fill" to="#808080" begin="zoomminus.mouseover" end="zoomminus.mouseout"/>
                        </use>
                        <path d="M-4,0h8" fill="none" stroke="white" stroke-width="1.5" pointer-events="none"/>
                </g>
                <g id="dirArrow">
                        <path fill="none" stroke="white" stroke-width="1.5" d="M0,-3.0v7 M-2.5,-0.5L0,-3.0L2.5,-0.5"/>
                </g>
               <g id="resetDef">
                       <use xlink:href="#rim2" fill="#404040">
                               <set attributeName="fill" to="#808080" begin="reset.mouseover" end="reset.mouseout"/>
                       </use>
               </g>
        </defs>

<script type="text/javascript">
var viewWidth = 927;
var viewHeight = 598;
var sectionId = 'dynsection-3';
</script>
<script xlink:href="svgpan.js"/>
<svg id="graph" class="graph">
<g id="viewport">
<title>MainWindow::createConnections</title>
<!-- Node1 -->
<g id="node1" class="node"><title>Node1</title>
<polygon fill="#bfbfbf" stroke="black" points="0,-361.5 0,-380.5 161,-380.5 161,-361.5 0,-361.5"/>
<text text-anchor="middle" x="80.5" y="-368.5" font-family="Helvetica,sans-Serif" font-size="10.00">MainWindow::createConnections</text>
</g>
<!-- Node2 -->
<g id="node2" class="node"><title>Node2</title>
<g id="a_node2"><a xlink:href="class_main_window.html#ad39bbe8ced0d3248206ac0ca6c444d55" target="_top" xlink:title="MainWindow::readyToNext1">
<polygon fill="none" stroke="black" points="197,-361.5 197,-380.5 337,-380.5 337,-361.5 197,-361.5"/>
<text text-anchor="middle" x="267" y="-368.5" font-family="Helvetica,sans-Serif" font-size="10.00">MainWindow::readyToNext1</text>
</a>
</g>
</g>
<!-- Node1&#45;&gt;Node2 -->
<g id="edge1" class="edge"><title>Node1&#45;&gt;Node2</title>
<path fill="none" stroke="midnightblue" d="M161.083,-371C169.542,-371 178.146,-371 186.603,-371"/>
<polygon fill="midnightblue" stroke="midnightblue" points="186.826,-374.5 196.826,-371 186.826,-367.5 186.826,-374.5"/>
</g>
<!-- Node3 -->
<g id="node3" class="node"><title>Node3</title>
<g id="a_node3"><a xlink:href="class_track.html#aff258a8c303ee8a09a962d237f3823e7" target="_top" xlink:title="Reads a csv file and inserts each point in m_points vector. ">
<polygon fill="none" stroke="black" points="374,-570.5 374,-589.5 484,-589.5 484,-570.5 374,-570.5"/>
<text text-anchor="middle" x="429" y="-577.5" font-family="Helvetica,sans-Serif" font-size="10.00">Track::readFromCSV</text>
</a>
</g>
</g>
<!-- Node2&#45;&gt;Node3 -->
<g id="edge2" class="edge"><title>Node2&#45;&gt;Node3</title>
<path fill="none" stroke="midnightblue" d="M271.083,-380.874C280.991,-411.121 314.816,-503.613 373,-556 377.365,-559.93 382.474,-563.293 387.789,-566.148"/>
<polygon fill="midnightblue" stroke="midnightblue" points="386.301,-569.316 396.832,-570.484 389.328,-563.004 386.301,-569.316"/>
</g>
<!-- Node4 -->
<g id="node4" class="node"><title>Node4</title>
<g id="a_node4"><a xlink:href="class_grid.html#a19318437702e712955d0c4631c94cb04" target="_top" xlink:title="setZone Save data about our area of roads ">
<polygon fill="none" stroke="black" points="373,-456.5 373,-475.5 485,-475.5 485,-456.5 373,-456.5"/>
<text text-anchor="middle" x="429" y="-463.5" font-family="Helvetica,sans-Serif" font-size="10.00">Grid::setBoundingBox</text>
</a>
</g>
</g>
<!-- Node2&#45;&gt;Node4 -->
<g id="edge3" class="edge"><title>Node2&#45;&gt;Node4</title>
<path fill="none" stroke="midnightblue" d="M280.452,-380.528C299.644,-394.953 337.911,-422.693 373,-442 379.652,-445.66 386.973,-449.181 394.045,-452.346"/>
<polygon fill="midnightblue" stroke="midnightblue" points="392.878,-455.655 403.445,-456.42 395.662,-449.232 392.878,-455.655"/>
</g>
<!-- Node5 -->
<g id="node5" class="node"><title>Node5</title>
<g id="a_node5"><a xlink:href="class_grid.html#a13d6d18b26d70ab5871a8c2ddf7fa1b5" target="_top" xlink:title="Grid::xMin">
<polygon fill="none" stroke="black" points="534,-456.5 534,-475.5 596,-475.5 596,-456.5 534,-456.5"/>
<text text-anchor="middle" x="565" y="-463.5" font-family="Helvetica,sans-Serif" font-size="10.00">Grid::xMin</text>
</a>
</g>
</g>
<!-- Node2&#45;&gt;Node5 -->
<g id="edge30" class="edge"><title>Node2&#45;&gt;Node5</title>
<path fill="none" stroke="midnightblue" d="M273.206,-380.815C286.263,-404.234 322.976,-463.065 373,-485 424.657,-507.651 491.504,-492.042 530.871,-478.865"/>
<polygon fill="midnightblue" stroke="midnightblue" points="532.21,-482.105 540.499,-475.506 529.904,-475.496 532.21,-482.105"/>
</g>
<!-- Node6 -->
<g id="node6" class="node"><title>Node6</title>
<g id="a_node6"><a xlink:href="class_grid.html#a5e140affdf9653d8badf596f1f151908" target="_top" xlink:title="Grid::xMax">
<polygon fill="none" stroke="black" points="532.5,-494.5 532.5,-513.5 597.5,-513.5 597.5,-494.5 532.5,-494.5"/>
<text text-anchor="middle" x="565" y="-501.5" font-family="Helvetica,sans-Serif" font-size="10.00">Grid::xMax</text>
</a>
</g>
</g>
<!-- Node2&#45;&gt;Node6 -->
<g id="edge29" class="edge"><title>Node2&#45;&gt;Node6</title>
<path fill="none" stroke="midnightblue" d="M272.045,-380.834C283.37,-406.875 318.199,-477.443 373,-504 420.216,-526.881 482.03,-521.478 522.361,-514.013"/>
<polygon fill="midnightblue" stroke="midnightblue" points="523.248,-517.405 532.381,-512.034 521.892,-510.538 523.248,-517.405"/>
</g>
<!-- Node7 -->
<g id="node7" class="node"><title>Node7</title>
<g id="a_node7"><a xlink:href="class_grid.html#a6acf01d876905d8709f4fb8ebe18aa94" target="_top" xlink:title="Grid::yMin">
<polygon fill="none" stroke="black" points="534,-418.5 534,-437.5 596,-437.5 596,-418.5 534,-418.5"/>
<text text-anchor="middle" x="565" y="-425.5" font-family="Helvetica,sans-Serif" font-size="10.00">Grid::yMin</text>
</a>
</g>
</g>
<!-- Node2&#45;&gt;Node7 -->
<g id="edge32" class="edge"><title>Node2&#45;&gt;Node7</title>
<path fill="none" stroke="midnightblue" d="M307.283,-380.505C326.96,-385.131 351.182,-390.625 373,-395 424.722,-405.372 484.72,-415.415 523.464,-421.643"/>
<polygon fill="midnightblue" stroke="midnightblue" points="523.376,-425.174 533.804,-423.296 524.481,-418.261 523.376,-425.174"/>
</g>
<!-- Node8 -->
<g id="node8" class="node"><title>Node8</title>
<g id="a_node8"><a xlink:href="class_grid.html#abfa1a601742ca69a5ecc3b6a5318d7a8" target="_top" xlink:title="Grid::yMax">
<polygon fill="none" stroke="black" points="532.5,-380.5 532.5,-399.5 597.5,-399.5 597.5,-380.5 532.5,-380.5"/>
<text text-anchor="middle" x="565" y="-387.5" font-family="Helvetica,sans-Serif" font-size="10.00">Grid::yMax</text>
</a>
</g>
</g>
<!-- Node2&#45;&gt;Node8 -->
<g id="edge31" class="edge"><title>Node2&#45;&gt;Node8</title>
<path fill="none" stroke="midnightblue" d="M337.025,-375.431C394.321,-379.108 473.948,-384.22 522.064,-387.308"/>
<polygon fill="midnightblue" stroke="midnightblue" points="521.921,-390.806 532.125,-387.954 522.37,-383.821 521.921,-390.806"/>
</g>
<!-- Node9 -->
<g id="node9" class="node"><title>Node9</title>
<g id="a_node9"><a xlink:href="class_grid.html#ae848f1c59c544adc1af9133409ee0106" target="_top" xlink:title="readFromCSV Reads a csv file and inserts info into the corresponding attributs ">
<polygon fill="none" stroke="black" points="377.5,-152.5 377.5,-171.5 480.5,-171.5 480.5,-152.5 377.5,-152.5"/>
<text text-anchor="middle" x="429" y="-159.5" font-family="Helvetica,sans-Serif" font-size="10.00">Grid::readFromCSV</text>
</a>
</g>
</g>
<!-- Node2&#45;&gt;Node9 -->
<g id="edge8" class="edge"><title>Node2&#45;&gt;Node9</title>
<path fill="none" stroke="midnightblue" d="M271.083,-361.126C280.991,-330.879 314.816,-238.387 373,-186 377.365,-182.07 382.474,-178.707 387.789,-175.852"/>
<polygon fill="midnightblue" stroke="midnightblue" points="389.328,-178.996 396.832,-171.516 386.301,-172.684 389.328,-178.996"/>
</g>
<!-- Node20 -->
<g id="node20" class="node"><title>Node20</title>
<g id="a_node20"><a xlink:href="class_grid.html#a8d8b7fa0ee20d81f130a46d80fc2a018" target="_top" xlink:title="trackInGrid ">
<polygon fill="none" stroke="black" points="384.5,-342.5 384.5,-361.5 473.5,-361.5 473.5,-342.5 384.5,-342.5"/>
<text text-anchor="middle" x="429" y="-349.5" font-family="Helvetica,sans-Serif" font-size="10.00">Grid::trackInGrid</text>
</a>
</g>
</g>
<!-- Node2&#45;&gt;Node20 -->
<g id="edge20" class="edge"><title>Node2&#45;&gt;Node20</title>
<path fill="none" stroke="midnightblue" d="M337.248,-362.777C349.528,-361.319 362.153,-359.819 373.936,-358.42"/>
<polygon fill="midnightblue" stroke="midnightblue" points="374.527,-361.875 384.045,-357.22 373.702,-354.923 374.527,-361.875"/>
</g>
<!-- Node21 -->
<g id="node21" class="node"><title>Node21</title>
<g id="a_node21"><a xlink:href="class_grid.html#aa96eed7a551f45aeee1068a289bd2a7b" target="_top" xlink:title="Grid::xMinGrid">
<polygon fill="none" stroke="black" points="525,-342.5 525,-361.5 605,-361.5 605,-342.5 525,-342.5"/>
<text text-anchor="middle" x="565" y="-349.5" font-family="Helvetica,sans-Serif" font-size="10.00">Grid::xMinGrid</text>
</a>
</g>
</g>
<!-- Node2&#45;&gt;Node21 -->
<g id="edge34" class="edge"><title>Node2&#45;&gt;Node21</title>
<path fill="none" stroke="midnightblue" d="M287.946,-361.412C308.653,-352.032 342.257,-338.392 373,-333 422.029,-324.401 435.568,-327.139 485,-333 497.257,-334.453 510.365,-337.133 522.309,-340.03"/>
<polygon fill="midnightblue" stroke="midnightblue" points="521.471,-343.429 532.025,-342.494 523.192,-336.643 521.471,-343.429"/>
</g>
<!-- Node22 -->
<g id="node22" class="node"><title>Node22</title>
<g id="a_node22"><a xlink:href="class_grid.html#aa3dd1e75998e6214c3ef33cdc5e02204" target="_top" xlink:title="Grid::xMaxGrid">
<polygon fill="none" stroke="black" points="523.5,-304.5 523.5,-323.5 606.5,-323.5 606.5,-304.5 523.5,-304.5"/>
<text text-anchor="middle" x="565" y="-311.5" font-family="Helvetica,sans-Serif" font-size="10.00">Grid::xMaxGrid</text>
</a>
</g>
</g>
<!-- Node2&#45;&gt;Node22 -->
<g id="edge33" class="edge"><title>Node2&#45;&gt;Node22</title>
<path fill="none" stroke="midnightblue" d="M284.024,-361.311C304.032,-349.781 339.691,-331.078 373,-323 419.643,-311.688 474.523,-310.282 513.458,-311.202"/>
<polygon fill="midnightblue" stroke="midnightblue" points="513.398,-314.702 523.497,-311.499 513.605,-307.705 513.398,-314.702"/>
</g>
<!-- Node23 -->
<g id="node23" class="node"><title>Node23</title>
<g id="a_node23"><a xlink:href="class_grid.html#afa95de5fff735d1121572075a872121c" target="_top" xlink:title="Grid::yMinGrid">
<polygon fill="none" stroke="black" points="525,-266.5 525,-285.5 605,-285.5 605,-266.5 525,-266.5"/>
<text text-anchor="middle" x="565" y="-273.5" font-family="Helvetica,sans-Serif" font-size="10.00">Grid::yMinGrid</text>
</a>
</g>
</g>
<!-- Node2&#45;&gt;Node23 -->
<g id="edge36" class="edge"><title>Node2&#45;&gt;Node23</title>
<path fill="none" stroke="midnightblue" d="M280.113,-361.426C298.861,-347.137 336.557,-320.474 373,-307 419.279,-289.889 475.325,-282.208 514.698,-278.769"/>
<polygon fill="midnightblue" stroke="midnightblue" points="515.151,-282.244 524.835,-277.945 514.584,-275.267 515.151,-282.244"/>
</g>
<!-- Node24 -->
<g id="node24" class="node"><title>Node24</title>
<g id="a_node24"><a xlink:href="class_grid.html#a97ee4a72430770462f5e2ba140f2ca65" target="_top" xlink:title="Grid::yMaxGrid">
<polygon fill="none" stroke="black" points="523.5,-228.5 523.5,-247.5 606.5,-247.5 606.5,-228.5 523.5,-228.5"/>
<text text-anchor="middle" x="565" y="-235.5" font-family="Helvetica,sans-Serif" font-size="10.00">Grid::yMaxGrid</text>
</a>
</g>
</g>
<!-- Node2&#45;&gt;Node24 -->
<g id="edge35" class="edge"><title>Node2&#45;&gt;Node24</title>
<path fill="none" stroke="midnightblue" d="M275.539,-361.479C291.367,-342.197 330.154,-298.538 373,-277 417.229,-254.767 473.269,-245.208 513.184,-241.099"/>
<polygon fill="midnightblue" stroke="midnightblue" points="513.599,-244.575 523.223,-240.145 512.937,-237.607 513.599,-244.575"/>
</g>
<!-- Node4&#45;&gt;Node5 -->
<g id="edge4" class="edge"><title>Node4&#45;&gt;Node5</title>
<path fill="none" stroke="midnightblue" d="M485.277,-466C498.101,-466 511.518,-466 523.566,-466"/>
<polygon fill="midnightblue" stroke="midnightblue" points="523.753,-469.5 533.753,-466 523.753,-462.5 523.753,-469.5"/>
</g>
<!-- Node4&#45;&gt;Node6 -->
<g id="edge5" class="edge"><title>Node4&#45;&gt;Node6</title>
<path fill="none" stroke="midnightblue" d="M463.814,-475.589C481.69,-480.658 503.782,-486.923 522.669,-492.279"/>
<polygon fill="midnightblue" stroke="midnightblue" points="521.923,-495.706 532.498,-495.067 523.833,-488.971 521.923,-495.706"/>
</g>
<!-- Node4&#45;&gt;Node7 -->
<g id="edge6" class="edge"><title>Node4&#45;&gt;Node7</title>
<path fill="none" stroke="midnightblue" d="M463.814,-456.411C482.168,-451.206 504.968,-444.74 524.179,-439.293"/>
<polygon fill="midnightblue" stroke="midnightblue" points="525.189,-442.644 533.855,-436.549 523.279,-435.91 525.189,-442.644"/>
</g>
<!-- Node4&#45;&gt;Node8 -->
<g id="edge7" class="edge"><title>Node4&#45;&gt;Node8</title>
<path fill="none" stroke="midnightblue" d="M443.815,-456.471C461.333,-444.593 492.676,-424.029 521,-409 524.294,-407.252 527.782,-405.523 531.289,-403.862"/>
<polygon fill="midnightblue" stroke="midnightblue" points="532.858,-406.993 540.5,-399.656 529.95,-400.626 532.858,-406.993"/>
</g>
<!-- Node10 -->
<g id="node10" class="node"><title>Node10</title>
<g id="a_node10"><a xlink:href="class_grid.html#a6b6af4fb2545b398b47794de576f15f5" target="_top" xlink:title="inFootPrint Test if a point is in the defined area of a track ">
<polygon fill="none" stroke="black" points="521,-190.5 521,-209.5 609,-209.5 609,-190.5 521,-190.5"/>
<text text-anchor="middle" x="565" y="-197.5" font-family="Helvetica,sans-Serif" font-size="10.00">Grid::inFootPrint</text>
</a>
</g>
</g>
<!-- Node9&#45;&gt;Node10 -->
<g id="edge9" class="edge"><title>Node9&#45;&gt;Node10</title>
<path fill="none" stroke="midnightblue" d="M463.814,-171.589C481.033,-176.472 502.164,-182.464 520.573,-187.685"/>
<polygon fill="midnightblue" stroke="midnightblue" points="519.621,-191.053 530.197,-190.414 521.531,-184.319 519.621,-191.053"/>
</g>
<!-- Node11 -->
<g id="node11" class="node"><title>Node11</title>
<g id="a_node11"><a xlink:href="class_grid.html#a58233ab60f7477144af334f205606aa4" target="_top" xlink:title="updateGrid Find max and min of the grid ">
<polygon fill="none" stroke="black" points="521,-152.5 521,-171.5 609,-171.5 609,-152.5 521,-152.5"/>
<text text-anchor="middle" x="565" y="-159.5" font-family="Helvetica,sans-Serif" font-size="10.00">Grid::updateGrid</text>
</a>
</g>
</g>
<!-- Node9&#45;&gt;Node11 -->
<g id="edge10" class="edge"><title>Node9&#45;&gt;Node11</title>
<path fill="none" stroke="midnightblue" d="M480.66,-162C490.451,-162 500.738,-162 510.613,-162"/>
<polygon fill="midnightblue" stroke="midnightblue" points="510.717,-165.5 520.717,-162 510.717,-158.5 510.717,-165.5"/>
</g>
<!-- Node12 -->
<g id="node12" class="node"><title>Node12</title>
<g id="a_node12"><a xlink:href="class_grid.html#aba1830bc145f128d6deeed29cfb94c9f" target="_top" xlink:title="addRoad Creates a new road and inserts it in m_road ">
<polygon fill="none" stroke="black" points="525,-114.5 525,-133.5 605,-133.5 605,-114.5 525,-114.5"/>
<text text-anchor="middle" x="565" y="-121.5" font-family="Helvetica,sans-Serif" font-size="10.00">Grid::addRoad</text>
</a>
</g>
</g>
<!-- Node9&#45;&gt;Node12 -->
<g id="edge11" class="edge"><title>Node9&#45;&gt;Node12</title>
<path fill="none" stroke="midnightblue" d="M463.814,-152.411C481.033,-147.528 502.164,-141.536 520.573,-136.315"/>
<polygon fill="midnightblue" stroke="midnightblue" points="521.531,-139.681 530.197,-133.586 519.621,-132.947 521.531,-139.681"/>
</g>
<!-- Node13 -->
<g id="node13" class="node"><title>Node13</title>
<g id="a_node13"><a xlink:href="class_point_road.html#aa1b90c3fdf8ae7a1fcd8ce6182d13287" target="_top" xlink:title="PointRoad::outputInfos">
<polygon fill="none" stroke="black" points="667.5,-228.5 667.5,-247.5 784.5,-247.5 784.5,-228.5 667.5,-228.5"/>
<text text-anchor="middle" x="726" y="-235.5" font-family="Helvetica,sans-Serif" font-size="10.00">PointRoad::outputInfos</text>
</a>
</g>
</g>
<!-- Node12&#45;&gt;Node13 -->
<g id="edge12" class="edge"><title>Node12&#45;&gt;Node13</title>
<path fill="none" stroke="midnightblue" d="M595.523,-133.652C600.414,-136.158 605.141,-139.242 609,-143 635.774,-169.079 615.957,-195.475 645,-219 648.988,-222.23 653.434,-224.928 658.131,-227.179"/>
<polygon fill="midnightblue" stroke="midnightblue" points="656.836,-230.431 667.416,-230.98 659.487,-223.953 656.836,-230.431"/>
</g>
<!-- Node14 -->
<g id="node14" class="node"><title>Node14</title>
<g id="a_node14"><a xlink:href="class_point_road.html#ab53ccb3c883bdfd27c707901c5c658c8" target="_top" xlink:title="PointRoad::updateBelongToRoad">
<polygon fill="none" stroke="black" points="645,-190.5 645,-209.5 807,-209.5 807,-190.5 645,-190.5"/>
<text text-anchor="middle" x="726" y="-197.5" font-family="Helvetica,sans-Serif" font-size="10.00">PointRoad::updateBelongToRoad</text>
</a>
</g>
</g>
<!-- Node12&#45;&gt;Node14 -->
<g id="edge13" class="edge"><title>Node12&#45;&gt;Node14</title>
<path fill="none" stroke="midnightblue" d="M592.363,-133.668C598.082,-136.298 603.931,-139.425 609,-143 628.012,-156.408 624.843,-169.384 645,-181 648.861,-183.225 652.97,-185.19 657.21,-186.925"/>
<polygon fill="midnightblue" stroke="midnightblue" points="656.058,-190.231 666.652,-190.369 658.457,-183.655 656.058,-190.231"/>
</g>
<!-- Node15 -->
<g id="node15" class="node"><title>Node15</title>
<g id="a_node15"><a xlink:href="class_point_road.html#a998665db2d7e4fc4935ef95df092ff2b" target="_top" xlink:title="PointRoad::setid">
<polygon fill="none" stroke="black" points="681.5,-152.5 681.5,-171.5 770.5,-171.5 770.5,-152.5 681.5,-152.5"/>
<text text-anchor="middle" x="726" y="-159.5" font-family="Helvetica,sans-Serif" font-size="10.00">PointRoad::setid</text>
</a>
</g>
</g>
<!-- Node12&#45;&gt;Node15 -->
<g id="edge14" class="edge"><title>Node12&#45;&gt;Node15</title>
<path fill="none" stroke="midnightblue" d="M605.303,-133.393C626.452,-138.448 652.75,-144.733 675.306,-150.123"/>
<polygon fill="midnightblue" stroke="midnightblue" points="674.505,-153.53 685.044,-152.451 676.132,-146.722 674.505,-153.53"/>
</g>
<!-- Node16 -->
<g id="node16" class="node"><title>Node16</title>
<g id="a_node16"><a xlink:href="class_point_road.html#a81372f2c2c0fe1084fa2397289518124" target="_top" xlink:title="PointRoad::id">
<polygon fill="none" stroke="black" points="843,-133.5 843,-152.5 919,-152.5 919,-133.5 843,-133.5"/>
<text text-anchor="middle" x="881" y="-140.5" font-family="Helvetica,sans-Serif" font-size="10.00">PointRoad::id</text>
</a>
</g>
</g>
<!-- Node12&#45;&gt;Node16 -->
<g id="edge17" class="edge"><title>Node12&#45;&gt;Node16</title>
<path fill="none" stroke="midnightblue" d="M605.133,-126.368C662.791,-129.857 770.427,-136.37 832.52,-140.127"/>
<polygon fill="midnightblue" stroke="midnightblue" points="832.628,-143.64 842.821,-140.75 833.051,-136.653 832.628,-143.64"/>
</g>
<!-- Node17 -->
<g id="node17" class="node"><title>Node17</title>
<g id="a_node17"><a xlink:href="class_point_road.html#ae83941b37b026758fdd7974b4b186fbc" target="_top" xlink:title="PointRoad::isNode">
<polygon fill="none" stroke="black" points="676.5,-76.5 676.5,-95.5 775.5,-95.5 775.5,-76.5 676.5,-76.5"/>
<text text-anchor="middle" x="726" y="-83.5" font-family="Helvetica,sans-Serif" font-size="10.00">PointRoad::isNode</text>
</a>
</g>
</g>
<!-- Node12&#45;&gt;Node17 -->
<g id="edge16" class="edge"><title>Node12&#45;&gt;Node17</title>
<path fill="none" stroke="midnightblue" d="M605.303,-114.607C626.452,-109.552 652.75,-103.267 675.306,-97.8766"/>
<polygon fill="midnightblue" stroke="midnightblue" points="676.132,-101.278 685.044,-95.5491 674.505,-94.4696 676.132,-101.278"/>
</g>
<!-- Node18 -->
<g id="node18" class="node"><title>Node18</title>
<g id="a_node18"><a xlink:href="class_road.html#a7f97b4f20c598103baad510b19a0c0b5" target="_top" xlink:title="addPoint ">
<polygon fill="none" stroke="black" points="684,-38.5 684,-57.5 768,-57.5 768,-38.5 684,-38.5"/>
<text text-anchor="middle" x="726" y="-45.5" font-family="Helvetica,sans-Serif" font-size="10.00">Road::addPoint</text>
</a>
</g>
</g>
<!-- Node12&#45;&gt;Node18 -->
<g id="edge18" class="edge"><title>Node12&#45;&gt;Node18</title>
<path fill="none" stroke="midnightblue" d="M576.393,-114.408C590.743,-101.682 617.932,-79.3843 645,-67 654.054,-62.8574 664.113,-59.5617 673.958,-56.9589"/>
<polygon fill="midnightblue" stroke="midnightblue" points="674.802,-60.3557 683.685,-54.5815 673.14,-53.5558 674.802,-60.3557"/>
</g>
<!-- Node19 -->
<g id="node19" class="node"><title>Node19</title>
<g id="a_node19"><a xlink:href="class_road.html#ad6715392969e36eb10efac542519755c" target="_top" xlink:title="edgeId ">
<polygon fill="none" stroke="black" points="688.5,-0.5 688.5,-19.5 763.5,-19.5 763.5,-0.5 688.5,-0.5"/>
<text text-anchor="middle" x="726" y="-7.5" font-family="Helvetica,sans-Serif" font-size="10.00">Road::edgeId</text>
</a>
</g>
</g>
<!-- Node12&#45;&gt;Node19 -->
<g id="edge19" class="edge"><title>Node12&#45;&gt;Node19</title>
<path fill="none" stroke="midnightblue" d="M571.097,-114.442C581.943,-95.0744 609.27,-51.1593 645,-29 655.04,-22.7734 666.949,-18.587 678.469,-15.7724"/>
<polygon fill="midnightblue" stroke="midnightblue" points="679.393,-19.154 688.437,-13.6353 677.925,-12.3096 679.393,-19.154"/>
</g>
<!-- Node15&#45;&gt;Node16 -->
<g id="edge15" class="edge"><title>Node15&#45;&gt;Node16</title>
<path fill="none" stroke="midnightblue" d="M770.844,-156.555C790.244,-154.146 813.094,-151.309 832.861,-148.854"/>
<polygon fill="midnightblue" stroke="midnightblue" points="833.39,-152.315 842.882,-147.609 832.527,-145.369 833.39,-152.315"/>
</g>
<!-- Node20&#45;&gt;Node5 -->
<g id="edge21" class="edge"><title>Node20&#45;&gt;Node5</title>
<path fill="none" stroke="midnightblue" d="M437.044,-361.542C451.168,-380.123 484.721,-421.564 521,-447 523.381,-448.669 525.932,-450.242 528.559,-451.712"/>
<polygon fill="midnightblue" stroke="midnightblue" points="527.149,-454.921 537.652,-456.311 530.308,-448.674 527.149,-454.921"/>
</g>
<!-- Node20&#45;&gt;Node6 -->
<g id="edge23" class="edge"><title>Node20&#45;&gt;Node6</title>
<path fill="none" stroke="midnightblue" d="M434.305,-361.718C445.382,-385.724 477.105,-448.52 521,-485 522.977,-486.643 525.119,-488.17 527.355,-489.583"/>
<polygon fill="midnightblue" stroke="midnightblue" points="525.844,-492.746 536.295,-494.484 529.209,-486.608 525.844,-492.746"/>
</g>
<!-- Node20&#45;&gt;Node7 -->
<g id="edge25" class="edge"><title>Node20&#45;&gt;Node7</title>
<path fill="none" stroke="midnightblue" d="M443.815,-361.529C461.333,-373.407 492.676,-393.971 521,-409 524.294,-410.748 527.782,-412.477 531.289,-414.138"/>
<polygon fill="midnightblue" stroke="midnightblue" points="529.95,-417.374 540.5,-418.344 532.858,-411.007 529.95,-417.374"/>
</g>
<!-- Node20&#45;&gt;Node8 -->
<g id="edge27" class="edge"><title>Node20&#45;&gt;Node8</title>
<path fill="none" stroke="midnightblue" d="M463.814,-361.589C481.69,-366.658 503.782,-372.923 522.669,-378.279"/>
<polygon fill="midnightblue" stroke="midnightblue" points="521.923,-381.706 532.498,-381.067 523.833,-374.971 521.923,-381.706"/>
</g>
<!-- Node20&#45;&gt;Node21 -->
<g id="edge22" class="edge"><title>Node20&#45;&gt;Node21</title>
<path fill="none" stroke="midnightblue" d="M473.506,-352C486.66,-352 501.197,-352 514.701,-352"/>
<polygon fill="midnightblue" stroke="midnightblue" points="514.786,-355.5 524.786,-352 514.786,-348.5 514.786,-355.5"/>
</g>
<!-- Node20&#45;&gt;Node22 -->
<g id="edge24" class="edge"><title>Node20&#45;&gt;Node22</title>
<path fill="none" stroke="midnightblue" d="M463.814,-342.411C481.033,-337.528 502.164,-331.536 520.573,-326.315"/>
<polygon fill="midnightblue" stroke="midnightblue" points="521.531,-329.681 530.197,-323.586 519.621,-322.947 521.531,-329.681"/>
</g>
<!-- Node20&#45;&gt;Node23 -->
<g id="edge26" class="edge"><title>Node20&#45;&gt;Node23</title>
<path fill="none" stroke="midnightblue" d="M443.815,-342.471C461.333,-330.593 492.676,-310.029 521,-295 524.294,-293.252 527.782,-291.523 531.289,-289.862"/>
<polygon fill="midnightblue" stroke="midnightblue" points="532.858,-292.993 540.5,-285.656 529.95,-286.626 532.858,-292.993"/>
</g>
<!-- Node20&#45;&gt;Node24 -->
<g id="edge28" class="edge"><title>Node20&#45;&gt;Node24</title>
<path fill="none" stroke="midnightblue" d="M437.044,-342.458C451.168,-323.877 484.721,-282.436 521,-257 523.381,-255.331 525.932,-253.758 528.559,-252.288"/>
<polygon fill="midnightblue" stroke="midnightblue" points="530.308,-255.326 537.652,-247.689 527.149,-249.079 530.308,-255.326"/>
</g>
</g>
</svg>
        <g id="navigator" transform="translate(0 0)" fill="#404254">
                <rect fill="#f2f5e9" fill-opacity="0.5" stroke="#606060" stroke-width=".5" x="0" y="0" width="60" height="60"/>
                <use id="zoomplus" xlink:href="#zoomPlus" x="17" y="9" onmousedown="handleZoom(evt,'in')"/>
                <use id="zoomminus" xlink:href="#zoomMin" x="42" y="9" onmousedown="handleZoom(evt,'out')"/>
                <use id="reset" xlink:href="#resetDef" x="30" y="36" onmousedown="handleReset()"/>
                <g id="arrowUp" xlink:href="#dirArrow" transform="translate(30 24)" onmousedown="handlePan(0,-1)">
                  <use xlink:href="#rim" fill="#404040">
                        <set attributeName="fill" to="#808080" begin="arrowUp.mouseover" end="arrowUp.mouseout"/>
                  </use>
                  <path fill="none" stroke="white" stroke-width="1.5" d="M0,-3.0v7 M-2.5,-0.5L0,-3.0L2.5,-0.5"/>
                </g>
                <g id="arrowRight" xlink:href="#dirArrow" transform="rotate(90) translate(36 -43)" onmousedown="handlePan(1,0)">
                  <use xlink:href="#rim" fill="#404040">
                        <set attributeName="fill" to="#808080" begin="arrowRight.mouseover" end="arrowRight.mouseout"/>
                  </use>
                  <path fill="none" stroke="white" stroke-width="1.5" d="M0,-3.0v7 M-2.5,-0.5L0,-3.0L2.5,-0.5"/>
                </g>
                <g id="arrowDown" xlink:href="#dirArrow" transform="rotate(180) translate(-30 -48)" onmousedown="handlePan(0,1)">
                  <use xlink:href="#rim" fill="#404040">
                        <set attributeName="fill" to="#808080" begin="arrowDown.mouseover" end="arrowDown.mouseout"/>
                  </use>
                  <path fill="none" stroke="white" stroke-width="1.5" d="M0,-3.0v7 M-2.5,-0.5L0,-3.0L2.5,-0.5"/>
                </g>
                <g id="arrowLeft" xlink:href="#dirArrow" transform="rotate(270) translate(-36 17)" onmousedown="handlePan(-1,0)">
                  <use xlink:href="#rim" fill="#404040">
                        <set attributeName="fill" to="#808080" begin="arrowLeft.mouseover" end="arrowLeft.mouseout"/>
                  </use>
                  <path fill="none" stroke="white" stroke-width="1.5" d="M0,-3.0v7 M-2.5,-0.5L0,-3.0L2.5,-0.5"/>
                </g>
        </g>
        <svg viewBox="0 0 15 15" width="100%" height="30px" preserveAspectRatio="xMaxYMin meet">
         <g id="arrow_out" transform="scale(0.3 0.3)">
          <a xlink:href="class_main_window_af773488e0b16efe6c0fc67ad348b86b2_cgraph_org.svg" target="_base">
           <rect id="button" ry="5" rx="5" y="6" x="6" height="38" width="38"
                fill="#f2f5e9" fill-opacity="0.5" stroke="#606060" stroke-width="1.0"/>
           <path id="arrow"
             d="M 11.500037,31.436501 C 11.940474,20.09759 22.043105,11.32322 32.158766,21.979434 L 37.068811,17.246167 C 37.068811,17.246167 37.088388,32 37.088388,32 L 22.160133,31.978069 C 22.160133,31.978069 26.997745,27.140456 26.997745,27.140456 C 18.528582,18.264221 13.291696,25.230495 11.500037,31.436501 z"
             style="fill:#404040;"/>
          </a>
         </g>
        </svg>
</svg>
