<?xml version="1.0" encoding="UTF-8" standalone="no"?>
<!DOCTYPE svg PUBLIC "-//W3C//DTD SVG 1.1//EN"
 "http://www.w3.org/Graphics/SVG/1.1/DTD/svg11.dtd">
<!-- Generated by graphviz version 2.38.0 (20140413.2041)
 -->
<!-- Title: QMapScene::onSignalCurrentPoint Pages: 1 -->
<svg width="348pt" height="165pt"
 viewBox="0.00 0.00 348.00 165.00" xmlns="http://www.w3.org/2000/svg" xmlns:xlink="http://www.w3.org/1999/xlink">
<g id="graph0" class="graph" transform="scale(1 1) rotate(0) translate(4 161)">
<title>QMapScene::onSignalCurrentPoint</title>
<!-- Node1 -->
<g id="node1" class="node"><title>Node1</title>
<polygon fill="#bfbfbf" stroke="black" points="0,-63 0,-93 146,-93 146,-63 0,-63"/>
<text text-anchor="start" x="8" y="-81" font-family="Helvetica,sans-Serif" font-size="10.00">QMapScene::onSignalCurrent</text>
<text text-anchor="middle" x="73" y="-70" font-family="Helvetica,sans-Serif" font-size="10.00">Point</text>
</g>
<!-- Node2 -->
<g id="node2" class="node"><title>Node2</title>
<g id="a_node2"><a xlink:href="class_q_map_scene.html#a17f5250a4401b0b56d37512d69f0c4cb" target="_top" xlink:title="QMapScene::setBackToDefault">
<polygon fill="none" stroke="black" points="183.5,-137.5 183.5,-156.5 338.5,-156.5 338.5,-137.5 183.5,-137.5"/>
<text text-anchor="middle" x="261" y="-144.5" font-family="Helvetica,sans-Serif" font-size="10.00">QMapScene::setBackToDefault</text>
</a>
</g>
</g>
<!-- Node1&#45;&gt;Node2 -->
<g id="edge1" class="edge"><title>Node1&#45;&gt;Node2</title>
<path fill="none" stroke="midnightblue" d="M102.699,-93.1555C124.103,-103.994 154.303,-118.319 182,-128 189.136,-130.494 196.749,-132.784 204.316,-134.845"/>
<polygon fill="midnightblue" stroke="midnightblue" points="203.636,-138.284 214.195,-137.419 205.401,-131.511 203.636,-138.284"/>
</g>
<!-- Node3 -->
<g id="node3" class="node"><title>Node3</title>
<g id="a_node3"><a xlink:href="class_q_map_scene.html#add1be87bf7492ddce405473d86a130e8" target="_top" xlink:title="QMapScene::highlightRoads\lDefault">
<polygon fill="none" stroke="black" points="190.5,-88 190.5,-118 331.5,-118 331.5,-88 190.5,-88"/>
<text text-anchor="start" x="198.5" y="-106" font-family="Helvetica,sans-Serif" font-size="10.00">QMapScene::highlightRoads</text>
<text text-anchor="middle" x="261" y="-95" font-family="Helvetica,sans-Serif" font-size="10.00">Default</text>
</a>
</g>
</g>
<!-- Node1&#45;&gt;Node3 -->
<g id="edge2" class="edge"><title>Node1&#45;&gt;Node3</title>
<path fill="none" stroke="midnightblue" d="M146.179,-87.7014C157.281,-89.1936 168.8,-90.7419 180.058,-92.2552"/>
<polygon fill="midnightblue" stroke="midnightblue" points="179.928,-95.7691 190.305,-93.6324 180.861,-88.8314 179.928,-95.7691"/>
</g>
<!-- Node4 -->
<g id="node4" class="node"><title>Node4</title>
<g id="a_node4"><a xlink:href="class_q_map_scene.html#ad8e5f9f34ea3ce40f7f0d49e20ad5094" target="_top" xlink:title="QMapScene::highlightSelected\lPoint">
<polygon fill="none" stroke="black" points="185.5,-39 185.5,-69 336.5,-69 336.5,-39 185.5,-39"/>
<text text-anchor="start" x="193.5" y="-57" font-family="Helvetica,sans-Serif" font-size="10.00">QMapScene::highlightSelected</text>
<text text-anchor="middle" x="261" y="-46" font-family="Helvetica,sans-Serif" font-size="10.00">Point</text>
</a>
</g>
</g>
<!-- Node1&#45;&gt;Node4 -->
<g id="edge3" class="edge"><title>Node1&#45;&gt;Node4</title>
<path fill="none" stroke="midnightblue" d="M146.179,-68.6866C155.728,-67.4544 165.586,-66.1824 175.322,-64.9262"/>
<polygon fill="midnightblue" stroke="midnightblue" points="175.935,-68.3762 185.405,-63.6252 175.039,-61.4338 175.935,-68.3762"/>
</g>
<!-- Node5 -->
<g id="node5" class="node"><title>Node5</title>
<g id="a_node5"><a xlink:href="class_q_map_scene.html#ab816c67d64b85d0dc8b1d97d48b0007b" target="_top" xlink:title="QMapScene::setNeighborRoads">
<polygon fill="none" stroke="black" points="182,-0.5 182,-19.5 340,-19.5 340,-0.5 182,-0.5"/>
<text text-anchor="middle" x="261" y="-7.5" font-family="Helvetica,sans-Serif" font-size="10.00">QMapScene::setNeighborRoads</text>
</a>
</g>
</g>
<!-- Node1&#45;&gt;Node5 -->
<g id="edge4" class="edge"><title>Node1&#45;&gt;Node5</title>
<path fill="none" stroke="midnightblue" d="M104.175,-62.9554C125.536,-52.7125 155.061,-39.3663 182,-30 190.251,-27.1313 199.121,-24.4715 207.816,-22.0896"/>
<polygon fill="midnightblue" stroke="midnightblue" points="208.745,-25.4642 217.517,-19.5219 206.954,-18.6972 208.745,-25.4642"/>
</g>
</g>
</svg>
