<?xml version="1.0" encoding="UTF-8" standalone="no"?>
<!DOCTYPE svg PUBLIC "-//W3C//DTD SVG 1.1//EN"
 "http://www.w3.org/Graphics/SVG/1.1/DTD/svg11.dtd">
<!-- Generated by graphviz version 2.38.0 (20140413.2041)
 -->
<!-- Title: Solver::setDistance Pages: 1 -->
<svg width="316pt" height="28pt"
 viewBox="0.00 0.00 316.00 28.00" xmlns="http://www.w3.org/2000/svg" xmlns:xlink="http://www.w3.org/1999/xlink">
<g id="graph0" class="graph" transform="scale(1 1) rotate(0) translate(4 24)">
<title>Solver::setDistance</title>
<!-- Node1 -->
<g id="node1" class="node"><title>Node1</title>
<polygon fill="#bfbfbf" stroke="black" points="0,-0.5 0,-19.5 103,-19.5 103,-0.5 0,-0.5"/>
<text text-anchor="middle" x="51.5" y="-7.5" font-family="Helvetica,sans-Serif" font-size="10.00">Solver::setDistance</text>
</g>
<!-- Node2 -->
<g id="node2" class="node"><title>Node2</title>
<g id="a_node2"><a xlink:href="class_solver.html#a0c67ab4d4fd9c36cfcbfdc13021b419f" target="_top" xlink:title="Solver::initialize">
<polygon fill="none" stroke="black" points="139,-0.5 139,-19.5 225,-19.5 225,-0.5 139,-0.5"/>
<text text-anchor="middle" x="182" y="-7.5" font-family="Helvetica,sans-Serif" font-size="10.00">Solver::initialize</text>
</a>
</g>
</g>
<!-- Node1&#45;&gt;Node2 -->
<g id="edge1" class="edge"><title>Node1&#45;&gt;Node2</title>
<path fill="none" stroke="midnightblue" d="M113.343,-10C121.974,-10 130.688,-10 138.858,-10"/>
<polygon fill="midnightblue" stroke="midnightblue" points="113.287,-6.5001 103.287,-10 113.287,-13.5001 113.287,-6.5001"/>
</g>
<!-- Node3 -->
<g id="node3" class="node"><title>Node3</title>
<g id="a_node3"><a xlink:href="main_8cpp.html#a175f97306b953e738471cef90ef0a8a4" target="_top" xlink:title="dev_all">
<polygon fill="none" stroke="black" points="261,-0.5 261,-19.5 308,-19.5 308,-0.5 261,-0.5"/>
<text text-anchor="middle" x="284.5" y="-7.5" font-family="Helvetica,sans-Serif" font-size="10.00">dev_all</text>
</a>
</g>
</g>
<!-- Node2&#45;&gt;Node3 -->
<g id="edge2" class="edge"><title>Node2&#45;&gt;Node3</title>
<path fill="none" stroke="midnightblue" d="M235.187,-10C244.2,-10 253.129,-10 260.813,-10"/>
<polygon fill="midnightblue" stroke="midnightblue" points="235.039,-6.5001 225.039,-10 235.039,-13.5001 235.039,-6.5001"/>
</g>
</g>
</svg>
