<?xml version="1.0" encoding="UTF-8" standalone="no"?>
<!DOCTYPE svg PUBLIC "-//W3C//DTD SVG 1.1//EN"
 "http://www.w3.org/Graphics/SVG/1.1/DTD/svg11.dtd">
<!-- Generated by graphviz version 2.38.0 (20140413.2041)
 -->
<!-- Title: Solver::filterTemp Pages: 1 -->
<svg width="418pt" height="66pt"
 viewBox="0.00 0.00 418.00 66.00" xmlns="http://www.w3.org/2000/svg" xmlns:xlink="http://www.w3.org/1999/xlink">
<g id="graph0" class="graph" transform="scale(1 1) rotate(0) translate(4 62)">
<title>Solver::filterTemp</title>
<!-- Node1 -->
<g id="node1" class="node"><title>Node1</title>
<polygon fill="#bfbfbf" stroke="black" points="0,-19.5 0,-38.5 94,-38.5 94,-19.5 0,-19.5"/>
<text text-anchor="middle" x="47" y="-26.5" font-family="Helvetica,sans-Serif" font-size="10.00">Solver::filterTemp</text>
</g>
<!-- Node2 -->
<g id="node2" class="node"><title>Node2</title>
<g id="a_node2"><a xlink:href="class_track.html#a58fcdaf47f2c87bb7095933616f5a4bc" target="_top" xlink:title="This is a temporal filter, which deletes points depending on a time value. ">
<polygon fill="none" stroke="black" points="142,-38.5 142,-57.5 249,-57.5 249,-38.5 142,-38.5"/>
<text text-anchor="middle" x="195.5" y="-45.5" font-family="Helvetica,sans-Serif" font-size="10.00">Track::temporalFilter</text>
</a>
</g>
</g>
<!-- Node1&#45;&gt;Node2 -->
<g id="edge1" class="edge"><title>Node1&#45;&gt;Node2</title>
<path fill="none" stroke="midnightblue" d="M94.3535,-35.0117C106.26,-36.5559 119.267,-38.2428 131.848,-39.8745"/>
<polygon fill="midnightblue" stroke="midnightblue" points="131.45,-43.3521 141.817,-41.1674 132.35,-36.4102 131.45,-43.3521"/>
</g>
<!-- Node4 -->
<g id="node4" class="node"><title>Node4</title>
<g id="a_node4"><a xlink:href="class_track.html#ad262a30c2abcd29cf4cdc04facd290ee" target="_top" xlink:title="Track::getPointsAsPointer">
<polygon fill="none" stroke="black" points="130,-0.5 130,-19.5 261,-19.5 261,-0.5 130,-0.5"/>
<text text-anchor="middle" x="195.5" y="-7.5" font-family="Helvetica,sans-Serif" font-size="10.00">Track::getPointsAsPointer</text>
</a>
</g>
</g>
<!-- Node1&#45;&gt;Node4 -->
<g id="edge3" class="edge"><title>Node1&#45;&gt;Node4</title>
<path fill="none" stroke="midnightblue" d="M94.3535,-22.9883C102.487,-21.9334 111.135,-20.8118 119.81,-19.6868"/>
<polygon fill="midnightblue" stroke="midnightblue" points="120.51,-23.1254 129.976,-18.3682 119.609,-16.1836 120.51,-23.1254"/>
</g>
<!-- Node3 -->
<g id="node3" class="node"><title>Node3</title>
<g id="a_node3"><a xlink:href="class_point_g_p_s.html#aa8a0cbf3cfbc3f4ac9d16737c00fcb88" target="_top" xlink:title="PointGPS::timeStamp">
<polygon fill="none" stroke="black" points="297,-38.5 297,-57.5 410,-57.5 410,-38.5 297,-38.5"/>
<text text-anchor="middle" x="353.5" y="-45.5" font-family="Helvetica,sans-Serif" font-size="10.00">PointGPS::timeStamp</text>
</a>
</g>
</g>
<!-- Node2&#45;&gt;Node3 -->
<g id="edge2" class="edge"><title>Node2&#45;&gt;Node3</title>
<path fill="none" stroke="midnightblue" d="M249.314,-48C261.261,-48 274.091,-48 286.505,-48"/>
<polygon fill="midnightblue" stroke="midnightblue" points="286.807,-51.5001 296.807,-48 286.807,-44.5001 286.807,-51.5001"/>
</g>
</g>
</svg>
