<?xml version="1.0" encoding="UTF-8" standalone="no"?>
<!DOCTYPE svg PUBLIC "-//W3C//DTD SVG 1.1//EN"
 "http://www.w3.org/Graphics/SVG/1.1/DTD/svg11.dtd">
<!-- Generated by graphviz version 2.38.0 (20140413.2041)
 -->
<!-- Title: PointRoad::outputInfos Pages: 1 -->
<svg width="1064pt" height="142pt"
 viewBox="0.00 0.00 1064.00 142.00" xmlns="http://www.w3.org/2000/svg" xmlns:xlink="http://www.w3.org/1999/xlink">
<g id="graph0" class="graph" transform="scale(1 1) rotate(0) translate(4 138)">
<title>PointRoad::outputInfos</title>
<!-- Node1 -->
<g id="node1" class="node"><title>Node1</title>
<polygon fill="#bfbfbf" stroke="black" points="0,-38.5 0,-57.5 117,-57.5 117,-38.5 0,-38.5"/>
<text text-anchor="middle" x="58.5" y="-45.5" font-family="Helvetica,sans-Serif" font-size="10.00">PointRoad::outputInfos</text>
</g>
<!-- Node2 -->
<g id="node2" class="node"><title>Node2</title>
<g id="a_node2"><a xlink:href="class_grid.html#aba1830bc145f128d6deeed29cfb94c9f" target="_top" xlink:title="Creates a new road and inserts it in m_road. ">
<polygon fill="none" stroke="black" points="157.5,-57.5 157.5,-76.5 237.5,-76.5 237.5,-57.5 157.5,-57.5"/>
<text text-anchor="middle" x="197.5" y="-64.5" font-family="Helvetica,sans-Serif" font-size="10.00">Grid::addRoad</text>
</a>
</g>
</g>
<!-- Node1&#45;&gt;Node2 -->
<g id="edge1" class="edge"><title>Node1&#45;&gt;Node2</title>
<path fill="none" stroke="midnightblue" d="M127.368,-57.4124C137.573,-58.8276 147.796,-60.2455 157.132,-61.5403"/>
<polygon fill="midnightblue" stroke="midnightblue" points="127.589,-53.9096 117.203,-56.0026 126.628,-60.8433 127.589,-53.9096"/>
</g>
<!-- Node14 -->
<g id="node14" class="node"><title>Node14</title>
<g id="a_node14"><a xlink:href="class_point_road.html#a10e2495cf2c6b435e23e8da80e7276e6" target="_top" xlink:title="PointRoad::infos">
<polygon fill="none" stroke="black" points="153,-19.5 153,-38.5 242,-38.5 242,-19.5 153,-19.5"/>
<text text-anchor="middle" x="197.5" y="-26.5" font-family="Helvetica,sans-Serif" font-size="10.00">PointRoad::infos</text>
</a>
</g>
</g>
<!-- Node1&#45;&gt;Node14 -->
<g id="edge13" class="edge"><title>Node1&#45;&gt;Node14</title>
<path fill="none" stroke="midnightblue" d="M127.271,-38.6011C135.881,-37.407 144.507,-36.2108 152.603,-35.0879"/>
<polygon fill="midnightblue" stroke="midnightblue" points="126.628,-35.1567 117.203,-39.9974 127.589,-42.0904 126.628,-35.1567"/>
</g>
<!-- Node3 -->
<g id="node3" class="node"><title>Node3</title>
<g id="a_node3"><a xlink:href="class_grid.html#ae848f1c59c544adc1af9133409ee0106" target="_top" xlink:title="Reads a csv file and inserts info into the corresponding attributs. ">
<polygon fill="none" stroke="black" points="278,-57.5 278,-76.5 381,-76.5 381,-57.5 278,-57.5"/>
<text text-anchor="middle" x="329.5" y="-64.5" font-family="Helvetica,sans-Serif" font-size="10.00">Grid::readFromCSV</text>
</a>
</g>
</g>
<!-- Node2&#45;&gt;Node3 -->
<g id="edge2" class="edge"><title>Node2&#45;&gt;Node3</title>
<path fill="none" stroke="midnightblue" d="M247.613,-67C257.536,-67 267.985,-67 277.957,-67"/>
<polygon fill="midnightblue" stroke="midnightblue" points="247.504,-63.5001 237.504,-67 247.504,-70.5001 247.504,-63.5001"/>
</g>
<!-- Node4 -->
<g id="node4" class="node"><title>Node4</title>
<g id="a_node4"><a xlink:href="main_8cpp.html#a640261e473790d1a87c2f33332460793" target="_top" xlink:title="dev_grid">
<polygon fill="none" stroke="black" points="438,-114.5 438,-133.5 491,-133.5 491,-114.5 438,-114.5"/>
<text text-anchor="middle" x="464.5" y="-121.5" font-family="Helvetica,sans-Serif" font-size="10.00">dev_grid</text>
</a>
</g>
</g>
<!-- Node3&#45;&gt;Node4 -->
<g id="edge3" class="edge"><title>Node3&#45;&gt;Node4</title>
<path fill="none" stroke="midnightblue" d="M360.953,-80.6093C377.489,-87.9404 398.316,-97.0805 417,-105 424.387,-108.131 432.47,-111.466 439.795,-114.453"/>
<polygon fill="midnightblue" stroke="midnightblue" points="362.322,-77.3874 351.762,-76.5247 359.479,-83.7842 362.322,-77.3874"/>
</g>
<!-- Node5 -->
<g id="node5" class="node"><title>Node5</title>
<g id="a_node5"><a xlink:href="main_8cpp.html#a141063eccadf0e03662d414d897d9f5d" target="_top" xlink:title="dev_gridAndTrack">
<polygon fill="none" stroke="black" points="417,-76.5 417,-95.5 512,-95.5 512,-76.5 417,-76.5"/>
<text text-anchor="middle" x="464.5" y="-83.5" font-family="Helvetica,sans-Serif" font-size="10.00">dev_gridAndTrack</text>
</a>
</g>
</g>
<!-- Node3&#45;&gt;Node5 -->
<g id="edge4" class="edge"><title>Node3&#45;&gt;Node5</title>
<path fill="none" stroke="midnightblue" d="M391.202,-75.6717C399.837,-76.9053 408.604,-78.1577 416.913,-79.3447"/>
<polygon fill="midnightblue" stroke="midnightblue" points="391.556,-72.1868 381.161,-74.2373 390.565,-79.1164 391.556,-72.1868"/>
</g>
<!-- Node6 -->
<g id="node6" class="node"><title>Node6</title>
<g id="a_node6"><a xlink:href="class_solver.html#a97bc7169c18b339fecd4937150f907c3" target="_top" xlink:title="Solver::start">
<polygon fill="none" stroke="black" points="429.5,-38.5 429.5,-57.5 499.5,-57.5 499.5,-38.5 429.5,-38.5"/>
<text text-anchor="middle" x="464.5" y="-45.5" font-family="Helvetica,sans-Serif" font-size="10.00">Solver::start</text>
</a>
</g>
</g>
<!-- Node3&#45;&gt;Node6 -->
<g id="edge5" class="edge"><title>Node3&#45;&gt;Node6</title>
<path fill="none" stroke="midnightblue" d="M391.132,-58.3383C404.294,-56.4579 417.766,-54.5334 429.462,-52.8625"/>
<polygon fill="midnightblue" stroke="midnightblue" points="390.565,-54.8836 381.161,-59.7627 391.556,-61.8132 390.565,-54.8836"/>
</g>
<!-- Node10 -->
<g id="node10" class="node"><title>Node10</title>
<g id="a_node10"><a xlink:href="class_solver.html#acbe7e47bcad48b8ddba95c9281c8bf23" target="_top" xlink:title="readFiles Read files : track and grid ">
<polygon fill="none" stroke="black" points="419.5,-0.5 419.5,-19.5 509.5,-19.5 509.5,-0.5 419.5,-0.5"/>
<text text-anchor="middle" x="464.5" y="-7.5" font-family="Helvetica,sans-Serif" font-size="10.00">Solver::readFiles</text>
</a>
</g>
</g>
<!-- Node3&#45;&gt;Node10 -->
<g id="edge9" class="edge"><title>Node3&#45;&gt;Node10</title>
<path fill="none" stroke="midnightblue" d="M360.953,-53.3907C377.489,-46.0596 398.316,-36.9195 417,-29 424.387,-25.8689 432.47,-22.5344 439.795,-19.5471"/>
<polygon fill="midnightblue" stroke="midnightblue" points="359.479,-50.2158 351.762,-57.4753 362.322,-56.6126 359.479,-50.2158"/>
</g>
<!-- Node7 -->
<g id="node7" class="node"><title>Node7</title>
<g id="a_node7"><a xlink:href="main_8cpp.html#a9dd67c19acf7317c6296b63e29dcfab9" target="_top" xlink:title="dev_thread">
<polygon fill="none" stroke="black" points="585.5,-76.5 585.5,-95.5 650.5,-95.5 650.5,-76.5 585.5,-76.5"/>
<text text-anchor="middle" x="618" y="-83.5" font-family="Helvetica,sans-Serif" font-size="10.00">dev_thread</text>
</a>
</g>
</g>
<!-- Node6&#45;&gt;Node7 -->
<g id="edge6" class="edge"><title>Node6&#45;&gt;Node7</title>
<path fill="none" stroke="midnightblue" d="M509.894,-59.1352C534.093,-65.2049 563.477,-72.575 585.342,-78.0593"/>
<polygon fill="midnightblue" stroke="midnightblue" points="510.429,-55.6609 499.878,-56.6228 508.726,-62.4506 510.429,-55.6609"/>
</g>
<!-- Node9 -->
<g id="node9" class="node"><title>Node9</title>
<g id="a_node9"><a xlink:href="class_solver.html#a323c9c0407f26a2ed3ec3ff5ed02a760" target="_top" xlink:title="Solver::onSignalStart">
<polygon fill="none" stroke="black" points="563.5,-38.5 563.5,-57.5 672.5,-57.5 672.5,-38.5 563.5,-38.5"/>
<text text-anchor="middle" x="618" y="-45.5" font-family="Helvetica,sans-Serif" font-size="10.00">Solver::onSignalStart</text>
</a>
</g>
</g>
<!-- Node6&#45;&gt;Node9 -->
<g id="edge8" class="edge"><title>Node6&#45;&gt;Node9</title>
<path fill="none" stroke="midnightblue" d="M509.952,-48C526.706,-48 545.939,-48 563.439,-48"/>
<polygon fill="midnightblue" stroke="midnightblue" points="509.878,-44.5001 499.878,-48 509.878,-51.5001 509.878,-44.5001"/>
</g>
<!-- Node8 -->
<g id="node8" class="node"><title>Node8</title>
<g id="a_node8"><a xlink:href="main_8cpp.html#a0ddf1224851353fc92bfbff6f499fa97" target="_top" xlink:title="main">
<polygon fill="none" stroke="black" points="785.5,-76.5 785.5,-95.5 823.5,-95.5 823.5,-76.5 785.5,-76.5"/>
<text text-anchor="middle" x="804.5" y="-83.5" font-family="Helvetica,sans-Serif" font-size="10.00">main</text>
</a>
</g>
</g>
<!-- Node7&#45;&gt;Node8 -->
<g id="edge7" class="edge"><title>Node7&#45;&gt;Node8</title>
<path fill="none" stroke="midnightblue" d="M660.733,-86C699.774,-86 756.269,-86 785.087,-86"/>
<polygon fill="midnightblue" stroke="midnightblue" points="660.717,-82.5001 650.717,-86 660.717,-89.5001 660.717,-82.5001"/>
</g>
<!-- Node11 -->
<g id="node11" class="node"><title>Node11</title>
<g id="a_node11"><a xlink:href="class_main_window.html#ad39bbe8ced0d3248206ac0ca6c444d55" target="_top" xlink:title="readyToNext1 Pass informations ">
<polygon fill="none" stroke="black" points="548,-0.5 548,-19.5 688,-19.5 688,-0.5 548,-0.5"/>
<text text-anchor="middle" x="618" y="-7.5" font-family="Helvetica,sans-Serif" font-size="10.00">MainWindow::readyToNext1</text>
</a>
</g>
</g>
<!-- Node10&#45;&gt;Node11 -->
<g id="edge10" class="edge"><title>Node10&#45;&gt;Node11</title>
<path fill="none" stroke="midnightblue" d="M519.798,-10C528.915,-10 538.484,-10 547.915,-10"/>
<polygon fill="midnightblue" stroke="midnightblue" points="519.727,-6.5001 509.727,-10 519.727,-13.5001 519.727,-6.5001"/>
</g>
<!-- Node12 -->
<g id="node12" class="node"><title>Node12</title>
<g id="a_node12"><a xlink:href="class_main_window.html#af773488e0b16efe6c0fc67ad348b86b2" target="_top" xlink:title="createConnections ">
<polygon fill="none" stroke="black" points="724,-0.5 724,-19.5 885,-19.5 885,-0.5 724,-0.5"/>
<text text-anchor="middle" x="804.5" y="-7.5" font-family="Helvetica,sans-Serif" font-size="10.00">MainWindow::createConnections</text>
</a>
</g>
</g>
<!-- Node11&#45;&gt;Node12 -->
<g id="edge11" class="edge"><title>Node11&#45;&gt;Node12</title>
<path fill="none" stroke="midnightblue" d="M698.446,-10C706.9,-10 715.501,-10 723.956,-10"/>
<polygon fill="midnightblue" stroke="midnightblue" points="698.226,-6.5001 688.226,-10 698.226,-13.5001 698.226,-6.5001"/>
</g>
<!-- Node13 -->
<g id="node13" class="node"><title>Node13</title>
<g id="a_node13"><a xlink:href="class_main_window.html#a8b244be8b7b7db1b08de2a2acb9409db" target="_top" xlink:title="MainWindow::MainWindow">
<polygon fill="none" stroke="black" points="921,-0.5 921,-19.5 1056,-19.5 1056,-0.5 921,-0.5"/>
<text text-anchor="middle" x="988.5" y="-7.5" font-family="Helvetica,sans-Serif" font-size="10.00">MainWindow::MainWindow</text>
</a>
</g>
</g>
<!-- Node12&#45;&gt;Node13 -->
<g id="edge12" class="edge"><title>Node12&#45;&gt;Node13</title>
<path fill="none" stroke="midnightblue" d="M895.196,-10C903.85,-10 912.52,-10 920.892,-10"/>
<polygon fill="midnightblue" stroke="midnightblue" points="895.063,-6.5001 885.063,-10 895.063,-13.5001 895.063,-6.5001"/>
</g>
</g>
</svg>
