<?xml version="1.0" encoding="UTF-8" standalone="no"?>
<!DOCTYPE svg PUBLIC "-//W3C//DTD SVG 1.1//EN"
 "http://www.w3.org/Graphics/SVG/1.1/DTD/svg11.dtd">
<!-- Generated by graphviz version 2.38.0 (20140413.2041)
 -->
<!-- Title: Track Pages: 1 -->
<!--zoomable 992 -->
<svg id="main" version="1.1" xmlns="http://www.w3.org/2000/svg" xmlns:xlink="http://www.w3.org/1999/xlink" xml:space="preserve" onload="init(evt)">
<style type="text/css"><![CDATA[
.edge:hover path { stroke: red; }
.edge:hover polygon { stroke: red; fill: red; }
]]></style>
<script type="text/javascript"><![CDATA[
var edges = document.getElementsByTagName('g');
if (edges && edges.length) {
  for (var i=0;i<edges.length;i++) {
    if (edges[i].id.substr(0,4)=='edge') {
      edges[i].setAttribute('class','edge');
    }
  }
}
]]></script>
        <defs>
                <circle id="rim" cx="0" cy="0" r="7"/>
                <circle id="rim2" cx="0" cy="0" r="3.5"/>
                <g id="zoomPlus">
                        <use xlink:href="#rim" fill="#404040">
                                <set attributeName="fill" to="#808080" begin="zoomplus.mouseover" end="zoomplus.mouseout"/>
                        </use>
                        <path d="M-4,0h8M0,-4v8" fill="none" stroke="white" stroke-width="1.5" pointer-events="none"/>
                </g>
                <g id="zoomMin">
                        <use xlink:href="#rim" fill="#404040">
                                <set attributeName="fill" to="#808080" begin="zoomminus.mouseover" end="zoomminus.mouseout"/>
                        </use>
                        <path d="M-4,0h8" fill="none" stroke="white" stroke-width="1.5" pointer-events="none"/>
                </g>
                <g id="dirArrow">
                        <path fill="none" stroke="white" stroke-width="1.5" d="M0,-3.0v7 M-2.5,-0.5L0,-3.0L2.5,-0.5"/>
                </g>
               <g id="resetDef">
                       <use xlink:href="#rim2" fill="#404040">
                               <set attributeName="fill" to="#808080" begin="reset.mouseover" end="reset.mouseout"/>
                       </use>
               </g>
        </defs>

<script type="text/javascript">
var viewWidth = 384;
var viewHeight = 992;
var sectionId = 'dynsection-0';
</script>
<script xlink:href="svgpan.js"/>
<svg id="graph" class="graph">
<g id="viewport">
<title>Track</title>
<!-- Node1 -->
<g id="node1" class="node"><title>Node1</title>
<polygon fill="#bfbfbf" stroke="black" points="47.5,-0.5 47.5,-255.5 173.5,-255.5 173.5,-0.5 47.5,-0.5"/>
<text text-anchor="middle" x="110.5" y="-243.5" font-family="Helvetica,sans-Serif" font-size="10.00">Track</text>
<polyline fill="none" stroke="black" points="47.5,-236.5 173.5,-236.5 "/>
<text text-anchor="start" x="55.5" y="-224.5" font-family="Helvetica,sans-Serif" font-size="10.00">+ m_xMin</text>
<text text-anchor="start" x="55.5" y="-213.5" font-family="Helvetica,sans-Serif" font-size="10.00">+ m_xMax</text>
<text text-anchor="start" x="55.5" y="-202.5" font-family="Helvetica,sans-Serif" font-size="10.00">+ m_yMin</text>
<text text-anchor="start" x="55.5" y="-191.5" font-family="Helvetica,sans-Serif" font-size="10.00">+ m_yMax</text>
<polyline fill="none" stroke="black" points="47.5,-184.5 173.5,-184.5 "/>
<text text-anchor="start" x="55.5" y="-172.5" font-family="Helvetica,sans-Serif" font-size="10.00">+ addPoint()</text>
<text text-anchor="start" x="55.5" y="-161.5" font-family="Helvetica,sans-Serif" font-size="10.00">+ applyThresholdToBox()</text>
<text text-anchor="start" x="55.5" y="-150.5" font-family="Helvetica,sans-Serif" font-size="10.00">+ delPointGPS()</text>
<text text-anchor="start" x="55.5" y="-139.5" font-family="Helvetica,sans-Serif" font-size="10.00">+ getPoints()</text>
<text text-anchor="start" x="55.5" y="-128.5" font-family="Helvetica,sans-Serif" font-size="10.00">+ getPointsAsPointer()</text>
<text text-anchor="start" x="55.5" y="-117.5" font-family="Helvetica,sans-Serif" font-size="10.00">+ outputInfos()</text>
<text text-anchor="start" x="55.5" y="-106.5" font-family="Helvetica,sans-Serif" font-size="10.00">+ readFromCSV()</text>
<text text-anchor="start" x="55.5" y="-95.5" font-family="Helvetica,sans-Serif" font-size="10.00">+ spaceFilter()</text>
<text text-anchor="start" x="55.5" y="-84.5" font-family="Helvetica,sans-Serif" font-size="10.00">+ temporalFilter()</text>
<text text-anchor="start" x="55.5" y="-73.5" font-family="Helvetica,sans-Serif" font-size="10.00">+ Track()</text>
<text text-anchor="start" x="55.5" y="-62.5" font-family="Helvetica,sans-Serif" font-size="10.00">+ updateBox()</text>
<text text-anchor="start" x="55.5" y="-51.5" font-family="Helvetica,sans-Serif" font-size="10.00">+ ~Track()</text>
<text text-anchor="start" x="55.5" y="-40.5" font-family="Helvetica,sans-Serif" font-size="10.00">* m_xMin</text>
<text text-anchor="start" x="55.5" y="-29.5" font-family="Helvetica,sans-Serif" font-size="10.00">* m_xMax</text>
<text text-anchor="start" x="55.5" y="-18.5" font-family="Helvetica,sans-Serif" font-size="10.00">* m_yMin</text>
<text text-anchor="start" x="55.5" y="-7.5" font-family="Helvetica,sans-Serif" font-size="10.00">* m_yMax</text>
</g>
<!-- Node2 -->
<g id="node2" class="node"><title>Node2</title>
<g id="a_node2"><a xlink:title="STL class. ">
<polygon fill="none" stroke="#bfbfbf" points="22.5,-303.5 22.5,-360.5 82.5,-360.5 82.5,-303.5 22.5,-303.5"/>
<text text-anchor="middle" x="52.5" y="-348.5" font-family="Helvetica,sans-Serif" font-size="10.00">std::string</text>
<polyline fill="none" stroke="#bfbfbf" points="22.5,-341.5 82.5,-341.5 "/>
<text text-anchor="middle" x="52.5" y="-329.5" font-family="Helvetica,sans-Serif" font-size="10.00"> </text>
<polyline fill="none" stroke="#bfbfbf" points="22.5,-322.5 82.5,-322.5 "/>
<text text-anchor="middle" x="52.5" y="-310.5" font-family="Helvetica,sans-Serif" font-size="10.00"> </text>
</a>
</g>
</g>
<!-- Node2&#45;&gt;Node1 -->
<g id="edge1" class="edge"><title>Node2&#45;&gt;Node1</title>
<path fill="none" stroke="#404040" d="M54.0807,-303.238C54.9682,-293.872 56.3503,-283.41 58.5,-274 58.9923,-271.845 59.5071,-269.678 60.0423,-267.502"/>
<polygon fill="none" stroke="#404040" points="60.0661,-267.41 57.7062,-260.596 63.0884,-255.797 65.4483,-262.611 60.0661,-267.41"/>
<text text-anchor="middle" x="101.5" y="-277" font-family="Helvetica,sans-Serif" font-size="10.00"> #m_trackFullName</text>
</g>
<!-- Node3 -->
<g id="node3" class="node"><title>Node3</title>
<g id="a_node3"><a xlink:title="STL class. ">
<polygon fill="none" stroke="#bfbfbf" points="0,-436 0,-504 95,-504 95,-436 0,-436"/>
<text text-anchor="start" x="8" y="-492" font-family="Helvetica,sans-Serif" font-size="10.00">std::basic_string&lt;</text>
<text text-anchor="middle" x="47.5" y="-481" font-family="Helvetica,sans-Serif" font-size="10.00"> char &gt;</text>
<polyline fill="none" stroke="#bfbfbf" points="0,-474 95,-474 "/>
<text text-anchor="middle" x="47.5" y="-462" font-family="Helvetica,sans-Serif" font-size="10.00"> </text>
<polyline fill="none" stroke="#bfbfbf" points="0,-455 95,-455 "/>
<text text-anchor="middle" x="47.5" y="-443" font-family="Helvetica,sans-Serif" font-size="10.00"> </text>
</a>
</g>
</g>
<!-- Node3&#45;&gt;Node2 -->
<g id="edge2" class="edge"><title>Node3&#45;&gt;Node2</title>
<path fill="none" stroke="midnightblue" d="M49.0934,-425.659C49.8733,-404.447 50.7893,-379.532 51.4749,-360.883"/>
<polygon fill="none" stroke="midnightblue" points="45.593,-425.609 48.7231,-435.731 52.5883,-425.866 45.593,-425.609"/>
</g>
<!-- Node4 -->
<g id="node4" class="node"><title>Node4</title>
<polygon fill="none" stroke="#bfbfbf" points="103,-303.5 103,-360.5 234,-360.5 234,-303.5 103,-303.5"/>
<text text-anchor="middle" x="168.5" y="-348.5" font-family="Helvetica,sans-Serif" font-size="10.00">std::vector&lt; PointGPS * &gt;</text>
<polyline fill="none" stroke="#bfbfbf" points="103,-341.5 234,-341.5 "/>
<text text-anchor="middle" x="168.5" y="-329.5" font-family="Helvetica,sans-Serif" font-size="10.00"> </text>
<polyline fill="none" stroke="#bfbfbf" points="103,-322.5 234,-322.5 "/>
<text text-anchor="middle" x="168.5" y="-310.5" font-family="Helvetica,sans-Serif" font-size="10.00"> </text>
</g>
<!-- Node4&#45;&gt;Node1 -->
<g id="edge3" class="edge"><title>Node4&#45;&gt;Node1</title>
<path fill="none" stroke="#404040" d="M160.557,-303.336C157.653,-293.224 154.139,-280.984 150.334,-267.732"/>
<polygon fill="none" stroke="#404040" points="150.235,-267.387 144.734,-262.724 146.923,-255.853 152.424,-260.516 150.235,-267.387"/>
<text text-anchor="middle" x="178" y="-277" font-family="Helvetica,sans-Serif" font-size="10.00"> #m_points</text>
</g>
<!-- Node5 -->
<g id="node5" class="node"><title>Node5</title>
<g id="a_node5"><a xlink:href="class_point_g_p_s.html" target="_top" xlink:title="{PointGPS\n|# m_altitude\l# m_timeStamp\l|+ addEmissionProbability()\l+ altitude()\l+ infos()\l+ PointGPS()\l+ PointGPS()\l+ timeStamp()\l}">
<polygon fill="none" stroke="black" points="113.5,-408.5 113.5,-531.5 247.5,-531.5 247.5,-408.5 113.5,-408.5"/>
<text text-anchor="middle" x="180.5" y="-519.5" font-family="Helvetica,sans-Serif" font-size="10.00">PointGPS</text>
<polyline fill="none" stroke="black" points="113.5,-512.5 247.5,-512.5 "/>
<text text-anchor="start" x="121.5" y="-500.5" font-family="Helvetica,sans-Serif" font-size="10.00"># m_altitude</text>
<text text-anchor="start" x="121.5" y="-489.5" font-family="Helvetica,sans-Serif" font-size="10.00"># m_timeStamp</text>
<polyline fill="none" stroke="black" points="113.5,-482.5 247.5,-482.5 "/>
<text text-anchor="start" x="121.5" y="-470.5" font-family="Helvetica,sans-Serif" font-size="10.00">+ addEmissionProbability()</text>
<text text-anchor="start" x="121.5" y="-459.5" font-family="Helvetica,sans-Serif" font-size="10.00">+ altitude()</text>
<text text-anchor="start" x="121.5" y="-448.5" font-family="Helvetica,sans-Serif" font-size="10.00">+ infos()</text>
<text text-anchor="start" x="121.5" y="-437.5" font-family="Helvetica,sans-Serif" font-size="10.00">+ PointGPS()</text>
<text text-anchor="start" x="121.5" y="-426.5" font-family="Helvetica,sans-Serif" font-size="10.00">+ PointGPS()</text>
<text text-anchor="start" x="121.5" y="-415.5" font-family="Helvetica,sans-Serif" font-size="10.00">+ timeStamp()</text>
</a>
</g>
</g>
<!-- Node5&#45;&gt;Node4 -->
<g id="edge4" class="edge"><title>Node5&#45;&gt;Node4</title>
<path fill="none" stroke="#404040" d="M175.132,-408.16C174.082,-396.265 173.007,-384.075 172.035,-373.066"/>
<polygon fill="none" stroke="#404040" points="172.006,-372.729 167.494,-367.104 170.951,-360.775 175.463,-366.401 172.006,-372.729"/>
<text text-anchor="middle" x="197" y="-382" font-family="Helvetica,sans-Serif" font-size="10.00"> +elements</text>
</g>
<!-- Node6 -->
<g id="node6" class="node"><title>Node6</title>
<g id="a_node6"><a xlink:href="class_point.html" target="_top" xlink:title="The Point class. ">
<polygon fill="none" stroke="black" points="72,-579.5 72,-845.5 191,-845.5 191,-579.5 72,-579.5"/>
<text text-anchor="middle" x="131.5" y="-833.5" font-family="Helvetica,sans-Serif" font-size="10.00">Point</text>
<polyline fill="none" stroke="black" points="72,-826.5 191,-826.5 "/>
<text text-anchor="start" x="80" y="-814.5" font-family="Helvetica,sans-Serif" font-size="10.00"># m_x</text>
<text text-anchor="start" x="80" y="-803.5" font-family="Helvetica,sans-Serif" font-size="10.00"># m_y</text>
<polyline fill="none" stroke="black" points="72,-796.5 191,-796.5 "/>
<text text-anchor="start" x="80" y="-784.5" font-family="Helvetica,sans-Serif" font-size="10.00">+ distanceToPoint()</text>
<text text-anchor="start" x="80" y="-773.5" font-family="Helvetica,sans-Serif" font-size="10.00">+ distanceToSegment()</text>
<text text-anchor="start" x="80" y="-762.5" font-family="Helvetica,sans-Serif" font-size="10.00">+ infos()</text>
<text text-anchor="start" x="80" y="-751.5" font-family="Helvetica,sans-Serif" font-size="10.00">+ Point()</text>
<text text-anchor="start" x="80" y="-740.5" font-family="Helvetica,sans-Serif" font-size="10.00">+ Point()</text>
<text text-anchor="start" x="80" y="-729.5" font-family="Helvetica,sans-Serif" font-size="10.00">+ samePointAs()</text>
<text text-anchor="start" x="80" y="-718.5" font-family="Helvetica,sans-Serif" font-size="10.00">+ setx()</text>
<text text-anchor="start" x="80" y="-707.5" font-family="Helvetica,sans-Serif" font-size="10.00">+ x()</text>
<text text-anchor="start" x="80" y="-696.5" font-family="Helvetica,sans-Serif" font-size="10.00">+ ~Point()</text>
<text text-anchor="start" x="80" y="-685.5" font-family="Helvetica,sans-Serif" font-size="10.00">+ x()</text>
<text text-anchor="start" x="80" y="-674.5" font-family="Helvetica,sans-Serif" font-size="10.00">+ setx()</text>
<text text-anchor="start" x="80" y="-663.5" font-family="Helvetica,sans-Serif" font-size="10.00">+ y()</text>
<text text-anchor="start" x="80" y="-652.5" font-family="Helvetica,sans-Serif" font-size="10.00">+ sety()</text>
<text text-anchor="start" x="80" y="-641.5" font-family="Helvetica,sans-Serif" font-size="10.00">* x()</text>
<text text-anchor="start" x="80" y="-630.5" font-family="Helvetica,sans-Serif" font-size="10.00">* setx()</text>
<text text-anchor="start" x="80" y="-619.5" font-family="Helvetica,sans-Serif" font-size="10.00">* y()</text>
<text text-anchor="start" x="80" y="-608.5" font-family="Helvetica,sans-Serif" font-size="10.00">* sety()</text>
<text text-anchor="start" x="80" y="-597.5" font-family="Helvetica,sans-Serif" font-size="10.00">* m_x</text>
<text text-anchor="start" x="80" y="-586.5" font-family="Helvetica,sans-Serif" font-size="10.00">* m_y</text>
</a>
</g>
</g>
<!-- Node6&#45;&gt;Node5 -->
<g id="edge5" class="edge"><title>Node6&#45;&gt;Node5</title>
<path fill="none" stroke="midnightblue" d="M160.487,-569.228C163.152,-556.149 165.743,-543.429 168.129,-531.717"/>
<polygon fill="none" stroke="midnightblue" points="157.004,-568.792 158.437,-579.29 163.863,-570.19 157.004,-568.792"/>
</g>
<!-- Node7 -->
<g id="node7" class="node"><title>Node7</title>
<polygon fill="none" stroke="#bfbfbf" points="209,-684 209,-741 376,-741 376,-684 209,-684"/>
<text text-anchor="middle" x="292.5" y="-729" font-family="Helvetica,sans-Serif" font-size="10.00">std::vector&lt; EmissionProbability &gt;</text>
<polyline fill="none" stroke="#bfbfbf" points="209,-722 376,-722 "/>
<text text-anchor="middle" x="292.5" y="-710" font-family="Helvetica,sans-Serif" font-size="10.00"> </text>
<polyline fill="none" stroke="#bfbfbf" points="209,-703 376,-703 "/>
<text text-anchor="middle" x="292.5" y="-691" font-family="Helvetica,sans-Serif" font-size="10.00"> </text>
</g>
<!-- Node7&#45;&gt;Node5 -->
<g id="edge6" class="edge"><title>Node7&#45;&gt;Node5</title>
<path fill="none" stroke="#404040" d="M279.652,-683.912C263.747,-649.758 236.058,-590.302 213.976,-542.885"/>
<polygon fill="none" stroke="#404040" points="213.849,-542.61 207.69,-538.86 208.783,-531.732 214.942,-535.482 213.849,-542.61"/>
<text text-anchor="middle" x="273" y="-553" font-family="Helvetica,sans-Serif" font-size="10.00"> #m_emissionProbability</text>
</g>
<!-- Node8 -->
<g id="node8" class="node"><title>Node8</title>
<g id="a_node8"><a xlink:href="class_emission_probability.html" target="_top" xlink:title="{EmissionProbability\n|# m_distance\l# m_probability\l# m_roadId\l|+ EmissionProbability()\l+ updateProbability()\l}">
<polygon fill="none" stroke="black" points="233.5,-893.5 233.5,-983.5 351.5,-983.5 351.5,-893.5 233.5,-893.5"/>
<text text-anchor="middle" x="292.5" y="-971.5" font-family="Helvetica,sans-Serif" font-size="10.00">EmissionProbability</text>
<polyline fill="none" stroke="black" points="233.5,-964.5 351.5,-964.5 "/>
<text text-anchor="start" x="241.5" y="-952.5" font-family="Helvetica,sans-Serif" font-size="10.00"># m_distance</text>
<text text-anchor="start" x="241.5" y="-941.5" font-family="Helvetica,sans-Serif" font-size="10.00"># m_probability</text>
<text text-anchor="start" x="241.5" y="-930.5" font-family="Helvetica,sans-Serif" font-size="10.00"># m_roadId</text>
<polyline fill="none" stroke="black" points="233.5,-923.5 351.5,-923.5 "/>
<text text-anchor="start" x="241.5" y="-911.5" font-family="Helvetica,sans-Serif" font-size="10.00">+ EmissionProbability()</text>
<text text-anchor="start" x="241.5" y="-900.5" font-family="Helvetica,sans-Serif" font-size="10.00">+ updateProbability()</text>
</a>
</g>
</g>
<!-- Node8&#45;&gt;Node7 -->
<g id="edge7" class="edge"><title>Node8&#45;&gt;Node7</title>
<path fill="none" stroke="#404040" d="M292.5,-893.245C292.5,-852.491 292.5,-792.567 292.5,-753.293"/>
<polygon fill="none" stroke="#404040" points="292.5,-753.07 288.5,-747.07 292.5,-741.07 296.5,-747.07 292.5,-753.07"/>
<text text-anchor="middle" x="317" y="-867" font-family="Helvetica,sans-Serif" font-size="10.00"> +elements</text>
</g>
</g>
</svg>
        <g id="navigator" transform="translate(0 0)" fill="#404254">
                <rect fill="#f2f5e9" fill-opacity="0.5" stroke="#606060" stroke-width=".5" x="0" y="0" width="60" height="60"/>
                <use id="zoomplus" xlink:href="#zoomPlus" x="17" y="9" onmousedown="handleZoom(evt,'in')"/>
                <use id="zoomminus" xlink:href="#zoomMin" x="42" y="9" onmousedown="handleZoom(evt,'out')"/>
                <use id="reset" xlink:href="#resetDef" x="30" y="36" onmousedown="handleReset()"/>
                <g id="arrowUp" xlink:href="#dirArrow" transform="translate(30 24)" onmousedown="handlePan(0,-1)">
                  <use xlink:href="#rim" fill="#404040">
                        <set attributeName="fill" to="#808080" begin="arrowUp.mouseover" end="arrowUp.mouseout"/>
                  </use>
                  <path fill="none" stroke="white" stroke-width="1.5" d="M0,-3.0v7 M-2.5,-0.5L0,-3.0L2.5,-0.5"/>
                </g>
                <g id="arrowRight" xlink:href="#dirArrow" transform="rotate(90) translate(36 -43)" onmousedown="handlePan(1,0)">
                  <use xlink:href="#rim" fill="#404040">
                        <set attributeName="fill" to="#808080" begin="arrowRight.mouseover" end="arrowRight.mouseout"/>
                  </use>
                  <path fill="none" stroke="white" stroke-width="1.5" d="M0,-3.0v7 M-2.5,-0.5L0,-3.0L2.5,-0.5"/>
                </g>
                <g id="arrowDown" xlink:href="#dirArrow" transform="rotate(180) translate(-30 -48)" onmousedown="handlePan(0,1)">
                  <use xlink:href="#rim" fill="#404040">
                        <set attributeName="fill" to="#808080" begin="arrowDown.mouseover" end="arrowDown.mouseout"/>
                  </use>
                  <path fill="none" stroke="white" stroke-width="1.5" d="M0,-3.0v7 M-2.5,-0.5L0,-3.0L2.5,-0.5"/>
                </g>
                <g id="arrowLeft" xlink:href="#dirArrow" transform="rotate(270) translate(-36 17)" onmousedown="handlePan(-1,0)">
                  <use xlink:href="#rim" fill="#404040">
                        <set attributeName="fill" to="#808080" begin="arrowLeft.mouseover" end="arrowLeft.mouseout"/>
                  </use>
                  <path fill="none" stroke="white" stroke-width="1.5" d="M0,-3.0v7 M-2.5,-0.5L0,-3.0L2.5,-0.5"/>
                </g>
        </g>
        <svg viewBox="0 0 15 15" width="100%" height="30px" preserveAspectRatio="xMaxYMin meet">
         <g id="arrow_out" transform="scale(0.3 0.3)">
          <a xlink:href="class_track__coll__graph_org.svg" target="_base">
           <rect id="button" ry="5" rx="5" y="6" x="6" height="38" width="38"
                fill="#f2f5e9" fill-opacity="0.5" stroke="#606060" stroke-width="1.0"/>
           <path id="arrow"
             d="M 11.500037,31.436501 C 11.940474,20.09759 22.043105,11.32322 32.158766,21.979434 L 37.068811,17.246167 C 37.068811,17.246167 37.088388,32 37.088388,32 L 22.160133,31.978069 C 22.160133,31.978069 26.997745,27.140456 26.997745,27.140456 C 18.528582,18.264221 13.291696,25.230495 11.500037,31.436501 z"
             style="fill:#404040;"/>
          </a>
         </g>
        </svg>
</svg>
