<?xml version="1.0" encoding="UTF-8" standalone="no"?>
<!DOCTYPE svg PUBLIC "-//W3C//DTD SVG 1.1//EN"
 "http://www.w3.org/Graphics/SVG/1.1/DTD/svg11.dtd">
<!-- Generated by graphviz version 2.38.0 (20140413.2041)
 -->
<!-- Title: Road::edgeId Pages: 1 -->
<svg width="905pt" height="180pt"
 viewBox="0.00 0.00 905.00 180.00" xmlns="http://www.w3.org/2000/svg" xmlns:xlink="http://www.w3.org/1999/xlink">
<g id="graph0" class="graph" transform="scale(1 1) rotate(0) translate(4 176)">
<title>Road::edgeId</title>
<!-- Node1 -->
<g id="node1" class="node"><title>Node1</title>
<polygon fill="#bfbfbf" stroke="black" points="0,-76.5 0,-95.5 75,-95.5 75,-76.5 0,-76.5"/>
<text text-anchor="middle" x="37.5" y="-83.5" font-family="Helvetica,sans-Serif" font-size="10.00">Road::edgeId</text>
</g>
<!-- Node2 -->
<g id="node2" class="node"><title>Node2</title>
<g id="a_node2"><a xlink:href="class_grid.html#aba1830bc145f128d6deeed29cfb94c9f" target="_top" xlink:title="Creates a new road and inserts it in m_road. ">
<polygon fill="none" stroke="black" points="122.5,-95.5 122.5,-114.5 202.5,-114.5 202.5,-95.5 122.5,-95.5"/>
<text text-anchor="middle" x="162.5" y="-102.5" font-family="Helvetica,sans-Serif" font-size="10.00">Grid::addRoad</text>
</a>
</g>
</g>
<!-- Node1&#45;&gt;Node2 -->
<g id="edge1" class="edge"><title>Node1&#45;&gt;Node2</title>
<path fill="none" stroke="midnightblue" d="M85.1199,-93.2015C97.3727,-95.0942 110.464,-97.1164 122.285,-98.9424"/>
<polygon fill="midnightblue" stroke="midnightblue" points="85.4882,-89.7169 75.071,-91.6492 84.4195,-96.6349 85.4882,-89.7169"/>
</g>
<!-- Node13 -->
<g id="node13" class="node"><title>Node13</title>
<g id="a_node13"><a xlink:href="class_solver.html#a11051ddab551fdcee7dc71dcad1d0fd7" target="_top" xlink:title="Solver::setDistance">
<polygon fill="none" stroke="black" points="111,-57.5 111,-76.5 214,-76.5 214,-57.5 111,-57.5"/>
<text text-anchor="middle" x="162.5" y="-64.5" font-family="Helvetica,sans-Serif" font-size="10.00">Solver::setDistance</text>
</a>
</g>
</g>
<!-- Node1&#45;&gt;Node13 -->
<g id="edge12" class="edge"><title>Node1&#45;&gt;Node13</title>
<path fill="none" stroke="midnightblue" d="M85.0604,-78.8077C93.4476,-77.5122 102.229,-76.1556 110.729,-74.8427"/>
<polygon fill="midnightblue" stroke="midnightblue" points="84.4195,-75.3651 75.071,-80.3508 85.4882,-82.2831 84.4195,-75.3651"/>
</g>
<!-- Node3 -->
<g id="node3" class="node"><title>Node3</title>
<g id="a_node3"><a xlink:href="class_grid.html#ae848f1c59c544adc1af9133409ee0106" target="_top" xlink:title="Reads a csv file and inserts info into the corresponding attributs. ">
<polygon fill="none" stroke="black" points="250,-95.5 250,-114.5 353,-114.5 353,-95.5 250,-95.5"/>
<text text-anchor="middle" x="301.5" y="-102.5" font-family="Helvetica,sans-Serif" font-size="10.00">Grid::readFromCSV</text>
</a>
</g>
</g>
<!-- Node2&#45;&gt;Node3 -->
<g id="edge2" class="edge"><title>Node2&#45;&gt;Node3</title>
<path fill="none" stroke="midnightblue" d="M213.054,-105C225.064,-105 237.917,-105 249.971,-105"/>
<polygon fill="midnightblue" stroke="midnightblue" points="212.759,-101.5 202.759,-105 212.759,-108.5 212.759,-101.5"/>
</g>
<!-- Node4 -->
<g id="node4" class="node"><title>Node4</title>
<g id="a_node4"><a xlink:href="main_8cpp.html#a640261e473790d1a87c2f33332460793" target="_top" xlink:title="dev_grid">
<polygon fill="none" stroke="black" points="432.5,-152.5 432.5,-171.5 485.5,-171.5 485.5,-152.5 432.5,-152.5"/>
<text text-anchor="middle" x="459" y="-159.5" font-family="Helvetica,sans-Serif" font-size="10.00">dev_grid</text>
</a>
</g>
</g>
<!-- Node3&#45;&gt;Node4 -->
<g id="edge3" class="edge"><title>Node3&#45;&gt;Node4</title>
<path fill="none" stroke="midnightblue" d="M331.279,-118.9C347.907,-126.611 369.361,-136.024 389,-143 403.167,-148.032 419.357,-152.552 432.492,-155.92"/>
<polygon fill="midnightblue" stroke="midnightblue" points="332.636,-115.67 322.096,-114.587 329.66,-122.006 332.636,-115.67"/>
</g>
<!-- Node5 -->
<g id="node5" class="node"><title>Node5</title>
<g id="a_node5"><a xlink:href="main_8cpp.html#a141063eccadf0e03662d414d897d9f5d" target="_top" xlink:title="dev_gridAndTrack">
<polygon fill="none" stroke="black" points="411.5,-114.5 411.5,-133.5 506.5,-133.5 506.5,-114.5 411.5,-114.5"/>
<text text-anchor="middle" x="459" y="-121.5" font-family="Helvetica,sans-Serif" font-size="10.00">dev_gridAndTrack</text>
</a>
</g>
</g>
<!-- Node3&#45;&gt;Node5 -->
<g id="edge4" class="edge"><title>Node3&#45;&gt;Node5</title>
<path fill="none" stroke="midnightblue" d="M363.69,-112.477C379.581,-114.418 396.439,-116.478 411.44,-118.311"/>
<polygon fill="midnightblue" stroke="midnightblue" points="363.767,-108.96 353.417,-111.221 362.918,-115.908 363.767,-108.96"/>
</g>
<!-- Node6 -->
<g id="node6" class="node"><title>Node6</title>
<g id="a_node6"><a xlink:href="class_main_window.html#ad39bbe8ced0d3248206ac0ca6c444d55" target="_top" xlink:title="MainWindow::readyToNext1">
<polygon fill="none" stroke="black" points="389,-76.5 389,-95.5 529,-95.5 529,-76.5 389,-76.5"/>
<text text-anchor="middle" x="459" y="-83.5" font-family="Helvetica,sans-Serif" font-size="10.00">MainWindow::readyToNext1</text>
</a>
</g>
</g>
<!-- Node3&#45;&gt;Node6 -->
<g id="edge5" class="edge"><title>Node3&#45;&gt;Node6</title>
<path fill="none" stroke="midnightblue" d="M363.438,-97.5542C371.787,-96.534 380.408,-95.4807 388.89,-94.4443"/>
<polygon fill="midnightblue" stroke="midnightblue" points="362.918,-94.0916 353.417,-98.7787 363.767,-101.04 362.918,-94.0916"/>
</g>
<!-- Node9 -->
<g id="node9" class="node"><title>Node9</title>
<g id="a_node9"><a xlink:href="class_solver.html#a97bc7169c18b339fecd4937150f907c3" target="_top" xlink:title="Solver::start">
<polygon fill="none" stroke="black" points="424,-38.5 424,-57.5 494,-57.5 494,-38.5 424,-38.5"/>
<text text-anchor="middle" x="459" y="-45.5" font-family="Helvetica,sans-Serif" font-size="10.00">Solver::start</text>
</a>
</g>
</g>
<!-- Node3&#45;&gt;Node9 -->
<g id="edge8" class="edge"><title>Node3&#45;&gt;Node9</title>
<path fill="none" stroke="midnightblue" d="M331.279,-91.1003C347.907,-83.3886 369.361,-73.9762 389,-67 400.123,-63.049 412.493,-59.4138 423.652,-56.4043"/>
<polygon fill="midnightblue" stroke="midnightblue" points="329.66,-87.994 322.096,-95.4131 332.636,-94.33 329.66,-87.994"/>
</g>
<!-- Node7 -->
<g id="node7" class="node"><title>Node7</title>
<g id="a_node7"><a xlink:href="class_main_window.html#af773488e0b16efe6c0fc67ad348b86b2" target="_top" xlink:title="MainWindow::createConnections">
<polygon fill="none" stroke="black" points="565,-76.5 565,-95.5 726,-95.5 726,-76.5 565,-76.5"/>
<text text-anchor="middle" x="645.5" y="-83.5" font-family="Helvetica,sans-Serif" font-size="10.00">MainWindow::createConnections</text>
</a>
</g>
</g>
<!-- Node6&#45;&gt;Node7 -->
<g id="edge6" class="edge"><title>Node6&#45;&gt;Node7</title>
<path fill="none" stroke="midnightblue" d="M539.446,-86C547.9,-86 556.501,-86 564.956,-86"/>
<polygon fill="midnightblue" stroke="midnightblue" points="539.226,-82.5001 529.226,-86 539.226,-89.5001 539.226,-82.5001"/>
</g>
<!-- Node8 -->
<g id="node8" class="node"><title>Node8</title>
<g id="a_node8"><a xlink:href="class_main_window.html#a8b244be8b7b7db1b08de2a2acb9409db" target="_top" xlink:title="MainWindow::MainWindow">
<polygon fill="none" stroke="black" points="762,-76.5 762,-95.5 897,-95.5 897,-76.5 762,-76.5"/>
<text text-anchor="middle" x="829.5" y="-83.5" font-family="Helvetica,sans-Serif" font-size="10.00">MainWindow::MainWindow</text>
</a>
</g>
</g>
<!-- Node7&#45;&gt;Node8 -->
<g id="edge7" class="edge"><title>Node7&#45;&gt;Node8</title>
<path fill="none" stroke="midnightblue" d="M736.196,-86C744.85,-86 753.52,-86 761.892,-86"/>
<polygon fill="midnightblue" stroke="midnightblue" points="736.063,-82.5001 726.063,-86 736.063,-89.5001 736.063,-82.5001"/>
</g>
<!-- Node10 -->
<g id="node10" class="node"><title>Node10</title>
<g id="a_node10"><a xlink:href="main_8cpp.html#a9dd67c19acf7317c6296b63e29dcfab9" target="_top" xlink:title="dev_thread">
<polygon fill="none" stroke="black" points="613,-38.5 613,-57.5 678,-57.5 678,-38.5 613,-38.5"/>
<text text-anchor="middle" x="645.5" y="-45.5" font-family="Helvetica,sans-Serif" font-size="10.00">dev_thread</text>
</a>
</g>
</g>
<!-- Node9&#45;&gt;Node10 -->
<g id="edge9" class="edge"><title>Node9&#45;&gt;Node10</title>
<path fill="none" stroke="midnightblue" d="M504.695,-48C538.147,-48 583.083,-48 612.877,-48"/>
<polygon fill="midnightblue" stroke="midnightblue" points="504.271,-44.5001 494.271,-48 504.271,-51.5001 504.271,-44.5001"/>
</g>
<!-- Node12 -->
<g id="node12" class="node"><title>Node12</title>
<g id="a_node12"><a xlink:href="class_solver.html#a323c9c0407f26a2ed3ec3ff5ed02a760" target="_top" xlink:title="Solver::onSignalStart">
<polygon fill="none" stroke="black" points="591,-0.5 591,-19.5 700,-19.5 700,-0.5 591,-0.5"/>
<text text-anchor="middle" x="645.5" y="-7.5" font-family="Helvetica,sans-Serif" font-size="10.00">Solver::onSignalStart</text>
</a>
</g>
</g>
<!-- Node9&#45;&gt;Node12 -->
<g id="edge11" class="edge"><title>Node9&#45;&gt;Node12</title>
<path fill="none" stroke="midnightblue" d="M504.319,-38.8719C532.706,-33.0253 569.477,-25.4519 598.236,-19.5287"/>
<polygon fill="midnightblue" stroke="midnightblue" points="503.359,-35.4961 494.271,-40.9415 504.771,-42.3522 503.359,-35.4961"/>
</g>
<!-- Node11 -->
<g id="node11" class="node"><title>Node11</title>
<g id="a_node11"><a xlink:href="main_8cpp.html#a0ddf1224851353fc92bfbff6f499fa97" target="_top" xlink:title="main">
<polygon fill="none" stroke="black" points="810.5,-38.5 810.5,-57.5 848.5,-57.5 848.5,-38.5 810.5,-38.5"/>
<text text-anchor="middle" x="829.5" y="-45.5" font-family="Helvetica,sans-Serif" font-size="10.00">main</text>
</a>
</g>
</g>
<!-- Node10&#45;&gt;Node11 -->
<g id="edge10" class="edge"><title>Node10&#45;&gt;Node11</title>
<path fill="none" stroke="midnightblue" d="M688.588,-48C727.103,-48 782.251,-48 810.426,-48"/>
<polygon fill="midnightblue" stroke="midnightblue" points="688.202,-44.5001 678.202,-48 688.202,-51.5001 688.202,-44.5001"/>
</g>
</g>
</svg>
