<?xml version="1.0" encoding="UTF-8" standalone="no"?>
<!DOCTYPE svg PUBLIC "-//W3C//DTD SVG 1.1//EN"
 "http://www.w3.org/Graphics/SVG/1.1/DTD/svg11.dtd">
<!-- Generated by graphviz version 2.38.0 (20140413.2041)
 -->
<!-- Title: QMapWidget Pages: 1 -->
<!--zoomable 1042 -->
<svg id="main" version="1.1" xmlns="http://www.w3.org/2000/svg" xmlns:xlink="http://www.w3.org/1999/xlink" xml:space="preserve" onload="init(evt)">
<style type="text/css"><![CDATA[
.edge:hover path { stroke: red; }
.edge:hover polygon { stroke: red; fill: red; }
]]></style>
<script type="text/javascript"><![CDATA[
var edges = document.getElementsByTagName('g');
if (edges && edges.length) {
  for (var i=0;i<edges.length;i++) {
    if (edges[i].id.substr(0,4)=='edge') {
      edges[i].setAttribute('class','edge');
    }
  }
}
]]></script>
        <defs>
                <circle id="rim" cx="0" cy="0" r="7"/>
                <circle id="rim2" cx="0" cy="0" r="3.5"/>
                <g id="zoomPlus">
                        <use xlink:href="#rim" fill="#404040">
                                <set attributeName="fill" to="#808080" begin="zoomplus.mouseover" end="zoomplus.mouseout"/>
                        </use>
                        <path d="M-4,0h8M0,-4v8" fill="none" stroke="white" stroke-width="1.5" pointer-events="none"/>
                </g>
                <g id="zoomMin">
                        <use xlink:href="#rim" fill="#404040">
                                <set attributeName="fill" to="#808080" begin="zoomminus.mouseover" end="zoomminus.mouseout"/>
                        </use>
                        <path d="M-4,0h8" fill="none" stroke="white" stroke-width="1.5" pointer-events="none"/>
                </g>
                <g id="dirArrow">
                        <path fill="none" stroke="white" stroke-width="1.5" d="M0,-3.0v7 M-2.5,-0.5L0,-3.0L2.5,-0.5"/>
                </g>
               <g id="resetDef">
                       <use xlink:href="#rim2" fill="#404040">
                               <set attributeName="fill" to="#808080" begin="reset.mouseover" end="reset.mouseout"/>
                       </use>
               </g>
        </defs>

<script type="text/javascript">
var viewWidth = 697;
var viewHeight = 1042;
var sectionId = 'dynsection-1';
</script>
<script xlink:href="svgpan.js"/>
<svg id="graph" class="graph">
<g id="viewport">
<title>QMapWidget</title>
<!-- Node1 -->
<g id="node1" class="node"><title>Node1</title>
<polygon fill="#bfbfbf" stroke="black" points="166,-0.5 166,-101.5 285,-101.5 285,-0.5 166,-0.5"/>
<text text-anchor="middle" x="225.5" y="-89.5" font-family="Helvetica,sans-Serif" font-size="10.00">QMapWidget</text>
<polyline fill="none" stroke="black" points="166,-82.5 285,-82.5 "/>
<text text-anchor="start" x="174" y="-70.5" font-family="Helvetica,sans-Serif" font-size="10.00"># m_layout</text>
<text text-anchor="start" x="174" y="-59.5" font-family="Helvetica,sans-Serif" font-size="10.00"># m_view</text>
<polyline fill="none" stroke="black" points="166,-52.5 285,-52.5 "/>
<text text-anchor="start" x="174" y="-40.5" font-family="Helvetica,sans-Serif" font-size="10.00">+ QMapWidget()</text>
<text text-anchor="start" x="174" y="-29.5" font-family="Helvetica,sans-Serif" font-size="10.00">+ onSignalDimension()</text>
<text text-anchor="start" x="174" y="-18.5" font-family="Helvetica,sans-Serif" font-size="10.00">+ onSignalShow()</text>
<text text-anchor="start" x="174" y="-7.5" font-family="Helvetica,sans-Serif" font-size="10.00">&#45; sceneScaleChanged()</text>
</g>
<!-- Node2 -->
<g id="node2" class="node"><title>Node2</title>
<polygon fill="none" stroke="#bfbfbf" points="165,-199 165,-256 220,-256 220,-199 165,-199"/>
<text text-anchor="middle" x="192.5" y="-244" font-family="Helvetica,sans-Serif" font-size="10.00">QWidget</text>
<polyline fill="none" stroke="#bfbfbf" points="165,-237 220,-237 "/>
<text text-anchor="middle" x="192.5" y="-225" font-family="Helvetica,sans-Serif" font-size="10.00"> </text>
<polyline fill="none" stroke="#bfbfbf" points="165,-218 220,-218 "/>
<text text-anchor="middle" x="192.5" y="-206" font-family="Helvetica,sans-Serif" font-size="10.00"> </text>
</g>
<!-- Node2&#45;&gt;Node1 -->
<g id="edge1" class="edge"><title>Node2&#45;&gt;Node1</title>
<path fill="none" stroke="midnightblue" d="M199.624,-188.83C204.446,-163.331 210.868,-129.374 216.107,-101.668"/>
<polygon fill="none" stroke="midnightblue" points="196.148,-188.374 197.729,-198.85 203.026,-189.675 196.148,-188.374"/>
</g>
<!-- Node3 -->
<g id="node3" class="node"><title>Node3</title>
<g id="a_node3"><a xlink:href="class_q_map_scene.html" target="_top" xlink:title="{QMapScene\n|# m_height\l# m_scaleFactor\l# m_shiftX\l# m_shiftY\l# m_width\l# points\l|+ initialize()\l+ QMapScene()\l+ transform()\l+ onSignalAllPoints()\l+ signalAllRoads()\l}">
<polygon fill="none" stroke="black" points="238.5,-149.5 238.5,-305.5 346.5,-305.5 346.5,-149.5 238.5,-149.5"/>
<text text-anchor="middle" x="292.5" y="-293.5" font-family="Helvetica,sans-Serif" font-size="10.00">QMapScene</text>
<polyline fill="none" stroke="black" points="238.5,-286.5 346.5,-286.5 "/>
<text text-anchor="start" x="246.5" y="-274.5" font-family="Helvetica,sans-Serif" font-size="10.00"># m_height</text>
<text text-anchor="start" x="246.5" y="-263.5" font-family="Helvetica,sans-Serif" font-size="10.00"># m_scaleFactor</text>
<text text-anchor="start" x="246.5" y="-252.5" font-family="Helvetica,sans-Serif" font-size="10.00"># m_shiftX</text>
<text text-anchor="start" x="246.5" y="-241.5" font-family="Helvetica,sans-Serif" font-size="10.00"># m_shiftY</text>
<text text-anchor="start" x="246.5" y="-230.5" font-family="Helvetica,sans-Serif" font-size="10.00"># m_width</text>
<text text-anchor="start" x="246.5" y="-219.5" font-family="Helvetica,sans-Serif" font-size="10.00"># points</text>
<polyline fill="none" stroke="black" points="238.5,-212.5 346.5,-212.5 "/>
<text text-anchor="start" x="246.5" y="-200.5" font-family="Helvetica,sans-Serif" font-size="10.00">+ initialize()</text>
<text text-anchor="start" x="246.5" y="-189.5" font-family="Helvetica,sans-Serif" font-size="10.00">+ QMapScene()</text>
<text text-anchor="start" x="246.5" y="-178.5" font-family="Helvetica,sans-Serif" font-size="10.00">+ transform()</text>
<text text-anchor="start" x="246.5" y="-167.5" font-family="Helvetica,sans-Serif" font-size="10.00">+ onSignalAllPoints()</text>
<text text-anchor="start" x="246.5" y="-156.5" font-family="Helvetica,sans-Serif" font-size="10.00">+ signalAllRoads()</text>
</a>
</g>
</g>
<!-- Node3&#45;&gt;Node1 -->
<g id="edge2" class="edge"><title>Node3&#45;&gt;Node1</title>
<path fill="none" stroke="#404040" d="M262.918,-149.454C258.238,-137.265 253.455,-124.807 248.94,-113.049"/>
<polygon fill="none" stroke="#404040" points="248.83,-112.762 242.945,-108.595 244.529,-101.56 250.414,-105.727 248.83,-112.762"/>
<text text-anchor="middle" x="279" y="-123" font-family="Helvetica,sans-Serif" font-size="10.00"> +m_scene</text>
</g>
<!-- Node4 -->
<g id="node4" class="node"><title>Node4</title>
<polygon fill="none" stroke="#bfbfbf" points="44,-359 44,-416 135,-416 135,-359 44,-359"/>
<text text-anchor="middle" x="89.5" y="-404" font-family="Helvetica,sans-Serif" font-size="10.00">QGraphicsScene</text>
<polyline fill="none" stroke="#bfbfbf" points="44,-397 135,-397 "/>
<text text-anchor="middle" x="89.5" y="-385" font-family="Helvetica,sans-Serif" font-size="10.00"> </text>
<polyline fill="none" stroke="#bfbfbf" points="44,-378 135,-378 "/>
<text text-anchor="middle" x="89.5" y="-366" font-family="Helvetica,sans-Serif" font-size="10.00"> </text>
</g>
<!-- Node4&#45;&gt;Node3 -->
<g id="edge3" class="edge"><title>Node4&#45;&gt;Node3</title>
<path fill="none" stroke="midnightblue" d="M142.281,-353.712C142.688,-353.474 143.095,-353.236 143.5,-353 181.132,-331.066 196.023,-333.867 229.5,-306 232.432,-303.559 235.325,-300.966 238.165,-298.264"/>
<polygon fill="none" stroke="midnightblue" points="140.395,-350.761 133.584,-358.877 143.969,-356.78 140.395,-350.761"/>
</g>
<!-- Node5 -->
<g id="node5" class="node"><title>Node5</title>
<polygon fill="none" stroke="#bfbfbf" points="302,-359 302,-416 429,-416 429,-359 302,-359"/>
<text text-anchor="middle" x="365.5" y="-404" font-family="Helvetica,sans-Serif" font-size="10.00">std::vector&lt; PointRoad &gt;</text>
<polyline fill="none" stroke="#bfbfbf" points="302,-397 429,-397 "/>
<text text-anchor="middle" x="365.5" y="-385" font-family="Helvetica,sans-Serif" font-size="10.00"> </text>
<polyline fill="none" stroke="#bfbfbf" points="302,-378 429,-378 "/>
<text text-anchor="middle" x="365.5" y="-366" font-family="Helvetica,sans-Serif" font-size="10.00"> </text>
</g>
<!-- Node5&#45;&gt;Node3 -->
<g id="edge4" class="edge"><title>Node5&#45;&gt;Node3</title>
<path fill="none" stroke="#404040" d="M352.784,-358.979C347.229,-346.955 340.372,-332.113 333.296,-316.799"/>
<polygon fill="none" stroke="#404040" points="333.154,-316.491 327.007,-312.722 328.121,-305.598 334.269,-309.367 333.154,-316.491"/>
<text text-anchor="middle" x="374" y="-327" font-family="Helvetica,sans-Serif" font-size="10.00"> #m_roadPoints</text>
</g>
<!-- Node6 -->
<g id="node6" class="node"><title>Node6</title>
<g id="a_node6"><a xlink:href="class_point_road.html" target="_top" xlink:title="{PointRoad\n|# m_id\l# m_isNode\l# counter\l|+ id()\l+ infos()\l+ isNode()\l+ outputInfos()\l+ PointRoad()\l+ PointRoad()\l+ setid()\l+ updateBelongToRoad()\l+ vectorOfRoadId()\l}">
<polygon fill="none" stroke="black" points="303,-469.5 303,-636.5 428,-636.5 428,-469.5 303,-469.5"/>
<text text-anchor="middle" x="365.5" y="-624.5" font-family="Helvetica,sans-Serif" font-size="10.00">PointRoad</text>
<polyline fill="none" stroke="black" points="303,-617.5 428,-617.5 "/>
<text text-anchor="start" x="311" y="-605.5" font-family="Helvetica,sans-Serif" font-size="10.00"># m_id</text>
<text text-anchor="start" x="311" y="-594.5" font-family="Helvetica,sans-Serif" font-size="10.00"># m_isNode</text>
<text text-anchor="start" x="311" y="-583.5" font-family="Helvetica,sans-Serif" font-size="10.00"># counter</text>
<polyline fill="none" stroke="black" points="303,-576.5 428,-576.5 "/>
<text text-anchor="start" x="311" y="-564.5" font-family="Helvetica,sans-Serif" font-size="10.00">+ id()</text>
<text text-anchor="start" x="311" y="-553.5" font-family="Helvetica,sans-Serif" font-size="10.00">+ infos()</text>
<text text-anchor="start" x="311" y="-542.5" font-family="Helvetica,sans-Serif" font-size="10.00">+ isNode()</text>
<text text-anchor="start" x="311" y="-531.5" font-family="Helvetica,sans-Serif" font-size="10.00">+ outputInfos()</text>
<text text-anchor="start" x="311" y="-520.5" font-family="Helvetica,sans-Serif" font-size="10.00">+ PointRoad()</text>
<text text-anchor="start" x="311" y="-509.5" font-family="Helvetica,sans-Serif" font-size="10.00">+ PointRoad()</text>
<text text-anchor="start" x="311" y="-498.5" font-family="Helvetica,sans-Serif" font-size="10.00">+ setid()</text>
<text text-anchor="start" x="311" y="-487.5" font-family="Helvetica,sans-Serif" font-size="10.00">+ updateBelongToRoad()</text>
<text text-anchor="start" x="311" y="-476.5" font-family="Helvetica,sans-Serif" font-size="10.00">+ vectorOfRoadId()</text>
</a>
</g>
</g>
<!-- Node6&#45;&gt;Node5 -->
<g id="edge5" class="edge"><title>Node6&#45;&gt;Node5</title>
<path fill="none" stroke="#404040" d="M365.5,-469.292C365.5,-455.066 365.5,-440.879 365.5,-428.453"/>
<polygon fill="none" stroke="#404040" points="365.5,-428.215 361.5,-422.215 365.5,-416.215 369.5,-422.215 365.5,-428.215"/>
<text text-anchor="middle" x="390" y="-443" font-family="Helvetica,sans-Serif" font-size="10.00"> +elements</text>
</g>
<!-- Node7 -->
<g id="node7" class="node"><title>Node7</title>
<g id="a_node7"><a xlink:href="class_point.html" target="_top" xlink:title="The Point class. ">
<polygon fill="none" stroke="black" points="185,-684.5 185,-895.5 304,-895.5 304,-684.5 185,-684.5"/>
<text text-anchor="middle" x="244.5" y="-883.5" font-family="Helvetica,sans-Serif" font-size="10.00">Point</text>
<polyline fill="none" stroke="black" points="185,-876.5 304,-876.5 "/>
<text text-anchor="start" x="193" y="-864.5" font-family="Helvetica,sans-Serif" font-size="10.00"># POINT_RADIUS</text>
<polyline fill="none" stroke="black" points="185,-857.5 304,-857.5 "/>
<text text-anchor="start" x="193" y="-845.5" font-family="Helvetica,sans-Serif" font-size="10.00">+ distanceToPoint()</text>
<text text-anchor="start" x="193" y="-834.5" font-family="Helvetica,sans-Serif" font-size="10.00">+ distanceToSegment()</text>
<text text-anchor="start" x="193" y="-823.5" font-family="Helvetica,sans-Serif" font-size="10.00">+ infos()</text>
<text text-anchor="start" x="193" y="-812.5" font-family="Helvetica,sans-Serif" font-size="10.00">+ Point()</text>
<text text-anchor="start" x="193" y="-801.5" font-family="Helvetica,sans-Serif" font-size="10.00">+ Point()</text>
<text text-anchor="start" x="193" y="-790.5" font-family="Helvetica,sans-Serif" font-size="10.00">+ samePointAs()</text>
<text text-anchor="start" x="193" y="-779.5" font-family="Helvetica,sans-Serif" font-size="10.00">+ setx()</text>
<text text-anchor="start" x="193" y="-768.5" font-family="Helvetica,sans-Serif" font-size="10.00">+ x()</text>
<text text-anchor="start" x="193" y="-757.5" font-family="Helvetica,sans-Serif" font-size="10.00">+ ~Point()</text>
<text text-anchor="start" x="193" y="-746.5" font-family="Helvetica,sans-Serif" font-size="10.00">* x()</text>
<text text-anchor="start" x="193" y="-735.5" font-family="Helvetica,sans-Serif" font-size="10.00">* setx()</text>
<text text-anchor="start" x="193" y="-724.5" font-family="Helvetica,sans-Serif" font-size="10.00">* y()</text>
<text text-anchor="start" x="193" y="-713.5" font-family="Helvetica,sans-Serif" font-size="10.00">* sety()</text>
<text text-anchor="start" x="193" y="-702.5" font-family="Helvetica,sans-Serif" font-size="10.00">* m_x</text>
<text text-anchor="start" x="193" y="-691.5" font-family="Helvetica,sans-Serif" font-size="10.00">* m_y</text>
</a>
</g>
</g>
<!-- Node7&#45;&gt;Node6 -->
<g id="edge6" class="edge"><title>Node7&#45;&gt;Node6</title>
<path fill="none" stroke="midnightblue" d="M303.075,-675.239C309.763,-662.249 316.483,-649.198 322.907,-636.722"/>
<polygon fill="none" stroke="midnightblue" points="299.919,-673.722 298.453,-684.215 306.143,-676.926 299.919,-673.722"/>
</g>
<!-- Node10 -->
<g id="node10" class="node"><title>Node10</title>
<g id="a_node10"><a xlink:href="class_point_g_p_s.html" target="_top" xlink:title="{PointGPS\n|# m_altitude\l# m_timeStamp\l|+ addEmissionProbability()\l+ altitude()\l+ infos()\l+ PointGPS()\l+ PointGPS()\l+ timeStamp()\l}">
<polygon fill="none" stroke="black" points="150.5,-491.5 150.5,-614.5 284.5,-614.5 284.5,-491.5 150.5,-491.5"/>
<text text-anchor="middle" x="217.5" y="-602.5" font-family="Helvetica,sans-Serif" font-size="10.00">PointGPS</text>
<polyline fill="none" stroke="black" points="150.5,-595.5 284.5,-595.5 "/>
<text text-anchor="start" x="158.5" y="-583.5" font-family="Helvetica,sans-Serif" font-size="10.00"># m_altitude</text>
<text text-anchor="start" x="158.5" y="-572.5" font-family="Helvetica,sans-Serif" font-size="10.00"># m_timeStamp</text>
<polyline fill="none" stroke="black" points="150.5,-565.5 284.5,-565.5 "/>
<text text-anchor="start" x="158.5" y="-553.5" font-family="Helvetica,sans-Serif" font-size="10.00">+ addEmissionProbability()</text>
<text text-anchor="start" x="158.5" y="-542.5" font-family="Helvetica,sans-Serif" font-size="10.00">+ altitude()</text>
<text text-anchor="start" x="158.5" y="-531.5" font-family="Helvetica,sans-Serif" font-size="10.00">+ infos()</text>
<text text-anchor="start" x="158.5" y="-520.5" font-family="Helvetica,sans-Serif" font-size="10.00">+ PointGPS()</text>
<text text-anchor="start" x="158.5" y="-509.5" font-family="Helvetica,sans-Serif" font-size="10.00">+ PointGPS()</text>
<text text-anchor="start" x="158.5" y="-498.5" font-family="Helvetica,sans-Serif" font-size="10.00">+ timeStamp()</text>
</a>
</g>
</g>
<!-- Node7&#45;&gt;Node10 -->
<g id="edge10" class="edge"><title>Node7&#45;&gt;Node10</title>
<path fill="none" stroke="midnightblue" d="M231.306,-674.167C228.95,-653.659 226.581,-633.042 224.488,-614.818"/>
<polygon fill="none" stroke="midnightblue" points="227.842,-674.68 232.461,-684.215 234.796,-673.88 227.842,-674.68"/>
</g>
<!-- Node8 -->
<g id="node8" class="node"><title>Node8</title>
<polygon fill="none" stroke="#bfbfbf" points="322,-761.5 322,-818.5 421,-818.5 421,-761.5 322,-761.5"/>
<text text-anchor="middle" x="371.5" y="-806.5" font-family="Helvetica,sans-Serif" font-size="10.00">std::vector&lt; long &gt;</text>
<polyline fill="none" stroke="#bfbfbf" points="322,-799.5 421,-799.5 "/>
<text text-anchor="start" x="330" y="-787.5" font-family="Helvetica,sans-Serif" font-size="10.00">+ elements</text>
<polyline fill="none" stroke="#bfbfbf" points="322,-780.5 421,-780.5 "/>
<text text-anchor="middle" x="371.5" y="-768.5" font-family="Helvetica,sans-Serif" font-size="10.00"> </text>
</g>
<!-- Node8&#45;&gt;Node6 -->
<g id="edge7" class="edge"><title>Node8&#45;&gt;Node6</title>
<path fill="none" stroke="#404040" d="M370.788,-761.12C370.079,-733.349 368.95,-689.135 367.917,-648.676"/>
<polygon fill="none" stroke="#404040" points="367.914,-648.54 363.762,-642.644 367.607,-636.544 371.759,-642.44 367.914,-648.54"/>
<text text-anchor="middle" x="413" y="-658" font-family="Helvetica,sans-Serif" font-size="10.00"> #m_vectorOfRoadId</text>
</g>
<!-- Node9 -->
<g id="node9" class="node"><title>Node9</title>
<polygon fill="none" stroke="#bfbfbf" points="153,-359 153,-416 284,-416 284,-359 153,-359"/>
<text text-anchor="middle" x="218.5" y="-404" font-family="Helvetica,sans-Serif" font-size="10.00">std::vector&lt; PointGPS * &gt;</text>
<polyline fill="none" stroke="#bfbfbf" points="153,-397 284,-397 "/>
<text text-anchor="middle" x="218.5" y="-385" font-family="Helvetica,sans-Serif" font-size="10.00"> </text>
<polyline fill="none" stroke="#bfbfbf" points="153,-378 284,-378 "/>
<text text-anchor="middle" x="218.5" y="-366" font-family="Helvetica,sans-Serif" font-size="10.00"> </text>
</g>
<!-- Node9&#45;&gt;Node3 -->
<g id="edge8" class="edge"><title>Node9&#45;&gt;Node3</title>
<path fill="none" stroke="#404040" d="M231.39,-358.979C237.021,-346.955 243.972,-332.113 251.145,-316.799"/>
<polygon fill="none" stroke="#404040" points="251.301,-316.465 250.224,-309.335 256.391,-305.598 257.468,-312.728 251.301,-316.465"/>
<text text-anchor="middle" x="282.5" y="-327" font-family="Helvetica,sans-Serif" font-size="10.00"> #m_trackPoints</text>
</g>
<!-- Node10&#45;&gt;Node9 -->
<g id="edge9" class="edge"><title>Node10&#45;&gt;Node9</title>
<path fill="none" stroke="#404040" d="M217.872,-491.119C218.001,-470.068 218.142,-447.038 218.258,-428.139"/>
<polygon fill="none" stroke="#404040" points="218.258,-428.085 214.295,-422.061 218.331,-416.085 222.294,-422.11 218.258,-428.085"/>
<text text-anchor="middle" x="243" y="-443" font-family="Helvetica,sans-Serif" font-size="10.00"> +elements</text>
</g>
<!-- Node11 -->
<g id="node11" class="node"><title>Node11</title>
<polygon fill="none" stroke="#bfbfbf" points="0,-761.5 0,-818.5 167,-818.5 167,-761.5 0,-761.5"/>
<text text-anchor="middle" x="83.5" y="-806.5" font-family="Helvetica,sans-Serif" font-size="10.00">std::vector&lt; EmissionProbability &gt;</text>
<polyline fill="none" stroke="#bfbfbf" points="0,-799.5 167,-799.5 "/>
<text text-anchor="middle" x="83.5" y="-787.5" font-family="Helvetica,sans-Serif" font-size="10.00"> </text>
<polyline fill="none" stroke="#bfbfbf" points="0,-780.5 167,-780.5 "/>
<text text-anchor="middle" x="83.5" y="-768.5" font-family="Helvetica,sans-Serif" font-size="10.00"> </text>
</g>
<!-- Node11&#45;&gt;Node10 -->
<g id="edge11" class="edge"><title>Node11&#45;&gt;Node10</title>
<path fill="none" stroke="#404040" d="M86.1816,-761.497C89.8872,-733.243 98.4269,-688.744 117.5,-655 124.261,-643.038 132.813,-631.5 142.056,-620.769"/>
<polygon fill="none" stroke="#404040" points="142.312,-620.485 143.345,-613.348 150.33,-611.556 149.297,-618.693 142.312,-620.485"/>
<text text-anchor="middle" x="171" y="-658" font-family="Helvetica,sans-Serif" font-size="10.00"> #m_emissionProbability</text>
</g>
<!-- Node12 -->
<g id="node12" class="node"><title>Node12</title>
<g id="a_node12"><a xlink:href="class_emission_probability.html" target="_top" xlink:title="{EmissionProbability\n|# m_distance\l# m_probability\l# m_roadId\l|+ EmissionProbability()\l+ updateProbability()\l}">
<polygon fill="none" stroke="black" points="24.5,-943.5 24.5,-1033.5 142.5,-1033.5 142.5,-943.5 24.5,-943.5"/>
<text text-anchor="middle" x="83.5" y="-1021.5" font-family="Helvetica,sans-Serif" font-size="10.00">EmissionProbability</text>
<polyline fill="none" stroke="black" points="24.5,-1014.5 142.5,-1014.5 "/>
<text text-anchor="start" x="32.5" y="-1002.5" font-family="Helvetica,sans-Serif" font-size="10.00"># m_distance</text>
<text text-anchor="start" x="32.5" y="-991.5" font-family="Helvetica,sans-Serif" font-size="10.00"># m_probability</text>
<text text-anchor="start" x="32.5" y="-980.5" font-family="Helvetica,sans-Serif" font-size="10.00"># m_roadId</text>
<polyline fill="none" stroke="black" points="24.5,-973.5 142.5,-973.5 "/>
<text text-anchor="start" x="32.5" y="-961.5" font-family="Helvetica,sans-Serif" font-size="10.00">+ EmissionProbability()</text>
<text text-anchor="start" x="32.5" y="-950.5" font-family="Helvetica,sans-Serif" font-size="10.00">+ updateProbability()</text>
</a>
</g>
</g>
<!-- Node12&#45;&gt;Node11 -->
<g id="edge12" class="edge"><title>Node12&#45;&gt;Node11</title>
<path fill="none" stroke="#404040" d="M83.5,-943.402C83.5,-909.638 83.5,-863.465 83.5,-830.816"/>
<polygon fill="none" stroke="#404040" points="83.5001,-830.589 79.5,-824.589 83.5,-818.589 87.5,-824.589 83.5001,-830.589"/>
<text text-anchor="middle" x="108" y="-917" font-family="Helvetica,sans-Serif" font-size="10.00"> +elements</text>
</g>
<!-- Node13 -->
<g id="node13" class="node"><title>Node13</title>
<polygon fill="none" stroke="#bfbfbf" points="448,-353.5 448,-421.5 551,-421.5 551,-353.5 448,-353.5"/>
<text text-anchor="start" x="456" y="-409.5" font-family="Helvetica,sans-Serif" font-size="10.00">std::unordered_map</text>
<text text-anchor="middle" x="499.5" y="-398.5" font-family="Helvetica,sans-Serif" font-size="10.00">&lt; long, Road &gt;</text>
<polyline fill="none" stroke="#bfbfbf" points="448,-391.5 551,-391.5 "/>
<text text-anchor="start" x="456" y="-379.5" font-family="Helvetica,sans-Serif" font-size="10.00">+ keys</text>
<polyline fill="none" stroke="#bfbfbf" points="448,-372.5 551,-372.5 "/>
<text text-anchor="middle" x="499.5" y="-360.5" font-family="Helvetica,sans-Serif" font-size="10.00"> </text>
</g>
<!-- Node13&#45;&gt;Node3 -->
<g id="edge13" class="edge"><title>Node13&#45;&gt;Node3</title>
<path fill="none" stroke="#404040" d="M456.106,-353.378C427.205,-331.318 388.735,-301.955 356.361,-277.244"/>
<polygon fill="none" stroke="#404040" points="356.066,-277.019 348.869,-276.558 346.527,-269.738 353.723,-270.199 356.066,-277.019"/>
<text text-anchor="middle" x="449.5" y="-327" font-family="Helvetica,sans-Serif" font-size="10.00"> #m_roads</text>
</g>
<!-- Node14 -->
<g id="node14" class="node"><title>Node14</title>
<g id="a_node14"><a xlink:href="class_road.html" target="_top" xlink:title="Road is an element of a network. Road are strongly linked with Points. ">
<polygon fill="none" stroke="black" points="446,-469.5 446,-636.5 559,-636.5 559,-469.5 446,-469.5"/>
<text text-anchor="middle" x="502.5" y="-624.5" font-family="Helvetica,sans-Serif" font-size="10.00">Road</text>
<polyline fill="none" stroke="black" points="446,-617.5 559,-617.5 "/>
<text text-anchor="start" x="454" y="-605.5" font-family="Helvetica,sans-Serif" font-size="10.00"># m_edgeId</text>
<polyline fill="none" stroke="black" points="446,-598.5 559,-598.5 "/>
<text text-anchor="start" x="454" y="-586.5" font-family="Helvetica,sans-Serif" font-size="10.00">+ addNeighbor()</text>
<text text-anchor="start" x="454" y="-575.5" font-family="Helvetica,sans-Serif" font-size="10.00">+ addPoint()</text>
<text text-anchor="start" x="454" y="-564.5" font-family="Helvetica,sans-Serif" font-size="10.00">+ edgeId()</text>
<text text-anchor="start" x="454" y="-553.5" font-family="Helvetica,sans-Serif" font-size="10.00">+ getListOfPoints()</text>
<text text-anchor="start" x="454" y="-542.5" font-family="Helvetica,sans-Serif" font-size="10.00">+ getm_edgeId()</text>
<text text-anchor="start" x="454" y="-531.5" font-family="Helvetica,sans-Serif" font-size="10.00">+ getNoOfNeighbors()</text>
<text text-anchor="start" x="454" y="-520.5" font-family="Helvetica,sans-Serif" font-size="10.00">+ outputInfos()</text>
<text text-anchor="start" x="454" y="-509.5" font-family="Helvetica,sans-Serif" font-size="10.00">+ Road()</text>
<text text-anchor="start" x="454" y="-498.5" font-family="Helvetica,sans-Serif" font-size="10.00">+ Road()</text>
<text text-anchor="start" x="454" y="-487.5" font-family="Helvetica,sans-Serif" font-size="10.00">+ vectorOfPointsId()</text>
<text text-anchor="start" x="454" y="-476.5" font-family="Helvetica,sans-Serif" font-size="10.00">+ ~Road()</text>
</a>
</g>
</g>
<!-- Node14&#45;&gt;Node13 -->
<g id="edge14" class="edge"><title>Node14&#45;&gt;Node13</title>
<path fill="none" stroke="#404040" d="M500.982,-469.292C500.756,-456.977 500.531,-444.691 500.327,-433.551"/>
<polygon fill="none" stroke="#404040" points="500.326,-433.52 496.217,-427.594 500.106,-421.522 504.215,-427.448 500.326,-433.52"/>
<text text-anchor="middle" x="525" y="-443" font-family="Helvetica,sans-Serif" font-size="10.00"> +elements</text>
</g>
<!-- Node15 -->
<g id="node15" class="node"><title>Node15</title>
<polygon fill="none" stroke="#bfbfbf" points="453.5,-761.5 453.5,-818.5 539.5,-818.5 539.5,-761.5 453.5,-761.5"/>
<text text-anchor="middle" x="496.5" y="-806.5" font-family="Helvetica,sans-Serif" font-size="10.00">std::set&lt; long &gt;</text>
<polyline fill="none" stroke="#bfbfbf" points="453.5,-799.5 539.5,-799.5 "/>
<text text-anchor="start" x="461.5" y="-787.5" font-family="Helvetica,sans-Serif" font-size="10.00">+ keys</text>
<polyline fill="none" stroke="#bfbfbf" points="453.5,-780.5 539.5,-780.5 "/>
<text text-anchor="middle" x="496.5" y="-768.5" font-family="Helvetica,sans-Serif" font-size="10.00"> </text>
</g>
<!-- Node15&#45;&gt;Node14 -->
<g id="edge15" class="edge"><title>Node15&#45;&gt;Node14</title>
<path fill="none" stroke="#404040" d="M496.368,-761.277C496.318,-734.175 496.454,-691.743 497.5,-655 497.558,-652.949 497.622,-650.875 497.69,-648.784"/>
<polygon fill="none" stroke="#404040" points="497.694,-648.66 493.912,-642.52 498.124,-636.667 501.907,-642.807 497.694,-648.66"/>
<text text-anchor="middle" x="543" y="-658" font-family="Helvetica,sans-Serif" font-size="10.00"> #m_setOfNeighbors</text>
</g>
<!-- Node16 -->
<g id="node16" class="node"><title>Node16</title>
<polygon fill="none" stroke="#bfbfbf" points="564.5,-761.5 564.5,-818.5 656.5,-818.5 656.5,-761.5 564.5,-761.5"/>
<text text-anchor="middle" x="610.5" y="-806.5" font-family="Helvetica,sans-Serif" font-size="10.00">std::vector&lt; int &gt;</text>
<polyline fill="none" stroke="#bfbfbf" points="564.5,-799.5 656.5,-799.5 "/>
<text text-anchor="start" x="572.5" y="-787.5" font-family="Helvetica,sans-Serif" font-size="10.00">+ elements</text>
<polyline fill="none" stroke="#bfbfbf" points="564.5,-780.5 656.5,-780.5 "/>
<text text-anchor="middle" x="610.5" y="-768.5" font-family="Helvetica,sans-Serif" font-size="10.00"> </text>
</g>
<!-- Node16&#45;&gt;Node14 -->
<g id="edge16" class="edge"><title>Node16&#45;&gt;Node14</title>
<path fill="none" stroke="#404040" d="M610.243,-761.302C609.02,-733.285 604.413,-689.33 588.5,-655 582.77,-642.637 575.094,-630.594 566.678,-619.382"/>
<polygon fill="none" stroke="#404040" points="566.533,-619.196 559.681,-616.947 559.123,-609.757 565.974,-612.007 566.533,-619.196"/>
<text text-anchor="middle" x="640.5" y="-658" font-family="Helvetica,sans-Serif" font-size="10.00"> #m_vectorOfPointsId</text>
</g>
</g>
</svg>
        <g id="navigator" transform="translate(0 0)" fill="#404254">
                <rect fill="#f2f5e9" fill-opacity="0.5" stroke="#606060" stroke-width=".5" x="0" y="0" width="60" height="60"/>
                <use id="zoomplus" xlink:href="#zoomPlus" x="17" y="9" onmousedown="handleZoom(evt,'in')"/>
                <use id="zoomminus" xlink:href="#zoomMin" x="42" y="9" onmousedown="handleZoom(evt,'out')"/>
                <use id="reset" xlink:href="#resetDef" x="30" y="36" onmousedown="handleReset()"/>
                <g id="arrowUp" xlink:href="#dirArrow" transform="translate(30 24)" onmousedown="handlePan(0,-1)">
                  <use xlink:href="#rim" fill="#404040">
                        <set attributeName="fill" to="#808080" begin="arrowUp.mouseover" end="arrowUp.mouseout"/>
                  </use>
                  <path fill="none" stroke="white" stroke-width="1.5" d="M0,-3.0v7 M-2.5,-0.5L0,-3.0L2.5,-0.5"/>
                </g>
                <g id="arrowRight" xlink:href="#dirArrow" transform="rotate(90) translate(36 -43)" onmousedown="handlePan(1,0)">
                  <use xlink:href="#rim" fill="#404040">
                        <set attributeName="fill" to="#808080" begin="arrowRight.mouseover" end="arrowRight.mouseout"/>
                  </use>
                  <path fill="none" stroke="white" stroke-width="1.5" d="M0,-3.0v7 M-2.5,-0.5L0,-3.0L2.5,-0.5"/>
                </g>
                <g id="arrowDown" xlink:href="#dirArrow" transform="rotate(180) translate(-30 -48)" onmousedown="handlePan(0,1)">
                  <use xlink:href="#rim" fill="#404040">
                        <set attributeName="fill" to="#808080" begin="arrowDown.mouseover" end="arrowDown.mouseout"/>
                  </use>
                  <path fill="none" stroke="white" stroke-width="1.5" d="M0,-3.0v7 M-2.5,-0.5L0,-3.0L2.5,-0.5"/>
                </g>
                <g id="arrowLeft" xlink:href="#dirArrow" transform="rotate(270) translate(-36 17)" onmousedown="handlePan(-1,0)">
                  <use xlink:href="#rim" fill="#404040">
                        <set attributeName="fill" to="#808080" begin="arrowLeft.mouseover" end="arrowLeft.mouseout"/>
                  </use>
                  <path fill="none" stroke="white" stroke-width="1.5" d="M0,-3.0v7 M-2.5,-0.5L0,-3.0L2.5,-0.5"/>
                </g>
        </g>
        <svg viewBox="0 0 15 15" width="100%" height="30px" preserveAspectRatio="xMaxYMin meet">
         <g id="arrow_out" transform="scale(0.3 0.3)">
          <a xlink:href="class_q_map_widget__coll__graph_org.svg" target="_base">
           <rect id="button" ry="5" rx="5" y="6" x="6" height="38" width="38"
                fill="#f2f5e9" fill-opacity="0.5" stroke="#606060" stroke-width="1.0"/>
           <path id="arrow"
             d="M 11.500037,31.436501 C 11.940474,20.09759 22.043105,11.32322 32.158766,21.979434 L 37.068811,17.246167 C 37.068811,17.246167 37.088388,32 37.088388,32 L 22.160133,31.978069 C 22.160133,31.978069 26.997745,27.140456 26.997745,27.140456 C 18.528582,18.264221 13.291696,25.230495 11.500037,31.436501 z"
             style="fill:#404040;"/>
          </a>
         </g>
        </svg>
</svg>
