<?xml version="1.0" encoding="UTF-8" standalone="no"?>
<!DOCTYPE svg PUBLIC "-//W3C//DTD SVG 1.1//EN"
 "http://www.w3.org/Graphics/SVG/1.1/DTD/svg11.dtd">
<!-- Generated by graphviz version 2.38.0 (20140413.2041)
 -->
<!-- Title: Point::y Pages: 1 -->
<svg width="606pt" height="218pt"
 viewBox="0.00 0.00 606.00 218.00" xmlns="http://www.w3.org/2000/svg" xmlns:xlink="http://www.w3.org/1999/xlink">
<g id="graph0" class="graph" transform="scale(1 1) rotate(0) translate(4 214)">
<title>Point::y</title>
<!-- Node1 -->
<g id="node1" class="node"><title>Node1</title>
<polygon fill="#bfbfbf" stroke="black" points="0,-95.5 0,-114.5 50,-114.5 50,-95.5 0,-95.5"/>
<text text-anchor="middle" x="25" y="-102.5" font-family="Helvetica,sans-Serif" font-size="10.00">Point::y</text>
</g>
<!-- Node2 -->
<g id="node2" class="node"><title>Node2</title>
<g id="a_node2"><a xlink:href="class_box.html#a3a96bf8f86322e4885028e517ef40535" target="_top" xlink:title="Box::distanceToPoint">
<polygon fill="none" stroke="black" points="107.5,-190.5 107.5,-209.5 217.5,-209.5 217.5,-190.5 107.5,-190.5"/>
<text text-anchor="middle" x="162.5" y="-197.5" font-family="Helvetica,sans-Serif" font-size="10.00">Box::distanceToPoint</text>
</a>
</g>
</g>
<!-- Node1&#45;&gt;Node2 -->
<g id="edge1" class="edge"><title>Node1&#45;&gt;Node2</title>
<path fill="none" stroke="midnightblue" d="M35.7228,-123.333C45.9345,-140.796 63.6152,-166.509 86,-181 92.4674,-185.187 99.7978,-188.451 107.286,-190.996"/>
<polygon fill="midnightblue" stroke="midnightblue" points="38.7745,-121.619 30.8356,-114.603 32.6665,-125.038 38.7745,-121.619"/>
</g>
<!-- Node4 -->
<g id="node4" class="node"><title>Node4</title>
<g id="a_node4"><a xlink:href="structhash_func.html#a1ec440ab36b0e013a3bbc9cf48f34e35" target="_top" xlink:title="hashFunc::operator()">
<polygon fill="none" stroke="black" points="109,-152.5 109,-171.5 216,-171.5 216,-152.5 109,-152.5"/>
<text text-anchor="middle" x="162.5" y="-159.5" font-family="Helvetica,sans-Serif" font-size="10.00">hashFunc::operator()</text>
</a>
</g>
</g>
<!-- Node1&#45;&gt;Node4 -->
<g id="edge3" class="edge"><title>Node1&#45;&gt;Node4</title>
<path fill="none" stroke="midnightblue" d="M46.8793,-120.549C58.0162,-128.228 72.2324,-137.089 86,-143 94.694,-146.733 104.278,-149.845 113.616,-152.396"/>
<polygon fill="midnightblue" stroke="midnightblue" points="48.8552,-117.659 38.6753,-114.723 44.8022,-123.366 48.8552,-117.659"/>
</g>
<!-- Node5 -->
<g id="node5" class="node"><title>Node5</title>
<g id="a_node5"><a xlink:href="class_point.html#a9cff645d17a17081494fca956d43102a" target="_top" xlink:title="Point::projectionOnSegment">
<polygon fill="none" stroke="black" points="93,-114.5 93,-133.5 232,-133.5 232,-114.5 93,-114.5"/>
<text text-anchor="middle" x="162.5" y="-121.5" font-family="Helvetica,sans-Serif" font-size="10.00">Point::projectionOnSegment</text>
</a>
</g>
</g>
<!-- Node1&#45;&gt;Node5 -->
<g id="edge4" class="edge"><title>Node1&#45;&gt;Node5</title>
<path fill="none" stroke="midnightblue" d="M60.3045,-109.81C70.4996,-111.24 82.0434,-112.858 93.5934,-114.478"/>
<polygon fill="midnightblue" stroke="midnightblue" points="60.6139,-106.319 50.2247,-108.397 59.6418,-113.252 60.6139,-106.319"/>
</g>
<!-- Node8 -->
<g id="node8" class="node"><title>Node8</title>
<g id="a_node8"><a xlink:href="class_point.html#a364091762d6aa1aa5983d36fd7d8b6d5" target="_top" xlink:title="Point Class&#39;s Destructor. ">
<polygon fill="none" stroke="black" points="305.5,-73.5 305.5,-92.5 379.5,-92.5 379.5,-73.5 305.5,-73.5"/>
<text text-anchor="middle" x="342.5" y="-80.5" font-family="Helvetica,sans-Serif" font-size="10.00">Point::~Point</text>
</a>
</g>
</g>
<!-- Node1&#45;&gt;Node8 -->
<g id="edge10" class="edge"><title>Node1&#45;&gt;Node8</title>
<path fill="none" stroke="midnightblue" d="M60.3406,-102.605C120.422,-98.4159 244.041,-89.7959 305.363,-85.5198"/>
<polygon fill="midnightblue" stroke="midnightblue" points="59.9652,-99.123 50.2329,-103.31 60.4522,-106.106 59.9652,-99.123"/>
</g>
<!-- Node9 -->
<g id="node9" class="node"><title>Node9</title>
<g id="a_node9"><a xlink:href="class_point.html#a16550863eab3e713371cdf8d5fa26926" target="_top" xlink:title="Point::sety">
<polygon fill="none" stroke="black" points="130.5,-38.5 130.5,-57.5 194.5,-57.5 194.5,-38.5 130.5,-38.5"/>
<text text-anchor="middle" x="162.5" y="-45.5" font-family="Helvetica,sans-Serif" font-size="10.00">Point::sety</text>
</a>
</g>
</g>
<!-- Node1&#45;&gt;Node9 -->
<g id="edge8" class="edge"><title>Node1&#45;&gt;Node9</title>
<path fill="none" stroke="midnightblue" d="M50.1615,-90.3023C60.8953,-84.145 73.8322,-77.2208 86,-72 100.156,-65.926 116.377,-60.573 130.146,-56.4727"/>
<polygon fill="midnightblue" stroke="midnightblue" points="48.2289,-87.3781 41.3706,-95.4537 51.768,-93.4175 48.2289,-87.3781"/>
</g>
<!-- Node10 -->
<g id="node10" class="node"><title>Node10</title>
<g id="a_node10"><a xlink:href="class_q_map_scene.html#a9c3b1d134cd012f2f2867bebab3dc09e" target="_top" xlink:title="QMapScene::onSignalAllPoints">
<polygon fill="none" stroke="black" points="86,-0.5 86,-19.5 239,-19.5 239,-0.5 86,-0.5"/>
<text text-anchor="middle" x="162.5" y="-7.5" font-family="Helvetica,sans-Serif" font-size="10.00">QMapScene::onSignalAllPoints</text>
</a>
</g>
</g>
<!-- Node1&#45;&gt;Node10 -->
<g id="edge11" class="edge"><title>Node1&#45;&gt;Node10</title>
<path fill="none" stroke="midnightblue" d="M35.7228,-86.6673C45.9345,-69.2035 63.6152,-43.4912 86,-29 92.0135,-25.107 98.7732,-22.0116 105.712,-19.5504"/>
<polygon fill="midnightblue" stroke="midnightblue" points="32.6665,-84.9617 30.8356,-95.3972 38.7745,-88.3812 32.6665,-84.9617"/>
</g>
<!-- Node3 -->
<g id="node3" class="node"><title>Node3</title>
<g id="a_node3"><a xlink:href="class_box.html#ad1025ca7dfb54b3ce438306fe322d3ae" target="_top" xlink:title="Box::Box">
<polygon fill="none" stroke="black" points="314,-190.5 314,-209.5 371,-209.5 371,-190.5 314,-190.5"/>
<text text-anchor="middle" x="342.5" y="-197.5" font-family="Helvetica,sans-Serif" font-size="10.00">Box::Box</text>
</a>
</g>
</g>
<!-- Node2&#45;&gt;Node3 -->
<g id="edge2" class="edge"><title>Node2&#45;&gt;Node3</title>
<path fill="none" stroke="midnightblue" d="M228.109,-200C257.571,-200 290.897,-200 313.755,-200"/>
<polygon fill="midnightblue" stroke="midnightblue" points="227.873,-196.5 217.873,-200 227.873,-203.5 227.873,-196.5"/>
</g>
<!-- Node6 -->
<g id="node6" class="node"><title>Node6</title>
<g id="a_node6"><a xlink:href="class_grid.html#ac4e7d17f7ac28247f6cbd55d4ae0fee8" target="_top" xlink:title="Grid::getProjectedPointAnd\lDistance">
<polygon fill="none" stroke="black" points="275,-112 275,-142 410,-142 410,-112 275,-112"/>
<text text-anchor="start" x="283" y="-130" font-family="Helvetica,sans-Serif" font-size="10.00">Grid::getProjectedPointAnd</text>
<text text-anchor="middle" x="342.5" y="-119" font-family="Helvetica,sans-Serif" font-size="10.00">Distance</text>
</a>
</g>
</g>
<!-- Node5&#45;&gt;Node6 -->
<g id="edge5" class="edge"><title>Node5&#45;&gt;Node6</title>
<path fill="none" stroke="midnightblue" d="M242.345,-125.329C253.153,-125.511 264.165,-125.697 274.729,-125.875"/>
<polygon fill="midnightblue" stroke="midnightblue" points="242.122,-121.825 232.065,-125.156 242.004,-128.824 242.122,-121.825"/>
</g>
<!-- Node5&#45;&gt;Node8 -->
<g id="edge7" class="edge"><title>Node5&#45;&gt;Node8</title>
<path fill="none" stroke="midnightblue" d="M214.728,-112.2C243.689,-105.529 279.201,-97.3497 305.264,-91.3464"/>
<polygon fill="midnightblue" stroke="midnightblue" points="213.743,-108.835 204.784,-114.491 215.315,-115.657 213.743,-108.835"/>
</g>
<!-- Node7 -->
<g id="node7" class="node"><title>Node7</title>
<g id="a_node7"><a xlink:href="class_grid.html#afc6f21c3514d66d3ce16765ccb97411e" target="_top" xlink:title="Grid::computeDistanceFraction">
<polygon fill="none" stroke="black" points="446,-117.5 446,-136.5 598,-136.5 598,-117.5 446,-117.5"/>
<text text-anchor="middle" x="522" y="-124.5" font-family="Helvetica,sans-Serif" font-size="10.00">Grid::computeDistanceFraction</text>
</a>
</g>
</g>
<!-- Node6&#45;&gt;Node7 -->
<g id="edge6" class="edge"><title>Node6&#45;&gt;Node7</title>
<path fill="none" stroke="midnightblue" d="M420.367,-127C428.863,-127 437.506,-127 445.978,-127"/>
<polygon fill="midnightblue" stroke="midnightblue" points="420.099,-123.5 410.099,-127 420.099,-130.5 420.099,-123.5"/>
</g>
<!-- Node9&#45;&gt;Node8 -->
<g id="edge9" class="edge"><title>Node9&#45;&gt;Node8</title>
<path fill="none" stroke="midnightblue" d="M204.391,-56.0404C234.853,-62.0301 276.065,-70.1336 305.332,-75.8882"/>
<polygon fill="midnightblue" stroke="midnightblue" points="204.993,-52.5917 194.505,-54.0965 203.642,-59.4602 204.993,-52.5917"/>
</g>
</g>
</svg>
