<?xml version="1.0" encoding="UTF-8" standalone="no"?>
<!DOCTYPE svg PUBLIC "-//W3C//DTD SVG 1.1//EN"
 "http://www.w3.org/Graphics/SVG/1.1/DTD/svg11.dtd">
<!-- Generated by graphviz version 2.38.0 (20140413.2041)
 -->
<!-- Title: MyException Pages: 1 -->
<svg width="182pt" height="321pt"
 viewBox="0.00 0.00 181.50 321.00" xmlns="http://www.w3.org/2000/svg" xmlns:xlink="http://www.w3.org/1999/xlink">
<g id="graph0" class="graph" transform="scale(1 1) rotate(0) translate(4 317)">
<title>MyException</title>
<!-- Node1 -->
<g id="node1" class="node"><title>Node1</title>
<polygon fill="#bfbfbf" stroke="black" points="21.5,-0.5 21.5,-101.5 116.5,-101.5 116.5,-0.5 21.5,-0.5"/>
<text text-anchor="middle" x="69" y="-89.5" font-family="Helvetica,sans-Serif" font-size="10.00">MyException</text>
<polyline fill="none" stroke="black" points="21.5,-82.5 116.5,-82.5 "/>
<text text-anchor="start" x="29.5" y="-70.5" font-family="Helvetica,sans-Serif" font-size="10.00">&#45; m_niveau</text>
<text text-anchor="start" x="29.5" y="-59.5" font-family="Helvetica,sans-Serif" font-size="10.00">&#45; m_numero</text>
<polyline fill="none" stroke="black" points="21.5,-52.5 116.5,-52.5 "/>
<text text-anchor="start" x="29.5" y="-40.5" font-family="Helvetica,sans-Serif" font-size="10.00">+ getNiveau()</text>
<text text-anchor="start" x="29.5" y="-29.5" font-family="Helvetica,sans-Serif" font-size="10.00">+ MyException()</text>
<text text-anchor="start" x="29.5" y="-18.5" font-family="Helvetica,sans-Serif" font-size="10.00">+ what()</text>
<text text-anchor="start" x="29.5" y="-7.5" font-family="Helvetica,sans-Serif" font-size="10.00">+ ~MyException()</text>
</g>
<!-- Node2 -->
<g id="node2" class="node"><title>Node2</title>
<g id="a_node2"><a xlink:title="STL class. ">
<polygon fill="none" stroke="#bfbfbf" points="0,-149.5 0,-206.5 78,-206.5 78,-149.5 0,-149.5"/>
<text text-anchor="middle" x="39" y="-194.5" font-family="Helvetica,sans-Serif" font-size="10.00">std::exception</text>
<polyline fill="none" stroke="#bfbfbf" points="0,-187.5 78,-187.5 "/>
<text text-anchor="middle" x="39" y="-175.5" font-family="Helvetica,sans-Serif" font-size="10.00"> </text>
<polyline fill="none" stroke="#bfbfbf" points="0,-168.5 78,-168.5 "/>
<text text-anchor="middle" x="39" y="-156.5" font-family="Helvetica,sans-Serif" font-size="10.00"> </text>
</a>
</g>
</g>
<!-- Node2&#45;&gt;Node1 -->
<g id="edge1" class="edge"><title>Node2&#45;&gt;Node1</title>
<path fill="none" stroke="midnightblue" d="M48.0467,-139.306C50.8783,-127.507 54.0478,-114.301 57.0476,-101.802"/>
<polygon fill="none" stroke="midnightblue" points="44.5884,-138.718 45.658,-149.258 51.3951,-140.351 44.5884,-138.718"/>
</g>
<!-- Node3 -->
<g id="node3" class="node"><title>Node3</title>
<g id="a_node3"><a xlink:title="STL class. ">
<polygon fill="none" stroke="#bfbfbf" points="96,-149.5 96,-206.5 156,-206.5 156,-149.5 96,-149.5"/>
<text text-anchor="middle" x="126" y="-194.5" font-family="Helvetica,sans-Serif" font-size="10.00">std::string</text>
<polyline fill="none" stroke="#bfbfbf" points="96,-187.5 156,-187.5 "/>
<text text-anchor="middle" x="126" y="-175.5" font-family="Helvetica,sans-Serif" font-size="10.00"> </text>
<polyline fill="none" stroke="#bfbfbf" points="96,-168.5 156,-168.5 "/>
<text text-anchor="middle" x="126" y="-156.5" font-family="Helvetica,sans-Serif" font-size="10.00"> </text>
</a>
</g>
</g>
<!-- Node3&#45;&gt;Node1 -->
<g id="edge2" class="edge"><title>Node3&#45;&gt;Node1</title>
<path fill="none" stroke="#404040" d="M113.35,-149.258C108.429,-138.466 102.583,-125.647 96.7771,-112.915"/>
<polygon fill="none" stroke="#404040" points="96.6885,-112.72 90.5596,-108.921 91.7096,-101.802 97.8385,-105.601 96.6885,-112.72"/>
<text text-anchor="middle" x="128.5" y="-123" font-family="Helvetica,sans-Serif" font-size="10.00"> &#45;m_phrase</text>
</g>
<!-- Node4 -->
<g id="node4" class="node"><title>Node4</title>
<g id="a_node4"><a xlink:title="STL class. ">
<polygon fill="none" stroke="#bfbfbf" points="78.5,-244.5 78.5,-312.5 173.5,-312.5 173.5,-244.5 78.5,-244.5"/>
<text text-anchor="start" x="86.5" y="-300.5" font-family="Helvetica,sans-Serif" font-size="10.00">std::basic_string&lt;</text>
<text text-anchor="middle" x="126" y="-289.5" font-family="Helvetica,sans-Serif" font-size="10.00"> char &gt;</text>
<polyline fill="none" stroke="#bfbfbf" points="78.5,-282.5 173.5,-282.5 "/>
<text text-anchor="middle" x="126" y="-270.5" font-family="Helvetica,sans-Serif" font-size="10.00"> </text>
<polyline fill="none" stroke="#bfbfbf" points="78.5,-263.5 173.5,-263.5 "/>
<text text-anchor="middle" x="126" y="-251.5" font-family="Helvetica,sans-Serif" font-size="10.00"> </text>
</a>
</g>
</g>
<!-- Node4&#45;&gt;Node3 -->
<g id="edge3" class="edge"><title>Node4&#45;&gt;Node3</title>
<path fill="none" stroke="midnightblue" d="M126,-234.375C126,-224.94 126,-215.201 126,-206.571"/>
<polygon fill="none" stroke="midnightblue" points="122.5,-234.427 126,-244.427 129.5,-234.427 122.5,-234.427"/>
</g>
</g>
</svg>
