<?xml version="1.0" encoding="UTF-8" standalone="no"?>
<!DOCTYPE svg PUBLIC "-//W3C//DTD SVG 1.1//EN"
 "http://www.w3.org/Graphics/SVG/1.1/DTD/svg11.dtd">
<!-- Generated by graphviz version 2.38.0 (20140413.2041)
 -->
<!-- Title: MainWindow::MainWindow Pages: 1 -->
<svg width="1310pt" height="598pt"
 viewBox="0.00 0.00 1310.00 598.00" xmlns="http://www.w3.org/2000/svg" xmlns:xlink="http://www.w3.org/1999/xlink">
<g id="graph0" class="graph" transform="scale(1 1) rotate(0) translate(4 594)">
<title>MainWindow::MainWindow</title>
<!-- Node1 -->
<g id="node1" class="node"><title>Node1</title>
<polygon fill="#bfbfbf" stroke="black" points="0,-273.5 0,-292.5 135,-292.5 135,-273.5 0,-273.5"/>
<text text-anchor="middle" x="67.5" y="-280.5" font-family="Helvetica,sans-Serif" font-size="10.00">MainWindow::MainWindow</text>
</g>
<!-- Node2 -->
<g id="node2" class="node"><title>Node2</title>
<g id="a_node2"><a xlink:href="class_main_window.html#a684fe2be6fa67486c75ebddfbbe7d42b" target="_top" xlink:title="createGuiControlComponents ">
<polygon fill="none" stroke="black" points="175.5,-366 175.5,-396 327.5,-396 327.5,-366 175.5,-366"/>
<text text-anchor="start" x="183.5" y="-384" font-family="Helvetica,sans-Serif" font-size="10.00">MainWindow::createGuiControl</text>
<text text-anchor="middle" x="251.5" y="-373" font-family="Helvetica,sans-Serif" font-size="10.00">Components</text>
</a>
</g>
</g>
<!-- Node1&#45;&gt;Node2 -->
<g id="edge1" class="edge"><title>Node1&#45;&gt;Node2</title>
<path fill="none" stroke="midnightblue" d="M79.4298,-292.575C97.4005,-307.889 134.816,-337.993 171,-356 175.578,-358.278 180.407,-360.404 185.331,-362.376"/>
<polygon fill="midnightblue" stroke="midnightblue" points="184.284,-365.722 194.876,-365.978 186.756,-359.172 184.284,-365.722"/>
</g>
<!-- Node3 -->
<g id="node3" class="node"><title>Node3</title>
<g id="a_node3"><a xlink:href="class_main_window.html#a10e39f33826503a9967be862a5b27c40" target="_top" xlink:title="createSubSlidingWidgets ">
<polygon fill="none" stroke="black" points="175.5,-317 175.5,-347 327.5,-347 327.5,-317 175.5,-317"/>
<text text-anchor="start" x="183.5" y="-335" font-family="Helvetica,sans-Serif" font-size="10.00">MainWindow::createSubSliding</text>
<text text-anchor="middle" x="251.5" y="-324" font-family="Helvetica,sans-Serif" font-size="10.00">Widgets</text>
</a>
</g>
</g>
<!-- Node1&#45;&gt;Node3 -->
<g id="edge2" class="edge"><title>Node1&#45;&gt;Node3</title>
<path fill="none" stroke="midnightblue" d="M104.023,-292.564C126.965,-298.74 157.513,-306.965 184.774,-314.304"/>
<polygon fill="midnightblue" stroke="midnightblue" points="184.082,-317.743 194.648,-316.963 185.902,-310.984 184.082,-317.743"/>
</g>
<!-- Node4 -->
<g id="node4" class="node"><title>Node4</title>
<g id="a_node4"><a xlink:href="class_main_window.html#a9b5bcc86b4b159c34a7631e586b7be55" target="_top" xlink:title="createSlidingStackedWidget ">
<polygon fill="none" stroke="black" points="184,-268 184,-298 319,-298 319,-268 184,-268"/>
<text text-anchor="start" x="192" y="-286" font-family="Helvetica,sans-Serif" font-size="10.00">MainWindow::createSliding</text>
<text text-anchor="middle" x="251.5" y="-275" font-family="Helvetica,sans-Serif" font-size="10.00">StackedWidget</text>
</a>
</g>
</g>
<!-- Node1&#45;&gt;Node4 -->
<g id="edge3" class="edge"><title>Node1&#45;&gt;Node4</title>
<path fill="none" stroke="midnightblue" d="M135.237,-283C147.725,-283 160.87,-283 173.635,-283"/>
<polygon fill="midnightblue" stroke="midnightblue" points="173.771,-286.5 183.771,-283 173.771,-279.5 173.771,-286.5"/>
</g>
<!-- Node5 -->
<g id="node5" class="node"><title>Node5</title>
<g id="a_node5"><a xlink:href="class_main_window.html#af3626d206fdb542dc454250f37418d8f" target="_top" xlink:title="createMainLayout ">
<polygon fill="none" stroke="black" points="173.5,-229.5 173.5,-248.5 329.5,-248.5 329.5,-229.5 173.5,-229.5"/>
<text text-anchor="middle" x="251.5" y="-236.5" font-family="Helvetica,sans-Serif" font-size="10.00">MainWindow::createMainLayout</text>
</a>
</g>
</g>
<!-- Node1&#45;&gt;Node5 -->
<g id="edge4" class="edge"><title>Node1&#45;&gt;Node5</title>
<path fill="none" stroke="midnightblue" d="M107.428,-273.46C126.571,-268.781 149.99,-263.073 171,-258 180.521,-255.701 190.688,-253.261 200.459,-250.922"/>
<polygon fill="midnightblue" stroke="midnightblue" points="201.543,-254.262 210.455,-248.532 199.916,-247.453 201.543,-254.262"/>
</g>
<!-- Node6 -->
<g id="node6" class="node"><title>Node6</title>
<g id="a_node6"><a xlink:href="class_main_window.html#af773488e0b16efe6c0fc67ad348b86b2" target="_top" xlink:title="createConnections ">
<polygon fill="none" stroke="black" points="171,-191.5 171,-210.5 332,-210.5 332,-191.5 171,-191.5"/>
<text text-anchor="middle" x="251.5" y="-198.5" font-family="Helvetica,sans-Serif" font-size="10.00">MainWindow::createConnections</text>
</a>
</g>
</g>
<!-- Node1&#45;&gt;Node6 -->
<g id="edge5" class="edge"><title>Node1&#45;&gt;Node6</title>
<path fill="none" stroke="midnightblue" d="M81.0539,-273.445C99.7024,-259.692 136.266,-234.393 171,-220 176.936,-217.54 183.26,-215.356 189.648,-213.427"/>
<polygon fill="midnightblue" stroke="midnightblue" points="191.014,-216.679 199.693,-210.603 189.119,-209.94 191.014,-216.679"/>
</g>
<!-- Node7 -->
<g id="node7" class="node"><title>Node7</title>
<g id="a_node7"><a xlink:href="class_controller.html#ab8e345d91e901e46e0ad42a0b75ef94c" target="_top" xlink:title="Controller::addSolver">
<polygon fill="none" stroke="black" points="384,-267.5 384,-286.5 492,-286.5 492,-267.5 384,-267.5"/>
<text text-anchor="middle" x="438" y="-274.5" font-family="Helvetica,sans-Serif" font-size="10.00">Controller::addSolver</text>
</a>
</g>
</g>
<!-- Node6&#45;&gt;Node7 -->
<g id="edge6" class="edge"><title>Node6&#45;&gt;Node7</title>
<path fill="none" stroke="midnightblue" d="M310.067,-210.53C317.716,-212.996 325.24,-216.098 332,-220 352.149,-231.63 348.053,-246.028 368,-258 371.596,-260.158 375.442,-262.077 379.412,-263.783"/>
<polygon fill="midnightblue" stroke="midnightblue" points="378.244,-267.084 388.835,-267.388 380.746,-260.546 378.244,-267.084"/>
</g>
<!-- Node8 -->
<g id="node8" class="node"><title>Node8</title>
<g id="a_node8"><a xlink:href="class_controller.html#aa92b9a18a88aeb59c53272c3beab2724" target="_top" xlink:title="Controller::connectSignals">
<polygon fill="none" stroke="black" points="372.5,-229.5 372.5,-248.5 503.5,-248.5 503.5,-229.5 372.5,-229.5"/>
<text text-anchor="middle" x="438" y="-236.5" font-family="Helvetica,sans-Serif" font-size="10.00">Controller::connectSignals</text>
</a>
</g>
</g>
<!-- Node6&#45;&gt;Node8 -->
<g id="edge7" class="edge"><title>Node6&#45;&gt;Node8</title>
<path fill="none" stroke="midnightblue" d="M299.057,-210.589C323.843,-215.694 354.515,-222.011 380.639,-227.392"/>
<polygon fill="midnightblue" stroke="midnightblue" points="380.277,-230.891 390.778,-229.48 381.689,-224.035 380.277,-230.891"/>
</g>
<!-- Node9 -->
<g id="node9" class="node"><title>Node9</title>
<g id="a_node9"><a xlink:href="class_main_window.html#ad39bbe8ced0d3248206ac0ca6c444d55" target="_top" xlink:title="readyToNext1 Pass informations ">
<polygon fill="none" stroke="black" points="368,-191.5 368,-210.5 508,-210.5 508,-191.5 368,-191.5"/>
<text text-anchor="middle" x="438" y="-198.5" font-family="Helvetica,sans-Serif" font-size="10.00">MainWindow::readyToNext1</text>
</a>
</g>
</g>
<!-- Node6&#45;&gt;Node9 -->
<g id="edge8" class="edge"><title>Node6&#45;&gt;Node9</title>
<path fill="none" stroke="midnightblue" d="M332.083,-201C340.542,-201 349.146,-201 357.603,-201"/>
<polygon fill="midnightblue" stroke="midnightblue" points="357.826,-204.5 367.826,-201 357.826,-197.5 357.826,-204.5"/>
</g>
<!-- Node38 -->
<g id="node38" class="node"><title>Node38</title>
<g id="a_node38"><a xlink:href="class_main_window.html#ae2500bf587f9630ce61d27ca231cfd7a" target="_top" xlink:title="readyToNext2 Pass informations ">
<polygon fill="none" stroke="black" points="368,-140.5 368,-159.5 508,-159.5 508,-140.5 368,-140.5"/>
<text text-anchor="middle" x="438" y="-147.5" font-family="Helvetica,sans-Serif" font-size="10.00">MainWindow::readyToNext2</text>
</a>
</g>
</g>
<!-- Node6&#45;&gt;Node38 -->
<g id="edge42" class="edge"><title>Node6&#45;&gt;Node38</title>
<path fill="none" stroke="midnightblue" d="M287.203,-191.407C317.096,-183.144 360.413,-171.17 392.785,-162.222"/>
<polygon fill="midnightblue" stroke="midnightblue" points="393.747,-165.588 402.453,-159.55 391.881,-158.841 393.747,-165.588"/>
</g>
<!-- Node46 -->
<g id="node46" class="node"><title>Node46</title>
<g id="a_node46"><a xlink:href="class_main_window.html#a8316cc41f24ecba912fb4c2a90103be4" target="_top" xlink:title="putNone Disable next button ">
<polygon fill="none" stroke="black" points="380,-102.5 380,-121.5 496,-121.5 496,-102.5 380,-102.5"/>
<text text-anchor="middle" x="438" y="-109.5" font-family="Helvetica,sans-Serif" font-size="10.00">MainWindow::putNone</text>
</a>
</g>
</g>
<!-- Node6&#45;&gt;Node46 -->
<g id="edge51" class="edge"><title>Node6&#45;&gt;Node46</title>
<path fill="none" stroke="midnightblue" d="M265.706,-191.312C286.505,-176.452 328.593,-147.977 368,-131 373.483,-128.638 379.338,-126.493 385.233,-124.568"/>
<polygon fill="midnightblue" stroke="midnightblue" points="386.596,-127.81 395.132,-121.534 384.545,-121.118 386.596,-127.81"/>
</g>
<!-- Node10 -->
<g id="node10" class="node"><title>Node10</title>
<g id="a_node10"><a xlink:href="class_solver.html#acbe7e47bcad48b8ddba95c9281c8bf23" target="_top" xlink:title="readFiles Read files : track and grid ">
<polygon fill="none" stroke="black" points="547.5,-346.5 547.5,-365.5 637.5,-365.5 637.5,-346.5 547.5,-346.5"/>
<text text-anchor="middle" x="592.5" y="-353.5" font-family="Helvetica,sans-Serif" font-size="10.00">Solver::readFiles</text>
</a>
</g>
</g>
<!-- Node9&#45;&gt;Node10 -->
<g id="edge9" class="edge"><title>Node9&#45;&gt;Node10</title>
<path fill="none" stroke="midnightblue" d="M490.776,-210.572C496.921,-213.03 502.835,-216.119 508,-220 548.637,-250.537 573.915,-307.157 584.976,-336.789"/>
<polygon fill="midnightblue" stroke="midnightblue" points="581.746,-338.15 588.41,-346.386 588.337,-335.792 581.746,-338.15"/>
</g>
<!-- Node33 -->
<g id="node33" class="node"><title>Node33</title>
<g id="a_node33"><a xlink:href="class_grid.html#a8d8b7fa0ee20d81f130a46d80fc2a018" target="_top" xlink:title="Check if track is in grid. ">
<polygon fill="none" stroke="black" points="701,-342.5 701,-361.5 790,-361.5 790,-342.5 701,-342.5"/>
<text text-anchor="middle" x="745.5" y="-349.5" font-family="Helvetica,sans-Serif" font-size="10.00">Grid::trackInGrid</text>
</a>
</g>
</g>
<!-- Node9&#45;&gt;Node33 -->
<g id="edge33" class="edge"><title>Node9&#45;&gt;Node33</title>
<path fill="none" stroke="midnightblue" d="M480.043,-210.557C489.377,-213.208 499.147,-216.372 508,-220 590.52,-253.813 680.574,-309.974 721.708,-336.812"/>
<polygon fill="midnightblue" stroke="midnightblue" points="719.898,-339.81 730.177,-342.376 723.741,-333.96 719.898,-339.81"/>
</g>
<!-- Node11 -->
<g id="node11" class="node"><title>Node11</title>
<g id="a_node11"><a xlink:href="class_track.html#aff258a8c303ee8a09a962d237f3823e7" target="_top" xlink:title="Reads a csv file and inserts each point in m_points vector. ">
<polygon fill="none" stroke="black" points="690.5,-532.5 690.5,-551.5 800.5,-551.5 800.5,-532.5 690.5,-532.5"/>
<text text-anchor="middle" x="745.5" y="-539.5" font-family="Helvetica,sans-Serif" font-size="10.00">Track::readFromCSV</text>
</a>
</g>
</g>
<!-- Node10&#45;&gt;Node11 -->
<g id="edge10" class="edge"><title>Node10&#45;&gt;Node11</title>
<path fill="none" stroke="midnightblue" d="M600.408,-365.607C614.408,-384.961 647.32,-429.875 677,-466 694.014,-486.709 714.598,-509.595 728.527,-524.786"/>
<polygon fill="midnightblue" stroke="midnightblue" points="726.166,-527.389 735.517,-532.372 731.314,-522.646 726.166,-527.389"/>
</g>
<!-- Node15 -->
<g id="node15" class="node"><title>Node15</title>
<g id="a_node15"><a xlink:href="class_track.html#abf3b02de2c94d38c6a79b7c932aa6c5b" target="_top" xlink:title="Return a string containing information about the content of this object. ">
<polygon fill="none" stroke="black" points="711.5,-437.5 711.5,-456.5 779.5,-456.5 779.5,-437.5 711.5,-437.5"/>
<text text-anchor="middle" x="745.5" y="-444.5" font-family="Helvetica,sans-Serif" font-size="10.00">Track::infos</text>
</a>
</g>
</g>
<!-- Node10&#45;&gt;Node15 -->
<g id="edge14" class="edge"><title>Node10&#45;&gt;Node15</title>
<path fill="none" stroke="midnightblue" d="M602.237,-365.927C616.411,-381.429 645.973,-411.332 677,-428 684.631,-432.1 693.235,-435.388 701.681,-438"/>
<polygon fill="midnightblue" stroke="midnightblue" points="700.881,-441.411 711.456,-440.763 702.785,-434.675 700.881,-441.411"/>
</g>
<!-- Node16 -->
<g id="node16" class="node"><title>Node16</title>
<g id="a_node16"><a xlink:href="class_grid.html#aa2fcca933248f3c1f4361f1b7826b692" target="_top" xlink:title="Save data about our area of roads. ">
<polygon fill="none" stroke="black" points="677,-399.5 677,-418.5 814,-418.5 814,-399.5 677,-399.5"/>
<text text-anchor="middle" x="745.5" y="-406.5" font-family="Helvetica,sans-Serif" font-size="10.00">Grid::setTrackBoundingBox</text>
</a>
</g>
</g>
<!-- Node10&#45;&gt;Node16 -->
<g id="edge15" class="edge"><title>Node10&#45;&gt;Node16</title>
<path fill="none" stroke="midnightblue" d="M620.845,-365.598C645.218,-374.153 681.082,-386.741 707.918,-396.16"/>
<polygon fill="midnightblue" stroke="midnightblue" points="706.764,-399.464 717.358,-399.474 709.082,-392.859 706.764,-399.464"/>
</g>
<!-- Node21 -->
<g id="node21" class="node"><title>Node21</title>
<g id="a_node21"><a xlink:href="class_grid.html#ae848f1c59c544adc1af9133409ee0106" target="_top" xlink:title="Reads a csv file and inserts info into the corresponding attributs. ">
<polygon fill="none" stroke="black" points="694,-190.5 694,-209.5 797,-209.5 797,-190.5 694,-190.5"/>
<text text-anchor="middle" x="745.5" y="-197.5" font-family="Helvetica,sans-Serif" font-size="10.00">Grid::readFromCSV</text>
</a>
</g>
</g>
<!-- Node10&#45;&gt;Node21 -->
<g id="edge20" class="edge"><title>Node10&#45;&gt;Node21</title>
<path fill="none" stroke="midnightblue" d="M602.946,-346.242C627.945,-320.415 696.086,-250.018 727.822,-217.23"/>
<polygon fill="midnightblue" stroke="midnightblue" points="730.618,-219.374 735.058,-209.755 725.588,-214.506 730.618,-219.374"/>
</g>
<!-- Node32 -->
<g id="node32" class="node"><title>Node32</title>
<g id="a_node32"><a xlink:href="class_grid.html#a5fa1f98ecc8f485e4eee5b55b56243a0" target="_top" xlink:title="Grid::infos">
<polygon fill="none" stroke="black" points="714.5,-152.5 714.5,-171.5 776.5,-171.5 776.5,-152.5 714.5,-152.5"/>
<text text-anchor="middle" x="745.5" y="-159.5" font-family="Helvetica,sans-Serif" font-size="10.00">Grid::infos</text>
</a>
</g>
</g>
<!-- Node10&#45;&gt;Node32 -->
<g id="edge32" class="edge"><title>Node10&#45;&gt;Node32</title>
<path fill="none" stroke="midnightblue" d="M595.215,-346.342C600.973,-316.817 622.416,-226.975 677,-181 684.822,-174.412 694.778,-170.102 704.625,-167.284"/>
<polygon fill="midnightblue" stroke="midnightblue" points="705.455,-170.684 714.354,-164.934 703.812,-163.88 705.455,-170.684"/>
</g>
<!-- Node12 -->
<g id="node12" class="node"><title>Node12</title>
<g id="a_node12"><a xlink:href="class_track.html#ab0315e74b9b49e40d163a2ff978d833c" target="_top" xlink:title="Creates a new point and inserts it in m_points. ">
<polygon fill="none" stroke="black" points="878,-570.5 878,-589.5 964,-589.5 964,-570.5 878,-570.5"/>
<text text-anchor="middle" x="921" y="-577.5" font-family="Helvetica,sans-Serif" font-size="10.00">Track::addPoint</text>
</a>
</g>
</g>
<!-- Node11&#45;&gt;Node12 -->
<g id="edge11" class="edge"><title>Node11&#45;&gt;Node12</title>
<path fill="none" stroke="midnightblue" d="M790.281,-551.589C813.839,-556.749 843.052,-563.147 867.788,-568.564"/>
<polygon fill="midnightblue" stroke="midnightblue" points="867.213,-572.022 877.73,-570.742 868.711,-565.184 867.213,-572.022"/>
</g>
<!-- Node14 -->
<g id="node14" class="node"><title>Node14</title>
<g id="a_node14"><a xlink:href="class_track.html#aac5002af6aa69a20101a5709dbbebc82" target="_top" xlink:title="Apply a threshold to bounding box once the data file has been read. ">
<polygon fill="none" stroke="black" points="850,-532.5 850,-551.5 992,-551.5 992,-532.5 850,-532.5"/>
<text text-anchor="middle" x="921" y="-539.5" font-family="Helvetica,sans-Serif" font-size="10.00">Track::applyThresholdToBox</text>
</a>
</g>
</g>
<!-- Node11&#45;&gt;Node14 -->
<g id="edge13" class="edge"><title>Node11&#45;&gt;Node14</title>
<path fill="none" stroke="midnightblue" d="M800.92,-542C813.274,-542 826.649,-542 839.821,-542"/>
<polygon fill="midnightblue" stroke="midnightblue" points="839.833,-545.5 849.833,-542 839.833,-538.5 839.833,-545.5"/>
</g>
<!-- Node13 -->
<g id="node13" class="node"><title>Node13</title>
<g id="a_node13"><a xlink:href="class_track.html#af947410651d847174d7b18d8e9df9ca7" target="_top" xlink:title="Update the enclosing box of the track. ">
<polygon fill="none" stroke="black" points="1062,-570.5 1062,-589.5 1156,-589.5 1156,-570.5 1062,-570.5"/>
<text text-anchor="middle" x="1109" y="-577.5" font-family="Helvetica,sans-Serif" font-size="10.00">Track::updateBox</text>
</a>
</g>
</g>
<!-- Node12&#45;&gt;Node13 -->
<g id="edge12" class="edge"><title>Node12&#45;&gt;Node13</title>
<path fill="none" stroke="midnightblue" d="M964.206,-580C990.076,-580 1023.51,-580 1051.63,-580"/>
<polygon fill="midnightblue" stroke="midnightblue" points="1051.72,-583.5 1061.72,-580 1051.72,-576.5 1051.72,-583.5"/>
</g>
<!-- Node17 -->
<g id="node17" class="node"><title>Node17</title>
<g id="a_node17"><a xlink:href="class_grid.html#a13d6d18b26d70ab5871a8c2ddf7fa1b5" target="_top" xlink:title="Grid::xMin">
<polygon fill="none" stroke="black" points="890,-494.5 890,-513.5 952,-513.5 952,-494.5 890,-494.5"/>
<text text-anchor="middle" x="921" y="-501.5" font-family="Helvetica,sans-Serif" font-size="10.00">Grid::xMin</text>
</a>
</g>
</g>
<!-- Node16&#45;&gt;Node17 -->
<g id="edge16" class="edge"><title>Node16&#45;&gt;Node17</title>
<path fill="none" stroke="midnightblue" d="M796.762,-418.616C802.905,-421.067 808.828,-424.142 814,-428 838.016,-445.916 825.9,-467.196 850,-485 858.75,-491.464 869.566,-495.729 880.057,-498.543"/>
<polygon fill="midnightblue" stroke="midnightblue" points="879.408,-501.985 889.938,-500.821 880.98,-495.164 879.408,-501.985"/>
</g>
<!-- Node18 -->
<g id="node18" class="node"><title>Node18</title>
<g id="a_node18"><a xlink:href="class_grid.html#a5e140affdf9653d8badf596f1f151908" target="_top" xlink:title="Grid::xMax">
<polygon fill="none" stroke="black" points="888.5,-456.5 888.5,-475.5 953.5,-475.5 953.5,-456.5 888.5,-456.5"/>
<text text-anchor="middle" x="921" y="-463.5" font-family="Helvetica,sans-Serif" font-size="10.00">Grid::xMax</text>
</a>
</g>
</g>
<!-- Node16&#45;&gt;Node18 -->
<g id="edge17" class="edge"><title>Node16&#45;&gt;Node18</title>
<path fill="none" stroke="midnightblue" d="M785.874,-418.573C795.221,-421.258 805.069,-424.433 814,-428 830.801,-434.711 833.168,-440.368 850,-447 859.043,-450.563 868.997,-453.705 878.49,-456.355"/>
<polygon fill="midnightblue" stroke="midnightblue" points="877.594,-459.739 888.158,-458.937 879.399,-452.976 877.594,-459.739"/>
</g>
<!-- Node19 -->
<g id="node19" class="node"><title>Node19</title>
<g id="a_node19"><a xlink:href="class_grid.html#a6acf01d876905d8709f4fb8ebe18aa94" target="_top" xlink:title="Grid::yMin">
<polygon fill="none" stroke="black" points="890,-418.5 890,-437.5 952,-437.5 952,-418.5 890,-418.5"/>
<text text-anchor="middle" x="921" y="-425.5" font-family="Helvetica,sans-Serif" font-size="10.00">Grid::yMin</text>
</a>
</g>
</g>
<!-- Node16&#45;&gt;Node19 -->
<g id="edge18" class="edge"><title>Node16&#45;&gt;Node19</title>
<path fill="none" stroke="midnightblue" d="M814.076,-416.4C836.337,-418.838 860.37,-421.47 879.908,-423.61"/>
<polygon fill="midnightblue" stroke="midnightblue" points="879.649,-427.102 889.97,-424.711 880.411,-420.144 879.649,-427.102"/>
</g>
<!-- Node20 -->
<g id="node20" class="node"><title>Node20</title>
<g id="a_node20"><a xlink:href="class_grid.html#abfa1a601742ca69a5ecc3b6a5318d7a8" target="_top" xlink:title="Grid::yMax">
<polygon fill="none" stroke="black" points="888.5,-380.5 888.5,-399.5 953.5,-399.5 953.5,-380.5 888.5,-380.5"/>
<text text-anchor="middle" x="921" y="-387.5" font-family="Helvetica,sans-Serif" font-size="10.00">Grid::yMax</text>
</a>
</g>
</g>
<!-- Node16&#45;&gt;Node20 -->
<g id="edge19" class="edge"><title>Node16&#45;&gt;Node20</title>
<path fill="none" stroke="midnightblue" d="M814.076,-401.6C835.592,-399.244 858.764,-396.706 877.932,-394.607"/>
<polygon fill="midnightblue" stroke="midnightblue" points="878.574,-398.058 888.133,-393.49 877.812,-391.099 878.574,-398.058"/>
</g>
<!-- Node22 -->
<g id="node22" class="node"><title>Node22</title>
<g id="a_node22"><a xlink:href="class_grid.html#a6b6af4fb2545b398b47794de576f15f5" target="_top" xlink:title="Test if a point is in the defined area of a track. ">
<polygon fill="none" stroke="black" points="877,-190.5 877,-209.5 965,-209.5 965,-190.5 877,-190.5"/>
<text text-anchor="middle" x="921" y="-197.5" font-family="Helvetica,sans-Serif" font-size="10.00">Grid::inFootPrint</text>
</a>
</g>
</g>
<!-- Node21&#45;&gt;Node22 -->
<g id="edge21" class="edge"><title>Node21&#45;&gt;Node22</title>
<path fill="none" stroke="midnightblue" d="M797.15,-200C818.995,-200 844.559,-200 866.692,-200"/>
<polygon fill="midnightblue" stroke="midnightblue" points="866.922,-203.5 876.922,-200 866.922,-196.5 866.922,-203.5"/>
</g>
<!-- Node23 -->
<g id="node23" class="node"><title>Node23</title>
<g id="a_node23"><a xlink:href="class_grid.html#a58233ab60f7477144af334f205606aa4" target="_top" xlink:title="Find max and min of the grid. ">
<polygon fill="none" stroke="black" points="877,-152.5 877,-171.5 965,-171.5 965,-152.5 877,-152.5"/>
<text text-anchor="middle" x="921" y="-159.5" font-family="Helvetica,sans-Serif" font-size="10.00">Grid::updateGrid</text>
</a>
</g>
</g>
<!-- Node21&#45;&gt;Node23 -->
<g id="edge22" class="edge"><title>Node21&#45;&gt;Node23</title>
<path fill="none" stroke="midnightblue" d="M790.281,-190.411C813.574,-185.309 842.396,-178.997 866.952,-173.618"/>
<polygon fill="midnightblue" stroke="midnightblue" points="867.814,-177.013 876.834,-171.454 866.316,-170.175 867.814,-177.013"/>
</g>
<!-- Node24 -->
<g id="node24" class="node"><title>Node24</title>
<g id="a_node24"><a xlink:href="class_grid.html#aba1830bc145f128d6deeed29cfb94c9f" target="_top" xlink:title="Creates a new road and inserts it in m_road. ">
<polygon fill="none" stroke="black" points="881,-114.5 881,-133.5 961,-133.5 961,-114.5 881,-114.5"/>
<text text-anchor="middle" x="921" y="-121.5" font-family="Helvetica,sans-Serif" font-size="10.00">Grid::addRoad</text>
</a>
</g>
</g>
<!-- Node21&#45;&gt;Node24 -->
<g id="edge23" class="edge"><title>Node21&#45;&gt;Node24</title>
<path fill="none" stroke="midnightblue" d="M793.264,-190.406C800.484,-187.928 807.643,-184.84 814,-181 833.913,-168.971 830.031,-154.936 850,-143 856.391,-139.18 863.563,-136.111 870.816,-133.65"/>
<polygon fill="midnightblue" stroke="midnightblue" points="872.134,-136.908 880.689,-130.658 870.104,-130.209 872.134,-136.908"/>
</g>
<!-- Node25 -->
<g id="node25" class="node"><title>Node25</title>
<g id="a_node25"><a xlink:href="class_point_road.html#aa1b90c3fdf8ae7a1fcd8ce6182d13287" target="_top" xlink:title="PointRoad::outputInfos">
<polygon fill="none" stroke="black" points="1050.5,-228.5 1050.5,-247.5 1167.5,-247.5 1167.5,-228.5 1050.5,-228.5"/>
<text text-anchor="middle" x="1109" y="-235.5" font-family="Helvetica,sans-Serif" font-size="10.00">PointRoad::outputInfos</text>
</a>
</g>
</g>
<!-- Node24&#45;&gt;Node25 -->
<g id="edge24" class="edge"><title>Node24&#45;&gt;Node25</title>
<path fill="none" stroke="midnightblue" d="M961.164,-128.432C972.076,-131.22 983.308,-135.727 992,-143 1020.66,-166.985 998.957,-195.475 1028,-219 1031.99,-222.23 1036.43,-224.928 1041.13,-227.179"/>
<polygon fill="midnightblue" stroke="midnightblue" points="1039.84,-230.431 1050.42,-230.98 1042.49,-223.953 1039.84,-230.431"/>
</g>
<!-- Node26 -->
<g id="node26" class="node"><title>Node26</title>
<g id="a_node26"><a xlink:href="class_point_road.html#ab53ccb3c883bdfd27c707901c5c658c8" target="_top" xlink:title="PointRoad::updateBelongToRoad">
<polygon fill="none" stroke="black" points="1028,-190.5 1028,-209.5 1190,-209.5 1190,-190.5 1028,-190.5"/>
<text text-anchor="middle" x="1109" y="-197.5" font-family="Helvetica,sans-Serif" font-size="10.00">PointRoad::updateBelongToRoad</text>
</a>
</g>
</g>
<!-- Node24&#45;&gt;Node26 -->
<g id="edge25" class="edge"><title>Node24&#45;&gt;Node26</title>
<path fill="none" stroke="midnightblue" d="M961.059,-131.095C971.502,-133.916 982.514,-137.775 992,-143 1011.01,-153.472 1009.13,-165.277 1028,-176 1035.96,-180.524 1044.87,-184.277 1053.76,-187.363"/>
<polygon fill="midnightblue" stroke="midnightblue" points="1052.77,-190.722 1063.36,-190.456 1054.92,-184.059 1052.77,-190.722"/>
</g>
<!-- Node27 -->
<g id="node27" class="node"><title>Node27</title>
<g id="a_node27"><a xlink:href="class_point_road.html#a998665db2d7e4fc4935ef95df092ff2b" target="_top" xlink:title="PointRoad::setid">
<polygon fill="none" stroke="black" points="1064.5,-114.5 1064.5,-133.5 1153.5,-133.5 1153.5,-114.5 1064.5,-114.5"/>
<text text-anchor="middle" x="1109" y="-121.5" font-family="Helvetica,sans-Serif" font-size="10.00">PointRoad::setid</text>
</a>
</g>
</g>
<!-- Node24&#45;&gt;Node27 -->
<g id="edge26" class="edge"><title>Node24&#45;&gt;Node27</title>
<path fill="none" stroke="midnightblue" d="M961.446,-124C988.441,-124 1024.57,-124 1054.2,-124"/>
<polygon fill="midnightblue" stroke="midnightblue" points="1054.38,-127.5 1064.38,-124 1054.38,-120.5 1054.38,-127.5"/>
</g>
<!-- Node28 -->
<g id="node28" class="node"><title>Node28</title>
<g id="a_node28"><a xlink:href="class_point_road.html#a81372f2c2c0fe1084fa2397289518124" target="_top" xlink:title="PointRoad::id">
<polygon fill="none" stroke="black" points="1226,-133.5 1226,-152.5 1302,-152.5 1302,-133.5 1226,-133.5"/>
<text text-anchor="middle" x="1264" y="-140.5" font-family="Helvetica,sans-Serif" font-size="10.00">PointRoad::id</text>
</a>
</g>
</g>
<!-- Node24&#45;&gt;Node28 -->
<g id="edge29" class="edge"><title>Node24&#45;&gt;Node28</title>
<path fill="none" stroke="midnightblue" d="M961.041,-132.707C980.965,-136.714 1005.65,-141.013 1028,-143 1092.93,-148.773 1168.35,-147.34 1215.88,-145.447"/>
<polygon fill="midnightblue" stroke="midnightblue" points="1216.03,-148.944 1225.87,-145.025 1215.73,-141.95 1216.03,-148.944"/>
</g>
<!-- Node29 -->
<g id="node29" class="node"><title>Node29</title>
<g id="a_node29"><a xlink:href="class_point_road.html#ae83941b37b026758fdd7974b4b186fbc" target="_top" xlink:title="PointRoad::isNode">
<polygon fill="none" stroke="black" points="1059.5,-76.5 1059.5,-95.5 1158.5,-95.5 1158.5,-76.5 1059.5,-76.5"/>
<text text-anchor="middle" x="1109" y="-83.5" font-family="Helvetica,sans-Serif" font-size="10.00">PointRoad::isNode</text>
</a>
</g>
</g>
<!-- Node24&#45;&gt;Node29 -->
<g id="edge28" class="edge"><title>Node24&#45;&gt;Node29</title>
<path fill="none" stroke="midnightblue" d="M961.446,-115.941C987.583,-110.601 1022.28,-103.512 1051.35,-97.5729"/>
<polygon fill="midnightblue" stroke="midnightblue" points="1052.28,-100.956 1061.38,-95.5246 1050.88,-94.0972 1052.28,-100.956"/>
</g>
<!-- Node30 -->
<g id="node30" class="node"><title>Node30</title>
<g id="a_node30"><a xlink:href="class_road.html#a7f97b4f20c598103baad510b19a0c0b5" target="_top" xlink:title="Add a point to the road. ">
<polygon fill="none" stroke="black" points="1067,-38.5 1067,-57.5 1151,-57.5 1151,-38.5 1067,-38.5"/>
<text text-anchor="middle" x="1109" y="-45.5" font-family="Helvetica,sans-Serif" font-size="10.00">Road::addPoint</text>
</a>
</g>
</g>
<!-- Node24&#45;&gt;Node30 -->
<g id="edge30" class="edge"><title>Node24&#45;&gt;Node30</title>
<path fill="none" stroke="midnightblue" d="M961.311,-117.342C971.754,-114.523 982.704,-110.556 992,-105 1011.97,-93.0642 1007.84,-78.6161 1028,-67 1036.81,-61.9215 1046.92,-58.1981 1056.91,-55.4689"/>
<polygon fill="midnightblue" stroke="midnightblue" points="1057.93,-58.8236 1066.82,-53.0578 1056.27,-52.0222 1057.93,-58.8236"/>
</g>
<!-- Node31 -->
<g id="node31" class="node"><title>Node31</title>
<g id="a_node31"><a xlink:href="class_road.html#ad6715392969e36eb10efac542519755c" target="_top" xlink:title="Get the id of the road. ">
<polygon fill="none" stroke="black" points="1071.5,-0.5 1071.5,-19.5 1146.5,-19.5 1146.5,-0.5 1071.5,-0.5"/>
<text text-anchor="middle" x="1109" y="-7.5" font-family="Helvetica,sans-Serif" font-size="10.00">Road::edgeId</text>
</a>
</g>
</g>
<!-- Node24&#45;&gt;Node31 -->
<g id="edge31" class="edge"><title>Node24&#45;&gt;Node31</title>
<path fill="none" stroke="midnightblue" d="M961.164,-119.568C972.076,-116.78 983.308,-112.273 992,-105 1020.66,-81.0155 998.957,-52.5248 1028,-29 1037.45,-21.3487 1049.46,-16.6853 1061.29,-13.8686"/>
<polygon fill="midnightblue" stroke="midnightblue" points="1062,-17.2967 1071.12,-11.9119 1060.63,-10.4313 1062,-17.2967"/>
</g>
<!-- Node27&#45;&gt;Node28 -->
<g id="edge27" class="edge"><title>Node27&#45;&gt;Node28</title>
<path fill="none" stroke="midnightblue" d="M1153.84,-129.445C1173.24,-131.854 1196.09,-134.691 1215.86,-137.146"/>
<polygon fill="midnightblue" stroke="midnightblue" points="1215.53,-140.631 1225.88,-138.391 1216.39,-133.685 1215.53,-140.631"/>
</g>
<!-- Node33&#45;&gt;Node17 -->
<g id="edge34" class="edge"><title>Node33&#45;&gt;Node17</title>
<path fill="none" stroke="midnightblue" d="M772.495,-361.505C786.429,-367.745 802.953,-377.151 814,-390 843.437,-424.238 816.559,-454.661 850,-485 858.198,-492.438 869.02,-497.008 879.697,-499.803"/>
<polygon fill="midnightblue" stroke="midnightblue" points="879.287,-503.295 889.799,-501.974 880.758,-496.451 879.287,-503.295"/>
</g>
<!-- Node33&#45;&gt;Node18 -->
<g id="edge36" class="edge"><title>Node33&#45;&gt;Node18</title>
<path fill="none" stroke="midnightblue" d="M769.613,-361.501C783.59,-368.048 801.134,-377.769 814,-390 835.716,-410.645 825.9,-429.196 850,-447 858.28,-453.117 868.41,-457.265 878.364,-460.077"/>
<polygon fill="midnightblue" stroke="midnightblue" points="877.641,-463.503 888.185,-462.468 879.297,-456.702 877.641,-463.503"/>
</g>
<!-- Node33&#45;&gt;Node19 -->
<g id="edge38" class="edge"><title>Node33&#45;&gt;Node19</title>
<path fill="none" stroke="midnightblue" d="M763.5,-361.653C790.527,-376.955 841.157,-405.425 850,-409 859.544,-412.859 870.131,-416.191 880.121,-418.938"/>
<polygon fill="midnightblue" stroke="midnightblue" points="879.291,-422.339 889.852,-421.49 881.066,-415.568 879.291,-422.339"/>
</g>
<!-- Node33&#45;&gt;Node20 -->
<g id="edge40" class="edge"><title>Node33&#45;&gt;Node20</title>
<path fill="none" stroke="midnightblue" d="M790.281,-361.589C817.342,-367.516 851.865,-375.077 878.492,-380.909"/>
<polygon fill="midnightblue" stroke="midnightblue" points="877.761,-384.332 888.278,-383.052 879.259,-377.494 877.761,-384.332"/>
</g>
<!-- Node34 -->
<g id="node34" class="node"><title>Node34</title>
<g id="a_node34"><a xlink:href="class_grid.html#aa96eed7a551f45aeee1068a289bd2a7b" target="_top" xlink:title="Grid::xMinGrid">
<polygon fill="none" stroke="black" points="881,-342.5 881,-361.5 961,-361.5 961,-342.5 881,-342.5"/>
<text text-anchor="middle" x="921" y="-349.5" font-family="Helvetica,sans-Serif" font-size="10.00">Grid::xMinGrid</text>
</a>
</g>
</g>
<!-- Node33&#45;&gt;Node34 -->
<g id="edge35" class="edge"><title>Node33&#45;&gt;Node34</title>
<path fill="none" stroke="midnightblue" d="M790.281,-352C814.809,-352 845.469,-352 870.822,-352"/>
<polygon fill="midnightblue" stroke="midnightblue" points="870.969,-355.5 880.969,-352 870.969,-348.5 870.969,-355.5"/>
</g>
<!-- Node35 -->
<g id="node35" class="node"><title>Node35</title>
<g id="a_node35"><a xlink:href="class_grid.html#aa3dd1e75998e6214c3ef33cdc5e02204" target="_top" xlink:title="Grid::xMaxGrid">
<polygon fill="none" stroke="black" points="879.5,-304.5 879.5,-323.5 962.5,-323.5 962.5,-304.5 879.5,-304.5"/>
<text text-anchor="middle" x="921" y="-311.5" font-family="Helvetica,sans-Serif" font-size="10.00">Grid::xMaxGrid</text>
</a>
</g>
</g>
<!-- Node33&#45;&gt;Node35 -->
<g id="edge37" class="edge"><title>Node33&#45;&gt;Node35</title>
<path fill="none" stroke="midnightblue" d="M790.281,-342.411C814.28,-337.155 844.148,-330.613 869.173,-325.132"/>
<polygon fill="midnightblue" stroke="midnightblue" points="870.193,-328.492 879.212,-322.933 868.695,-321.654 870.193,-328.492"/>
</g>
<!-- Node36 -->
<g id="node36" class="node"><title>Node36</title>
<g id="a_node36"><a xlink:href="class_grid.html#afa95de5fff735d1121572075a872121c" target="_top" xlink:title="Grid::yMinGrid">
<polygon fill="none" stroke="black" points="881,-266.5 881,-285.5 961,-285.5 961,-266.5 881,-266.5"/>
<text text-anchor="middle" x="921" y="-273.5" font-family="Helvetica,sans-Serif" font-size="10.00">Grid::yMinGrid</text>
</a>
</g>
</g>
<!-- Node33&#45;&gt;Node36 -->
<g id="edge39" class="edge"><title>Node33&#45;&gt;Node36</title>
<path fill="none" stroke="midnightblue" d="M761.369,-342.32C780.987,-329.904 816.909,-308.379 850,-295 856.742,-292.274 864.004,-289.811 871.209,-287.631"/>
<polygon fill="midnightblue" stroke="midnightblue" points="872.299,-290.96 880.944,-284.836 870.367,-284.232 872.299,-290.96"/>
</g>
<!-- Node37 -->
<g id="node37" class="node"><title>Node37</title>
<g id="a_node37"><a xlink:href="class_grid.html#a97ee4a72430770462f5e2ba140f2ca65" target="_top" xlink:title="Grid::yMaxGrid">
<polygon fill="none" stroke="black" points="879.5,-228.5 879.5,-247.5 962.5,-247.5 962.5,-228.5 879.5,-228.5"/>
<text text-anchor="middle" x="921" y="-235.5" font-family="Helvetica,sans-Serif" font-size="10.00">Grid::yMaxGrid</text>
</a>
</g>
</g>
<!-- Node33&#45;&gt;Node37 -->
<g id="edge41" class="edge"><title>Node33&#45;&gt;Node37</title>
<path fill="none" stroke="midnightblue" d="M754.234,-342.3C770.098,-323.063 808.348,-279.962 850,-257 856.076,-253.651 862.778,-250.863 869.557,-248.55"/>
<polygon fill="midnightblue" stroke="midnightblue" points="870.953,-251.782 879.478,-245.492 868.89,-245.093 870.953,-251.782"/>
</g>
<!-- Node39 -->
<g id="node39" class="node"><title>Node39</title>
<g id="a_node39"><a xlink:href="class_solver.html#af677644390b609a5f496fa2362099959" target="_top" xlink:title="filterSpace Use Spatial filter with a value ">
<polygon fill="none" stroke="black" points="544,-114.5 544,-133.5 641,-133.5 641,-114.5 544,-114.5"/>
<text text-anchor="middle" x="592.5" y="-121.5" font-family="Helvetica,sans-Serif" font-size="10.00">Solver::filterSpace</text>
</a>
</g>
</g>
<!-- Node38&#45;&gt;Node39 -->
<g id="edge43" class="edge"><title>Node38&#45;&gt;Node39</title>
<path fill="none" stroke="midnightblue" d="M494.919,-140.466C507.53,-138.316 520.94,-136.03 533.629,-133.867"/>
<polygon fill="midnightblue" stroke="midnightblue" points="534.351,-137.294 543.621,-132.163 533.175,-130.394 534.351,-137.294"/>
</g>
<!-- Node43 -->
<g id="node43" class="node"><title>Node43</title>
<g id="a_node43"><a xlink:href="class_solver.html#a95af3471a75ea1b9dc7051959c70b6e7" target="_top" xlink:title="filterTemp Use Temporal filter with a value ">
<polygon fill="none" stroke="black" points="545.5,-76.5 545.5,-95.5 639.5,-95.5 639.5,-76.5 545.5,-76.5"/>
<text text-anchor="middle" x="592.5" y="-83.5" font-family="Helvetica,sans-Serif" font-size="10.00">Solver::filterTemp</text>
</a>
</g>
</g>
<!-- Node38&#45;&gt;Node43 -->
<g id="edge47" class="edge"><title>Node38&#45;&gt;Node43</title>
<path fill="none" stroke="midnightblue" d="M482.924,-140.44C491.445,-137.885 500.157,-134.76 508,-131 525.797,-122.467 526.708,-114.514 544,-105 547.49,-103.08 551.214,-101.25 554.984,-99.5365"/>
<polygon fill="midnightblue" stroke="midnightblue" points="556.524,-102.685 564.342,-95.5349 553.771,-96.2487 556.524,-102.685"/>
</g>
<!-- Node40 -->
<g id="node40" class="node"><title>Node40</title>
<g id="a_node40"><a xlink:href="class_track.html#a9f1da7896167f44da967acf9fd05d92a" target="_top" xlink:title="This is a space filter, which deletes points depending on a distance interval. ">
<polygon fill="none" stroke="black" points="698,-114.5 698,-133.5 793,-133.5 793,-114.5 698,-114.5"/>
<text text-anchor="middle" x="745.5" y="-121.5" font-family="Helvetica,sans-Serif" font-size="10.00">Track::spaceFilter</text>
</a>
</g>
</g>
<!-- Node39&#45;&gt;Node40 -->
<g id="edge44" class="edge"><title>Node39&#45;&gt;Node40</title>
<path fill="none" stroke="midnightblue" d="M641.277,-124C655.95,-124 672.244,-124 687.471,-124"/>
<polygon fill="midnightblue" stroke="midnightblue" points="687.808,-127.5 697.808,-124 687.808,-120.5 687.808,-127.5"/>
</g>
<!-- Node42 -->
<g id="node42" class="node"><title>Node42</title>
<g id="a_node42"><a xlink:href="class_track.html#ad262a30c2abcd29cf4cdc04facd290ee" target="_top" xlink:title="Track::getPointsAsPointer">
<polygon fill="none" stroke="black" points="680,-76.5 680,-95.5 811,-95.5 811,-76.5 680,-76.5"/>
<text text-anchor="middle" x="745.5" y="-83.5" font-family="Helvetica,sans-Serif" font-size="10.00">Track::getPointsAsPointer</text>
</a>
</g>
</g>
<!-- Node39&#45;&gt;Node42 -->
<g id="edge46" class="edge"><title>Node39&#45;&gt;Node42</title>
<path fill="none" stroke="midnightblue" d="M631.604,-114.411C651.44,-109.419 675.884,-103.268 696.948,-97.9666"/>
<polygon fill="midnightblue" stroke="midnightblue" points="697.827,-101.355 706.67,-95.5201 696.118,-94.5664 697.827,-101.355"/>
</g>
<!-- Node41 -->
<g id="node41" class="node"><title>Node41</title>
<g id="a_node41"><a xlink:href="class_track.html#a0477b30aca07ba3f43b25d4c6ea782e0" target="_top" xlink:title="Deletes a occurence. ">
<polygon fill="none" stroke="black" points="869,-76.5 869,-95.5 973,-95.5 973,-76.5 869,-76.5"/>
<text text-anchor="middle" x="921" y="-83.5" font-family="Helvetica,sans-Serif" font-size="10.00">Track::delPointGPS</text>
</a>
</g>
</g>
<!-- Node40&#45;&gt;Node41 -->
<g id="edge45" class="edge"><title>Node40&#45;&gt;Node41</title>
<path fill="none" stroke="midnightblue" d="M790.281,-114.411C813.486,-109.329 842.178,-103.045 866.673,-97.6797"/>
<polygon fill="midnightblue" stroke="midnightblue" points="867.514,-101.079 876.533,-95.5201 866.016,-94.2407 867.514,-101.079"/>
</g>
<!-- Node43&#45;&gt;Node42 -->
<g id="edge50" class="edge"><title>Node43&#45;&gt;Node42</title>
<path fill="none" stroke="midnightblue" d="M639.625,-86C649.123,-86 659.354,-86 669.572,-86"/>
<polygon fill="midnightblue" stroke="midnightblue" points="669.757,-89.5001 679.757,-86 669.757,-82.5001 669.757,-89.5001"/>
</g>
<!-- Node44 -->
<g id="node44" class="node"><title>Node44</title>
<g id="a_node44"><a xlink:href="class_track.html#a58fcdaf47f2c87bb7095933616f5a4bc" target="_top" xlink:title="This is a temporal filter, which deletes points depending on a time value. ">
<polygon fill="none" stroke="black" points="692,-38.5 692,-57.5 799,-57.5 799,-38.5 692,-38.5"/>
<text text-anchor="middle" x="745.5" y="-45.5" font-family="Helvetica,sans-Serif" font-size="10.00">Track::temporalFilter</text>
</a>
</g>
</g>
<!-- Node43&#45;&gt;Node44 -->
<g id="edge48" class="edge"><title>Node43&#45;&gt;Node44</title>
<path fill="none" stroke="midnightblue" d="M631.604,-76.411C651.44,-71.4191 675.884,-65.2676 696.948,-59.9666"/>
<polygon fill="midnightblue" stroke="midnightblue" points="697.827,-63.3548 706.67,-57.5201 696.118,-56.5664 697.827,-63.3548"/>
</g>
<!-- Node45 -->
<g id="node45" class="node"><title>Node45</title>
<g id="a_node45"><a xlink:href="class_point_g_p_s.html#aa8a0cbf3cfbc3f4ac9d16737c00fcb88" target="_top" xlink:title="PointGPS::timeStamp">
<polygon fill="none" stroke="black" points="864.5,-38.5 864.5,-57.5 977.5,-57.5 977.5,-38.5 864.5,-38.5"/>
<text text-anchor="middle" x="921" y="-45.5" font-family="Helvetica,sans-Serif" font-size="10.00">PointGPS::timeStamp</text>
</a>
</g>
</g>
<!-- Node44&#45;&gt;Node45 -->
<g id="edge49" class="edge"><title>Node44&#45;&gt;Node45</title>
<path fill="none" stroke="midnightblue" d="M799.027,-48C816.366,-48 835.877,-48 854.087,-48"/>
<polygon fill="midnightblue" stroke="midnightblue" points="854.338,-51.5001 864.338,-48 854.338,-44.5001 854.338,-51.5001"/>
</g>
</g>
</svg>
