<?xml version="1.0" encoding="UTF-8" standalone="no"?>
<!DOCTYPE svg PUBLIC "-//W3C//DTD SVG 1.1//EN"
 "http://www.w3.org/Graphics/SVG/1.1/DTD/svg11.dtd">
<!-- Generated by graphviz version 2.38.0 (20140413.2041)
 -->
<!-- Title: Road Pages: 1 -->
<svg width="244pt" height="281pt"
 viewBox="0.00 0.00 244.00 281.00" xmlns="http://www.w3.org/2000/svg" xmlns:xlink="http://www.w3.org/1999/xlink">
<g id="graph0" class="graph" transform="scale(1 1) rotate(0) translate(4 277)">
<title>Road</title>
<!-- Node1 -->
<g id="node1" class="node"><title>Node1</title>
<polygon fill="#bfbfbf" stroke="black" points="43.5,-0.5 43.5,-167.5 156.5,-167.5 156.5,-0.5 43.5,-0.5"/>
<text text-anchor="middle" x="100" y="-155.5" font-family="Helvetica,sans-Serif" font-size="10.00">Road</text>
<polyline fill="none" stroke="black" points="43.5,-148.5 156.5,-148.5 "/>
<text text-anchor="start" x="51.5" y="-136.5" font-family="Helvetica,sans-Serif" font-size="10.00"># m_edgeId</text>
<polyline fill="none" stroke="black" points="43.5,-129.5 156.5,-129.5 "/>
<text text-anchor="start" x="51.5" y="-117.5" font-family="Helvetica,sans-Serif" font-size="10.00">+ addNeighbor()</text>
<text text-anchor="start" x="51.5" y="-106.5" font-family="Helvetica,sans-Serif" font-size="10.00">+ addPoint()</text>
<text text-anchor="start" x="51.5" y="-95.5" font-family="Helvetica,sans-Serif" font-size="10.00">+ edgeId()</text>
<text text-anchor="start" x="51.5" y="-84.5" font-family="Helvetica,sans-Serif" font-size="10.00">+ getListOfPoints()</text>
<text text-anchor="start" x="51.5" y="-73.5" font-family="Helvetica,sans-Serif" font-size="10.00">+ getm_edgeId()</text>
<text text-anchor="start" x="51.5" y="-62.5" font-family="Helvetica,sans-Serif" font-size="10.00">+ getNoOfNeighbors()</text>
<text text-anchor="start" x="51.5" y="-51.5" font-family="Helvetica,sans-Serif" font-size="10.00">+ outputInfos()</text>
<text text-anchor="start" x="51.5" y="-40.5" font-family="Helvetica,sans-Serif" font-size="10.00">+ Road()</text>
<text text-anchor="start" x="51.5" y="-29.5" font-family="Helvetica,sans-Serif" font-size="10.00">+ Road()</text>
<text text-anchor="start" x="51.5" y="-18.5" font-family="Helvetica,sans-Serif" font-size="10.00">+ vectorOfPointsId()</text>
<text text-anchor="start" x="51.5" y="-7.5" font-family="Helvetica,sans-Serif" font-size="10.00">+ ~Road()</text>
</g>
<!-- Node2 -->
<g id="node2" class="node"><title>Node2</title>
<polygon fill="none" stroke="#bfbfbf" points="0,-215.5 0,-272.5 86,-272.5 86,-215.5 0,-215.5"/>
<text text-anchor="middle" x="43" y="-260.5" font-family="Helvetica,sans-Serif" font-size="10.00">std::set&lt; long &gt;</text>
<polyline fill="none" stroke="#bfbfbf" points="0,-253.5 86,-253.5 "/>
<text text-anchor="start" x="8" y="-241.5" font-family="Helvetica,sans-Serif" font-size="10.00">+ keys</text>
<polyline fill="none" stroke="#bfbfbf" points="0,-234.5 86,-234.5 "/>
<text text-anchor="middle" x="43" y="-222.5" font-family="Helvetica,sans-Serif" font-size="10.00"> </text>
</g>
<!-- Node2&#45;&gt;Node1 -->
<g id="edge1" class="edge"><title>Node2&#45;&gt;Node1</title>
<path fill="none" stroke="#404040" d="M40.8027,-215.37C40.7535,-205.918 41.4887,-195.369 44,-186 44.6132,-183.712 45.2891,-181.421 46.0205,-179.131"/>
<polygon fill="none" stroke="#404040" points="46.0628,-179.012 44.3193,-172.015 50.1076,-167.715 51.8511,-174.712 46.0628,-179.012"/>
<text text-anchor="middle" x="89.5" y="-189" font-family="Helvetica,sans-Serif" font-size="10.00"> #m_setOfNeighbors</text>
</g>
<!-- Node3 -->
<g id="node3" class="node"><title>Node3</title>
<polygon fill="none" stroke="#bfbfbf" points="111,-215.5 111,-272.5 203,-272.5 203,-215.5 111,-215.5"/>
<text text-anchor="middle" x="157" y="-260.5" font-family="Helvetica,sans-Serif" font-size="10.00">std::vector&lt; int &gt;</text>
<polyline fill="none" stroke="#bfbfbf" points="111,-253.5 203,-253.5 "/>
<text text-anchor="start" x="119" y="-241.5" font-family="Helvetica,sans-Serif" font-size="10.00">+ elements</text>
<polyline fill="none" stroke="#bfbfbf" points="111,-234.5 203,-234.5 "/>
<text text-anchor="middle" x="157" y="-222.5" font-family="Helvetica,sans-Serif" font-size="10.00"> </text>
</g>
<!-- Node3&#45;&gt;Node1 -->
<g id="edge2" class="edge"><title>Node3&#45;&gt;Node1</title>
<path fill="none" stroke="#404040" d="M147.071,-215.479C143.259,-204.91 138.661,-192.165 133.852,-178.835"/>
<polygon fill="none" stroke="#404040" points="133.848,-178.824 128.049,-174.537 129.776,-167.536 135.574,-171.822 133.848,-178.824"/>
<text text-anchor="middle" x="188" y="-189" font-family="Helvetica,sans-Serif" font-size="10.00"> #m_vectorOfPointsId</text>
</g>
</g>
</svg>
