<?xml version="1.0" encoding="UTF-8" standalone="no"?>
<!DOCTYPE svg PUBLIC "-//W3C//DTD SVG 1.1//EN"
 "http://www.w3.org/Graphics/SVG/1.1/DTD/svg11.dtd">
<!-- Generated by graphviz version 2.38.0 (20140413.2041)
 -->
<!-- Title: Point::infos Pages: 1 -->
<svg width="518pt" height="104pt"
 viewBox="0.00 0.00 518.00 104.00" xmlns="http://www.w3.org/2000/svg" xmlns:xlink="http://www.w3.org/1999/xlink">
<g id="graph0" class="graph" transform="scale(1 1) rotate(0) translate(4 100)">
<title>Point::infos</title>
<!-- Node1 -->
<g id="node1" class="node"><title>Node1</title>
<polygon fill="#bfbfbf" stroke="black" points="0,-38.5 0,-57.5 66,-57.5 66,-38.5 0,-38.5"/>
<text text-anchor="middle" x="33" y="-45.5" font-family="Helvetica,sans-Serif" font-size="10.00">Point::infos</text>
</g>
<!-- Node2 -->
<g id="node2" class="node"><title>Node2</title>
<g id="a_node2"><a xlink:href="class_point.html#a364091762d6aa1aa5983d36fd7d8b6d5" target="_top" xlink:title="Point Class&#39;s Destructor. ">
<polygon fill="none" stroke="black" points="109.5,-76.5 109.5,-95.5 183.5,-95.5 183.5,-76.5 109.5,-76.5"/>
<text text-anchor="middle" x="146.5" y="-83.5" font-family="Helvetica,sans-Serif" font-size="10.00">Point::~Point</text>
</a>
</g>
</g>
<!-- Node1&#45;&gt;Node2 -->
<g id="edge1" class="edge"><title>Node1&#45;&gt;Node2</title>
<path fill="none" stroke="midnightblue" d="M71.634,-60.8259C86.5949,-65.9247 103.509,-71.6891 117.373,-76.4141"/>
<polygon fill="midnightblue" stroke="midnightblue" points="72.7306,-57.5021 62.1362,-57.589 70.4725,-64.1278 72.7306,-57.5021"/>
</g>
<!-- Node3 -->
<g id="node3" class="node"><title>Node3</title>
<g id="a_node3"><a xlink:href="class_point_g_p_s.html#a9a622f6883b721ee5f04f092a76ece64" target="_top" xlink:title="PointGPS::infos">
<polygon fill="none" stroke="black" points="103,-38.5 103,-57.5 190,-57.5 190,-38.5 103,-38.5"/>
<text text-anchor="middle" x="146.5" y="-45.5" font-family="Helvetica,sans-Serif" font-size="10.00">PointGPS::infos</text>
</a>
</g>
</g>
<!-- Node1&#45;&gt;Node3 -->
<g id="edge2" class="edge"><title>Node1&#45;&gt;Node3</title>
<path fill="none" stroke="midnightblue" d="M76.5234,-48C85.1786,-48 94.2851,-48 102.942,-48"/>
<polygon fill="midnightblue" stroke="midnightblue" points="76.2505,-44.5001 66.2504,-48 76.2504,-51.5001 76.2505,-44.5001"/>
</g>
<!-- Node7 -->
<g id="node7" class="node"><title>Node7</title>
<g id="a_node7"><a xlink:href="class_point_road.html#a10e2495cf2c6b435e23e8da80e7276e6" target="_top" xlink:title="PointRoad::infos">
<polygon fill="none" stroke="black" points="102,-0.5 102,-19.5 191,-19.5 191,-0.5 102,-0.5"/>
<text text-anchor="middle" x="146.5" y="-7.5" font-family="Helvetica,sans-Serif" font-size="10.00">PointRoad::infos</text>
</a>
</g>
</g>
<!-- Node1&#45;&gt;Node7 -->
<g id="edge6" class="edge"><title>Node1&#45;&gt;Node7</title>
<path fill="none" stroke="midnightblue" d="M71.634,-35.1741C86.5949,-30.0753 103.509,-24.3109 117.373,-19.5859"/>
<polygon fill="midnightblue" stroke="midnightblue" points="70.4725,-31.8722 62.1362,-38.411 72.7306,-38.4979 70.4725,-31.8722"/>
</g>
<!-- Node4 -->
<g id="node4" class="node"><title>Node4</title>
<g id="a_node4"><a xlink:href="class_point_g_p_s.html#ac547767bd05e353a545ceb4f4ac7d3c3" target="_top" xlink:title="PointGPS constructor Create a new Point GPS. ">
<polygon fill="none" stroke="black" points="227,-57.5 227,-76.5 337,-76.5 337,-57.5 227,-57.5"/>
<text text-anchor="middle" x="282" y="-64.5" font-family="Helvetica,sans-Serif" font-size="10.00">PointGPS::PointGPS</text>
</a>
</g>
</g>
<!-- Node3&#45;&gt;Node4 -->
<g id="edge3" class="edge"><title>Node3&#45;&gt;Node4</title>
<path fill="none" stroke="midnightblue" d="M200.123,-55.4894C208.818,-56.7269 217.848,-58.0121 226.586,-59.2557"/>
<polygon fill="midnightblue" stroke="midnightblue" points="200.501,-52.008 190.107,-54.064 199.514,-58.9381 200.501,-52.008"/>
</g>
<!-- Node5 -->
<g id="node5" class="node"><title>Node5</title>
<g id="a_node5"><a xlink:href="class_solver.html#ac93808d9f79208e9917830d0ff0a5dfd" target="_top" xlink:title="setDistance Calculate distance between GPS point et Road ">
<polygon fill="none" stroke="black" points="230.5,-19.5 230.5,-38.5 333.5,-38.5 333.5,-19.5 230.5,-19.5"/>
<text text-anchor="middle" x="282" y="-26.5" font-family="Helvetica,sans-Serif" font-size="10.00">Solver::setDistance</text>
</a>
</g>
</g>
<!-- Node3&#45;&gt;Node5 -->
<g id="edge4" class="edge"><title>Node3&#45;&gt;Node5</title>
<path fill="none" stroke="midnightblue" d="M200.257,-40.4915C210.185,-39.0786 220.545,-37.6041 230.404,-36.2009"/>
<polygon fill="midnightblue" stroke="midnightblue" points="199.514,-37.0619 190.107,-41.936 200.501,-43.992 199.514,-37.0619"/>
</g>
<!-- Node6 -->
<g id="node6" class="node"><title>Node6</title>
<g id="a_node6"><a xlink:href="class_solver.html#a2abdc34ec29d4301a7219375f6e5ec84" target="_top" xlink:title="Solver::onSignalNeighbours">
<polygon fill="none" stroke="black" points="373,-19.5 373,-38.5 510,-38.5 510,-19.5 373,-19.5"/>
<text text-anchor="middle" x="441.5" y="-26.5" font-family="Helvetica,sans-Serif" font-size="10.00">Solver::onSignalNeighbours</text>
</a>
</g>
</g>
<!-- Node5&#45;&gt;Node6 -->
<g id="edge5" class="edge"><title>Node5&#45;&gt;Node6</title>
<path fill="none" stroke="midnightblue" d="M343.863,-29C353.387,-29 363.28,-29 372.944,-29"/>
<polygon fill="midnightblue" stroke="midnightblue" points="343.701,-25.5001 333.701,-29 343.701,-32.5001 343.701,-25.5001"/>
</g>
</g>
</svg>
