<?xml version="1.0" encoding="UTF-8" standalone="no"?>
<!DOCTYPE svg PUBLIC "-//W3C//DTD SVG 1.1//EN"
 "http://www.w3.org/Graphics/SVG/1.1/DTD/svg11.dtd">
<!-- Generated by graphviz version 2.38.0 (20140413.2041)
 -->
<!-- Title: Solver::signalAllPoints Pages: 1 -->
<svg width="800pt" height="123pt"
 viewBox="0.00 0.00 800.00 123.00" xmlns="http://www.w3.org/2000/svg" xmlns:xlink="http://www.w3.org/1999/xlink">
<g id="graph0" class="graph" transform="scale(1 1) rotate(0) translate(4 119)">
<title>Solver::signalAllPoints</title>
<!-- Node1 -->
<g id="node1" class="node"><title>Node1</title>
<polygon fill="#bfbfbf" stroke="black" points="0,-38.5 0,-57.5 115,-57.5 115,-38.5 0,-38.5"/>
<text text-anchor="middle" x="57.5" y="-45.5" font-family="Helvetica,sans-Serif" font-size="10.00">Solver::signalAllPoints</text>
</g>
<!-- Node2 -->
<g id="node2" class="node"><title>Node2</title>
<g id="a_node2"><a xlink:href="class_solver.html#a97bc7169c18b339fecd4937150f907c3" target="_top" xlink:title="Solver::start">
<polygon fill="none" stroke="black" points="164.5,-76.5 164.5,-95.5 234.5,-95.5 234.5,-76.5 164.5,-76.5"/>
<text text-anchor="middle" x="199.5" y="-83.5" font-family="Helvetica,sans-Serif" font-size="10.00">Solver::start</text>
</a>
</g>
</g>
<!-- Node1&#45;&gt;Node2 -->
<g id="edge1" class="edge"><title>Node1&#45;&gt;Node2</title>
<path fill="none" stroke="midnightblue" d="M103.502,-60.2148C123.172,-65.5538 145.874,-71.7157 164.151,-76.6768"/>
<polygon fill="midnightblue" stroke="midnightblue" points="104.396,-56.8308 93.8279,-57.589 102.562,-63.5864 104.396,-56.8308"/>
</g>
<!-- Node6 -->
<g id="node6" class="node"><title>Node6</title>
<g id="a_node6"><a xlink:href="class_solver.html#af677644390b609a5f496fa2362099959" target="_top" xlink:title="filterSpace Use Spatial filter with a value ">
<polygon fill="none" stroke="black" points="151,-38.5 151,-57.5 248,-57.5 248,-38.5 151,-38.5"/>
<text text-anchor="middle" x="199.5" y="-45.5" font-family="Helvetica,sans-Serif" font-size="10.00">Solver::filterSpace</text>
</a>
</g>
</g>
<!-- Node1&#45;&gt;Node6 -->
<g id="edge5" class="edge"><title>Node1&#45;&gt;Node6</title>
<path fill="none" stroke="midnightblue" d="M125.124,-48C133.768,-48 142.48,-48 150.733,-48"/>
<polygon fill="midnightblue" stroke="midnightblue" points="125.04,-44.5001 115.04,-48 125.04,-51.5001 125.04,-44.5001"/>
</g>
<!-- Node10 -->
<g id="node10" class="node"><title>Node10</title>
<g id="a_node10"><a xlink:href="class_solver.html#a95af3471a75ea1b9dc7051959c70b6e7" target="_top" xlink:title="filterTemp Use Temporal filter with a value ">
<polygon fill="none" stroke="black" points="152.5,-0.5 152.5,-19.5 246.5,-19.5 246.5,-0.5 152.5,-0.5"/>
<text text-anchor="middle" x="199.5" y="-7.5" font-family="Helvetica,sans-Serif" font-size="10.00">Solver::filterTemp</text>
</a>
</g>
</g>
<!-- Node1&#45;&gt;Node10 -->
<g id="edge9" class="edge"><title>Node1&#45;&gt;Node10</title>
<path fill="none" stroke="midnightblue" d="M103.618,-35.7538C122.915,-30.516 145.112,-24.4909 163.183,-19.5859"/>
<polygon fill="midnightblue" stroke="midnightblue" points="102.562,-32.4136 93.8279,-38.411 104.396,-39.1692 102.562,-32.4136"/>
</g>
<!-- Node3 -->
<g id="node3" class="node"><title>Node3</title>
<g id="a_node3"><a xlink:href="main_8cpp.html#a9dd67c19acf7317c6296b63e29dcfab9" target="_top" xlink:title="dev_thread">
<polygon fill="none" stroke="black" points="321.5,-95.5 321.5,-114.5 386.5,-114.5 386.5,-95.5 321.5,-95.5"/>
<text text-anchor="middle" x="354" y="-102.5" font-family="Helvetica,sans-Serif" font-size="10.00">dev_thread</text>
</a>
</g>
</g>
<!-- Node2&#45;&gt;Node3 -->
<g id="edge2" class="edge"><title>Node2&#45;&gt;Node3</title>
<path fill="none" stroke="midnightblue" d="M244.877,-91.529C269.426,-94.5875 299.35,-98.3157 321.489,-101.074"/>
<polygon fill="midnightblue" stroke="midnightblue" points="245.08,-88.0273 234.724,-90.264 244.215,-94.9735 245.08,-88.0273"/>
</g>
<!-- Node5 -->
<g id="node5" class="node"><title>Node5</title>
<g id="a_node5"><a xlink:href="class_solver.html#a323c9c0407f26a2ed3ec3ff5ed02a760" target="_top" xlink:title="Solver::onSignalStart">
<polygon fill="none" stroke="black" points="299.5,-57.5 299.5,-76.5 408.5,-76.5 408.5,-57.5 299.5,-57.5"/>
<text text-anchor="middle" x="354" y="-64.5" font-family="Helvetica,sans-Serif" font-size="10.00">Solver::onSignalStart</text>
</a>
</g>
</g>
<!-- Node2&#45;&gt;Node5 -->
<g id="edge4" class="edge"><title>Node2&#45;&gt;Node5</title>
<path fill="none" stroke="midnightblue" d="M244.962,-80.4605C262.003,-78.3373 281.625,-75.8926 299.431,-73.6742"/>
<polygon fill="midnightblue" stroke="midnightblue" points="244.215,-77.0265 234.724,-81.736 245.08,-83.9727 244.215,-77.0265"/>
</g>
<!-- Node4 -->
<g id="node4" class="node"><title>Node4</title>
<g id="a_node4"><a xlink:href="main_8cpp.html#a0ddf1224851353fc92bfbff6f499fa97" target="_top" xlink:title="main">
<polygon fill="none" stroke="black" points="521.5,-95.5 521.5,-114.5 559.5,-114.5 559.5,-95.5 521.5,-95.5"/>
<text text-anchor="middle" x="540.5" y="-102.5" font-family="Helvetica,sans-Serif" font-size="10.00">main</text>
</a>
</g>
</g>
<!-- Node3&#45;&gt;Node4 -->
<g id="edge3" class="edge"><title>Node3&#45;&gt;Node4</title>
<path fill="none" stroke="midnightblue" d="M396.733,-105C435.774,-105 492.269,-105 521.087,-105"/>
<polygon fill="midnightblue" stroke="midnightblue" points="396.717,-101.5 386.717,-105 396.717,-108.5 396.717,-101.5"/>
</g>
<!-- Node7 -->
<g id="node7" class="node"><title>Node7</title>
<g id="a_node7"><a xlink:href="class_main_window.html#ae2500bf587f9630ce61d27ca231cfd7a" target="_top" xlink:title="readyToNext2 Pass informations ">
<polygon fill="none" stroke="black" points="284,-10.5 284,-29.5 424,-29.5 424,-10.5 284,-10.5"/>
<text text-anchor="middle" x="354" y="-17.5" font-family="Helvetica,sans-Serif" font-size="10.00">MainWindow::readyToNext2</text>
</a>
</g>
</g>
<!-- Node6&#45;&gt;Node7 -->
<g id="edge6" class="edge"><title>Node6&#45;&gt;Node7</title>
<path fill="none" stroke="midnightblue" d="M258.376,-37.3736C272.423,-34.7946 287.354,-32.0531 301.104,-29.5284"/>
<polygon fill="midnightblue" stroke="midnightblue" points="257.537,-33.969 248.334,-39.2174 258.801,-40.8539 257.537,-33.969"/>
</g>
<!-- Node8 -->
<g id="node8" class="node"><title>Node8</title>
<g id="a_node8"><a xlink:href="class_main_window.html#af773488e0b16efe6c0fc67ad348b86b2" target="_top" xlink:title="createConnections ">
<polygon fill="none" stroke="black" points="460,-10.5 460,-29.5 621,-29.5 621,-10.5 460,-10.5"/>
<text text-anchor="middle" x="540.5" y="-17.5" font-family="Helvetica,sans-Serif" font-size="10.00">MainWindow::createConnections</text>
</a>
</g>
</g>
<!-- Node7&#45;&gt;Node8 -->
<g id="edge7" class="edge"><title>Node7&#45;&gt;Node8</title>
<path fill="none" stroke="midnightblue" d="M434.446,-20C442.9,-20 451.501,-20 459.956,-20"/>
<polygon fill="midnightblue" stroke="midnightblue" points="434.226,-16.5001 424.226,-20 434.226,-23.5001 434.226,-16.5001"/>
</g>
<!-- Node9 -->
<g id="node9" class="node"><title>Node9</title>
<g id="a_node9"><a xlink:href="class_main_window.html#a8b244be8b7b7db1b08de2a2acb9409db" target="_top" xlink:title="MainWindow::MainWindow">
<polygon fill="none" stroke="black" points="657,-10.5 657,-29.5 792,-29.5 792,-10.5 657,-10.5"/>
<text text-anchor="middle" x="724.5" y="-17.5" font-family="Helvetica,sans-Serif" font-size="10.00">MainWindow::MainWindow</text>
</a>
</g>
</g>
<!-- Node8&#45;&gt;Node9 -->
<g id="edge8" class="edge"><title>Node8&#45;&gt;Node9</title>
<path fill="none" stroke="midnightblue" d="M631.196,-20C639.85,-20 648.52,-20 656.892,-20"/>
<polygon fill="midnightblue" stroke="midnightblue" points="631.063,-16.5001 621.063,-20 631.063,-23.5001 631.063,-16.5001"/>
</g>
<!-- Node10&#45;&gt;Node7 -->
<g id="edge10" class="edge"><title>Node10&#45;&gt;Node7</title>
<path fill="none" stroke="midnightblue" d="M256.819,-13.693C265.641,-14.2715 274.846,-14.8752 283.915,-15.4698"/>
<polygon fill="midnightblue" stroke="midnightblue" points="256.876,-10.1894 246.669,-13.0275 256.418,-17.1744 256.876,-10.1894"/>
</g>
</g>
</svg>
