<?xml version="1.0" encoding="UTF-8" standalone="no"?>
<!DOCTYPE svg PUBLIC "-//W3C//DTD SVG 1.1//EN"
 "http://www.w3.org/Graphics/SVG/1.1/DTD/svg11.dtd">
<!-- Generated by graphviz version 2.38.0 (20140413.2041)
 -->
<!-- Title: Track::applyThresholdToBox Pages: 1 -->
<!--zoomable 142 -->
<svg id="main" version="1.1" xmlns="http://www.w3.org/2000/svg" xmlns:xlink="http://www.w3.org/1999/xlink" xml:space="preserve" onload="init(evt)">
<style type="text/css"><![CDATA[
.edge:hover path { stroke: red; }
.edge:hover polygon { stroke: red; fill: red; }
]]></style>
<script type="text/javascript"><![CDATA[
var edges = document.getElementsByTagName('g');
if (edges && edges.length) {
  for (var i=0;i<edges.length;i++) {
    if (edges[i].id.substr(0,4)=='edge') {
      edges[i].setAttribute('class','edge');
    }
  }
}
]]></script>
        <defs>
                <circle id="rim" cx="0" cy="0" r="7"/>
                <circle id="rim2" cx="0" cy="0" r="3.5"/>
                <g id="zoomPlus">
                        <use xlink:href="#rim" fill="#404040">
                                <set attributeName="fill" to="#808080" begin="zoomplus.mouseover" end="zoomplus.mouseout"/>
                        </use>
                        <path d="M-4,0h8M0,-4v8" fill="none" stroke="white" stroke-width="1.5" pointer-events="none"/>
                </g>
                <g id="zoomMin">
                        <use xlink:href="#rim" fill="#404040">
                                <set attributeName="fill" to="#808080" begin="zoomminus.mouseover" end="zoomminus.mouseout"/>
                        </use>
                        <path d="M-4,0h8" fill="none" stroke="white" stroke-width="1.5" pointer-events="none"/>
                </g>
                <g id="dirArrow">
                        <path fill="none" stroke="white" stroke-width="1.5" d="M0,-3.0v7 M-2.5,-0.5L0,-3.0L2.5,-0.5"/>
                </g>
               <g id="resetDef">
                       <use xlink:href="#rim2" fill="#404040">
                               <set attributeName="fill" to="#808080" begin="reset.mouseover" end="reset.mouseout"/>
                       </use>
               </g>
        </defs>

<script type="text/javascript">
var viewWidth = 971;
var viewHeight = 142;
var sectionId = 'dynsection-4';
</script>
<script xlink:href="svgpan.js"/>
<svg id="graph" class="graph">
<g id="viewport">
<title>Track::applyThresholdToBox</title>
<!-- Node1 -->
<g id="node1" class="node"><title>Node1</title>
<polygon fill="#bfbfbf" stroke="black" points="0,-57.5 0,-76.5 142,-76.5 142,-57.5 0,-57.5"/>
<text text-anchor="middle" x="71" y="-64.5" font-family="Helvetica,sans-Serif" font-size="10.00">Track::applyThresholdToBox</text>
</g>
<!-- Node2 -->
<g id="node2" class="node"><title>Node2</title>
<g id="a_node2"><a xlink:href="class_track.html#aff258a8c303ee8a09a962d237f3823e7" target="_top" xlink:title="Reads a csv file and inserts each point in m_points vector. ">
<polygon fill="none" stroke="black" points="178,-57.5 178,-76.5 288,-76.5 288,-57.5 178,-57.5"/>
<text text-anchor="middle" x="233" y="-64.5" font-family="Helvetica,sans-Serif" font-size="10.00">Track::readFromCSV</text>
</a>
</g>
</g>
<!-- Node1&#45;&gt;Node2 -->
<g id="edge1" class="edge"><title>Node1&#45;&gt;Node2</title>
<path fill="none" stroke="midnightblue" d="M152.284,-67C160.912,-67 169.535,-67 177.753,-67"/>
<polygon fill="midnightblue" stroke="midnightblue" points="152.178,-63.5001 142.178,-67 152.178,-70.5001 152.178,-63.5001"/>
</g>
<!-- Node3 -->
<g id="node3" class="node"><title>Node3</title>
<g id="a_node3"><a xlink:href="class_filtering.html#ad96665ec38911625b6778741000fbfe2" target="_top" xlink:title="getInfo ">
<polygon fill="none" stroke="black" points="328,-114.5 328,-133.5 415,-133.5 415,-114.5 328,-114.5"/>
<text text-anchor="middle" x="371.5" y="-121.5" font-family="Helvetica,sans-Serif" font-size="10.00">Filtering::getInfo</text>
</a>
</g>
</g>
<!-- Node2&#45;&gt;Node3 -->
<g id="edge2" class="edge"><title>Node2&#45;&gt;Node3</title>
<path fill="none" stroke="midnightblue" d="M266.084,-80.6533C283.246,-87.9296 304.753,-97.0048 324,-105 331.409,-108.078 339.499,-111.397 346.822,-114.387"/>
<polygon fill="midnightblue" stroke="midnightblue" points="267.104,-77.284 256.532,-76.5988 264.369,-83.7277 267.104,-77.284"/>
</g>
<!-- Node4 -->
<g id="node4" class="node"><title>Node4</title>
<g id="a_node4"><a xlink:href="main_8cpp.html#a141063eccadf0e03662d414d897d9f5d" target="_top" xlink:title="dev_gridAndTrack">
<polygon fill="none" stroke="black" points="324,-76.5 324,-95.5 419,-95.5 419,-76.5 324,-76.5"/>
<text text-anchor="middle" x="371.5" y="-83.5" font-family="Helvetica,sans-Serif" font-size="10.00">dev_gridAndTrack</text>
</a>
</g>
</g>
<!-- Node2&#45;&gt;Node4 -->
<g id="edge3" class="edge"><title>Node2&#45;&gt;Node4</title>
<path fill="none" stroke="midnightblue" d="M298.355,-75.9579C306.947,-77.1538 315.621,-78.3611 323.83,-79.5038"/>
<polygon fill="midnightblue" stroke="midnightblue" points="298.728,-72.4761 288.341,-74.5639 297.763,-79.4092 298.728,-72.4761"/>
</g>
<!-- Node5 -->
<g id="node5" class="node"><title>Node5</title>
<g id="a_node5"><a xlink:href="class_solver.html#a97bc7169c18b339fecd4937150f907c3" target="_top" xlink:title="Solver::start">
<polygon fill="none" stroke="black" points="336.5,-38.5 336.5,-57.5 406.5,-57.5 406.5,-38.5 336.5,-38.5"/>
<text text-anchor="middle" x="371.5" y="-45.5" font-family="Helvetica,sans-Serif" font-size="10.00">Solver::start</text>
</a>
</g>
</g>
<!-- Node2&#45;&gt;Node5 -->
<g id="edge4" class="edge"><title>Node2&#45;&gt;Node5</title>
<path fill="none" stroke="midnightblue" d="M298.32,-58.047C311.462,-56.2177 324.799,-54.3613 336.373,-52.7503"/>
<polygon fill="midnightblue" stroke="midnightblue" points="297.763,-54.5908 288.341,-59.4361 298.728,-61.5239 297.763,-54.5908"/>
</g>
<!-- Node9 -->
<g id="node9" class="node"><title>Node9</title>
<g id="a_node9"><a xlink:href="class_solver.html#acbe7e47bcad48b8ddba95c9281c8bf23" target="_top" xlink:title="readFiles Read files : track and grid ">
<polygon fill="none" stroke="black" points="326.5,-0.5 326.5,-19.5 416.5,-19.5 416.5,-0.5 326.5,-0.5"/>
<text text-anchor="middle" x="371.5" y="-7.5" font-family="Helvetica,sans-Serif" font-size="10.00">Solver::readFiles</text>
</a>
</g>
</g>
<!-- Node2&#45;&gt;Node9 -->
<g id="edge8" class="edge"><title>Node2&#45;&gt;Node9</title>
<path fill="none" stroke="midnightblue" d="M266.084,-53.3467C283.246,-46.0704 304.753,-36.9952 324,-29 331.409,-25.9222 339.499,-22.6027 346.822,-19.6127"/>
<polygon fill="midnightblue" stroke="midnightblue" points="264.369,-50.2723 256.532,-57.4012 267.104,-56.716 264.369,-50.2723"/>
</g>
<!-- Node6 -->
<g id="node6" class="node"><title>Node6</title>
<g id="a_node6"><a xlink:href="main_8cpp.html#a9dd67c19acf7317c6296b63e29dcfab9" target="_top" xlink:title="dev_thread">
<polygon fill="none" stroke="black" points="492.5,-76.5 492.5,-95.5 557.5,-95.5 557.5,-76.5 492.5,-76.5"/>
<text text-anchor="middle" x="525" y="-83.5" font-family="Helvetica,sans-Serif" font-size="10.00">dev_thread</text>
</a>
</g>
</g>
<!-- Node5&#45;&gt;Node6 -->
<g id="edge5" class="edge"><title>Node5&#45;&gt;Node6</title>
<path fill="none" stroke="midnightblue" d="M416.894,-59.1352C441.093,-65.2049 470.477,-72.575 492.342,-78.0593"/>
<polygon fill="midnightblue" stroke="midnightblue" points="417.429,-55.6609 406.878,-56.6228 415.726,-62.4506 417.429,-55.6609"/>
</g>
<!-- Node8 -->
<g id="node8" class="node"><title>Node8</title>
<g id="a_node8"><a xlink:href="class_solver.html#a323c9c0407f26a2ed3ec3ff5ed02a760" target="_top" xlink:title="Solver::onSignalStart">
<polygon fill="none" stroke="black" points="470.5,-38.5 470.5,-57.5 579.5,-57.5 579.5,-38.5 470.5,-38.5"/>
<text text-anchor="middle" x="525" y="-45.5" font-family="Helvetica,sans-Serif" font-size="10.00">Solver::onSignalStart</text>
</a>
</g>
</g>
<!-- Node5&#45;&gt;Node8 -->
<g id="edge7" class="edge"><title>Node5&#45;&gt;Node8</title>
<path fill="none" stroke="midnightblue" d="M416.952,-48C433.706,-48 452.939,-48 470.439,-48"/>
<polygon fill="midnightblue" stroke="midnightblue" points="416.878,-44.5001 406.878,-48 416.878,-51.5001 416.878,-44.5001"/>
</g>
<!-- Node7 -->
<g id="node7" class="node"><title>Node7</title>
<g id="a_node7"><a xlink:href="main_8cpp.html#a0ddf1224851353fc92bfbff6f499fa97" target="_top" xlink:title="main">
<polygon fill="none" stroke="black" points="692.5,-76.5 692.5,-95.5 730.5,-95.5 730.5,-76.5 692.5,-76.5"/>
<text text-anchor="middle" x="711.5" y="-83.5" font-family="Helvetica,sans-Serif" font-size="10.00">main</text>
</a>
</g>
</g>
<!-- Node6&#45;&gt;Node7 -->
<g id="edge6" class="edge"><title>Node6&#45;&gt;Node7</title>
<path fill="none" stroke="midnightblue" d="M567.733,-86C606.774,-86 663.269,-86 692.087,-86"/>
<polygon fill="midnightblue" stroke="midnightblue" points="567.717,-82.5001 557.717,-86 567.717,-89.5001 567.717,-82.5001"/>
</g>
<!-- Node10 -->
<g id="node10" class="node"><title>Node10</title>
<g id="a_node10"><a xlink:href="class_main_window.html#ad39bbe8ced0d3248206ac0ca6c444d55" target="_top" xlink:title="readyToNext1 Pass informations ">
<polygon fill="none" stroke="black" points="455,-0.5 455,-19.5 595,-19.5 595,-0.5 455,-0.5"/>
<text text-anchor="middle" x="525" y="-7.5" font-family="Helvetica,sans-Serif" font-size="10.00">MainWindow::readyToNext1</text>
</a>
</g>
</g>
<!-- Node9&#45;&gt;Node10 -->
<g id="edge9" class="edge"><title>Node9&#45;&gt;Node10</title>
<path fill="none" stroke="midnightblue" d="M426.798,-10C435.915,-10 445.484,-10 454.915,-10"/>
<polygon fill="midnightblue" stroke="midnightblue" points="426.727,-6.5001 416.727,-10 426.727,-13.5001 426.727,-6.5001"/>
</g>
<!-- Node11 -->
<g id="node11" class="node"><title>Node11</title>
<g id="a_node11"><a xlink:href="class_main_window.html#af773488e0b16efe6c0fc67ad348b86b2" target="_top" xlink:title="createConnections ">
<polygon fill="none" stroke="black" points="631,-0.5 631,-19.5 792,-19.5 792,-0.5 631,-0.5"/>
<text text-anchor="middle" x="711.5" y="-7.5" font-family="Helvetica,sans-Serif" font-size="10.00">MainWindow::createConnections</text>
</a>
</g>
</g>
<!-- Node10&#45;&gt;Node11 -->
<g id="edge10" class="edge"><title>Node10&#45;&gt;Node11</title>
<path fill="none" stroke="midnightblue" d="M605.446,-10C613.9,-10 622.501,-10 630.956,-10"/>
<polygon fill="midnightblue" stroke="midnightblue" points="605.226,-6.5001 595.226,-10 605.226,-13.5001 605.226,-6.5001"/>
</g>
<!-- Node12 -->
<g id="node12" class="node"><title>Node12</title>
<g id="a_node12"><a xlink:href="class_main_window.html#a8b244be8b7b7db1b08de2a2acb9409db" target="_top" xlink:title="MainWindow::MainWindow">
<polygon fill="none" stroke="black" points="828,-0.5 828,-19.5 963,-19.5 963,-0.5 828,-0.5"/>
<text text-anchor="middle" x="895.5" y="-7.5" font-family="Helvetica,sans-Serif" font-size="10.00">MainWindow::MainWindow</text>
</a>
</g>
</g>
<!-- Node11&#45;&gt;Node12 -->
<g id="edge11" class="edge"><title>Node11&#45;&gt;Node12</title>
<path fill="none" stroke="midnightblue" d="M802.196,-10C810.85,-10 819.52,-10 827.892,-10"/>
<polygon fill="midnightblue" stroke="midnightblue" points="802.063,-6.5001 792.063,-10 802.063,-13.5001 802.063,-6.5001"/>
</g>
</g>
</svg>
        <g id="navigator" transform="translate(0 0)" fill="#404254">
                <rect fill="#f2f5e9" fill-opacity="0.5" stroke="#606060" stroke-width=".5" x="0" y="0" width="60" height="60"/>
                <use id="zoomplus" xlink:href="#zoomPlus" x="17" y="9" onmousedown="handleZoom(evt,'in')"/>
                <use id="zoomminus" xlink:href="#zoomMin" x="42" y="9" onmousedown="handleZoom(evt,'out')"/>
                <use id="reset" xlink:href="#resetDef" x="30" y="36" onmousedown="handleReset()"/>
                <g id="arrowUp" xlink:href="#dirArrow" transform="translate(30 24)" onmousedown="handlePan(0,-1)">
                  <use xlink:href="#rim" fill="#404040">
                        <set attributeName="fill" to="#808080" begin="arrowUp.mouseover" end="arrowUp.mouseout"/>
                  </use>
                  <path fill="none" stroke="white" stroke-width="1.5" d="M0,-3.0v7 M-2.5,-0.5L0,-3.0L2.5,-0.5"/>
                </g>
                <g id="arrowRight" xlink:href="#dirArrow" transform="rotate(90) translate(36 -43)" onmousedown="handlePan(1,0)">
                  <use xlink:href="#rim" fill="#404040">
                        <set attributeName="fill" to="#808080" begin="arrowRight.mouseover" end="arrowRight.mouseout"/>
                  </use>
                  <path fill="none" stroke="white" stroke-width="1.5" d="M0,-3.0v7 M-2.5,-0.5L0,-3.0L2.5,-0.5"/>
                </g>
                <g id="arrowDown" xlink:href="#dirArrow" transform="rotate(180) translate(-30 -48)" onmousedown="handlePan(0,1)">
                  <use xlink:href="#rim" fill="#404040">
                        <set attributeName="fill" to="#808080" begin="arrowDown.mouseover" end="arrowDown.mouseout"/>
                  </use>
                  <path fill="none" stroke="white" stroke-width="1.5" d="M0,-3.0v7 M-2.5,-0.5L0,-3.0L2.5,-0.5"/>
                </g>
                <g id="arrowLeft" xlink:href="#dirArrow" transform="rotate(270) translate(-36 17)" onmousedown="handlePan(-1,0)">
                  <use xlink:href="#rim" fill="#404040">
                        <set attributeName="fill" to="#808080" begin="arrowLeft.mouseover" end="arrowLeft.mouseout"/>
                  </use>
                  <path fill="none" stroke="white" stroke-width="1.5" d="M0,-3.0v7 M-2.5,-0.5L0,-3.0L2.5,-0.5"/>
                </g>
        </g>
        <svg viewBox="0 0 15 15" width="100%" height="30px" preserveAspectRatio="xMaxYMin meet">
         <g id="arrow_out" transform="scale(0.3 0.3)">
          <a xlink:href="class_track_aac5002af6aa69a20101a5709dbbebc82_icgraph_org.svg" target="_base">
           <rect id="button" ry="5" rx="5" y="6" x="6" height="38" width="38"
                fill="#f2f5e9" fill-opacity="0.5" stroke="#606060" stroke-width="1.0"/>
           <path id="arrow"
             d="M 11.500037,31.436501 C 11.940474,20.09759 22.043105,11.32322 32.158766,21.979434 L 37.068811,17.246167 C 37.068811,17.246167 37.088388,32 37.088388,32 L 22.160133,31.978069 C 22.160133,31.978069 26.997745,27.140456 26.997745,27.140456 C 18.528582,18.264221 13.291696,25.230495 11.500037,31.436501 z"
             style="fill:#404040;"/>
          </a>
         </g>
        </svg>
</svg>
