<?xml version="1.0" encoding="UTF-8" standalone="no"?>
<!DOCTYPE svg PUBLIC "-//W3C//DTD SVG 1.1//EN"
 "http://www.w3.org/Graphics/SVG/1.1/DTD/svg11.dtd">
<!-- Generated by graphviz version 2.38.0 (20140413.2041)
 -->
<!-- Title: Solver::viterbiSetup Pages: 1 -->
<svg width="258pt" height="66pt"
 viewBox="0.00 0.00 258.00 66.00" xmlns="http://www.w3.org/2000/svg" xmlns:xlink="http://www.w3.org/1999/xlink">
<g id="graph0" class="graph" transform="scale(1 1) rotate(0) translate(4 62)">
<title>Solver::viterbiSetup</title>
<!-- Node1 -->
<g id="node1" class="node"><title>Node1</title>
<polygon fill="#bfbfbf" stroke="black" points="0,-19.5 0,-38.5 102,-38.5 102,-19.5 0,-19.5"/>
<text text-anchor="middle" x="51" y="-26.5" font-family="Helvetica,sans-Serif" font-size="10.00">Solver::viterbiSetup</text>
</g>
<!-- Node2 -->
<g id="node2" class="node"><title>Node2</title>
<g id="a_node2"><a xlink:href="class_grid.html#aa0545cd5f236dced312b694dc768f137" target="_top" xlink:title="Getters. ">
<polygon fill="none" stroke="black" points="141,-38.5 141,-57.5 247,-57.5 247,-38.5 141,-38.5"/>
<text text-anchor="middle" x="194" y="-45.5" font-family="Helvetica,sans-Serif" font-size="10.00">Grid::getNoOfRoads</text>
</a>
</g>
</g>
<!-- Node1&#45;&gt;Node2 -->
<g id="edge1" class="edge"><title>Node1&#45;&gt;Node2</title>
<path fill="none" stroke="midnightblue" d="M102.108,-35.7522C111.293,-36.9898 120.982,-38.2955 130.477,-39.5749"/>
<polygon fill="midnightblue" stroke="midnightblue" points="130.291,-43.0814 140.669,-40.9483 131.226,-36.1441 130.291,-43.0814"/>
</g>
<!-- Node3 -->
<g id="node3" class="node"><title>Node3</title>
<g id="a_node3"><a xlink:href="class_track.html#aa16b233f5eaca258da5f00aca77e00f9" target="_top" xlink:title="Track::getNoOfPoints">
<polygon fill="none" stroke="black" points="138,-0.5 138,-19.5 250,-19.5 250,-0.5 138,-0.5"/>
<text text-anchor="middle" x="194" y="-7.5" font-family="Helvetica,sans-Serif" font-size="10.00">Track::getNoOfPoints</text>
</a>
</g>
</g>
<!-- Node1&#45;&gt;Node3 -->
<g id="edge2" class="edge"><title>Node1&#45;&gt;Node3</title>
<path fill="none" stroke="midnightblue" d="M102.108,-22.2478C110.415,-21.1285 119.134,-19.9535 127.749,-18.7927"/>
<polygon fill="midnightblue" stroke="midnightblue" points="128.339,-22.2449 137.782,-17.4407 127.404,-15.3076 128.339,-22.2449"/>
</g>
</g>
</svg>
