<?xml version="1.0" encoding="UTF-8" standalone="no"?>
<!DOCTYPE svg PUBLIC "-//W3C//DTD SVG 1.1//EN"
 "http://www.w3.org/Graphics/SVG/1.1/DTD/svg11.dtd">
<!-- Generated by graphviz version 2.38.0 (20140413.2041)
 -->
<!-- Title: Solver::start Pages: 1 -->
<svg width="733pt" height="313pt"
 viewBox="0.00 0.00 733.00 313.00" xmlns="http://www.w3.org/2000/svg" xmlns:xlink="http://www.w3.org/1999/xlink">
<g id="graph0" class="graph" transform="scale(1 1) rotate(0) translate(4 309)">
<title>Solver::start</title>
<!-- Node1 -->
<g id="node1" class="node"><title>Node1</title>
<polygon fill="#bfbfbf" stroke="black" points="0,-171.5 0,-190.5 70,-190.5 70,-171.5 0,-171.5"/>
<text text-anchor="middle" x="35" y="-178.5" font-family="Helvetica,sans-Serif" font-size="10.00">Solver::start</text>
</g>
<!-- Node2 -->
<g id="node2" class="node"><title>Node2</title>
<g id="a_node2"><a xlink:href="class_track.html#aff258a8c303ee8a09a962d237f3823e7" target="_top" xlink:title="Reads a csv file and inserts each point in m_points vector. ">
<polygon fill="none" stroke="black" points="116.5,-266.5 116.5,-285.5 226.5,-285.5 226.5,-266.5 116.5,-266.5"/>
<text text-anchor="middle" x="171.5" y="-273.5" font-family="Helvetica,sans-Serif" font-size="10.00">Track::readFromCSV</text>
</a>
</g>
</g>
<!-- Node1&#45;&gt;Node2 -->
<g id="edge1" class="edge"><title>Node1&#45;&gt;Node2</title>
<path fill="none" stroke="midnightblue" d="M42.3068,-190.726C53.2946,-206.896 77.5164,-239.282 106,-257 109.361,-259.091 112.963,-260.961 116.683,-262.632"/>
<polygon fill="midnightblue" stroke="midnightblue" points="115.52,-265.936 126.105,-266.39 118.113,-259.434 115.52,-265.936"/>
</g>
<!-- Node6 -->
<g id="node6" class="node"><title>Node6</title>
<g id="a_node6"><a xlink:href="class_track.html#ad262a30c2abcd29cf4cdc04facd290ee" target="_top" xlink:title="Track::getPointsAsPointer">
<polygon fill="none" stroke="black" points="106,-228.5 106,-247.5 237,-247.5 237,-228.5 106,-228.5"/>
<text text-anchor="middle" x="171.5" y="-235.5" font-family="Helvetica,sans-Serif" font-size="10.00">Track::getPointsAsPointer</text>
</a>
</g>
</g>
<!-- Node1&#45;&gt;Node6 -->
<g id="edge5" class="edge"><title>Node1&#45;&gt;Node6</title>
<path fill="none" stroke="midnightblue" d="M51.3808,-190.58C65.2626,-198.924 86.4472,-210.919 106,-219 111.529,-221.285 117.43,-223.417 123.331,-225.365"/>
<polygon fill="midnightblue" stroke="midnightblue" points="122.609,-228.807 133.198,-228.465 124.707,-222.128 122.609,-228.807"/>
</g>
<!-- Node7 -->
<g id="node7" class="node"><title>Node7</title>
<g id="a_node7"><a xlink:href="class_track.html#abf3b02de2c94d38c6a79b7c932aa6c5b" target="_top" xlink:title="Return a string containing information about the content of this object. ">
<polygon fill="none" stroke="black" points="137.5,-190.5 137.5,-209.5 205.5,-209.5 205.5,-190.5 137.5,-190.5"/>
<text text-anchor="middle" x="171.5" y="-197.5" font-family="Helvetica,sans-Serif" font-size="10.00">Track::infos</text>
</a>
</g>
</g>
<!-- Node1&#45;&gt;Node7 -->
<g id="edge6" class="edge"><title>Node1&#45;&gt;Node7</title>
<path fill="none" stroke="midnightblue" d="M70.288,-185.844C87.6247,-188.293 108.844,-191.29 127.286,-193.895"/>
<polygon fill="midnightblue" stroke="midnightblue" points="126.813,-197.363 137.204,-195.297 127.792,-190.432 126.813,-197.363"/>
</g>
<!-- Node8 -->
<g id="node8" class="node"><title>Node8</title>
<g id="a_node8"><a xlink:href="class_grid.html#ae848f1c59c544adc1af9133409ee0106" target="_top" xlink:title="Reads a csv file and inserts info into the corresponding attributs. ">
<polygon fill="none" stroke="black" points="120,-152.5 120,-171.5 223,-171.5 223,-152.5 120,-152.5"/>
<text text-anchor="middle" x="171.5" y="-159.5" font-family="Helvetica,sans-Serif" font-size="10.00">Grid::readFromCSV</text>
</a>
</g>
</g>
<!-- Node1&#45;&gt;Node8 -->
<g id="edge7" class="edge"><title>Node1&#45;&gt;Node8</title>
<path fill="none" stroke="midnightblue" d="M70.288,-176.156C82.2581,-174.465 96.0791,-172.513 109.559,-170.609"/>
<polygon fill="midnightblue" stroke="midnightblue" points="110.352,-174.032 119.764,-169.167 109.373,-167.1 110.352,-174.032"/>
</g>
<!-- Node19 -->
<g id="node19" class="node"><title>Node19</title>
<g id="a_node19"><a xlink:href="class_grid.html#a37103de283959ce994c5c76113b7b033" target="_top" xlink:title="Grid::infos">
<polygon fill="none" stroke="black" points="140.5,-114.5 140.5,-133.5 202.5,-133.5 202.5,-114.5 140.5,-114.5"/>
<text text-anchor="middle" x="171.5" y="-121.5" font-family="Helvetica,sans-Serif" font-size="10.00">Grid::infos</text>
</a>
</g>
</g>
<!-- Node1&#45;&gt;Node19 -->
<g id="edge19" class="edge"><title>Node1&#45;&gt;Node19</title>
<path fill="none" stroke="midnightblue" d="M51.3808,-171.42C65.2626,-163.076 86.4472,-151.081 106,-143 113.747,-139.798 122.222,-136.898 130.408,-134.382"/>
<polygon fill="midnightblue" stroke="midnightblue" points="131.574,-137.687 140.181,-131.509 129.6,-130.971 131.574,-137.687"/>
</g>
<!-- Node20 -->
<g id="node20" class="node"><title>Node20</title>
<g id="a_node20"><a xlink:href="class_grid.html#aea292f48c96b2e9d1abee08040cd3833" target="_top" xlink:title="buildMarkovMatrix ">
<polygon fill="none" stroke="black" points="111.5,-76.5 111.5,-95.5 231.5,-95.5 231.5,-76.5 111.5,-76.5"/>
<text text-anchor="middle" x="171.5" y="-83.5" font-family="Helvetica,sans-Serif" font-size="10.00">Grid::buildMarkovMatrix</text>
</a>
</g>
</g>
<!-- Node1&#45;&gt;Node20 -->
<g id="edge20" class="edge"><title>Node1&#45;&gt;Node20</title>
<path fill="none" stroke="midnightblue" d="M42.3068,-171.274C53.2946,-155.104 77.5164,-122.718 106,-105 109.361,-102.909 112.963,-101.039 116.683,-99.3678"/>
<polygon fill="midnightblue" stroke="midnightblue" points="118.113,-102.566 126.105,-95.6103 115.52,-96.0638 118.113,-102.566"/>
</g>
<!-- Node3 -->
<g id="node3" class="node"><title>Node3</title>
<g id="a_node3"><a xlink:href="class_track.html#ab0315e74b9b49e40d163a2ff978d833c" target="_top" xlink:title="Creates a new point and inserts it in m_points. ">
<polygon fill="none" stroke="black" points="301,-285.5 301,-304.5 387,-304.5 387,-285.5 301,-285.5"/>
<text text-anchor="middle" x="344" y="-292.5" font-family="Helvetica,sans-Serif" font-size="10.00">Track::addPoint</text>
</a>
</g>
</g>
<!-- Node2&#45;&gt;Node3 -->
<g id="edge2" class="edge"><title>Node2&#45;&gt;Node3</title>
<path fill="none" stroke="midnightblue" d="M226.916,-282.064C247.425,-284.349 270.687,-286.942 290.972,-289.202"/>
<polygon fill="midnightblue" stroke="midnightblue" points="290.646,-292.687 300.972,-290.317 291.421,-285.73 290.646,-292.687"/>
</g>
<!-- Node5 -->
<g id="node5" class="node"><title>Node5</title>
<g id="a_node5"><a xlink:href="class_track.html#aac5002af6aa69a20101a5709dbbebc82" target="_top" xlink:title="Apply a threshold to bounding box once the data file has been read. ">
<polygon fill="none" stroke="black" points="273,-247.5 273,-266.5 415,-266.5 415,-247.5 273,-247.5"/>
<text text-anchor="middle" x="344" y="-254.5" font-family="Helvetica,sans-Serif" font-size="10.00">Track::applyThresholdToBox</text>
</a>
</g>
</g>
<!-- Node2&#45;&gt;Node5 -->
<g id="edge4" class="edge"><title>Node2&#45;&gt;Node5</title>
<path fill="none" stroke="midnightblue" d="M226.916,-269.936C238.337,-268.663 250.611,-267.296 262.749,-265.943"/>
<polygon fill="midnightblue" stroke="midnightblue" points="263.341,-269.399 272.892,-264.813 262.566,-262.442 263.341,-269.399"/>
</g>
<!-- Node4 -->
<g id="node4" class="node"><title>Node4</title>
<g id="a_node4"><a xlink:href="class_track.html#af947410651d847174d7b18d8e9df9ca7" target="_top" xlink:title="Update the enclosing box of the track. ">
<polygon fill="none" stroke="black" points="485,-285.5 485,-304.5 579,-304.5 579,-285.5 485,-285.5"/>
<text text-anchor="middle" x="532" y="-292.5" font-family="Helvetica,sans-Serif" font-size="10.00">Track::updateBox</text>
</a>
</g>
</g>
<!-- Node3&#45;&gt;Node4 -->
<g id="edge3" class="edge"><title>Node3&#45;&gt;Node4</title>
<path fill="none" stroke="midnightblue" d="M387.206,-295C413.076,-295 446.51,-295 474.627,-295"/>
<polygon fill="midnightblue" stroke="midnightblue" points="474.722,-298.5 484.722,-295 474.722,-291.5 474.722,-298.5"/>
</g>
<!-- Node9 -->
<g id="node9" class="node"><title>Node9</title>
<g id="a_node9"><a xlink:href="class_grid.html#a6b6af4fb2545b398b47794de576f15f5" target="_top" xlink:title="Test if a point is in the defined area of a track. ">
<polygon fill="none" stroke="black" points="300,-190.5 300,-209.5 388,-209.5 388,-190.5 300,-190.5"/>
<text text-anchor="middle" x="344" y="-197.5" font-family="Helvetica,sans-Serif" font-size="10.00">Grid::inFootPrint</text>
</a>
</g>
</g>
<!-- Node8&#45;&gt;Node9 -->
<g id="edge8" class="edge"><title>Node8&#45;&gt;Node9</title>
<path fill="none" stroke="midnightblue" d="M215.524,-171.589C238.226,-176.649 266.273,-182.9 290.274,-188.249"/>
<polygon fill="midnightblue" stroke="midnightblue" points="289.763,-191.721 300.285,-190.48 291.286,-184.888 289.763,-191.721"/>
</g>
<!-- Node10 -->
<g id="node10" class="node"><title>Node10</title>
<g id="a_node10"><a xlink:href="class_grid.html#a58233ab60f7477144af334f205606aa4" target="_top" xlink:title="Find max and min of the grid. ">
<polygon fill="none" stroke="black" points="300,-152.5 300,-171.5 388,-171.5 388,-152.5 300,-152.5"/>
<text text-anchor="middle" x="344" y="-159.5" font-family="Helvetica,sans-Serif" font-size="10.00">Grid::updateGrid</text>
</a>
</g>
</g>
<!-- Node8&#45;&gt;Node10 -->
<g id="edge9" class="edge"><title>Node8&#45;&gt;Node10</title>
<path fill="none" stroke="midnightblue" d="M223.194,-162C244.199,-162 268.573,-162 289.831,-162"/>
<polygon fill="midnightblue" stroke="midnightblue" points="289.989,-165.5 299.989,-162 289.989,-158.5 289.989,-165.5"/>
</g>
<!-- Node11 -->
<g id="node11" class="node"><title>Node11</title>
<g id="a_node11"><a xlink:href="class_grid.html#aba1830bc145f128d6deeed29cfb94c9f" target="_top" xlink:title="Creates a new road and inserts it in m_road. ">
<polygon fill="none" stroke="black" points="304,-114.5 304,-133.5 384,-133.5 384,-114.5 304,-114.5"/>
<text text-anchor="middle" x="344" y="-121.5" font-family="Helvetica,sans-Serif" font-size="10.00">Grid::addRoad</text>
</a>
</g>
</g>
<!-- Node8&#45;&gt;Node11 -->
<g id="edge10" class="edge"><title>Node8&#45;&gt;Node11</title>
<path fill="none" stroke="midnightblue" d="M215.524,-152.411C239.368,-147.097 269.108,-140.469 293.864,-134.951"/>
<polygon fill="midnightblue" stroke="midnightblue" points="294.784,-138.332 303.784,-132.74 293.262,-131.5 294.784,-138.332"/>
</g>
<!-- Node12 -->
<g id="node12" class="node"><title>Node12</title>
<g id="a_node12"><a xlink:href="class_point_road.html#aa1b90c3fdf8ae7a1fcd8ce6182d13287" target="_top" xlink:title="PointRoad::outputInfos">
<polygon fill="none" stroke="black" points="473.5,-228.5 473.5,-247.5 590.5,-247.5 590.5,-228.5 473.5,-228.5"/>
<text text-anchor="middle" x="532" y="-235.5" font-family="Helvetica,sans-Serif" font-size="10.00">PointRoad::outputInfos</text>
</a>
</g>
</g>
<!-- Node11&#45;&gt;Node12 -->
<g id="edge11" class="edge"><title>Node11&#45;&gt;Node12</title>
<path fill="none" stroke="midnightblue" d="M384.164,-128.432C395.076,-131.22 406.308,-135.727 415,-143 443.665,-166.985 421.957,-195.475 451,-219 454.988,-222.23 459.434,-224.928 464.131,-227.179"/>
<polygon fill="midnightblue" stroke="midnightblue" points="462.836,-230.431 473.416,-230.98 465.487,-223.953 462.836,-230.431"/>
</g>
<!-- Node13 -->
<g id="node13" class="node"><title>Node13</title>
<g id="a_node13"><a xlink:href="class_point_road.html#ab53ccb3c883bdfd27c707901c5c658c8" target="_top" xlink:title="PointRoad::updateBelongToRoad">
<polygon fill="none" stroke="black" points="451,-190.5 451,-209.5 613,-209.5 613,-190.5 451,-190.5"/>
<text text-anchor="middle" x="532" y="-197.5" font-family="Helvetica,sans-Serif" font-size="10.00">PointRoad::updateBelongToRoad</text>
</a>
</g>
</g>
<!-- Node11&#45;&gt;Node13 -->
<g id="edge12" class="edge"><title>Node11&#45;&gt;Node13</title>
<path fill="none" stroke="midnightblue" d="M384.311,-130.658C394.754,-133.477 405.704,-137.444 415,-143 434.969,-154.936 430.843,-169.384 451,-181 454.861,-183.225 458.97,-185.19 463.21,-186.925"/>
<polygon fill="midnightblue" stroke="midnightblue" points="462.058,-190.231 472.652,-190.369 464.457,-183.655 462.058,-190.231"/>
</g>
<!-- Node14 -->
<g id="node14" class="node"><title>Node14</title>
<g id="a_node14"><a xlink:href="class_point_road.html#a998665db2d7e4fc4935ef95df092ff2b" target="_top" xlink:title="PointRoad::setid">
<polygon fill="none" stroke="black" points="487.5,-152.5 487.5,-171.5 576.5,-171.5 576.5,-152.5 487.5,-152.5"/>
<text text-anchor="middle" x="532" y="-159.5" font-family="Helvetica,sans-Serif" font-size="10.00">PointRoad::setid</text>
</a>
</g>
</g>
<!-- Node11&#45;&gt;Node14 -->
<g id="edge13" class="edge"><title>Node11&#45;&gt;Node14</title>
<path fill="none" stroke="midnightblue" d="M384.446,-132.059C411.441,-137.574 447.57,-144.955 477.2,-151.009"/>
<polygon fill="midnightblue" stroke="midnightblue" points="476.886,-154.517 487.384,-153.089 478.287,-147.658 476.886,-154.517"/>
</g>
<!-- Node15 -->
<g id="node15" class="node"><title>Node15</title>
<g id="a_node15"><a xlink:href="class_point_road.html#a81372f2c2c0fe1084fa2397289518124" target="_top" xlink:title="PointRoad::id">
<polygon fill="none" stroke="black" points="649,-133.5 649,-152.5 725,-152.5 725,-133.5 649,-133.5"/>
<text text-anchor="middle" x="687" y="-140.5" font-family="Helvetica,sans-Serif" font-size="10.00">PointRoad::id</text>
</a>
</g>
</g>
<!-- Node11&#45;&gt;Node15 -->
<g id="edge16" class="edge"><title>Node11&#45;&gt;Node15</title>
<path fill="none" stroke="midnightblue" d="M384.117,-126.18C447.053,-129.686 570.588,-136.569 638.491,-140.353"/>
<polygon fill="midnightblue" stroke="midnightblue" points="638.714,-143.871 648.894,-140.932 639.104,-136.881 638.714,-143.871"/>
</g>
<!-- Node16 -->
<g id="node16" class="node"><title>Node16</title>
<g id="a_node16"><a xlink:href="class_point_road.html#ae83941b37b026758fdd7974b4b186fbc" target="_top" xlink:title="PointRoad::isNode">
<polygon fill="none" stroke="black" points="482.5,-76.5 482.5,-95.5 581.5,-95.5 581.5,-76.5 482.5,-76.5"/>
<text text-anchor="middle" x="532" y="-83.5" font-family="Helvetica,sans-Serif" font-size="10.00">PointRoad::isNode</text>
</a>
</g>
</g>
<!-- Node11&#45;&gt;Node16 -->
<g id="edge15" class="edge"><title>Node11&#45;&gt;Node16</title>
<path fill="none" stroke="midnightblue" d="M384.446,-115.941C410.583,-110.601 445.281,-103.512 474.354,-97.5729"/>
<polygon fill="midnightblue" stroke="midnightblue" points="475.282,-100.956 484.379,-95.5246 473.881,-94.0972 475.282,-100.956"/>
</g>
<!-- Node17 -->
<g id="node17" class="node"><title>Node17</title>
<g id="a_node17"><a xlink:href="class_road.html#a7f97b4f20c598103baad510b19a0c0b5" target="_top" xlink:title="Add a point to the road. ">
<polygon fill="none" stroke="black" points="490,-38.5 490,-57.5 574,-57.5 574,-38.5 490,-38.5"/>
<text text-anchor="middle" x="532" y="-45.5" font-family="Helvetica,sans-Serif" font-size="10.00">Road::addPoint</text>
</a>
</g>
</g>
<!-- Node11&#45;&gt;Node17 -->
<g id="edge17" class="edge"><title>Node11&#45;&gt;Node17</title>
<path fill="none" stroke="midnightblue" d="M384.311,-117.342C394.754,-114.523 405.704,-110.556 415,-105 434.969,-93.0642 430.843,-78.6161 451,-67 459.812,-61.9215 469.917,-58.1981 479.911,-55.4689"/>
<polygon fill="midnightblue" stroke="midnightblue" points="480.928,-58.8236 489.816,-53.0578 479.272,-52.0222 480.928,-58.8236"/>
</g>
<!-- Node18 -->
<g id="node18" class="node"><title>Node18</title>
<g id="a_node18"><a xlink:href="class_road.html#ad6715392969e36eb10efac542519755c" target="_top" xlink:title="Get the id of the road. ">
<polygon fill="none" stroke="black" points="494.5,-0.5 494.5,-19.5 569.5,-19.5 569.5,-0.5 494.5,-0.5"/>
<text text-anchor="middle" x="532" y="-7.5" font-family="Helvetica,sans-Serif" font-size="10.00">Road::edgeId</text>
</a>
</g>
</g>
<!-- Node11&#45;&gt;Node18 -->
<g id="edge18" class="edge"><title>Node11&#45;&gt;Node18</title>
<path fill="none" stroke="midnightblue" d="M384.164,-119.568C395.076,-116.78 406.308,-112.273 415,-105 443.665,-81.0155 421.957,-52.5248 451,-29 460.446,-21.3487 472.46,-16.6853 484.288,-13.8686"/>
<polygon fill="midnightblue" stroke="midnightblue" points="484.995,-17.2967 494.12,-11.9119 483.629,-10.4313 484.995,-17.2967"/>
</g>
<!-- Node14&#45;&gt;Node15 -->
<g id="edge14" class="edge"><title>Node14&#45;&gt;Node15</title>
<path fill="none" stroke="midnightblue" d="M576.844,-156.555C596.244,-154.146 619.094,-151.309 638.861,-148.854"/>
<polygon fill="midnightblue" stroke="midnightblue" points="639.39,-152.315 648.882,-147.609 638.527,-145.369 639.39,-152.315"/>
</g>
<!-- Node21 -->
<g id="node21" class="node"><title>Node21</title>
<g id="a_node21"><a xlink:href="class_grid.html#a54c76e927f8428bca87520d8ca310bec" target="_top" xlink:title="Grid::getRoadEntry">
<polygon fill="none" stroke="black" points="293.5,-76.5 293.5,-95.5 394.5,-95.5 394.5,-76.5 293.5,-76.5"/>
<text text-anchor="middle" x="344" y="-83.5" font-family="Helvetica,sans-Serif" font-size="10.00">Grid::getRoadEntry</text>
</a>
</g>
</g>
<!-- Node20&#45;&gt;Node21 -->
<g id="edge21" class="edge"><title>Node20&#45;&gt;Node21</title>
<path fill="none" stroke="midnightblue" d="M231.654,-86C248.301,-86 266.417,-86 283.106,-86"/>
<polygon fill="midnightblue" stroke="midnightblue" points="283.288,-89.5001 293.288,-86 283.288,-82.5001 283.288,-89.5001"/>
</g>
</g>
</svg>
