<?xml version="1.0" encoding="UTF-8" standalone="no"?>
<!DOCTYPE svg PUBLIC "-//W3C//DTD SVG 1.1//EN"
 "http://www.w3.org/Graphics/SVG/1.1/DTD/svg11.dtd">
<!-- Generated by graphviz version 2.38.0 (20140413.2041)
 -->
<!-- Title: Grid::inFootPrint Pages: 1 -->
<svg width="910pt" height="142pt"
 viewBox="0.00 0.00 910.00 142.00" xmlns="http://www.w3.org/2000/svg" xmlns:xlink="http://www.w3.org/1999/xlink">
<g id="graph0" class="graph" transform="scale(1 1) rotate(0) translate(4 138)">
<title>Grid::inFootPrint</title>
<!-- Node1 -->
<g id="node1" class="node"><title>Node1</title>
<polygon fill="#bfbfbf" stroke="black" points="0,-57.5 0,-76.5 88,-76.5 88,-57.5 0,-57.5"/>
<text text-anchor="middle" x="44" y="-64.5" font-family="Helvetica,sans-Serif" font-size="10.00">Grid::inFootPrint</text>
</g>
<!-- Node2 -->
<g id="node2" class="node"><title>Node2</title>
<g id="a_node2"><a xlink:href="class_grid.html#ae848f1c59c544adc1af9133409ee0106" target="_top" xlink:title="Reads a csv file and inserts info into the corresponding attributs. ">
<polygon fill="none" stroke="black" points="124,-57.5 124,-76.5 227,-76.5 227,-57.5 124,-57.5"/>
<text text-anchor="middle" x="175.5" y="-64.5" font-family="Helvetica,sans-Serif" font-size="10.00">Grid::readFromCSV</text>
</a>
</g>
</g>
<!-- Node1&#45;&gt;Node2 -->
<g id="edge1" class="edge"><title>Node1&#45;&gt;Node2</title>
<path fill="none" stroke="midnightblue" d="M98.2912,-67C106.772,-67 115.524,-67 123.939,-67"/>
<polygon fill="midnightblue" stroke="midnightblue" points="98.1217,-63.5001 88.1216,-67 98.1216,-70.5001 98.1217,-63.5001"/>
</g>
<!-- Node3 -->
<g id="node3" class="node"><title>Node3</title>
<g id="a_node3"><a xlink:href="main_8cpp.html#a640261e473790d1a87c2f33332460793" target="_top" xlink:title="dev_grid">
<polygon fill="none" stroke="black" points="284,-114.5 284,-133.5 337,-133.5 337,-114.5 284,-114.5"/>
<text text-anchor="middle" x="310.5" y="-121.5" font-family="Helvetica,sans-Serif" font-size="10.00">dev_grid</text>
</a>
</g>
</g>
<!-- Node2&#45;&gt;Node3 -->
<g id="edge2" class="edge"><title>Node2&#45;&gt;Node3</title>
<path fill="none" stroke="midnightblue" d="M206.953,-80.6093C223.489,-87.9404 244.316,-97.0805 263,-105 270.387,-108.131 278.47,-111.466 285.795,-114.453"/>
<polygon fill="midnightblue" stroke="midnightblue" points="208.322,-77.3874 197.762,-76.5247 205.479,-83.7842 208.322,-77.3874"/>
</g>
<!-- Node4 -->
<g id="node4" class="node"><title>Node4</title>
<g id="a_node4"><a xlink:href="main_8cpp.html#a141063eccadf0e03662d414d897d9f5d" target="_top" xlink:title="dev_gridAndTrack">
<polygon fill="none" stroke="black" points="263,-76.5 263,-95.5 358,-95.5 358,-76.5 263,-76.5"/>
<text text-anchor="middle" x="310.5" y="-83.5" font-family="Helvetica,sans-Serif" font-size="10.00">dev_gridAndTrack</text>
</a>
</g>
</g>
<!-- Node2&#45;&gt;Node4 -->
<g id="edge3" class="edge"><title>Node2&#45;&gt;Node4</title>
<path fill="none" stroke="midnightblue" d="M237.202,-75.6717C245.837,-76.9053 254.604,-78.1577 262.913,-79.3447"/>
<polygon fill="midnightblue" stroke="midnightblue" points="237.556,-72.1868 227.161,-74.2373 236.565,-79.1164 237.556,-72.1868"/>
</g>
<!-- Node5 -->
<g id="node5" class="node"><title>Node5</title>
<g id="a_node5"><a xlink:href="class_solver.html#a97bc7169c18b339fecd4937150f907c3" target="_top" xlink:title="Solver::start">
<polygon fill="none" stroke="black" points="275.5,-38.5 275.5,-57.5 345.5,-57.5 345.5,-38.5 275.5,-38.5"/>
<text text-anchor="middle" x="310.5" y="-45.5" font-family="Helvetica,sans-Serif" font-size="10.00">Solver::start</text>
</a>
</g>
</g>
<!-- Node2&#45;&gt;Node5 -->
<g id="edge4" class="edge"><title>Node2&#45;&gt;Node5</title>
<path fill="none" stroke="midnightblue" d="M237.132,-58.3383C250.294,-56.4579 263.766,-54.5334 275.462,-52.8625"/>
<polygon fill="midnightblue" stroke="midnightblue" points="236.565,-54.8836 227.161,-59.7627 237.556,-61.8132 236.565,-54.8836"/>
</g>
<!-- Node9 -->
<g id="node9" class="node"><title>Node9</title>
<g id="a_node9"><a xlink:href="class_solver.html#acbe7e47bcad48b8ddba95c9281c8bf23" target="_top" xlink:title="Solver::readFiles">
<polygon fill="none" stroke="black" points="265.5,-0.5 265.5,-19.5 355.5,-19.5 355.5,-0.5 265.5,-0.5"/>
<text text-anchor="middle" x="310.5" y="-7.5" font-family="Helvetica,sans-Serif" font-size="10.00">Solver::readFiles</text>
</a>
</g>
</g>
<!-- Node2&#45;&gt;Node9 -->
<g id="edge8" class="edge"><title>Node2&#45;&gt;Node9</title>
<path fill="none" stroke="midnightblue" d="M206.953,-53.3907C223.489,-46.0596 244.316,-36.9195 263,-29 270.387,-25.8689 278.47,-22.5344 285.795,-19.5471"/>
<polygon fill="midnightblue" stroke="midnightblue" points="205.479,-50.2158 197.762,-57.4753 208.322,-56.6126 205.479,-50.2158"/>
</g>
<!-- Node6 -->
<g id="node6" class="node"><title>Node6</title>
<g id="a_node6"><a xlink:href="main_8cpp.html#a9dd67c19acf7317c6296b63e29dcfab9" target="_top" xlink:title="dev_thread">
<polygon fill="none" stroke="black" points="431.5,-76.5 431.5,-95.5 496.5,-95.5 496.5,-76.5 431.5,-76.5"/>
<text text-anchor="middle" x="464" y="-83.5" font-family="Helvetica,sans-Serif" font-size="10.00">dev_thread</text>
</a>
</g>
</g>
<!-- Node5&#45;&gt;Node6 -->
<g id="edge5" class="edge"><title>Node5&#45;&gt;Node6</title>
<path fill="none" stroke="midnightblue" d="M355.894,-59.1352C380.093,-65.2049 409.477,-72.575 431.342,-78.0593"/>
<polygon fill="midnightblue" stroke="midnightblue" points="356.429,-55.6609 345.878,-56.6228 354.726,-62.4506 356.429,-55.6609"/>
</g>
<!-- Node8 -->
<g id="node8" class="node"><title>Node8</title>
<g id="a_node8"><a xlink:href="class_solver.html#a323c9c0407f26a2ed3ec3ff5ed02a760" target="_top" xlink:title="Solver::onSignalStart">
<polygon fill="none" stroke="black" points="409.5,-38.5 409.5,-57.5 518.5,-57.5 518.5,-38.5 409.5,-38.5"/>
<text text-anchor="middle" x="464" y="-45.5" font-family="Helvetica,sans-Serif" font-size="10.00">Solver::onSignalStart</text>
</a>
</g>
</g>
<!-- Node5&#45;&gt;Node8 -->
<g id="edge7" class="edge"><title>Node5&#45;&gt;Node8</title>
<path fill="none" stroke="midnightblue" d="M355.952,-48C372.706,-48 391.939,-48 409.439,-48"/>
<polygon fill="midnightblue" stroke="midnightblue" points="355.878,-44.5001 345.878,-48 355.878,-51.5001 355.878,-44.5001"/>
</g>
<!-- Node7 -->
<g id="node7" class="node"><title>Node7</title>
<g id="a_node7"><a xlink:href="main_8cpp.html#a0ddf1224851353fc92bfbff6f499fa97" target="_top" xlink:title="main">
<polygon fill="none" stroke="black" points="631.5,-76.5 631.5,-95.5 669.5,-95.5 669.5,-76.5 631.5,-76.5"/>
<text text-anchor="middle" x="650.5" y="-83.5" font-family="Helvetica,sans-Serif" font-size="10.00">main</text>
</a>
</g>
</g>
<!-- Node6&#45;&gt;Node7 -->
<g id="edge6" class="edge"><title>Node6&#45;&gt;Node7</title>
<path fill="none" stroke="midnightblue" d="M506.733,-86C545.774,-86 602.269,-86 631.087,-86"/>
<polygon fill="midnightblue" stroke="midnightblue" points="506.717,-82.5001 496.717,-86 506.717,-89.5001 506.717,-82.5001"/>
</g>
<!-- Node10 -->
<g id="node10" class="node"><title>Node10</title>
<g id="a_node10"><a xlink:href="class_main_window.html#ad39bbe8ced0d3248206ac0ca6c444d55" target="_top" xlink:title="MainWindow::readyToNext1">
<polygon fill="none" stroke="black" points="394,-0.5 394,-19.5 534,-19.5 534,-0.5 394,-0.5"/>
<text text-anchor="middle" x="464" y="-7.5" font-family="Helvetica,sans-Serif" font-size="10.00">MainWindow::readyToNext1</text>
</a>
</g>
</g>
<!-- Node9&#45;&gt;Node10 -->
<g id="edge9" class="edge"><title>Node9&#45;&gt;Node10</title>
<path fill="none" stroke="midnightblue" d="M365.798,-10C374.915,-10 384.484,-10 393.915,-10"/>
<polygon fill="midnightblue" stroke="midnightblue" points="365.727,-6.5001 355.727,-10 365.727,-13.5001 365.727,-6.5001"/>
</g>
<!-- Node11 -->
<g id="node11" class="node"><title>Node11</title>
<g id="a_node11"><a xlink:href="class_main_window.html#af773488e0b16efe6c0fc67ad348b86b2" target="_top" xlink:title="MainWindow::createConnections">
<polygon fill="none" stroke="black" points="570,-0.5 570,-19.5 731,-19.5 731,-0.5 570,-0.5"/>
<text text-anchor="middle" x="650.5" y="-7.5" font-family="Helvetica,sans-Serif" font-size="10.00">MainWindow::createConnections</text>
</a>
</g>
</g>
<!-- Node10&#45;&gt;Node11 -->
<g id="edge10" class="edge"><title>Node10&#45;&gt;Node11</title>
<path fill="none" stroke="midnightblue" d="M544.446,-10C552.9,-10 561.501,-10 569.956,-10"/>
<polygon fill="midnightblue" stroke="midnightblue" points="544.226,-6.5001 534.226,-10 544.226,-13.5001 544.226,-6.5001"/>
</g>
<!-- Node12 -->
<g id="node12" class="node"><title>Node12</title>
<g id="a_node12"><a xlink:href="class_main_window.html#a8b244be8b7b7db1b08de2a2acb9409db" target="_top" xlink:title="MainWindow::MainWindow">
<polygon fill="none" stroke="black" points="767,-0.5 767,-19.5 902,-19.5 902,-0.5 767,-0.5"/>
<text text-anchor="middle" x="834.5" y="-7.5" font-family="Helvetica,sans-Serif" font-size="10.00">MainWindow::MainWindow</text>
</a>
</g>
</g>
<!-- Node11&#45;&gt;Node12 -->
<g id="edge11" class="edge"><title>Node11&#45;&gt;Node12</title>
<path fill="none" stroke="midnightblue" d="M741.196,-10C749.85,-10 758.52,-10 766.892,-10"/>
<polygon fill="midnightblue" stroke="midnightblue" points="741.063,-6.5001 731.063,-10 741.063,-13.5001 741.063,-6.5001"/>
</g>
</g>
</svg>
