<?xml version="1.0" encoding="UTF-8" standalone="no"?>
<!DOCTYPE svg PUBLIC "-//W3C//DTD SVG 1.1//EN"
 "http://www.w3.org/Graphics/SVG/1.1/DTD/svg11.dtd">
<!-- Generated by graphviz version 2.38.0 (20140413.2041)
 -->
<!-- Title: PointRoad::isNode Pages: 1 -->
<!--zoomable 104 -->
<svg id="main" version="1.1" xmlns="http://www.w3.org/2000/svg" xmlns:xlink="http://www.w3.org/1999/xlink" xml:space="preserve" onload="init(evt)">
<style type="text/css"><![CDATA[
.edge:hover path { stroke: red; }
.edge:hover polygon { stroke: red; fill: red; }
]]></style>
<script type="text/javascript"><![CDATA[
var edges = document.getElementsByTagName('g');
if (edges && edges.length) {
  for (var i=0;i<edges.length;i++) {
    if (edges[i].id.substr(0,4)=='edge') {
      edges[i].setAttribute('class','edge');
    }
  }
}
]]></script>
        <defs>
                <circle id="rim" cx="0" cy="0" r="7"/>
                <circle id="rim2" cx="0" cy="0" r="3.5"/>
                <g id="zoomPlus">
                        <use xlink:href="#rim" fill="#404040">
                                <set attributeName="fill" to="#808080" begin="zoomplus.mouseover" end="zoomplus.mouseout"/>
                        </use>
                        <path d="M-4,0h8M0,-4v8" fill="none" stroke="white" stroke-width="1.5" pointer-events="none"/>
                </g>
                <g id="zoomMin">
                        <use xlink:href="#rim" fill="#404040">
                                <set attributeName="fill" to="#808080" begin="zoomminus.mouseover" end="zoomminus.mouseout"/>
                        </use>
                        <path d="M-4,0h8" fill="none" stroke="white" stroke-width="1.5" pointer-events="none"/>
                </g>
                <g id="dirArrow">
                        <path fill="none" stroke="white" stroke-width="1.5" d="M0,-3.0v7 M-2.5,-0.5L0,-3.0L2.5,-0.5"/>
                </g>
               <g id="resetDef">
                       <use xlink:href="#rim2" fill="#404040">
                               <set attributeName="fill" to="#808080" begin="reset.mouseover" end="reset.mouseout"/>
                       </use>
               </g>
        </defs>

<script type="text/javascript">
var viewWidth = 906;
var viewHeight = 104;
var sectionId = 'dynsection-4';
</script>
<script xlink:href="svgpan.js"/>
<svg id="graph" class="graph">
<g id="viewport">
<title>PointRoad::isNode</title>
<!-- Node1 -->
<g id="node1" class="node"><title>Node1</title>
<polygon fill="#bfbfbf" stroke="black" points="0,-38.5 0,-57.5 99,-57.5 99,-38.5 0,-38.5"/>
<text text-anchor="middle" x="49.5" y="-45.5" font-family="Helvetica,sans-Serif" font-size="10.00">PointRoad::isNode</text>
</g>
<!-- Node2 -->
<g id="node2" class="node"><title>Node2</title>
<g id="a_node2"><a xlink:href="class_grid.html#aba1830bc145f128d6deeed29cfb94c9f" target="_top" xlink:title="addRoad Creates a new road and inserts it in m_road ">
<polygon fill="none" stroke="black" points="135,-38.5 135,-57.5 215,-57.5 215,-38.5 135,-38.5"/>
<text text-anchor="middle" x="175" y="-45.5" font-family="Helvetica,sans-Serif" font-size="10.00">Grid::addRoad</text>
</a>
</g>
</g>
<!-- Node1&#45;&gt;Node2 -->
<g id="edge1" class="edge"><title>Node1&#45;&gt;Node2</title>
<path fill="none" stroke="midnightblue" d="M109.324,-48C117.917,-48 126.587,-48 134.664,-48"/>
<polygon fill="midnightblue" stroke="midnightblue" points="109.311,-44.5001 99.3105,-48 109.31,-51.5001 109.311,-44.5001"/>
</g>
<!-- Node3 -->
<g id="node3" class="node"><title>Node3</title>
<g id="a_node3"><a xlink:href="class_grid.html#ae848f1c59c544adc1af9133409ee0106" target="_top" xlink:title="readFromCSV Reads a csv file and inserts info into the corresponding attributs ">
<polygon fill="none" stroke="black" points="251,-38.5 251,-57.5 354,-57.5 354,-38.5 251,-38.5"/>
<text text-anchor="middle" x="302.5" y="-45.5" font-family="Helvetica,sans-Serif" font-size="10.00">Grid::readFromCSV</text>
</a>
</g>
</g>
<!-- Node2&#45;&gt;Node3 -->
<g id="edge2" class="edge"><title>Node2&#45;&gt;Node3</title>
<path fill="none" stroke="midnightblue" d="M225.141,-48C233.616,-48 242.438,-48 250.949,-48"/>
<polygon fill="midnightblue" stroke="midnightblue" points="225.021,-44.5001 215.021,-48 225.021,-51.5001 225.021,-44.5001"/>
</g>
<!-- Node4 -->
<g id="node4" class="node"><title>Node4</title>
<g id="a_node4"><a xlink:href="main_8cpp.html#a640261e473790d1a87c2f33332460793" target="_top" xlink:title="dev_grid">
<polygon fill="none" stroke="black" points="433.5,-76.5 433.5,-95.5 486.5,-95.5 486.5,-76.5 433.5,-76.5"/>
<text text-anchor="middle" x="460" y="-83.5" font-family="Helvetica,sans-Serif" font-size="10.00">dev_grid</text>
</a>
</g>
</g>
<!-- Node3&#45;&gt;Node4 -->
<g id="edge3" class="edge"><title>Node3&#45;&gt;Node4</title>
<path fill="none" stroke="midnightblue" d="M352.723,-60.0288C379.528,-66.5791 411.584,-74.4128 433.431,-79.7517"/>
<polygon fill="midnightblue" stroke="midnightblue" points="353.284,-56.563 342.739,-57.589 351.622,-63.3629 353.284,-56.563"/>
</g>
<!-- Node5 -->
<g id="node5" class="node"><title>Node5</title>
<g id="a_node5"><a xlink:href="main_8cpp.html#a175f97306b953e738471cef90ef0a8a4" target="_top" xlink:title="dev_all">
<polygon fill="none" stroke="black" points="436.5,-38.5 436.5,-57.5 483.5,-57.5 483.5,-38.5 436.5,-38.5"/>
<text text-anchor="middle" x="460" y="-45.5" font-family="Helvetica,sans-Serif" font-size="10.00">dev_all</text>
</a>
</g>
</g>
<!-- Node3&#45;&gt;Node5 -->
<g id="edge4" class="edge"><title>Node3&#45;&gt;Node5</title>
<path fill="none" stroke="midnightblue" d="M364.653,-48C389.826,-48 417.434,-48 436.243,-48"/>
<polygon fill="midnightblue" stroke="midnightblue" points="364.417,-44.5001 354.417,-48 364.416,-51.5001 364.417,-44.5001"/>
</g>
<!-- Node6 -->
<g id="node6" class="node"><title>Node6</title>
<g id="a_node6"><a xlink:href="class_main_window.html#ad39bbe8ced0d3248206ac0ca6c444d55" target="_top" xlink:title="MainWindow::readyToNext1">
<polygon fill="none" stroke="black" points="390,-0.5 390,-19.5 530,-19.5 530,-0.5 390,-0.5"/>
<text text-anchor="middle" x="460" y="-7.5" font-family="Helvetica,sans-Serif" font-size="10.00">MainWindow::readyToNext1</text>
</a>
</g>
</g>
<!-- Node3&#45;&gt;Node6 -->
<g id="edge5" class="edge"><title>Node3&#45;&gt;Node6</title>
<path fill="none" stroke="midnightblue" d="M352.474,-36.032C374.265,-30.7069 399.567,-24.5238 420.043,-19.5201"/>
<polygon fill="midnightblue" stroke="midnightblue" points="351.622,-32.6371 342.739,-38.411 353.284,-39.437 351.622,-32.6371"/>
</g>
<!-- Node7 -->
<g id="node7" class="node"><title>Node7</title>
<g id="a_node7"><a xlink:href="class_main_window.html#af773488e0b16efe6c0fc67ad348b86b2" target="_top" xlink:title="MainWindow::createConnections">
<polygon fill="none" stroke="black" points="566,-0.5 566,-19.5 727,-19.5 727,-0.5 566,-0.5"/>
<text text-anchor="middle" x="646.5" y="-7.5" font-family="Helvetica,sans-Serif" font-size="10.00">MainWindow::createConnections</text>
</a>
</g>
</g>
<!-- Node6&#45;&gt;Node7 -->
<g id="edge6" class="edge"><title>Node6&#45;&gt;Node7</title>
<path fill="none" stroke="midnightblue" d="M540.446,-10C548.9,-10 557.501,-10 565.956,-10"/>
<polygon fill="midnightblue" stroke="midnightblue" points="540.226,-6.5001 530.226,-10 540.226,-13.5001 540.226,-6.5001"/>
</g>
<!-- Node8 -->
<g id="node8" class="node"><title>Node8</title>
<g id="a_node8"><a xlink:href="class_main_window.html#a8b244be8b7b7db1b08de2a2acb9409db" target="_top" xlink:title="MainWindow::MainWindow">
<polygon fill="none" stroke="black" points="763,-0.5 763,-19.5 898,-19.5 898,-0.5 763,-0.5"/>
<text text-anchor="middle" x="830.5" y="-7.5" font-family="Helvetica,sans-Serif" font-size="10.00">MainWindow::MainWindow</text>
</a>
</g>
</g>
<!-- Node7&#45;&gt;Node8 -->
<g id="edge7" class="edge"><title>Node7&#45;&gt;Node8</title>
<path fill="none" stroke="midnightblue" d="M737.196,-10C745.85,-10 754.52,-10 762.892,-10"/>
<polygon fill="midnightblue" stroke="midnightblue" points="737.063,-6.5001 727.063,-10 737.063,-13.5001 737.063,-6.5001"/>
</g>
</g>
</svg>
        <g id="navigator" transform="translate(0 0)" fill="#404254">
                <rect fill="#f2f5e9" fill-opacity="0.5" stroke="#606060" stroke-width=".5" x="0" y="0" width="60" height="60"/>
                <use id="zoomplus" xlink:href="#zoomPlus" x="17" y="9" onmousedown="handleZoom(evt,'in')"/>
                <use id="zoomminus" xlink:href="#zoomMin" x="42" y="9" onmousedown="handleZoom(evt,'out')"/>
                <use id="reset" xlink:href="#resetDef" x="30" y="36" onmousedown="handleReset()"/>
                <g id="arrowUp" xlink:href="#dirArrow" transform="translate(30 24)" onmousedown="handlePan(0,-1)">
                  <use xlink:href="#rim" fill="#404040">
                        <set attributeName="fill" to="#808080" begin="arrowUp.mouseover" end="arrowUp.mouseout"/>
                  </use>
                  <path fill="none" stroke="white" stroke-width="1.5" d="M0,-3.0v7 M-2.5,-0.5L0,-3.0L2.5,-0.5"/>
                </g>
                <g id="arrowRight" xlink:href="#dirArrow" transform="rotate(90) translate(36 -43)" onmousedown="handlePan(1,0)">
                  <use xlink:href="#rim" fill="#404040">
                        <set attributeName="fill" to="#808080" begin="arrowRight.mouseover" end="arrowRight.mouseout"/>
                  </use>
                  <path fill="none" stroke="white" stroke-width="1.5" d="M0,-3.0v7 M-2.5,-0.5L0,-3.0L2.5,-0.5"/>
                </g>
                <g id="arrowDown" xlink:href="#dirArrow" transform="rotate(180) translate(-30 -48)" onmousedown="handlePan(0,1)">
                  <use xlink:href="#rim" fill="#404040">
                        <set attributeName="fill" to="#808080" begin="arrowDown.mouseover" end="arrowDown.mouseout"/>
                  </use>
                  <path fill="none" stroke="white" stroke-width="1.5" d="M0,-3.0v7 M-2.5,-0.5L0,-3.0L2.5,-0.5"/>
                </g>
                <g id="arrowLeft" xlink:href="#dirArrow" transform="rotate(270) translate(-36 17)" onmousedown="handlePan(-1,0)">
                  <use xlink:href="#rim" fill="#404040">
                        <set attributeName="fill" to="#808080" begin="arrowLeft.mouseover" end="arrowLeft.mouseout"/>
                  </use>
                  <path fill="none" stroke="white" stroke-width="1.5" d="M0,-3.0v7 M-2.5,-0.5L0,-3.0L2.5,-0.5"/>
                </g>
        </g>
        <svg viewBox="0 0 15 15" width="100%" height="30px" preserveAspectRatio="xMaxYMin meet">
         <g id="arrow_out" transform="scale(0.3 0.3)">
          <a xlink:href="class_point_road_ae83941b37b026758fdd7974b4b186fbc_icgraph_org.svg" target="_base">
           <rect id="button" ry="5" rx="5" y="6" x="6" height="38" width="38"
                fill="#f2f5e9" fill-opacity="0.5" stroke="#606060" stroke-width="1.0"/>
           <path id="arrow"
             d="M 11.500037,31.436501 C 11.940474,20.09759 22.043105,11.32322 32.158766,21.979434 L 37.068811,17.246167 C 37.068811,17.246167 37.088388,32 37.088388,32 L 22.160133,31.978069 C 22.160133,31.978069 26.997745,27.140456 26.997745,27.140456 C 18.528582,18.264221 13.291696,25.230495 11.500037,31.436501 z"
             style="fill:#404040;"/>
          </a>
         </g>
        </svg>
</svg>
