<?xml version="1.0" encoding="UTF-8" standalone="no"?>
<!DOCTYPE svg PUBLIC "-//W3C//DTD SVG 1.1//EN"
 "http://www.w3.org/Graphics/SVG/1.1/DTD/svg11.dtd">
<!-- Generated by graphviz version 2.38.0 (20140413.2041)
 -->
<!-- Title: Grid::getProjectedPointAndDistance Pages: 1 -->
<svg width="470pt" height="104pt"
 viewBox="0.00 0.00 470.00 104.00" xmlns="http://www.w3.org/2000/svg" xmlns:xlink="http://www.w3.org/1999/xlink">
<g id="graph0" class="graph" transform="scale(1 1) rotate(0) translate(4 100)">
<title>Grid::getProjectedPointAndDistance</title>
<!-- Node1 -->
<g id="node1" class="node"><title>Node1</title>
<polygon fill="#bfbfbf" stroke="black" points="0,-52 0,-82 135,-82 135,-52 0,-52"/>
<text text-anchor="start" x="8" y="-70" font-family="Helvetica,sans-Serif" font-size="10.00">Grid::getProjectedPointAnd</text>
<text text-anchor="middle" x="67.5" y="-59" font-family="Helvetica,sans-Serif" font-size="10.00">Distance</text>
</g>
<!-- Node2 -->
<g id="node2" class="node"><title>Node2</title>
<g id="a_node2"><a xlink:href="class_road.html#a2877f55c577ddff8c519e7f44c2256d5" target="_top" xlink:title="Get the vector of points composing the road. ">
<polygon fill="none" stroke="black" points="181,-76.5 181,-95.5 300,-95.5 300,-76.5 181,-76.5"/>
<text text-anchor="middle" x="240.5" y="-83.5" font-family="Helvetica,sans-Serif" font-size="10.00">Road::vectorOfPointsId</text>
</a>
</g>
</g>
<!-- Node1&#45;&gt;Node2 -->
<g id="edge1" class="edge"><title>Node1&#45;&gt;Node2</title>
<path fill="none" stroke="midnightblue" d="M135.103,-74.4003C146.78,-75.6978 158.953,-77.0503 170.689,-78.3543"/>
<polygon fill="midnightblue" stroke="midnightblue" points="170.541,-81.8594 180.866,-79.4852 171.314,-74.9022 170.541,-81.8594"/>
</g>
<!-- Node3 -->
<g id="node3" class="node"><title>Node3</title>
<g id="a_node3"><a xlink:href="class_point.html#a9cff645d17a17081494fca956d43102a" target="_top" xlink:title="Point::projectionOnSegment">
<polygon fill="none" stroke="black" points="171,-38.5 171,-57.5 310,-57.5 310,-38.5 171,-38.5"/>
<text text-anchor="middle" x="240.5" y="-45.5" font-family="Helvetica,sans-Serif" font-size="10.00">Point::projectionOnSegment</text>
</a>
</g>
</g>
<!-- Node1&#45;&gt;Node3 -->
<g id="edge2" class="edge"><title>Node1&#45;&gt;Node3</title>
<path fill="none" stroke="midnightblue" d="M135.103,-59.5997C143.528,-58.6636 152.211,-57.6988 160.802,-56.7442"/>
<polygon fill="midnightblue" stroke="midnightblue" points="161.271,-60.2137 170.823,-55.6307 160.498,-53.2565 161.271,-60.2137"/>
</g>
<!-- Node4 -->
<g id="node4" class="node"><title>Node4</title>
<g id="a_node4"><a xlink:href="class_point.html#a7cd7f7e2c0f1a11b66eac8b6f360bfd9" target="_top" xlink:title="Calculate distance between two points. ">
<polygon fill="none" stroke="black" points="346,-76.5 346,-95.5 462,-95.5 462,-76.5 346,-76.5"/>
<text text-anchor="middle" x="404" y="-83.5" font-family="Helvetica,sans-Serif" font-size="10.00">Point::distanceToPoint</text>
</a>
</g>
</g>
<!-- Node3&#45;&gt;Node4 -->
<g id="edge3" class="edge"><title>Node3&#45;&gt;Node4</title>
<path fill="none" stroke="midnightblue" d="M282.253,-57.589C303.661,-62.6261 330.086,-68.8438 352.753,-74.1771"/>
<polygon fill="midnightblue" stroke="midnightblue" points="352.004,-77.5964 362.54,-76.4799 353.607,-70.7825 352.004,-77.5964"/>
</g>
<!-- Node5 -->
<g id="node5" class="node"><title>Node5</title>
<g id="a_node5"><a xlink:href="class_point.html#a3eef47b1c4849b3395a8f9c658ca7c4a" target="_top" xlink:title="Point::x">
<polygon fill="none" stroke="black" points="379,-38.5 379,-57.5 429,-57.5 429,-38.5 379,-38.5"/>
<text text-anchor="middle" x="404" y="-45.5" font-family="Helvetica,sans-Serif" font-size="10.00">Point::x</text>
</a>
</g>
</g>
<!-- Node3&#45;&gt;Node5 -->
<g id="edge4" class="edge"><title>Node3&#45;&gt;Node5</title>
<path fill="none" stroke="midnightblue" d="M310.459,-48C330.432,-48 351.389,-48 368.299,-48"/>
<polygon fill="midnightblue" stroke="midnightblue" points="368.775,-51.5001 378.775,-48 368.775,-44.5001 368.775,-51.5001"/>
</g>
<!-- Node6 -->
<g id="node6" class="node"><title>Node6</title>
<g id="a_node6"><a xlink:href="class_point.html#a96e90df6b3c18e64c31abdf196e49ae9" target="_top" xlink:title="Point::y">
<polygon fill="none" stroke="black" points="379,-0.5 379,-19.5 429,-19.5 429,-0.5 379,-0.5"/>
<text text-anchor="middle" x="404" y="-7.5" font-family="Helvetica,sans-Serif" font-size="10.00">Point::y</text>
</a>
</g>
</g>
<!-- Node3&#45;&gt;Node6 -->
<g id="edge5" class="edge"><title>Node3&#45;&gt;Node6</title>
<path fill="none" stroke="midnightblue" d="M282.253,-38.411C309.027,-32.1113 343.649,-23.9649 368.95,-18.0117"/>
<polygon fill="midnightblue" stroke="midnightblue" points="369.9,-21.3838 378.833,-15.6864 368.297,-14.5699 369.9,-21.3838"/>
</g>
</g>
</svg>
