<?xml version="1.0" encoding="UTF-8" standalone="no"?>
<!DOCTYPE svg PUBLIC "-//W3C//DTD SVG 1.1//EN"
 "http://www.w3.org/Graphics/SVG/1.1/DTD/svg11.dtd">
<!-- Generated by graphviz version 2.38.0 (20140413.2041)
 -->
<!-- Title: Grid::xMin Pages: 1 -->
<svg width="301pt" height="66pt"
 viewBox="0.00 0.00 301.00 66.00" xmlns="http://www.w3.org/2000/svg" xmlns:xlink="http://www.w3.org/1999/xlink">
<g id="graph0" class="graph" transform="scale(1 1) rotate(0) translate(4 62)">
<title>Grid::xMin</title>
<!-- Node1 -->
<g id="node1" class="node"><title>Node1</title>
<polygon fill="#bfbfbf" stroke="black" points="0,-19.5 0,-38.5 62,-38.5 62,-19.5 0,-19.5"/>
<text text-anchor="middle" x="31" y="-26.5" font-family="Helvetica,sans-Serif" font-size="10.00">Grid::xMin</text>
</g>
<!-- Node2 -->
<g id="node2" class="node"><title>Node2</title>
<g id="a_node2"><a xlink:href="class_grid.html#a19318437702e712955d0c4631c94cb04" target="_top" xlink:title="setZone Save data about our area of roads ">
<polygon fill="none" stroke="black" points="98,-38.5 98,-57.5 210,-57.5 210,-38.5 98,-38.5"/>
<text text-anchor="middle" x="154" y="-45.5" font-family="Helvetica,sans-Serif" font-size="10.00">Grid::setBoundingBox</text>
</a>
</g>
</g>
<!-- Node1&#45;&gt;Node2 -->
<g id="edge1" class="edge"><title>Node1&#45;&gt;Node2</title>
<path fill="none" stroke="midnightblue" d="M72.2262,-35.3165C80.4023,-36.6004 89.137,-37.9719 97.7299,-39.3212"/>
<polygon fill="midnightblue" stroke="midnightblue" points="72.6432,-31.8392 62.2213,-33.7455 71.5573,-38.7544 72.6432,-31.8392"/>
</g>
<!-- Node4 -->
<g id="node4" class="node"><title>Node4</title>
<g id="a_node4"><a xlink:href="class_grid.html#a8d8b7fa0ee20d81f130a46d80fc2a018" target="_top" xlink:title="trackInGrid ">
<polygon fill="none" stroke="black" points="109.5,-0.5 109.5,-19.5 198.5,-19.5 198.5,-0.5 109.5,-0.5"/>
<text text-anchor="middle" x="154" y="-7.5" font-family="Helvetica,sans-Serif" font-size="10.00">Grid::trackInGrid</text>
</a>
</g>
</g>
<!-- Node1&#45;&gt;Node4 -->
<g id="edge3" class="edge"><title>Node1&#45;&gt;Node4</title>
<path fill="none" stroke="midnightblue" d="M72.3395,-22.6657C84.2607,-20.7938 97.3611,-18.7367 109.474,-16.8347"/>
<polygon fill="midnightblue" stroke="midnightblue" points="71.5573,-19.2456 62.2213,-24.2545 72.6432,-26.1608 71.5573,-19.2456"/>
</g>
<!-- Node3 -->
<g id="node3" class="node"><title>Node3</title>
<g id="a_node3"><a xlink:href="main_8cpp.html#a175f97306b953e738471cef90ef0a8a4" target="_top" xlink:title="dev_all">
<polygon fill="none" stroke="black" points="246,-38.5 246,-57.5 293,-57.5 293,-38.5 246,-38.5"/>
<text text-anchor="middle" x="269.5" y="-45.5" font-family="Helvetica,sans-Serif" font-size="10.00">dev_all</text>
</a>
</g>
</g>
<!-- Node2&#45;&gt;Node3 -->
<g id="edge2" class="edge"><title>Node2&#45;&gt;Node3</title>
<path fill="none" stroke="midnightblue" d="M220.146,-48C229.349,-48 238.252,-48 245.855,-48"/>
<polygon fill="midnightblue" stroke="midnightblue" points="220.088,-44.5001 210.088,-48 220.088,-51.5001 220.088,-44.5001"/>
</g>
</g>
</svg>
