<?xml version="1.0" encoding="UTF-8" standalone="no"?>
<!DOCTYPE svg PUBLIC "-//W3C//DTD SVG 1.1//EN"
 "http://www.w3.org/Graphics/SVG/1.1/DTD/svg11.dtd">
<!-- Generated by graphviz version 2.38.0 (20140413.2041)
 -->
<!-- Title: PointGPS::addEmissionProbability Pages: 1 -->
<svg width="495pt" height="66pt"
 viewBox="0.00 0.00 495.00 66.00" xmlns="http://www.w3.org/2000/svg" xmlns:xlink="http://www.w3.org/1999/xlink">
<g id="graph0" class="graph" transform="scale(1 1) rotate(0) translate(4 62)">
<title>PointGPS::addEmissionProbability</title>
<!-- Node1 -->
<g id="node1" class="node"><title>Node1</title>
<polygon fill="#bfbfbf" stroke="black" points="0,-19.5 0,-38.5 168,-38.5 168,-19.5 0,-19.5"/>
<text text-anchor="middle" x="84" y="-26.5" font-family="Helvetica,sans-Serif" font-size="10.00">PointGPS::addEmissionProbability</text>
</g>
<!-- Node2 -->
<g id="node2" class="node"><title>Node2</title>
<g id="a_node2"><a xlink:href="class_point_g_p_s.html#ac547767bd05e353a545ceb4f4ac7d3c3" target="_top" xlink:title="PointGPS constructor Create a new Point GPS. ">
<polygon fill="none" stroke="black" points="204,-38.5 204,-57.5 314,-57.5 314,-38.5 204,-38.5"/>
<text text-anchor="middle" x="259" y="-45.5" font-family="Helvetica,sans-Serif" font-size="10.00">PointGPS::PointGPS</text>
</a>
</g>
</g>
<!-- Node1&#45;&gt;Node2 -->
<g id="edge1" class="edge"><title>Node1&#45;&gt;Node2</title>
<path fill="none" stroke="midnightblue" d="M178.147,-39.23C186.935,-40.1951 195.63,-41.1501 203.868,-42.0549"/>
<polygon fill="midnightblue" stroke="midnightblue" points="178.529,-35.751 168.206,-38.1383 177.764,-42.7091 178.529,-35.751"/>
</g>
<!-- Node3 -->
<g id="node3" class="node"><title>Node3</title>
<g id="a_node3"><a xlink:href="class_solver.html#ac93808d9f79208e9917830d0ff0a5dfd" target="_top" xlink:title="setDistance Calculate distance between GPS point et Road ">
<polygon fill="none" stroke="black" points="207.5,-0.5 207.5,-19.5 310.5,-19.5 310.5,-0.5 207.5,-0.5"/>
<text text-anchor="middle" x="259" y="-7.5" font-family="Helvetica,sans-Serif" font-size="10.00">Solver::setDistance</text>
</a>
</g>
</g>
<!-- Node1&#45;&gt;Node3 -->
<g id="edge2" class="edge"><title>Node1&#45;&gt;Node3</title>
<path fill="none" stroke="midnightblue" d="M178.204,-18.7637C188.181,-17.6679 198.039,-16.5853 207.242,-15.5745"/>
<polygon fill="midnightblue" stroke="midnightblue" points="177.764,-15.2909 168.206,-19.8617 178.529,-22.249 177.764,-15.2909"/>
</g>
<!-- Node4 -->
<g id="node4" class="node"><title>Node4</title>
<g id="a_node4"><a xlink:href="class_solver.html#a2abdc34ec29d4301a7219375f6e5ec84" target="_top" xlink:title="Solver::onSignalNeighbours">
<polygon fill="none" stroke="black" points="350,-0.5 350,-19.5 487,-19.5 487,-0.5 350,-0.5"/>
<text text-anchor="middle" x="418.5" y="-7.5" font-family="Helvetica,sans-Serif" font-size="10.00">Solver::onSignalNeighbours</text>
</a>
</g>
</g>
<!-- Node3&#45;&gt;Node4 -->
<g id="edge3" class="edge"><title>Node3&#45;&gt;Node4</title>
<path fill="none" stroke="midnightblue" d="M320.863,-10C330.387,-10 340.28,-10 349.944,-10"/>
<polygon fill="midnightblue" stroke="midnightblue" points="320.701,-6.5001 310.701,-10 320.701,-13.5001 320.701,-6.5001"/>
</g>
</g>
</svg>
