<?xml version="1.0" encoding="UTF-8" standalone="no"?>
<!DOCTYPE svg PUBLIC "-//W3C//DTD SVG 1.1//EN"
 "http://www.w3.org/Graphics/SVG/1.1/DTD/svg11.dtd">
<!-- Generated by graphviz version 2.38.0 (20140413.2041)
 -->
<!-- Title: Point::distanceToSegment Pages: 1 -->
<svg width="292pt" height="66pt"
 viewBox="0.00 0.00 292.00 66.00" xmlns="http://www.w3.org/2000/svg" xmlns:xlink="http://www.w3.org/1999/xlink">
<g id="graph0" class="graph" transform="scale(1 1) rotate(0) translate(4 62)">
<title>Point::distanceToSegment</title>
<!-- Node1 -->
<g id="node1" class="node"><title>Node1</title>
<polygon fill="#bfbfbf" stroke="black" points="0,-19.5 0,-38.5 132,-38.5 132,-19.5 0,-19.5"/>
<text text-anchor="middle" x="66" y="-26.5" font-family="Helvetica,sans-Serif" font-size="10.00">Point::distanceToSegment</text>
</g>
<!-- Node2 -->
<g id="node2" class="node"><title>Node2</title>
<g id="a_node2"><a xlink:href="class_point.html#a9d93fb520b4a3e170aab25ea738b105c" target="_top" xlink:title="Check if two points share the same coordinates. ">
<polygon fill="none" stroke="black" points="174,-38.5 174,-57.5 278,-57.5 278,-38.5 174,-38.5"/>
<text text-anchor="middle" x="226" y="-45.5" font-family="Helvetica,sans-Serif" font-size="10.00">Point::samePointAs</text>
</a>
</g>
</g>
<!-- Node1&#45;&gt;Node2 -->
<g id="edge1" class="edge"><title>Node1&#45;&gt;Node2</title>
<path fill="none" stroke="midnightblue" d="M132.177,-36.8377C142.633,-38.0951 153.422,-39.3925 163.781,-40.6382"/>
<polygon fill="midnightblue" stroke="midnightblue" points="163.621,-44.1442 173.968,-41.8632 164.457,-37.1942 163.621,-44.1442"/>
</g>
<!-- Node3 -->
<g id="node3" class="node"><title>Node3</title>
<g id="a_node3"><a xlink:href="class_point.html#a7cd7f7e2c0f1a11b66eac8b6f360bfd9" target="_top" xlink:title="Calculate distance between two points. ">
<polygon fill="none" stroke="black" points="168,-0.5 168,-19.5 284,-19.5 284,-0.5 168,-0.5"/>
<text text-anchor="middle" x="226" y="-7.5" font-family="Helvetica,sans-Serif" font-size="10.00">Point::distanceToPoint</text>
</a>
</g>
</g>
<!-- Node1&#45;&gt;Node3 -->
<g id="edge2" class="edge"><title>Node1&#45;&gt;Node3</title>
<path fill="none" stroke="midnightblue" d="M132.177,-21.1623C140.517,-20.1594 149.069,-19.131 157.445,-18.1237"/>
<polygon fill="midnightblue" stroke="midnightblue" points="158.039,-21.5775 167.55,-16.9086 157.203,-14.6276 158.039,-21.5775"/>
</g>
</g>
</svg>
