<?xml version="1.0" encoding="UTF-8" standalone="no"?>
<!DOCTYPE svg PUBLIC "-//W3C//DTD SVG 1.1//EN"
 "http://www.w3.org/Graphics/SVG/1.1/DTD/svg11.dtd">
<!-- Generated by graphviz version 2.38.0 (20140413.2041)
 -->
<!-- Title: QMapViewer Pages: 1 -->
<svg width="96pt" height="160pt"
 viewBox="0.00 0.00 96.00 160.00" xmlns="http://www.w3.org/2000/svg" xmlns:xlink="http://www.w3.org/1999/xlink">
<g id="graph0" class="graph" transform="scale(1 1) rotate(0) translate(4 156)">
<title>QMapViewer</title>
<!-- Node1 -->
<g id="node1" class="node"><title>Node1</title>
<polygon fill="#bfbfbf" stroke="black" points="-7.10543e-15,-0.5 -7.10543e-15,-57.5 88,-57.5 88,-0.5 -7.10543e-15,-0.5"/>
<text text-anchor="middle" x="44" y="-45.5" font-family="Helvetica,sans-Serif" font-size="10.00">QMapViewer</text>
<polyline fill="none" stroke="black" points="-7.10543e-15,-38.5 88,-38.5 "/>
<text text-anchor="middle" x="44" y="-26.5" font-family="Helvetica,sans-Serif" font-size="10.00"> </text>
<polyline fill="none" stroke="black" points="-7.10543e-15,-19.5 88,-19.5 "/>
<text text-anchor="start" x="8" y="-7.5" font-family="Helvetica,sans-Serif" font-size="10.00">+ QMapViewer()</text>
</g>
<!-- Node2 -->
<g id="node2" class="node"><title>Node2</title>
<polygon fill="none" stroke="#bfbfbf" points="16.5,-94.5 16.5,-151.5 71.5,-151.5 71.5,-94.5 16.5,-94.5"/>
<text text-anchor="middle" x="44" y="-139.5" font-family="Helvetica,sans-Serif" font-size="10.00">QWidget</text>
<polyline fill="none" stroke="#bfbfbf" points="16.5,-132.5 71.5,-132.5 "/>
<text text-anchor="middle" x="44" y="-120.5" font-family="Helvetica,sans-Serif" font-size="10.00"> </text>
<polyline fill="none" stroke="#bfbfbf" points="16.5,-113.5 71.5,-113.5 "/>
<text text-anchor="middle" x="44" y="-101.5" font-family="Helvetica,sans-Serif" font-size="10.00"> </text>
</g>
<!-- Node2&#45;&gt;Node1 -->
<g id="edge1" class="edge"><title>Node2&#45;&gt;Node1</title>
<path fill="none" stroke="midnightblue" d="M44,-84.2092C44,-75.2929 44,-65.9513 44,-57.5836"/>
<polygon fill="none" stroke="midnightblue" points="40.5001,-84.3969 44,-94.397 47.5001,-84.397 40.5001,-84.3969"/>
</g>
</g>
</svg>
