<?xml version="1.0" encoding="UTF-8" standalone="no"?>
<!DOCTYPE svg PUBLIC "-//W3C//DTD SVG 1.1//EN"
 "http://www.w3.org/Graphics/SVG/1.1/DTD/svg11.dtd">
<!-- Generated by graphviz version 2.38.0 (20140413.2041)
 -->
<!-- Title: PointRoad::isNode Pages: 1 -->
<svg width="906pt" height="180pt"
 viewBox="0.00 0.00 906.00 180.00" xmlns="http://www.w3.org/2000/svg" xmlns:xlink="http://www.w3.org/1999/xlink">
<g id="graph0" class="graph" transform="scale(1 1) rotate(0) translate(4 176)">
<title>PointRoad::isNode</title>
<!-- Node1 -->
<g id="node1" class="node"><title>Node1</title>
<polygon fill="#bfbfbf" stroke="black" points="0,-95.5 0,-114.5 99,-114.5 99,-95.5 0,-95.5"/>
<text text-anchor="middle" x="49.5" y="-102.5" font-family="Helvetica,sans-Serif" font-size="10.00">PointRoad::isNode</text>
</g>
<!-- Node2 -->
<g id="node2" class="node"><title>Node2</title>
<g id="a_node2"><a xlink:href="class_grid.html#aba1830bc145f128d6deeed29cfb94c9f" target="_top" xlink:title="Creates a new road and inserts it in m_road. ">
<polygon fill="none" stroke="black" points="135,-95.5 135,-114.5 215,-114.5 215,-95.5 135,-95.5"/>
<text text-anchor="middle" x="175" y="-102.5" font-family="Helvetica,sans-Serif" font-size="10.00">Grid::addRoad</text>
</a>
</g>
</g>
<!-- Node1&#45;&gt;Node2 -->
<g id="edge1" class="edge"><title>Node1&#45;&gt;Node2</title>
<path fill="none" stroke="midnightblue" d="M109.324,-105C117.917,-105 126.587,-105 134.664,-105"/>
<polygon fill="midnightblue" stroke="midnightblue" points="109.311,-101.5 99.3105,-105 109.31,-108.5 109.311,-101.5"/>
</g>
<!-- Node3 -->
<g id="node3" class="node"><title>Node3</title>
<g id="a_node3"><a xlink:href="class_grid.html#ae848f1c59c544adc1af9133409ee0106" target="_top" xlink:title="Reads a csv file and inserts info into the corresponding attributs. ">
<polygon fill="none" stroke="black" points="251,-95.5 251,-114.5 354,-114.5 354,-95.5 251,-95.5"/>
<text text-anchor="middle" x="302.5" y="-102.5" font-family="Helvetica,sans-Serif" font-size="10.00">Grid::readFromCSV</text>
</a>
</g>
</g>
<!-- Node2&#45;&gt;Node3 -->
<g id="edge2" class="edge"><title>Node2&#45;&gt;Node3</title>
<path fill="none" stroke="midnightblue" d="M225.141,-105C233.616,-105 242.438,-105 250.949,-105"/>
<polygon fill="midnightblue" stroke="midnightblue" points="225.021,-101.5 215.021,-105 225.021,-108.5 225.021,-101.5"/>
</g>
<!-- Node4 -->
<g id="node4" class="node"><title>Node4</title>
<g id="a_node4"><a xlink:href="main_8cpp.html#a640261e473790d1a87c2f33332460793" target="_top" xlink:title="dev_grid">
<polygon fill="none" stroke="black" points="433.5,-152.5 433.5,-171.5 486.5,-171.5 486.5,-152.5 433.5,-152.5"/>
<text text-anchor="middle" x="460" y="-159.5" font-family="Helvetica,sans-Serif" font-size="10.00">dev_grid</text>
</a>
</g>
</g>
<!-- Node3&#45;&gt;Node4 -->
<g id="edge3" class="edge"><title>Node3&#45;&gt;Node4</title>
<path fill="none" stroke="midnightblue" d="M332.279,-118.9C348.907,-126.611 370.361,-136.024 390,-143 404.167,-148.032 420.357,-152.552 433.492,-155.92"/>
<polygon fill="midnightblue" stroke="midnightblue" points="333.636,-115.67 323.096,-114.587 330.66,-122.006 333.636,-115.67"/>
</g>
<!-- Node5 -->
<g id="node5" class="node"><title>Node5</title>
<g id="a_node5"><a xlink:href="main_8cpp.html#a141063eccadf0e03662d414d897d9f5d" target="_top" xlink:title="dev_gridAndTrack">
<polygon fill="none" stroke="black" points="412.5,-114.5 412.5,-133.5 507.5,-133.5 507.5,-114.5 412.5,-114.5"/>
<text text-anchor="middle" x="460" y="-121.5" font-family="Helvetica,sans-Serif" font-size="10.00">dev_gridAndTrack</text>
</a>
</g>
</g>
<!-- Node3&#45;&gt;Node5 -->
<g id="edge4" class="edge"><title>Node3&#45;&gt;Node5</title>
<path fill="none" stroke="midnightblue" d="M364.69,-112.477C380.581,-114.418 397.439,-116.478 412.44,-118.311"/>
<polygon fill="midnightblue" stroke="midnightblue" points="364.767,-108.96 354.417,-111.221 363.918,-115.908 364.767,-108.96"/>
</g>
<!-- Node6 -->
<g id="node6" class="node"><title>Node6</title>
<g id="a_node6"><a xlink:href="class_main_window.html#ad39bbe8ced0d3248206ac0ca6c444d55" target="_top" xlink:title="MainWindow::readyToNext1">
<polygon fill="none" stroke="black" points="390,-76.5 390,-95.5 530,-95.5 530,-76.5 390,-76.5"/>
<text text-anchor="middle" x="460" y="-83.5" font-family="Helvetica,sans-Serif" font-size="10.00">MainWindow::readyToNext1</text>
</a>
</g>
</g>
<!-- Node3&#45;&gt;Node6 -->
<g id="edge5" class="edge"><title>Node3&#45;&gt;Node6</title>
<path fill="none" stroke="midnightblue" d="M364.438,-97.5542C372.787,-96.534 381.408,-95.4807 389.89,-94.4443"/>
<polygon fill="midnightblue" stroke="midnightblue" points="363.918,-94.0916 354.417,-98.7787 364.767,-101.04 363.918,-94.0916"/>
</g>
<!-- Node9 -->
<g id="node9" class="node"><title>Node9</title>
<g id="a_node9"><a xlink:href="class_solver.html#a97bc7169c18b339fecd4937150f907c3" target="_top" xlink:title="Solver::start">
<polygon fill="none" stroke="black" points="425,-38.5 425,-57.5 495,-57.5 495,-38.5 425,-38.5"/>
<text text-anchor="middle" x="460" y="-45.5" font-family="Helvetica,sans-Serif" font-size="10.00">Solver::start</text>
</a>
</g>
</g>
<!-- Node3&#45;&gt;Node9 -->
<g id="edge8" class="edge"><title>Node3&#45;&gt;Node9</title>
<path fill="none" stroke="midnightblue" d="M332.279,-91.1003C348.907,-83.3886 370.361,-73.9762 390,-67 401.123,-63.049 413.493,-59.4138 424.652,-56.4043"/>
<polygon fill="midnightblue" stroke="midnightblue" points="330.66,-87.994 323.096,-95.4131 333.636,-94.33 330.66,-87.994"/>
</g>
<!-- Node7 -->
<g id="node7" class="node"><title>Node7</title>
<g id="a_node7"><a xlink:href="class_main_window.html#af773488e0b16efe6c0fc67ad348b86b2" target="_top" xlink:title="MainWindow::createConnections">
<polygon fill="none" stroke="black" points="566,-76.5 566,-95.5 727,-95.5 727,-76.5 566,-76.5"/>
<text text-anchor="middle" x="646.5" y="-83.5" font-family="Helvetica,sans-Serif" font-size="10.00">MainWindow::createConnections</text>
</a>
</g>
</g>
<!-- Node6&#45;&gt;Node7 -->
<g id="edge6" class="edge"><title>Node6&#45;&gt;Node7</title>
<path fill="none" stroke="midnightblue" d="M540.446,-86C548.9,-86 557.501,-86 565.956,-86"/>
<polygon fill="midnightblue" stroke="midnightblue" points="540.226,-82.5001 530.226,-86 540.226,-89.5001 540.226,-82.5001"/>
</g>
<!-- Node8 -->
<g id="node8" class="node"><title>Node8</title>
<g id="a_node8"><a xlink:href="class_main_window.html#a8b244be8b7b7db1b08de2a2acb9409db" target="_top" xlink:title="MainWindow::MainWindow">
<polygon fill="none" stroke="black" points="763,-76.5 763,-95.5 898,-95.5 898,-76.5 763,-76.5"/>
<text text-anchor="middle" x="830.5" y="-83.5" font-family="Helvetica,sans-Serif" font-size="10.00">MainWindow::MainWindow</text>
</a>
</g>
</g>
<!-- Node7&#45;&gt;Node8 -->
<g id="edge7" class="edge"><title>Node7&#45;&gt;Node8</title>
<path fill="none" stroke="midnightblue" d="M737.196,-86C745.85,-86 754.52,-86 762.892,-86"/>
<polygon fill="midnightblue" stroke="midnightblue" points="737.063,-82.5001 727.063,-86 737.063,-89.5001 737.063,-82.5001"/>
</g>
<!-- Node10 -->
<g id="node10" class="node"><title>Node10</title>
<g id="a_node10"><a xlink:href="main_8cpp.html#a9dd67c19acf7317c6296b63e29dcfab9" target="_top" xlink:title="dev_thread">
<polygon fill="none" stroke="black" points="614,-38.5 614,-57.5 679,-57.5 679,-38.5 614,-38.5"/>
<text text-anchor="middle" x="646.5" y="-45.5" font-family="Helvetica,sans-Serif" font-size="10.00">dev_thread</text>
</a>
</g>
</g>
<!-- Node9&#45;&gt;Node10 -->
<g id="edge9" class="edge"><title>Node9&#45;&gt;Node10</title>
<path fill="none" stroke="midnightblue" d="M505.695,-48C539.147,-48 584.083,-48 613.877,-48"/>
<polygon fill="midnightblue" stroke="midnightblue" points="505.271,-44.5001 495.271,-48 505.271,-51.5001 505.271,-44.5001"/>
</g>
<!-- Node12 -->
<g id="node12" class="node"><title>Node12</title>
<g id="a_node12"><a xlink:href="class_solver.html#a323c9c0407f26a2ed3ec3ff5ed02a760" target="_top" xlink:title="Solver::onSignalStart">
<polygon fill="none" stroke="black" points="592,-0.5 592,-19.5 701,-19.5 701,-0.5 592,-0.5"/>
<text text-anchor="middle" x="646.5" y="-7.5" font-family="Helvetica,sans-Serif" font-size="10.00">Solver::onSignalStart</text>
</a>
</g>
</g>
<!-- Node9&#45;&gt;Node12 -->
<g id="edge11" class="edge"><title>Node9&#45;&gt;Node12</title>
<path fill="none" stroke="midnightblue" d="M505.319,-38.8719C533.706,-33.0253 570.477,-25.4519 599.236,-19.5287"/>
<polygon fill="midnightblue" stroke="midnightblue" points="504.359,-35.4961 495.271,-40.9415 505.771,-42.3522 504.359,-35.4961"/>
</g>
<!-- Node11 -->
<g id="node11" class="node"><title>Node11</title>
<g id="a_node11"><a xlink:href="main_8cpp.html#a0ddf1224851353fc92bfbff6f499fa97" target="_top" xlink:title="main">
<polygon fill="none" stroke="black" points="811.5,-38.5 811.5,-57.5 849.5,-57.5 849.5,-38.5 811.5,-38.5"/>
<text text-anchor="middle" x="830.5" y="-45.5" font-family="Helvetica,sans-Serif" font-size="10.00">main</text>
</a>
</g>
</g>
<!-- Node10&#45;&gt;Node11 -->
<g id="edge10" class="edge"><title>Node10&#45;&gt;Node11</title>
<path fill="none" stroke="midnightblue" d="M689.588,-48C728.103,-48 783.251,-48 811.426,-48"/>
<polygon fill="midnightblue" stroke="midnightblue" points="689.202,-44.5001 679.202,-48 689.202,-51.5001 689.202,-44.5001"/>
</g>
</g>
</svg>
