<?xml version="1.0" encoding="UTF-8" standalone="no"?>
<!DOCTYPE svg PUBLIC "-//W3C//DTD SVG 1.1//EN"
 "http://www.w3.org/Graphics/SVG/1.1/DTD/svg11.dtd">
<!-- Generated by graphviz version 2.38.0 (20140413.2041)
 -->
<!-- Title: QMapViewer::TranslateToQPoint Pages: 1 -->
<svg width="353pt" height="88pt"
 viewBox="0.00 0.00 353.00 88.00" xmlns="http://www.w3.org/2000/svg" xmlns:xlink="http://www.w3.org/1999/xlink">
<g id="graph0" class="graph" transform="scale(1 1) rotate(0) translate(4 84)">
<title>QMapViewer::TranslateToQPoint</title>
<!-- Node1 -->
<g id="node1" class="node"><title>Node1</title>
<polygon fill="#bfbfbf" stroke="black" points="0,-30 0,-49 161,-49 161,-30 0,-30"/>
<text text-anchor="middle" x="80.5" y="-37" font-family="Helvetica,sans-Serif" font-size="10.00">QMapViewer::TranslateToQPoint</text>
</g>
<!-- Node2 -->
<g id="node2" class="node"><title>Node2</title>
<g id="a_node2"><a xlink:href="class_q_map_viewer.html#a7ab3a05f3f8542dc36fffdf7068b5c52" target="_top" xlink:title="QMapViewer::makePointFrom\lTrack">
<polygon fill="none" stroke="black" points="197,-49.5 197,-79.5 345,-79.5 345,-49.5 197,-49.5"/>
<text text-anchor="start" x="205" y="-67.5" font-family="Helvetica,sans-Serif" font-size="10.00">QMapViewer::makePointFrom</text>
<text text-anchor="middle" x="271" y="-56.5" font-family="Helvetica,sans-Serif" font-size="10.00">Track</text>
</a>
</g>
</g>
<!-- Node1&#45;&gt;Node2 -->
<g id="edge1" class="edge"><title>Node1&#45;&gt;Node2</title>
<path fill="none" stroke="midnightblue" d="M163.425,-50.3654C174.54,-51.8396 185.888,-53.3445 196.835,-54.7965"/>
<polygon fill="midnightblue" stroke="midnightblue" points="163.675,-46.868 153.302,-49.0227 162.755,-53.8072 163.675,-46.868"/>
</g>
<!-- Node3 -->
<g id="node3" class="node"><title>Node3</title>
<g id="a_node3"><a xlink:href="class_q_map_viewer.html#a5eaa22fa92fc348ab4116299b68e0896" target="_top" xlink:title="QMapViewer::makePolyline\lFromRoad">
<polygon fill="none" stroke="black" points="202.5,-0.5 202.5,-30.5 339.5,-30.5 339.5,-0.5 202.5,-0.5"/>
<text text-anchor="start" x="210.5" y="-18.5" font-family="Helvetica,sans-Serif" font-size="10.00">QMapViewer::makePolyline</text>
<text text-anchor="middle" x="271" y="-7.5" font-family="Helvetica,sans-Serif" font-size="10.00">FromRoad</text>
</a>
</g>
</g>
<!-- Node1&#45;&gt;Node3 -->
<g id="edge2" class="edge"><title>Node1&#45;&gt;Node3</title>
<path fill="none" stroke="midnightblue" d="M166.338,-28.6983C178.403,-27.1623 190.674,-25.5998 202.353,-24.1129"/>
<polygon fill="midnightblue" stroke="midnightblue" points="165.749,-25.245 156.271,-29.9801 166.633,-32.189 165.749,-25.245"/>
</g>
</g>
</svg>
