<?xml version="1.0" encoding="UTF-8" standalone="no"?>
<!DOCTYPE svg PUBLIC "-//W3C//DTD SVG 1.1//EN"
 "http://www.w3.org/Graphics/SVG/1.1/DTD/svg11.dtd">
<!-- Generated by graphviz version 2.38.0 (20140413.2041)
 -->
<!-- Title: PointRoad::id Pages: 1 -->
<svg width="1139pt" height="142pt"
 viewBox="0.00 0.00 1139.00 142.00" xmlns="http://www.w3.org/2000/svg" xmlns:xlink="http://www.w3.org/1999/xlink">
<g id="graph0" class="graph" transform="scale(1 1) rotate(0) translate(4 138)">
<title>PointRoad::id</title>
<!-- Node1 -->
<g id="node1" class="node"><title>Node1</title>
<polygon fill="#bfbfbf" stroke="black" points="0,-57.5 0,-76.5 76,-76.5 76,-57.5 0,-57.5"/>
<text text-anchor="middle" x="38" y="-64.5" font-family="Helvetica,sans-Serif" font-size="10.00">PointRoad::id</text>
</g>
<!-- Node2 -->
<g id="node2" class="node"><title>Node2</title>
<g id="a_node2"><a xlink:href="class_grid.html#aba1830bc145f128d6deeed29cfb94c9f" target="_top" xlink:title="Creates a new road and inserts it in m_road. ">
<polygon fill="none" stroke="black" points="237,-57.5 237,-76.5 317,-76.5 317,-57.5 237,-57.5"/>
<text text-anchor="middle" x="277" y="-64.5" font-family="Helvetica,sans-Serif" font-size="10.00">Grid::addRoad</text>
</a>
</g>
</g>
<!-- Node1&#45;&gt;Node2 -->
<g id="edge1" class="edge"><title>Node1&#45;&gt;Node2</title>
<path fill="none" stroke="midnightblue" d="M86.2222,-67C130.375,-67 195.537,-67 236.864,-67"/>
<polygon fill="midnightblue" stroke="midnightblue" points="86.0313,-63.5001 76.0312,-67 86.0312,-70.5001 86.0313,-63.5001"/>
</g>
<!-- Node14 -->
<g id="node14" class="node"><title>Node14</title>
<g id="a_node14"><a xlink:href="class_point_road.html#a998665db2d7e4fc4935ef95df092ff2b" target="_top" xlink:title="PointRoad::setid">
<polygon fill="none" stroke="black" points="112,-38.5 112,-57.5 201,-57.5 201,-38.5 112,-38.5"/>
<text text-anchor="middle" x="156.5" y="-45.5" font-family="Helvetica,sans-Serif" font-size="10.00">PointRoad::setid</text>
</a>
</g>
</g>
<!-- Node1&#45;&gt;Node14 -->
<g id="edge13" class="edge"><title>Node1&#45;&gt;Node14</title>
<path fill="none" stroke="midnightblue" d="M86.2563,-59.293C94.6862,-57.9181 103.435,-56.4913 111.761,-55.1334"/>
<polygon fill="midnightblue" stroke="midnightblue" points="85.4878,-55.872 76.1816,-60.936 86.6146,-62.7807 85.4878,-55.872"/>
</g>
<!-- Node3 -->
<g id="node3" class="node"><title>Node3</title>
<g id="a_node3"><a xlink:href="class_grid.html#ae848f1c59c544adc1af9133409ee0106" target="_top" xlink:title="Reads a csv file and inserts info into the corresponding attributs. ">
<polygon fill="none" stroke="black" points="353,-57.5 353,-76.5 456,-76.5 456,-57.5 353,-57.5"/>
<text text-anchor="middle" x="404.5" y="-64.5" font-family="Helvetica,sans-Serif" font-size="10.00">Grid::readFromCSV</text>
</a>
</g>
</g>
<!-- Node2&#45;&gt;Node3 -->
<g id="edge2" class="edge"><title>Node2&#45;&gt;Node3</title>
<path fill="none" stroke="midnightblue" d="M327.141,-67C335.616,-67 344.438,-67 352.949,-67"/>
<polygon fill="midnightblue" stroke="midnightblue" points="327.021,-63.5001 317.021,-67 327.021,-70.5001 327.021,-63.5001"/>
</g>
<!-- Node4 -->
<g id="node4" class="node"><title>Node4</title>
<g id="a_node4"><a xlink:href="main_8cpp.html#a640261e473790d1a87c2f33332460793" target="_top" xlink:title="dev_grid">
<polygon fill="none" stroke="black" points="513,-114.5 513,-133.5 566,-133.5 566,-114.5 513,-114.5"/>
<text text-anchor="middle" x="539.5" y="-121.5" font-family="Helvetica,sans-Serif" font-size="10.00">dev_grid</text>
</a>
</g>
</g>
<!-- Node3&#45;&gt;Node4 -->
<g id="edge3" class="edge"><title>Node3&#45;&gt;Node4</title>
<path fill="none" stroke="midnightblue" d="M435.953,-80.6093C452.489,-87.9404 473.316,-97.0805 492,-105 499.387,-108.131 507.47,-111.466 514.795,-114.453"/>
<polygon fill="midnightblue" stroke="midnightblue" points="437.322,-77.3874 426.762,-76.5247 434.479,-83.7842 437.322,-77.3874"/>
</g>
<!-- Node5 -->
<g id="node5" class="node"><title>Node5</title>
<g id="a_node5"><a xlink:href="main_8cpp.html#a141063eccadf0e03662d414d897d9f5d" target="_top" xlink:title="dev_gridAndTrack">
<polygon fill="none" stroke="black" points="492,-76.5 492,-95.5 587,-95.5 587,-76.5 492,-76.5"/>
<text text-anchor="middle" x="539.5" y="-83.5" font-family="Helvetica,sans-Serif" font-size="10.00">dev_gridAndTrack</text>
</a>
</g>
</g>
<!-- Node3&#45;&gt;Node5 -->
<g id="edge4" class="edge"><title>Node3&#45;&gt;Node5</title>
<path fill="none" stroke="midnightblue" d="M466.202,-75.6717C474.837,-76.9053 483.604,-78.1577 491.913,-79.3447"/>
<polygon fill="midnightblue" stroke="midnightblue" points="466.556,-72.1868 456.161,-74.2373 465.565,-79.1164 466.556,-72.1868"/>
</g>
<!-- Node6 -->
<g id="node6" class="node"><title>Node6</title>
<g id="a_node6"><a xlink:href="class_solver.html#a97bc7169c18b339fecd4937150f907c3" target="_top" xlink:title="Solver::start">
<polygon fill="none" stroke="black" points="504.5,-38.5 504.5,-57.5 574.5,-57.5 574.5,-38.5 504.5,-38.5"/>
<text text-anchor="middle" x="539.5" y="-45.5" font-family="Helvetica,sans-Serif" font-size="10.00">Solver::start</text>
</a>
</g>
</g>
<!-- Node3&#45;&gt;Node6 -->
<g id="edge5" class="edge"><title>Node3&#45;&gt;Node6</title>
<path fill="none" stroke="midnightblue" d="M466.132,-58.3383C479.294,-56.4579 492.766,-54.5334 504.462,-52.8625"/>
<polygon fill="midnightblue" stroke="midnightblue" points="465.565,-54.8836 456.161,-59.7627 466.556,-61.8132 465.565,-54.8836"/>
</g>
<!-- Node10 -->
<g id="node10" class="node"><title>Node10</title>
<g id="a_node10"><a xlink:href="class_solver.html#acbe7e47bcad48b8ddba95c9281c8bf23" target="_top" xlink:title="Solver::readFiles">
<polygon fill="none" stroke="black" points="494.5,-0.5 494.5,-19.5 584.5,-19.5 584.5,-0.5 494.5,-0.5"/>
<text text-anchor="middle" x="539.5" y="-7.5" font-family="Helvetica,sans-Serif" font-size="10.00">Solver::readFiles</text>
</a>
</g>
</g>
<!-- Node3&#45;&gt;Node10 -->
<g id="edge9" class="edge"><title>Node3&#45;&gt;Node10</title>
<path fill="none" stroke="midnightblue" d="M435.953,-53.3907C452.489,-46.0596 473.316,-36.9195 492,-29 499.387,-25.8689 507.47,-22.5344 514.795,-19.5471"/>
<polygon fill="midnightblue" stroke="midnightblue" points="434.479,-50.2158 426.762,-57.4753 437.322,-56.6126 434.479,-50.2158"/>
</g>
<!-- Node7 -->
<g id="node7" class="node"><title>Node7</title>
<g id="a_node7"><a xlink:href="main_8cpp.html#a9dd67c19acf7317c6296b63e29dcfab9" target="_top" xlink:title="dev_thread">
<polygon fill="none" stroke="black" points="660.5,-76.5 660.5,-95.5 725.5,-95.5 725.5,-76.5 660.5,-76.5"/>
<text text-anchor="middle" x="693" y="-83.5" font-family="Helvetica,sans-Serif" font-size="10.00">dev_thread</text>
</a>
</g>
</g>
<!-- Node6&#45;&gt;Node7 -->
<g id="edge6" class="edge"><title>Node6&#45;&gt;Node7</title>
<path fill="none" stroke="midnightblue" d="M584.894,-59.1352C609.093,-65.2049 638.477,-72.575 660.342,-78.0593"/>
<polygon fill="midnightblue" stroke="midnightblue" points="585.429,-55.6609 574.878,-56.6228 583.726,-62.4506 585.429,-55.6609"/>
</g>
<!-- Node9 -->
<g id="node9" class="node"><title>Node9</title>
<g id="a_node9"><a xlink:href="class_solver.html#a323c9c0407f26a2ed3ec3ff5ed02a760" target="_top" xlink:title="Solver::onSignalStart">
<polygon fill="none" stroke="black" points="638.5,-38.5 638.5,-57.5 747.5,-57.5 747.5,-38.5 638.5,-38.5"/>
<text text-anchor="middle" x="693" y="-45.5" font-family="Helvetica,sans-Serif" font-size="10.00">Solver::onSignalStart</text>
</a>
</g>
</g>
<!-- Node6&#45;&gt;Node9 -->
<g id="edge8" class="edge"><title>Node6&#45;&gt;Node9</title>
<path fill="none" stroke="midnightblue" d="M584.952,-48C601.706,-48 620.939,-48 638.439,-48"/>
<polygon fill="midnightblue" stroke="midnightblue" points="584.878,-44.5001 574.878,-48 584.878,-51.5001 584.878,-44.5001"/>
</g>
<!-- Node8 -->
<g id="node8" class="node"><title>Node8</title>
<g id="a_node8"><a xlink:href="main_8cpp.html#a0ddf1224851353fc92bfbff6f499fa97" target="_top" xlink:title="main">
<polygon fill="none" stroke="black" points="860.5,-76.5 860.5,-95.5 898.5,-95.5 898.5,-76.5 860.5,-76.5"/>
<text text-anchor="middle" x="879.5" y="-83.5" font-family="Helvetica,sans-Serif" font-size="10.00">main</text>
</a>
</g>
</g>
<!-- Node7&#45;&gt;Node8 -->
<g id="edge7" class="edge"><title>Node7&#45;&gt;Node8</title>
<path fill="none" stroke="midnightblue" d="M735.733,-86C774.774,-86 831.269,-86 860.087,-86"/>
<polygon fill="midnightblue" stroke="midnightblue" points="735.717,-82.5001 725.717,-86 735.717,-89.5001 735.717,-82.5001"/>
</g>
<!-- Node11 -->
<g id="node11" class="node"><title>Node11</title>
<g id="a_node11"><a xlink:href="class_main_window.html#ad39bbe8ced0d3248206ac0ca6c444d55" target="_top" xlink:title="MainWindow::readyToNext1">
<polygon fill="none" stroke="black" points="623,-0.5 623,-19.5 763,-19.5 763,-0.5 623,-0.5"/>
<text text-anchor="middle" x="693" y="-7.5" font-family="Helvetica,sans-Serif" font-size="10.00">MainWindow::readyToNext1</text>
</a>
</g>
</g>
<!-- Node10&#45;&gt;Node11 -->
<g id="edge10" class="edge"><title>Node10&#45;&gt;Node11</title>
<path fill="none" stroke="midnightblue" d="M594.798,-10C603.915,-10 613.484,-10 622.915,-10"/>
<polygon fill="midnightblue" stroke="midnightblue" points="594.727,-6.5001 584.727,-10 594.727,-13.5001 594.727,-6.5001"/>
</g>
<!-- Node12 -->
<g id="node12" class="node"><title>Node12</title>
<g id="a_node12"><a xlink:href="class_main_window.html#af773488e0b16efe6c0fc67ad348b86b2" target="_top" xlink:title="MainWindow::createConnections">
<polygon fill="none" stroke="black" points="799,-0.5 799,-19.5 960,-19.5 960,-0.5 799,-0.5"/>
<text text-anchor="middle" x="879.5" y="-7.5" font-family="Helvetica,sans-Serif" font-size="10.00">MainWindow::createConnections</text>
</a>
</g>
</g>
<!-- Node11&#45;&gt;Node12 -->
<g id="edge11" class="edge"><title>Node11&#45;&gt;Node12</title>
<path fill="none" stroke="midnightblue" d="M773.446,-10C781.9,-10 790.501,-10 798.956,-10"/>
<polygon fill="midnightblue" stroke="midnightblue" points="773.226,-6.5001 763.226,-10 773.226,-13.5001 773.226,-6.5001"/>
</g>
<!-- Node13 -->
<g id="node13" class="node"><title>Node13</title>
<g id="a_node13"><a xlink:href="class_main_window.html#a8b244be8b7b7db1b08de2a2acb9409db" target="_top" xlink:title="MainWindow::MainWindow">
<polygon fill="none" stroke="black" points="996,-0.5 996,-19.5 1131,-19.5 1131,-0.5 996,-0.5"/>
<text text-anchor="middle" x="1063.5" y="-7.5" font-family="Helvetica,sans-Serif" font-size="10.00">MainWindow::MainWindow</text>
</a>
</g>
</g>
<!-- Node12&#45;&gt;Node13 -->
<g id="edge12" class="edge"><title>Node12&#45;&gt;Node13</title>
<path fill="none" stroke="midnightblue" d="M970.196,-10C978.85,-10 987.52,-10 995.892,-10"/>
<polygon fill="midnightblue" stroke="midnightblue" points="970.063,-6.5001 960.063,-10 970.063,-13.5001 970.063,-6.5001"/>
</g>
<!-- Node14&#45;&gt;Node2 -->
<g id="edge14" class="edge"><title>Node14&#45;&gt;Node2</title>
<path fill="none" stroke="midnightblue" d="M211.237,-56.6161C219.81,-57.9907 228.538,-59.3901 236.696,-60.698"/>
<polygon fill="midnightblue" stroke="midnightblue" points="211.716,-53.1483 201.288,-55.0209 210.608,-60.06 211.716,-53.1483"/>
</g>
</g>
</svg>
