<?xml version="1.0" encoding="UTF-8" standalone="no"?>
<!DOCTYPE svg PUBLIC "-//W3C//DTD SVG 1.1//EN"
 "http://www.w3.org/Graphics/SVG/1.1/DTD/svg11.dtd">
<!-- Generated by graphviz version 2.38.0 (20140413.2041)
 -->
<!-- Title: BoxNode Pages: 1 -->
<svg width="130pt" height="563pt"
 viewBox="0.00 0.00 130.00 563.00" xmlns="http://www.w3.org/2000/svg" xmlns:xlink="http://www.w3.org/1999/xlink">
<g id="graph0" class="graph" transform="scale(1 1) rotate(0) translate(4 559)">
<title>BoxNode</title>
<!-- Node1 -->
<g id="node1" class="node"><title>Node1</title>
<polygon fill="#bfbfbf" stroke="black" points="0,-0.5 0,-112.5 122,-112.5 122,-0.5 0,-0.5"/>
<text text-anchor="middle" x="61" y="-100.5" font-family="Helvetica,sans-Serif" font-size="10.00">BoxNode</text>
<polyline fill="none" stroke="black" points="0,-93.5 122,-93.5 "/>
<text text-anchor="start" x="8" y="-81.5" font-family="Helvetica,sans-Serif" font-size="10.00">+ m_daughterBox1</text>
<text text-anchor="start" x="8" y="-70.5" font-family="Helvetica,sans-Serif" font-size="10.00">+ m_daughterBox2</text>
<text text-anchor="start" x="8" y="-59.5" font-family="Helvetica,sans-Serif" font-size="10.00">+ m_indexOfLowerPoint</text>
<text text-anchor="start" x="8" y="-48.5" font-family="Helvetica,sans-Serif" font-size="10.00">+ m_indexOfUpperPoint</text>
<text text-anchor="start" x="8" y="-37.5" font-family="Helvetica,sans-Serif" font-size="10.00">+ m_motherBox</text>
<polyline fill="none" stroke="black" points="0,-30.5 122,-30.5 "/>
<text text-anchor="start" x="8" y="-18.5" font-family="Helvetica,sans-Serif" font-size="10.00">+ BoxNode()</text>
<text text-anchor="start" x="8" y="-7.5" font-family="Helvetica,sans-Serif" font-size="10.00">+ BoxNode()</text>
</g>
<!-- Node2 -->
<g id="node2" class="node"><title>Node2</title>
<g id="a_node2"><a xlink:href="class_box.html" target="_top" xlink:title="{Box\n||+ Box()\l+ Box()\l+ distanceToPoint()\l}">
<polygon fill="none" stroke="black" points="10,-150.5 10,-229.5 112,-229.5 112,-150.5 10,-150.5"/>
<text text-anchor="middle" x="61" y="-217.5" font-family="Helvetica,sans-Serif" font-size="10.00">Box</text>
<polyline fill="none" stroke="black" points="10,-210.5 112,-210.5 "/>
<text text-anchor="middle" x="61" y="-198.5" font-family="Helvetica,sans-Serif" font-size="10.00"> </text>
<polyline fill="none" stroke="black" points="10,-191.5 112,-191.5 "/>
<text text-anchor="start" x="18" y="-179.5" font-family="Helvetica,sans-Serif" font-size="10.00">+ Box()</text>
<text text-anchor="start" x="18" y="-168.5" font-family="Helvetica,sans-Serif" font-size="10.00">+ Box()</text>
<text text-anchor="start" x="18" y="-157.5" font-family="Helvetica,sans-Serif" font-size="10.00">+ distanceToPoint()</text>
</a>
</g>
</g>
<!-- Node2&#45;&gt;Node1 -->
<g id="edge1" class="edge"><title>Node2&#45;&gt;Node1</title>
<path fill="none" stroke="midnightblue" d="M61,-139.994C61,-131.041 61,-121.644 61,-112.53"/>
<polygon fill="none" stroke="midnightblue" points="57.5001,-140.257 61,-150.257 64.5001,-140.257 57.5001,-140.257"/>
</g>
<!-- Node3 -->
<g id="node3" class="node"><title>Node3</title>
<g id="a_node3"><a xlink:href="class_point.html" target="_top" xlink:title="The Point class. ">
<polygon fill="none" stroke="black" points="1.5,-288.5 1.5,-554.5 120.5,-554.5 120.5,-288.5 1.5,-288.5"/>
<text text-anchor="middle" x="61" y="-542.5" font-family="Helvetica,sans-Serif" font-size="10.00">Point</text>
<polyline fill="none" stroke="black" points="1.5,-535.5 120.5,-535.5 "/>
<text text-anchor="start" x="9.5" y="-523.5" font-family="Helvetica,sans-Serif" font-size="10.00"># m_x</text>
<text text-anchor="start" x="9.5" y="-512.5" font-family="Helvetica,sans-Serif" font-size="10.00"># m_y</text>
<polyline fill="none" stroke="black" points="1.5,-505.5 120.5,-505.5 "/>
<text text-anchor="start" x="9.5" y="-493.5" font-family="Helvetica,sans-Serif" font-size="10.00">+ distanceToPoint()</text>
<text text-anchor="start" x="9.5" y="-482.5" font-family="Helvetica,sans-Serif" font-size="10.00">+ distanceToSegment()</text>
<text text-anchor="start" x="9.5" y="-471.5" font-family="Helvetica,sans-Serif" font-size="10.00">+ infos()</text>
<text text-anchor="start" x="9.5" y="-460.5" font-family="Helvetica,sans-Serif" font-size="10.00">+ Point()</text>
<text text-anchor="start" x="9.5" y="-449.5" font-family="Helvetica,sans-Serif" font-size="10.00">+ Point()</text>
<text text-anchor="start" x="9.5" y="-438.5" font-family="Helvetica,sans-Serif" font-size="10.00">+ samePointAs()</text>
<text text-anchor="start" x="9.5" y="-427.5" font-family="Helvetica,sans-Serif" font-size="10.00">+ setx()</text>
<text text-anchor="start" x="9.5" y="-416.5" font-family="Helvetica,sans-Serif" font-size="10.00">+ x()</text>
<text text-anchor="start" x="9.5" y="-405.5" font-family="Helvetica,sans-Serif" font-size="10.00">+ ~Point()</text>
<text text-anchor="start" x="9.5" y="-394.5" font-family="Helvetica,sans-Serif" font-size="10.00">+ x()</text>
<text text-anchor="start" x="9.5" y="-383.5" font-family="Helvetica,sans-Serif" font-size="10.00">+ setx()</text>
<text text-anchor="start" x="9.5" y="-372.5" font-family="Helvetica,sans-Serif" font-size="10.00">+ y()</text>
<text text-anchor="start" x="9.5" y="-361.5" font-family="Helvetica,sans-Serif" font-size="10.00">+ sety()</text>
<text text-anchor="start" x="9.5" y="-350.5" font-family="Helvetica,sans-Serif" font-size="10.00">* m_x</text>
<text text-anchor="start" x="9.5" y="-339.5" font-family="Helvetica,sans-Serif" font-size="10.00">* m_y</text>
<text text-anchor="start" x="9.5" y="-328.5" font-family="Helvetica,sans-Serif" font-size="10.00">* x()</text>
<text text-anchor="start" x="9.5" y="-317.5" font-family="Helvetica,sans-Serif" font-size="10.00">* setx()</text>
<text text-anchor="start" x="9.5" y="-306.5" font-family="Helvetica,sans-Serif" font-size="10.00">* y()</text>
<text text-anchor="start" x="9.5" y="-295.5" font-family="Helvetica,sans-Serif" font-size="10.00">* sety()</text>
</a>
</g>
</g>
<!-- Node3&#45;&gt;Node2 -->
<g id="edge2" class="edge"><title>Node3&#45;&gt;Node2</title>
<path fill="none" stroke="#404040" d="M61,-288.329C61,-272.003 61,-256.159 61,-242.161"/>
<polygon fill="none" stroke="#404040" points="61.0001,-241.863 57,-235.863 61,-229.863 65,-235.863 61.0001,-241.863"/>
<text text-anchor="middle" x="80" y="-262" font-family="Helvetica,sans-Serif" font-size="10.00"> +m_low</text>
<text text-anchor="middle" x="80" y="-251" font-family="Helvetica,sans-Serif" font-size="10.00">+m_high</text>
</g>
</g>
</svg>
