<?xml version="1.0" encoding="UTF-8" standalone="no"?>
<!DOCTYPE svg PUBLIC "-//W3C//DTD SVG 1.1//EN"
 "http://www.w3.org/Graphics/SVG/1.1/DTD/svg11.dtd">
<!-- Generated by graphviz version 2.38.0 (20140413.2041)
 -->
<!-- Title: Solver Pages: 1 -->
<!--zoomable 1185 -->
<svg id="main" version="1.1" xmlns="http://www.w3.org/2000/svg" xmlns:xlink="http://www.w3.org/1999/xlink" xml:space="preserve" onload="init(evt)">
<style type="text/css"><![CDATA[
.edge:hover path { stroke: red; }
.edge:hover polygon { stroke: red; fill: red; }
]]></style>
<script type="text/javascript"><![CDATA[
var edges = document.getElementsByTagName('g');
if (edges && edges.length) {
  for (var i=0;i<edges.length;i++) {
    if (edges[i].id.substr(0,4)=='edge') {
      edges[i].setAttribute('class','edge');
    }
  }
}
]]></script>
        <defs>
                <circle id="rim" cx="0" cy="0" r="7"/>
                <circle id="rim2" cx="0" cy="0" r="3.5"/>
                <g id="zoomPlus">
                        <use xlink:href="#rim" fill="#404040">
                                <set attributeName="fill" to="#808080" begin="zoomplus.mouseover" end="zoomplus.mouseout"/>
                        </use>
                        <path d="M-4,0h8M0,-4v8" fill="none" stroke="white" stroke-width="1.5" pointer-events="none"/>
                </g>
                <g id="zoomMin">
                        <use xlink:href="#rim" fill="#404040">
                                <set attributeName="fill" to="#808080" begin="zoomminus.mouseover" end="zoomminus.mouseout"/>
                        </use>
                        <path d="M-4,0h8" fill="none" stroke="white" stroke-width="1.5" pointer-events="none"/>
                </g>
                <g id="dirArrow">
                        <path fill="none" stroke="white" stroke-width="1.5" d="M0,-3.0v7 M-2.5,-0.5L0,-3.0L2.5,-0.5"/>
                </g>
               <g id="resetDef">
                       <use xlink:href="#rim2" fill="#404040">
                               <set attributeName="fill" to="#808080" begin="reset.mouseover" end="reset.mouseout"/>
                       </use>
               </g>
        </defs>

<script type="text/javascript">
var viewWidth = 961;
var viewHeight = 1185;
var sectionId = 'dynsection-1';
</script>
<script xlink:href="svgpan.js"/>
<svg id="graph" class="graph">
<g id="viewport">
<title>Solver</title>
<!-- Node1 -->
<g id="node1" class="node"><title>Node1</title>
<polygon fill="#bfbfbf" stroke="black" points="563,-0.5 563,-134.5 672,-134.5 672,-0.5 563,-0.5"/>
<text text-anchor="middle" x="617.5" y="-122.5" font-family="Helvetica,sans-Serif" font-size="10.00">Solver</text>
<polyline fill="none" stroke="black" points="563,-115.5 672,-115.5 "/>
<text text-anchor="start" x="571" y="-103.5" font-family="Helvetica,sans-Serif" font-size="10.00">+ m_gridFilename</text>
<text text-anchor="start" x="571" y="-92.5" font-family="Helvetica,sans-Serif" font-size="10.00">+ m_trackFilename</text>
<polyline fill="none" stroke="black" points="563,-85.5 672,-85.5 "/>
<text text-anchor="start" x="571" y="-73.5" font-family="Helvetica,sans-Serif" font-size="10.00">+ readFiles()</text>
<text text-anchor="start" x="571" y="-62.5" font-family="Helvetica,sans-Serif" font-size="10.00">+ setDistance()</text>
<text text-anchor="start" x="571" y="-51.5" font-family="Helvetica,sans-Serif" font-size="10.00">+ Solver()</text>
<text text-anchor="start" x="571" y="-40.5" font-family="Helvetica,sans-Serif" font-size="10.00">+ start()</text>
<text text-anchor="start" x="571" y="-29.5" font-family="Helvetica,sans-Serif" font-size="10.00">+ onSignalSetGrid()</text>
<text text-anchor="start" x="571" y="-18.5" font-family="Helvetica,sans-Serif" font-size="10.00">+ onSignalSetTrack()</text>
<text text-anchor="start" x="571" y="-7.5" font-family="Helvetica,sans-Serif" font-size="10.00">+ onSignalStart()</text>
</g>
<!-- Node2 -->
<g id="node2" class="node"><title>Node2</title>
<polygon fill="none" stroke="#bfbfbf" points="276,-496.5 276,-553.5 329,-553.5 329,-496.5 276,-496.5"/>
<text text-anchor="middle" x="302.5" y="-541.5" font-family="Helvetica,sans-Serif" font-size="10.00">QObject</text>
<polyline fill="none" stroke="#bfbfbf" points="276,-534.5 329,-534.5 "/>
<text text-anchor="middle" x="302.5" y="-522.5" font-family="Helvetica,sans-Serif" font-size="10.00"> </text>
<polyline fill="none" stroke="#bfbfbf" points="276,-515.5 329,-515.5 "/>
<text text-anchor="middle" x="302.5" y="-503.5" font-family="Helvetica,sans-Serif" font-size="10.00"> </text>
</g>
<!-- Node2&#45;&gt;Node1 -->
<g id="edge1" class="edge"><title>Node2&#45;&gt;Node1</title>
<path fill="none" stroke="midnightblue" d="M334.54,-488.793C341.788,-480.207 348.07,-472.049 350.5,-467 406.529,-350.609 330.736,-285.892 407.5,-182 445.55,-130.503 514.161,-99.8245 562.586,-83.5924"/>
<polygon fill="none" stroke="midnightblue" points="331.876,-486.523 327.994,-496.38 337.176,-491.095 331.876,-486.523"/>
</g>
<!-- Node3 -->
<g id="node3" class="node"><title>Node3</title>
<g id="a_node3"><a xlink:href="class_grid.html" target="_top" xlink:title="Grid embedded roads. This describes the network. ">
<polygon fill="none" stroke="black" points="417,-182.5 417,-437.5 528,-437.5 528,-182.5 417,-182.5"/>
<text text-anchor="middle" x="472.5" y="-425.5" font-family="Helvetica,sans-Serif" font-size="10.00">Grid</text>
<polyline fill="none" stroke="black" points="417,-418.5 528,-418.5 "/>
<text text-anchor="middle" x="472.5" y="-406.5" font-family="Helvetica,sans-Serif" font-size="10.00"> </text>
<polyline fill="none" stroke="black" points="417,-399.5 528,-399.5 "/>
<text text-anchor="start" x="425" y="-387.5" font-family="Helvetica,sans-Serif" font-size="10.00">+ addRoad()</text>
<text text-anchor="start" x="425" y="-376.5" font-family="Helvetica,sans-Serif" font-size="10.00">+ buildKDTree()</text>
<text text-anchor="start" x="425" y="-365.5" font-family="Helvetica,sans-Serif" font-size="10.00">+ buildMarkovMatrix()</text>
<text text-anchor="start" x="425" y="-354.5" font-family="Helvetica,sans-Serif" font-size="10.00">+ getNoOfPoints()</text>
<text text-anchor="start" x="425" y="-343.5" font-family="Helvetica,sans-Serif" font-size="10.00">+ getNoOfRoads()</text>
<text text-anchor="start" x="425" y="-332.5" font-family="Helvetica,sans-Serif" font-size="10.00">+ getPoints()</text>
<text text-anchor="start" x="425" y="-321.5" font-family="Helvetica,sans-Serif" font-size="10.00">+ getRoadEntry()</text>
<text text-anchor="start" x="425" y="-310.5" font-family="Helvetica,sans-Serif" font-size="10.00">+ getRoads()</text>
<text text-anchor="start" x="425" y="-299.5" font-family="Helvetica,sans-Serif" font-size="10.00">+ Grid()</text>
<text text-anchor="start" x="425" y="-288.5" font-family="Helvetica,sans-Serif" font-size="10.00">+ inFootPrint()</text>
<text text-anchor="start" x="425" y="-277.5" font-family="Helvetica,sans-Serif" font-size="10.00">and 16 more...</text>
<text text-anchor="start" x="425" y="-266.5" font-family="Helvetica,sans-Serif" font-size="10.00">* m_xMin</text>
<text text-anchor="start" x="425" y="-255.5" font-family="Helvetica,sans-Serif" font-size="10.00">* m_xMax</text>
<text text-anchor="start" x="425" y="-244.5" font-family="Helvetica,sans-Serif" font-size="10.00">* m_yMin</text>
<text text-anchor="start" x="425" y="-233.5" font-family="Helvetica,sans-Serif" font-size="10.00">* m_yMax</text>
<text text-anchor="start" x="425" y="-222.5" font-family="Helvetica,sans-Serif" font-size="10.00">* m_xMinGrid</text>
<text text-anchor="start" x="425" y="-211.5" font-family="Helvetica,sans-Serif" font-size="10.00">* m_xMaxGrid</text>
<text text-anchor="start" x="425" y="-200.5" font-family="Helvetica,sans-Serif" font-size="10.00">* m_yMinGrid</text>
<text text-anchor="start" x="425" y="-189.5" font-family="Helvetica,sans-Serif" font-size="10.00">* m_yMaxGrid</text>
</a>
</g>
</g>
<!-- Node2&#45;&gt;Node3 -->
<g id="edge3" class="edge"><title>Node2&#45;&gt;Node3</title>
<path fill="none" stroke="midnightblue" d="M333.156,-489.283C334.911,-487.778 336.697,-486.34 338.5,-485 353.178,-474.093 361.917,-479.245 375.5,-467 390.897,-453.12 404.728,-436.231 416.797,-418.756"/>
<polygon fill="none" stroke="midnightblue" points="330.633,-486.85 325.691,-496.222 335.398,-491.977 330.633,-486.85"/>
</g>
<!-- Node15 -->
<g id="node15" class="node"><title>Node15</title>
<g id="a_node15"><a xlink:href="class_track.html" target="_top" xlink:title="The Track class. ">
<polygon fill="none" stroke="black" points="123.5,-193.5 123.5,-426.5 249.5,-426.5 249.5,-193.5 123.5,-193.5"/>
<text text-anchor="middle" x="186.5" y="-414.5" font-family="Helvetica,sans-Serif" font-size="10.00">Track</text>
<polyline fill="none" stroke="black" points="123.5,-407.5 249.5,-407.5 "/>
<text text-anchor="middle" x="186.5" y="-395.5" font-family="Helvetica,sans-Serif" font-size="10.00"> </text>
<polyline fill="none" stroke="black" points="123.5,-388.5 249.5,-388.5 "/>
<text text-anchor="start" x="131.5" y="-376.5" font-family="Helvetica,sans-Serif" font-size="10.00">+ addPoint()</text>
<text text-anchor="start" x="131.5" y="-365.5" font-family="Helvetica,sans-Serif" font-size="10.00">+ applyThresholdToBox()</text>
<text text-anchor="start" x="131.5" y="-354.5" font-family="Helvetica,sans-Serif" font-size="10.00">+ delPointGPS()</text>
<text text-anchor="start" x="131.5" y="-343.5" font-family="Helvetica,sans-Serif" font-size="10.00">+ getPoints()</text>
<text text-anchor="start" x="131.5" y="-332.5" font-family="Helvetica,sans-Serif" font-size="10.00">+ getPointsAsPointer()</text>
<text text-anchor="start" x="131.5" y="-321.5" font-family="Helvetica,sans-Serif" font-size="10.00">+ infos()</text>
<text text-anchor="start" x="131.5" y="-310.5" font-family="Helvetica,sans-Serif" font-size="10.00">+ outputInfos()</text>
<text text-anchor="start" x="131.5" y="-299.5" font-family="Helvetica,sans-Serif" font-size="10.00">+ readFromCSV()</text>
<text text-anchor="start" x="131.5" y="-288.5" font-family="Helvetica,sans-Serif" font-size="10.00">+ spaceFilter()</text>
<text text-anchor="start" x="131.5" y="-277.5" font-family="Helvetica,sans-Serif" font-size="10.00">+ temporalFilter()</text>
<text text-anchor="start" x="131.5" y="-266.5" font-family="Helvetica,sans-Serif" font-size="10.00">+ Track()</text>
<text text-anchor="start" x="131.5" y="-255.5" font-family="Helvetica,sans-Serif" font-size="10.00">+ updateBox()</text>
<text text-anchor="start" x="131.5" y="-244.5" font-family="Helvetica,sans-Serif" font-size="10.00">+ ~Track()</text>
<text text-anchor="start" x="131.5" y="-233.5" font-family="Helvetica,sans-Serif" font-size="10.00">* m_xMin</text>
<text text-anchor="start" x="131.5" y="-222.5" font-family="Helvetica,sans-Serif" font-size="10.00">* m_xMax</text>
<text text-anchor="start" x="131.5" y="-211.5" font-family="Helvetica,sans-Serif" font-size="10.00">* m_yMin</text>
<text text-anchor="start" x="131.5" y="-200.5" font-family="Helvetica,sans-Serif" font-size="10.00">* m_yMax</text>
</a>
</g>
</g>
<!-- Node2&#45;&gt;Node15 -->
<g id="edge17" class="edge"><title>Node2&#45;&gt;Node15</title>
<path fill="none" stroke="midnightblue" d="M268.712,-490.835C262.154,-483.38 255.71,-475.228 250.5,-467 242.513,-454.386 235.169,-440.607 228.528,-426.627"/>
<polygon fill="none" stroke="midnightblue" points="266.493,-493.596 275.82,-498.622 271.663,-488.877 266.493,-493.596"/>
</g>
<!-- Node3&#45;&gt;Node1 -->
<g id="edge2" class="edge"><title>Node3&#45;&gt;Node1</title>
<path fill="none" stroke="#404040" d="M528.146,-216.704C542.413,-193.041 557.602,-167.848 571.333,-145.074"/>
<polygon fill="none" stroke="#404040" points="571.334,-145.071 571.007,-137.868 577.53,-134.795 577.858,-141.998 571.334,-145.071"/>
<text text-anchor="middle" x="579" y="-156" font-family="Helvetica,sans-Serif" font-size="10.00"> +grid</text>
</g>
<!-- Node4 -->
<g id="node4" class="node"><title>Node4</title>
<polygon fill="none" stroke="#bfbfbf" points="506,-496.5 506,-553.5 633,-553.5 633,-496.5 506,-496.5"/>
<text text-anchor="middle" x="569.5" y="-541.5" font-family="Helvetica,sans-Serif" font-size="10.00">std::vector&lt; PointRoad &gt;</text>
<polyline fill="none" stroke="#bfbfbf" points="506,-534.5 633,-534.5 "/>
<text text-anchor="middle" x="569.5" y="-522.5" font-family="Helvetica,sans-Serif" font-size="10.00"> </text>
<polyline fill="none" stroke="#bfbfbf" points="506,-515.5 633,-515.5 "/>
<text text-anchor="middle" x="569.5" y="-503.5" font-family="Helvetica,sans-Serif" font-size="10.00"> </text>
</g>
<!-- Node4&#45;&gt;Node1 -->
<g id="edge24" class="edge"><title>Node4&#45;&gt;Node1</title>
<path fill="none" stroke="#404040" d="M607.283,-496.298C615.868,-487.936 623.827,-478.013 628.5,-467 672.629,-363.009 656.014,-229.627 638.175,-146.607"/>
<polygon fill="none" stroke="#404040" points="638.14,-146.448 632.935,-141.457 635.541,-134.733 640.746,-139.725 638.14,-146.448"/>
<text text-anchor="middle" x="692.5" y="-307.5" font-family="Helvetica,sans-Serif" font-size="10.00"> +m_roadPoints</text>
</g>
<!-- Node4&#45;&gt;Node3 -->
<g id="edge4" class="edge"><title>Node4&#45;&gt;Node3</title>
<path fill="none" stroke="#404040" d="M555.006,-496.332C550.263,-487.065 545.048,-476.64 540.5,-467 537.703,-461.072 534.88,-454.999 532.056,-448.852"/>
<polygon fill="none" stroke="#404040" points="531.959,-448.639 525.83,-444.84 526.979,-437.721 533.108,-441.52 531.959,-448.639"/>
<text text-anchor="middle" x="584.5" y="-459" font-family="Helvetica,sans-Serif" font-size="10.00"> +m_vectorOfPoints</text>
</g>
<!-- Node5 -->
<g id="node5" class="node"><title>Node5</title>
<g id="a_node5"><a xlink:href="class_point_road.html" target="_top" xlink:title="{PointRoad\n|# m_id\l# m_isNode\l# counter\l|+ id()\l+ infos()\l+ isNode()\l+ outputInfos()\l+ PointRoad()\l+ PointRoad()\l+ setid()\l+ updateBelongToRoad()\l+ vectorOfRoadId()\l}">
<polygon fill="none" stroke="black" points="355,-612.5 355,-779.5 480,-779.5 480,-612.5 355,-612.5"/>
<text text-anchor="middle" x="417.5" y="-767.5" font-family="Helvetica,sans-Serif" font-size="10.00">PointRoad</text>
<polyline fill="none" stroke="black" points="355,-760.5 480,-760.5 "/>
<text text-anchor="start" x="363" y="-748.5" font-family="Helvetica,sans-Serif" font-size="10.00"># m_id</text>
<text text-anchor="start" x="363" y="-737.5" font-family="Helvetica,sans-Serif" font-size="10.00"># m_isNode</text>
<text text-anchor="start" x="363" y="-726.5" font-family="Helvetica,sans-Serif" font-size="10.00"># counter</text>
<polyline fill="none" stroke="black" points="355,-719.5 480,-719.5 "/>
<text text-anchor="start" x="363" y="-707.5" font-family="Helvetica,sans-Serif" font-size="10.00">+ id()</text>
<text text-anchor="start" x="363" y="-696.5" font-family="Helvetica,sans-Serif" font-size="10.00">+ infos()</text>
<text text-anchor="start" x="363" y="-685.5" font-family="Helvetica,sans-Serif" font-size="10.00">+ isNode()</text>
<text text-anchor="start" x="363" y="-674.5" font-family="Helvetica,sans-Serif" font-size="10.00">+ outputInfos()</text>
<text text-anchor="start" x="363" y="-663.5" font-family="Helvetica,sans-Serif" font-size="10.00">+ PointRoad()</text>
<text text-anchor="start" x="363" y="-652.5" font-family="Helvetica,sans-Serif" font-size="10.00">+ PointRoad()</text>
<text text-anchor="start" x="363" y="-641.5" font-family="Helvetica,sans-Serif" font-size="10.00">+ setid()</text>
<text text-anchor="start" x="363" y="-630.5" font-family="Helvetica,sans-Serif" font-size="10.00">+ updateBelongToRoad()</text>
<text text-anchor="start" x="363" y="-619.5" font-family="Helvetica,sans-Serif" font-size="10.00">+ vectorOfRoadId()</text>
</a>
</g>
</g>
<!-- Node5&#45;&gt;Node4 -->
<g id="edge5" class="edge"><title>Node5&#45;&gt;Node4</title>
<path fill="none" stroke="#404040" d="M480.202,-625.286C499.422,-603.916 519.814,-581.243 536.251,-562.968"/>
<polygon fill="none" stroke="#404040" points="536.434,-562.764 537.472,-555.628 544.459,-553.842 543.421,-560.978 536.434,-562.764"/>
<text text-anchor="middle" x="541" y="-586" font-family="Helvetica,sans-Serif" font-size="10.00"> +elements</text>
</g>
<!-- Node10 -->
<g id="node10" class="node"><title>Node10</title>
<polygon fill="none" stroke="#bfbfbf" points="347.5,-485.5 347.5,-564.5 487.5,-564.5 487.5,-485.5 347.5,-485.5"/>
<text text-anchor="start" x="355.5" y="-552.5" font-family="Helvetica,sans-Serif" font-size="10.00">std::unordered_map</text>
<text text-anchor="start" x="355.5" y="-541.5" font-family="Helvetica,sans-Serif" font-size="10.00">&lt; PointRoad, int, hashFunc,</text>
<text text-anchor="middle" x="417.5" y="-530.5" font-family="Helvetica,sans-Serif" font-size="10.00"> equalsFunc &gt;</text>
<polyline fill="none" stroke="#bfbfbf" points="347.5,-523.5 487.5,-523.5 "/>
<text text-anchor="start" x="355.5" y="-511.5" font-family="Helvetica,sans-Serif" font-size="10.00">+ elements</text>
<polyline fill="none" stroke="#bfbfbf" points="347.5,-504.5 487.5,-504.5 "/>
<text text-anchor="middle" x="417.5" y="-492.5" font-family="Helvetica,sans-Serif" font-size="10.00"> </text>
</g>
<!-- Node5&#45;&gt;Node10 -->
<g id="edge11" class="edge"><title>Node5&#45;&gt;Node10</title>
<path fill="none" stroke="#404040" d="M417.5,-612.48C417.5,-600.305 417.5,-588.074 417.5,-576.801"/>
<polygon fill="none" stroke="#404040" points="417.5,-576.534 413.5,-570.534 417.5,-564.534 421.5,-570.534 417.5,-576.534"/>
<text text-anchor="middle" x="433" y="-586" font-family="Helvetica,sans-Serif" font-size="10.00"> +keys</text>
</g>
<!-- Node6 -->
<g id="node6" class="node"><title>Node6</title>
<g id="a_node6"><a xlink:href="class_point.html" target="_top" xlink:title="The Point class. ">
<polygon fill="none" stroke="black" points="210,-827.5 210,-1038.5 329,-1038.5 329,-827.5 210,-827.5"/>
<text text-anchor="middle" x="269.5" y="-1026.5" font-family="Helvetica,sans-Serif" font-size="10.00">Point</text>
<polyline fill="none" stroke="black" points="210,-1019.5 329,-1019.5 "/>
<text text-anchor="start" x="218" y="-1007.5" font-family="Helvetica,sans-Serif" font-size="10.00"># POINT_RADIUS</text>
<polyline fill="none" stroke="black" points="210,-1000.5 329,-1000.5 "/>
<text text-anchor="start" x="218" y="-988.5" font-family="Helvetica,sans-Serif" font-size="10.00">+ distanceToPoint()</text>
<text text-anchor="start" x="218" y="-977.5" font-family="Helvetica,sans-Serif" font-size="10.00">+ distanceToSegment()</text>
<text text-anchor="start" x="218" y="-966.5" font-family="Helvetica,sans-Serif" font-size="10.00">+ infos()</text>
<text text-anchor="start" x="218" y="-955.5" font-family="Helvetica,sans-Serif" font-size="10.00">+ Point()</text>
<text text-anchor="start" x="218" y="-944.5" font-family="Helvetica,sans-Serif" font-size="10.00">+ Point()</text>
<text text-anchor="start" x="218" y="-933.5" font-family="Helvetica,sans-Serif" font-size="10.00">+ samePointAs()</text>
<text text-anchor="start" x="218" y="-922.5" font-family="Helvetica,sans-Serif" font-size="10.00">+ setx()</text>
<text text-anchor="start" x="218" y="-911.5" font-family="Helvetica,sans-Serif" font-size="10.00">+ x()</text>
<text text-anchor="start" x="218" y="-900.5" font-family="Helvetica,sans-Serif" font-size="10.00">+ ~Point()</text>
<text text-anchor="start" x="218" y="-889.5" font-family="Helvetica,sans-Serif" font-size="10.00">* x()</text>
<text text-anchor="start" x="218" y="-878.5" font-family="Helvetica,sans-Serif" font-size="10.00">* setx()</text>
<text text-anchor="start" x="218" y="-867.5" font-family="Helvetica,sans-Serif" font-size="10.00">* y()</text>
<text text-anchor="start" x="218" y="-856.5" font-family="Helvetica,sans-Serif" font-size="10.00">* sety()</text>
<text text-anchor="start" x="218" y="-845.5" font-family="Helvetica,sans-Serif" font-size="10.00">* m_x</text>
<text text-anchor="start" x="218" y="-834.5" font-family="Helvetica,sans-Serif" font-size="10.00">* m_y</text>
</a>
</g>
</g>
<!-- Node6&#45;&gt;Node5 -->
<g id="edge6" class="edge"><title>Node6&#45;&gt;Node5</title>
<path fill="none" stroke="midnightblue" d="M334.454,-828.864C344.823,-812.4 355.432,-795.553 365.452,-779.644"/>
<polygon fill="none" stroke="midnightblue" points="331.425,-827.105 329.058,-837.432 337.348,-830.836 331.425,-827.105"/>
</g>
<!-- Node17 -->
<g id="node17" class="node"><title>Node17</title>
<g id="a_node17"><a xlink:href="class_point_g_p_s.html" target="_top" xlink:title="{PointGPS\n|# m_altitude\l# m_timeStamp\l|+ addEmissionProbability()\l+ altitude()\l+ infos()\l+ PointGPS()\l+ PointGPS()\l+ timeStamp()\l}">
<polygon fill="none" stroke="black" points="16.5,-634.5 16.5,-757.5 150.5,-757.5 150.5,-634.5 16.5,-634.5"/>
<text text-anchor="middle" x="83.5" y="-745.5" font-family="Helvetica,sans-Serif" font-size="10.00">PointGPS</text>
<polyline fill="none" stroke="black" points="16.5,-738.5 150.5,-738.5 "/>
<text text-anchor="start" x="24.5" y="-726.5" font-family="Helvetica,sans-Serif" font-size="10.00"># m_altitude</text>
<text text-anchor="start" x="24.5" y="-715.5" font-family="Helvetica,sans-Serif" font-size="10.00"># m_timeStamp</text>
<polyline fill="none" stroke="black" points="16.5,-708.5 150.5,-708.5 "/>
<text text-anchor="start" x="24.5" y="-696.5" font-family="Helvetica,sans-Serif" font-size="10.00">+ addEmissionProbability()</text>
<text text-anchor="start" x="24.5" y="-685.5" font-family="Helvetica,sans-Serif" font-size="10.00">+ altitude()</text>
<text text-anchor="start" x="24.5" y="-674.5" font-family="Helvetica,sans-Serif" font-size="10.00">+ infos()</text>
<text text-anchor="start" x="24.5" y="-663.5" font-family="Helvetica,sans-Serif" font-size="10.00">+ PointGPS()</text>
<text text-anchor="start" x="24.5" y="-652.5" font-family="Helvetica,sans-Serif" font-size="10.00">+ PointGPS()</text>
<text text-anchor="start" x="24.5" y="-641.5" font-family="Helvetica,sans-Serif" font-size="10.00">+ timeStamp()</text>
</a>
</g>
</g>
<!-- Node6&#45;&gt;Node17 -->
<g id="edge21" class="edge"><title>Node6&#45;&gt;Node17</title>
<path fill="none" stroke="midnightblue" d="M212.73,-818.941C207.053,-811.481 200.972,-804.402 194.5,-798 182.622,-786.251 174.72,-790.215 161.5,-780 152.894,-773.35 144.386,-765.726 136.33,-757.854"/>
<polygon fill="none" stroke="midnightblue" points="210.013,-821.155 218.732,-827.173 215.669,-817.031 210.013,-821.155"/>
</g>
<!-- Node7 -->
<g id="node7" class="node"><title>Node7</title>
<polygon fill="none" stroke="#bfbfbf" points="368,-904.5 368,-961.5 467,-961.5 467,-904.5 368,-904.5"/>
<text text-anchor="middle" x="417.5" y="-949.5" font-family="Helvetica,sans-Serif" font-size="10.00">std::vector&lt; long &gt;</text>
<polyline fill="none" stroke="#bfbfbf" points="368,-942.5 467,-942.5 "/>
<text text-anchor="start" x="376" y="-930.5" font-family="Helvetica,sans-Serif" font-size="10.00">+ elements</text>
<polyline fill="none" stroke="#bfbfbf" points="368,-923.5 467,-923.5 "/>
<text text-anchor="middle" x="417.5" y="-911.5" font-family="Helvetica,sans-Serif" font-size="10.00"> </text>
</g>
<!-- Node7&#45;&gt;Node5 -->
<g id="edge7" class="edge"><title>Node7&#45;&gt;Node5</title>
<path fill="none" stroke="#404040" d="M417.5,-904.12C417.5,-876.349 417.5,-832.135 417.5,-791.676"/>
<polygon fill="none" stroke="#404040" points="417.5,-791.544 413.5,-785.544 417.5,-779.544 421.5,-785.544 417.5,-791.544"/>
<text text-anchor="middle" x="463" y="-801" font-family="Helvetica,sans-Serif" font-size="10.00"> #m_vectorOfRoadId</text>
</g>
<!-- Node8 -->
<g id="node8" class="node"><title>Node8</title>
<g id="a_node8"><a xlink:title="STL class. ">
<polygon fill="none" stroke="#bfbfbf" points="188.5,-496.5 188.5,-553.5 248.5,-553.5 248.5,-496.5 188.5,-496.5"/>
<text text-anchor="middle" x="218.5" y="-541.5" font-family="Helvetica,sans-Serif" font-size="10.00">std::string</text>
<polyline fill="none" stroke="#bfbfbf" points="188.5,-534.5 248.5,-534.5 "/>
<text text-anchor="middle" x="218.5" y="-522.5" font-family="Helvetica,sans-Serif" font-size="10.00"> </text>
<polyline fill="none" stroke="#bfbfbf" points="188.5,-515.5 248.5,-515.5 "/>
<text text-anchor="middle" x="218.5" y="-503.5" font-family="Helvetica,sans-Serif" font-size="10.00"> </text>
</a>
</g>
</g>
<!-- Node8&#45;&gt;Node3 -->
<g id="edge8" class="edge"><title>Node8&#45;&gt;Node3</title>
<path fill="none" stroke="#404040" d="M247.175,-496.361C260.451,-483.807 276.561,-468.911 291.5,-456 329.092,-423.513 372.498,-388.655 407.379,-361.259"/>
<polygon fill="none" stroke="#404040" points="407.533,-361.139 409.79,-354.29 416.98,-353.738 414.723,-360.587 407.533,-361.139"/>
<text text-anchor="middle" x="331.5" y="-459" font-family="Helvetica,sans-Serif" font-size="10.00"> #m_gridFullName</text>
</g>
<!-- Node8&#45;&gt;Node15 -->
<g id="edge18" class="edge"><title>Node8&#45;&gt;Node15</title>
<path fill="none" stroke="#404040" d="M188.468,-507.168C167.505,-494.715 142.283,-478.063 136.5,-467 131.77,-457.951 129.35,-448.372 128.685,-438.589"/>
<polygon fill="none" stroke="#404040" points="128.685,-438.578 124.696,-432.57 128.707,-426.578 132.696,-432.585 128.685,-438.578"/>
<text text-anchor="middle" x="179.5" y="-459" font-family="Helvetica,sans-Serif" font-size="10.00"> #m_trackFullName</text>
</g>
<!-- Node9 -->
<g id="node9" class="node"><title>Node9</title>
<g id="a_node9"><a xlink:title="STL class. ">
<polygon fill="none" stroke="#bfbfbf" points="171,-662 171,-730 266,-730 266,-662 171,-662"/>
<text text-anchor="start" x="179" y="-718" font-family="Helvetica,sans-Serif" font-size="10.00">std::basic_string&lt;</text>
<text text-anchor="middle" x="218.5" y="-707" font-family="Helvetica,sans-Serif" font-size="10.00"> char &gt;</text>
<polyline fill="none" stroke="#bfbfbf" points="171,-700 266,-700 "/>
<text text-anchor="middle" x="218.5" y="-688" font-family="Helvetica,sans-Serif" font-size="10.00"> </text>
<polyline fill="none" stroke="#bfbfbf" points="171,-681 266,-681 "/>
<text text-anchor="middle" x="218.5" y="-669" font-family="Helvetica,sans-Serif" font-size="10.00"> </text>
</a>
</g>
</g>
<!-- Node9&#45;&gt;Node8 -->
<g id="edge9" class="edge"><title>Node9&#45;&gt;Node8</title>
<path fill="none" stroke="midnightblue" d="M218.5,-651.56C218.5,-620.735 218.5,-580.277 218.5,-553.729"/>
<polygon fill="none" stroke="midnightblue" points="215,-651.611 218.5,-661.611 222,-651.611 215,-651.611"/>
</g>
<!-- Node10&#45;&gt;Node3 -->
<g id="edge10" class="edge"><title>Node10&#45;&gt;Node3</title>
<path fill="none" stroke="#404040" d="M419.313,-485.286C420.203,-475.652 421.528,-465.395 423.5,-456 423.951,-453.851 424.425,-451.689 424.918,-449.517"/>
<polygon fill="none" stroke="#404040" points="424.922,-449.5 422.441,-442.729 427.736,-437.835 430.218,-444.606 424.922,-449.5"/>
<text text-anchor="middle" x="470.5" y="-459" font-family="Helvetica,sans-Serif" font-size="10.00"> #m_mapOfExtPoints</text>
</g>
<!-- Node11 -->
<g id="node11" class="node"><title>Node11</title>
<polygon fill="none" stroke="#bfbfbf" points="651,-491 651,-559 754,-559 754,-491 651,-491"/>
<text text-anchor="start" x="659" y="-547" font-family="Helvetica,sans-Serif" font-size="10.00">std::unordered_map</text>
<text text-anchor="middle" x="702.5" y="-536" font-family="Helvetica,sans-Serif" font-size="10.00">&lt; long, Road &gt;</text>
<polyline fill="none" stroke="#bfbfbf" points="651,-529 754,-529 "/>
<text text-anchor="start" x="659" y="-517" font-family="Helvetica,sans-Serif" font-size="10.00">+ keys</text>
<polyline fill="none" stroke="#bfbfbf" points="651,-510 754,-510 "/>
<text text-anchor="middle" x="702.5" y="-498" font-family="Helvetica,sans-Serif" font-size="10.00"> </text>
</g>
<!-- Node11&#45;&gt;Node3 -->
<g id="edge12" class="edge"><title>Node11&#45;&gt;Node3</title>
<path fill="none" stroke="#404040" d="M668.903,-490.904C657.437,-479.732 644.485,-467.245 632.5,-456 601.542,-426.952 566.664,-395.229 537.392,-368.882"/>
<polygon fill="none" stroke="#404040" points="537.022,-368.55 529.885,-367.513 528.097,-360.527 535.233,-361.564 537.022,-368.55"/>
<text text-anchor="middle" x="690.5" y="-459" font-family="Helvetica,sans-Serif" font-size="10.00"> +m_mapOfAllRoads</text>
</g>
<!-- Node12 -->
<g id="node12" class="node"><title>Node12</title>
<g id="a_node12"><a xlink:href="class_road.html" target="_top" xlink:title="Road is an element of a network. Road are strongly linked with Points. ">
<polygon fill="none" stroke="black" points="646,-612.5 646,-779.5 759,-779.5 759,-612.5 646,-612.5"/>
<text text-anchor="middle" x="702.5" y="-767.5" font-family="Helvetica,sans-Serif" font-size="10.00">Road</text>
<polyline fill="none" stroke="black" points="646,-760.5 759,-760.5 "/>
<text text-anchor="start" x="654" y="-748.5" font-family="Helvetica,sans-Serif" font-size="10.00"># m_edgeId</text>
<polyline fill="none" stroke="black" points="646,-741.5 759,-741.5 "/>
<text text-anchor="start" x="654" y="-729.5" font-family="Helvetica,sans-Serif" font-size="10.00">+ addNeighbor()</text>
<text text-anchor="start" x="654" y="-718.5" font-family="Helvetica,sans-Serif" font-size="10.00">+ addPoint()</text>
<text text-anchor="start" x="654" y="-707.5" font-family="Helvetica,sans-Serif" font-size="10.00">+ edgeId()</text>
<text text-anchor="start" x="654" y="-696.5" font-family="Helvetica,sans-Serif" font-size="10.00">+ getListOfPoints()</text>
<text text-anchor="start" x="654" y="-685.5" font-family="Helvetica,sans-Serif" font-size="10.00">+ getm_edgeId()</text>
<text text-anchor="start" x="654" y="-674.5" font-family="Helvetica,sans-Serif" font-size="10.00">+ getNoOfNeighbors()</text>
<text text-anchor="start" x="654" y="-663.5" font-family="Helvetica,sans-Serif" font-size="10.00">+ outputInfos()</text>
<text text-anchor="start" x="654" y="-652.5" font-family="Helvetica,sans-Serif" font-size="10.00">+ Road()</text>
<text text-anchor="start" x="654" y="-641.5" font-family="Helvetica,sans-Serif" font-size="10.00">+ Road()</text>
<text text-anchor="start" x="654" y="-630.5" font-family="Helvetica,sans-Serif" font-size="10.00">+ vectorOfPointsId()</text>
<text text-anchor="start" x="654" y="-619.5" font-family="Helvetica,sans-Serif" font-size="10.00">+ ~Road()</text>
</a>
</g>
</g>
<!-- Node12&#45;&gt;Node11 -->
<g id="edge13" class="edge"><title>Node12&#45;&gt;Node11</title>
<path fill="none" stroke="#404040" d="M702.5,-612.48C702.5,-598.278 702.5,-584.001 702.5,-571.256"/>
<polygon fill="none" stroke="#404040" points="702.5,-571.08 698.5,-565.08 702.5,-559.08 706.5,-565.08 702.5,-571.08"/>
<text text-anchor="middle" x="727" y="-586" font-family="Helvetica,sans-Serif" font-size="10.00"> +elements</text>
</g>
<!-- Node13 -->
<g id="node13" class="node"><title>Node13</title>
<polygon fill="none" stroke="#bfbfbf" points="718.5,-904.5 718.5,-961.5 804.5,-961.5 804.5,-904.5 718.5,-904.5"/>
<text text-anchor="middle" x="761.5" y="-949.5" font-family="Helvetica,sans-Serif" font-size="10.00">std::set&lt; long &gt;</text>
<polyline fill="none" stroke="#bfbfbf" points="718.5,-942.5 804.5,-942.5 "/>
<text text-anchor="start" x="726.5" y="-930.5" font-family="Helvetica,sans-Serif" font-size="10.00">+ keys</text>
<polyline fill="none" stroke="#bfbfbf" points="718.5,-923.5 804.5,-923.5 "/>
<text text-anchor="middle" x="761.5" y="-911.5" font-family="Helvetica,sans-Serif" font-size="10.00"> </text>
</g>
<!-- Node13&#45;&gt;Node12 -->
<g id="edge14" class="edge"><title>Node13&#45;&gt;Node12</title>
<path fill="none" stroke="#404040" d="M758.521,-904.479C755.205,-877.165 749.026,-834.254 739.5,-798 738.904,-795.731 738.277,-793.442 737.624,-791.139"/>
<polygon fill="none" stroke="#404040" points="737.598,-791.05 732.047,-786.446 734.162,-779.552 739.713,-784.156 737.598,-791.05"/>
<text text-anchor="middle" x="788" y="-801" font-family="Helvetica,sans-Serif" font-size="10.00"> #m_setOfNeighbors</text>
</g>
<!-- Node14 -->
<g id="node14" class="node"><title>Node14</title>
<polygon fill="none" stroke="#bfbfbf" points="596.5,-904.5 596.5,-961.5 688.5,-961.5 688.5,-904.5 596.5,-904.5"/>
<text text-anchor="middle" x="642.5" y="-949.5" font-family="Helvetica,sans-Serif" font-size="10.00">std::vector&lt; int &gt;</text>
<polyline fill="none" stroke="#bfbfbf" points="596.5,-942.5 688.5,-942.5 "/>
<text text-anchor="start" x="604.5" y="-930.5" font-family="Helvetica,sans-Serif" font-size="10.00">+ elements</text>
<polyline fill="none" stroke="#bfbfbf" points="596.5,-923.5 688.5,-923.5 "/>
<text text-anchor="middle" x="642.5" y="-911.5" font-family="Helvetica,sans-Serif" font-size="10.00"> </text>
</g>
<!-- Node14&#45;&gt;Node12 -->
<g id="edge15" class="edge"><title>Node14&#45;&gt;Node12</title>
<path fill="none" stroke="#404040" d="M637.188,-904.443C632.963,-876.918 629.284,-833.681 639.5,-798 640.161,-795.69 640.892,-793.382 641.686,-791.08"/>
<polygon fill="none" stroke="#404040" points="641.784,-790.826 640.231,-783.784 646.134,-779.642 647.687,-786.684 641.784,-790.826"/>
<text text-anchor="middle" x="687.5" y="-801" font-family="Helvetica,sans-Serif" font-size="10.00"> #m_vectorOfPointsId</text>
</g>
<!-- Node15&#45;&gt;Node1 -->
<g id="edge16" class="edge"><title>Node15&#45;&gt;Node1</title>
<path fill="none" stroke="#404040" d="M249.789,-216.67C269.733,-193.097 293.441,-169.724 319.5,-153 390.675,-107.323 486.863,-85.8772 550.472,-76.1292"/>
<polygon fill="none" stroke="#404040" points="550.869,-76.0711 556.226,-71.2437 562.742,-74.3319 557.385,-79.1593 550.869,-76.0711"/>
<text text-anchor="middle" x="335" y="-156" font-family="Helvetica,sans-Serif" font-size="10.00"> +track</text>
</g>
<!-- Node16 -->
<g id="node16" class="node"><title>Node16</title>
<polygon fill="none" stroke="#bfbfbf" points="15,-496.5 15,-553.5 146,-553.5 146,-496.5 15,-496.5"/>
<text text-anchor="middle" x="80.5" y="-541.5" font-family="Helvetica,sans-Serif" font-size="10.00">std::vector&lt; PointGPS * &gt;</text>
<polyline fill="none" stroke="#bfbfbf" points="15,-534.5 146,-534.5 "/>
<text text-anchor="middle" x="80.5" y="-522.5" font-family="Helvetica,sans-Serif" font-size="10.00"> </text>
<polyline fill="none" stroke="#bfbfbf" points="15,-515.5 146,-515.5 "/>
<text text-anchor="middle" x="80.5" y="-503.5" font-family="Helvetica,sans-Serif" font-size="10.00"> </text>
</g>
<!-- Node16&#45;&gt;Node15 -->
<g id="edge19" class="edge"><title>Node16&#45;&gt;Node15</title>
<path fill="none" stroke="#404040" d="M76.6439,-496.253C75.8654,-483.677 76.3224,-468.794 80.5,-456 88.2361,-432.309 101.473,-409.278 116.023,-388.804"/>
<polygon fill="none" stroke="#404040" points="116.146,-388.636 116.476,-381.433 123.252,-378.967 122.922,-386.17 116.146,-388.636"/>
<text text-anchor="middle" x="105" y="-459" font-family="Helvetica,sans-Serif" font-size="10.00"> #m_points</text>
</g>
<!-- Node17&#45;&gt;Node16 -->
<g id="edge20" class="edge"><title>Node17&#45;&gt;Node16</title>
<path fill="none" stroke="#404040" d="M82.4254,-634.464C82.0188,-611.562 81.5668,-586.099 81.203,-565.602"/>
<polygon fill="none" stroke="#404040" points="81.2021,-565.548 77.0962,-559.62 80.989,-553.55 85.095,-559.478 81.2021,-565.548"/>
<text text-anchor="middle" x="107" y="-586" font-family="Helvetica,sans-Serif" font-size="10.00"> +elements</text>
</g>
<!-- Node18 -->
<g id="node18" class="node"><title>Node18</title>
<polygon fill="none" stroke="#bfbfbf" points="0,-904.5 0,-961.5 167,-961.5 167,-904.5 0,-904.5"/>
<text text-anchor="middle" x="83.5" y="-949.5" font-family="Helvetica,sans-Serif" font-size="10.00">std::vector&lt; EmissionProbability &gt;</text>
<polyline fill="none" stroke="#bfbfbf" points="0,-942.5 167,-942.5 "/>
<text text-anchor="middle" x="83.5" y="-930.5" font-family="Helvetica,sans-Serif" font-size="10.00"> </text>
<polyline fill="none" stroke="#bfbfbf" points="0,-923.5 167,-923.5 "/>
<text text-anchor="middle" x="83.5" y="-911.5" font-family="Helvetica,sans-Serif" font-size="10.00"> </text>
</g>
<!-- Node18&#45;&gt;Node17 -->
<g id="edge22" class="edge"><title>Node18&#45;&gt;Node17</title>
<path fill="none" stroke="#404040" d="M83.5,-904.12C83.5,-871.266 83.5,-815.397 83.5,-769.959"/>
<polygon fill="none" stroke="#404040" points="83.5001,-769.75 79.5,-763.75 83.5,-757.75 87.5,-763.75 83.5001,-769.75"/>
<text text-anchor="middle" x="137" y="-801" font-family="Helvetica,sans-Serif" font-size="10.00"> #m_emissionProbability</text>
</g>
<!-- Node19 -->
<g id="node19" class="node"><title>Node19</title>
<g id="a_node19"><a xlink:href="class_emission_probability.html" target="_top" xlink:title="{EmissionProbability\n|# m_distance\l# m_probability\l# m_roadId\l|+ EmissionProbability()\l+ updateProbability()\l}">
<polygon fill="none" stroke="black" points="24.5,-1086.5 24.5,-1176.5 142.5,-1176.5 142.5,-1086.5 24.5,-1086.5"/>
<text text-anchor="middle" x="83.5" y="-1164.5" font-family="Helvetica,sans-Serif" font-size="10.00">EmissionProbability</text>
<polyline fill="none" stroke="black" points="24.5,-1157.5 142.5,-1157.5 "/>
<text text-anchor="start" x="32.5" y="-1145.5" font-family="Helvetica,sans-Serif" font-size="10.00"># m_distance</text>
<text text-anchor="start" x="32.5" y="-1134.5" font-family="Helvetica,sans-Serif" font-size="10.00"># m_probability</text>
<text text-anchor="start" x="32.5" y="-1123.5" font-family="Helvetica,sans-Serif" font-size="10.00"># m_roadId</text>
<polyline fill="none" stroke="black" points="24.5,-1116.5 142.5,-1116.5 "/>
<text text-anchor="start" x="32.5" y="-1104.5" font-family="Helvetica,sans-Serif" font-size="10.00">+ EmissionProbability()</text>
<text text-anchor="start" x="32.5" y="-1093.5" font-family="Helvetica,sans-Serif" font-size="10.00">+ updateProbability()</text>
</a>
</g>
</g>
<!-- Node19&#45;&gt;Node18 -->
<g id="edge23" class="edge"><title>Node19&#45;&gt;Node18</title>
<path fill="none" stroke="#404040" d="M83.5,-1086.4C83.5,-1052.64 83.5,-1006.47 83.5,-973.816"/>
<polygon fill="none" stroke="#404040" points="83.5001,-973.589 79.5,-967.589 83.5,-961.589 87.5,-967.589 83.5001,-973.589"/>
<text text-anchor="middle" x="108" y="-1060" font-family="Helvetica,sans-Serif" font-size="10.00"> +elements</text>
</g>
<!-- Node20 -->
<g id="node20" class="node"><title>Node20</title>
<g id="a_node20"><a xlink:title="STL class. ">
<polygon fill="none" stroke="#bfbfbf" points="739,-276 739,-344 842,-344 842,-276 739,-276"/>
<text text-anchor="start" x="747" y="-332" font-family="Helvetica,sans-Serif" font-size="10.00">std::unordered_map</text>
<text text-anchor="middle" x="790.5" y="-321" font-family="Helvetica,sans-Serif" font-size="10.00">&lt; K, T &gt;</text>
<polyline fill="none" stroke="#bfbfbf" points="739,-314 842,-314 "/>
<text text-anchor="middle" x="790.5" y="-302" font-family="Helvetica,sans-Serif" font-size="10.00"> </text>
<polyline fill="none" stroke="#bfbfbf" points="739,-295 842,-295 "/>
<text text-anchor="middle" x="790.5" y="-283" font-family="Helvetica,sans-Serif" font-size="10.00"> </text>
</a>
</g>
</g>
<!-- Node20&#45;&gt;Node1 -->
<g id="edge25" class="edge"><title>Node20&#45;&gt;Node1</title>
<path fill="none" stroke="#404040" d="M773.429,-275.842C759.379,-249.575 738.296,-212.374 716.5,-182 705.496,-166.665 692.825,-150.953 680.304,-136.297"/>
<polygon fill="none" stroke="#404040" points="679.967,-135.907 673.016,-133.987 672.116,-126.832 679.067,-128.753 679.967,-135.907"/>
<text text-anchor="middle" x="726" y="-156" font-family="Helvetica,sans-Serif" font-size="10.00"> +m_roads</text>
</g>
<!-- Node21 -->
<g id="node21" class="node"><title>Node21</title>
<polygon fill="none" stroke="#bfbfbf" points="776,-496.5 776,-553.5 805,-553.5 805,-496.5 776,-496.5"/>
<text text-anchor="middle" x="790.5" y="-541.5" font-family="Helvetica,sans-Serif" font-size="10.00">K</text>
<polyline fill="none" stroke="#bfbfbf" points="776,-534.5 805,-534.5 "/>
<text text-anchor="middle" x="790.5" y="-522.5" font-family="Helvetica,sans-Serif" font-size="10.00"> </text>
<polyline fill="none" stroke="#bfbfbf" points="776,-515.5 805,-515.5 "/>
<text text-anchor="middle" x="790.5" y="-503.5" font-family="Helvetica,sans-Serif" font-size="10.00"> </text>
</g>
<!-- Node21&#45;&gt;Node20 -->
<g id="edge26" class="edge"><title>Node21&#45;&gt;Node20</title>
<path fill="none" stroke="#404040" d="M790.5,-496.154C790.5,-460.616 790.5,-398.678 790.5,-356.304"/>
<polygon fill="none" stroke="#404040" points="790.5,-356.102 786.5,-350.102 790.5,-344.102 794.5,-350.102 790.5,-356.102"/>
<text text-anchor="middle" x="806" y="-459" font-family="Helvetica,sans-Serif" font-size="10.00"> +keys</text>
</g>
<!-- Node22 -->
<g id="node22" class="node"><title>Node22</title>
<polygon fill="none" stroke="#bfbfbf" points="866,-496.5 866,-553.5 895,-553.5 895,-496.5 866,-496.5"/>
<text text-anchor="middle" x="880.5" y="-541.5" font-family="Helvetica,sans-Serif" font-size="10.00">T</text>
<polyline fill="none" stroke="#bfbfbf" points="866,-534.5 895,-534.5 "/>
<text text-anchor="middle" x="880.5" y="-522.5" font-family="Helvetica,sans-Serif" font-size="10.00"> </text>
<polyline fill="none" stroke="#bfbfbf" points="866,-515.5 895,-515.5 "/>
<text text-anchor="middle" x="880.5" y="-503.5" font-family="Helvetica,sans-Serif" font-size="10.00"> </text>
</g>
<!-- Node22&#45;&gt;Node20 -->
<g id="edge27" class="edge"><title>Node22&#45;&gt;Node20</title>
<path fill="none" stroke="#404040" d="M865.901,-505.571C857.884,-494.793 848.233,-480.658 841.5,-467 823.793,-431.081 810.157,-387.582 801.458,-355.652"/>
<polygon fill="none" stroke="#404040" points="801.45,-355.619 796.043,-350.847 798.368,-344.021 803.775,-348.793 801.45,-355.619"/>
<text text-anchor="middle" x="866" y="-459" font-family="Helvetica,sans-Serif" font-size="10.00"> +elements</text>
</g>
<!-- Node23 -->
<g id="node23" class="node"><title>Node23</title>
<g id="a_node23"><a xlink:title="STL class. ">
<polygon fill="none" stroke="#bfbfbf" points="866,-281.5 866,-338.5 953,-338.5 953,-281.5 866,-281.5"/>
<text text-anchor="middle" x="909.5" y="-326.5" font-family="Helvetica,sans-Serif" font-size="10.00">std::vector&lt; T &gt;</text>
<polyline fill="none" stroke="#bfbfbf" points="866,-319.5 953,-319.5 "/>
<text text-anchor="middle" x="909.5" y="-307.5" font-family="Helvetica,sans-Serif" font-size="10.00"> </text>
<polyline fill="none" stroke="#bfbfbf" points="866,-300.5 953,-300.5 "/>
<text text-anchor="middle" x="909.5" y="-288.5" font-family="Helvetica,sans-Serif" font-size="10.00"> </text>
</a>
</g>
</g>
<!-- Node22&#45;&gt;Node23 -->
<g id="edge29" class="edge"><title>Node22&#45;&gt;Node23</title>
<path fill="none" stroke="#404040" d="M888.149,-496.337C890.482,-487.071 892.861,-476.644 894.5,-467 901.151,-427.865 905.093,-382.668 907.254,-351.03"/>
<polygon fill="none" stroke="#404040" points="907.272,-350.751 903.668,-344.505 908.048,-338.776 911.651,-345.022 907.272,-350.751"/>
<text text-anchor="middle" x="921" y="-459" font-family="Helvetica,sans-Serif" font-size="10.00"> +elements</text>
</g>
<!-- Node23&#45;&gt;Node1 -->
<g id="edge28" class="edge"><title>Node23&#45;&gt;Node1</title>
<path fill="none" stroke="#404040" d="M902.561,-281.313C894.289,-253.229 878.007,-210.018 850.5,-182 804.44,-135.085 735.052,-104.749 683.972,-87.3508"/>
<polygon fill="none" stroke="#404040" points="683.781,-87.2877 676.828,-89.2009 672.388,-83.5189 679.341,-81.6057 683.781,-87.2877"/>
<text text-anchor="middle" x="867" y="-156" font-family="Helvetica,sans-Serif" font-size="10.00"> +m_trackPoints</text>
</g>
</g>
</svg>
        <g id="navigator" transform="translate(0 0)" fill="#404254">
                <rect fill="#f2f5e9" fill-opacity="0.5" stroke="#606060" stroke-width=".5" x="0" y="0" width="60" height="60"/>
                <use id="zoomplus" xlink:href="#zoomPlus" x="17" y="9" onmousedown="handleZoom(evt,'in')"/>
                <use id="zoomminus" xlink:href="#zoomMin" x="42" y="9" onmousedown="handleZoom(evt,'out')"/>
                <use id="reset" xlink:href="#resetDef" x="30" y="36" onmousedown="handleReset()"/>
                <g id="arrowUp" xlink:href="#dirArrow" transform="translate(30 24)" onmousedown="handlePan(0,-1)">
                  <use xlink:href="#rim" fill="#404040">
                        <set attributeName="fill" to="#808080" begin="arrowUp.mouseover" end="arrowUp.mouseout"/>
                  </use>
                  <path fill="none" stroke="white" stroke-width="1.5" d="M0,-3.0v7 M-2.5,-0.5L0,-3.0L2.5,-0.5"/>
                </g>
                <g id="arrowRight" xlink:href="#dirArrow" transform="rotate(90) translate(36 -43)" onmousedown="handlePan(1,0)">
                  <use xlink:href="#rim" fill="#404040">
                        <set attributeName="fill" to="#808080" begin="arrowRight.mouseover" end="arrowRight.mouseout"/>
                  </use>
                  <path fill="none" stroke="white" stroke-width="1.5" d="M0,-3.0v7 M-2.5,-0.5L0,-3.0L2.5,-0.5"/>
                </g>
                <g id="arrowDown" xlink:href="#dirArrow" transform="rotate(180) translate(-30 -48)" onmousedown="handlePan(0,1)">
                  <use xlink:href="#rim" fill="#404040">
                        <set attributeName="fill" to="#808080" begin="arrowDown.mouseover" end="arrowDown.mouseout"/>
                  </use>
                  <path fill="none" stroke="white" stroke-width="1.5" d="M0,-3.0v7 M-2.5,-0.5L0,-3.0L2.5,-0.5"/>
                </g>
                <g id="arrowLeft" xlink:href="#dirArrow" transform="rotate(270) translate(-36 17)" onmousedown="handlePan(-1,0)">
                  <use xlink:href="#rim" fill="#404040">
                        <set attributeName="fill" to="#808080" begin="arrowLeft.mouseover" end="arrowLeft.mouseout"/>
                  </use>
                  <path fill="none" stroke="white" stroke-width="1.5" d="M0,-3.0v7 M-2.5,-0.5L0,-3.0L2.5,-0.5"/>
                </g>
        </g>
        <svg viewBox="0 0 15 15" width="100%" height="30px" preserveAspectRatio="xMaxYMin meet">
         <g id="arrow_out" transform="scale(0.3 0.3)">
          <a xlink:href="class_solver__coll__graph_org.svg" target="_base">
           <rect id="button" ry="5" rx="5" y="6" x="6" height="38" width="38"
                fill="#f2f5e9" fill-opacity="0.5" stroke="#606060" stroke-width="1.0"/>
           <path id="arrow"
             d="M 11.500037,31.436501 C 11.940474,20.09759 22.043105,11.32322 32.158766,21.979434 L 37.068811,17.246167 C 37.068811,17.246167 37.088388,32 37.088388,32 L 22.160133,31.978069 C 22.160133,31.978069 26.997745,27.140456 26.997745,27.140456 C 18.528582,18.264221 13.291696,25.230495 11.500037,31.436501 z"
             style="fill:#404040;"/>
          </a>
         </g>
        </svg>
</svg>
