<?xml version="1.0" encoding="UTF-8" standalone="no"?>
<!DOCTYPE svg PUBLIC "-//W3C//DTD SVG 1.1//EN"
 "http://www.w3.org/Graphics/SVG/1.1/DTD/svg11.dtd">
<!-- Generated by graphviz version 2.38.0 (20140413.2041)
 -->
<!-- Title: Point::samePointAs Pages: 1 -->
<svg width="814pt" height="148pt"
 viewBox="0.00 0.00 814.00 148.00" xmlns="http://www.w3.org/2000/svg" xmlns:xlink="http://www.w3.org/1999/xlink">
<g id="graph0" class="graph" transform="scale(1 1) rotate(0) translate(4 144)">
<title>Point::samePointAs</title>
<!-- Node1 -->
<g id="node1" class="node"><title>Node1</title>
<polygon fill="#bfbfbf" stroke="black" points="0,-38.5 0,-57.5 104,-57.5 104,-38.5 0,-38.5"/>
<text text-anchor="middle" x="52" y="-45.5" font-family="Helvetica,sans-Serif" font-size="10.00">Point::samePointAs</text>
</g>
<!-- Node2 -->
<g id="node2" class="node"><title>Node2</title>
<g id="a_node2"><a xlink:href="structequals_func.html#a20bec4534ac20aba8bd6652318f35ac8" target="_top" xlink:title="equalsFunc::operator()">
<polygon fill="none" stroke="black" points="149,-76.5 149,-95.5 263,-95.5 263,-76.5 149,-76.5"/>
<text text-anchor="middle" x="206" y="-83.5" font-family="Helvetica,sans-Serif" font-size="10.00">equalsFunc::operator()</text>
</a>
</g>
</g>
<!-- Node1&#45;&gt;Node2 -->
<g id="edge1" class="edge"><title>Node1&#45;&gt;Node2</title>
<path fill="none" stroke="midnightblue" d="M101.16,-60.04C122.395,-65.3488 146.995,-71.4988 166.92,-76.4799"/>
<polygon fill="midnightblue" stroke="midnightblue" points="101.906,-56.6189 91.356,-57.589 100.209,-63.4099 101.906,-56.6189"/>
</g>
<!-- Node3 -->
<g id="node3" class="node"><title>Node3</title>
<g id="a_node3"><a xlink:href="class_point.html#a39daa6ebd31cdc2d7151db77bfdf2166" target="_top" xlink:title="Compute the distance between a point and a segment. ">
<polygon fill="none" stroke="black" points="140,-38.5 140,-57.5 272,-57.5 272,-38.5 140,-38.5"/>
<text text-anchor="middle" x="206" y="-45.5" font-family="Helvetica,sans-Serif" font-size="10.00">Point::distanceToSegment</text>
</a>
</g>
</g>
<!-- Node1&#45;&gt;Node3 -->
<g id="edge2" class="edge"><title>Node1&#45;&gt;Node3</title>
<path fill="none" stroke="midnightblue" d="M114.168,-48C122.602,-48 131.289,-48 139.792,-48"/>
<polygon fill="midnightblue" stroke="midnightblue" points="114.037,-44.5001 104.037,-48 114.037,-51.5001 114.037,-44.5001"/>
</g>
<!-- Node8 -->
<g id="node8" class="node"><title>Node8</title>
<g id="a_node8"><a xlink:href="class_point.html#a364091762d6aa1aa5983d36fd7d8b6d5" target="_top" xlink:title="Point Class&#39;s Destructor. ">
<polygon fill="none" stroke="black" points="335,-0.5 335,-19.5 409,-19.5 409,-0.5 335,-0.5"/>
<text text-anchor="middle" x="372" y="-7.5" font-family="Helvetica,sans-Serif" font-size="10.00">Point::~Point</text>
</a>
</g>
</g>
<!-- Node1&#45;&gt;Node8 -->
<g id="edge11" class="edge"><title>Node1&#45;&gt;Node8</title>
<path fill="none" stroke="midnightblue" d="M101.175,-36.2838C113.751,-33.5544 127.332,-30.8957 140,-29 208.45,-18.757 289.197,-13.7011 334.818,-11.486"/>
<polygon fill="midnightblue" stroke="midnightblue" points="100.341,-32.8837 91.3417,-38.4745 101.864,-39.7162 100.341,-32.8837"/>
</g>
<!-- Node4 -->
<g id="node4" class="node"><title>Node4</title>
<g id="a_node4"><a xlink:href="class_grid.html#a8923d001226c9c9d4e19ac17a40ff44b" target="_top" xlink:title="Grid::getDistanceToExtremity">
<polygon fill="none" stroke="black" points="472,-120.5 472,-139.5 618,-139.5 618,-120.5 472,-120.5"/>
<text text-anchor="middle" x="545" y="-127.5" font-family="Helvetica,sans-Serif" font-size="10.00">Grid::getDistanceToExtremity</text>
</a>
</g>
</g>
<!-- Node3&#45;&gt;Node4 -->
<g id="edge3" class="edge"><title>Node3&#45;&gt;Node4</title>
<path fill="none" stroke="midnightblue" d="M260.691,-61.1716C264.628,-62.8932 268.445,-64.828 272,-67 291.853,-79.1283 287.143,-94.6931 308,-105 358.789,-130.099 423.102,-135.448 471.76,-135.023"/>
<polygon fill="midnightblue" stroke="midnightblue" points="261.939,-57.9016 251.35,-57.5302 259.396,-64.4235 261.939,-57.9016"/>
</g>
<!-- Node6 -->
<g id="node6" class="node"><title>Node6</title>
<g id="a_node6"><a xlink:href="class_grid.html#a459ceb14878d0bb3c40286c0eb3df2fd" target="_top" xlink:title="Grid::getSegmentCounter">
<polygon fill="none" stroke="black" points="308,-76.5 308,-95.5 436,-95.5 436,-76.5 308,-76.5"/>
<text text-anchor="middle" x="372" y="-83.5" font-family="Helvetica,sans-Serif" font-size="10.00">Grid::getSegmentCounter</text>
</a>
</g>
</g>
<!-- Node3&#45;&gt;Node6 -->
<g id="edge5" class="edge"><title>Node3&#45;&gt;Node6</title>
<path fill="none" stroke="midnightblue" d="M258.341,-59.8961C281.393,-65.2374 308.221,-71.4537 329.913,-76.4799"/>
<polygon fill="midnightblue" stroke="midnightblue" points="258.916,-56.4367 248.384,-57.589 257.336,-63.256 258.916,-56.4367"/>
</g>
<!-- Node3&#45;&gt;Node8 -->
<g id="edge8" class="edge"><title>Node3&#45;&gt;Node8</title>
<path fill="none" stroke="midnightblue" d="M258.379,-36.0952C283.234,-30.3361 312.472,-23.5615 334.927,-18.3584"/>
<polygon fill="midnightblue" stroke="midnightblue" points="257.336,-32.744 248.384,-38.411 258.916,-39.5633 257.336,-32.744"/>
</g>
<!-- Node9 -->
<g id="node9" class="node"><title>Node9</title>
<g id="a_node9"><a xlink:href="class_solver.html#ac93808d9f79208e9917830d0ff0a5dfd" target="_top" xlink:title="setDistance Calculate distance between GPS point et Road ">
<polygon fill="none" stroke="black" points="320.5,-38.5 320.5,-57.5 423.5,-57.5 423.5,-38.5 320.5,-38.5"/>
<text text-anchor="middle" x="372" y="-45.5" font-family="Helvetica,sans-Serif" font-size="10.00">Solver::setDistance</text>
</a>
</g>
</g>
<!-- Node3&#45;&gt;Node9 -->
<g id="edge9" class="edge"><title>Node3&#45;&gt;Node9</title>
<path fill="none" stroke="midnightblue" d="M282.501,-48C295.321,-48 308.355,-48 320.338,-48"/>
<polygon fill="midnightblue" stroke="midnightblue" points="282.288,-44.5001 272.288,-48 282.288,-51.5001 282.288,-44.5001"/>
</g>
<!-- Node5 -->
<g id="node5" class="node"><title>Node5</title>
<g id="a_node5"><a xlink:href="class_grid.html#afc6f21c3514d66d3ce16765ccb97411e" target="_top" xlink:title="Grid::computeDistanceFraction">
<polygon fill="none" stroke="black" points="654,-98.5 654,-117.5 806,-117.5 806,-98.5 654,-98.5"/>
<text text-anchor="middle" x="730" y="-105.5" font-family="Helvetica,sans-Serif" font-size="10.00">Grid::computeDistanceFraction</text>
</a>
</g>
</g>
<!-- Node4&#45;&gt;Node5 -->
<g id="edge4" class="edge"><title>Node4&#45;&gt;Node5</title>
<path fill="none" stroke="midnightblue" d="M628.111,-120.129C636.729,-119.093 645.46,-118.043 653.992,-117.017"/>
<polygon fill="midnightblue" stroke="midnightblue" points="627.574,-116.668 618.064,-121.337 628.41,-123.618 627.574,-116.668"/>
</g>
<!-- Node7 -->
<g id="node7" class="node"><title>Node7</title>
<g id="a_node7"><a xlink:href="class_grid.html#a22e72ffe8491d3d9df45d870979a8f21" target="_top" xlink:title="Grid::getDistanceBetween\lProjections">
<polygon fill="none" stroke="black" points="479.5,-71 479.5,-101 610.5,-101 610.5,-71 479.5,-71"/>
<text text-anchor="start" x="487.5" y="-89" font-family="Helvetica,sans-Serif" font-size="10.00">Grid::getDistanceBetween</text>
<text text-anchor="middle" x="545" y="-78" font-family="Helvetica,sans-Serif" font-size="10.00">Projections</text>
</a>
</g>
</g>
<!-- Node6&#45;&gt;Node7 -->
<g id="edge6" class="edge"><title>Node6&#45;&gt;Node7</title>
<path fill="none" stroke="midnightblue" d="M446.21,-86C457.232,-86 468.531,-86 479.356,-86"/>
<polygon fill="midnightblue" stroke="midnightblue" points="446.188,-82.5001 436.188,-86 446.188,-89.5001 446.188,-82.5001"/>
</g>
<!-- Node7&#45;&gt;Node5 -->
<g id="edge7" class="edge"><title>Node7&#45;&gt;Node5</title>
<path fill="none" stroke="midnightblue" d="M620.493,-94.9554C631.477,-96.2759 642.801,-97.6372 653.799,-98.9595"/>
<polygon fill="midnightblue" stroke="midnightblue" points="620.865,-91.4751 610.519,-93.7564 620.03,-98.425 620.865,-91.4751"/>
</g>
<!-- Node10 -->
<g id="node10" class="node"><title>Node10</title>
<g id="a_node10"><a xlink:href="class_solver.html#a2abdc34ec29d4301a7219375f6e5ec84" target="_top" xlink:title="Solver::onSignalNeighbours">
<polygon fill="none" stroke="black" points="476.5,-32.5 476.5,-51.5 613.5,-51.5 613.5,-32.5 476.5,-32.5"/>
<text text-anchor="middle" x="545" y="-39.5" font-family="Helvetica,sans-Serif" font-size="10.00">Solver::onSignalNeighbours</text>
</a>
</g>
</g>
<!-- Node9&#45;&gt;Node10 -->
<g id="edge10" class="edge"><title>Node9&#45;&gt;Node10</title>
<path fill="none" stroke="midnightblue" d="M434.09,-45.8565C447.756,-45.377 462.331,-44.8656 476.248,-44.3772"/>
<polygon fill="midnightblue" stroke="midnightblue" points="433.714,-42.3674 423.843,-46.216 433.959,-49.3631 433.714,-42.3674"/>
</g>
</g>
</svg>
