<?xml version="1.0" encoding="UTF-8" standalone="no"?>
<!DOCTYPE svg PUBLIC "-//W3C//DTD SVG 1.1//EN"
 "http://www.w3.org/Graphics/SVG/1.1/DTD/svg11.dtd">
<!-- Generated by graphviz version 2.38.0 (20140413.2041)
 -->
<!-- Title: Loading::launchFiles Pages: 1 -->
<svg width="526pt" height="104pt"
 viewBox="0.00 0.00 526.00 104.00" xmlns="http://www.w3.org/2000/svg" xmlns:xlink="http://www.w3.org/1999/xlink">
<g id="graph0" class="graph" transform="scale(1 1) rotate(0) translate(4 100)">
<title>Loading::launchFiles</title>
<!-- Node1 -->
<g id="node1" class="node"><title>Node1</title>
<polygon fill="#bfbfbf" stroke="black" points="0,-38.5 0,-57.5 106,-57.5 106,-38.5 0,-38.5"/>
<text text-anchor="middle" x="53" y="-45.5" font-family="Helvetica,sans-Serif" font-size="10.00">Loading::launchFiles</text>
</g>
<!-- Node2 -->
<g id="node2" class="node"><title>Node2</title>
<g id="a_node2"><a xlink:href="class_loading.html#ae0c96193667418083fc4a8c6cc19d9db" target="_top" xlink:title="Loading::loadFileCSVTrack">
<polygon fill="none" stroke="black" points="142,-76.5 142,-95.5 278,-95.5 278,-76.5 142,-76.5"/>
<text text-anchor="middle" x="210" y="-83.5" font-family="Helvetica,sans-Serif" font-size="10.00">Loading::loadFileCSVTrack</text>
</a>
</g>
</g>
<!-- Node1&#45;&gt;Node2 -->
<g id="edge1" class="edge"><title>Node1&#45;&gt;Node2</title>
<path fill="none" stroke="midnightblue" d="M103.111,-60.04C124.765,-65.3488 149.85,-71.4988 170.168,-76.4799"/>
<polygon fill="midnightblue" stroke="midnightblue" points="103.659,-56.5708 93.113,-57.589 101.992,-63.3695 103.659,-56.5708"/>
</g>
<!-- Node5 -->
<g id="node5" class="node"><title>Node5</title>
<g id="a_node5"><a xlink:href="class_loading.html#a9a01f3e328100b681f3f08192fc9b208" target="_top" xlink:title="Loading::loadFileSHPTrack">
<polygon fill="none" stroke="black" points="142,-38.5 142,-57.5 278,-57.5 278,-38.5 142,-38.5"/>
<text text-anchor="middle" x="210" y="-45.5" font-family="Helvetica,sans-Serif" font-size="10.00">Loading::loadFileSHPTrack</text>
</a>
</g>
</g>
<!-- Node1&#45;&gt;Node5 -->
<g id="edge4" class="edge"><title>Node1&#45;&gt;Node5</title>
<path fill="none" stroke="midnightblue" d="M116.218,-48C124.685,-48 133.406,-48 141.954,-48"/>
<polygon fill="midnightblue" stroke="midnightblue" points="116.044,-44.5001 106.044,-48 116.044,-51.5001 116.044,-44.5001"/>
</g>
<!-- Node6 -->
<g id="node6" class="node"><title>Node6</title>
<g id="a_node6"><a xlink:href="class_loading.html#a84d718939a74cf1680ea3e2409324194" target="_top" xlink:title="Loading::loadFileGrid">
<polygon fill="none" stroke="black" points="156,-0.5 156,-19.5 264,-19.5 264,-0.5 156,-0.5"/>
<text text-anchor="middle" x="210" y="-7.5" font-family="Helvetica,sans-Serif" font-size="10.00">Loading::loadFileGrid</text>
</a>
</g>
</g>
<!-- Node1&#45;&gt;Node6 -->
<g id="edge6" class="edge"><title>Node1&#45;&gt;Node6</title>
<path fill="none" stroke="midnightblue" d="M103.111,-35.96C124.765,-30.6512 149.85,-24.5012 170.168,-19.5201"/>
<polygon fill="midnightblue" stroke="midnightblue" points="101.992,-32.6305 93.113,-38.411 103.659,-39.4292 101.992,-32.6305"/>
</g>
<!-- Node3 -->
<g id="node3" class="node"><title>Node3</title>
<g id="a_node3"><a xlink:href="class_loading.html#ab603e821bd6b047fb04285e926974ff6" target="_top" xlink:title="Loading::track">
<polygon fill="none" stroke="black" points="314,-38.5 314,-57.5 392,-57.5 392,-38.5 314,-38.5"/>
<text text-anchor="middle" x="353" y="-45.5" font-family="Helvetica,sans-Serif" font-size="10.00">Loading::track</text>
</a>
</g>
</g>
<!-- Node2&#45;&gt;Node3 -->
<g id="edge2" class="edge"><title>Node2&#45;&gt;Node3</title>
<path fill="none" stroke="midnightblue" d="M256.44,-73.7538C275.875,-68.516 298.231,-62.4909 316.431,-57.5859"/>
<polygon fill="midnightblue" stroke="midnightblue" points="255.325,-70.4293 246.58,-76.411 257.147,-77.1882 255.325,-70.4293"/>
</g>
<!-- Node4 -->
<g id="node4" class="node"><title>Node4</title>
<g id="a_node4"><a xlink:href="class_loading.html#a7634c001ec052e10c402e49f5be030db" target="_top" xlink:title="Loading::Loading">
<polygon fill="none" stroke="black" points="428,-19.5 428,-38.5 518,-38.5 518,-19.5 428,-19.5"/>
<text text-anchor="middle" x="473" y="-26.5" font-family="Helvetica,sans-Serif" font-size="10.00">Loading::Loading</text>
</a>
</g>
</g>
<!-- Node3&#45;&gt;Node4 -->
<g id="edge3" class="edge"><title>Node3&#45;&gt;Node4</title>
<path fill="none" stroke="midnightblue" d="M402.358,-40.2135C410.755,-38.8614 419.45,-37.4615 427.731,-36.1281"/>
<polygon fill="midnightblue" stroke="midnightblue" points="401.628,-36.786 392.311,-41.8312 402.74,-43.697 401.628,-36.786"/>
</g>
<!-- Node5&#45;&gt;Node3 -->
<g id="edge5" class="edge"><title>Node5&#45;&gt;Node3</title>
<path fill="none" stroke="midnightblue" d="M288.204,-48C297.041,-48 305.736,-48 313.727,-48"/>
<polygon fill="midnightblue" stroke="midnightblue" points="288.196,-44.5001 278.196,-48 288.196,-51.5001 288.196,-44.5001"/>
</g>
<!-- Node7 -->
<g id="node7" class="node"><title>Node7</title>
<g id="a_node7"><a xlink:href="class_loading.html#afb0b2fe451bdc3f6f2cc186903df96b4" target="_top" xlink:title="Loading::grid">
<polygon fill="none" stroke="black" points="317,-0.5 317,-19.5 389,-19.5 389,-0.5 317,-0.5"/>
<text text-anchor="middle" x="353" y="-7.5" font-family="Helvetica,sans-Serif" font-size="10.00">Loading::grid</text>
</a>
</g>
</g>
<!-- Node6&#45;&gt;Node7 -->
<g id="edge7" class="edge"><title>Node6&#45;&gt;Node7</title>
<path fill="none" stroke="midnightblue" d="M274.35,-10C288.998,-10 304.063,-10 316.979,-10"/>
<polygon fill="midnightblue" stroke="midnightblue" points="274.306,-6.5001 264.306,-10 274.306,-13.5001 274.306,-6.5001"/>
</g>
<!-- Node7&#45;&gt;Node4 -->
<g id="edge8" class="edge"><title>Node7&#45;&gt;Node4</title>
<path fill="none" stroke="midnightblue" d="M399.014,-17.248C408.39,-18.7577 418.266,-20.3479 427.619,-21.8539"/>
<polygon fill="midnightblue" stroke="midnightblue" points="399.514,-13.7835 389.084,-15.6492 398.401,-20.6945 399.514,-13.7835"/>
</g>
</g>
</svg>
