<?xml version="1.0" encoding="UTF-8" standalone="no"?>
<!DOCTYPE svg PUBLIC "-//W3C//DTD SVG 1.1//EN"
 "http://www.w3.org/Graphics/SVG/1.1/DTD/svg11.dtd">
<!-- Generated by graphviz version 2.38.0 (20140413.2041)
 -->
<!-- Title: Track::addPoint Pages: 1 -->
<svg width="915pt" height="142pt"
 viewBox="0.00 0.00 915.00 142.00" xmlns="http://www.w3.org/2000/svg" xmlns:xlink="http://www.w3.org/1999/xlink">
<g id="graph0" class="graph" transform="scale(1 1) rotate(0) translate(4 138)">
<title>Track::addPoint</title>
<!-- Node1 -->
<g id="node1" class="node"><title>Node1</title>
<polygon fill="#bfbfbf" stroke="black" points="0,-57.5 0,-76.5 86,-76.5 86,-57.5 0,-57.5"/>
<text text-anchor="middle" x="43" y="-64.5" font-family="Helvetica,sans-Serif" font-size="10.00">Track::addPoint</text>
</g>
<!-- Node2 -->
<g id="node2" class="node"><title>Node2</title>
<g id="a_node2"><a xlink:href="class_track.html#aff258a8c303ee8a09a962d237f3823e7" target="_top" xlink:title="Reads a csv file and inserts each point in m_points vector. ">
<polygon fill="none" stroke="black" points="122,-57.5 122,-76.5 232,-76.5 232,-57.5 122,-57.5"/>
<text text-anchor="middle" x="177" y="-64.5" font-family="Helvetica,sans-Serif" font-size="10.00">Track::readFromCSV</text>
</a>
</g>
</g>
<!-- Node1&#45;&gt;Node2 -->
<g id="edge1" class="edge"><title>Node1&#45;&gt;Node2</title>
<path fill="none" stroke="midnightblue" d="M96.1756,-67C104.571,-67 113.279,-67 121.723,-67"/>
<polygon fill="midnightblue" stroke="midnightblue" points="96.1286,-63.5001 86.1285,-67 96.1285,-70.5001 96.1286,-63.5001"/>
</g>
<!-- Node3 -->
<g id="node3" class="node"><title>Node3</title>
<g id="a_node3"><a xlink:href="class_filtering.html#ad96665ec38911625b6778741000fbfe2" target="_top" xlink:title="Filtering::getInfo">
<polygon fill="none" stroke="black" points="272,-114.5 272,-133.5 359,-133.5 359,-114.5 272,-114.5"/>
<text text-anchor="middle" x="315.5" y="-121.5" font-family="Helvetica,sans-Serif" font-size="10.00">Filtering::getInfo</text>
</a>
</g>
</g>
<!-- Node2&#45;&gt;Node3 -->
<g id="edge2" class="edge"><title>Node2&#45;&gt;Node3</title>
<path fill="none" stroke="midnightblue" d="M210.084,-80.6533C227.246,-87.9296 248.753,-97.0048 268,-105 275.409,-108.078 283.499,-111.397 290.822,-114.387"/>
<polygon fill="midnightblue" stroke="midnightblue" points="211.104,-77.284 200.532,-76.5988 208.369,-83.7277 211.104,-77.284"/>
</g>
<!-- Node4 -->
<g id="node4" class="node"><title>Node4</title>
<g id="a_node4"><a xlink:href="main_8cpp.html#a141063eccadf0e03662d414d897d9f5d" target="_top" xlink:title="dev_gridAndTrack">
<polygon fill="none" stroke="black" points="268,-76.5 268,-95.5 363,-95.5 363,-76.5 268,-76.5"/>
<text text-anchor="middle" x="315.5" y="-83.5" font-family="Helvetica,sans-Serif" font-size="10.00">dev_gridAndTrack</text>
</a>
</g>
</g>
<!-- Node2&#45;&gt;Node4 -->
<g id="edge3" class="edge"><title>Node2&#45;&gt;Node4</title>
<path fill="none" stroke="midnightblue" d="M242.355,-75.9579C250.947,-77.1538 259.621,-78.3611 267.83,-79.5038"/>
<polygon fill="midnightblue" stroke="midnightblue" points="242.728,-72.4761 232.341,-74.5639 241.763,-79.4092 242.728,-72.4761"/>
</g>
<!-- Node5 -->
<g id="node5" class="node"><title>Node5</title>
<g id="a_node5"><a xlink:href="class_solver.html#a97bc7169c18b339fecd4937150f907c3" target="_top" xlink:title="Solver::start">
<polygon fill="none" stroke="black" points="280.5,-38.5 280.5,-57.5 350.5,-57.5 350.5,-38.5 280.5,-38.5"/>
<text text-anchor="middle" x="315.5" y="-45.5" font-family="Helvetica,sans-Serif" font-size="10.00">Solver::start</text>
</a>
</g>
</g>
<!-- Node2&#45;&gt;Node5 -->
<g id="edge4" class="edge"><title>Node2&#45;&gt;Node5</title>
<path fill="none" stroke="midnightblue" d="M242.32,-58.047C255.462,-56.2177 268.799,-54.3613 280.373,-52.7503"/>
<polygon fill="midnightblue" stroke="midnightblue" points="241.763,-54.5908 232.341,-59.4361 242.728,-61.5239 241.763,-54.5908"/>
</g>
<!-- Node9 -->
<g id="node9" class="node"><title>Node9</title>
<g id="a_node9"><a xlink:href="class_solver.html#acbe7e47bcad48b8ddba95c9281c8bf23" target="_top" xlink:title="Solver::readFiles">
<polygon fill="none" stroke="black" points="270.5,-0.5 270.5,-19.5 360.5,-19.5 360.5,-0.5 270.5,-0.5"/>
<text text-anchor="middle" x="315.5" y="-7.5" font-family="Helvetica,sans-Serif" font-size="10.00">Solver::readFiles</text>
</a>
</g>
</g>
<!-- Node2&#45;&gt;Node9 -->
<g id="edge8" class="edge"><title>Node2&#45;&gt;Node9</title>
<path fill="none" stroke="midnightblue" d="M210.084,-53.3467C227.246,-46.0704 248.753,-36.9952 268,-29 275.409,-25.9222 283.499,-22.6027 290.822,-19.6127"/>
<polygon fill="midnightblue" stroke="midnightblue" points="208.369,-50.2723 200.532,-57.4012 211.104,-56.716 208.369,-50.2723"/>
</g>
<!-- Node6 -->
<g id="node6" class="node"><title>Node6</title>
<g id="a_node6"><a xlink:href="main_8cpp.html#a9dd67c19acf7317c6296b63e29dcfab9" target="_top" xlink:title="dev_thread">
<polygon fill="none" stroke="black" points="436.5,-76.5 436.5,-95.5 501.5,-95.5 501.5,-76.5 436.5,-76.5"/>
<text text-anchor="middle" x="469" y="-83.5" font-family="Helvetica,sans-Serif" font-size="10.00">dev_thread</text>
</a>
</g>
</g>
<!-- Node5&#45;&gt;Node6 -->
<g id="edge5" class="edge"><title>Node5&#45;&gt;Node6</title>
<path fill="none" stroke="midnightblue" d="M360.894,-59.1352C385.093,-65.2049 414.477,-72.575 436.342,-78.0593"/>
<polygon fill="midnightblue" stroke="midnightblue" points="361.429,-55.6609 350.878,-56.6228 359.726,-62.4506 361.429,-55.6609"/>
</g>
<!-- Node8 -->
<g id="node8" class="node"><title>Node8</title>
<g id="a_node8"><a xlink:href="class_solver.html#a323c9c0407f26a2ed3ec3ff5ed02a760" target="_top" xlink:title="Solver::onSignalStart">
<polygon fill="none" stroke="black" points="414.5,-38.5 414.5,-57.5 523.5,-57.5 523.5,-38.5 414.5,-38.5"/>
<text text-anchor="middle" x="469" y="-45.5" font-family="Helvetica,sans-Serif" font-size="10.00">Solver::onSignalStart</text>
</a>
</g>
</g>
<!-- Node5&#45;&gt;Node8 -->
<g id="edge7" class="edge"><title>Node5&#45;&gt;Node8</title>
<path fill="none" stroke="midnightblue" d="M360.952,-48C377.706,-48 396.939,-48 414.439,-48"/>
<polygon fill="midnightblue" stroke="midnightblue" points="360.878,-44.5001 350.878,-48 360.878,-51.5001 360.878,-44.5001"/>
</g>
<!-- Node7 -->
<g id="node7" class="node"><title>Node7</title>
<g id="a_node7"><a xlink:href="main_8cpp.html#a0ddf1224851353fc92bfbff6f499fa97" target="_top" xlink:title="main">
<polygon fill="none" stroke="black" points="636.5,-76.5 636.5,-95.5 674.5,-95.5 674.5,-76.5 636.5,-76.5"/>
<text text-anchor="middle" x="655.5" y="-83.5" font-family="Helvetica,sans-Serif" font-size="10.00">main</text>
</a>
</g>
</g>
<!-- Node6&#45;&gt;Node7 -->
<g id="edge6" class="edge"><title>Node6&#45;&gt;Node7</title>
<path fill="none" stroke="midnightblue" d="M511.733,-86C550.774,-86 607.269,-86 636.087,-86"/>
<polygon fill="midnightblue" stroke="midnightblue" points="511.717,-82.5001 501.717,-86 511.717,-89.5001 511.717,-82.5001"/>
</g>
<!-- Node10 -->
<g id="node10" class="node"><title>Node10</title>
<g id="a_node10"><a xlink:href="class_main_window.html#ad39bbe8ced0d3248206ac0ca6c444d55" target="_top" xlink:title="MainWindow::readyToNext1">
<polygon fill="none" stroke="black" points="399,-0.5 399,-19.5 539,-19.5 539,-0.5 399,-0.5"/>
<text text-anchor="middle" x="469" y="-7.5" font-family="Helvetica,sans-Serif" font-size="10.00">MainWindow::readyToNext1</text>
</a>
</g>
</g>
<!-- Node9&#45;&gt;Node10 -->
<g id="edge9" class="edge"><title>Node9&#45;&gt;Node10</title>
<path fill="none" stroke="midnightblue" d="M370.798,-10C379.915,-10 389.484,-10 398.915,-10"/>
<polygon fill="midnightblue" stroke="midnightblue" points="370.727,-6.5001 360.727,-10 370.727,-13.5001 370.727,-6.5001"/>
</g>
<!-- Node11 -->
<g id="node11" class="node"><title>Node11</title>
<g id="a_node11"><a xlink:href="class_main_window.html#af773488e0b16efe6c0fc67ad348b86b2" target="_top" xlink:title="MainWindow::createConnections">
<polygon fill="none" stroke="black" points="575,-0.5 575,-19.5 736,-19.5 736,-0.5 575,-0.5"/>
<text text-anchor="middle" x="655.5" y="-7.5" font-family="Helvetica,sans-Serif" font-size="10.00">MainWindow::createConnections</text>
</a>
</g>
</g>
<!-- Node10&#45;&gt;Node11 -->
<g id="edge10" class="edge"><title>Node10&#45;&gt;Node11</title>
<path fill="none" stroke="midnightblue" d="M549.446,-10C557.9,-10 566.501,-10 574.956,-10"/>
<polygon fill="midnightblue" stroke="midnightblue" points="549.226,-6.5001 539.226,-10 549.226,-13.5001 549.226,-6.5001"/>
</g>
<!-- Node12 -->
<g id="node12" class="node"><title>Node12</title>
<g id="a_node12"><a xlink:href="class_main_window.html#a8b244be8b7b7db1b08de2a2acb9409db" target="_top" xlink:title="MainWindow::MainWindow">
<polygon fill="none" stroke="black" points="772,-0.5 772,-19.5 907,-19.5 907,-0.5 772,-0.5"/>
<text text-anchor="middle" x="839.5" y="-7.5" font-family="Helvetica,sans-Serif" font-size="10.00">MainWindow::MainWindow</text>
</a>
</g>
</g>
<!-- Node11&#45;&gt;Node12 -->
<g id="edge11" class="edge"><title>Node11&#45;&gt;Node12</title>
<path fill="none" stroke="midnightblue" d="M746.196,-10C754.85,-10 763.52,-10 771.892,-10"/>
<polygon fill="midnightblue" stroke="midnightblue" points="746.063,-6.5001 736.063,-10 746.063,-13.5001 746.063,-6.5001"/>
</g>
</g>
</svg>
