<?xml version="1.0" encoding="UTF-8" standalone="no"?>
<!DOCTYPE svg PUBLIC "-//W3C//DTD SVG 1.1//EN"
 "http://www.w3.org/Graphics/SVG/1.1/DTD/svg11.dtd">
<!-- Generated by graphviz version 2.38.0 (20140413.2041)
 -->
<!-- Title: Point::distanceToPoint Pages: 1 -->
<!--zoomable 219 -->
<svg id="main" version="1.1" xmlns="http://www.w3.org/2000/svg" xmlns:xlink="http://www.w3.org/1999/xlink" xml:space="preserve" onload="init(evt)">
<style type="text/css"><![CDATA[
.edge:hover path { stroke: red; }
.edge:hover polygon { stroke: red; fill: red; }
]]></style>
<script type="text/javascript"><![CDATA[
var edges = document.getElementsByTagName('g');
if (edges && edges.length) {
  for (var i=0;i<edges.length;i++) {
    if (edges[i].id.substr(0,4)=='edge') {
      edges[i].setAttribute('class','edge');
    }
  }
}
]]></script>
        <defs>
                <circle id="rim" cx="0" cy="0" r="7"/>
                <circle id="rim2" cx="0" cy="0" r="3.5"/>
                <g id="zoomPlus">
                        <use xlink:href="#rim" fill="#404040">
                                <set attributeName="fill" to="#808080" begin="zoomplus.mouseover" end="zoomplus.mouseout"/>
                        </use>
                        <path d="M-4,0h8M0,-4v8" fill="none" stroke="white" stroke-width="1.5" pointer-events="none"/>
                </g>
                <g id="zoomMin">
                        <use xlink:href="#rim" fill="#404040">
                                <set attributeName="fill" to="#808080" begin="zoomminus.mouseover" end="zoomminus.mouseout"/>
                        </use>
                        <path d="M-4,0h8" fill="none" stroke="white" stroke-width="1.5" pointer-events="none"/>
                </g>
                <g id="dirArrow">
                        <path fill="none" stroke="white" stroke-width="1.5" d="M0,-3.0v7 M-2.5,-0.5L0,-3.0L2.5,-0.5"/>
                </g>
               <g id="resetDef">
                       <use xlink:href="#rim2" fill="#404040">
                               <set attributeName="fill" to="#808080" begin="reset.mouseover" end="reset.mouseout"/>
                       </use>
               </g>
        </defs>

<script type="text/javascript">
var viewWidth = 833;
var viewHeight = 219;
var sectionId = 'dynsection-3';
</script>
<script xlink:href="svgpan.js"/>
<svg id="graph" class="graph">
<g id="viewport">
<title>Point::distanceToPoint</title>
<!-- Node1 -->
<g id="node1" class="node"><title>Node1</title>
<polygon fill="#bfbfbf" stroke="black" points="0,-130.312 0,-149.312 116,-149.312 116,-130.312 0,-130.312"/>
<text text-anchor="middle" x="58" y="-137.312" font-family="Helvetica,sans-Serif" font-size="10.00">Point::distanceToPoint</text>
</g>
<!-- Node2 -->
<g id="node2" class="node"><title>Node2</title>
<g id="a_node2"><a xlink:href="class_grid.html#afc6f21c3514d66d3ce16765ccb97411e" target="_top" xlink:title="Grid::computeDistanceFraction">
<polygon fill="none" stroke="black" points="673,-122.312 673,-141.312 825,-141.312 825,-122.312 673,-122.312"/>
<text text-anchor="middle" x="749" y="-129.312" font-family="Helvetica,sans-Serif" font-size="10.00">Grid::computeDistanceFraction</text>
</a>
</g>
</g>
<!-- Node1&#45;&gt;Node2 -->
<g id="edge1" class="edge"><title>Node1&#45;&gt;Node2</title>
<path fill="none" stroke="midnightblue" d="M77.9213,-155.792C95.7291,-169.706 123.807,-188.86 152,-196.812 227.705,-218.166 503.538,-214.846 637,-182.812 672.882,-174.2 711.266,-153.734 732.175,-141.507"/>
<polygon fill="midnightblue" stroke="midnightblue" points="80.033,-152.999 70.0487,-149.454 75.6433,-158.451 80.033,-152.999"/>
</g>
<!-- Node3 -->
<g id="node3" class="node"><title>Node3</title>
<g id="a_node3"><a xlink:href="class_grid.html#a22e72ffe8491d3d9df45d870979a8f21" target="_top" xlink:title="Grid::getDistanceBetween\lProjections">
<polygon fill="none" stroke="black" points="498.5,-7.81242 498.5,-37.8124 629.5,-37.8124 629.5,-7.81242 498.5,-7.81242"/>
<text text-anchor="start" x="506.5" y="-25.8124" font-family="Helvetica,sans-Serif" font-size="10.00">Grid::getDistanceBetween</text>
<text text-anchor="middle" x="564" y="-14.8124" font-family="Helvetica,sans-Serif" font-size="10.00">Projections</text>
</a>
</g>
</g>
<!-- Node1&#45;&gt;Node3 -->
<g id="edge2" class="edge"><title>Node1&#45;&gt;Node3</title>
<path fill="none" stroke="midnightblue" d="M80.4245,-124.323C124.113,-93.8828 227.769,-27.4296 327,-6.81242 384.095,5.05012 450.462,-1.1702 498.248,-9.06255"/>
<polygon fill="midnightblue" stroke="midnightblue" points="78.1881,-121.618 72.0352,-130.243 82.2239,-127.337 78.1881,-121.618"/>
</g>
<!-- Node4 -->
<g id="node4" class="node"><title>Node4</title>
<g id="a_node4"><a xlink:href="class_point.html#a9cff645d17a17081494fca956d43102a" target="_top" xlink:title="Point::projectionOnSegment">
<polygon fill="none" stroke="black" points="152,-168.312 152,-187.312 291,-187.312 291,-168.312 152,-168.312"/>
<text text-anchor="middle" x="221.5" y="-175.312" font-family="Helvetica,sans-Serif" font-size="10.00">Point::projectionOnSegment</text>
</a>
</g>
</g>
<!-- Node1&#45;&gt;Node4 -->
<g id="edge4" class="edge"><title>Node1&#45;&gt;Node4</title>
<path fill="none" stroke="midnightblue" d="M109.558,-151.708C132.259,-157.05 158.678,-163.266 180.04,-168.292"/>
<polygon fill="midnightblue" stroke="midnightblue" points="110.289,-148.285 99.7533,-149.401 108.686,-155.099 110.289,-148.285"/>
</g>
<!-- Node6 -->
<g id="node6" class="node"><title>Node6</title>
<g id="a_node6"><a xlink:href="class_point.html#a364091762d6aa1aa5983d36fd7d8b6d5" target="_top" xlink:title="Point Class&#39;s Destructor. ">
<polygon fill="none" stroke="black" points="354,-130.312 354,-149.312 428,-149.312 428,-130.312 354,-130.312"/>
<text text-anchor="middle" x="391" y="-137.312" font-family="Helvetica,sans-Serif" font-size="10.00">Point::~Point</text>
</a>
</g>
</g>
<!-- Node1&#45;&gt;Node6 -->
<g id="edge16" class="edge"><title>Node1&#45;&gt;Node6</title>
<path fill="none" stroke="midnightblue" d="M126.581,-139.812C195.365,-139.812 299.388,-139.812 353.849,-139.812"/>
<polygon fill="midnightblue" stroke="midnightblue" points="126.278,-136.313 116.278,-139.812 126.278,-143.313 126.278,-136.313"/>
</g>
<!-- Node7 -->
<g id="node7" class="node"><title>Node7</title>
<g id="a_node7"><a xlink:href="class_point.html#a39daa6ebd31cdc2d7151db77bfdf2166" target="_top" xlink:title="Compute the distance between a point and a segment. ">
<polygon fill="none" stroke="black" points="155.5,-92.3124 155.5,-111.312 287.5,-111.312 287.5,-92.3124 155.5,-92.3124"/>
<text text-anchor="middle" x="221.5" y="-99.3124" font-family="Helvetica,sans-Serif" font-size="10.00">Point::distanceToSegment</text>
</a>
</g>
</g>
<!-- Node1&#45;&gt;Node7 -->
<g id="edge8" class="edge"><title>Node1&#45;&gt;Node7</title>
<path fill="none" stroke="midnightblue" d="M109.558,-127.916C132.259,-122.575 158.678,-116.359 180.04,-111.332"/>
<polygon fill="midnightblue" stroke="midnightblue" points="108.686,-124.526 99.7533,-130.223 110.289,-131.34 108.686,-124.526"/>
</g>
<!-- Node3&#45;&gt;Node2 -->
<g id="edge3" class="edge"><title>Node3&#45;&gt;Node2</title>
<path fill="none" stroke="midnightblue" d="M624.535,-41.8028C628.822,-43.6795 633.02,-45.6843 637,-47.8124 677.492,-69.4629 719.022,-105.247 737.745,-122.259"/>
<polygon fill="midnightblue" stroke="midnightblue" points="625.638,-38.472 615.059,-37.9013 622.973,-44.9449 625.638,-38.472"/>
</g>
<!-- Node5 -->
<g id="node5" class="node"><title>Node5</title>
<g id="a_node5"><a xlink:href="class_grid.html#ac4e7d17f7ac28247f6cbd55d4ae0fee8" target="_top" xlink:title="Grid::getProjectedPointAnd\lDistance">
<polygon fill="none" stroke="black" points="496.5,-143.812 496.5,-173.812 631.5,-173.812 631.5,-143.812 496.5,-143.812"/>
<text text-anchor="start" x="504.5" y="-161.812" font-family="Helvetica,sans-Serif" font-size="10.00">Grid::getProjectedPointAnd</text>
<text text-anchor="middle" x="564" y="-150.812" font-family="Helvetica,sans-Serif" font-size="10.00">Distance</text>
</a>
</g>
</g>
<!-- Node4&#45;&gt;Node5 -->
<g id="edge5" class="edge"><title>Node4&#45;&gt;Node5</title>
<path fill="none" stroke="midnightblue" d="M301.435,-173.408C360.481,-170.113 440.338,-165.657 496.226,-162.538"/>
<polygon fill="midnightblue" stroke="midnightblue" points="301.195,-169.916 291.405,-173.967 301.585,-176.905 301.195,-169.916"/>
</g>
<!-- Node4&#45;&gt;Node6 -->
<g id="edge7" class="edge"><title>Node4&#45;&gt;Node6</title>
<path fill="none" stroke="midnightblue" d="M274.745,-165.96C300.488,-160.12 330.88,-153.225 353.99,-147.982"/>
<polygon fill="midnightblue" stroke="midnightblue" points="273.745,-162.598 264.767,-168.223 275.294,-169.424 273.745,-162.598"/>
</g>
<!-- Node5&#45;&gt;Node2 -->
<g id="edge6" class="edge"><title>Node5&#45;&gt;Node2</title>
<path fill="none" stroke="midnightblue" d="M641.647,-147.504C655.608,-145.444 670.042,-143.314 683.604,-141.314"/>
<polygon fill="midnightblue" stroke="midnightblue" points="640.967,-144.066 631.585,-148.988 641.989,-150.991 640.967,-144.066"/>
</g>
<!-- Node7&#45;&gt;Node6 -->
<g id="edge13" class="edge"><title>Node7&#45;&gt;Node6</title>
<path fill="none" stroke="midnightblue" d="M274.745,-113.665C300.488,-119.505 330.88,-126.4 353.99,-131.643"/>
<polygon fill="midnightblue" stroke="midnightblue" points="275.294,-110.201 264.767,-111.401 273.745,-117.027 275.294,-110.201"/>
</g>
<!-- Node8 -->
<g id="node8" class="node"><title>Node8</title>
<g id="a_node8"><a xlink:href="class_grid.html#a8923d001226c9c9d4e19ac17a40ff44b" target="_top" xlink:title="Grid::getDistanceToExtremity">
<polygon fill="none" stroke="black" points="491,-95.3124 491,-114.312 637,-114.312 637,-95.3124 491,-95.3124"/>
<text text-anchor="middle" x="564" y="-102.312" font-family="Helvetica,sans-Serif" font-size="10.00">Grid::getDistanceToExtremity</text>
</a>
</g>
</g>
<!-- Node7&#45;&gt;Node8 -->
<g id="edge9" class="edge"><title>Node7&#45;&gt;Node8</title>
<path fill="none" stroke="midnightblue" d="M297.874,-102.477C355.413,-102.983 434.192,-103.678 490.903,-104.177"/>
<polygon fill="midnightblue" stroke="midnightblue" points="297.779,-98.9756 287.749,-102.387 297.718,-105.975 297.779,-98.9756"/>
</g>
<!-- Node9 -->
<g id="node9" class="node"><title>Node9</title>
<g id="a_node9"><a xlink:href="class_grid.html#a459ceb14878d0bb3c40286c0eb3df2fd" target="_top" xlink:title="Grid::getSegmentCounter">
<polygon fill="none" stroke="black" points="327,-16.3124 327,-35.3124 455,-35.3124 455,-16.3124 327,-16.3124"/>
<text text-anchor="middle" x="391" y="-23.3124" font-family="Helvetica,sans-Serif" font-size="10.00">Grid::getSegmentCounter</text>
</a>
</g>
</g>
<!-- Node7&#45;&gt;Node9 -->
<g id="edge11" class="edge"><title>Node7&#45;&gt;Node9</title>
<path fill="none" stroke="midnightblue" d="M246.334,-86.961C267.072,-74.4951 298.232,-56.8443 327,-44.8124 335.432,-41.286 344.746,-38.1082 353.567,-35.4054"/>
<polygon fill="midnightblue" stroke="midnightblue" points="244.309,-84.0965 237.586,-92.2849 247.948,-90.0763 244.309,-84.0965"/>
</g>
<!-- Node10 -->
<g id="node10" class="node"><title>Node10</title>
<g id="a_node10"><a xlink:href="class_solver.html#ac93808d9f79208e9917830d0ff0a5dfd" target="_top" xlink:title="setDistance Calculate distance between GPS point et Road ">
<polygon fill="none" stroke="black" points="339.5,-54.3124 339.5,-73.3124 442.5,-73.3124 442.5,-54.3124 339.5,-54.3124"/>
<text text-anchor="middle" x="391" y="-61.3124" font-family="Helvetica,sans-Serif" font-size="10.00">Solver::setDistance</text>
</a>
</g>
</g>
<!-- Node7&#45;&gt;Node10 -->
<g id="edge14" class="edge"><title>Node7&#45;&gt;Node10</title>
<path fill="none" stroke="midnightblue" d="M274.62,-89.9882C298.235,-84.6308 325.782,-78.3813 348.037,-73.3325"/>
<polygon fill="midnightblue" stroke="midnightblue" points="273.745,-86.5976 264.767,-92.2234 275.294,-93.4242 273.745,-86.5976"/>
</g>
<!-- Node8&#45;&gt;Node2 -->
<g id="edge10" class="edge"><title>Node8&#45;&gt;Node2</title>
<path fill="none" stroke="midnightblue" d="M639.493,-115.803C654.064,-117.953 669.232,-120.191 683.447,-122.288"/>
<polygon fill="midnightblue" stroke="midnightblue" points="639.923,-112.329 629.519,-114.332 638.901,-119.254 639.923,-112.329"/>
</g>
<!-- Node9&#45;&gt;Node3 -->
<g id="edge12" class="edge"><title>Node9&#45;&gt;Node3</title>
<path fill="none" stroke="midnightblue" d="M465.21,-24.528C476.232,-24.3347 487.531,-24.1364 498.356,-23.9465"/>
<polygon fill="midnightblue" stroke="midnightblue" points="465.125,-21.0289 455.188,-24.7039 465.248,-28.0278 465.125,-21.0289"/>
</g>
<!-- Node11 -->
<g id="node11" class="node"><title>Node11</title>
<g id="a_node11"><a xlink:href="class_solver.html#a2abdc34ec29d4301a7219375f6e5ec84" target="_top" xlink:title="Solver::onSignalNeighbours">
<polygon fill="none" stroke="black" points="495.5,-57.3124 495.5,-76.3124 632.5,-76.3124 632.5,-57.3124 495.5,-57.3124"/>
<text text-anchor="middle" x="564" y="-64.3124" font-family="Helvetica,sans-Serif" font-size="10.00">Solver::onSignalNeighbours</text>
</a>
</g>
</g>
<!-- Node10&#45;&gt;Node11 -->
<g id="edge15" class="edge"><title>Node10&#45;&gt;Node11</title>
<path fill="none" stroke="midnightblue" d="M453.09,-64.8842C466.756,-65.1239 481.331,-65.3796 495.248,-65.6238"/>
<polygon fill="midnightblue" stroke="midnightblue" points="452.903,-61.3804 442.843,-64.7044 452.78,-68.3794 452.903,-61.3804"/>
</g>
</g>
</svg>
        <g id="navigator" transform="translate(0 0)" fill="#404254">
                <rect fill="#f2f5e9" fill-opacity="0.5" stroke="#606060" stroke-width=".5" x="0" y="0" width="60" height="60"/>
                <use id="zoomplus" xlink:href="#zoomPlus" x="17" y="9" onmousedown="handleZoom(evt,'in')"/>
                <use id="zoomminus" xlink:href="#zoomMin" x="42" y="9" onmousedown="handleZoom(evt,'out')"/>
                <use id="reset" xlink:href="#resetDef" x="30" y="36" onmousedown="handleReset()"/>
                <g id="arrowUp" xlink:href="#dirArrow" transform="translate(30 24)" onmousedown="handlePan(0,-1)">
                  <use xlink:href="#rim" fill="#404040">
                        <set attributeName="fill" to="#808080" begin="arrowUp.mouseover" end="arrowUp.mouseout"/>
                  </use>
                  <path fill="none" stroke="white" stroke-width="1.5" d="M0,-3.0v7 M-2.5,-0.5L0,-3.0L2.5,-0.5"/>
                </g>
                <g id="arrowRight" xlink:href="#dirArrow" transform="rotate(90) translate(36 -43)" onmousedown="handlePan(1,0)">
                  <use xlink:href="#rim" fill="#404040">
                        <set attributeName="fill" to="#808080" begin="arrowRight.mouseover" end="arrowRight.mouseout"/>
                  </use>
                  <path fill="none" stroke="white" stroke-width="1.5" d="M0,-3.0v7 M-2.5,-0.5L0,-3.0L2.5,-0.5"/>
                </g>
                <g id="arrowDown" xlink:href="#dirArrow" transform="rotate(180) translate(-30 -48)" onmousedown="handlePan(0,1)">
                  <use xlink:href="#rim" fill="#404040">
                        <set attributeName="fill" to="#808080" begin="arrowDown.mouseover" end="arrowDown.mouseout"/>
                  </use>
                  <path fill="none" stroke="white" stroke-width="1.5" d="M0,-3.0v7 M-2.5,-0.5L0,-3.0L2.5,-0.5"/>
                </g>
                <g id="arrowLeft" xlink:href="#dirArrow" transform="rotate(270) translate(-36 17)" onmousedown="handlePan(-1,0)">
                  <use xlink:href="#rim" fill="#404040">
                        <set attributeName="fill" to="#808080" begin="arrowLeft.mouseover" end="arrowLeft.mouseout"/>
                  </use>
                  <path fill="none" stroke="white" stroke-width="1.5" d="M0,-3.0v7 M-2.5,-0.5L0,-3.0L2.5,-0.5"/>
                </g>
        </g>
        <svg viewBox="0 0 15 15" width="100%" height="30px" preserveAspectRatio="xMaxYMin meet">
         <g id="arrow_out" transform="scale(0.3 0.3)">
          <a xlink:href="class_point_a7cd7f7e2c0f1a11b66eac8b6f360bfd9_icgraph_org.svg" target="_base">
           <rect id="button" ry="5" rx="5" y="6" x="6" height="38" width="38"
                fill="#f2f5e9" fill-opacity="0.5" stroke="#606060" stroke-width="1.0"/>
           <path id="arrow"
             d="M 11.500037,31.436501 C 11.940474,20.09759 22.043105,11.32322 32.158766,21.979434 L 37.068811,17.246167 C 37.068811,17.246167 37.088388,32 37.088388,32 L 22.160133,31.978069 C 22.160133,31.978069 26.997745,27.140456 26.997745,27.140456 C 18.528582,18.264221 13.291696,25.230495 11.500037,31.436501 z"
             style="fill:#404040;"/>
          </a>
         </g>
        </svg>
</svg>
