<?xml version="1.0" encoding="UTF-8" standalone="no"?>
<!DOCTYPE svg PUBLIC "-//W3C//DTD SVG 1.1//EN"
 "http://www.w3.org/Graphics/SVG/1.1/DTD/svg11.dtd">
<!-- Generated by graphviz version 2.38.0 (20140413.2041)
 -->
<!-- Title: Solver Pages: 1 -->
<svg width="932pt" height="1174pt"
 viewBox="0.00 0.00 932.00 1174.00" xmlns="http://www.w3.org/2000/svg" xmlns:xlink="http://www.w3.org/1999/xlink">
<g id="graph0" class="graph" transform="scale(1 1) rotate(0) translate(4 1170)">
<title>Solver</title>
<!-- Node1 -->
<g id="node1" class="node"><title>Node1</title>
<polygon fill="#bfbfbf" stroke="black" points="347,-0.5 347,-123.5 456,-123.5 456,-0.5 347,-0.5"/>
<text text-anchor="middle" x="401.5" y="-111.5" font-family="Helvetica,sans-Serif" font-size="10.00">Solver</text>
<polyline fill="none" stroke="black" points="347,-104.5 456,-104.5 "/>
<text text-anchor="start" x="355" y="-92.5" font-family="Helvetica,sans-Serif" font-size="10.00">+ m_gridFilename</text>
<text text-anchor="start" x="355" y="-81.5" font-family="Helvetica,sans-Serif" font-size="10.00">+ m_trackFilename</text>
<polyline fill="none" stroke="black" points="347,-74.5 456,-74.5 "/>
<text text-anchor="start" x="355" y="-62.5" font-family="Helvetica,sans-Serif" font-size="10.00">+ setDistance()</text>
<text text-anchor="start" x="355" y="-51.5" font-family="Helvetica,sans-Serif" font-size="10.00">+ Solver()</text>
<text text-anchor="start" x="355" y="-40.5" font-family="Helvetica,sans-Serif" font-size="10.00">+ start()</text>
<text text-anchor="start" x="355" y="-29.5" font-family="Helvetica,sans-Serif" font-size="10.00">+ onSignalSetGrid()</text>
<text text-anchor="start" x="355" y="-18.5" font-family="Helvetica,sans-Serif" font-size="10.00">+ onSignalSetTrack()</text>
<text text-anchor="start" x="355" y="-7.5" font-family="Helvetica,sans-Serif" font-size="10.00">+ onSignalStart()</text>
</g>
<!-- Node2 -->
<g id="node2" class="node"><title>Node2</title>
<polygon fill="none" stroke="#bfbfbf" points="0,-270.5 0,-327.5 53,-327.5 53,-270.5 0,-270.5"/>
<text text-anchor="middle" x="26.5" y="-315.5" font-family="Helvetica,sans-Serif" font-size="10.00">QObject</text>
<polyline fill="none" stroke="#bfbfbf" points="0,-308.5 53,-308.5 "/>
<text text-anchor="middle" x="26.5" y="-296.5" font-family="Helvetica,sans-Serif" font-size="10.00"> </text>
<polyline fill="none" stroke="#bfbfbf" points="0,-289.5 53,-289.5 "/>
<text text-anchor="middle" x="26.5" y="-277.5" font-family="Helvetica,sans-Serif" font-size="10.00"> </text>
</g>
<!-- Node2&#45;&gt;Node1 -->
<g id="edge1" class="edge"><title>Node2&#45;&gt;Node1</title>
<path fill="none" stroke="midnightblue" d="M28.1506,-260.332C31.7698,-224.826 42.7641,-172.625 75.5,-142 114.465,-105.547 264.688,-80.8022 346.922,-69.682"/>
<polygon fill="none" stroke="midnightblue" points="24.6615,-260.056 27.2806,-270.322 31.6351,-260.663 24.6615,-260.056"/>
</g>
<!-- Node3 -->
<g id="node3" class="node"><title>Node3</title>
<g id="a_node3"><a xlink:href="class_grid.html" target="_top" xlink:title="Grid embedded roads. This describes the network. ">
<polygon fill="none" stroke="black" points="278,-171.5 278,-426.5 389,-426.5 389,-171.5 278,-171.5"/>
<text text-anchor="middle" x="333.5" y="-414.5" font-family="Helvetica,sans-Serif" font-size="10.00">Grid</text>
<polyline fill="none" stroke="black" points="278,-407.5 389,-407.5 "/>
<text text-anchor="middle" x="333.5" y="-395.5" font-family="Helvetica,sans-Serif" font-size="10.00"> </text>
<polyline fill="none" stroke="black" points="278,-388.5 389,-388.5 "/>
<text text-anchor="start" x="286" y="-376.5" font-family="Helvetica,sans-Serif" font-size="10.00">+ addRoad()</text>
<text text-anchor="start" x="286" y="-365.5" font-family="Helvetica,sans-Serif" font-size="10.00">+ buildKDTree()</text>
<text text-anchor="start" x="286" y="-354.5" font-family="Helvetica,sans-Serif" font-size="10.00">+ buildMarkovMatrix()</text>
<text text-anchor="start" x="286" y="-343.5" font-family="Helvetica,sans-Serif" font-size="10.00">+ getNoOfPoints()</text>
<text text-anchor="start" x="286" y="-332.5" font-family="Helvetica,sans-Serif" font-size="10.00">+ getNoOfRoads()</text>
<text text-anchor="start" x="286" y="-321.5" font-family="Helvetica,sans-Serif" font-size="10.00">+ getPoints()</text>
<text text-anchor="start" x="286" y="-310.5" font-family="Helvetica,sans-Serif" font-size="10.00">+ getRoadEntry()</text>
<text text-anchor="start" x="286" y="-299.5" font-family="Helvetica,sans-Serif" font-size="10.00">+ getRoads()</text>
<text text-anchor="start" x="286" y="-288.5" font-family="Helvetica,sans-Serif" font-size="10.00">+ Grid()</text>
<text text-anchor="start" x="286" y="-277.5" font-family="Helvetica,sans-Serif" font-size="10.00">+ inFootPrint()</text>
<text text-anchor="start" x="286" y="-266.5" font-family="Helvetica,sans-Serif" font-size="10.00">and 16 more...</text>
<text text-anchor="start" x="286" y="-255.5" font-family="Helvetica,sans-Serif" font-size="10.00">* m_xMin</text>
<text text-anchor="start" x="286" y="-244.5" font-family="Helvetica,sans-Serif" font-size="10.00">* m_xMax</text>
<text text-anchor="start" x="286" y="-233.5" font-family="Helvetica,sans-Serif" font-size="10.00">* m_yMin</text>
<text text-anchor="start" x="286" y="-222.5" font-family="Helvetica,sans-Serif" font-size="10.00">* m_yMax</text>
<text text-anchor="start" x="286" y="-211.5" font-family="Helvetica,sans-Serif" font-size="10.00">* m_xMinGrid</text>
<text text-anchor="start" x="286" y="-200.5" font-family="Helvetica,sans-Serif" font-size="10.00">* m_xMaxGrid</text>
<text text-anchor="start" x="286" y="-189.5" font-family="Helvetica,sans-Serif" font-size="10.00">* m_yMinGrid</text>
<text text-anchor="start" x="286" y="-178.5" font-family="Helvetica,sans-Serif" font-size="10.00">* m_yMaxGrid</text>
</a>
</g>
</g>
<!-- Node3&#45;&gt;Node1 -->
<g id="edge2" class="edge"><title>Node3&#45;&gt;Node1</title>
<path fill="none" stroke="#404040" d="M370.187,-171.214C373.749,-158.906 377.271,-146.734 380.595,-135.244"/>
<polygon fill="none" stroke="#404040" points="380.647,-135.066 378.472,-128.191 383.982,-123.539 386.157,-130.415 380.647,-135.066"/>
<text text-anchor="middle" x="391" y="-145" font-family="Helvetica,sans-Serif" font-size="10.00"> #grid</text>
</g>
<!-- Node4 -->
<g id="node4" class="node"><title>Node4</title>
<polygon fill="none" stroke="#bfbfbf" points="26,-485.5 26,-542.5 153,-542.5 153,-485.5 26,-485.5"/>
<text text-anchor="middle" x="89.5" y="-530.5" font-family="Helvetica,sans-Serif" font-size="10.00">std::vector&lt; PointRoad &gt;</text>
<polyline fill="none" stroke="#bfbfbf" points="26,-523.5 153,-523.5 "/>
<text text-anchor="middle" x="89.5" y="-511.5" font-family="Helvetica,sans-Serif" font-size="10.00"> </text>
<polyline fill="none" stroke="#bfbfbf" points="26,-504.5 153,-504.5 "/>
<text text-anchor="middle" x="89.5" y="-492.5" font-family="Helvetica,sans-Serif" font-size="10.00"> </text>
</g>
<!-- Node4&#45;&gt;Node1 -->
<g id="edge22" class="edge"><title>Node4&#45;&gt;Node1</title>
<path fill="none" stroke="#404040" d="M91.47,-485.284C97.2813,-422.413 119.37,-267.007 199.5,-171 234.821,-128.681 291.114,-100.526 335.313,-83.6048"/>
<polygon fill="none" stroke="#404040" points="335.595,-83.5006 339.833,-77.6667 346.849,-79.3354 342.61,-85.1693 335.595,-83.5006"/>
<text text-anchor="middle" x="234" y="-296.5" font-family="Helvetica,sans-Serif" font-size="10.00"> #m_roadPoints</text>
</g>
<!-- Node4&#45;&gt;Node3 -->
<g id="edge3" class="edge"><title>Node4&#45;&gt;Node3</title>
<path fill="none" stroke="#404040" d="M115.591,-485.198C127.729,-472.611 142.542,-457.734 156.5,-445 192.157,-412.469 233.84,-378.154 267.796,-351.076"/>
<polygon fill="none" stroke="#404040" points="268.217,-350.742 270.427,-343.878 277.613,-343.278 275.403,-350.142 268.217,-350.742"/>
<text text-anchor="middle" x="200.5" y="-448" font-family="Helvetica,sans-Serif" font-size="10.00"> #m_vectorOfPoints</text>
</g>
<!-- Node5 -->
<g id="node5" class="node"><title>Node5</title>
<g id="a_node5"><a xlink:href="class_point_road.html" target="_top" xlink:title="{PointRoad\n|# m_id\l# m_isNode\l# counter\l|+ id()\l+ infos()\l+ isNode()\l+ outputInfos()\l+ PointRoad()\l+ PointRoad()\l+ setid()\l+ updateBelongToRoad()\l+ vectorOfRoadId()\l}">
<polygon fill="none" stroke="black" points="122,-601.5 122,-768.5 247,-768.5 247,-601.5 122,-601.5"/>
<text text-anchor="middle" x="184.5" y="-756.5" font-family="Helvetica,sans-Serif" font-size="10.00">PointRoad</text>
<polyline fill="none" stroke="black" points="122,-749.5 247,-749.5 "/>
<text text-anchor="start" x="130" y="-737.5" font-family="Helvetica,sans-Serif" font-size="10.00"># m_id</text>
<text text-anchor="start" x="130" y="-726.5" font-family="Helvetica,sans-Serif" font-size="10.00"># m_isNode</text>
<text text-anchor="start" x="130" y="-715.5" font-family="Helvetica,sans-Serif" font-size="10.00"># counter</text>
<polyline fill="none" stroke="black" points="122,-708.5 247,-708.5 "/>
<text text-anchor="start" x="130" y="-696.5" font-family="Helvetica,sans-Serif" font-size="10.00">+ id()</text>
<text text-anchor="start" x="130" y="-685.5" font-family="Helvetica,sans-Serif" font-size="10.00">+ infos()</text>
<text text-anchor="start" x="130" y="-674.5" font-family="Helvetica,sans-Serif" font-size="10.00">+ isNode()</text>
<text text-anchor="start" x="130" y="-663.5" font-family="Helvetica,sans-Serif" font-size="10.00">+ outputInfos()</text>
<text text-anchor="start" x="130" y="-652.5" font-family="Helvetica,sans-Serif" font-size="10.00">+ PointRoad()</text>
<text text-anchor="start" x="130" y="-641.5" font-family="Helvetica,sans-Serif" font-size="10.00">+ PointRoad()</text>
<text text-anchor="start" x="130" y="-630.5" font-family="Helvetica,sans-Serif" font-size="10.00">+ setid()</text>
<text text-anchor="start" x="130" y="-619.5" font-family="Helvetica,sans-Serif" font-size="10.00">+ updateBelongToRoad()</text>
<text text-anchor="start" x="130" y="-608.5" font-family="Helvetica,sans-Serif" font-size="10.00">+ vectorOfRoadId()</text>
</a>
</g>
</g>
<!-- Node5&#45;&gt;Node4 -->
<g id="edge4" class="edge"><title>Node5&#45;&gt;Node4</title>
<path fill="none" stroke="#404040" d="M138.113,-601.48C128.58,-584.521 118.987,-567.455 110.871,-553.018"/>
<polygon fill="none" stroke="#404040" points="110.858,-552.995 104.431,-549.725 104.978,-542.535 111.405,-545.805 110.858,-552.995"/>
<text text-anchor="middle" x="151" y="-575" font-family="Helvetica,sans-Serif" font-size="10.00"> +elements</text>
</g>
<!-- Node10 -->
<g id="node10" class="node"><title>Node10</title>
<polygon fill="none" stroke="#bfbfbf" points="171.5,-474.5 171.5,-553.5 311.5,-553.5 311.5,-474.5 171.5,-474.5"/>
<text text-anchor="start" x="179.5" y="-541.5" font-family="Helvetica,sans-Serif" font-size="10.00">std::unordered_map</text>
<text text-anchor="start" x="179.5" y="-530.5" font-family="Helvetica,sans-Serif" font-size="10.00">&lt; PointRoad, int, hashFunc,</text>
<text text-anchor="middle" x="241.5" y="-519.5" font-family="Helvetica,sans-Serif" font-size="10.00"> equalsFunc &gt;</text>
<polyline fill="none" stroke="#bfbfbf" points="171.5,-512.5 311.5,-512.5 "/>
<text text-anchor="start" x="179.5" y="-500.5" font-family="Helvetica,sans-Serif" font-size="10.00">+ elements</text>
<polyline fill="none" stroke="#bfbfbf" points="171.5,-493.5 311.5,-493.5 "/>
<text text-anchor="middle" x="241.5" y="-481.5" font-family="Helvetica,sans-Serif" font-size="10.00"> </text>
</g>
<!-- Node5&#45;&gt;Node10 -->
<g id="edge10" class="edge"><title>Node5&#45;&gt;Node10</title>
<path fill="none" stroke="#404040" d="M212.332,-601.48C216.527,-589.043 220.741,-576.548 224.611,-565.075"/>
<polygon fill="none" stroke="#404040" points="224.668,-564.904 222.796,-557.941 228.503,-553.534 230.376,-560.497 224.668,-564.904"/>
<text text-anchor="middle" x="237" y="-575" font-family="Helvetica,sans-Serif" font-size="10.00"> +keys</text>
</g>
<!-- Node6 -->
<g id="node6" class="node"><title>Node6</title>
<g id="a_node6"><a xlink:href="class_point.html" target="_top" xlink:title="The Point class. ">
<polygon fill="none" stroke="black" points="242,-816.5 242,-1027.5 361,-1027.5 361,-816.5 242,-816.5"/>
<text text-anchor="middle" x="301.5" y="-1015.5" font-family="Helvetica,sans-Serif" font-size="10.00">Point</text>
<polyline fill="none" stroke="black" points="242,-1008.5 361,-1008.5 "/>
<text text-anchor="start" x="250" y="-996.5" font-family="Helvetica,sans-Serif" font-size="10.00"># POINT_RADIUS</text>
<polyline fill="none" stroke="black" points="242,-989.5 361,-989.5 "/>
<text text-anchor="start" x="250" y="-977.5" font-family="Helvetica,sans-Serif" font-size="10.00">+ distanceToPoint()</text>
<text text-anchor="start" x="250" y="-966.5" font-family="Helvetica,sans-Serif" font-size="10.00">+ distanceToSegment()</text>
<text text-anchor="start" x="250" y="-955.5" font-family="Helvetica,sans-Serif" font-size="10.00">+ infos()</text>
<text text-anchor="start" x="250" y="-944.5" font-family="Helvetica,sans-Serif" font-size="10.00">+ Point()</text>
<text text-anchor="start" x="250" y="-933.5" font-family="Helvetica,sans-Serif" font-size="10.00">+ Point()</text>
<text text-anchor="start" x="250" y="-922.5" font-family="Helvetica,sans-Serif" font-size="10.00">+ samePointAs()</text>
<text text-anchor="start" x="250" y="-911.5" font-family="Helvetica,sans-Serif" font-size="10.00">+ setx()</text>
<text text-anchor="start" x="250" y="-900.5" font-family="Helvetica,sans-Serif" font-size="10.00">+ x()</text>
<text text-anchor="start" x="250" y="-889.5" font-family="Helvetica,sans-Serif" font-size="10.00">+ ~Point()</text>
<text text-anchor="start" x="250" y="-878.5" font-family="Helvetica,sans-Serif" font-size="10.00">* x()</text>
<text text-anchor="start" x="250" y="-867.5" font-family="Helvetica,sans-Serif" font-size="10.00">* setx()</text>
<text text-anchor="start" x="250" y="-856.5" font-family="Helvetica,sans-Serif" font-size="10.00">* y()</text>
<text text-anchor="start" x="250" y="-845.5" font-family="Helvetica,sans-Serif" font-size="10.00">* sety()</text>
<text text-anchor="start" x="250" y="-834.5" font-family="Helvetica,sans-Serif" font-size="10.00">* m_x</text>
<text text-anchor="start" x="250" y="-823.5" font-family="Helvetica,sans-Serif" font-size="10.00">* m_y</text>
</a>
</g>
</g>
<!-- Node6&#45;&gt;Node5 -->
<g id="edge5" class="edge"><title>Node6&#45;&gt;Node5</title>
<path fill="none" stroke="midnightblue" d="M283.714,-806.432C281.314,-799.728 278.59,-793.198 275.5,-787 268.128,-772.214 257.984,-757.963 247.135,-745.059"/>
<polygon fill="none" stroke="midnightblue" points="280.537,-807.971 287.005,-816.362 287.181,-805.769 280.537,-807.971"/>
</g>
<!-- Node17 -->
<g id="node17" class="node"><title>Node17</title>
<g id="a_node17"><a xlink:href="class_point_g_p_s.html" target="_top" xlink:title="{PointGPS\n|# m_altitude\l# m_timeStamp\l|+ addEmissionProbability()\l+ altitude()\l+ infos()\l+ PointGPS()\l+ PointGPS()\l+ timeStamp()\l}">
<polygon fill="none" stroke="black" points="606.5,-623.5 606.5,-746.5 740.5,-746.5 740.5,-623.5 606.5,-623.5"/>
<text text-anchor="middle" x="673.5" y="-734.5" font-family="Helvetica,sans-Serif" font-size="10.00">PointGPS</text>
<polyline fill="none" stroke="black" points="606.5,-727.5 740.5,-727.5 "/>
<text text-anchor="start" x="614.5" y="-715.5" font-family="Helvetica,sans-Serif" font-size="10.00"># m_altitude</text>
<text text-anchor="start" x="614.5" y="-704.5" font-family="Helvetica,sans-Serif" font-size="10.00"># m_timeStamp</text>
<polyline fill="none" stroke="black" points="606.5,-697.5 740.5,-697.5 "/>
<text text-anchor="start" x="614.5" y="-685.5" font-family="Helvetica,sans-Serif" font-size="10.00">+ addEmissionProbability()</text>
<text text-anchor="start" x="614.5" y="-674.5" font-family="Helvetica,sans-Serif" font-size="10.00">+ altitude()</text>
<text text-anchor="start" x="614.5" y="-663.5" font-family="Helvetica,sans-Serif" font-size="10.00">+ infos()</text>
<text text-anchor="start" x="614.5" y="-652.5" font-family="Helvetica,sans-Serif" font-size="10.00">+ PointGPS()</text>
<text text-anchor="start" x="614.5" y="-641.5" font-family="Helvetica,sans-Serif" font-size="10.00">+ PointGPS()</text>
<text text-anchor="start" x="614.5" y="-630.5" font-family="Helvetica,sans-Serif" font-size="10.00">+ timeStamp()</text>
</a>
</g>
</g>
<!-- Node6&#45;&gt;Node17 -->
<g id="edge19" class="edge"><title>Node6&#45;&gt;Node17</title>
<path fill="none" stroke="midnightblue" d="M369.288,-816.763C369.69,-816.505 370.094,-816.251 370.5,-816 428.365,-780.232 456.522,-814.573 522.5,-798 535.467,-794.743 538.052,-791.881 550.5,-787 570.939,-778.986 578.355,-781.359 596.5,-769 605.922,-762.582 615.028,-754.812 623.476,-746.632"/>
<polygon fill="none" stroke="midnightblue" points="367.2,-813.953 361.122,-822.631 371.285,-819.638 367.2,-813.953"/>
</g>
<!-- Node7 -->
<g id="node7" class="node"><title>Node7</title>
<polygon fill="none" stroke="#bfbfbf" points="125,-893.5 125,-950.5 224,-950.5 224,-893.5 125,-893.5"/>
<text text-anchor="middle" x="174.5" y="-938.5" font-family="Helvetica,sans-Serif" font-size="10.00">std::vector&lt; long &gt;</text>
<polyline fill="none" stroke="#bfbfbf" points="125,-931.5 224,-931.5 "/>
<text text-anchor="start" x="133" y="-919.5" font-family="Helvetica,sans-Serif" font-size="10.00">+ elements</text>
<polyline fill="none" stroke="#bfbfbf" points="125,-912.5 224,-912.5 "/>
<text text-anchor="middle" x="174.5" y="-900.5" font-family="Helvetica,sans-Serif" font-size="10.00"> </text>
</g>
<!-- Node7&#45;&gt;Node5 -->
<g id="edge6" class="edge"><title>Node7&#45;&gt;Node5</title>
<path fill="none" stroke="#404040" d="M175.686,-893.12C176.868,-865.349 178.75,-821.135 180.471,-780.676"/>
<polygon fill="none" stroke="#404040" points="180.477,-780.533 176.736,-774.368 180.988,-768.544 184.729,-774.708 180.477,-780.533"/>
<text text-anchor="middle" x="226" y="-790" font-family="Helvetica,sans-Serif" font-size="10.00"> #m_vectorOfRoadId</text>
</g>
<!-- Node8 -->
<g id="node8" class="node"><title>Node8</title>
<g id="a_node8"><a xlink:title="STL class. ">
<polygon fill="none" stroke="#bfbfbf" points="354.5,-485.5 354.5,-542.5 414.5,-542.5 414.5,-485.5 354.5,-485.5"/>
<text text-anchor="middle" x="384.5" y="-530.5" font-family="Helvetica,sans-Serif" font-size="10.00">std::string</text>
<polyline fill="none" stroke="#bfbfbf" points="354.5,-523.5 414.5,-523.5 "/>
<text text-anchor="middle" x="384.5" y="-511.5" font-family="Helvetica,sans-Serif" font-size="10.00"> </text>
<polyline fill="none" stroke="#bfbfbf" points="354.5,-504.5 414.5,-504.5 "/>
<text text-anchor="middle" x="384.5" y="-492.5" font-family="Helvetica,sans-Serif" font-size="10.00"> </text>
</a>
</g>
</g>
<!-- Node8&#45;&gt;Node3 -->
<g id="edge7" class="edge"><title>Node8&#45;&gt;Node3</title>
<path fill="none" stroke="#404040" d="M365.468,-485.38C360.113,-476.378 354.844,-466.095 351.5,-456 349.593,-450.244 347.882,-444.31 346.347,-438.273"/>
<polygon fill="none" stroke="#404040" points="346.34,-438.241 341.078,-433.31 343.606,-426.556 348.868,-431.488 346.34,-438.241"/>
<text text-anchor="middle" x="391.5" y="-448" font-family="Helvetica,sans-Serif" font-size="10.00"> #m_gridFullName</text>
</g>
<!-- Node15 -->
<g id="node15" class="node"><title>Node15</title>
<g id="a_node15"><a xlink:href="class_track.html" target="_top" xlink:title="The Track class. ">
<polygon fill="none" stroke="black" points="407.5,-182.5 407.5,-415.5 533.5,-415.5 533.5,-182.5 407.5,-182.5"/>
<text text-anchor="middle" x="470.5" y="-403.5" font-family="Helvetica,sans-Serif" font-size="10.00">Track</text>
<polyline fill="none" stroke="black" points="407.5,-396.5 533.5,-396.5 "/>
<text text-anchor="middle" x="470.5" y="-384.5" font-family="Helvetica,sans-Serif" font-size="10.00"> </text>
<polyline fill="none" stroke="black" points="407.5,-377.5 533.5,-377.5 "/>
<text text-anchor="start" x="415.5" y="-365.5" font-family="Helvetica,sans-Serif" font-size="10.00">+ addPoint()</text>
<text text-anchor="start" x="415.5" y="-354.5" font-family="Helvetica,sans-Serif" font-size="10.00">+ applyThresholdToBox()</text>
<text text-anchor="start" x="415.5" y="-343.5" font-family="Helvetica,sans-Serif" font-size="10.00">+ delPointGPS()</text>
<text text-anchor="start" x="415.5" y="-332.5" font-family="Helvetica,sans-Serif" font-size="10.00">+ getPoints()</text>
<text text-anchor="start" x="415.5" y="-321.5" font-family="Helvetica,sans-Serif" font-size="10.00">+ getPointsAsPointer()</text>
<text text-anchor="start" x="415.5" y="-310.5" font-family="Helvetica,sans-Serif" font-size="10.00">+ infos()</text>
<text text-anchor="start" x="415.5" y="-299.5" font-family="Helvetica,sans-Serif" font-size="10.00">+ outputInfos()</text>
<text text-anchor="start" x="415.5" y="-288.5" font-family="Helvetica,sans-Serif" font-size="10.00">+ readFromCSV()</text>
<text text-anchor="start" x="415.5" y="-277.5" font-family="Helvetica,sans-Serif" font-size="10.00">+ spaceFilter()</text>
<text text-anchor="start" x="415.5" y="-266.5" font-family="Helvetica,sans-Serif" font-size="10.00">+ temporalFilter()</text>
<text text-anchor="start" x="415.5" y="-255.5" font-family="Helvetica,sans-Serif" font-size="10.00">+ Track()</text>
<text text-anchor="start" x="415.5" y="-244.5" font-family="Helvetica,sans-Serif" font-size="10.00">+ updateBox()</text>
<text text-anchor="start" x="415.5" y="-233.5" font-family="Helvetica,sans-Serif" font-size="10.00">+ ~Track()</text>
<text text-anchor="start" x="415.5" y="-222.5" font-family="Helvetica,sans-Serif" font-size="10.00">* m_xMin</text>
<text text-anchor="start" x="415.5" y="-211.5" font-family="Helvetica,sans-Serif" font-size="10.00">* m_xMax</text>
<text text-anchor="start" x="415.5" y="-200.5" font-family="Helvetica,sans-Serif" font-size="10.00">* m_yMin</text>
<text text-anchor="start" x="415.5" y="-189.5" font-family="Helvetica,sans-Serif" font-size="10.00">* m_yMax</text>
</a>
</g>
</g>
<!-- Node8&#45;&gt;Node15 -->
<g id="edge16" class="edge"><title>Node8&#45;&gt;Node15</title>
<path fill="none" stroke="#404040" d="M411.354,-485.474C418.784,-476.635 426.243,-466.421 431.5,-456 436.064,-446.953 440.118,-437.336 443.715,-427.491"/>
<polygon fill="none" stroke="#404040" points="443.817,-427.195 441.992,-420.219 447.73,-415.851 449.555,-422.828 443.817,-427.195"/>
<text text-anchor="middle" x="478.5" y="-448" font-family="Helvetica,sans-Serif" font-size="10.00"> #m_trackFullName</text>
</g>
<!-- Node9 -->
<g id="node9" class="node"><title>Node9</title>
<g id="a_node9"><a xlink:title="STL class. ">
<polygon fill="none" stroke="#bfbfbf" points="337,-651 337,-719 432,-719 432,-651 337,-651"/>
<text text-anchor="start" x="345" y="-707" font-family="Helvetica,sans-Serif" font-size="10.00">std::basic_string&lt;</text>
<text text-anchor="middle" x="384.5" y="-696" font-family="Helvetica,sans-Serif" font-size="10.00"> char &gt;</text>
<polyline fill="none" stroke="#bfbfbf" points="337,-689 432,-689 "/>
<text text-anchor="middle" x="384.5" y="-677" font-family="Helvetica,sans-Serif" font-size="10.00"> </text>
<polyline fill="none" stroke="#bfbfbf" points="337,-670 432,-670 "/>
<text text-anchor="middle" x="384.5" y="-658" font-family="Helvetica,sans-Serif" font-size="10.00"> </text>
</a>
</g>
</g>
<!-- Node9&#45;&gt;Node8 -->
<g id="edge8" class="edge"><title>Node9&#45;&gt;Node8</title>
<path fill="none" stroke="midnightblue" d="M384.5,-640.56C384.5,-609.735 384.5,-569.277 384.5,-542.729"/>
<polygon fill="none" stroke="midnightblue" points="381,-640.611 384.5,-650.611 388,-640.611 381,-640.611"/>
</g>
<!-- Node10&#45;&gt;Node3 -->
<g id="edge9" class="edge"><title>Node10&#45;&gt;Node3</title>
<path fill="none" stroke="#404040" d="M244.681,-474.288C246.16,-464.559 248.326,-454.256 251.5,-445 257.026,-428.885 264.35,-412.509 272.353,-396.846"/>
<polygon fill="none" stroke="#404040" points="272.404,-396.749 271.656,-389.577 277.988,-386.127 278.737,-393.299 272.404,-396.749"/>
<text text-anchor="middle" x="298.5" y="-448" font-family="Helvetica,sans-Serif" font-size="10.00"> #m_mapOfExtPoints</text>
</g>
<!-- Node11 -->
<g id="node11" class="node"><title>Node11</title>
<polygon fill="none" stroke="#bfbfbf" points="481,-480 481,-548 584,-548 584,-480 481,-480"/>
<text text-anchor="start" x="489" y="-536" font-family="Helvetica,sans-Serif" font-size="10.00">std::unordered_map</text>
<text text-anchor="middle" x="532.5" y="-525" font-family="Helvetica,sans-Serif" font-size="10.00">&lt; long, Road &gt;</text>
<polyline fill="none" stroke="#bfbfbf" points="481,-518 584,-518 "/>
<text text-anchor="start" x="489" y="-506" font-family="Helvetica,sans-Serif" font-size="10.00">+ keys</text>
<polyline fill="none" stroke="#bfbfbf" points="481,-499 584,-499 "/>
<text text-anchor="middle" x="532.5" y="-487" font-family="Helvetica,sans-Serif" font-size="10.00"> </text>
</g>
<!-- Node11&#45;&gt;Node3 -->
<g id="edge11" class="edge"><title>Node11&#45;&gt;Node3</title>
<path fill="none" stroke="#404040" d="M537.092,-479.656C536.923,-467.28 534.224,-454.064 525.5,-445 488.437,-406.493 450.047,-453.449 399.53,-426.031"/>
<polygon fill="none" stroke="#404040" points="399.39,-425.943 392.181,-426.102 389.261,-419.509 396.471,-419.349 399.39,-425.943"/>
<text text-anchor="middle" x="578" y="-448" font-family="Helvetica,sans-Serif" font-size="10.00"> #m_mapOfAllRoads</text>
</g>
<!-- Node12 -->
<g id="node12" class="node"><title>Node12</title>
<g id="a_node12"><a xlink:href="class_road.html" target="_top" xlink:title="Road is an element of a network. Road are strongly linked with Points. ">
<polygon fill="none" stroke="black" points="475,-601.5 475,-768.5 588,-768.5 588,-601.5 475,-601.5"/>
<text text-anchor="middle" x="531.5" y="-756.5" font-family="Helvetica,sans-Serif" font-size="10.00">Road</text>
<polyline fill="none" stroke="black" points="475,-749.5 588,-749.5 "/>
<text text-anchor="start" x="483" y="-737.5" font-family="Helvetica,sans-Serif" font-size="10.00"># m_edgeId</text>
<polyline fill="none" stroke="black" points="475,-730.5 588,-730.5 "/>
<text text-anchor="start" x="483" y="-718.5" font-family="Helvetica,sans-Serif" font-size="10.00">+ addNeighbor()</text>
<text text-anchor="start" x="483" y="-707.5" font-family="Helvetica,sans-Serif" font-size="10.00">+ addPoint()</text>
<text text-anchor="start" x="483" y="-696.5" font-family="Helvetica,sans-Serif" font-size="10.00">+ edgeId()</text>
<text text-anchor="start" x="483" y="-685.5" font-family="Helvetica,sans-Serif" font-size="10.00">+ getListOfPoints()</text>
<text text-anchor="start" x="483" y="-674.5" font-family="Helvetica,sans-Serif" font-size="10.00">+ getm_edgeId()</text>
<text text-anchor="start" x="483" y="-663.5" font-family="Helvetica,sans-Serif" font-size="10.00">+ getNoOfNeighbors()</text>
<text text-anchor="start" x="483" y="-652.5" font-family="Helvetica,sans-Serif" font-size="10.00">+ outputInfos()</text>
<text text-anchor="start" x="483" y="-641.5" font-family="Helvetica,sans-Serif" font-size="10.00">+ Road()</text>
<text text-anchor="start" x="483" y="-630.5" font-family="Helvetica,sans-Serif" font-size="10.00">+ Road()</text>
<text text-anchor="start" x="483" y="-619.5" font-family="Helvetica,sans-Serif" font-size="10.00">+ vectorOfPointsId()</text>
<text text-anchor="start" x="483" y="-608.5" font-family="Helvetica,sans-Serif" font-size="10.00">+ ~Road()</text>
</a>
</g>
</g>
<!-- Node12&#45;&gt;Node11 -->
<g id="edge12" class="edge"><title>Node12&#45;&gt;Node11</title>
<path fill="none" stroke="#404040" d="M531.988,-601.48C532.072,-587.278 532.157,-573.001 532.232,-560.256"/>
<polygon fill="none" stroke="#404040" points="532.233,-560.08 528.269,-554.057 532.304,-548.08 536.269,-554.104 532.233,-560.08"/>
<text text-anchor="middle" x="557" y="-575" font-family="Helvetica,sans-Serif" font-size="10.00"> +elements</text>
</g>
<!-- Node13 -->
<g id="node13" class="node"><title>Node13</title>
<polygon fill="none" stroke="#bfbfbf" points="526.5,-893.5 526.5,-950.5 612.5,-950.5 612.5,-893.5 526.5,-893.5"/>
<text text-anchor="middle" x="569.5" y="-938.5" font-family="Helvetica,sans-Serif" font-size="10.00">std::set&lt; long &gt;</text>
<polyline fill="none" stroke="#bfbfbf" points="526.5,-931.5 612.5,-931.5 "/>
<text text-anchor="start" x="534.5" y="-919.5" font-family="Helvetica,sans-Serif" font-size="10.00">+ keys</text>
<polyline fill="none" stroke="#bfbfbf" points="526.5,-912.5 612.5,-912.5 "/>
<text text-anchor="middle" x="569.5" y="-900.5" font-family="Helvetica,sans-Serif" font-size="10.00"> </text>
</g>
<!-- Node13&#45;&gt;Node12 -->
<g id="edge13" class="edge"><title>Node13&#45;&gt;Node12</title>
<path fill="none" stroke="#404040" d="M564.992,-893.12C560.491,-865.289 553.321,-820.945 546.767,-780.415"/>
<polygon fill="none" stroke="#404040" points="546.763,-780.39 541.857,-775.105 544.847,-768.544 549.754,-773.828 546.763,-780.39"/>
<text text-anchor="middle" x="595" y="-790" font-family="Helvetica,sans-Serif" font-size="10.00"> #m_setOfNeighbors</text>
</g>
<!-- Node14 -->
<g id="node14" class="node"><title>Node14</title>
<polygon fill="none" stroke="#bfbfbf" points="379.5,-893.5 379.5,-950.5 471.5,-950.5 471.5,-893.5 379.5,-893.5"/>
<text text-anchor="middle" x="425.5" y="-938.5" font-family="Helvetica,sans-Serif" font-size="10.00">std::vector&lt; int &gt;</text>
<polyline fill="none" stroke="#bfbfbf" points="379.5,-931.5 471.5,-931.5 "/>
<text text-anchor="start" x="387.5" y="-919.5" font-family="Helvetica,sans-Serif" font-size="10.00">+ elements</text>
<polyline fill="none" stroke="#bfbfbf" points="379.5,-912.5 471.5,-912.5 "/>
<text text-anchor="middle" x="425.5" y="-900.5" font-family="Helvetica,sans-Serif" font-size="10.00"> </text>
</g>
<!-- Node14&#45;&gt;Node12 -->
<g id="edge14" class="edge"><title>Node14&#45;&gt;Node12</title>
<path fill="none" stroke="#404040" d="M426.136,-893.353C427.704,-865.376 432.744,-821.453 448.5,-787 453.615,-775.817 460.282,-764.843 467.617,-754.49"/>
<polygon fill="none" stroke="#404040" points="467.677,-754.409 468.037,-747.207 474.824,-744.769 474.464,-751.971 467.677,-754.409"/>
<text text-anchor="middle" x="496.5" y="-790" font-family="Helvetica,sans-Serif" font-size="10.00"> #m_vectorOfPointsId</text>
</g>
<!-- Node15&#45;&gt;Node1 -->
<g id="edge15" class="edge"><title>Node15&#45;&gt;Node1</title>
<path fill="none" stroke="#404040" d="M436.505,-182.221C431.808,-166.223 427.098,-150.183 422.724,-135.286"/>
<polygon fill="none" stroke="#404040" points="422.676,-135.121 417.148,-130.491 419.295,-123.607 424.824,-128.237 422.676,-135.121"/>
<text text-anchor="middle" x="444" y="-145" font-family="Helvetica,sans-Serif" font-size="10.00"> #track</text>
</g>
<!-- Node16 -->
<g id="node16" class="node"><title>Node16</title>
<polygon fill="none" stroke="#bfbfbf" points="604,-485.5 604,-542.5 735,-542.5 735,-485.5 604,-485.5"/>
<text text-anchor="middle" x="669.5" y="-530.5" font-family="Helvetica,sans-Serif" font-size="10.00">std::vector&lt; PointGPS * &gt;</text>
<polyline fill="none" stroke="#bfbfbf" points="604,-523.5 735,-523.5 "/>
<text text-anchor="middle" x="669.5" y="-511.5" font-family="Helvetica,sans-Serif" font-size="10.00"> </text>
<polyline fill="none" stroke="#bfbfbf" points="604,-504.5 735,-504.5 "/>
<text text-anchor="middle" x="669.5" y="-492.5" font-family="Helvetica,sans-Serif" font-size="10.00"> </text>
</g>
<!-- Node16&#45;&gt;Node15 -->
<g id="edge17" class="edge"><title>Node16&#45;&gt;Node15</title>
<path fill="none" stroke="#404040" d="M654.739,-485.378C647.319,-472.549 637.736,-457.422 627.5,-445 602.38,-414.514 571,-384.307 542.911,-359.419"/>
<polygon fill="none" stroke="#404040" points="542.548,-359.101 535.4,-358.153 533.525,-351.19 540.674,-352.138 542.548,-359.101"/>
<text text-anchor="middle" x="660" y="-448" font-family="Helvetica,sans-Serif" font-size="10.00"> #m_points</text>
</g>
<!-- Node17&#45;&gt;Node16 -->
<g id="edge18" class="edge"><title>Node17&#45;&gt;Node16</title>
<path fill="none" stroke="#404040" d="M672.067,-623.464C671.525,-600.562 670.922,-575.099 670.437,-554.602"/>
<polygon fill="none" stroke="#404040" points="670.436,-554.546 666.295,-548.643 670.152,-542.55 674.293,-548.453 670.436,-554.546"/>
<text text-anchor="middle" x="696" y="-575" font-family="Helvetica,sans-Serif" font-size="10.00"> +elements</text>
</g>
<!-- Node18 -->
<g id="node18" class="node"><title>Node18</title>
<polygon fill="none" stroke="#bfbfbf" points="631,-893.5 631,-950.5 798,-950.5 798,-893.5 631,-893.5"/>
<text text-anchor="middle" x="714.5" y="-938.5" font-family="Helvetica,sans-Serif" font-size="10.00">std::vector&lt; EmissionProbability &gt;</text>
<polyline fill="none" stroke="#bfbfbf" points="631,-931.5 798,-931.5 "/>
<text text-anchor="middle" x="714.5" y="-919.5" font-family="Helvetica,sans-Serif" font-size="10.00"> </text>
<polyline fill="none" stroke="#bfbfbf" points="631,-912.5 798,-912.5 "/>
<text text-anchor="middle" x="714.5" y="-900.5" font-family="Helvetica,sans-Serif" font-size="10.00"> </text>
</g>
<!-- Node18&#45;&gt;Node17 -->
<g id="edge20" class="edge"><title>Node18&#45;&gt;Node17</title>
<path fill="none" stroke="#404040" d="M709.636,-893.12C703.892,-860.196 694.115,-804.159 686.178,-758.668"/>
<polygon fill="none" stroke="#404040" points="686.161,-758.571 681.19,-753.348 684.099,-746.75 689.071,-751.973 686.161,-758.571"/>
<text text-anchor="middle" x="747" y="-790" font-family="Helvetica,sans-Serif" font-size="10.00"> #m_emissionProbability</text>
</g>
<!-- Node19 -->
<g id="node19" class="node"><title>Node19</title>
<g id="a_node19"><a xlink:href="class_emission_probability.html" target="_top" xlink:title="{EmissionProbability\n|# m_distance\l# m_probability\l# m_roadId\l|+ EmissionProbability()\l+ updateProbability()\l}">
<polygon fill="none" stroke="black" points="655.5,-1075.5 655.5,-1165.5 773.5,-1165.5 773.5,-1075.5 655.5,-1075.5"/>
<text text-anchor="middle" x="714.5" y="-1153.5" font-family="Helvetica,sans-Serif" font-size="10.00">EmissionProbability</text>
<polyline fill="none" stroke="black" points="655.5,-1146.5 773.5,-1146.5 "/>
<text text-anchor="start" x="663.5" y="-1134.5" font-family="Helvetica,sans-Serif" font-size="10.00"># m_distance</text>
<text text-anchor="start" x="663.5" y="-1123.5" font-family="Helvetica,sans-Serif" font-size="10.00"># m_probability</text>
<text text-anchor="start" x="663.5" y="-1112.5" font-family="Helvetica,sans-Serif" font-size="10.00"># m_roadId</text>
<polyline fill="none" stroke="black" points="655.5,-1105.5 773.5,-1105.5 "/>
<text text-anchor="start" x="663.5" y="-1093.5" font-family="Helvetica,sans-Serif" font-size="10.00">+ EmissionProbability()</text>
<text text-anchor="start" x="663.5" y="-1082.5" font-family="Helvetica,sans-Serif" font-size="10.00">+ updateProbability()</text>
</a>
</g>
</g>
<!-- Node19&#45;&gt;Node18 -->
<g id="edge21" class="edge"><title>Node19&#45;&gt;Node18</title>
<path fill="none" stroke="#404040" d="M714.5,-1075.4C714.5,-1041.64 714.5,-995.465 714.5,-962.816"/>
<polygon fill="none" stroke="#404040" points="714.5,-962.589 710.5,-956.589 714.5,-950.589 718.5,-956.589 714.5,-962.589"/>
<text text-anchor="middle" x="739" y="-1049" font-family="Helvetica,sans-Serif" font-size="10.00"> +elements</text>
</g>
<!-- Node20 -->
<g id="node20" class="node"><title>Node20</title>
<g id="a_node20"><a xlink:title="STL class. ">
<polygon fill="none" stroke="#bfbfbf" points="710,-265 710,-333 813,-333 813,-265 710,-265"/>
<text text-anchor="start" x="718" y="-321" font-family="Helvetica,sans-Serif" font-size="10.00">std::unordered_map</text>
<text text-anchor="middle" x="761.5" y="-310" font-family="Helvetica,sans-Serif" font-size="10.00">&lt; K, T &gt;</text>
<polyline fill="none" stroke="#bfbfbf" points="710,-303 813,-303 "/>
<text text-anchor="middle" x="761.5" y="-291" font-family="Helvetica,sans-Serif" font-size="10.00"> </text>
<polyline fill="none" stroke="#bfbfbf" points="710,-284 813,-284 "/>
<text text-anchor="middle" x="761.5" y="-272" font-family="Helvetica,sans-Serif" font-size="10.00"> </text>
</a>
</g>
</g>
<!-- Node20&#45;&gt;Node1 -->
<g id="edge23" class="edge"><title>Node20&#45;&gt;Node1</title>
<path fill="none" stroke="#404040" d="M710.684,-264.829C646.714,-223.07 536.734,-151.278 466.647,-105.527"/>
<polygon fill="none" stroke="#404040" points="466.229,-105.254 459.019,-105.324 456.181,-98.6944 463.392,-98.6247 466.229,-105.254"/>
<text text-anchor="middle" x="562.5" y="-145" font-family="Helvetica,sans-Serif" font-size="10.00"> #m_roads</text>
</g>
<!-- Node21 -->
<g id="node21" class="node"><title>Node21</title>
<polygon fill="none" stroke="#bfbfbf" points="753,-485.5 753,-542.5 782,-542.5 782,-485.5 753,-485.5"/>
<text text-anchor="middle" x="767.5" y="-530.5" font-family="Helvetica,sans-Serif" font-size="10.00">K</text>
<polyline fill="none" stroke="#bfbfbf" points="753,-523.5 782,-523.5 "/>
<text text-anchor="middle" x="767.5" y="-511.5" font-family="Helvetica,sans-Serif" font-size="10.00"> </text>
<polyline fill="none" stroke="#bfbfbf" points="753,-504.5 782,-504.5 "/>
<text text-anchor="middle" x="767.5" y="-492.5" font-family="Helvetica,sans-Serif" font-size="10.00"> </text>
</g>
<!-- Node21&#45;&gt;Node20 -->
<g id="edge24" class="edge"><title>Node21&#45;&gt;Node20</title>
<path fill="none" stroke="#404040" d="M764.633,-485.488C763.78,-476.14 762.952,-465.625 762.5,-456 760.751,-418.787 760.593,-376.528 760.821,-345.387"/>
<polygon fill="none" stroke="#404040" points="760.823,-345.191 756.879,-339.154 760.934,-333.192 764.878,-339.228 760.823,-345.191"/>
<text text-anchor="middle" x="778" y="-448" font-family="Helvetica,sans-Serif" font-size="10.00"> +keys</text>
</g>
<!-- Node22 -->
<g id="node22" class="node"><title>Node22</title>
<polygon fill="none" stroke="#bfbfbf" points="837,-485.5 837,-542.5 866,-542.5 866,-485.5 837,-485.5"/>
<text text-anchor="middle" x="851.5" y="-530.5" font-family="Helvetica,sans-Serif" font-size="10.00">T</text>
<polyline fill="none" stroke="#bfbfbf" points="837,-523.5 866,-523.5 "/>
<text text-anchor="middle" x="851.5" y="-511.5" font-family="Helvetica,sans-Serif" font-size="10.00"> </text>
<polyline fill="none" stroke="#bfbfbf" points="837,-504.5 866,-504.5 "/>
<text text-anchor="middle" x="851.5" y="-492.5" font-family="Helvetica,sans-Serif" font-size="10.00"> </text>
</g>
<!-- Node22&#45;&gt;Node20 -->
<g id="edge25" class="edge"><title>Node22&#45;&gt;Node20</title>
<path fill="none" stroke="#404040" d="M836.901,-494.571C828.884,-483.793 819.233,-469.658 812.5,-456 794.793,-420.081 781.157,-376.582 772.458,-344.652"/>
<polygon fill="none" stroke="#404040" points="772.45,-344.619 767.043,-339.847 769.368,-333.021 774.775,-337.793 772.45,-344.619"/>
<text text-anchor="middle" x="837" y="-448" font-family="Helvetica,sans-Serif" font-size="10.00"> +elements</text>
</g>
<!-- Node23 -->
<g id="node23" class="node"><title>Node23</title>
<g id="a_node23"><a xlink:title="STL class. ">
<polygon fill="none" stroke="#bfbfbf" points="837,-270.5 837,-327.5 924,-327.5 924,-270.5 837,-270.5"/>
<text text-anchor="middle" x="880.5" y="-315.5" font-family="Helvetica,sans-Serif" font-size="10.00">std::vector&lt; T &gt;</text>
<polyline fill="none" stroke="#bfbfbf" points="837,-308.5 924,-308.5 "/>
<text text-anchor="middle" x="880.5" y="-296.5" font-family="Helvetica,sans-Serif" font-size="10.00"> </text>
<polyline fill="none" stroke="#bfbfbf" points="837,-289.5 924,-289.5 "/>
<text text-anchor="middle" x="880.5" y="-277.5" font-family="Helvetica,sans-Serif" font-size="10.00"> </text>
</a>
</g>
</g>
<!-- Node22&#45;&gt;Node23 -->
<g id="edge27" class="edge"><title>Node22&#45;&gt;Node23</title>
<path fill="none" stroke="#404040" d="M859.149,-485.337C861.482,-476.071 863.861,-465.644 865.5,-456 872.151,-416.865 876.093,-371.668 878.254,-340.03"/>
<polygon fill="none" stroke="#404040" points="878.272,-339.751 874.668,-333.505 879.048,-327.776 882.651,-334.022 878.272,-339.751"/>
<text text-anchor="middle" x="892" y="-448" font-family="Helvetica,sans-Serif" font-size="10.00"> +elements</text>
</g>
<!-- Node23&#45;&gt;Node1 -->
<g id="edge26" class="edge"><title>Node23&#45;&gt;Node1</title>
<path fill="none" stroke="#404040" d="M874.994,-270.461C867.746,-241.446 852.154,-196.496 821.5,-171 719.363,-86.0496 558.491,-66.8965 468.374,-63.1959"/>
<polygon fill="none" stroke="#404040" points="468.134,-63.1877 461.998,-66.977 456.141,-62.7711 462.276,-58.9818 468.134,-63.1877"/>
<text text-anchor="middle" x="830.5" y="-145" font-family="Helvetica,sans-Serif" font-size="10.00"> #m_trackPoints</text>
</g>
</g>
</svg>
