<?xml version="1.0" encoding="UTF-8" standalone="no"?>
<!DOCTYPE svg PUBLIC "-//W3C//DTD SVG 1.1//EN"
 "http://www.w3.org/Graphics/SVG/1.1/DTD/svg11.dtd">
<!-- Generated by graphviz version 2.38.0 (20140413.2041)
 -->
<!-- Title: Loading::launchFiles Pages: 1 -->
<svg width="537pt" height="142pt"
 viewBox="0.00 0.00 537.00 142.00" xmlns="http://www.w3.org/2000/svg" xmlns:xlink="http://www.w3.org/1999/xlink">
<g id="graph0" class="graph" transform="scale(1 1) rotate(0) translate(4 138)">
<title>Loading::launchFiles</title>
<!-- Node1 -->
<g id="node1" class="node"><title>Node1</title>
<polygon fill="#bfbfbf" stroke="black" points="0,-57.5 0,-76.5 106,-76.5 106,-57.5 0,-57.5"/>
<text text-anchor="middle" x="53" y="-64.5" font-family="Helvetica,sans-Serif" font-size="10.00">Loading::launchFiles</text>
</g>
<!-- Node2 -->
<g id="node2" class="node"><title>Node2</title>
<g id="a_node2"><a xlink:href="class_loading.html#ae0c96193667418083fc4a8c6cc19d9db" target="_top" xlink:title="loadFileCSVTrack Get File of SHP track ">
<polygon fill="none" stroke="black" points="142,-114.5 142,-133.5 278,-133.5 278,-114.5 142,-114.5"/>
<text text-anchor="middle" x="210" y="-121.5" font-family="Helvetica,sans-Serif" font-size="10.00">Loading::loadFileCSVTrack</text>
</a>
</g>
</g>
<!-- Node1&#45;&gt;Node2 -->
<g id="edge1" class="edge"><title>Node1&#45;&gt;Node2</title>
<path fill="none" stroke="midnightblue" d="M83.3234,-80.8123C100.255,-88.4957 122.08,-97.909 142,-105 151.568,-108.406 162.071,-111.622 171.864,-114.407"/>
<polygon fill="midnightblue" stroke="midnightblue" points="84.5197,-77.5103 73.9713,-76.519 81.5991,-83.872 84.5197,-77.5103"/>
</g>
<!-- Node5 -->
<g id="node5" class="node"><title>Node5</title>
<g id="a_node5"><a xlink:href="class_loading.html#a9a01f3e328100b681f3f08192fc9b208" target="_top" xlink:title="loadFileSHPTrack Get File of CSV track ">
<polygon fill="none" stroke="black" points="142,-76.5 142,-95.5 278,-95.5 278,-76.5 142,-76.5"/>
<text text-anchor="middle" x="210" y="-83.5" font-family="Helvetica,sans-Serif" font-size="10.00">Loading::loadFileSHPTrack</text>
</a>
</g>
</g>
<!-- Node1&#45;&gt;Node5 -->
<g id="edge4" class="edge"><title>Node1&#45;&gt;Node5</title>
<path fill="none" stroke="midnightblue" d="M116.218,-74.6267C124.685,-75.6646 133.406,-76.7336 141.954,-77.7815"/>
<polygon fill="midnightblue" stroke="midnightblue" points="116.396,-71.1224 106.044,-73.3796 115.544,-78.0704 116.396,-71.1224"/>
</g>
<!-- Node6 -->
<g id="node6" class="node"><title>Node6</title>
<g id="a_node6"><a xlink:href="class_loading.html#a84d718939a74cf1680ea3e2409324194" target="_top" xlink:title="loadFileGrid Get File of grid ">
<polygon fill="none" stroke="black" points="156,-38.5 156,-57.5 264,-57.5 264,-38.5 156,-38.5"/>
<text text-anchor="middle" x="210" y="-45.5" font-family="Helvetica,sans-Serif" font-size="10.00">Loading::loadFileGrid</text>
</a>
</g>
</g>
<!-- Node1&#45;&gt;Node6 -->
<g id="edge6" class="edge"><title>Node1&#45;&gt;Node6</title>
<path fill="none" stroke="midnightblue" d="M115.973,-59.4033C129.151,-57.7879 142.954,-56.096 155.771,-54.5248"/>
<polygon fill="midnightblue" stroke="midnightblue" points="115.544,-55.9296 106.044,-60.6204 116.396,-62.8776 115.544,-55.9296"/>
</g>
<!-- Node8 -->
<g id="node8" class="node"><title>Node8</title>
<g id="a_node8"><a xlink:href="class_loading.html#a1925efcb9ccc2a01359b40a59cb542d9" target="_top" xlink:title="getCountry Choose country ">
<polygon fill="none" stroke="black" points="158,-0.5 158,-19.5 262,-19.5 262,-0.5 158,-0.5"/>
<text text-anchor="middle" x="210" y="-7.5" font-family="Helvetica,sans-Serif" font-size="10.00">Loading::getCountry</text>
</a>
</g>
</g>
<!-- Node1&#45;&gt;Node8 -->
<g id="edge9" class="edge"><title>Node1&#45;&gt;Node8</title>
<path fill="none" stroke="midnightblue" d="M83.3234,-53.1877C100.255,-45.5043 122.08,-36.091 142,-29 151.568,-25.5941 162.071,-22.3777 171.864,-19.5931"/>
<polygon fill="midnightblue" stroke="midnightblue" points="81.5991,-50.128 73.9713,-57.481 84.5197,-56.4897 81.5991,-50.128"/>
</g>
<!-- Node3 -->
<g id="node3" class="node"><title>Node3</title>
<g id="a_node3"><a xlink:href="class_loading.html#ab603e821bd6b047fb04285e926974ff6" target="_top" xlink:title="track ">
<polygon fill="none" stroke="black" points="319.5,-76.5 319.5,-95.5 397.5,-95.5 397.5,-76.5 319.5,-76.5"/>
<text text-anchor="middle" x="358.5" y="-83.5" font-family="Helvetica,sans-Serif" font-size="10.00">Loading::track</text>
</a>
</g>
</g>
<!-- Node2&#45;&gt;Node3 -->
<g id="edge2" class="edge"><title>Node2&#45;&gt;Node3</title>
<path fill="none" stroke="midnightblue" d="M257.695,-111.888C278.099,-106.596 301.681,-100.479 320.798,-95.5201"/>
<polygon fill="midnightblue" stroke="midnightblue" points="256.769,-108.512 247.968,-114.411 258.527,-115.288 256.769,-108.512"/>
</g>
<!-- Node4 -->
<g id="node4" class="node"><title>Node4</title>
<g id="a_node4"><a xlink:href="class_loading.html#a7634c001ec052e10c402e49f5be030db" target="_top" xlink:title="Loading::Loading">
<polygon fill="none" stroke="black" points="439,-38.5 439,-57.5 529,-57.5 529,-38.5 439,-38.5"/>
<text text-anchor="middle" x="484" y="-45.5" font-family="Helvetica,sans-Serif" font-size="10.00">Loading::Loading</text>
</a>
</g>
</g>
<!-- Node3&#45;&gt;Node4 -->
<g id="edge3" class="edge"><title>Node3&#45;&gt;Node4</title>
<path fill="none" stroke="midnightblue" d="M400.24,-73.4647C417.04,-68.2952 436.197,-62.4009 451.846,-57.5859"/>
<polygon fill="midnightblue" stroke="midnightblue" points="399.193,-70.1248 390.664,-76.411 401.251,-76.8153 399.193,-70.1248"/>
</g>
<!-- Node5&#45;&gt;Node3 -->
<g id="edge5" class="edge"><title>Node5&#45;&gt;Node3</title>
<path fill="none" stroke="midnightblue" d="M288.544,-86C299.277,-86 309.885,-86 319.445,-86"/>
<polygon fill="midnightblue" stroke="midnightblue" points="288.247,-82.5001 278.247,-86 288.247,-89.5001 288.247,-82.5001"/>
</g>
<!-- Node7 -->
<g id="node7" class="node"><title>Node7</title>
<g id="a_node7"><a xlink:href="class_loading.html#afb0b2fe451bdc3f6f2cc186903df96b4" target="_top" xlink:title="grid ">
<polygon fill="none" stroke="black" points="322.5,-38.5 322.5,-57.5 394.5,-57.5 394.5,-38.5 322.5,-38.5"/>
<text text-anchor="middle" x="358.5" y="-45.5" font-family="Helvetica,sans-Serif" font-size="10.00">Loading::grid</text>
</a>
</g>
</g>
<!-- Node6&#45;&gt;Node7 -->
<g id="edge7" class="edge"><title>Node6&#45;&gt;Node7</title>
<path fill="none" stroke="midnightblue" d="M274.407,-48C290.82,-48 307.905,-48 322.284,-48"/>
<polygon fill="midnightblue" stroke="midnightblue" points="274.304,-44.5001 264.304,-48 274.304,-51.5001 274.304,-44.5001"/>
</g>
<!-- Node7&#45;&gt;Node4 -->
<g id="edge8" class="edge"><title>Node7&#45;&gt;Node4</title>
<path fill="none" stroke="midnightblue" d="M404.839,-48C415.853,-48 427.618,-48 438.588,-48"/>
<polygon fill="midnightblue" stroke="midnightblue" points="404.56,-44.5001 394.56,-48 404.56,-51.5001 404.56,-44.5001"/>
</g>
<!-- Node9 -->
<g id="node9" class="node"><title>Node9</title>
<g id="a_node9"><a xlink:href="class_loading.html#a8393eca502e0e8946e9e9b8ca57a565d" target="_top" xlink:title="country ">
<polygon fill="none" stroke="black" points="314,-0.5 314,-19.5 403,-19.5 403,-0.5 314,-0.5"/>
<text text-anchor="middle" x="358.5" y="-7.5" font-family="Helvetica,sans-Serif" font-size="10.00">Loading::country</text>
</a>
</g>
</g>
<!-- Node8&#45;&gt;Node9 -->
<g id="edge10" class="edge"><title>Node8&#45;&gt;Node9</title>
<path fill="none" stroke="midnightblue" d="M272.267,-10C286.225,-10 300.781,-10 313.83,-10"/>
<polygon fill="midnightblue" stroke="midnightblue" points="272.239,-6.5001 262.239,-10 272.239,-13.5001 272.239,-6.5001"/>
</g>
<!-- Node9&#45;&gt;Node4 -->
<g id="edge11" class="edge"><title>Node9&#45;&gt;Node4</title>
<path fill="none" stroke="midnightblue" d="M400.24,-22.5353C417.04,-27.7048 436.197,-33.5991 451.846,-38.4141"/>
<polygon fill="midnightblue" stroke="midnightblue" points="401.251,-19.1847 390.664,-19.589 399.193,-25.8752 401.251,-19.1847"/>
</g>
</g>
</svg>
