<?xml version="1.0" encoding="UTF-8" standalone="no"?>
<!DOCTYPE svg PUBLIC "-//W3C//DTD SVG 1.1//EN"
 "http://www.w3.org/Graphics/SVG/1.1/DTD/svg11.dtd">
<!-- Generated by graphviz version 2.38.0 (20140413.2041)
 -->
<!-- Title: Road::addPoint Pages: 1 -->
<svg width="891pt" height="104pt"
 viewBox="0.00 0.00 891.00 104.00" xmlns="http://www.w3.org/2000/svg" xmlns:xlink="http://www.w3.org/1999/xlink">
<g id="graph0" class="graph" transform="scale(1 1) rotate(0) translate(4 100)">
<title>Road::addPoint</title>
<!-- Node1 -->
<g id="node1" class="node"><title>Node1</title>
<polygon fill="#bfbfbf" stroke="black" points="0,-38.5 0,-57.5 84,-57.5 84,-38.5 0,-38.5"/>
<text text-anchor="middle" x="42" y="-45.5" font-family="Helvetica,sans-Serif" font-size="10.00">Road::addPoint</text>
</g>
<!-- Node2 -->
<g id="node2" class="node"><title>Node2</title>
<g id="a_node2"><a xlink:href="class_grid.html#aba1830bc145f128d6deeed29cfb94c9f" target="_top" xlink:title="addRoad Creates a new road and inserts it in m_road ">
<polygon fill="none" stroke="black" points="120,-38.5 120,-57.5 200,-57.5 200,-38.5 120,-38.5"/>
<text text-anchor="middle" x="160" y="-45.5" font-family="Helvetica,sans-Serif" font-size="10.00">Grid::addRoad</text>
</a>
</g>
</g>
<!-- Node1&#45;&gt;Node2 -->
<g id="edge1" class="edge"><title>Node1&#45;&gt;Node2</title>
<path fill="none" stroke="midnightblue" d="M94.4708,-48C102.99,-48 111.699,-48 119.852,-48"/>
<polygon fill="midnightblue" stroke="midnightblue" points="94.2239,-44.5001 84.2239,-48 94.2238,-51.5001 94.2239,-44.5001"/>
</g>
<!-- Node3 -->
<g id="node3" class="node"><title>Node3</title>
<g id="a_node3"><a xlink:href="class_grid.html#ae848f1c59c544adc1af9133409ee0106" target="_top" xlink:title="readFromCSV Reads a csv file and inserts info into the corresponding attributs ">
<polygon fill="none" stroke="black" points="236,-38.5 236,-57.5 339,-57.5 339,-38.5 236,-38.5"/>
<text text-anchor="middle" x="287.5" y="-45.5" font-family="Helvetica,sans-Serif" font-size="10.00">Grid::readFromCSV</text>
</a>
</g>
</g>
<!-- Node2&#45;&gt;Node3 -->
<g id="edge2" class="edge"><title>Node2&#45;&gt;Node3</title>
<path fill="none" stroke="midnightblue" d="M210.141,-48C218.616,-48 227.438,-48 235.949,-48"/>
<polygon fill="midnightblue" stroke="midnightblue" points="210.021,-44.5001 200.021,-48 210.021,-51.5001 210.021,-44.5001"/>
</g>
<!-- Node4 -->
<g id="node4" class="node"><title>Node4</title>
<g id="a_node4"><a xlink:href="main_8cpp.html#a640261e473790d1a87c2f33332460793" target="_top" xlink:title="dev_grid">
<polygon fill="none" stroke="black" points="418.5,-76.5 418.5,-95.5 471.5,-95.5 471.5,-76.5 418.5,-76.5"/>
<text text-anchor="middle" x="445" y="-83.5" font-family="Helvetica,sans-Serif" font-size="10.00">dev_grid</text>
</a>
</g>
</g>
<!-- Node3&#45;&gt;Node4 -->
<g id="edge3" class="edge"><title>Node3&#45;&gt;Node4</title>
<path fill="none" stroke="midnightblue" d="M337.723,-60.0288C364.528,-66.5791 396.584,-74.4128 418.431,-79.7517"/>
<polygon fill="midnightblue" stroke="midnightblue" points="338.284,-56.563 327.739,-57.589 336.622,-63.3629 338.284,-56.563"/>
</g>
<!-- Node5 -->
<g id="node5" class="node"><title>Node5</title>
<g id="a_node5"><a xlink:href="main_8cpp.html#a175f97306b953e738471cef90ef0a8a4" target="_top" xlink:title="dev_all">
<polygon fill="none" stroke="black" points="421.5,-38.5 421.5,-57.5 468.5,-57.5 468.5,-38.5 421.5,-38.5"/>
<text text-anchor="middle" x="445" y="-45.5" font-family="Helvetica,sans-Serif" font-size="10.00">dev_all</text>
</a>
</g>
</g>
<!-- Node3&#45;&gt;Node5 -->
<g id="edge4" class="edge"><title>Node3&#45;&gt;Node5</title>
<path fill="none" stroke="midnightblue" d="M349.653,-48C374.826,-48 402.434,-48 421.243,-48"/>
<polygon fill="midnightblue" stroke="midnightblue" points="349.417,-44.5001 339.417,-48 349.416,-51.5001 349.417,-44.5001"/>
</g>
<!-- Node6 -->
<g id="node6" class="node"><title>Node6</title>
<g id="a_node6"><a xlink:href="class_main_window.html#ad39bbe8ced0d3248206ac0ca6c444d55" target="_top" xlink:title="MainWindow::readyToNext1">
<polygon fill="none" stroke="black" points="375,-0.5 375,-19.5 515,-19.5 515,-0.5 375,-0.5"/>
<text text-anchor="middle" x="445" y="-7.5" font-family="Helvetica,sans-Serif" font-size="10.00">MainWindow::readyToNext1</text>
</a>
</g>
</g>
<!-- Node3&#45;&gt;Node6 -->
<g id="edge5" class="edge"><title>Node3&#45;&gt;Node6</title>
<path fill="none" stroke="midnightblue" d="M337.474,-36.032C359.265,-30.7069 384.567,-24.5238 405.043,-19.5201"/>
<polygon fill="midnightblue" stroke="midnightblue" points="336.622,-32.6371 327.739,-38.411 338.284,-39.437 336.622,-32.6371"/>
</g>
<!-- Node7 -->
<g id="node7" class="node"><title>Node7</title>
<g id="a_node7"><a xlink:href="class_main_window.html#af773488e0b16efe6c0fc67ad348b86b2" target="_top" xlink:title="MainWindow::createConnections">
<polygon fill="none" stroke="black" points="551,-0.5 551,-19.5 712,-19.5 712,-0.5 551,-0.5"/>
<text text-anchor="middle" x="631.5" y="-7.5" font-family="Helvetica,sans-Serif" font-size="10.00">MainWindow::createConnections</text>
</a>
</g>
</g>
<!-- Node6&#45;&gt;Node7 -->
<g id="edge6" class="edge"><title>Node6&#45;&gt;Node7</title>
<path fill="none" stroke="midnightblue" d="M525.446,-10C533.9,-10 542.501,-10 550.956,-10"/>
<polygon fill="midnightblue" stroke="midnightblue" points="525.226,-6.5001 515.226,-10 525.226,-13.5001 525.226,-6.5001"/>
</g>
<!-- Node8 -->
<g id="node8" class="node"><title>Node8</title>
<g id="a_node8"><a xlink:href="class_main_window.html#a8b244be8b7b7db1b08de2a2acb9409db" target="_top" xlink:title="MainWindow::MainWindow">
<polygon fill="none" stroke="black" points="748,-0.5 748,-19.5 883,-19.5 883,-0.5 748,-0.5"/>
<text text-anchor="middle" x="815.5" y="-7.5" font-family="Helvetica,sans-Serif" font-size="10.00">MainWindow::MainWindow</text>
</a>
</g>
</g>
<!-- Node7&#45;&gt;Node8 -->
<g id="edge7" class="edge"><title>Node7&#45;&gt;Node8</title>
<path fill="none" stroke="midnightblue" d="M722.196,-10C730.85,-10 739.52,-10 747.892,-10"/>
<polygon fill="midnightblue" stroke="midnightblue" points="722.063,-6.5001 712.063,-10 722.063,-13.5001 722.063,-6.5001"/>
</g>
</g>
</svg>
