<?xml version="1.0" encoding="UTF-8" standalone="no"?>
<!DOCTYPE svg PUBLIC "-//W3C//DTD SVG 1.1//EN"
 "http://www.w3.org/Graphics/SVG/1.1/DTD/svg11.dtd">
<!-- Generated by graphviz version 2.38.0 (20140413.2041)
 -->
<!-- Title: Track::getPointsAsPointer Pages: 1 -->
<svg width="816pt" height="123pt"
 viewBox="0.00 0.00 816.00 123.00" xmlns="http://www.w3.org/2000/svg" xmlns:xlink="http://www.w3.org/1999/xlink">
<g id="graph0" class="graph" transform="scale(1 1) rotate(0) translate(4 119)">
<title>Track::getPointsAsPointer</title>
<!-- Node1 -->
<g id="node1" class="node"><title>Node1</title>
<polygon fill="#bfbfbf" stroke="black" points="0,-38.5 0,-57.5 131,-57.5 131,-38.5 0,-38.5"/>
<text text-anchor="middle" x="65.5" y="-45.5" font-family="Helvetica,sans-Serif" font-size="10.00">Track::getPointsAsPointer</text>
</g>
<!-- Node2 -->
<g id="node2" class="node"><title>Node2</title>
<g id="a_node2"><a xlink:href="class_solver.html#a97bc7169c18b339fecd4937150f907c3" target="_top" xlink:title="Solver::start">
<polygon fill="none" stroke="black" points="180.5,-76.5 180.5,-95.5 250.5,-95.5 250.5,-76.5 180.5,-76.5"/>
<text text-anchor="middle" x="215.5" y="-83.5" font-family="Helvetica,sans-Serif" font-size="10.00">Solver::start</text>
</a>
</g>
</g>
<!-- Node1&#45;&gt;Node2 -->
<g id="edge1" class="edge"><title>Node1&#45;&gt;Node2</title>
<path fill="none" stroke="midnightblue" d="M113.804,-60.1456C135.39,-65.6879 160.476,-72.1289 180.209,-77.1955"/>
<polygon fill="midnightblue" stroke="midnightblue" points="114.403,-56.6859 103.847,-57.589 112.662,-63.466 114.403,-56.6859"/>
</g>
<!-- Node6 -->
<g id="node6" class="node"><title>Node6</title>
<g id="a_node6"><a xlink:href="class_solver.html#af677644390b609a5f496fa2362099959" target="_top" xlink:title="filterSpace Use Spatial filter with a value ">
<polygon fill="none" stroke="black" points="167,-38.5 167,-57.5 264,-57.5 264,-38.5 167,-38.5"/>
<text text-anchor="middle" x="215.5" y="-45.5" font-family="Helvetica,sans-Serif" font-size="10.00">Solver::filterSpace</text>
</a>
</g>
</g>
<!-- Node1&#45;&gt;Node6 -->
<g id="edge5" class="edge"><title>Node1&#45;&gt;Node6</title>
<path fill="none" stroke="midnightblue" d="M141.555,-48C150.209,-48 158.844,-48 166.986,-48"/>
<polygon fill="midnightblue" stroke="midnightblue" points="141.415,-44.5001 131.415,-48 141.415,-51.5001 141.415,-44.5001"/>
</g>
<!-- Node10 -->
<g id="node10" class="node"><title>Node10</title>
<g id="a_node10"><a xlink:href="class_solver.html#a95af3471a75ea1b9dc7051959c70b6e7" target="_top" xlink:title="filterTemp Use Temporal filter with a value ">
<polygon fill="none" stroke="black" points="168.5,-0.5 168.5,-19.5 262.5,-19.5 262.5,-0.5 168.5,-0.5"/>
<text text-anchor="middle" x="215.5" y="-7.5" font-family="Helvetica,sans-Serif" font-size="10.00">Solver::filterTemp</text>
</a>
</g>
</g>
<!-- Node1&#45;&gt;Node10 -->
<g id="edge9" class="edge"><title>Node1&#45;&gt;Node10</title>
<path fill="none" stroke="midnightblue" d="M113.673,-35.8879C134.286,-30.5956 158.109,-24.4787 177.422,-19.5201"/>
<polygon fill="midnightblue" stroke="midnightblue" points="112.662,-32.534 103.847,-38.411 114.403,-39.3141 112.662,-32.534"/>
</g>
<!-- Node3 -->
<g id="node3" class="node"><title>Node3</title>
<g id="a_node3"><a xlink:href="main_8cpp.html#a9dd67c19acf7317c6296b63e29dcfab9" target="_top" xlink:title="dev_thread">
<polygon fill="none" stroke="black" points="337.5,-95.5 337.5,-114.5 402.5,-114.5 402.5,-95.5 337.5,-95.5"/>
<text text-anchor="middle" x="370" y="-102.5" font-family="Helvetica,sans-Serif" font-size="10.00">dev_thread</text>
</a>
</g>
</g>
<!-- Node2&#45;&gt;Node3 -->
<g id="edge2" class="edge"><title>Node2&#45;&gt;Node3</title>
<path fill="none" stroke="midnightblue" d="M260.877,-91.529C285.426,-94.5875 315.35,-98.3157 337.489,-101.074"/>
<polygon fill="midnightblue" stroke="midnightblue" points="261.08,-88.0273 250.724,-90.264 260.215,-94.9735 261.08,-88.0273"/>
</g>
<!-- Node5 -->
<g id="node5" class="node"><title>Node5</title>
<g id="a_node5"><a xlink:href="class_solver.html#a323c9c0407f26a2ed3ec3ff5ed02a760" target="_top" xlink:title="Solver::onSignalStart">
<polygon fill="none" stroke="black" points="315.5,-57.5 315.5,-76.5 424.5,-76.5 424.5,-57.5 315.5,-57.5"/>
<text text-anchor="middle" x="370" y="-64.5" font-family="Helvetica,sans-Serif" font-size="10.00">Solver::onSignalStart</text>
</a>
</g>
</g>
<!-- Node2&#45;&gt;Node5 -->
<g id="edge4" class="edge"><title>Node2&#45;&gt;Node5</title>
<path fill="none" stroke="midnightblue" d="M260.962,-80.4605C278.003,-78.3373 297.625,-75.8926 315.431,-73.6742"/>
<polygon fill="midnightblue" stroke="midnightblue" points="260.215,-77.0265 250.724,-81.736 261.08,-83.9727 260.215,-77.0265"/>
</g>
<!-- Node4 -->
<g id="node4" class="node"><title>Node4</title>
<g id="a_node4"><a xlink:href="main_8cpp.html#a0ddf1224851353fc92bfbff6f499fa97" target="_top" xlink:title="main">
<polygon fill="none" stroke="black" points="537.5,-95.5 537.5,-114.5 575.5,-114.5 575.5,-95.5 537.5,-95.5"/>
<text text-anchor="middle" x="556.5" y="-102.5" font-family="Helvetica,sans-Serif" font-size="10.00">main</text>
</a>
</g>
</g>
<!-- Node3&#45;&gt;Node4 -->
<g id="edge3" class="edge"><title>Node3&#45;&gt;Node4</title>
<path fill="none" stroke="midnightblue" d="M412.733,-105C451.774,-105 508.269,-105 537.087,-105"/>
<polygon fill="midnightblue" stroke="midnightblue" points="412.717,-101.5 402.717,-105 412.717,-108.5 412.717,-101.5"/>
</g>
<!-- Node7 -->
<g id="node7" class="node"><title>Node7</title>
<g id="a_node7"><a xlink:href="class_main_window.html#ae2500bf587f9630ce61d27ca231cfd7a" target="_top" xlink:title="readyToNext2 Pass informations ">
<polygon fill="none" stroke="black" points="300,-10.5 300,-29.5 440,-29.5 440,-10.5 300,-10.5"/>
<text text-anchor="middle" x="370" y="-17.5" font-family="Helvetica,sans-Serif" font-size="10.00">MainWindow::readyToNext2</text>
</a>
</g>
</g>
<!-- Node6&#45;&gt;Node7 -->
<g id="edge6" class="edge"><title>Node6&#45;&gt;Node7</title>
<path fill="none" stroke="midnightblue" d="M274.376,-37.3736C288.423,-34.7946 303.354,-32.0531 317.104,-29.5284"/>
<polygon fill="midnightblue" stroke="midnightblue" points="273.537,-33.969 264.334,-39.2174 274.801,-40.8539 273.537,-33.969"/>
</g>
<!-- Node8 -->
<g id="node8" class="node"><title>Node8</title>
<g id="a_node8"><a xlink:href="class_main_window.html#af773488e0b16efe6c0fc67ad348b86b2" target="_top" xlink:title="createConnections ">
<polygon fill="none" stroke="black" points="476,-10.5 476,-29.5 637,-29.5 637,-10.5 476,-10.5"/>
<text text-anchor="middle" x="556.5" y="-17.5" font-family="Helvetica,sans-Serif" font-size="10.00">MainWindow::createConnections</text>
</a>
</g>
</g>
<!-- Node7&#45;&gt;Node8 -->
<g id="edge7" class="edge"><title>Node7&#45;&gt;Node8</title>
<path fill="none" stroke="midnightblue" d="M450.446,-20C458.9,-20 467.501,-20 475.956,-20"/>
<polygon fill="midnightblue" stroke="midnightblue" points="450.226,-16.5001 440.226,-20 450.226,-23.5001 450.226,-16.5001"/>
</g>
<!-- Node9 -->
<g id="node9" class="node"><title>Node9</title>
<g id="a_node9"><a xlink:href="class_main_window.html#a8b244be8b7b7db1b08de2a2acb9409db" target="_top" xlink:title="MainWindow::MainWindow">
<polygon fill="none" stroke="black" points="673,-10.5 673,-29.5 808,-29.5 808,-10.5 673,-10.5"/>
<text text-anchor="middle" x="740.5" y="-17.5" font-family="Helvetica,sans-Serif" font-size="10.00">MainWindow::MainWindow</text>
</a>
</g>
</g>
<!-- Node8&#45;&gt;Node9 -->
<g id="edge8" class="edge"><title>Node8&#45;&gt;Node9</title>
<path fill="none" stroke="midnightblue" d="M647.196,-20C655.85,-20 664.52,-20 672.892,-20"/>
<polygon fill="midnightblue" stroke="midnightblue" points="647.063,-16.5001 637.063,-20 647.063,-23.5001 647.063,-16.5001"/>
</g>
<!-- Node10&#45;&gt;Node7 -->
<g id="edge10" class="edge"><title>Node10&#45;&gt;Node7</title>
<path fill="none" stroke="midnightblue" d="M272.819,-13.693C281.641,-14.2715 290.846,-14.8752 299.915,-15.4698"/>
<polygon fill="midnightblue" stroke="midnightblue" points="272.876,-10.1894 262.669,-13.0275 272.418,-17.1744 272.876,-10.1894"/>
</g>
</g>
</svg>
