<?xml version="1.0" encoding="UTF-8" standalone="no"?>
<!DOCTYPE svg PUBLIC "-//W3C//DTD SVG 1.1//EN"
 "http://www.w3.org/Graphics/SVG/1.1/DTD/svg11.dtd">
<!-- Generated by graphviz version 2.38.0 (20140413.2041)
 -->
<!-- Title: SlidingStackedWidget::animationFinished Pages: 1 -->
<svg width="717pt" height="88pt"
 viewBox="0.00 0.00 717.00 88.00" xmlns="http://www.w3.org/2000/svg" xmlns:xlink="http://www.w3.org/1999/xlink">
<g id="graph0" class="graph" transform="scale(1 1) rotate(0) translate(4 84)">
<title>SlidingStackedWidget::animationFinished</title>
<!-- Node1 -->
<g id="node1" class="node"><title>Node1</title>
<polygon fill="#bfbfbf" stroke="black" points="0,-24.5 0,-54.5 113,-54.5 113,-24.5 0,-24.5"/>
<text text-anchor="start" x="8" y="-42.5" font-family="Helvetica,sans-Serif" font-size="10.00">SlidingStackedWidget</text>
<text text-anchor="middle" x="56.5" y="-31.5" font-family="Helvetica,sans-Serif" font-size="10.00">::animationFinished</text>
</g>
<!-- Node2 -->
<g id="node2" class="node"><title>Node2</title>
<g id="a_node2"><a xlink:href="class_sliding_stacked_widget.html#a9f0032f65d7c2c7eb2cc57fe6b745499" target="_top" xlink:title="SlidingStackedWidget\l::animationDoneSlot">
<polygon fill="none" stroke="black" points="149,-24.5 149,-54.5 262,-54.5 262,-24.5 149,-24.5"/>
<text text-anchor="start" x="157" y="-42.5" font-family="Helvetica,sans-Serif" font-size="10.00">SlidingStackedWidget</text>
<text text-anchor="middle" x="205.5" y="-31.5" font-family="Helvetica,sans-Serif" font-size="10.00">::animationDoneSlot</text>
</a>
</g>
</g>
<!-- Node1&#45;&gt;Node2 -->
<g id="edge1" class="edge"><title>Node1&#45;&gt;Node2</title>
<path fill="none" stroke="midnightblue" d="M123.078,-39.5C131.681,-39.5 140.43,-39.5 148.847,-39.5"/>
<polygon fill="midnightblue" stroke="midnightblue" points="123.074,-36.0001 113.074,-39.5 123.074,-43.0001 123.074,-36.0001"/>
</g>
<!-- Node3 -->
<g id="node3" class="node"><title>Node3</title>
<g id="a_node3"><a xlink:href="class_sliding_stacked_widget.html#a3eabd598082e3f7a87d12ef21609c6bf" target="_top" xlink:title="SlidingStackedWidget\l::slideInWgt">
<polygon fill="none" stroke="black" points="298,-24.5 298,-54.5 411,-54.5 411,-24.5 298,-24.5"/>
<text text-anchor="start" x="306" y="-42.5" font-family="Helvetica,sans-Serif" font-size="10.00">SlidingStackedWidget</text>
<text text-anchor="middle" x="354.5" y="-31.5" font-family="Helvetica,sans-Serif" font-size="10.00">::slideInWgt</text>
</a>
</g>
</g>
<!-- Node2&#45;&gt;Node3 -->
<g id="edge2" class="edge"><title>Node2&#45;&gt;Node3</title>
<path fill="none" stroke="midnightblue" d="M272.078,-39.5C280.681,-39.5 289.43,-39.5 297.847,-39.5"/>
<polygon fill="midnightblue" stroke="midnightblue" points="272.074,-36.0001 262.074,-39.5 272.074,-43.0001 272.074,-36.0001"/>
</g>
<!-- Node4 -->
<g id="node4" class="node"><title>Node4</title>
<g id="a_node4"><a xlink:href="class_sliding_stacked_widget.html#aabd161d7cf704e4037ade499e8b46636" target="_top" xlink:title="SlidingStackedWidget\l::slideInIdx">
<polygon fill="none" stroke="black" points="447,-24.5 447,-54.5 560,-54.5 560,-24.5 447,-24.5"/>
<text text-anchor="start" x="455" y="-42.5" font-family="Helvetica,sans-Serif" font-size="10.00">SlidingStackedWidget</text>
<text text-anchor="middle" x="503.5" y="-31.5" font-family="Helvetica,sans-Serif" font-size="10.00">::slideInIdx</text>
</a>
</g>
</g>
<!-- Node3&#45;&gt;Node4 -->
<g id="edge3" class="edge"><title>Node3&#45;&gt;Node4</title>
<path fill="none" stroke="midnightblue" d="M421.078,-39.5C429.681,-39.5 438.43,-39.5 446.847,-39.5"/>
<polygon fill="midnightblue" stroke="midnightblue" points="421.074,-36.0001 411.074,-39.5 421.074,-43.0001 421.074,-36.0001"/>
</g>
<!-- Node5 -->
<g id="node5" class="node"><title>Node5</title>
<g id="a_node5"><a xlink:href="class_sliding_stacked_widget.html#a7be460f27a6b5f71325b1130d580eb4a" target="_top" xlink:title="SlidingStackedWidget\l::slideInNext">
<polygon fill="none" stroke="black" points="596,-49.5 596,-79.5 709,-79.5 709,-49.5 596,-49.5"/>
<text text-anchor="start" x="604" y="-67.5" font-family="Helvetica,sans-Serif" font-size="10.00">SlidingStackedWidget</text>
<text text-anchor="middle" x="652.5" y="-56.5" font-family="Helvetica,sans-Serif" font-size="10.00">::slideInNext</text>
</a>
</g>
</g>
<!-- Node4&#45;&gt;Node5 -->
<g id="edge4" class="edge"><title>Node4&#45;&gt;Node5</title>
<path fill="none" stroke="midnightblue" d="M570.078,-50.6526C578.681,-52.1157 587.43,-53.6037 595.847,-55.0352"/>
<polygon fill="midnightblue" stroke="midnightblue" points="570.52,-47.1777 560.074,-48.9514 569.346,-54.0786 570.52,-47.1777"/>
</g>
<!-- Node6 -->
<g id="node6" class="node"><title>Node6</title>
<g id="a_node6"><a xlink:href="class_sliding_stacked_widget.html#ab726634223ef321df3e0fb132f8f9396" target="_top" xlink:title="SlidingStackedWidget\l::slideInPrev">
<polygon fill="none" stroke="black" points="596,-0.5 596,-30.5 709,-30.5 709,-0.5 596,-0.5"/>
<text text-anchor="start" x="604" y="-18.5" font-family="Helvetica,sans-Serif" font-size="10.00">SlidingStackedWidget</text>
<text text-anchor="middle" x="652.5" y="-7.5" font-family="Helvetica,sans-Serif" font-size="10.00">::slideInPrev</text>
</a>
</g>
</g>
<!-- Node4&#45;&gt;Node6 -->
<g id="edge5" class="edge"><title>Node4&#45;&gt;Node6</title>
<path fill="none" stroke="midnightblue" d="M570.078,-28.7935C578.681,-27.3889 587.43,-25.9604 595.847,-24.5862"/>
<polygon fill="midnightblue" stroke="midnightblue" points="569.38,-25.361 560.074,-30.4266 570.508,-32.2695 569.38,-25.361"/>
</g>
</g>
</svg>
