<?xml version="1.0" encoding="UTF-8" standalone="no"?>
<!DOCTYPE svg PUBLIC "-//W3C//DTD SVG 1.1//EN"
 "http://www.w3.org/Graphics/SVG/1.1/DTD/svg11.dtd">
<!-- Generated by graphviz version 2.38.0 (20140413.2041)
 -->
<!-- Title: Grid::readFromCSV Pages: 1 -->
<svg width="655pt" height="180pt"
 viewBox="0.00 0.00 655.00 180.00" xmlns="http://www.w3.org/2000/svg" xmlns:xlink="http://www.w3.org/1999/xlink">
<g id="graph0" class="graph" transform="scale(1 1) rotate(0) translate(4 176)">
<title>Grid::readFromCSV</title>
<!-- Node1 -->
<g id="node1" class="node"><title>Node1</title>
<polygon fill="#bfbfbf" stroke="black" points="0,-95.5 0,-114.5 103,-114.5 103,-95.5 0,-95.5"/>
<text text-anchor="middle" x="51.5" y="-102.5" font-family="Helvetica,sans-Serif" font-size="10.00">Grid::readFromCSV</text>
</g>
<!-- Node2 -->
<g id="node2" class="node"><title>Node2</title>
<g id="a_node2"><a xlink:href="main_8cpp.html#a640261e473790d1a87c2f33332460793" target="_top" xlink:title="dev_grid">
<polygon fill="none" stroke="black" points="182.5,-152.5 182.5,-171.5 235.5,-171.5 235.5,-152.5 182.5,-152.5"/>
<text text-anchor="middle" x="209" y="-159.5" font-family="Helvetica,sans-Serif" font-size="10.00">dev_grid</text>
</a>
</g>
</g>
<!-- Node1&#45;&gt;Node2 -->
<g id="edge1" class="edge"><title>Node1&#45;&gt;Node2</title>
<path fill="none" stroke="midnightblue" d="M81.2791,-118.9C97.9075,-126.611 119.361,-136.024 139,-143 153.167,-148.032 169.357,-152.552 182.492,-155.92"/>
<polygon fill="midnightblue" stroke="midnightblue" points="82.6357,-115.67 72.0963,-114.587 79.6599,-122.006 82.6357,-115.67"/>
</g>
<!-- Node3 -->
<g id="node3" class="node"><title>Node3</title>
<g id="a_node3"><a xlink:href="main_8cpp.html#a141063eccadf0e03662d414d897d9f5d" target="_top" xlink:title="dev_gridAndTrack">
<polygon fill="none" stroke="black" points="161.5,-114.5 161.5,-133.5 256.5,-133.5 256.5,-114.5 161.5,-114.5"/>
<text text-anchor="middle" x="209" y="-121.5" font-family="Helvetica,sans-Serif" font-size="10.00">dev_gridAndTrack</text>
</a>
</g>
</g>
<!-- Node1&#45;&gt;Node3 -->
<g id="edge2" class="edge"><title>Node1&#45;&gt;Node3</title>
<path fill="none" stroke="midnightblue" d="M113.69,-112.477C129.581,-114.418 146.439,-116.478 161.44,-118.311"/>
<polygon fill="midnightblue" stroke="midnightblue" points="113.767,-108.96 103.417,-111.221 112.918,-115.908 113.767,-108.96"/>
</g>
<!-- Node4 -->
<g id="node4" class="node"><title>Node4</title>
<g id="a_node4"><a xlink:href="class_main_window.html#ad39bbe8ced0d3248206ac0ca6c444d55" target="_top" xlink:title="MainWindow::readyToNext1">
<polygon fill="none" stroke="black" points="139,-76.5 139,-95.5 279,-95.5 279,-76.5 139,-76.5"/>
<text text-anchor="middle" x="209" y="-83.5" font-family="Helvetica,sans-Serif" font-size="10.00">MainWindow::readyToNext1</text>
</a>
</g>
</g>
<!-- Node1&#45;&gt;Node4 -->
<g id="edge3" class="edge"><title>Node1&#45;&gt;Node4</title>
<path fill="none" stroke="midnightblue" d="M113.438,-97.5542C121.787,-96.534 130.408,-95.4807 138.89,-94.4443"/>
<polygon fill="midnightblue" stroke="midnightblue" points="112.918,-94.0916 103.417,-98.7787 113.767,-101.04 112.918,-94.0916"/>
</g>
<!-- Node7 -->
<g id="node7" class="node"><title>Node7</title>
<g id="a_node7"><a xlink:href="class_solver.html#a97bc7169c18b339fecd4937150f907c3" target="_top" xlink:title="Solver::start">
<polygon fill="none" stroke="black" points="174,-38.5 174,-57.5 244,-57.5 244,-38.5 174,-38.5"/>
<text text-anchor="middle" x="209" y="-45.5" font-family="Helvetica,sans-Serif" font-size="10.00">Solver::start</text>
</a>
</g>
</g>
<!-- Node1&#45;&gt;Node7 -->
<g id="edge6" class="edge"><title>Node1&#45;&gt;Node7</title>
<path fill="none" stroke="midnightblue" d="M81.2791,-91.1003C97.9075,-83.3886 119.361,-73.9762 139,-67 150.123,-63.049 162.493,-59.4138 173.652,-56.4043"/>
<polygon fill="midnightblue" stroke="midnightblue" points="79.6599,-87.994 72.0963,-95.4131 82.6357,-94.33 79.6599,-87.994"/>
</g>
<!-- Node5 -->
<g id="node5" class="node"><title>Node5</title>
<g id="a_node5"><a xlink:href="class_main_window.html#af773488e0b16efe6c0fc67ad348b86b2" target="_top" xlink:title="MainWindow::createConnections">
<polygon fill="none" stroke="black" points="315,-76.5 315,-95.5 476,-95.5 476,-76.5 315,-76.5"/>
<text text-anchor="middle" x="395.5" y="-83.5" font-family="Helvetica,sans-Serif" font-size="10.00">MainWindow::createConnections</text>
</a>
</g>
</g>
<!-- Node4&#45;&gt;Node5 -->
<g id="edge4" class="edge"><title>Node4&#45;&gt;Node5</title>
<path fill="none" stroke="midnightblue" d="M289.446,-86C297.9,-86 306.501,-86 314.956,-86"/>
<polygon fill="midnightblue" stroke="midnightblue" points="289.226,-82.5001 279.226,-86 289.226,-89.5001 289.226,-82.5001"/>
</g>
<!-- Node6 -->
<g id="node6" class="node"><title>Node6</title>
<g id="a_node6"><a xlink:href="class_main_window.html#a8b244be8b7b7db1b08de2a2acb9409db" target="_top" xlink:title="MainWindow::MainWindow">
<polygon fill="none" stroke="black" points="512,-76.5 512,-95.5 647,-95.5 647,-76.5 512,-76.5"/>
<text text-anchor="middle" x="579.5" y="-83.5" font-family="Helvetica,sans-Serif" font-size="10.00">MainWindow::MainWindow</text>
</a>
</g>
</g>
<!-- Node5&#45;&gt;Node6 -->
<g id="edge5" class="edge"><title>Node5&#45;&gt;Node6</title>
<path fill="none" stroke="midnightblue" d="M486.196,-86C494.85,-86 503.52,-86 511.892,-86"/>
<polygon fill="midnightblue" stroke="midnightblue" points="486.063,-82.5001 476.063,-86 486.063,-89.5001 486.063,-82.5001"/>
</g>
<!-- Node8 -->
<g id="node8" class="node"><title>Node8</title>
<g id="a_node8"><a xlink:href="main_8cpp.html#a9dd67c19acf7317c6296b63e29dcfab9" target="_top" xlink:title="dev_thread">
<polygon fill="none" stroke="black" points="363,-38.5 363,-57.5 428,-57.5 428,-38.5 363,-38.5"/>
<text text-anchor="middle" x="395.5" y="-45.5" font-family="Helvetica,sans-Serif" font-size="10.00">dev_thread</text>
</a>
</g>
</g>
<!-- Node7&#45;&gt;Node8 -->
<g id="edge7" class="edge"><title>Node7&#45;&gt;Node8</title>
<path fill="none" stroke="midnightblue" d="M254.695,-48C288.147,-48 333.083,-48 362.877,-48"/>
<polygon fill="midnightblue" stroke="midnightblue" points="254.271,-44.5001 244.271,-48 254.271,-51.5001 254.271,-44.5001"/>
</g>
<!-- Node10 -->
<g id="node10" class="node"><title>Node10</title>
<g id="a_node10"><a xlink:href="class_solver.html#a323c9c0407f26a2ed3ec3ff5ed02a760" target="_top" xlink:title="Solver::onSignalStart">
<polygon fill="none" stroke="black" points="341,-0.5 341,-19.5 450,-19.5 450,-0.5 341,-0.5"/>
<text text-anchor="middle" x="395.5" y="-7.5" font-family="Helvetica,sans-Serif" font-size="10.00">Solver::onSignalStart</text>
</a>
</g>
</g>
<!-- Node7&#45;&gt;Node10 -->
<g id="edge9" class="edge"><title>Node7&#45;&gt;Node10</title>
<path fill="none" stroke="midnightblue" d="M254.319,-38.8719C282.706,-33.0253 319.477,-25.4519 348.236,-19.5287"/>
<polygon fill="midnightblue" stroke="midnightblue" points="253.359,-35.4961 244.271,-40.9415 254.771,-42.3522 253.359,-35.4961"/>
</g>
<!-- Node9 -->
<g id="node9" class="node"><title>Node9</title>
<g id="a_node9"><a xlink:href="main_8cpp.html#a0ddf1224851353fc92bfbff6f499fa97" target="_top" xlink:title="main">
<polygon fill="none" stroke="black" points="560.5,-38.5 560.5,-57.5 598.5,-57.5 598.5,-38.5 560.5,-38.5"/>
<text text-anchor="middle" x="579.5" y="-45.5" font-family="Helvetica,sans-Serif" font-size="10.00">main</text>
</a>
</g>
</g>
<!-- Node8&#45;&gt;Node9 -->
<g id="edge8" class="edge"><title>Node8&#45;&gt;Node9</title>
<path fill="none" stroke="midnightblue" d="M438.588,-48C477.103,-48 532.251,-48 560.426,-48"/>
<polygon fill="midnightblue" stroke="midnightblue" points="438.202,-44.5001 428.202,-48 438.202,-51.5001 438.202,-44.5001"/>
</g>
</g>
</svg>
