<?xml version="1.0" encoding="UTF-8" standalone="no"?>
<!DOCTYPE svg PUBLIC "-//W3C//DTD SVG 1.1//EN"
 "http://www.w3.org/Graphics/SVG/1.1/DTD/svg11.dtd">
<!-- Generated by graphviz version 2.38.0 (20140413.2041)
 -->
<!-- Title: PointRoad::updateBelongToRoad Pages: 1 -->
<svg width="1100pt" height="142pt"
 viewBox="0.00 0.00 1100.00 142.00" xmlns="http://www.w3.org/2000/svg" xmlns:xlink="http://www.w3.org/1999/xlink">
<g id="graph0" class="graph" transform="scale(1 1) rotate(0) translate(4 138)">
<title>PointRoad::updateBelongToRoad</title>
<!-- Node1 -->
<g id="node1" class="node"><title>Node1</title>
<polygon fill="#bfbfbf" stroke="black" points="0,-57.5 0,-76.5 162,-76.5 162,-57.5 0,-57.5"/>
<text text-anchor="middle" x="81" y="-64.5" font-family="Helvetica,sans-Serif" font-size="10.00">PointRoad::updateBelongToRoad</text>
</g>
<!-- Node2 -->
<g id="node2" class="node"><title>Node2</title>
<g id="a_node2"><a xlink:href="class_grid.html#aba1830bc145f128d6deeed29cfb94c9f" target="_top" xlink:title="Creates a new road and inserts it in m_road. ">
<polygon fill="none" stroke="black" points="198,-57.5 198,-76.5 278,-76.5 278,-57.5 198,-57.5"/>
<text text-anchor="middle" x="238" y="-64.5" font-family="Helvetica,sans-Serif" font-size="10.00">Grid::addRoad</text>
</a>
</g>
</g>
<!-- Node1&#45;&gt;Node2 -->
<g id="edge1" class="edge"><title>Node1&#45;&gt;Node2</title>
<path fill="none" stroke="midnightblue" d="M172.357,-67C181.268,-67 189.945,-67 197.899,-67"/>
<polygon fill="midnightblue" stroke="midnightblue" points="172.224,-63.5001 162.224,-67 172.224,-70.5001 172.224,-63.5001"/>
</g>
<!-- Node3 -->
<g id="node3" class="node"><title>Node3</title>
<g id="a_node3"><a xlink:href="class_grid.html#ae848f1c59c544adc1af9133409ee0106" target="_top" xlink:title="Reads a csv file and inserts info into the corresponding attributs. ">
<polygon fill="none" stroke="black" points="314,-57.5 314,-76.5 417,-76.5 417,-57.5 314,-57.5"/>
<text text-anchor="middle" x="365.5" y="-64.5" font-family="Helvetica,sans-Serif" font-size="10.00">Grid::readFromCSV</text>
</a>
</g>
</g>
<!-- Node2&#45;&gt;Node3 -->
<g id="edge2" class="edge"><title>Node2&#45;&gt;Node3</title>
<path fill="none" stroke="midnightblue" d="M288.141,-67C296.616,-67 305.438,-67 313.949,-67"/>
<polygon fill="midnightblue" stroke="midnightblue" points="288.021,-63.5001 278.021,-67 288.021,-70.5001 288.021,-63.5001"/>
</g>
<!-- Node4 -->
<g id="node4" class="node"><title>Node4</title>
<g id="a_node4"><a xlink:href="main_8cpp.html#a640261e473790d1a87c2f33332460793" target="_top" xlink:title="dev_grid">
<polygon fill="none" stroke="black" points="474,-114.5 474,-133.5 527,-133.5 527,-114.5 474,-114.5"/>
<text text-anchor="middle" x="500.5" y="-121.5" font-family="Helvetica,sans-Serif" font-size="10.00">dev_grid</text>
</a>
</g>
</g>
<!-- Node3&#45;&gt;Node4 -->
<g id="edge3" class="edge"><title>Node3&#45;&gt;Node4</title>
<path fill="none" stroke="midnightblue" d="M396.953,-80.6093C413.489,-87.9404 434.316,-97.0805 453,-105 460.387,-108.131 468.47,-111.466 475.795,-114.453"/>
<polygon fill="midnightblue" stroke="midnightblue" points="398.322,-77.3874 387.762,-76.5247 395.479,-83.7842 398.322,-77.3874"/>
</g>
<!-- Node5 -->
<g id="node5" class="node"><title>Node5</title>
<g id="a_node5"><a xlink:href="main_8cpp.html#a141063eccadf0e03662d414d897d9f5d" target="_top" xlink:title="dev_gridAndTrack">
<polygon fill="none" stroke="black" points="453,-76.5 453,-95.5 548,-95.5 548,-76.5 453,-76.5"/>
<text text-anchor="middle" x="500.5" y="-83.5" font-family="Helvetica,sans-Serif" font-size="10.00">dev_gridAndTrack</text>
</a>
</g>
</g>
<!-- Node3&#45;&gt;Node5 -->
<g id="edge4" class="edge"><title>Node3&#45;&gt;Node5</title>
<path fill="none" stroke="midnightblue" d="M427.202,-75.6717C435.837,-76.9053 444.604,-78.1577 452.913,-79.3447"/>
<polygon fill="midnightblue" stroke="midnightblue" points="427.556,-72.1868 417.161,-74.2373 426.565,-79.1164 427.556,-72.1868"/>
</g>
<!-- Node6 -->
<g id="node6" class="node"><title>Node6</title>
<g id="a_node6"><a xlink:href="class_solver.html#a97bc7169c18b339fecd4937150f907c3" target="_top" xlink:title="Solver::start">
<polygon fill="none" stroke="black" points="465.5,-38.5 465.5,-57.5 535.5,-57.5 535.5,-38.5 465.5,-38.5"/>
<text text-anchor="middle" x="500.5" y="-45.5" font-family="Helvetica,sans-Serif" font-size="10.00">Solver::start</text>
</a>
</g>
</g>
<!-- Node3&#45;&gt;Node6 -->
<g id="edge5" class="edge"><title>Node3&#45;&gt;Node6</title>
<path fill="none" stroke="midnightblue" d="M427.132,-58.3383C440.294,-56.4579 453.766,-54.5334 465.462,-52.8625"/>
<polygon fill="midnightblue" stroke="midnightblue" points="426.565,-54.8836 417.161,-59.7627 427.556,-61.8132 426.565,-54.8836"/>
</g>
<!-- Node10 -->
<g id="node10" class="node"><title>Node10</title>
<g id="a_node10"><a xlink:href="class_solver.html#acbe7e47bcad48b8ddba95c9281c8bf23" target="_top" xlink:title="Solver::readFiles">
<polygon fill="none" stroke="black" points="455.5,-0.5 455.5,-19.5 545.5,-19.5 545.5,-0.5 455.5,-0.5"/>
<text text-anchor="middle" x="500.5" y="-7.5" font-family="Helvetica,sans-Serif" font-size="10.00">Solver::readFiles</text>
</a>
</g>
</g>
<!-- Node3&#45;&gt;Node10 -->
<g id="edge9" class="edge"><title>Node3&#45;&gt;Node10</title>
<path fill="none" stroke="midnightblue" d="M396.953,-53.3907C413.489,-46.0596 434.316,-36.9195 453,-29 460.387,-25.8689 468.47,-22.5344 475.795,-19.5471"/>
<polygon fill="midnightblue" stroke="midnightblue" points="395.479,-50.2158 387.762,-57.4753 398.322,-56.6126 395.479,-50.2158"/>
</g>
<!-- Node7 -->
<g id="node7" class="node"><title>Node7</title>
<g id="a_node7"><a xlink:href="main_8cpp.html#a9dd67c19acf7317c6296b63e29dcfab9" target="_top" xlink:title="dev_thread">
<polygon fill="none" stroke="black" points="621.5,-76.5 621.5,-95.5 686.5,-95.5 686.5,-76.5 621.5,-76.5"/>
<text text-anchor="middle" x="654" y="-83.5" font-family="Helvetica,sans-Serif" font-size="10.00">dev_thread</text>
</a>
</g>
</g>
<!-- Node6&#45;&gt;Node7 -->
<g id="edge6" class="edge"><title>Node6&#45;&gt;Node7</title>
<path fill="none" stroke="midnightblue" d="M545.894,-59.1352C570.093,-65.2049 599.477,-72.575 621.342,-78.0593"/>
<polygon fill="midnightblue" stroke="midnightblue" points="546.429,-55.6609 535.878,-56.6228 544.726,-62.4506 546.429,-55.6609"/>
</g>
<!-- Node9 -->
<g id="node9" class="node"><title>Node9</title>
<g id="a_node9"><a xlink:href="class_solver.html#a323c9c0407f26a2ed3ec3ff5ed02a760" target="_top" xlink:title="Solver::onSignalStart">
<polygon fill="none" stroke="black" points="599.5,-38.5 599.5,-57.5 708.5,-57.5 708.5,-38.5 599.5,-38.5"/>
<text text-anchor="middle" x="654" y="-45.5" font-family="Helvetica,sans-Serif" font-size="10.00">Solver::onSignalStart</text>
</a>
</g>
</g>
<!-- Node6&#45;&gt;Node9 -->
<g id="edge8" class="edge"><title>Node6&#45;&gt;Node9</title>
<path fill="none" stroke="midnightblue" d="M545.952,-48C562.706,-48 581.939,-48 599.439,-48"/>
<polygon fill="midnightblue" stroke="midnightblue" points="545.878,-44.5001 535.878,-48 545.878,-51.5001 545.878,-44.5001"/>
</g>
<!-- Node8 -->
<g id="node8" class="node"><title>Node8</title>
<g id="a_node8"><a xlink:href="main_8cpp.html#a0ddf1224851353fc92bfbff6f499fa97" target="_top" xlink:title="main">
<polygon fill="none" stroke="black" points="821.5,-76.5 821.5,-95.5 859.5,-95.5 859.5,-76.5 821.5,-76.5"/>
<text text-anchor="middle" x="840.5" y="-83.5" font-family="Helvetica,sans-Serif" font-size="10.00">main</text>
</a>
</g>
</g>
<!-- Node7&#45;&gt;Node8 -->
<g id="edge7" class="edge"><title>Node7&#45;&gt;Node8</title>
<path fill="none" stroke="midnightblue" d="M696.733,-86C735.774,-86 792.269,-86 821.087,-86"/>
<polygon fill="midnightblue" stroke="midnightblue" points="696.717,-82.5001 686.717,-86 696.717,-89.5001 696.717,-82.5001"/>
</g>
<!-- Node11 -->
<g id="node11" class="node"><title>Node11</title>
<g id="a_node11"><a xlink:href="class_main_window.html#ad39bbe8ced0d3248206ac0ca6c444d55" target="_top" xlink:title="MainWindow::readyToNext1">
<polygon fill="none" stroke="black" points="584,-0.5 584,-19.5 724,-19.5 724,-0.5 584,-0.5"/>
<text text-anchor="middle" x="654" y="-7.5" font-family="Helvetica,sans-Serif" font-size="10.00">MainWindow::readyToNext1</text>
</a>
</g>
</g>
<!-- Node10&#45;&gt;Node11 -->
<g id="edge10" class="edge"><title>Node10&#45;&gt;Node11</title>
<path fill="none" stroke="midnightblue" d="M555.798,-10C564.915,-10 574.484,-10 583.915,-10"/>
<polygon fill="midnightblue" stroke="midnightblue" points="555.727,-6.5001 545.727,-10 555.727,-13.5001 555.727,-6.5001"/>
</g>
<!-- Node12 -->
<g id="node12" class="node"><title>Node12</title>
<g id="a_node12"><a xlink:href="class_main_window.html#af773488e0b16efe6c0fc67ad348b86b2" target="_top" xlink:title="MainWindow::createConnections">
<polygon fill="none" stroke="black" points="760,-0.5 760,-19.5 921,-19.5 921,-0.5 760,-0.5"/>
<text text-anchor="middle" x="840.5" y="-7.5" font-family="Helvetica,sans-Serif" font-size="10.00">MainWindow::createConnections</text>
</a>
</g>
</g>
<!-- Node11&#45;&gt;Node12 -->
<g id="edge11" class="edge"><title>Node11&#45;&gt;Node12</title>
<path fill="none" stroke="midnightblue" d="M734.446,-10C742.9,-10 751.501,-10 759.956,-10"/>
<polygon fill="midnightblue" stroke="midnightblue" points="734.226,-6.5001 724.226,-10 734.226,-13.5001 734.226,-6.5001"/>
</g>
<!-- Node13 -->
<g id="node13" class="node"><title>Node13</title>
<g id="a_node13"><a xlink:href="class_main_window.html#a8b244be8b7b7db1b08de2a2acb9409db" target="_top" xlink:title="MainWindow::MainWindow">
<polygon fill="none" stroke="black" points="957,-0.5 957,-19.5 1092,-19.5 1092,-0.5 957,-0.5"/>
<text text-anchor="middle" x="1024.5" y="-7.5" font-family="Helvetica,sans-Serif" font-size="10.00">MainWindow::MainWindow</text>
</a>
</g>
</g>
<!-- Node12&#45;&gt;Node13 -->
<g id="edge12" class="edge"><title>Node12&#45;&gt;Node13</title>
<path fill="none" stroke="midnightblue" d="M931.196,-10C939.85,-10 948.52,-10 956.892,-10"/>
<polygon fill="midnightblue" stroke="midnightblue" points="931.063,-6.5001 921.063,-10 931.063,-13.5001 931.063,-6.5001"/>
</g>
</g>
</svg>
