<?xml version="1.0" encoding="UTF-8" standalone="no"?>
<!DOCTYPE svg PUBLIC "-//W3C//DTD SVG 1.1//EN"
 "http://www.w3.org/Graphics/SVG/1.1/DTD/svg11.dtd">
<!-- Generated by graphviz version 2.38.0 (20140413.2041)
 -->
<!-- Title: Grid Pages: 1 -->
<!--zoomable 865 -->
<svg id="main" version="1.1" xmlns="http://www.w3.org/2000/svg" xmlns:xlink="http://www.w3.org/1999/xlink" xml:space="preserve" onload="init(evt)">
<style type="text/css"><![CDATA[
.edge:hover path { stroke: red; }
.edge:hover polygon { stroke: red; fill: red; }
]]></style>
<script type="text/javascript"><![CDATA[
var edges = document.getElementsByTagName('g');
if (edges && edges.length) {
  for (var i=0;i<edges.length;i++) {
    if (edges[i].id.substr(0,4)=='edge') {
      edges[i].setAttribute('class','edge');
    }
  }
}
]]></script>
        <defs>
                <circle id="rim" cx="0" cy="0" r="7"/>
                <circle id="rim2" cx="0" cy="0" r="3.5"/>
                <g id="zoomPlus">
                        <use xlink:href="#rim" fill="#404040">
                                <set attributeName="fill" to="#808080" begin="zoomplus.mouseover" end="zoomplus.mouseout"/>
                        </use>
                        <path d="M-4,0h8M0,-4v8" fill="none" stroke="white" stroke-width="1.5" pointer-events="none"/>
                </g>
                <g id="zoomMin">
                        <use xlink:href="#rim" fill="#404040">
                                <set attributeName="fill" to="#808080" begin="zoomminus.mouseover" end="zoomminus.mouseout"/>
                        </use>
                        <path d="M-4,0h8" fill="none" stroke="white" stroke-width="1.5" pointer-events="none"/>
                </g>
                <g id="dirArrow">
                        <path fill="none" stroke="white" stroke-width="1.5" d="M0,-3.0v7 M-2.5,-0.5L0,-3.0L2.5,-0.5"/>
                </g>
               <g id="resetDef">
                       <use xlink:href="#rim2" fill="#404040">
                               <set attributeName="fill" to="#808080" begin="reset.mouseover" end="reset.mouseout"/>
                       </use>
               </g>
        </defs>

<script type="text/javascript">
var viewWidth = 659;
var viewHeight = 865;
var sectionId = 'dynsection-1';
</script>
<script xlink:href="svgpan.js"/>
<svg id="graph" class="graph">
<g id="viewport">
<title>Grid</title>
<!-- Node1 -->
<g id="node1" class="node"><title>Node1</title>
<polygon fill="#bfbfbf" stroke="black" points="231,-0.5 231,-255.5 342,-255.5 342,-0.5 231,-0.5"/>
<text text-anchor="middle" x="286.5" y="-243.5" font-family="Helvetica,sans-Serif" font-size="10.00">Grid</text>
<polyline fill="none" stroke="black" points="231,-236.5 342,-236.5 "/>
<text text-anchor="middle" x="286.5" y="-224.5" font-family="Helvetica,sans-Serif" font-size="10.00"> </text>
<polyline fill="none" stroke="black" points="231,-217.5 342,-217.5 "/>
<text text-anchor="start" x="239" y="-205.5" font-family="Helvetica,sans-Serif" font-size="10.00">+ addRoad()</text>
<text text-anchor="start" x="239" y="-194.5" font-family="Helvetica,sans-Serif" font-size="10.00">+ buildKDTree()</text>
<text text-anchor="start" x="239" y="-183.5" font-family="Helvetica,sans-Serif" font-size="10.00">+ buildMarkovMatrix()</text>
<text text-anchor="start" x="239" y="-172.5" font-family="Helvetica,sans-Serif" font-size="10.00">+ getNoOfPoints()</text>
<text text-anchor="start" x="239" y="-161.5" font-family="Helvetica,sans-Serif" font-size="10.00">+ getNoOfRoads()</text>
<text text-anchor="start" x="239" y="-150.5" font-family="Helvetica,sans-Serif" font-size="10.00">+ getPoints()</text>
<text text-anchor="start" x="239" y="-139.5" font-family="Helvetica,sans-Serif" font-size="10.00">+ getRoadEntry()</text>
<text text-anchor="start" x="239" y="-128.5" font-family="Helvetica,sans-Serif" font-size="10.00">+ getRoads()</text>
<text text-anchor="start" x="239" y="-117.5" font-family="Helvetica,sans-Serif" font-size="10.00">+ Grid()</text>
<text text-anchor="start" x="239" y="-106.5" font-family="Helvetica,sans-Serif" font-size="10.00">+ inFootPrint()</text>
<text text-anchor="start" x="239" y="-95.5" font-family="Helvetica,sans-Serif" font-size="10.00">and 16 more...</text>
<text text-anchor="start" x="239" y="-84.5" font-family="Helvetica,sans-Serif" font-size="10.00">* m_xMin</text>
<text text-anchor="start" x="239" y="-73.5" font-family="Helvetica,sans-Serif" font-size="10.00">* m_xMax</text>
<text text-anchor="start" x="239" y="-62.5" font-family="Helvetica,sans-Serif" font-size="10.00">* m_yMin</text>
<text text-anchor="start" x="239" y="-51.5" font-family="Helvetica,sans-Serif" font-size="10.00">* m_yMax</text>
<text text-anchor="start" x="239" y="-40.5" font-family="Helvetica,sans-Serif" font-size="10.00">* m_xMinGrid</text>
<text text-anchor="start" x="239" y="-29.5" font-family="Helvetica,sans-Serif" font-size="10.00">* m_xMaxGrid</text>
<text text-anchor="start" x="239" y="-18.5" font-family="Helvetica,sans-Serif" font-size="10.00">* m_yMinGrid</text>
<text text-anchor="start" x="239" y="-7.5" font-family="Helvetica,sans-Serif" font-size="10.00">* m_yMaxGrid</text>
</g>
<!-- Node2 -->
<g id="node2" class="node"><title>Node2</title>
<polygon fill="none" stroke="#bfbfbf" points="0,-314.5 0,-371.5 53,-371.5 53,-314.5 0,-314.5"/>
<text text-anchor="middle" x="26.5" y="-359.5" font-family="Helvetica,sans-Serif" font-size="10.00">QObject</text>
<polyline fill="none" stroke="#bfbfbf" points="0,-352.5 53,-352.5 "/>
<text text-anchor="middle" x="26.5" y="-340.5" font-family="Helvetica,sans-Serif" font-size="10.00"> </text>
<polyline fill="none" stroke="#bfbfbf" points="0,-333.5 53,-333.5 "/>
<text text-anchor="middle" x="26.5" y="-321.5" font-family="Helvetica,sans-Serif" font-size="10.00"> </text>
</g>
<!-- Node2&#45;&gt;Node1 -->
<g id="edge1" class="edge"><title>Node2&#45;&gt;Node1</title>
<path fill="none" stroke="midnightblue" d="M57.6447,-306.687C58.9294,-305.426 60.2172,-304.192 61.5,-303 115.755,-252.574 183.678,-201.503 230.624,-167.855"/>
<polygon fill="none" stroke="midnightblue" points="54.8569,-304.533 50.3753,-314.133 59.8656,-309.423 54.8569,-304.533"/>
</g>
<!-- Node3 -->
<g id="node3" class="node"><title>Node3</title>
<polygon fill="none" stroke="#bfbfbf" points="71,-314.5 71,-371.5 198,-371.5 198,-314.5 71,-314.5"/>
<text text-anchor="middle" x="134.5" y="-359.5" font-family="Helvetica,sans-Serif" font-size="10.00">std::vector&lt; PointRoad &gt;</text>
<polyline fill="none" stroke="#bfbfbf" points="71,-352.5 198,-352.5 "/>
<text text-anchor="middle" x="134.5" y="-340.5" font-family="Helvetica,sans-Serif" font-size="10.00"> </text>
<polyline fill="none" stroke="#bfbfbf" points="71,-333.5 198,-333.5 "/>
<text text-anchor="middle" x="134.5" y="-321.5" font-family="Helvetica,sans-Serif" font-size="10.00"> </text>
</g>
<!-- Node3&#45;&gt;Node1 -->
<g id="edge2" class="edge"><title>Node3&#45;&gt;Node1</title>
<path fill="none" stroke="#404040" d="M154.371,-314.154C172.098,-289.313 199.03,-251.573 223.965,-216.631"/>
<polygon fill="none" stroke="#404040" points="223.965,-216.631 224.194,-209.424 230.936,-206.863 230.706,-214.071 223.965,-216.631"/>
<text text-anchor="middle" x="223.5" y="-277" font-family="Helvetica,sans-Serif" font-size="10.00"> +m_vectorOfPoints</text>
</g>
<!-- Node4 -->
<g id="node4" class="node"><title>Node4</title>
<g id="a_node4"><a xlink:href="class_point_road.html" target="_top" xlink:title="{PointRoad\n|# m_id\l# m_isNode\l# counter\l|+ id()\l+ infos()\l+ isNode()\l+ outputInfos()\l+ PointRoad()\l+ PointRoad()\l+ setid()\l+ updateBelongToRoad()\l+ vectorOfRoadId()\l}">
<polygon fill="none" stroke="black" points="137,-430.5 137,-597.5 262,-597.5 262,-430.5 137,-430.5"/>
<text text-anchor="middle" x="199.5" y="-585.5" font-family="Helvetica,sans-Serif" font-size="10.00">PointRoad</text>
<polyline fill="none" stroke="black" points="137,-578.5 262,-578.5 "/>
<text text-anchor="start" x="145" y="-566.5" font-family="Helvetica,sans-Serif" font-size="10.00"># m_id</text>
<text text-anchor="start" x="145" y="-555.5" font-family="Helvetica,sans-Serif" font-size="10.00"># m_isNode</text>
<text text-anchor="start" x="145" y="-544.5" font-family="Helvetica,sans-Serif" font-size="10.00"># counter</text>
<polyline fill="none" stroke="black" points="137,-537.5 262,-537.5 "/>
<text text-anchor="start" x="145" y="-525.5" font-family="Helvetica,sans-Serif" font-size="10.00">+ id()</text>
<text text-anchor="start" x="145" y="-514.5" font-family="Helvetica,sans-Serif" font-size="10.00">+ infos()</text>
<text text-anchor="start" x="145" y="-503.5" font-family="Helvetica,sans-Serif" font-size="10.00">+ isNode()</text>
<text text-anchor="start" x="145" y="-492.5" font-family="Helvetica,sans-Serif" font-size="10.00">+ outputInfos()</text>
<text text-anchor="start" x="145" y="-481.5" font-family="Helvetica,sans-Serif" font-size="10.00">+ PointRoad()</text>
<text text-anchor="start" x="145" y="-470.5" font-family="Helvetica,sans-Serif" font-size="10.00">+ PointRoad()</text>
<text text-anchor="start" x="145" y="-459.5" font-family="Helvetica,sans-Serif" font-size="10.00">+ setid()</text>
<text text-anchor="start" x="145" y="-448.5" font-family="Helvetica,sans-Serif" font-size="10.00">+ updateBelongToRoad()</text>
<text text-anchor="start" x="145" y="-437.5" font-family="Helvetica,sans-Serif" font-size="10.00">+ vectorOfRoadId()</text>
</a>
</g>
</g>
<!-- Node4&#45;&gt;Node3 -->
<g id="edge3" class="edge"><title>Node4&#45;&gt;Node3</title>
<path fill="none" stroke="#404040" d="M167.762,-430.48C161.367,-413.854 154.932,-397.124 149.45,-382.87"/>
<polygon fill="none" stroke="#404040" points="149.398,-382.735 143.511,-378.571 145.09,-371.535 150.978,-375.699 149.398,-382.735"/>
<text text-anchor="middle" x="184" y="-404" font-family="Helvetica,sans-Serif" font-size="10.00"> +elements</text>
</g>
<!-- Node9 -->
<g id="node9" class="node"><title>Node9</title>
<polygon fill="none" stroke="#bfbfbf" points="216.5,-303.5 216.5,-382.5 356.5,-382.5 356.5,-303.5 216.5,-303.5"/>
<text text-anchor="start" x="224.5" y="-370.5" font-family="Helvetica,sans-Serif" font-size="10.00">std::unordered_map</text>
<text text-anchor="start" x="224.5" y="-359.5" font-family="Helvetica,sans-Serif" font-size="10.00">&lt; PointRoad, int, hashFunc,</text>
<text text-anchor="middle" x="286.5" y="-348.5" font-family="Helvetica,sans-Serif" font-size="10.00"> equalsFunc &gt;</text>
<polyline fill="none" stroke="#bfbfbf" points="216.5,-341.5 356.5,-341.5 "/>
<text text-anchor="start" x="224.5" y="-329.5" font-family="Helvetica,sans-Serif" font-size="10.00">+ elements</text>
<polyline fill="none" stroke="#bfbfbf" points="216.5,-322.5 356.5,-322.5 "/>
<text text-anchor="middle" x="286.5" y="-310.5" font-family="Helvetica,sans-Serif" font-size="10.00"> </text>
</g>
<!-- Node4&#45;&gt;Node9 -->
<g id="edge9" class="edge"><title>Node4&#45;&gt;Node9</title>
<path fill="none" stroke="#404040" d="M241.981,-430.48C248.518,-417.781 255.086,-405.022 261.094,-393.352"/>
<polygon fill="none" stroke="#404040" points="261.171,-393.203 260.36,-386.038 266.663,-382.534 267.473,-389.699 261.171,-393.203"/>
<text text-anchor="middle" x="272" y="-404" font-family="Helvetica,sans-Serif" font-size="10.00"> +keys</text>
</g>
<!-- Node5 -->
<g id="node5" class="node"><title>Node5</title>
<g id="a_node5"><a xlink:href="class_point.html" target="_top" xlink:title="The Point class. ">
<polygon fill="none" stroke="black" points="77,-645.5 77,-856.5 196,-856.5 196,-645.5 77,-645.5"/>
<text text-anchor="middle" x="136.5" y="-844.5" font-family="Helvetica,sans-Serif" font-size="10.00">Point</text>
<polyline fill="none" stroke="black" points="77,-837.5 196,-837.5 "/>
<text text-anchor="start" x="85" y="-825.5" font-family="Helvetica,sans-Serif" font-size="10.00"># POINT_RADIUS</text>
<polyline fill="none" stroke="black" points="77,-818.5 196,-818.5 "/>
<text text-anchor="start" x="85" y="-806.5" font-family="Helvetica,sans-Serif" font-size="10.00">+ distanceToPoint()</text>
<text text-anchor="start" x="85" y="-795.5" font-family="Helvetica,sans-Serif" font-size="10.00">+ distanceToSegment()</text>
<text text-anchor="start" x="85" y="-784.5" font-family="Helvetica,sans-Serif" font-size="10.00">+ infos()</text>
<text text-anchor="start" x="85" y="-773.5" font-family="Helvetica,sans-Serif" font-size="10.00">+ Point()</text>
<text text-anchor="start" x="85" y="-762.5" font-family="Helvetica,sans-Serif" font-size="10.00">+ Point()</text>
<text text-anchor="start" x="85" y="-751.5" font-family="Helvetica,sans-Serif" font-size="10.00">+ samePointAs()</text>
<text text-anchor="start" x="85" y="-740.5" font-family="Helvetica,sans-Serif" font-size="10.00">+ setx()</text>
<text text-anchor="start" x="85" y="-729.5" font-family="Helvetica,sans-Serif" font-size="10.00">+ x()</text>
<text text-anchor="start" x="85" y="-718.5" font-family="Helvetica,sans-Serif" font-size="10.00">+ ~Point()</text>
<text text-anchor="start" x="85" y="-707.5" font-family="Helvetica,sans-Serif" font-size="10.00">* m_x</text>
<text text-anchor="start" x="85" y="-696.5" font-family="Helvetica,sans-Serif" font-size="10.00">* m_y</text>
<text text-anchor="start" x="85" y="-685.5" font-family="Helvetica,sans-Serif" font-size="10.00">* x()</text>
<text text-anchor="start" x="85" y="-674.5" font-family="Helvetica,sans-Serif" font-size="10.00">* setx()</text>
<text text-anchor="start" x="85" y="-663.5" font-family="Helvetica,sans-Serif" font-size="10.00">* y()</text>
<text text-anchor="start" x="85" y="-652.5" font-family="Helvetica,sans-Serif" font-size="10.00">* sety()</text>
</a>
</g>
</g>
<!-- Node5&#45;&gt;Node4 -->
<g id="edge4" class="edge"><title>Node5&#45;&gt;Node4</title>
<path fill="none" stroke="midnightblue" d="M167.199,-635.49C170.615,-622.747 174.043,-609.958 177.324,-597.722"/>
<polygon fill="none" stroke="midnightblue" points="163.8,-634.649 164.591,-645.215 170.562,-636.462 163.8,-634.649"/>
</g>
<!-- Node6 -->
<g id="node6" class="node"><title>Node6</title>
<polygon fill="none" stroke="#bfbfbf" points="214,-722.5 214,-779.5 313,-779.5 313,-722.5 214,-722.5"/>
<text text-anchor="middle" x="263.5" y="-767.5" font-family="Helvetica,sans-Serif" font-size="10.00">std::vector&lt; long &gt;</text>
<polyline fill="none" stroke="#bfbfbf" points="214,-760.5 313,-760.5 "/>
<text text-anchor="start" x="222" y="-748.5" font-family="Helvetica,sans-Serif" font-size="10.00">+ elements</text>
<polyline fill="none" stroke="#bfbfbf" points="214,-741.5 313,-741.5 "/>
<text text-anchor="middle" x="263.5" y="-729.5" font-family="Helvetica,sans-Serif" font-size="10.00"> </text>
</g>
<!-- Node6&#45;&gt;Node4 -->
<g id="edge5" class="edge"><title>Node6&#45;&gt;Node4</title>
<path fill="none" stroke="#404040" d="M255.907,-722.12C248.311,-694.23 236.199,-649.754 225.142,-609.154"/>
<polygon fill="none" stroke="#404040" points="225.133,-609.122 219.697,-604.384 221.98,-597.544 227.416,-602.282 225.133,-609.122"/>
<text text-anchor="middle" x="276" y="-619" font-family="Helvetica,sans-Serif" font-size="10.00"> #m_vectorOfRoadId</text>
</g>
<!-- Node7 -->
<g id="node7" class="node"><title>Node7</title>
<g id="a_node7"><a xlink:title="STL class. ">
<polygon fill="none" stroke="#bfbfbf" points="374.5,-314.5 374.5,-371.5 434.5,-371.5 434.5,-314.5 374.5,-314.5"/>
<text text-anchor="middle" x="404.5" y="-359.5" font-family="Helvetica,sans-Serif" font-size="10.00">std::string</text>
<polyline fill="none" stroke="#bfbfbf" points="374.5,-352.5 434.5,-352.5 "/>
<text text-anchor="middle" x="404.5" y="-340.5" font-family="Helvetica,sans-Serif" font-size="10.00"> </text>
<polyline fill="none" stroke="#bfbfbf" points="374.5,-333.5 434.5,-333.5 "/>
<text text-anchor="middle" x="404.5" y="-321.5" font-family="Helvetica,sans-Serif" font-size="10.00"> </text>
</a>
</g>
</g>
<!-- Node7&#45;&gt;Node1 -->
<g id="edge6" class="edge"><title>Node7&#45;&gt;Node1</title>
<path fill="none" stroke="#404040" d="M396.861,-314.235C392.96,-301.656 387.719,-286.774 381.5,-274 372.052,-254.594 360.442,-234.681 348.622,-216.068"/>
<polygon fill="none" stroke="#404040" points="348.551,-215.957 341.937,-213.083 342.046,-205.872 348.66,-208.746 348.551,-215.957"/>
<text text-anchor="middle" x="426.5" y="-277" font-family="Helvetica,sans-Serif" font-size="10.00"> #m_gridFullName</text>
</g>
<!-- Node8 -->
<g id="node8" class="node"><title>Node8</title>
<g id="a_node8"><a xlink:title="STL class. ">
<polygon fill="none" stroke="#bfbfbf" points="347,-480 347,-548 442,-548 442,-480 347,-480"/>
<text text-anchor="start" x="355" y="-536" font-family="Helvetica,sans-Serif" font-size="10.00">std::basic_string&lt;</text>
<text text-anchor="middle" x="394.5" y="-525" font-family="Helvetica,sans-Serif" font-size="10.00"> char &gt;</text>
<polyline fill="none" stroke="#bfbfbf" points="347,-518 442,-518 "/>
<text text-anchor="middle" x="394.5" y="-506" font-family="Helvetica,sans-Serif" font-size="10.00"> </text>
<polyline fill="none" stroke="#bfbfbf" points="347,-499 442,-499 "/>
<text text-anchor="middle" x="394.5" y="-487" font-family="Helvetica,sans-Serif" font-size="10.00"> </text>
</a>
</g>
</g>
<!-- Node8&#45;&gt;Node7 -->
<g id="edge7" class="edge"><title>Node8&#45;&gt;Node7</title>
<path fill="none" stroke="midnightblue" d="M397.07,-469.56C398.894,-438.735 401.288,-398.277 402.859,-371.729"/>
<polygon fill="none" stroke="midnightblue" points="393.573,-469.422 396.476,-479.611 400.56,-469.835 393.573,-469.422"/>
</g>
<!-- Node9&#45;&gt;Node1 -->
<g id="edge8" class="edge"><title>Node9&#45;&gt;Node1</title>
<path fill="none" stroke="#404040" d="M286.5,-303.427C286.5,-292.78 286.5,-280.578 286.5,-267.682"/>
<polygon fill="none" stroke="#404040" points="286.5,-267.667 282.5,-261.667 286.5,-255.667 290.5,-261.667 286.5,-267.667"/>
<text text-anchor="middle" x="333.5" y="-277" font-family="Helvetica,sans-Serif" font-size="10.00"> #m_mapOfExtPoints</text>
</g>
<!-- Node10 -->
<g id="node10" class="node"><title>Node10</title>
<polygon fill="none" stroke="#bfbfbf" points="458,-309 458,-377 561,-377 561,-309 458,-309"/>
<text text-anchor="start" x="466" y="-365" font-family="Helvetica,sans-Serif" font-size="10.00">std::unordered_map</text>
<text text-anchor="middle" x="509.5" y="-354" font-family="Helvetica,sans-Serif" font-size="10.00">&lt; long, Road &gt;</text>
<polyline fill="none" stroke="#bfbfbf" points="458,-347 561,-347 "/>
<text text-anchor="start" x="466" y="-335" font-family="Helvetica,sans-Serif" font-size="10.00">+ keys</text>
<polyline fill="none" stroke="#bfbfbf" points="458,-328 561,-328 "/>
<text text-anchor="middle" x="509.5" y="-316" font-family="Helvetica,sans-Serif" font-size="10.00"> </text>
</g>
<!-- Node10&#45;&gt;Node1 -->
<g id="edge10" class="edge"><title>Node10&#45;&gt;Node1</title>
<path fill="none" stroke="#404040" d="M493.799,-308.846C487.446,-297.185 479.481,-284.406 470.5,-274 436.226,-234.29 389.784,-197.788 352.134,-171.341"/>
<polygon fill="none" stroke="#404040" points="352.126,-171.336 344.916,-171.203 342.266,-164.497 349.476,-164.63 352.126,-171.336"/>
<text text-anchor="middle" x="524.5" y="-277" font-family="Helvetica,sans-Serif" font-size="10.00"> +m_mapOfAllRoads</text>
</g>
<!-- Node11 -->
<g id="node11" class="node"><title>Node11</title>
<g id="a_node11"><a xlink:href="class_road.html" target="_top" xlink:title="Road is an element of a network. Road are strongly linked with Points. ">
<polygon fill="none" stroke="black" points="460,-430.5 460,-597.5 573,-597.5 573,-430.5 460,-430.5"/>
<text text-anchor="middle" x="516.5" y="-585.5" font-family="Helvetica,sans-Serif" font-size="10.00">Road</text>
<polyline fill="none" stroke="black" points="460,-578.5 573,-578.5 "/>
<text text-anchor="start" x="468" y="-566.5" font-family="Helvetica,sans-Serif" font-size="10.00"># m_edgeId</text>
<polyline fill="none" stroke="black" points="460,-559.5 573,-559.5 "/>
<text text-anchor="start" x="468" y="-547.5" font-family="Helvetica,sans-Serif" font-size="10.00">+ addNeighbor()</text>
<text text-anchor="start" x="468" y="-536.5" font-family="Helvetica,sans-Serif" font-size="10.00">+ addPoint()</text>
<text text-anchor="start" x="468" y="-525.5" font-family="Helvetica,sans-Serif" font-size="10.00">+ edgeId()</text>
<text text-anchor="start" x="468" y="-514.5" font-family="Helvetica,sans-Serif" font-size="10.00">+ getListOfPoints()</text>
<text text-anchor="start" x="468" y="-503.5" font-family="Helvetica,sans-Serif" font-size="10.00">+ getm_edgeId()</text>
<text text-anchor="start" x="468" y="-492.5" font-family="Helvetica,sans-Serif" font-size="10.00">+ getNoOfNeighbors()</text>
<text text-anchor="start" x="468" y="-481.5" font-family="Helvetica,sans-Serif" font-size="10.00">+ outputInfos()</text>
<text text-anchor="start" x="468" y="-470.5" font-family="Helvetica,sans-Serif" font-size="10.00">+ Road()</text>
<text text-anchor="start" x="468" y="-459.5" font-family="Helvetica,sans-Serif" font-size="10.00">+ Road()</text>
<text text-anchor="start" x="468" y="-448.5" font-family="Helvetica,sans-Serif" font-size="10.00">+ vectorOfPointsId()</text>
<text text-anchor="start" x="468" y="-437.5" font-family="Helvetica,sans-Serif" font-size="10.00">+ ~Road()</text>
</a>
</g>
</g>
<!-- Node11&#45;&gt;Node10 -->
<g id="edge11" class="edge"><title>Node11&#45;&gt;Node10</title>
<path fill="none" stroke="#404040" d="M513.082,-430.48C512.494,-416.278 511.902,-402.001 511.375,-389.256"/>
<polygon fill="none" stroke="#404040" points="511.367,-389.07 507.122,-383.241 510.87,-377.08 515.115,-382.91 511.367,-389.07"/>
<text text-anchor="middle" x="537" y="-404" font-family="Helvetica,sans-Serif" font-size="10.00"> +elements</text>
</g>
<!-- Node12 -->
<g id="node12" class="node"><title>Node12</title>
<polygon fill="none" stroke="#bfbfbf" points="416.5,-722.5 416.5,-779.5 502.5,-779.5 502.5,-722.5 416.5,-722.5"/>
<text text-anchor="middle" x="459.5" y="-767.5" font-family="Helvetica,sans-Serif" font-size="10.00">std::set&lt; long &gt;</text>
<polyline fill="none" stroke="#bfbfbf" points="416.5,-760.5 502.5,-760.5 "/>
<text text-anchor="start" x="424.5" y="-748.5" font-family="Helvetica,sans-Serif" font-size="10.00">+ keys</text>
<polyline fill="none" stroke="#bfbfbf" points="416.5,-741.5 502.5,-741.5 "/>
<text text-anchor="middle" x="459.5" y="-729.5" font-family="Helvetica,sans-Serif" font-size="10.00"> </text>
</g>
<!-- Node12&#45;&gt;Node11 -->
<g id="edge12" class="edge"><title>Node12&#45;&gt;Node11</title>
<path fill="none" stroke="#404040" d="M455.774,-722.273C452.993,-694.804 451.103,-651.777 460.5,-616 461.102,-613.709 461.767,-611.415 462.489,-609.122"/>
<polygon fill="none" stroke="#404040" points="462.53,-609.007 460.763,-602.016 466.537,-597.696 468.304,-604.687 462.53,-609.007"/>
<text text-anchor="middle" x="506" y="-619" font-family="Helvetica,sans-Serif" font-size="10.00"> #m_setOfNeighbors</text>
</g>
<!-- Node13 -->
<g id="node13" class="node"><title>Node13</title>
<polygon fill="none" stroke="#bfbfbf" points="527.5,-722.5 527.5,-779.5 619.5,-779.5 619.5,-722.5 527.5,-722.5"/>
<text text-anchor="middle" x="573.5" y="-767.5" font-family="Helvetica,sans-Serif" font-size="10.00">std::vector&lt; int &gt;</text>
<polyline fill="none" stroke="#bfbfbf" points="527.5,-760.5 619.5,-760.5 "/>
<text text-anchor="start" x="535.5" y="-748.5" font-family="Helvetica,sans-Serif" font-size="10.00">+ elements</text>
<polyline fill="none" stroke="#bfbfbf" points="527.5,-741.5 619.5,-741.5 "/>
<text text-anchor="middle" x="573.5" y="-729.5" font-family="Helvetica,sans-Serif" font-size="10.00"> </text>
</g>
<!-- Node13&#45;&gt;Node11 -->
<g id="edge13" class="edge"><title>Node13&#45;&gt;Node11</title>
<path fill="none" stroke="#404040" d="M570.351,-722.257C566.924,-694.958 560.678,-652.222 551.5,-616 550.927,-613.74 550.327,-611.459 549.702,-609.164"/>
<polygon fill="none" stroke="#404040" points="549.697,-609.145 544.202,-604.475 546.398,-597.607 551.894,-602.276 549.697,-609.145"/>
<text text-anchor="middle" x="602.5" y="-619" font-family="Helvetica,sans-Serif" font-size="10.00"> #m_vectorOfPointsId</text>
</g>
</g>
</svg>
        <g id="navigator" transform="translate(0 0)" fill="#404254">
                <rect fill="#f2f5e9" fill-opacity="0.5" stroke="#606060" stroke-width=".5" x="0" y="0" width="60" height="60"/>
                <use id="zoomplus" xlink:href="#zoomPlus" x="17" y="9" onmousedown="handleZoom(evt,'in')"/>
                <use id="zoomminus" xlink:href="#zoomMin" x="42" y="9" onmousedown="handleZoom(evt,'out')"/>
                <use id="reset" xlink:href="#resetDef" x="30" y="36" onmousedown="handleReset()"/>
                <g id="arrowUp" xlink:href="#dirArrow" transform="translate(30 24)" onmousedown="handlePan(0,-1)">
                  <use xlink:href="#rim" fill="#404040">
                        <set attributeName="fill" to="#808080" begin="arrowUp.mouseover" end="arrowUp.mouseout"/>
                  </use>
                  <path fill="none" stroke="white" stroke-width="1.5" d="M0,-3.0v7 M-2.5,-0.5L0,-3.0L2.5,-0.5"/>
                </g>
                <g id="arrowRight" xlink:href="#dirArrow" transform="rotate(90) translate(36 -43)" onmousedown="handlePan(1,0)">
                  <use xlink:href="#rim" fill="#404040">
                        <set attributeName="fill" to="#808080" begin="arrowRight.mouseover" end="arrowRight.mouseout"/>
                  </use>
                  <path fill="none" stroke="white" stroke-width="1.5" d="M0,-3.0v7 M-2.5,-0.5L0,-3.0L2.5,-0.5"/>
                </g>
                <g id="arrowDown" xlink:href="#dirArrow" transform="rotate(180) translate(-30 -48)" onmousedown="handlePan(0,1)">
                  <use xlink:href="#rim" fill="#404040">
                        <set attributeName="fill" to="#808080" begin="arrowDown.mouseover" end="arrowDown.mouseout"/>
                  </use>
                  <path fill="none" stroke="white" stroke-width="1.5" d="M0,-3.0v7 M-2.5,-0.5L0,-3.0L2.5,-0.5"/>
                </g>
                <g id="arrowLeft" xlink:href="#dirArrow" transform="rotate(270) translate(-36 17)" onmousedown="handlePan(-1,0)">
                  <use xlink:href="#rim" fill="#404040">
                        <set attributeName="fill" to="#808080" begin="arrowLeft.mouseover" end="arrowLeft.mouseout"/>
                  </use>
                  <path fill="none" stroke="white" stroke-width="1.5" d="M0,-3.0v7 M-2.5,-0.5L0,-3.0L2.5,-0.5"/>
                </g>
        </g>
        <svg viewBox="0 0 15 15" width="100%" height="30px" preserveAspectRatio="xMaxYMin meet">
         <g id="arrow_out" transform="scale(0.3 0.3)">
          <a xlink:href="class_grid__coll__graph_org.svg" target="_base">
           <rect id="button" ry="5" rx="5" y="6" x="6" height="38" width="38"
                fill="#f2f5e9" fill-opacity="0.5" stroke="#606060" stroke-width="1.0"/>
           <path id="arrow"
             d="M 11.500037,31.436501 C 11.940474,20.09759 22.043105,11.32322 32.158766,21.979434 L 37.068811,17.246167 C 37.068811,17.246167 37.088388,32 37.088388,32 L 22.160133,31.978069 C 22.160133,31.978069 26.997745,27.140456 26.997745,27.140456 C 18.528582,18.264221 13.291696,25.230495 11.500037,31.436501 z"
             style="fill:#404040;"/>
          </a>
         </g>
        </svg>
</svg>
