<?xml version="1.0" encoding="UTF-8" standalone="no"?>
<!DOCTYPE svg PUBLIC "-//W3C//DTD SVG 1.1//EN"
 "http://www.w3.org/Graphics/SVG/1.1/DTD/svg11.dtd">
<!-- Generated by graphviz version 2.38.0 (20140413.2041)
 -->
<!-- Title: Road::addPoint Pages: 1 -->
<svg width="891pt" height="180pt"
 viewBox="0.00 0.00 891.00 180.00" xmlns="http://www.w3.org/2000/svg" xmlns:xlink="http://www.w3.org/1999/xlink">
<g id="graph0" class="graph" transform="scale(1 1) rotate(0) translate(4 176)">
<title>Road::addPoint</title>
<!-- Node1 -->
<g id="node1" class="node"><title>Node1</title>
<polygon fill="#bfbfbf" stroke="black" points="0,-95.5 0,-114.5 84,-114.5 84,-95.5 0,-95.5"/>
<text text-anchor="middle" x="42" y="-102.5" font-family="Helvetica,sans-Serif" font-size="10.00">Road::addPoint</text>
</g>
<!-- Node2 -->
<g id="node2" class="node"><title>Node2</title>
<g id="a_node2"><a xlink:href="class_grid.html#aba1830bc145f128d6deeed29cfb94c9f" target="_top" xlink:title="Creates a new road and inserts it in m_road. ">
<polygon fill="none" stroke="black" points="120,-95.5 120,-114.5 200,-114.5 200,-95.5 120,-95.5"/>
<text text-anchor="middle" x="160" y="-102.5" font-family="Helvetica,sans-Serif" font-size="10.00">Grid::addRoad</text>
</a>
</g>
</g>
<!-- Node1&#45;&gt;Node2 -->
<g id="edge1" class="edge"><title>Node1&#45;&gt;Node2</title>
<path fill="none" stroke="midnightblue" d="M94.4708,-105C102.99,-105 111.699,-105 119.852,-105"/>
<polygon fill="midnightblue" stroke="midnightblue" points="94.2239,-101.5 84.2239,-105 94.2238,-108.5 94.2239,-101.5"/>
</g>
<!-- Node3 -->
<g id="node3" class="node"><title>Node3</title>
<g id="a_node3"><a xlink:href="class_grid.html#ae848f1c59c544adc1af9133409ee0106" target="_top" xlink:title="Reads a csv file and inserts info into the corresponding attributs. ">
<polygon fill="none" stroke="black" points="236,-95.5 236,-114.5 339,-114.5 339,-95.5 236,-95.5"/>
<text text-anchor="middle" x="287.5" y="-102.5" font-family="Helvetica,sans-Serif" font-size="10.00">Grid::readFromCSV</text>
</a>
</g>
</g>
<!-- Node2&#45;&gt;Node3 -->
<g id="edge2" class="edge"><title>Node2&#45;&gt;Node3</title>
<path fill="none" stroke="midnightblue" d="M210.141,-105C218.616,-105 227.438,-105 235.949,-105"/>
<polygon fill="midnightblue" stroke="midnightblue" points="210.021,-101.5 200.021,-105 210.021,-108.5 210.021,-101.5"/>
</g>
<!-- Node4 -->
<g id="node4" class="node"><title>Node4</title>
<g id="a_node4"><a xlink:href="main_8cpp.html#a640261e473790d1a87c2f33332460793" target="_top" xlink:title="dev_grid">
<polygon fill="none" stroke="black" points="418.5,-152.5 418.5,-171.5 471.5,-171.5 471.5,-152.5 418.5,-152.5"/>
<text text-anchor="middle" x="445" y="-159.5" font-family="Helvetica,sans-Serif" font-size="10.00">dev_grid</text>
</a>
</g>
</g>
<!-- Node3&#45;&gt;Node4 -->
<g id="edge3" class="edge"><title>Node3&#45;&gt;Node4</title>
<path fill="none" stroke="midnightblue" d="M317.279,-118.9C333.907,-126.611 355.361,-136.024 375,-143 389.167,-148.032 405.357,-152.552 418.492,-155.92"/>
<polygon fill="midnightblue" stroke="midnightblue" points="318.636,-115.67 308.096,-114.587 315.66,-122.006 318.636,-115.67"/>
</g>
<!-- Node5 -->
<g id="node5" class="node"><title>Node5</title>
<g id="a_node5"><a xlink:href="main_8cpp.html#a141063eccadf0e03662d414d897d9f5d" target="_top" xlink:title="dev_gridAndTrack">
<polygon fill="none" stroke="black" points="397.5,-114.5 397.5,-133.5 492.5,-133.5 492.5,-114.5 397.5,-114.5"/>
<text text-anchor="middle" x="445" y="-121.5" font-family="Helvetica,sans-Serif" font-size="10.00">dev_gridAndTrack</text>
</a>
</g>
</g>
<!-- Node3&#45;&gt;Node5 -->
<g id="edge4" class="edge"><title>Node3&#45;&gt;Node5</title>
<path fill="none" stroke="midnightblue" d="M349.69,-112.477C365.581,-114.418 382.439,-116.478 397.44,-118.311"/>
<polygon fill="midnightblue" stroke="midnightblue" points="349.767,-108.96 339.417,-111.221 348.918,-115.908 349.767,-108.96"/>
</g>
<!-- Node6 -->
<g id="node6" class="node"><title>Node6</title>
<g id="a_node6"><a xlink:href="class_main_window.html#ad39bbe8ced0d3248206ac0ca6c444d55" target="_top" xlink:title="MainWindow::readyToNext1">
<polygon fill="none" stroke="black" points="375,-76.5 375,-95.5 515,-95.5 515,-76.5 375,-76.5"/>
<text text-anchor="middle" x="445" y="-83.5" font-family="Helvetica,sans-Serif" font-size="10.00">MainWindow::readyToNext1</text>
</a>
</g>
</g>
<!-- Node3&#45;&gt;Node6 -->
<g id="edge5" class="edge"><title>Node3&#45;&gt;Node6</title>
<path fill="none" stroke="midnightblue" d="M349.438,-97.5542C357.787,-96.534 366.408,-95.4807 374.89,-94.4443"/>
<polygon fill="midnightblue" stroke="midnightblue" points="348.918,-94.0916 339.417,-98.7787 349.767,-101.04 348.918,-94.0916"/>
</g>
<!-- Node9 -->
<g id="node9" class="node"><title>Node9</title>
<g id="a_node9"><a xlink:href="class_solver.html#a97bc7169c18b339fecd4937150f907c3" target="_top" xlink:title="Solver::start">
<polygon fill="none" stroke="black" points="410,-38.5 410,-57.5 480,-57.5 480,-38.5 410,-38.5"/>
<text text-anchor="middle" x="445" y="-45.5" font-family="Helvetica,sans-Serif" font-size="10.00">Solver::start</text>
</a>
</g>
</g>
<!-- Node3&#45;&gt;Node9 -->
<g id="edge8" class="edge"><title>Node3&#45;&gt;Node9</title>
<path fill="none" stroke="midnightblue" d="M317.279,-91.1003C333.907,-83.3886 355.361,-73.9762 375,-67 386.123,-63.049 398.493,-59.4138 409.652,-56.4043"/>
<polygon fill="midnightblue" stroke="midnightblue" points="315.66,-87.994 308.096,-95.4131 318.636,-94.33 315.66,-87.994"/>
</g>
<!-- Node7 -->
<g id="node7" class="node"><title>Node7</title>
<g id="a_node7"><a xlink:href="class_main_window.html#af773488e0b16efe6c0fc67ad348b86b2" target="_top" xlink:title="MainWindow::createConnections">
<polygon fill="none" stroke="black" points="551,-76.5 551,-95.5 712,-95.5 712,-76.5 551,-76.5"/>
<text text-anchor="middle" x="631.5" y="-83.5" font-family="Helvetica,sans-Serif" font-size="10.00">MainWindow::createConnections</text>
</a>
</g>
</g>
<!-- Node6&#45;&gt;Node7 -->
<g id="edge6" class="edge"><title>Node6&#45;&gt;Node7</title>
<path fill="none" stroke="midnightblue" d="M525.446,-86C533.9,-86 542.501,-86 550.956,-86"/>
<polygon fill="midnightblue" stroke="midnightblue" points="525.226,-82.5001 515.226,-86 525.226,-89.5001 525.226,-82.5001"/>
</g>
<!-- Node8 -->
<g id="node8" class="node"><title>Node8</title>
<g id="a_node8"><a xlink:href="class_main_window.html#a8b244be8b7b7db1b08de2a2acb9409db" target="_top" xlink:title="MainWindow::MainWindow">
<polygon fill="none" stroke="black" points="748,-76.5 748,-95.5 883,-95.5 883,-76.5 748,-76.5"/>
<text text-anchor="middle" x="815.5" y="-83.5" font-family="Helvetica,sans-Serif" font-size="10.00">MainWindow::MainWindow</text>
</a>
</g>
</g>
<!-- Node7&#45;&gt;Node8 -->
<g id="edge7" class="edge"><title>Node7&#45;&gt;Node8</title>
<path fill="none" stroke="midnightblue" d="M722.196,-86C730.85,-86 739.52,-86 747.892,-86"/>
<polygon fill="midnightblue" stroke="midnightblue" points="722.063,-82.5001 712.063,-86 722.063,-89.5001 722.063,-82.5001"/>
</g>
<!-- Node10 -->
<g id="node10" class="node"><title>Node10</title>
<g id="a_node10"><a xlink:href="main_8cpp.html#a9dd67c19acf7317c6296b63e29dcfab9" target="_top" xlink:title="dev_thread">
<polygon fill="none" stroke="black" points="599,-38.5 599,-57.5 664,-57.5 664,-38.5 599,-38.5"/>
<text text-anchor="middle" x="631.5" y="-45.5" font-family="Helvetica,sans-Serif" font-size="10.00">dev_thread</text>
</a>
</g>
</g>
<!-- Node9&#45;&gt;Node10 -->
<g id="edge9" class="edge"><title>Node9&#45;&gt;Node10</title>
<path fill="none" stroke="midnightblue" d="M490.695,-48C524.147,-48 569.083,-48 598.877,-48"/>
<polygon fill="midnightblue" stroke="midnightblue" points="490.271,-44.5001 480.271,-48 490.271,-51.5001 490.271,-44.5001"/>
</g>
<!-- Node12 -->
<g id="node12" class="node"><title>Node12</title>
<g id="a_node12"><a xlink:href="class_solver.html#a323c9c0407f26a2ed3ec3ff5ed02a760" target="_top" xlink:title="Solver::onSignalStart">
<polygon fill="none" stroke="black" points="577,-0.5 577,-19.5 686,-19.5 686,-0.5 577,-0.5"/>
<text text-anchor="middle" x="631.5" y="-7.5" font-family="Helvetica,sans-Serif" font-size="10.00">Solver::onSignalStart</text>
</a>
</g>
</g>
<!-- Node9&#45;&gt;Node12 -->
<g id="edge11" class="edge"><title>Node9&#45;&gt;Node12</title>
<path fill="none" stroke="midnightblue" d="M490.319,-38.8719C518.706,-33.0253 555.477,-25.4519 584.236,-19.5287"/>
<polygon fill="midnightblue" stroke="midnightblue" points="489.359,-35.4961 480.271,-40.9415 490.771,-42.3522 489.359,-35.4961"/>
</g>
<!-- Node11 -->
<g id="node11" class="node"><title>Node11</title>
<g id="a_node11"><a xlink:href="main_8cpp.html#a0ddf1224851353fc92bfbff6f499fa97" target="_top" xlink:title="main">
<polygon fill="none" stroke="black" points="796.5,-38.5 796.5,-57.5 834.5,-57.5 834.5,-38.5 796.5,-38.5"/>
<text text-anchor="middle" x="815.5" y="-45.5" font-family="Helvetica,sans-Serif" font-size="10.00">main</text>
</a>
</g>
</g>
<!-- Node10&#45;&gt;Node11 -->
<g id="edge10" class="edge"><title>Node10&#45;&gt;Node11</title>
<path fill="none" stroke="midnightblue" d="M674.588,-48C713.103,-48 768.251,-48 796.426,-48"/>
<polygon fill="midnightblue" stroke="midnightblue" points="674.202,-44.5001 664.202,-48 674.202,-51.5001 674.202,-44.5001"/>
</g>
</g>
</svg>
