<?xml version="1.0" encoding="UTF-8" standalone="no"?>
<!DOCTYPE svg PUBLIC "-//W3C//DTD SVG 1.1//EN"
 "http://www.w3.org/Graphics/SVG/1.1/DTD/svg11.dtd">
<!-- Generated by graphviz version 2.38.0 (20140413.2041)
 -->
<!-- Title: MainWindow::readyToNext1 Pages: 1 -->
<!--zoomable 522 -->
<svg id="main" version="1.1" xmlns="http://www.w3.org/2000/svg" xmlns:xlink="http://www.w3.org/1999/xlink" xml:space="preserve" onload="init(evt)">
<style type="text/css"><![CDATA[
.edge:hover path { stroke: red; }
.edge:hover polygon { stroke: red; fill: red; }
]]></style>
<script type="text/javascript"><![CDATA[
var edges = document.getElementsByTagName('g');
if (edges && edges.length) {
  for (var i=0;i<edges.length;i++) {
    if (edges[i].id.substr(0,4)=='edge') {
      edges[i].setAttribute('class','edge');
    }
  }
}
]]></script>
        <defs>
                <circle id="rim" cx="0" cy="0" r="7"/>
                <circle id="rim2" cx="0" cy="0" r="3.5"/>
                <g id="zoomPlus">
                        <use xlink:href="#rim" fill="#404040">
                                <set attributeName="fill" to="#808080" begin="zoomplus.mouseover" end="zoomplus.mouseout"/>
                        </use>
                        <path d="M-4,0h8M0,-4v8" fill="none" stroke="white" stroke-width="1.5" pointer-events="none"/>
                </g>
                <g id="zoomMin">
                        <use xlink:href="#rim" fill="#404040">
                                <set attributeName="fill" to="#808080" begin="zoomminus.mouseover" end="zoomminus.mouseout"/>
                        </use>
                        <path d="M-4,0h8" fill="none" stroke="white" stroke-width="1.5" pointer-events="none"/>
                </g>
                <g id="dirArrow">
                        <path fill="none" stroke="white" stroke-width="1.5" d="M0,-3.0v7 M-2.5,-0.5L0,-3.0L2.5,-0.5"/>
                </g>
               <g id="resetDef">
                       <use xlink:href="#rim2" fill="#404040">
                               <set attributeName="fill" to="#808080" begin="reset.mouseover" end="reset.mouseout"/>
                       </use>
               </g>
        </defs>

<script type="text/javascript">
var viewWidth = 730;
var viewHeight = 522;
var sectionId = 'dynsection-9';
</script>
<script xlink:href="svgpan.js"/>
<svg id="graph" class="graph">
<g id="viewport">
<title>MainWindow::readyToNext1</title>
<!-- Node1 -->
<g id="node1" class="node"><title>Node1</title>
<polygon fill="#bfbfbf" stroke="black" points="0,-399.5 0,-418.5 140,-418.5 140,-399.5 0,-399.5"/>
<text text-anchor="middle" x="70" y="-406.5" font-family="Helvetica,sans-Serif" font-size="10.00">MainWindow::readyToNext1</text>
</g>
<!-- Node2 -->
<g id="node2" class="node"><title>Node2</title>
<g id="a_node2"><a xlink:href="class_track.html#aff258a8c303ee8a09a962d237f3823e7" target="_top" xlink:title="Reads a csv file and inserts each point in m_points vector. ">
<polygon fill="none" stroke="black" points="177,-456.5 177,-475.5 287,-475.5 287,-456.5 177,-456.5"/>
<text text-anchor="middle" x="232" y="-463.5" font-family="Helvetica,sans-Serif" font-size="10.00">Track::readFromCSV</text>
</a>
</g>
</g>
<!-- Node1&#45;&gt;Node2 -->
<g id="edge1" class="edge"><title>Node1&#45;&gt;Node2</title>
<path fill="none" stroke="midnightblue" d="M97.2842,-418.633C118.5,-426.379 149.133,-437.498 176,-447 181.613,-448.985 187.557,-451.063 193.382,-453.087"/>
<polygon fill="midnightblue" stroke="midnightblue" points="192.398,-456.45 202.992,-456.413 194.687,-449.835 192.398,-456.45"/>
</g>
<!-- Node3 -->
<g id="node3" class="node"><title>Node3</title>
<g id="a_node3"><a xlink:href="class_grid.html#a19318437702e712955d0c4631c94cb04" target="_top" xlink:title="setZone Save data about our area of roads ">
<polygon fill="none" stroke="black" points="176,-418.5 176,-437.5 288,-437.5 288,-418.5 176,-418.5"/>
<text text-anchor="middle" x="232" y="-425.5" font-family="Helvetica,sans-Serif" font-size="10.00">Grid::setBoundingBox</text>
</a>
</g>
</g>
<!-- Node1&#45;&gt;Node3 -->
<g id="edge2" class="edge"><title>Node1&#45;&gt;Node3</title>
<path fill="none" stroke="midnightblue" d="M140.248,-417.223C148.654,-418.221 157.221,-419.239 165.57,-420.23"/>
<polygon fill="midnightblue" stroke="midnightblue" points="165.275,-423.72 175.618,-421.423 166.101,-416.769 165.275,-423.72"/>
</g>
<!-- Node8 -->
<g id="node8" class="node"><title>Node8</title>
<g id="a_node8"><a xlink:href="class_grid.html#ae848f1c59c544adc1af9133409ee0106" target="_top" xlink:title="readFromCSV Reads a csv file and inserts info into the corresponding attributs ">
<polygon fill="none" stroke="black" points="180.5,-171.5 180.5,-190.5 283.5,-190.5 283.5,-171.5 180.5,-171.5"/>
<text text-anchor="middle" x="232" y="-178.5" font-family="Helvetica,sans-Serif" font-size="10.00">Grid::readFromCSV</text>
</a>
</g>
</g>
<!-- Node1&#45;&gt;Node8 -->
<g id="edge7" class="edge"><title>Node1&#45;&gt;Node8</title>
<path fill="none" stroke="midnightblue" d="M77.6713,-399.493C102.017,-364.801 186.326,-244.66 218.442,-198.895"/>
<polygon fill="midnightblue" stroke="midnightblue" points="221.421,-200.743 224.3,-190.547 215.691,-196.722 221.421,-200.743"/>
</g>
<!-- Node19 -->
<g id="node19" class="node"><title>Node19</title>
<g id="a_node19"><a xlink:href="class_grid.html#a8d8b7fa0ee20d81f130a46d80fc2a018" target="_top" xlink:title="trackInGrid ">
<polygon fill="none" stroke="black" points="187.5,-380.5 187.5,-399.5 276.5,-399.5 276.5,-380.5 187.5,-380.5"/>
<text text-anchor="middle" x="232" y="-387.5" font-family="Helvetica,sans-Serif" font-size="10.00">Grid::trackInGrid</text>
</a>
</g>
</g>
<!-- Node1&#45;&gt;Node19 -->
<g id="edge19" class="edge"><title>Node1&#45;&gt;Node19</title>
<path fill="none" stroke="midnightblue" d="M140.248,-400.777C152.528,-399.319 165.153,-397.819 176.936,-396.42"/>
<polygon fill="midnightblue" stroke="midnightblue" points="177.527,-399.875 187.045,-395.22 176.702,-392.923 177.527,-399.875"/>
</g>
<!-- Node4 -->
<g id="node4" class="node"><title>Node4</title>
<g id="a_node4"><a xlink:href="class_grid.html#a13d6d18b26d70ab5871a8c2ddf7fa1b5" target="_top" xlink:title="Grid::xMin">
<polygon fill="none" stroke="black" points="337,-380.5 337,-399.5 399,-399.5 399,-380.5 337,-380.5"/>
<text text-anchor="middle" x="368" y="-387.5" font-family="Helvetica,sans-Serif" font-size="10.00">Grid::xMin</text>
</a>
</g>
</g>
<!-- Node3&#45;&gt;Node4 -->
<g id="edge3" class="edge"><title>Node3&#45;&gt;Node4</title>
<path fill="none" stroke="midnightblue" d="M266.814,-418.411C285.168,-413.206 307.968,-406.74 327.179,-401.293"/>
<polygon fill="midnightblue" stroke="midnightblue" points="328.189,-404.644 336.855,-398.549 326.279,-397.91 328.189,-404.644"/>
</g>
<!-- Node5 -->
<g id="node5" class="node"><title>Node5</title>
<g id="a_node5"><a xlink:href="class_grid.html#a5e140affdf9653d8badf596f1f151908" target="_top" xlink:title="Grid::xMax">
<polygon fill="none" stroke="black" points="335.5,-494.5 335.5,-513.5 400.5,-513.5 400.5,-494.5 335.5,-494.5"/>
<text text-anchor="middle" x="368" y="-501.5" font-family="Helvetica,sans-Serif" font-size="10.00">Grid::xMax</text>
</a>
</g>
</g>
<!-- Node3&#45;&gt;Node5 -->
<g id="edge4" class="edge"><title>Node3&#45;&gt;Node5</title>
<path fill="none" stroke="midnightblue" d="M268.788,-437.558C275.445,-440.103 282.141,-443.224 288,-447 307.555,-459.604 304.988,-471.592 324,-485 326.376,-486.676 328.924,-488.253 331.549,-489.727"/>
<polygon fill="midnightblue" stroke="midnightblue" points="330.135,-492.934 340.637,-494.332 333.299,-486.69 330.135,-492.934"/>
</g>
<!-- Node6 -->
<g id="node6" class="node"><title>Node6</title>
<g id="a_node6"><a xlink:href="class_grid.html#a6acf01d876905d8709f4fb8ebe18aa94" target="_top" xlink:title="Grid::yMin">
<polygon fill="none" stroke="black" points="337,-456.5 337,-475.5 399,-475.5 399,-456.5 337,-456.5"/>
<text text-anchor="middle" x="368" y="-463.5" font-family="Helvetica,sans-Serif" font-size="10.00">Grid::yMin</text>
</a>
</g>
</g>
<!-- Node3&#45;&gt;Node6 -->
<g id="edge5" class="edge"><title>Node3&#45;&gt;Node6</title>
<path fill="none" stroke="midnightblue" d="M266.814,-437.589C285.168,-442.794 307.968,-449.26 327.179,-454.707"/>
<polygon fill="midnightblue" stroke="midnightblue" points="326.279,-458.09 336.855,-457.451 328.189,-451.356 326.279,-458.09"/>
</g>
<!-- Node7 -->
<g id="node7" class="node"><title>Node7</title>
<g id="a_node7"><a xlink:href="class_grid.html#abfa1a601742ca69a5ecc3b6a5318d7a8" target="_top" xlink:title="Grid::yMax">
<polygon fill="none" stroke="black" points="335.5,-418.5 335.5,-437.5 400.5,-437.5 400.5,-418.5 335.5,-418.5"/>
<text text-anchor="middle" x="368" y="-425.5" font-family="Helvetica,sans-Serif" font-size="10.00">Grid::yMax</text>
</a>
</g>
</g>
<!-- Node3&#45;&gt;Node7 -->
<g id="edge6" class="edge"><title>Node3&#45;&gt;Node7</title>
<path fill="none" stroke="midnightblue" d="M288.277,-428C300.53,-428 313.324,-428 324.948,-428"/>
<polygon fill="midnightblue" stroke="midnightblue" points="325.247,-431.5 335.247,-428 325.246,-424.5 325.247,-431.5"/>
</g>
<!-- Node9 -->
<g id="node9" class="node"><title>Node9</title>
<g id="a_node9"><a xlink:href="class_grid.html#a6b6af4fb2545b398b47794de576f15f5" target="_top" xlink:title="inFootPrint Test if a point is in the defined area of a track ">
<polygon fill="none" stroke="black" points="324,-190.5 324,-209.5 412,-209.5 412,-190.5 324,-190.5"/>
<text text-anchor="middle" x="368" y="-197.5" font-family="Helvetica,sans-Serif" font-size="10.00">Grid::inFootPrint</text>
</a>
</g>
</g>
<!-- Node8&#45;&gt;Node9 -->
<g id="edge8" class="edge"><title>Node8&#45;&gt;Node9</title>
<path fill="none" stroke="midnightblue" d="M283.66,-188.183C293.451,-189.571 303.738,-191.03 313.613,-192.43"/>
<polygon fill="midnightblue" stroke="midnightblue" points="313.324,-195.924 323.717,-193.863 314.307,-188.994 313.324,-195.924"/>
</g>
<!-- Node10 -->
<g id="node10" class="node"><title>Node10</title>
<g id="a_node10"><a xlink:href="class_grid.html#a58233ab60f7477144af334f205606aa4" target="_top" xlink:title="updateGrid Find max and min of the grid ">
<polygon fill="none" stroke="black" points="324,-152.5 324,-171.5 412,-171.5 412,-152.5 324,-152.5"/>
<text text-anchor="middle" x="368" y="-159.5" font-family="Helvetica,sans-Serif" font-size="10.00">Grid::updateGrid</text>
</a>
</g>
</g>
<!-- Node8&#45;&gt;Node10 -->
<g id="edge9" class="edge"><title>Node8&#45;&gt;Node10</title>
<path fill="none" stroke="midnightblue" d="M283.66,-173.817C293.451,-172.429 303.738,-170.97 313.613,-169.57"/>
<polygon fill="midnightblue" stroke="midnightblue" points="314.307,-173.006 323.717,-168.137 313.324,-166.076 314.307,-173.006"/>
</g>
<!-- Node11 -->
<g id="node11" class="node"><title>Node11</title>
<g id="a_node11"><a xlink:href="class_grid.html#aba1830bc145f128d6deeed29cfb94c9f" target="_top" xlink:title="addRoad Creates a new road and inserts it in m_road ">
<polygon fill="none" stroke="black" points="328,-114.5 328,-133.5 408,-133.5 408,-114.5 328,-114.5"/>
<text text-anchor="middle" x="368" y="-121.5" font-family="Helvetica,sans-Serif" font-size="10.00">Grid::addRoad</text>
</a>
</g>
</g>
<!-- Node8&#45;&gt;Node11 -->
<g id="edge10" class="edge"><title>Node8&#45;&gt;Node11</title>
<path fill="none" stroke="midnightblue" d="M255.429,-171.459C277.266,-162.171 310.663,-147.964 335.23,-137.514"/>
<polygon fill="midnightblue" stroke="midnightblue" points="336.666,-140.707 344.498,-133.572 333.926,-134.265 336.666,-140.707"/>
</g>
<!-- Node12 -->
<g id="node12" class="node"><title>Node12</title>
<g id="a_node12"><a xlink:href="class_point_road.html#aa1b90c3fdf8ae7a1fcd8ce6182d13287" target="_top" xlink:title="PointRoad::outputInfos">
<polygon fill="none" stroke="black" points="470.5,-228.5 470.5,-247.5 587.5,-247.5 587.5,-228.5 470.5,-228.5"/>
<text text-anchor="middle" x="529" y="-235.5" font-family="Helvetica,sans-Serif" font-size="10.00">PointRoad::outputInfos</text>
</a>
</g>
</g>
<!-- Node11&#45;&gt;Node12 -->
<g id="edge11" class="edge"><title>Node11&#45;&gt;Node12</title>
<path fill="none" stroke="midnightblue" d="M398.523,-133.652C403.414,-136.158 408.141,-139.242 412,-143 438.774,-169.079 418.957,-195.475 448,-219 451.988,-222.23 456.434,-224.928 461.131,-227.179"/>
<polygon fill="midnightblue" stroke="midnightblue" points="459.836,-230.431 470.416,-230.98 462.487,-223.953 459.836,-230.431"/>
</g>
<!-- Node13 -->
<g id="node13" class="node"><title>Node13</title>
<g id="a_node13"><a xlink:href="class_point_road.html#ab53ccb3c883bdfd27c707901c5c658c8" target="_top" xlink:title="PointRoad::updateBelongToRoad">
<polygon fill="none" stroke="black" points="448,-190.5 448,-209.5 610,-209.5 610,-190.5 448,-190.5"/>
<text text-anchor="middle" x="529" y="-197.5" font-family="Helvetica,sans-Serif" font-size="10.00">PointRoad::updateBelongToRoad</text>
</a>
</g>
</g>
<!-- Node11&#45;&gt;Node13 -->
<g id="edge12" class="edge"><title>Node11&#45;&gt;Node13</title>
<path fill="none" stroke="midnightblue" d="M395.363,-133.668C401.082,-136.298 406.931,-139.425 412,-143 431.012,-156.408 427.843,-169.384 448,-181 451.861,-183.225 455.97,-185.19 460.21,-186.925"/>
<polygon fill="midnightblue" stroke="midnightblue" points="459.058,-190.231 469.652,-190.369 461.457,-183.655 459.058,-190.231"/>
</g>
<!-- Node14 -->
<g id="node14" class="node"><title>Node14</title>
<g id="a_node14"><a xlink:href="class_point_road.html#a998665db2d7e4fc4935ef95df092ff2b" target="_top" xlink:title="PointRoad::setid">
<polygon fill="none" stroke="black" points="484.5,-152.5 484.5,-171.5 573.5,-171.5 573.5,-152.5 484.5,-152.5"/>
<text text-anchor="middle" x="529" y="-159.5" font-family="Helvetica,sans-Serif" font-size="10.00">PointRoad::setid</text>
</a>
</g>
</g>
<!-- Node11&#45;&gt;Node14 -->
<g id="edge13" class="edge"><title>Node11&#45;&gt;Node14</title>
<path fill="none" stroke="midnightblue" d="M408.303,-133.393C429.452,-138.448 455.75,-144.733 478.306,-150.123"/>
<polygon fill="midnightblue" stroke="midnightblue" points="477.505,-153.53 488.044,-152.451 479.132,-146.722 477.505,-153.53"/>
</g>
<!-- Node15 -->
<g id="node15" class="node"><title>Node15</title>
<g id="a_node15"><a xlink:href="class_point_road.html#a81372f2c2c0fe1084fa2397289518124" target="_top" xlink:title="PointRoad::id">
<polygon fill="none" stroke="black" points="646,-133.5 646,-152.5 722,-152.5 722,-133.5 646,-133.5"/>
<text text-anchor="middle" x="684" y="-140.5" font-family="Helvetica,sans-Serif" font-size="10.00">PointRoad::id</text>
</a>
</g>
</g>
<!-- Node11&#45;&gt;Node15 -->
<g id="edge16" class="edge"><title>Node11&#45;&gt;Node15</title>
<path fill="none" stroke="midnightblue" d="M408.133,-126.368C465.791,-129.857 573.427,-136.37 635.52,-140.127"/>
<polygon fill="midnightblue" stroke="midnightblue" points="635.628,-143.64 645.821,-140.75 636.051,-136.653 635.628,-143.64"/>
</g>
<!-- Node16 -->
<g id="node16" class="node"><title>Node16</title>
<g id="a_node16"><a xlink:href="class_point_road.html#ae83941b37b026758fdd7974b4b186fbc" target="_top" xlink:title="PointRoad::isNode">
<polygon fill="none" stroke="black" points="479.5,-76.5 479.5,-95.5 578.5,-95.5 578.5,-76.5 479.5,-76.5"/>
<text text-anchor="middle" x="529" y="-83.5" font-family="Helvetica,sans-Serif" font-size="10.00">PointRoad::isNode</text>
</a>
</g>
</g>
<!-- Node11&#45;&gt;Node16 -->
<g id="edge15" class="edge"><title>Node11&#45;&gt;Node16</title>
<path fill="none" stroke="midnightblue" d="M408.303,-114.607C429.452,-109.552 455.75,-103.267 478.306,-97.8766"/>
<polygon fill="midnightblue" stroke="midnightblue" points="479.132,-101.278 488.044,-95.5491 477.505,-94.4696 479.132,-101.278"/>
</g>
<!-- Node17 -->
<g id="node17" class="node"><title>Node17</title>
<g id="a_node17"><a xlink:href="class_road.html#a7f97b4f20c598103baad510b19a0c0b5" target="_top" xlink:title="Add a point to the road. ">
<polygon fill="none" stroke="black" points="487,-38.5 487,-57.5 571,-57.5 571,-38.5 487,-38.5"/>
<text text-anchor="middle" x="529" y="-45.5" font-family="Helvetica,sans-Serif" font-size="10.00">Road::addPoint</text>
</a>
</g>
</g>
<!-- Node11&#45;&gt;Node17 -->
<g id="edge17" class="edge"><title>Node11&#45;&gt;Node17</title>
<path fill="none" stroke="midnightblue" d="M379.393,-114.408C393.743,-101.682 420.932,-79.3843 448,-67 457.054,-62.8574 467.113,-59.5617 476.958,-56.9589"/>
<polygon fill="midnightblue" stroke="midnightblue" points="477.802,-60.3557 486.685,-54.5815 476.14,-53.5558 477.802,-60.3557"/>
</g>
<!-- Node18 -->
<g id="node18" class="node"><title>Node18</title>
<g id="a_node18"><a xlink:href="class_road.html#ad6715392969e36eb10efac542519755c" target="_top" xlink:title="Get the id of the road. ">
<polygon fill="none" stroke="black" points="491.5,-0.5 491.5,-19.5 566.5,-19.5 566.5,-0.5 491.5,-0.5"/>
<text text-anchor="middle" x="529" y="-7.5" font-family="Helvetica,sans-Serif" font-size="10.00">Road::edgeId</text>
</a>
</g>
</g>
<!-- Node11&#45;&gt;Node18 -->
<g id="edge18" class="edge"><title>Node11&#45;&gt;Node18</title>
<path fill="none" stroke="midnightblue" d="M374.097,-114.442C384.943,-95.0744 412.27,-51.1593 448,-29 458.04,-22.7734 469.949,-18.587 481.469,-15.7724"/>
<polygon fill="midnightblue" stroke="midnightblue" points="482.393,-19.154 491.437,-13.6353 480.925,-12.3096 482.393,-19.154"/>
</g>
<!-- Node14&#45;&gt;Node15 -->
<g id="edge14" class="edge"><title>Node14&#45;&gt;Node15</title>
<path fill="none" stroke="midnightblue" d="M573.844,-156.555C593.244,-154.146 616.094,-151.309 635.861,-148.854"/>
<polygon fill="midnightblue" stroke="midnightblue" points="636.39,-152.315 645.882,-147.609 635.527,-145.369 636.39,-152.315"/>
</g>
<!-- Node19&#45;&gt;Node4 -->
<g id="edge20" class="edge"><title>Node19&#45;&gt;Node4</title>
<path fill="none" stroke="midnightblue" d="M276.506,-390C292.68,-390 310.945,-390 326.808,-390"/>
<polygon fill="midnightblue" stroke="midnightblue" points="326.84,-393.5 336.84,-390 326.84,-386.5 326.84,-393.5"/>
</g>
<!-- Node19&#45;&gt;Node5 -->
<g id="edge22" class="edge"><title>Node19&#45;&gt;Node5</title>
<path fill="none" stroke="midnightblue" d="M273.259,-399.628C278.605,-402.085 283.711,-405.158 288,-409 315.838,-433.939 297.226,-458.921 324,-485 325.447,-486.409 327.016,-487.724 328.67,-488.949"/>
<polygon fill="midnightblue" stroke="midnightblue" points="327.123,-492.105 337.477,-494.348 330.782,-486.138 327.123,-492.105"/>
</g>
<!-- Node19&#45;&gt;Node6 -->
<g id="edge24" class="edge"><title>Node19&#45;&gt;Node6</title>
<path fill="none" stroke="midnightblue" d="M268.788,-399.558C275.445,-402.103 282.141,-405.224 288,-409 307.555,-421.604 304.988,-433.592 324,-447 326.376,-448.676 328.924,-450.253 331.549,-451.727"/>
<polygon fill="midnightblue" stroke="midnightblue" points="330.135,-454.934 340.637,-456.332 333.299,-448.69 330.135,-454.934"/>
</g>
<!-- Node19&#45;&gt;Node7 -->
<g id="edge26" class="edge"><title>Node19&#45;&gt;Node7</title>
<path fill="none" stroke="midnightblue" d="M266.814,-399.589C284.69,-404.658 306.782,-410.923 325.669,-416.279"/>
<polygon fill="midnightblue" stroke="midnightblue" points="324.923,-419.706 335.498,-419.067 326.833,-412.971 324.923,-419.706"/>
</g>
<!-- Node20 -->
<g id="node20" class="node"><title>Node20</title>
<g id="a_node20"><a xlink:href="class_grid.html#aa96eed7a551f45aeee1068a289bd2a7b" target="_top" xlink:title="Grid::xMinGrid">
<polygon fill="none" stroke="black" points="328,-304.5 328,-323.5 408,-323.5 408,-304.5 328,-304.5"/>
<text text-anchor="middle" x="368" y="-311.5" font-family="Helvetica,sans-Serif" font-size="10.00">Grid::xMinGrid</text>
</a>
</g>
</g>
<!-- Node19&#45;&gt;Node20 -->
<g id="edge21" class="edge"><title>Node19&#45;&gt;Node20</title>
<path fill="none" stroke="midnightblue" d="M246.815,-380.471C264.333,-368.593 295.676,-348.029 324,-333 327.294,-331.252 330.782,-329.523 334.289,-327.862"/>
<polygon fill="midnightblue" stroke="midnightblue" points="335.858,-330.993 343.5,-323.656 332.95,-324.626 335.858,-330.993"/>
</g>
<!-- Node21 -->
<g id="node21" class="node"><title>Node21</title>
<g id="a_node21"><a xlink:href="class_grid.html#aa3dd1e75998e6214c3ef33cdc5e02204" target="_top" xlink:title="Grid::xMaxGrid">
<polygon fill="none" stroke="black" points="326.5,-266.5 326.5,-285.5 409.5,-285.5 409.5,-266.5 326.5,-266.5"/>
<text text-anchor="middle" x="368" y="-273.5" font-family="Helvetica,sans-Serif" font-size="10.00">Grid::xMaxGrid</text>
</a>
</g>
</g>
<!-- Node19&#45;&gt;Node21 -->
<g id="edge23" class="edge"><title>Node19&#45;&gt;Node21</title>
<path fill="none" stroke="midnightblue" d="M240.044,-380.458C254.168,-361.877 287.721,-320.436 324,-295 326.381,-293.331 328.932,-291.758 331.559,-290.288"/>
<polygon fill="midnightblue" stroke="midnightblue" points="333.308,-293.326 340.652,-285.689 330.149,-287.079 333.308,-293.326"/>
</g>
<!-- Node22 -->
<g id="node22" class="node"><title>Node22</title>
<g id="a_node22"><a xlink:href="class_grid.html#afa95de5fff735d1121572075a872121c" target="_top" xlink:title="Grid::yMinGrid">
<polygon fill="none" stroke="black" points="328,-228.5 328,-247.5 408,-247.5 408,-228.5 328,-228.5"/>
<text text-anchor="middle" x="368" y="-235.5" font-family="Helvetica,sans-Serif" font-size="10.00">Grid::yMinGrid</text>
</a>
</g>
</g>
<!-- Node19&#45;&gt;Node22 -->
<g id="edge25" class="edge"><title>Node19&#45;&gt;Node22</title>
<path fill="none" stroke="midnightblue" d="M237.305,-380.282C248.382,-356.276 280.105,-293.48 324,-257 325.977,-255.357 328.119,-253.83 330.355,-252.417"/>
<polygon fill="midnightblue" stroke="midnightblue" points="332.209,-255.392 339.295,-247.516 328.844,-249.254 332.209,-255.392"/>
</g>
<!-- Node23 -->
<g id="node23" class="node"><title>Node23</title>
<g id="a_node23"><a xlink:href="class_grid.html#a97ee4a72430770462f5e2ba140f2ca65" target="_top" xlink:title="Grid::yMaxGrid">
<polygon fill="none" stroke="black" points="326.5,-342.5 326.5,-361.5 409.5,-361.5 409.5,-342.5 326.5,-342.5"/>
<text text-anchor="middle" x="368" y="-349.5" font-family="Helvetica,sans-Serif" font-size="10.00">Grid::yMaxGrid</text>
</a>
</g>
</g>
<!-- Node19&#45;&gt;Node23 -->
<g id="edge27" class="edge"><title>Node19&#45;&gt;Node23</title>
<path fill="none" stroke="midnightblue" d="M266.814,-380.411C284.033,-375.528 305.164,-369.536 323.573,-364.315"/>
<polygon fill="midnightblue" stroke="midnightblue" points="324.531,-367.681 333.197,-361.586 322.621,-360.947 324.531,-367.681"/>
</g>
</g>
</svg>
        <g id="navigator" transform="translate(0 0)" fill="#404254">
                <rect fill="#f2f5e9" fill-opacity="0.5" stroke="#606060" stroke-width=".5" x="0" y="0" width="60" height="60"/>
                <use id="zoomplus" xlink:href="#zoomPlus" x="17" y="9" onmousedown="handleZoom(evt,'in')"/>
                <use id="zoomminus" xlink:href="#zoomMin" x="42" y="9" onmousedown="handleZoom(evt,'out')"/>
                <use id="reset" xlink:href="#resetDef" x="30" y="36" onmousedown="handleReset()"/>
                <g id="arrowUp" xlink:href="#dirArrow" transform="translate(30 24)" onmousedown="handlePan(0,-1)">
                  <use xlink:href="#rim" fill="#404040">
                        <set attributeName="fill" to="#808080" begin="arrowUp.mouseover" end="arrowUp.mouseout"/>
                  </use>
                  <path fill="none" stroke="white" stroke-width="1.5" d="M0,-3.0v7 M-2.5,-0.5L0,-3.0L2.5,-0.5"/>
                </g>
                <g id="arrowRight" xlink:href="#dirArrow" transform="rotate(90) translate(36 -43)" onmousedown="handlePan(1,0)">
                  <use xlink:href="#rim" fill="#404040">
                        <set attributeName="fill" to="#808080" begin="arrowRight.mouseover" end="arrowRight.mouseout"/>
                  </use>
                  <path fill="none" stroke="white" stroke-width="1.5" d="M0,-3.0v7 M-2.5,-0.5L0,-3.0L2.5,-0.5"/>
                </g>
                <g id="arrowDown" xlink:href="#dirArrow" transform="rotate(180) translate(-30 -48)" onmousedown="handlePan(0,1)">
                  <use xlink:href="#rim" fill="#404040">
                        <set attributeName="fill" to="#808080" begin="arrowDown.mouseover" end="arrowDown.mouseout"/>
                  </use>
                  <path fill="none" stroke="white" stroke-width="1.5" d="M0,-3.0v7 M-2.5,-0.5L0,-3.0L2.5,-0.5"/>
                </g>
                <g id="arrowLeft" xlink:href="#dirArrow" transform="rotate(270) translate(-36 17)" onmousedown="handlePan(-1,0)">
                  <use xlink:href="#rim" fill="#404040">
                        <set attributeName="fill" to="#808080" begin="arrowLeft.mouseover" end="arrowLeft.mouseout"/>
                  </use>
                  <path fill="none" stroke="white" stroke-width="1.5" d="M0,-3.0v7 M-2.5,-0.5L0,-3.0L2.5,-0.5"/>
                </g>
        </g>
        <svg viewBox="0 0 15 15" width="100%" height="30px" preserveAspectRatio="xMaxYMin meet">
         <g id="arrow_out" transform="scale(0.3 0.3)">
          <a xlink:href="class_main_window_ad39bbe8ced0d3248206ac0ca6c444d55_cgraph_org.svg" target="_base">
           <rect id="button" ry="5" rx="5" y="6" x="6" height="38" width="38"
                fill="#f2f5e9" fill-opacity="0.5" stroke="#606060" stroke-width="1.0"/>
           <path id="arrow"
             d="M 11.500037,31.436501 C 11.940474,20.09759 22.043105,11.32322 32.158766,21.979434 L 37.068811,17.246167 C 37.068811,17.246167 37.088388,32 37.088388,32 L 22.160133,31.978069 C 22.160133,31.978069 26.997745,27.140456 26.997745,27.140456 C 18.528582,18.264221 13.291696,25.230495 11.500037,31.436501 z"
             style="fill:#404040;"/>
          </a>
         </g>
        </svg>
</svg>
