<?xml version="1.0" encoding="UTF-8" standalone="no"?>
<!DOCTYPE svg PUBLIC "-//W3C//DTD SVG 1.1//EN"
 "http://www.w3.org/Graphics/SVG/1.1/DTD/svg11.dtd">
<!-- Generated by graphviz version 2.38.0 (20140413.2041)
 -->
<!-- Title: MainWindow::MainWindow Pages: 1 -->
<svg width="511pt" height="214pt"
 viewBox="0.00 0.00 511.00 213.50" xmlns="http://www.w3.org/2000/svg" xmlns:xlink="http://www.w3.org/1999/xlink">
<g id="graph0" class="graph" transform="scale(1 1) rotate(0) translate(4 209.5)">
<title>MainWindow::MainWindow</title>
<!-- Node1 -->
<g id="node1" class="node"><title>Node1</title>
<polygon fill="#bfbfbf" stroke="black" points="0,-82.5 0,-101.5 135,-101.5 135,-82.5 0,-82.5"/>
<text text-anchor="middle" x="67.5" y="-89.5" font-family="Helvetica,sans-Serif" font-size="10.00">MainWindow::MainWindow</text>
</g>
<!-- Node2 -->
<g id="node2" class="node"><title>Node2</title>
<g id="a_node2"><a xlink:href="class_main_window.html#a684fe2be6fa67486c75ebddfbbe7d42b" target="_top" xlink:title="MainWindow::createGuiControl\lComponents">
<polygon fill="none" stroke="black" points="175.5,-175 175.5,-205 327.5,-205 327.5,-175 175.5,-175"/>
<text text-anchor="start" x="183.5" y="-193" font-family="Helvetica,sans-Serif" font-size="10.00">MainWindow::createGuiControl</text>
<text text-anchor="middle" x="251.5" y="-182" font-family="Helvetica,sans-Serif" font-size="10.00">Components</text>
</a>
</g>
</g>
<!-- Node1&#45;&gt;Node2 -->
<g id="edge1" class="edge"><title>Node1&#45;&gt;Node2</title>
<path fill="none" stroke="midnightblue" d="M79.092,-101.514C96.8789,-117.04 134.406,-147.904 171,-166 174.78,-167.869 178.734,-169.625 182.773,-171.268"/>
<polygon fill="midnightblue" stroke="midnightblue" points="181.719,-174.612 192.31,-174.899 184.21,-168.07 181.719,-174.612"/>
</g>
<!-- Node3 -->
<g id="node3" class="node"><title>Node3</title>
<g id="a_node3"><a xlink:href="class_main_window.html#a10e39f33826503a9967be862a5b27c40" target="_top" xlink:title="MainWindow::createSubSliding\lWidgets">
<polygon fill="none" stroke="black" points="175.5,-126 175.5,-156 327.5,-156 327.5,-126 175.5,-126"/>
<text text-anchor="start" x="183.5" y="-144" font-family="Helvetica,sans-Serif" font-size="10.00">MainWindow::createSubSliding</text>
<text text-anchor="middle" x="251.5" y="-133" font-family="Helvetica,sans-Serif" font-size="10.00">Widgets</text>
</a>
</g>
</g>
<!-- Node1&#45;&gt;Node3 -->
<g id="edge2" class="edge"><title>Node1&#45;&gt;Node3</title>
<path fill="none" stroke="midnightblue" d="M104.023,-101.564C126.965,-107.74 157.513,-115.965 184.774,-123.304"/>
<polygon fill="midnightblue" stroke="midnightblue" points="184.082,-126.743 194.648,-125.963 185.902,-119.984 184.082,-126.743"/>
</g>
<!-- Node4 -->
<g id="node4" class="node"><title>Node4</title>
<g id="a_node4"><a xlink:href="class_main_window.html#a9b5bcc86b4b159c34a7631e586b7be55" target="_top" xlink:title="MainWindow::createSliding\lStackedWidget">
<polygon fill="none" stroke="black" points="184,-77 184,-107 319,-107 319,-77 184,-77"/>
<text text-anchor="start" x="192" y="-95" font-family="Helvetica,sans-Serif" font-size="10.00">MainWindow::createSliding</text>
<text text-anchor="middle" x="251.5" y="-84" font-family="Helvetica,sans-Serif" font-size="10.00">StackedWidget</text>
</a>
</g>
</g>
<!-- Node1&#45;&gt;Node4 -->
<g id="edge3" class="edge"><title>Node1&#45;&gt;Node4</title>
<path fill="none" stroke="midnightblue" d="M135.237,-92C147.725,-92 160.87,-92 173.635,-92"/>
<polygon fill="midnightblue" stroke="midnightblue" points="173.771,-95.5001 183.771,-92 173.771,-88.5001 173.771,-95.5001"/>
</g>
<!-- Node5 -->
<g id="node5" class="node"><title>Node5</title>
<g id="a_node5"><a xlink:href="class_main_window.html#af3626d206fdb542dc454250f37418d8f" target="_top" xlink:title="MainWindow::createMainLayout">
<polygon fill="none" stroke="black" points="173.5,-38.5 173.5,-57.5 329.5,-57.5 329.5,-38.5 173.5,-38.5"/>
<text text-anchor="middle" x="251.5" y="-45.5" font-family="Helvetica,sans-Serif" font-size="10.00">MainWindow::createMainLayout</text>
</a>
</g>
</g>
<!-- Node1&#45;&gt;Node5 -->
<g id="edge4" class="edge"><title>Node1&#45;&gt;Node5</title>
<path fill="none" stroke="midnightblue" d="M107.991,-82.4527C135.299,-75.8508 171.834,-67.0181 201.074,-59.949"/>
<polygon fill="midnightblue" stroke="midnightblue" points="202.188,-63.2807 211.086,-57.5287 200.543,-56.4767 202.188,-63.2807"/>
</g>
<!-- Node6 -->
<g id="node6" class="node"><title>Node6</title>
<g id="a_node6"><a xlink:href="class_main_window.html#af773488e0b16efe6c0fc67ad348b86b2" target="_top" xlink:title="MainWindow::createConnections">
<polygon fill="none" stroke="black" points="171,-0.5 171,-19.5 332,-19.5 332,-0.5 171,-0.5"/>
<text text-anchor="middle" x="251.5" y="-7.5" font-family="Helvetica,sans-Serif" font-size="10.00">MainWindow::createConnections</text>
</a>
</g>
</g>
<!-- Node1&#45;&gt;Node6 -->
<g id="edge5" class="edge"><title>Node1&#45;&gt;Node6</title>
<path fill="none" stroke="midnightblue" d="M81.0539,-82.445C99.7024,-68.6923 136.266,-43.3934 171,-29 176.936,-26.5401 183.26,-24.3559 189.648,-22.4269"/>
<polygon fill="midnightblue" stroke="midnightblue" points="191.014,-25.6788 199.693,-19.6028 189.119,-18.94 191.014,-25.6788"/>
</g>
<!-- Node7 -->
<g id="node7" class="node"><title>Node7</title>
<g id="a_node7"><a xlink:href="class_main_window.html#a07d3913b63e49ecb6fd236b59e7819b5" target="_top" xlink:title="MainWindow::readyToNext">
<polygon fill="none" stroke="black" points="368,-0.5 368,-19.5 503,-19.5 503,-0.5 368,-0.5"/>
<text text-anchor="middle" x="435.5" y="-7.5" font-family="Helvetica,sans-Serif" font-size="10.00">MainWindow::readyToNext</text>
</a>
</g>
</g>
<!-- Node6&#45;&gt;Node7 -->
<g id="edge6" class="edge"><title>Node6&#45;&gt;Node7</title>
<path fill="none" stroke="midnightblue" d="M332.063,-10C340.563,-10 349.199,-10 357.667,-10"/>
<polygon fill="midnightblue" stroke="midnightblue" points="357.892,-13.5001 367.892,-10 357.892,-6.5001 357.892,-13.5001"/>
</g>
</g>
</svg>
