<?xml version="1.0" encoding="UTF-8" standalone="no"?>
<!DOCTYPE svg PUBLIC "-//W3C//DTD SVG 1.1//EN"
 "http://www.w3.org/Graphics/SVG/1.1/DTD/svg11.dtd">
<!-- Generated by graphviz version 2.38.0 (20140413.2041)
 -->
<!-- Title: Filtering::ready Pages: 1 -->
<svg width="491pt" height="66pt"
 viewBox="0.00 0.00 491.00 66.00" xmlns="http://www.w3.org/2000/svg" xmlns:xlink="http://www.w3.org/1999/xlink">
<g id="graph0" class="graph" transform="scale(1 1) rotate(0) translate(4 62)">
<title>Filtering::ready</title>
<!-- Node1 -->
<g id="node1" class="node"><title>Node1</title>
<polygon fill="#bfbfbf" stroke="black" points="0,-19.5 0,-38.5 81,-38.5 81,-19.5 0,-19.5"/>
<text text-anchor="middle" x="40.5" y="-26.5" font-family="Helvetica,sans-Serif" font-size="10.00">Filtering::ready</text>
</g>
<!-- Node2 -->
<g id="node2" class="node"><title>Node2</title>
<g id="a_node2"><a xlink:href="class_filtering.html#af19a51baea507dd6ab30d1f7c2843600" target="_top" xlink:title="Filtering::launchFiltre">
<polygon fill="none" stroke="black" points="117,-19.5 117,-38.5 224,-38.5 224,-19.5 117,-19.5"/>
<text text-anchor="middle" x="170.5" y="-26.5" font-family="Helvetica,sans-Serif" font-size="10.00">Filtering::launchFiltre</text>
</a>
</g>
</g>
<!-- Node1&#45;&gt;Node2 -->
<g id="edge1" class="edge"><title>Node1&#45;&gt;Node2</title>
<path fill="none" stroke="midnightblue" d="M91.4938,-29C99.7142,-29 108.259,-29 116.548,-29"/>
<polygon fill="midnightblue" stroke="midnightblue" points="91.2984,-25.5001 81.2984,-29 91.2983,-32.5001 91.2984,-25.5001"/>
</g>
<!-- Node3 -->
<g id="node3" class="node"><title>Node3</title>
<g id="a_node3"><a xlink:href="class_filtering.html#a25effdf66380ccdd5079874be70832b2" target="_top" xlink:title="Filtering::temporal">
<polygon fill="none" stroke="black" points="260,-38.5 260,-57.5 355,-57.5 355,-38.5 260,-38.5"/>
<text text-anchor="middle" x="307.5" y="-45.5" font-family="Helvetica,sans-Serif" font-size="10.00">Filtering::temporal</text>
</a>
</g>
</g>
<!-- Node2&#45;&gt;Node3 -->
<g id="edge2" class="edge"><title>Node2&#45;&gt;Node3</title>
<path fill="none" stroke="midnightblue" d="M234.194,-37.8236C242.88,-39.0461 251.673,-40.2836 259.993,-41.4546"/>
<polygon fill="midnightblue" stroke="midnightblue" points="234.471,-34.3282 224.081,-36.4003 233.496,-41.2599 234.471,-34.3282"/>
</g>
<!-- Node5 -->
<g id="node5" class="node"><title>Node5</title>
<g id="a_node5"><a xlink:href="class_filtering.html#ae15eb7d32eb9459e25edd996bbd155cb" target="_top" xlink:title="Filtering::spatial">
<polygon fill="none" stroke="black" points="264.5,-0.5 264.5,-19.5 350.5,-19.5 350.5,-0.5 264.5,-0.5"/>
<text text-anchor="middle" x="307.5" y="-7.5" font-family="Helvetica,sans-Serif" font-size="10.00">Filtering::spatial</text>
</a>
</g>
</g>
<!-- Node2&#45;&gt;Node5 -->
<g id="edge4" class="edge"><title>Node2&#45;&gt;Node5</title>
<path fill="none" stroke="midnightblue" d="M234.194,-20.1764C244.391,-18.7413 254.735,-17.2855 264.288,-15.9409"/>
<polygon fill="midnightblue" stroke="midnightblue" points="233.496,-16.7401 224.081,-21.5997 234.471,-23.6718 233.496,-16.7401"/>
</g>
<!-- Node4 -->
<g id="node4" class="node"><title>Node4</title>
<g id="a_node4"><a xlink:href="class_filtering.html#a9d28d9ff9bc37dac64194259f261d427" target="_top" xlink:title="Filtering::Filtering">
<polygon fill="none" stroke="black" points="391,-19.5 391,-38.5 483,-38.5 483,-19.5 391,-19.5"/>
<text text-anchor="middle" x="437" y="-26.5" font-family="Helvetica,sans-Serif" font-size="10.00">Filtering::Filtering</text>
</a>
</g>
</g>
<!-- Node3&#45;&gt;Node4 -->
<g id="edge3" class="edge"><title>Node3&#45;&gt;Node4</title>
<path fill="none" stroke="midnightblue" d="M365.243,-39.5442C373.853,-38.2611 382.636,-36.9523 390.953,-35.7129"/>
<polygon fill="midnightblue" stroke="midnightblue" points="364.627,-36.0972 355.252,-41.033 365.659,-43.0208 364.627,-36.0972"/>
</g>
<!-- Node5&#45;&gt;Node4 -->
<g id="edge5" class="edge"><title>Node5&#45;&gt;Node4</title>
<path fill="none" stroke="midnightblue" d="M360.498,-17.7487C370.569,-19.2495 381.045,-20.8106 390.873,-22.2752"/>
<polygon fill="midnightblue" stroke="midnightblue" points="361.008,-14.2862 350.602,-16.274 359.977,-21.2097 361.008,-14.2862"/>
</g>
</g>
</svg>
