<?xml version="1.0" encoding="UTF-8" standalone="no"?>
<!DOCTYPE svg PUBLIC "-//W3C//DTD SVG 1.1//EN"
 "http://www.w3.org/Graphics/SVG/1.1/DTD/svg11.dtd">
<!-- Generated by graphviz version 2.38.0 (20140413.2041)
 -->
<!-- Title: Grid::addRoad Pages: 1 -->
<svg width="398pt" height="256pt"
 viewBox="0.00 0.00 398.00 256.00" xmlns="http://www.w3.org/2000/svg" xmlns:xlink="http://www.w3.org/1999/xlink">
<g id="graph0" class="graph" transform="scale(1 1) rotate(0) translate(4 252)">
<title>Grid::addRoad</title>
<!-- Node1 -->
<g id="node1" class="node"><title>Node1</title>
<polygon fill="#bfbfbf" stroke="black" points="0,-114.5 0,-133.5 80,-133.5 80,-114.5 0,-114.5"/>
<text text-anchor="middle" x="40" y="-121.5" font-family="Helvetica,sans-Serif" font-size="10.00">Grid::addRoad</text>
</g>
<!-- Node2 -->
<g id="node2" class="node"><title>Node2</title>
<g id="a_node2"><a xlink:href="class_point_road.html#aa1b90c3fdf8ae7a1fcd8ce6182d13287" target="_top" xlink:title="PointRoad::outputInfos">
<polygon fill="none" stroke="black" points="138.5,-228.5 138.5,-247.5 255.5,-247.5 255.5,-228.5 138.5,-228.5"/>
<text text-anchor="middle" x="197" y="-235.5" font-family="Helvetica,sans-Serif" font-size="10.00">PointRoad::outputInfos</text>
</a>
</g>
</g>
<!-- Node1&#45;&gt;Node2 -->
<g id="edge1" class="edge"><title>Node1&#45;&gt;Node2</title>
<path fill="none" stroke="midnightblue" d="M45.7063,-133.559C55.7602,-152.93 81.2774,-196.849 116,-219 120.002,-221.553 124.313,-223.763 128.787,-225.676"/>
<polygon fill="midnightblue" stroke="midnightblue" points="127.558,-228.954 138.15,-229.202 130.025,-222.403 127.558,-228.954"/>
</g>
<!-- Node3 -->
<g id="node3" class="node"><title>Node3</title>
<g id="a_node3"><a xlink:href="class_point_road.html#ab53ccb3c883bdfd27c707901c5c658c8" target="_top" xlink:title="PointRoad::updateBelongToRoad">
<polygon fill="none" stroke="black" points="116,-190.5 116,-209.5 278,-209.5 278,-190.5 116,-190.5"/>
<text text-anchor="middle" x="197" y="-197.5" font-family="Helvetica,sans-Serif" font-size="10.00">PointRoad::updateBelongToRoad</text>
</a>
</g>
</g>
<!-- Node1&#45;&gt;Node3 -->
<g id="edge2" class="edge"><title>Node1&#45;&gt;Node3</title>
<path fill="none" stroke="midnightblue" d="M50.7709,-133.617C64.2861,-146.371 89.9764,-168.7 116,-181 121.209,-183.462 126.764,-185.62 132.426,-187.508"/>
<polygon fill="midnightblue" stroke="midnightblue" points="131.428,-190.863 142.015,-190.439 133.474,-184.169 131.428,-190.863"/>
</g>
<!-- Node4 -->
<g id="node4" class="node"><title>Node4</title>
<g id="a_node4"><a xlink:href="class_point_road.html#a998665db2d7e4fc4935ef95df092ff2b" target="_top" xlink:title="PointRoad::setid">
<polygon fill="none" stroke="black" points="152.5,-152.5 152.5,-171.5 241.5,-171.5 241.5,-152.5 152.5,-152.5"/>
<text text-anchor="middle" x="197" y="-159.5" font-family="Helvetica,sans-Serif" font-size="10.00">PointRoad::setid</text>
</a>
</g>
</g>
<!-- Node1&#45;&gt;Node4 -->
<g id="edge3" class="edge"><title>Node1&#45;&gt;Node4</title>
<path fill="none" stroke="midnightblue" d="M80.113,-133.589C100.475,-138.581 125.566,-144.732 147.189,-150.033"/>
<polygon fill="midnightblue" stroke="midnightblue" points="146.622,-153.498 157.168,-152.48 148.289,-146.699 146.622,-153.498"/>
</g>
<!-- Node5 -->
<g id="node5" class="node"><title>Node5</title>
<g id="a_node5"><a xlink:href="class_point_road.html#a81372f2c2c0fe1084fa2397289518124" target="_top" xlink:title="PointRoad::id">
<polygon fill="none" stroke="black" points="314,-133.5 314,-152.5 390,-152.5 390,-133.5 314,-133.5"/>
<text text-anchor="middle" x="352" y="-140.5" font-family="Helvetica,sans-Serif" font-size="10.00">PointRoad::id</text>
</a>
</g>
</g>
<!-- Node1&#45;&gt;Node5 -->
<g id="edge6" class="edge"><title>Node1&#45;&gt;Node5</title>
<path fill="none" stroke="midnightblue" d="M80.2617,-126.406C137.247,-129.899 242.721,-136.364 303.842,-140.11"/>
<polygon fill="midnightblue" stroke="midnightblue" points="303.791,-143.613 313.987,-140.731 304.22,-136.626 303.791,-143.613"/>
</g>
<!-- Node6 -->
<g id="node6" class="node"><title>Node6</title>
<g id="a_node6"><a xlink:href="class_point_road.html#ae83941b37b026758fdd7974b4b186fbc" target="_top" xlink:title="PointRoad::isNode">
<polygon fill="none" stroke="black" points="147.5,-76.5 147.5,-95.5 246.5,-95.5 246.5,-76.5 147.5,-76.5"/>
<text text-anchor="middle" x="197" y="-83.5" font-family="Helvetica,sans-Serif" font-size="10.00">PointRoad::isNode</text>
</a>
</g>
</g>
<!-- Node1&#45;&gt;Node6 -->
<g id="edge5" class="edge"><title>Node1&#45;&gt;Node6</title>
<path fill="none" stroke="midnightblue" d="M80.113,-114.411C100.475,-109.419 125.566,-103.268 147.189,-97.9666"/>
<polygon fill="midnightblue" stroke="midnightblue" points="148.289,-101.301 157.168,-95.5201 146.622,-94.5019 148.289,-101.301"/>
</g>
<!-- Node7 -->
<g id="node7" class="node"><title>Node7</title>
<g id="a_node7"><a xlink:href="class_road.html#a7f97b4f20c598103baad510b19a0c0b5" target="_top" xlink:title="Add a point to the road. ">
<polygon fill="none" stroke="black" points="155,-38.5 155,-57.5 239,-57.5 239,-38.5 155,-38.5"/>
<text text-anchor="middle" x="197" y="-45.5" font-family="Helvetica,sans-Serif" font-size="10.00">Road::addPoint</text>
</a>
</g>
</g>
<!-- Node1&#45;&gt;Node7 -->
<g id="edge7" class="edge"><title>Node1&#45;&gt;Node7</title>
<path fill="none" stroke="midnightblue" d="M50.7709,-114.383C64.2861,-101.629 89.9764,-79.2999 116,-67 125.002,-62.7452 135.038,-59.3985 144.875,-56.7808"/>
<polygon fill="midnightblue" stroke="midnightblue" points="145.72,-60.1774 154.601,-54.3996 144.055,-53.3782 145.72,-60.1774"/>
</g>
<!-- Node8 -->
<g id="node8" class="node"><title>Node8</title>
<g id="a_node8"><a xlink:href="class_road.html#ad6715392969e36eb10efac542519755c" target="_top" xlink:title="Get the id of the road. ">
<polygon fill="none" stroke="black" points="159.5,-0.5 159.5,-19.5 234.5,-19.5 234.5,-0.5 159.5,-0.5"/>
<text text-anchor="middle" x="197" y="-7.5" font-family="Helvetica,sans-Serif" font-size="10.00">Road::edgeId</text>
</a>
</g>
</g>
<!-- Node1&#45;&gt;Node8 -->
<g id="edge8" class="edge"><title>Node1&#45;&gt;Node8</title>
<path fill="none" stroke="midnightblue" d="M45.7063,-114.441C55.7602,-95.0703 81.2774,-51.1506 116,-29 125.96,-22.6463 137.841,-18.415 149.359,-15.5978"/>
<polygon fill="midnightblue" stroke="midnightblue" points="150.283,-18.9796 159.332,-13.4683 148.821,-12.1339 150.283,-18.9796"/>
</g>
<!-- Node4&#45;&gt;Node5 -->
<g id="edge4" class="edge"><title>Node4&#45;&gt;Node5</title>
<path fill="none" stroke="midnightblue" d="M241.844,-156.555C261.244,-154.146 284.094,-151.309 303.861,-148.854"/>
<polygon fill="midnightblue" stroke="midnightblue" points="304.39,-152.315 313.882,-147.609 303.527,-145.369 304.39,-152.315"/>
</g>
</g>
</svg>
