<?xml version="1.0" encoding="UTF-8" standalone="no"?>
<!DOCTYPE svg PUBLIC "-//W3C//DTD SVG 1.1//EN"
 "http://www.w3.org/Graphics/SVG/1.1/DTD/svg11.dtd">
<!-- Generated by graphviz version 2.38.0 (20140413.2041)
 -->
<!-- Title: Track::updateBox Pages: 1 -->
<!--zoomable 142 -->
<svg id="main" version="1.1" xmlns="http://www.w3.org/2000/svg" xmlns:xlink="http://www.w3.org/1999/xlink" xml:space="preserve" onload="init(evt)">
<style type="text/css"><![CDATA[
.edge:hover path { stroke: red; }
.edge:hover polygon { stroke: red; fill: red; }
]]></style>
<script type="text/javascript"><![CDATA[
var edges = document.getElementsByTagName('g');
if (edges && edges.length) {
  for (var i=0;i<edges.length;i++) {
    if (edges[i].id.substr(0,4)=='edge') {
      edges[i].setAttribute('class','edge');
    }
  }
}
]]></script>
        <defs>
                <circle id="rim" cx="0" cy="0" r="7"/>
                <circle id="rim2" cx="0" cy="0" r="3.5"/>
                <g id="zoomPlus">
                        <use xlink:href="#rim" fill="#404040">
                                <set attributeName="fill" to="#808080" begin="zoomplus.mouseover" end="zoomplus.mouseout"/>
                        </use>
                        <path d="M-4,0h8M0,-4v8" fill="none" stroke="white" stroke-width="1.5" pointer-events="none"/>
                </g>
                <g id="zoomMin">
                        <use xlink:href="#rim" fill="#404040">
                                <set attributeName="fill" to="#808080" begin="zoomminus.mouseover" end="zoomminus.mouseout"/>
                        </use>
                        <path d="M-4,0h8" fill="none" stroke="white" stroke-width="1.5" pointer-events="none"/>
                </g>
                <g id="dirArrow">
                        <path fill="none" stroke="white" stroke-width="1.5" d="M0,-3.0v7 M-2.5,-0.5L0,-3.0L2.5,-0.5"/>
                </g>
               <g id="resetDef">
                       <use xlink:href="#rim2" fill="#404040">
                               <set attributeName="fill" to="#808080" begin="reset.mouseover" end="reset.mouseout"/>
                       </use>
               </g>
        </defs>

<script type="text/javascript">
var viewWidth = 1045;
var viewHeight = 142;
var sectionId = 'dynsection-18';
</script>
<script xlink:href="svgpan.js"/>
<svg id="graph" class="graph">
<g id="viewport">
<title>Track::updateBox</title>
<!-- Node1 -->
<g id="node1" class="node"><title>Node1</title>
<polygon fill="#bfbfbf" stroke="black" points="0,-57.5 0,-76.5 94,-76.5 94,-57.5 0,-57.5"/>
<text text-anchor="middle" x="47" y="-64.5" font-family="Helvetica,sans-Serif" font-size="10.00">Track::updateBox</text>
</g>
<!-- Node2 -->
<g id="node2" class="node"><title>Node2</title>
<g id="a_node2"><a xlink:href="class_track.html#ab0315e74b9b49e40d163a2ff978d833c" target="_top" xlink:title="Creates a new point and inserts it in m_points. ">
<polygon fill="none" stroke="black" points="130,-57.5 130,-76.5 216,-76.5 216,-57.5 130,-57.5"/>
<text text-anchor="middle" x="173" y="-64.5" font-family="Helvetica,sans-Serif" font-size="10.00">Track::addPoint</text>
</a>
</g>
</g>
<!-- Node1&#45;&gt;Node2 -->
<g id="edge1" class="edge"><title>Node1&#45;&gt;Node2</title>
<path fill="none" stroke="midnightblue" d="M104.201,-67C112.836,-67 121.624,-67 129.884,-67"/>
<polygon fill="midnightblue" stroke="midnightblue" points="104.173,-63.5001 94.173,-67 104.173,-70.5001 104.173,-63.5001"/>
</g>
<!-- Node3 -->
<g id="node3" class="node"><title>Node3</title>
<g id="a_node3"><a xlink:href="class_track.html#aff258a8c303ee8a09a962d237f3823e7" target="_top" xlink:title="Reads a csv file and inserts each point in m_points vector. ">
<polygon fill="none" stroke="black" points="252,-57.5 252,-76.5 362,-76.5 362,-57.5 252,-57.5"/>
<text text-anchor="middle" x="307" y="-64.5" font-family="Helvetica,sans-Serif" font-size="10.00">Track::readFromCSV</text>
</a>
</g>
</g>
<!-- Node2&#45;&gt;Node3 -->
<g id="edge2" class="edge"><title>Node2&#45;&gt;Node3</title>
<path fill="none" stroke="midnightblue" d="M226.176,-67C234.571,-67 243.279,-67 251.723,-67"/>
<polygon fill="midnightblue" stroke="midnightblue" points="226.129,-63.5001 216.129,-67 226.129,-70.5001 226.129,-63.5001"/>
</g>
<!-- Node4 -->
<g id="node4" class="node"><title>Node4</title>
<g id="a_node4"><a xlink:href="class_filtering.html#ad96665ec38911625b6778741000fbfe2" target="_top" xlink:title="getInfo ">
<polygon fill="none" stroke="black" points="402,-114.5 402,-133.5 489,-133.5 489,-114.5 402,-114.5"/>
<text text-anchor="middle" x="445.5" y="-121.5" font-family="Helvetica,sans-Serif" font-size="10.00">Filtering::getInfo</text>
</a>
</g>
</g>
<!-- Node3&#45;&gt;Node4 -->
<g id="edge3" class="edge"><title>Node3&#45;&gt;Node4</title>
<path fill="none" stroke="midnightblue" d="M340.084,-80.6533C357.246,-87.9296 378.753,-97.0048 398,-105 405.409,-108.078 413.499,-111.397 420.822,-114.387"/>
<polygon fill="midnightblue" stroke="midnightblue" points="341.104,-77.284 330.532,-76.5988 338.369,-83.7277 341.104,-77.284"/>
</g>
<!-- Node5 -->
<g id="node5" class="node"><title>Node5</title>
<g id="a_node5"><a xlink:href="main_8cpp.html#a141063eccadf0e03662d414d897d9f5d" target="_top" xlink:title="dev_gridAndTrack">
<polygon fill="none" stroke="black" points="398,-76.5 398,-95.5 493,-95.5 493,-76.5 398,-76.5"/>
<text text-anchor="middle" x="445.5" y="-83.5" font-family="Helvetica,sans-Serif" font-size="10.00">dev_gridAndTrack</text>
</a>
</g>
</g>
<!-- Node3&#45;&gt;Node5 -->
<g id="edge4" class="edge"><title>Node3&#45;&gt;Node5</title>
<path fill="none" stroke="midnightblue" d="M372.355,-75.9579C380.947,-77.1538 389.621,-78.3611 397.83,-79.5038"/>
<polygon fill="midnightblue" stroke="midnightblue" points="372.728,-72.4761 362.341,-74.5639 371.763,-79.4092 372.728,-72.4761"/>
</g>
<!-- Node6 -->
<g id="node6" class="node"><title>Node6</title>
<g id="a_node6"><a xlink:href="class_solver.html#a97bc7169c18b339fecd4937150f907c3" target="_top" xlink:title="Solver::start">
<polygon fill="none" stroke="black" points="410.5,-38.5 410.5,-57.5 480.5,-57.5 480.5,-38.5 410.5,-38.5"/>
<text text-anchor="middle" x="445.5" y="-45.5" font-family="Helvetica,sans-Serif" font-size="10.00">Solver::start</text>
</a>
</g>
</g>
<!-- Node3&#45;&gt;Node6 -->
<g id="edge5" class="edge"><title>Node3&#45;&gt;Node6</title>
<path fill="none" stroke="midnightblue" d="M372.32,-58.047C385.462,-56.2177 398.799,-54.3613 410.373,-52.7503"/>
<polygon fill="midnightblue" stroke="midnightblue" points="371.763,-54.5908 362.341,-59.4361 372.728,-61.5239 371.763,-54.5908"/>
</g>
<!-- Node10 -->
<g id="node10" class="node"><title>Node10</title>
<g id="a_node10"><a xlink:href="class_solver.html#acbe7e47bcad48b8ddba95c9281c8bf23" target="_top" xlink:title="readFiles Read files : track and grid ">
<polygon fill="none" stroke="black" points="400.5,-0.5 400.5,-19.5 490.5,-19.5 490.5,-0.5 400.5,-0.5"/>
<text text-anchor="middle" x="445.5" y="-7.5" font-family="Helvetica,sans-Serif" font-size="10.00">Solver::readFiles</text>
</a>
</g>
</g>
<!-- Node3&#45;&gt;Node10 -->
<g id="edge9" class="edge"><title>Node3&#45;&gt;Node10</title>
<path fill="none" stroke="midnightblue" d="M340.084,-53.3467C357.246,-46.0704 378.753,-36.9952 398,-29 405.409,-25.9222 413.499,-22.6027 420.822,-19.6127"/>
<polygon fill="midnightblue" stroke="midnightblue" points="338.369,-50.2723 330.532,-57.4012 341.104,-56.716 338.369,-50.2723"/>
</g>
<!-- Node7 -->
<g id="node7" class="node"><title>Node7</title>
<g id="a_node7"><a xlink:href="main_8cpp.html#a9dd67c19acf7317c6296b63e29dcfab9" target="_top" xlink:title="dev_thread">
<polygon fill="none" stroke="black" points="566.5,-76.5 566.5,-95.5 631.5,-95.5 631.5,-76.5 566.5,-76.5"/>
<text text-anchor="middle" x="599" y="-83.5" font-family="Helvetica,sans-Serif" font-size="10.00">dev_thread</text>
</a>
</g>
</g>
<!-- Node6&#45;&gt;Node7 -->
<g id="edge6" class="edge"><title>Node6&#45;&gt;Node7</title>
<path fill="none" stroke="midnightblue" d="M490.894,-59.1352C515.093,-65.2049 544.477,-72.575 566.342,-78.0593"/>
<polygon fill="midnightblue" stroke="midnightblue" points="491.429,-55.6609 480.878,-56.6228 489.726,-62.4506 491.429,-55.6609"/>
</g>
<!-- Node9 -->
<g id="node9" class="node"><title>Node9</title>
<g id="a_node9"><a xlink:href="class_solver.html#a323c9c0407f26a2ed3ec3ff5ed02a760" target="_top" xlink:title="Solver::onSignalStart">
<polygon fill="none" stroke="black" points="544.5,-38.5 544.5,-57.5 653.5,-57.5 653.5,-38.5 544.5,-38.5"/>
<text text-anchor="middle" x="599" y="-45.5" font-family="Helvetica,sans-Serif" font-size="10.00">Solver::onSignalStart</text>
</a>
</g>
</g>
<!-- Node6&#45;&gt;Node9 -->
<g id="edge8" class="edge"><title>Node6&#45;&gt;Node9</title>
<path fill="none" stroke="midnightblue" d="M490.952,-48C507.706,-48 526.939,-48 544.439,-48"/>
<polygon fill="midnightblue" stroke="midnightblue" points="490.878,-44.5001 480.878,-48 490.878,-51.5001 490.878,-44.5001"/>
</g>
<!-- Node8 -->
<g id="node8" class="node"><title>Node8</title>
<g id="a_node8"><a xlink:href="main_8cpp.html#a0ddf1224851353fc92bfbff6f499fa97" target="_top" xlink:title="main">
<polygon fill="none" stroke="black" points="766.5,-76.5 766.5,-95.5 804.5,-95.5 804.5,-76.5 766.5,-76.5"/>
<text text-anchor="middle" x="785.5" y="-83.5" font-family="Helvetica,sans-Serif" font-size="10.00">main</text>
</a>
</g>
</g>
<!-- Node7&#45;&gt;Node8 -->
<g id="edge7" class="edge"><title>Node7&#45;&gt;Node8</title>
<path fill="none" stroke="midnightblue" d="M641.733,-86C680.774,-86 737.269,-86 766.087,-86"/>
<polygon fill="midnightblue" stroke="midnightblue" points="641.717,-82.5001 631.717,-86 641.717,-89.5001 641.717,-82.5001"/>
</g>
<!-- Node11 -->
<g id="node11" class="node"><title>Node11</title>
<g id="a_node11"><a xlink:href="class_main_window.html#ad39bbe8ced0d3248206ac0ca6c444d55" target="_top" xlink:title="readyToNext1 Pass informations ">
<polygon fill="none" stroke="black" points="529,-0.5 529,-19.5 669,-19.5 669,-0.5 529,-0.5"/>
<text text-anchor="middle" x="599" y="-7.5" font-family="Helvetica,sans-Serif" font-size="10.00">MainWindow::readyToNext1</text>
</a>
</g>
</g>
<!-- Node10&#45;&gt;Node11 -->
<g id="edge10" class="edge"><title>Node10&#45;&gt;Node11</title>
<path fill="none" stroke="midnightblue" d="M500.798,-10C509.915,-10 519.484,-10 528.915,-10"/>
<polygon fill="midnightblue" stroke="midnightblue" points="500.727,-6.5001 490.727,-10 500.727,-13.5001 500.727,-6.5001"/>
</g>
<!-- Node12 -->
<g id="node12" class="node"><title>Node12</title>
<g id="a_node12"><a xlink:href="class_main_window.html#af773488e0b16efe6c0fc67ad348b86b2" target="_top" xlink:title="createConnections ">
<polygon fill="none" stroke="black" points="705,-0.5 705,-19.5 866,-19.5 866,-0.5 705,-0.5"/>
<text text-anchor="middle" x="785.5" y="-7.5" font-family="Helvetica,sans-Serif" font-size="10.00">MainWindow::createConnections</text>
</a>
</g>
</g>
<!-- Node11&#45;&gt;Node12 -->
<g id="edge11" class="edge"><title>Node11&#45;&gt;Node12</title>
<path fill="none" stroke="midnightblue" d="M679.446,-10C687.9,-10 696.501,-10 704.956,-10"/>
<polygon fill="midnightblue" stroke="midnightblue" points="679.226,-6.5001 669.226,-10 679.226,-13.5001 679.226,-6.5001"/>
</g>
<!-- Node13 -->
<g id="node13" class="node"><title>Node13</title>
<g id="a_node13"><a xlink:href="class_main_window.html#a8b244be8b7b7db1b08de2a2acb9409db" target="_top" xlink:title="MainWindow::MainWindow">
<polygon fill="none" stroke="black" points="902,-0.5 902,-19.5 1037,-19.5 1037,-0.5 902,-0.5"/>
<text text-anchor="middle" x="969.5" y="-7.5" font-family="Helvetica,sans-Serif" font-size="10.00">MainWindow::MainWindow</text>
</a>
</g>
</g>
<!-- Node12&#45;&gt;Node13 -->
<g id="edge12" class="edge"><title>Node12&#45;&gt;Node13</title>
<path fill="none" stroke="midnightblue" d="M876.196,-10C884.85,-10 893.52,-10 901.892,-10"/>
<polygon fill="midnightblue" stroke="midnightblue" points="876.063,-6.5001 866.063,-10 876.063,-13.5001 876.063,-6.5001"/>
</g>
</g>
</svg>
        <g id="navigator" transform="translate(0 0)" fill="#404254">
                <rect fill="#f2f5e9" fill-opacity="0.5" stroke="#606060" stroke-width=".5" x="0" y="0" width="60" height="60"/>
                <use id="zoomplus" xlink:href="#zoomPlus" x="17" y="9" onmousedown="handleZoom(evt,'in')"/>
                <use id="zoomminus" xlink:href="#zoomMin" x="42" y="9" onmousedown="handleZoom(evt,'out')"/>
                <use id="reset" xlink:href="#resetDef" x="30" y="36" onmousedown="handleReset()"/>
                <g id="arrowUp" xlink:href="#dirArrow" transform="translate(30 24)" onmousedown="handlePan(0,-1)">
                  <use xlink:href="#rim" fill="#404040">
                        <set attributeName="fill" to="#808080" begin="arrowUp.mouseover" end="arrowUp.mouseout"/>
                  </use>
                  <path fill="none" stroke="white" stroke-width="1.5" d="M0,-3.0v7 M-2.5,-0.5L0,-3.0L2.5,-0.5"/>
                </g>
                <g id="arrowRight" xlink:href="#dirArrow" transform="rotate(90) translate(36 -43)" onmousedown="handlePan(1,0)">
                  <use xlink:href="#rim" fill="#404040">
                        <set attributeName="fill" to="#808080" begin="arrowRight.mouseover" end="arrowRight.mouseout"/>
                  </use>
                  <path fill="none" stroke="white" stroke-width="1.5" d="M0,-3.0v7 M-2.5,-0.5L0,-3.0L2.5,-0.5"/>
                </g>
                <g id="arrowDown" xlink:href="#dirArrow" transform="rotate(180) translate(-30 -48)" onmousedown="handlePan(0,1)">
                  <use xlink:href="#rim" fill="#404040">
                        <set attributeName="fill" to="#808080" begin="arrowDown.mouseover" end="arrowDown.mouseout"/>
                  </use>
                  <path fill="none" stroke="white" stroke-width="1.5" d="M0,-3.0v7 M-2.5,-0.5L0,-3.0L2.5,-0.5"/>
                </g>
                <g id="arrowLeft" xlink:href="#dirArrow" transform="rotate(270) translate(-36 17)" onmousedown="handlePan(-1,0)">
                  <use xlink:href="#rim" fill="#404040">
                        <set attributeName="fill" to="#808080" begin="arrowLeft.mouseover" end="arrowLeft.mouseout"/>
                  </use>
                  <path fill="none" stroke="white" stroke-width="1.5" d="M0,-3.0v7 M-2.5,-0.5L0,-3.0L2.5,-0.5"/>
                </g>
        </g>
        <svg viewBox="0 0 15 15" width="100%" height="30px" preserveAspectRatio="xMaxYMin meet">
         <g id="arrow_out" transform="scale(0.3 0.3)">
          <a xlink:href="class_track_af947410651d847174d7b18d8e9df9ca7_icgraph_org.svg" target="_base">
           <rect id="button" ry="5" rx="5" y="6" x="6" height="38" width="38"
                fill="#f2f5e9" fill-opacity="0.5" stroke="#606060" stroke-width="1.0"/>
           <path id="arrow"
             d="M 11.500037,31.436501 C 11.940474,20.09759 22.043105,11.32322 32.158766,21.979434 L 37.068811,17.246167 C 37.068811,17.246167 37.088388,32 37.088388,32 L 22.160133,31.978069 C 22.160133,31.978069 26.997745,27.140456 26.997745,27.140456 C 18.528582,18.264221 13.291696,25.230495 11.500037,31.436501 z"
             style="fill:#404040;"/>
          </a>
         </g>
        </svg>
</svg>
