<?xml version="1.0" encoding="UTF-8" standalone="no"?>
<!DOCTYPE svg PUBLIC "-//W3C//DTD SVG 1.1//EN"
 "http://www.w3.org/Graphics/SVG/1.1/DTD/svg11.dtd">
<!-- Generated by graphviz version 2.38.0 (20140413.2041)
 -->
<!-- Title: Grid::yMax Pages: 1 -->
<svg width="896pt" height="104pt"
 viewBox="0.00 0.00 896.00 104.00" xmlns="http://www.w3.org/2000/svg" xmlns:xlink="http://www.w3.org/1999/xlink">
<g id="graph0" class="graph" transform="scale(1 1) rotate(0) translate(4 100)">
<title>Grid::yMax</title>
<!-- Node1 -->
<g id="node1" class="node"><title>Node1</title>
<polygon fill="#bfbfbf" stroke="black" points="0,-19.5 0,-38.5 65,-38.5 65,-19.5 0,-19.5"/>
<text text-anchor="middle" x="32.5" y="-26.5" font-family="Helvetica,sans-Serif" font-size="10.00">Grid::yMax</text>
</g>
<!-- Node2 -->
<g id="node2" class="node"><title>Node2</title>
<g id="a_node2"><a xlink:href="class_grid.html#a19318437702e712955d0c4631c94cb04" target="_top" xlink:title="Save data about our area of roads. ">
<polygon fill="none" stroke="black" points="101,-38.5 101,-57.5 213,-57.5 213,-38.5 101,-38.5"/>
<text text-anchor="middle" x="157" y="-45.5" font-family="Helvetica,sans-Serif" font-size="10.00">Grid::setBoundingBox</text>
</a>
</g>
</g>
<!-- Node1&#45;&gt;Node2 -->
<g id="edge1" class="edge"><title>Node1&#45;&gt;Node2</title>
<path fill="none" stroke="midnightblue" d="M75.1571,-35.4611C83.4035,-36.7401 92.1796,-38.1013 100.795,-39.4375"/>
<polygon fill="midnightblue" stroke="midnightblue" points="75.4651,-31.9671 65.0468,-33.893 74.3922,-38.8844 75.4651,-31.9671"/>
</g>
<!-- Node8 -->
<g id="node8" class="node"><title>Node8</title>
<g id="a_node8"><a xlink:href="class_grid.html#a8d8b7fa0ee20d81f130a46d80fc2a018" target="_top" xlink:title="Check if track is in grid. ">
<polygon fill="none" stroke="black" points="112.5,-0.5 112.5,-19.5 201.5,-19.5 201.5,-0.5 112.5,-0.5"/>
<text text-anchor="middle" x="157" y="-7.5" font-family="Helvetica,sans-Serif" font-size="10.00">Grid::trackInGrid</text>
</a>
</g>
</g>
<!-- Node1&#45;&gt;Node8 -->
<g id="edge7" class="edge"><title>Node1&#45;&gt;Node8</title>
<path fill="none" stroke="midnightblue" d="M75.1678,-22.5372C87.0669,-20.6917 100.068,-18.6752 112.096,-16.8095"/>
<polygon fill="midnightblue" stroke="midnightblue" points="74.3922,-19.1156 65.0468,-24.107 75.4651,-26.0329 74.3922,-19.1156"/>
</g>
<!-- Node3 -->
<g id="node3" class="node"><title>Node3</title>
<g id="a_node3"><a xlink:href="main_8cpp.html#a141063eccadf0e03662d414d897d9f5d" target="_top" xlink:title="dev_gridAndTrack">
<polygon fill="none" stroke="black" points="249,-76.5 249,-95.5 344,-95.5 344,-76.5 249,-76.5"/>
<text text-anchor="middle" x="296.5" y="-83.5" font-family="Helvetica,sans-Serif" font-size="10.00">dev_gridAndTrack</text>
</a>
</g>
</g>
<!-- Node2&#45;&gt;Node3 -->
<g id="edge2" class="edge"><title>Node2&#45;&gt;Node3</title>
<path fill="none" stroke="midnightblue" d="M202.573,-60.3183C221.465,-65.5393 243.147,-71.5316 260.814,-76.4141"/>
<polygon fill="midnightblue" stroke="midnightblue" points="203.268,-56.8793 192.697,-57.589 201.403,-63.6264 203.268,-56.8793"/>
</g>
<!-- Node4 -->
<g id="node4" class="node"><title>Node4</title>
<g id="a_node4"><a xlink:href="class_solver.html#acbe7e47bcad48b8ddba95c9281c8bf23" target="_top" xlink:title="Solver::readFiles">
<polygon fill="none" stroke="black" points="251.5,-38.5 251.5,-57.5 341.5,-57.5 341.5,-38.5 251.5,-38.5"/>
<text text-anchor="middle" x="296.5" y="-45.5" font-family="Helvetica,sans-Serif" font-size="10.00">Solver::readFiles</text>
</a>
</g>
</g>
<!-- Node2&#45;&gt;Node4 -->
<g id="edge3" class="edge"><title>Node2&#45;&gt;Node4</title>
<path fill="none" stroke="midnightblue" d="M223.358,-48C232.843,-48 242.414,-48 251.347,-48"/>
<polygon fill="midnightblue" stroke="midnightblue" points="223.134,-44.5001 213.134,-48 223.134,-51.5001 223.134,-44.5001"/>
</g>
<!-- Node5 -->
<g id="node5" class="node"><title>Node5</title>
<g id="a_node5"><a xlink:href="class_main_window.html#ad39bbe8ced0d3248206ac0ca6c444d55" target="_top" xlink:title="MainWindow::readyToNext1">
<polygon fill="none" stroke="black" points="380,-19.5 380,-38.5 520,-38.5 520,-19.5 380,-19.5"/>
<text text-anchor="middle" x="450" y="-26.5" font-family="Helvetica,sans-Serif" font-size="10.00">MainWindow::readyToNext1</text>
</a>
</g>
</g>
<!-- Node4&#45;&gt;Node5 -->
<g id="edge4" class="edge"><title>Node4&#45;&gt;Node5</title>
<path fill="none" stroke="midnightblue" d="M351.798,-41.1904C360.915,-40.047 370.484,-38.8468 379.915,-37.6642"/>
<polygon fill="midnightblue" stroke="midnightblue" points="351.214,-37.7361 341.727,-42.4533 352.085,-44.6817 351.214,-37.7361"/>
</g>
<!-- Node6 -->
<g id="node6" class="node"><title>Node6</title>
<g id="a_node6"><a xlink:href="class_main_window.html#af773488e0b16efe6c0fc67ad348b86b2" target="_top" xlink:title="MainWindow::createConnections">
<polygon fill="none" stroke="black" points="556,-19.5 556,-38.5 717,-38.5 717,-19.5 556,-19.5"/>
<text text-anchor="middle" x="636.5" y="-26.5" font-family="Helvetica,sans-Serif" font-size="10.00">MainWindow::createConnections</text>
</a>
</g>
</g>
<!-- Node5&#45;&gt;Node6 -->
<g id="edge5" class="edge"><title>Node5&#45;&gt;Node6</title>
<path fill="none" stroke="midnightblue" d="M530.446,-29C538.9,-29 547.501,-29 555.956,-29"/>
<polygon fill="midnightblue" stroke="midnightblue" points="530.226,-25.5001 520.226,-29 530.226,-32.5001 530.226,-25.5001"/>
</g>
<!-- Node7 -->
<g id="node7" class="node"><title>Node7</title>
<g id="a_node7"><a xlink:href="class_main_window.html#a8b244be8b7b7db1b08de2a2acb9409db" target="_top" xlink:title="MainWindow::MainWindow">
<polygon fill="none" stroke="black" points="753,-19.5 753,-38.5 888,-38.5 888,-19.5 753,-19.5"/>
<text text-anchor="middle" x="820.5" y="-26.5" font-family="Helvetica,sans-Serif" font-size="10.00">MainWindow::MainWindow</text>
</a>
</g>
</g>
<!-- Node6&#45;&gt;Node7 -->
<g id="edge6" class="edge"><title>Node6&#45;&gt;Node7</title>
<path fill="none" stroke="midnightblue" d="M727.196,-29C735.85,-29 744.52,-29 752.892,-29"/>
<polygon fill="midnightblue" stroke="midnightblue" points="727.063,-25.5001 717.063,-29 727.063,-32.5001 727.063,-25.5001"/>
</g>
<!-- Node8&#45;&gt;Node5 -->
<g id="edge8" class="edge"><title>Node8&#45;&gt;Node5</title>
<path fill="none" stroke="midnightblue" d="M211.626,-13.5014C259.015,-16.5955 328.41,-21.1264 379.94,-24.4909"/>
<polygon fill="midnightblue" stroke="midnightblue" points="211.772,-10.0036 201.566,-12.8445 211.316,-16.9887 211.772,-10.0036"/>
</g>
</g>
</svg>
