<?xml version="1.0" encoding="UTF-8" standalone="no"?>
<!DOCTYPE svg PUBLIC "-//W3C//DTD SVG 1.1//EN"
 "http://www.w3.org/Graphics/SVG/1.1/DTD/svg11.dtd">
<!-- Generated by graphviz version 2.38.0 (20140413.2041)
 -->
<!-- Title: Solver::signalDimension Pages: 1 -->
<svg width="807pt" height="123pt"
 viewBox="0.00 0.00 807.00 123.00" xmlns="http://www.w3.org/2000/svg" xmlns:xlink="http://www.w3.org/1999/xlink">
<g id="graph0" class="graph" transform="scale(1 1) rotate(0) translate(4 119)">
<title>Solver::signalDimension</title>
<!-- Node1 -->
<g id="node1" class="node"><title>Node1</title>
<polygon fill="#bfbfbf" stroke="black" points="0,-38.5 0,-57.5 122,-57.5 122,-38.5 0,-38.5"/>
<text text-anchor="middle" x="61" y="-45.5" font-family="Helvetica,sans-Serif" font-size="10.00">Solver::signalDimension</text>
</g>
<!-- Node2 -->
<g id="node2" class="node"><title>Node2</title>
<g id="a_node2"><a xlink:href="class_solver.html#a97bc7169c18b339fecd4937150f907c3" target="_top" xlink:title="Solver::start">
<polygon fill="none" stroke="black" points="171.5,-76.5 171.5,-95.5 241.5,-95.5 241.5,-76.5 171.5,-76.5"/>
<text text-anchor="middle" x="206.5" y="-83.5" font-family="Helvetica,sans-Serif" font-size="10.00">Solver::start</text>
</a>
</g>
</g>
<!-- Node1&#45;&gt;Node2 -->
<g id="edge1" class="edge"><title>Node1&#45;&gt;Node2</title>
<path fill="none" stroke="midnightblue" d="M108,-60.1813C128.545,-65.6218 152.338,-71.9223 171.276,-76.9373"/>
<polygon fill="midnightblue" stroke="midnightblue" points="108.774,-56.7655 98.2111,-57.589 106.982,-63.5323 108.774,-56.7655"/>
</g>
<!-- Node6 -->
<g id="node6" class="node"><title>Node6</title>
<g id="a_node6"><a xlink:href="class_solver.html#af677644390b609a5f496fa2362099959" target="_top" xlink:title="filterSpace Use Spatial filter with a value ">
<polygon fill="none" stroke="black" points="158,-38.5 158,-57.5 255,-57.5 255,-38.5 158,-38.5"/>
<text text-anchor="middle" x="206.5" y="-45.5" font-family="Helvetica,sans-Serif" font-size="10.00">Solver::filterSpace</text>
</a>
</g>
</g>
<!-- Node1&#45;&gt;Node6 -->
<g id="edge5" class="edge"><title>Node1&#45;&gt;Node6</title>
<path fill="none" stroke="midnightblue" d="M132.21,-48C140.924,-48 149.668,-48 157.928,-48"/>
<polygon fill="midnightblue" stroke="midnightblue" points="132.025,-44.5001 122.025,-48 132.025,-51.5001 132.025,-44.5001"/>
</g>
<!-- Node10 -->
<g id="node10" class="node"><title>Node10</title>
<g id="a_node10"><a xlink:href="class_solver.html#a95af3471a75ea1b9dc7051959c70b6e7" target="_top" xlink:title="filterTemp Use Temporal filter with a value ">
<polygon fill="none" stroke="black" points="159.5,-0.5 159.5,-19.5 253.5,-19.5 253.5,-0.5 159.5,-0.5"/>
<text text-anchor="middle" x="206.5" y="-7.5" font-family="Helvetica,sans-Serif" font-size="10.00">Solver::filterTemp</text>
</a>
</g>
</g>
<!-- Node1&#45;&gt;Node10 -->
<g id="edge9" class="edge"><title>Node1&#45;&gt;Node10</title>
<path fill="none" stroke="midnightblue" d="M107.973,-35.8258C127.816,-30.5713 150.693,-24.5134 169.3,-19.5859"/>
<polygon fill="midnightblue" stroke="midnightblue" points="106.982,-32.4677 98.2111,-38.411 108.774,-39.2345 106.982,-32.4677"/>
</g>
<!-- Node3 -->
<g id="node3" class="node"><title>Node3</title>
<g id="a_node3"><a xlink:href="main_8cpp.html#a9dd67c19acf7317c6296b63e29dcfab9" target="_top" xlink:title="dev_thread">
<polygon fill="none" stroke="black" points="328.5,-95.5 328.5,-114.5 393.5,-114.5 393.5,-95.5 328.5,-95.5"/>
<text text-anchor="middle" x="361" y="-102.5" font-family="Helvetica,sans-Serif" font-size="10.00">dev_thread</text>
</a>
</g>
</g>
<!-- Node2&#45;&gt;Node3 -->
<g id="edge2" class="edge"><title>Node2&#45;&gt;Node3</title>
<path fill="none" stroke="midnightblue" d="M251.877,-91.529C276.426,-94.5875 306.35,-98.3157 328.489,-101.074"/>
<polygon fill="midnightblue" stroke="midnightblue" points="252.08,-88.0273 241.724,-90.264 251.215,-94.9735 252.08,-88.0273"/>
</g>
<!-- Node5 -->
<g id="node5" class="node"><title>Node5</title>
<g id="a_node5"><a xlink:href="class_solver.html#a323c9c0407f26a2ed3ec3ff5ed02a760" target="_top" xlink:title="Solver::onSignalStart">
<polygon fill="none" stroke="black" points="306.5,-57.5 306.5,-76.5 415.5,-76.5 415.5,-57.5 306.5,-57.5"/>
<text text-anchor="middle" x="361" y="-64.5" font-family="Helvetica,sans-Serif" font-size="10.00">Solver::onSignalStart</text>
</a>
</g>
</g>
<!-- Node2&#45;&gt;Node5 -->
<g id="edge4" class="edge"><title>Node2&#45;&gt;Node5</title>
<path fill="none" stroke="midnightblue" d="M251.962,-80.4605C269.003,-78.3373 288.625,-75.8926 306.431,-73.6742"/>
<polygon fill="midnightblue" stroke="midnightblue" points="251.215,-77.0265 241.724,-81.736 252.08,-83.9727 251.215,-77.0265"/>
</g>
<!-- Node4 -->
<g id="node4" class="node"><title>Node4</title>
<g id="a_node4"><a xlink:href="main_8cpp.html#a0ddf1224851353fc92bfbff6f499fa97" target="_top" xlink:title="main">
<polygon fill="none" stroke="black" points="528.5,-95.5 528.5,-114.5 566.5,-114.5 566.5,-95.5 528.5,-95.5"/>
<text text-anchor="middle" x="547.5" y="-102.5" font-family="Helvetica,sans-Serif" font-size="10.00">main</text>
</a>
</g>
</g>
<!-- Node3&#45;&gt;Node4 -->
<g id="edge3" class="edge"><title>Node3&#45;&gt;Node4</title>
<path fill="none" stroke="midnightblue" d="M403.733,-105C442.774,-105 499.269,-105 528.087,-105"/>
<polygon fill="midnightblue" stroke="midnightblue" points="403.717,-101.5 393.717,-105 403.717,-108.5 403.717,-101.5"/>
</g>
<!-- Node7 -->
<g id="node7" class="node"><title>Node7</title>
<g id="a_node7"><a xlink:href="class_main_window.html#ae2500bf587f9630ce61d27ca231cfd7a" target="_top" xlink:title="readyToNext2 Pass informations ">
<polygon fill="none" stroke="black" points="291,-10.5 291,-29.5 431,-29.5 431,-10.5 291,-10.5"/>
<text text-anchor="middle" x="361" y="-17.5" font-family="Helvetica,sans-Serif" font-size="10.00">MainWindow::readyToNext2</text>
</a>
</g>
</g>
<!-- Node6&#45;&gt;Node7 -->
<g id="edge6" class="edge"><title>Node6&#45;&gt;Node7</title>
<path fill="none" stroke="midnightblue" d="M265.376,-37.3736C279.423,-34.7946 294.354,-32.0531 308.104,-29.5284"/>
<polygon fill="midnightblue" stroke="midnightblue" points="264.537,-33.969 255.334,-39.2174 265.801,-40.8539 264.537,-33.969"/>
</g>
<!-- Node8 -->
<g id="node8" class="node"><title>Node8</title>
<g id="a_node8"><a xlink:href="class_main_window.html#af773488e0b16efe6c0fc67ad348b86b2" target="_top" xlink:title="createConnections ">
<polygon fill="none" stroke="black" points="467,-10.5 467,-29.5 628,-29.5 628,-10.5 467,-10.5"/>
<text text-anchor="middle" x="547.5" y="-17.5" font-family="Helvetica,sans-Serif" font-size="10.00">MainWindow::createConnections</text>
</a>
</g>
</g>
<!-- Node7&#45;&gt;Node8 -->
<g id="edge7" class="edge"><title>Node7&#45;&gt;Node8</title>
<path fill="none" stroke="midnightblue" d="M441.446,-20C449.9,-20 458.501,-20 466.956,-20"/>
<polygon fill="midnightblue" stroke="midnightblue" points="441.226,-16.5001 431.226,-20 441.226,-23.5001 441.226,-16.5001"/>
</g>
<!-- Node9 -->
<g id="node9" class="node"><title>Node9</title>
<g id="a_node9"><a xlink:href="class_main_window.html#a8b244be8b7b7db1b08de2a2acb9409db" target="_top" xlink:title="MainWindow::MainWindow">
<polygon fill="none" stroke="black" points="664,-10.5 664,-29.5 799,-29.5 799,-10.5 664,-10.5"/>
<text text-anchor="middle" x="731.5" y="-17.5" font-family="Helvetica,sans-Serif" font-size="10.00">MainWindow::MainWindow</text>
</a>
</g>
</g>
<!-- Node8&#45;&gt;Node9 -->
<g id="edge8" class="edge"><title>Node8&#45;&gt;Node9</title>
<path fill="none" stroke="midnightblue" d="M638.196,-20C646.85,-20 655.52,-20 663.892,-20"/>
<polygon fill="midnightblue" stroke="midnightblue" points="638.063,-16.5001 628.063,-20 638.063,-23.5001 638.063,-16.5001"/>
</g>
<!-- Node10&#45;&gt;Node7 -->
<g id="edge10" class="edge"><title>Node10&#45;&gt;Node7</title>
<path fill="none" stroke="midnightblue" d="M263.819,-13.693C272.641,-14.2715 281.846,-14.8752 290.915,-15.4698"/>
<polygon fill="midnightblue" stroke="midnightblue" points="263.876,-10.1894 253.669,-13.0275 263.418,-17.1744 263.876,-10.1894"/>
</g>
</g>
</svg>
