<?xml version="1.0" encoding="UTF-8" standalone="no"?>
<!DOCTYPE svg PUBLIC "-//W3C//DTD SVG 1.1//EN"
 "http://www.w3.org/Graphics/SVG/1.1/DTD/svg11.dtd">
<!-- Generated by graphviz version 2.38.0 (20140413.2041)
 -->
<!-- Title: Filtering::getInfo Pages: 1 -->
<svg width="549pt" height="85pt"
 viewBox="0.00 0.00 549.00 85.00" xmlns="http://www.w3.org/2000/svg" xmlns:xlink="http://www.w3.org/1999/xlink">
<g id="graph0" class="graph" transform="scale(1 1) rotate(0) translate(4 81)">
<title>Filtering::getInfo</title>
<!-- Node1 -->
<g id="node1" class="node"><title>Node1</title>
<polygon fill="#bfbfbf" stroke="black" points="0,-19.5 0,-38.5 87,-38.5 87,-19.5 0,-19.5"/>
<text text-anchor="middle" x="43.5" y="-26.5" font-family="Helvetica,sans-Serif" font-size="10.00">Filtering::getInfo</text>
</g>
<!-- Node2 -->
<g id="node2" class="node"><title>Node2</title>
<g id="a_node2"><a xlink:href="class_track.html#aff258a8c303ee8a09a962d237f3823e7" target="_top" xlink:title="Reads a csv file and inserts each point in m_points vector. ">
<polygon fill="none" stroke="black" points="123,-38.5 123,-57.5 233,-57.5 233,-38.5 123,-38.5"/>
<text text-anchor="middle" x="178" y="-45.5" font-family="Helvetica,sans-Serif" font-size="10.00">Track::readFromCSV</text>
</a>
</g>
</g>
<!-- Node1&#45;&gt;Node2 -->
<g id="edge1" class="edge"><title>Node1&#45;&gt;Node2</title>
<path fill="none" stroke="midnightblue" d="M87.1532,-35.1163C95.3094,-36.2859 104.015,-37.5342 112.676,-38.7762"/>
<polygon fill="midnightblue" stroke="midnightblue" points="112.392,-42.2712 122.788,-40.2261 113.386,-35.3421 112.392,-42.2712"/>
</g>
<!-- Node6 -->
<g id="node6" class="node"><title>Node6</title>
<g id="a_node6"><a xlink:href="class_track.html#a6360ae2dbed31e542a2cbaa986970352" target="_top" xlink:title="getPoints Get the m_points vector ">
<polygon fill="none" stroke="black" points="133.5,-0.5 133.5,-19.5 222.5,-19.5 222.5,-0.5 133.5,-0.5"/>
<text text-anchor="middle" x="178" y="-7.5" font-family="Helvetica,sans-Serif" font-size="10.00">Track::getPoints</text>
</a>
</g>
</g>
<!-- Node1&#45;&gt;Node6 -->
<g id="edge5" class="edge"><title>Node1&#45;&gt;Node6</title>
<path fill="none" stroke="midnightblue" d="M87.1532,-22.8837C98.6192,-21.2395 111.17,-19.4398 123.159,-17.7207"/>
<polygon fill="midnightblue" stroke="midnightblue" points="123.659,-21.1848 133.061,-16.3007 122.665,-14.2557 123.659,-21.1848"/>
</g>
<!-- Node3 -->
<g id="node3" class="node"><title>Node3</title>
<g id="a_node3"><a xlink:href="class_track.html#ab0315e74b9b49e40d163a2ff978d833c" target="_top" xlink:title="Creates a new point and inserts it in m_points. ">
<polygon fill="none" stroke="black" points="297,-57.5 297,-76.5 383,-76.5 383,-57.5 297,-57.5"/>
<text text-anchor="middle" x="340" y="-64.5" font-family="Helvetica,sans-Serif" font-size="10.00">Track::addPoint</text>
</a>
</g>
</g>
<!-- Node2&#45;&gt;Node3 -->
<g id="edge2" class="edge"><title>Node2&#45;&gt;Node3</title>
<path fill="none" stroke="midnightblue" d="M233.169,-54.4325C250.361,-56.4742 269.337,-58.7275 286.416,-60.7557"/>
<polygon fill="midnightblue" stroke="midnightblue" points="286.429,-64.2817 296.772,-61.9855 287.255,-57.3306 286.429,-64.2817"/>
</g>
<!-- Node5 -->
<g id="node5" class="node"><title>Node5</title>
<g id="a_node5"><a xlink:href="class_track.html#aac5002af6aa69a20101a5709dbbebc82" target="_top" xlink:title="Apply a threshold to bounding box once the data file has been read. ">
<polygon fill="none" stroke="black" points="269,-19.5 269,-38.5 411,-38.5 411,-19.5 269,-19.5"/>
<text text-anchor="middle" x="340" y="-26.5" font-family="Helvetica,sans-Serif" font-size="10.00">Track::applyThresholdToBox</text>
</a>
</g>
</g>
<!-- Node2&#45;&gt;Node5 -->
<g id="edge4" class="edge"><title>Node2&#45;&gt;Node5</title>
<path fill="none" stroke="midnightblue" d="M233.169,-41.5675C241.379,-40.5925 249.996,-39.5692 258.619,-38.5453"/>
<polygon fill="midnightblue" stroke="midnightblue" points="259.202,-42.0007 268.72,-37.3458 258.377,-35.0495 259.202,-42.0007"/>
</g>
<!-- Node4 -->
<g id="node4" class="node"><title>Node4</title>
<g id="a_node4"><a xlink:href="class_track.html#af947410651d847174d7b18d8e9df9ca7" target="_top" xlink:title="Update the enclosing box of the track. ">
<polygon fill="none" stroke="black" points="447,-57.5 447,-76.5 541,-76.5 541,-57.5 447,-57.5"/>
<text text-anchor="middle" x="494" y="-64.5" font-family="Helvetica,sans-Serif" font-size="10.00">Track::updateBox</text>
</a>
</g>
</g>
<!-- Node3&#45;&gt;Node4 -->
<g id="edge3" class="edge"><title>Node3&#45;&gt;Node4</title>
<path fill="none" stroke="midnightblue" d="M383.34,-67C399.862,-67 419.044,-67 436.702,-67"/>
<polygon fill="midnightblue" stroke="midnightblue" points="436.891,-70.5001 446.891,-67 436.89,-63.5001 436.891,-70.5001"/>
</g>
</g>
</svg>
