<?xml version="1.0" encoding="UTF-8" standalone="no"?>
<!DOCTYPE svg PUBLIC "-//W3C//DTD SVG 1.1//EN"
 "http://www.w3.org/Graphics/SVG/1.1/DTD/svg11.dtd">
<!-- Generated by graphviz version 2.38.0 (20140413.2041)
 -->
<!-- Title: QMapScene::signalItemToShow Pages: 1 -->
<svg width="348pt" height="78pt"
 viewBox="0.00 0.00 348.00 77.50" xmlns="http://www.w3.org/2000/svg" xmlns:xlink="http://www.w3.org/1999/xlink">
<g id="graph0" class="graph" transform="scale(1 1) rotate(0) translate(4 73.5)">
<title>QMapScene::signalItemToShow</title>
<!-- Node1 -->
<g id="node1" class="node"><title>Node1</title>
<polygon fill="#bfbfbf" stroke="black" points="0,-28 0,-47 158,-47 158,-28 0,-28"/>
<text text-anchor="middle" x="79" y="-35" font-family="Helvetica,sans-Serif" font-size="10.00">QMapScene::signalItemToShow</text>
</g>
<!-- Node2 -->
<g id="node2" class="node"><title>Node2</title>
<g id="a_node2"><a xlink:href="class_q_map_scene.html#a7bb4c45ab68ca8a47ab4f24d1f8a2593" target="_top" xlink:title="QMapScene::onSignalStart">
<polygon fill="none" stroke="black" points="199.5,-50 199.5,-69 334.5,-69 334.5,-50 199.5,-50"/>
<text text-anchor="middle" x="267" y="-57" font-family="Helvetica,sans-Serif" font-size="10.00">QMapScene::onSignalStart</text>
</a>
</g>
</g>
<!-- Node1&#45;&gt;Node2 -->
<g id="edge1" class="edge"><title>Node1&#45;&gt;Node2</title>
<path fill="none" stroke="midnightblue" d="M168.101,-47.9206C178.606,-49.1631 189.195,-50.4155 199.329,-51.6142"/>
<polygon fill="midnightblue" stroke="midnightblue" points="168.414,-44.4333 158.072,-46.7344 167.592,-51.3848 168.414,-44.4333"/>
</g>
<!-- Node3 -->
<g id="node3" class="node"><title>Node3</title>
<g id="a_node3"><a xlink:href="class_q_map_scene.html#a33fb5928b92a675cff26224dbb54e71e" target="_top" xlink:title="QMapScene::onSignalCurrent\lPoint">
<polygon fill="none" stroke="black" points="194,-0.5 194,-30.5 340,-30.5 340,-0.5 194,-0.5"/>
<text text-anchor="start" x="202" y="-18.5" font-family="Helvetica,sans-Serif" font-size="10.00">QMapScene::onSignalCurrent</text>
<text text-anchor="middle" x="267" y="-7.5" font-family="Helvetica,sans-Serif" font-size="10.00">Point</text>
</a>
</g>
</g>
<!-- Node1&#45;&gt;Node3 -->
<g id="edge2" class="edge"><title>Node1&#45;&gt;Node3</title>
<path fill="none" stroke="midnightblue" d="M168.115,-27.0778C176.707,-26.0615 185.355,-25.0387 193.764,-24.0441"/>
<polygon fill="midnightblue" stroke="midnightblue" points="167.592,-23.6152 158.072,-28.2656 168.414,-30.5667 167.592,-23.6152"/>
</g>
</g>
</svg>
