<?xml version="1.0" encoding="UTF-8" standalone="no"?>
<!DOCTYPE svg PUBLIC "-//W3C//DTD SVG 1.1//EN"
 "http://www.w3.org/Graphics/SVG/1.1/DTD/svg11.dtd">
<!-- Generated by graphviz version 2.38.0 (20140413.2041)
 -->
<!-- Title: QMapScene::onSignalAllPoints Pages: 1 -->
<svg width="247pt" height="66pt"
 viewBox="0.00 0.00 247.00 66.00" xmlns="http://www.w3.org/2000/svg" xmlns:xlink="http://www.w3.org/1999/xlink">
<g id="graph0" class="graph" transform="scale(1 1) rotate(0) translate(4 62)">
<title>QMapScene::onSignalAllPoints</title>
<!-- Node1 -->
<g id="node1" class="node"><title>Node1</title>
<polygon fill="#bfbfbf" stroke="black" points="0,-19.5 0,-38.5 153,-38.5 153,-19.5 0,-19.5"/>
<text text-anchor="middle" x="76.5" y="-26.5" font-family="Helvetica,sans-Serif" font-size="10.00">QMapScene::onSignalAllPoints</text>
</g>
<!-- Node2 -->
<g id="node2" class="node"><title>Node2</title>
<g id="a_node2"><a xlink:href="class_point.html#a3eef47b1c4849b3395a8f9c658ca7c4a" target="_top" xlink:title="Point::x">
<polygon fill="none" stroke="black" points="189,-38.5 189,-57.5 239,-57.5 239,-38.5 189,-38.5"/>
<text text-anchor="middle" x="214" y="-45.5" font-family="Helvetica,sans-Serif" font-size="10.00">Point::x</text>
</a>
</g>
</g>
<!-- Node1&#45;&gt;Node2 -->
<g id="edge1" class="edge"><title>Node1&#45;&gt;Node2</title>
<path fill="none" stroke="midnightblue" d="M145.647,-38.5557C157.19,-40.1743 168.718,-41.7907 178.89,-43.2171"/>
<polygon fill="midnightblue" stroke="midnightblue" points="178.554,-46.7042 188.944,-44.6268 179.527,-39.772 178.554,-46.7042"/>
</g>
<!-- Node3 -->
<g id="node3" class="node"><title>Node3</title>
<g id="a_node3"><a xlink:href="class_point.html#a96e90df6b3c18e64c31abdf196e49ae9" target="_top" xlink:title="Point::y">
<polygon fill="none" stroke="black" points="189,-0.5 189,-19.5 239,-19.5 239,-0.5 189,-0.5"/>
<text text-anchor="middle" x="214" y="-7.5" font-family="Helvetica,sans-Serif" font-size="10.00">Point::y</text>
</a>
</g>
</g>
<!-- Node1&#45;&gt;Node3 -->
<g id="edge2" class="edge"><title>Node1&#45;&gt;Node3</title>
<path fill="none" stroke="midnightblue" d="M145.647,-19.4443C157.19,-17.8257 168.718,-16.2093 178.89,-14.7829"/>
<polygon fill="midnightblue" stroke="midnightblue" points="179.527,-18.228 188.944,-13.3732 178.554,-11.2958 179.527,-18.228"/>
</g>
</g>
</svg>
