<?xml version="1.0" encoding="UTF-8" standalone="no"?>
<!DOCTYPE svg PUBLIC "-//W3C//DTD SVG 1.1//EN"
 "http://www.w3.org/Graphics/SVG/1.1/DTD/svg11.dtd">
<!-- Generated by graphviz version 2.38.0 (20140413.2041)
 -->
<!-- Title: Grid::readFromCSV Pages: 1 -->
<svg width="786pt" height="142pt"
 viewBox="0.00 0.00 786.00 142.00" xmlns="http://www.w3.org/2000/svg" xmlns:xlink="http://www.w3.org/1999/xlink">
<g id="graph0" class="graph" transform="scale(1 1) rotate(0) translate(4 138)">
<title>Grid::readFromCSV</title>
<!-- Node1 -->
<g id="node1" class="node"><title>Node1</title>
<polygon fill="#bfbfbf" stroke="black" points="0,-57.5 0,-76.5 103,-76.5 103,-57.5 0,-57.5"/>
<text text-anchor="middle" x="51.5" y="-64.5" font-family="Helvetica,sans-Serif" font-size="10.00">Grid::readFromCSV</text>
</g>
<!-- Node2 -->
<g id="node2" class="node"><title>Node2</title>
<g id="a_node2"><a xlink:href="main_8cpp.html#a640261e473790d1a87c2f33332460793" target="_top" xlink:title="dev_grid">
<polygon fill="none" stroke="black" points="160,-114.5 160,-133.5 213,-133.5 213,-114.5 160,-114.5"/>
<text text-anchor="middle" x="186.5" y="-121.5" font-family="Helvetica,sans-Serif" font-size="10.00">dev_grid</text>
</a>
</g>
</g>
<!-- Node1&#45;&gt;Node2 -->
<g id="edge1" class="edge"><title>Node1&#45;&gt;Node2</title>
<path fill="none" stroke="midnightblue" d="M82.9531,-80.6093C99.4885,-87.9404 120.316,-97.0805 139,-105 146.387,-108.131 154.47,-111.466 161.795,-114.453"/>
<polygon fill="midnightblue" stroke="midnightblue" points="84.3215,-77.3874 73.7619,-76.5247 81.4787,-83.7842 84.3215,-77.3874"/>
</g>
<!-- Node3 -->
<g id="node3" class="node"><title>Node3</title>
<g id="a_node3"><a xlink:href="main_8cpp.html#a141063eccadf0e03662d414d897d9f5d" target="_top" xlink:title="dev_gridAndTrack">
<polygon fill="none" stroke="black" points="139,-76.5 139,-95.5 234,-95.5 234,-76.5 139,-76.5"/>
<text text-anchor="middle" x="186.5" y="-83.5" font-family="Helvetica,sans-Serif" font-size="10.00">dev_gridAndTrack</text>
</a>
</g>
</g>
<!-- Node1&#45;&gt;Node3 -->
<g id="edge2" class="edge"><title>Node1&#45;&gt;Node3</title>
<path fill="none" stroke="midnightblue" d="M113.202,-75.6717C121.837,-76.9053 130.604,-78.1577 138.913,-79.3447"/>
<polygon fill="midnightblue" stroke="midnightblue" points="113.556,-72.1868 103.161,-74.2373 112.565,-79.1164 113.556,-72.1868"/>
</g>
<!-- Node4 -->
<g id="node4" class="node"><title>Node4</title>
<g id="a_node4"><a xlink:href="class_solver.html#a97bc7169c18b339fecd4937150f907c3" target="_top" xlink:title="Solver::start">
<polygon fill="none" stroke="black" points="151.5,-38.5 151.5,-57.5 221.5,-57.5 221.5,-38.5 151.5,-38.5"/>
<text text-anchor="middle" x="186.5" y="-45.5" font-family="Helvetica,sans-Serif" font-size="10.00">Solver::start</text>
</a>
</g>
</g>
<!-- Node1&#45;&gt;Node4 -->
<g id="edge3" class="edge"><title>Node1&#45;&gt;Node4</title>
<path fill="none" stroke="midnightblue" d="M113.132,-58.3383C126.294,-56.4579 139.766,-54.5334 151.462,-52.8625"/>
<polygon fill="midnightblue" stroke="midnightblue" points="112.565,-54.8836 103.161,-59.7627 113.556,-61.8132 112.565,-54.8836"/>
</g>
<!-- Node8 -->
<g id="node8" class="node"><title>Node8</title>
<g id="a_node8"><a xlink:href="class_solver.html#acbe7e47bcad48b8ddba95c9281c8bf23" target="_top" xlink:title="readFiles Read files : track and grid ">
<polygon fill="none" stroke="black" points="141.5,-0.5 141.5,-19.5 231.5,-19.5 231.5,-0.5 141.5,-0.5"/>
<text text-anchor="middle" x="186.5" y="-7.5" font-family="Helvetica,sans-Serif" font-size="10.00">Solver::readFiles</text>
</a>
</g>
</g>
<!-- Node1&#45;&gt;Node8 -->
<g id="edge7" class="edge"><title>Node1&#45;&gt;Node8</title>
<path fill="none" stroke="midnightblue" d="M82.9531,-53.3907C99.4885,-46.0596 120.316,-36.9195 139,-29 146.387,-25.8689 154.47,-22.5344 161.795,-19.5471"/>
<polygon fill="midnightblue" stroke="midnightblue" points="81.4787,-50.2158 73.7619,-57.4753 84.3215,-56.6126 81.4787,-50.2158"/>
</g>
<!-- Node5 -->
<g id="node5" class="node"><title>Node5</title>
<g id="a_node5"><a xlink:href="main_8cpp.html#a9dd67c19acf7317c6296b63e29dcfab9" target="_top" xlink:title="dev_thread">
<polygon fill="none" stroke="black" points="307.5,-76.5 307.5,-95.5 372.5,-95.5 372.5,-76.5 307.5,-76.5"/>
<text text-anchor="middle" x="340" y="-83.5" font-family="Helvetica,sans-Serif" font-size="10.00">dev_thread</text>
</a>
</g>
</g>
<!-- Node4&#45;&gt;Node5 -->
<g id="edge4" class="edge"><title>Node4&#45;&gt;Node5</title>
<path fill="none" stroke="midnightblue" d="M231.894,-59.1352C256.093,-65.2049 285.477,-72.575 307.342,-78.0593"/>
<polygon fill="midnightblue" stroke="midnightblue" points="232.429,-55.6609 221.878,-56.6228 230.726,-62.4506 232.429,-55.6609"/>
</g>
<!-- Node7 -->
<g id="node7" class="node"><title>Node7</title>
<g id="a_node7"><a xlink:href="class_solver.html#a323c9c0407f26a2ed3ec3ff5ed02a760" target="_top" xlink:title="Solver::onSignalStart">
<polygon fill="none" stroke="black" points="285.5,-38.5 285.5,-57.5 394.5,-57.5 394.5,-38.5 285.5,-38.5"/>
<text text-anchor="middle" x="340" y="-45.5" font-family="Helvetica,sans-Serif" font-size="10.00">Solver::onSignalStart</text>
</a>
</g>
</g>
<!-- Node4&#45;&gt;Node7 -->
<g id="edge6" class="edge"><title>Node4&#45;&gt;Node7</title>
<path fill="none" stroke="midnightblue" d="M231.952,-48C248.706,-48 267.939,-48 285.439,-48"/>
<polygon fill="midnightblue" stroke="midnightblue" points="231.878,-44.5001 221.878,-48 231.878,-51.5001 231.878,-44.5001"/>
</g>
<!-- Node6 -->
<g id="node6" class="node"><title>Node6</title>
<g id="a_node6"><a xlink:href="main_8cpp.html#a0ddf1224851353fc92bfbff6f499fa97" target="_top" xlink:title="main">
<polygon fill="none" stroke="black" points="507.5,-76.5 507.5,-95.5 545.5,-95.5 545.5,-76.5 507.5,-76.5"/>
<text text-anchor="middle" x="526.5" y="-83.5" font-family="Helvetica,sans-Serif" font-size="10.00">main</text>
</a>
</g>
</g>
<!-- Node5&#45;&gt;Node6 -->
<g id="edge5" class="edge"><title>Node5&#45;&gt;Node6</title>
<path fill="none" stroke="midnightblue" d="M382.733,-86C421.774,-86 478.269,-86 507.087,-86"/>
<polygon fill="midnightblue" stroke="midnightblue" points="382.717,-82.5001 372.717,-86 382.717,-89.5001 382.717,-82.5001"/>
</g>
<!-- Node9 -->
<g id="node9" class="node"><title>Node9</title>
<g id="a_node9"><a xlink:href="class_main_window.html#ad39bbe8ced0d3248206ac0ca6c444d55" target="_top" xlink:title="readyToNext1 Pass informations ">
<polygon fill="none" stroke="black" points="270,-0.5 270,-19.5 410,-19.5 410,-0.5 270,-0.5"/>
<text text-anchor="middle" x="340" y="-7.5" font-family="Helvetica,sans-Serif" font-size="10.00">MainWindow::readyToNext1</text>
</a>
</g>
</g>
<!-- Node8&#45;&gt;Node9 -->
<g id="edge8" class="edge"><title>Node8&#45;&gt;Node9</title>
<path fill="none" stroke="midnightblue" d="M241.798,-10C250.915,-10 260.484,-10 269.915,-10"/>
<polygon fill="midnightblue" stroke="midnightblue" points="241.727,-6.5001 231.727,-10 241.727,-13.5001 241.727,-6.5001"/>
</g>
<!-- Node10 -->
<g id="node10" class="node"><title>Node10</title>
<g id="a_node10"><a xlink:href="class_main_window.html#af773488e0b16efe6c0fc67ad348b86b2" target="_top" xlink:title="createConnections ">
<polygon fill="none" stroke="black" points="446,-0.5 446,-19.5 607,-19.5 607,-0.5 446,-0.5"/>
<text text-anchor="middle" x="526.5" y="-7.5" font-family="Helvetica,sans-Serif" font-size="10.00">MainWindow::createConnections</text>
</a>
</g>
</g>
<!-- Node9&#45;&gt;Node10 -->
<g id="edge9" class="edge"><title>Node9&#45;&gt;Node10</title>
<path fill="none" stroke="midnightblue" d="M420.446,-10C428.9,-10 437.501,-10 445.956,-10"/>
<polygon fill="midnightblue" stroke="midnightblue" points="420.226,-6.5001 410.226,-10 420.226,-13.5001 420.226,-6.5001"/>
</g>
<!-- Node11 -->
<g id="node11" class="node"><title>Node11</title>
<g id="a_node11"><a xlink:href="class_main_window.html#a8b244be8b7b7db1b08de2a2acb9409db" target="_top" xlink:title="MainWindow::MainWindow">
<polygon fill="none" stroke="black" points="643,-0.5 643,-19.5 778,-19.5 778,-0.5 643,-0.5"/>
<text text-anchor="middle" x="710.5" y="-7.5" font-family="Helvetica,sans-Serif" font-size="10.00">MainWindow::MainWindow</text>
</a>
</g>
</g>
<!-- Node10&#45;&gt;Node11 -->
<g id="edge10" class="edge"><title>Node10&#45;&gt;Node11</title>
<path fill="none" stroke="midnightblue" d="M617.196,-10C625.85,-10 634.52,-10 642.892,-10"/>
<polygon fill="midnightblue" stroke="midnightblue" points="617.063,-6.5001 607.063,-10 617.063,-13.5001 617.063,-6.5001"/>
</g>
</g>
</svg>
