<?xml version="1.0" encoding="UTF-8" standalone="no"?>
<!DOCTYPE svg PUBLIC "-//W3C//DTD SVG 1.1//EN"
 "http://www.w3.org/Graphics/SVG/1.1/DTD/svg11.dtd">
<!-- Generated by graphviz version 2.38.0 (20140413.2041)
 -->
<!-- Title: Solver::setDistance Pages: 1 -->
<svg width="467pt" height="180pt"
 viewBox="0.00 0.00 467.00 180.00" xmlns="http://www.w3.org/2000/svg" xmlns:xlink="http://www.w3.org/1999/xlink">
<g id="graph0" class="graph" transform="scale(1 1) rotate(0) translate(4 176)">
<title>Solver::setDistance</title>
<!-- Node1 -->
<g id="node1" class="node"><title>Node1</title>
<polygon fill="#bfbfbf" stroke="black" points="0,-76.5 0,-95.5 103,-95.5 103,-76.5 0,-76.5"/>
<text text-anchor="middle" x="51.5" y="-83.5" font-family="Helvetica,sans-Serif" font-size="10.00">Solver::setDistance</text>
</g>
<!-- Node2 -->
<g id="node2" class="node"><title>Node2</title>
<g id="a_node2"><a xlink:href="class_road.html#a2877f55c577ddff8c519e7f44c2256d5" target="_top" xlink:title="Get the vector of points composing the road. ">
<polygon fill="none" stroke="black" points="163.5,-152.5 163.5,-171.5 282.5,-171.5 282.5,-152.5 163.5,-152.5"/>
<text text-anchor="middle" x="223" y="-159.5" font-family="Helvetica,sans-Serif" font-size="10.00">Road::vectorOfPointsId</text>
</a>
</g>
</g>
<!-- Node1&#45;&gt;Node2 -->
<g id="edge1" class="edge"><title>Node1&#45;&gt;Node2</title>
<path fill="none" stroke="midnightblue" d="M64.0349,-95.5762C79.9235,-108.285 109.893,-130.562 139,-143 144.888,-145.516 151.159,-147.724 157.515,-149.657"/>
<polygon fill="midnightblue" stroke="midnightblue" points="156.958,-153.136 167.532,-152.473 158.852,-146.397 156.958,-153.136"/>
</g>
<!-- Node3 -->
<g id="node3" class="node"><title>Node3</title>
<g id="a_node3"><a xlink:href="class_point.html#a39daa6ebd31cdc2d7151db77bfdf2166" target="_top" xlink:title="Compute the distance between a point and a segment. ">
<polygon fill="none" stroke="black" points="157,-114.5 157,-133.5 289,-133.5 289,-114.5 157,-114.5"/>
<text text-anchor="middle" x="223" y="-121.5" font-family="Helvetica,sans-Serif" font-size="10.00">Point::distanceToSegment</text>
</a>
</g>
</g>
<!-- Node1&#45;&gt;Node3 -->
<g id="edge2" class="edge"><title>Node1&#45;&gt;Node3</title>
<path fill="none" stroke="midnightblue" d="M95.272,-95.589C117.841,-100.649 145.723,-106.9 169.583,-112.249"/>
<polygon fill="midnightblue" stroke="midnightblue" points="169.012,-115.708 179.536,-114.48 170.543,-108.877 169.012,-115.708"/>
</g>
<!-- Node6 -->
<g id="node6" class="node"><title>Node6</title>
<g id="a_node6"><a xlink:href="class_point_g_p_s.html#a9c833db3ff338f3cd2ee8480db6c7d56" target="_top" xlink:title="PointGPS::addEmissionProbability">
<polygon fill="none" stroke="black" points="139,-76.5 139,-95.5 307,-95.5 307,-76.5 139,-76.5"/>
<text text-anchor="middle" x="223" y="-83.5" font-family="Helvetica,sans-Serif" font-size="10.00">PointGPS::addEmissionProbability</text>
</a>
</g>
</g>
<!-- Node1&#45;&gt;Node6 -->
<g id="edge5" class="edge"><title>Node1&#45;&gt;Node6</title>
<path fill="none" stroke="midnightblue" d="M103.356,-86C111.416,-86 119.966,-86 128.637,-86"/>
<polygon fill="midnightblue" stroke="midnightblue" points="128.85,-89.5001 138.85,-86 128.85,-82.5001 128.85,-89.5001"/>
</g>
<!-- Node7 -->
<g id="node7" class="node"><title>Node7</title>
<g id="a_node7"><a xlink:href="class_road.html#ad6715392969e36eb10efac542519755c" target="_top" xlink:title="Get the id of the road. ">
<polygon fill="none" stroke="black" points="185.5,-38.5 185.5,-57.5 260.5,-57.5 260.5,-38.5 185.5,-38.5"/>
<text text-anchor="middle" x="223" y="-45.5" font-family="Helvetica,sans-Serif" font-size="10.00">Road::edgeId</text>
</a>
</g>
</g>
<!-- Node1&#45;&gt;Node7 -->
<g id="edge6" class="edge"><title>Node1&#45;&gt;Node7</title>
<path fill="none" stroke="midnightblue" d="M95.272,-76.411C119.666,-70.9422 150.266,-64.0819 175.287,-58.4726"/>
<polygon fill="midnightblue" stroke="midnightblue" points="176.288,-61.8352 185.28,-56.2323 174.756,-55.0047 176.288,-61.8352"/>
</g>
<!-- Node8 -->
<g id="node8" class="node"><title>Node8</title>
<g id="a_node8"><a xlink:href="class_point_g_p_s.html#a9a622f6883b721ee5f04f092a76ece64" target="_top" xlink:title="PointGPS::infos">
<polygon fill="none" stroke="black" points="179.5,-0.5 179.5,-19.5 266.5,-19.5 266.5,-0.5 179.5,-0.5"/>
<text text-anchor="middle" x="223" y="-7.5" font-family="Helvetica,sans-Serif" font-size="10.00">PointGPS::infos</text>
</a>
</g>
</g>
<!-- Node1&#45;&gt;Node8 -->
<g id="edge7" class="edge"><title>Node1&#45;&gt;Node8</title>
<path fill="none" stroke="midnightblue" d="M64.0349,-76.4238C79.9235,-63.7153 109.893,-41.4382 139,-29 148.58,-24.9061 159.176,-21.6263 169.502,-19.0227"/>
<polygon fill="midnightblue" stroke="midnightblue" points="170.342,-22.4208 179.278,-16.729 168.743,-15.6058 170.342,-22.4208"/>
</g>
<!-- Node4 -->
<g id="node4" class="node"><title>Node4</title>
<g id="a_node4"><a xlink:href="class_point.html#a9d93fb520b4a3e170aab25ea738b105c" target="_top" xlink:title="Check if two points share the same coordinates. ">
<polygon fill="none" stroke="black" points="349,-133.5 349,-152.5 453,-152.5 453,-133.5 349,-133.5"/>
<text text-anchor="middle" x="401" y="-140.5" font-family="Helvetica,sans-Serif" font-size="10.00">Point::samePointAs</text>
</a>
</g>
</g>
<!-- Node3&#45;&gt;Node4 -->
<g id="edge3" class="edge"><title>Node3&#45;&gt;Node4</title>
<path fill="none" stroke="midnightblue" d="M289.036,-131.021C305.262,-132.773 322.608,-134.645 338.649,-136.377"/>
<polygon fill="midnightblue" stroke="midnightblue" points="338.659,-139.898 348.977,-137.492 339.411,-132.939 338.659,-139.898"/>
</g>
<!-- Node5 -->
<g id="node5" class="node"><title>Node5</title>
<g id="a_node5"><a xlink:href="class_point.html#a7cd7f7e2c0f1a11b66eac8b6f360bfd9" target="_top" xlink:title="Calculate distance between two points. ">
<polygon fill="none" stroke="black" points="343,-95.5 343,-114.5 459,-114.5 459,-95.5 343,-95.5"/>
<text text-anchor="middle" x="401" y="-102.5" font-family="Helvetica,sans-Serif" font-size="10.00">Point::distanceToPoint</text>
</a>
</g>
</g>
<!-- Node3&#45;&gt;Node5 -->
<g id="edge4" class="edge"><title>Node3&#45;&gt;Node5</title>
<path fill="none" stroke="midnightblue" d="M289.036,-116.979C303.219,-115.448 318.258,-113.824 332.534,-112.283"/>
<polygon fill="midnightblue" stroke="midnightblue" points="333.204,-115.731 342.77,-111.178 332.453,-108.772 333.204,-115.731"/>
</g>
<!-- Node9 -->
<g id="node9" class="node"><title>Node9</title>
<g id="a_node9"><a xlink:href="class_point.html#a1c2033a89f5dc6faa9e50f06c2111e88" target="_top" xlink:title="Point::infos">
<polygon fill="none" stroke="black" points="368,-0.5 368,-19.5 434,-19.5 434,-0.5 368,-0.5"/>
<text text-anchor="middle" x="401" y="-7.5" font-family="Helvetica,sans-Serif" font-size="10.00">Point::infos</text>
</a>
</g>
</g>
<!-- Node8&#45;&gt;Node9 -->
<g id="edge8" class="edge"><title>Node8&#45;&gt;Node9</title>
<path fill="none" stroke="midnightblue" d="M266.605,-10C294.299,-10 330.253,-10 357.855,-10"/>
<polygon fill="midnightblue" stroke="midnightblue" points="357.991,-13.5001 367.991,-10 357.991,-6.5001 357.991,-13.5001"/>
</g>
</g>
</svg>
