<?xml version="1.0" encoding="UTF-8" standalone="no"?>
<!DOCTYPE svg PUBLIC "-//W3C//DTD SVG 1.1//EN"
 "http://www.w3.org/Graphics/SVG/1.1/DTD/svg11.dtd">
<!-- Generated by graphviz version 2.38.0 (20140413.2041)
 -->
<!-- Title: JournalProcess Pages: 1 -->
<svg width="113pt" height="171pt"
 viewBox="0.00 0.00 113.00 171.00" xmlns="http://www.w3.org/2000/svg" xmlns:xlink="http://www.w3.org/1999/xlink">
<g id="graph0" class="graph" transform="scale(1 1) rotate(0) translate(4 167)">
<title>JournalProcess</title>
<!-- Node1 -->
<g id="node1" class="node"><title>Node1</title>
<polygon fill="#bfbfbf" stroke="black" points="0,-0.5 0,-68.5 105,-68.5 105,-0.5 0,-0.5"/>
<text text-anchor="middle" x="52.5" y="-56.5" font-family="Helvetica,sans-Serif" font-size="10.00">JournalProcess</text>
<polyline fill="none" stroke="black" points="0,-49.5 105,-49.5 "/>
<text text-anchor="middle" x="52.5" y="-37.5" font-family="Helvetica,sans-Serif" font-size="10.00"> </text>
<polyline fill="none" stroke="black" points="0,-30.5 105,-30.5 "/>
<text text-anchor="start" x="8" y="-18.5" font-family="Helvetica,sans-Serif" font-size="10.00">+ JournalProcess()</text>
<text text-anchor="start" x="8" y="-7.5" font-family="Helvetica,sans-Serif" font-size="10.00">+ ~JournalProcess()</text>
</g>
<!-- Node2 -->
<g id="node2" class="node"><title>Node2</title>
<polygon fill="none" stroke="#bfbfbf" points="18,-105.5 18,-162.5 87,-162.5 87,-105.5 18,-105.5"/>
<text text-anchor="middle" x="52.5" y="-150.5" font-family="Helvetica,sans-Serif" font-size="10.00">QScrollArea</text>
<polyline fill="none" stroke="#bfbfbf" points="18,-143.5 87,-143.5 "/>
<text text-anchor="middle" x="52.5" y="-131.5" font-family="Helvetica,sans-Serif" font-size="10.00"> </text>
<polyline fill="none" stroke="#bfbfbf" points="18,-124.5 87,-124.5 "/>
<text text-anchor="middle" x="52.5" y="-112.5" font-family="Helvetica,sans-Serif" font-size="10.00"> </text>
</g>
<!-- Node2&#45;&gt;Node1 -->
<g id="edge1" class="edge"><title>Node2&#45;&gt;Node1</title>
<path fill="none" stroke="midnightblue" d="M52.5,-95.0631C52.5,-86.3933 52.5,-77.2431 52.5,-68.7855"/>
<polygon fill="none" stroke="midnightblue" points="49.0001,-95.3212 52.5,-105.321 56.0001,-95.3212 49.0001,-95.3212"/>
</g>
</g>
</svg>
