<?xml version="1.0" encoding="UTF-8" standalone="no"?>
<!DOCTYPE svg PUBLIC "-//W3C//DTD SVG 1.1//EN"
 "http://www.w3.org/Graphics/SVG/1.1/DTD/svg11.dtd">
<!-- Generated by graphviz version 2.38.0 (20140413.2041)
 -->
<!-- Title: Point::x Pages: 1 -->
<!--zoomable 294 -->
<svg id="main" version="1.1" xmlns="http://www.w3.org/2000/svg" xmlns:xlink="http://www.w3.org/1999/xlink" xml:space="preserve" onload="init(evt)">
<style type="text/css"><![CDATA[
.edge:hover path { stroke: red; }
.edge:hover polygon { stroke: red; fill: red; }
]]></style>
<script type="text/javascript"><![CDATA[
var edges = document.getElementsByTagName('g');
if (edges && edges.length) {
  for (var i=0;i<edges.length;i++) {
    if (edges[i].id.substr(0,4)=='edge') {
      edges[i].setAttribute('class','edge');
    }
  }
}
]]></script>
        <defs>
                <circle id="rim" cx="0" cy="0" r="7"/>
                <circle id="rim2" cx="0" cy="0" r="3.5"/>
                <g id="zoomPlus">
                        <use xlink:href="#rim" fill="#404040">
                                <set attributeName="fill" to="#808080" begin="zoomplus.mouseover" end="zoomplus.mouseout"/>
                        </use>
                        <path d="M-4,0h8M0,-4v8" fill="none" stroke="white" stroke-width="1.5" pointer-events="none"/>
                </g>
                <g id="zoomMin">
                        <use xlink:href="#rim" fill="#404040">
                                <set attributeName="fill" to="#808080" begin="zoomminus.mouseover" end="zoomminus.mouseout"/>
                        </use>
                        <path d="M-4,0h8" fill="none" stroke="white" stroke-width="1.5" pointer-events="none"/>
                </g>
                <g id="dirArrow">
                        <path fill="none" stroke="white" stroke-width="1.5" d="M0,-3.0v7 M-2.5,-0.5L0,-3.0L2.5,-0.5"/>
                </g>
               <g id="resetDef">
                       <use xlink:href="#rim2" fill="#404040">
                               <set attributeName="fill" to="#808080" begin="reset.mouseover" end="reset.mouseout"/>
                       </use>
               </g>
        </defs>

<script type="text/javascript">
var viewWidth = 606;
var viewHeight = 294;
var sectionId = 'dynsection-14';
</script>
<script xlink:href="svgpan.js"/>
<svg id="graph" class="graph">
<g id="viewport">
<title>Point::x</title>
<!-- Node1 -->
<g id="node1" class="node"><title>Node1</title>
<polygon fill="#bfbfbf" stroke="black" points="0,-133.5 0,-152.5 50,-152.5 50,-133.5 0,-133.5"/>
<text text-anchor="middle" x="25" y="-140.5" font-family="Helvetica,sans-Serif" font-size="10.00">Point::x</text>
</g>
<!-- Node2 -->
<g id="node2" class="node"><title>Node2</title>
<g id="a_node2"><a xlink:href="class_box.html#a3a96bf8f86322e4885028e517ef40535" target="_top" xlink:title="Box::distanceToPoint">
<polygon fill="none" stroke="black" points="107.5,-266.5 107.5,-285.5 217.5,-285.5 217.5,-266.5 107.5,-266.5"/>
<text text-anchor="middle" x="162.5" y="-273.5" font-family="Helvetica,sans-Serif" font-size="10.00">Box::distanceToPoint</text>
</a>
</g>
</g>
<!-- Node1&#45;&gt;Node2 -->
<g id="edge1" class="edge"><title>Node1&#45;&gt;Node2</title>
<path fill="none" stroke="midnightblue" d="M30.8672,-162.366C38.3263,-187.972 55.081,-232.684 86,-257 92.2683,-261.93 99.6576,-265.596 107.318,-268.32"/>
<polygon fill="midnightblue" stroke="midnightblue" points="34.2327,-161.404 28.2253,-152.677 27.4792,-163.245 34.2327,-161.404"/>
</g>
<!-- Node4 -->
<g id="node4" class="node"><title>Node4</title>
<g id="a_node4"><a xlink:href="structhash_func.html#a1ec440ab36b0e013a3bbc9cf48f34e35" target="_top" xlink:title="hashFunc::operator()">
<polygon fill="none" stroke="black" points="109,-228.5 109,-247.5 216,-247.5 216,-228.5 109,-228.5"/>
<text text-anchor="middle" x="162.5" y="-235.5" font-family="Helvetica,sans-Serif" font-size="10.00">hashFunc::operator()</text>
</a>
</g>
</g>
<!-- Node1&#45;&gt;Node4 -->
<g id="edge3" class="edge"><title>Node1&#45;&gt;Node4</title>
<path fill="none" stroke="midnightblue" d="M35.7228,-161.333C45.9345,-178.796 63.6152,-204.509 86,-219 92.9212,-223.481 100.831,-226.905 108.865,-229.521"/>
<polygon fill="midnightblue" stroke="midnightblue" points="38.7745,-159.619 30.8356,-152.603 32.6665,-163.038 38.7745,-159.619"/>
</g>
<!-- Node5 -->
<g id="node5" class="node"><title>Node5</title>
<g id="a_node5"><a xlink:href="class_k_d_tree.html#a39df3eb7a379ef30cf6b71136cdb320e" target="_top" xlink:title="KDTree::locate">
<polygon fill="none" stroke="black" points="121,-190.5 121,-209.5 204,-209.5 204,-190.5 121,-190.5"/>
<text text-anchor="middle" x="162.5" y="-197.5" font-family="Helvetica,sans-Serif" font-size="10.00">KDTree::locate</text>
</a>
</g>
</g>
<!-- Node1&#45;&gt;Node5 -->
<g id="edge4" class="edge"><title>Node1&#45;&gt;Node5</title>
<path fill="none" stroke="midnightblue" d="M46.8793,-158.549C58.0162,-166.228 72.2324,-175.089 86,-181 96.9295,-185.693 109.266,-189.404 120.752,-192.255"/>
<polygon fill="midnightblue" stroke="midnightblue" points="48.8552,-155.659 38.6753,-152.723 44.8022,-161.366 48.8552,-155.659"/>
</g>
<!-- Node6 -->
<g id="node6" class="node"><title>Node6</title>
<g id="a_node6"><a xlink:href="class_point.html#a9cff645d17a17081494fca956d43102a" target="_top" xlink:title="Point::projectionOnSegment">
<polygon fill="none" stroke="black" points="93,-152.5 93,-171.5 232,-171.5 232,-152.5 93,-152.5"/>
<text text-anchor="middle" x="162.5" y="-159.5" font-family="Helvetica,sans-Serif" font-size="10.00">Point::projectionOnSegment</text>
</a>
</g>
</g>
<!-- Node1&#45;&gt;Node6 -->
<g id="edge5" class="edge"><title>Node1&#45;&gt;Node6</title>
<path fill="none" stroke="midnightblue" d="M60.3045,-147.81C70.4996,-149.24 82.0434,-150.858 93.5934,-152.478"/>
<polygon fill="midnightblue" stroke="midnightblue" points="60.6139,-144.319 50.2247,-146.397 59.6418,-151.252 60.6139,-144.319"/>
</g>
<!-- Node9 -->
<g id="node9" class="node"><title>Node9</title>
<g id="a_node9"><a xlink:href="class_point.html#a364091762d6aa1aa5983d36fd7d8b6d5" target="_top" xlink:title="Point Class&#39;s Destructor. ">
<polygon fill="none" stroke="black" points="305.5,-114.5 305.5,-133.5 379.5,-133.5 379.5,-114.5 305.5,-114.5"/>
<text text-anchor="middle" x="342.5" y="-121.5" font-family="Helvetica,sans-Serif" font-size="10.00">Point::~Point</text>
</a>
</g>
</g>
<!-- Node1&#45;&gt;Node9 -->
<g id="edge12" class="edge"><title>Node1&#45;&gt;Node9</title>
<path fill="none" stroke="midnightblue" d="M60.3406,-140.932C120.422,-137.314 244.041,-129.869 305.363,-126.176"/>
<polygon fill="midnightblue" stroke="midnightblue" points="60.0044,-137.446 50.2329,-141.541 60.4252,-144.433 60.0044,-137.446"/>
</g>
<!-- Node10 -->
<g id="node10" class="node"><title>Node10</title>
<g id="a_node10"><a xlink:href="class_point.html#a6f6a42c3b4bfe6e7e5ccb502788227d6" target="_top" xlink:title="Point::setx">
<polygon fill="none" stroke="black" points="130.5,-76.5 130.5,-95.5 194.5,-95.5 194.5,-76.5 130.5,-76.5"/>
<text text-anchor="middle" x="162.5" y="-83.5" font-family="Helvetica,sans-Serif" font-size="10.00">Point::setx</text>
</a>
</g>
</g>
<!-- Node1&#45;&gt;Node10 -->
<g id="edge9" class="edge"><title>Node1&#45;&gt;Node10</title>
<path fill="none" stroke="midnightblue" d="M50.1615,-128.302C60.8953,-122.145 73.8322,-115.221 86,-110 100.156,-103.926 116.377,-98.573 130.146,-94.4727"/>
<polygon fill="midnightblue" stroke="midnightblue" points="48.2289,-125.378 41.3706,-133.454 51.768,-131.418 48.2289,-125.378"/>
</g>
<!-- Node12 -->
<g id="node12" class="node"><title>Node12</title>
<g id="a_node12"><a xlink:href="class_q_map_scene.html#a9c3b1d134cd012f2f2867bebab3dc09e" target="_top" xlink:title="QMapScene::onSignalAllPoints">
<polygon fill="none" stroke="black" points="86,-38.5 86,-57.5 239,-57.5 239,-38.5 86,-38.5"/>
<text text-anchor="middle" x="162.5" y="-45.5" font-family="Helvetica,sans-Serif" font-size="10.00">QMapScene::onSignalAllPoints</text>
</a>
</g>
</g>
<!-- Node1&#45;&gt;Node12 -->
<g id="edge13" class="edge"><title>Node1&#45;&gt;Node12</title>
<path fill="none" stroke="midnightblue" d="M35.7228,-124.667C45.9345,-107.204 63.6152,-81.4912 86,-67 92.0135,-63.107 98.7732,-60.0116 105.712,-57.5504"/>
<polygon fill="midnightblue" stroke="midnightblue" points="32.6665,-122.962 30.8356,-133.397 38.7745,-126.381 32.6665,-122.962"/>
</g>
<!-- Node13 -->
<g id="node13" class="node"><title>Node13</title>
<g id="a_node13"><a xlink:href="class_solver.html#a2abdc34ec29d4301a7219375f6e5ec84" target="_top" xlink:title="Solver::onSignalNeighbours">
<polygon fill="none" stroke="black" points="94,-0.5 94,-19.5 231,-19.5 231,-0.5 94,-0.5"/>
<text text-anchor="middle" x="162.5" y="-7.5" font-family="Helvetica,sans-Serif" font-size="10.00">Solver::onSignalNeighbours</text>
</a>
</g>
</g>
<!-- Node1&#45;&gt;Node13 -->
<g id="edge14" class="edge"><title>Node1&#45;&gt;Node13</title>
<path fill="none" stroke="midnightblue" d="M30.8672,-123.634C38.3263,-98.0278 55.081,-53.3164 86,-29 90.8872,-25.1564 96.4557,-22.0807 102.303,-19.6209"/>
<polygon fill="midnightblue" stroke="midnightblue" points="27.4792,-122.755 28.2253,-133.323 34.2327,-124.596 27.4792,-122.755"/>
</g>
<!-- Node3 -->
<g id="node3" class="node"><title>Node3</title>
<g id="a_node3"><a xlink:href="class_box.html#ad1025ca7dfb54b3ce438306fe322d3ae" target="_top" xlink:title="Box::Box">
<polygon fill="none" stroke="black" points="314,-266.5 314,-285.5 371,-285.5 371,-266.5 314,-266.5"/>
<text text-anchor="middle" x="342.5" y="-273.5" font-family="Helvetica,sans-Serif" font-size="10.00">Box::Box</text>
</a>
</g>
</g>
<!-- Node2&#45;&gt;Node3 -->
<g id="edge2" class="edge"><title>Node2&#45;&gt;Node3</title>
<path fill="none" stroke="midnightblue" d="M228.109,-276C257.571,-276 290.897,-276 313.755,-276"/>
<polygon fill="midnightblue" stroke="midnightblue" points="227.873,-272.5 217.873,-276 227.873,-279.5 227.873,-272.5"/>
</g>
<!-- Node7 -->
<g id="node7" class="node"><title>Node7</title>
<g id="a_node7"><a xlink:href="class_grid.html#ac4e7d17f7ac28247f6cbd55d4ae0fee8" target="_top" xlink:title="Grid::getProjectedPointAnd\lDistance">
<polygon fill="none" stroke="black" points="275,-153 275,-183 410,-183 410,-153 275,-153"/>
<text text-anchor="start" x="283" y="-171" font-family="Helvetica,sans-Serif" font-size="10.00">Grid::getProjectedPointAnd</text>
<text text-anchor="middle" x="342.5" y="-160" font-family="Helvetica,sans-Serif" font-size="10.00">Distance</text>
</a>
</g>
</g>
<!-- Node6&#45;&gt;Node7 -->
<g id="edge6" class="edge"><title>Node6&#45;&gt;Node7</title>
<path fill="none" stroke="midnightblue" d="M242.345,-164.658C253.153,-165.022 264.165,-165.393 274.729,-165.749"/>
<polygon fill="midnightblue" stroke="midnightblue" points="242.177,-161.15 232.065,-164.311 241.941,-168.146 242.177,-161.15"/>
</g>
<!-- Node6&#45;&gt;Node9 -->
<g id="edge8" class="edge"><title>Node6&#45;&gt;Node9</title>
<path fill="none" stroke="midnightblue" d="M218.545,-150.249C246.764,-144.224 280.341,-137.056 305.271,-131.734"/>
<polygon fill="midnightblue" stroke="midnightblue" points="217.466,-146.9 208.417,-152.411 218.927,-153.746 217.466,-146.9"/>
</g>
<!-- Node8 -->
<g id="node8" class="node"><title>Node8</title>
<g id="a_node8"><a xlink:href="class_grid.html#afc6f21c3514d66d3ce16765ccb97411e" target="_top" xlink:title="Grid::computeDistanceFraction">
<polygon fill="none" stroke="black" points="446,-158.5 446,-177.5 598,-177.5 598,-158.5 446,-158.5"/>
<text text-anchor="middle" x="522" y="-165.5" font-family="Helvetica,sans-Serif" font-size="10.00">Grid::computeDistanceFraction</text>
</a>
</g>
</g>
<!-- Node7&#45;&gt;Node8 -->
<g id="edge7" class="edge"><title>Node7&#45;&gt;Node8</title>
<path fill="none" stroke="midnightblue" d="M420.367,-168C428.863,-168 437.506,-168 445.978,-168"/>
<polygon fill="midnightblue" stroke="midnightblue" points="420.099,-164.5 410.099,-168 420.099,-171.5 420.099,-164.5"/>
</g>
<!-- Node10&#45;&gt;Node9 -->
<g id="edge11" class="edge"><title>Node10&#45;&gt;Node9</title>
<path fill="none" stroke="midnightblue" d="M204.391,-94.7295C234.853,-101.233 276.065,-110.031 305.332,-116.279"/>
<polygon fill="midnightblue" stroke="midnightblue" points="205.016,-91.2841 194.505,-92.6191 203.554,-98.1298 205.016,-91.2841"/>
</g>
<!-- Node11 -->
<g id="node11" class="node"><title>Node11</title>
<g id="a_node11"><a xlink:href="class_k_d_tree.html#a8f658d6d9211976a26b0f60471880e4a" target="_top" xlink:title="KDTree::KDTree">
<polygon fill="none" stroke="black" points="297.5,-76.5 297.5,-95.5 387.5,-95.5 387.5,-76.5 297.5,-76.5"/>
<text text-anchor="middle" x="342.5" y="-83.5" font-family="Helvetica,sans-Serif" font-size="10.00">KDTree::KDTree</text>
</a>
</g>
</g>
<!-- Node10&#45;&gt;Node11 -->
<g id="edge10" class="edge"><title>Node10&#45;&gt;Node11</title>
<path fill="none" stroke="midnightblue" d="M204.654,-86C232.35,-86 268.843,-86 297.178,-86"/>
<polygon fill="midnightblue" stroke="midnightblue" points="204.505,-82.5001 194.505,-86 204.505,-89.5001 204.505,-82.5001"/>
</g>
</g>
</svg>
        <g id="navigator" transform="translate(0 0)" fill="#404254">
                <rect fill="#f2f5e9" fill-opacity="0.5" stroke="#606060" stroke-width=".5" x="0" y="0" width="60" height="60"/>
                <use id="zoomplus" xlink:href="#zoomPlus" x="17" y="9" onmousedown="handleZoom(evt,'in')"/>
                <use id="zoomminus" xlink:href="#zoomMin" x="42" y="9" onmousedown="handleZoom(evt,'out')"/>
                <use id="reset" xlink:href="#resetDef" x="30" y="36" onmousedown="handleReset()"/>
                <g id="arrowUp" xlink:href="#dirArrow" transform="translate(30 24)" onmousedown="handlePan(0,-1)">
                  <use xlink:href="#rim" fill="#404040">
                        <set attributeName="fill" to="#808080" begin="arrowUp.mouseover" end="arrowUp.mouseout"/>
                  </use>
                  <path fill="none" stroke="white" stroke-width="1.5" d="M0,-3.0v7 M-2.5,-0.5L0,-3.0L2.5,-0.5"/>
                </g>
                <g id="arrowRight" xlink:href="#dirArrow" transform="rotate(90) translate(36 -43)" onmousedown="handlePan(1,0)">
                  <use xlink:href="#rim" fill="#404040">
                        <set attributeName="fill" to="#808080" begin="arrowRight.mouseover" end="arrowRight.mouseout"/>
                  </use>
                  <path fill="none" stroke="white" stroke-width="1.5" d="M0,-3.0v7 M-2.5,-0.5L0,-3.0L2.5,-0.5"/>
                </g>
                <g id="arrowDown" xlink:href="#dirArrow" transform="rotate(180) translate(-30 -48)" onmousedown="handlePan(0,1)">
                  <use xlink:href="#rim" fill="#404040">
                        <set attributeName="fill" to="#808080" begin="arrowDown.mouseover" end="arrowDown.mouseout"/>
                  </use>
                  <path fill="none" stroke="white" stroke-width="1.5" d="M0,-3.0v7 M-2.5,-0.5L0,-3.0L2.5,-0.5"/>
                </g>
                <g id="arrowLeft" xlink:href="#dirArrow" transform="rotate(270) translate(-36 17)" onmousedown="handlePan(-1,0)">
                  <use xlink:href="#rim" fill="#404040">
                        <set attributeName="fill" to="#808080" begin="arrowLeft.mouseover" end="arrowLeft.mouseout"/>
                  </use>
                  <path fill="none" stroke="white" stroke-width="1.5" d="M0,-3.0v7 M-2.5,-0.5L0,-3.0L2.5,-0.5"/>
                </g>
        </g>
        <svg viewBox="0 0 15 15" width="100%" height="30px" preserveAspectRatio="xMaxYMin meet">
         <g id="arrow_out" transform="scale(0.3 0.3)">
          <a xlink:href="class_point_a3eef47b1c4849b3395a8f9c658ca7c4a_icgraph_org.svg" target="_base">
           <rect id="button" ry="5" rx="5" y="6" x="6" height="38" width="38"
                fill="#f2f5e9" fill-opacity="0.5" stroke="#606060" stroke-width="1.0"/>
           <path id="arrow"
             d="M 11.500037,31.436501 C 11.940474,20.09759 22.043105,11.32322 32.158766,21.979434 L 37.068811,17.246167 C 37.068811,17.246167 37.088388,32 37.088388,32 L 22.160133,31.978069 C 22.160133,31.978069 26.997745,27.140456 26.997745,27.140456 C 18.528582,18.264221 13.291696,25.230495 11.500037,31.436501 z"
             style="fill:#404040;"/>
          </a>
         </g>
        </svg>
</svg>
