<?xml version="1.0" encoding="UTF-8" standalone="no"?>
<!DOCTYPE svg PUBLIC "-//W3C//DTD SVG 1.1//EN"
 "http://www.w3.org/Graphics/SVG/1.1/DTD/svg11.dtd">
<!-- Generated by graphviz version 2.38.0 (20140413.2041)
 -->
<!-- Title: Solver::onSignalStart Pages: 1 -->
<svg width="878pt" height="313pt"
 viewBox="0.00 0.00 878.00 313.00" xmlns="http://www.w3.org/2000/svg" xmlns:xlink="http://www.w3.org/1999/xlink">
<g id="graph0" class="graph" transform="scale(1 1) rotate(0) translate(4 309)">
<title>Solver::onSignalStart</title>
<!-- Node1 -->
<g id="node1" class="node"><title>Node1</title>
<polygon fill="#bfbfbf" stroke="black" points="0,-171.5 0,-190.5 109,-190.5 109,-171.5 0,-171.5"/>
<text text-anchor="middle" x="54.5" y="-178.5" font-family="Helvetica,sans-Serif" font-size="10.00">Solver::onSignalStart</text>
</g>
<!-- Node2 -->
<g id="node2" class="node"><title>Node2</title>
<g id="a_node2"><a xlink:href="class_solver.html#a97bc7169c18b339fecd4937150f907c3" target="_top" xlink:title="Solver::start">
<polygon fill="none" stroke="black" points="145,-171.5 145,-190.5 215,-190.5 215,-171.5 145,-171.5"/>
<text text-anchor="middle" x="180" y="-178.5" font-family="Helvetica,sans-Serif" font-size="10.00">Solver::start</text>
</a>
</g>
</g>
<!-- Node1&#45;&gt;Node2 -->
<g id="edge1" class="edge"><title>Node1&#45;&gt;Node2</title>
<path fill="none" stroke="midnightblue" d="M109.31,-181C117.811,-181 126.516,-181 134.766,-181"/>
<polygon fill="midnightblue" stroke="midnightblue" points="134.924,-184.5 144.924,-181 134.924,-177.5 134.924,-184.5"/>
</g>
<!-- Node3 -->
<g id="node3" class="node"><title>Node3</title>
<g id="a_node3"><a xlink:href="class_track.html#aff258a8c303ee8a09a962d237f3823e7" target="_top" xlink:title="Reads a csv file and inserts each point in m_points vector. ">
<polygon fill="none" stroke="black" points="261.5,-266.5 261.5,-285.5 371.5,-285.5 371.5,-266.5 261.5,-266.5"/>
<text text-anchor="middle" x="316.5" y="-273.5" font-family="Helvetica,sans-Serif" font-size="10.00">Track::readFromCSV</text>
</a>
</g>
</g>
<!-- Node2&#45;&gt;Node3 -->
<g id="edge2" class="edge"><title>Node2&#45;&gt;Node3</title>
<path fill="none" stroke="midnightblue" d="M187.307,-190.726C198.295,-206.896 222.516,-239.282 251,-257 254.361,-259.091 257.963,-260.961 261.683,-262.632"/>
<polygon fill="midnightblue" stroke="midnightblue" points="260.52,-265.936 271.105,-266.39 263.113,-259.434 260.52,-265.936"/>
</g>
<!-- Node7 -->
<g id="node7" class="node"><title>Node7</title>
<g id="a_node7"><a xlink:href="class_track.html#ad262a30c2abcd29cf4cdc04facd290ee" target="_top" xlink:title="Track::getPointsAsPointer">
<polygon fill="none" stroke="black" points="251,-228.5 251,-247.5 382,-247.5 382,-228.5 251,-228.5"/>
<text text-anchor="middle" x="316.5" y="-235.5" font-family="Helvetica,sans-Serif" font-size="10.00">Track::getPointsAsPointer</text>
</a>
</g>
</g>
<!-- Node2&#45;&gt;Node7 -->
<g id="edge6" class="edge"><title>Node2&#45;&gt;Node7</title>
<path fill="none" stroke="midnightblue" d="M196.381,-190.58C210.263,-198.924 231.447,-210.919 251,-219 256.529,-221.285 262.43,-223.417 268.331,-225.365"/>
<polygon fill="midnightblue" stroke="midnightblue" points="267.609,-228.807 278.198,-228.465 269.707,-222.128 267.609,-228.807"/>
</g>
<!-- Node8 -->
<g id="node8" class="node"><title>Node8</title>
<g id="a_node8"><a xlink:href="class_track.html#abf3b02de2c94d38c6a79b7c932aa6c5b" target="_top" xlink:title="Return a string containing information about the content of this object. ">
<polygon fill="none" stroke="black" points="282.5,-190.5 282.5,-209.5 350.5,-209.5 350.5,-190.5 282.5,-190.5"/>
<text text-anchor="middle" x="316.5" y="-197.5" font-family="Helvetica,sans-Serif" font-size="10.00">Track::infos</text>
</a>
</g>
</g>
<!-- Node2&#45;&gt;Node8 -->
<g id="edge7" class="edge"><title>Node2&#45;&gt;Node8</title>
<path fill="none" stroke="midnightblue" d="M215.288,-185.844C232.625,-188.293 253.844,-191.29 272.286,-193.895"/>
<polygon fill="midnightblue" stroke="midnightblue" points="271.813,-197.363 282.204,-195.297 272.792,-190.432 271.813,-197.363"/>
</g>
<!-- Node9 -->
<g id="node9" class="node"><title>Node9</title>
<g id="a_node9"><a xlink:href="class_grid.html#ae848f1c59c544adc1af9133409ee0106" target="_top" xlink:title="Reads a csv file and inserts info into the corresponding attributs. ">
<polygon fill="none" stroke="black" points="265,-152.5 265,-171.5 368,-171.5 368,-152.5 265,-152.5"/>
<text text-anchor="middle" x="316.5" y="-159.5" font-family="Helvetica,sans-Serif" font-size="10.00">Grid::readFromCSV</text>
</a>
</g>
</g>
<!-- Node2&#45;&gt;Node9 -->
<g id="edge8" class="edge"><title>Node2&#45;&gt;Node9</title>
<path fill="none" stroke="midnightblue" d="M215.288,-176.156C227.258,-174.465 241.079,-172.513 254.559,-170.609"/>
<polygon fill="midnightblue" stroke="midnightblue" points="255.352,-174.032 264.764,-169.167 254.373,-167.1 255.352,-174.032"/>
</g>
<!-- Node20 -->
<g id="node20" class="node"><title>Node20</title>
<g id="a_node20"><a xlink:href="class_grid.html#a37103de283959ce994c5c76113b7b033" target="_top" xlink:title="Grid::infos">
<polygon fill="none" stroke="black" points="285.5,-114.5 285.5,-133.5 347.5,-133.5 347.5,-114.5 285.5,-114.5"/>
<text text-anchor="middle" x="316.5" y="-121.5" font-family="Helvetica,sans-Serif" font-size="10.00">Grid::infos</text>
</a>
</g>
</g>
<!-- Node2&#45;&gt;Node20 -->
<g id="edge20" class="edge"><title>Node2&#45;&gt;Node20</title>
<path fill="none" stroke="midnightblue" d="M196.381,-171.42C210.263,-163.076 231.447,-151.081 251,-143 258.747,-139.798 267.222,-136.898 275.408,-134.382"/>
<polygon fill="midnightblue" stroke="midnightblue" points="276.574,-137.687 285.181,-131.509 274.6,-130.971 276.574,-137.687"/>
</g>
<!-- Node21 -->
<g id="node21" class="node"><title>Node21</title>
<g id="a_node21"><a xlink:href="class_grid.html#aea292f48c96b2e9d1abee08040cd3833" target="_top" xlink:title="buildMarkovMatrix ">
<polygon fill="none" stroke="black" points="256.5,-76.5 256.5,-95.5 376.5,-95.5 376.5,-76.5 256.5,-76.5"/>
<text text-anchor="middle" x="316.5" y="-83.5" font-family="Helvetica,sans-Serif" font-size="10.00">Grid::buildMarkovMatrix</text>
</a>
</g>
</g>
<!-- Node2&#45;&gt;Node21 -->
<g id="edge21" class="edge"><title>Node2&#45;&gt;Node21</title>
<path fill="none" stroke="midnightblue" d="M187.307,-171.274C198.295,-155.104 222.516,-122.718 251,-105 254.361,-102.909 257.963,-101.039 261.683,-99.3678"/>
<polygon fill="midnightblue" stroke="midnightblue" points="263.113,-102.566 271.105,-95.6103 260.52,-96.0638 263.113,-102.566"/>
</g>
<!-- Node4 -->
<g id="node4" class="node"><title>Node4</title>
<g id="a_node4"><a xlink:href="class_track.html#ab0315e74b9b49e40d163a2ff978d833c" target="_top" xlink:title="Creates a new point and inserts it in m_points. ">
<polygon fill="none" stroke="black" points="446,-285.5 446,-304.5 532,-304.5 532,-285.5 446,-285.5"/>
<text text-anchor="middle" x="489" y="-292.5" font-family="Helvetica,sans-Serif" font-size="10.00">Track::addPoint</text>
</a>
</g>
</g>
<!-- Node3&#45;&gt;Node4 -->
<g id="edge3" class="edge"><title>Node3&#45;&gt;Node4</title>
<path fill="none" stroke="midnightblue" d="M371.916,-282.064C392.425,-284.349 415.687,-286.942 435.972,-289.202"/>
<polygon fill="midnightblue" stroke="midnightblue" points="435.646,-292.687 445.972,-290.317 436.421,-285.73 435.646,-292.687"/>
</g>
<!-- Node6 -->
<g id="node6" class="node"><title>Node6</title>
<g id="a_node6"><a xlink:href="class_track.html#aac5002af6aa69a20101a5709dbbebc82" target="_top" xlink:title="Apply a threshold to bounding box once the data file has been read. ">
<polygon fill="none" stroke="black" points="418,-247.5 418,-266.5 560,-266.5 560,-247.5 418,-247.5"/>
<text text-anchor="middle" x="489" y="-254.5" font-family="Helvetica,sans-Serif" font-size="10.00">Track::applyThresholdToBox</text>
</a>
</g>
</g>
<!-- Node3&#45;&gt;Node6 -->
<g id="edge5" class="edge"><title>Node3&#45;&gt;Node6</title>
<path fill="none" stroke="midnightblue" d="M371.916,-269.936C383.337,-268.663 395.611,-267.296 407.749,-265.943"/>
<polygon fill="midnightblue" stroke="midnightblue" points="408.341,-269.399 417.892,-264.813 407.566,-262.442 408.341,-269.399"/>
</g>
<!-- Node5 -->
<g id="node5" class="node"><title>Node5</title>
<g id="a_node5"><a xlink:href="class_track.html#af947410651d847174d7b18d8e9df9ca7" target="_top" xlink:title="Update the enclosing box of the track. ">
<polygon fill="none" stroke="black" points="630,-285.5 630,-304.5 724,-304.5 724,-285.5 630,-285.5"/>
<text text-anchor="middle" x="677" y="-292.5" font-family="Helvetica,sans-Serif" font-size="10.00">Track::updateBox</text>
</a>
</g>
</g>
<!-- Node4&#45;&gt;Node5 -->
<g id="edge4" class="edge"><title>Node4&#45;&gt;Node5</title>
<path fill="none" stroke="midnightblue" d="M532.206,-295C558.076,-295 591.51,-295 619.627,-295"/>
<polygon fill="midnightblue" stroke="midnightblue" points="619.722,-298.5 629.722,-295 619.722,-291.5 619.722,-298.5"/>
</g>
<!-- Node10 -->
<g id="node10" class="node"><title>Node10</title>
<g id="a_node10"><a xlink:href="class_grid.html#a6b6af4fb2545b398b47794de576f15f5" target="_top" xlink:title="Test if a point is in the defined area of a track. ">
<polygon fill="none" stroke="black" points="445,-190.5 445,-209.5 533,-209.5 533,-190.5 445,-190.5"/>
<text text-anchor="middle" x="489" y="-197.5" font-family="Helvetica,sans-Serif" font-size="10.00">Grid::inFootPrint</text>
</a>
</g>
</g>
<!-- Node9&#45;&gt;Node10 -->
<g id="edge9" class="edge"><title>Node9&#45;&gt;Node10</title>
<path fill="none" stroke="midnightblue" d="M360.524,-171.589C383.226,-176.649 411.273,-182.9 435.274,-188.249"/>
<polygon fill="midnightblue" stroke="midnightblue" points="434.763,-191.721 445.285,-190.48 436.286,-184.888 434.763,-191.721"/>
</g>
<!-- Node11 -->
<g id="node11" class="node"><title>Node11</title>
<g id="a_node11"><a xlink:href="class_grid.html#a58233ab60f7477144af334f205606aa4" target="_top" xlink:title="Find max and min of the grid. ">
<polygon fill="none" stroke="black" points="445,-152.5 445,-171.5 533,-171.5 533,-152.5 445,-152.5"/>
<text text-anchor="middle" x="489" y="-159.5" font-family="Helvetica,sans-Serif" font-size="10.00">Grid::updateGrid</text>
</a>
</g>
</g>
<!-- Node9&#45;&gt;Node11 -->
<g id="edge10" class="edge"><title>Node9&#45;&gt;Node11</title>
<path fill="none" stroke="midnightblue" d="M368.194,-162C389.199,-162 413.573,-162 434.831,-162"/>
<polygon fill="midnightblue" stroke="midnightblue" points="434.989,-165.5 444.989,-162 434.989,-158.5 434.989,-165.5"/>
</g>
<!-- Node12 -->
<g id="node12" class="node"><title>Node12</title>
<g id="a_node12"><a xlink:href="class_grid.html#aba1830bc145f128d6deeed29cfb94c9f" target="_top" xlink:title="Creates a new road and inserts it in m_road. ">
<polygon fill="none" stroke="black" points="449,-114.5 449,-133.5 529,-133.5 529,-114.5 449,-114.5"/>
<text text-anchor="middle" x="489" y="-121.5" font-family="Helvetica,sans-Serif" font-size="10.00">Grid::addRoad</text>
</a>
</g>
</g>
<!-- Node9&#45;&gt;Node12 -->
<g id="edge11" class="edge"><title>Node9&#45;&gt;Node12</title>
<path fill="none" stroke="midnightblue" d="M360.524,-152.411C384.368,-147.097 414.108,-140.469 438.864,-134.951"/>
<polygon fill="midnightblue" stroke="midnightblue" points="439.784,-138.332 448.784,-132.74 438.262,-131.5 439.784,-138.332"/>
</g>
<!-- Node13 -->
<g id="node13" class="node"><title>Node13</title>
<g id="a_node13"><a xlink:href="class_point_road.html#aa1b90c3fdf8ae7a1fcd8ce6182d13287" target="_top" xlink:title="PointRoad::outputInfos">
<polygon fill="none" stroke="black" points="618.5,-228.5 618.5,-247.5 735.5,-247.5 735.5,-228.5 618.5,-228.5"/>
<text text-anchor="middle" x="677" y="-235.5" font-family="Helvetica,sans-Serif" font-size="10.00">PointRoad::outputInfos</text>
</a>
</g>
</g>
<!-- Node12&#45;&gt;Node13 -->
<g id="edge12" class="edge"><title>Node12&#45;&gt;Node13</title>
<path fill="none" stroke="midnightblue" d="M529.164,-128.432C540.076,-131.22 551.308,-135.727 560,-143 588.665,-166.985 566.957,-195.475 596,-219 599.988,-222.23 604.434,-224.928 609.131,-227.179"/>
<polygon fill="midnightblue" stroke="midnightblue" points="607.836,-230.431 618.416,-230.98 610.487,-223.953 607.836,-230.431"/>
</g>
<!-- Node14 -->
<g id="node14" class="node"><title>Node14</title>
<g id="a_node14"><a xlink:href="class_point_road.html#ab53ccb3c883bdfd27c707901c5c658c8" target="_top" xlink:title="PointRoad::updateBelongToRoad">
<polygon fill="none" stroke="black" points="596,-190.5 596,-209.5 758,-209.5 758,-190.5 596,-190.5"/>
<text text-anchor="middle" x="677" y="-197.5" font-family="Helvetica,sans-Serif" font-size="10.00">PointRoad::updateBelongToRoad</text>
</a>
</g>
</g>
<!-- Node12&#45;&gt;Node14 -->
<g id="edge13" class="edge"><title>Node12&#45;&gt;Node14</title>
<path fill="none" stroke="midnightblue" d="M529.311,-130.658C539.754,-133.477 550.704,-137.444 560,-143 579.969,-154.936 575.843,-169.384 596,-181 599.861,-183.225 603.97,-185.19 608.21,-186.925"/>
<polygon fill="midnightblue" stroke="midnightblue" points="607.058,-190.231 617.652,-190.369 609.457,-183.655 607.058,-190.231"/>
</g>
<!-- Node15 -->
<g id="node15" class="node"><title>Node15</title>
<g id="a_node15"><a xlink:href="class_point_road.html#a998665db2d7e4fc4935ef95df092ff2b" target="_top" xlink:title="PointRoad::setid">
<polygon fill="none" stroke="black" points="632.5,-152.5 632.5,-171.5 721.5,-171.5 721.5,-152.5 632.5,-152.5"/>
<text text-anchor="middle" x="677" y="-159.5" font-family="Helvetica,sans-Serif" font-size="10.00">PointRoad::setid</text>
</a>
</g>
</g>
<!-- Node12&#45;&gt;Node15 -->
<g id="edge14" class="edge"><title>Node12&#45;&gt;Node15</title>
<path fill="none" stroke="midnightblue" d="M529.446,-132.059C556.441,-137.574 592.57,-144.955 622.2,-151.009"/>
<polygon fill="midnightblue" stroke="midnightblue" points="621.886,-154.517 632.384,-153.089 623.287,-147.658 621.886,-154.517"/>
</g>
<!-- Node16 -->
<g id="node16" class="node"><title>Node16</title>
<g id="a_node16"><a xlink:href="class_point_road.html#a81372f2c2c0fe1084fa2397289518124" target="_top" xlink:title="PointRoad::id">
<polygon fill="none" stroke="black" points="794,-133.5 794,-152.5 870,-152.5 870,-133.5 794,-133.5"/>
<text text-anchor="middle" x="832" y="-140.5" font-family="Helvetica,sans-Serif" font-size="10.00">PointRoad::id</text>
</a>
</g>
</g>
<!-- Node12&#45;&gt;Node16 -->
<g id="edge17" class="edge"><title>Node12&#45;&gt;Node16</title>
<path fill="none" stroke="midnightblue" d="M529.117,-126.18C592.053,-129.686 715.588,-136.569 783.491,-140.353"/>
<polygon fill="midnightblue" stroke="midnightblue" points="783.714,-143.871 793.894,-140.932 784.104,-136.881 783.714,-143.871"/>
</g>
<!-- Node17 -->
<g id="node17" class="node"><title>Node17</title>
<g id="a_node17"><a xlink:href="class_point_road.html#ae83941b37b026758fdd7974b4b186fbc" target="_top" xlink:title="PointRoad::isNode">
<polygon fill="none" stroke="black" points="627.5,-76.5 627.5,-95.5 726.5,-95.5 726.5,-76.5 627.5,-76.5"/>
<text text-anchor="middle" x="677" y="-83.5" font-family="Helvetica,sans-Serif" font-size="10.00">PointRoad::isNode</text>
</a>
</g>
</g>
<!-- Node12&#45;&gt;Node17 -->
<g id="edge16" class="edge"><title>Node12&#45;&gt;Node17</title>
<path fill="none" stroke="midnightblue" d="M529.446,-115.941C555.583,-110.601 590.281,-103.512 619.354,-97.5729"/>
<polygon fill="midnightblue" stroke="midnightblue" points="620.282,-100.956 629.379,-95.5246 618.881,-94.0972 620.282,-100.956"/>
</g>
<!-- Node18 -->
<g id="node18" class="node"><title>Node18</title>
<g id="a_node18"><a xlink:href="class_road.html#a7f97b4f20c598103baad510b19a0c0b5" target="_top" xlink:title="Add a point to the road. ">
<polygon fill="none" stroke="black" points="635,-38.5 635,-57.5 719,-57.5 719,-38.5 635,-38.5"/>
<text text-anchor="middle" x="677" y="-45.5" font-family="Helvetica,sans-Serif" font-size="10.00">Road::addPoint</text>
</a>
</g>
</g>
<!-- Node12&#45;&gt;Node18 -->
<g id="edge18" class="edge"><title>Node12&#45;&gt;Node18</title>
<path fill="none" stroke="midnightblue" d="M529.311,-117.342C539.754,-114.523 550.704,-110.556 560,-105 579.969,-93.0642 575.843,-78.6161 596,-67 604.812,-61.9215 614.917,-58.1981 624.911,-55.4689"/>
<polygon fill="midnightblue" stroke="midnightblue" points="625.928,-58.8236 634.816,-53.0578 624.272,-52.0222 625.928,-58.8236"/>
</g>
<!-- Node19 -->
<g id="node19" class="node"><title>Node19</title>
<g id="a_node19"><a xlink:href="class_road.html#ad6715392969e36eb10efac542519755c" target="_top" xlink:title="Get the id of the road. ">
<polygon fill="none" stroke="black" points="639.5,-0.5 639.5,-19.5 714.5,-19.5 714.5,-0.5 639.5,-0.5"/>
<text text-anchor="middle" x="677" y="-7.5" font-family="Helvetica,sans-Serif" font-size="10.00">Road::edgeId</text>
</a>
</g>
</g>
<!-- Node12&#45;&gt;Node19 -->
<g id="edge19" class="edge"><title>Node12&#45;&gt;Node19</title>
<path fill="none" stroke="midnightblue" d="M529.164,-119.568C540.076,-116.78 551.308,-112.273 560,-105 588.665,-81.0155 566.957,-52.5248 596,-29 605.446,-21.3487 617.46,-16.6853 629.288,-13.8686"/>
<polygon fill="midnightblue" stroke="midnightblue" points="629.995,-17.2967 639.12,-11.9119 628.629,-10.4313 629.995,-17.2967"/>
</g>
<!-- Node15&#45;&gt;Node16 -->
<g id="edge15" class="edge"><title>Node15&#45;&gt;Node16</title>
<path fill="none" stroke="midnightblue" d="M721.844,-156.555C741.244,-154.146 764.094,-151.309 783.861,-148.854"/>
<polygon fill="midnightblue" stroke="midnightblue" points="784.39,-152.315 793.882,-147.609 783.527,-145.369 784.39,-152.315"/>
</g>
<!-- Node22 -->
<g id="node22" class="node"><title>Node22</title>
<g id="a_node22"><a xlink:href="class_grid.html#a54c76e927f8428bca87520d8ca310bec" target="_top" xlink:title="Grid::getRoadEntry">
<polygon fill="none" stroke="black" points="438.5,-76.5 438.5,-95.5 539.5,-95.5 539.5,-76.5 438.5,-76.5"/>
<text text-anchor="middle" x="489" y="-83.5" font-family="Helvetica,sans-Serif" font-size="10.00">Grid::getRoadEntry</text>
</a>
</g>
</g>
<!-- Node21&#45;&gt;Node22 -->
<g id="edge22" class="edge"><title>Node21&#45;&gt;Node22</title>
<path fill="none" stroke="midnightblue" d="M376.654,-86C393.301,-86 411.417,-86 428.106,-86"/>
<polygon fill="midnightblue" stroke="midnightblue" points="428.288,-89.5001 438.288,-86 428.288,-82.5001 428.288,-89.5001"/>
</g>
</g>
</svg>
