<?xml version="1.0" encoding="UTF-8" standalone="no"?>
<!DOCTYPE svg PUBLIC "-//W3C//DTD SVG 1.1//EN"
 "http://www.w3.org/Graphics/SVG/1.1/DTD/svg11.dtd">
<!-- Generated by graphviz version 2.38.0 (20140413.2041)
 -->
<!-- Title: Road::edgeId Pages: 1 -->
<svg width="1121pt" height="183pt"
 viewBox="0.00 0.00 1121.00 182.78" xmlns="http://www.w3.org/2000/svg" xmlns:xlink="http://www.w3.org/1999/xlink">
<g id="graph0" class="graph" transform="scale(1 1) rotate(0) translate(4 178.778)">
<title>Road::edgeId</title>
<!-- Node1 -->
<g id="node1" class="node"><title>Node1</title>
<polygon fill="#bfbfbf" stroke="black" points="0,-41.2776 0,-60.2776 75,-60.2776 75,-41.2776 0,-41.2776"/>
<text text-anchor="middle" x="37.5" y="-48.2776" font-family="Helvetica,sans-Serif" font-size="10.00">Road::edgeId</text>
</g>
<!-- Node2 -->
<g id="node2" class="node"><title>Node2</title>
<g id="a_node2"><a xlink:href="class_grid.html#aba1830bc145f128d6deeed29cfb94c9f" target="_top" xlink:title="Creates a new road and inserts it in m_road. ">
<polygon fill="none" stroke="black" points="148,-98.2776 148,-117.278 228,-117.278 228,-98.2776 148,-98.2776"/>
<text text-anchor="middle" x="188" y="-105.278" font-family="Helvetica,sans-Serif" font-size="10.00">Grid::addRoad</text>
</a>
</g>
</g>
<!-- Node1&#45;&gt;Node2 -->
<g id="edge1" class="edge"><title>Node1&#45;&gt;Node2</title>
<path fill="none" stroke="midnightblue" d="M62.9421,-65.4557C76.6896,-73.2291 94.3828,-82.4492 111,-88.7776 122.693,-93.2308 135.797,-96.9371 147.788,-99.8582"/>
<polygon fill="midnightblue" stroke="midnightblue" points="64.5266,-62.3291 54.1166,-60.3587 61.0257,-68.3908 64.5266,-62.3291"/>
</g>
<!-- Node14 -->
<g id="node14" class="node"><title>Node14</title>
<g id="a_node14"><a xlink:href="class_q_map_scene.html#a488091d99db8ab3daf8f4fe610e520b6" target="_top" xlink:title="QMapScene::onSignalAllRoads">
<polygon fill="none" stroke="black" points="111,-60.2776 111,-79.2776 265,-79.2776 265,-60.2776 111,-60.2776"/>
<text text-anchor="middle" x="188" y="-67.2776" font-family="Helvetica,sans-Serif" font-size="10.00">QMapScene::onSignalAllRoads</text>
</a>
</g>
</g>
<!-- Node1&#45;&gt;Node14 -->
<g id="edge13" class="edge"><title>Node1&#45;&gt;Node14</title>
<path fill="none" stroke="midnightblue" d="M85.1923,-56.7517C93.9618,-57.8737 103.329,-59.0722 112.697,-60.2709"/>
<polygon fill="midnightblue" stroke="midnightblue" points="85.5712,-53.2717 75.2079,-55.4742 84.6828,-60.2151 85.5712,-53.2717"/>
</g>
<!-- Node15 -->
<g id="node15" class="node"><title>Node15</title>
<g id="a_node15"><a xlink:href="class_solver.html#ac93808d9f79208e9917830d0ff0a5dfd" target="_top" xlink:title="setDistance Calculate distance between GPS point et Road ">
<polygon fill="none" stroke="black" points="136.5,-22.2776 136.5,-41.2776 239.5,-41.2776 239.5,-22.2776 136.5,-22.2776"/>
<text text-anchor="middle" x="188" y="-29.2776" font-family="Helvetica,sans-Serif" font-size="10.00">Solver::setDistance</text>
</a>
</g>
</g>
<!-- Node1&#45;&gt;Node15 -->
<g id="edge14" class="edge"><title>Node1&#45;&gt;Node15</title>
<path fill="none" stroke="midnightblue" d="M85.5301,-44.7603C101.738,-42.6866 119.954,-40.3559 136.432,-38.2476"/>
<polygon fill="midnightblue" stroke="midnightblue" points="84.6828,-41.3401 75.2079,-46.081 85.5712,-48.2835 84.6828,-41.3401"/>
</g>
<!-- Node16 -->
<g id="node16" class="node"><title>Node16</title>
<g id="a_node16"><a xlink:href="class_solver.html#a2abdc34ec29d4301a7219375f6e5ec84" target="_top" xlink:title="Solver::onSignalNeighbours">
<polygon fill="none" stroke="black" points="301,-3.27761 301,-22.2776 438,-22.2776 438,-3.27761 301,-3.27761"/>
<text text-anchor="middle" x="369.5" y="-10.2776" font-family="Helvetica,sans-Serif" font-size="10.00">Solver::onSignalNeighbours</text>
</a>
</g>
</g>
<!-- Node1&#45;&gt;Node16 -->
<g id="edge16" class="edge"><title>Node1&#45;&gt;Node16</title>
<path fill="none" stroke="midnightblue" d="M60.6058,-35.5917C74.4156,-27.0459 92.9493,-17.2214 111,-12.7776 173.943,2.71798 248.193,0.659974 300.749,-4.03793"/>
<polygon fill="midnightblue" stroke="midnightblue" points="58.3759,-32.8648 51.8638,-41.222 62.1662,-38.7498 58.3759,-32.8648"/>
</g>
<!-- Node3 -->
<g id="node3" class="node"><title>Node3</title>
<g id="a_node3"><a xlink:href="class_grid.html#ae848f1c59c544adc1af9133409ee0106" target="_top" xlink:title="Reads a csv file and inserts info into the corresponding attributs. ">
<polygon fill="none" stroke="black" points="318,-98.2776 318,-117.278 421,-117.278 421,-98.2776 318,-98.2776"/>
<text text-anchor="middle" x="369.5" y="-105.278" font-family="Helvetica,sans-Serif" font-size="10.00">Grid::readFromCSV</text>
</a>
</g>
</g>
<!-- Node2&#45;&gt;Node3 -->
<g id="edge2" class="edge"><title>Node2&#45;&gt;Node3</title>
<path fill="none" stroke="midnightblue" d="M238.632,-107.778C263.321,-107.778 293.11,-107.778 317.927,-107.778"/>
<polygon fill="midnightblue" stroke="midnightblue" points="238.392,-104.278 228.392,-107.778 238.392,-111.278 238.392,-104.278"/>
</g>
<!-- Node4 -->
<g id="node4" class="node"><title>Node4</title>
<g id="a_node4"><a xlink:href="main_8cpp.html#a640261e473790d1a87c2f33332460793" target="_top" xlink:title="dev_grid">
<polygon fill="none" stroke="black" points="495,-155.278 495,-174.278 548,-174.278 548,-155.278 495,-155.278"/>
<text text-anchor="middle" x="521.5" y="-162.278" font-family="Helvetica,sans-Serif" font-size="10.00">dev_grid</text>
</a>
</g>
</g>
<!-- Node3&#45;&gt;Node4 -->
<g id="edge3" class="edge"><title>Node3&#45;&gt;Node4</title>
<path fill="none" stroke="midnightblue" d="M405.245,-120.981C432.787,-131.447 470.622,-145.824 495.311,-155.206"/>
<polygon fill="midnightblue" stroke="midnightblue" points="406.198,-117.599 395.607,-117.318 403.711,-124.142 406.198,-117.599"/>
</g>
<!-- Node5 -->
<g id="node5" class="node"><title>Node5</title>
<g id="a_node5"><a xlink:href="main_8cpp.html#a141063eccadf0e03662d414d897d9f5d" target="_top" xlink:title="dev_gridAndTrack">
<polygon fill="none" stroke="black" points="474,-117.278 474,-136.278 569,-136.278 569,-117.278 474,-117.278"/>
<text text-anchor="middle" x="521.5" y="-124.278" font-family="Helvetica,sans-Serif" font-size="10.00">dev_gridAndTrack</text>
</a>
</g>
</g>
<!-- Node3&#45;&gt;Node5 -->
<g id="edge4" class="edge"><title>Node3&#45;&gt;Node5</title>
<path fill="none" stroke="midnightblue" d="M431.426,-115.495C445.565,-117.286 460.395,-119.164 473.81,-120.864"/>
<polygon fill="midnightblue" stroke="midnightblue" points="431.644,-111.995 421.283,-114.21 430.764,-118.939 431.644,-111.995"/>
</g>
<!-- Node6 -->
<g id="node6" class="node"><title>Node6</title>
<g id="a_node6"><a xlink:href="class_solver.html#a97bc7169c18b339fecd4937150f907c3" target="_top" xlink:title="Solver::start">
<polygon fill="none" stroke="black" points="486.5,-79.2776 486.5,-98.2776 556.5,-98.2776 556.5,-79.2776 486.5,-79.2776"/>
<text text-anchor="middle" x="521.5" y="-86.2776" font-family="Helvetica,sans-Serif" font-size="10.00">Solver::start</text>
</a>
</g>
</g>
<!-- Node3&#45;&gt;Node6 -->
<g id="edge5" class="edge"><title>Node3&#45;&gt;Node6</title>
<path fill="none" stroke="midnightblue" d="M431.249,-100.083C450.007,-97.7067 470,-95.1742 486.298,-93.1098"/>
<polygon fill="midnightblue" stroke="midnightblue" points="430.764,-96.6161 421.283,-101.345 431.644,-103.561 430.764,-96.6161"/>
</g>
<!-- Node10 -->
<g id="node10" class="node"><title>Node10</title>
<g id="a_node10"><a xlink:href="class_solver.html#acbe7e47bcad48b8ddba95c9281c8bf23" target="_top" xlink:title="readFiles Read files : track and grid ">
<polygon fill="none" stroke="black" points="476.5,-41.2776 476.5,-60.2776 566.5,-60.2776 566.5,-41.2776 476.5,-41.2776"/>
<text text-anchor="middle" x="521.5" y="-48.2776" font-family="Helvetica,sans-Serif" font-size="10.00">Solver::readFiles</text>
</a>
</g>
</g>
<!-- Node3&#45;&gt;Node10 -->
<g id="edge9" class="edge"><title>Node3&#45;&gt;Node10</title>
<path fill="none" stroke="midnightblue" d="M405.245,-94.5746C432.787,-84.1086 470.622,-69.7314 495.311,-60.3493"/>
<polygon fill="midnightblue" stroke="midnightblue" points="403.711,-91.4131 395.607,-98.2371 406.198,-97.9566 403.711,-91.4131"/>
</g>
<!-- Node7 -->
<g id="node7" class="node"><title>Node7</title>
<g id="a_node7"><a xlink:href="main_8cpp.html#a9dd67c19acf7317c6296b63e29dcfab9" target="_top" xlink:title="dev_thread">
<polygon fill="none" stroke="black" points="642.5,-117.278 642.5,-136.278 707.5,-136.278 707.5,-117.278 642.5,-117.278"/>
<text text-anchor="middle" x="675" y="-124.278" font-family="Helvetica,sans-Serif" font-size="10.00">dev_thread</text>
</a>
</g>
</g>
<!-- Node6&#45;&gt;Node7 -->
<g id="edge6" class="edge"><title>Node6&#45;&gt;Node7</title>
<path fill="none" stroke="midnightblue" d="M566.894,-99.9128C591.093,-105.983 620.477,-113.353 642.342,-118.837"/>
<polygon fill="midnightblue" stroke="midnightblue" points="567.429,-96.4385 556.878,-97.4004 565.726,-103.228 567.429,-96.4385"/>
</g>
<!-- Node9 -->
<g id="node9" class="node"><title>Node9</title>
<g id="a_node9"><a xlink:href="class_solver.html#a323c9c0407f26a2ed3ec3ff5ed02a760" target="_top" xlink:title="Solver::onSignalStart">
<polygon fill="none" stroke="black" points="620.5,-79.2776 620.5,-98.2776 729.5,-98.2776 729.5,-79.2776 620.5,-79.2776"/>
<text text-anchor="middle" x="675" y="-86.2776" font-family="Helvetica,sans-Serif" font-size="10.00">Solver::onSignalStart</text>
</a>
</g>
</g>
<!-- Node6&#45;&gt;Node9 -->
<g id="edge8" class="edge"><title>Node6&#45;&gt;Node9</title>
<path fill="none" stroke="midnightblue" d="M566.952,-88.7776C583.706,-88.7776 602.939,-88.7776 620.439,-88.7776"/>
<polygon fill="midnightblue" stroke="midnightblue" points="566.878,-85.2777 556.878,-88.7776 566.878,-92.2777 566.878,-85.2777"/>
</g>
<!-- Node8 -->
<g id="node8" class="node"><title>Node8</title>
<g id="a_node8"><a xlink:href="main_8cpp.html#a0ddf1224851353fc92bfbff6f499fa97" target="_top" xlink:title="main">
<polygon fill="none" stroke="black" points="842.5,-117.278 842.5,-136.278 880.5,-136.278 880.5,-117.278 842.5,-117.278"/>
<text text-anchor="middle" x="861.5" y="-124.278" font-family="Helvetica,sans-Serif" font-size="10.00">main</text>
</a>
</g>
</g>
<!-- Node7&#45;&gt;Node8 -->
<g id="edge7" class="edge"><title>Node7&#45;&gt;Node8</title>
<path fill="none" stroke="midnightblue" d="M717.733,-126.778C756.774,-126.778 813.269,-126.778 842.087,-126.778"/>
<polygon fill="midnightblue" stroke="midnightblue" points="717.717,-123.278 707.717,-126.778 717.717,-130.278 717.717,-123.278"/>
</g>
<!-- Node11 -->
<g id="node11" class="node"><title>Node11</title>
<g id="a_node11"><a xlink:href="class_main_window.html#ad39bbe8ced0d3248206ac0ca6c444d55" target="_top" xlink:title="readyToNext1 Pass informations ">
<polygon fill="none" stroke="black" points="605,-41.2776 605,-60.2776 745,-60.2776 745,-41.2776 605,-41.2776"/>
<text text-anchor="middle" x="675" y="-48.2776" font-family="Helvetica,sans-Serif" font-size="10.00">MainWindow::readyToNext1</text>
</a>
</g>
</g>
<!-- Node10&#45;&gt;Node11 -->
<g id="edge10" class="edge"><title>Node10&#45;&gt;Node11</title>
<path fill="none" stroke="midnightblue" d="M576.798,-50.7776C585.915,-50.7776 595.484,-50.7776 604.915,-50.7776"/>
<polygon fill="midnightblue" stroke="midnightblue" points="576.727,-47.2777 566.727,-50.7776 576.727,-54.2777 576.727,-47.2777"/>
</g>
<!-- Node12 -->
<g id="node12" class="node"><title>Node12</title>
<g id="a_node12"><a xlink:href="class_main_window.html#af773488e0b16efe6c0fc67ad348b86b2" target="_top" xlink:title="createConnections ">
<polygon fill="none" stroke="black" points="781,-41.2776 781,-60.2776 942,-60.2776 942,-41.2776 781,-41.2776"/>
<text text-anchor="middle" x="861.5" y="-48.2776" font-family="Helvetica,sans-Serif" font-size="10.00">MainWindow::createConnections</text>
</a>
</g>
</g>
<!-- Node11&#45;&gt;Node12 -->
<g id="edge11" class="edge"><title>Node11&#45;&gt;Node12</title>
<path fill="none" stroke="midnightblue" d="M755.446,-50.7776C763.9,-50.7776 772.501,-50.7776 780.956,-50.7776"/>
<polygon fill="midnightblue" stroke="midnightblue" points="755.226,-47.2777 745.226,-50.7776 755.226,-54.2777 755.226,-47.2777"/>
</g>
<!-- Node13 -->
<g id="node13" class="node"><title>Node13</title>
<g id="a_node13"><a xlink:href="class_main_window.html#a8b244be8b7b7db1b08de2a2acb9409db" target="_top" xlink:title="MainWindow::MainWindow">
<polygon fill="none" stroke="black" points="978,-41.2776 978,-60.2776 1113,-60.2776 1113,-41.2776 978,-41.2776"/>
<text text-anchor="middle" x="1045.5" y="-48.2776" font-family="Helvetica,sans-Serif" font-size="10.00">MainWindow::MainWindow</text>
</a>
</g>
</g>
<!-- Node12&#45;&gt;Node13 -->
<g id="edge12" class="edge"><title>Node12&#45;&gt;Node13</title>
<path fill="none" stroke="midnightblue" d="M952.196,-50.7776C960.85,-50.7776 969.52,-50.7776 977.892,-50.7776"/>
<polygon fill="midnightblue" stroke="midnightblue" points="952.063,-47.2777 942.063,-50.7776 952.063,-54.2777 952.063,-47.2777"/>
</g>
<!-- Node15&#45;&gt;Node16 -->
<g id="edge15" class="edge"><title>Node15&#45;&gt;Node16</title>
<path fill="none" stroke="midnightblue" d="M249.969,-25.3241C266.382,-23.5868 284.231,-21.6974 300.978,-19.9247"/>
<polygon fill="midnightblue" stroke="midnightblue" points="249.533,-21.8505 239.957,-26.3838 250.27,-28.8116 249.533,-21.8505"/>
</g>
</g>
</svg>
