<?xml version="1.0" encoding="UTF-8" standalone="no"?>
<!DOCTYPE svg PUBLIC "-//W3C//DTD SVG 1.1//EN"
 "http://www.w3.org/Graphics/SVG/1.1/DTD/svg11.dtd">
<!-- Generated by graphviz version 2.38.0 (20140413.2041)
 -->
<!-- Title: File::shp2csv Pages: 1 -->
<svg width="495pt" height="104pt"
 viewBox="0.00 0.00 495.00 104.00" xmlns="http://www.w3.org/2000/svg" xmlns:xlink="http://www.w3.org/1999/xlink">
<g id="graph0" class="graph" transform="scale(1 1) rotate(0) translate(4 100)">
<title>File::shp2csv</title>
<!-- Node1 -->
<g id="node1" class="node"><title>Node1</title>
<polygon fill="#bfbfbf" stroke="black" points="0,-38.5 0,-57.5 75,-57.5 75,-38.5 0,-38.5"/>
<text text-anchor="middle" x="37.5" y="-45.5" font-family="Helvetica,sans-Serif" font-size="10.00">File::shp2csv</text>
</g>
<!-- Node2 -->
<g id="node2" class="node"><title>Node2</title>
<g id="a_node2"><a xlink:href="class_loading.html#a9a01f3e328100b681f3f08192fc9b208" target="_top" xlink:title="Loading::loadFileSHPTrack">
<polygon fill="none" stroke="black" points="111,-76.5 111,-95.5 247,-95.5 247,-76.5 111,-76.5"/>
<text text-anchor="middle" x="179" y="-83.5" font-family="Helvetica,sans-Serif" font-size="10.00">Loading::loadFileSHPTrack</text>
</a>
</g>
</g>
<!-- Node1&#45;&gt;Node2 -->
<g id="edge1" class="edge"><title>Node1&#45;&gt;Node2</title>
<path fill="none" stroke="midnightblue" d="M83.4564,-60.2462C102.685,-65.484 124.803,-71.5091 142.81,-76.4141"/>
<polygon fill="midnightblue" stroke="midnightblue" points="84.2701,-56.8404 73.7017,-57.589 82.4303,-63.5943 84.2701,-56.8404"/>
</g>
<!-- Node5 -->
<g id="node5" class="node"><title>Node5</title>
<g id="a_node5"><a xlink:href="class_loading.html#a84d718939a74cf1680ea3e2409324194" target="_top" xlink:title="Loading::loadFileGrid">
<polygon fill="none" stroke="black" points="125,-38.5 125,-57.5 233,-57.5 233,-38.5 125,-38.5"/>
<text text-anchor="middle" x="179" y="-45.5" font-family="Helvetica,sans-Serif" font-size="10.00">Loading::loadFileGrid</text>
</a>
</g>
</g>
<!-- Node1&#45;&gt;Node5 -->
<g id="edge4" class="edge"><title>Node1&#45;&gt;Node5</title>
<path fill="none" stroke="midnightblue" d="M85.4598,-48C98.0954,-48 111.852,-48 124.801,-48"/>
<polygon fill="midnightblue" stroke="midnightblue" points="85.152,-44.5001 75.152,-48 85.1519,-51.5001 85.152,-44.5001"/>
</g>
<!-- Node7 -->
<g id="node7" class="node"><title>Node7</title>
<g id="a_node7"><a xlink:href="main_8cpp.html#a78a67b17d4d189a7c0732ad1ac54912e" target="_top" xlink:title="dev_file">
<polygon fill="none" stroke="black" points="154,-0.5 154,-19.5 204,-19.5 204,-0.5 154,-0.5"/>
<text text-anchor="middle" x="179" y="-7.5" font-family="Helvetica,sans-Serif" font-size="10.00">dev_file</text>
</a>
</g>
</g>
<!-- Node1&#45;&gt;Node7 -->
<g id="edge7" class="edge"><title>Node1&#45;&gt;Node7</title>
<path fill="none" stroke="midnightblue" d="M83.4201,-35.7637C106.793,-29.3969 134.444,-21.8647 153.791,-16.5947"/>
<polygon fill="midnightblue" stroke="midnightblue" points="82.4303,-32.4057 73.7017,-38.411 84.2701,-39.1596 82.4303,-32.4057"/>
</g>
<!-- Node3 -->
<g id="node3" class="node"><title>Node3</title>
<g id="a_node3"><a xlink:href="class_loading.html#ab603e821bd6b047fb04285e926974ff6" target="_top" xlink:title="Loading::track">
<polygon fill="none" stroke="black" points="283,-76.5 283,-95.5 361,-95.5 361,-76.5 283,-76.5"/>
<text text-anchor="middle" x="322" y="-83.5" font-family="Helvetica,sans-Serif" font-size="10.00">Loading::track</text>
</a>
</g>
</g>
<!-- Node2&#45;&gt;Node3 -->
<g id="edge2" class="edge"><title>Node2&#45;&gt;Node3</title>
<path fill="none" stroke="midnightblue" d="M257.204,-86C266.041,-86 274.736,-86 282.727,-86"/>
<polygon fill="midnightblue" stroke="midnightblue" points="257.196,-82.5001 247.196,-86 257.196,-89.5001 257.196,-82.5001"/>
</g>
<!-- Node4 -->
<g id="node4" class="node"><title>Node4</title>
<g id="a_node4"><a xlink:href="class_loading.html#a7634c001ec052e10c402e49f5be030db" target="_top" xlink:title="Loading::Loading">
<polygon fill="none" stroke="black" points="397,-57.5 397,-76.5 487,-76.5 487,-57.5 397,-57.5"/>
<text text-anchor="middle" x="442" y="-64.5" font-family="Helvetica,sans-Serif" font-size="10.00">Loading::Loading</text>
</a>
</g>
</g>
<!-- Node3&#45;&gt;Node4 -->
<g id="edge3" class="edge"><title>Node3&#45;&gt;Node4</title>
<path fill="none" stroke="midnightblue" d="M371.358,-78.2135C379.755,-76.8614 388.45,-75.4615 396.731,-74.1281"/>
<polygon fill="midnightblue" stroke="midnightblue" points="370.628,-74.786 361.311,-79.8312 371.74,-81.697 370.628,-74.786"/>
</g>
<!-- Node6 -->
<g id="node6" class="node"><title>Node6</title>
<g id="a_node6"><a xlink:href="class_loading.html#afb0b2fe451bdc3f6f2cc186903df96b4" target="_top" xlink:title="Loading::grid">
<polygon fill="none" stroke="black" points="286,-38.5 286,-57.5 358,-57.5 358,-38.5 286,-38.5"/>
<text text-anchor="middle" x="322" y="-45.5" font-family="Helvetica,sans-Serif" font-size="10.00">Loading::grid</text>
</a>
</g>
</g>
<!-- Node5&#45;&gt;Node6 -->
<g id="edge5" class="edge"><title>Node5&#45;&gt;Node6</title>
<path fill="none" stroke="midnightblue" d="M243.35,-48C257.998,-48 273.063,-48 285.979,-48"/>
<polygon fill="midnightblue" stroke="midnightblue" points="243.306,-44.5001 233.306,-48 243.306,-51.5001 243.306,-44.5001"/>
</g>
<!-- Node6&#45;&gt;Node4 -->
<g id="edge6" class="edge"><title>Node6&#45;&gt;Node4</title>
<path fill="none" stroke="midnightblue" d="M368.014,-55.248C377.39,-56.7577 387.266,-58.3479 396.619,-59.8539"/>
<polygon fill="midnightblue" stroke="midnightblue" points="368.514,-51.7835 358.084,-53.6492 367.401,-58.6945 368.514,-51.7835"/>
</g>
</g>
</svg>
