<?xml version="1.0" encoding="UTF-8" standalone="no"?>
<!DOCTYPE svg PUBLIC "-//W3C//DTD SVG 1.1//EN"
 "http://www.w3.org/Graphics/SVG/1.1/DTD/svg11.dtd">
<!-- Generated by graphviz version 2.38.0 (20140413.2041)
 -->
<!-- Title: MainWindow::createConnections Pages: 1 -->
<svg width="1139pt" height="598pt"
 viewBox="0.00 0.00 1139.00 598.00" xmlns="http://www.w3.org/2000/svg" xmlns:xlink="http://www.w3.org/1999/xlink">
<g id="graph0" class="graph" transform="scale(1 1) rotate(0) translate(4 594)">
<title>MainWindow::createConnections</title>
<!-- Node1 -->
<g id="node1" class="node"><title>Node1</title>
<polygon fill="#bfbfbf" stroke="black" points="0,-191.5 0,-210.5 161,-210.5 161,-191.5 0,-191.5"/>
<text text-anchor="middle" x="80.5" y="-198.5" font-family="Helvetica,sans-Serif" font-size="10.00">MainWindow::createConnections</text>
</g>
<!-- Node2 -->
<g id="node2" class="node"><title>Node2</title>
<g id="a_node2"><a xlink:href="class_controller.html#ab8e345d91e901e46e0ad42a0b75ef94c" target="_top" xlink:title="Controller::addSolver">
<polygon fill="none" stroke="black" points="213,-267.5 213,-286.5 321,-286.5 321,-267.5 213,-267.5"/>
<text text-anchor="middle" x="267" y="-274.5" font-family="Helvetica,sans-Serif" font-size="10.00">Controller::addSolver</text>
</a>
</g>
</g>
<!-- Node1&#45;&gt;Node2 -->
<g id="edge1" class="edge"><title>Node1&#45;&gt;Node2</title>
<path fill="none" stroke="midnightblue" d="M98.2662,-210.539C120.346,-222.804 160.635,-244.164 197,-258 203.242,-260.375 209.904,-262.59 216.536,-264.608"/>
<polygon fill="midnightblue" stroke="midnightblue" points="215.597,-267.98 226.177,-267.419 217.556,-261.26 215.597,-267.98"/>
</g>
<!-- Node3 -->
<g id="node3" class="node"><title>Node3</title>
<g id="a_node3"><a xlink:href="class_controller.html#aa92b9a18a88aeb59c53272c3beab2724" target="_top" xlink:title="Controller::connectSignals">
<polygon fill="none" stroke="black" points="201.5,-229.5 201.5,-248.5 332.5,-248.5 332.5,-229.5 201.5,-229.5"/>
<text text-anchor="middle" x="267" y="-236.5" font-family="Helvetica,sans-Serif" font-size="10.00">Controller::connectSignals</text>
</a>
</g>
</g>
<!-- Node1&#45;&gt;Node3 -->
<g id="edge2" class="edge"><title>Node1&#45;&gt;Node3</title>
<path fill="none" stroke="midnightblue" d="M128.057,-210.589C152.843,-215.694 183.515,-222.011 209.639,-227.392"/>
<polygon fill="midnightblue" stroke="midnightblue" points="209.277,-230.891 219.778,-229.48 210.689,-224.035 209.277,-230.891"/>
</g>
<!-- Node4 -->
<g id="node4" class="node"><title>Node4</title>
<g id="a_node4"><a xlink:href="class_main_window.html#ad39bbe8ced0d3248206ac0ca6c444d55" target="_top" xlink:title="readyToNext1 Pass informations ">
<polygon fill="none" stroke="black" points="197,-191.5 197,-210.5 337,-210.5 337,-191.5 197,-191.5"/>
<text text-anchor="middle" x="267" y="-198.5" font-family="Helvetica,sans-Serif" font-size="10.00">MainWindow::readyToNext1</text>
</a>
</g>
</g>
<!-- Node1&#45;&gt;Node4 -->
<g id="edge3" class="edge"><title>Node1&#45;&gt;Node4</title>
<path fill="none" stroke="midnightblue" d="M161.083,-201C169.542,-201 178.146,-201 186.603,-201"/>
<polygon fill="midnightblue" stroke="midnightblue" points="186.826,-204.5 196.826,-201 186.826,-197.5 186.826,-204.5"/>
</g>
<!-- Node33 -->
<g id="node33" class="node"><title>Node33</title>
<g id="a_node33"><a xlink:href="class_main_window.html#ae2500bf587f9630ce61d27ca231cfd7a" target="_top" xlink:title="readyToNext2 Pass informations ">
<polygon fill="none" stroke="black" points="197,-140.5 197,-159.5 337,-159.5 337,-140.5 197,-140.5"/>
<text text-anchor="middle" x="267" y="-147.5" font-family="Helvetica,sans-Serif" font-size="10.00">MainWindow::readyToNext2</text>
</a>
</g>
</g>
<!-- Node1&#45;&gt;Node33 -->
<g id="edge37" class="edge"><title>Node1&#45;&gt;Node33</title>
<path fill="none" stroke="midnightblue" d="M116.203,-191.407C146.096,-183.144 189.413,-171.17 221.785,-162.222"/>
<polygon fill="midnightblue" stroke="midnightblue" points="222.747,-165.588 231.453,-159.55 220.881,-158.841 222.747,-165.588"/>
</g>
<!-- Node41 -->
<g id="node41" class="node"><title>Node41</title>
<g id="a_node41"><a xlink:href="class_main_window.html#a8316cc41f24ecba912fb4c2a90103be4" target="_top" xlink:title="putNone Disable next button ">
<polygon fill="none" stroke="black" points="209,-102.5 209,-121.5 325,-121.5 325,-102.5 209,-102.5"/>
<text text-anchor="middle" x="267" y="-109.5" font-family="Helvetica,sans-Serif" font-size="10.00">MainWindow::putNone</text>
</a>
</g>
</g>
<!-- Node1&#45;&gt;Node41 -->
<g id="edge46" class="edge"><title>Node1&#45;&gt;Node41</title>
<path fill="none" stroke="midnightblue" d="M94.706,-191.312C115.505,-176.452 157.593,-147.977 197,-131 202.483,-128.638 208.338,-126.493 214.233,-124.568"/>
<polygon fill="midnightblue" stroke="midnightblue" points="215.596,-127.81 224.132,-121.534 213.545,-121.118 215.596,-127.81"/>
</g>
<!-- Node5 -->
<g id="node5" class="node"><title>Node5</title>
<g id="a_node5"><a xlink:href="class_solver.html#acbe7e47bcad48b8ddba95c9281c8bf23" target="_top" xlink:title="readFiles Read files : track and grid ">
<polygon fill="none" stroke="black" points="376.5,-346.5 376.5,-365.5 466.5,-365.5 466.5,-346.5 376.5,-346.5"/>
<text text-anchor="middle" x="421.5" y="-353.5" font-family="Helvetica,sans-Serif" font-size="10.00">Solver::readFiles</text>
</a>
</g>
</g>
<!-- Node4&#45;&gt;Node5 -->
<g id="edge4" class="edge"><title>Node4&#45;&gt;Node5</title>
<path fill="none" stroke="midnightblue" d="M319.776,-210.572C325.921,-213.03 331.835,-216.119 337,-220 377.637,-250.537 402.915,-307.157 413.976,-336.789"/>
<polygon fill="midnightblue" stroke="midnightblue" points="410.746,-338.15 417.41,-346.386 417.337,-335.792 410.746,-338.15"/>
</g>
<!-- Node28 -->
<g id="node28" class="node"><title>Node28</title>
<g id="a_node28"><a xlink:href="class_grid.html#a8d8b7fa0ee20d81f130a46d80fc2a018" target="_top" xlink:title="Check if track is in grid. ">
<polygon fill="none" stroke="black" points="530,-342.5 530,-361.5 619,-361.5 619,-342.5 530,-342.5"/>
<text text-anchor="middle" x="574.5" y="-349.5" font-family="Helvetica,sans-Serif" font-size="10.00">Grid::trackInGrid</text>
</a>
</g>
</g>
<!-- Node4&#45;&gt;Node28 -->
<g id="edge28" class="edge"><title>Node4&#45;&gt;Node28</title>
<path fill="none" stroke="midnightblue" d="M309.043,-210.557C318.377,-213.208 328.147,-216.372 337,-220 419.52,-253.813 509.574,-309.974 550.708,-336.812"/>
<polygon fill="midnightblue" stroke="midnightblue" points="548.898,-339.81 559.177,-342.376 552.741,-333.96 548.898,-339.81"/>
</g>
<!-- Node6 -->
<g id="node6" class="node"><title>Node6</title>
<g id="a_node6"><a xlink:href="class_track.html#aff258a8c303ee8a09a962d237f3823e7" target="_top" xlink:title="Reads a csv file and inserts each point in m_points vector. ">
<polygon fill="none" stroke="black" points="519.5,-532.5 519.5,-551.5 629.5,-551.5 629.5,-532.5 519.5,-532.5"/>
<text text-anchor="middle" x="574.5" y="-539.5" font-family="Helvetica,sans-Serif" font-size="10.00">Track::readFromCSV</text>
</a>
</g>
</g>
<!-- Node5&#45;&gt;Node6 -->
<g id="edge5" class="edge"><title>Node5&#45;&gt;Node6</title>
<path fill="none" stroke="midnightblue" d="M429.408,-365.607C443.408,-384.961 476.32,-429.875 506,-466 523.014,-486.709 543.598,-509.595 557.527,-524.786"/>
<polygon fill="midnightblue" stroke="midnightblue" points="555.166,-527.389 564.517,-532.372 560.314,-522.646 555.166,-527.389"/>
</g>
<!-- Node10 -->
<g id="node10" class="node"><title>Node10</title>
<g id="a_node10"><a xlink:href="class_track.html#abf3b02de2c94d38c6a79b7c932aa6c5b" target="_top" xlink:title="Return a string containing information about the content of this object. ">
<polygon fill="none" stroke="black" points="540.5,-437.5 540.5,-456.5 608.5,-456.5 608.5,-437.5 540.5,-437.5"/>
<text text-anchor="middle" x="574.5" y="-444.5" font-family="Helvetica,sans-Serif" font-size="10.00">Track::infos</text>
</a>
</g>
</g>
<!-- Node5&#45;&gt;Node10 -->
<g id="edge9" class="edge"><title>Node5&#45;&gt;Node10</title>
<path fill="none" stroke="midnightblue" d="M431.237,-365.927C445.411,-381.429 474.973,-411.332 506,-428 513.631,-432.1 522.235,-435.388 530.681,-438"/>
<polygon fill="midnightblue" stroke="midnightblue" points="529.881,-441.411 540.456,-440.763 531.785,-434.675 529.881,-441.411"/>
</g>
<!-- Node11 -->
<g id="node11" class="node"><title>Node11</title>
<g id="a_node11"><a xlink:href="class_grid.html#aa2fcca933248f3c1f4361f1b7826b692" target="_top" xlink:title="Save data about our area of roads. ">
<polygon fill="none" stroke="black" points="506,-399.5 506,-418.5 643,-418.5 643,-399.5 506,-399.5"/>
<text text-anchor="middle" x="574.5" y="-406.5" font-family="Helvetica,sans-Serif" font-size="10.00">Grid::setTrackBoundingBox</text>
</a>
</g>
</g>
<!-- Node5&#45;&gt;Node11 -->
<g id="edge10" class="edge"><title>Node5&#45;&gt;Node11</title>
<path fill="none" stroke="midnightblue" d="M449.845,-365.598C474.218,-374.153 510.082,-386.741 536.918,-396.16"/>
<polygon fill="midnightblue" stroke="midnightblue" points="535.764,-399.464 546.358,-399.474 538.082,-392.859 535.764,-399.464"/>
</g>
<!-- Node16 -->
<g id="node16" class="node"><title>Node16</title>
<g id="a_node16"><a xlink:href="class_grid.html#ae848f1c59c544adc1af9133409ee0106" target="_top" xlink:title="Reads a csv file and inserts info into the corresponding attributs. ">
<polygon fill="none" stroke="black" points="523,-190.5 523,-209.5 626,-209.5 626,-190.5 523,-190.5"/>
<text text-anchor="middle" x="574.5" y="-197.5" font-family="Helvetica,sans-Serif" font-size="10.00">Grid::readFromCSV</text>
</a>
</g>
</g>
<!-- Node5&#45;&gt;Node16 -->
<g id="edge15" class="edge"><title>Node5&#45;&gt;Node16</title>
<path fill="none" stroke="midnightblue" d="M431.946,-346.242C456.945,-320.415 525.086,-250.018 556.822,-217.23"/>
<polygon fill="midnightblue" stroke="midnightblue" points="559.618,-219.374 564.058,-209.755 554.588,-214.506 559.618,-219.374"/>
</g>
<!-- Node27 -->
<g id="node27" class="node"><title>Node27</title>
<g id="a_node27"><a xlink:href="class_grid.html#a5fa1f98ecc8f485e4eee5b55b56243a0" target="_top" xlink:title="Grid::infos">
<polygon fill="none" stroke="black" points="543.5,-152.5 543.5,-171.5 605.5,-171.5 605.5,-152.5 543.5,-152.5"/>
<text text-anchor="middle" x="574.5" y="-159.5" font-family="Helvetica,sans-Serif" font-size="10.00">Grid::infos</text>
</a>
</g>
</g>
<!-- Node5&#45;&gt;Node27 -->
<g id="edge27" class="edge"><title>Node5&#45;&gt;Node27</title>
<path fill="none" stroke="midnightblue" d="M424.215,-346.342C429.973,-316.817 451.416,-226.975 506,-181 513.822,-174.412 523.778,-170.102 533.625,-167.284"/>
<polygon fill="midnightblue" stroke="midnightblue" points="534.455,-170.684 543.354,-164.934 532.812,-163.88 534.455,-170.684"/>
</g>
<!-- Node7 -->
<g id="node7" class="node"><title>Node7</title>
<g id="a_node7"><a xlink:href="class_track.html#ab0315e74b9b49e40d163a2ff978d833c" target="_top" xlink:title="Creates a new point and inserts it in m_points. ">
<polygon fill="none" stroke="black" points="707,-570.5 707,-589.5 793,-589.5 793,-570.5 707,-570.5"/>
<text text-anchor="middle" x="750" y="-577.5" font-family="Helvetica,sans-Serif" font-size="10.00">Track::addPoint</text>
</a>
</g>
</g>
<!-- Node6&#45;&gt;Node7 -->
<g id="edge6" class="edge"><title>Node6&#45;&gt;Node7</title>
<path fill="none" stroke="midnightblue" d="M619.281,-551.589C642.839,-556.749 672.052,-563.147 696.788,-568.564"/>
<polygon fill="midnightblue" stroke="midnightblue" points="696.213,-572.022 706.73,-570.742 697.711,-565.184 696.213,-572.022"/>
</g>
<!-- Node9 -->
<g id="node9" class="node"><title>Node9</title>
<g id="a_node9"><a xlink:href="class_track.html#aac5002af6aa69a20101a5709dbbebc82" target="_top" xlink:title="Apply a threshold to bounding box once the data file has been read. ">
<polygon fill="none" stroke="black" points="679,-532.5 679,-551.5 821,-551.5 821,-532.5 679,-532.5"/>
<text text-anchor="middle" x="750" y="-539.5" font-family="Helvetica,sans-Serif" font-size="10.00">Track::applyThresholdToBox</text>
</a>
</g>
</g>
<!-- Node6&#45;&gt;Node9 -->
<g id="edge8" class="edge"><title>Node6&#45;&gt;Node9</title>
<path fill="none" stroke="midnightblue" d="M629.92,-542C642.274,-542 655.649,-542 668.821,-542"/>
<polygon fill="midnightblue" stroke="midnightblue" points="668.833,-545.5 678.833,-542 668.833,-538.5 668.833,-545.5"/>
</g>
<!-- Node8 -->
<g id="node8" class="node"><title>Node8</title>
<g id="a_node8"><a xlink:href="class_track.html#af947410651d847174d7b18d8e9df9ca7" target="_top" xlink:title="Update the enclosing box of the track. ">
<polygon fill="none" stroke="black" points="891,-570.5 891,-589.5 985,-589.5 985,-570.5 891,-570.5"/>
<text text-anchor="middle" x="938" y="-577.5" font-family="Helvetica,sans-Serif" font-size="10.00">Track::updateBox</text>
</a>
</g>
</g>
<!-- Node7&#45;&gt;Node8 -->
<g id="edge7" class="edge"><title>Node7&#45;&gt;Node8</title>
<path fill="none" stroke="midnightblue" d="M793.206,-580C819.076,-580 852.51,-580 880.627,-580"/>
<polygon fill="midnightblue" stroke="midnightblue" points="880.722,-583.5 890.722,-580 880.722,-576.5 880.722,-583.5"/>
</g>
<!-- Node12 -->
<g id="node12" class="node"><title>Node12</title>
<g id="a_node12"><a xlink:href="class_grid.html#a13d6d18b26d70ab5871a8c2ddf7fa1b5" target="_top" xlink:title="Grid::xMin">
<polygon fill="none" stroke="black" points="719,-494.5 719,-513.5 781,-513.5 781,-494.5 719,-494.5"/>
<text text-anchor="middle" x="750" y="-501.5" font-family="Helvetica,sans-Serif" font-size="10.00">Grid::xMin</text>
</a>
</g>
</g>
<!-- Node11&#45;&gt;Node12 -->
<g id="edge11" class="edge"><title>Node11&#45;&gt;Node12</title>
<path fill="none" stroke="midnightblue" d="M625.762,-418.616C631.905,-421.067 637.828,-424.142 643,-428 667.016,-445.916 654.9,-467.196 679,-485 687.75,-491.464 698.566,-495.729 709.057,-498.543"/>
<polygon fill="midnightblue" stroke="midnightblue" points="708.408,-501.985 718.938,-500.821 709.98,-495.164 708.408,-501.985"/>
</g>
<!-- Node13 -->
<g id="node13" class="node"><title>Node13</title>
<g id="a_node13"><a xlink:href="class_grid.html#a5e140affdf9653d8badf596f1f151908" target="_top" xlink:title="Grid::xMax">
<polygon fill="none" stroke="black" points="717.5,-456.5 717.5,-475.5 782.5,-475.5 782.5,-456.5 717.5,-456.5"/>
<text text-anchor="middle" x="750" y="-463.5" font-family="Helvetica,sans-Serif" font-size="10.00">Grid::xMax</text>
</a>
</g>
</g>
<!-- Node11&#45;&gt;Node13 -->
<g id="edge12" class="edge"><title>Node11&#45;&gt;Node13</title>
<path fill="none" stroke="midnightblue" d="M614.874,-418.573C624.221,-421.258 634.069,-424.433 643,-428 659.801,-434.711 662.168,-440.368 679,-447 688.043,-450.563 697.997,-453.705 707.49,-456.355"/>
<polygon fill="midnightblue" stroke="midnightblue" points="706.594,-459.739 717.158,-458.937 708.399,-452.976 706.594,-459.739"/>
</g>
<!-- Node14 -->
<g id="node14" class="node"><title>Node14</title>
<g id="a_node14"><a xlink:href="class_grid.html#a6acf01d876905d8709f4fb8ebe18aa94" target="_top" xlink:title="Grid::yMin">
<polygon fill="none" stroke="black" points="719,-418.5 719,-437.5 781,-437.5 781,-418.5 719,-418.5"/>
<text text-anchor="middle" x="750" y="-425.5" font-family="Helvetica,sans-Serif" font-size="10.00">Grid::yMin</text>
</a>
</g>
</g>
<!-- Node11&#45;&gt;Node14 -->
<g id="edge13" class="edge"><title>Node11&#45;&gt;Node14</title>
<path fill="none" stroke="midnightblue" d="M643.076,-416.4C665.337,-418.838 689.37,-421.47 708.908,-423.61"/>
<polygon fill="midnightblue" stroke="midnightblue" points="708.649,-427.102 718.97,-424.711 709.411,-420.144 708.649,-427.102"/>
</g>
<!-- Node15 -->
<g id="node15" class="node"><title>Node15</title>
<g id="a_node15"><a xlink:href="class_grid.html#abfa1a601742ca69a5ecc3b6a5318d7a8" target="_top" xlink:title="Grid::yMax">
<polygon fill="none" stroke="black" points="717.5,-380.5 717.5,-399.5 782.5,-399.5 782.5,-380.5 717.5,-380.5"/>
<text text-anchor="middle" x="750" y="-387.5" font-family="Helvetica,sans-Serif" font-size="10.00">Grid::yMax</text>
</a>
</g>
</g>
<!-- Node11&#45;&gt;Node15 -->
<g id="edge14" class="edge"><title>Node11&#45;&gt;Node15</title>
<path fill="none" stroke="midnightblue" d="M643.076,-401.6C664.592,-399.244 687.764,-396.706 706.932,-394.607"/>
<polygon fill="midnightblue" stroke="midnightblue" points="707.574,-398.058 717.133,-393.49 706.812,-391.099 707.574,-398.058"/>
</g>
<!-- Node17 -->
<g id="node17" class="node"><title>Node17</title>
<g id="a_node17"><a xlink:href="class_grid.html#a6b6af4fb2545b398b47794de576f15f5" target="_top" xlink:title="Test if a point is in the defined area of a track. ">
<polygon fill="none" stroke="black" points="706,-190.5 706,-209.5 794,-209.5 794,-190.5 706,-190.5"/>
<text text-anchor="middle" x="750" y="-197.5" font-family="Helvetica,sans-Serif" font-size="10.00">Grid::inFootPrint</text>
</a>
</g>
</g>
<!-- Node16&#45;&gt;Node17 -->
<g id="edge16" class="edge"><title>Node16&#45;&gt;Node17</title>
<path fill="none" stroke="midnightblue" d="M626.15,-200C647.995,-200 673.559,-200 695.692,-200"/>
<polygon fill="midnightblue" stroke="midnightblue" points="695.922,-203.5 705.922,-200 695.922,-196.5 695.922,-203.5"/>
</g>
<!-- Node18 -->
<g id="node18" class="node"><title>Node18</title>
<g id="a_node18"><a xlink:href="class_grid.html#a58233ab60f7477144af334f205606aa4" target="_top" xlink:title="Find max and min of the grid. ">
<polygon fill="none" stroke="black" points="706,-152.5 706,-171.5 794,-171.5 794,-152.5 706,-152.5"/>
<text text-anchor="middle" x="750" y="-159.5" font-family="Helvetica,sans-Serif" font-size="10.00">Grid::updateGrid</text>
</a>
</g>
</g>
<!-- Node16&#45;&gt;Node18 -->
<g id="edge17" class="edge"><title>Node16&#45;&gt;Node18</title>
<path fill="none" stroke="midnightblue" d="M619.281,-190.411C642.574,-185.309 671.396,-178.997 695.952,-173.618"/>
<polygon fill="midnightblue" stroke="midnightblue" points="696.814,-177.013 705.834,-171.454 695.316,-170.175 696.814,-177.013"/>
</g>
<!-- Node19 -->
<g id="node19" class="node"><title>Node19</title>
<g id="a_node19"><a xlink:href="class_grid.html#aba1830bc145f128d6deeed29cfb94c9f" target="_top" xlink:title="Creates a new road and inserts it in m_road. ">
<polygon fill="none" stroke="black" points="710,-114.5 710,-133.5 790,-133.5 790,-114.5 710,-114.5"/>
<text text-anchor="middle" x="750" y="-121.5" font-family="Helvetica,sans-Serif" font-size="10.00">Grid::addRoad</text>
</a>
</g>
</g>
<!-- Node16&#45;&gt;Node19 -->
<g id="edge18" class="edge"><title>Node16&#45;&gt;Node19</title>
<path fill="none" stroke="midnightblue" d="M622.264,-190.406C629.484,-187.928 636.643,-184.84 643,-181 662.913,-168.971 659.031,-154.936 679,-143 685.391,-139.18 692.563,-136.111 699.816,-133.65"/>
<polygon fill="midnightblue" stroke="midnightblue" points="701.134,-136.908 709.689,-130.658 699.104,-130.209 701.134,-136.908"/>
</g>
<!-- Node20 -->
<g id="node20" class="node"><title>Node20</title>
<g id="a_node20"><a xlink:href="class_point_road.html#aa1b90c3fdf8ae7a1fcd8ce6182d13287" target="_top" xlink:title="PointRoad::outputInfos">
<polygon fill="none" stroke="black" points="879.5,-228.5 879.5,-247.5 996.5,-247.5 996.5,-228.5 879.5,-228.5"/>
<text text-anchor="middle" x="938" y="-235.5" font-family="Helvetica,sans-Serif" font-size="10.00">PointRoad::outputInfos</text>
</a>
</g>
</g>
<!-- Node19&#45;&gt;Node20 -->
<g id="edge19" class="edge"><title>Node19&#45;&gt;Node20</title>
<path fill="none" stroke="midnightblue" d="M790.164,-128.432C801.076,-131.22 812.308,-135.727 821,-143 849.665,-166.985 827.957,-195.475 857,-219 860.988,-222.23 865.434,-224.928 870.131,-227.179"/>
<polygon fill="midnightblue" stroke="midnightblue" points="868.836,-230.431 879.416,-230.98 871.487,-223.953 868.836,-230.431"/>
</g>
<!-- Node21 -->
<g id="node21" class="node"><title>Node21</title>
<g id="a_node21"><a xlink:href="class_point_road.html#ab53ccb3c883bdfd27c707901c5c658c8" target="_top" xlink:title="PointRoad::updateBelongToRoad">
<polygon fill="none" stroke="black" points="857,-190.5 857,-209.5 1019,-209.5 1019,-190.5 857,-190.5"/>
<text text-anchor="middle" x="938" y="-197.5" font-family="Helvetica,sans-Serif" font-size="10.00">PointRoad::updateBelongToRoad</text>
</a>
</g>
</g>
<!-- Node19&#45;&gt;Node21 -->
<g id="edge20" class="edge"><title>Node19&#45;&gt;Node21</title>
<path fill="none" stroke="midnightblue" d="M790.059,-131.095C800.502,-133.916 811.514,-137.775 821,-143 840.012,-153.472 838.128,-165.277 857,-176 864.962,-180.524 873.865,-184.277 882.76,-187.363"/>
<polygon fill="midnightblue" stroke="midnightblue" points="881.771,-190.722 892.363,-190.456 883.917,-184.059 881.771,-190.722"/>
</g>
<!-- Node22 -->
<g id="node22" class="node"><title>Node22</title>
<g id="a_node22"><a xlink:href="class_point_road.html#a998665db2d7e4fc4935ef95df092ff2b" target="_top" xlink:title="PointRoad::setid">
<polygon fill="none" stroke="black" points="893.5,-114.5 893.5,-133.5 982.5,-133.5 982.5,-114.5 893.5,-114.5"/>
<text text-anchor="middle" x="938" y="-121.5" font-family="Helvetica,sans-Serif" font-size="10.00">PointRoad::setid</text>
</a>
</g>
</g>
<!-- Node19&#45;&gt;Node22 -->
<g id="edge21" class="edge"><title>Node19&#45;&gt;Node22</title>
<path fill="none" stroke="midnightblue" d="M790.446,-124C817.441,-124 853.57,-124 883.2,-124"/>
<polygon fill="midnightblue" stroke="midnightblue" points="883.384,-127.5 893.384,-124 883.384,-120.5 883.384,-127.5"/>
</g>
<!-- Node23 -->
<g id="node23" class="node"><title>Node23</title>
<g id="a_node23"><a xlink:href="class_point_road.html#a81372f2c2c0fe1084fa2397289518124" target="_top" xlink:title="PointRoad::id">
<polygon fill="none" stroke="black" points="1055,-133.5 1055,-152.5 1131,-152.5 1131,-133.5 1055,-133.5"/>
<text text-anchor="middle" x="1093" y="-140.5" font-family="Helvetica,sans-Serif" font-size="10.00">PointRoad::id</text>
</a>
</g>
</g>
<!-- Node19&#45;&gt;Node23 -->
<g id="edge24" class="edge"><title>Node19&#45;&gt;Node23</title>
<path fill="none" stroke="midnightblue" d="M790.041,-132.707C809.965,-136.714 834.653,-141.013 857,-143 921.93,-148.773 997.352,-147.34 1044.88,-145.447"/>
<polygon fill="midnightblue" stroke="midnightblue" points="1045.03,-148.944 1054.87,-145.025 1044.73,-141.95 1045.03,-148.944"/>
</g>
<!-- Node24 -->
<g id="node24" class="node"><title>Node24</title>
<g id="a_node24"><a xlink:href="class_point_road.html#ae83941b37b026758fdd7974b4b186fbc" target="_top" xlink:title="PointRoad::isNode">
<polygon fill="none" stroke="black" points="888.5,-76.5 888.5,-95.5 987.5,-95.5 987.5,-76.5 888.5,-76.5"/>
<text text-anchor="middle" x="938" y="-83.5" font-family="Helvetica,sans-Serif" font-size="10.00">PointRoad::isNode</text>
</a>
</g>
</g>
<!-- Node19&#45;&gt;Node24 -->
<g id="edge23" class="edge"><title>Node19&#45;&gt;Node24</title>
<path fill="none" stroke="midnightblue" d="M790.446,-115.941C816.583,-110.601 851.281,-103.512 880.354,-97.5729"/>
<polygon fill="midnightblue" stroke="midnightblue" points="881.282,-100.956 890.379,-95.5246 879.881,-94.0972 881.282,-100.956"/>
</g>
<!-- Node25 -->
<g id="node25" class="node"><title>Node25</title>
<g id="a_node25"><a xlink:href="class_road.html#a7f97b4f20c598103baad510b19a0c0b5" target="_top" xlink:title="Add a point to the road. ">
<polygon fill="none" stroke="black" points="896,-38.5 896,-57.5 980,-57.5 980,-38.5 896,-38.5"/>
<text text-anchor="middle" x="938" y="-45.5" font-family="Helvetica,sans-Serif" font-size="10.00">Road::addPoint</text>
</a>
</g>
</g>
<!-- Node19&#45;&gt;Node25 -->
<g id="edge25" class="edge"><title>Node19&#45;&gt;Node25</title>
<path fill="none" stroke="midnightblue" d="M790.311,-117.342C800.754,-114.523 811.704,-110.556 821,-105 840.969,-93.0642 836.843,-78.6161 857,-67 865.812,-61.9215 875.917,-58.1981 885.911,-55.4689"/>
<polygon fill="midnightblue" stroke="midnightblue" points="886.928,-58.8236 895.816,-53.0578 885.272,-52.0222 886.928,-58.8236"/>
</g>
<!-- Node26 -->
<g id="node26" class="node"><title>Node26</title>
<g id="a_node26"><a xlink:href="class_road.html#ad6715392969e36eb10efac542519755c" target="_top" xlink:title="Get the id of the road. ">
<polygon fill="none" stroke="black" points="900.5,-0.5 900.5,-19.5 975.5,-19.5 975.5,-0.5 900.5,-0.5"/>
<text text-anchor="middle" x="938" y="-7.5" font-family="Helvetica,sans-Serif" font-size="10.00">Road::edgeId</text>
</a>
</g>
</g>
<!-- Node19&#45;&gt;Node26 -->
<g id="edge26" class="edge"><title>Node19&#45;&gt;Node26</title>
<path fill="none" stroke="midnightblue" d="M790.164,-119.568C801.076,-116.78 812.308,-112.273 821,-105 849.665,-81.0155 827.957,-52.5248 857,-29 866.446,-21.3487 878.46,-16.6853 890.288,-13.8686"/>
<polygon fill="midnightblue" stroke="midnightblue" points="890.995,-17.2967 900.12,-11.9119 889.629,-10.4313 890.995,-17.2967"/>
</g>
<!-- Node22&#45;&gt;Node23 -->
<g id="edge22" class="edge"><title>Node22&#45;&gt;Node23</title>
<path fill="none" stroke="midnightblue" d="M982.844,-129.445C1002.24,-131.854 1025.09,-134.691 1044.86,-137.146"/>
<polygon fill="midnightblue" stroke="midnightblue" points="1044.53,-140.631 1054.88,-138.391 1045.39,-133.685 1044.53,-140.631"/>
</g>
<!-- Node28&#45;&gt;Node12 -->
<g id="edge29" class="edge"><title>Node28&#45;&gt;Node12</title>
<path fill="none" stroke="midnightblue" d="M601.495,-361.505C615.429,-367.745 631.953,-377.151 643,-390 672.437,-424.238 645.559,-454.661 679,-485 687.198,-492.438 698.02,-497.008 708.697,-499.803"/>
<polygon fill="midnightblue" stroke="midnightblue" points="708.287,-503.295 718.799,-501.974 709.758,-496.451 708.287,-503.295"/>
</g>
<!-- Node28&#45;&gt;Node13 -->
<g id="edge31" class="edge"><title>Node28&#45;&gt;Node13</title>
<path fill="none" stroke="midnightblue" d="M598.613,-361.501C612.59,-368.048 630.134,-377.769 643,-390 664.716,-410.645 654.9,-429.196 679,-447 687.28,-453.117 697.41,-457.265 707.364,-460.077"/>
<polygon fill="midnightblue" stroke="midnightblue" points="706.641,-463.503 717.185,-462.468 708.297,-456.702 706.641,-463.503"/>
</g>
<!-- Node28&#45;&gt;Node14 -->
<g id="edge33" class="edge"><title>Node28&#45;&gt;Node14</title>
<path fill="none" stroke="midnightblue" d="M592.5,-361.653C619.527,-376.955 670.157,-405.425 679,-409 688.544,-412.859 699.131,-416.191 709.121,-418.938"/>
<polygon fill="midnightblue" stroke="midnightblue" points="708.291,-422.339 718.852,-421.49 710.066,-415.568 708.291,-422.339"/>
</g>
<!-- Node28&#45;&gt;Node15 -->
<g id="edge35" class="edge"><title>Node28&#45;&gt;Node15</title>
<path fill="none" stroke="midnightblue" d="M619.281,-361.589C646.342,-367.516 680.865,-375.077 707.492,-380.909"/>
<polygon fill="midnightblue" stroke="midnightblue" points="706.761,-384.332 717.278,-383.052 708.259,-377.494 706.761,-384.332"/>
</g>
<!-- Node29 -->
<g id="node29" class="node"><title>Node29</title>
<g id="a_node29"><a xlink:href="class_grid.html#aa96eed7a551f45aeee1068a289bd2a7b" target="_top" xlink:title="Grid::xMinGrid">
<polygon fill="none" stroke="black" points="710,-342.5 710,-361.5 790,-361.5 790,-342.5 710,-342.5"/>
<text text-anchor="middle" x="750" y="-349.5" font-family="Helvetica,sans-Serif" font-size="10.00">Grid::xMinGrid</text>
</a>
</g>
</g>
<!-- Node28&#45;&gt;Node29 -->
<g id="edge30" class="edge"><title>Node28&#45;&gt;Node29</title>
<path fill="none" stroke="midnightblue" d="M619.281,-352C643.809,-352 674.469,-352 699.822,-352"/>
<polygon fill="midnightblue" stroke="midnightblue" points="699.969,-355.5 709.969,-352 699.969,-348.5 699.969,-355.5"/>
</g>
<!-- Node30 -->
<g id="node30" class="node"><title>Node30</title>
<g id="a_node30"><a xlink:href="class_grid.html#aa3dd1e75998e6214c3ef33cdc5e02204" target="_top" xlink:title="Grid::xMaxGrid">
<polygon fill="none" stroke="black" points="708.5,-304.5 708.5,-323.5 791.5,-323.5 791.5,-304.5 708.5,-304.5"/>
<text text-anchor="middle" x="750" y="-311.5" font-family="Helvetica,sans-Serif" font-size="10.00">Grid::xMaxGrid</text>
</a>
</g>
</g>
<!-- Node28&#45;&gt;Node30 -->
<g id="edge32" class="edge"><title>Node28&#45;&gt;Node30</title>
<path fill="none" stroke="midnightblue" d="M619.281,-342.411C643.28,-337.155 673.148,-330.613 698.173,-325.132"/>
<polygon fill="midnightblue" stroke="midnightblue" points="699.193,-328.492 708.212,-322.933 697.695,-321.654 699.193,-328.492"/>
</g>
<!-- Node31 -->
<g id="node31" class="node"><title>Node31</title>
<g id="a_node31"><a xlink:href="class_grid.html#afa95de5fff735d1121572075a872121c" target="_top" xlink:title="Grid::yMinGrid">
<polygon fill="none" stroke="black" points="710,-266.5 710,-285.5 790,-285.5 790,-266.5 710,-266.5"/>
<text text-anchor="middle" x="750" y="-273.5" font-family="Helvetica,sans-Serif" font-size="10.00">Grid::yMinGrid</text>
</a>
</g>
</g>
<!-- Node28&#45;&gt;Node31 -->
<g id="edge34" class="edge"><title>Node28&#45;&gt;Node31</title>
<path fill="none" stroke="midnightblue" d="M590.369,-342.32C609.987,-329.904 645.909,-308.379 679,-295 685.742,-292.274 693.004,-289.811 700.209,-287.631"/>
<polygon fill="midnightblue" stroke="midnightblue" points="701.299,-290.96 709.944,-284.836 699.367,-284.232 701.299,-290.96"/>
</g>
<!-- Node32 -->
<g id="node32" class="node"><title>Node32</title>
<g id="a_node32"><a xlink:href="class_grid.html#a97ee4a72430770462f5e2ba140f2ca65" target="_top" xlink:title="Grid::yMaxGrid">
<polygon fill="none" stroke="black" points="708.5,-228.5 708.5,-247.5 791.5,-247.5 791.5,-228.5 708.5,-228.5"/>
<text text-anchor="middle" x="750" y="-235.5" font-family="Helvetica,sans-Serif" font-size="10.00">Grid::yMaxGrid</text>
</a>
</g>
</g>
<!-- Node28&#45;&gt;Node32 -->
<g id="edge36" class="edge"><title>Node28&#45;&gt;Node32</title>
<path fill="none" stroke="midnightblue" d="M583.234,-342.3C599.098,-323.063 637.348,-279.962 679,-257 685.076,-253.651 691.778,-250.863 698.557,-248.55"/>
<polygon fill="midnightblue" stroke="midnightblue" points="699.953,-251.782 708.478,-245.492 697.89,-245.093 699.953,-251.782"/>
</g>
<!-- Node34 -->
<g id="node34" class="node"><title>Node34</title>
<g id="a_node34"><a xlink:href="class_solver.html#af677644390b609a5f496fa2362099959" target="_top" xlink:title="filterSpace Use Spatial filter with a value ">
<polygon fill="none" stroke="black" points="373,-114.5 373,-133.5 470,-133.5 470,-114.5 373,-114.5"/>
<text text-anchor="middle" x="421.5" y="-121.5" font-family="Helvetica,sans-Serif" font-size="10.00">Solver::filterSpace</text>
</a>
</g>
</g>
<!-- Node33&#45;&gt;Node34 -->
<g id="edge38" class="edge"><title>Node33&#45;&gt;Node34</title>
<path fill="none" stroke="midnightblue" d="M323.919,-140.466C336.53,-138.316 349.94,-136.03 362.629,-133.867"/>
<polygon fill="midnightblue" stroke="midnightblue" points="363.351,-137.294 372.621,-132.163 362.175,-130.394 363.351,-137.294"/>
</g>
<!-- Node38 -->
<g id="node38" class="node"><title>Node38</title>
<g id="a_node38"><a xlink:href="class_solver.html#a95af3471a75ea1b9dc7051959c70b6e7" target="_top" xlink:title="filterTemp Use Temporal filter with a value ">
<polygon fill="none" stroke="black" points="374.5,-76.5 374.5,-95.5 468.5,-95.5 468.5,-76.5 374.5,-76.5"/>
<text text-anchor="middle" x="421.5" y="-83.5" font-family="Helvetica,sans-Serif" font-size="10.00">Solver::filterTemp</text>
</a>
</g>
</g>
<!-- Node33&#45;&gt;Node38 -->
<g id="edge42" class="edge"><title>Node33&#45;&gt;Node38</title>
<path fill="none" stroke="midnightblue" d="M311.924,-140.44C320.445,-137.885 329.157,-134.76 337,-131 354.797,-122.467 355.708,-114.514 373,-105 376.49,-103.08 380.214,-101.25 383.984,-99.5365"/>
<polygon fill="midnightblue" stroke="midnightblue" points="385.524,-102.685 393.342,-95.5349 382.771,-96.2487 385.524,-102.685"/>
</g>
<!-- Node35 -->
<g id="node35" class="node"><title>Node35</title>
<g id="a_node35"><a xlink:href="class_track.html#a9f1da7896167f44da967acf9fd05d92a" target="_top" xlink:title="This is a space filter, which deletes points depending on a distance interval. ">
<polygon fill="none" stroke="black" points="527,-114.5 527,-133.5 622,-133.5 622,-114.5 527,-114.5"/>
<text text-anchor="middle" x="574.5" y="-121.5" font-family="Helvetica,sans-Serif" font-size="10.00">Track::spaceFilter</text>
</a>
</g>
</g>
<!-- Node34&#45;&gt;Node35 -->
<g id="edge39" class="edge"><title>Node34&#45;&gt;Node35</title>
<path fill="none" stroke="midnightblue" d="M470.277,-124C484.95,-124 501.244,-124 516.471,-124"/>
<polygon fill="midnightblue" stroke="midnightblue" points="516.808,-127.5 526.808,-124 516.808,-120.5 516.808,-127.5"/>
</g>
<!-- Node37 -->
<g id="node37" class="node"><title>Node37</title>
<g id="a_node37"><a xlink:href="class_track.html#ad262a30c2abcd29cf4cdc04facd290ee" target="_top" xlink:title="Track::getPointsAsPointer">
<polygon fill="none" stroke="black" points="509,-76.5 509,-95.5 640,-95.5 640,-76.5 509,-76.5"/>
<text text-anchor="middle" x="574.5" y="-83.5" font-family="Helvetica,sans-Serif" font-size="10.00">Track::getPointsAsPointer</text>
</a>
</g>
</g>
<!-- Node34&#45;&gt;Node37 -->
<g id="edge41" class="edge"><title>Node34&#45;&gt;Node37</title>
<path fill="none" stroke="midnightblue" d="M460.604,-114.411C480.44,-109.419 504.884,-103.268 525.948,-97.9666"/>
<polygon fill="midnightblue" stroke="midnightblue" points="526.827,-101.355 535.67,-95.5201 525.118,-94.5664 526.827,-101.355"/>
</g>
<!-- Node36 -->
<g id="node36" class="node"><title>Node36</title>
<g id="a_node36"><a xlink:href="class_track.html#a0477b30aca07ba3f43b25d4c6ea782e0" target="_top" xlink:title="Deletes a occurence. ">
<polygon fill="none" stroke="black" points="698,-76.5 698,-95.5 802,-95.5 802,-76.5 698,-76.5"/>
<text text-anchor="middle" x="750" y="-83.5" font-family="Helvetica,sans-Serif" font-size="10.00">Track::delPointGPS</text>
</a>
</g>
</g>
<!-- Node35&#45;&gt;Node36 -->
<g id="edge40" class="edge"><title>Node35&#45;&gt;Node36</title>
<path fill="none" stroke="midnightblue" d="M619.281,-114.411C642.486,-109.329 671.178,-103.045 695.673,-97.6797"/>
<polygon fill="midnightblue" stroke="midnightblue" points="696.514,-101.079 705.533,-95.5201 695.016,-94.2407 696.514,-101.079"/>
</g>
<!-- Node38&#45;&gt;Node37 -->
<g id="edge45" class="edge"><title>Node38&#45;&gt;Node37</title>
<path fill="none" stroke="midnightblue" d="M468.625,-86C478.123,-86 488.354,-86 498.572,-86"/>
<polygon fill="midnightblue" stroke="midnightblue" points="498.757,-89.5001 508.757,-86 498.757,-82.5001 498.757,-89.5001"/>
</g>
<!-- Node39 -->
<g id="node39" class="node"><title>Node39</title>
<g id="a_node39"><a xlink:href="class_track.html#a58fcdaf47f2c87bb7095933616f5a4bc" target="_top" xlink:title="This is a temporal filter, which deletes points depending on a time value. ">
<polygon fill="none" stroke="black" points="521,-38.5 521,-57.5 628,-57.5 628,-38.5 521,-38.5"/>
<text text-anchor="middle" x="574.5" y="-45.5" font-family="Helvetica,sans-Serif" font-size="10.00">Track::temporalFilter</text>
</a>
</g>
</g>
<!-- Node38&#45;&gt;Node39 -->
<g id="edge43" class="edge"><title>Node38&#45;&gt;Node39</title>
<path fill="none" stroke="midnightblue" d="M460.604,-76.411C480.44,-71.4191 504.884,-65.2676 525.948,-59.9666"/>
<polygon fill="midnightblue" stroke="midnightblue" points="526.827,-63.3548 535.67,-57.5201 525.118,-56.5664 526.827,-63.3548"/>
</g>
<!-- Node40 -->
<g id="node40" class="node"><title>Node40</title>
<g id="a_node40"><a xlink:href="class_point_g_p_s.html#aa8a0cbf3cfbc3f4ac9d16737c00fcb88" target="_top" xlink:title="PointGPS::timeStamp">
<polygon fill="none" stroke="black" points="693.5,-38.5 693.5,-57.5 806.5,-57.5 806.5,-38.5 693.5,-38.5"/>
<text text-anchor="middle" x="750" y="-45.5" font-family="Helvetica,sans-Serif" font-size="10.00">PointGPS::timeStamp</text>
</a>
</g>
</g>
<!-- Node39&#45;&gt;Node40 -->
<g id="edge44" class="edge"><title>Node39&#45;&gt;Node40</title>
<path fill="none" stroke="midnightblue" d="M628.027,-48C645.366,-48 664.877,-48 683.087,-48"/>
<polygon fill="midnightblue" stroke="midnightblue" points="683.338,-51.5001 693.338,-48 683.338,-44.5001 683.338,-51.5001"/>
</g>
</g>
</svg>
