<?xml version="1.0" encoding="UTF-8" standalone="no"?>
<!DOCTYPE svg PUBLIC "-//W3C//DTD SVG 1.1//EN"
 "http://www.w3.org/Graphics/SVG/1.1/DTD/svg11.dtd">
<!-- Generated by graphviz version 2.38.0 (20140413.2041)
 -->
<!-- Title: QMapScene Pages: 1 -->
<!--zoomable 1014 -->
<svg id="main" version="1.1" xmlns="http://www.w3.org/2000/svg" xmlns:xlink="http://www.w3.org/1999/xlink" xml:space="preserve" onload="init(evt)">
<style type="text/css"><![CDATA[
.edge:hover path { stroke: red; }
.edge:hover polygon { stroke: red; fill: red; }
]]></style>
<script type="text/javascript"><![CDATA[
var edges = document.getElementsByTagName('g');
if (edges && edges.length) {
  for (var i=0;i<edges.length;i++) {
    if (edges[i].id.substr(0,4)=='edge') {
      edges[i].setAttribute('class','edge');
    }
  }
}
]]></script>
        <defs>
                <circle id="rim" cx="0" cy="0" r="7"/>
                <circle id="rim2" cx="0" cy="0" r="3.5"/>
                <g id="zoomPlus">
                        <use xlink:href="#rim" fill="#404040">
                                <set attributeName="fill" to="#808080" begin="zoomplus.mouseover" end="zoomplus.mouseout"/>
                        </use>
                        <path d="M-4,0h8M0,-4v8" fill="none" stroke="white" stroke-width="1.5" pointer-events="none"/>
                </g>
                <g id="zoomMin">
                        <use xlink:href="#rim" fill="#404040">
                                <set attributeName="fill" to="#808080" begin="zoomminus.mouseover" end="zoomminus.mouseout"/>
                        </use>
                        <path d="M-4,0h8" fill="none" stroke="white" stroke-width="1.5" pointer-events="none"/>
                </g>
                <g id="dirArrow">
                        <path fill="none" stroke="white" stroke-width="1.5" d="M0,-3.0v7 M-2.5,-0.5L0,-3.0L2.5,-0.5"/>
                </g>
               <g id="resetDef">
                       <use xlink:href="#rim2" fill="#404040">
                               <set attributeName="fill" to="#808080" begin="reset.mouseover" end="reset.mouseout"/>
                       </use>
               </g>
        </defs>

<script type="text/javascript">
var viewWidth = 924;
var viewHeight = 1014;
var sectionId = 'dynsection-1';
</script>
<script xlink:href="svgpan.js"/>
<svg id="graph" class="graph">
<g id="viewport">
<title>QMapScene</title>
<!-- Node1 -->
<g id="node1" class="node"><title>Node1</title>
<polygon fill="#bfbfbf" stroke="black" points="244.5,-0.5 244.5,-233.5 372.5,-233.5 372.5,-0.5 244.5,-0.5"/>
<text text-anchor="middle" x="308.5" y="-221.5" font-family="Helvetica,sans-Serif" font-size="10.00">QMapScene</text>
<polyline fill="none" stroke="black" points="244.5,-214.5 372.5,-214.5 "/>
<text text-anchor="start" x="252.5" y="-202.5" font-family="Helvetica,sans-Serif" font-size="10.00"># m_height</text>
<text text-anchor="start" x="252.5" y="-191.5" font-family="Helvetica,sans-Serif" font-size="10.00"># m_scaleFactor</text>
<text text-anchor="start" x="252.5" y="-180.5" font-family="Helvetica,sans-Serif" font-size="10.00"># m_selectionCircle</text>
<text text-anchor="start" x="252.5" y="-169.5" font-family="Helvetica,sans-Serif" font-size="10.00"># m_shiftX</text>
<text text-anchor="start" x="252.5" y="-158.5" font-family="Helvetica,sans-Serif" font-size="10.00"># m_shiftY</text>
<text text-anchor="start" x="252.5" y="-147.5" font-family="Helvetica,sans-Serif" font-size="10.00"># m_width</text>
<polyline fill="none" stroke="black" points="244.5,-140.5 372.5,-140.5 "/>
<text text-anchor="start" x="252.5" y="-128.5" font-family="Helvetica,sans-Serif" font-size="10.00">+ highlightRoadsDefault()</text>
<text text-anchor="start" x="252.5" y="-117.5" font-family="Helvetica,sans-Serif" font-size="10.00">+ highlightSelectedPoint()</text>
<text text-anchor="start" x="252.5" y="-106.5" font-family="Helvetica,sans-Serif" font-size="10.00">+ initialize()</text>
<text text-anchor="start" x="252.5" y="-95.5" font-family="Helvetica,sans-Serif" font-size="10.00">+ QMapScene()</text>
<text text-anchor="start" x="252.5" y="-84.5" font-family="Helvetica,sans-Serif" font-size="10.00">+ setBackToDefault()</text>
<text text-anchor="start" x="252.5" y="-73.5" font-family="Helvetica,sans-Serif" font-size="10.00">+ setNeighborRoads()</text>
<text text-anchor="start" x="252.5" y="-62.5" font-family="Helvetica,sans-Serif" font-size="10.00">+ transform()</text>
<text text-anchor="start" x="252.5" y="-51.5" font-family="Helvetica,sans-Serif" font-size="10.00">+ onSignalAllPoints()</text>
<text text-anchor="start" x="252.5" y="-40.5" font-family="Helvetica,sans-Serif" font-size="10.00">+ onSignalAllRoads()</text>
<text text-anchor="start" x="252.5" y="-29.5" font-family="Helvetica,sans-Serif" font-size="10.00">+ onSignalCurrentPoint()</text>
<text text-anchor="start" x="252.5" y="-18.5" font-family="Helvetica,sans-Serif" font-size="10.00">+ onSignalRoadPath()</text>
<text text-anchor="start" x="252.5" y="-7.5" font-family="Helvetica,sans-Serif" font-size="10.00">+ onSignalStart()</text>
</g>
<!-- Node2 -->
<g id="node2" class="node"><title>Node2</title>
<polygon fill="none" stroke="#bfbfbf" points="0,-287 0,-344 91,-344 91,-287 0,-287"/>
<text text-anchor="middle" x="45.5" y="-332" font-family="Helvetica,sans-Serif" font-size="10.00">QGraphicsScene</text>
<polyline fill="none" stroke="#bfbfbf" points="0,-325 91,-325 "/>
<text text-anchor="middle" x="45.5" y="-313" font-family="Helvetica,sans-Serif" font-size="10.00"> </text>
<polyline fill="none" stroke="#bfbfbf" points="0,-306 91,-306 "/>
<text text-anchor="middle" x="45.5" y="-294" font-family="Helvetica,sans-Serif" font-size="10.00"> </text>
</g>
<!-- Node2&#45;&gt;Node1 -->
<g id="edge1" class="edge"><title>Node2&#45;&gt;Node1</title>
<path fill="none" stroke="midnightblue" d="M90.5139,-280.868C132.842,-249.243 196.651,-201.568 244.31,-165.96"/>
<polygon fill="none" stroke="midnightblue" points="88.262,-278.181 82.3459,-286.971 92.4518,-283.789 88.262,-278.181"/>
</g>
<!-- Node3 -->
<g id="node3" class="node"><title>Node3</title>
<polygon fill="none" stroke="#bfbfbf" points="109.5,-281.5 109.5,-349.5 249.5,-349.5 249.5,-281.5 109.5,-281.5"/>
<text text-anchor="start" x="117.5" y="-337.5" font-family="Helvetica,sans-Serif" font-size="10.00">std::vector&lt; QGraphicsRect</text>
<text text-anchor="middle" x="179.5" y="-326.5" font-family="Helvetica,sans-Serif" font-size="10.00">Item * &gt;</text>
<polyline fill="none" stroke="#bfbfbf" points="109.5,-319.5 249.5,-319.5 "/>
<text text-anchor="start" x="117.5" y="-307.5" font-family="Helvetica,sans-Serif" font-size="10.00">+ elements</text>
<polyline fill="none" stroke="#bfbfbf" points="109.5,-300.5 249.5,-300.5 "/>
<text text-anchor="middle" x="179.5" y="-288.5" font-family="Helvetica,sans-Serif" font-size="10.00"> </text>
</g>
<!-- Node3&#45;&gt;Node1 -->
<g id="edge2" class="edge"><title>Node3&#45;&gt;Node1</title>
<path fill="none" stroke="#404040" d="M193.311,-281.406C197.764,-271.716 202.986,-261.246 208.5,-252 217.198,-237.416 227.143,-222.499 237.31,-208.164"/>
<polygon fill="none" stroke="#404040" points="237.366,-208.087 237.622,-200.88 244.372,-198.344 244.117,-205.551 237.366,-208.087"/>
<text text-anchor="middle" x="236" y="-255" font-family="Helvetica,sans-Serif" font-size="10.00"> #pointItems</text>
</g>
<!-- Node4 -->
<g id="node4" class="node"><title>Node4</title>
<polygon fill="none" stroke="#bfbfbf" points="232,-695 232,-752 331,-752 331,-695 232,-695"/>
<text text-anchor="middle" x="281.5" y="-740" font-family="Helvetica,sans-Serif" font-size="10.00">std::vector&lt; long &gt;</text>
<polyline fill="none" stroke="#bfbfbf" points="232,-733 331,-733 "/>
<text text-anchor="start" x="240" y="-721" font-family="Helvetica,sans-Serif" font-size="10.00">+ elements</text>
<polyline fill="none" stroke="#bfbfbf" points="232,-714 331,-714 "/>
<text text-anchor="middle" x="281.5" y="-702" font-family="Helvetica,sans-Serif" font-size="10.00"> </text>
</g>
<!-- Node4&#45;&gt;Node1 -->
<g id="edge3" class="edge"><title>Node4&#45;&gt;Node1</title>
<path fill="none" stroke="#404040" d="M281.764,-694.905C282.431,-635.234 284.575,-489.755 290.5,-368 292.436,-328.217 295.289,-284.923 298.155,-245.714"/>
<polygon fill="none" stroke="#404040" points="298.16,-245.653 294.613,-239.375 299.044,-233.686 302.591,-239.964 298.16,-245.653"/>
<text text-anchor="middle" x="329.5" y="-371" font-family="Helvetica,sans-Serif" font-size="10.00"> #m_neighboursId</text>
</g>
<!-- Node6 -->
<g id="node6" class="node"><title>Node6</title>
<g id="a_node6"><a xlink:href="class_point_road.html" target="_top" xlink:title="{PointRoad\n|# m_id\l# m_isNode\l# counter\l|+ id()\l+ infos()\l+ isNode()\l+ outputInfos()\l+ PointRoad()\l+ PointRoad()\l+ setid()\l+ updateBelongToRoad()\l+ vectorOfRoadId()\l}">
<polygon fill="none" stroke="black" points="314,-397.5 314,-564.5 439,-564.5 439,-397.5 314,-397.5"/>
<text text-anchor="middle" x="376.5" y="-552.5" font-family="Helvetica,sans-Serif" font-size="10.00">PointRoad</text>
<polyline fill="none" stroke="black" points="314,-545.5 439,-545.5 "/>
<text text-anchor="start" x="322" y="-533.5" font-family="Helvetica,sans-Serif" font-size="10.00"># m_id</text>
<text text-anchor="start" x="322" y="-522.5" font-family="Helvetica,sans-Serif" font-size="10.00"># m_isNode</text>
<text text-anchor="start" x="322" y="-511.5" font-family="Helvetica,sans-Serif" font-size="10.00"># counter</text>
<polyline fill="none" stroke="black" points="314,-504.5 439,-504.5 "/>
<text text-anchor="start" x="322" y="-492.5" font-family="Helvetica,sans-Serif" font-size="10.00">+ id()</text>
<text text-anchor="start" x="322" y="-481.5" font-family="Helvetica,sans-Serif" font-size="10.00">+ infos()</text>
<text text-anchor="start" x="322" y="-470.5" font-family="Helvetica,sans-Serif" font-size="10.00">+ isNode()</text>
<text text-anchor="start" x="322" y="-459.5" font-family="Helvetica,sans-Serif" font-size="10.00">+ outputInfos()</text>
<text text-anchor="start" x="322" y="-448.5" font-family="Helvetica,sans-Serif" font-size="10.00">+ PointRoad()</text>
<text text-anchor="start" x="322" y="-437.5" font-family="Helvetica,sans-Serif" font-size="10.00">+ PointRoad()</text>
<text text-anchor="start" x="322" y="-426.5" font-family="Helvetica,sans-Serif" font-size="10.00">+ setid()</text>
<text text-anchor="start" x="322" y="-415.5" font-family="Helvetica,sans-Serif" font-size="10.00">+ updateBelongToRoad()</text>
<text text-anchor="start" x="322" y="-404.5" font-family="Helvetica,sans-Serif" font-size="10.00">+ vectorOfRoadId()</text>
</a>
</g>
</g>
<!-- Node4&#45;&gt;Node6 -->
<g id="edge7" class="edge"><title>Node4&#45;&gt;Node6</title>
<path fill="none" stroke="#404040" d="M283.278,-694.807C285.896,-665.951 292.26,-619.886 307.5,-583 308.538,-580.488 309.644,-577.975 310.81,-575.468"/>
<polygon fill="none" stroke="#404040" points="310.912,-575.262 310.012,-568.108 316.27,-564.525 317.17,-571.68 310.912,-575.262"/>
<text text-anchor="middle" x="353" y="-586" font-family="Helvetica,sans-Serif" font-size="10.00"> #m_vectorOfRoadId</text>
</g>
<!-- Node5 -->
<g id="node5" class="node"><title>Node5</title>
<polygon fill="none" stroke="#bfbfbf" points="307,-287 307,-344 434,-344 434,-287 307,-287"/>
<text text-anchor="middle" x="370.5" y="-332" font-family="Helvetica,sans-Serif" font-size="10.00">std::vector&lt; PointRoad &gt;</text>
<polyline fill="none" stroke="#bfbfbf" points="307,-325 434,-325 "/>
<text text-anchor="middle" x="370.5" y="-313" font-family="Helvetica,sans-Serif" font-size="10.00"> </text>
<polyline fill="none" stroke="#bfbfbf" points="307,-306 434,-306 "/>
<text text-anchor="middle" x="370.5" y="-294" font-family="Helvetica,sans-Serif" font-size="10.00"> </text>
</g>
<!-- Node5&#45;&gt;Node1 -->
<g id="edge4" class="edge"><title>Node5&#45;&gt;Node1</title>
<path fill="none" stroke="#404040" d="M361.748,-286.763C358.069,-275.1 353.505,-260.636 348.608,-245.117"/>
<polygon fill="none" stroke="#404040" points="348.603,-245.099 342.983,-240.581 344.992,-233.655 350.612,-238.174 348.603,-245.099"/>
<text text-anchor="middle" x="389" y="-255" font-family="Helvetica,sans-Serif" font-size="10.00"> #m_roadPoints</text>
</g>
<!-- Node6&#45;&gt;Node5 -->
<g id="edge5" class="edge"><title>Node6&#45;&gt;Node5</title>
<path fill="none" stroke="#404040" d="M373.465,-397.292C372.943,-383.066 372.422,-368.879 371.966,-356.453"/>
<polygon fill="none" stroke="#404040" points="371.957,-356.207 367.74,-350.358 371.517,-344.215 375.734,-350.065 371.957,-356.207"/>
<text text-anchor="middle" x="398" y="-371" font-family="Helvetica,sans-Serif" font-size="10.00"> +elements</text>
</g>
<!-- Node7 -->
<g id="node7" class="node"><title>Node7</title>
<g id="a_node7"><a xlink:href="class_point.html" target="_top" xlink:title="The Point class. ">
<polygon fill="none" stroke="black" points="351,-612.5 351,-834.5 476,-834.5 476,-612.5 351,-612.5"/>
<text text-anchor="middle" x="413.5" y="-822.5" font-family="Helvetica,sans-Serif" font-size="10.00">Point</text>
<polyline fill="none" stroke="black" points="351,-815.5 476,-815.5 "/>
<text text-anchor="start" x="359" y="-803.5" font-family="Helvetica,sans-Serif" font-size="10.00"># POINT_RADIUS</text>
<polyline fill="none" stroke="black" points="351,-796.5 476,-796.5 "/>
<text text-anchor="start" x="359" y="-784.5" font-family="Helvetica,sans-Serif" font-size="10.00">+ distanceToPoint()</text>
<text text-anchor="start" x="359" y="-773.5" font-family="Helvetica,sans-Serif" font-size="10.00">+ distanceToSegment()</text>
<text text-anchor="start" x="359" y="-762.5" font-family="Helvetica,sans-Serif" font-size="10.00">+ infos()</text>
<text text-anchor="start" x="359" y="-751.5" font-family="Helvetica,sans-Serif" font-size="10.00">+ Point()</text>
<text text-anchor="start" x="359" y="-740.5" font-family="Helvetica,sans-Serif" font-size="10.00">+ Point()</text>
<text text-anchor="start" x="359" y="-729.5" font-family="Helvetica,sans-Serif" font-size="10.00">+ projectionOnSegment()</text>
<text text-anchor="start" x="359" y="-718.5" font-family="Helvetica,sans-Serif" font-size="10.00">+ samePointAs()</text>
<text text-anchor="start" x="359" y="-707.5" font-family="Helvetica,sans-Serif" font-size="10.00">+ setx()</text>
<text text-anchor="start" x="359" y="-696.5" font-family="Helvetica,sans-Serif" font-size="10.00">+ x()</text>
<text text-anchor="start" x="359" y="-685.5" font-family="Helvetica,sans-Serif" font-size="10.00">+ ~Point()</text>
<text text-anchor="start" x="359" y="-674.5" font-family="Helvetica,sans-Serif" font-size="10.00">* x()</text>
<text text-anchor="start" x="359" y="-663.5" font-family="Helvetica,sans-Serif" font-size="10.00">* setx()</text>
<text text-anchor="start" x="359" y="-652.5" font-family="Helvetica,sans-Serif" font-size="10.00">* y()</text>
<text text-anchor="start" x="359" y="-641.5" font-family="Helvetica,sans-Serif" font-size="10.00">* sety()</text>
<text text-anchor="start" x="359" y="-630.5" font-family="Helvetica,sans-Serif" font-size="10.00">* m_x</text>
<text text-anchor="start" x="359" y="-619.5" font-family="Helvetica,sans-Serif" font-size="10.00">* m_y</text>
</a>
</g>
</g>
<!-- Node7&#45;&gt;Node6 -->
<g id="edge6" class="edge"><title>Node7&#45;&gt;Node6</title>
<path fill="none" stroke="midnightblue" d="M405.327,-602.053C404.476,-595.596 403.536,-589.212 402.5,-583 401.502,-577.017 400.32,-570.87 399.019,-564.705"/>
<polygon fill="none" stroke="midnightblue" points="401.887,-602.755 406.593,-612.248 408.834,-601.892 401.887,-602.755"/>
</g>
<!-- Node9 -->
<g id="node9" class="node"><title>Node9</title>
<g id="a_node9"><a xlink:href="class_point_g_p_s.html" target="_top" xlink:title="{PointGPS\n|# m_altitude\l# m_timeStamp\l|+ addEmissionProbability()\l+ altitude()\l+ infos()\l+ PointGPS()\l+ PointGPS()\l+ timeStamp()\l+ updateProbability()\l}">
<polygon fill="none" stroke="black" points="457.5,-414 457.5,-548 591.5,-548 591.5,-414 457.5,-414"/>
<text text-anchor="middle" x="524.5" y="-536" font-family="Helvetica,sans-Serif" font-size="10.00">PointGPS</text>
<polyline fill="none" stroke="black" points="457.5,-529 591.5,-529 "/>
<text text-anchor="start" x="465.5" y="-517" font-family="Helvetica,sans-Serif" font-size="10.00"># m_altitude</text>
<text text-anchor="start" x="465.5" y="-506" font-family="Helvetica,sans-Serif" font-size="10.00"># m_timeStamp</text>
<polyline fill="none" stroke="black" points="457.5,-499 591.5,-499 "/>
<text text-anchor="start" x="465.5" y="-487" font-family="Helvetica,sans-Serif" font-size="10.00">+ addEmissionProbability()</text>
<text text-anchor="start" x="465.5" y="-476" font-family="Helvetica,sans-Serif" font-size="10.00">+ altitude()</text>
<text text-anchor="start" x="465.5" y="-465" font-family="Helvetica,sans-Serif" font-size="10.00">+ infos()</text>
<text text-anchor="start" x="465.5" y="-454" font-family="Helvetica,sans-Serif" font-size="10.00">+ PointGPS()</text>
<text text-anchor="start" x="465.5" y="-443" font-family="Helvetica,sans-Serif" font-size="10.00">+ PointGPS()</text>
<text text-anchor="start" x="465.5" y="-432" font-family="Helvetica,sans-Serif" font-size="10.00">+ timeStamp()</text>
<text text-anchor="start" x="465.5" y="-421" font-family="Helvetica,sans-Serif" font-size="10.00">+ updateProbability()</text>
</a>
</g>
</g>
<!-- Node7&#45;&gt;Node9 -->
<g id="edge10" class="edge"><title>Node7&#45;&gt;Node9</title>
<path fill="none" stroke="midnightblue" d="M468.585,-603.149C477.345,-584.168 486.119,-565.158 494.034,-548.01"/>
<polygon fill="none" stroke="midnightblue" points="465.302,-601.909 464.29,-612.456 471.658,-604.843 465.302,-601.909"/>
</g>
<!-- Node8 -->
<g id="node8" class="node"><title>Node8</title>
<polygon fill="none" stroke="#bfbfbf" points="453,-287 453,-344 584,-344 584,-287 453,-287"/>
<text text-anchor="middle" x="518.5" y="-332" font-family="Helvetica,sans-Serif" font-size="10.00">std::vector&lt; PointGPS * &gt;</text>
<polyline fill="none" stroke="#bfbfbf" points="453,-325 584,-325 "/>
<text text-anchor="middle" x="518.5" y="-313" font-family="Helvetica,sans-Serif" font-size="10.00"> </text>
<polyline fill="none" stroke="#bfbfbf" points="453,-306 584,-306 "/>
<text text-anchor="middle" x="518.5" y="-294" font-family="Helvetica,sans-Serif" font-size="10.00"> </text>
</g>
<!-- Node8&#45;&gt;Node1 -->
<g id="edge8" class="edge"><title>Node8&#45;&gt;Node1</title>
<path fill="none" stroke="#404040" d="M488.858,-286.763C461.133,-260.821 418.594,-221.017 381.791,-186.579"/>
<polygon fill="none" stroke="#404040" points="381.332,-186.15 374.218,-184.971 372.57,-177.951 379.684,-179.13 381.332,-186.15"/>
<text text-anchor="middle" x="498.5" y="-255" font-family="Helvetica,sans-Serif" font-size="10.00"> #m_trackPoints</text>
</g>
<!-- Node9&#45;&gt;Node8 -->
<g id="edge9" class="edge"><title>Node9&#45;&gt;Node8</title>
<path fill="none" stroke="#404040" d="M522.077,-413.97C521.363,-394.523 520.604,-373.844 519.97,-356.56"/>
<polygon fill="none" stroke="#404040" points="519.963,-356.353 515.745,-350.504 519.522,-344.361 523.74,-350.211 519.963,-356.353"/>
<text text-anchor="middle" x="546" y="-371" font-family="Helvetica,sans-Serif" font-size="10.00"> +elements</text>
</g>
<!-- Node10 -->
<g id="node10" class="node"><title>Node10</title>
<polygon fill="none" stroke="#bfbfbf" points="494,-695 494,-752 661,-752 661,-695 494,-695"/>
<text text-anchor="middle" x="577.5" y="-740" font-family="Helvetica,sans-Serif" font-size="10.00">std::vector&lt; EmissionProbability &gt;</text>
<polyline fill="none" stroke="#bfbfbf" points="494,-733 661,-733 "/>
<text text-anchor="middle" x="577.5" y="-721" font-family="Helvetica,sans-Serif" font-size="10.00"> </text>
<polyline fill="none" stroke="#bfbfbf" points="494,-714 661,-714 "/>
<text text-anchor="middle" x="577.5" y="-702" font-family="Helvetica,sans-Serif" font-size="10.00"> </text>
</g>
<!-- Node10&#45;&gt;Node9 -->
<g id="edge11" class="edge"><title>Node10&#45;&gt;Node9</title>
<path fill="none" stroke="#404040" d="M571.42,-694.912C564.217,-662.223 551.905,-606.355 541.7,-560.049"/>
<polygon fill="none" stroke="#404040" points="541.67,-559.914 536.473,-554.915 539.088,-548.195 544.285,-553.194 541.67,-559.914"/>
<text text-anchor="middle" x="602.5" y="-586" font-family="Helvetica,sans-Serif" font-size="10.00"> +m_emissionProbability</text>
</g>
<!-- Node11 -->
<g id="node11" class="node"><title>Node11</title>
<g id="a_node11"><a xlink:href="class_emission_probability.html" target="_top" xlink:title="{EmissionProbability\n|# m_distance\l# m_probability\l# m_roadId\l|+ distance()\l+ EmissionProbability()\l+ probability()\l+ roadId()\l+ updateProbability()\l}">
<polygon fill="none" stroke="black" points="518.5,-882.5 518.5,-1005.5 636.5,-1005.5 636.5,-882.5 518.5,-882.5"/>
<text text-anchor="middle" x="577.5" y="-993.5" font-family="Helvetica,sans-Serif" font-size="10.00">EmissionProbability</text>
<polyline fill="none" stroke="black" points="518.5,-986.5 636.5,-986.5 "/>
<text text-anchor="start" x="526.5" y="-974.5" font-family="Helvetica,sans-Serif" font-size="10.00"># m_distance</text>
<text text-anchor="start" x="526.5" y="-963.5" font-family="Helvetica,sans-Serif" font-size="10.00"># m_probability</text>
<text text-anchor="start" x="526.5" y="-952.5" font-family="Helvetica,sans-Serif" font-size="10.00"># m_roadId</text>
<polyline fill="none" stroke="black" points="518.5,-945.5 636.5,-945.5 "/>
<text text-anchor="start" x="526.5" y="-933.5" font-family="Helvetica,sans-Serif" font-size="10.00">+ distance()</text>
<text text-anchor="start" x="526.5" y="-922.5" font-family="Helvetica,sans-Serif" font-size="10.00">+ EmissionProbability()</text>
<text text-anchor="start" x="526.5" y="-911.5" font-family="Helvetica,sans-Serif" font-size="10.00">+ probability()</text>
<text text-anchor="start" x="526.5" y="-900.5" font-family="Helvetica,sans-Serif" font-size="10.00">+ roadId()</text>
<text text-anchor="start" x="526.5" y="-889.5" font-family="Helvetica,sans-Serif" font-size="10.00">+ updateProbability()</text>
</a>
</g>
</g>
<!-- Node11&#45;&gt;Node10 -->
<g id="edge12" class="edge"><title>Node11&#45;&gt;Node10</title>
<path fill="none" stroke="#404040" d="M577.5,-882.426C577.5,-844.74 577.5,-797.341 577.5,-764.35"/>
<polygon fill="none" stroke="#404040" points="577.5,-764.03 573.5,-758.031 577.5,-752.03 581.5,-758.03 577.5,-764.03"/>
<text text-anchor="middle" x="602" y="-856" font-family="Helvetica,sans-Serif" font-size="10.00"> +elements</text>
</g>
<!-- Node12 -->
<g id="node12" class="node"><title>Node12</title>
<polygon fill="none" stroke="#bfbfbf" points="617,-281.5 617,-349.5 720,-349.5 720,-281.5 617,-281.5"/>
<text text-anchor="start" x="625" y="-337.5" font-family="Helvetica,sans-Serif" font-size="10.00">std::unordered_map</text>
<text text-anchor="middle" x="668.5" y="-326.5" font-family="Helvetica,sans-Serif" font-size="10.00">&lt; long, Road &gt;</text>
<polyline fill="none" stroke="#bfbfbf" points="617,-319.5 720,-319.5 "/>
<text text-anchor="start" x="625" y="-307.5" font-family="Helvetica,sans-Serif" font-size="10.00">+ keys</text>
<polyline fill="none" stroke="#bfbfbf" points="617,-300.5 720,-300.5 "/>
<text text-anchor="middle" x="668.5" y="-288.5" font-family="Helvetica,sans-Serif" font-size="10.00"> </text>
</g>
<!-- Node12&#45;&gt;Node1 -->
<g id="edge13" class="edge"><title>Node12&#45;&gt;Node1</title>
<path fill="none" stroke="#404040" d="M616.921,-286.346C555.836,-253.004 453.578,-197.188 383.682,-159.037"/>
<polygon fill="none" stroke="#404040" points="383.287,-158.821 376.104,-159.458 372.754,-153.072 379.937,-152.435 383.287,-158.821"/>
<text text-anchor="middle" x="595.5" y="-255" font-family="Helvetica,sans-Serif" font-size="10.00"> #m_roads</text>
</g>
<!-- Node13 -->
<g id="node13" class="node"><title>Node13</title>
<g id="a_node13"><a xlink:href="class_road.html" target="_top" xlink:title="Road is an element of a network. Road are strongly linked with Points. ">
<polygon fill="none" stroke="black" points="659,-403 659,-559 786,-559 786,-403 659,-403"/>
<text text-anchor="middle" x="722.5" y="-547" font-family="Helvetica,sans-Serif" font-size="10.00">Road</text>
<polyline fill="none" stroke="black" points="659,-540 786,-540 "/>
<text text-anchor="start" x="667" y="-528" font-family="Helvetica,sans-Serif" font-size="10.00"># m_edgeId</text>
<polyline fill="none" stroke="black" points="659,-521 786,-521 "/>
<text text-anchor="start" x="667" y="-509" font-family="Helvetica,sans-Serif" font-size="10.00">+ addNeighbor()</text>
<text text-anchor="start" x="667" y="-498" font-family="Helvetica,sans-Serif" font-size="10.00">+ addPoint()</text>
<text text-anchor="start" x="667" y="-487" font-family="Helvetica,sans-Serif" font-size="10.00">+ edgeId()</text>
<text text-anchor="start" x="667" y="-476" font-family="Helvetica,sans-Serif" font-size="10.00">+ getIntersectionIDWith()</text>
<text text-anchor="start" x="667" y="-465" font-family="Helvetica,sans-Serif" font-size="10.00">+ getNoOfNeighbors()</text>
<text text-anchor="start" x="667" y="-454" font-family="Helvetica,sans-Serif" font-size="10.00">+ outputInfos()</text>
<text text-anchor="start" x="667" y="-443" font-family="Helvetica,sans-Serif" font-size="10.00">+ Road()</text>
<text text-anchor="start" x="667" y="-432" font-family="Helvetica,sans-Serif" font-size="10.00">+ Road()</text>
<text text-anchor="start" x="667" y="-421" font-family="Helvetica,sans-Serif" font-size="10.00">+ vectorOfPointsId()</text>
<text text-anchor="start" x="667" y="-410" font-family="Helvetica,sans-Serif" font-size="10.00">+ ~Road()</text>
</a>
</g>
</g>
<!-- Node13&#45;&gt;Node12 -->
<g id="edge14" class="edge"><title>Node13&#45;&gt;Node12</title>
<path fill="none" stroke="#404040" d="M696.923,-402.559C692.254,-388.423 687.529,-374.115 683.307,-361.331"/>
<polygon fill="none" stroke="#404040" points="683.195,-360.992 677.515,-356.549 679.431,-349.597 685.111,-354.04 683.195,-360.992"/>
<text text-anchor="middle" x="714" y="-371" font-family="Helvetica,sans-Serif" font-size="10.00"> +elements</text>
</g>
<!-- Node14 -->
<g id="node14" class="node"><title>Node14</title>
<polygon fill="none" stroke="#bfbfbf" points="679.5,-695 679.5,-752 765.5,-752 765.5,-695 679.5,-695"/>
<text text-anchor="middle" x="722.5" y="-740" font-family="Helvetica,sans-Serif" font-size="10.00">std::set&lt; long &gt;</text>
<polyline fill="none" stroke="#bfbfbf" points="679.5,-733 765.5,-733 "/>
<text text-anchor="start" x="687.5" y="-721" font-family="Helvetica,sans-Serif" font-size="10.00">+ keys</text>
<polyline fill="none" stroke="#bfbfbf" points="679.5,-714 765.5,-714 "/>
<text text-anchor="middle" x="722.5" y="-702" font-family="Helvetica,sans-Serif" font-size="10.00"> </text>
</g>
<!-- Node14&#45;&gt;Node13 -->
<g id="edge15" class="edge"><title>Node14&#45;&gt;Node13</title>
<path fill="none" stroke="#404040" d="M722.5,-694.912C722.5,-664.856 722.5,-615.205 722.5,-571.407"/>
<polygon fill="none" stroke="#404040" points="722.5,-571.23 718.5,-565.23 722.5,-559.23 726.5,-565.23 722.5,-571.23"/>
<text text-anchor="middle" x="768" y="-586" font-family="Helvetica,sans-Serif" font-size="10.00"> +m_setOfNeighbors</text>
</g>
<!-- Node15 -->
<g id="node15" class="node"><title>Node15</title>
<polygon fill="none" stroke="#bfbfbf" points="790.5,-695 790.5,-752 882.5,-752 882.5,-695 790.5,-695"/>
<text text-anchor="middle" x="836.5" y="-740" font-family="Helvetica,sans-Serif" font-size="10.00">std::vector&lt; int &gt;</text>
<polyline fill="none" stroke="#bfbfbf" points="790.5,-733 882.5,-733 "/>
<text text-anchor="start" x="798.5" y="-721" font-family="Helvetica,sans-Serif" font-size="10.00">+ elements</text>
<polyline fill="none" stroke="#bfbfbf" points="790.5,-714 882.5,-714 "/>
<text text-anchor="middle" x="836.5" y="-702" font-family="Helvetica,sans-Serif" font-size="10.00"> </text>
</g>
<!-- Node15&#45;&gt;Node13 -->
<g id="edge16" class="edge"><title>Node15&#45;&gt;Node13</title>
<path fill="none" stroke="#404040" d="M836.748,-694.909C835.986,-665.731 831.797,-619.027 814.5,-583 808.959,-571.459 801.665,-560.294 793.602,-549.861"/>
<polygon fill="none" stroke="#404040" points="793.567,-549.817 786.682,-547.674 786.011,-540.495 792.897,-542.637 793.567,-549.817"/>
<text text-anchor="middle" x="867.5" y="-586" font-family="Helvetica,sans-Serif" font-size="10.00"> #m_vectorOfPointsId</text>
</g>
</g>
</svg>
        <g id="navigator" transform="translate(0 0)" fill="#404254">
                <rect fill="#f2f5e9" fill-opacity="0.5" stroke="#606060" stroke-width=".5" x="0" y="0" width="60" height="60"/>
                <use id="zoomplus" xlink:href="#zoomPlus" x="17" y="9" onmousedown="handleZoom(evt,'in')"/>
                <use id="zoomminus" xlink:href="#zoomMin" x="42" y="9" onmousedown="handleZoom(evt,'out')"/>
                <use id="reset" xlink:href="#resetDef" x="30" y="36" onmousedown="handleReset()"/>
                <g id="arrowUp" xlink:href="#dirArrow" transform="translate(30 24)" onmousedown="handlePan(0,-1)">
                  <use xlink:href="#rim" fill="#404040">
                        <set attributeName="fill" to="#808080" begin="arrowUp.mouseover" end="arrowUp.mouseout"/>
                  </use>
                  <path fill="none" stroke="white" stroke-width="1.5" d="M0,-3.0v7 M-2.5,-0.5L0,-3.0L2.5,-0.5"/>
                </g>
                <g id="arrowRight" xlink:href="#dirArrow" transform="rotate(90) translate(36 -43)" onmousedown="handlePan(1,0)">
                  <use xlink:href="#rim" fill="#404040">
                        <set attributeName="fill" to="#808080" begin="arrowRight.mouseover" end="arrowRight.mouseout"/>
                  </use>
                  <path fill="none" stroke="white" stroke-width="1.5" d="M0,-3.0v7 M-2.5,-0.5L0,-3.0L2.5,-0.5"/>
                </g>
                <g id="arrowDown" xlink:href="#dirArrow" transform="rotate(180) translate(-30 -48)" onmousedown="handlePan(0,1)">
                  <use xlink:href="#rim" fill="#404040">
                        <set attributeName="fill" to="#808080" begin="arrowDown.mouseover" end="arrowDown.mouseout"/>
                  </use>
                  <path fill="none" stroke="white" stroke-width="1.5" d="M0,-3.0v7 M-2.5,-0.5L0,-3.0L2.5,-0.5"/>
                </g>
                <g id="arrowLeft" xlink:href="#dirArrow" transform="rotate(270) translate(-36 17)" onmousedown="handlePan(-1,0)">
                  <use xlink:href="#rim" fill="#404040">
                        <set attributeName="fill" to="#808080" begin="arrowLeft.mouseover" end="arrowLeft.mouseout"/>
                  </use>
                  <path fill="none" stroke="white" stroke-width="1.5" d="M0,-3.0v7 M-2.5,-0.5L0,-3.0L2.5,-0.5"/>
                </g>
        </g>
        <svg viewBox="0 0 15 15" width="100%" height="30px" preserveAspectRatio="xMaxYMin meet">
         <g id="arrow_out" transform="scale(0.3 0.3)">
          <a xlink:href="class_q_map_scene__coll__graph_org.svg" target="_base">
           <rect id="button" ry="5" rx="5" y="6" x="6" height="38" width="38"
                fill="#f2f5e9" fill-opacity="0.5" stroke="#606060" stroke-width="1.0"/>
           <path id="arrow"
             d="M 11.500037,31.436501 C 11.940474,20.09759 22.043105,11.32322 32.158766,21.979434 L 37.068811,17.246167 C 37.068811,17.246167 37.088388,32 37.088388,32 L 22.160133,31.978069 C 22.160133,31.978069 26.997745,27.140456 26.997745,27.140456 C 18.528582,18.264221 13.291696,25.230495 11.500037,31.436501 z"
             style="fill:#404040;"/>
          </a>
         </g>
        </svg>
</svg>
