<?xml version="1.0" encoding="UTF-8" standalone="no"?>
<!DOCTYPE svg PUBLIC "-//W3C//DTD SVG 1.1//EN"
 "http://www.w3.org/Graphics/SVG/1.1/DTD/svg11.dtd">
<!-- Generated by graphviz version 2.38.0 (20140413.2041)
 -->
<!-- Title: Grid::xMin Pages: 1 -->
<svg width="918pt" height="104pt"
 viewBox="0.00 0.00 918.00 104.00" xmlns="http://www.w3.org/2000/svg" xmlns:xlink="http://www.w3.org/1999/xlink">
<g id="graph0" class="graph" transform="scale(1 1) rotate(0) translate(4 100)">
<title>Grid::xMin</title>
<!-- Node1 -->
<g id="node1" class="node"><title>Node1</title>
<polygon fill="#bfbfbf" stroke="black" points="0,-19.5 0,-38.5 62,-38.5 62,-19.5 0,-19.5"/>
<text text-anchor="middle" x="31" y="-26.5" font-family="Helvetica,sans-Serif" font-size="10.00">Grid::xMin</text>
</g>
<!-- Node2 -->
<g id="node2" class="node"><title>Node2</title>
<g id="a_node2"><a xlink:href="class_grid.html#aa2fcca933248f3c1f4361f1b7826b692" target="_top" xlink:title="Save data about our area of roads. ">
<polygon fill="none" stroke="black" points="98,-38.5 98,-57.5 235,-57.5 235,-38.5 98,-38.5"/>
<text text-anchor="middle" x="166.5" y="-45.5" font-family="Helvetica,sans-Serif" font-size="10.00">Grid::setTrackBoundingBox</text>
</a>
</g>
</g>
<!-- Node1&#45;&gt;Node2 -->
<g id="edge1" class="edge"><title>Node1&#45;&gt;Node2</title>
<path fill="none" stroke="midnightblue" d="M72.3956,-34.7492C80.6818,-35.9285 89.6134,-37.1997 98.5499,-38.4715"/>
<polygon fill="midnightblue" stroke="midnightblue" points="72.6866,-31.2554 62.2932,-33.3114 71.7003,-38.1856 72.6866,-31.2554"/>
</g>
<!-- Node8 -->
<g id="node8" class="node"><title>Node8</title>
<g id="a_node8"><a xlink:href="class_grid.html#a8d8b7fa0ee20d81f130a46d80fc2a018" target="_top" xlink:title="Check if track is in grid. ">
<polygon fill="none" stroke="black" points="122,-0.5 122,-19.5 211,-19.5 211,-0.5 122,-0.5"/>
<text text-anchor="middle" x="166.5" y="-7.5" font-family="Helvetica,sans-Serif" font-size="10.00">Grid::trackInGrid</text>
</a>
</g>
</g>
<!-- Node1&#45;&gt;Node8 -->
<g id="edge7" class="edge"><title>Node1&#45;&gt;Node8</title>
<path fill="none" stroke="midnightblue" d="M72.2174,-23.2762C87.9005,-21.0441 105.917,-18.4799 121.91,-16.2038"/>
<polygon fill="midnightblue" stroke="midnightblue" points="71.7003,-19.8144 62.2932,-24.6886 72.6866,-26.7446 71.7003,-19.8144"/>
</g>
<!-- Node3 -->
<g id="node3" class="node"><title>Node3</title>
<g id="a_node3"><a xlink:href="main_8cpp.html#a141063eccadf0e03662d414d897d9f5d" target="_top" xlink:title="dev_gridAndTrack">
<polygon fill="none" stroke="black" points="271,-76.5 271,-95.5 366,-95.5 366,-76.5 271,-76.5"/>
<text text-anchor="middle" x="318.5" y="-83.5" font-family="Helvetica,sans-Serif" font-size="10.00">dev_gridAndTrack</text>
</a>
</g>
</g>
<!-- Node2&#45;&gt;Node3 -->
<g id="edge2" class="edge"><title>Node2&#45;&gt;Node3</title>
<path fill="none" stroke="midnightblue" d="M215.311,-60.1121C236.202,-65.4044 260.347,-71.5213 279.921,-76.4799"/>
<polygon fill="midnightblue" stroke="midnightblue" points="215.905,-56.652 205.351,-57.589 214.186,-63.4377 215.905,-56.652"/>
</g>
<!-- Node4 -->
<g id="node4" class="node"><title>Node4</title>
<g id="a_node4"><a xlink:href="class_solver.html#acbe7e47bcad48b8ddba95c9281c8bf23" target="_top" xlink:title="readFiles Read files : track and grid ">
<polygon fill="none" stroke="black" points="273.5,-38.5 273.5,-57.5 363.5,-57.5 363.5,-38.5 273.5,-38.5"/>
<text text-anchor="middle" x="318.5" y="-45.5" font-family="Helvetica,sans-Serif" font-size="10.00">Solver::readFiles</text>
</a>
</g>
</g>
<!-- Node2&#45;&gt;Node4 -->
<g id="edge3" class="edge"><title>Node2&#45;&gt;Node4</title>
<path fill="none" stroke="midnightblue" d="M245.057,-48C254.675,-48 264.237,-48 273.109,-48"/>
<polygon fill="midnightblue" stroke="midnightblue" points="245.04,-44.5001 235.04,-48 245.04,-51.5001 245.04,-44.5001"/>
</g>
<!-- Node5 -->
<g id="node5" class="node"><title>Node5</title>
<g id="a_node5"><a xlink:href="class_main_window.html#ad39bbe8ced0d3248206ac0ca6c444d55" target="_top" xlink:title="readyToNext1 Pass informations ">
<polygon fill="none" stroke="black" points="402,-19.5 402,-38.5 542,-38.5 542,-19.5 402,-19.5"/>
<text text-anchor="middle" x="472" y="-26.5" font-family="Helvetica,sans-Serif" font-size="10.00">MainWindow::readyToNext1</text>
</a>
</g>
</g>
<!-- Node4&#45;&gt;Node5 -->
<g id="edge4" class="edge"><title>Node4&#45;&gt;Node5</title>
<path fill="none" stroke="midnightblue" d="M373.798,-41.1904C382.915,-40.047 392.484,-38.8468 401.915,-37.6642"/>
<polygon fill="midnightblue" stroke="midnightblue" points="373.214,-37.7361 363.727,-42.4533 374.085,-44.6817 373.214,-37.7361"/>
</g>
<!-- Node6 -->
<g id="node6" class="node"><title>Node6</title>
<g id="a_node6"><a xlink:href="class_main_window.html#af773488e0b16efe6c0fc67ad348b86b2" target="_top" xlink:title="createConnections ">
<polygon fill="none" stroke="black" points="578,-19.5 578,-38.5 739,-38.5 739,-19.5 578,-19.5"/>
<text text-anchor="middle" x="658.5" y="-26.5" font-family="Helvetica,sans-Serif" font-size="10.00">MainWindow::createConnections</text>
</a>
</g>
</g>
<!-- Node5&#45;&gt;Node6 -->
<g id="edge5" class="edge"><title>Node5&#45;&gt;Node6</title>
<path fill="none" stroke="midnightblue" d="M552.446,-29C560.9,-29 569.501,-29 577.956,-29"/>
<polygon fill="midnightblue" stroke="midnightblue" points="552.226,-25.5001 542.226,-29 552.226,-32.5001 552.226,-25.5001"/>
</g>
<!-- Node7 -->
<g id="node7" class="node"><title>Node7</title>
<g id="a_node7"><a xlink:href="class_main_window.html#a8b244be8b7b7db1b08de2a2acb9409db" target="_top" xlink:title="MainWindow::MainWindow">
<polygon fill="none" stroke="black" points="775,-19.5 775,-38.5 910,-38.5 910,-19.5 775,-19.5"/>
<text text-anchor="middle" x="842.5" y="-26.5" font-family="Helvetica,sans-Serif" font-size="10.00">MainWindow::MainWindow</text>
</a>
</g>
</g>
<!-- Node6&#45;&gt;Node7 -->
<g id="edge6" class="edge"><title>Node6&#45;&gt;Node7</title>
<path fill="none" stroke="midnightblue" d="M749.196,-29C757.85,-29 766.52,-29 774.892,-29"/>
<polygon fill="midnightblue" stroke="midnightblue" points="749.063,-25.5001 739.063,-29 749.063,-32.5001 749.063,-25.5001"/>
</g>
<!-- Node8&#45;&gt;Node5 -->
<g id="edge8" class="edge"><title>Node8&#45;&gt;Node5</title>
<path fill="none" stroke="midnightblue" d="M221.344,-13.3708C271.708,-16.5238 347.18,-21.2485 401.953,-24.6775"/>
<polygon fill="midnightblue" stroke="midnightblue" points="221.507,-9.87421 211.307,-12.7425 221.069,-16.8605 221.507,-9.87421"/>
</g>
</g>
</svg>
