<?xml version="1.0" encoding="UTF-8" standalone="no"?>
<!DOCTYPE svg PUBLIC "-//W3C//DTD SVG 1.1//EN"
 "http://www.w3.org/Graphics/SVG/1.1/DTD/svg11.dtd">
<!-- Generated by graphviz version 2.38.0 (20140413.2041)
 -->
<!-- Title: Solver::signalMessage Pages: 1 -->
<svg width="449pt" height="66pt"
 viewBox="0.00 0.00 449.00 66.00" xmlns="http://www.w3.org/2000/svg" xmlns:xlink="http://www.w3.org/1999/xlink">
<g id="graph0" class="graph" transform="scale(1 1) rotate(0) translate(4 62)">
<title>Solver::signalMessage</title>
<!-- Node1 -->
<g id="node1" class="node"><title>Node1</title>
<polygon fill="#bfbfbf" stroke="black" points="0,-19.5 0,-38.5 116,-38.5 116,-19.5 0,-19.5"/>
<text text-anchor="middle" x="58" y="-26.5" font-family="Helvetica,sans-Serif" font-size="10.00">Solver::signalMessage</text>
</g>
<!-- Node2 -->
<g id="node2" class="node"><title>Node2</title>
<g id="a_node2"><a xlink:href="class_solver.html#a97bc7169c18b339fecd4937150f907c3" target="_top" xlink:title="Solver::start">
<polygon fill="none" stroke="black" points="152,-38.5 152,-57.5 222,-57.5 222,-38.5 152,-38.5"/>
<text text-anchor="middle" x="187" y="-45.5" font-family="Helvetica,sans-Serif" font-size="10.00">Solver::start</text>
</a>
</g>
</g>
<!-- Node1&#45;&gt;Node2 -->
<g id="edge1" class="edge"><title>Node1&#45;&gt;Node2</title>
<path fill="none" stroke="midnightblue" d="M126.154,-39.0467C134.982,-40.3674 143.715,-41.6739 151.669,-42.8638"/>
<polygon fill="midnightblue" stroke="midnightblue" points="126.592,-35.5733 116.184,-37.5551 125.556,-42.4963 126.592,-35.5733"/>
</g>
<!-- Node5 -->
<g id="node5" class="node"><title>Node5</title>
<g id="a_node5"><a xlink:href="class_solver.html#a323c9c0407f26a2ed3ec3ff5ed02a760" target="_top" xlink:title="Solver::onSignalStart">
<polygon fill="none" stroke="black" points="258,-0.5 258,-19.5 367,-19.5 367,-0.5 258,-0.5"/>
<text text-anchor="middle" x="312.5" y="-7.5" font-family="Helvetica,sans-Serif" font-size="10.00">Solver::onSignalStart</text>
</a>
</g>
</g>
<!-- Node1&#45;&gt;Node5 -->
<g id="edge5" class="edge"><title>Node1&#45;&gt;Node5</title>
<path fill="none" stroke="midnightblue" d="M126.515,-23.9197C167.673,-20.8226 219.549,-16.9191 257.884,-14.0345"/>
<polygon fill="midnightblue" stroke="midnightblue" points="126.005,-20.448 116.296,-24.6886 126.531,-27.4283 126.005,-20.448"/>
</g>
<!-- Node3 -->
<g id="node3" class="node"><title>Node3</title>
<g id="a_node3"><a xlink:href="main_8cpp.html#a9dd67c19acf7317c6296b63e29dcfab9" target="_top" xlink:title="dev_thread">
<polygon fill="none" stroke="black" points="280,-38.5 280,-57.5 345,-57.5 345,-38.5 280,-38.5"/>
<text text-anchor="middle" x="312.5" y="-45.5" font-family="Helvetica,sans-Serif" font-size="10.00">dev_thread</text>
</a>
</g>
</g>
<!-- Node2&#45;&gt;Node3 -->
<g id="edge2" class="edge"><title>Node2&#45;&gt;Node3</title>
<path fill="none" stroke="midnightblue" d="M232.108,-48C247.813,-48 265.181,-48 279.658,-48"/>
<polygon fill="midnightblue" stroke="midnightblue" points="232.074,-44.5001 222.074,-48 232.074,-51.5001 232.074,-44.5001"/>
</g>
<!-- Node2&#45;&gt;Node5 -->
<g id="edge4" class="edge"><title>Node2&#45;&gt;Node5</title>
<path fill="none" stroke="midnightblue" d="M228.74,-35.4647C245.54,-30.2952 264.697,-24.4009 280.346,-19.5859"/>
<polygon fill="midnightblue" stroke="midnightblue" points="227.693,-32.1248 219.164,-38.411 229.751,-38.8153 227.693,-32.1248"/>
</g>
<!-- Node4 -->
<g id="node4" class="node"><title>Node4</title>
<g id="a_node4"><a xlink:href="main_8cpp.html#a0ddf1224851353fc92bfbff6f499fa97" target="_top" xlink:title="main">
<polygon fill="none" stroke="black" points="403,-38.5 403,-57.5 441,-57.5 441,-38.5 403,-38.5"/>
<text text-anchor="middle" x="422" y="-45.5" font-family="Helvetica,sans-Serif" font-size="10.00">main</text>
</a>
</g>
</g>
<!-- Node3&#45;&gt;Node4 -->
<g id="edge3" class="edge"><title>Node3&#45;&gt;Node4</title>
<path fill="none" stroke="midnightblue" d="M355.208,-48C371.755,-48 389.908,-48 402.946,-48"/>
<polygon fill="midnightblue" stroke="midnightblue" points="355.172,-44.5001 345.172,-48 355.172,-51.5001 355.172,-44.5001"/>
</g>
</g>
</svg>
