<?xml version="1.0" encoding="UTF-8" standalone="no"?>
<!DOCTYPE svg PUBLIC "-//W3C//DTD SVG 1.1//EN"
 "http://www.w3.org/Graphics/SVG/1.1/DTD/svg11.dtd">
<!-- Generated by graphviz version 2.38.0 (20140413.2041)
 -->
<!-- Title: QMapScene::highlightSelectedPoint Pages: 1 -->
<svg width="341pt" height="78pt"
 viewBox="0.00 0.00 341.00 77.50" xmlns="http://www.w3.org/2000/svg" xmlns:xlink="http://www.w3.org/1999/xlink">
<g id="graph0" class="graph" transform="scale(1 1) rotate(0) translate(4 73.5)">
<title>QMapScene::highlightSelectedPoint</title>
<!-- Node1 -->
<g id="node1" class="node"><title>Node1</title>
<polygon fill="#bfbfbf" stroke="black" points="0,-22.5 0,-52.5 151,-52.5 151,-22.5 0,-22.5"/>
<text text-anchor="start" x="8" y="-40.5" font-family="Helvetica,sans-Serif" font-size="10.00">QMapScene::highlightSelected</text>
<text text-anchor="middle" x="75.5" y="-29.5" font-family="Helvetica,sans-Serif" font-size="10.00">Point</text>
</g>
<!-- Node2 -->
<g id="node2" class="node"><title>Node2</title>
<g id="a_node2"><a xlink:href="class_q_map_scene.html#a7bb4c45ab68ca8a47ab4f24d1f8a2593" target="_top" xlink:title="QMapScene::onSignalStart">
<polygon fill="none" stroke="black" points="192.5,-50 192.5,-69 327.5,-69 327.5,-50 192.5,-50"/>
<text text-anchor="middle" x="260" y="-57" font-family="Helvetica,sans-Serif" font-size="10.00">QMapScene::onSignalStart</text>
</a>
</g>
</g>
<!-- Node1&#45;&gt;Node2 -->
<g id="edge1" class="edge"><title>Node1&#45;&gt;Node2</title>
<path fill="none" stroke="midnightblue" d="M161.197,-47.7101C171.621,-48.9666 182.159,-50.237 192.264,-51.4551"/>
<polygon fill="midnightblue" stroke="midnightblue" points="161.603,-44.2338 151.256,-46.5117 160.766,-51.1835 161.603,-44.2338"/>
</g>
<!-- Node3 -->
<g id="node3" class="node"><title>Node3</title>
<g id="a_node3"><a xlink:href="class_q_map_scene.html#a33fb5928b92a675cff26224dbb54e71e" target="_top" xlink:title="QMapScene::onSignalCurrent\lPoint">
<polygon fill="none" stroke="black" points="187,-0.5 187,-30.5 333,-30.5 333,-0.5 187,-0.5"/>
<text text-anchor="start" x="195" y="-18.5" font-family="Helvetica,sans-Serif" font-size="10.00">QMapScene::onSignalCurrent</text>
<text text-anchor="middle" x="260" y="-7.5" font-family="Helvetica,sans-Serif" font-size="10.00">Point</text>
</a>
</g>
</g>
<!-- Node1&#45;&gt;Node3 -->
<g id="edge2" class="edge"><title>Node1&#45;&gt;Node3</title>
<path fill="none" stroke="midnightblue" d="M161.211,-27.2883C169.736,-26.2606 178.338,-25.2236 186.717,-24.2136"/>
<polygon fill="midnightblue" stroke="midnightblue" points="160.766,-23.8165 151.256,-28.4883 161.603,-30.7662 160.766,-23.8165"/>
</g>
</g>
</svg>
