<?xml version="1.0" encoding="UTF-8" standalone="no"?>
<!DOCTYPE svg PUBLIC "-//W3C//DTD SVG 1.1//EN"
 "http://www.w3.org/Graphics/SVG/1.1/DTD/svg11.dtd">
<!-- Generated by graphviz version 2.38.0 (20140413.2041)
 -->
<!-- Title: Grid::readFromCSV Pages: 1 -->
<svg width="545pt" height="256pt"
 viewBox="0.00 0.00 545.00 256.00" xmlns="http://www.w3.org/2000/svg" xmlns:xlink="http://www.w3.org/1999/xlink">
<g id="graph0" class="graph" transform="scale(1 1) rotate(0) translate(4 252)">
<title>Grid::readFromCSV</title>
<!-- Node1 -->
<g id="node1" class="node"><title>Node1</title>
<polygon fill="#bfbfbf" stroke="black" points="0,-152.5 0,-171.5 103,-171.5 103,-152.5 0,-152.5"/>
<text text-anchor="middle" x="51.5" y="-159.5" font-family="Helvetica,sans-Serif" font-size="10.00">Grid::readFromCSV</text>
</g>
<!-- Node2 -->
<g id="node2" class="node"><title>Node2</title>
<g id="a_node2"><a xlink:href="class_grid.html#a6b6af4fb2545b398b47794de576f15f5" target="_top" xlink:title="inFootPrint Test if a point is in the defined area of a track ">
<polygon fill="none" stroke="black" points="139,-190.5 139,-209.5 227,-209.5 227,-190.5 139,-190.5"/>
<text text-anchor="middle" x="183" y="-197.5" font-family="Helvetica,sans-Serif" font-size="10.00">Grid::inFootPrint</text>
</a>
</g>
</g>
<!-- Node1&#45;&gt;Node2 -->
<g id="edge1" class="edge"><title>Node1&#45;&gt;Node2</title>
<path fill="none" stroke="midnightblue" d="M85.1783,-171.589C101.589,-176.404 121.676,-182.299 139.292,-187.468"/>
<polygon fill="midnightblue" stroke="midnightblue" points="138.751,-190.957 149.332,-190.414 140.722,-184.24 138.751,-190.957"/>
</g>
<!-- Node3 -->
<g id="node3" class="node"><title>Node3</title>
<g id="a_node3"><a xlink:href="class_grid.html#a58233ab60f7477144af334f205606aa4" target="_top" xlink:title="updateGrid Find max and min of the grid ">
<polygon fill="none" stroke="black" points="139,-152.5 139,-171.5 227,-171.5 227,-152.5 139,-152.5"/>
<text text-anchor="middle" x="183" y="-159.5" font-family="Helvetica,sans-Serif" font-size="10.00">Grid::updateGrid</text>
</a>
</g>
</g>
<!-- Node1&#45;&gt;Node3 -->
<g id="edge2" class="edge"><title>Node1&#45;&gt;Node3</title>
<path fill="none" stroke="midnightblue" d="M103.31,-162C111.673,-162 120.361,-162 128.78,-162"/>
<polygon fill="midnightblue" stroke="midnightblue" points="128.877,-165.5 138.877,-162 128.877,-158.5 128.877,-165.5"/>
</g>
<!-- Node4 -->
<g id="node4" class="node"><title>Node4</title>
<g id="a_node4"><a xlink:href="class_grid.html#aba1830bc145f128d6deeed29cfb94c9f" target="_top" xlink:title="addRoad Creates a new road and inserts it in m_road ">
<polygon fill="none" stroke="black" points="143,-114.5 143,-133.5 223,-133.5 223,-114.5 143,-114.5"/>
<text text-anchor="middle" x="183" y="-121.5" font-family="Helvetica,sans-Serif" font-size="10.00">Grid::addRoad</text>
</a>
</g>
</g>
<!-- Node1&#45;&gt;Node4 -->
<g id="edge3" class="edge"><title>Node1&#45;&gt;Node4</title>
<path fill="none" stroke="midnightblue" d="M85.1783,-152.411C101.589,-147.596 121.676,-141.701 139.292,-136.532"/>
<polygon fill="midnightblue" stroke="midnightblue" points="140.722,-139.76 149.332,-133.586 138.751,-133.043 140.722,-139.76"/>
</g>
<!-- Node5 -->
<g id="node5" class="node"><title>Node5</title>
<g id="a_node5"><a xlink:href="class_point_road.html#aa1b90c3fdf8ae7a1fcd8ce6182d13287" target="_top" xlink:title="PointRoad::outputInfos">
<polygon fill="none" stroke="black" points="285.5,-228.5 285.5,-247.5 402.5,-247.5 402.5,-228.5 285.5,-228.5"/>
<text text-anchor="middle" x="344" y="-235.5" font-family="Helvetica,sans-Serif" font-size="10.00">PointRoad::outputInfos</text>
</a>
</g>
</g>
<!-- Node4&#45;&gt;Node5 -->
<g id="edge4" class="edge"><title>Node4&#45;&gt;Node5</title>
<path fill="none" stroke="midnightblue" d="M213.523,-133.652C218.414,-136.158 223.141,-139.242 227,-143 253.774,-169.079 233.957,-195.475 263,-219 266.988,-222.23 271.434,-224.928 276.131,-227.179"/>
<polygon fill="midnightblue" stroke="midnightblue" points="274.836,-230.431 285.416,-230.98 277.487,-223.953 274.836,-230.431"/>
</g>
<!-- Node6 -->
<g id="node6" class="node"><title>Node6</title>
<g id="a_node6"><a xlink:href="class_point_road.html#ab53ccb3c883bdfd27c707901c5c658c8" target="_top" xlink:title="PointRoad::updateBelongToRoad">
<polygon fill="none" stroke="black" points="263,-190.5 263,-209.5 425,-209.5 425,-190.5 263,-190.5"/>
<text text-anchor="middle" x="344" y="-197.5" font-family="Helvetica,sans-Serif" font-size="10.00">PointRoad::updateBelongToRoad</text>
</a>
</g>
</g>
<!-- Node4&#45;&gt;Node6 -->
<g id="edge5" class="edge"><title>Node4&#45;&gt;Node6</title>
<path fill="none" stroke="midnightblue" d="M210.363,-133.668C216.082,-136.298 221.931,-139.425 227,-143 246.012,-156.408 242.843,-169.384 263,-181 266.861,-183.225 270.97,-185.19 275.21,-186.925"/>
<polygon fill="midnightblue" stroke="midnightblue" points="274.058,-190.231 284.652,-190.369 276.457,-183.655 274.058,-190.231"/>
</g>
<!-- Node7 -->
<g id="node7" class="node"><title>Node7</title>
<g id="a_node7"><a xlink:href="class_point_road.html#a998665db2d7e4fc4935ef95df092ff2b" target="_top" xlink:title="PointRoad::setid">
<polygon fill="none" stroke="black" points="299.5,-152.5 299.5,-171.5 388.5,-171.5 388.5,-152.5 299.5,-152.5"/>
<text text-anchor="middle" x="344" y="-159.5" font-family="Helvetica,sans-Serif" font-size="10.00">PointRoad::setid</text>
</a>
</g>
</g>
<!-- Node4&#45;&gt;Node7 -->
<g id="edge6" class="edge"><title>Node4&#45;&gt;Node7</title>
<path fill="none" stroke="midnightblue" d="M223.303,-133.393C244.452,-138.448 270.75,-144.733 293.306,-150.123"/>
<polygon fill="midnightblue" stroke="midnightblue" points="292.505,-153.53 303.044,-152.451 294.132,-146.722 292.505,-153.53"/>
</g>
<!-- Node8 -->
<g id="node8" class="node"><title>Node8</title>
<g id="a_node8"><a xlink:href="class_point_road.html#a81372f2c2c0fe1084fa2397289518124" target="_top" xlink:title="PointRoad::id">
<polygon fill="none" stroke="black" points="461,-133.5 461,-152.5 537,-152.5 537,-133.5 461,-133.5"/>
<text text-anchor="middle" x="499" y="-140.5" font-family="Helvetica,sans-Serif" font-size="10.00">PointRoad::id</text>
</a>
</g>
</g>
<!-- Node4&#45;&gt;Node8 -->
<g id="edge9" class="edge"><title>Node4&#45;&gt;Node8</title>
<path fill="none" stroke="midnightblue" d="M223.133,-126.368C280.791,-129.857 388.427,-136.37 450.52,-140.127"/>
<polygon fill="midnightblue" stroke="midnightblue" points="450.628,-143.64 460.821,-140.75 451.051,-136.653 450.628,-143.64"/>
</g>
<!-- Node9 -->
<g id="node9" class="node"><title>Node9</title>
<g id="a_node9"><a xlink:href="class_point_road.html#ae83941b37b026758fdd7974b4b186fbc" target="_top" xlink:title="PointRoad::isNode">
<polygon fill="none" stroke="black" points="294.5,-76.5 294.5,-95.5 393.5,-95.5 393.5,-76.5 294.5,-76.5"/>
<text text-anchor="middle" x="344" y="-83.5" font-family="Helvetica,sans-Serif" font-size="10.00">PointRoad::isNode</text>
</a>
</g>
</g>
<!-- Node4&#45;&gt;Node9 -->
<g id="edge8" class="edge"><title>Node4&#45;&gt;Node9</title>
<path fill="none" stroke="midnightblue" d="M223.303,-114.607C244.452,-109.552 270.75,-103.267 293.306,-97.8766"/>
<polygon fill="midnightblue" stroke="midnightblue" points="294.132,-101.278 303.044,-95.5491 292.505,-94.4696 294.132,-101.278"/>
</g>
<!-- Node10 -->
<g id="node10" class="node"><title>Node10</title>
<g id="a_node10"><a xlink:href="class_road.html#a7f97b4f20c598103baad510b19a0c0b5" target="_top" xlink:title="addPoint ">
<polygon fill="none" stroke="black" points="302,-38.5 302,-57.5 386,-57.5 386,-38.5 302,-38.5"/>
<text text-anchor="middle" x="344" y="-45.5" font-family="Helvetica,sans-Serif" font-size="10.00">Road::addPoint</text>
</a>
</g>
</g>
<!-- Node4&#45;&gt;Node10 -->
<g id="edge10" class="edge"><title>Node4&#45;&gt;Node10</title>
<path fill="none" stroke="midnightblue" d="M194.393,-114.408C208.743,-101.682 235.932,-79.3843 263,-67 272.054,-62.8574 282.113,-59.5617 291.958,-56.9589"/>
<polygon fill="midnightblue" stroke="midnightblue" points="292.802,-60.3557 301.685,-54.5815 291.14,-53.5558 292.802,-60.3557"/>
</g>
<!-- Node11 -->
<g id="node11" class="node"><title>Node11</title>
<g id="a_node11"><a xlink:href="class_road.html#ad6715392969e36eb10efac542519755c" target="_top" xlink:title="edgeId ">
<polygon fill="none" stroke="black" points="306.5,-0.5 306.5,-19.5 381.5,-19.5 381.5,-0.5 306.5,-0.5"/>
<text text-anchor="middle" x="344" y="-7.5" font-family="Helvetica,sans-Serif" font-size="10.00">Road::edgeId</text>
</a>
</g>
</g>
<!-- Node4&#45;&gt;Node11 -->
<g id="edge11" class="edge"><title>Node4&#45;&gt;Node11</title>
<path fill="none" stroke="midnightblue" d="M189.097,-114.442C199.943,-95.0744 227.27,-51.1593 263,-29 273.04,-22.7734 284.949,-18.587 296.469,-15.7724"/>
<polygon fill="midnightblue" stroke="midnightblue" points="297.393,-19.154 306.437,-13.6353 295.925,-12.3096 297.393,-19.154"/>
</g>
<!-- Node7&#45;&gt;Node8 -->
<g id="edge7" class="edge"><title>Node7&#45;&gt;Node8</title>
<path fill="none" stroke="midnightblue" d="M388.844,-156.555C408.244,-154.146 431.094,-151.309 450.861,-148.854"/>
<polygon fill="midnightblue" stroke="midnightblue" points="451.39,-152.315 460.882,-147.609 450.527,-145.369 451.39,-152.315"/>
</g>
</g>
</svg>
