<?xml version="1.0" encoding="UTF-8" standalone="no"?>
<!DOCTYPE svg PUBLIC "-//W3C//DTD SVG 1.1//EN"
 "http://www.w3.org/Graphics/SVG/1.1/DTD/svg11.dtd">
<!-- Generated by graphviz version 2.38.0 (20140413.2041)
 -->
<!-- Title: Road::addPoint Pages: 1 -->
<svg width="1022pt" height="142pt"
 viewBox="0.00 0.00 1022.00 142.00" xmlns="http://www.w3.org/2000/svg" xmlns:xlink="http://www.w3.org/1999/xlink">
<g id="graph0" class="graph" transform="scale(1 1) rotate(0) translate(4 138)">
<title>Road::addPoint</title>
<!-- Node1 -->
<g id="node1" class="node"><title>Node1</title>
<polygon fill="#bfbfbf" stroke="black" points="0,-38.5 0,-57.5 84,-57.5 84,-38.5 0,-38.5"/>
<text text-anchor="middle" x="42" y="-45.5" font-family="Helvetica,sans-Serif" font-size="10.00">Road::addPoint</text>
</g>
<!-- Node2 -->
<g id="node2" class="node"><title>Node2</title>
<g id="a_node2"><a xlink:href="class_grid.html#aba1830bc145f128d6deeed29cfb94c9f" target="_top" xlink:title="Creates a new road and inserts it in m_road. ">
<polygon fill="none" stroke="black" points="120,-57.5 120,-76.5 200,-76.5 200,-57.5 120,-57.5"/>
<text text-anchor="middle" x="160" y="-64.5" font-family="Helvetica,sans-Serif" font-size="10.00">Grid::addRoad</text>
</a>
</g>
</g>
<!-- Node1&#45;&gt;Node2 -->
<g id="edge1" class="edge"><title>Node1&#45;&gt;Node2</title>
<path fill="none" stroke="midnightblue" d="M94.19,-56.3846C102.798,-57.7946 111.61,-59.2378 119.852,-60.5877"/>
<polygon fill="midnightblue" stroke="midnightblue" points="94.6581,-52.9147 84.2239,-54.7522 93.5266,-59.8226 94.6581,-52.9147"/>
</g>
<!-- Node14 -->
<g id="node14" class="node"><title>Node14</title>
<g id="a_node14"><a xlink:href="class_road.html#ae27e2447c9236e0b432cbb8ebf0222f3" target="_top" xlink:title="Constructor. Instanciates a Road object with a specific ID. ">
<polygon fill="none" stroke="black" points="125.5,-19.5 125.5,-38.5 194.5,-38.5 194.5,-19.5 125.5,-19.5"/>
<text text-anchor="middle" x="160" y="-26.5" font-family="Helvetica,sans-Serif" font-size="10.00">Road::Road</text>
</a>
</g>
</g>
<!-- Node1&#45;&gt;Node14 -->
<g id="edge13" class="edge"><title>Node1&#45;&gt;Node14</title>
<path fill="none" stroke="midnightblue" d="M94.1553,-39.6211C104.659,-37.9007 115.466,-36.1306 125.173,-34.5407"/>
<polygon fill="midnightblue" stroke="midnightblue" points="93.5266,-36.1774 84.2239,-41.2478 94.6581,-43.0853 93.5266,-36.1774"/>
</g>
<!-- Node3 -->
<g id="node3" class="node"><title>Node3</title>
<g id="a_node3"><a xlink:href="class_grid.html#ae848f1c59c544adc1af9133409ee0106" target="_top" xlink:title="Reads a csv file and inserts info into the corresponding attributs. ">
<polygon fill="none" stroke="black" points="236,-57.5 236,-76.5 339,-76.5 339,-57.5 236,-57.5"/>
<text text-anchor="middle" x="287.5" y="-64.5" font-family="Helvetica,sans-Serif" font-size="10.00">Grid::readFromCSV</text>
</a>
</g>
</g>
<!-- Node2&#45;&gt;Node3 -->
<g id="edge2" class="edge"><title>Node2&#45;&gt;Node3</title>
<path fill="none" stroke="midnightblue" d="M210.141,-67C218.616,-67 227.438,-67 235.949,-67"/>
<polygon fill="midnightblue" stroke="midnightblue" points="210.021,-63.5001 200.021,-67 210.021,-70.5001 210.021,-63.5001"/>
</g>
<!-- Node4 -->
<g id="node4" class="node"><title>Node4</title>
<g id="a_node4"><a xlink:href="main_8cpp.html#a640261e473790d1a87c2f33332460793" target="_top" xlink:title="dev_grid">
<polygon fill="none" stroke="black" points="396,-114.5 396,-133.5 449,-133.5 449,-114.5 396,-114.5"/>
<text text-anchor="middle" x="422.5" y="-121.5" font-family="Helvetica,sans-Serif" font-size="10.00">dev_grid</text>
</a>
</g>
</g>
<!-- Node3&#45;&gt;Node4 -->
<g id="edge3" class="edge"><title>Node3&#45;&gt;Node4</title>
<path fill="none" stroke="midnightblue" d="M318.953,-80.6093C335.489,-87.9404 356.316,-97.0805 375,-105 382.387,-108.131 390.47,-111.466 397.795,-114.453"/>
<polygon fill="midnightblue" stroke="midnightblue" points="320.322,-77.3874 309.762,-76.5247 317.479,-83.7842 320.322,-77.3874"/>
</g>
<!-- Node5 -->
<g id="node5" class="node"><title>Node5</title>
<g id="a_node5"><a xlink:href="main_8cpp.html#a141063eccadf0e03662d414d897d9f5d" target="_top" xlink:title="dev_gridAndTrack">
<polygon fill="none" stroke="black" points="375,-76.5 375,-95.5 470,-95.5 470,-76.5 375,-76.5"/>
<text text-anchor="middle" x="422.5" y="-83.5" font-family="Helvetica,sans-Serif" font-size="10.00">dev_gridAndTrack</text>
</a>
</g>
</g>
<!-- Node3&#45;&gt;Node5 -->
<g id="edge4" class="edge"><title>Node3&#45;&gt;Node5</title>
<path fill="none" stroke="midnightblue" d="M349.202,-75.6717C357.837,-76.9053 366.604,-78.1577 374.913,-79.3447"/>
<polygon fill="midnightblue" stroke="midnightblue" points="349.556,-72.1868 339.161,-74.2373 348.565,-79.1164 349.556,-72.1868"/>
</g>
<!-- Node6 -->
<g id="node6" class="node"><title>Node6</title>
<g id="a_node6"><a xlink:href="class_solver.html#a97bc7169c18b339fecd4937150f907c3" target="_top" xlink:title="Solver::start">
<polygon fill="none" stroke="black" points="387.5,-38.5 387.5,-57.5 457.5,-57.5 457.5,-38.5 387.5,-38.5"/>
<text text-anchor="middle" x="422.5" y="-45.5" font-family="Helvetica,sans-Serif" font-size="10.00">Solver::start</text>
</a>
</g>
</g>
<!-- Node3&#45;&gt;Node6 -->
<g id="edge5" class="edge"><title>Node3&#45;&gt;Node6</title>
<path fill="none" stroke="midnightblue" d="M349.132,-58.3383C362.294,-56.4579 375.766,-54.5334 387.462,-52.8625"/>
<polygon fill="midnightblue" stroke="midnightblue" points="348.565,-54.8836 339.161,-59.7627 349.556,-61.8132 348.565,-54.8836"/>
</g>
<!-- Node10 -->
<g id="node10" class="node"><title>Node10</title>
<g id="a_node10"><a xlink:href="class_solver.html#acbe7e47bcad48b8ddba95c9281c8bf23" target="_top" xlink:title="readFiles Read files : track and grid ">
<polygon fill="none" stroke="black" points="377.5,-0.5 377.5,-19.5 467.5,-19.5 467.5,-0.5 377.5,-0.5"/>
<text text-anchor="middle" x="422.5" y="-7.5" font-family="Helvetica,sans-Serif" font-size="10.00">Solver::readFiles</text>
</a>
</g>
</g>
<!-- Node3&#45;&gt;Node10 -->
<g id="edge9" class="edge"><title>Node3&#45;&gt;Node10</title>
<path fill="none" stroke="midnightblue" d="M318.953,-53.3907C335.489,-46.0596 356.316,-36.9195 375,-29 382.387,-25.8689 390.47,-22.5344 397.795,-19.5471"/>
<polygon fill="midnightblue" stroke="midnightblue" points="317.479,-50.2158 309.762,-57.4753 320.322,-56.6126 317.479,-50.2158"/>
</g>
<!-- Node7 -->
<g id="node7" class="node"><title>Node7</title>
<g id="a_node7"><a xlink:href="main_8cpp.html#a9dd67c19acf7317c6296b63e29dcfab9" target="_top" xlink:title="dev_thread">
<polygon fill="none" stroke="black" points="543.5,-76.5 543.5,-95.5 608.5,-95.5 608.5,-76.5 543.5,-76.5"/>
<text text-anchor="middle" x="576" y="-83.5" font-family="Helvetica,sans-Serif" font-size="10.00">dev_thread</text>
</a>
</g>
</g>
<!-- Node6&#45;&gt;Node7 -->
<g id="edge6" class="edge"><title>Node6&#45;&gt;Node7</title>
<path fill="none" stroke="midnightblue" d="M467.894,-59.1352C492.093,-65.2049 521.477,-72.575 543.342,-78.0593"/>
<polygon fill="midnightblue" stroke="midnightblue" points="468.429,-55.6609 457.878,-56.6228 466.726,-62.4506 468.429,-55.6609"/>
</g>
<!-- Node9 -->
<g id="node9" class="node"><title>Node9</title>
<g id="a_node9"><a xlink:href="class_solver.html#a323c9c0407f26a2ed3ec3ff5ed02a760" target="_top" xlink:title="Solver::onSignalStart">
<polygon fill="none" stroke="black" points="521.5,-38.5 521.5,-57.5 630.5,-57.5 630.5,-38.5 521.5,-38.5"/>
<text text-anchor="middle" x="576" y="-45.5" font-family="Helvetica,sans-Serif" font-size="10.00">Solver::onSignalStart</text>
</a>
</g>
</g>
<!-- Node6&#45;&gt;Node9 -->
<g id="edge8" class="edge"><title>Node6&#45;&gt;Node9</title>
<path fill="none" stroke="midnightblue" d="M467.952,-48C484.706,-48 503.939,-48 521.439,-48"/>
<polygon fill="midnightblue" stroke="midnightblue" points="467.878,-44.5001 457.878,-48 467.878,-51.5001 467.878,-44.5001"/>
</g>
<!-- Node8 -->
<g id="node8" class="node"><title>Node8</title>
<g id="a_node8"><a xlink:href="main_8cpp.html#a0ddf1224851353fc92bfbff6f499fa97" target="_top" xlink:title="main">
<polygon fill="none" stroke="black" points="743.5,-76.5 743.5,-95.5 781.5,-95.5 781.5,-76.5 743.5,-76.5"/>
<text text-anchor="middle" x="762.5" y="-83.5" font-family="Helvetica,sans-Serif" font-size="10.00">main</text>
</a>
</g>
</g>
<!-- Node7&#45;&gt;Node8 -->
<g id="edge7" class="edge"><title>Node7&#45;&gt;Node8</title>
<path fill="none" stroke="midnightblue" d="M618.733,-86C657.774,-86 714.269,-86 743.087,-86"/>
<polygon fill="midnightblue" stroke="midnightblue" points="618.717,-82.5001 608.717,-86 618.717,-89.5001 618.717,-82.5001"/>
</g>
<!-- Node11 -->
<g id="node11" class="node"><title>Node11</title>
<g id="a_node11"><a xlink:href="class_main_window.html#ad39bbe8ced0d3248206ac0ca6c444d55" target="_top" xlink:title="readyToNext1 Pass informations ">
<polygon fill="none" stroke="black" points="506,-0.5 506,-19.5 646,-19.5 646,-0.5 506,-0.5"/>
<text text-anchor="middle" x="576" y="-7.5" font-family="Helvetica,sans-Serif" font-size="10.00">MainWindow::readyToNext1</text>
</a>
</g>
</g>
<!-- Node10&#45;&gt;Node11 -->
<g id="edge10" class="edge"><title>Node10&#45;&gt;Node11</title>
<path fill="none" stroke="midnightblue" d="M477.798,-10C486.915,-10 496.484,-10 505.915,-10"/>
<polygon fill="midnightblue" stroke="midnightblue" points="477.727,-6.5001 467.727,-10 477.727,-13.5001 477.727,-6.5001"/>
</g>
<!-- Node12 -->
<g id="node12" class="node"><title>Node12</title>
<g id="a_node12"><a xlink:href="class_main_window.html#af773488e0b16efe6c0fc67ad348b86b2" target="_top" xlink:title="createConnections ">
<polygon fill="none" stroke="black" points="682,-0.5 682,-19.5 843,-19.5 843,-0.5 682,-0.5"/>
<text text-anchor="middle" x="762.5" y="-7.5" font-family="Helvetica,sans-Serif" font-size="10.00">MainWindow::createConnections</text>
</a>
</g>
</g>
<!-- Node11&#45;&gt;Node12 -->
<g id="edge11" class="edge"><title>Node11&#45;&gt;Node12</title>
<path fill="none" stroke="midnightblue" d="M656.446,-10C664.9,-10 673.501,-10 681.956,-10"/>
<polygon fill="midnightblue" stroke="midnightblue" points="656.226,-6.5001 646.226,-10 656.226,-13.5001 656.226,-6.5001"/>
</g>
<!-- Node13 -->
<g id="node13" class="node"><title>Node13</title>
<g id="a_node13"><a xlink:href="class_main_window.html#a8b244be8b7b7db1b08de2a2acb9409db" target="_top" xlink:title="MainWindow::MainWindow">
<polygon fill="none" stroke="black" points="879,-0.5 879,-19.5 1014,-19.5 1014,-0.5 879,-0.5"/>
<text text-anchor="middle" x="946.5" y="-7.5" font-family="Helvetica,sans-Serif" font-size="10.00">MainWindow::MainWindow</text>
</a>
</g>
</g>
<!-- Node12&#45;&gt;Node13 -->
<g id="edge12" class="edge"><title>Node12&#45;&gt;Node13</title>
<path fill="none" stroke="midnightblue" d="M853.196,-10C861.85,-10 870.52,-10 878.892,-10"/>
<polygon fill="midnightblue" stroke="midnightblue" points="853.063,-6.5001 843.063,-10 853.063,-13.5001 853.063,-6.5001"/>
</g>
</g>
</svg>
