<?xml version="1.0" encoding="UTF-8" standalone="no"?>
<!DOCTYPE svg PUBLIC "-//W3C//DTD SVG 1.1//EN"
 "http://www.w3.org/Graphics/SVG/1.1/DTD/svg11.dtd">
<!-- Generated by graphviz version 2.38.0 (20140413.2041)
 -->
<!-- Title: Solver::initialize Pages: 1 -->
<svg width="589pt" height="218pt"
 viewBox="0.00 0.00 589.00 218.00" xmlns="http://www.w3.org/2000/svg" xmlns:xlink="http://www.w3.org/1999/xlink">
<g id="graph0" class="graph" transform="scale(1 1) rotate(0) translate(4 214)">
<title>Solver::initialize</title>
<!-- Node1 -->
<g id="node1" class="node"><title>Node1</title>
<polygon fill="#bfbfbf" stroke="black" points="0,-95.5 0,-114.5 86,-114.5 86,-95.5 0,-95.5"/>
<text text-anchor="middle" x="43" y="-102.5" font-family="Helvetica,sans-Serif" font-size="10.00">Solver::initialize</text>
</g>
<!-- Node2 -->
<g id="node2" class="node"><title>Node2</title>
<g id="a_node2"><a xlink:href="class_solver.html#a11051ddab551fdcee7dc71dcad1d0fd7" target="_top" xlink:title="Solver::setDistance">
<polygon fill="none" stroke="black" points="122,-95.5 122,-114.5 225,-114.5 225,-95.5 122,-95.5"/>
<text text-anchor="middle" x="173.5" y="-102.5" font-family="Helvetica,sans-Serif" font-size="10.00">Solver::setDistance</text>
</a>
</g>
</g>
<!-- Node1&#45;&gt;Node2 -->
<g id="edge1" class="edge"><title>Node1&#45;&gt;Node2</title>
<path fill="none" stroke="midnightblue" d="M86.0757,-105C94.2827,-105 103.04,-105 111.713,-105"/>
<polygon fill="midnightblue" stroke="midnightblue" points="111.817,-108.5 121.817,-105 111.817,-101.5 111.817,-108.5"/>
</g>
<!-- Node3 -->
<g id="node3" class="node"><title>Node3</title>
<g id="a_node3"><a xlink:href="class_point_g_p_s.html#a9a622f6883b721ee5f04f092a76ece64" target="_top" xlink:title="PointGPS::infos">
<polygon fill="none" stroke="black" points="301.5,-190.5 301.5,-209.5 388.5,-209.5 388.5,-190.5 301.5,-190.5"/>
<text text-anchor="middle" x="345" y="-197.5" font-family="Helvetica,sans-Serif" font-size="10.00">PointGPS::infos</text>
</a>
</g>
</g>
<!-- Node2&#45;&gt;Node3 -->
<g id="edge2" class="edge"><title>Node2&#45;&gt;Node3</title>
<path fill="none" stroke="midnightblue" d="M182.485,-114.615C196.576,-130.918 227.544,-163.881 261,-181 270.374,-185.797 280.958,-189.395 291.353,-192.091"/>
<polygon fill="midnightblue" stroke="midnightblue" points="290.679,-195.528 301.215,-194.408 292.28,-188.713 290.679,-195.528"/>
</g>
<!-- Node5 -->
<g id="node5" class="node"><title>Node5</title>
<g id="a_node5"><a xlink:href="class_road.html#acb1a56234cdbb34e0cf5c647c7c6406d" target="_top" xlink:title="outputInfos ">
<polygon fill="none" stroke="black" points="297.5,-152.5 297.5,-171.5 392.5,-171.5 392.5,-152.5 297.5,-152.5"/>
<text text-anchor="middle" x="345" y="-159.5" font-family="Helvetica,sans-Serif" font-size="10.00">Road::outputInfos</text>
</a>
</g>
</g>
<!-- Node2&#45;&gt;Node5 -->
<g id="edge4" class="edge"><title>Node2&#45;&gt;Node5</title>
<path fill="none" stroke="midnightblue" d="M193.332,-114.512C210.587,-122.927 237.018,-135.066 261,-143 269.463,-145.8 278.545,-148.335 287.484,-150.575"/>
<polygon fill="midnightblue" stroke="midnightblue" points="286.935,-154.042 297.476,-152.976 288.571,-147.236 286.935,-154.042"/>
</g>
<!-- Node6 -->
<g id="node6" class="node"><title>Node6</title>
<g id="a_node6"><a xlink:href="class_road.html#a2877f55c577ddff8c519e7f44c2256d5" target="_top" xlink:title="vectorOfPointsId ">
<polygon fill="none" stroke="black" points="285.5,-114.5 285.5,-133.5 404.5,-133.5 404.5,-114.5 285.5,-114.5"/>
<text text-anchor="middle" x="345" y="-121.5" font-family="Helvetica,sans-Serif" font-size="10.00">Road::vectorOfPointsId</text>
</a>
</g>
</g>
<!-- Node2&#45;&gt;Node6 -->
<g id="edge5" class="edge"><title>Node2&#45;&gt;Node6</title>
<path fill="none" stroke="midnightblue" d="M225.356,-110.701C241.022,-112.457 258.538,-114.42 275.201,-116.288"/>
<polygon fill="midnightblue" stroke="midnightblue" points="275.114,-119.8 285.442,-117.436 275.894,-112.844 275.114,-119.8"/>
</g>
<!-- Node7 -->
<g id="node7" class="node"><title>Node7</title>
<g id="a_node7"><a xlink:href="class_point.html#a39daa6ebd31cdc2d7151db77bfdf2166" target="_top" xlink:title="Compute the distance between a point and a segment. ">
<polygon fill="none" stroke="black" points="279,-76.5 279,-95.5 411,-95.5 411,-76.5 279,-76.5"/>
<text text-anchor="middle" x="345" y="-83.5" font-family="Helvetica,sans-Serif" font-size="10.00">Point::distanceToSegment</text>
</a>
</g>
</g>
<!-- Node2&#45;&gt;Node7 -->
<g id="edge6" class="edge"><title>Node2&#45;&gt;Node7</title>
<path fill="none" stroke="midnightblue" d="M225.356,-99.2994C238.983,-97.7718 254.011,-96.0873 268.659,-94.4454"/>
<polygon fill="midnightblue" stroke="midnightblue" points="269.169,-97.9101 278.717,-93.3179 268.389,-90.9537 269.169,-97.9101"/>
</g>
<!-- Node10 -->
<g id="node10" class="node"><title>Node10</title>
<g id="a_node10"><a xlink:href="class_point_g_p_s.html#a9c833db3ff338f3cd2ee8480db6c7d56" target="_top" xlink:title="PointGPS::addEmissionProbability">
<polygon fill="none" stroke="black" points="261,-38.5 261,-57.5 429,-57.5 429,-38.5 261,-38.5"/>
<text text-anchor="middle" x="345" y="-45.5" font-family="Helvetica,sans-Serif" font-size="10.00">PointGPS::addEmissionProbability</text>
</a>
</g>
</g>
<!-- Node2&#45;&gt;Node10 -->
<g id="edge9" class="edge"><title>Node2&#45;&gt;Node10</title>
<path fill="none" stroke="midnightblue" d="M193.332,-95.4878C210.587,-87.0734 237.018,-74.9335 261,-67 268.783,-64.4254 277.088,-62.0747 285.325,-59.9717"/>
<polygon fill="midnightblue" stroke="midnightblue" points="286.416,-63.3079 295.297,-57.5309 284.752,-56.5086 286.416,-63.3079"/>
</g>
<!-- Node11 -->
<g id="node11" class="node"><title>Node11</title>
<g id="a_node11"><a xlink:href="class_road.html#ad6715392969e36eb10efac542519755c" target="_top" xlink:title="edgeId ">
<polygon fill="none" stroke="black" points="307.5,-0.5 307.5,-19.5 382.5,-19.5 382.5,-0.5 307.5,-0.5"/>
<text text-anchor="middle" x="345" y="-7.5" font-family="Helvetica,sans-Serif" font-size="10.00">Road::edgeId</text>
</a>
</g>
</g>
<!-- Node2&#45;&gt;Node11 -->
<g id="edge10" class="edge"><title>Node2&#45;&gt;Node11</title>
<path fill="none" stroke="midnightblue" d="M182.485,-95.3854C196.576,-79.0819 227.544,-46.1193 261,-29 272.104,-23.3184 284.904,-19.3181 297.077,-16.5079"/>
<polygon fill="midnightblue" stroke="midnightblue" points="298.029,-19.8848 307.103,-14.4165 296.599,-13.0323 298.029,-19.8848"/>
</g>
<!-- Node4 -->
<g id="node4" class="node"><title>Node4</title>
<g id="a_node4"><a xlink:href="class_point.html#a1c2033a89f5dc6faa9e50f06c2111e88" target="_top" xlink:title="Point::infos">
<polygon fill="none" stroke="black" points="490,-190.5 490,-209.5 556,-209.5 556,-190.5 490,-190.5"/>
<text text-anchor="middle" x="523" y="-197.5" font-family="Helvetica,sans-Serif" font-size="10.00">Point::infos</text>
</a>
</g>
</g>
<!-- Node3&#45;&gt;Node4 -->
<g id="edge3" class="edge"><title>Node3&#45;&gt;Node4</title>
<path fill="none" stroke="midnightblue" d="M388.605,-200C416.299,-200 452.253,-200 479.855,-200"/>
<polygon fill="midnightblue" stroke="midnightblue" points="479.991,-203.5 489.991,-200 479.991,-196.5 479.991,-203.5"/>
</g>
<!-- Node8 -->
<g id="node8" class="node"><title>Node8</title>
<g id="a_node8"><a xlink:href="class_point.html#a9d93fb520b4a3e170aab25ea738b105c" target="_top" xlink:title="Check if two points share the same coordinates. ">
<polygon fill="none" stroke="black" points="471,-95.5 471,-114.5 575,-114.5 575,-95.5 471,-95.5"/>
<text text-anchor="middle" x="523" y="-102.5" font-family="Helvetica,sans-Serif" font-size="10.00">Point::samePointAs</text>
</a>
</g>
</g>
<!-- Node7&#45;&gt;Node8 -->
<g id="edge7" class="edge"><title>Node7&#45;&gt;Node8</title>
<path fill="none" stroke="midnightblue" d="M411.036,-93.0209C427.262,-94.7726 444.608,-96.6451 460.649,-98.3769"/>
<polygon fill="midnightblue" stroke="midnightblue" points="460.659,-101.898 470.977,-99.4919 461.411,-94.9387 460.659,-101.898"/>
</g>
<!-- Node9 -->
<g id="node9" class="node"><title>Node9</title>
<g id="a_node9"><a xlink:href="class_point.html#a7cd7f7e2c0f1a11b66eac8b6f360bfd9" target="_top" xlink:title="Calculate distance between two points. ">
<polygon fill="none" stroke="black" points="465,-57.5 465,-76.5 581,-76.5 581,-57.5 465,-57.5"/>
<text text-anchor="middle" x="523" y="-64.5" font-family="Helvetica,sans-Serif" font-size="10.00">Point::distanceToPoint</text>
</a>
</g>
</g>
<!-- Node7&#45;&gt;Node9 -->
<g id="edge8" class="edge"><title>Node7&#45;&gt;Node9</title>
<path fill="none" stroke="midnightblue" d="M411.036,-78.9791C425.219,-77.4479 440.258,-75.8244 454.534,-74.2833"/>
<polygon fill="midnightblue" stroke="midnightblue" points="455.204,-77.7314 464.77,-73.1782 454.453,-70.7718 455.204,-77.7314"/>
</g>
</g>
</svg>
