<?xml version="1.0" encoding="UTF-8" standalone="no"?>
<!DOCTYPE svg PUBLIC "-//W3C//DTD SVG 1.1//EN"
 "http://www.w3.org/Graphics/SVG/1.1/DTD/svg11.dtd">
<!-- Generated by graphviz version 2.38.0 (20140413.2041)
 -->
<!-- Title: Map::write Pages: 1 -->
<svg width="303pt" height="28pt"
 viewBox="0.00 0.00 303.00 28.00" xmlns="http://www.w3.org/2000/svg" xmlns:xlink="http://www.w3.org/1999/xlink">
<g id="graph0" class="graph" transform="scale(1 1) rotate(0) translate(4 24)">
<title>Map::write</title>
<!-- Node1 -->
<g id="node1" class="node"><title>Node1</title>
<polygon fill="#bfbfbf" stroke="black" points="0,-0.5 0,-19.5 62,-19.5 62,-0.5 0,-0.5"/>
<text text-anchor="middle" x="31" y="-7.5" font-family="Helvetica,sans-Serif" font-size="10.00">Map::write</text>
</g>
<!-- Node2 -->
<g id="node2" class="node"><title>Node2</title>
<g id="a_node2"><a xlink:href="class_map.html#a252bb9c052015eac4e2a6b5cbe39f31c" target="_top" xlink:title="Map::landmarkMaker">
<polygon fill="none" stroke="black" points="98,-0.5 98,-19.5 206,-19.5 206,-0.5 98,-0.5"/>
<text text-anchor="middle" x="152" y="-7.5" font-family="Helvetica,sans-Serif" font-size="10.00">Map::landmarkMaker</text>
</a>
</g>
</g>
<!-- Node1&#45;&gt;Node2 -->
<g id="edge1" class="edge"><title>Node1&#45;&gt;Node2</title>
<path fill="none" stroke="midnightblue" d="M72.1271,-10C80.3789,-10 89.1888,-10 97.8193,-10"/>
<polygon fill="midnightblue" stroke="midnightblue" points="72.0288,-6.5001 62.0287,-10 72.0287,-13.5001 72.0288,-6.5001"/>
</g>
<!-- Node3 -->
<g id="node3" class="node"><title>Node3</title>
<g id="a_node3"><a xlink:href="main_8cpp.html#a5e1c37b6b0ca91ad100d6bd39fc4062f" target="_top" xlink:title="dev_img">
<polygon fill="none" stroke="black" points="242,-0.5 242,-19.5 295,-19.5 295,-0.5 242,-0.5"/>
<text text-anchor="middle" x="268.5" y="-7.5" font-family="Helvetica,sans-Serif" font-size="10.00">dev_img</text>
</a>
</g>
</g>
<!-- Node2&#45;&gt;Node3 -->
<g id="edge2" class="edge"><title>Node2&#45;&gt;Node3</title>
<path fill="none" stroke="midnightblue" d="M216.393,-10C225.362,-10 234.127,-10 241.795,-10"/>
<polygon fill="midnightblue" stroke="midnightblue" points="216.228,-6.5001 206.228,-10 216.228,-13.5001 216.228,-6.5001"/>
</g>
</g>
</svg>
