<?xml version="1.0" encoding="UTF-8" standalone="no"?>
<!DOCTYPE svg PUBLIC "-//W3C//DTD SVG 1.1//EN"
 "http://www.w3.org/Graphics/SVG/1.1/DTD/svg11.dtd">
<!-- Generated by graphviz version 2.38.0 (20140413.2041)
 -->
<!-- Title: Filtering::Filtering Pages: 1 -->
<svg width="238pt" height="142pt"
 viewBox="0.00 0.00 238.00 142.00" xmlns="http://www.w3.org/2000/svg" xmlns:xlink="http://www.w3.org/1999/xlink">
<g id="graph0" class="graph" transform="scale(1 1) rotate(0) translate(4 138)">
<title>Filtering::Filtering</title>
<!-- Node1 -->
<g id="node1" class="node"><title>Node1</title>
<polygon fill="#bfbfbf" stroke="black" points="0,-57.5 0,-76.5 92,-76.5 92,-57.5 0,-57.5"/>
<text text-anchor="middle" x="46" y="-64.5" font-family="Helvetica,sans-Serif" font-size="10.00">Filtering::Filtering</text>
</g>
<!-- Node2 -->
<g id="node2" class="node"><title>Node2</title>
<g id="a_node2"><a xlink:href="class_filtering.html#a3baa778d251523a5b109f693dcb47fe2" target="_top" xlink:title="Filtering::nbPtTrack">
<polygon fill="none" stroke="black" points="128,-114.5 128,-133.5 230,-133.5 230,-114.5 128,-114.5"/>
<text text-anchor="middle" x="179" y="-121.5" font-family="Helvetica,sans-Serif" font-size="10.00">Filtering::nbPtTrack</text>
</a>
</g>
</g>
<!-- Node1&#45;&gt;Node2 -->
<g id="edge1" class="edge"><title>Node1&#45;&gt;Node2</title>
<path fill="none" stroke="midnightblue" d="M66.4546,-76.6326C82.7472,-84.5769 106.691,-95.968 128,-105 132.518,-106.915 137.301,-108.849 142.048,-110.713"/>
<polygon fill="midnightblue" stroke="midnightblue" points="141.053,-114.08 151.642,-114.41 143.57,-107.548 141.053,-114.08"/>
</g>
<!-- Node3 -->
<g id="node3" class="node"><title>Node3</title>
<g id="a_node3"><a xlink:href="class_filtering.html#a25effdf66380ccdd5079874be70832b2" target="_top" xlink:title="Filtering::temporal">
<polygon fill="none" stroke="black" points="131.5,-76.5 131.5,-95.5 226.5,-95.5 226.5,-76.5 131.5,-76.5"/>
<text text-anchor="middle" x="179" y="-83.5" font-family="Helvetica,sans-Serif" font-size="10.00">Filtering::temporal</text>
</a>
</g>
</g>
<!-- Node1&#45;&gt;Node3 -->
<g id="edge2" class="edge"><title>Node1&#45;&gt;Node3</title>
<path fill="none" stroke="midnightblue" d="M92.0828,-73.5387C101.531,-74.909 111.608,-76.3707 121.414,-77.7929"/>
<polygon fill="midnightblue" stroke="midnightblue" points="121.098,-81.2837 131.497,-79.2553 122.103,-74.3561 121.098,-81.2837"/>
</g>
<!-- Node4 -->
<g id="node4" class="node"><title>Node4</title>
<g id="a_node4"><a xlink:href="class_filtering.html#ae15eb7d32eb9459e25edd996bbd155cb" target="_top" xlink:title="Filtering::spatial">
<polygon fill="none" stroke="black" points="136,-38.5 136,-57.5 222,-57.5 222,-38.5 136,-38.5"/>
<text text-anchor="middle" x="179" y="-45.5" font-family="Helvetica,sans-Serif" font-size="10.00">Filtering::spatial</text>
</a>
</g>
</g>
<!-- Node1&#45;&gt;Node4 -->
<g id="edge3" class="edge"><title>Node1&#45;&gt;Node4</title>
<path fill="none" stroke="midnightblue" d="M92.0828,-60.4613C102.962,-58.8833 114.677,-57.1842 125.85,-55.5637"/>
<polygon fill="midnightblue" stroke="midnightblue" points="126.526,-59.0024 135.92,-54.1032 125.521,-52.0749 126.526,-59.0024"/>
</g>
<!-- Node5 -->
<g id="node5" class="node"><title>Node5</title>
<g id="a_node5"><a xlink:href="class_filtering.html#a1835ee1467d1e01c4282d9e762b33528" target="_top" xlink:title="Filtering::boutonXY">
<polygon fill="none" stroke="black" points="129,-0.5 129,-19.5 229,-19.5 229,-0.5 129,-0.5"/>
<text text-anchor="middle" x="179" y="-7.5" font-family="Helvetica,sans-Serif" font-size="10.00">Filtering::boutonXY</text>
</a>
</g>
</g>
<!-- Node1&#45;&gt;Node5 -->
<g id="edge4" class="edge"><title>Node1&#45;&gt;Node5</title>
<path fill="none" stroke="midnightblue" d="M66.4546,-57.3674C82.7472,-49.4231 106.691,-38.032 128,-29 132.518,-27.085 137.301,-25.151 142.048,-23.2875"/>
<polygon fill="midnightblue" stroke="midnightblue" points="143.57,-26.4519 151.642,-19.5899 141.053,-19.9201 143.57,-26.4519"/>
</g>
</g>
</svg>
