<?xml version="1.0" encoding="UTF-8" standalone="no"?>
<!DOCTYPE svg PUBLIC "-//W3C//DTD SVG 1.1//EN"
 "http://www.w3.org/Graphics/SVG/1.1/DTD/svg11.dtd">
<!-- Generated by graphviz version 2.38.0 (20140413.2041)
 -->
<!-- Title: Loading::readyNext Pages: 1 -->
<svg width="674pt" height="142pt"
 viewBox="0.00 0.00 674.00 142.00" xmlns="http://www.w3.org/2000/svg" xmlns:xlink="http://www.w3.org/1999/xlink">
<g id="graph0" class="graph" transform="scale(1 1) rotate(0) translate(4 138)">
<title>Loading::readyNext</title>
<!-- Node1 -->
<g id="node1" class="node"><title>Node1</title>
<polygon fill="#bfbfbf" stroke="black" points="0,-57.5 0,-76.5 101,-76.5 101,-57.5 0,-57.5"/>
<text text-anchor="middle" x="50.5" y="-64.5" font-family="Helvetica,sans-Serif" font-size="10.00">Loading::readyNext</text>
</g>
<!-- Node2 -->
<g id="node2" class="node"><title>Node2</title>
<g id="a_node2"><a xlink:href="class_loading.html#a1d3058f5f9c701a3bd7300ae985ff83a" target="_top" xlink:title="launchFiles ">
<polygon fill="none" stroke="black" points="137,-57.5 137,-76.5 243,-76.5 243,-57.5 137,-57.5"/>
<text text-anchor="middle" x="190" y="-64.5" font-family="Helvetica,sans-Serif" font-size="10.00">Loading::launchFiles</text>
</a>
</g>
</g>
<!-- Node1&#45;&gt;Node2 -->
<g id="edge1" class="edge"><title>Node1&#45;&gt;Node2</title>
<path fill="none" stroke="midnightblue" d="M111.307,-67C119.745,-67 128.366,-67 136.649,-67"/>
<polygon fill="midnightblue" stroke="midnightblue" points="111.141,-63.5001 101.141,-67 111.141,-70.5001 111.141,-63.5001"/>
</g>
<!-- Node3 -->
<g id="node3" class="node"><title>Node3</title>
<g id="a_node3"><a xlink:href="class_loading.html#ae0c96193667418083fc4a8c6cc19d9db" target="_top" xlink:title="loadFileCSVTrack Get File of SHP track ">
<polygon fill="none" stroke="black" points="279,-114.5 279,-133.5 415,-133.5 415,-114.5 279,-114.5"/>
<text text-anchor="middle" x="347" y="-121.5" font-family="Helvetica,sans-Serif" font-size="10.00">Loading::loadFileCSVTrack</text>
</a>
</g>
</g>
<!-- Node2&#45;&gt;Node3 -->
<g id="edge2" class="edge"><title>Node2&#45;&gt;Node3</title>
<path fill="none" stroke="midnightblue" d="M220.323,-80.8123C237.255,-88.4957 259.08,-97.909 279,-105 288.568,-108.406 299.071,-111.622 308.864,-114.407"/>
<polygon fill="midnightblue" stroke="midnightblue" points="221.52,-77.5103 210.971,-76.519 218.599,-83.872 221.52,-77.5103"/>
</g>
<!-- Node6 -->
<g id="node6" class="node"><title>Node6</title>
<g id="a_node6"><a xlink:href="class_loading.html#a9a01f3e328100b681f3f08192fc9b208" target="_top" xlink:title="loadFileSHPTrack Get File of CSV track ">
<polygon fill="none" stroke="black" points="279,-76.5 279,-95.5 415,-95.5 415,-76.5 279,-76.5"/>
<text text-anchor="middle" x="347" y="-83.5" font-family="Helvetica,sans-Serif" font-size="10.00">Loading::loadFileSHPTrack</text>
</a>
</g>
</g>
<!-- Node2&#45;&gt;Node6 -->
<g id="edge5" class="edge"><title>Node2&#45;&gt;Node6</title>
<path fill="none" stroke="midnightblue" d="M253.218,-74.6267C261.685,-75.6646 270.406,-76.7336 278.954,-77.7815"/>
<polygon fill="midnightblue" stroke="midnightblue" points="253.396,-71.1224 243.044,-73.3796 252.544,-78.0704 253.396,-71.1224"/>
</g>
<!-- Node7 -->
<g id="node7" class="node"><title>Node7</title>
<g id="a_node7"><a xlink:href="class_loading.html#a84d718939a74cf1680ea3e2409324194" target="_top" xlink:title="loadFileGrid Get File of grid ">
<polygon fill="none" stroke="black" points="293,-38.5 293,-57.5 401,-57.5 401,-38.5 293,-38.5"/>
<text text-anchor="middle" x="347" y="-45.5" font-family="Helvetica,sans-Serif" font-size="10.00">Loading::loadFileGrid</text>
</a>
</g>
</g>
<!-- Node2&#45;&gt;Node7 -->
<g id="edge7" class="edge"><title>Node2&#45;&gt;Node7</title>
<path fill="none" stroke="midnightblue" d="M252.973,-59.4033C266.151,-57.7879 279.954,-56.096 292.771,-54.5248"/>
<polygon fill="midnightblue" stroke="midnightblue" points="252.544,-55.9296 243.044,-60.6204 253.396,-62.8776 252.544,-55.9296"/>
</g>
<!-- Node9 -->
<g id="node9" class="node"><title>Node9</title>
<g id="a_node9"><a xlink:href="class_loading.html#a1925efcb9ccc2a01359b40a59cb542d9" target="_top" xlink:title="getCountry Choose country ">
<polygon fill="none" stroke="black" points="295,-0.5 295,-19.5 399,-19.5 399,-0.5 295,-0.5"/>
<text text-anchor="middle" x="347" y="-7.5" font-family="Helvetica,sans-Serif" font-size="10.00">Loading::getCountry</text>
</a>
</g>
</g>
<!-- Node2&#45;&gt;Node9 -->
<g id="edge10" class="edge"><title>Node2&#45;&gt;Node9</title>
<path fill="none" stroke="midnightblue" d="M220.323,-53.1877C237.255,-45.5043 259.08,-36.091 279,-29 288.568,-25.5941 299.071,-22.3777 308.864,-19.5931"/>
<polygon fill="midnightblue" stroke="midnightblue" points="218.599,-50.128 210.971,-57.481 221.52,-56.4897 218.599,-50.128"/>
</g>
<!-- Node4 -->
<g id="node4" class="node"><title>Node4</title>
<g id="a_node4"><a xlink:href="class_loading.html#ab603e821bd6b047fb04285e926974ff6" target="_top" xlink:title="track ">
<polygon fill="none" stroke="black" points="456.5,-76.5 456.5,-95.5 534.5,-95.5 534.5,-76.5 456.5,-76.5"/>
<text text-anchor="middle" x="495.5" y="-83.5" font-family="Helvetica,sans-Serif" font-size="10.00">Loading::track</text>
</a>
</g>
</g>
<!-- Node3&#45;&gt;Node4 -->
<g id="edge3" class="edge"><title>Node3&#45;&gt;Node4</title>
<path fill="none" stroke="midnightblue" d="M394.695,-111.888C415.099,-106.596 438.681,-100.479 457.798,-95.5201"/>
<polygon fill="midnightblue" stroke="midnightblue" points="393.769,-108.512 384.968,-114.411 395.527,-115.288 393.769,-108.512"/>
</g>
<!-- Node5 -->
<g id="node5" class="node"><title>Node5</title>
<g id="a_node5"><a xlink:href="class_loading.html#a7634c001ec052e10c402e49f5be030db" target="_top" xlink:title="Loading::Loading">
<polygon fill="none" stroke="black" points="576,-38.5 576,-57.5 666,-57.5 666,-38.5 576,-38.5"/>
<text text-anchor="middle" x="621" y="-45.5" font-family="Helvetica,sans-Serif" font-size="10.00">Loading::Loading</text>
</a>
</g>
</g>
<!-- Node4&#45;&gt;Node5 -->
<g id="edge4" class="edge"><title>Node4&#45;&gt;Node5</title>
<path fill="none" stroke="midnightblue" d="M537.24,-73.4647C554.04,-68.2952 573.197,-62.4009 588.846,-57.5859"/>
<polygon fill="midnightblue" stroke="midnightblue" points="536.193,-70.1248 527.664,-76.411 538.251,-76.8153 536.193,-70.1248"/>
</g>
<!-- Node6&#45;&gt;Node4 -->
<g id="edge6" class="edge"><title>Node6&#45;&gt;Node4</title>
<path fill="none" stroke="midnightblue" d="M425.544,-86C436.277,-86 446.885,-86 456.445,-86"/>
<polygon fill="midnightblue" stroke="midnightblue" points="425.247,-82.5001 415.247,-86 425.247,-89.5001 425.247,-82.5001"/>
</g>
<!-- Node8 -->
<g id="node8" class="node"><title>Node8</title>
<g id="a_node8"><a xlink:href="class_loading.html#afb0b2fe451bdc3f6f2cc186903df96b4" target="_top" xlink:title="grid ">
<polygon fill="none" stroke="black" points="459.5,-38.5 459.5,-57.5 531.5,-57.5 531.5,-38.5 459.5,-38.5"/>
<text text-anchor="middle" x="495.5" y="-45.5" font-family="Helvetica,sans-Serif" font-size="10.00">Loading::grid</text>
</a>
</g>
</g>
<!-- Node7&#45;&gt;Node8 -->
<g id="edge8" class="edge"><title>Node7&#45;&gt;Node8</title>
<path fill="none" stroke="midnightblue" d="M411.407,-48C427.82,-48 444.905,-48 459.284,-48"/>
<polygon fill="midnightblue" stroke="midnightblue" points="411.304,-44.5001 401.304,-48 411.304,-51.5001 411.304,-44.5001"/>
</g>
<!-- Node8&#45;&gt;Node5 -->
<g id="edge9" class="edge"><title>Node8&#45;&gt;Node5</title>
<path fill="none" stroke="midnightblue" d="M541.839,-48C552.853,-48 564.618,-48 575.588,-48"/>
<polygon fill="midnightblue" stroke="midnightblue" points="541.56,-44.5001 531.56,-48 541.56,-51.5001 541.56,-44.5001"/>
</g>
<!-- Node10 -->
<g id="node10" class="node"><title>Node10</title>
<g id="a_node10"><a xlink:href="class_loading.html#a8393eca502e0e8946e9e9b8ca57a565d" target="_top" xlink:title="country ">
<polygon fill="none" stroke="black" points="451,-0.5 451,-19.5 540,-19.5 540,-0.5 451,-0.5"/>
<text text-anchor="middle" x="495.5" y="-7.5" font-family="Helvetica,sans-Serif" font-size="10.00">Loading::country</text>
</a>
</g>
</g>
<!-- Node9&#45;&gt;Node10 -->
<g id="edge11" class="edge"><title>Node9&#45;&gt;Node10</title>
<path fill="none" stroke="midnightblue" d="M409.267,-10C423.225,-10 437.781,-10 450.83,-10"/>
<polygon fill="midnightblue" stroke="midnightblue" points="409.239,-6.5001 399.239,-10 409.239,-13.5001 409.239,-6.5001"/>
</g>
<!-- Node10&#45;&gt;Node5 -->
<g id="edge12" class="edge"><title>Node10&#45;&gt;Node5</title>
<path fill="none" stroke="midnightblue" d="M537.24,-22.5353C554.04,-27.7048 573.197,-33.5991 588.846,-38.4141"/>
<polygon fill="midnightblue" stroke="midnightblue" points="538.251,-19.1847 527.664,-19.589 536.193,-25.8752 538.251,-19.1847"/>
</g>
</g>
</svg>
