<?xml version="1.0" encoding="UTF-8" standalone="no"?>
<!DOCTYPE svg PUBLIC "-//W3C//DTD SVG 1.1//EN"
 "http://www.w3.org/Graphics/SVG/1.1/DTD/svg11.dtd">
<!-- Generated by graphviz version 2.38.0 (20140413.2041)
 -->
<!-- Title: Solver::onSignalNeighbours Pages: 1 -->
<!--zoomable 218 -->
<svg id="main" version="1.1" xmlns="http://www.w3.org/2000/svg" xmlns:xlink="http://www.w3.org/1999/xlink" xml:space="preserve" onload="init(evt)">
<style type="text/css"><![CDATA[
.edge:hover path { stroke: red; }
.edge:hover polygon { stroke: red; fill: red; }
]]></style>
<script type="text/javascript"><![CDATA[
var edges = document.getElementsByTagName('g');
if (edges && edges.length) {
  for (var i=0;i<edges.length;i++) {
    if (edges[i].id.substr(0,4)=='edge') {
      edges[i].setAttribute('class','edge');
    }
  }
}
]]></script>
        <defs>
                <circle id="rim" cx="0" cy="0" r="7"/>
                <circle id="rim2" cx="0" cy="0" r="3.5"/>
                <g id="zoomPlus">
                        <use xlink:href="#rim" fill="#404040">
                                <set attributeName="fill" to="#808080" begin="zoomplus.mouseover" end="zoomplus.mouseout"/>
                        </use>
                        <path d="M-4,0h8M0,-4v8" fill="none" stroke="white" stroke-width="1.5" pointer-events="none"/>
                </g>
                <g id="zoomMin">
                        <use xlink:href="#rim" fill="#404040">
                                <set attributeName="fill" to="#808080" begin="zoomminus.mouseover" end="zoomminus.mouseout"/>
                        </use>
                        <path d="M-4,0h8" fill="none" stroke="white" stroke-width="1.5" pointer-events="none"/>
                </g>
                <g id="dirArrow">
                        <path fill="none" stroke="white" stroke-width="1.5" d="M0,-3.0v7 M-2.5,-0.5L0,-3.0L2.5,-0.5"/>
                </g>
               <g id="resetDef">
                       <use xlink:href="#rim2" fill="#404040">
                               <set attributeName="fill" to="#808080" begin="reset.mouseover" end="reset.mouseout"/>
                       </use>
               </g>
        </defs>

<script type="text/javascript">
var viewWidth = 679;
var viewHeight = 218;
var sectionId = 'dynsection-8';
</script>
<script xlink:href="svgpan.js"/>
<svg id="graph" class="graph">
<g id="viewport">
<title>Solver::onSignalNeighbours</title>
<!-- Node1 -->
<g id="node1" class="node"><title>Node1</title>
<polygon fill="#bfbfbf" stroke="black" points="0,-95.5 0,-114.5 137,-114.5 137,-95.5 0,-95.5"/>
<text text-anchor="middle" x="68.5" y="-102.5" font-family="Helvetica,sans-Serif" font-size="10.00">Solver::onSignalNeighbours</text>
</g>
<!-- Node2 -->
<g id="node2" class="node"><title>Node2</title>
<g id="a_node2"><a xlink:href="class_point.html#a3eef47b1c4849b3395a8f9c658ca7c4a" target="_top" xlink:title="Point::x">
<polygon fill="none" stroke="black" points="219,-190.5 219,-209.5 269,-209.5 269,-190.5 219,-190.5"/>
<text text-anchor="middle" x="244" y="-197.5" font-family="Helvetica,sans-Serif" font-size="10.00">Point::x</text>
</a>
</g>
</g>
<!-- Node1&#45;&gt;Node2 -->
<g id="edge1" class="edge"><title>Node1&#45;&gt;Node2</title>
<path fill="none" stroke="midnightblue" d="M81.257,-114.659C99.7921,-129.505 137.372,-158.091 173,-176 184.275,-181.668 197.203,-186.519 208.856,-190.347"/>
<polygon fill="midnightblue" stroke="midnightblue" points="208.105,-193.78 218.695,-193.441 210.206,-187.102 208.105,-193.78"/>
</g>
<!-- Node3 -->
<g id="node3" class="node"><title>Node3</title>
<g id="a_node3"><a xlink:href="class_road.html#ad6715392969e36eb10efac542519755c" target="_top" xlink:title="Get the id of the road. ">
<polygon fill="none" stroke="black" points="397.5,-171.5 397.5,-190.5 472.5,-190.5 472.5,-171.5 397.5,-171.5"/>
<text text-anchor="middle" x="435" y="-178.5" font-family="Helvetica,sans-Serif" font-size="10.00">Road::edgeId</text>
</a>
</g>
</g>
<!-- Node1&#45;&gt;Node3 -->
<g id="edge2" class="edge"><title>Node1&#45;&gt;Node3</title>
<path fill="none" stroke="midnightblue" d="M91.2901,-114.507C111.953,-123.158 144.054,-135.664 173,-143 246.654,-161.668 334.485,-172.101 387.167,-177.131"/>
<polygon fill="midnightblue" stroke="midnightblue" points="386.939,-180.625 397.22,-178.066 387.587,-173.655 386.939,-180.625"/>
</g>
<!-- Node4 -->
<g id="node4" class="node"><title>Node4</title>
<g id="a_node4"><a xlink:href="class_solver.html#ac93808d9f79208e9917830d0ff0a5dfd" target="_top" xlink:title="setDistance Calculate distance between GPS point et Road ">
<polygon fill="none" stroke="black" points="192.5,-114.5 192.5,-133.5 295.5,-133.5 295.5,-114.5 192.5,-114.5"/>
<text text-anchor="middle" x="244" y="-121.5" font-family="Helvetica,sans-Serif" font-size="10.00">Solver::setDistance</text>
</a>
</g>
</g>
<!-- Node1&#45;&gt;Node4 -->
<g id="edge3" class="edge"><title>Node1&#45;&gt;Node4</title>
<path fill="none" stroke="midnightblue" d="M137.076,-112.4C151.853,-114.019 167.412,-115.722 181.918,-117.311"/>
<polygon fill="midnightblue" stroke="midnightblue" points="181.946,-120.835 192.268,-118.444 182.709,-113.876 181.946,-120.835"/>
</g>
<!-- Node12 -->
<g id="node12" class="node"><title>Node12</title>
<g id="a_node12"><a xlink:href="class_point_g_p_s.html#ae93eac1b7998f2ba4bae11599ebcfd17" target="_top" xlink:title="PointGPS::updateProbability">
<polygon fill="none" stroke="black" points="173.5,-76.5 173.5,-95.5 314.5,-95.5 314.5,-76.5 173.5,-76.5"/>
<text text-anchor="middle" x="244" y="-83.5" font-family="Helvetica,sans-Serif" font-size="10.00">PointGPS::updateProbability</text>
</a>
</g>
</g>
<!-- Node1&#45;&gt;Node12 -->
<g id="edge12" class="edge"><title>Node1&#45;&gt;Node12</title>
<path fill="none" stroke="midnightblue" d="M137.076,-97.5997C145.625,-96.6636 154.435,-95.6988 163.151,-94.7442"/>
<polygon fill="midnightblue" stroke="midnightblue" points="163.76,-98.1986 173.319,-93.6307 162.998,-91.2402 163.76,-98.1986"/>
</g>
<!-- Node13 -->
<g id="node13" class="node"><title>Node13</title>
<g id="a_node13"><a xlink:href="class_solver.html#a48062c3b8bc8d93446b8d1456a17752a" target="_top" xlink:title="Solver::getIndexFromRoadId">
<polygon fill="none" stroke="black" points="173,-38.5 173,-57.5 315,-57.5 315,-38.5 173,-38.5"/>
<text text-anchor="middle" x="244" y="-45.5" font-family="Helvetica,sans-Serif" font-size="10.00">Solver::getIndexFromRoadId</text>
</a>
</g>
</g>
<!-- Node1&#45;&gt;Node13 -->
<g id="edge13" class="edge"><title>Node1&#45;&gt;Node13</title>
<path fill="none" stroke="midnightblue" d="M93.5531,-95.4945C114.4,-87.4189 145.46,-75.7748 173,-67 180.258,-64.6874 187.994,-62.4069 195.578,-60.2723"/>
<polygon fill="midnightblue" stroke="midnightblue" points="196.698,-63.5942 205.406,-57.5599 194.835,-56.8465 196.698,-63.5942"/>
</g>
<!-- Node14 -->
<g id="node14" class="node"><title>Node14</title>
<g id="a_node14"><a xlink:href="class_solver.html#a69e11a5cede2377d8151620160918aab" target="_top" xlink:title="Solver::buildRoadPath">
<polygon fill="none" stroke="black" points="187,-0.5 187,-19.5 301,-19.5 301,-0.5 187,-0.5"/>
<text text-anchor="middle" x="244" y="-7.5" font-family="Helvetica,sans-Serif" font-size="10.00">Solver::buildRoadPath</text>
</a>
</g>
</g>
<!-- Node1&#45;&gt;Node14 -->
<g id="edge14" class="edge"><title>Node1&#45;&gt;Node14</title>
<path fill="none" stroke="midnightblue" d="M79.8196,-95.3581C97.5313,-79.3111 135.448,-47.103 173,-29 177.892,-26.6418 183.122,-24.5389 188.437,-22.6723"/>
<polygon fill="midnightblue" stroke="midnightblue" points="189.607,-25.9725 198.043,-19.5633 187.452,-19.3127 189.607,-25.9725"/>
</g>
<!-- Node4&#45;&gt;Node3 -->
<g id="edge9" class="edge"><title>Node4&#45;&gt;Node3</title>
<path fill="none" stroke="midnightblue" d="M273.701,-133.547C286.399,-137.847 301.486,-143.058 315,-148 331.123,-153.896 334.589,-156.96 351,-162 362.702,-165.594 375.519,-168.851 387.504,-171.613"/>
<polygon fill="midnightblue" stroke="midnightblue" points="386.811,-175.044 397.334,-173.813 388.34,-168.213 386.811,-175.044"/>
</g>
<!-- Node5 -->
<g id="node5" class="node"><title>Node5</title>
<g id="a_node5"><a xlink:href="class_road.html#a2877f55c577ddff8c519e7f44c2256d5" target="_top" xlink:title="Get the vector of points composing the road. ">
<polygon fill="none" stroke="black" points="375.5,-133.5 375.5,-152.5 494.5,-152.5 494.5,-133.5 375.5,-133.5"/>
<text text-anchor="middle" x="435" y="-140.5" font-family="Helvetica,sans-Serif" font-size="10.00">Road::vectorOfPointsId</text>
</a>
</g>
</g>
<!-- Node4&#45;&gt;Node5 -->
<g id="edge4" class="edge"><title>Node4&#45;&gt;Node5</title>
<path fill="none" stroke="midnightblue" d="M295.649,-129.092C316.984,-131.237 342.152,-133.767 365.132,-136.077"/>
<polygon fill="midnightblue" stroke="midnightblue" points="364.871,-139.568 375.171,-137.086 365.571,-132.603 364.871,-139.568"/>
</g>
<!-- Node6 -->
<g id="node6" class="node"><title>Node6</title>
<g id="a_node6"><a xlink:href="class_point.html#a39daa6ebd31cdc2d7151db77bfdf2166" target="_top" xlink:title="Compute the distance between a point and a segment. ">
<polygon fill="none" stroke="black" points="369,-95.5 369,-114.5 501,-114.5 501,-95.5 369,-95.5"/>
<text text-anchor="middle" x="435" y="-102.5" font-family="Helvetica,sans-Serif" font-size="10.00">Point::distanceToSegment</text>
</a>
</g>
</g>
<!-- Node4&#45;&gt;Node6 -->
<g id="edge5" class="edge"><title>Node4&#45;&gt;Node6</title>
<path fill="none" stroke="midnightblue" d="M295.649,-118.908C315.094,-116.954 337.722,-114.679 358.976,-112.542"/>
<polygon fill="midnightblue" stroke="midnightblue" points="359.353,-116.022 368.953,-111.539 358.653,-109.057 359.353,-116.022"/>
</g>
<!-- Node9 -->
<g id="node9" class="node"><title>Node9</title>
<g id="a_node9"><a xlink:href="class_point_g_p_s.html#a9c833db3ff338f3cd2ee8480db6c7d56" target="_top" xlink:title="PointGPS::addEmissionProbability">
<polygon fill="none" stroke="black" points="351,-57.5 351,-76.5 519,-76.5 519,-57.5 351,-57.5"/>
<text text-anchor="middle" x="435" y="-64.5" font-family="Helvetica,sans-Serif" font-size="10.00">PointGPS::addEmissionProbability</text>
</a>
</g>
</g>
<!-- Node4&#45;&gt;Node9 -->
<g id="edge8" class="edge"><title>Node4&#45;&gt;Node9</title>
<path fill="none" stroke="midnightblue" d="M286.211,-114.439C295.794,-111.771 305.862,-108.601 315,-105 331.832,-98.3679 334.038,-92.2941 351,-86 357.86,-83.4543 365.171,-81.1827 372.501,-79.1744"/>
<polygon fill="midnightblue" stroke="midnightblue" points="373.662,-82.4893 382.468,-76.598 371.91,-75.7121 373.662,-82.4893"/>
</g>
<!-- Node10 -->
<g id="node10" class="node"><title>Node10</title>
<g id="a_node10"><a xlink:href="class_point_g_p_s.html#a9a622f6883b721ee5f04f092a76ece64" target="_top" xlink:title="PointGPS::infos">
<polygon fill="none" stroke="black" points="391.5,-19.5 391.5,-38.5 478.5,-38.5 478.5,-19.5 391.5,-19.5"/>
<text text-anchor="middle" x="435" y="-26.5" font-family="Helvetica,sans-Serif" font-size="10.00">PointGPS::infos</text>
</a>
</g>
</g>
<!-- Node4&#45;&gt;Node10 -->
<g id="edge10" class="edge"><title>Node4&#45;&gt;Node10</title>
<path fill="none" stroke="midnightblue" d="M295.669,-115.138C302.554,-112.573 309.227,-109.265 315,-105 339.1,-87.1962 326.549,-65.3182 351,-48 359.959,-41.6547 370.705,-37.3919 381.447,-34.5374"/>
<polygon fill="midnightblue" stroke="midnightblue" points="382.293,-37.9345 391.26,-32.2925 380.731,-31.1108 382.293,-37.9345"/>
</g>
<!-- Node7 -->
<g id="node7" class="node"><title>Node7</title>
<g id="a_node7"><a xlink:href="class_point.html#a9d93fb520b4a3e170aab25ea738b105c" target="_top" xlink:title="Check if two points share the same coordinates. ">
<polygon fill="none" stroke="black" points="561,-114.5 561,-133.5 665,-133.5 665,-114.5 561,-114.5"/>
<text text-anchor="middle" x="613" y="-121.5" font-family="Helvetica,sans-Serif" font-size="10.00">Point::samePointAs</text>
</a>
</g>
</g>
<!-- Node6&#45;&gt;Node7 -->
<g id="edge6" class="edge"><title>Node6&#45;&gt;Node7</title>
<path fill="none" stroke="midnightblue" d="M501.036,-112.021C517.262,-113.773 534.608,-115.645 550.649,-117.377"/>
<polygon fill="midnightblue" stroke="midnightblue" points="550.659,-120.898 560.977,-118.492 551.411,-113.939 550.659,-120.898"/>
</g>
<!-- Node8 -->
<g id="node8" class="node"><title>Node8</title>
<g id="a_node8"><a xlink:href="class_point.html#a7cd7f7e2c0f1a11b66eac8b6f360bfd9" target="_top" xlink:title="Calculate distance between two points. ">
<polygon fill="none" stroke="black" points="555,-76.5 555,-95.5 671,-95.5 671,-76.5 555,-76.5"/>
<text text-anchor="middle" x="613" y="-83.5" font-family="Helvetica,sans-Serif" font-size="10.00">Point::distanceToPoint</text>
</a>
</g>
</g>
<!-- Node6&#45;&gt;Node8 -->
<g id="edge7" class="edge"><title>Node6&#45;&gt;Node8</title>
<path fill="none" stroke="midnightblue" d="M501.036,-97.9791C515.219,-96.4479 530.258,-94.8244 544.534,-93.2833"/>
<polygon fill="midnightblue" stroke="midnightblue" points="545.204,-96.7314 554.77,-92.1782 544.453,-89.7718 545.204,-96.7314"/>
</g>
<!-- Node11 -->
<g id="node11" class="node"><title>Node11</title>
<g id="a_node11"><a xlink:href="class_point.html#a1c2033a89f5dc6faa9e50f06c2111e88" target="_top" xlink:title="Point::infos">
<polygon fill="none" stroke="black" points="580,-19.5 580,-38.5 646,-38.5 646,-19.5 580,-19.5"/>
<text text-anchor="middle" x="613" y="-26.5" font-family="Helvetica,sans-Serif" font-size="10.00">Point::infos</text>
</a>
</g>
</g>
<!-- Node10&#45;&gt;Node11 -->
<g id="edge11" class="edge"><title>Node10&#45;&gt;Node11</title>
<path fill="none" stroke="midnightblue" d="M478.605,-29C506.299,-29 542.253,-29 569.855,-29"/>
<polygon fill="midnightblue" stroke="midnightblue" points="569.991,-32.5001 579.991,-29 569.991,-25.5001 569.991,-32.5001"/>
</g>
</g>
</svg>
        <g id="navigator" transform="translate(0 0)" fill="#404254">
                <rect fill="#f2f5e9" fill-opacity="0.5" stroke="#606060" stroke-width=".5" x="0" y="0" width="60" height="60"/>
                <use id="zoomplus" xlink:href="#zoomPlus" x="17" y="9" onmousedown="handleZoom(evt,'in')"/>
                <use id="zoomminus" xlink:href="#zoomMin" x="42" y="9" onmousedown="handleZoom(evt,'out')"/>
                <use id="reset" xlink:href="#resetDef" x="30" y="36" onmousedown="handleReset()"/>
                <g id="arrowUp" xlink:href="#dirArrow" transform="translate(30 24)" onmousedown="handlePan(0,-1)">
                  <use xlink:href="#rim" fill="#404040">
                        <set attributeName="fill" to="#808080" begin="arrowUp.mouseover" end="arrowUp.mouseout"/>
                  </use>
                  <path fill="none" stroke="white" stroke-width="1.5" d="M0,-3.0v7 M-2.5,-0.5L0,-3.0L2.5,-0.5"/>
                </g>
                <g id="arrowRight" xlink:href="#dirArrow" transform="rotate(90) translate(36 -43)" onmousedown="handlePan(1,0)">
                  <use xlink:href="#rim" fill="#404040">
                        <set attributeName="fill" to="#808080" begin="arrowRight.mouseover" end="arrowRight.mouseout"/>
                  </use>
                  <path fill="none" stroke="white" stroke-width="1.5" d="M0,-3.0v7 M-2.5,-0.5L0,-3.0L2.5,-0.5"/>
                </g>
                <g id="arrowDown" xlink:href="#dirArrow" transform="rotate(180) translate(-30 -48)" onmousedown="handlePan(0,1)">
                  <use xlink:href="#rim" fill="#404040">
                        <set attributeName="fill" to="#808080" begin="arrowDown.mouseover" end="arrowDown.mouseout"/>
                  </use>
                  <path fill="none" stroke="white" stroke-width="1.5" d="M0,-3.0v7 M-2.5,-0.5L0,-3.0L2.5,-0.5"/>
                </g>
                <g id="arrowLeft" xlink:href="#dirArrow" transform="rotate(270) translate(-36 17)" onmousedown="handlePan(-1,0)">
                  <use xlink:href="#rim" fill="#404040">
                        <set attributeName="fill" to="#808080" begin="arrowLeft.mouseover" end="arrowLeft.mouseout"/>
                  </use>
                  <path fill="none" stroke="white" stroke-width="1.5" d="M0,-3.0v7 M-2.5,-0.5L0,-3.0L2.5,-0.5"/>
                </g>
        </g>
        <svg viewBox="0 0 15 15" width="100%" height="30px" preserveAspectRatio="xMaxYMin meet">
         <g id="arrow_out" transform="scale(0.3 0.3)">
          <a xlink:href="class_solver_a2abdc34ec29d4301a7219375f6e5ec84_cgraph_org.svg" target="_base">
           <rect id="button" ry="5" rx="5" y="6" x="6" height="38" width="38"
                fill="#f2f5e9" fill-opacity="0.5" stroke="#606060" stroke-width="1.0"/>
           <path id="arrow"
             d="M 11.500037,31.436501 C 11.940474,20.09759 22.043105,11.32322 32.158766,21.979434 L 37.068811,17.246167 C 37.068811,17.246167 37.088388,32 37.088388,32 L 22.160133,31.978069 C 22.160133,31.978069 26.997745,27.140456 26.997745,27.140456 C 18.528582,18.264221 13.291696,25.230495 11.500037,31.436501 z"
             style="fill:#404040;"/>
          </a>
         </g>
        </svg>
</svg>
