<?xml version="1.0" encoding="UTF-8" standalone="no"?>
<!DOCTYPE svg PUBLIC "-//W3C//DTD SVG 1.1//EN"
 "http://www.w3.org/Graphics/SVG/1.1/DTD/svg11.dtd">
<!-- Generated by graphviz version 2.38.0 (20140413.2041)
 -->
<!-- Title: Point::x Pages: 1 -->
<svg width="330pt" height="142pt"
 viewBox="0.00 0.00 330.00 142.00" xmlns="http://www.w3.org/2000/svg" xmlns:xlink="http://www.w3.org/1999/xlink">
<g id="graph0" class="graph" transform="scale(1 1) rotate(0) translate(4 138)">
<title>Point::x</title>
<!-- Node1 -->
<g id="node1" class="node"><title>Node1</title>
<polygon fill="#bfbfbf" stroke="black" points="0,-57.5 0,-76.5 50,-76.5 50,-57.5 0,-57.5"/>
<text text-anchor="middle" x="25" y="-64.5" font-family="Helvetica,sans-Serif" font-size="10.00">Point::x</text>
</g>
<!-- Node2 -->
<g id="node2" class="node"><title>Node2</title>
<g id="a_node2"><a xlink:href="class_box.html#a3a96bf8f86322e4885028e517ef40535" target="_top" xlink:title="Box::distanceToPoint">
<polygon fill="none" stroke="black" points="86,-114.5 86,-133.5 196,-133.5 196,-114.5 86,-114.5"/>
<text text-anchor="middle" x="141" y="-121.5" font-family="Helvetica,sans-Serif" font-size="10.00">Box::distanceToPoint</text>
</a>
</g>
</g>
<!-- Node1&#45;&gt;Node2 -->
<g id="edge1" class="edge"><title>Node1&#45;&gt;Node2</title>
<path fill="none" stroke="midnightblue" d="M47.8852,-82.5477C58.9625,-89.974 72.8249,-98.6122 86,-105 93.2436,-108.512 101.309,-111.704 108.952,-114.426"/>
<polygon fill="midnightblue" stroke="midnightblue" points="49.5388,-79.4378 39.3117,-76.6706 45.5809,-85.2115 49.5388,-79.4378"/>
</g>
<!-- Node3 -->
<g id="node3" class="node"><title>Node3</title>
<g id="a_node3"><a xlink:href="structhash_func.html#a1ec440ab36b0e013a3bbc9cf48f34e35" target="_top" xlink:title="hashFunc::operator()">
<polygon fill="none" stroke="black" points="87.5,-76.5 87.5,-95.5 194.5,-95.5 194.5,-76.5 87.5,-76.5"/>
<text text-anchor="middle" x="141" y="-83.5" font-family="Helvetica,sans-Serif" font-size="10.00">hashFunc::operator()</text>
</a>
</g>
</g>
<!-- Node1&#45;&gt;Node3 -->
<g id="edge2" class="edge"><title>Node1&#45;&gt;Node3</title>
<path fill="none" stroke="midnightblue" d="M60.1231,-72.6872C68.6652,-74.1109 78.0292,-75.6715 87.2444,-77.2074"/>
<polygon fill="midnightblue" stroke="midnightblue" points="60.6158,-69.2211 50.1765,-71.0294 59.465,-76.1259 60.6158,-69.2211"/>
</g>
<!-- Node4 -->
<g id="node4" class="node"><title>Node4</title>
<g id="a_node4"><a xlink:href="class_k_d_tree.html#a39df3eb7a379ef30cf6b71136cdb320e" target="_top" xlink:title="KDTree::locate">
<polygon fill="none" stroke="black" points="99.5,-38.5 99.5,-57.5 182.5,-57.5 182.5,-38.5 99.5,-38.5"/>
<text text-anchor="middle" x="141" y="-45.5" font-family="Helvetica,sans-Serif" font-size="10.00">KDTree::locate</text>
</a>
</g>
</g>
<!-- Node1&#45;&gt;Node4 -->
<g id="edge3" class="edge"><title>Node1&#45;&gt;Node4</title>
<path fill="none" stroke="midnightblue" d="M60.0587,-61.3236C72.3801,-59.27 86.4182,-56.9303 99.2559,-54.7907"/>
<polygon fill="midnightblue" stroke="midnightblue" points="59.465,-57.8741 50.1765,-62.9706 60.6158,-64.7789 59.465,-57.8741"/>
</g>
<!-- Node5 -->
<g id="node5" class="node"><title>Node5</title>
<g id="a_node5"><a xlink:href="class_point.html#a6f6a42c3b4bfe6e7e5ccb502788227d6" target="_top" xlink:title="Point::setx">
<polygon fill="none" stroke="black" points="109,-0.5 109,-19.5 173,-19.5 173,-0.5 109,-0.5"/>
<text text-anchor="middle" x="141" y="-7.5" font-family="Helvetica,sans-Serif" font-size="10.00">Point::setx</text>
</a>
</g>
</g>
<!-- Node1&#45;&gt;Node5 -->
<g id="edge4" class="edge"><title>Node1&#45;&gt;Node5</title>
<path fill="none" stroke="midnightblue" d="M47.8852,-51.4523C58.9625,-44.026 72.8249,-35.3878 86,-29 93.2436,-25.488 101.309,-22.2963 108.952,-19.5738"/>
<polygon fill="midnightblue" stroke="midnightblue" points="45.5809,-48.7885 39.3117,-57.3294 49.5388,-54.5622 45.5809,-48.7885"/>
</g>
<!-- Node6 -->
<g id="node6" class="node"><title>Node6</title>
<g id="a_node6"><a xlink:href="class_k_d_tree.html#a8f658d6d9211976a26b0f60471880e4a" target="_top" xlink:title="KDTree::KDTree">
<polygon fill="none" stroke="black" points="232,-0.5 232,-19.5 322,-19.5 322,-0.5 232,-0.5"/>
<text text-anchor="middle" x="277" y="-7.5" font-family="Helvetica,sans-Serif" font-size="10.00">KDTree::KDTree</text>
</a>
</g>
</g>
<!-- Node5&#45;&gt;Node6 -->
<g id="edge5" class="edge"><title>Node5&#45;&gt;Node6</title>
<path fill="none" stroke="midnightblue" d="M183.346,-10C198.739,-10 216.26,-10 231.891,-10"/>
<polygon fill="midnightblue" stroke="midnightblue" points="183.079,-6.5001 173.079,-10 183.079,-13.5001 183.079,-6.5001"/>
</g>
</g>
</svg>
