<?xml version="1.0" encoding="UTF-8" standalone="no"?>
<!DOCTYPE svg PUBLIC "-//W3C//DTD SVG 1.1//EN"
 "http://www.w3.org/Graphics/SVG/1.1/DTD/svg11.dtd">
<!-- Generated by graphviz version 2.38.0 (20140413.2041)
 -->
<!-- Title: Loading::grid Pages: 1 -->
<svg width="493pt" height="104pt"
 viewBox="0.00 0.00 493.00 104.00" xmlns="http://www.w3.org/2000/svg" xmlns:xlink="http://www.w3.org/1999/xlink">
<g id="graph0" class="graph" transform="scale(1 1) rotate(0) translate(4 100)">
<title>Loading::grid</title>
<!-- Node1 -->
<g id="node1" class="node"><title>Node1</title>
<polygon fill="#bfbfbf" stroke="black" points="0,-38.5 0,-57.5 72,-57.5 72,-38.5 0,-38.5"/>
<text text-anchor="middle" x="36" y="-45.5" font-family="Helvetica,sans-Serif" font-size="10.00">Loading::grid</text>
</g>
<!-- Node2 -->
<g id="node2" class="node"><title>Node2</title>
<g id="a_node2"><a xlink:href="class_loading.html#a84d718939a74cf1680ea3e2409324194" target="_top" xlink:title="loadFileGrid Get File of grid ">
<polygon fill="none" stroke="black" points="108,-38.5 108,-57.5 216,-57.5 216,-38.5 108,-38.5"/>
<text text-anchor="middle" x="162" y="-45.5" font-family="Helvetica,sans-Serif" font-size="10.00">Loading::loadFileGrid</text>
</a>
</g>
</g>
<!-- Node1&#45;&gt;Node2 -->
<g id="edge1" class="edge"><title>Node1&#45;&gt;Node2</title>
<path fill="none" stroke="midnightblue" d="M72.2017,-48C80.1271,-48 88.7759,-48 97.4649,-48"/>
<polygon fill="midnightblue" stroke="midnightblue" points="97.6426,-51.5001 107.643,-48 97.6425,-44.5001 97.6426,-51.5001"/>
</g>
<!-- Node3 -->
<g id="node3" class="node"><title>Node3</title>
<g id="a_node3"><a xlink:href="class_file.html#a7177a8eac75b0fc5425ebd65e16c2d6f" target="_top" xlink:title="The UI to select the file&#39;s path to open. ">
<polygon fill="none" stroke="black" points="252,-76.5 252,-95.5 372,-95.5 372,-76.5 252,-76.5"/>
<text text-anchor="middle" x="312" y="-83.5" font-family="Helvetica,sans-Serif" font-size="10.00">File::selectFilesToOpen</text>
</a>
</g>
</g>
<!-- Node2&#45;&gt;Node3 -->
<g id="edge2" class="edge"><title>Node2&#45;&gt;Node3</title>
<path fill="none" stroke="midnightblue" d="M200.347,-57.589C219.701,-62.5583 243.53,-68.6767 264.113,-73.9613"/>
<polygon fill="midnightblue" stroke="midnightblue" points="263.366,-77.383 273.922,-76.4799 265.107,-70.6029 263.366,-77.383"/>
</g>
<!-- Node5 -->
<g id="node5" class="node"><title>Node5</title>
<g id="a_node5"><a xlink:href="class_file.html#a2cd702098066c4abde1c20ee708fa91f" target="_top" xlink:title="The function to convert WGS84 ShapeFile(s) to Lambert 93 CSV(s) ">
<polygon fill="none" stroke="black" points="274.5,-38.5 274.5,-57.5 349.5,-57.5 349.5,-38.5 274.5,-38.5"/>
<text text-anchor="middle" x="312" y="-45.5" font-family="Helvetica,sans-Serif" font-size="10.00">File::shp2csv</text>
</a>
</g>
</g>
<!-- Node2&#45;&gt;Node5 -->
<g id="edge4" class="edge"><title>Node2&#45;&gt;Node5</title>
<path fill="none" stroke="midnightblue" d="M216.013,-48C231.648,-48 248.646,-48 263.883,-48"/>
<polygon fill="midnightblue" stroke="midnightblue" points="264.113,-51.5001 274.113,-48 264.112,-44.5001 264.113,-51.5001"/>
</g>
<!-- Node6 -->
<g id="node6" class="node"><title>Node6</title>
<g id="a_node6"><a xlink:href="class_loading.html#a1d3058f5f9c701a3bd7300ae985ff83a" target="_top" xlink:title="launchFiles ">
<polygon fill="none" stroke="black" points="259,-0.5 259,-19.5 365,-19.5 365,-0.5 259,-0.5"/>
<text text-anchor="middle" x="312" y="-7.5" font-family="Helvetica,sans-Serif" font-size="10.00">Loading::launchFiles</text>
</a>
</g>
</g>
<!-- Node2&#45;&gt;Node6 -->
<g id="edge5" class="edge"><title>Node2&#45;&gt;Node6</title>
<path fill="none" stroke="midnightblue" d="M200.347,-38.411C219.701,-33.4417 243.53,-27.3233 264.113,-22.0387"/>
<polygon fill="midnightblue" stroke="midnightblue" points="265.107,-25.3971 273.922,-19.5201 263.366,-18.617 265.107,-25.3971"/>
</g>
<!-- Node4 -->
<g id="node4" class="node"><title>Node4</title>
<g id="a_node4"><a xlink:href="class_file.html#ac464caa98a33cfe227111dd7cd5e77e1" target="_top" xlink:title="The split function to split the path file to filePath, fileName, fileExtension attributes. ">
<polygon fill="none" stroke="black" points="408,-76.5 408,-95.5 485,-95.5 485,-76.5 408,-76.5"/>
<text text-anchor="middle" x="446.5" y="-83.5" font-family="Helvetica,sans-Serif" font-size="10.00">File::splitPath</text>
</a>
</g>
</g>
<!-- Node3&#45;&gt;Node4 -->
<g id="edge3" class="edge"><title>Node3&#45;&gt;Node4</title>
<path fill="none" stroke="midnightblue" d="M372.274,-86C380.801,-86 389.484,-86 397.749,-86"/>
<polygon fill="midnightblue" stroke="midnightblue" points="397.952,-89.5001 407.952,-86 397.952,-82.5001 397.952,-89.5001"/>
</g>
</g>
</svg>
