<?xml version="1.0" encoding="UTF-8" standalone="no"?>
<!DOCTYPE svg PUBLIC "-//W3C//DTD SVG 1.1//EN"
 "http://www.w3.org/Graphics/SVG/1.1/DTD/svg11.dtd">
<!-- Generated by graphviz version 2.38.0 (20140413.2041)
 -->
<!-- Title: MainWindow::MainWindow Pages: 1 -->
<svg width="1098pt" height="598pt"
 viewBox="0.00 0.00 1098.00 598.00" xmlns="http://www.w3.org/2000/svg" xmlns:xlink="http://www.w3.org/1999/xlink">
<g id="graph0" class="graph" transform="scale(1 1) rotate(0) translate(4 594)">
<title>MainWindow::MainWindow</title>
<!-- Node1 -->
<g id="node1" class="node"><title>Node1</title>
<polygon fill="#bfbfbf" stroke="black" points="0,-443.5 0,-462.5 135,-462.5 135,-443.5 0,-443.5"/>
<text text-anchor="middle" x="67.5" y="-450.5" font-family="Helvetica,sans-Serif" font-size="10.00">MainWindow::MainWindow</text>
</g>
<!-- Node2 -->
<g id="node2" class="node"><title>Node2</title>
<g id="a_node2"><a xlink:href="class_main_window.html#a684fe2be6fa67486c75ebddfbbe7d42b" target="_top" xlink:title="MainWindow::createGuiControl\lComponents">
<polygon fill="none" stroke="black" points="175.5,-536 175.5,-566 327.5,-566 327.5,-536 175.5,-536"/>
<text text-anchor="start" x="183.5" y="-554" font-family="Helvetica,sans-Serif" font-size="10.00">MainWindow::createGuiControl</text>
<text text-anchor="middle" x="251.5" y="-543" font-family="Helvetica,sans-Serif" font-size="10.00">Components</text>
</a>
</g>
</g>
<!-- Node1&#45;&gt;Node2 -->
<g id="edge1" class="edge"><title>Node1&#45;&gt;Node2</title>
<path fill="none" stroke="midnightblue" d="M79.092,-462.514C96.8789,-478.04 134.406,-508.904 171,-527 174.78,-528.869 178.734,-530.625 182.773,-532.268"/>
<polygon fill="midnightblue" stroke="midnightblue" points="181.719,-535.612 192.31,-535.899 184.21,-529.07 181.719,-535.612"/>
</g>
<!-- Node3 -->
<g id="node3" class="node"><title>Node3</title>
<g id="a_node3"><a xlink:href="class_main_window.html#a10e39f33826503a9967be862a5b27c40" target="_top" xlink:title="MainWindow::createSubSliding\lWidgets">
<polygon fill="none" stroke="black" points="175.5,-487 175.5,-517 327.5,-517 327.5,-487 175.5,-487"/>
<text text-anchor="start" x="183.5" y="-505" font-family="Helvetica,sans-Serif" font-size="10.00">MainWindow::createSubSliding</text>
<text text-anchor="middle" x="251.5" y="-494" font-family="Helvetica,sans-Serif" font-size="10.00">Widgets</text>
</a>
</g>
</g>
<!-- Node1&#45;&gt;Node3 -->
<g id="edge2" class="edge"><title>Node1&#45;&gt;Node3</title>
<path fill="none" stroke="midnightblue" d="M104.023,-462.564C126.965,-468.74 157.513,-476.965 184.774,-484.304"/>
<polygon fill="midnightblue" stroke="midnightblue" points="184.082,-487.743 194.648,-486.963 185.902,-480.984 184.082,-487.743"/>
</g>
<!-- Node4 -->
<g id="node4" class="node"><title>Node4</title>
<g id="a_node4"><a xlink:href="class_main_window.html#a9b5bcc86b4b159c34a7631e586b7be55" target="_top" xlink:title="MainWindow::createSliding\lStackedWidget">
<polygon fill="none" stroke="black" points="184,-438 184,-468 319,-468 319,-438 184,-438"/>
<text text-anchor="start" x="192" y="-456" font-family="Helvetica,sans-Serif" font-size="10.00">MainWindow::createSliding</text>
<text text-anchor="middle" x="251.5" y="-445" font-family="Helvetica,sans-Serif" font-size="10.00">StackedWidget</text>
</a>
</g>
</g>
<!-- Node1&#45;&gt;Node4 -->
<g id="edge3" class="edge"><title>Node1&#45;&gt;Node4</title>
<path fill="none" stroke="midnightblue" d="M135.237,-453C147.725,-453 160.87,-453 173.635,-453"/>
<polygon fill="midnightblue" stroke="midnightblue" points="173.771,-456.5 183.771,-453 173.771,-449.5 173.771,-456.5"/>
</g>
<!-- Node5 -->
<g id="node5" class="node"><title>Node5</title>
<g id="a_node5"><a xlink:href="class_main_window.html#af3626d206fdb542dc454250f37418d8f" target="_top" xlink:title="MainWindow::createMainLayout">
<polygon fill="none" stroke="black" points="173.5,-399.5 173.5,-418.5 329.5,-418.5 329.5,-399.5 173.5,-399.5"/>
<text text-anchor="middle" x="251.5" y="-406.5" font-family="Helvetica,sans-Serif" font-size="10.00">MainWindow::createMainLayout</text>
</a>
</g>
</g>
<!-- Node1&#45;&gt;Node5 -->
<g id="edge4" class="edge"><title>Node1&#45;&gt;Node5</title>
<path fill="none" stroke="midnightblue" d="M107.991,-443.453C135.299,-436.851 171.834,-428.018 201.074,-420.949"/>
<polygon fill="midnightblue" stroke="midnightblue" points="202.188,-424.281 211.086,-418.529 200.543,-417.477 202.188,-424.281"/>
</g>
<!-- Node6 -->
<g id="node6" class="node"><title>Node6</title>
<g id="a_node6"><a xlink:href="class_main_window.html#af773488e0b16efe6c0fc67ad348b86b2" target="_top" xlink:title="MainWindow::createConnections">
<polygon fill="none" stroke="black" points="171,-361.5 171,-380.5 332,-380.5 332,-361.5 171,-361.5"/>
<text text-anchor="middle" x="251.5" y="-368.5" font-family="Helvetica,sans-Serif" font-size="10.00">MainWindow::createConnections</text>
</a>
</g>
</g>
<!-- Node1&#45;&gt;Node6 -->
<g id="edge5" class="edge"><title>Node1&#45;&gt;Node6</title>
<path fill="none" stroke="midnightblue" d="M81.0539,-443.445C99.7024,-429.692 136.266,-404.393 171,-390 176.936,-387.54 183.26,-385.356 189.648,-383.427"/>
<polygon fill="midnightblue" stroke="midnightblue" points="191.014,-386.679 199.693,-380.603 189.119,-379.94 191.014,-386.679"/>
</g>
<!-- Node7 -->
<g id="node7" class="node"><title>Node7</title>
<g id="a_node7"><a xlink:href="class_main_window.html#ad39bbe8ced0d3248206ac0ca6c444d55" target="_top" xlink:title="MainWindow::readyToNext1">
<polygon fill="none" stroke="black" points="368,-361.5 368,-380.5 508,-380.5 508,-361.5 368,-361.5"/>
<text text-anchor="middle" x="438" y="-368.5" font-family="Helvetica,sans-Serif" font-size="10.00">MainWindow::readyToNext1</text>
</a>
</g>
</g>
<!-- Node6&#45;&gt;Node7 -->
<g id="edge6" class="edge"><title>Node6&#45;&gt;Node7</title>
<path fill="none" stroke="midnightblue" d="M332.083,-371C340.542,-371 349.146,-371 357.603,-371"/>
<polygon fill="midnightblue" stroke="midnightblue" points="357.826,-374.5 367.826,-371 357.826,-367.5 357.826,-374.5"/>
</g>
<!-- Node8 -->
<g id="node8" class="node"><title>Node8</title>
<g id="a_node8"><a xlink:href="class_track.html#aff258a8c303ee8a09a962d237f3823e7" target="_top" xlink:title="Reads a csv file and inserts each point in m_points vector. ">
<polygon fill="none" stroke="black" points="545,-570.5 545,-589.5 655,-589.5 655,-570.5 545,-570.5"/>
<text text-anchor="middle" x="600" y="-577.5" font-family="Helvetica,sans-Serif" font-size="10.00">Track::readFromCSV</text>
</a>
</g>
</g>
<!-- Node7&#45;&gt;Node8 -->
<g id="edge7" class="edge"><title>Node7&#45;&gt;Node8</title>
<path fill="none" stroke="midnightblue" d="M442.083,-380.874C451.991,-411.121 485.816,-503.613 544,-556 548.365,-559.93 553.474,-563.293 558.789,-566.148"/>
<polygon fill="midnightblue" stroke="midnightblue" points="557.301,-569.316 567.832,-570.484 560.328,-563.004 557.301,-569.316"/>
</g>
<!-- Node9 -->
<g id="node9" class="node"><title>Node9</title>
<g id="a_node9"><a xlink:href="class_grid.html#a19318437702e712955d0c4631c94cb04" target="_top" xlink:title="setZone Save data about our area of roads ">
<polygon fill="none" stroke="black" points="544,-456.5 544,-475.5 656,-475.5 656,-456.5 544,-456.5"/>
<text text-anchor="middle" x="600" y="-463.5" font-family="Helvetica,sans-Serif" font-size="10.00">Grid::setBoundingBox</text>
</a>
</g>
</g>
<!-- Node7&#45;&gt;Node9 -->
<g id="edge8" class="edge"><title>Node7&#45;&gt;Node9</title>
<path fill="none" stroke="midnightblue" d="M451.452,-380.528C470.644,-394.953 508.911,-422.693 544,-442 550.652,-445.66 557.973,-449.181 565.045,-452.346"/>
<polygon fill="midnightblue" stroke="midnightblue" points="563.878,-455.655 574.445,-456.42 566.662,-449.232 563.878,-455.655"/>
</g>
<!-- Node10 -->
<g id="node10" class="node"><title>Node10</title>
<g id="a_node10"><a xlink:href="class_grid.html#a13d6d18b26d70ab5871a8c2ddf7fa1b5" target="_top" xlink:title="Grid::xMin">
<polygon fill="none" stroke="black" points="705,-456.5 705,-475.5 767,-475.5 767,-456.5 705,-456.5"/>
<text text-anchor="middle" x="736" y="-463.5" font-family="Helvetica,sans-Serif" font-size="10.00">Grid::xMin</text>
</a>
</g>
</g>
<!-- Node7&#45;&gt;Node10 -->
<g id="edge35" class="edge"><title>Node7&#45;&gt;Node10</title>
<path fill="none" stroke="midnightblue" d="M444.206,-380.815C457.263,-404.234 493.976,-463.065 544,-485 595.657,-507.651 662.504,-492.042 701.871,-478.865"/>
<polygon fill="midnightblue" stroke="midnightblue" points="703.21,-482.105 711.499,-475.506 700.904,-475.496 703.21,-482.105"/>
</g>
<!-- Node11 -->
<g id="node11" class="node"><title>Node11</title>
<g id="a_node11"><a xlink:href="class_grid.html#a5e140affdf9653d8badf596f1f151908" target="_top" xlink:title="Grid::xMax">
<polygon fill="none" stroke="black" points="703.5,-494.5 703.5,-513.5 768.5,-513.5 768.5,-494.5 703.5,-494.5"/>
<text text-anchor="middle" x="736" y="-501.5" font-family="Helvetica,sans-Serif" font-size="10.00">Grid::xMax</text>
</a>
</g>
</g>
<!-- Node7&#45;&gt;Node11 -->
<g id="edge34" class="edge"><title>Node7&#45;&gt;Node11</title>
<path fill="none" stroke="midnightblue" d="M443.045,-380.834C454.37,-406.875 489.199,-477.443 544,-504 591.216,-526.881 653.03,-521.478 693.361,-514.013"/>
<polygon fill="midnightblue" stroke="midnightblue" points="694.248,-517.405 703.381,-512.034 692.892,-510.538 694.248,-517.405"/>
</g>
<!-- Node12 -->
<g id="node12" class="node"><title>Node12</title>
<g id="a_node12"><a xlink:href="class_grid.html#a6acf01d876905d8709f4fb8ebe18aa94" target="_top" xlink:title="Grid::yMin">
<polygon fill="none" stroke="black" points="705,-418.5 705,-437.5 767,-437.5 767,-418.5 705,-418.5"/>
<text text-anchor="middle" x="736" y="-425.5" font-family="Helvetica,sans-Serif" font-size="10.00">Grid::yMin</text>
</a>
</g>
</g>
<!-- Node7&#45;&gt;Node12 -->
<g id="edge37" class="edge"><title>Node7&#45;&gt;Node12</title>
<path fill="none" stroke="midnightblue" d="M476.283,-380.527C496.289,-385.474 521.41,-391.424 544,-396 595.657,-406.464 655.669,-416.112 694.434,-422.02"/>
<polygon fill="midnightblue" stroke="midnightblue" points="694.369,-425.549 704.78,-423.584 695.416,-418.628 694.369,-425.549"/>
</g>
<!-- Node13 -->
<g id="node13" class="node"><title>Node13</title>
<g id="a_node13"><a xlink:href="class_grid.html#abfa1a601742ca69a5ecc3b6a5318d7a8" target="_top" xlink:title="Grid::yMax">
<polygon fill="none" stroke="black" points="703.5,-380.5 703.5,-399.5 768.5,-399.5 768.5,-380.5 703.5,-380.5"/>
<text text-anchor="middle" x="736" y="-387.5" font-family="Helvetica,sans-Serif" font-size="10.00">Grid::yMax</text>
</a>
</g>
</g>
<!-- Node7&#45;&gt;Node13 -->
<g id="edge36" class="edge"><title>Node7&#45;&gt;Node13</title>
<path fill="none" stroke="midnightblue" d="M508.025,-375.431C565.321,-379.108 644.948,-384.22 693.064,-387.308"/>
<polygon fill="midnightblue" stroke="midnightblue" points="692.921,-390.806 703.125,-387.954 693.37,-383.821 692.921,-390.806"/>
</g>
<!-- Node14 -->
<g id="node14" class="node"><title>Node14</title>
<g id="a_node14"><a xlink:href="class_grid.html#ae848f1c59c544adc1af9133409ee0106" target="_top" xlink:title="readFromCSV Reads a csv file and inserts info into the corresponding attributs ">
<polygon fill="none" stroke="black" points="548.5,-152.5 548.5,-171.5 651.5,-171.5 651.5,-152.5 548.5,-152.5"/>
<text text-anchor="middle" x="600" y="-159.5" font-family="Helvetica,sans-Serif" font-size="10.00">Grid::readFromCSV</text>
</a>
</g>
</g>
<!-- Node7&#45;&gt;Node14 -->
<g id="edge13" class="edge"><title>Node7&#45;&gt;Node14</title>
<path fill="none" stroke="midnightblue" d="M442.083,-361.126C451.991,-330.879 485.816,-238.387 544,-186 548.365,-182.07 553.474,-178.707 558.789,-175.852"/>
<polygon fill="midnightblue" stroke="midnightblue" points="560.328,-178.996 567.832,-171.516 557.301,-172.684 560.328,-178.996"/>
</g>
<!-- Node25 -->
<g id="node25" class="node"><title>Node25</title>
<g id="a_node25"><a xlink:href="class_grid.html#a8d8b7fa0ee20d81f130a46d80fc2a018" target="_top" xlink:title="trackInGrid ">
<polygon fill="none" stroke="black" points="555.5,-342.5 555.5,-361.5 644.5,-361.5 644.5,-342.5 555.5,-342.5"/>
<text text-anchor="middle" x="600" y="-349.5" font-family="Helvetica,sans-Serif" font-size="10.00">Grid::trackInGrid</text>
</a>
</g>
</g>
<!-- Node7&#45;&gt;Node25 -->
<g id="edge25" class="edge"><title>Node7&#45;&gt;Node25</title>
<path fill="none" stroke="midnightblue" d="M508.248,-362.777C520.528,-361.319 533.153,-359.819 544.936,-358.42"/>
<polygon fill="midnightblue" stroke="midnightblue" points="545.527,-361.875 555.045,-357.22 544.702,-354.923 545.527,-361.875"/>
</g>
<!-- Node26 -->
<g id="node26" class="node"><title>Node26</title>
<g id="a_node26"><a xlink:href="class_grid.html#aa96eed7a551f45aeee1068a289bd2a7b" target="_top" xlink:title="Grid::xMinGrid">
<polygon fill="none" stroke="black" points="696,-342.5 696,-361.5 776,-361.5 776,-342.5 696,-342.5"/>
<text text-anchor="middle" x="736" y="-349.5" font-family="Helvetica,sans-Serif" font-size="10.00">Grid::xMinGrid</text>
</a>
</g>
</g>
<!-- Node7&#45;&gt;Node26 -->
<g id="edge39" class="edge"><title>Node7&#45;&gt;Node26</title>
<path fill="none" stroke="midnightblue" d="M458.946,-361.412C479.653,-352.032 513.257,-338.392 544,-333 593.029,-324.401 606.568,-327.139 656,-333 668.257,-334.453 681.365,-337.133 693.309,-340.03"/>
<polygon fill="midnightblue" stroke="midnightblue" points="692.471,-343.429 703.025,-342.494 694.192,-336.643 692.471,-343.429"/>
</g>
<!-- Node27 -->
<g id="node27" class="node"><title>Node27</title>
<g id="a_node27"><a xlink:href="class_grid.html#aa3dd1e75998e6214c3ef33cdc5e02204" target="_top" xlink:title="Grid::xMaxGrid">
<polygon fill="none" stroke="black" points="694.5,-304.5 694.5,-323.5 777.5,-323.5 777.5,-304.5 694.5,-304.5"/>
<text text-anchor="middle" x="736" y="-311.5" font-family="Helvetica,sans-Serif" font-size="10.00">Grid::xMaxGrid</text>
</a>
</g>
</g>
<!-- Node7&#45;&gt;Node27 -->
<g id="edge38" class="edge"><title>Node7&#45;&gt;Node27</title>
<path fill="none" stroke="midnightblue" d="M455.413,-361.346C475.521,-350.073 510.993,-331.958 544,-324 590.522,-312.783 645.198,-311.026 684.103,-311.633"/>
<polygon fill="midnightblue" stroke="midnightblue" points="684.065,-315.133 694.137,-311.848 684.215,-308.135 684.065,-315.133"/>
</g>
<!-- Node28 -->
<g id="node28" class="node"><title>Node28</title>
<g id="a_node28"><a xlink:href="class_grid.html#afa95de5fff735d1121572075a872121c" target="_top" xlink:title="Grid::yMinGrid">
<polygon fill="none" stroke="black" points="696,-266.5 696,-285.5 776,-285.5 776,-266.5 696,-266.5"/>
<text text-anchor="middle" x="736" y="-273.5" font-family="Helvetica,sans-Serif" font-size="10.00">Grid::yMinGrid</text>
</a>
</g>
</g>
<!-- Node7&#45;&gt;Node28 -->
<g id="edge41" class="edge"><title>Node7&#45;&gt;Node28</title>
<path fill="none" stroke="midnightblue" d="M451.46,-361.374C470.357,-347.292 507.897,-321.31 544,-308 590.334,-290.918 646.372,-282.904 685.728,-279.175"/>
<polygon fill="midnightblue" stroke="midnightblue" points="686.209,-282.646 695.86,-278.275 685.59,-275.674 686.209,-282.646"/>
</g>
<!-- Node29 -->
<g id="node29" class="node"><title>Node29</title>
<g id="a_node29"><a xlink:href="class_grid.html#a97ee4a72430770462f5e2ba140f2ca65" target="_top" xlink:title="Grid::yMaxGrid">
<polygon fill="none" stroke="black" points="694.5,-228.5 694.5,-247.5 777.5,-247.5 777.5,-228.5 694.5,-228.5"/>
<text text-anchor="middle" x="736" y="-235.5" font-family="Helvetica,sans-Serif" font-size="10.00">Grid::yMaxGrid</text>
</a>
</g>
</g>
<!-- Node7&#45;&gt;Node29 -->
<g id="edge40" class="edge"><title>Node7&#45;&gt;Node29</title>
<path fill="none" stroke="midnightblue" d="M446.85,-361.432C462.951,-342.489 501.767,-300.213 544,-279 588.329,-256.734 644.354,-246.527 684.239,-241.868"/>
<polygon fill="midnightblue" stroke="midnightblue" points="684.709,-245.338 694.27,-240.773 683.949,-238.379 684.709,-245.338"/>
</g>
<!-- Node9&#45;&gt;Node10 -->
<g id="edge9" class="edge"><title>Node9&#45;&gt;Node10</title>
<path fill="none" stroke="midnightblue" d="M656.277,-466C669.101,-466 682.518,-466 694.566,-466"/>
<polygon fill="midnightblue" stroke="midnightblue" points="694.753,-469.5 704.753,-466 694.753,-462.5 694.753,-469.5"/>
</g>
<!-- Node9&#45;&gt;Node11 -->
<g id="edge10" class="edge"><title>Node9&#45;&gt;Node11</title>
<path fill="none" stroke="midnightblue" d="M634.814,-475.589C652.69,-480.658 674.782,-486.923 693.669,-492.279"/>
<polygon fill="midnightblue" stroke="midnightblue" points="692.923,-495.706 703.498,-495.067 694.833,-488.971 692.923,-495.706"/>
</g>
<!-- Node9&#45;&gt;Node12 -->
<g id="edge11" class="edge"><title>Node9&#45;&gt;Node12</title>
<path fill="none" stroke="midnightblue" d="M634.814,-456.411C653.168,-451.206 675.968,-444.74 695.179,-439.293"/>
<polygon fill="midnightblue" stroke="midnightblue" points="696.189,-442.644 704.855,-436.549 694.279,-435.91 696.189,-442.644"/>
</g>
<!-- Node9&#45;&gt;Node13 -->
<g id="edge12" class="edge"><title>Node9&#45;&gt;Node13</title>
<path fill="none" stroke="midnightblue" d="M614.815,-456.471C632.333,-444.593 663.676,-424.029 692,-409 695.294,-407.252 698.782,-405.523 702.289,-403.862"/>
<polygon fill="midnightblue" stroke="midnightblue" points="703.858,-406.993 711.5,-399.656 700.95,-400.626 703.858,-406.993"/>
</g>
<!-- Node15 -->
<g id="node15" class="node"><title>Node15</title>
<g id="a_node15"><a xlink:href="class_grid.html#a6b6af4fb2545b398b47794de576f15f5" target="_top" xlink:title="inFootPrint Test if a point is in the defined area of a track ">
<polygon fill="none" stroke="black" points="692,-190.5 692,-209.5 780,-209.5 780,-190.5 692,-190.5"/>
<text text-anchor="middle" x="736" y="-197.5" font-family="Helvetica,sans-Serif" font-size="10.00">Grid::inFootPrint</text>
</a>
</g>
</g>
<!-- Node14&#45;&gt;Node15 -->
<g id="edge14" class="edge"><title>Node14&#45;&gt;Node15</title>
<path fill="none" stroke="midnightblue" d="M634.814,-171.589C652.033,-176.472 673.164,-182.464 691.573,-187.685"/>
<polygon fill="midnightblue" stroke="midnightblue" points="690.621,-191.053 701.197,-190.414 692.531,-184.319 690.621,-191.053"/>
</g>
<!-- Node16 -->
<g id="node16" class="node"><title>Node16</title>
<g id="a_node16"><a xlink:href="class_grid.html#a58233ab60f7477144af334f205606aa4" target="_top" xlink:title="updateGrid Find max and min of the grid ">
<polygon fill="none" stroke="black" points="692,-152.5 692,-171.5 780,-171.5 780,-152.5 692,-152.5"/>
<text text-anchor="middle" x="736" y="-159.5" font-family="Helvetica,sans-Serif" font-size="10.00">Grid::updateGrid</text>
</a>
</g>
</g>
<!-- Node14&#45;&gt;Node16 -->
<g id="edge15" class="edge"><title>Node14&#45;&gt;Node16</title>
<path fill="none" stroke="midnightblue" d="M651.66,-162C661.451,-162 671.738,-162 681.613,-162"/>
<polygon fill="midnightblue" stroke="midnightblue" points="681.717,-165.5 691.717,-162 681.717,-158.5 681.717,-165.5"/>
</g>
<!-- Node17 -->
<g id="node17" class="node"><title>Node17</title>
<g id="a_node17"><a xlink:href="class_grid.html#aba1830bc145f128d6deeed29cfb94c9f" target="_top" xlink:title="addRoad Creates a new road and inserts it in m_road ">
<polygon fill="none" stroke="black" points="696,-114.5 696,-133.5 776,-133.5 776,-114.5 696,-114.5"/>
<text text-anchor="middle" x="736" y="-121.5" font-family="Helvetica,sans-Serif" font-size="10.00">Grid::addRoad</text>
</a>
</g>
</g>
<!-- Node14&#45;&gt;Node17 -->
<g id="edge16" class="edge"><title>Node14&#45;&gt;Node17</title>
<path fill="none" stroke="midnightblue" d="M634.814,-152.411C652.033,-147.528 673.164,-141.536 691.573,-136.315"/>
<polygon fill="midnightblue" stroke="midnightblue" points="692.531,-139.681 701.197,-133.586 690.621,-132.947 692.531,-139.681"/>
</g>
<!-- Node18 -->
<g id="node18" class="node"><title>Node18</title>
<g id="a_node18"><a xlink:href="class_point_road.html#aa1b90c3fdf8ae7a1fcd8ce6182d13287" target="_top" xlink:title="PointRoad::outputInfos">
<polygon fill="none" stroke="black" points="838.5,-228.5 838.5,-247.5 955.5,-247.5 955.5,-228.5 838.5,-228.5"/>
<text text-anchor="middle" x="897" y="-235.5" font-family="Helvetica,sans-Serif" font-size="10.00">PointRoad::outputInfos</text>
</a>
</g>
</g>
<!-- Node17&#45;&gt;Node18 -->
<g id="edge17" class="edge"><title>Node17&#45;&gt;Node18</title>
<path fill="none" stroke="midnightblue" d="M766.523,-133.652C771.414,-136.158 776.141,-139.242 780,-143 806.774,-169.079 786.957,-195.475 816,-219 819.988,-222.23 824.434,-224.928 829.131,-227.179"/>
<polygon fill="midnightblue" stroke="midnightblue" points="827.836,-230.431 838.416,-230.98 830.487,-223.953 827.836,-230.431"/>
</g>
<!-- Node19 -->
<g id="node19" class="node"><title>Node19</title>
<g id="a_node19"><a xlink:href="class_point_road.html#ab53ccb3c883bdfd27c707901c5c658c8" target="_top" xlink:title="PointRoad::updateBelongToRoad">
<polygon fill="none" stroke="black" points="816,-190.5 816,-209.5 978,-209.5 978,-190.5 816,-190.5"/>
<text text-anchor="middle" x="897" y="-197.5" font-family="Helvetica,sans-Serif" font-size="10.00">PointRoad::updateBelongToRoad</text>
</a>
</g>
</g>
<!-- Node17&#45;&gt;Node19 -->
<g id="edge18" class="edge"><title>Node17&#45;&gt;Node19</title>
<path fill="none" stroke="midnightblue" d="M763.363,-133.668C769.082,-136.298 774.931,-139.425 780,-143 799.012,-156.408 795.843,-169.384 816,-181 819.861,-183.225 823.97,-185.19 828.21,-186.925"/>
<polygon fill="midnightblue" stroke="midnightblue" points="827.058,-190.231 837.652,-190.369 829.457,-183.655 827.058,-190.231"/>
</g>
<!-- Node20 -->
<g id="node20" class="node"><title>Node20</title>
<g id="a_node20"><a xlink:href="class_point_road.html#a998665db2d7e4fc4935ef95df092ff2b" target="_top" xlink:title="PointRoad::setid">
<polygon fill="none" stroke="black" points="852.5,-152.5 852.5,-171.5 941.5,-171.5 941.5,-152.5 852.5,-152.5"/>
<text text-anchor="middle" x="897" y="-159.5" font-family="Helvetica,sans-Serif" font-size="10.00">PointRoad::setid</text>
</a>
</g>
</g>
<!-- Node17&#45;&gt;Node20 -->
<g id="edge19" class="edge"><title>Node17&#45;&gt;Node20</title>
<path fill="none" stroke="midnightblue" d="M776.303,-133.393C797.452,-138.448 823.75,-144.733 846.306,-150.123"/>
<polygon fill="midnightblue" stroke="midnightblue" points="845.505,-153.53 856.044,-152.451 847.132,-146.722 845.505,-153.53"/>
</g>
<!-- Node21 -->
<g id="node21" class="node"><title>Node21</title>
<g id="a_node21"><a xlink:href="class_point_road.html#a81372f2c2c0fe1084fa2397289518124" target="_top" xlink:title="PointRoad::id">
<polygon fill="none" stroke="black" points="1014,-133.5 1014,-152.5 1090,-152.5 1090,-133.5 1014,-133.5"/>
<text text-anchor="middle" x="1052" y="-140.5" font-family="Helvetica,sans-Serif" font-size="10.00">PointRoad::id</text>
</a>
</g>
</g>
<!-- Node17&#45;&gt;Node21 -->
<g id="edge22" class="edge"><title>Node17&#45;&gt;Node21</title>
<path fill="none" stroke="midnightblue" d="M776.133,-126.368C833.791,-129.857 941.427,-136.37 1003.52,-140.127"/>
<polygon fill="midnightblue" stroke="midnightblue" points="1003.63,-143.64 1013.82,-140.75 1004.05,-136.653 1003.63,-143.64"/>
</g>
<!-- Node22 -->
<g id="node22" class="node"><title>Node22</title>
<g id="a_node22"><a xlink:href="class_point_road.html#ae83941b37b026758fdd7974b4b186fbc" target="_top" xlink:title="PointRoad::isNode">
<polygon fill="none" stroke="black" points="847.5,-76.5 847.5,-95.5 946.5,-95.5 946.5,-76.5 847.5,-76.5"/>
<text text-anchor="middle" x="897" y="-83.5" font-family="Helvetica,sans-Serif" font-size="10.00">PointRoad::isNode</text>
</a>
</g>
</g>
<!-- Node17&#45;&gt;Node22 -->
<g id="edge21" class="edge"><title>Node17&#45;&gt;Node22</title>
<path fill="none" stroke="midnightblue" d="M776.303,-114.607C797.452,-109.552 823.75,-103.267 846.306,-97.8766"/>
<polygon fill="midnightblue" stroke="midnightblue" points="847.132,-101.278 856.044,-95.5491 845.505,-94.4696 847.132,-101.278"/>
</g>
<!-- Node23 -->
<g id="node23" class="node"><title>Node23</title>
<g id="a_node23"><a xlink:href="class_road.html#a7f97b4f20c598103baad510b19a0c0b5" target="_top" xlink:title="addPoint ">
<polygon fill="none" stroke="black" points="855,-38.5 855,-57.5 939,-57.5 939,-38.5 855,-38.5"/>
<text text-anchor="middle" x="897" y="-45.5" font-family="Helvetica,sans-Serif" font-size="10.00">Road::addPoint</text>
</a>
</g>
</g>
<!-- Node17&#45;&gt;Node23 -->
<g id="edge23" class="edge"><title>Node17&#45;&gt;Node23</title>
<path fill="none" stroke="midnightblue" d="M747.393,-114.408C761.743,-101.682 788.932,-79.3843 816,-67 825.054,-62.8574 835.113,-59.5617 844.958,-56.9589"/>
<polygon fill="midnightblue" stroke="midnightblue" points="845.802,-60.3557 854.685,-54.5815 844.14,-53.5558 845.802,-60.3557"/>
</g>
<!-- Node24 -->
<g id="node24" class="node"><title>Node24</title>
<g id="a_node24"><a xlink:href="class_road.html#ad6715392969e36eb10efac542519755c" target="_top" xlink:title="edgeId ">
<polygon fill="none" stroke="black" points="859.5,-0.5 859.5,-19.5 934.5,-19.5 934.5,-0.5 859.5,-0.5"/>
<text text-anchor="middle" x="897" y="-7.5" font-family="Helvetica,sans-Serif" font-size="10.00">Road::edgeId</text>
</a>
</g>
</g>
<!-- Node17&#45;&gt;Node24 -->
<g id="edge24" class="edge"><title>Node17&#45;&gt;Node24</title>
<path fill="none" stroke="midnightblue" d="M742.097,-114.442C752.943,-95.0744 780.27,-51.1593 816,-29 826.04,-22.7734 837.949,-18.587 849.469,-15.7724"/>
<polygon fill="midnightblue" stroke="midnightblue" points="850.393,-19.154 859.437,-13.6353 848.925,-12.3096 850.393,-19.154"/>
</g>
<!-- Node20&#45;&gt;Node21 -->
<g id="edge20" class="edge"><title>Node20&#45;&gt;Node21</title>
<path fill="none" stroke="midnightblue" d="M941.844,-156.555C961.244,-154.146 984.094,-151.309 1003.86,-148.854"/>
<polygon fill="midnightblue" stroke="midnightblue" points="1004.39,-152.315 1013.88,-147.609 1003.53,-145.369 1004.39,-152.315"/>
</g>
<!-- Node25&#45;&gt;Node10 -->
<g id="edge26" class="edge"><title>Node25&#45;&gt;Node10</title>
<path fill="none" stroke="midnightblue" d="M608.044,-361.542C622.168,-380.123 655.721,-421.564 692,-447 694.381,-448.669 696.932,-450.242 699.559,-451.712"/>
<polygon fill="midnightblue" stroke="midnightblue" points="698.149,-454.921 708.652,-456.311 701.308,-448.674 698.149,-454.921"/>
</g>
<!-- Node25&#45;&gt;Node11 -->
<g id="edge28" class="edge"><title>Node25&#45;&gt;Node11</title>
<path fill="none" stroke="midnightblue" d="M605.305,-361.718C616.382,-385.724 648.105,-448.52 692,-485 693.977,-486.643 696.119,-488.17 698.355,-489.583"/>
<polygon fill="midnightblue" stroke="midnightblue" points="696.844,-492.746 707.295,-494.484 700.209,-486.608 696.844,-492.746"/>
</g>
<!-- Node25&#45;&gt;Node12 -->
<g id="edge30" class="edge"><title>Node25&#45;&gt;Node12</title>
<path fill="none" stroke="midnightblue" d="M614.815,-361.529C632.333,-373.407 663.676,-393.971 692,-409 695.294,-410.748 698.782,-412.477 702.289,-414.138"/>
<polygon fill="midnightblue" stroke="midnightblue" points="700.95,-417.374 711.5,-418.344 703.858,-411.007 700.95,-417.374"/>
</g>
<!-- Node25&#45;&gt;Node13 -->
<g id="edge32" class="edge"><title>Node25&#45;&gt;Node13</title>
<path fill="none" stroke="midnightblue" d="M634.814,-361.589C652.69,-366.658 674.782,-372.923 693.669,-378.279"/>
<polygon fill="midnightblue" stroke="midnightblue" points="692.923,-381.706 703.498,-381.067 694.833,-374.971 692.923,-381.706"/>
</g>
<!-- Node25&#45;&gt;Node26 -->
<g id="edge27" class="edge"><title>Node25&#45;&gt;Node26</title>
<path fill="none" stroke="midnightblue" d="M644.506,-352C657.66,-352 672.197,-352 685.701,-352"/>
<polygon fill="midnightblue" stroke="midnightblue" points="685.786,-355.5 695.786,-352 685.786,-348.5 685.786,-355.5"/>
</g>
<!-- Node25&#45;&gt;Node27 -->
<g id="edge29" class="edge"><title>Node25&#45;&gt;Node27</title>
<path fill="none" stroke="midnightblue" d="M634.814,-342.411C652.033,-337.528 673.164,-331.536 691.573,-326.315"/>
<polygon fill="midnightblue" stroke="midnightblue" points="692.531,-329.681 701.197,-323.586 690.621,-322.947 692.531,-329.681"/>
</g>
<!-- Node25&#45;&gt;Node28 -->
<g id="edge31" class="edge"><title>Node25&#45;&gt;Node28</title>
<path fill="none" stroke="midnightblue" d="M614.815,-342.471C632.333,-330.593 663.676,-310.029 692,-295 695.294,-293.252 698.782,-291.523 702.289,-289.862"/>
<polygon fill="midnightblue" stroke="midnightblue" points="703.858,-292.993 711.5,-285.656 700.95,-286.626 703.858,-292.993"/>
</g>
<!-- Node25&#45;&gt;Node29 -->
<g id="edge33" class="edge"><title>Node25&#45;&gt;Node29</title>
<path fill="none" stroke="midnightblue" d="M608.044,-342.458C622.168,-323.877 655.721,-282.436 692,-257 694.381,-255.331 696.932,-253.758 699.559,-252.288"/>
<polygon fill="midnightblue" stroke="midnightblue" points="701.308,-255.326 708.652,-247.689 698.149,-249.079 701.308,-255.326"/>
</g>
</g>
</svg>
