<?xml version="1.0" encoding="UTF-8" standalone="no"?>
<!DOCTYPE svg PUBLIC "-//W3C//DTD SVG 1.1//EN"
 "http://www.w3.org/Graphics/SVG/1.1/DTD/svg11.dtd">
<!-- Generated by graphviz version 2.38.0 (20140413.2041)
 -->
<!-- Title: MainWindow::createConnections Pages: 1 -->
<!--zoomable 484 -->
<svg id="main" version="1.1" xmlns="http://www.w3.org/2000/svg" xmlns:xlink="http://www.w3.org/1999/xlink" xml:space="preserve" onload="init(evt)">
<style type="text/css"><![CDATA[
.edge:hover path { stroke: red; }
.edge:hover polygon { stroke: red; fill: red; }
]]></style>
<script type="text/javascript"><![CDATA[
var edges = document.getElementsByTagName('g');
if (edges && edges.length) {
  for (var i=0;i<edges.length;i++) {
    if (edges[i].id.substr(0,4)=='edge') {
      edges[i].setAttribute('class','edge');
    }
  }
}
]]></script>
        <defs>
                <circle id="rim" cx="0" cy="0" r="7"/>
                <circle id="rim2" cx="0" cy="0" r="3.5"/>
                <g id="zoomPlus">
                        <use xlink:href="#rim" fill="#404040">
                                <set attributeName="fill" to="#808080" begin="zoomplus.mouseover" end="zoomplus.mouseout"/>
                        </use>
                        <path d="M-4,0h8M0,-4v8" fill="none" stroke="white" stroke-width="1.5" pointer-events="none"/>
                </g>
                <g id="zoomMin">
                        <use xlink:href="#rim" fill="#404040">
                                <set attributeName="fill" to="#808080" begin="zoomminus.mouseover" end="zoomminus.mouseout"/>
                        </use>
                        <path d="M-4,0h8" fill="none" stroke="white" stroke-width="1.5" pointer-events="none"/>
                </g>
                <g id="dirArrow">
                        <path fill="none" stroke="white" stroke-width="1.5" d="M0,-3.0v7 M-2.5,-0.5L0,-3.0L2.5,-0.5"/>
                </g>
               <g id="resetDef">
                       <use xlink:href="#rim2" fill="#404040">
                               <set attributeName="fill" to="#808080" begin="reset.mouseover" end="reset.mouseout"/>
                       </use>
               </g>
        </defs>

<script type="text/javascript">
var viewWidth = 952;
var viewHeight = 484;
var sectionId = 'dynsection-3';
</script>
<script xlink:href="svgpan.js"/>
<svg id="graph" class="graph">
<g id="viewport">
<title>MainWindow::createConnections</title>
<!-- Node1 -->
<g id="node1" class="node"><title>Node1</title>
<polygon fill="#bfbfbf" stroke="black" points="0,-100.5 0,-119.5 161,-119.5 161,-100.5 0,-100.5"/>
<text text-anchor="middle" x="80.5" y="-107.5" font-family="Helvetica,sans-Serif" font-size="10.00">MainWindow::createConnections</text>
</g>
<!-- Node2 -->
<g id="node2" class="node"><title>Node2</title>
<g id="a_node2"><a xlink:href="class_main_window.html#ad39bbe8ced0d3248206ac0ca6c444d55" target="_top" xlink:title="MainWindow::readyToNext1">
<polygon fill="none" stroke="black" points="197,-219.5 197,-238.5 337,-238.5 337,-219.5 197,-219.5"/>
<text text-anchor="middle" x="267" y="-226.5" font-family="Helvetica,sans-Serif" font-size="10.00">MainWindow::readyToNext1</text>
</a>
</g>
</g>
<!-- Node1&#45;&gt;Node2 -->
<g id="edge1" class="edge"><title>Node1&#45;&gt;Node2</title>
<path fill="none" stroke="midnightblue" d="M96.2865,-119.537C128.269,-140.165 204.089,-189.068 242.633,-213.929"/>
<polygon fill="midnightblue" stroke="midnightblue" points="240.842,-216.938 251.143,-219.417 244.636,-211.056 240.842,-216.938"/>
</g>
<!-- Node25 -->
<g id="node25" class="node"><title>Node25</title>
<g id="a_node25"><a xlink:href="class_main_window.html#ae2500bf587f9630ce61d27ca231cfd7a" target="_top" xlink:title="MainWindow::readyToNext2">
<polygon fill="none" stroke="black" points="197,-100.5 197,-119.5 337,-119.5 337,-100.5 197,-100.5"/>
<text text-anchor="middle" x="267" y="-107.5" font-family="Helvetica,sans-Serif" font-size="10.00">MainWindow::readyToNext2</text>
</a>
</g>
</g>
<!-- Node1&#45;&gt;Node25 -->
<g id="edge29" class="edge"><title>Node1&#45;&gt;Node25</title>
<path fill="none" stroke="midnightblue" d="M161.083,-110C169.542,-110 178.146,-110 186.603,-110"/>
<polygon fill="midnightblue" stroke="midnightblue" points="186.826,-113.5 196.826,-110 186.826,-106.5 186.826,-113.5"/>
</g>
<!-- Node29 -->
<g id="node29" class="node"><title>Node29</title>
<g id="a_node29"><a xlink:href="class_main_window.html#a8316cc41f24ecba912fb4c2a90103be4" target="_top" xlink:title="MainWindow::putNone">
<polygon fill="none" stroke="black" points="209,-62.5 209,-81.5 325,-81.5 325,-62.5 209,-62.5"/>
<text text-anchor="middle" x="267" y="-69.5" font-family="Helvetica,sans-Serif" font-size="10.00">MainWindow::putNone</text>
</a>
</g>
</g>
<!-- Node1&#45;&gt;Node29 -->
<g id="edge33" class="edge"><title>Node1&#45;&gt;Node29</title>
<path fill="none" stroke="midnightblue" d="M128.057,-100.411C152.843,-95.3061 183.515,-88.9887 209.639,-83.6082"/>
<polygon fill="midnightblue" stroke="midnightblue" points="210.689,-86.9655 219.778,-81.5201 209.277,-80.1094 210.689,-86.9655"/>
</g>
<!-- Node3 -->
<g id="node3" class="node"><title>Node3</title>
<g id="a_node3"><a xlink:href="class_track.html#aff258a8c303ee8a09a962d237f3823e7" target="_top" xlink:title="Reads a csv file and inserts each point in m_points vector. ">
<polygon fill="none" stroke="black" points="374,-219.5 374,-238.5 484,-238.5 484,-219.5 374,-219.5"/>
<text text-anchor="middle" x="429" y="-226.5" font-family="Helvetica,sans-Serif" font-size="10.00">Track::readFromCSV</text>
</a>
</g>
</g>
<!-- Node2&#45;&gt;Node3 -->
<g id="edge2" class="edge"><title>Node2&#45;&gt;Node3</title>
<path fill="none" stroke="midnightblue" d="M337.248,-229C345.989,-229 354.905,-229 363.567,-229"/>
<polygon fill="midnightblue" stroke="midnightblue" points="363.594,-232.5 373.594,-229 363.594,-225.5 363.594,-232.5"/>
</g>
<!-- Node4 -->
<g id="node4" class="node"><title>Node4</title>
<g id="a_node4"><a xlink:href="class_grid.html#a19318437702e712955d0c4631c94cb04" target="_top" xlink:title="Save data about our area of roads. ">
<polygon fill="none" stroke="black" points="373,-380.5 373,-399.5 485,-399.5 485,-380.5 373,-380.5"/>
<text text-anchor="middle" x="429" y="-387.5" font-family="Helvetica,sans-Serif" font-size="10.00">Grid::setBoundingBox</text>
</a>
</g>
</g>
<!-- Node2&#45;&gt;Node4 -->
<g id="edge3" class="edge"><title>Node2&#45;&gt;Node4</title>
<path fill="none" stroke="midnightblue" d="M277.53,-238.589C303.813,-265.037 377.595,-339.28 411.086,-372.98"/>
<polygon fill="midnightblue" stroke="midnightblue" points="408.786,-375.632 418.318,-380.258 413.752,-370.697 408.786,-375.632"/>
</g>
<!-- Node9 -->
<g id="node9" class="node"><title>Node9</title>
<g id="a_node9"><a xlink:href="class_grid.html#ae848f1c59c544adc1af9133409ee0106" target="_top" xlink:title="Reads a csv file and inserts info into the corresponding attributs. ">
<polygon fill="none" stroke="black" points="377.5,-143.5 377.5,-162.5 480.5,-162.5 480.5,-143.5 377.5,-143.5"/>
<text text-anchor="middle" x="429" y="-150.5" font-family="Helvetica,sans-Serif" font-size="10.00">Grid::readFromCSV</text>
</a>
</g>
</g>
<!-- Node2&#45;&gt;Node9 -->
<g id="edge8" class="edge"><title>Node2&#45;&gt;Node9</title>
<path fill="none" stroke="midnightblue" d="M288.264,-219.375C316.156,-206.126 366.554,-182.187 398.592,-166.969"/>
<polygon fill="midnightblue" stroke="midnightblue" points="400.369,-169.999 407.9,-162.547 397.366,-163.676 400.369,-169.999"/>
</g>
<!-- Node20 -->
<g id="node20" class="node"><title>Node20</title>
<g id="a_node20"><a xlink:href="class_grid.html#a8d8b7fa0ee20d81f130a46d80fc2a018" target="_top" xlink:title="Check if track is in grid. ">
<polygon fill="none" stroke="black" points="384.5,-304.5 384.5,-323.5 473.5,-323.5 473.5,-304.5 384.5,-304.5"/>
<text text-anchor="middle" x="429" y="-311.5" font-family="Helvetica,sans-Serif" font-size="10.00">Grid::trackInGrid</text>
</a>
</g>
</g>
<!-- Node2&#45;&gt;Node20 -->
<g id="edge20" class="edge"><title>Node2&#45;&gt;Node20</title>
<path fill="none" stroke="midnightblue" d="M286.043,-238.585C314.011,-253.444 368.012,-282.131 400.75,-299.523"/>
<polygon fill="midnightblue" stroke="midnightblue" points="399.304,-302.719 409.777,-304.319 402.588,-296.537 399.304,-302.719"/>
</g>
<!-- Node5 -->
<g id="node5" class="node"><title>Node5</title>
<g id="a_node5"><a xlink:href="class_grid.html#a13d6d18b26d70ab5871a8c2ddf7fa1b5" target="_top" xlink:title="Grid::xMin">
<polygon fill="none" stroke="black" points="546.5,-418.5 546.5,-437.5 608.5,-437.5 608.5,-418.5 546.5,-418.5"/>
<text text-anchor="middle" x="577.5" y="-425.5" font-family="Helvetica,sans-Serif" font-size="10.00">Grid::xMin</text>
</a>
</g>
</g>
<!-- Node4&#45;&gt;Node5 -->
<g id="edge4" class="edge"><title>Node4&#45;&gt;Node5</title>
<path fill="none" stroke="midnightblue" d="M466.968,-399.589C488.189,-405.093 514.845,-412.008 536.548,-417.637"/>
<polygon fill="midnightblue" stroke="midnightblue" points="535.886,-421.081 546.445,-420.204 537.644,-414.305 535.886,-421.081"/>
</g>
<!-- Node6 -->
<g id="node6" class="node"><title>Node6</title>
<g id="a_node6"><a xlink:href="class_grid.html#a5e140affdf9653d8badf596f1f151908" target="_top" xlink:title="Grid::xMax">
<polygon fill="none" stroke="black" points="545,-380.5 545,-399.5 610,-399.5 610,-380.5 545,-380.5"/>
<text text-anchor="middle" x="577.5" y="-387.5" font-family="Helvetica,sans-Serif" font-size="10.00">Grid::xMax</text>
</a>
</g>
</g>
<!-- Node4&#45;&gt;Node6 -->
<g id="edge5" class="edge"><title>Node4&#45;&gt;Node6</title>
<path fill="none" stroke="midnightblue" d="M485.385,-390C501.712,-390 519.301,-390 534.629,-390"/>
<polygon fill="midnightblue" stroke="midnightblue" points="534.836,-393.5 544.836,-390 534.836,-386.5 534.836,-393.5"/>
</g>
<!-- Node7 -->
<g id="node7" class="node"><title>Node7</title>
<g id="a_node7"><a xlink:href="class_grid.html#a6acf01d876905d8709f4fb8ebe18aa94" target="_top" xlink:title="Grid::yMin">
<polygon fill="none" stroke="black" points="546.5,-342.5 546.5,-361.5 608.5,-361.5 608.5,-342.5 546.5,-342.5"/>
<text text-anchor="middle" x="577.5" y="-349.5" font-family="Helvetica,sans-Serif" font-size="10.00">Grid::yMin</text>
</a>
</g>
</g>
<!-- Node4&#45;&gt;Node7 -->
<g id="edge6" class="edge"><title>Node4&#45;&gt;Node7</title>
<path fill="none" stroke="midnightblue" d="M466.968,-380.411C488.189,-374.907 514.845,-367.992 536.548,-362.363"/>
<polygon fill="midnightblue" stroke="midnightblue" points="537.644,-365.695 546.445,-359.796 535.886,-358.919 537.644,-365.695"/>
</g>
<!-- Node8 -->
<g id="node8" class="node"><title>Node8</title>
<g id="a_node8"><a xlink:href="class_grid.html#abfa1a601742ca69a5ecc3b6a5318d7a8" target="_top" xlink:title="Grid::yMax">
<polygon fill="none" stroke="black" points="545,-456.5 545,-475.5 610,-475.5 610,-456.5 545,-456.5"/>
<text text-anchor="middle" x="577.5" y="-463.5" font-family="Helvetica,sans-Serif" font-size="10.00">Grid::yMax</text>
</a>
</g>
</g>
<!-- Node4&#45;&gt;Node8 -->
<g id="edge7" class="edge"><title>Node4&#45;&gt;Node8</title>
<path fill="none" stroke="midnightblue" d="M443.016,-399.503C460.201,-411.728 491.718,-433.046 521,-447 525.594,-449.189 530.509,-451.248 535.445,-453.143"/>
<polygon fill="midnightblue" stroke="midnightblue" points="534.289,-456.447 544.883,-456.579 536.684,-449.869 534.289,-456.447"/>
</g>
<!-- Node10 -->
<g id="node10" class="node"><title>Node10</title>
<g id="a_node10"><a xlink:href="class_grid.html#a6b6af4fb2545b398b47794de576f15f5" target="_top" xlink:title="Test if a point is in the defined area of a track. ">
<polygon fill="none" stroke="black" points="533.5,-76.5 533.5,-95.5 621.5,-95.5 621.5,-76.5 533.5,-76.5"/>
<text text-anchor="middle" x="577.5" y="-83.5" font-family="Helvetica,sans-Serif" font-size="10.00">Grid::inFootPrint</text>
</a>
</g>
</g>
<!-- Node9&#45;&gt;Node10 -->
<g id="edge9" class="edge"><title>Node9&#45;&gt;Node10</title>
<path fill="none" stroke="midnightblue" d="M454.537,-143.387C464.212,-139.316 475.307,-134.292 485,-129 501.878,-119.785 503.76,-113.518 521,-105 525.283,-102.884 529.859,-100.905 534.478,-99.0849"/>
<polygon fill="midnightblue" stroke="midnightblue" points="535.779,-102.336 543.938,-95.5773 533.345,-95.7723 535.779,-102.336"/>
</g>
<!-- Node11 -->
<g id="node11" class="node"><title>Node11</title>
<g id="a_node11"><a xlink:href="class_grid.html#a58233ab60f7477144af334f205606aa4" target="_top" xlink:title="Find max and min of the grid. ">
<polygon fill="none" stroke="black" points="533.5,-152.5 533.5,-171.5 621.5,-171.5 621.5,-152.5 533.5,-152.5"/>
<text text-anchor="middle" x="577.5" y="-159.5" font-family="Helvetica,sans-Serif" font-size="10.00">Grid::updateGrid</text>
</a>
</g>
</g>
<!-- Node9&#45;&gt;Node11 -->
<g id="edge10" class="edge"><title>Node9&#45;&gt;Node11</title>
<path fill="none" stroke="midnightblue" d="M480.827,-156.123C494.394,-156.956 509.095,-157.859 522.81,-158.702"/>
<polygon fill="midnightblue" stroke="midnightblue" points="522.874,-162.212 533.07,-159.332 523.304,-155.225 522.874,-162.212"/>
</g>
<!-- Node12 -->
<g id="node12" class="node"><title>Node12</title>
<g id="a_node12"><a xlink:href="class_grid.html#aba1830bc145f128d6deeed29cfb94c9f" target="_top" xlink:title="Creates a new road and inserts it in m_road. ">
<polygon fill="none" stroke="black" points="537.5,-114.5 537.5,-133.5 617.5,-133.5 617.5,-114.5 537.5,-114.5"/>
<text text-anchor="middle" x="577.5" y="-121.5" font-family="Helvetica,sans-Serif" font-size="10.00">Grid::addRoad</text>
</a>
</g>
</g>
<!-- Node9&#45;&gt;Node12 -->
<g id="edge11" class="edge"><title>Node9&#45;&gt;Node12</title>
<path fill="none" stroke="midnightblue" d="M478.376,-143.424C494.1,-140.311 511.56,-136.855 527.342,-133.731"/>
<polygon fill="midnightblue" stroke="midnightblue" points="528.305,-137.108 537.435,-131.733 526.945,-130.242 528.305,-137.108"/>
</g>
<!-- Node13 -->
<g id="node13" class="node"><title>Node13</title>
<g id="a_node13"><a xlink:href="class_point_road.html#aa1b90c3fdf8ae7a1fcd8ce6182d13287" target="_top" xlink:title="PointRoad::outputInfos">
<polygon fill="none" stroke="black" points="692.5,-228.5 692.5,-247.5 809.5,-247.5 809.5,-228.5 692.5,-228.5"/>
<text text-anchor="middle" x="751" y="-235.5" font-family="Helvetica,sans-Serif" font-size="10.00">PointRoad::outputInfos</text>
</a>
</g>
</g>
<!-- Node12&#45;&gt;Node13 -->
<g id="edge12" class="edge"><title>Node12&#45;&gt;Node13</title>
<path fill="none" stroke="midnightblue" d="M617.698,-132.949C623.608,-135.51 629.291,-138.793 634,-143 661.873,-167.9 640.957,-195.475 670,-219 673.988,-222.23 678.434,-224.928 683.131,-227.179"/>
<polygon fill="midnightblue" stroke="midnightblue" points="681.836,-230.431 692.416,-230.98 684.487,-223.953 681.836,-230.431"/>
</g>
<!-- Node14 -->
<g id="node14" class="node"><title>Node14</title>
<g id="a_node14"><a xlink:href="class_point_road.html#ab53ccb3c883bdfd27c707901c5c658c8" target="_top" xlink:title="PointRoad::updateBelongToRoad">
<polygon fill="none" stroke="black" points="670,-190.5 670,-209.5 832,-209.5 832,-190.5 670,-190.5"/>
<text text-anchor="middle" x="751" y="-197.5" font-family="Helvetica,sans-Serif" font-size="10.00">PointRoad::updateBelongToRoad</text>
</a>
</g>
</g>
<!-- Node12&#45;&gt;Node14 -->
<g id="edge13" class="edge"><title>Node12&#45;&gt;Node14</title>
<path fill="none" stroke="midnightblue" d="M614.614,-133.522C621.331,-136.07 628.088,-139.201 634,-143 653.572,-155.576 649.843,-169.384 670,-181 673.861,-183.225 677.97,-185.19 682.21,-186.925"/>
<polygon fill="midnightblue" stroke="midnightblue" points="681.058,-190.231 691.652,-190.369 683.457,-183.655 681.058,-190.231"/>
</g>
<!-- Node15 -->
<g id="node15" class="node"><title>Node15</title>
<g id="a_node15"><a xlink:href="class_point_road.html#a998665db2d7e4fc4935ef95df092ff2b" target="_top" xlink:title="PointRoad::setid">
<polygon fill="none" stroke="black" points="706.5,-152.5 706.5,-171.5 795.5,-171.5 795.5,-152.5 706.5,-152.5"/>
<text text-anchor="middle" x="751" y="-159.5" font-family="Helvetica,sans-Serif" font-size="10.00">PointRoad::setid</text>
</a>
</g>
</g>
<!-- Node12&#45;&gt;Node15 -->
<g id="edge14" class="edge"><title>Node12&#45;&gt;Node15</title>
<path fill="none" stroke="midnightblue" d="M617.846,-132.718C641.33,-137.922 671.46,-144.598 697.018,-150.261"/>
<polygon fill="midnightblue" stroke="midnightblue" points="696.408,-153.71 706.928,-152.456 697.922,-146.876 696.408,-153.71"/>
</g>
<!-- Node16 -->
<g id="node16" class="node"><title>Node16</title>
<g id="a_node16"><a xlink:href="class_point_road.html#a81372f2c2c0fe1084fa2397289518124" target="_top" xlink:title="PointRoad::id">
<polygon fill="none" stroke="black" points="868,-133.5 868,-152.5 944,-152.5 944,-133.5 868,-133.5"/>
<text text-anchor="middle" x="906" y="-140.5" font-family="Helvetica,sans-Serif" font-size="10.00">PointRoad::id</text>
</a>
</g>
</g>
<!-- Node12&#45;&gt;Node16 -->
<g id="edge17" class="edge"><title>Node12&#45;&gt;Node16</title>
<path fill="none" stroke="midnightblue" d="M617.559,-126.273C677.686,-129.772 792.743,-136.467 857.566,-140.24"/>
<polygon fill="midnightblue" stroke="midnightblue" points="857.72,-143.754 867.907,-140.841 858.127,-136.766 857.72,-143.754"/>
</g>
<!-- Node17 -->
<g id="node17" class="node"><title>Node17</title>
<g id="a_node17"><a xlink:href="class_point_road.html#ae83941b37b026758fdd7974b4b186fbc" target="_top" xlink:title="PointRoad::isNode">
<polygon fill="none" stroke="black" points="701.5,-76.5 701.5,-95.5 800.5,-95.5 800.5,-76.5 701.5,-76.5"/>
<text text-anchor="middle" x="751" y="-83.5" font-family="Helvetica,sans-Serif" font-size="10.00">PointRoad::isNode</text>
</a>
</g>
</g>
<!-- Node12&#45;&gt;Node17 -->
<g id="edge16" class="edge"><title>Node12&#45;&gt;Node17</title>
<path fill="none" stroke="midnightblue" d="M617.846,-115.282C641.33,-110.078 671.46,-103.402 697.018,-97.7394"/>
<polygon fill="midnightblue" stroke="midnightblue" points="697.922,-101.124 706.928,-95.5436 696.408,-94.2898 697.922,-101.124"/>
</g>
<!-- Node18 -->
<g id="node18" class="node"><title>Node18</title>
<g id="a_node18"><a xlink:href="class_road.html#a7f97b4f20c598103baad510b19a0c0b5" target="_top" xlink:title="Add a point to the road. ">
<polygon fill="none" stroke="black" points="709,-38.5 709,-57.5 793,-57.5 793,-38.5 709,-38.5"/>
<text text-anchor="middle" x="751" y="-45.5" font-family="Helvetica,sans-Serif" font-size="10.00">Road::addPoint</text>
</a>
</g>
</g>
<!-- Node12&#45;&gt;Node18 -->
<g id="edge18" class="edge"><title>Node12&#45;&gt;Node18</title>
<path fill="none" stroke="midnightblue" d="M614.614,-114.478C621.331,-111.93 628.088,-108.799 634,-105 653.572,-92.4237 649.843,-78.6161 670,-67 678.812,-61.9215 688.917,-58.1981 698.911,-55.4689"/>
<polygon fill="midnightblue" stroke="midnightblue" points="699.928,-58.8236 708.816,-53.0578 698.272,-52.0222 699.928,-58.8236"/>
</g>
<!-- Node19 -->
<g id="node19" class="node"><title>Node19</title>
<g id="a_node19"><a xlink:href="class_road.html#ad6715392969e36eb10efac542519755c" target="_top" xlink:title="Get the id of the road. ">
<polygon fill="none" stroke="black" points="713.5,-0.5 713.5,-19.5 788.5,-19.5 788.5,-0.5 713.5,-0.5"/>
<text text-anchor="middle" x="751" y="-7.5" font-family="Helvetica,sans-Serif" font-size="10.00">Road::edgeId</text>
</a>
</g>
</g>
<!-- Node12&#45;&gt;Node19 -->
<g id="edge19" class="edge"><title>Node12&#45;&gt;Node19</title>
<path fill="none" stroke="midnightblue" d="M617.698,-115.051C623.608,-112.49 629.291,-109.207 634,-105 661.873,-80.0996 640.957,-52.5248 670,-29 679.446,-21.3487 691.46,-16.6853 703.288,-13.8686"/>
<polygon fill="midnightblue" stroke="midnightblue" points="703.995,-17.2967 713.12,-11.9119 702.629,-10.4313 703.995,-17.2967"/>
</g>
<!-- Node15&#45;&gt;Node16 -->
<g id="edge15" class="edge"><title>Node15&#45;&gt;Node16</title>
<path fill="none" stroke="midnightblue" d="M795.844,-156.555C815.244,-154.146 838.094,-151.309 857.861,-148.854"/>
<polygon fill="midnightblue" stroke="midnightblue" points="858.39,-152.315 867.882,-147.609 857.527,-145.369 858.39,-152.315"/>
</g>
<!-- Node20&#45;&gt;Node5 -->
<g id="edge21" class="edge"><title>Node20&#45;&gt;Node5</title>
<path fill="none" stroke="midnightblue" d="M439.369,-323.656C450.337,-334.972 469.035,-354.302 485,-371 501.077,-387.815 501.428,-396.424 521,-409 525.94,-412.174 531.47,-414.882 537.074,-417.174"/>
<polygon fill="midnightblue" stroke="midnightblue" points="535.889,-420.467 546.483,-420.644 538.312,-413.9 535.889,-420.467"/>
</g>
<!-- Node20&#45;&gt;Node6 -->
<g id="edge23" class="edge"><title>Node20&#45;&gt;Node6</title>
<path fill="none" stroke="midnightblue" d="M443.016,-323.503C460.201,-335.728 491.718,-357.046 521,-371 525.594,-373.189 530.509,-375.248 535.445,-377.143"/>
<polygon fill="midnightblue" stroke="midnightblue" points="534.289,-380.447 544.883,-380.579 536.684,-373.869 534.289,-380.447"/>
</g>
<!-- Node20&#45;&gt;Node7 -->
<g id="edge25" class="edge"><title>Node20&#45;&gt;Node7</title>
<path fill="none" stroke="midnightblue" d="M466.968,-323.589C488.189,-329.093 514.845,-336.008 536.548,-341.637"/>
<polygon fill="midnightblue" stroke="midnightblue" points="535.886,-345.081 546.445,-344.204 537.644,-338.305 535.886,-345.081"/>
</g>
<!-- Node20&#45;&gt;Node8 -->
<g id="edge27" class="edge"><title>Node20&#45;&gt;Node8</title>
<path fill="none" stroke="midnightblue" d="M441.235,-323.606C453.209,-334.274 472.174,-352.45 485,-371 506.257,-401.742 493.127,-422.1 521,-447 525.177,-450.732 530.121,-453.737 535.31,-456.156"/>
<polygon fill="midnightblue" stroke="midnightblue" points="534.214,-459.486 544.801,-459.906 536.787,-452.976 534.214,-459.486"/>
</g>
<!-- Node21 -->
<g id="node21" class="node"><title>Node21</title>
<g id="a_node21"><a xlink:href="class_grid.html#aa96eed7a551f45aeee1068a289bd2a7b" target="_top" xlink:title="Grid::xMinGrid">
<polygon fill="none" stroke="black" points="537.5,-304.5 537.5,-323.5 617.5,-323.5 617.5,-304.5 537.5,-304.5"/>
<text text-anchor="middle" x="577.5" y="-311.5" font-family="Helvetica,sans-Serif" font-size="10.00">Grid::xMinGrid</text>
</a>
</g>
</g>
<!-- Node20&#45;&gt;Node21 -->
<g id="edge22" class="edge"><title>Node20&#45;&gt;Node21</title>
<path fill="none" stroke="midnightblue" d="M473.558,-314C490.322,-314 509.582,-314 526.876,-314"/>
<polygon fill="midnightblue" stroke="midnightblue" points="527.349,-317.5 537.349,-314 527.349,-310.5 527.349,-317.5"/>
</g>
<!-- Node22 -->
<g id="node22" class="node"><title>Node22</title>
<g id="a_node22"><a xlink:href="class_grid.html#aa3dd1e75998e6214c3ef33cdc5e02204" target="_top" xlink:title="Grid::xMaxGrid">
<polygon fill="none" stroke="black" points="536,-266.5 536,-285.5 619,-285.5 619,-266.5 536,-266.5"/>
<text text-anchor="middle" x="577.5" y="-273.5" font-family="Helvetica,sans-Serif" font-size="10.00">Grid::xMaxGrid</text>
</a>
</g>
</g>
<!-- Node20&#45;&gt;Node22 -->
<g id="edge24" class="edge"><title>Node20&#45;&gt;Node22</title>
<path fill="none" stroke="midnightblue" d="M466.968,-304.411C486.126,-299.442 509.714,-293.323 530.088,-288.039"/>
<polygon fill="midnightblue" stroke="midnightblue" points="530.997,-291.419 539.798,-285.52 529.239,-284.643 530.997,-291.419"/>
</g>
<!-- Node23 -->
<g id="node23" class="node"><title>Node23</title>
<g id="a_node23"><a xlink:href="class_grid.html#afa95de5fff735d1121572075a872121c" target="_top" xlink:title="Grid::yMinGrid">
<polygon fill="none" stroke="black" points="537.5,-228.5 537.5,-247.5 617.5,-247.5 617.5,-228.5 537.5,-228.5"/>
<text text-anchor="middle" x="577.5" y="-235.5" font-family="Helvetica,sans-Serif" font-size="10.00">Grid::yMinGrid</text>
</a>
</g>
</g>
<!-- Node20&#45;&gt;Node23 -->
<g id="edge26" class="edge"><title>Node20&#45;&gt;Node23</title>
<path fill="none" stroke="midnightblue" d="M443.016,-304.497C460.201,-292.272 491.718,-270.954 521,-257 525.422,-254.893 530.141,-252.907 534.889,-251.071"/>
<polygon fill="midnightblue" stroke="midnightblue" points="536.403,-254.244 544.593,-247.522 533.999,-247.67 536.403,-254.244"/>
</g>
<!-- Node24 -->
<g id="node24" class="node"><title>Node24</title>
<g id="a_node24"><a xlink:href="class_grid.html#a97ee4a72430770462f5e2ba140f2ca65" target="_top" xlink:title="Grid::yMaxGrid">
<polygon fill="none" stroke="black" points="536,-190.5 536,-209.5 619,-209.5 619,-190.5 536,-190.5"/>
<text text-anchor="middle" x="577.5" y="-197.5" font-family="Helvetica,sans-Serif" font-size="10.00">Grid::yMaxGrid</text>
</a>
</g>
</g>
<!-- Node20&#45;&gt;Node24 -->
<g id="edge28" class="edge"><title>Node20&#45;&gt;Node24</title>
<path fill="none" stroke="midnightblue" d="M436.645,-304.472C450.313,-285.545 483.466,-242.972 521,-219 524.146,-216.991 527.529,-215.167 531.017,-213.517"/>
<polygon fill="midnightblue" stroke="midnightblue" points="532.556,-216.667 540.403,-209.548 529.829,-210.22 532.556,-216.667"/>
</g>
<!-- Node26 -->
<g id="node26" class="node"><title>Node26</title>
<g id="a_node26"><a xlink:href="class_track.html#a9f1da7896167f44da967acf9fd05d92a" target="_top" xlink:title="This is a space filter, which deletes points depending on a distance interval. ">
<polygon fill="none" stroke="black" points="381.5,-100.5 381.5,-119.5 476.5,-119.5 476.5,-100.5 381.5,-100.5"/>
<text text-anchor="middle" x="429" y="-107.5" font-family="Helvetica,sans-Serif" font-size="10.00">Track::spaceFilter</text>
</a>
</g>
</g>
<!-- Node25&#45;&gt;Node26 -->
<g id="edge30" class="edge"><title>Node25&#45;&gt;Node26</title>
<path fill="none" stroke="midnightblue" d="M337.248,-110C348.512,-110 360.066,-110 370.995,-110"/>
<polygon fill="midnightblue" stroke="midnightblue" points="371.251,-113.5 381.251,-110 371.251,-106.5 371.251,-113.5"/>
</g>
<!-- Node27 -->
<g id="node27" class="node"><title>Node27</title>
<g id="a_node27"><a xlink:href="class_track.html#a58fcdaf47f2c87bb7095933616f5a4bc" target="_top" xlink:title="This is a temporal filter, which deletes points depending on a time value. ">
<polygon fill="none" stroke="black" points="375.5,-43.5 375.5,-62.5 482.5,-62.5 482.5,-43.5 375.5,-43.5"/>
<text text-anchor="middle" x="429" y="-50.5" font-family="Helvetica,sans-Serif" font-size="10.00">Track::temporalFilter</text>
</a>
</g>
</g>
<!-- Node25&#45;&gt;Node27 -->
<g id="edge31" class="edge"><title>Node25&#45;&gt;Node27</title>
<path fill="none" stroke="midnightblue" d="M306.227,-100.403C316.313,-97.6186 327.133,-94.4031 337,-91 357.757,-83.8405 380.556,-74.3173 398.141,-66.5957"/>
<polygon fill="midnightblue" stroke="midnightblue" points="399.607,-69.7739 407.327,-62.5176 396.767,-63.3759 399.607,-69.7739"/>
</g>
<!-- Node28 -->
<g id="node28" class="node"><title>Node28</title>
<g id="a_node28"><a xlink:href="class_point_g_p_s.html#aa8a0cbf3cfbc3f4ac9d16737c00fcb88" target="_top" xlink:title="PointGPS::timeStamp">
<polygon fill="none" stroke="black" points="521,-38.5 521,-57.5 634,-57.5 634,-38.5 521,-38.5"/>
<text text-anchor="middle" x="577.5" y="-45.5" font-family="Helvetica,sans-Serif" font-size="10.00">PointGPS::timeStamp</text>
</a>
</g>
</g>
<!-- Node27&#45;&gt;Node28 -->
<g id="edge32" class="edge"><title>Node27&#45;&gt;Node28</title>
<path fill="none" stroke="midnightblue" d="M482.89,-51.1949C491.918,-50.8868 501.395,-50.5633 510.709,-50.2454"/>
<polygon fill="midnightblue" stroke="midnightblue" points="510.848,-53.7428 520.723,-49.9037 510.609,-46.7469 510.848,-53.7428"/>
</g>
</g>
</svg>
        <g id="navigator" transform="translate(0 0)" fill="#404254">
                <rect fill="#f2f5e9" fill-opacity="0.5" stroke="#606060" stroke-width=".5" x="0" y="0" width="60" height="60"/>
                <use id="zoomplus" xlink:href="#zoomPlus" x="17" y="9" onmousedown="handleZoom(evt,'in')"/>
                <use id="zoomminus" xlink:href="#zoomMin" x="42" y="9" onmousedown="handleZoom(evt,'out')"/>
                <use id="reset" xlink:href="#resetDef" x="30" y="36" onmousedown="handleReset()"/>
                <g id="arrowUp" xlink:href="#dirArrow" transform="translate(30 24)" onmousedown="handlePan(0,-1)">
                  <use xlink:href="#rim" fill="#404040">
                        <set attributeName="fill" to="#808080" begin="arrowUp.mouseover" end="arrowUp.mouseout"/>
                  </use>
                  <path fill="none" stroke="white" stroke-width="1.5" d="M0,-3.0v7 M-2.5,-0.5L0,-3.0L2.5,-0.5"/>
                </g>
                <g id="arrowRight" xlink:href="#dirArrow" transform="rotate(90) translate(36 -43)" onmousedown="handlePan(1,0)">
                  <use xlink:href="#rim" fill="#404040">
                        <set attributeName="fill" to="#808080" begin="arrowRight.mouseover" end="arrowRight.mouseout"/>
                  </use>
                  <path fill="none" stroke="white" stroke-width="1.5" d="M0,-3.0v7 M-2.5,-0.5L0,-3.0L2.5,-0.5"/>
                </g>
                <g id="arrowDown" xlink:href="#dirArrow" transform="rotate(180) translate(-30 -48)" onmousedown="handlePan(0,1)">
                  <use xlink:href="#rim" fill="#404040">
                        <set attributeName="fill" to="#808080" begin="arrowDown.mouseover" end="arrowDown.mouseout"/>
                  </use>
                  <path fill="none" stroke="white" stroke-width="1.5" d="M0,-3.0v7 M-2.5,-0.5L0,-3.0L2.5,-0.5"/>
                </g>
                <g id="arrowLeft" xlink:href="#dirArrow" transform="rotate(270) translate(-36 17)" onmousedown="handlePan(-1,0)">
                  <use xlink:href="#rim" fill="#404040">
                        <set attributeName="fill" to="#808080" begin="arrowLeft.mouseover" end="arrowLeft.mouseout"/>
                  </use>
                  <path fill="none" stroke="white" stroke-width="1.5" d="M0,-3.0v7 M-2.5,-0.5L0,-3.0L2.5,-0.5"/>
                </g>
        </g>
        <svg viewBox="0 0 15 15" width="100%" height="30px" preserveAspectRatio="xMaxYMin meet">
         <g id="arrow_out" transform="scale(0.3 0.3)">
          <a xlink:href="class_main_window_af773488e0b16efe6c0fc67ad348b86b2_cgraph_org.svg" target="_base">
           <rect id="button" ry="5" rx="5" y="6" x="6" height="38" width="38"
                fill="#f2f5e9" fill-opacity="0.5" stroke="#606060" stroke-width="1.0"/>
           <path id="arrow"
             d="M 11.500037,31.436501 C 11.940474,20.09759 22.043105,11.32322 32.158766,21.979434 L 37.068811,17.246167 C 37.068811,17.246167 37.088388,32 37.088388,32 L 22.160133,31.978069 C 22.160133,31.978069 26.997745,27.140456 26.997745,27.140456 C 18.528582,18.264221 13.291696,25.230495 11.500037,31.436501 z"
             style="fill:#404040;"/>
          </a>
         </g>
        </svg>
</svg>
