<?xml version="1.0" encoding="UTF-8" standalone="no"?>
<!DOCTYPE svg PUBLIC "-//W3C//DTD SVG 1.1//EN"
 "http://www.w3.org/Graphics/SVG/1.1/DTD/svg11.dtd">
<!-- Generated by graphviz version 2.38.0 (20140413.2041)
 -->
<!-- Title: Track::temporalFilter Pages: 1 -->
<svg width="789pt" height="104pt"
 viewBox="0.00 0.00 789.00 104.00" xmlns="http://www.w3.org/2000/svg" xmlns:xlink="http://www.w3.org/1999/xlink">
<g id="graph0" class="graph" transform="scale(1 1) rotate(0) translate(4 100)">
<title>Track::temporalFilter</title>
<!-- Node1 -->
<g id="node1" class="node"><title>Node1</title>
<polygon fill="#bfbfbf" stroke="black" points="0,-19.5 0,-38.5 107,-38.5 107,-19.5 0,-19.5"/>
<text text-anchor="middle" x="53.5" y="-26.5" font-family="Helvetica,sans-Serif" font-size="10.00">Track::temporalFilter</text>
</g>
<!-- Node2 -->
<g id="node2" class="node"><title>Node2</title>
<g id="a_node2"><a xlink:href="class_solver.html#a97bc7169c18b339fecd4937150f907c3" target="_top" xlink:title="Solver::start">
<polygon fill="none" stroke="black" points="155,-38.5 155,-57.5 225,-57.5 225,-38.5 155,-38.5"/>
<text text-anchor="middle" x="190" y="-45.5" font-family="Helvetica,sans-Serif" font-size="10.00">Solver::start</text>
</a>
</g>
</g>
<!-- Node1&#45;&gt;Node2 -->
<g id="edge1" class="edge"><title>Node1&#45;&gt;Node2</title>
<path fill="none" stroke="midnightblue" d="M117.542,-37.9056C130.449,-39.7289 143.564,-41.5815 154.974,-43.1934"/>
<polygon fill="midnightblue" stroke="midnightblue" points="117.663,-34.388 107.272,-36.4548 116.684,-41.3192 117.663,-34.388"/>
</g>
<!-- Node6 -->
<g id="node6" class="node"><title>Node6</title>
<g id="a_node6"><a xlink:href="class_solver.html#a95af3471a75ea1b9dc7051959c70b6e7" target="_top" xlink:title="filterTemp Use Temporal filter with a value ">
<polygon fill="none" stroke="black" points="143,-0.5 143,-19.5 237,-19.5 237,-0.5 143,-0.5"/>
<text text-anchor="middle" x="190" y="-7.5" font-family="Helvetica,sans-Serif" font-size="10.00">Solver::filterTemp</text>
</a>
</g>
</g>
<!-- Node1&#45;&gt;Node6 -->
<g id="edge5" class="edge"><title>Node1&#45;&gt;Node6</title>
<path fill="none" stroke="midnightblue" d="M117.321,-20.1257C125.948,-18.907 134.673,-17.6744 142.924,-16.5088"/>
<polygon fill="midnightblue" stroke="midnightblue" points="116.684,-16.6808 107.272,-21.5452 117.663,-23.612 116.684,-16.6808"/>
</g>
<!-- Node3 -->
<g id="node3" class="node"><title>Node3</title>
<g id="a_node3"><a xlink:href="main_8cpp.html#a9dd67c19acf7317c6296b63e29dcfab9" target="_top" xlink:title="dev_thread">
<polygon fill="none" stroke="black" points="310.5,-76.5 310.5,-95.5 375.5,-95.5 375.5,-76.5 310.5,-76.5"/>
<text text-anchor="middle" x="343" y="-83.5" font-family="Helvetica,sans-Serif" font-size="10.00">dev_thread</text>
</a>
</g>
</g>
<!-- Node2&#45;&gt;Node3 -->
<g id="edge2" class="edge"><title>Node2&#45;&gt;Node3</title>
<path fill="none" stroke="midnightblue" d="M235.248,-59.1352C259.367,-65.2049 288.653,-72.575 310.446,-78.0593"/>
<polygon fill="midnightblue" stroke="midnightblue" points="235.816,-55.6692 225.264,-56.6228 234.108,-62.4575 235.816,-55.6692"/>
</g>
<!-- Node5 -->
<g id="node5" class="node"><title>Node5</title>
<g id="a_node5"><a xlink:href="class_solver.html#a323c9c0407f26a2ed3ec3ff5ed02a760" target="_top" xlink:title="Solver::onSignalStart">
<polygon fill="none" stroke="black" points="288.5,-38.5 288.5,-57.5 397.5,-57.5 397.5,-38.5 288.5,-38.5"/>
<text text-anchor="middle" x="343" y="-45.5" font-family="Helvetica,sans-Serif" font-size="10.00">Solver::onSignalStart</text>
</a>
</g>
</g>
<!-- Node2&#45;&gt;Node5 -->
<g id="edge4" class="edge"><title>Node2&#45;&gt;Node5</title>
<path fill="none" stroke="midnightblue" d="M235.727,-48C252.233,-48 271.105,-48 288.321,-48"/>
<polygon fill="midnightblue" stroke="midnightblue" points="235.264,-44.5001 225.264,-48 235.264,-51.5001 235.264,-44.5001"/>
</g>
<!-- Node4 -->
<g id="node4" class="node"><title>Node4</title>
<g id="a_node4"><a xlink:href="main_8cpp.html#a0ddf1224851353fc92bfbff6f499fa97" target="_top" xlink:title="main">
<polygon fill="none" stroke="black" points="510.5,-76.5 510.5,-95.5 548.5,-95.5 548.5,-76.5 510.5,-76.5"/>
<text text-anchor="middle" x="529.5" y="-83.5" font-family="Helvetica,sans-Serif" font-size="10.00">main</text>
</a>
</g>
</g>
<!-- Node3&#45;&gt;Node4 -->
<g id="edge3" class="edge"><title>Node3&#45;&gt;Node4</title>
<path fill="none" stroke="midnightblue" d="M385.733,-86C424.774,-86 481.269,-86 510.087,-86"/>
<polygon fill="midnightblue" stroke="midnightblue" points="385.717,-82.5001 375.717,-86 385.717,-89.5001 385.717,-82.5001"/>
</g>
<!-- Node7 -->
<g id="node7" class="node"><title>Node7</title>
<g id="a_node7"><a xlink:href="class_main_window.html#ae2500bf587f9630ce61d27ca231cfd7a" target="_top" xlink:title="readyToNext2 Pass informations ">
<polygon fill="none" stroke="black" points="273,-0.5 273,-19.5 413,-19.5 413,-0.5 273,-0.5"/>
<text text-anchor="middle" x="343" y="-7.5" font-family="Helvetica,sans-Serif" font-size="10.00">MainWindow::readyToNext2</text>
</a>
</g>
</g>
<!-- Node6&#45;&gt;Node7 -->
<g id="edge6" class="edge"><title>Node6&#45;&gt;Node7</title>
<path fill="none" stroke="midnightblue" d="M247.132,-10C255.499,-10 264.207,-10 272.804,-10"/>
<polygon fill="midnightblue" stroke="midnightblue" points="247.125,-6.5001 237.125,-10 247.125,-13.5001 247.125,-6.5001"/>
</g>
<!-- Node8 -->
<g id="node8" class="node"><title>Node8</title>
<g id="a_node8"><a xlink:href="class_main_window.html#af773488e0b16efe6c0fc67ad348b86b2" target="_top" xlink:title="createConnections ">
<polygon fill="none" stroke="black" points="449,-0.5 449,-19.5 610,-19.5 610,-0.5 449,-0.5"/>
<text text-anchor="middle" x="529.5" y="-7.5" font-family="Helvetica,sans-Serif" font-size="10.00">MainWindow::createConnections</text>
</a>
</g>
</g>
<!-- Node7&#45;&gt;Node8 -->
<g id="edge7" class="edge"><title>Node7&#45;&gt;Node8</title>
<path fill="none" stroke="midnightblue" d="M423.446,-10C431.9,-10 440.501,-10 448.956,-10"/>
<polygon fill="midnightblue" stroke="midnightblue" points="423.226,-6.5001 413.226,-10 423.226,-13.5001 423.226,-6.5001"/>
</g>
<!-- Node9 -->
<g id="node9" class="node"><title>Node9</title>
<g id="a_node9"><a xlink:href="class_main_window.html#a8b244be8b7b7db1b08de2a2acb9409db" target="_top" xlink:title="MainWindow::MainWindow">
<polygon fill="none" stroke="black" points="646,-0.5 646,-19.5 781,-19.5 781,-0.5 646,-0.5"/>
<text text-anchor="middle" x="713.5" y="-7.5" font-family="Helvetica,sans-Serif" font-size="10.00">MainWindow::MainWindow</text>
</a>
</g>
</g>
<!-- Node8&#45;&gt;Node9 -->
<g id="edge8" class="edge"><title>Node8&#45;&gt;Node9</title>
<path fill="none" stroke="midnightblue" d="M620.196,-10C628.85,-10 637.52,-10 645.892,-10"/>
<polygon fill="midnightblue" stroke="midnightblue" points="620.063,-6.5001 610.063,-10 620.063,-13.5001 620.063,-6.5001"/>
</g>
</g>
</svg>
