<?xml version="1.0" encoding="UTF-8" standalone="no"?>
<!DOCTYPE svg PUBLIC "-//W3C//DTD SVG 1.1//EN"
 "http://www.w3.org/Graphics/SVG/1.1/DTD/svg11.dtd">
<!-- Generated by graphviz version 2.38.0 (20140413.2041)
 -->
<!-- Title: Loading::loadFileGrid Pages: 1 -->
<svg width="350pt" height="28pt"
 viewBox="0.00 0.00 350.00 28.00" xmlns="http://www.w3.org/2000/svg" xmlns:xlink="http://www.w3.org/1999/xlink">
<g id="graph0" class="graph" transform="scale(1 1) rotate(0) translate(4 24)">
<title>Loading::loadFileGrid</title>
<!-- Node1 -->
<g id="node1" class="node"><title>Node1</title>
<polygon fill="#bfbfbf" stroke="black" points="0,-0.5 0,-19.5 108,-19.5 108,-0.5 0,-0.5"/>
<text text-anchor="middle" x="54" y="-7.5" font-family="Helvetica,sans-Serif" font-size="10.00">Loading::loadFileGrid</text>
</g>
<!-- Node2 -->
<g id="node2" class="node"><title>Node2</title>
<g id="a_node2"><a xlink:href="class_loading.html#afb0b2fe451bdc3f6f2cc186903df96b4" target="_top" xlink:title="grid ">
<polygon fill="none" stroke="black" points="144,-0.5 144,-19.5 216,-19.5 216,-0.5 144,-0.5"/>
<text text-anchor="middle" x="180" y="-7.5" font-family="Helvetica,sans-Serif" font-size="10.00">Loading::grid</text>
</a>
</g>
</g>
<!-- Node1&#45;&gt;Node2 -->
<g id="edge1" class="edge"><title>Node1&#45;&gt;Node2</title>
<path fill="none" stroke="midnightblue" d="M118.451,-10C127.111,-10 135.734,-10 143.643,-10"/>
<polygon fill="midnightblue" stroke="midnightblue" points="118.307,-6.5001 108.307,-10 118.307,-13.5001 118.307,-6.5001"/>
</g>
<!-- Node3 -->
<g id="node3" class="node"><title>Node3</title>
<g id="a_node3"><a xlink:href="class_loading.html#a7634c001ec052e10c402e49f5be030db" target="_top" xlink:title="Loading::Loading">
<polygon fill="none" stroke="black" points="252,-0.5 252,-19.5 342,-19.5 342,-0.5 252,-0.5"/>
<text text-anchor="middle" x="297" y="-7.5" font-family="Helvetica,sans-Serif" font-size="10.00">Loading::Loading</text>
</a>
</g>
</g>
<!-- Node2&#45;&gt;Node3 -->
<g id="edge2" class="edge"><title>Node2&#45;&gt;Node3</title>
<path fill="none" stroke="midnightblue" d="M226.153,-10C234.564,-10 243.344,-10 251.728,-10"/>
<polygon fill="midnightblue" stroke="midnightblue" points="226.129,-6.5001 216.129,-10 226.129,-13.5001 226.129,-6.5001"/>
</g>
</g>
</svg>
