<?xml version="1.0" encoding="UTF-8" standalone="no"?>
<!DOCTYPE svg PUBLIC "-//W3C//DTD SVG 1.1//EN"
 "http://www.w3.org/Graphics/SVG/1.1/DTD/svg11.dtd">
<!-- Generated by graphviz version 2.38.0 (20140413.2041)
 -->
<!-- Title: Grid::yMinGrid Pages: 1 -->
<svg width="757pt" height="104pt"
 viewBox="0.00 0.00 757.00 104.00" xmlns="http://www.w3.org/2000/svg" xmlns:xlink="http://www.w3.org/1999/xlink">
<g id="graph0" class="graph" transform="scale(1 1) rotate(0) translate(4 100)">
<title>Grid::yMinGrid</title>
<!-- Node1 -->
<g id="node1" class="node"><title>Node1</title>
<polygon fill="#bfbfbf" stroke="black" points="0,-57.5 0,-76.5 80,-76.5 80,-57.5 0,-57.5"/>
<text text-anchor="middle" x="40" y="-64.5" font-family="Helvetica,sans-Serif" font-size="10.00">Grid::yMinGrid</text>
</g>
<!-- Node2 -->
<g id="node2" class="node"><title>Node2</title>
<g id="a_node2"><a xlink:href="class_grid.html#a8d8b7fa0ee20d81f130a46d80fc2a018" target="_top" xlink:title="Check if track is in grid. ">
<polygon fill="none" stroke="black" points="116,-76.5 116,-95.5 205,-95.5 205,-76.5 116,-76.5"/>
<text text-anchor="middle" x="160.5" y="-83.5" font-family="Helvetica,sans-Serif" font-size="10.00">Grid::trackInGrid</text>
</a>
</g>
</g>
<!-- Node1&#45;&gt;Node2 -->
<g id="edge1" class="edge"><title>Node1&#45;&gt;Node2</title>
<path fill="none" stroke="midnightblue" d="M90.0251,-74.8606C98.6082,-76.2368 107.487,-77.6603 115.91,-79.0109"/>
<polygon fill="midnightblue" stroke="midnightblue" points="90.5578,-71.4013 80.1297,-73.274 89.4495,-78.3131 90.5578,-71.4013"/>
</g>
<!-- Node6 -->
<g id="node6" class="node"><title>Node6</title>
<g id="a_node6"><a xlink:href="class_solver.html#a97bc7169c18b339fecd4937150f907c3" target="_top" xlink:title="Solver::start">
<polygon fill="none" stroke="black" points="125.5,-38.5 125.5,-57.5 195.5,-57.5 195.5,-38.5 125.5,-38.5"/>
<text text-anchor="middle" x="160.5" y="-45.5" font-family="Helvetica,sans-Serif" font-size="10.00">Solver::start</text>
</a>
</g>
</g>
<!-- Node1&#45;&gt;Node6 -->
<g id="edge5" class="edge"><title>Node1&#45;&gt;Node6</title>
<path fill="none" stroke="midnightblue" d="M90.2622,-59.1014C102.005,-57.2186 114.287,-55.2494 125.19,-53.5012"/>
<polygon fill="midnightblue" stroke="midnightblue" points="89.4495,-55.6869 80.1297,-60.726 90.5578,-62.5987 89.4495,-55.6869"/>
</g>
<!-- Node3 -->
<g id="node3" class="node"><title>Node3</title>
<g id="a_node3"><a xlink:href="class_main_window.html#ad39bbe8ced0d3248206ac0ca6c444d55" target="_top" xlink:title="readyToNext1 Pass informations ">
<polygon fill="none" stroke="black" points="241,-76.5 241,-95.5 381,-95.5 381,-76.5 241,-76.5"/>
<text text-anchor="middle" x="311" y="-83.5" font-family="Helvetica,sans-Serif" font-size="10.00">MainWindow::readyToNext1</text>
</a>
</g>
</g>
<!-- Node2&#45;&gt;Node3 -->
<g id="edge2" class="edge"><title>Node2&#45;&gt;Node3</title>
<path fill="none" stroke="midnightblue" d="M215.496,-86C223.764,-86 232.394,-86 240.933,-86"/>
<polygon fill="midnightblue" stroke="midnightblue" points="215.252,-82.5001 205.252,-86 215.252,-89.5001 215.252,-82.5001"/>
</g>
<!-- Node4 -->
<g id="node4" class="node"><title>Node4</title>
<g id="a_node4"><a xlink:href="class_main_window.html#af773488e0b16efe6c0fc67ad348b86b2" target="_top" xlink:title="createConnections ">
<polygon fill="none" stroke="black" points="417,-76.5 417,-95.5 578,-95.5 578,-76.5 417,-76.5"/>
<text text-anchor="middle" x="497.5" y="-83.5" font-family="Helvetica,sans-Serif" font-size="10.00">MainWindow::createConnections</text>
</a>
</g>
</g>
<!-- Node3&#45;&gt;Node4 -->
<g id="edge3" class="edge"><title>Node3&#45;&gt;Node4</title>
<path fill="none" stroke="midnightblue" d="M391.446,-86C399.9,-86 408.501,-86 416.956,-86"/>
<polygon fill="midnightblue" stroke="midnightblue" points="391.226,-82.5001 381.226,-86 391.226,-89.5001 391.226,-82.5001"/>
</g>
<!-- Node5 -->
<g id="node5" class="node"><title>Node5</title>
<g id="a_node5"><a xlink:href="class_main_window.html#a8b244be8b7b7db1b08de2a2acb9409db" target="_top" xlink:title="MainWindow::MainWindow">
<polygon fill="none" stroke="black" points="614,-76.5 614,-95.5 749,-95.5 749,-76.5 614,-76.5"/>
<text text-anchor="middle" x="681.5" y="-83.5" font-family="Helvetica,sans-Serif" font-size="10.00">MainWindow::MainWindow</text>
</a>
</g>
</g>
<!-- Node4&#45;&gt;Node5 -->
<g id="edge4" class="edge"><title>Node4&#45;&gt;Node5</title>
<path fill="none" stroke="midnightblue" d="M588.196,-86C596.85,-86 605.52,-86 613.892,-86"/>
<polygon fill="midnightblue" stroke="midnightblue" points="588.063,-82.5001 578.063,-86 588.063,-89.5001 588.063,-82.5001"/>
</g>
<!-- Node7 -->
<g id="node7" class="node"><title>Node7</title>
<g id="a_node7"><a xlink:href="main_8cpp.html#a9dd67c19acf7317c6296b63e29dcfab9" target="_top" xlink:title="dev_thread">
<polygon fill="none" stroke="black" points="278.5,-38.5 278.5,-57.5 343.5,-57.5 343.5,-38.5 278.5,-38.5"/>
<text text-anchor="middle" x="311" y="-45.5" font-family="Helvetica,sans-Serif" font-size="10.00">dev_thread</text>
</a>
</g>
</g>
<!-- Node6&#45;&gt;Node7 -->
<g id="edge6" class="edge"><title>Node6&#45;&gt;Node7</title>
<path fill="none" stroke="midnightblue" d="M205.598,-48C228.985,-48 257.181,-48 278.373,-48"/>
<polygon fill="midnightblue" stroke="midnightblue" points="205.569,-44.5001 195.569,-48 205.569,-51.5001 205.569,-44.5001"/>
</g>
<!-- Node9 -->
<g id="node9" class="node"><title>Node9</title>
<g id="a_node9"><a xlink:href="class_solver.html#a323c9c0407f26a2ed3ec3ff5ed02a760" target="_top" xlink:title="Solver::onSignalStart">
<polygon fill="none" stroke="black" points="256.5,-0.5 256.5,-19.5 365.5,-19.5 365.5,-0.5 256.5,-0.5"/>
<text text-anchor="middle" x="311" y="-7.5" font-family="Helvetica,sans-Serif" font-size="10.00">Solver::onSignalStart</text>
</a>
</g>
</g>
<!-- Node6&#45;&gt;Node9 -->
<g id="edge8" class="edge"><title>Node6&#45;&gt;Node9</title>
<path fill="none" stroke="midnightblue" d="M205.395,-36.7677C226.795,-31.2916 252.259,-24.7756 272.705,-19.5436"/>
<polygon fill="midnightblue" stroke="midnightblue" points="204.389,-33.4122 195.569,-39.282 206.124,-40.1937 204.389,-33.4122"/>
</g>
<!-- Node8 -->
<g id="node8" class="node"><title>Node8</title>
<g id="a_node8"><a xlink:href="main_8cpp.html#a0ddf1224851353fc92bfbff6f499fa97" target="_top" xlink:title="main">
<polygon fill="none" stroke="black" points="478.5,-38.5 478.5,-57.5 516.5,-57.5 516.5,-38.5 478.5,-38.5"/>
<text text-anchor="middle" x="497.5" y="-45.5" font-family="Helvetica,sans-Serif" font-size="10.00">main</text>
</a>
</g>
</g>
<!-- Node7&#45;&gt;Node8 -->
<g id="edge7" class="edge"><title>Node7&#45;&gt;Node8</title>
<path fill="none" stroke="midnightblue" d="M353.733,-48C392.774,-48 449.269,-48 478.087,-48"/>
<polygon fill="midnightblue" stroke="midnightblue" points="353.717,-44.5001 343.717,-48 353.717,-51.5001 353.717,-44.5001"/>
</g>
</g>
</svg>
