<?xml version="1.0" encoding="UTF-8" standalone="no"?>
<!DOCTYPE svg PUBLIC "-//W3C//DTD SVG 1.1//EN"
 "http://www.w3.org/Graphics/SVG/1.1/DTD/svg11.dtd">
<!-- Generated by graphviz version 2.38.0 (20140413.2041)
 -->
<!-- Title: File::splitPath Pages: 1 -->
<!--zoomable 142 -->
<svg id="main" version="1.1" xmlns="http://www.w3.org/2000/svg" xmlns:xlink="http://www.w3.org/1999/xlink" xml:space="preserve" onload="init(evt)">
<style type="text/css"><![CDATA[
.edge:hover path { stroke: red; }
.edge:hover polygon { stroke: red; fill: red; }
]]></style>
<script type="text/javascript"><![CDATA[
var edges = document.getElementsByTagName('g');
if (edges && edges.length) {
  for (var i=0;i<edges.length;i++) {
    if (edges[i].id.substr(0,4)=='edge') {
      edges[i].setAttribute('class','edge');
    }
  }
}
]]></script>
        <defs>
                <circle id="rim" cx="0" cy="0" r="7"/>
                <circle id="rim2" cx="0" cy="0" r="3.5"/>
                <g id="zoomPlus">
                        <use xlink:href="#rim" fill="#404040">
                                <set attributeName="fill" to="#808080" begin="zoomplus.mouseover" end="zoomplus.mouseout"/>
                        </use>
                        <path d="M-4,0h8M0,-4v8" fill="none" stroke="white" stroke-width="1.5" pointer-events="none"/>
                </g>
                <g id="zoomMin">
                        <use xlink:href="#rim" fill="#404040">
                                <set attributeName="fill" to="#808080" begin="zoomminus.mouseover" end="zoomminus.mouseout"/>
                        </use>
                        <path d="M-4,0h8" fill="none" stroke="white" stroke-width="1.5" pointer-events="none"/>
                </g>
                <g id="dirArrow">
                        <path fill="none" stroke="white" stroke-width="1.5" d="M0,-3.0v7 M-2.5,-0.5L0,-3.0L2.5,-0.5"/>
                </g>
               <g id="resetDef">
                       <use xlink:href="#rim2" fill="#404040">
                               <set attributeName="fill" to="#808080" begin="reset.mouseover" end="reset.mouseout"/>
                       </use>
               </g>
        </defs>

<script type="text/javascript">
var viewWidth = 653;
var viewHeight = 142;
var sectionId = 'dynsection-4';
</script>
<script xlink:href="svgpan.js"/>
<svg id="graph" class="graph">
<g id="viewport">
<title>File::splitPath</title>
<!-- Node1 -->
<g id="node1" class="node"><title>Node1</title>
<polygon fill="#bfbfbf" stroke="black" points="0,-57.5 0,-76.5 77,-76.5 77,-57.5 0,-57.5"/>
<text text-anchor="middle" x="38.5" y="-64.5" font-family="Helvetica,sans-Serif" font-size="10.00">File::splitPath</text>
</g>
<!-- Node2 -->
<g id="node2" class="node"><title>Node2</title>
<g id="a_node2"><a xlink:href="class_file.html#a7177a8eac75b0fc5425ebd65e16c2d6f" target="_top" xlink:title="The UI to select the file&#39;s path to open. ">
<polygon fill="none" stroke="black" points="113,-57.5 113,-76.5 233,-76.5 233,-57.5 113,-57.5"/>
<text text-anchor="middle" x="173" y="-64.5" font-family="Helvetica,sans-Serif" font-size="10.00">File::selectFilesToOpen</text>
</a>
</g>
</g>
<!-- Node1&#45;&gt;Node2 -->
<g id="edge1" class="edge"><title>Node1&#45;&gt;Node2</title>
<path fill="none" stroke="midnightblue" d="M87.3751,-67C95.687,-67 104.418,-67 112.985,-67"/>
<polygon fill="midnightblue" stroke="midnightblue" points="87.1148,-63.5001 77.1148,-67 87.1147,-70.5001 87.1148,-63.5001"/>
</g>
<!-- Node3 -->
<g id="node3" class="node"><title>Node3</title>
<g id="a_node3"><a xlink:href="class_loading.html#ae0c96193667418083fc4a8c6cc19d9db" target="_top" xlink:title="loadFileCSVTrack Get File of SHP track ">
<polygon fill="none" stroke="black" points="269,-114.5 269,-133.5 405,-133.5 405,-114.5 269,-114.5"/>
<text text-anchor="middle" x="337" y="-121.5" font-family="Helvetica,sans-Serif" font-size="10.00">Loading::loadFileCSVTrack</text>
</a>
</g>
</g>
<!-- Node2&#45;&gt;Node3 -->
<g id="edge2" class="edge"><title>Node2&#45;&gt;Node3</title>
<path fill="none" stroke="midnightblue" d="M205.36,-80.5003C223.729,-88.1668 247.479,-97.6664 269,-105 278.842,-108.354 289.633,-111.598 299.624,-114.429"/>
<polygon fill="midnightblue" stroke="midnightblue" points="206.596,-77.2232 196.021,-76.5677 203.879,-83.6745 206.596,-77.2232"/>
</g>
<!-- Node6 -->
<g id="node6" class="node"><title>Node6</title>
<g id="a_node6"><a xlink:href="class_loading.html#a9a01f3e328100b681f3f08192fc9b208" target="_top" xlink:title="loadFileSHPTrack Get File of CSV track ">
<polygon fill="none" stroke="black" points="269,-76.5 269,-95.5 405,-95.5 405,-76.5 269,-76.5"/>
<text text-anchor="middle" x="337" y="-83.5" font-family="Helvetica,sans-Serif" font-size="10.00">Loading::loadFileSHPTrack</text>
</a>
</g>
</g>
<!-- Node2&#45;&gt;Node6 -->
<g id="edge5" class="edge"><title>Node2&#45;&gt;Node6</title>
<path fill="none" stroke="midnightblue" d="M243.56,-75.1583C251.976,-76.1453 260.56,-77.1521 268.939,-78.1348"/>
<polygon fill="midnightblue" stroke="midnightblue" points="243.743,-71.6558 233.403,-73.967 242.927,-78.6081 243.743,-71.6558"/>
</g>
<!-- Node7 -->
<g id="node7" class="node"><title>Node7</title>
<g id="a_node7"><a xlink:href="class_loading.html#a84d718939a74cf1680ea3e2409324194" target="_top" xlink:title="loadFileGrid Get File of grid ">
<polygon fill="none" stroke="black" points="283,-38.5 283,-57.5 391,-57.5 391,-38.5 283,-38.5"/>
<text text-anchor="middle" x="337" y="-45.5" font-family="Helvetica,sans-Serif" font-size="10.00">Loading::loadFileGrid</text>
</a>
</g>
</g>
<!-- Node2&#45;&gt;Node7 -->
<g id="edge7" class="edge"><title>Node2&#45;&gt;Node7</title>
<path fill="none" stroke="midnightblue" d="M243.382,-58.8626C256.57,-57.3158 270.178,-55.7199 282.768,-54.2433"/>
<polygon fill="midnightblue" stroke="midnightblue" points="242.927,-55.3919 233.403,-60.033 243.743,-62.3442 242.927,-55.3919"/>
</g>
<!-- Node9 -->
<g id="node9" class="node"><title>Node9</title>
<g id="a_node9"><a xlink:href="main_8cpp.html#a78a67b17d4d189a7c0732ad1ac54912e" target="_top" xlink:title="dev_file">
<polygon fill="none" stroke="black" points="312,-0.5 312,-19.5 362,-19.5 362,-0.5 312,-0.5"/>
<text text-anchor="middle" x="337" y="-7.5" font-family="Helvetica,sans-Serif" font-size="10.00">dev_file</text>
</a>
</g>
</g>
<!-- Node2&#45;&gt;Node9 -->
<g id="edge10" class="edge"><title>Node2&#45;&gt;Node9</title>
<path fill="none" stroke="midnightblue" d="M205.36,-53.4997C223.729,-45.8332 247.479,-36.3336 269,-29 283.077,-24.2033 299.093,-19.6298 311.936,-16.1723"/>
<polygon fill="midnightblue" stroke="midnightblue" points="203.879,-50.3255 196.021,-57.4323 206.596,-56.7768 203.879,-50.3255"/>
</g>
<!-- Node4 -->
<g id="node4" class="node"><title>Node4</title>
<g id="a_node4"><a xlink:href="class_loading.html#ab603e821bd6b047fb04285e926974ff6" target="_top" xlink:title="track ">
<polygon fill="none" stroke="black" points="441,-76.5 441,-95.5 519,-95.5 519,-76.5 441,-76.5"/>
<text text-anchor="middle" x="480" y="-83.5" font-family="Helvetica,sans-Serif" font-size="10.00">Loading::track</text>
</a>
</g>
</g>
<!-- Node3&#45;&gt;Node4 -->
<g id="edge3" class="edge"><title>Node3&#45;&gt;Node4</title>
<path fill="none" stroke="midnightblue" d="M383.44,-111.754C402.875,-106.516 425.231,-100.491 443.431,-95.5859"/>
<polygon fill="midnightblue" stroke="midnightblue" points="382.325,-108.429 373.58,-114.411 384.147,-115.188 382.325,-108.429"/>
</g>
<!-- Node5 -->
<g id="node5" class="node"><title>Node5</title>
<g id="a_node5"><a xlink:href="class_loading.html#a7634c001ec052e10c402e49f5be030db" target="_top" xlink:title="Loading::Loading">
<polygon fill="none" stroke="black" points="555,-57.5 555,-76.5 645,-76.5 645,-57.5 555,-57.5"/>
<text text-anchor="middle" x="600" y="-64.5" font-family="Helvetica,sans-Serif" font-size="10.00">Loading::Loading</text>
</a>
</g>
</g>
<!-- Node4&#45;&gt;Node5 -->
<g id="edge4" class="edge"><title>Node4&#45;&gt;Node5</title>
<path fill="none" stroke="midnightblue" d="M529.358,-78.2135C537.755,-76.8614 546.45,-75.4615 554.731,-74.1281"/>
<polygon fill="midnightblue" stroke="midnightblue" points="528.628,-74.786 519.311,-79.8312 529.74,-81.697 528.628,-74.786"/>
</g>
<!-- Node6&#45;&gt;Node4 -->
<g id="edge6" class="edge"><title>Node6&#45;&gt;Node4</title>
<path fill="none" stroke="midnightblue" d="M415.204,-86C424.041,-86 432.736,-86 440.727,-86"/>
<polygon fill="midnightblue" stroke="midnightblue" points="415.196,-82.5001 405.196,-86 415.196,-89.5001 415.196,-82.5001"/>
</g>
<!-- Node8 -->
<g id="node8" class="node"><title>Node8</title>
<g id="a_node8"><a xlink:href="class_loading.html#afb0b2fe451bdc3f6f2cc186903df96b4" target="_top" xlink:title="grid ">
<polygon fill="none" stroke="black" points="444,-38.5 444,-57.5 516,-57.5 516,-38.5 444,-38.5"/>
<text text-anchor="middle" x="480" y="-45.5" font-family="Helvetica,sans-Serif" font-size="10.00">Loading::grid</text>
</a>
</g>
</g>
<!-- Node7&#45;&gt;Node8 -->
<g id="edge8" class="edge"><title>Node7&#45;&gt;Node8</title>
<path fill="none" stroke="midnightblue" d="M401.35,-48C415.998,-48 431.063,-48 443.979,-48"/>
<polygon fill="midnightblue" stroke="midnightblue" points="401.306,-44.5001 391.306,-48 401.306,-51.5001 401.306,-44.5001"/>
</g>
<!-- Node8&#45;&gt;Node5 -->
<g id="edge9" class="edge"><title>Node8&#45;&gt;Node5</title>
<path fill="none" stroke="midnightblue" d="M526.014,-55.248C535.39,-56.7577 545.266,-58.3479 554.619,-59.8539"/>
<polygon fill="midnightblue" stroke="midnightblue" points="526.514,-51.7835 516.084,-53.6492 525.401,-58.6945 526.514,-51.7835"/>
</g>
</g>
</svg>
        <g id="navigator" transform="translate(0 0)" fill="#404254">
                <rect fill="#f2f5e9" fill-opacity="0.5" stroke="#606060" stroke-width=".5" x="0" y="0" width="60" height="60"/>
                <use id="zoomplus" xlink:href="#zoomPlus" x="17" y="9" onmousedown="handleZoom(evt,'in')"/>
                <use id="zoomminus" xlink:href="#zoomMin" x="42" y="9" onmousedown="handleZoom(evt,'out')"/>
                <use id="reset" xlink:href="#resetDef" x="30" y="36" onmousedown="handleReset()"/>
                <g id="arrowUp" xlink:href="#dirArrow" transform="translate(30 24)" onmousedown="handlePan(0,-1)">
                  <use xlink:href="#rim" fill="#404040">
                        <set attributeName="fill" to="#808080" begin="arrowUp.mouseover" end="arrowUp.mouseout"/>
                  </use>
                  <path fill="none" stroke="white" stroke-width="1.5" d="M0,-3.0v7 M-2.5,-0.5L0,-3.0L2.5,-0.5"/>
                </g>
                <g id="arrowRight" xlink:href="#dirArrow" transform="rotate(90) translate(36 -43)" onmousedown="handlePan(1,0)">
                  <use xlink:href="#rim" fill="#404040">
                        <set attributeName="fill" to="#808080" begin="arrowRight.mouseover" end="arrowRight.mouseout"/>
                  </use>
                  <path fill="none" stroke="white" stroke-width="1.5" d="M0,-3.0v7 M-2.5,-0.5L0,-3.0L2.5,-0.5"/>
                </g>
                <g id="arrowDown" xlink:href="#dirArrow" transform="rotate(180) translate(-30 -48)" onmousedown="handlePan(0,1)">
                  <use xlink:href="#rim" fill="#404040">
                        <set attributeName="fill" to="#808080" begin="arrowDown.mouseover" end="arrowDown.mouseout"/>
                  </use>
                  <path fill="none" stroke="white" stroke-width="1.5" d="M0,-3.0v7 M-2.5,-0.5L0,-3.0L2.5,-0.5"/>
                </g>
                <g id="arrowLeft" xlink:href="#dirArrow" transform="rotate(270) translate(-36 17)" onmousedown="handlePan(-1,0)">
                  <use xlink:href="#rim" fill="#404040">
                        <set attributeName="fill" to="#808080" begin="arrowLeft.mouseover" end="arrowLeft.mouseout"/>
                  </use>
                  <path fill="none" stroke="white" stroke-width="1.5" d="M0,-3.0v7 M-2.5,-0.5L0,-3.0L2.5,-0.5"/>
                </g>
        </g>
        <svg viewBox="0 0 15 15" width="100%" height="30px" preserveAspectRatio="xMaxYMin meet">
         <g id="arrow_out" transform="scale(0.3 0.3)">
          <a xlink:href="class_file_ac464caa98a33cfe227111dd7cd5e77e1_icgraph_org.svg" target="_base">
           <rect id="button" ry="5" rx="5" y="6" x="6" height="38" width="38"
                fill="#f2f5e9" fill-opacity="0.5" stroke="#606060" stroke-width="1.0"/>
           <path id="arrow"
             d="M 11.500037,31.436501 C 11.940474,20.09759 22.043105,11.32322 32.158766,21.979434 L 37.068811,17.246167 C 37.068811,17.246167 37.088388,32 37.088388,32 L 22.160133,31.978069 C 22.160133,31.978069 26.997745,27.140456 26.997745,27.140456 C 18.528582,18.264221 13.291696,25.230495 11.500037,31.436501 z"
             style="fill:#404040;"/>
          </a>
         </g>
        </svg>
</svg>
