<?xml version="1.0" encoding="UTF-8" standalone="no"?>
<!DOCTYPE svg PUBLIC "-//W3C//DTD SVG 1.1//EN"
 "http://www.w3.org/Graphics/SVG/1.1/DTD/svg11.dtd">
<!-- Generated by graphviz version 2.38.0 (20140413.2041)
 -->
<!-- Title: Loading::track Pages: 1 -->
<svg width="527pt" height="104pt"
 viewBox="0.00 0.00 527.00 104.00" xmlns="http://www.w3.org/2000/svg" xmlns:xlink="http://www.w3.org/1999/xlink">
<g id="graph0" class="graph" transform="scale(1 1) rotate(0) translate(4 100)">
<title>Loading::track</title>
<!-- Node1 -->
<g id="node1" class="node"><title>Node1</title>
<polygon fill="#bfbfbf" stroke="black" points="0,-57.5 0,-76.5 78,-76.5 78,-57.5 0,-57.5"/>
<text text-anchor="middle" x="39" y="-64.5" font-family="Helvetica,sans-Serif" font-size="10.00">Loading::track</text>
</g>
<!-- Node2 -->
<g id="node2" class="node"><title>Node2</title>
<g id="a_node2"><a xlink:href="class_loading.html#ae0c96193667418083fc4a8c6cc19d9db" target="_top" xlink:title="loadFileCSVTrack Get File of SHP track ">
<polygon fill="none" stroke="black" points="114,-76.5 114,-95.5 250,-95.5 250,-76.5 114,-76.5"/>
<text text-anchor="middle" x="182" y="-83.5" font-family="Helvetica,sans-Serif" font-size="10.00">Loading::loadFileCSVTrack</text>
</a>
</g>
</g>
<!-- Node1&#45;&gt;Node2 -->
<g id="edge1" class="edge"><title>Node1&#45;&gt;Node2</title>
<path fill="none" stroke="midnightblue" d="M78.1566,-72.1417C86.1563,-73.2196 94.8654,-74.3932 103.718,-75.5862"/>
<polygon fill="midnightblue" stroke="midnightblue" points="103.367,-79.0704 113.745,-76.9372 104.302,-72.1331 103.367,-79.0704"/>
</g>
<!-- Node6 -->
<g id="node6" class="node"><title>Node6</title>
<g id="a_node6"><a xlink:href="class_loading.html#a9a01f3e328100b681f3f08192fc9b208" target="_top" xlink:title="loadFileSHPTrack Get File of CSV track ">
<polygon fill="none" stroke="black" points="114,-38.5 114,-57.5 250,-57.5 250,-38.5 114,-38.5"/>
<text text-anchor="middle" x="182" y="-45.5" font-family="Helvetica,sans-Serif" font-size="10.00">Loading::loadFileSHPTrack</text>
</a>
</g>
</g>
<!-- Node1&#45;&gt;Node6 -->
<g id="edge5" class="edge"><title>Node1&#45;&gt;Node6</title>
<path fill="none" stroke="midnightblue" d="M78.1566,-61.8583C86.1563,-60.7804 94.8654,-59.6068 103.718,-58.4138"/>
<polygon fill="midnightblue" stroke="midnightblue" points="104.302,-61.8669 113.745,-57.0628 103.367,-54.9296 104.302,-61.8669"/>
</g>
<!-- Node3 -->
<g id="node3" class="node"><title>Node3</title>
<g id="a_node3"><a xlink:href="class_file.html#a7177a8eac75b0fc5425ebd65e16c2d6f" target="_top" xlink:title="The UI to select the file&#39;s path to open. ">
<polygon fill="none" stroke="black" points="286,-38.5 286,-57.5 406,-57.5 406,-38.5 286,-38.5"/>
<text text-anchor="middle" x="346" y="-45.5" font-family="Helvetica,sans-Serif" font-size="10.00">File::selectFilesToOpen</text>
</a>
</g>
</g>
<!-- Node2&#45;&gt;Node3 -->
<g id="edge2" class="edge"><title>Node2&#45;&gt;Node3</title>
<path fill="none" stroke="midnightblue" d="M223.879,-76.411C245.353,-71.3739 271.86,-65.1562 294.597,-59.8229"/>
<polygon fill="midnightblue" stroke="midnightblue" points="295.478,-63.2113 304.415,-57.5201 293.879,-56.3963 295.478,-63.2113"/>
</g>
<!-- Node5 -->
<g id="node5" class="node"><title>Node5</title>
<g id="a_node5"><a xlink:href="class_loading.html#a1d3058f5f9c701a3bd7300ae985ff83a" target="_top" xlink:title="launchFiles ">
<polygon fill="none" stroke="black" points="293,-76.5 293,-95.5 399,-95.5 399,-76.5 293,-76.5"/>
<text text-anchor="middle" x="346" y="-83.5" font-family="Helvetica,sans-Serif" font-size="10.00">Loading::launchFiles</text>
</a>
</g>
</g>
<!-- Node2&#45;&gt;Node5 -->
<g id="edge4" class="edge"><title>Node2&#45;&gt;Node5</title>
<path fill="none" stroke="midnightblue" d="M250.295,-86C261.099,-86 272.238,-86 282.913,-86"/>
<polygon fill="midnightblue" stroke="midnightblue" points="282.98,-89.5001 292.98,-86 282.98,-82.5001 282.98,-89.5001"/>
</g>
<!-- Node4 -->
<g id="node4" class="node"><title>Node4</title>
<g id="a_node4"><a xlink:href="class_file.html#ac464caa98a33cfe227111dd7cd5e77e1" target="_top" xlink:title="The split function to split the path file to filePath, fileName, fileExtension attributes. ">
<polygon fill="none" stroke="black" points="442,-38.5 442,-57.5 519,-57.5 519,-38.5 442,-38.5"/>
<text text-anchor="middle" x="480.5" y="-45.5" font-family="Helvetica,sans-Serif" font-size="10.00">File::splitPath</text>
</a>
</g>
</g>
<!-- Node3&#45;&gt;Node4 -->
<g id="edge3" class="edge"><title>Node3&#45;&gt;Node4</title>
<path fill="none" stroke="midnightblue" d="M406.274,-48C414.801,-48 423.484,-48 431.749,-48"/>
<polygon fill="midnightblue" stroke="midnightblue" points="431.952,-51.5001 441.952,-48 431.952,-44.5001 431.952,-51.5001"/>
</g>
<!-- Node6&#45;&gt;Node3 -->
<g id="edge6" class="edge"><title>Node6&#45;&gt;Node3</title>
<path fill="none" stroke="midnightblue" d="M250.295,-48C258.7,-48 267.308,-48 275.743,-48"/>
<polygon fill="midnightblue" stroke="midnightblue" points="275.92,-51.5001 285.92,-48 275.92,-44.5001 275.92,-51.5001"/>
</g>
<!-- Node6&#45;&gt;Node5 -->
<g id="edge8" class="edge"><title>Node6&#45;&gt;Node5</title>
<path fill="none" stroke="midnightblue" d="M223.879,-57.589C245.353,-62.6261 271.86,-68.8438 294.597,-74.1771"/>
<polygon fill="midnightblue" stroke="midnightblue" points="293.879,-77.6037 304.415,-76.4799 295.478,-70.7887 293.879,-77.6037"/>
</g>
<!-- Node7 -->
<g id="node7" class="node"><title>Node7</title>
<g id="a_node7"><a xlink:href="class_file.html#a2cd702098066c4abde1c20ee708fa91f" target="_top" xlink:title="The function to convert WGS84 ShapeFile(s) to Lambert 93 CSV(s) ">
<polygon fill="none" stroke="black" points="308.5,-0.5 308.5,-19.5 383.5,-19.5 383.5,-0.5 308.5,-0.5"/>
<text text-anchor="middle" x="346" y="-7.5" font-family="Helvetica,sans-Serif" font-size="10.00">File::shp2csv</text>
</a>
</g>
</g>
<!-- Node6&#45;&gt;Node7 -->
<g id="edge7" class="edge"><title>Node6&#45;&gt;Node7</title>
<path fill="none" stroke="midnightblue" d="M223.879,-38.411C246.598,-33.082 274.95,-26.4315 298.51,-20.905"/>
<polygon fill="midnightblue" stroke="midnightblue" points="299.348,-24.3037 308.284,-18.6124 297.749,-17.4887 299.348,-24.3037"/>
</g>
</g>
</svg>
