<?xml version="1.0" encoding="UTF-8" standalone="no"?>
<!DOCTYPE svg PUBLIC "-//W3C//DTD SVG 1.1//EN"
 "http://www.w3.org/Graphics/SVG/1.1/DTD/svg11.dtd">
<!-- Generated by graphviz version 2.38.0 (20140413.2041)
 -->
<!-- Title: MainWindow::readyToNext1 Pages: 1 -->
<!--zoomable 598 -->
<svg id="main" version="1.1" xmlns="http://www.w3.org/2000/svg" xmlns:xlink="http://www.w3.org/1999/xlink" xml:space="preserve" onload="init(evt)">
<style type="text/css"><![CDATA[
.edge:hover path { stroke: red; }
.edge:hover polygon { stroke: red; fill: red; }
]]></style>
<script type="text/javascript"><![CDATA[
var edges = document.getElementsByTagName('g');
if (edges && edges.length) {
  for (var i=0;i<edges.length;i++) {
    if (edges[i].id.substr(0,4)=='edge') {
      edges[i].setAttribute('class','edge');
    }
  }
}
]]></script>
        <defs>
                <circle id="rim" cx="0" cy="0" r="7"/>
                <circle id="rim2" cx="0" cy="0" r="3.5"/>
                <g id="zoomPlus">
                        <use xlink:href="#rim" fill="#404040">
                                <set attributeName="fill" to="#808080" begin="zoomplus.mouseover" end="zoomplus.mouseout"/>
                        </use>
                        <path d="M-4,0h8M0,-4v8" fill="none" stroke="white" stroke-width="1.5" pointer-events="none"/>
                </g>
                <g id="zoomMin">
                        <use xlink:href="#rim" fill="#404040">
                                <set attributeName="fill" to="#808080" begin="zoomminus.mouseover" end="zoomminus.mouseout"/>
                        </use>
                        <path d="M-4,0h8" fill="none" stroke="white" stroke-width="1.5" pointer-events="none"/>
                </g>
                <g id="dirArrow">
                        <path fill="none" stroke="white" stroke-width="1.5" d="M0,-3.0v7 M-2.5,-0.5L0,-3.0L2.5,-0.5"/>
                </g>
               <g id="resetDef">
                       <use xlink:href="#rim2" fill="#404040">
                               <set attributeName="fill" to="#808080" begin="reset.mouseover" end="reset.mouseout"/>
                       </use>
               </g>
        </defs>

<script type="text/javascript">
var viewWidth = 730;
var viewHeight = 598;
var sectionId = 'dynsection-9';
</script>
<script xlink:href="svgpan.js"/>
<svg id="graph" class="graph">
<g id="viewport">
<title>MainWindow::readyToNext1</title>
<!-- Node1 -->
<g id="node1" class="node"><title>Node1</title>
<polygon fill="#bfbfbf" stroke="black" points="0,-361.5 0,-380.5 140,-380.5 140,-361.5 0,-361.5"/>
<text text-anchor="middle" x="70" y="-368.5" font-family="Helvetica,sans-Serif" font-size="10.00">MainWindow::readyToNext1</text>
</g>
<!-- Node2 -->
<g id="node2" class="node"><title>Node2</title>
<g id="a_node2"><a xlink:href="class_track.html#aff258a8c303ee8a09a962d237f3823e7" target="_top" xlink:title="Reads a csv file and inserts each point in m_points vector. ">
<polygon fill="none" stroke="black" points="177,-570.5 177,-589.5 287,-589.5 287,-570.5 177,-570.5"/>
<text text-anchor="middle" x="232" y="-577.5" font-family="Helvetica,sans-Serif" font-size="10.00">Track::readFromCSV</text>
</a>
</g>
</g>
<!-- Node1&#45;&gt;Node2 -->
<g id="edge1" class="edge"><title>Node1&#45;&gt;Node2</title>
<path fill="none" stroke="midnightblue" d="M74.0827,-380.874C83.991,-411.121 117.816,-503.613 176,-556 180.365,-559.93 185.474,-563.293 190.789,-566.148"/>
<polygon fill="midnightblue" stroke="midnightblue" points="189.301,-569.316 199.832,-570.484 192.328,-563.004 189.301,-569.316"/>
</g>
<!-- Node3 -->
<g id="node3" class="node"><title>Node3</title>
<g id="a_node3"><a xlink:href="class_grid.html#a19318437702e712955d0c4631c94cb04" target="_top" xlink:title="setZone Save data about our area of roads ">
<polygon fill="none" stroke="black" points="176,-456.5 176,-475.5 288,-475.5 288,-456.5 176,-456.5"/>
<text text-anchor="middle" x="232" y="-463.5" font-family="Helvetica,sans-Serif" font-size="10.00">Grid::setBoundingBox</text>
</a>
</g>
</g>
<!-- Node1&#45;&gt;Node3 -->
<g id="edge2" class="edge"><title>Node1&#45;&gt;Node3</title>
<path fill="none" stroke="midnightblue" d="M83.4525,-380.528C102.644,-394.953 140.911,-422.693 176,-442 182.652,-445.66 189.973,-449.181 197.045,-452.346"/>
<polygon fill="midnightblue" stroke="midnightblue" points="195.878,-455.655 206.445,-456.42 198.662,-449.232 195.878,-455.655"/>
</g>
<!-- Node4 -->
<g id="node4" class="node"><title>Node4</title>
<g id="a_node4"><a xlink:href="class_grid.html#a13d6d18b26d70ab5871a8c2ddf7fa1b5" target="_top" xlink:title="Grid::xMin">
<polygon fill="none" stroke="black" points="337,-456.5 337,-475.5 399,-475.5 399,-456.5 337,-456.5"/>
<text text-anchor="middle" x="368" y="-463.5" font-family="Helvetica,sans-Serif" font-size="10.00">Grid::xMin</text>
</a>
</g>
</g>
<!-- Node1&#45;&gt;Node4 -->
<g id="edge29" class="edge"><title>Node1&#45;&gt;Node4</title>
<path fill="none" stroke="midnightblue" d="M76.2056,-380.815C89.2628,-404.234 125.976,-463.065 176,-485 227.657,-507.651 294.504,-492.042 333.871,-478.865"/>
<polygon fill="midnightblue" stroke="midnightblue" points="335.21,-482.105 343.499,-475.506 332.904,-475.496 335.21,-482.105"/>
</g>
<!-- Node5 -->
<g id="node5" class="node"><title>Node5</title>
<g id="a_node5"><a xlink:href="class_grid.html#a5e140affdf9653d8badf596f1f151908" target="_top" xlink:title="Grid::xMax">
<polygon fill="none" stroke="black" points="335.5,-494.5 335.5,-513.5 400.5,-513.5 400.5,-494.5 335.5,-494.5"/>
<text text-anchor="middle" x="368" y="-501.5" font-family="Helvetica,sans-Serif" font-size="10.00">Grid::xMax</text>
</a>
</g>
</g>
<!-- Node1&#45;&gt;Node5 -->
<g id="edge28" class="edge"><title>Node1&#45;&gt;Node5</title>
<path fill="none" stroke="midnightblue" d="M75.0447,-380.834C86.3699,-406.875 121.199,-477.443 176,-504 223.216,-526.881 285.03,-521.478 325.361,-514.013"/>
<polygon fill="midnightblue" stroke="midnightblue" points="326.248,-517.405 335.381,-512.034 324.892,-510.538 326.248,-517.405"/>
</g>
<!-- Node6 -->
<g id="node6" class="node"><title>Node6</title>
<g id="a_node6"><a xlink:href="class_grid.html#a6acf01d876905d8709f4fb8ebe18aa94" target="_top" xlink:title="Grid::yMin">
<polygon fill="none" stroke="black" points="337,-418.5 337,-437.5 399,-437.5 399,-418.5 337,-418.5"/>
<text text-anchor="middle" x="368" y="-425.5" font-family="Helvetica,sans-Serif" font-size="10.00">Grid::yMin</text>
</a>
</g>
</g>
<!-- Node1&#45;&gt;Node6 -->
<g id="edge31" class="edge"><title>Node1&#45;&gt;Node6</title>
<path fill="none" stroke="midnightblue" d="M110.283,-380.505C129.96,-385.131 154.182,-390.625 176,-395 227.722,-405.372 287.72,-415.415 326.464,-421.643"/>
<polygon fill="midnightblue" stroke="midnightblue" points="326.376,-425.174 336.804,-423.296 327.481,-418.261 326.376,-425.174"/>
</g>
<!-- Node7 -->
<g id="node7" class="node"><title>Node7</title>
<g id="a_node7"><a xlink:href="class_grid.html#abfa1a601742ca69a5ecc3b6a5318d7a8" target="_top" xlink:title="Grid::yMax">
<polygon fill="none" stroke="black" points="335.5,-380.5 335.5,-399.5 400.5,-399.5 400.5,-380.5 335.5,-380.5"/>
<text text-anchor="middle" x="368" y="-387.5" font-family="Helvetica,sans-Serif" font-size="10.00">Grid::yMax</text>
</a>
</g>
</g>
<!-- Node1&#45;&gt;Node7 -->
<g id="edge30" class="edge"><title>Node1&#45;&gt;Node7</title>
<path fill="none" stroke="midnightblue" d="M140.025,-375.431C197.321,-379.108 276.948,-384.22 325.064,-387.308"/>
<polygon fill="midnightblue" stroke="midnightblue" points="324.921,-390.806 335.125,-387.954 325.37,-383.821 324.921,-390.806"/>
</g>
<!-- Node8 -->
<g id="node8" class="node"><title>Node8</title>
<g id="a_node8"><a xlink:href="class_grid.html#ae848f1c59c544adc1af9133409ee0106" target="_top" xlink:title="readFromCSV Reads a csv file and inserts info into the corresponding attributs ">
<polygon fill="none" stroke="black" points="180.5,-152.5 180.5,-171.5 283.5,-171.5 283.5,-152.5 180.5,-152.5"/>
<text text-anchor="middle" x="232" y="-159.5" font-family="Helvetica,sans-Serif" font-size="10.00">Grid::readFromCSV</text>
</a>
</g>
</g>
<!-- Node1&#45;&gt;Node8 -->
<g id="edge7" class="edge"><title>Node1&#45;&gt;Node8</title>
<path fill="none" stroke="midnightblue" d="M74.0827,-361.126C83.991,-330.879 117.816,-238.387 176,-186 180.365,-182.07 185.474,-178.707 190.789,-175.852"/>
<polygon fill="midnightblue" stroke="midnightblue" points="192.328,-178.996 199.832,-171.516 189.301,-172.684 192.328,-178.996"/>
</g>
<!-- Node19 -->
<g id="node19" class="node"><title>Node19</title>
<g id="a_node19"><a xlink:href="class_grid.html#a8d8b7fa0ee20d81f130a46d80fc2a018" target="_top" xlink:title="trackInGrid ">
<polygon fill="none" stroke="black" points="187.5,-342.5 187.5,-361.5 276.5,-361.5 276.5,-342.5 187.5,-342.5"/>
<text text-anchor="middle" x="232" y="-349.5" font-family="Helvetica,sans-Serif" font-size="10.00">Grid::trackInGrid</text>
</a>
</g>
</g>
<!-- Node1&#45;&gt;Node19 -->
<g id="edge19" class="edge"><title>Node1&#45;&gt;Node19</title>
<path fill="none" stroke="midnightblue" d="M140.248,-362.777C152.528,-361.319 165.153,-359.819 176.936,-358.42"/>
<polygon fill="midnightblue" stroke="midnightblue" points="177.527,-361.875 187.045,-357.22 176.702,-354.923 177.527,-361.875"/>
</g>
<!-- Node20 -->
<g id="node20" class="node"><title>Node20</title>
<g id="a_node20"><a xlink:href="class_grid.html#aa96eed7a551f45aeee1068a289bd2a7b" target="_top" xlink:title="Grid::xMinGrid">
<polygon fill="none" stroke="black" points="328,-342.5 328,-361.5 408,-361.5 408,-342.5 328,-342.5"/>
<text text-anchor="middle" x="368" y="-349.5" font-family="Helvetica,sans-Serif" font-size="10.00">Grid::xMinGrid</text>
</a>
</g>
</g>
<!-- Node1&#45;&gt;Node20 -->
<g id="edge33" class="edge"><title>Node1&#45;&gt;Node20</title>
<path fill="none" stroke="midnightblue" d="M90.9464,-361.412C111.653,-352.032 145.257,-338.392 176,-333 225.029,-324.401 238.568,-327.139 288,-333 300.257,-334.453 313.365,-337.133 325.309,-340.03"/>
<polygon fill="midnightblue" stroke="midnightblue" points="324.471,-343.429 335.025,-342.494 326.192,-336.643 324.471,-343.429"/>
</g>
<!-- Node21 -->
<g id="node21" class="node"><title>Node21</title>
<g id="a_node21"><a xlink:href="class_grid.html#aa3dd1e75998e6214c3ef33cdc5e02204" target="_top" xlink:title="Grid::xMaxGrid">
<polygon fill="none" stroke="black" points="326.5,-304.5 326.5,-323.5 409.5,-323.5 409.5,-304.5 326.5,-304.5"/>
<text text-anchor="middle" x="368" y="-311.5" font-family="Helvetica,sans-Serif" font-size="10.00">Grid::xMaxGrid</text>
</a>
</g>
</g>
<!-- Node1&#45;&gt;Node21 -->
<g id="edge32" class="edge"><title>Node1&#45;&gt;Node21</title>
<path fill="none" stroke="midnightblue" d="M87.0237,-361.311C107.032,-349.781 142.691,-331.078 176,-323 222.643,-311.688 277.523,-310.282 316.458,-311.202"/>
<polygon fill="midnightblue" stroke="midnightblue" points="316.398,-314.702 326.497,-311.499 316.605,-307.705 316.398,-314.702"/>
</g>
<!-- Node22 -->
<g id="node22" class="node"><title>Node22</title>
<g id="a_node22"><a xlink:href="class_grid.html#afa95de5fff735d1121572075a872121c" target="_top" xlink:title="Grid::yMinGrid">
<polygon fill="none" stroke="black" points="328,-266.5 328,-285.5 408,-285.5 408,-266.5 328,-266.5"/>
<text text-anchor="middle" x="368" y="-273.5" font-family="Helvetica,sans-Serif" font-size="10.00">Grid::yMinGrid</text>
</a>
</g>
</g>
<!-- Node1&#45;&gt;Node22 -->
<g id="edge35" class="edge"><title>Node1&#45;&gt;Node22</title>
<path fill="none" stroke="midnightblue" d="M83.1131,-361.426C101.861,-347.137 139.557,-320.474 176,-307 222.279,-289.889 278.325,-282.208 317.698,-278.769"/>
<polygon fill="midnightblue" stroke="midnightblue" points="318.151,-282.244 327.835,-277.945 317.584,-275.267 318.151,-282.244"/>
</g>
<!-- Node23 -->
<g id="node23" class="node"><title>Node23</title>
<g id="a_node23"><a xlink:href="class_grid.html#a97ee4a72430770462f5e2ba140f2ca65" target="_top" xlink:title="Grid::yMaxGrid">
<polygon fill="none" stroke="black" points="326.5,-228.5 326.5,-247.5 409.5,-247.5 409.5,-228.5 326.5,-228.5"/>
<text text-anchor="middle" x="368" y="-235.5" font-family="Helvetica,sans-Serif" font-size="10.00">Grid::yMaxGrid</text>
</a>
</g>
</g>
<!-- Node1&#45;&gt;Node23 -->
<g id="edge34" class="edge"><title>Node1&#45;&gt;Node23</title>
<path fill="none" stroke="midnightblue" d="M78.539,-361.479C94.3668,-342.197 133.154,-298.538 176,-277 220.229,-254.767 276.269,-245.208 316.184,-241.099"/>
<polygon fill="midnightblue" stroke="midnightblue" points="316.599,-244.575 326.223,-240.145 315.937,-237.607 316.599,-244.575"/>
</g>
<!-- Node3&#45;&gt;Node4 -->
<g id="edge3" class="edge"><title>Node3&#45;&gt;Node4</title>
<path fill="none" stroke="midnightblue" d="M288.277,-466C301.101,-466 314.518,-466 326.566,-466"/>
<polygon fill="midnightblue" stroke="midnightblue" points="326.753,-469.5 336.753,-466 326.753,-462.5 326.753,-469.5"/>
</g>
<!-- Node3&#45;&gt;Node5 -->
<g id="edge4" class="edge"><title>Node3&#45;&gt;Node5</title>
<path fill="none" stroke="midnightblue" d="M266.814,-475.589C284.69,-480.658 306.782,-486.923 325.669,-492.279"/>
<polygon fill="midnightblue" stroke="midnightblue" points="324.923,-495.706 335.498,-495.067 326.833,-488.971 324.923,-495.706"/>
</g>
<!-- Node3&#45;&gt;Node6 -->
<g id="edge5" class="edge"><title>Node3&#45;&gt;Node6</title>
<path fill="none" stroke="midnightblue" d="M266.814,-456.411C285.168,-451.206 307.968,-444.74 327.179,-439.293"/>
<polygon fill="midnightblue" stroke="midnightblue" points="328.189,-442.644 336.855,-436.549 326.279,-435.91 328.189,-442.644"/>
</g>
<!-- Node3&#45;&gt;Node7 -->
<g id="edge6" class="edge"><title>Node3&#45;&gt;Node7</title>
<path fill="none" stroke="midnightblue" d="M246.815,-456.471C264.333,-444.593 295.676,-424.029 324,-409 327.294,-407.252 330.782,-405.523 334.289,-403.862"/>
<polygon fill="midnightblue" stroke="midnightblue" points="335.858,-406.993 343.5,-399.656 332.95,-400.626 335.858,-406.993"/>
</g>
<!-- Node9 -->
<g id="node9" class="node"><title>Node9</title>
<g id="a_node9"><a xlink:href="class_grid.html#a6b6af4fb2545b398b47794de576f15f5" target="_top" xlink:title="inFootPrint Test if a point is in the defined area of a track ">
<polygon fill="none" stroke="black" points="324,-190.5 324,-209.5 412,-209.5 412,-190.5 324,-190.5"/>
<text text-anchor="middle" x="368" y="-197.5" font-family="Helvetica,sans-Serif" font-size="10.00">Grid::inFootPrint</text>
</a>
</g>
</g>
<!-- Node8&#45;&gt;Node9 -->
<g id="edge8" class="edge"><title>Node8&#45;&gt;Node9</title>
<path fill="none" stroke="midnightblue" d="M266.814,-171.589C284.033,-176.472 305.164,-182.464 323.573,-187.685"/>
<polygon fill="midnightblue" stroke="midnightblue" points="322.621,-191.053 333.197,-190.414 324.531,-184.319 322.621,-191.053"/>
</g>
<!-- Node10 -->
<g id="node10" class="node"><title>Node10</title>
<g id="a_node10"><a xlink:href="class_grid.html#a58233ab60f7477144af334f205606aa4" target="_top" xlink:title="updateGrid Find max and min of the grid ">
<polygon fill="none" stroke="black" points="324,-152.5 324,-171.5 412,-171.5 412,-152.5 324,-152.5"/>
<text text-anchor="middle" x="368" y="-159.5" font-family="Helvetica,sans-Serif" font-size="10.00">Grid::updateGrid</text>
</a>
</g>
</g>
<!-- Node8&#45;&gt;Node10 -->
<g id="edge9" class="edge"><title>Node8&#45;&gt;Node10</title>
<path fill="none" stroke="midnightblue" d="M283.66,-162C293.451,-162 303.738,-162 313.613,-162"/>
<polygon fill="midnightblue" stroke="midnightblue" points="313.717,-165.5 323.717,-162 313.717,-158.5 313.717,-165.5"/>
</g>
<!-- Node11 -->
<g id="node11" class="node"><title>Node11</title>
<g id="a_node11"><a xlink:href="class_grid.html#aba1830bc145f128d6deeed29cfb94c9f" target="_top" xlink:title="addRoad Creates a new road and inserts it in m_road ">
<polygon fill="none" stroke="black" points="328,-114.5 328,-133.5 408,-133.5 408,-114.5 328,-114.5"/>
<text text-anchor="middle" x="368" y="-121.5" font-family="Helvetica,sans-Serif" font-size="10.00">Grid::addRoad</text>
</a>
</g>
</g>
<!-- Node8&#45;&gt;Node11 -->
<g id="edge10" class="edge"><title>Node8&#45;&gt;Node11</title>
<path fill="none" stroke="midnightblue" d="M266.814,-152.411C284.033,-147.528 305.164,-141.536 323.573,-136.315"/>
<polygon fill="midnightblue" stroke="midnightblue" points="324.531,-139.681 333.197,-133.586 322.621,-132.947 324.531,-139.681"/>
</g>
<!-- Node12 -->
<g id="node12" class="node"><title>Node12</title>
<g id="a_node12"><a xlink:href="class_point_road.html#aa1b90c3fdf8ae7a1fcd8ce6182d13287" target="_top" xlink:title="PointRoad::outputInfos">
<polygon fill="none" stroke="black" points="470.5,-228.5 470.5,-247.5 587.5,-247.5 587.5,-228.5 470.5,-228.5"/>
<text text-anchor="middle" x="529" y="-235.5" font-family="Helvetica,sans-Serif" font-size="10.00">PointRoad::outputInfos</text>
</a>
</g>
</g>
<!-- Node11&#45;&gt;Node12 -->
<g id="edge11" class="edge"><title>Node11&#45;&gt;Node12</title>
<path fill="none" stroke="midnightblue" d="M398.523,-133.652C403.414,-136.158 408.141,-139.242 412,-143 438.774,-169.079 418.957,-195.475 448,-219 451.988,-222.23 456.434,-224.928 461.131,-227.179"/>
<polygon fill="midnightblue" stroke="midnightblue" points="459.836,-230.431 470.416,-230.98 462.487,-223.953 459.836,-230.431"/>
</g>
<!-- Node13 -->
<g id="node13" class="node"><title>Node13</title>
<g id="a_node13"><a xlink:href="class_point_road.html#ab53ccb3c883bdfd27c707901c5c658c8" target="_top" xlink:title="PointRoad::updateBelongToRoad">
<polygon fill="none" stroke="black" points="448,-190.5 448,-209.5 610,-209.5 610,-190.5 448,-190.5"/>
<text text-anchor="middle" x="529" y="-197.5" font-family="Helvetica,sans-Serif" font-size="10.00">PointRoad::updateBelongToRoad</text>
</a>
</g>
</g>
<!-- Node11&#45;&gt;Node13 -->
<g id="edge12" class="edge"><title>Node11&#45;&gt;Node13</title>
<path fill="none" stroke="midnightblue" d="M395.363,-133.668C401.082,-136.298 406.931,-139.425 412,-143 431.012,-156.408 427.843,-169.384 448,-181 451.861,-183.225 455.97,-185.19 460.21,-186.925"/>
<polygon fill="midnightblue" stroke="midnightblue" points="459.058,-190.231 469.652,-190.369 461.457,-183.655 459.058,-190.231"/>
</g>
<!-- Node14 -->
<g id="node14" class="node"><title>Node14</title>
<g id="a_node14"><a xlink:href="class_point_road.html#a998665db2d7e4fc4935ef95df092ff2b" target="_top" xlink:title="PointRoad::setid">
<polygon fill="none" stroke="black" points="484.5,-152.5 484.5,-171.5 573.5,-171.5 573.5,-152.5 484.5,-152.5"/>
<text text-anchor="middle" x="529" y="-159.5" font-family="Helvetica,sans-Serif" font-size="10.00">PointRoad::setid</text>
</a>
</g>
</g>
<!-- Node11&#45;&gt;Node14 -->
<g id="edge13" class="edge"><title>Node11&#45;&gt;Node14</title>
<path fill="none" stroke="midnightblue" d="M408.303,-133.393C429.452,-138.448 455.75,-144.733 478.306,-150.123"/>
<polygon fill="midnightblue" stroke="midnightblue" points="477.505,-153.53 488.044,-152.451 479.132,-146.722 477.505,-153.53"/>
</g>
<!-- Node15 -->
<g id="node15" class="node"><title>Node15</title>
<g id="a_node15"><a xlink:href="class_point_road.html#a81372f2c2c0fe1084fa2397289518124" target="_top" xlink:title="PointRoad::id">
<polygon fill="none" stroke="black" points="646,-133.5 646,-152.5 722,-152.5 722,-133.5 646,-133.5"/>
<text text-anchor="middle" x="684" y="-140.5" font-family="Helvetica,sans-Serif" font-size="10.00">PointRoad::id</text>
</a>
</g>
</g>
<!-- Node11&#45;&gt;Node15 -->
<g id="edge16" class="edge"><title>Node11&#45;&gt;Node15</title>
<path fill="none" stroke="midnightblue" d="M408.133,-126.368C465.791,-129.857 573.427,-136.37 635.52,-140.127"/>
<polygon fill="midnightblue" stroke="midnightblue" points="635.628,-143.64 645.821,-140.75 636.051,-136.653 635.628,-143.64"/>
</g>
<!-- Node16 -->
<g id="node16" class="node"><title>Node16</title>
<g id="a_node16"><a xlink:href="class_point_road.html#ae83941b37b026758fdd7974b4b186fbc" target="_top" xlink:title="PointRoad::isNode">
<polygon fill="none" stroke="black" points="479.5,-76.5 479.5,-95.5 578.5,-95.5 578.5,-76.5 479.5,-76.5"/>
<text text-anchor="middle" x="529" y="-83.5" font-family="Helvetica,sans-Serif" font-size="10.00">PointRoad::isNode</text>
</a>
</g>
</g>
<!-- Node11&#45;&gt;Node16 -->
<g id="edge15" class="edge"><title>Node11&#45;&gt;Node16</title>
<path fill="none" stroke="midnightblue" d="M408.303,-114.607C429.452,-109.552 455.75,-103.267 478.306,-97.8766"/>
<polygon fill="midnightblue" stroke="midnightblue" points="479.132,-101.278 488.044,-95.5491 477.505,-94.4696 479.132,-101.278"/>
</g>
<!-- Node17 -->
<g id="node17" class="node"><title>Node17</title>
<g id="a_node17"><a xlink:href="class_road.html#a7f97b4f20c598103baad510b19a0c0b5" target="_top" xlink:title="addPoint ">
<polygon fill="none" stroke="black" points="487,-38.5 487,-57.5 571,-57.5 571,-38.5 487,-38.5"/>
<text text-anchor="middle" x="529" y="-45.5" font-family="Helvetica,sans-Serif" font-size="10.00">Road::addPoint</text>
</a>
</g>
</g>
<!-- Node11&#45;&gt;Node17 -->
<g id="edge17" class="edge"><title>Node11&#45;&gt;Node17</title>
<path fill="none" stroke="midnightblue" d="M379.393,-114.408C393.743,-101.682 420.932,-79.3843 448,-67 457.054,-62.8574 467.113,-59.5617 476.958,-56.9589"/>
<polygon fill="midnightblue" stroke="midnightblue" points="477.802,-60.3557 486.685,-54.5815 476.14,-53.5558 477.802,-60.3557"/>
</g>
<!-- Node18 -->
<g id="node18" class="node"><title>Node18</title>
<g id="a_node18"><a xlink:href="class_road.html#ad6715392969e36eb10efac542519755c" target="_top" xlink:title="edgeId ">
<polygon fill="none" stroke="black" points="491.5,-0.5 491.5,-19.5 566.5,-19.5 566.5,-0.5 491.5,-0.5"/>
<text text-anchor="middle" x="529" y="-7.5" font-family="Helvetica,sans-Serif" font-size="10.00">Road::edgeId</text>
</a>
</g>
</g>
<!-- Node11&#45;&gt;Node18 -->
<g id="edge18" class="edge"><title>Node11&#45;&gt;Node18</title>
<path fill="none" stroke="midnightblue" d="M374.097,-114.442C384.943,-95.0744 412.27,-51.1593 448,-29 458.04,-22.7734 469.949,-18.587 481.469,-15.7724"/>
<polygon fill="midnightblue" stroke="midnightblue" points="482.393,-19.154 491.437,-13.6353 480.925,-12.3096 482.393,-19.154"/>
</g>
<!-- Node14&#45;&gt;Node15 -->
<g id="edge14" class="edge"><title>Node14&#45;&gt;Node15</title>
<path fill="none" stroke="midnightblue" d="M573.844,-156.555C593.244,-154.146 616.094,-151.309 635.861,-148.854"/>
<polygon fill="midnightblue" stroke="midnightblue" points="636.39,-152.315 645.882,-147.609 635.527,-145.369 636.39,-152.315"/>
</g>
<!-- Node19&#45;&gt;Node4 -->
<g id="edge20" class="edge"><title>Node19&#45;&gt;Node4</title>
<path fill="none" stroke="midnightblue" d="M240.044,-361.542C254.168,-380.123 287.721,-421.564 324,-447 326.381,-448.669 328.932,-450.242 331.559,-451.712"/>
<polygon fill="midnightblue" stroke="midnightblue" points="330.149,-454.921 340.652,-456.311 333.308,-448.674 330.149,-454.921"/>
</g>
<!-- Node19&#45;&gt;Node5 -->
<g id="edge22" class="edge"><title>Node19&#45;&gt;Node5</title>
<path fill="none" stroke="midnightblue" d="M237.305,-361.718C248.382,-385.724 280.105,-448.52 324,-485 325.977,-486.643 328.119,-488.17 330.355,-489.583"/>
<polygon fill="midnightblue" stroke="midnightblue" points="328.844,-492.746 339.295,-494.484 332.209,-486.608 328.844,-492.746"/>
</g>
<!-- Node19&#45;&gt;Node6 -->
<g id="edge24" class="edge"><title>Node19&#45;&gt;Node6</title>
<path fill="none" stroke="midnightblue" d="M246.815,-361.529C264.333,-373.407 295.676,-393.971 324,-409 327.294,-410.748 330.782,-412.477 334.289,-414.138"/>
<polygon fill="midnightblue" stroke="midnightblue" points="332.95,-417.374 343.5,-418.344 335.858,-411.007 332.95,-417.374"/>
</g>
<!-- Node19&#45;&gt;Node7 -->
<g id="edge26" class="edge"><title>Node19&#45;&gt;Node7</title>
<path fill="none" stroke="midnightblue" d="M266.814,-361.589C284.69,-366.658 306.782,-372.923 325.669,-378.279"/>
<polygon fill="midnightblue" stroke="midnightblue" points="324.923,-381.706 335.498,-381.067 326.833,-374.971 324.923,-381.706"/>
</g>
<!-- Node19&#45;&gt;Node20 -->
<g id="edge21" class="edge"><title>Node19&#45;&gt;Node20</title>
<path fill="none" stroke="midnightblue" d="M276.506,-352C289.66,-352 304.197,-352 317.701,-352"/>
<polygon fill="midnightblue" stroke="midnightblue" points="317.786,-355.5 327.786,-352 317.786,-348.5 317.786,-355.5"/>
</g>
<!-- Node19&#45;&gt;Node21 -->
<g id="edge23" class="edge"><title>Node19&#45;&gt;Node21</title>
<path fill="none" stroke="midnightblue" d="M266.814,-342.411C284.033,-337.528 305.164,-331.536 323.573,-326.315"/>
<polygon fill="midnightblue" stroke="midnightblue" points="324.531,-329.681 333.197,-323.586 322.621,-322.947 324.531,-329.681"/>
</g>
<!-- Node19&#45;&gt;Node22 -->
<g id="edge25" class="edge"><title>Node19&#45;&gt;Node22</title>
<path fill="none" stroke="midnightblue" d="M246.815,-342.471C264.333,-330.593 295.676,-310.029 324,-295 327.294,-293.252 330.782,-291.523 334.289,-289.862"/>
<polygon fill="midnightblue" stroke="midnightblue" points="335.858,-292.993 343.5,-285.656 332.95,-286.626 335.858,-292.993"/>
</g>
<!-- Node19&#45;&gt;Node23 -->
<g id="edge27" class="edge"><title>Node19&#45;&gt;Node23</title>
<path fill="none" stroke="midnightblue" d="M240.044,-342.458C254.168,-323.877 287.721,-282.436 324,-257 326.381,-255.331 328.932,-253.758 331.559,-252.288"/>
<polygon fill="midnightblue" stroke="midnightblue" points="333.308,-255.326 340.652,-247.689 330.149,-249.079 333.308,-255.326"/>
</g>
</g>
</svg>
        <g id="navigator" transform="translate(0 0)" fill="#404254">
                <rect fill="#f2f5e9" fill-opacity="0.5" stroke="#606060" stroke-width=".5" x="0" y="0" width="60" height="60"/>
                <use id="zoomplus" xlink:href="#zoomPlus" x="17" y="9" onmousedown="handleZoom(evt,'in')"/>
                <use id="zoomminus" xlink:href="#zoomMin" x="42" y="9" onmousedown="handleZoom(evt,'out')"/>
                <use id="reset" xlink:href="#resetDef" x="30" y="36" onmousedown="handleReset()"/>
                <g id="arrowUp" xlink:href="#dirArrow" transform="translate(30 24)" onmousedown="handlePan(0,-1)">
                  <use xlink:href="#rim" fill="#404040">
                        <set attributeName="fill" to="#808080" begin="arrowUp.mouseover" end="arrowUp.mouseout"/>
                  </use>
                  <path fill="none" stroke="white" stroke-width="1.5" d="M0,-3.0v7 M-2.5,-0.5L0,-3.0L2.5,-0.5"/>
                </g>
                <g id="arrowRight" xlink:href="#dirArrow" transform="rotate(90) translate(36 -43)" onmousedown="handlePan(1,0)">
                  <use xlink:href="#rim" fill="#404040">
                        <set attributeName="fill" to="#808080" begin="arrowRight.mouseover" end="arrowRight.mouseout"/>
                  </use>
                  <path fill="none" stroke="white" stroke-width="1.5" d="M0,-3.0v7 M-2.5,-0.5L0,-3.0L2.5,-0.5"/>
                </g>
                <g id="arrowDown" xlink:href="#dirArrow" transform="rotate(180) translate(-30 -48)" onmousedown="handlePan(0,1)">
                  <use xlink:href="#rim" fill="#404040">
                        <set attributeName="fill" to="#808080" begin="arrowDown.mouseover" end="arrowDown.mouseout"/>
                  </use>
                  <path fill="none" stroke="white" stroke-width="1.5" d="M0,-3.0v7 M-2.5,-0.5L0,-3.0L2.5,-0.5"/>
                </g>
                <g id="arrowLeft" xlink:href="#dirArrow" transform="rotate(270) translate(-36 17)" onmousedown="handlePan(-1,0)">
                  <use xlink:href="#rim" fill="#404040">
                        <set attributeName="fill" to="#808080" begin="arrowLeft.mouseover" end="arrowLeft.mouseout"/>
                  </use>
                  <path fill="none" stroke="white" stroke-width="1.5" d="M0,-3.0v7 M-2.5,-0.5L0,-3.0L2.5,-0.5"/>
                </g>
        </g>
        <svg viewBox="0 0 15 15" width="100%" height="30px" preserveAspectRatio="xMaxYMin meet">
         <g id="arrow_out" transform="scale(0.3 0.3)">
          <a xlink:href="class_main_window_ad39bbe8ced0d3248206ac0ca6c444d55_cgraph_org.svg" target="_base">
           <rect id="button" ry="5" rx="5" y="6" x="6" height="38" width="38"
                fill="#f2f5e9" fill-opacity="0.5" stroke="#606060" stroke-width="1.0"/>
           <path id="arrow"
             d="M 11.500037,31.436501 C 11.940474,20.09759 22.043105,11.32322 32.158766,21.979434 L 37.068811,17.246167 C 37.068811,17.246167 37.088388,32 37.088388,32 L 22.160133,31.978069 C 22.160133,31.978069 26.997745,27.140456 26.997745,27.140456 C 18.528582,18.264221 13.291696,25.230495 11.500037,31.436501 z"
             style="fill:#404040;"/>
          </a>
         </g>
        </svg>
</svg>
