<?xml version="1.0" encoding="UTF-8" standalone="no"?>
<!DOCTYPE svg PUBLIC "-//W3C//DTD SVG 1.1//EN"
 "http://www.w3.org/Graphics/SVG/1.1/DTD/svg11.dtd">
<!-- Generated by graphviz version 2.38.0 (20140413.2041)
 -->
<!-- Title: Solver Pages: 1 -->
<svg width="420pt" height="733pt"
 viewBox="0.00 0.00 420.00 733.00" xmlns="http://www.w3.org/2000/svg" xmlns:xlink="http://www.w3.org/1999/xlink">
<g id="graph0" class="graph" transform="scale(1 1) rotate(0) translate(4 729)">
<title>Solver</title>
<!-- Node1 -->
<g id="node1" class="node"><title>Node1</title>
<polygon fill="#bfbfbf" stroke="black" points="213.5,-0.5 213.5,-79.5 297.5,-79.5 297.5,-0.5 213.5,-0.5"/>
<text text-anchor="middle" x="255.5" y="-67.5" font-family="Helvetica,sans-Serif" font-size="10.00">Solver</text>
<polyline fill="none" stroke="black" points="213.5,-60.5 297.5,-60.5 "/>
<text text-anchor="middle" x="255.5" y="-48.5" font-family="Helvetica,sans-Serif" font-size="10.00"> </text>
<polyline fill="none" stroke="black" points="213.5,-41.5 297.5,-41.5 "/>
<text text-anchor="start" x="221.5" y="-29.5" font-family="Helvetica,sans-Serif" font-size="10.00">+ initialize()</text>
<text text-anchor="start" x="221.5" y="-18.5" font-family="Helvetica,sans-Serif" font-size="10.00">+ setDistance()</text>
<text text-anchor="start" x="221.5" y="-7.5" font-family="Helvetica,sans-Serif" font-size="10.00">+ Solver()</text>
</g>
<!-- Node2 -->
<g id="node2" class="node"><title>Node2</title>
<polygon fill="none" stroke="#bfbfbf" points="59,-133 59,-190 186,-190 186,-133 59,-133"/>
<text text-anchor="middle" x="122.5" y="-178" font-family="Helvetica,sans-Serif" font-size="10.00">std::vector&lt; PointRoad &gt;</text>
<polyline fill="none" stroke="#bfbfbf" points="59,-171 186,-171 "/>
<text text-anchor="middle" x="122.5" y="-159" font-family="Helvetica,sans-Serif" font-size="10.00"> </text>
<polyline fill="none" stroke="#bfbfbf" points="59,-152 186,-152 "/>
<text text-anchor="middle" x="122.5" y="-140" font-family="Helvetica,sans-Serif" font-size="10.00"> </text>
</g>
<!-- Node2&#45;&gt;Node1 -->
<g id="edge1" class="edge"><title>Node2&#45;&gt;Node1</title>
<path fill="none" stroke="#404040" d="M147.384,-132.901C157.88,-121.711 170.442,-108.886 182.5,-98 189.146,-91.9996 196.355,-85.9125 203.568,-80.0604"/>
<polygon fill="none" stroke="#404040" points="203.971,-79.7388 206.168,-72.8703 213.353,-72.2562 211.156,-79.1246 203.971,-79.7388"/>
<text text-anchor="middle" x="217" y="-101" font-family="Helvetica,sans-Serif" font-size="10.00"> #m_roadPoints</text>
</g>
<!-- Node3 -->
<g id="node3" class="node"><title>Node3</title>
<g id="a_node3"><a xlink:href="class_point_road.html" target="_top" xlink:title="{PointRoad\n|# m_id\l# m_isNode\l# counter\l|+ id()\l+ infos()\l+ isNode()\l+ outputInfos()\l+ PointRoad()\l+ PointRoad()\l+ setid()\l+ updateBelongToRoad()\l+ vectorOfRoadId()\l}">
<polygon fill="none" stroke="black" points="60,-243.5 60,-410.5 185,-410.5 185,-243.5 60,-243.5"/>
<text text-anchor="middle" x="122.5" y="-398.5" font-family="Helvetica,sans-Serif" font-size="10.00">PointRoad</text>
<polyline fill="none" stroke="black" points="60,-391.5 185,-391.5 "/>
<text text-anchor="start" x="68" y="-379.5" font-family="Helvetica,sans-Serif" font-size="10.00"># m_id</text>
<text text-anchor="start" x="68" y="-368.5" font-family="Helvetica,sans-Serif" font-size="10.00"># m_isNode</text>
<text text-anchor="start" x="68" y="-357.5" font-family="Helvetica,sans-Serif" font-size="10.00"># counter</text>
<polyline fill="none" stroke="black" points="60,-350.5 185,-350.5 "/>
<text text-anchor="start" x="68" y="-338.5" font-family="Helvetica,sans-Serif" font-size="10.00">+ id()</text>
<text text-anchor="start" x="68" y="-327.5" font-family="Helvetica,sans-Serif" font-size="10.00">+ infos()</text>
<text text-anchor="start" x="68" y="-316.5" font-family="Helvetica,sans-Serif" font-size="10.00">+ isNode()</text>
<text text-anchor="start" x="68" y="-305.5" font-family="Helvetica,sans-Serif" font-size="10.00">+ outputInfos()</text>
<text text-anchor="start" x="68" y="-294.5" font-family="Helvetica,sans-Serif" font-size="10.00">+ PointRoad()</text>
<text text-anchor="start" x="68" y="-283.5" font-family="Helvetica,sans-Serif" font-size="10.00">+ PointRoad()</text>
<text text-anchor="start" x="68" y="-272.5" font-family="Helvetica,sans-Serif" font-size="10.00">+ setid()</text>
<text text-anchor="start" x="68" y="-261.5" font-family="Helvetica,sans-Serif" font-size="10.00">+ updateBelongToRoad()</text>
<text text-anchor="start" x="68" y="-250.5" font-family="Helvetica,sans-Serif" font-size="10.00">+ vectorOfRoadId()</text>
</a>
</g>
</g>
<!-- Node3&#45;&gt;Node2 -->
<g id="edge2" class="edge"><title>Node3&#45;&gt;Node2</title>
<path fill="none" stroke="#404040" d="M122.5,-243.292C122.5,-229.066 122.5,-214.879 122.5,-202.453"/>
<polygon fill="none" stroke="#404040" points="122.5,-202.215 118.5,-196.215 122.5,-190.215 126.5,-196.215 122.5,-202.215"/>
<text text-anchor="middle" x="147" y="-217" font-family="Helvetica,sans-Serif" font-size="10.00"> +elements</text>
</g>
<!-- Node4 -->
<g id="node4" class="node"><title>Node4</title>
<g id="a_node4"><a xlink:href="class_point.html" target="_top" xlink:title="The Point class. ">
<polygon fill="none" stroke="black" points="0,-458.5 0,-724.5 119,-724.5 119,-458.5 0,-458.5"/>
<text text-anchor="middle" x="59.5" y="-712.5" font-family="Helvetica,sans-Serif" font-size="10.00">Point</text>
<polyline fill="none" stroke="black" points="0,-705.5 119,-705.5 "/>
<text text-anchor="start" x="8" y="-693.5" font-family="Helvetica,sans-Serif" font-size="10.00"># m_x</text>
<text text-anchor="start" x="8" y="-682.5" font-family="Helvetica,sans-Serif" font-size="10.00"># m_y</text>
<polyline fill="none" stroke="black" points="0,-675.5 119,-675.5 "/>
<text text-anchor="start" x="8" y="-663.5" font-family="Helvetica,sans-Serif" font-size="10.00">+ distanceToPoint()</text>
<text text-anchor="start" x="8" y="-652.5" font-family="Helvetica,sans-Serif" font-size="10.00">+ distanceToSegment()</text>
<text text-anchor="start" x="8" y="-641.5" font-family="Helvetica,sans-Serif" font-size="10.00">+ infos()</text>
<text text-anchor="start" x="8" y="-630.5" font-family="Helvetica,sans-Serif" font-size="10.00">+ Point()</text>
<text text-anchor="start" x="8" y="-619.5" font-family="Helvetica,sans-Serif" font-size="10.00">+ Point()</text>
<text text-anchor="start" x="8" y="-608.5" font-family="Helvetica,sans-Serif" font-size="10.00">+ samePointAs()</text>
<text text-anchor="start" x="8" y="-597.5" font-family="Helvetica,sans-Serif" font-size="10.00">+ setx()</text>
<text text-anchor="start" x="8" y="-586.5" font-family="Helvetica,sans-Serif" font-size="10.00">+ x()</text>
<text text-anchor="start" x="8" y="-575.5" font-family="Helvetica,sans-Serif" font-size="10.00">+ ~Point()</text>
<text text-anchor="start" x="8" y="-564.5" font-family="Helvetica,sans-Serif" font-size="10.00">+ x()</text>
<text text-anchor="start" x="8" y="-553.5" font-family="Helvetica,sans-Serif" font-size="10.00">+ setx()</text>
<text text-anchor="start" x="8" y="-542.5" font-family="Helvetica,sans-Serif" font-size="10.00">+ y()</text>
<text text-anchor="start" x="8" y="-531.5" font-family="Helvetica,sans-Serif" font-size="10.00">+ sety()</text>
<text text-anchor="start" x="8" y="-520.5" font-family="Helvetica,sans-Serif" font-size="10.00">* x()</text>
<text text-anchor="start" x="8" y="-509.5" font-family="Helvetica,sans-Serif" font-size="10.00">* setx()</text>
<text text-anchor="start" x="8" y="-498.5" font-family="Helvetica,sans-Serif" font-size="10.00">* y()</text>
<text text-anchor="start" x="8" y="-487.5" font-family="Helvetica,sans-Serif" font-size="10.00">* sety()</text>
<text text-anchor="start" x="8" y="-476.5" font-family="Helvetica,sans-Serif" font-size="10.00">* m_x</text>
<text text-anchor="start" x="8" y="-465.5" font-family="Helvetica,sans-Serif" font-size="10.00">* m_y</text>
</a>
</g>
</g>
<!-- Node4&#45;&gt;Node3 -->
<g id="edge3" class="edge"><title>Node4&#45;&gt;Node3</title>
<path fill="none" stroke="midnightblue" d="M93.5721,-448.533C96.6882,-435.549 99.7706,-422.706 102.696,-410.516"/>
<polygon fill="none" stroke="midnightblue" points="90.115,-447.94 91.1846,-458.481 96.9217,-449.574 90.115,-447.94"/>
</g>
<!-- Node5 -->
<g id="node5" class="node"><title>Node5</title>
<polygon fill="none" stroke="#bfbfbf" points="137,-563 137,-620 236,-620 236,-563 137,-563"/>
<text text-anchor="middle" x="186.5" y="-608" font-family="Helvetica,sans-Serif" font-size="10.00">std::vector&lt; long &gt;</text>
<polyline fill="none" stroke="#bfbfbf" points="137,-601 236,-601 "/>
<text text-anchor="start" x="145" y="-589" font-family="Helvetica,sans-Serif" font-size="10.00">+ elements</text>
<polyline fill="none" stroke="#bfbfbf" points="137,-582 236,-582 "/>
<text text-anchor="middle" x="186.5" y="-570" font-family="Helvetica,sans-Serif" font-size="10.00"> </text>
</g>
<!-- Node5&#45;&gt;Node3 -->
<g id="edge4" class="edge"><title>Node5&#45;&gt;Node3</title>
<path fill="none" stroke="#404040" d="M179.772,-562.904C171.675,-529.696 157.653,-472.184 145.511,-422.379"/>
<polygon fill="none" stroke="#404040" points="145.473,-422.225 140.166,-417.343 142.63,-410.566 147.938,-415.448 145.473,-422.225"/>
<text text-anchor="middle" x="195" y="-432" font-family="Helvetica,sans-Serif" font-size="10.00"> #m_vectorOfRoadId</text>
</g>
<!-- Node6 -->
<g id="node6" class="node"><title>Node6</title>
<g id="a_node6"><a xlink:title="STL class. ">
<polygon fill="none" stroke="#bfbfbf" points="204,-127.5 204,-195.5 307,-195.5 307,-127.5 204,-127.5"/>
<text text-anchor="start" x="212" y="-183.5" font-family="Helvetica,sans-Serif" font-size="10.00">std::unordered_map</text>
<text text-anchor="middle" x="255.5" y="-172.5" font-family="Helvetica,sans-Serif" font-size="10.00">&lt; K, T &gt;</text>
<polyline fill="none" stroke="#bfbfbf" points="204,-165.5 307,-165.5 "/>
<text text-anchor="middle" x="255.5" y="-153.5" font-family="Helvetica,sans-Serif" font-size="10.00"> </text>
<polyline fill="none" stroke="#bfbfbf" points="204,-146.5 307,-146.5 "/>
<text text-anchor="middle" x="255.5" y="-134.5" font-family="Helvetica,sans-Serif" font-size="10.00"> </text>
</a>
</g>
</g>
<!-- Node6&#45;&gt;Node1 -->
<g id="edge5" class="edge"><title>Node6&#45;&gt;Node1</title>
<path fill="none" stroke="#404040" d="M255.5,-127.213C255.5,-116.244 255.5,-103.784 255.5,-91.8137"/>
<polygon fill="none" stroke="#404040" points="255.5,-91.5997 251.5,-85.5997 255.5,-79.5997 259.5,-85.5997 255.5,-91.5997"/>
<text text-anchor="middle" x="278.5" y="-101" font-family="Helvetica,sans-Serif" font-size="10.00"> #m_roads</text>
</g>
<!-- Node7 -->
<g id="node7" class="node"><title>Node7</title>
<polygon fill="none" stroke="#bfbfbf" points="228,-298.5 228,-355.5 257,-355.5 257,-298.5 228,-298.5"/>
<text text-anchor="middle" x="242.5" y="-343.5" font-family="Helvetica,sans-Serif" font-size="10.00">K</text>
<polyline fill="none" stroke="#bfbfbf" points="228,-336.5 257,-336.5 "/>
<text text-anchor="middle" x="242.5" y="-324.5" font-family="Helvetica,sans-Serif" font-size="10.00"> </text>
<polyline fill="none" stroke="#bfbfbf" points="228,-317.5 257,-317.5 "/>
<text text-anchor="middle" x="242.5" y="-305.5" font-family="Helvetica,sans-Serif" font-size="10.00"> </text>
</g>
<!-- Node7&#45;&gt;Node6 -->
<g id="edge6" class="edge"><title>Node7&#45;&gt;Node6</title>
<path fill="none" stroke="#404040" d="M241.061,-298.276C240.285,-275.544 240.085,-242.576 243.5,-214 243.758,-211.838 244.072,-209.634 244.428,-207.416"/>
<polygon fill="none" stroke="#404040" points="244.441,-207.345 241.625,-200.707 246.67,-195.554 249.486,-202.192 244.441,-207.345"/>
<text text-anchor="middle" x="259" y="-217" font-family="Helvetica,sans-Serif" font-size="10.00"> +keys</text>
</g>
<!-- Node8 -->
<g id="node8" class="node"><title>Node8</title>
<polygon fill="none" stroke="#bfbfbf" points="318,-298.5 318,-355.5 347,-355.5 347,-298.5 318,-298.5"/>
<text text-anchor="middle" x="332.5" y="-343.5" font-family="Helvetica,sans-Serif" font-size="10.00">T</text>
<polyline fill="none" stroke="#bfbfbf" points="318,-336.5 347,-336.5 "/>
<text text-anchor="middle" x="332.5" y="-324.5" font-family="Helvetica,sans-Serif" font-size="10.00"> </text>
<polyline fill="none" stroke="#bfbfbf" points="318,-317.5 347,-317.5 "/>
<text text-anchor="middle" x="332.5" y="-305.5" font-family="Helvetica,sans-Serif" font-size="10.00"> </text>
</g>
<!-- Node8&#45;&gt;Node6 -->
<g id="edge7" class="edge"><title>Node8&#45;&gt;Node6</title>
<path fill="none" stroke="#404040" d="M319.438,-298.264C307.658,-273.25 290.126,-236.024 276.399,-206.875"/>
<polygon fill="none" stroke="#404040" points="276.268,-206.598 270.093,-202.875 271.155,-195.742 277.331,-199.466 276.268,-206.598"/>
<text text-anchor="middle" x="310" y="-217" font-family="Helvetica,sans-Serif" font-size="10.00"> +elements</text>
</g>
<!-- Node9 -->
<g id="node9" class="node"><title>Node9</title>
<g id="a_node9"><a xlink:title="STL class. ">
<polygon fill="none" stroke="#bfbfbf" points="325,-133 325,-190 412,-190 412,-133 325,-133"/>
<text text-anchor="middle" x="368.5" y="-178" font-family="Helvetica,sans-Serif" font-size="10.00">std::vector&lt; T &gt;</text>
<polyline fill="none" stroke="#bfbfbf" points="325,-171 412,-171 "/>
<text text-anchor="middle" x="368.5" y="-159" font-family="Helvetica,sans-Serif" font-size="10.00"> </text>
<polyline fill="none" stroke="#bfbfbf" points="325,-152 412,-152 "/>
<text text-anchor="middle" x="368.5" y="-140" font-family="Helvetica,sans-Serif" font-size="10.00"> </text>
</a>
</g>
</g>
<!-- Node8&#45;&gt;Node9 -->
<g id="edge9" class="edge"><title>Node8&#45;&gt;Node9</title>
<path fill="none" stroke="#404040" d="M338.607,-298.264C344.417,-271.877 353.219,-231.9 359.769,-202.152"/>
<polygon fill="none" stroke="#404040" points="359.843,-201.818 357.227,-195.098 362.423,-190.098 365.04,-196.818 359.843,-201.818"/>
<text text-anchor="middle" x="382" y="-217" font-family="Helvetica,sans-Serif" font-size="10.00"> +elements</text>
</g>
<!-- Node9&#45;&gt;Node1 -->
<g id="edge8" class="edge"><title>Node9&#45;&gt;Node1</title>
<path fill="none" stroke="#404040" d="M342.292,-132.784C329.981,-119.766 314.947,-103.867 300.873,-88.9825"/>
<polygon fill="none" stroke="#404040" points="300.511,-88.5999 293.482,-86.9887 292.266,-79.8808 299.295,-81.4921 300.511,-88.5999"/>
<text text-anchor="middle" x="355.5" y="-101" font-family="Helvetica,sans-Serif" font-size="10.00"> #m_trackPoints</text>
</g>
</g>
</svg>
