<?xml version="1.0" encoding="UTF-8" standalone="no"?>
<!DOCTYPE svg PUBLIC "-//W3C//DTD SVG 1.1//EN"
 "http://www.w3.org/Graphics/SVG/1.1/DTD/svg11.dtd">
<!-- Generated by graphviz version 2.38.0 (20140413.2041)
 -->
<!-- Title: MainWindow Pages: 1 -->
<!--zoomable 629 -->
<svg id="main" version="1.1" xmlns="http://www.w3.org/2000/svg" xmlns:xlink="http://www.w3.org/1999/xlink" xml:space="preserve" onload="init(evt)">
<style type="text/css"><![CDATA[
.edge:hover path { stroke: red; }
.edge:hover polygon { stroke: red; fill: red; }
]]></style>
<script type="text/javascript"><![CDATA[
var edges = document.getElementsByTagName('g');
if (edges && edges.length) {
  for (var i=0;i<edges.length;i++) {
    if (edges[i].id.substr(0,4)=='edge') {
      edges[i].setAttribute('class','edge');
    }
  }
}
]]></script>
        <defs>
                <circle id="rim" cx="0" cy="0" r="7"/>
                <circle id="rim2" cx="0" cy="0" r="3.5"/>
                <g id="zoomPlus">
                        <use xlink:href="#rim" fill="#404040">
                                <set attributeName="fill" to="#808080" begin="zoomplus.mouseover" end="zoomplus.mouseout"/>
                        </use>
                        <path d="M-4,0h8M0,-4v8" fill="none" stroke="white" stroke-width="1.5" pointer-events="none"/>
                </g>
                <g id="zoomMin">
                        <use xlink:href="#rim" fill="#404040">
                                <set attributeName="fill" to="#808080" begin="zoomminus.mouseover" end="zoomminus.mouseout"/>
                        </use>
                        <path d="M-4,0h8" fill="none" stroke="white" stroke-width="1.5" pointer-events="none"/>
                </g>
                <g id="dirArrow">
                        <path fill="none" stroke="white" stroke-width="1.5" d="M0,-3.0v7 M-2.5,-0.5L0,-3.0L2.5,-0.5"/>
                </g>
               <g id="resetDef">
                       <use xlink:href="#rim2" fill="#404040">
                               <set attributeName="fill" to="#808080" begin="reset.mouseover" end="reset.mouseout"/>
                       </use>
               </g>
        </defs>

<script type="text/javascript">
var viewWidth = 471;
var viewHeight = 629;
var sectionId = 'dynsection-1';
</script>
<script xlink:href="svgpan.js"/>
<svg id="graph" class="graph">
<g id="viewport">
<title>MainWindow</title>
<!-- Node1 -->
<g id="node1" class="node"><title>Node1</title>
<polygon fill="#bfbfbf" stroke="black" points="131,-0.5 131,-200.5 291,-200.5 291,-0.5 131,-0.5"/>
<text text-anchor="middle" x="211" y="-188.5" font-family="Helvetica,sans-Serif" font-size="10.00">MainWindow</text>
<polyline fill="none" stroke="black" points="131,-181.5 291,-181.5 "/>
<text text-anchor="start" x="139" y="-169.5" font-family="Helvetica,sans-Serif" font-size="10.00"># buttonCancel</text>
<text text-anchor="start" x="139" y="-158.5" font-family="Helvetica,sans-Serif" font-size="10.00"># buttonNext</text>
<text text-anchor="start" x="139" y="-147.5" font-family="Helvetica,sans-Serif" font-size="10.00"># centralWidget</text>
<text text-anchor="start" x="139" y="-136.5" font-family="Helvetica,sans-Serif" font-size="10.00"># controlPaneLayout</text>
<text text-anchor="start" x="139" y="-125.5" font-family="Helvetica,sans-Serif" font-size="10.00"># mainLayout</text>
<text text-anchor="start" x="139" y="-114.5" font-family="Helvetica,sans-Serif" font-size="10.00"># slideWidget3</text>
<text text-anchor="start" x="139" y="-103.5" font-family="Helvetica,sans-Serif" font-size="10.00"># slideWidget4</text>
<polyline fill="none" stroke="black" points="131,-96.5 291,-96.5 "/>
<text text-anchor="start" x="139" y="-84.5" font-family="Helvetica,sans-Serif" font-size="10.00">+ MainWindow()</text>
<text text-anchor="start" x="139" y="-73.5" font-family="Helvetica,sans-Serif" font-size="10.00">+ ~MainWindow()</text>
<text text-anchor="start" x="139" y="-62.5" font-family="Helvetica,sans-Serif" font-size="10.00">+ readyToNext()</text>
<text text-anchor="start" x="139" y="-51.5" font-family="Helvetica,sans-Serif" font-size="10.00"># createConnections()</text>
<text text-anchor="start" x="139" y="-40.5" font-family="Helvetica,sans-Serif" font-size="10.00"># createGuiControlComponents()</text>
<text text-anchor="start" x="139" y="-29.5" font-family="Helvetica,sans-Serif" font-size="10.00"># createMainLayout()</text>
<text text-anchor="start" x="139" y="-18.5" font-family="Helvetica,sans-Serif" font-size="10.00"># createSlidingStackedWidget()</text>
<text text-anchor="start" x="139" y="-7.5" font-family="Helvetica,sans-Serif" font-size="10.00"># createSubSlidingWidgets()</text>
</g>
<!-- Node2 -->
<g id="node2" class="node"><title>Node2</title>
<polygon fill="none" stroke="#bfbfbf" points="0,-358.5 0,-415.5 80,-415.5 80,-358.5 0,-358.5"/>
<text text-anchor="middle" x="40" y="-403.5" font-family="Helvetica,sans-Serif" font-size="10.00">QMainWindow</text>
<polyline fill="none" stroke="#bfbfbf" points="0,-396.5 80,-396.5 "/>
<text text-anchor="middle" x="40" y="-384.5" font-family="Helvetica,sans-Serif" font-size="10.00"> </text>
<polyline fill="none" stroke="#bfbfbf" points="0,-377.5 80,-377.5 "/>
<text text-anchor="middle" x="40" y="-365.5" font-family="Helvetica,sans-Serif" font-size="10.00"> </text>
</g>
<!-- Node2&#45;&gt;Node1 -->
<g id="edge1" class="edge"><title>Node2&#45;&gt;Node1</title>
<path fill="none" stroke="midnightblue" d="M49.4774,-348.304C57.5887,-319.654 70.8438,-279.873 89,-248 100.795,-227.293 115.606,-206.645 130.803,-187.662"/>
<polygon fill="none" stroke="midnightblue" points="45.9997,-347.751 46.7222,-358.321 52.749,-349.607 45.9997,-347.751"/>
</g>
<!-- Node3 -->
<g id="node3" class="node"><title>Node3</title>
<g id="a_node3"><a xlink:href="class_loading.html" target="_top" xlink:title="{Loading\n|&#45; m_boutonXY\l&#45; m_country\l&#45; m_csvGrid\l&#45; m_csvTrack\l&#45; m_fileGPS\l&#45; m_fileGrid\l&#45; m_fr\l&#45; m_grid\l&#45; m_shpTrack\l&#45; m_track\l&#45; m_usa\l&#45; nextOk\l|+ Loading()\l+ ~Loading()\l+ getCountry()\l+ loadFileCSVTrack()\l+ loadFileGrid()\l+ loadFileSHPTrack()\l&#45; country()\l&#45; grid()\l&#45; launchFiles()\l&#45; track()\l}">
<polygon fill="none" stroke="black" points="98.5,-248.5 98.5,-525.5 209.5,-525.5 209.5,-248.5 98.5,-248.5"/>
<text text-anchor="middle" x="154" y="-513.5" font-family="Helvetica,sans-Serif" font-size="10.00">Loading</text>
<polyline fill="none" stroke="black" points="98.5,-506.5 209.5,-506.5 "/>
<text text-anchor="start" x="106.5" y="-494.5" font-family="Helvetica,sans-Serif" font-size="10.00">&#45; m_boutonXY</text>
<text text-anchor="start" x="106.5" y="-483.5" font-family="Helvetica,sans-Serif" font-size="10.00">&#45; m_country</text>
<text text-anchor="start" x="106.5" y="-472.5" font-family="Helvetica,sans-Serif" font-size="10.00">&#45; m_csvGrid</text>
<text text-anchor="start" x="106.5" y="-461.5" font-family="Helvetica,sans-Serif" font-size="10.00">&#45; m_csvTrack</text>
<text text-anchor="start" x="106.5" y="-450.5" font-family="Helvetica,sans-Serif" font-size="10.00">&#45; m_fileGPS</text>
<text text-anchor="start" x="106.5" y="-439.5" font-family="Helvetica,sans-Serif" font-size="10.00">&#45; m_fileGrid</text>
<text text-anchor="start" x="106.5" y="-428.5" font-family="Helvetica,sans-Serif" font-size="10.00">&#45; m_fr</text>
<text text-anchor="start" x="106.5" y="-417.5" font-family="Helvetica,sans-Serif" font-size="10.00">&#45; m_grid</text>
<text text-anchor="start" x="106.5" y="-406.5" font-family="Helvetica,sans-Serif" font-size="10.00">&#45; m_shpTrack</text>
<text text-anchor="start" x="106.5" y="-395.5" font-family="Helvetica,sans-Serif" font-size="10.00">&#45; m_track</text>
<text text-anchor="start" x="106.5" y="-384.5" font-family="Helvetica,sans-Serif" font-size="10.00">&#45; m_usa</text>
<text text-anchor="start" x="106.5" y="-373.5" font-family="Helvetica,sans-Serif" font-size="10.00">&#45; nextOk</text>
<polyline fill="none" stroke="black" points="98.5,-366.5 209.5,-366.5 "/>
<text text-anchor="start" x="106.5" y="-354.5" font-family="Helvetica,sans-Serif" font-size="10.00">+ Loading()</text>
<text text-anchor="start" x="106.5" y="-343.5" font-family="Helvetica,sans-Serif" font-size="10.00">+ ~Loading()</text>
<text text-anchor="start" x="106.5" y="-332.5" font-family="Helvetica,sans-Serif" font-size="10.00">+ getCountry()</text>
<text text-anchor="start" x="106.5" y="-321.5" font-family="Helvetica,sans-Serif" font-size="10.00">+ loadFileCSVTrack()</text>
<text text-anchor="start" x="106.5" y="-310.5" font-family="Helvetica,sans-Serif" font-size="10.00">+ loadFileGrid()</text>
<text text-anchor="start" x="106.5" y="-299.5" font-family="Helvetica,sans-Serif" font-size="10.00">+ loadFileSHPTrack()</text>
<text text-anchor="start" x="106.5" y="-288.5" font-family="Helvetica,sans-Serif" font-size="10.00">&#45; country()</text>
<text text-anchor="start" x="106.5" y="-277.5" font-family="Helvetica,sans-Serif" font-size="10.00">&#45; grid()</text>
<text text-anchor="start" x="106.5" y="-266.5" font-family="Helvetica,sans-Serif" font-size="10.00">&#45; launchFiles()</text>
<text text-anchor="start" x="106.5" y="-255.5" font-family="Helvetica,sans-Serif" font-size="10.00">&#45; track()</text>
</a>
</g>
</g>
<!-- Node3&#45;&gt;Node1 -->
<g id="edge2" class="edge"><title>Node3&#45;&gt;Node1</title>
<path fill="none" stroke="#404040" d="M169.441,-248.073C171.129,-238.202 172.979,-228.429 175,-219 175.466,-216.826 175.954,-214.634 176.461,-212.43"/>
<polygon fill="none" stroke="#404040" points="176.514,-212.21 174.04,-205.437 179.341,-200.548 181.815,-207.321 176.514,-212.21"/>
<text text-anchor="middle" x="207.5" y="-222" font-family="Helvetica,sans-Serif" font-size="10.00"> #slideWidget1</text>
</g>
<!-- Node4 -->
<g id="node4" class="node"><title>Node4</title>
<polygon fill="none" stroke="#bfbfbf" points="184.5,-563.5 184.5,-620.5 239.5,-620.5 239.5,-563.5 184.5,-563.5"/>
<text text-anchor="middle" x="212" y="-608.5" font-family="Helvetica,sans-Serif" font-size="10.00">QWidget</text>
<polyline fill="none" stroke="#bfbfbf" points="184.5,-601.5 239.5,-601.5 "/>
<text text-anchor="middle" x="212" y="-589.5" font-family="Helvetica,sans-Serif" font-size="10.00"> </text>
<polyline fill="none" stroke="#bfbfbf" points="184.5,-582.5 239.5,-582.5 "/>
<text text-anchor="middle" x="212" y="-570.5" font-family="Helvetica,sans-Serif" font-size="10.00"> </text>
</g>
<!-- Node4&#45;&gt;Node3 -->
<g id="edge3" class="edge"><title>Node4&#45;&gt;Node3</title>
<path fill="none" stroke="midnightblue" d="M201.261,-553.414C198.846,-544.962 196.146,-535.512 193.294,-525.527"/>
<polygon fill="none" stroke="midnightblue" points="197.944,-554.546 204.057,-563.199 204.675,-552.623 197.944,-554.546"/>
</g>
<!-- Node7 -->
<g id="node7" class="node"><title>Node7</title>
<g id="a_node7"><a xlink:href="class_filtering.html" target="_top" xlink:title="{Filtering\n|&#45; m_boutonXY\l&#45; m_cancel\l&#45; m_launch\l&#45; m_nbPtTrack\l&#45; m_slidSpat\l&#45; m_slidTemp\l&#45; m_spat\l&#45; m_temp\l&#45; m_valueSpat\l&#45; m_valueTemp\l|+ Filtering()\l+ ~Filtering()\l&#45; boutonXY()\l&#45; nbPtTrack()\l&#45; spatial()\l&#45; temporal()\l}">
<polygon fill="none" stroke="black" points="227,-281.5 227,-492.5 311,-492.5 311,-281.5 227,-281.5"/>
<text text-anchor="middle" x="269" y="-480.5" font-family="Helvetica,sans-Serif" font-size="10.00">Filtering</text>
<polyline fill="none" stroke="black" points="227,-473.5 311,-473.5 "/>
<text text-anchor="start" x="235" y="-461.5" font-family="Helvetica,sans-Serif" font-size="10.00">&#45; m_boutonXY</text>
<text text-anchor="start" x="235" y="-450.5" font-family="Helvetica,sans-Serif" font-size="10.00">&#45; m_cancel</text>
<text text-anchor="start" x="235" y="-439.5" font-family="Helvetica,sans-Serif" font-size="10.00">&#45; m_launch</text>
<text text-anchor="start" x="235" y="-428.5" font-family="Helvetica,sans-Serif" font-size="10.00">&#45; m_nbPtTrack</text>
<text text-anchor="start" x="235" y="-417.5" font-family="Helvetica,sans-Serif" font-size="10.00">&#45; m_slidSpat</text>
<text text-anchor="start" x="235" y="-406.5" font-family="Helvetica,sans-Serif" font-size="10.00">&#45; m_slidTemp</text>
<text text-anchor="start" x="235" y="-395.5" font-family="Helvetica,sans-Serif" font-size="10.00">&#45; m_spat</text>
<text text-anchor="start" x="235" y="-384.5" font-family="Helvetica,sans-Serif" font-size="10.00">&#45; m_temp</text>
<text text-anchor="start" x="235" y="-373.5" font-family="Helvetica,sans-Serif" font-size="10.00">&#45; m_valueSpat</text>
<text text-anchor="start" x="235" y="-362.5" font-family="Helvetica,sans-Serif" font-size="10.00">&#45; m_valueTemp</text>
<polyline fill="none" stroke="black" points="227,-355.5 311,-355.5 "/>
<text text-anchor="start" x="235" y="-343.5" font-family="Helvetica,sans-Serif" font-size="10.00">+ Filtering()</text>
<text text-anchor="start" x="235" y="-332.5" font-family="Helvetica,sans-Serif" font-size="10.00">+ ~Filtering()</text>
<text text-anchor="start" x="235" y="-321.5" font-family="Helvetica,sans-Serif" font-size="10.00">&#45; boutonXY()</text>
<text text-anchor="start" x="235" y="-310.5" font-family="Helvetica,sans-Serif" font-size="10.00">&#45; nbPtTrack()</text>
<text text-anchor="start" x="235" y="-299.5" font-family="Helvetica,sans-Serif" font-size="10.00">&#45; spatial()</text>
<text text-anchor="start" x="235" y="-288.5" font-family="Helvetica,sans-Serif" font-size="10.00">&#45; temporal()</text>
</a>
</g>
</g>
<!-- Node4&#45;&gt;Node7 -->
<g id="edge7" class="edge"><title>Node4&#45;&gt;Node7</title>
<path fill="none" stroke="midnightblue" d="M222.526,-553.514C227.391,-536.187 233.436,-514.656 239.541,-492.916"/>
<polygon fill="none" stroke="midnightblue" points="219.14,-552.625 219.806,-563.199 225.879,-554.518 219.14,-552.625"/>
</g>
<!-- Node5 -->
<g id="node5" class="node"><title>Node5</title>
<g id="a_node5"><a xlink:href="class_sliding_stacked_widget.html" target="_top" xlink:title="{SlidingStackedWidget\n|# blockedPageList\l# m_active\l# m_animationtype\l# m_mainwindow\l# m_next\l# m_now\l# m_pnow\l# m_speed\l# m_vertical\l# m_wrap\l|+ SlidingStackedWidget()\l+ ~SlidingStackedWidget()\l+ setAnimation()\l+ setSpeed()\l+ setVerticalMode()\l+ setWrap()\l+ slideInIdx()\l+ slideInNext()\l+ slideInPrev()\l# slideInWgt()\l# animationDoneSlot()\l}">
<polygon fill="none" stroke="black" points="329,-254 329,-520 463,-520 463,-254 329,-254"/>
<text text-anchor="middle" x="396" y="-508" font-family="Helvetica,sans-Serif" font-size="10.00">SlidingStackedWidget</text>
<polyline fill="none" stroke="black" points="329,-501 463,-501 "/>
<text text-anchor="start" x="337" y="-489" font-family="Helvetica,sans-Serif" font-size="10.00"># blockedPageList</text>
<text text-anchor="start" x="337" y="-478" font-family="Helvetica,sans-Serif" font-size="10.00"># m_active</text>
<text text-anchor="start" x="337" y="-467" font-family="Helvetica,sans-Serif" font-size="10.00"># m_animationtype</text>
<text text-anchor="start" x="337" y="-456" font-family="Helvetica,sans-Serif" font-size="10.00"># m_mainwindow</text>
<text text-anchor="start" x="337" y="-445" font-family="Helvetica,sans-Serif" font-size="10.00"># m_next</text>
<text text-anchor="start" x="337" y="-434" font-family="Helvetica,sans-Serif" font-size="10.00"># m_now</text>
<text text-anchor="start" x="337" y="-423" font-family="Helvetica,sans-Serif" font-size="10.00"># m_pnow</text>
<text text-anchor="start" x="337" y="-412" font-family="Helvetica,sans-Serif" font-size="10.00"># m_speed</text>
<text text-anchor="start" x="337" y="-401" font-family="Helvetica,sans-Serif" font-size="10.00"># m_vertical</text>
<text text-anchor="start" x="337" y="-390" font-family="Helvetica,sans-Serif" font-size="10.00"># m_wrap</text>
<polyline fill="none" stroke="black" points="329,-383 463,-383 "/>
<text text-anchor="start" x="337" y="-371" font-family="Helvetica,sans-Serif" font-size="10.00">+ SlidingStackedWidget()</text>
<text text-anchor="start" x="337" y="-360" font-family="Helvetica,sans-Serif" font-size="10.00">+ ~SlidingStackedWidget()</text>
<text text-anchor="start" x="337" y="-349" font-family="Helvetica,sans-Serif" font-size="10.00">+ setAnimation()</text>
<text text-anchor="start" x="337" y="-338" font-family="Helvetica,sans-Serif" font-size="10.00">+ setSpeed()</text>
<text text-anchor="start" x="337" y="-327" font-family="Helvetica,sans-Serif" font-size="10.00">+ setVerticalMode()</text>
<text text-anchor="start" x="337" y="-316" font-family="Helvetica,sans-Serif" font-size="10.00">+ setWrap()</text>
<text text-anchor="start" x="337" y="-305" font-family="Helvetica,sans-Serif" font-size="10.00">+ slideInIdx()</text>
<text text-anchor="start" x="337" y="-294" font-family="Helvetica,sans-Serif" font-size="10.00">+ slideInNext()</text>
<text text-anchor="start" x="337" y="-283" font-family="Helvetica,sans-Serif" font-size="10.00">+ slideInPrev()</text>
<text text-anchor="start" x="337" y="-272" font-family="Helvetica,sans-Serif" font-size="10.00"># slideInWgt()</text>
<text text-anchor="start" x="337" y="-261" font-family="Helvetica,sans-Serif" font-size="10.00"># animationDoneSlot()</text>
</a>
</g>
</g>
<!-- Node5&#45;&gt;Node1 -->
<g id="edge4" class="edge"><title>Node5&#45;&gt;Node1</title>
<path fill="none" stroke="#404040" d="M332.497,-253.963C325.607,-241.926 318.398,-230.098 311,-219 307.098,-213.146 302.943,-207.256 298.63,-201.399"/>
<polygon fill="none" stroke="#404040" points="298.458,-201.171 291.652,-198.786 291.237,-191.587 298.042,-193.972 298.458,-201.171"/>
<text text-anchor="middle" x="353.5" y="-222" font-family="Helvetica,sans-Serif" font-size="10.00"> #slidingStacked</text>
</g>
<!-- Node6 -->
<g id="node6" class="node"><title>Node6</title>
<polygon fill="none" stroke="#bfbfbf" points="350.5,-563.5 350.5,-620.5 441.5,-620.5 441.5,-563.5 350.5,-563.5"/>
<text text-anchor="middle" x="396" y="-608.5" font-family="Helvetica,sans-Serif" font-size="10.00">QStackedWidget</text>
<polyline fill="none" stroke="#bfbfbf" points="350.5,-601.5 441.5,-601.5 "/>
<text text-anchor="middle" x="396" y="-589.5" font-family="Helvetica,sans-Serif" font-size="10.00"> </text>
<polyline fill="none" stroke="#bfbfbf" points="350.5,-582.5 441.5,-582.5 "/>
<text text-anchor="middle" x="396" y="-570.5" font-family="Helvetica,sans-Serif" font-size="10.00"> </text>
</g>
<!-- Node6&#45;&gt;Node5 -->
<g id="edge5" class="edge"><title>Node6&#45;&gt;Node5</title>
<path fill="none" stroke="midnightblue" d="M396,-553.09C396,-543.26 396,-532.097 396,-520.323"/>
<polygon fill="none" stroke="midnightblue" points="392.5,-553.199 396,-563.199 399.5,-553.199 392.5,-553.199"/>
</g>
<!-- Node7&#45;&gt;Node1 -->
<g id="edge6" class="edge"><title>Node7&#45;&gt;Node1</title>
<path fill="none" stroke="#404040" d="M251.943,-281.111C248.261,-260.471 244.202,-239.015 240,-219 239.55,-216.857 239.089,-214.694 238.618,-212.515"/>
<polygon fill="none" stroke="#404040" points="238.607,-212.468 233.405,-207.474 236.014,-200.752 241.216,-205.746 238.607,-212.468"/>
<text text-anchor="middle" x="274.5" y="-222" font-family="Helvetica,sans-Serif" font-size="10.00"> #slideWidget2</text>
</g>
</g>
</svg>
        <g id="navigator" transform="translate(0 0)" fill="#404254">
                <rect fill="#f2f5e9" fill-opacity="0.5" stroke="#606060" stroke-width=".5" x="0" y="0" width="60" height="60"/>
                <use id="zoomplus" xlink:href="#zoomPlus" x="17" y="9" onmousedown="handleZoom(evt,'in')"/>
                <use id="zoomminus" xlink:href="#zoomMin" x="42" y="9" onmousedown="handleZoom(evt,'out')"/>
                <use id="reset" xlink:href="#resetDef" x="30" y="36" onmousedown="handleReset()"/>
                <g id="arrowUp" xlink:href="#dirArrow" transform="translate(30 24)" onmousedown="handlePan(0,-1)">
                  <use xlink:href="#rim" fill="#404040">
                        <set attributeName="fill" to="#808080" begin="arrowUp.mouseover" end="arrowUp.mouseout"/>
                  </use>
                  <path fill="none" stroke="white" stroke-width="1.5" d="M0,-3.0v7 M-2.5,-0.5L0,-3.0L2.5,-0.5"/>
                </g>
                <g id="arrowRight" xlink:href="#dirArrow" transform="rotate(90) translate(36 -43)" onmousedown="handlePan(1,0)">
                  <use xlink:href="#rim" fill="#404040">
                        <set attributeName="fill" to="#808080" begin="arrowRight.mouseover" end="arrowRight.mouseout"/>
                  </use>
                  <path fill="none" stroke="white" stroke-width="1.5" d="M0,-3.0v7 M-2.5,-0.5L0,-3.0L2.5,-0.5"/>
                </g>
                <g id="arrowDown" xlink:href="#dirArrow" transform="rotate(180) translate(-30 -48)" onmousedown="handlePan(0,1)">
                  <use xlink:href="#rim" fill="#404040">
                        <set attributeName="fill" to="#808080" begin="arrowDown.mouseover" end="arrowDown.mouseout"/>
                  </use>
                  <path fill="none" stroke="white" stroke-width="1.5" d="M0,-3.0v7 M-2.5,-0.5L0,-3.0L2.5,-0.5"/>
                </g>
                <g id="arrowLeft" xlink:href="#dirArrow" transform="rotate(270) translate(-36 17)" onmousedown="handlePan(-1,0)">
                  <use xlink:href="#rim" fill="#404040">
                        <set attributeName="fill" to="#808080" begin="arrowLeft.mouseover" end="arrowLeft.mouseout"/>
                  </use>
                  <path fill="none" stroke="white" stroke-width="1.5" d="M0,-3.0v7 M-2.5,-0.5L0,-3.0L2.5,-0.5"/>
                </g>
        </g>
        <svg viewBox="0 0 15 15" width="100%" height="30px" preserveAspectRatio="xMaxYMin meet">
         <g id="arrow_out" transform="scale(0.3 0.3)">
          <a xlink:href="class_main_window__coll__graph_org.svg" target="_base">
           <rect id="button" ry="5" rx="5" y="6" x="6" height="38" width="38"
                fill="#f2f5e9" fill-opacity="0.5" stroke="#606060" stroke-width="1.0"/>
           <path id="arrow"
             d="M 11.500037,31.436501 C 11.940474,20.09759 22.043105,11.32322 32.158766,21.979434 L 37.068811,17.246167 C 37.068811,17.246167 37.088388,32 37.088388,32 L 22.160133,31.978069 C 22.160133,31.978069 26.997745,27.140456 26.997745,27.140456 C 18.528582,18.264221 13.291696,25.230495 11.500037,31.436501 z"
             style="fill:#404040;"/>
          </a>
         </g>
        </svg>
</svg>
