<?xml version="1.0" encoding="UTF-8" standalone="no"?>
<!DOCTYPE svg PUBLIC "-//W3C//DTD SVG 1.1//EN"
 "http://www.w3.org/Graphics/SVG/1.1/DTD/svg11.dtd">
<!-- Generated by graphviz version 2.38.0 (20140413.2041)
 -->
<!-- Title: QMapScene Pages: 1 -->
<svg width="698pt" height="893pt"
 viewBox="0.00 0.00 697.50 893.00" xmlns="http://www.w3.org/2000/svg" xmlns:xlink="http://www.w3.org/1999/xlink">
<g id="graph0" class="graph" transform="scale(1 1) rotate(0) translate(4 889)">
<title>QMapScene</title>
<!-- Node1 -->
<g id="node1" class="node"><title>Node1</title>
<polygon fill="#bfbfbf" stroke="black" points="237.5,-0.5 237.5,-156.5 345.5,-156.5 345.5,-0.5 237.5,-0.5"/>
<text text-anchor="middle" x="291.5" y="-144.5" font-family="Helvetica,sans-Serif" font-size="10.00">QMapScene</text>
<polyline fill="none" stroke="black" points="237.5,-137.5 345.5,-137.5 "/>
<text text-anchor="start" x="245.5" y="-125.5" font-family="Helvetica,sans-Serif" font-size="10.00"># m_height</text>
<text text-anchor="start" x="245.5" y="-114.5" font-family="Helvetica,sans-Serif" font-size="10.00"># m_scaleFactor</text>
<text text-anchor="start" x="245.5" y="-103.5" font-family="Helvetica,sans-Serif" font-size="10.00"># m_shiftX</text>
<text text-anchor="start" x="245.5" y="-92.5" font-family="Helvetica,sans-Serif" font-size="10.00"># m_shiftY</text>
<text text-anchor="start" x="245.5" y="-81.5" font-family="Helvetica,sans-Serif" font-size="10.00"># m_width</text>
<text text-anchor="start" x="245.5" y="-70.5" font-family="Helvetica,sans-Serif" font-size="10.00"># points</text>
<polyline fill="none" stroke="black" points="237.5,-63.5 345.5,-63.5 "/>
<text text-anchor="start" x="245.5" y="-51.5" font-family="Helvetica,sans-Serif" font-size="10.00">+ initialize()</text>
<text text-anchor="start" x="245.5" y="-40.5" font-family="Helvetica,sans-Serif" font-size="10.00">+ QMapScene()</text>
<text text-anchor="start" x="245.5" y="-29.5" font-family="Helvetica,sans-Serif" font-size="10.00">+ transform()</text>
<text text-anchor="start" x="245.5" y="-18.5" font-family="Helvetica,sans-Serif" font-size="10.00">+ onSignalAllPoints()</text>
<text text-anchor="start" x="245.5" y="-7.5" font-family="Helvetica,sans-Serif" font-size="10.00">+ signalAllRoads()</text>
</g>
<!-- Node2 -->
<g id="node2" class="node"><title>Node2</title>
<polygon fill="none" stroke="#bfbfbf" points="44,-210 44,-267 135,-267 135,-210 44,-210"/>
<text text-anchor="middle" x="89.5" y="-255" font-family="Helvetica,sans-Serif" font-size="10.00">QGraphicsScene</text>
<polyline fill="none" stroke="#bfbfbf" points="44,-248 135,-248 "/>
<text text-anchor="middle" x="89.5" y="-236" font-family="Helvetica,sans-Serif" font-size="10.00"> </text>
<polyline fill="none" stroke="#bfbfbf" points="44,-229 135,-229 "/>
<text text-anchor="middle" x="89.5" y="-217" font-family="Helvetica,sans-Serif" font-size="10.00"> </text>
</g>
<!-- Node2&#45;&gt;Node1 -->
<g id="edge1" class="edge"><title>Node2&#45;&gt;Node1</title>
<path fill="none" stroke="midnightblue" d="M132.619,-203.773C163.22,-179.838 204.52,-147.534 237.343,-121.861"/>
<polygon fill="none" stroke="midnightblue" points="130.406,-201.061 124.686,-209.979 134.719,-206.574 130.406,-201.061"/>
</g>
<!-- Node3 -->
<g id="node3" class="node"><title>Node3</title>
<polygon fill="none" stroke="#bfbfbf" points="302,-210 302,-267 429,-267 429,-210 302,-210"/>
<text text-anchor="middle" x="365.5" y="-255" font-family="Helvetica,sans-Serif" font-size="10.00">std::vector&lt; PointRoad &gt;</text>
<polyline fill="none" stroke="#bfbfbf" points="302,-248 429,-248 "/>
<text text-anchor="middle" x="365.5" y="-236" font-family="Helvetica,sans-Serif" font-size="10.00"> </text>
<polyline fill="none" stroke="#bfbfbf" points="302,-229 429,-229 "/>
<text text-anchor="middle" x="365.5" y="-217" font-family="Helvetica,sans-Serif" font-size="10.00"> </text>
</g>
<!-- Node3&#45;&gt;Node1 -->
<g id="edge2" class="edge"><title>Node3&#45;&gt;Node1</title>
<path fill="none" stroke="#404040" d="M352.61,-209.979C346.979,-197.955 340.028,-183.113 332.855,-167.799"/>
<polygon fill="none" stroke="#404040" points="332.699,-167.465 326.532,-163.728 327.609,-156.598 333.776,-160.335 332.699,-167.465"/>
<text text-anchor="middle" x="374" y="-178" font-family="Helvetica,sans-Serif" font-size="10.00"> #m_roadPoints</text>
</g>
<!-- Node4 -->
<g id="node4" class="node"><title>Node4</title>
<g id="a_node4"><a xlink:href="class_point_road.html" target="_top" xlink:title="{PointRoad\n|# m_id\l# m_isNode\l# counter\l|+ id()\l+ infos()\l+ isNode()\l+ outputInfos()\l+ PointRoad()\l+ PointRoad()\l+ setid()\l+ updateBelongToRoad()\l+ vectorOfRoadId()\l}">
<polygon fill="none" stroke="black" points="303,-320.5 303,-487.5 428,-487.5 428,-320.5 303,-320.5"/>
<text text-anchor="middle" x="365.5" y="-475.5" font-family="Helvetica,sans-Serif" font-size="10.00">PointRoad</text>
<polyline fill="none" stroke="black" points="303,-468.5 428,-468.5 "/>
<text text-anchor="start" x="311" y="-456.5" font-family="Helvetica,sans-Serif" font-size="10.00"># m_id</text>
<text text-anchor="start" x="311" y="-445.5" font-family="Helvetica,sans-Serif" font-size="10.00"># m_isNode</text>
<text text-anchor="start" x="311" y="-434.5" font-family="Helvetica,sans-Serif" font-size="10.00"># counter</text>
<polyline fill="none" stroke="black" points="303,-427.5 428,-427.5 "/>
<text text-anchor="start" x="311" y="-415.5" font-family="Helvetica,sans-Serif" font-size="10.00">+ id()</text>
<text text-anchor="start" x="311" y="-404.5" font-family="Helvetica,sans-Serif" font-size="10.00">+ infos()</text>
<text text-anchor="start" x="311" y="-393.5" font-family="Helvetica,sans-Serif" font-size="10.00">+ isNode()</text>
<text text-anchor="start" x="311" y="-382.5" font-family="Helvetica,sans-Serif" font-size="10.00">+ outputInfos()</text>
<text text-anchor="start" x="311" y="-371.5" font-family="Helvetica,sans-Serif" font-size="10.00">+ PointRoad()</text>
<text text-anchor="start" x="311" y="-360.5" font-family="Helvetica,sans-Serif" font-size="10.00">+ PointRoad()</text>
<text text-anchor="start" x="311" y="-349.5" font-family="Helvetica,sans-Serif" font-size="10.00">+ setid()</text>
<text text-anchor="start" x="311" y="-338.5" font-family="Helvetica,sans-Serif" font-size="10.00">+ updateBelongToRoad()</text>
<text text-anchor="start" x="311" y="-327.5" font-family="Helvetica,sans-Serif" font-size="10.00">+ vectorOfRoadId()</text>
</a>
</g>
</g>
<!-- Node4&#45;&gt;Node3 -->
<g id="edge3" class="edge"><title>Node4&#45;&gt;Node3</title>
<path fill="none" stroke="#404040" d="M365.5,-320.292C365.5,-306.066 365.5,-291.879 365.5,-279.453"/>
<polygon fill="none" stroke="#404040" points="365.5,-279.215 361.5,-273.215 365.5,-267.215 369.5,-273.215 365.5,-279.215"/>
<text text-anchor="middle" x="390" y="-294" font-family="Helvetica,sans-Serif" font-size="10.00"> +elements</text>
</g>
<!-- Node5 -->
<g id="node5" class="node"><title>Node5</title>
<g id="a_node5"><a xlink:href="class_point.html" target="_top" xlink:title="The Point class. ">
<polygon fill="none" stroke="black" points="185,-535.5 185,-746.5 304,-746.5 304,-535.5 185,-535.5"/>
<text text-anchor="middle" x="244.5" y="-734.5" font-family="Helvetica,sans-Serif" font-size="10.00">Point</text>
<polyline fill="none" stroke="black" points="185,-727.5 304,-727.5 "/>
<text text-anchor="start" x="193" y="-715.5" font-family="Helvetica,sans-Serif" font-size="10.00"># POINT_RADIUS</text>
<polyline fill="none" stroke="black" points="185,-708.5 304,-708.5 "/>
<text text-anchor="start" x="193" y="-696.5" font-family="Helvetica,sans-Serif" font-size="10.00">+ distanceToPoint()</text>
<text text-anchor="start" x="193" y="-685.5" font-family="Helvetica,sans-Serif" font-size="10.00">+ distanceToSegment()</text>
<text text-anchor="start" x="193" y="-674.5" font-family="Helvetica,sans-Serif" font-size="10.00">+ infos()</text>
<text text-anchor="start" x="193" y="-663.5" font-family="Helvetica,sans-Serif" font-size="10.00">+ Point()</text>
<text text-anchor="start" x="193" y="-652.5" font-family="Helvetica,sans-Serif" font-size="10.00">+ Point()</text>
<text text-anchor="start" x="193" y="-641.5" font-family="Helvetica,sans-Serif" font-size="10.00">+ samePointAs()</text>
<text text-anchor="start" x="193" y="-630.5" font-family="Helvetica,sans-Serif" font-size="10.00">+ setx()</text>
<text text-anchor="start" x="193" y="-619.5" font-family="Helvetica,sans-Serif" font-size="10.00">+ x()</text>
<text text-anchor="start" x="193" y="-608.5" font-family="Helvetica,sans-Serif" font-size="10.00">+ ~Point()</text>
<text text-anchor="start" x="193" y="-597.5" font-family="Helvetica,sans-Serif" font-size="10.00">* x()</text>
<text text-anchor="start" x="193" y="-586.5" font-family="Helvetica,sans-Serif" font-size="10.00">* setx()</text>
<text text-anchor="start" x="193" y="-575.5" font-family="Helvetica,sans-Serif" font-size="10.00">* y()</text>
<text text-anchor="start" x="193" y="-564.5" font-family="Helvetica,sans-Serif" font-size="10.00">* sety()</text>
<text text-anchor="start" x="193" y="-553.5" font-family="Helvetica,sans-Serif" font-size="10.00">* m_x</text>
<text text-anchor="start" x="193" y="-542.5" font-family="Helvetica,sans-Serif" font-size="10.00">* m_y</text>
</a>
</g>
</g>
<!-- Node5&#45;&gt;Node4 -->
<g id="edge4" class="edge"><title>Node5&#45;&gt;Node4</title>
<path fill="none" stroke="midnightblue" d="M303.075,-526.239C309.763,-513.249 316.483,-500.198 322.907,-487.722"/>
<polygon fill="none" stroke="midnightblue" points="299.919,-524.722 298.453,-535.215 306.143,-527.926 299.919,-524.722"/>
</g>
<!-- Node8 -->
<g id="node8" class="node"><title>Node8</title>
<g id="a_node8"><a xlink:href="class_point_g_p_s.html" target="_top" xlink:title="{PointGPS\n|# m_altitude\l# m_timeStamp\l|+ addEmissionProbability()\l+ altitude()\l+ infos()\l+ PointGPS()\l+ PointGPS()\l+ timeStamp()\l}">
<polygon fill="none" stroke="black" points="150.5,-342.5 150.5,-465.5 284.5,-465.5 284.5,-342.5 150.5,-342.5"/>
<text text-anchor="middle" x="217.5" y="-453.5" font-family="Helvetica,sans-Serif" font-size="10.00">PointGPS</text>
<polyline fill="none" stroke="black" points="150.5,-446.5 284.5,-446.5 "/>
<text text-anchor="start" x="158.5" y="-434.5" font-family="Helvetica,sans-Serif" font-size="10.00"># m_altitude</text>
<text text-anchor="start" x="158.5" y="-423.5" font-family="Helvetica,sans-Serif" font-size="10.00"># m_timeStamp</text>
<polyline fill="none" stroke="black" points="150.5,-416.5 284.5,-416.5 "/>
<text text-anchor="start" x="158.5" y="-404.5" font-family="Helvetica,sans-Serif" font-size="10.00">+ addEmissionProbability()</text>
<text text-anchor="start" x="158.5" y="-393.5" font-family="Helvetica,sans-Serif" font-size="10.00">+ altitude()</text>
<text text-anchor="start" x="158.5" y="-382.5" font-family="Helvetica,sans-Serif" font-size="10.00">+ infos()</text>
<text text-anchor="start" x="158.5" y="-371.5" font-family="Helvetica,sans-Serif" font-size="10.00">+ PointGPS()</text>
<text text-anchor="start" x="158.5" y="-360.5" font-family="Helvetica,sans-Serif" font-size="10.00">+ PointGPS()</text>
<text text-anchor="start" x="158.5" y="-349.5" font-family="Helvetica,sans-Serif" font-size="10.00">+ timeStamp()</text>
</a>
</g>
</g>
<!-- Node5&#45;&gt;Node8 -->
<g id="edge8" class="edge"><title>Node5&#45;&gt;Node8</title>
<path fill="none" stroke="midnightblue" d="M231.306,-525.167C228.95,-504.659 226.581,-484.042 224.488,-465.818"/>
<polygon fill="none" stroke="midnightblue" points="227.842,-525.68 232.461,-535.215 234.796,-524.88 227.842,-525.68"/>
</g>
<!-- Node6 -->
<g id="node6" class="node"><title>Node6</title>
<polygon fill="none" stroke="#bfbfbf" points="322,-612.5 322,-669.5 421,-669.5 421,-612.5 322,-612.5"/>
<text text-anchor="middle" x="371.5" y="-657.5" font-family="Helvetica,sans-Serif" font-size="10.00">std::vector&lt; long &gt;</text>
<polyline fill="none" stroke="#bfbfbf" points="322,-650.5 421,-650.5 "/>
<text text-anchor="start" x="330" y="-638.5" font-family="Helvetica,sans-Serif" font-size="10.00">+ elements</text>
<polyline fill="none" stroke="#bfbfbf" points="322,-631.5 421,-631.5 "/>
<text text-anchor="middle" x="371.5" y="-619.5" font-family="Helvetica,sans-Serif" font-size="10.00"> </text>
</g>
<!-- Node6&#45;&gt;Node4 -->
<g id="edge5" class="edge"><title>Node6&#45;&gt;Node4</title>
<path fill="none" stroke="#404040" d="M370.788,-612.12C370.079,-584.349 368.95,-540.135 367.917,-499.676"/>
<polygon fill="none" stroke="#404040" points="367.914,-499.54 363.762,-493.644 367.607,-487.544 371.759,-493.44 367.914,-499.54"/>
<text text-anchor="middle" x="414" y="-509" font-family="Helvetica,sans-Serif" font-size="10.00"> #m_vectorOfRoadId</text>
</g>
<!-- Node7 -->
<g id="node7" class="node"><title>Node7</title>
<polygon fill="none" stroke="#bfbfbf" points="153,-210 153,-267 284,-267 284,-210 153,-210"/>
<text text-anchor="middle" x="218.5" y="-255" font-family="Helvetica,sans-Serif" font-size="10.00">std::vector&lt; PointGPS * &gt;</text>
<polyline fill="none" stroke="#bfbfbf" points="153,-248 284,-248 "/>
<text text-anchor="middle" x="218.5" y="-236" font-family="Helvetica,sans-Serif" font-size="10.00"> </text>
<polyline fill="none" stroke="#bfbfbf" points="153,-229 284,-229 "/>
<text text-anchor="middle" x="218.5" y="-217" font-family="Helvetica,sans-Serif" font-size="10.00"> </text>
</g>
<!-- Node7&#45;&gt;Node1 -->
<g id="edge6" class="edge"><title>Node7&#45;&gt;Node1</title>
<path fill="none" stroke="#404040" d="M231.216,-209.979C236.771,-197.955 243.628,-183.113 250.704,-167.799"/>
<polygon fill="none" stroke="#404040" points="250.846,-167.491 249.731,-160.367 255.879,-156.598 256.993,-163.722 250.846,-167.491"/>
<text text-anchor="middle" x="282.5" y="-178" font-family="Helvetica,sans-Serif" font-size="10.00"> #m_trackPoints</text>
</g>
<!-- Node8&#45;&gt;Node7 -->
<g id="edge7" class="edge"><title>Node8&#45;&gt;Node7</title>
<path fill="none" stroke="#404040" d="M217.872,-342.119C218.001,-321.068 218.142,-298.038 218.258,-279.139"/>
<polygon fill="none" stroke="#404040" points="218.258,-279.085 214.295,-273.061 218.331,-267.085 222.294,-273.11 218.258,-279.085"/>
<text text-anchor="middle" x="243" y="-294" font-family="Helvetica,sans-Serif" font-size="10.00"> +elements</text>
</g>
<!-- Node9 -->
<g id="node9" class="node"><title>Node9</title>
<polygon fill="none" stroke="#bfbfbf" points="0,-612.5 0,-669.5 167,-669.5 167,-612.5 0,-612.5"/>
<text text-anchor="middle" x="83.5" y="-657.5" font-family="Helvetica,sans-Serif" font-size="10.00">std::vector&lt; EmissionProbability &gt;</text>
<polyline fill="none" stroke="#bfbfbf" points="0,-650.5 167,-650.5 "/>
<text text-anchor="middle" x="83.5" y="-638.5" font-family="Helvetica,sans-Serif" font-size="10.00"> </text>
<polyline fill="none" stroke="#bfbfbf" points="0,-631.5 167,-631.5 "/>
<text text-anchor="middle" x="83.5" y="-619.5" font-family="Helvetica,sans-Serif" font-size="10.00"> </text>
</g>
<!-- Node9&#45;&gt;Node8 -->
<g id="edge9" class="edge"><title>Node9&#45;&gt;Node8</title>
<path fill="none" stroke="#404040" d="M86.4991,-612.251C90.4946,-583.998 99.4184,-539.682 118.5,-506 125.099,-494.351 133.379,-483.082 142.323,-472.56"/>
<polygon fill="none" stroke="#404040" points="142.376,-472.501 143.357,-465.357 150.329,-463.515 149.348,-470.659 142.376,-472.501"/>
<text text-anchor="middle" x="172" y="-509" font-family="Helvetica,sans-Serif" font-size="10.00"> #m_emissionProbability</text>
</g>
<!-- Node10 -->
<g id="node10" class="node"><title>Node10</title>
<g id="a_node10"><a xlink:href="class_emission_probability.html" target="_top" xlink:title="{EmissionProbability\n|# m_distance\l# m_probability\l# m_roadId\l|+ EmissionProbability()\l+ updateProbability()\l}">
<polygon fill="none" stroke="black" points="24.5,-794.5 24.5,-884.5 142.5,-884.5 142.5,-794.5 24.5,-794.5"/>
<text text-anchor="middle" x="83.5" y="-872.5" font-family="Helvetica,sans-Serif" font-size="10.00">EmissionProbability</text>
<polyline fill="none" stroke="black" points="24.5,-865.5 142.5,-865.5 "/>
<text text-anchor="start" x="32.5" y="-853.5" font-family="Helvetica,sans-Serif" font-size="10.00"># m_distance</text>
<text text-anchor="start" x="32.5" y="-842.5" font-family="Helvetica,sans-Serif" font-size="10.00"># m_probability</text>
<text text-anchor="start" x="32.5" y="-831.5" font-family="Helvetica,sans-Serif" font-size="10.00"># m_roadId</text>
<polyline fill="none" stroke="black" points="24.5,-824.5 142.5,-824.5 "/>
<text text-anchor="start" x="32.5" y="-812.5" font-family="Helvetica,sans-Serif" font-size="10.00">+ EmissionProbability()</text>
<text text-anchor="start" x="32.5" y="-801.5" font-family="Helvetica,sans-Serif" font-size="10.00">+ updateProbability()</text>
</a>
</g>
</g>
<!-- Node10&#45;&gt;Node9 -->
<g id="edge10" class="edge"><title>Node10&#45;&gt;Node9</title>
<path fill="none" stroke="#404040" d="M83.5,-794.402C83.5,-760.638 83.5,-714.465 83.5,-681.816"/>
<polygon fill="none" stroke="#404040" points="83.5001,-681.589 79.5,-675.589 83.5,-669.589 87.5,-675.589 83.5001,-681.589"/>
<text text-anchor="middle" x="108" y="-768" font-family="Helvetica,sans-Serif" font-size="10.00"> +elements</text>
</g>
<!-- Node11 -->
<g id="node11" class="node"><title>Node11</title>
<polygon fill="none" stroke="#bfbfbf" points="448,-204.5 448,-272.5 551,-272.5 551,-204.5 448,-204.5"/>
<text text-anchor="start" x="456" y="-260.5" font-family="Helvetica,sans-Serif" font-size="10.00">std::unordered_map</text>
<text text-anchor="middle" x="499.5" y="-249.5" font-family="Helvetica,sans-Serif" font-size="10.00">&lt; long, Road &gt;</text>
<polyline fill="none" stroke="#bfbfbf" points="448,-242.5 551,-242.5 "/>
<text text-anchor="start" x="456" y="-230.5" font-family="Helvetica,sans-Serif" font-size="10.00">+ keys</text>
<polyline fill="none" stroke="#bfbfbf" points="448,-223.5 551,-223.5 "/>
<text text-anchor="middle" x="499.5" y="-211.5" font-family="Helvetica,sans-Serif" font-size="10.00"> </text>
</g>
<!-- Node11&#45;&gt;Node1 -->
<g id="edge11" class="edge"><title>Node11&#45;&gt;Node1</title>
<path fill="none" stroke="#404040" d="M455.896,-204.378C426.856,-182.318 388.2,-152.955 355.669,-128.244"/>
<polygon fill="none" stroke="#404040" points="355.343,-127.997 348.146,-127.552 345.788,-120.738 352.985,-121.182 355.343,-127.997"/>
<text text-anchor="middle" x="449.5" y="-178" font-family="Helvetica,sans-Serif" font-size="10.00"> #m_roads</text>
</g>
<!-- Node12 -->
<g id="node12" class="node"><title>Node12</title>
<g id="a_node12"><a xlink:href="class_road.html" target="_top" xlink:title="Road is an element of a network. Road are strongly linked with Points. ">
<polygon fill="none" stroke="black" points="446,-320.5 446,-487.5 559,-487.5 559,-320.5 446,-320.5"/>
<text text-anchor="middle" x="502.5" y="-475.5" font-family="Helvetica,sans-Serif" font-size="10.00">Road</text>
<polyline fill="none" stroke="black" points="446,-468.5 559,-468.5 "/>
<text text-anchor="start" x="454" y="-456.5" font-family="Helvetica,sans-Serif" font-size="10.00"># m_edgeId</text>
<polyline fill="none" stroke="black" points="446,-449.5 559,-449.5 "/>
<text text-anchor="start" x="454" y="-437.5" font-family="Helvetica,sans-Serif" font-size="10.00">+ addNeighbor()</text>
<text text-anchor="start" x="454" y="-426.5" font-family="Helvetica,sans-Serif" font-size="10.00">+ addPoint()</text>
<text text-anchor="start" x="454" y="-415.5" font-family="Helvetica,sans-Serif" font-size="10.00">+ edgeId()</text>
<text text-anchor="start" x="454" y="-404.5" font-family="Helvetica,sans-Serif" font-size="10.00">+ getListOfPoints()</text>
<text text-anchor="start" x="454" y="-393.5" font-family="Helvetica,sans-Serif" font-size="10.00">+ getm_edgeId()</text>
<text text-anchor="start" x="454" y="-382.5" font-family="Helvetica,sans-Serif" font-size="10.00">+ getNoOfNeighbors()</text>
<text text-anchor="start" x="454" y="-371.5" font-family="Helvetica,sans-Serif" font-size="10.00">+ outputInfos()</text>
<text text-anchor="start" x="454" y="-360.5" font-family="Helvetica,sans-Serif" font-size="10.00">+ Road()</text>
<text text-anchor="start" x="454" y="-349.5" font-family="Helvetica,sans-Serif" font-size="10.00">+ Road()</text>
<text text-anchor="start" x="454" y="-338.5" font-family="Helvetica,sans-Serif" font-size="10.00">+ vectorOfPointsId()</text>
<text text-anchor="start" x="454" y="-327.5" font-family="Helvetica,sans-Serif" font-size="10.00">+ ~Road()</text>
</a>
</g>
</g>
<!-- Node12&#45;&gt;Node11 -->
<g id="edge12" class="edge"><title>Node12&#45;&gt;Node11</title>
<path fill="none" stroke="#404040" d="M500.982,-320.292C500.756,-307.977 500.531,-295.691 500.327,-284.551"/>
<polygon fill="none" stroke="#404040" points="500.326,-284.52 496.217,-278.594 500.106,-272.522 504.215,-278.448 500.326,-284.52"/>
<text text-anchor="middle" x="526" y="-294" font-family="Helvetica,sans-Serif" font-size="10.00"> +elements</text>
</g>
<!-- Node13 -->
<g id="node13" class="node"><title>Node13</title>
<polygon fill="none" stroke="#bfbfbf" points="453.5,-612.5 453.5,-669.5 539.5,-669.5 539.5,-612.5 453.5,-612.5"/>
<text text-anchor="middle" x="496.5" y="-657.5" font-family="Helvetica,sans-Serif" font-size="10.00">std::set&lt; long &gt;</text>
<polyline fill="none" stroke="#bfbfbf" points="453.5,-650.5 539.5,-650.5 "/>
<text text-anchor="start" x="461.5" y="-638.5" font-family="Helvetica,sans-Serif" font-size="10.00">+ keys</text>
<polyline fill="none" stroke="#bfbfbf" points="453.5,-631.5 539.5,-631.5 "/>
<text text-anchor="middle" x="496.5" y="-619.5" font-family="Helvetica,sans-Serif" font-size="10.00"> </text>
</g>
<!-- Node13&#45;&gt;Node12 -->
<g id="edge13" class="edge"><title>Node13&#45;&gt;Node12</title>
<path fill="none" stroke="#404040" d="M496.368,-612.277C496.318,-585.175 496.454,-542.743 497.5,-506 497.558,-503.949 497.622,-501.875 497.69,-499.784"/>
<polygon fill="none" stroke="#404040" points="497.694,-499.66 493.912,-493.52 498.124,-487.667 501.907,-493.807 497.694,-499.66"/>
<text text-anchor="middle" x="543" y="-509" font-family="Helvetica,sans-Serif" font-size="10.00"> #m_setOfNeighbors</text>
</g>
<!-- Node14 -->
<g id="node14" class="node"><title>Node14</title>
<polygon fill="none" stroke="#bfbfbf" points="564.5,-612.5 564.5,-669.5 656.5,-669.5 656.5,-612.5 564.5,-612.5"/>
<text text-anchor="middle" x="610.5" y="-657.5" font-family="Helvetica,sans-Serif" font-size="10.00">std::vector&lt; int &gt;</text>
<polyline fill="none" stroke="#bfbfbf" points="564.5,-650.5 656.5,-650.5 "/>
<text text-anchor="start" x="572.5" y="-638.5" font-family="Helvetica,sans-Serif" font-size="10.00">+ elements</text>
<polyline fill="none" stroke="#bfbfbf" points="564.5,-631.5 656.5,-631.5 "/>
<text text-anchor="middle" x="610.5" y="-619.5" font-family="Helvetica,sans-Serif" font-size="10.00"> </text>
</g>
<!-- Node14&#45;&gt;Node12 -->
<g id="edge14" class="edge"><title>Node14&#45;&gt;Node12</title>
<path fill="none" stroke="#404040" d="M610.243,-612.302C609.02,-584.285 604.413,-540.33 588.5,-506 582.77,-493.637 575.094,-481.594 566.678,-470.382"/>
<polygon fill="none" stroke="#404040" points="566.533,-470.196 559.681,-467.947 559.123,-460.757 565.974,-463.007 566.533,-470.196"/>
<text text-anchor="middle" x="641.5" y="-509" font-family="Helvetica,sans-Serif" font-size="10.00"> #m_vectorOfPointsId</text>
</g>
</g>
</svg>
