<?xml version="1.0" encoding="UTF-8" standalone="no"?>
<!DOCTYPE svg PUBLIC "-//W3C//DTD SVG 1.1//EN"
 "http://www.w3.org/Graphics/SVG/1.1/DTD/svg11.dtd">
<!-- Generated by graphviz version 2.38.0 (20140413.2041)
 -->
<!-- Title: Road::getIntersectionIDWith Pages: 1 -->
<svg width="337pt" height="66pt"
 viewBox="0.00 0.00 337.00 66.00" xmlns="http://www.w3.org/2000/svg" xmlns:xlink="http://www.w3.org/1999/xlink">
<g id="graph0" class="graph" transform="scale(1 1) rotate(0) translate(4 62)">
<title>Road::getIntersectionIDWith</title>
<!-- Node1 -->
<g id="node1" class="node"><title>Node1</title>
<polygon fill="#bfbfbf" stroke="black" points="0,-19.5 0,-38.5 141,-38.5 141,-19.5 0,-19.5"/>
<text text-anchor="middle" x="70.5" y="-26.5" font-family="Helvetica,sans-Serif" font-size="10.00">Road::getIntersectionIDWith</text>
</g>
<!-- Node2 -->
<g id="node2" class="node"><title>Node2</title>
<g id="a_node2"><a xlink:href="class_grid.html#afc6f21c3514d66d3ce16765ccb97411e" target="_top" xlink:title="Grid::computeDistanceFraction">
<polygon fill="none" stroke="black" points="177,-38.5 177,-57.5 329,-57.5 329,-38.5 177,-38.5"/>
<text text-anchor="middle" x="253" y="-45.5" font-family="Helvetica,sans-Serif" font-size="10.00">Grid::computeDistanceFraction</text>
</a>
</g>
</g>
<!-- Node1&#45;&gt;Node2 -->
<g id="edge1" class="edge"><title>Node1&#45;&gt;Node2</title>
<path fill="none" stroke="midnightblue" d="M151.014,-37.3698C159.587,-38.2724 168.292,-39.1887 176.813,-40.0856"/>
<polygon fill="midnightblue" stroke="midnightblue" points="151.339,-33.8849 141.028,-36.3187 150.606,-40.8464 151.339,-33.8849"/>
</g>
<!-- Node3 -->
<g id="node3" class="node"><title>Node3</title>
<g id="a_node3"><a xlink:href="class_road.html#ae27e2447c9236e0b432cbb8ebf0222f3" target="_top" xlink:title="Constructor. Instanciates a Road object with a specific ID. ">
<polygon fill="none" stroke="black" points="218.5,-0.5 218.5,-19.5 287.5,-19.5 287.5,-0.5 218.5,-0.5"/>
<text text-anchor="middle" x="253" y="-7.5" font-family="Helvetica,sans-Serif" font-size="10.00">Road::Road</text>
</a>
</g>
</g>
<!-- Node1&#45;&gt;Node3 -->
<g id="edge2" class="edge"><title>Node1&#45;&gt;Node3</title>
<path fill="none" stroke="midnightblue" d="M151.033,-20.6282C174.562,-18.1514 199.077,-15.5708 218.058,-13.5728"/>
<polygon fill="midnightblue" stroke="midnightblue" points="150.606,-17.1536 141.028,-21.6813 151.339,-24.1151 150.606,-17.1536"/>
</g>
</g>
</svg>
