<?xml version="1.0" encoding="UTF-8" standalone="no"?>
<!DOCTYPE svg PUBLIC "-//W3C//DTD SVG 1.1//EN"
 "http://www.w3.org/Graphics/SVG/1.1/DTD/svg11.dtd">
<!-- Generated by graphviz version 2.38.0 (20140413.2041)
 -->
<!-- Title: Loading Pages: 1 -->
<svg width="194pt" height="501pt"
 viewBox="0.00 0.00 194.00 501.00" xmlns="http://www.w3.org/2000/svg" xmlns:xlink="http://www.w3.org/1999/xlink">
<g id="graph0" class="graph" transform="scale(1 1) rotate(0) translate(4 497)">
<title>Loading</title>
<!-- Node1 -->
<g id="node1" class="node"><title>Node1</title>
<polygon fill="#bfbfbf" stroke="black" points="23,-0.5 23,-277.5 134,-277.5 134,-0.5 23,-0.5"/>
<text text-anchor="middle" x="78.5" y="-265.5" font-family="Helvetica,sans-Serif" font-size="10.00">Loading</text>
<polyline fill="none" stroke="black" points="23,-258.5 134,-258.5 "/>
<text text-anchor="start" x="31" y="-246.5" font-family="Helvetica,sans-Serif" font-size="10.00">&#45; m_boutonXY</text>
<text text-anchor="start" x="31" y="-235.5" font-family="Helvetica,sans-Serif" font-size="10.00">&#45; m_country</text>
<text text-anchor="start" x="31" y="-224.5" font-family="Helvetica,sans-Serif" font-size="10.00">&#45; m_csvGrid</text>
<text text-anchor="start" x="31" y="-213.5" font-family="Helvetica,sans-Serif" font-size="10.00">&#45; m_csvTrack</text>
<text text-anchor="start" x="31" y="-202.5" font-family="Helvetica,sans-Serif" font-size="10.00">&#45; m_fileGPS</text>
<text text-anchor="start" x="31" y="-191.5" font-family="Helvetica,sans-Serif" font-size="10.00">&#45; m_fileGrid</text>
<text text-anchor="start" x="31" y="-180.5" font-family="Helvetica,sans-Serif" font-size="10.00">&#45; m_fr</text>
<text text-anchor="start" x="31" y="-169.5" font-family="Helvetica,sans-Serif" font-size="10.00">&#45; m_grid</text>
<text text-anchor="start" x="31" y="-158.5" font-family="Helvetica,sans-Serif" font-size="10.00">&#45; m_shpTrack</text>
<text text-anchor="start" x="31" y="-147.5" font-family="Helvetica,sans-Serif" font-size="10.00">&#45; m_track</text>
<text text-anchor="start" x="31" y="-136.5" font-family="Helvetica,sans-Serif" font-size="10.00">&#45; m_usa</text>
<text text-anchor="start" x="31" y="-125.5" font-family="Helvetica,sans-Serif" font-size="10.00">&#45; nextOk</text>
<polyline fill="none" stroke="black" points="23,-118.5 134,-118.5 "/>
<text text-anchor="start" x="31" y="-106.5" font-family="Helvetica,sans-Serif" font-size="10.00">+ Loading()</text>
<text text-anchor="start" x="31" y="-95.5" font-family="Helvetica,sans-Serif" font-size="10.00">+ ~Loading()</text>
<text text-anchor="start" x="31" y="-84.5" font-family="Helvetica,sans-Serif" font-size="10.00">+ getCountry()</text>
<text text-anchor="start" x="31" y="-73.5" font-family="Helvetica,sans-Serif" font-size="10.00">+ loadFileCSVTrack()</text>
<text text-anchor="start" x="31" y="-62.5" font-family="Helvetica,sans-Serif" font-size="10.00">+ loadFileGrid()</text>
<text text-anchor="start" x="31" y="-51.5" font-family="Helvetica,sans-Serif" font-size="10.00">+ loadFileSHPTrack()</text>
<text text-anchor="start" x="31" y="-40.5" font-family="Helvetica,sans-Serif" font-size="10.00">&#45; country()</text>
<text text-anchor="start" x="31" y="-29.5" font-family="Helvetica,sans-Serif" font-size="10.00">&#45; grid()</text>
<text text-anchor="start" x="31" y="-18.5" font-family="Helvetica,sans-Serif" font-size="10.00">&#45; launchFiles()</text>
<text text-anchor="start" x="31" y="-7.5" font-family="Helvetica,sans-Serif" font-size="10.00">&#45; track()</text>
</g>
<!-- Node2 -->
<g id="node2" class="node"><title>Node2</title>
<polygon fill="none" stroke="#bfbfbf" points="0,-391.5 0,-448.5 55,-448.5 55,-391.5 0,-391.5"/>
<text text-anchor="middle" x="27.5" y="-436.5" font-family="Helvetica,sans-Serif" font-size="10.00">QWidget</text>
<polyline fill="none" stroke="#bfbfbf" points="0,-429.5 55,-429.5 "/>
<text text-anchor="middle" x="27.5" y="-417.5" font-family="Helvetica,sans-Serif" font-size="10.00"> </text>
<polyline fill="none" stroke="#bfbfbf" points="0,-410.5 55,-410.5 "/>
<text text-anchor="middle" x="27.5" y="-398.5" font-family="Helvetica,sans-Serif" font-size="10.00"> </text>
</g>
<!-- Node2&#45;&gt;Node1 -->
<g id="edge1" class="edge"><title>Node2&#45;&gt;Node1</title>
<path fill="none" stroke="midnightblue" d="M34.3886,-381.315C39.3422,-354.216 46.3531,-315.862 53.3311,-277.689"/>
<polygon fill="none" stroke="midnightblue" points="30.8849,-381.018 32.5297,-391.485 37.7708,-382.277 30.8849,-381.018"/>
</g>
<!-- Node3 -->
<g id="node3" class="node"><title>Node3</title>
<g id="a_node3"><a xlink:href="class_file.html" target="_top" xlink:title="The File class. ">
<polygon fill="none" stroke="black" points="73,-347.5 73,-492.5 186,-492.5 186,-347.5 73,-347.5"/>
<text text-anchor="middle" x="129.5" y="-480.5" font-family="Helvetica,sans-Serif" font-size="10.00">File</text>
<polyline fill="none" stroke="black" points="73,-473.5 186,-473.5 "/>
<text text-anchor="middle" x="129.5" y="-461.5" font-family="Helvetica,sans-Serif" font-size="10.00"> </text>
<polyline fill="none" stroke="black" points="73,-454.5 186,-454.5 "/>
<text text-anchor="start" x="81" y="-442.5" font-family="Helvetica,sans-Serif" font-size="10.00">+ File()</text>
<text text-anchor="start" x="81" y="-431.5" font-family="Helvetica,sans-Serif" font-size="10.00">+ selectFilesToOpen()</text>
<text text-anchor="start" x="81" y="-420.5" font-family="Helvetica,sans-Serif" font-size="10.00">+ shp2csv()</text>
<text text-anchor="start" x="81" y="-409.5" font-family="Helvetica,sans-Serif" font-size="10.00">+ splitPath()</text>
<text text-anchor="start" x="81" y="-398.5" font-family="Helvetica,sans-Serif" font-size="10.00">+ whereSave()</text>
<text text-anchor="start" x="81" y="-387.5" font-family="Helvetica,sans-Serif" font-size="10.00">+ ~File()</text>
<text text-anchor="start" x="81" y="-376.5" font-family="Helvetica,sans-Serif" font-size="10.00">* filePath</text>
<text text-anchor="start" x="81" y="-365.5" font-family="Helvetica,sans-Serif" font-size="10.00">* fileName</text>
<text text-anchor="start" x="81" y="-354.5" font-family="Helvetica,sans-Serif" font-size="10.00">* fileExtension</text>
</a>
</g>
</g>
<!-- Node3&#45;&gt;Node1 -->
<g id="edge2" class="edge"><title>Node3&#45;&gt;Node1</title>
<path fill="none" stroke="#404040" d="M116.366,-347.151C113.11,-329.335 109.498,-309.577 105.835,-289.541"/>
<polygon fill="none" stroke="#404040" points="105.833,-289.529 100.82,-284.346 103.675,-277.725 108.689,-282.908 105.833,-289.529"/>
<text text-anchor="middle" x="146.5" y="-321" font-family="Helvetica,sans-Serif" font-size="10.00"> +fileCSVTrack</text>
<text text-anchor="middle" x="146.5" y="-310" font-family="Helvetica,sans-Serif" font-size="10.00">+fileSHPGrid</text>
<text text-anchor="middle" x="146.5" y="-299" font-family="Helvetica,sans-Serif" font-size="10.00">+fileSHPTrack</text>
</g>
</g>
</svg>
