<?xml version="1.0" encoding="UTF-8" standalone="no"?>
<!DOCTYPE svg PUBLIC "-//W3C//DTD SVG 1.1//EN"
 "http://www.w3.org/Graphics/SVG/1.1/DTD/svg11.dtd">
<!-- Generated by graphviz version 2.38.0 (20140413.2041)
 -->
<!-- Title: KDTree::KDTree Pages: 1 -->
<svg width="311pt" height="66pt"
 viewBox="0.00 0.00 311.00 66.00" xmlns="http://www.w3.org/2000/svg" xmlns:xlink="http://www.w3.org/1999/xlink">
<g id="graph0" class="graph" transform="scale(1 1) rotate(0) translate(4 62)">
<title>KDTree::KDTree</title>
<!-- Node1 -->
<g id="node1" class="node"><title>Node1</title>
<polygon fill="#bfbfbf" stroke="black" points="0,-19.5 0,-38.5 90,-38.5 90,-19.5 0,-19.5"/>
<text text-anchor="middle" x="45" y="-26.5" font-family="Helvetica,sans-Serif" font-size="10.00">KDTree::KDTree</text>
</g>
<!-- Node2 -->
<g id="node2" class="node"><title>Node2</title>
<g id="a_node2"><a xlink:href="class_k_d_tree.html#adc2bb09f80006a59dafc094b76d92b09" target="_top" xlink:title="KDTree::partition">
<polygon fill="none" stroke="black" points="126,-38.5 126,-57.5 217,-57.5 217,-38.5 126,-38.5"/>
<text text-anchor="middle" x="171.5" y="-45.5" font-family="Helvetica,sans-Serif" font-size="10.00">KDTree::partition</text>
</a>
</g>
</g>
<!-- Node1&#45;&gt;Node2 -->
<g id="edge1" class="edge"><title>Node1&#45;&gt;Node2</title>
<path fill="none" stroke="midnightblue" d="M90.2446,-35.7522C98.5836,-37.0248 107.394,-38.3694 116.004,-39.6833"/>
<polygon fill="midnightblue" stroke="midnightblue" points="115.565,-43.1568 125.978,-41.2055 116.621,-36.2369 115.565,-43.1568"/>
</g>
<!-- Node3 -->
<g id="node3" class="node"><title>Node3</title>
<g id="a_node3"><a xlink:href="class_point.html#a6f6a42c3b4bfe6e7e5ccb502788227d6" target="_top" xlink:title="Point::setx">
<polygon fill="none" stroke="black" points="139.5,-0.5 139.5,-19.5 203.5,-19.5 203.5,-0.5 139.5,-0.5"/>
<text text-anchor="middle" x="171.5" y="-7.5" font-family="Helvetica,sans-Serif" font-size="10.00">Point::setx</text>
</a>
</g>
</g>
<!-- Node1&#45;&gt;Node3 -->
<g id="edge2" class="edge"><title>Node1&#45;&gt;Node3</title>
<path fill="none" stroke="midnightblue" d="M90.2446,-22.2478C102.913,-20.3145 116.669,-18.2152 129.156,-16.3096"/>
<polygon fill="midnightblue" stroke="midnightblue" points="129.937,-19.731 139.294,-14.7623 128.881,-12.8111 129.937,-19.731"/>
</g>
<!-- Node4 -->
<g id="node4" class="node"><title>Node4</title>
<g id="a_node4"><a xlink:href="class_point.html#a3eef47b1c4849b3395a8f9c658ca7c4a" target="_top" xlink:title="Point::x">
<polygon fill="none" stroke="black" points="253,-0.5 253,-19.5 303,-19.5 303,-0.5 253,-0.5"/>
<text text-anchor="middle" x="278" y="-7.5" font-family="Helvetica,sans-Serif" font-size="10.00">Point::x</text>
</a>
</g>
</g>
<!-- Node3&#45;&gt;Node4 -->
<g id="edge3" class="edge"><title>Node3&#45;&gt;Node4</title>
<path fill="none" stroke="midnightblue" d="M203.571,-10C215.885,-10 230.089,-10 242.704,-10"/>
<polygon fill="midnightblue" stroke="midnightblue" points="242.85,-13.5001 252.85,-10 242.85,-6.5001 242.85,-13.5001"/>
</g>
</g>
</svg>
