<?xml version="1.0" encoding="UTF-8" standalone="no"?>
<!DOCTYPE svg PUBLIC "-//W3C//DTD SVG 1.1//EN"
 "http://www.w3.org/Graphics/SVG/1.1/DTD/svg11.dtd">
<!-- Generated by graphviz version 2.38.0 (20140413.2041)
 -->
<!-- Title: controller.cpp Pages: 1 -->
<svg width="2004pt" height="476pt"
 viewBox="0.00 0.00 2003.50 476.00" xmlns="http://www.w3.org/2000/svg" xmlns:xlink="http://www.w3.org/1999/xlink">
<g id="graph0" class="graph" transform="scale(1 1) rotate(0) translate(4 472)">
<title>controller.cpp</title>
<!-- Node1 -->
<g id="node1" class="node"><title>Node1</title>
<polygon fill="#bfbfbf" stroke="black" points="455,-448.5 455,-467.5 530,-467.5 530,-448.5 455,-448.5"/>
<text text-anchor="middle" x="492.5" y="-455.5" font-family="Helvetica,sans-Serif" font-size="10.00">controller.cpp</text>
</g>
<!-- Node2 -->
<g id="node2" class="node"><title>Node2</title>
<g id="a_node2"><a xlink:href="controller_8h.html" target="_top" xlink:title="controller.h">
<polygon fill="none" stroke="black" points="460,-392.5 460,-411.5 525,-411.5 525,-392.5 460,-392.5"/>
<text text-anchor="middle" x="492.5" y="-399.5" font-family="Helvetica,sans-Serif" font-size="10.00">controller.h</text>
</a>
</g>
</g>
<!-- Node1&#45;&gt;Node2 -->
<g id="edge1" class="edge"><title>Node1&#45;&gt;Node2</title>
<path fill="none" stroke="midnightblue" d="M492.5,-448.083C492.5,-441.006 492.5,-430.861 492.5,-421.986"/>
<polygon fill="midnightblue" stroke="midnightblue" points="496,-421.751 492.5,-411.751 489,-421.751 496,-421.751"/>
</g>
<!-- Node3 -->
<g id="node3" class="node"><title>Node3</title>
<g id="a_node3"><a xlink:href="qprocessviewer_8h.html" target="_top" xlink:title="qprocessviewer.h">
<polygon fill="none" stroke="black" points="115,-336.5 115,-355.5 208,-355.5 208,-336.5 115,-336.5"/>
<text text-anchor="middle" x="161.5" y="-343.5" font-family="Helvetica,sans-Serif" font-size="10.00">qprocessviewer.h</text>
</a>
</g>
</g>
<!-- Node2&#45;&gt;Node3 -->
<g id="edge2" class="edge"><title>Node2&#45;&gt;Node3</title>
<path fill="none" stroke="midnightblue" d="M459.857,-395.674C403.583,-386.494 287.662,-367.582 218.04,-356.224"/>
<polygon fill="midnightblue" stroke="midnightblue" points="218.55,-352.761 208.117,-354.605 217.423,-359.67 218.55,-352.761"/>
</g>
<!-- Node7 -->
<g id="node7" class="node"><title>Node7</title>
<g id="a_node7"><a xlink:href="qmapviewer_8h.html" target="_top" xlink:title="qmapviewer.h">
<polygon fill="none" stroke="black" points="454,-168.5 454,-187.5 531,-187.5 531,-168.5 454,-168.5"/>
<text text-anchor="middle" x="492.5" y="-175.5" font-family="Helvetica,sans-Serif" font-size="10.00">qmapviewer.h</text>
</a>
</g>
</g>
<!-- Node2&#45;&gt;Node7 -->
<g id="edge6" class="edge"><title>Node2&#45;&gt;Node7</title>
<path fill="none" stroke="midnightblue" d="M492.5,-392.297C492.5,-359.633 492.5,-243.866 492.5,-197.957"/>
<polygon fill="midnightblue" stroke="midnightblue" points="496,-197.884 492.5,-187.884 489,-197.884 496,-197.884"/>
</g>
<!-- Node18 -->
<g id="node18" class="node"><title>Node18</title>
<g id="a_node18"><a xlink:href="qmapwidget_8h.html" target="_top" xlink:title="qmapwidget.h">
<polygon fill="none" stroke="black" points="334,-336.5 334,-355.5 411,-355.5 411,-336.5 334,-336.5"/>
<text text-anchor="middle" x="372.5" y="-343.5" font-family="Helvetica,sans-Serif" font-size="10.00">qmapwidget.h</text>
</a>
</g>
</g>
<!-- Node2&#45;&gt;Node18 -->
<g id="edge18" class="edge"><title>Node2&#45;&gt;Node18</title>
<path fill="none" stroke="midnightblue" d="M473.486,-392.444C453.912,-383.636 423.192,-369.812 400.771,-359.722"/>
<polygon fill="midnightblue" stroke="midnightblue" points="401.981,-356.428 391.425,-355.516 399.108,-362.812 401.981,-356.428"/>
</g>
<!-- Node28 -->
<g id="node28" class="node"><title>Node28</title>
<polygon fill="none" stroke="#bfbfbf" points="1485,-112.5 1485,-131.5 1538,-131.5 1538,-112.5 1485,-112.5"/>
<text text-anchor="middle" x="1511.5" y="-119.5" font-family="Helvetica,sans-Serif" font-size="10.00">QObject</text>
</g>
<!-- Node2&#45;&gt;Node28 -->
<g id="edge74" class="edge"><title>Node2&#45;&gt;Node28</title>
<path fill="none" stroke="midnightblue" d="M525.277,-400.955C698.922,-400.296 1503.5,-391.803 1503.5,-291 1503.5,-291 1503.5,-291 1503.5,-233 1503.5,-200.863 1506.94,-163.584 1509.31,-141.719"/>
<polygon fill="midnightblue" stroke="midnightblue" points="1512.81,-141.872 1510.45,-131.542 1505.86,-141.087 1512.81,-141.872"/>
</g>
<!-- Node34 -->
<g id="node34" class="node"><title>Node34</title>
<g id="a_node34"><a xlink:href="solver_8h.html" target="_top" xlink:title="solver.h">
<polygon fill="none" stroke="black" points="1048,-336.5 1048,-355.5 1099,-355.5 1099,-336.5 1048,-336.5"/>
<text text-anchor="middle" x="1073.5" y="-343.5" font-family="Helvetica,sans-Serif" font-size="10.00">solver.h</text>
</a>
</g>
</g>
<!-- Node2&#45;&gt;Node34 -->
<g id="edge49" class="edge"><title>Node2&#45;&gt;Node34</title>
<path fill="none" stroke="midnightblue" d="M525.402,-397.942C626.59,-388.537 932.667,-360.09 1037.68,-350.329"/>
<polygon fill="midnightblue" stroke="midnightblue" points="1038.14,-353.802 1047.77,-349.391 1037.49,-346.832 1038.14,-353.802"/>
</g>
<!-- Node4 -->
<g id="node4" class="node"><title>Node4</title>
<polygon fill="none" stroke="#bfbfbf" points="0,-280.5 0,-299.5 75,-299.5 75,-280.5 0,-280.5"/>
<text text-anchor="middle" x="37.5" y="-287.5" font-family="Helvetica,sans-Serif" font-size="10.00">QPushButton</text>
</g>
<!-- Node3&#45;&gt;Node4 -->
<g id="edge3" class="edge"><title>Node3&#45;&gt;Node4</title>
<path fill="none" stroke="midnightblue" d="M141.852,-336.444C121.535,-327.596 89.5972,-313.687 66.4023,-303.586"/>
<polygon fill="midnightblue" stroke="midnightblue" points="67.6221,-300.3 57.0562,-299.516 64.8271,-306.718 67.6221,-300.3"/>
</g>
<!-- Node5 -->
<g id="node5" class="node"><title>Node5</title>
<polygon fill="none" stroke="#bfbfbf" points="93,-280.5 93,-299.5 154,-299.5 154,-280.5 93,-280.5"/>
<text text-anchor="middle" x="123.5" y="-287.5" font-family="Helvetica,sans-Serif" font-size="10.00">QTextEdit</text>
</g>
<!-- Node3&#45;&gt;Node5 -->
<g id="edge4" class="edge"><title>Node3&#45;&gt;Node5</title>
<path fill="none" stroke="midnightblue" d="M155.225,-336.083C149.858,-328.455 141.982,-317.264 135.421,-307.941"/>
<polygon fill="midnightblue" stroke="midnightblue" points="138.275,-305.915 129.658,-299.751 132.551,-309.943 138.275,-305.915"/>
</g>
<!-- Node6 -->
<g id="node6" class="node"><title>Node6</title>
<polygon fill="none" stroke="#bfbfbf" points="172,-280.5 172,-299.5 227,-299.5 227,-280.5 172,-280.5"/>
<text text-anchor="middle" x="199.5" y="-287.5" font-family="Helvetica,sans-Serif" font-size="10.00">QWidget</text>
</g>
<!-- Node3&#45;&gt;Node6 -->
<g id="edge5" class="edge"><title>Node3&#45;&gt;Node6</title>
<path fill="none" stroke="midnightblue" d="M167.775,-336.083C173.142,-328.455 181.018,-317.264 187.579,-307.941"/>
<polygon fill="midnightblue" stroke="midnightblue" points="190.449,-309.943 193.342,-299.751 184.725,-305.915 190.449,-309.943"/>
</g>
<!-- Node8 -->
<g id="node8" class="node"><title>Node8</title>
<polygon fill="none" stroke="#bfbfbf" points="467,-112.5 467,-131.5 518,-131.5 518,-112.5 467,-112.5"/>
<text text-anchor="middle" x="492.5" y="-119.5" font-family="Helvetica,sans-Serif" font-size="10.00">QImage</text>
</g>
<!-- Node7&#45;&gt;Node8 -->
<g id="edge7" class="edge"><title>Node7&#45;&gt;Node8</title>
<path fill="none" stroke="midnightblue" d="M492.5,-168.083C492.5,-161.006 492.5,-150.861 492.5,-141.986"/>
<polygon fill="midnightblue" stroke="midnightblue" points="496,-141.751 492.5,-131.751 489,-141.751 496,-141.751"/>
</g>
<!-- Node9 -->
<g id="node9" class="node"><title>Node9</title>
<polygon fill="none" stroke="#bfbfbf" points="536,-112.5 536,-131.5 593,-131.5 593,-112.5 536,-112.5"/>
<text text-anchor="middle" x="564.5" y="-119.5" font-family="Helvetica,sans-Serif" font-size="10.00">QPixmap</text>
</g>
<!-- Node7&#45;&gt;Node9 -->
<g id="edge8" class="edge"><title>Node7&#45;&gt;Node9</title>
<path fill="none" stroke="midnightblue" d="M504.068,-168.324C514.92,-160.185 531.381,-147.839 544.383,-138.087"/>
<polygon fill="midnightblue" stroke="midnightblue" points="546.821,-140.634 552.721,-131.834 542.621,-135.034 546.821,-140.634"/>
</g>
<!-- Node10 -->
<g id="node10" class="node"><title>Node10</title>
<polygon fill="none" stroke="#bfbfbf" points="394,-112.5 394,-131.5 449,-131.5 449,-112.5 394,-112.5"/>
<text text-anchor="middle" x="421.5" y="-119.5" font-family="Helvetica,sans-Serif" font-size="10.00">QPainter</text>
</g>
<!-- Node7&#45;&gt;Node10 -->
<g id="edge9" class="edge"><title>Node7&#45;&gt;Node10</title>
<path fill="none" stroke="midnightblue" d="M481.093,-168.324C470.391,-160.185 454.159,-147.839 441.337,-138.087"/>
<polygon fill="midnightblue" stroke="midnightblue" points="443.193,-135.102 433.115,-131.834 438.956,-140.673 443.193,-135.102"/>
</g>
<!-- Node11 -->
<g id="node11" class="node"><title>Node11</title>
<polygon fill="none" stroke="#bfbfbf" points="1416.5,-112.5 1416.5,-131.5 1466.5,-131.5 1466.5,-112.5 1416.5,-112.5"/>
<text text-anchor="middle" x="1441.5" y="-119.5" font-family="Helvetica,sans-Serif" font-size="10.00">QString</text>
</g>
<!-- Node7&#45;&gt;Node11 -->
<g id="edge10" class="edge"><title>Node7&#45;&gt;Node11</title>
<path fill="none" stroke="midnightblue" d="M531.18,-176.178C679.84,-172.854 1215.24,-159.331 1406.44,-131.772"/>
<polygon fill="midnightblue" stroke="midnightblue" points="1407.01,-135.227 1416.37,-130.279 1405.96,-128.305 1407.01,-135.227"/>
</g>
<!-- Node12 -->
<g id="node12" class="node"><title>Node12</title>
<polygon fill="none" stroke="#bfbfbf" points="963.5,-0.5 963.5,-19.5 1017.5,-19.5 1017.5,-0.5 963.5,-0.5"/>
<text text-anchor="middle" x="990.5" y="-7.5" font-family="Helvetica,sans-Serif" font-size="10.00">iostream</text>
</g>
<!-- Node7&#45;&gt;Node12 -->
<g id="edge11" class="edge"><title>Node7&#45;&gt;Node12</title>
<path fill="none" stroke="midnightblue" d="M525.956,-168.457C549.106,-161.379 579.722,-149.598 602.5,-132 635.912,-106.186 623.096,-77.3888 659.5,-56 708.689,-27.0996 877.777,-16.042 953.416,-12.4715"/>
<polygon fill="midnightblue" stroke="midnightblue" points="953.615,-15.9662 963.446,-12.0163 953.298,-8.97338 953.615,-15.9662"/>
</g>
<!-- Node13 -->
<g id="node13" class="node"><title>Node13</title>
<polygon fill="none" stroke="#bfbfbf" points="1057,-112.5 1057,-131.5 1098,-131.5 1098,-112.5 1057,-112.5"/>
<text text-anchor="middle" x="1077.5" y="-119.5" font-family="Helvetica,sans-Serif" font-size="10.00">string</text>
</g>
<!-- Node7&#45;&gt;Node13 -->
<g id="edge12" class="edge"><title>Node7&#45;&gt;Node13</title>
<path fill="none" stroke="midnightblue" d="M531.337,-173.415C640.424,-163.345 948.073,-134.947 1046.68,-125.845"/>
<polygon fill="midnightblue" stroke="midnightblue" points="1047.23,-129.309 1056.87,-124.905 1046.59,-122.339 1047.23,-129.309"/>
</g>
<!-- Node14 -->
<g id="node14" class="node"><title>Node14</title>
<g id="a_node14"><a xlink:href="point_g_p_s_8h.html" target="_top" xlink:title="pointGPS.h">
<polygon fill="none" stroke="black" points="705,-112.5 705,-131.5 772,-131.5 772,-112.5 705,-112.5"/>
<text text-anchor="middle" x="738.5" y="-119.5" font-family="Helvetica,sans-Serif" font-size="10.00">pointGPS.h</text>
</a>
</g>
</g>
<!-- Node7&#45;&gt;Node14 -->
<g id="edge13" class="edge"><title>Node7&#45;&gt;Node14</title>
<path fill="none" stroke="midnightblue" d="M531.208,-168.503C575.706,-158.735 648.564,-142.742 694.991,-132.551"/>
<polygon fill="midnightblue" stroke="midnightblue" points="695.745,-135.969 704.762,-130.406 694.244,-129.131 695.745,-135.969"/>
</g>
<!-- Node15 -->
<g id="node15" class="node"><title>Node15</title>
<g id="a_node15"><a xlink:href="emissionprobability_8h.html" target="_top" xlink:title="emissionprobability.h">
<polygon fill="none" stroke="black" points="668.5,-56.5 668.5,-75.5 776.5,-75.5 776.5,-56.5 668.5,-56.5"/>
<text text-anchor="middle" x="722.5" y="-63.5" font-family="Helvetica,sans-Serif" font-size="10.00">emissionprobability.h</text>
</a>
</g>
</g>
<!-- Node14&#45;&gt;Node15 -->
<g id="edge14" class="edge"><title>Node14&#45;&gt;Node15</title>
<path fill="none" stroke="midnightblue" d="M735.858,-112.083C733.714,-104.849 730.621,-94.4087 727.951,-85.3968"/>
<polygon fill="midnightblue" stroke="midnightblue" points="731.29,-84.3447 725.093,-75.7511 724.578,-86.3334 731.29,-84.3447"/>
</g>
<!-- Node16 -->
<g id="node16" class="node"><title>Node16</title>
<g id="a_node16"><a xlink:href="point_8h.html" target="_top" xlink:title="Class Point. ">
<polygon fill="none" stroke="black" points="794.5,-56.5 794.5,-75.5 840.5,-75.5 840.5,-56.5 794.5,-56.5"/>
<text text-anchor="middle" x="817.5" y="-63.5" font-family="Helvetica,sans-Serif" font-size="10.00">point.h</text>
</a>
</g>
</g>
<!-- Node14&#45;&gt;Node16 -->
<g id="edge15" class="edge"><title>Node14&#45;&gt;Node16</title>
<path fill="none" stroke="midnightblue" d="M751.193,-112.324C763.401,-103.979 782.078,-91.2122 796.503,-81.3524"/>
<polygon fill="midnightblue" stroke="midnightblue" points="798.558,-84.1871 804.839,-75.6545 794.608,-78.4082 798.558,-84.1871"/>
</g>
<!-- Node17 -->
<g id="node17" class="node"><title>Node17</title>
<polygon fill="none" stroke="#bfbfbf" points="892.5,-56.5 892.5,-75.5 936.5,-75.5 936.5,-56.5 892.5,-56.5"/>
<text text-anchor="middle" x="914.5" y="-63.5" font-family="Helvetica,sans-Serif" font-size="10.00">vector</text>
</g>
<!-- Node14&#45;&gt;Node17 -->
<g id="edge17" class="edge"><title>Node14&#45;&gt;Node17</title>
<path fill="none" stroke="midnightblue" d="M766.388,-112.444C798.011,-102.741 849.471,-86.952 882.648,-76.7727"/>
<polygon fill="midnightblue" stroke="midnightblue" points="883.782,-80.086 892.315,-73.8067 881.729,-73.3939 883.782,-80.086"/>
</g>
<!-- Node16&#45;&gt;Node12 -->
<g id="edge16" class="edge"><title>Node16&#45;&gt;Node12</title>
<path fill="none" stroke="midnightblue" d="M840.832,-57.7173C869.792,-48.6776 919.524,-33.1544 953.657,-22.5002"/>
<polygon fill="midnightblue" stroke="midnightblue" points="954.771,-25.819 963.274,-19.4983 952.685,-19.137 954.771,-25.819"/>
</g>
<!-- Node18&#45;&gt;Node6 -->
<g id="edge19" class="edge"><title>Node18&#45;&gt;Node6</title>
<path fill="none" stroke="midnightblue" d="M345.088,-336.444C315.731,-327.28 268.981,-312.688 236.404,-302.519"/>
<polygon fill="midnightblue" stroke="midnightblue" points="237.373,-299.155 226.784,-299.516 235.287,-305.837 237.373,-299.155"/>
</g>
<!-- Node18&#45;&gt;Node7 -->
<g id="edge48" class="edge"><title>Node18&#45;&gt;Node7</title>
<path fill="none" stroke="midnightblue" d="M335.362,-336.419C300.669,-326.498 256.695,-307.872 274.5,-280 311.656,-221.835 391.857,-196.665 443.934,-186.137"/>
<polygon fill="midnightblue" stroke="midnightblue" points="444.788,-189.537 453.953,-184.221 443.474,-182.662 444.788,-189.537"/>
</g>
<!-- Node19 -->
<g id="node19" class="node"><title>Node19</title>
<polygon fill="none" stroke="#bfbfbf" points="379,-280.5 379,-299.5 464,-299.5 464,-280.5 379,-280.5"/>
<text text-anchor="middle" x="421.5" y="-287.5" font-family="Helvetica,sans-Serif" font-size="10.00">QGraphicsView</text>
</g>
<!-- Node18&#45;&gt;Node19 -->
<g id="edge20" class="edge"><title>Node18&#45;&gt;Node19</title>
<path fill="none" stroke="midnightblue" d="M380.591,-336.083C387.655,-328.298 398.088,-316.801 406.649,-307.367"/>
<polygon fill="midnightblue" stroke="midnightblue" points="409.431,-309.509 413.559,-299.751 404.247,-304.805 409.431,-309.509"/>
</g>
<!-- Node20 -->
<g id="node20" class="node"><title>Node20</title>
<polygon fill="none" stroke="#bfbfbf" points="284,-280.5 284,-299.5 361,-299.5 361,-280.5 284,-280.5"/>
<text text-anchor="middle" x="322.5" y="-287.5" font-family="Helvetica,sans-Serif" font-size="10.00">QVBoxLayout</text>
</g>
<!-- Node18&#45;&gt;Node20 -->
<g id="edge21" class="edge"><title>Node18&#45;&gt;Node20</title>
<path fill="none" stroke="midnightblue" d="M364.244,-336.083C357.035,-328.298 346.39,-316.801 337.654,-307.367"/>
<polygon fill="midnightblue" stroke="midnightblue" points="339.965,-304.711 330.603,-299.751 334.829,-309.467 339.965,-304.711"/>
</g>
<!-- Node21 -->
<g id="node21" class="node"><title>Node21</title>
<g id="a_node21"><a xlink:href="qmapscene_8h.html" target="_top" xlink:title="qmapscene.h">
<polygon fill="none" stroke="black" points="782,-280.5 782,-299.5 857,-299.5 857,-280.5 782,-280.5"/>
<text text-anchor="middle" x="819.5" y="-287.5" font-family="Helvetica,sans-Serif" font-size="10.00">qmapscene.h</text>
</a>
</g>
</g>
<!-- Node18&#45;&gt;Node21 -->
<g id="edge22" class="edge"><title>Node18&#45;&gt;Node21</title>
<path fill="none" stroke="midnightblue" d="M411.386,-340.302C493.215,-330.417 682.959,-307.495 771.892,-296.751"/>
<polygon fill="midnightblue" stroke="midnightblue" points="772.461,-300.208 781.969,-295.534 771.621,-293.259 772.461,-300.208"/>
</g>
<!-- Node21&#45;&gt;Node14 -->
<g id="edge27" class="edge"><title>Node21&#45;&gt;Node14</title>
<path fill="none" stroke="midnightblue" d="M815.145,-280.075C802.285,-253.719 764.302,-175.878 747.118,-140.661"/>
<polygon fill="midnightblue" stroke="midnightblue" points="750.212,-139.02 742.681,-131.568 743.921,-142.09 750.212,-139.02"/>
</g>
<!-- Node21&#45;&gt;Node17 -->
<g id="edge26" class="edge"><title>Node21&#45;&gt;Node17</title>
<path fill="none" stroke="midnightblue" d="M819.779,-280.183C821.007,-253.057 827.58,-169.228 862.5,-112 869.885,-99.8978 881.607,-89.3404 892.054,-81.4988"/>
<polygon fill="midnightblue" stroke="midnightblue" points="894.274,-84.2156 900.407,-75.5762 890.225,-78.5054 894.274,-84.2156"/>
</g>
<!-- Node22 -->
<g id="node22" class="node"><title>Node22</title>
<polygon fill="none" stroke="#bfbfbf" points="559,-224.5 559,-243.5 650,-243.5 650,-224.5 559,-224.5"/>
<text text-anchor="middle" x="604.5" y="-231.5" font-family="Helvetica,sans-Serif" font-size="10.00">QGraphicsScene</text>
</g>
<!-- Node21&#45;&gt;Node22 -->
<g id="edge23" class="edge"><title>Node21&#45;&gt;Node22</title>
<path fill="none" stroke="midnightblue" d="M785.433,-280.444C748.32,-271.122 688.839,-256.183 648.285,-245.997"/>
<polygon fill="midnightblue" stroke="midnightblue" points="648.959,-242.558 638.408,-243.516 647.254,-249.347 648.959,-242.558"/>
</g>
<!-- Node23 -->
<g id="node23" class="node"><title>Node23</title>
<polygon fill="none" stroke="#bfbfbf" points="668.5,-224.5 668.5,-243.5 772.5,-243.5 772.5,-224.5 668.5,-224.5"/>
<text text-anchor="middle" x="720.5" y="-231.5" font-family="Helvetica,sans-Serif" font-size="10.00">QGraphicsRectItem</text>
</g>
<!-- Node21&#45;&gt;Node23 -->
<g id="edge24" class="edge"><title>Node21&#45;&gt;Node23</title>
<path fill="none" stroke="midnightblue" d="M803.594,-280.324C787.862,-271.743 763.558,-258.486 745.291,-248.522"/>
<polygon fill="midnightblue" stroke="midnightblue" points="746.822,-245.37 736.367,-243.655 743.47,-251.516 746.822,-245.37"/>
</g>
<!-- Node24 -->
<g id="node24" class="node"><title>Node24</title>
<polygon fill="none" stroke="#bfbfbf" points="943,-224.5 943,-243.5 1026,-243.5 1026,-224.5 943,-224.5"/>
<text text-anchor="middle" x="984.5" y="-231.5" font-family="Helvetica,sans-Serif" font-size="10.00">unordered_map</text>
</g>
<!-- Node21&#45;&gt;Node24 -->
<g id="edge25" class="edge"><title>Node21&#45;&gt;Node24</title>
<path fill="none" stroke="midnightblue" d="M845.645,-280.444C873.523,-271.32 917.848,-256.813 948.9,-246.651"/>
<polygon fill="midnightblue" stroke="midnightblue" points="950.062,-249.953 958.478,-243.516 947.885,-243.3 950.062,-249.953"/>
</g>
<!-- Node25 -->
<g id="node25" class="node"><title>Node25</title>
<g id="a_node25"><a xlink:href="pointroad_8h.html" target="_top" xlink:title="pointroad.h">
<polygon fill="none" stroke="black" points="905,-168.5 905,-187.5 970,-187.5 970,-168.5 905,-168.5"/>
<text text-anchor="middle" x="937.5" y="-175.5" font-family="Helvetica,sans-Serif" font-size="10.00">pointroad.h</text>
</a>
</g>
</g>
<!-- Node21&#45;&gt;Node25 -->
<g id="edge28" class="edge"><title>Node21&#45;&gt;Node25</title>
<path fill="none" stroke="midnightblue" d="M828.759,-280.368C848.663,-261.814 895.757,-217.913 920.94,-194.438"/>
<polygon fill="midnightblue" stroke="midnightblue" points="923.356,-196.97 928.284,-187.591 918.582,-191.85 923.356,-196.97"/>
</g>
<!-- Node26 -->
<g id="node26" class="node"><title>Node26</title>
<g id="a_node26"><a xlink:href="road_8h.html" target="_top" xlink:title="road.h">
<polygon fill="none" stroke="black" points="1082.5,-224.5 1082.5,-243.5 1126.5,-243.5 1126.5,-224.5 1082.5,-224.5"/>
<text text-anchor="middle" x="1104.5" y="-231.5" font-family="Helvetica,sans-Serif" font-size="10.00">road.h</text>
</a>
</g>
</g>
<!-- Node21&#45;&gt;Node26 -->
<g id="edge32" class="edge"><title>Node21&#45;&gt;Node26</title>
<path fill="none" stroke="midnightblue" d="M857.052,-281.885C913.592,-271.172 1019.6,-251.087 1072.61,-241.043"/>
<polygon fill="midnightblue" stroke="midnightblue" points="1073.3,-244.474 1082.47,-239.173 1072,-237.596 1073.3,-244.474"/>
</g>
<!-- Node25&#45;&gt;Node12 -->
<g id="edge30" class="edge"><title>Node25&#45;&gt;Node12</title>
<path fill="none" stroke="midnightblue" d="M940.35,-168.075C948.728,-141.832 973.404,-64.5453 984.716,-29.1165"/>
<polygon fill="midnightblue" stroke="midnightblue" points="988.057,-30.1589 987.764,-19.5681 981.389,-28.0298 988.057,-30.1589"/>
</g>
<!-- Node25&#45;&gt;Node16 -->
<g id="edge29" class="edge"><title>Node25&#45;&gt;Node16</title>
<path fill="none" stroke="midnightblue" d="M928.084,-168.368C907.842,-149.814 859.95,-105.913 834.341,-82.4376"/>
<polygon fill="midnightblue" stroke="midnightblue" points="836.609,-79.7686 826.872,-75.5914 831.879,-84.9287 836.609,-79.7686"/>
</g>
<!-- Node25&#45;&gt;Node17 -->
<g id="edge31" class="edge"><title>Node25&#45;&gt;Node17</title>
<path fill="none" stroke="midnightblue" d="M935.695,-168.368C931.984,-150.617 923.421,-109.666 918.389,-85.5974"/>
<polygon fill="midnightblue" stroke="midnightblue" points="921.769,-84.6634 916.296,-75.5914 914.917,-86.0961 921.769,-84.6634"/>
</g>
<!-- Node26&#45;&gt;Node13 -->
<g id="edge46" class="edge"><title>Node26&#45;&gt;Node13</title>
<path fill="none" stroke="midnightblue" d="M1102.38,-224.368C1098.02,-206.617 1087.97,-165.666 1082.06,-141.597"/>
<polygon fill="midnightblue" stroke="midnightblue" points="1085.39,-140.469 1079.61,-131.591 1078.59,-142.137 1085.39,-140.469"/>
</g>
<!-- Node26&#45;&gt;Node17 -->
<g id="edge47" class="edge"><title>Node26&#45;&gt;Node17</title>
<path fill="none" stroke="midnightblue" d="M1082.38,-224.406C1063.91,-216.591 1037.47,-203.869 1017.5,-188 978.431,-156.954 943.148,-109.368 925.807,-84.1181"/>
<polygon fill="midnightblue" stroke="midnightblue" points="928.564,-81.9466 920.069,-75.6153 922.762,-85.8623 928.564,-81.9466"/>
</g>
<!-- Node26&#45;&gt;Node25 -->
<g id="edge33" class="edge"><title>Node26&#45;&gt;Node25</title>
<path fill="none" stroke="midnightblue" d="M1082.32,-225.829C1054.58,-216.859 1006.72,-201.382 973.65,-190.689"/>
<polygon fill="midnightblue" stroke="midnightblue" points="974.494,-187.284 963.902,-187.537 972.34,-193.944 974.494,-187.284"/>
</g>
<!-- Node27 -->
<g id="node27" class="node"><title>Node27</title>
<g id="a_node27"><a xlink:href="track_8h.html" target="_top" xlink:title="The class Track. ">
<polygon fill="none" stroke="black" points="1203,-168.5 1203,-187.5 1250,-187.5 1250,-168.5 1203,-168.5"/>
<text text-anchor="middle" x="1226.5" y="-175.5" font-family="Helvetica,sans-Serif" font-size="10.00">track.h</text>
</a>
</g>
</g>
<!-- Node26&#45;&gt;Node27 -->
<g id="edge34" class="edge"><title>Node26&#45;&gt;Node27</title>
<path fill="none" stroke="midnightblue" d="M1123.83,-224.444C1143.82,-215.596 1175.24,-201.687 1198.06,-191.586"/>
<polygon fill="midnightblue" stroke="midnightblue" points="1199.53,-194.764 1207.26,-187.516 1196.7,-188.363 1199.53,-194.764"/>
</g>
<!-- Node33 -->
<g id="node33" class="node"><title>Node33</title>
<polygon fill="none" stroke="#bfbfbf" points="1026.5,-168.5 1026.5,-187.5 1056.5,-187.5 1056.5,-168.5 1026.5,-168.5"/>
<text text-anchor="middle" x="1041.5" y="-175.5" font-family="Helvetica,sans-Serif" font-size="10.00">set</text>
</g>
<!-- Node26&#45;&gt;Node33 -->
<g id="edge45" class="edge"><title>Node26&#45;&gt;Node33</title>
<path fill="none" stroke="midnightblue" d="M1094.38,-224.324C1084.97,-216.263 1070.76,-204.077 1059.43,-194.369"/>
<polygon fill="midnightblue" stroke="midnightblue" points="1061.68,-191.684 1051.81,-187.834 1057.12,-196.999 1061.68,-191.684"/>
</g>
<!-- Node27&#45;&gt;Node11 -->
<g id="edge38" class="edge"><title>Node27&#45;&gt;Node11</title>
<path fill="none" stroke="midnightblue" d="M1250.25,-171.217C1283.11,-163.189 1344.55,-148.085 1406.34,-132.27"/>
<polygon fill="midnightblue" stroke="midnightblue" points="1407.44,-135.601 1416.26,-129.726 1405.7,-128.821 1407.44,-135.601"/>
</g>
<!-- Node27&#45;&gt;Node12 -->
<g id="edge41" class="edge"><title>Node27&#45;&gt;Node12</title>
<path fill="none" stroke="midnightblue" d="M1215.51,-168.39C1199.3,-155.755 1167.92,-131.571 1140.5,-112 1095.77,-80.0715 1042.07,-44.5821 1012.59,-25.3312"/>
<polygon fill="midnightblue" stroke="midnightblue" points="1014.2,-22.2026 1003.91,-19.6766 1010.38,-28.0677 1014.2,-22.2026"/>
</g>
<!-- Node27&#45;&gt;Node13 -->
<g id="edge43" class="edge"><title>Node27&#45;&gt;Node13</title>
<path fill="none" stroke="midnightblue" d="M1202.89,-168.444C1177.17,-159.12 1135.93,-144.177 1107.83,-133.991"/>
<polygon fill="midnightblue" stroke="midnightblue" points="1108.71,-130.59 1098.12,-130.473 1106.33,-137.171 1108.71,-130.59"/>
</g>
<!-- Node27&#45;&gt;Node14 -->
<g id="edge36" class="edge"><title>Node27&#45;&gt;Node14</title>
<path fill="none" stroke="midnightblue" d="M1202.96,-174.395C1126.19,-165.9 882.262,-138.908 782.085,-127.823"/>
<polygon fill="midnightblue" stroke="midnightblue" points="782.327,-124.328 772.003,-126.707 781.558,-131.286 782.327,-124.328"/>
</g>
<!-- Node27&#45;&gt;Node17 -->
<g id="edge44" class="edge"><title>Node27&#45;&gt;Node17</title>
<path fill="none" stroke="midnightblue" d="M1211.87,-168.354C1184.99,-152.591 1128.61,-120.056 1107.5,-112 1052.99,-91.2035 986.024,-78.2145 947.011,-71.8138"/>
<polygon fill="midnightblue" stroke="midnightblue" points="947.209,-68.3012 936.783,-70.1822 946.106,-75.2139 947.209,-68.3012"/>
</g>
<!-- Node27&#45;&gt;Node28 -->
<g id="edge35" class="edge"><title>Node27&#45;&gt;Node28</title>
<path fill="none" stroke="midnightblue" d="M1250.29,-173.239C1293.12,-166.354 1386.21,-150.865 1474.86,-132.015"/>
<polygon fill="midnightblue" stroke="midnightblue" points="1475.77,-135.401 1484.81,-129.881 1474.3,-128.556 1475.77,-135.401"/>
</g>
<!-- Node29 -->
<g id="node29" class="node"><title>Node29</title>
<polygon fill="none" stroke="#bfbfbf" points="1193,-112.5 1193,-131.5 1260,-131.5 1260,-112.5 1193,-112.5"/>
<text text-anchor="middle" x="1226.5" y="-119.5" font-family="Helvetica,sans-Serif" font-size="10.00">QDateTime</text>
</g>
<!-- Node27&#45;&gt;Node29 -->
<g id="edge37" class="edge"><title>Node27&#45;&gt;Node29</title>
<path fill="none" stroke="midnightblue" d="M1226.5,-168.083C1226.5,-161.006 1226.5,-150.861 1226.5,-141.986"/>
<polygon fill="midnightblue" stroke="midnightblue" points="1230,-141.751 1226.5,-131.751 1223,-141.751 1230,-141.751"/>
</g>
<!-- Node30 -->
<g id="node30" class="node"><title>Node30</title>
<polygon fill="none" stroke="#bfbfbf" points="1556,-112.5 1556,-131.5 1621,-131.5 1621,-112.5 1556,-112.5"/>
<text text-anchor="middle" x="1588.5" y="-119.5" font-family="Helvetica,sans-Serif" font-size="10.00">QStringList</text>
</g>
<!-- Node27&#45;&gt;Node30 -->
<g id="edge39" class="edge"><title>Node27&#45;&gt;Node30</title>
<path fill="none" stroke="midnightblue" d="M1250.36,-174.291C1302.27,-168.263 1429.52,-152.755 1545.74,-132.208"/>
<polygon fill="midnightblue" stroke="midnightblue" points="1546.64,-135.603 1555.87,-130.399 1545.41,-128.712 1546.64,-135.603"/>
</g>
<!-- Node31 -->
<g id="node31" class="node"><title>Node31</title>
<polygon fill="none" stroke="#bfbfbf" points="1278.5,-112.5 1278.5,-131.5 1328.5,-131.5 1328.5,-112.5 1278.5,-112.5"/>
<text text-anchor="middle" x="1303.5" y="-119.5" font-family="Helvetica,sans-Serif" font-size="10.00">fstream</text>
</g>
<!-- Node27&#45;&gt;Node31 -->
<g id="edge40" class="edge"><title>Node27&#45;&gt;Node31</title>
<path fill="none" stroke="midnightblue" d="M1238.87,-168.324C1250.66,-160.058 1268.63,-147.453 1282.64,-137.632"/>
<polygon fill="midnightblue" stroke="midnightblue" points="1284.98,-140.262 1291.16,-131.655 1280.96,-134.531 1284.98,-140.262"/>
</g>
<!-- Node32 -->
<g id="node32" class="node"><title>Node32</title>
<polygon fill="none" stroke="#bfbfbf" points="1346.5,-112.5 1346.5,-131.5 1398.5,-131.5 1398.5,-112.5 1346.5,-112.5"/>
<text text-anchor="middle" x="1372.5" y="-119.5" font-family="Helvetica,sans-Serif" font-size="10.00">sstream</text>
</g>
<!-- Node27&#45;&gt;Node32 -->
<g id="edge42" class="edge"><title>Node27&#45;&gt;Node32</title>
<path fill="none" stroke="midnightblue" d="M1249.63,-168.444C1273.98,-159.438 1312.51,-145.189 1339.92,-135.049"/>
<polygon fill="midnightblue" stroke="midnightblue" points="1341.31,-138.268 1349.47,-131.516 1338.88,-131.703 1341.31,-138.268"/>
</g>
<!-- Node34&#45;&gt;Node14 -->
<g id="edge58" class="edge"><title>Node34&#45;&gt;Node14</title>
<path fill="none" stroke="midnightblue" d="M1047.74,-344.291C951.024,-341.029 611.932,-323.962 549.5,-244 504.686,-186.603 626.054,-148.519 694.834,-132.142"/>
<polygon fill="midnightblue" stroke="midnightblue" points="696.029,-135.458 704.981,-129.792 694.449,-128.638 696.029,-135.458"/>
</g>
<!-- Node34&#45;&gt;Node17 -->
<g id="edge73" class="edge"><title>Node34&#45;&gt;Node17</title>
<path fill="none" stroke="midnightblue" d="M1054.04,-336.447C1013.21,-317.146 920.387,-265.743 896.5,-188 885.627,-152.614 897.905,-109.32 906.849,-85.2917"/>
<polygon fill="midnightblue" stroke="midnightblue" points="910.217,-86.2918 910.628,-75.7049 903.705,-83.7244 910.217,-86.2918"/>
</g>
<!-- Node34&#45;&gt;Node24 -->
<g id="edge72" class="edge"><title>Node34&#45;&gt;Node24</title>
<path fill="none" stroke="midnightblue" d="M1066.52,-336.368C1051.76,-318.135 1017.21,-275.426 997.992,-251.675"/>
<polygon fill="midnightblue" stroke="midnightblue" points="1000.46,-249.164 991.451,-243.591 995.02,-253.567 1000.46,-249.164"/>
</g>
<!-- Node34&#45;&gt;Node25 -->
<g id="edge59" class="edge"><title>Node34&#45;&gt;Node25</title>
<path fill="none" stroke="midnightblue" d="M1073.11,-336.222C1071.69,-314.527 1065.2,-257.701 1035.5,-224 1020.99,-207.538 999.23,-196.717 979.894,-189.823"/>
<polygon fill="midnightblue" stroke="midnightblue" points="980.942,-186.483 970.348,-186.656 978.738,-193.127 980.942,-186.483"/>
</g>
<!-- Node34&#45;&gt;Node26 -->
<g id="edge60" class="edge"><title>Node34&#45;&gt;Node26</title>
<path fill="none" stroke="midnightblue" d="M1075.93,-336.368C1080.96,-318.537 1092.58,-277.295 1099.35,-253.272"/>
<polygon fill="midnightblue" stroke="midnightblue" points="1102.73,-254.166 1102.08,-243.591 1096,-252.267 1102.73,-254.166"/>
</g>
<!-- Node34&#45;&gt;Node27 -->
<g id="edge61" class="edge"><title>Node34&#45;&gt;Node27</title>
<path fill="none" stroke="midnightblue" d="M1099.38,-340.793C1124.34,-335.445 1161.62,-323.866 1184.5,-300 1211.98,-271.337 1221.56,-223.785 1224.84,-197.644"/>
<polygon fill="midnightblue" stroke="midnightblue" points="1228.33,-197.892 1225.92,-187.576 1221.37,-197.145 1228.33,-197.892"/>
</g>
<!-- Node34&#45;&gt;Node28 -->
<g id="edge50" class="edge"><title>Node34&#45;&gt;Node28</title>
<path fill="none" stroke="midnightblue" d="M1099.27,-337.567C1126.21,-329.482 1169.52,-315.608 1205.5,-300 1302.54,-257.908 1324.91,-242.617 1415.5,-188 1442.43,-171.761 1472.25,-151.13 1491.4,-137.518"/>
<polygon fill="midnightblue" stroke="midnightblue" points="1493.54,-140.289 1499.64,-131.624 1489.47,-134.595 1493.54,-140.289"/>
</g>
<!-- Node35 -->
<g id="node35" class="node"><title>Node35</title>
<g id="a_node35"><a xlink:href="grid_8h.html" target="_top" xlink:title="grid.h">
<polygon fill="none" stroke="black" points="1134,-280.5 1134,-299.5 1175,-299.5 1175,-280.5 1134,-280.5"/>
<text text-anchor="middle" x="1154.5" y="-287.5" font-family="Helvetica,sans-Serif" font-size="10.00">grid.h</text>
</a>
</g>
</g>
<!-- Node34&#45;&gt;Node35 -->
<g id="edge51" class="edge"><title>Node34&#45;&gt;Node35</title>
<path fill="none" stroke="midnightblue" d="M1086.51,-336.324C1099.03,-327.979 1118.18,-315.212 1132.97,-305.352"/>
<polygon fill="midnightblue" stroke="midnightblue" points="1135.14,-308.114 1141.52,-299.655 1131.26,-302.289 1135.14,-308.114"/>
</g>
<!-- Node36 -->
<g id="node36" class="node"><title>Node36</title>
<g id="a_node36"><a xlink:href="file_8h.html" target="_top" xlink:title="file.h">
<polygon fill="none" stroke="black" points="1630.5,-168.5 1630.5,-187.5 1668.5,-187.5 1668.5,-168.5 1630.5,-168.5"/>
<text text-anchor="middle" x="1649.5" y="-175.5" font-family="Helvetica,sans-Serif" font-size="10.00">file.h</text>
</a>
</g>
</g>
<!-- Node34&#45;&gt;Node36 -->
<g id="edge62" class="edge"><title>Node34&#45;&gt;Node36</title>
<path fill="none" stroke="midnightblue" d="M1099.21,-343.722C1176.14,-339.647 1403.4,-325.691 1472.5,-300 1538.23,-275.559 1603.08,-221.557 1632.74,-194.742"/>
<polygon fill="midnightblue" stroke="midnightblue" points="1635.47,-196.992 1640.47,-187.651 1630.73,-191.836 1635.47,-196.992"/>
</g>
<!-- Node35&#45;&gt;Node11 -->
<g id="edge55" class="edge"><title>Node35&#45;&gt;Node11</title>
<path fill="none" stroke="midnightblue" d="M1169.53,-280.309C1216.51,-253.136 1360.87,-169.636 1417.94,-136.63"/>
<polygon fill="midnightblue" stroke="midnightblue" points="1419.72,-139.642 1426.62,-131.605 1416.21,-133.582 1419.72,-139.642"/>
</g>
<!-- Node35&#45;&gt;Node17 -->
<g id="edge57" class="edge"><title>Node35&#45;&gt;Node17</title>
<path fill="none" stroke="midnightblue" d="M1153.64,-280.303C1151.99,-267.131 1147.41,-241.778 1135.5,-224 1086.98,-151.568 992.966,-101.756 944.7,-79.7527"/>
<polygon fill="midnightblue" stroke="midnightblue" points="945.964,-76.484 935.405,-75.6027 943.11,-82.8757 945.964,-76.484"/>
</g>
<!-- Node35&#45;&gt;Node24 -->
<g id="edge56" class="edge"><title>Node35&#45;&gt;Node24</title>
<path fill="none" stroke="midnightblue" d="M1133.99,-282.486C1106.1,-273.627 1055.74,-257.629 1021.24,-246.67"/>
<polygon fill="midnightblue" stroke="midnightblue" points="1022.11,-243.275 1011.52,-243.584 1019.99,-249.947 1022.11,-243.275"/>
</g>
<!-- Node35&#45;&gt;Node26 -->
<g id="edge52" class="edge"><title>Node35&#45;&gt;Node26</title>
<path fill="none" stroke="midnightblue" d="M1146.24,-280.083C1139.04,-272.298 1128.39,-260.801 1119.65,-251.367"/>
<polygon fill="midnightblue" stroke="midnightblue" points="1121.97,-248.711 1112.6,-243.751 1116.83,-253.467 1121.97,-248.711"/>
</g>
<!-- Node35&#45;&gt;Node27 -->
<g id="edge53" class="edge"><title>Node35&#45;&gt;Node27</title>
<path fill="none" stroke="midnightblue" d="M1160.15,-280.368C1172.03,-262.215 1199.79,-219.802 1215.38,-195.99"/>
<polygon fill="midnightblue" stroke="midnightblue" points="1218.33,-197.875 1220.88,-187.591 1212.47,-194.042 1218.33,-197.875"/>
</g>
<!-- Node35&#45;&gt;Node28 -->
<g id="edge54" class="edge"><title>Node35&#45;&gt;Node28</title>
<path fill="none" stroke="midnightblue" d="M1175.35,-280.495C1196.81,-271.656 1231.18,-257.282 1260.5,-244 1343.22,-206.528 1439.59,-158.947 1485.12,-136.233"/>
<polygon fill="midnightblue" stroke="midnightblue" points="1486.91,-139.249 1494.29,-131.648 1483.78,-132.988 1486.91,-139.249"/>
</g>
<!-- Node36&#45;&gt;Node11 -->
<g id="edge65" class="edge"><title>Node36&#45;&gt;Node11</title>
<path fill="none" stroke="midnightblue" d="M1630.3,-172.017C1595.32,-162.933 1520.7,-143.562 1476.47,-132.079"/>
<polygon fill="midnightblue" stroke="midnightblue" points="1477.28,-128.673 1466.72,-129.547 1475.52,-135.448 1477.28,-128.673"/>
</g>
<!-- Node36&#45;&gt;Node12 -->
<g id="edge68" class="edge"><title>Node36&#45;&gt;Node12</title>
<path fill="none" stroke="midnightblue" d="M1649.7,-168.318C1649.51,-154.212 1646.92,-126.443 1630.5,-112 1539.71,-32.1381 1150.06,-15.1808 1027.53,-11.7971"/>
<polygon fill="midnightblue" stroke="midnightblue" points="1027.6,-8.29777 1017.51,-11.5346 1027.42,-15.2954 1027.6,-8.29777"/>
</g>
<!-- Node36&#45;&gt;Node13 -->
<g id="edge69" class="edge"><title>Node36&#45;&gt;Node13</title>
<path fill="none" stroke="midnightblue" d="M1630.47,-175.203C1546.87,-167.311 1211.82,-135.68 1108.19,-125.898"/>
<polygon fill="midnightblue" stroke="midnightblue" points="1108.37,-122.399 1098.08,-124.943 1107.71,-129.368 1108.37,-122.399"/>
</g>
<!-- Node36&#45;&gt;Node30 -->
<g id="edge66" class="edge"><title>Node36&#45;&gt;Node30</title>
<path fill="none" stroke="midnightblue" d="M1639.7,-168.324C1630.68,-160.341 1617.09,-148.313 1606.18,-138.653"/>
<polygon fill="midnightblue" stroke="midnightblue" points="1608.29,-135.842 1598.48,-131.834 1603.65,-141.083 1608.29,-135.842"/>
</g>
<!-- Node37 -->
<g id="node37" class="node"><title>Node37</title>
<polygon fill="none" stroke="#bfbfbf" points="1677.5,-112.5 1677.5,-131.5 1717.5,-131.5 1717.5,-112.5 1677.5,-112.5"/>
<text text-anchor="middle" x="1697.5" y="-119.5" font-family="Helvetica,sans-Serif" font-size="10.00">QFile</text>
</g>
<!-- Node36&#45;&gt;Node37 -->
<g id="edge63" class="edge"><title>Node36&#45;&gt;Node37</title>
<path fill="none" stroke="midnightblue" d="M1657.43,-168.083C1664.35,-160.298 1674.57,-148.801 1682.95,-139.367"/>
<polygon fill="midnightblue" stroke="midnightblue" points="1685.69,-141.55 1689.72,-131.751 1680.46,-136.9 1685.69,-141.55"/>
</g>
<!-- Node38 -->
<g id="node38" class="node"><title>Node38</title>
<polygon fill="none" stroke="#bfbfbf" points="1735.5,-112.5 1735.5,-131.5 1803.5,-131.5 1803.5,-112.5 1735.5,-112.5"/>
<text text-anchor="middle" x="1769.5" y="-119.5" font-family="Helvetica,sans-Serif" font-size="10.00">QFileDialog</text>
</g>
<!-- Node36&#45;&gt;Node38 -->
<g id="edge64" class="edge"><title>Node36&#45;&gt;Node38</title>
<path fill="none" stroke="midnightblue" d="M1668.51,-168.444C1688.09,-159.636 1718.81,-145.812 1741.23,-135.722"/>
<polygon fill="midnightblue" stroke="midnightblue" points="1742.89,-138.812 1750.57,-131.516 1740.02,-132.428 1742.89,-138.812"/>
</g>
<!-- Node39 -->
<g id="node39" class="node"><title>Node39</title>
<polygon fill="none" stroke="#bfbfbf" points="1822,-112.5 1822,-131.5 1897,-131.5 1897,-112.5 1822,-112.5"/>
<text text-anchor="middle" x="1859.5" y="-119.5" font-family="Helvetica,sans-Serif" font-size="10.00">QTextStream</text>
</g>
<!-- Node36&#45;&gt;Node39 -->
<g id="edge67" class="edge"><title>Node36&#45;&gt;Node39</title>
<path fill="none" stroke="midnightblue" d="M1668.51,-172.113C1701.73,-163.568 1771.16,-145.716 1816.52,-134.052"/>
<polygon fill="midnightblue" stroke="midnightblue" points="1817.56,-137.399 1826.37,-131.519 1815.81,-130.62 1817.56,-137.399"/>
</g>
<!-- Node40 -->
<g id="node40" class="node"><title>Node40</title>
<g id="a_node40"><a xlink:href="myexception_8h.html" target="_top" xlink:title="myexception.h">
<polygon fill="none" stroke="black" points="1915.5,-112.5 1915.5,-131.5 1995.5,-131.5 1995.5,-112.5 1915.5,-112.5"/>
<text text-anchor="middle" x="1955.5" y="-119.5" font-family="Helvetica,sans-Serif" font-size="10.00">myexception.h</text>
</a>
</g>
</g>
<!-- Node36&#45;&gt;Node40 -->
<g id="edge70" class="edge"><title>Node36&#45;&gt;Node40</title>
<path fill="none" stroke="midnightblue" d="M1668.53,-173.723C1709.7,-166.623 1810.35,-149.202 1905.33,-132.198"/>
<polygon fill="midnightblue" stroke="midnightblue" points="1906.17,-135.604 1915.39,-130.395 1904.93,-128.714 1906.17,-135.604"/>
</g>
<!-- Node41 -->
<g id="node41" class="node"><title>Node41</title>
<polygon fill="none" stroke="#bfbfbf" points="1926,-56.5 1926,-75.5 1985,-75.5 1985,-56.5 1926,-56.5"/>
<text text-anchor="middle" x="1955.5" y="-63.5" font-family="Helvetica,sans-Serif" font-size="10.00">exception</text>
</g>
<!-- Node40&#45;&gt;Node41 -->
<g id="edge71" class="edge"><title>Node40&#45;&gt;Node41</title>
<path fill="none" stroke="midnightblue" d="M1955.5,-112.083C1955.5,-105.006 1955.5,-94.8611 1955.5,-85.9865"/>
<polygon fill="midnightblue" stroke="midnightblue" points="1959,-85.751 1955.5,-75.7511 1952,-85.7511 1959,-85.751"/>
</g>
</g>
</svg>
