<?xml version="1.0" encoding="UTF-8" standalone="no"?>
<!DOCTYPE svg PUBLIC "-//W3C//DTD SVG 1.1//EN"
 "http://www.w3.org/Graphics/SVG/1.1/DTD/svg11.dtd">
<!-- Generated by graphviz version 2.38.0 (20140413.2041)
 -->
<!-- Title: controller.h Pages: 1 -->
<svg width="1835pt" height="420pt"
 viewBox="0.00 0.00 1834.50 420.00" xmlns="http://www.w3.org/2000/svg" xmlns:xlink="http://www.w3.org/1999/xlink">
<g id="graph0" class="graph" transform="scale(1 1) rotate(0) translate(4 416)">
<title>controller.h</title>
<!-- Node1 -->
<g id="node1" class="node"><title>Node1</title>
<polygon fill="#bfbfbf" stroke="black" points="1055.5,-392.5 1055.5,-411.5 1120.5,-411.5 1120.5,-392.5 1055.5,-392.5"/>
<text text-anchor="middle" x="1088" y="-399.5" font-family="Helvetica,sans-Serif" font-size="10.00">controller.h</text>
</g>
<!-- Node2 -->
<g id="node2" class="node"><title>Node2</title>
<g id="a_node2"><a xlink:href="solver_8h.html" target="_top" xlink:title="../solver.h">
<polygon fill="none" stroke="black" points="754,-336.5 754,-355.5 814,-355.5 814,-336.5 754,-336.5"/>
<text text-anchor="middle" x="784" y="-343.5" font-family="Helvetica,sans-Serif" font-size="10.00">../solver.h</text>
</a>
</g>
</g>
<!-- Node1&#45;&gt;Node2 -->
<g id="edge1" class="edge"><title>Node1&#45;&gt;Node2</title>
<path fill="none" stroke="midnightblue" d="M1055.47,-395.221C999.431,-385.267 884.877,-364.919 824.039,-354.112"/>
<polygon fill="midnightblue" stroke="midnightblue" points="824.5,-350.639 814.042,-352.336 823.275,-357.531 824.5,-350.639"/>
</g>
<!-- Node3 -->
<g id="node3" class="node"><title>Node3</title>
<polygon fill="none" stroke="#bfbfbf" points="595.5,-112.5 595.5,-131.5 648.5,-131.5 648.5,-112.5 595.5,-112.5"/>
<text text-anchor="middle" x="622" y="-119.5" font-family="Helvetica,sans-Serif" font-size="10.00">QObject</text>
</g>
<!-- Node1&#45;&gt;Node3 -->
<g id="edge63" class="edge"><title>Node1&#45;&gt;Node3</title>
<path fill="none" stroke="midnightblue" d="M1055.09,-400.261C993.099,-398.091 855.323,-389.557 745,-356 691.375,-339.689 668.225,-342.772 632,-300 593.589,-254.647 607.435,-177.006 616.558,-141.591"/>
<polygon fill="midnightblue" stroke="midnightblue" points="620.009,-142.241 619.282,-131.671 613.259,-140.387 620.009,-142.241"/>
</g>
<!-- Node24 -->
<g id="node24" class="node"><title>Node24</title>
<g id="a_node24"><a xlink:href="qmapwidget_8h.html" target="_top" xlink:title="qmapwidget.h">
<polygon fill="none" stroke="black" points="1353.5,-336.5 1353.5,-355.5 1430.5,-355.5 1430.5,-336.5 1353.5,-336.5"/>
<text text-anchor="middle" x="1392" y="-343.5" font-family="Helvetica,sans-Serif" font-size="10.00">qmapwidget.h</text>
</a>
</g>
</g>
<!-- Node1&#45;&gt;Node24 -->
<g id="edge44" class="edge"><title>Node1&#45;&gt;Node24</title>
<path fill="none" stroke="midnightblue" d="M1120.53,-395.221C1173.93,-385.736 1280.45,-366.814 1343.01,-355.702"/>
<polygon fill="midnightblue" stroke="midnightblue" points="1343.8,-359.117 1353.03,-353.921 1342.58,-352.224 1343.8,-359.117"/>
</g>
<!-- Node34 -->
<g id="node34" class="node"><title>Node34</title>
<g id="a_node34"><a xlink:href="qprocessviewer_8h.html" target="_top" xlink:title="qprocessviewer.h">
<polygon fill="none" stroke="black" points="1631.5,-336.5 1631.5,-355.5 1724.5,-355.5 1724.5,-336.5 1631.5,-336.5"/>
<text text-anchor="middle" x="1678" y="-343.5" font-family="Helvetica,sans-Serif" font-size="10.00">qprocessviewer.h</text>
</a>
</g>
</g>
<!-- Node1&#45;&gt;Node34 -->
<g id="edge59" class="edge"><title>Node1&#45;&gt;Node34</title>
<path fill="none" stroke="midnightblue" d="M1120.56,-398.02C1216.57,-389.233 1499.39,-363.348 1621.16,-352.202"/>
<polygon fill="midnightblue" stroke="midnightblue" points="1621.75,-355.663 1631.39,-351.266 1621.12,-348.692 1621.75,-355.663"/>
</g>
<!-- Node2&#45;&gt;Node3 -->
<g id="edge2" class="edge"><title>Node2&#45;&gt;Node3</title>
<path fill="none" stroke="midnightblue" d="M753.769,-343.691C722.584,-340.618 674.949,-330.794 649,-300 610.489,-254.297 614.595,-177.405 619.026,-141.952"/>
<polygon fill="midnightblue" stroke="midnightblue" points="622.552,-142.012 620.48,-131.622 615.62,-141.036 622.552,-142.012"/>
</g>
<!-- Node4 -->
<g id="node4" class="node"><title>Node4</title>
<g id="a_node4"><a xlink:href="file_8h.html" target="_top" xlink:title="file.h">
<polygon fill="none" stroke="black" points="150,-168.5 150,-187.5 188,-187.5 188,-168.5 150,-168.5"/>
<text text-anchor="middle" x="169" y="-175.5" font-family="Helvetica,sans-Serif" font-size="10.00">file.h</text>
</a>
</g>
</g>
<!-- Node2&#45;&gt;Node4 -->
<g id="edge3" class="edge"><title>Node2&#45;&gt;Node4</title>
<path fill="none" stroke="midnightblue" d="M753.613,-341.21C705.196,-334.829 607.763,-320.591 527,-300 401.999,-268.13 257.823,-213.836 197.668,-190.365"/>
<polygon fill="midnightblue" stroke="midnightblue" points="198.679,-187.002 188.092,-186.611 196.125,-193.519 198.679,-187.002"/>
</g>
<!-- Node9 -->
<g id="node9" class="node"><title>Node9</title>
<g id="a_node9"><a xlink:href="grid_8h.html" target="_top" xlink:title="grid.h">
<polygon fill="none" stroke="black" points="658.5,-280.5 658.5,-299.5 699.5,-299.5 699.5,-280.5 658.5,-280.5"/>
<text text-anchor="middle" x="679" y="-287.5" font-family="Helvetica,sans-Serif" font-size="10.00">grid.h</text>
</a>
</g>
</g>
<!-- Node2&#45;&gt;Node9 -->
<g id="edge8" class="edge"><title>Node2&#45;&gt;Node9</title>
<path fill="none" stroke="midnightblue" d="M767.13,-336.324C750.291,-327.664 724.193,-314.242 704.762,-304.249"/>
<polygon fill="midnightblue" stroke="midnightblue" points="706.322,-301.116 695.828,-299.655 703.12,-307.341 706.322,-301.116"/>
</g>
<!-- Node10 -->
<g id="node10" class="node"><title>Node10</title>
<g id="a_node10"><a xlink:href="road_8h.html" target="_top" xlink:title="road.h">
<polygon fill="none" stroke="black" points="809,-224.5 809,-243.5 853,-243.5 853,-224.5 809,-224.5"/>
<text text-anchor="middle" x="831" y="-231.5" font-family="Helvetica,sans-Serif" font-size="10.00">road.h</text>
</a>
</g>
</g>
<!-- Node2&#45;&gt;Node10 -->
<g id="edge40" class="edge"><title>Node2&#45;&gt;Node10</title>
<path fill="none" stroke="midnightblue" d="M787.688,-336.368C795.341,-318.456 813.087,-276.923 823.331,-252.948"/>
<polygon fill="midnightblue" stroke="midnightblue" points="826.618,-254.162 827.329,-243.591 820.181,-251.412 826.618,-254.162"/>
</g>
<!-- Node11 -->
<g id="node11" class="node"><title>Node11</title>
<g id="a_node11"><a xlink:href="pointroad_8h.html" target="_top" xlink:title="pointroad.h">
<polygon fill="none" stroke="black" points="820.5,-168.5 820.5,-187.5 885.5,-187.5 885.5,-168.5 820.5,-168.5"/>
<text text-anchor="middle" x="853" y="-175.5" font-family="Helvetica,sans-Serif" font-size="10.00">pointroad.h</text>
</a>
</g>
</g>
<!-- Node2&#45;&gt;Node11 -->
<g id="edge39" class="edge"><title>Node2&#45;&gt;Node11</title>
<path fill="none" stroke="midnightblue" d="M794.319,-336.315C812.41,-320.305 849.154,-284.086 862,-244 866.889,-228.744 863.691,-210.635 859.816,-197.411"/>
<polygon fill="midnightblue" stroke="midnightblue" points="863.038,-196.008 856.563,-187.622 856.395,-198.215 863.038,-196.008"/>
</g>
<!-- Node14 -->
<g id="node14" class="node"><title>Node14</title>
<polygon fill="none" stroke="#bfbfbf" points="866,-0.5 866,-19.5 910,-19.5 910,-0.5 866,-0.5"/>
<text text-anchor="middle" x="888" y="-7.5" font-family="Helvetica,sans-Serif" font-size="10.00">vector</text>
</g>
<!-- Node2&#45;&gt;Node14 -->
<g id="edge43" class="edge"><title>Node2&#45;&gt;Node14</title>
<path fill="none" stroke="midnightblue" d="M814.015,-342.355C908.314,-333.5 1196.54,-302.135 1267,-244 1292.47,-222.982 1303,-212.024 1303,-179 1303,-179 1303,-179 1303,-121 1303,-41.8825 1017.61,-18.3389 920.162,-12.6058"/>
<polygon fill="midnightblue" stroke="midnightblue" points="920.2,-9.1025 910.019,-12.0341 919.806,-16.0914 920.2,-9.1025"/>
</g>
<!-- Node15 -->
<g id="node15" class="node"><title>Node15</title>
<g id="a_node15"><a xlink:href="track_8h.html" target="_top" xlink:title="The class Track. ">
<polygon fill="none" stroke="black" points="451.5,-168.5 451.5,-187.5 498.5,-187.5 498.5,-168.5 451.5,-168.5"/>
<text text-anchor="middle" x="475" y="-175.5" font-family="Helvetica,sans-Serif" font-size="10.00">track.h</text>
</a>
</g>
</g>
<!-- Node2&#45;&gt;Node15 -->
<g id="edge41" class="edge"><title>Node2&#45;&gt;Node15</title>
<path fill="none" stroke="midnightblue" d="M753.713,-342.158C698.38,-336.485 583.634,-322.344 551,-300 513.94,-274.626 491.286,-224.619 481.198,-197.515"/>
<polygon fill="midnightblue" stroke="midnightblue" points="484.375,-196 477.74,-187.74 477.776,-198.335 484.375,-196"/>
</g>
<!-- Node16 -->
<g id="node16" class="node"><title>Node16</title>
<g id="a_node16"><a xlink:href="point_g_p_s_8h.html" target="_top" xlink:title="pointGPS.h">
<polygon fill="none" stroke="black" points="942.5,-112.5 942.5,-131.5 1009.5,-131.5 1009.5,-112.5 942.5,-112.5"/>
<text text-anchor="middle" x="976" y="-119.5" font-family="Helvetica,sans-Serif" font-size="10.00">pointGPS.h</text>
</a>
</g>
</g>
<!-- Node2&#45;&gt;Node16 -->
<g id="edge38" class="edge"><title>Node2&#45;&gt;Node16</title>
<path fill="none" stroke="midnightblue" d="M800.082,-336.442C814.454,-328.3 835.564,-315.078 851,-300 902.947,-249.257 947.625,-174.402 966.461,-140.648"/>
<polygon fill="midnightblue" stroke="midnightblue" points="969.704,-142.014 971.456,-131.565 963.571,-138.64 969.704,-142.014"/>
</g>
<!-- Node23 -->
<g id="node23" class="node"><title>Node23</title>
<polygon fill="none" stroke="#bfbfbf" points="707.5,-224.5 707.5,-243.5 790.5,-243.5 790.5,-224.5 707.5,-224.5"/>
<text text-anchor="middle" x="749" y="-231.5" font-family="Helvetica,sans-Serif" font-size="10.00">unordered_map</text>
</g>
<!-- Node2&#45;&gt;Node23 -->
<g id="edge42" class="edge"><title>Node2&#45;&gt;Node23</title>
<path fill="none" stroke="midnightblue" d="M781.254,-336.368C775.58,-318.537 762.458,-277.295 754.814,-253.272"/>
<polygon fill="midnightblue" stroke="midnightblue" points="758.101,-252.059 751.734,-243.591 751.43,-254.182 758.101,-252.059"/>
</g>
<!-- Node5 -->
<g id="node5" class="node"><title>Node5</title>
<polygon fill="none" stroke="#bfbfbf" points="0,-112.5 0,-131.5 40,-131.5 40,-112.5 0,-112.5"/>
<text text-anchor="middle" x="20" y="-119.5" font-family="Helvetica,sans-Serif" font-size="10.00">QFile</text>
</g>
<!-- Node4&#45;&gt;Node5 -->
<g id="edge4" class="edge"><title>Node4&#45;&gt;Node5</title>
<path fill="none" stroke="midnightblue" d="M149.826,-170.051C124.404,-160.838 79.2923,-144.488 49.5122,-133.696"/>
<polygon fill="midnightblue" stroke="midnightblue" points="50.6455,-130.384 40.0513,-130.267 48.2603,-136.965 50.6455,-130.384"/>
</g>
<!-- Node6 -->
<g id="node6" class="node"><title>Node6</title>
<polygon fill="none" stroke="#bfbfbf" points="58,-112.5 58,-131.5 126,-131.5 126,-112.5 58,-112.5"/>
<text text-anchor="middle" x="92" y="-119.5" font-family="Helvetica,sans-Serif" font-size="10.00">QFileDialog</text>
</g>
<!-- Node4&#45;&gt;Node6 -->
<g id="edge5" class="edge"><title>Node4&#45;&gt;Node6</title>
<path fill="none" stroke="midnightblue" d="M156.629,-168.324C144.842,-160.058 126.868,-147.453 112.864,-137.632"/>
<polygon fill="midnightblue" stroke="midnightblue" points="114.538,-134.531 104.341,-131.655 110.518,-140.262 114.538,-134.531"/>
</g>
<!-- Node7 -->
<g id="node7" class="node"><title>Node7</title>
<polygon fill="none" stroke="#bfbfbf" points="144,-112.5 144,-131.5 194,-131.5 194,-112.5 144,-112.5"/>
<text text-anchor="middle" x="169" y="-119.5" font-family="Helvetica,sans-Serif" font-size="10.00">QString</text>
</g>
<!-- Node4&#45;&gt;Node7 -->
<g id="edge6" class="edge"><title>Node4&#45;&gt;Node7</title>
<path fill="none" stroke="midnightblue" d="M169,-168.083C169,-161.006 169,-150.861 169,-141.986"/>
<polygon fill="midnightblue" stroke="midnightblue" points="172.5,-141.751 169,-131.751 165.5,-141.751 172.5,-141.751"/>
</g>
<!-- Node8 -->
<g id="node8" class="node"><title>Node8</title>
<polygon fill="none" stroke="#bfbfbf" points="212.5,-112.5 212.5,-131.5 277.5,-131.5 277.5,-112.5 212.5,-112.5"/>
<text text-anchor="middle" x="245" y="-119.5" font-family="Helvetica,sans-Serif" font-size="10.00">QStringList</text>
</g>
<!-- Node4&#45;&gt;Node8 -->
<g id="edge7" class="edge"><title>Node4&#45;&gt;Node8</title>
<path fill="none" stroke="midnightblue" d="M181.211,-168.324C192.776,-160.107 210.375,-147.602 224.161,-137.807"/>
<polygon fill="midnightblue" stroke="midnightblue" points="226.443,-140.479 232.567,-131.834 222.388,-134.773 226.443,-140.479"/>
</g>
<!-- Node9&#45;&gt;Node3 -->
<g id="edge34" class="edge"><title>Node9&#45;&gt;Node3</title>
<path fill="none" stroke="midnightblue" d="M675.935,-280.075C666.924,-253.832 640.386,-176.545 628.221,-141.117"/>
<polygon fill="midnightblue" stroke="midnightblue" points="631.5,-139.889 624.942,-131.568 624.879,-142.163 631.5,-139.889"/>
</g>
<!-- Node9&#45;&gt;Node7 -->
<g id="edge35" class="edge"><title>Node9&#45;&gt;Node7</title>
<path fill="none" stroke="midnightblue" d="M658.376,-282.287C580.353,-256.891 302.69,-166.515 204.068,-134.414"/>
<polygon fill="midnightblue" stroke="midnightblue" points="204.879,-130.998 194.287,-131.231 202.713,-137.654 204.879,-130.998"/>
</g>
<!-- Node9&#45;&gt;Node10 -->
<g id="edge9" class="edge"><title>Node9&#45;&gt;Node10</title>
<path fill="none" stroke="midnightblue" d="M699.816,-281.605C725.529,-272.47 769.527,-256.839 799.412,-246.222"/>
<polygon fill="midnightblue" stroke="midnightblue" points="800.708,-249.476 808.959,-242.83 798.364,-242.88 800.708,-249.476"/>
</g>
<!-- Node9&#45;&gt;Node14 -->
<g id="edge37" class="edge"><title>Node9&#45;&gt;Node14</title>
<path fill="none" stroke="midnightblue" d="M680.876,-280.491C685.699,-259.87 699.941,-206.123 725,-168 761.171,-112.972 772.83,-99.8028 822,-56 834.999,-44.4199 851.119,-33.3763 864.174,-25.1275"/>
<polygon fill="midnightblue" stroke="midnightblue" points="866.38,-27.8791 873.05,-19.6474 862.703,-21.9229 866.38,-27.8791"/>
</g>
<!-- Node9&#45;&gt;Node15 -->
<g id="edge33" class="edge"><title>Node9&#45;&gt;Node15</title>
<path fill="none" stroke="midnightblue" d="M662.992,-280.368C627.539,-261.251 542.188,-215.229 499.779,-192.361"/>
<polygon fill="midnightblue" stroke="midnightblue" points="501.396,-189.257 490.933,-187.591 498.074,-195.418 501.396,-189.257"/>
</g>
<!-- Node9&#45;&gt;Node23 -->
<g id="edge36" class="edge"><title>Node9&#45;&gt;Node23</title>
<path fill="none" stroke="midnightblue" d="M690.247,-280.324C700.797,-272.185 716.801,-259.839 729.442,-250.087"/>
<polygon fill="midnightblue" stroke="midnightblue" points="731.769,-252.713 737.549,-243.834 727.493,-247.171 731.769,-252.713"/>
</g>
<!-- Node10&#45;&gt;Node11 -->
<g id="edge10" class="edge"><title>Node10&#45;&gt;Node11</title>
<path fill="none" stroke="midnightblue" d="M834.633,-224.083C837.612,-216.77 841.926,-206.181 845.625,-197.103"/>
<polygon fill="midnightblue" stroke="midnightblue" points="848.903,-198.333 849.435,-187.751 842.42,-195.691 848.903,-198.333"/>
</g>
<!-- Node10&#45;&gt;Node14 -->
<g id="edge32" class="edge"><title>Node10&#45;&gt;Node14</title>
<path fill="none" stroke="midnightblue" d="M851.803,-224.404C866.511,-217.094 885.129,-205.051 894,-188 921.03,-136.048 904.517,-63.4216 894.292,-29.644"/>
<polygon fill="midnightblue" stroke="midnightblue" points="897.513,-28.2258 891.137,-19.7643 890.845,-30.3551 897.513,-28.2258"/>
</g>
<!-- Node10&#45;&gt;Node15 -->
<g id="edge16" class="edge"><title>Node10&#45;&gt;Node15</title>
<path fill="none" stroke="midnightblue" d="M808.716,-226.315C805.474,-225.464 802.163,-224.661 799,-224 694.338,-202.12 568.37,-188.083 509.049,-182.187"/>
<polygon fill="midnightblue" stroke="midnightblue" points="509.062,-178.672 498.769,-181.181 508.38,-185.639 509.062,-178.672"/>
</g>
<!-- Node21 -->
<g id="node21" class="node"><title>Node21</title>
<polygon fill="none" stroke="#bfbfbf" points="666.5,-112.5 666.5,-131.5 707.5,-131.5 707.5,-112.5 666.5,-112.5"/>
<text text-anchor="middle" x="687" y="-119.5" font-family="Helvetica,sans-Serif" font-size="10.00">string</text>
</g>
<!-- Node10&#45;&gt;Node21 -->
<g id="edge31" class="edge"><title>Node10&#45;&gt;Node21</title>
<path fill="none" stroke="midnightblue" d="M824.705,-224.089C814.865,-210.637 794.709,-184.924 773,-168 756.003,-154.749 734.523,-143.507 717.283,-135.573"/>
<polygon fill="midnightblue" stroke="midnightblue" points="718.246,-132.17 707.688,-131.294 715.395,-138.563 718.246,-132.17"/>
</g>
<!-- Node22 -->
<g id="node22" class="node"><title>Node22</title>
<polygon fill="none" stroke="#bfbfbf" points="734,-168.5 734,-187.5 764,-187.5 764,-168.5 734,-168.5"/>
<text text-anchor="middle" x="749" y="-175.5" font-family="Helvetica,sans-Serif" font-size="10.00">set</text>
</g>
<!-- Node10&#45;&gt;Node22 -->
<g id="edge30" class="edge"><title>Node10&#45;&gt;Node22</title>
<path fill="none" stroke="midnightblue" d="M817.825,-224.324C805.153,-215.979 785.767,-203.212 770.794,-193.352"/>
<polygon fill="midnightblue" stroke="midnightblue" points="772.419,-190.231 762.142,-187.655 768.569,-196.078 772.419,-190.231"/>
</g>
<!-- Node12 -->
<g id="node12" class="node"><title>Node12</title>
<g id="a_node12"><a xlink:href="point_8h.html" target="_top" xlink:title="Class Point. ">
<polygon fill="none" stroke="black" points="840,-56.5 840,-75.5 886,-75.5 886,-56.5 840,-56.5"/>
<text text-anchor="middle" x="863" y="-63.5" font-family="Helvetica,sans-Serif" font-size="10.00">point.h</text>
</a>
</g>
</g>
<!-- Node11&#45;&gt;Node12 -->
<g id="edge11" class="edge"><title>Node11&#45;&gt;Node12</title>
<path fill="none" stroke="midnightblue" d="M853.785,-168.368C855.398,-150.617 859.121,-109.666 861.309,-85.5974"/>
<polygon fill="midnightblue" stroke="midnightblue" points="864.799,-85.8673 862.219,-75.5914 857.828,-85.2334 864.799,-85.8673"/>
</g>
<!-- Node13 -->
<g id="node13" class="node"><title>Node13</title>
<polygon fill="none" stroke="#bfbfbf" points="633,-0.5 633,-19.5 687,-19.5 687,-0.5 633,-0.5"/>
<text text-anchor="middle" x="660" y="-7.5" font-family="Helvetica,sans-Serif" font-size="10.00">iostream</text>
</g>
<!-- Node11&#45;&gt;Node13 -->
<g id="edge14" class="edge"><title>Node11&#45;&gt;Node13</title>
<path fill="none" stroke="midnightblue" d="M842.895,-168.309C811.889,-141.64 717.802,-60.7157 678.043,-26.5186"/>
<polygon fill="midnightblue" stroke="midnightblue" points="679.869,-23.4725 670.005,-19.6051 675.304,-28.7795 679.869,-23.4725"/>
</g>
<!-- Node11&#45;&gt;Node14 -->
<g id="edge15" class="edge"><title>Node11&#45;&gt;Node14</title>
<path fill="none" stroke="midnightblue" d="M847.966,-168.301C836.763,-147.711 812.191,-94.8125 831,-56 837.397,-42.7996 849.752,-32.3032 861.329,-24.7794"/>
<polygon fill="midnightblue" stroke="midnightblue" points="863.155,-27.7653 869.918,-19.6099 859.546,-21.7678 863.155,-27.7653"/>
</g>
<!-- Node12&#45;&gt;Node13 -->
<g id="edge12" class="edge"><title>Node12&#45;&gt;Node13</title>
<path fill="none" stroke="midnightblue" d="M839.713,-58.8055C804.789,-49.5152 738.517,-31.8864 696.945,-20.8276"/>
<polygon fill="midnightblue" stroke="midnightblue" points="697.76,-17.4229 687.196,-18.2345 695.961,-24.1877 697.76,-17.4229"/>
</g>
<!-- Node12&#45;&gt;Node14 -->
<g id="edge13" class="edge"><title>Node12&#45;&gt;Node14</title>
<path fill="none" stroke="midnightblue" d="M867.128,-56.083C870.514,-48.77 875.416,-38.1814 879.619,-29.1034"/>
<polygon fill="midnightblue" stroke="midnightblue" points="882.923,-30.2962 883.949,-19.7511 876.571,-27.3553 882.923,-30.2962"/>
</g>
<!-- Node15&#45;&gt;Node3 -->
<g id="edge17" class="edge"><title>Node15&#45;&gt;Node3</title>
<path fill="none" stroke="midnightblue" d="M498.293,-168.444C522.807,-159.438 561.596,-145.189 589.2,-135.049"/>
<polygon fill="midnightblue" stroke="midnightblue" points="590.637,-138.25 598.816,-131.516 588.223,-131.679 590.637,-138.25"/>
</g>
<!-- Node15&#45;&gt;Node7 -->
<g id="edge23" class="edge"><title>Node15&#45;&gt;Node7</title>
<path fill="none" stroke="midnightblue" d="M451.209,-173.838C405.32,-167.575 301.241,-152.572 204.162,-132.082"/>
<polygon fill="midnightblue" stroke="midnightblue" points="204.697,-128.618 194.187,-129.952 203.235,-135.463 204.697,-128.618"/>
</g>
<!-- Node15&#45;&gt;Node8 -->
<g id="edge24" class="edge"><title>Node15&#45;&gt;Node8</title>
<path fill="none" stroke="midnightblue" d="M451.252,-171.424C412.677,-162.368 335.871,-144.335 287.648,-133.013"/>
<polygon fill="midnightblue" stroke="midnightblue" points="288.351,-129.583 277.816,-130.705 286.751,-136.398 288.351,-129.583"/>
</g>
<!-- Node15&#45;&gt;Node13 -->
<g id="edge26" class="edge"><title>Node15&#45;&gt;Node13</title>
<path fill="none" stroke="midnightblue" d="M484.686,-168.309C514.407,-141.64 604.594,-60.7157 642.705,-26.5186"/>
<polygon fill="midnightblue" stroke="midnightblue" points="645.304,-28.8887 650.41,-19.6051 640.629,-23.6786 645.304,-28.8887"/>
</g>
<!-- Node15&#45;&gt;Node14 -->
<g id="edge29" class="edge"><title>Node15&#45;&gt;Node14</title>
<path fill="none" stroke="midnightblue" d="M489.138,-168.388C514.508,-152.992 566.892,-121.471 586,-112 644.568,-82.9694 660.11,-77.0376 722,-56 767.989,-40.3676 822.559,-26.4319 856.236,-18.3487"/>
<polygon fill="midnightblue" stroke="midnightblue" points="857.063,-21.7495 865.984,-16.0326 855.445,-14.9391 857.063,-21.7495"/>
</g>
<!-- Node15&#45;&gt;Node16 -->
<g id="edge18" class="edge"><title>Node15&#45;&gt;Node16</title>
<path fill="none" stroke="midnightblue" d="M498.827,-174.432C577.508,-165.951 829.822,-138.756 932.209,-127.72"/>
<polygon fill="midnightblue" stroke="midnightblue" points="932.647,-131.193 942.214,-126.642 931.897,-124.233 932.647,-131.193"/>
</g>
<!-- Node18 -->
<g id="node18" class="node"><title>Node18</title>
<polygon fill="none" stroke="#bfbfbf" points="295.5,-112.5 295.5,-131.5 362.5,-131.5 362.5,-112.5 295.5,-112.5"/>
<text text-anchor="middle" x="329" y="-119.5" font-family="Helvetica,sans-Serif" font-size="10.00">QDateTime</text>
</g>
<!-- Node15&#45;&gt;Node18 -->
<g id="edge22" class="edge"><title>Node15&#45;&gt;Node18</title>
<path fill="none" stroke="midnightblue" d="M451.866,-168.444C427.518,-159.438 388.993,-145.189 361.577,-135.049"/>
<polygon fill="midnightblue" stroke="midnightblue" points="362.619,-131.703 352.026,-131.516 360.191,-138.268 362.619,-131.703"/>
</g>
<!-- Node19 -->
<g id="node19" class="node"><title>Node19</title>
<polygon fill="none" stroke="#bfbfbf" points="381,-112.5 381,-131.5 431,-131.5 431,-112.5 381,-112.5"/>
<text text-anchor="middle" x="406" y="-119.5" font-family="Helvetica,sans-Serif" font-size="10.00">fstream</text>
</g>
<!-- Node15&#45;&gt;Node19 -->
<g id="edge25" class="edge"><title>Node15&#45;&gt;Node19</title>
<path fill="none" stroke="midnightblue" d="M463.914,-168.324C453.514,-160.185 437.739,-147.839 425.278,-138.087"/>
<polygon fill="midnightblue" stroke="midnightblue" points="427.32,-135.241 417.288,-131.834 423.006,-140.753 427.32,-135.241"/>
</g>
<!-- Node20 -->
<g id="node20" class="node"><title>Node20</title>
<polygon fill="none" stroke="#bfbfbf" points="449,-112.5 449,-131.5 501,-131.5 501,-112.5 449,-112.5"/>
<text text-anchor="middle" x="475" y="-119.5" font-family="Helvetica,sans-Serif" font-size="10.00">sstream</text>
</g>
<!-- Node15&#45;&gt;Node20 -->
<g id="edge27" class="edge"><title>Node15&#45;&gt;Node20</title>
<path fill="none" stroke="midnightblue" d="M475,-168.083C475,-161.006 475,-150.861 475,-141.986"/>
<polygon fill="midnightblue" stroke="midnightblue" points="478.5,-141.751 475,-131.751 471.5,-141.751 478.5,-141.751"/>
</g>
<!-- Node15&#45;&gt;Node21 -->
<g id="edge28" class="edge"><title>Node15&#45;&gt;Node21</title>
<path fill="none" stroke="midnightblue" d="M498.655,-171.543C531.768,-163.819 594.019,-148.994 656.725,-131.969"/>
<polygon fill="midnightblue" stroke="midnightblue" points="657.658,-135.343 666.381,-129.331 655.813,-128.59 657.658,-135.343"/>
</g>
<!-- Node16&#45;&gt;Node12 -->
<g id="edge20" class="edge"><title>Node16&#45;&gt;Node12</title>
<path fill="none" stroke="midnightblue" d="M958.095,-112.444C939.746,-103.675 910.995,-89.9355 889.906,-79.8579"/>
<polygon fill="midnightblue" stroke="midnightblue" points="891.353,-76.6703 880.821,-75.5164 888.335,-82.9862 891.353,-76.6703"/>
</g>
<!-- Node16&#45;&gt;Node14 -->
<g id="edge21" class="edge"><title>Node16&#45;&gt;Node14</title>
<path fill="none" stroke="midnightblue" d="M970.026,-112.401C961.174,-99.78 943.904,-75.6127 928,-56 920.1,-46.2574 910.817,-35.7608 903.183,-27.3577"/>
<polygon fill="midnightblue" stroke="midnightblue" points="905.551,-24.7614 896.212,-19.7581 900.393,-29.4932 905.551,-24.7614"/>
</g>
<!-- Node17 -->
<g id="node17" class="node"><title>Node17</title>
<g id="a_node17"><a xlink:href="emissionprobability_8h.html" target="_top" xlink:title="emissionprobability.h">
<polygon fill="none" stroke="black" points="980,-56.5 980,-75.5 1088,-75.5 1088,-56.5 980,-56.5"/>
<text text-anchor="middle" x="1034" y="-63.5" font-family="Helvetica,sans-Serif" font-size="10.00">emissionprobability.h</text>
</a>
</g>
</g>
<!-- Node16&#45;&gt;Node17 -->
<g id="edge19" class="edge"><title>Node16&#45;&gt;Node17</title>
<path fill="none" stroke="midnightblue" d="M985.319,-112.324C993.893,-104.341 1006.81,-92.3128 1017.19,-82.6529"/>
<polygon fill="midnightblue" stroke="midnightblue" points="1019.58,-85.2098 1024.51,-75.8339 1014.81,-80.0865 1019.58,-85.2098"/>
</g>
<!-- Node25 -->
<g id="node25" class="node"><title>Node25</title>
<g id="a_node25"><a xlink:href="qmapscene_8h.html" target="_top" xlink:title="qmapscene.h">
<polygon fill="none" stroke="black" points="1011.5,-280.5 1011.5,-299.5 1086.5,-299.5 1086.5,-280.5 1011.5,-280.5"/>
<text text-anchor="middle" x="1049" y="-287.5" font-family="Helvetica,sans-Serif" font-size="10.00">qmapscene.h</text>
</a>
</g>
</g>
<!-- Node24&#45;&gt;Node25 -->
<g id="edge45" class="edge"><title>Node24&#45;&gt;Node25</title>
<path fill="none" stroke="midnightblue" d="M1353.32,-338.91C1290.24,-328.98 1165.41,-309.326 1096.85,-298.533"/>
<polygon fill="midnightblue" stroke="midnightblue" points="1097.18,-295.042 1086.75,-296.944 1096.09,-301.957 1097.18,-295.042"/>
</g>
<!-- Node28 -->
<g id="node28" class="node"><title>Node28</title>
<polygon fill="none" stroke="#bfbfbf" points="1399.5,-280.5 1399.5,-299.5 1484.5,-299.5 1484.5,-280.5 1399.5,-280.5"/>
<text text-anchor="middle" x="1442" y="-287.5" font-family="Helvetica,sans-Serif" font-size="10.00">QGraphicsView</text>
</g>
<!-- Node24&#45;&gt;Node28 -->
<g id="edge53" class="edge"><title>Node24&#45;&gt;Node28</title>
<path fill="none" stroke="midnightblue" d="M1400.26,-336.083C1407.46,-328.298 1418.11,-316.801 1426.85,-307.367"/>
<polygon fill="midnightblue" stroke="midnightblue" points="1429.67,-309.467 1433.9,-299.751 1424.53,-304.711 1429.67,-309.467"/>
</g>
<!-- Node29 -->
<g id="node29" class="node"><title>Node29</title>
<polygon fill="none" stroke="#bfbfbf" points="1503,-280.5 1503,-299.5 1581,-299.5 1581,-280.5 1503,-280.5"/>
<text text-anchor="middle" x="1542" y="-287.5" font-family="Helvetica,sans-Serif" font-size="10.00">QHBoxLayout</text>
</g>
<!-- Node24&#45;&gt;Node29 -->
<g id="edge54" class="edge"><title>Node24&#45;&gt;Node29</title>
<path fill="none" stroke="midnightblue" d="M1415.77,-336.444C1440.89,-327.399 1480.71,-313.064 1508.9,-302.916"/>
<polygon fill="midnightblue" stroke="midnightblue" points="1510.12,-306.197 1518.34,-299.516 1507.75,-299.611 1510.12,-306.197"/>
</g>
<!-- Node30 -->
<g id="node30" class="node"><title>Node30</title>
<polygon fill="none" stroke="#bfbfbf" points="1599.5,-280.5 1599.5,-299.5 1674.5,-299.5 1674.5,-280.5 1599.5,-280.5"/>
<text text-anchor="middle" x="1637" y="-287.5" font-family="Helvetica,sans-Serif" font-size="10.00">QPushButton</text>
</g>
<!-- Node24&#45;&gt;Node30 -->
<g id="edge55" class="edge"><title>Node24&#45;&gt;Node30</title>
<path fill="none" stroke="midnightblue" d="M1430.55,-336.503C1473.61,-327.012 1543.34,-311.643 1589.68,-301.431"/>
<polygon fill="midnightblue" stroke="midnightblue" points="1590.47,-304.841 1599.48,-299.27 1588.96,-298.005 1590.47,-304.841"/>
</g>
<!-- Node31 -->
<g id="node31" class="node"><title>Node31</title>
<polygon fill="none" stroke="#bfbfbf" points="1237.5,-280.5 1237.5,-299.5 1286.5,-299.5 1286.5,-280.5 1237.5,-280.5"/>
<text text-anchor="middle" x="1262" y="-287.5" font-family="Helvetica,sans-Serif" font-size="10.00">QSlider</text>
</g>
<!-- Node24&#45;&gt;Node31 -->
<g id="edge56" class="edge"><title>Node24&#45;&gt;Node31</title>
<path fill="none" stroke="midnightblue" d="M1371.4,-336.444C1350.01,-327.557 1316.32,-313.563 1291.98,-303.451"/>
<polygon fill="midnightblue" stroke="midnightblue" points="1293.08,-300.12 1282.5,-299.516 1290.39,-306.585 1293.08,-300.12"/>
</g>
<!-- Node32 -->
<g id="node32" class="node"><title>Node32</title>
<polygon fill="none" stroke="#bfbfbf" points="1304.5,-280.5 1304.5,-299.5 1381.5,-299.5 1381.5,-280.5 1304.5,-280.5"/>
<text text-anchor="middle" x="1343" y="-287.5" font-family="Helvetica,sans-Serif" font-size="10.00">QVBoxLayout</text>
</g>
<!-- Node24&#45;&gt;Node32 -->
<g id="edge57" class="edge"><title>Node24&#45;&gt;Node32</title>
<path fill="none" stroke="midnightblue" d="M1383.91,-336.083C1376.84,-328.298 1366.41,-316.801 1357.85,-307.367"/>
<polygon fill="midnightblue" stroke="midnightblue" points="1360.25,-304.805 1350.94,-299.751 1355.07,-309.509 1360.25,-304.805"/>
</g>
<!-- Node33 -->
<g id="node33" class="node"><title>Node33</title>
<polygon fill="none" stroke="#bfbfbf" points="1692.5,-280.5 1692.5,-299.5 1747.5,-299.5 1747.5,-280.5 1692.5,-280.5"/>
<text text-anchor="middle" x="1720" y="-287.5" font-family="Helvetica,sans-Serif" font-size="10.00">QWidget</text>
</g>
<!-- Node24&#45;&gt;Node33 -->
<g id="edge58" class="edge"><title>Node24&#45;&gt;Node33</title>
<path fill="none" stroke="midnightblue" d="M1430.93,-340.161C1485.18,-333.164 1586.75,-319.146 1682.06,-300.256"/>
<polygon fill="midnightblue" stroke="midnightblue" points="1683.03,-303.63 1692.15,-298.232 1681.66,-296.766 1683.03,-303.63"/>
</g>
<!-- Node25&#45;&gt;Node10 -->
<g id="edge48" class="edge"><title>Node25&#45;&gt;Node10</title>
<path fill="none" stroke="midnightblue" d="M1014.46,-280.444C972.82,-270.13 903.415,-252.938 862.965,-242.918"/>
<polygon fill="midnightblue" stroke="midnightblue" points="863.645,-239.481 853.097,-240.474 861.962,-246.275 863.645,-239.481"/>
</g>
<!-- Node25&#45;&gt;Node11 -->
<g id="edge47" class="edge"><title>Node25&#45;&gt;Node11</title>
<path fill="none" stroke="midnightblue" d="M1033.62,-280.368C999.629,-261.292 917.898,-215.422 877.064,-192.505"/>
<polygon fill="midnightblue" stroke="midnightblue" points="878.742,-189.433 868.308,-187.591 875.316,-195.538 878.742,-189.433"/>
</g>
<!-- Node25&#45;&gt;Node14 -->
<g id="edge52" class="edge"><title>Node25&#45;&gt;Node14</title>
<path fill="none" stroke="midnightblue" d="M1086.58,-284.853C1136.86,-278.573 1222.31,-265.098 1245,-244 1267.14,-223.42 1265,-209.225 1265,-179 1265,-179 1265,-179 1265,-121 1265,-49.4316 1011.46,-21.2688 920.224,-13.4511"/>
<polygon fill="midnightblue" stroke="midnightblue" points="920.431,-9.95635 910.176,-12.6168 919.852,-16.9323 920.431,-9.95635"/>
</g>
<!-- Node25&#45;&gt;Node16 -->
<g id="edge46" class="edge"><title>Node25&#45;&gt;Node16</title>
<path fill="none" stroke="midnightblue" d="M1040.73,-280.355C1032.89,-271.746 1021.26,-257.851 1014,-244 996.178,-209.99 985.004,-166.169 979.69,-141.684"/>
<polygon fill="midnightblue" stroke="midnightblue" points="983.061,-140.702 977.603,-131.621 976.207,-142.124 983.061,-140.702"/>
</g>
<!-- Node25&#45;&gt;Node23 -->
<g id="edge51" class="edge"><title>Node25&#45;&gt;Node23</title>
<path fill="none" stroke="midnightblue" d="M1011.31,-282.216C958.051,-272.629 860.596,-255.087 800.64,-244.295"/>
<polygon fill="midnightblue" stroke="midnightblue" points="801.088,-240.82 790.626,-242.493 799.848,-247.709 801.088,-240.82"/>
</g>
<!-- Node26 -->
<g id="node26" class="node"><title>Node26</title>
<polygon fill="none" stroke="#bfbfbf" points="1023,-224.5 1023,-243.5 1127,-243.5 1127,-224.5 1023,-224.5"/>
<text text-anchor="middle" x="1075" y="-231.5" font-family="Helvetica,sans-Serif" font-size="10.00">QGraphicsRectItem</text>
</g>
<!-- Node25&#45;&gt;Node26 -->
<g id="edge49" class="edge"><title>Node25&#45;&gt;Node26</title>
<path fill="none" stroke="midnightblue" d="M1053.29,-280.083C1056.85,-272.691 1062.02,-261.953 1066.42,-252.811"/>
<polygon fill="midnightblue" stroke="midnightblue" points="1069.6,-254.279 1070.79,-243.751 1063.29,-251.243 1069.6,-254.279"/>
</g>
<!-- Node27 -->
<g id="node27" class="node"><title>Node27</title>
<polygon fill="none" stroke="#bfbfbf" points="1145.5,-224.5 1145.5,-243.5 1236.5,-243.5 1236.5,-224.5 1145.5,-224.5"/>
<text text-anchor="middle" x="1191" y="-231.5" font-family="Helvetica,sans-Serif" font-size="10.00">QGraphicsScene</text>
</g>
<!-- Node25&#45;&gt;Node27 -->
<g id="edge50" class="edge"><title>Node25&#45;&gt;Node27</title>
<path fill="none" stroke="midnightblue" d="M1071.5,-280.444C1095.08,-271.478 1132.32,-257.314 1158.96,-247.183"/>
<polygon fill="midnightblue" stroke="midnightblue" points="1160.5,-250.342 1168.6,-243.516 1158.01,-243.8 1160.5,-250.342"/>
</g>
<!-- Node34&#45;&gt;Node30 -->
<g id="edge60" class="edge"><title>Node34&#45;&gt;Node30</title>
<path fill="none" stroke="midnightblue" d="M1671.23,-336.083C1665.44,-328.455 1656.94,-317.264 1649.86,-307.941"/>
<polygon fill="midnightblue" stroke="midnightblue" points="1652.48,-305.599 1643.64,-299.751 1646.9,-309.832 1652.48,-305.599"/>
</g>
<!-- Node34&#45;&gt;Node33 -->
<g id="edge62" class="edge"><title>Node34&#45;&gt;Node33</title>
<path fill="none" stroke="midnightblue" d="M1684.94,-336.083C1690.93,-328.377 1699.75,-317.033 1707.05,-307.653"/>
<polygon fill="midnightblue" stroke="midnightblue" points="1709.82,-309.793 1713.19,-299.751 1704.29,-305.496 1709.82,-309.793"/>
</g>
<!-- Node35 -->
<g id="node35" class="node"><title>Node35</title>
<polygon fill="none" stroke="#bfbfbf" points="1765.5,-280.5 1765.5,-299.5 1826.5,-299.5 1826.5,-280.5 1765.5,-280.5"/>
<text text-anchor="middle" x="1796" y="-287.5" font-family="Helvetica,sans-Serif" font-size="10.00">QTextEdit</text>
</g>
<!-- Node34&#45;&gt;Node35 -->
<g id="edge61" class="edge"><title>Node34&#45;&gt;Node35</title>
<path fill="none" stroke="midnightblue" d="M1696.7,-336.444C1715.94,-327.636 1746.15,-313.812 1768.2,-303.722"/>
<polygon fill="midnightblue" stroke="midnightblue" points="1769.75,-306.86 1777.39,-299.516 1766.84,-300.495 1769.75,-306.86"/>
</g>
</g>
</svg>
