<?xml version="1.0" encoding="UTF-8" standalone="no"?>
<!DOCTYPE svg PUBLIC "-//W3C//DTD SVG 1.1//EN"
 "http://www.w3.org/Graphics/SVG/1.1/DTD/svg11.dtd">
<!-- Generated by graphviz version 2.38.0 (20140413.2041)
 -->
<!-- Title: emissionprobability.h Pages: 1 -->
<svg width="762pt" height="364pt"
 viewBox="0.00 0.00 762.00 364.00" xmlns="http://www.w3.org/2000/svg" xmlns:xlink="http://www.w3.org/1999/xlink">
<g id="graph0" class="graph" transform="scale(1 1) rotate(0) translate(4 360)">
<title>emissionprobability.h</title>
<!-- Node1 -->
<g id="node1" class="node"><title>Node1</title>
<polygon fill="#bfbfbf" stroke="black" points="513.5,-336.5 513.5,-355.5 621.5,-355.5 621.5,-336.5 513.5,-336.5"/>
<text text-anchor="middle" x="567.5" y="-343.5" font-family="Helvetica,sans-Serif" font-size="10.00">emissionprobability.h</text>
</g>
<!-- Node2 -->
<g id="node2" class="node"><title>Node2</title>
<g id="a_node2"><a xlink:href="emissionprobability_8cpp.html" target="_top" xlink:title="emissionprobability.cpp">
<polygon fill="none" stroke="black" points="453,-280.5 453,-299.5 572,-299.5 572,-280.5 453,-280.5"/>
<text text-anchor="middle" x="512.5" y="-287.5" font-family="Helvetica,sans-Serif" font-size="10.00">emissionprobability.cpp</text>
</a>
</g>
</g>
<!-- Node1&#45;&gt;Node2 -->
<g id="edge1" class="edge"><title>Node1&#45;&gt;Node2</title>
<path fill="none" stroke="midnightblue" d="M551.206,-329.002C541.459,-319.433 529.447,-307.639 521.413,-299.751"/>
<polygon fill="midnightblue" stroke="midnightblue" points="548.83,-331.575 558.418,-336.083 553.734,-326.58 548.83,-331.575"/>
</g>
<!-- Node3 -->
<g id="node3" class="node"><title>Node3</title>
<g id="a_node3"><a xlink:href="point_g_p_s_8h.html" target="_top" xlink:title="pointGPS.h">
<polygon fill="none" stroke="black" points="590,-280.5 590,-299.5 657,-299.5 657,-280.5 590,-280.5"/>
<text text-anchor="middle" x="623.5" y="-287.5" font-family="Helvetica,sans-Serif" font-size="10.00">pointGPS.h</text>
</a>
</g>
</g>
<!-- Node1&#45;&gt;Node3 -->
<g id="edge2" class="edge"><title>Node1&#45;&gt;Node3</title>
<path fill="none" stroke="midnightblue" d="M583.83,-329.253C593.765,-319.673 606.088,-307.791 614.339,-299.834"/>
<polygon fill="midnightblue" stroke="midnightblue" points="581.266,-326.863 576.497,-336.324 586.125,-331.902 581.266,-326.863"/>
</g>
<!-- Node4 -->
<g id="node4" class="node"><title>Node4</title>
<g id="a_node4"><a xlink:href="track_8h.html" target="_top" xlink:title="The class Track. ">
<polygon fill="none" stroke="black" points="316,-224.5 316,-243.5 363,-243.5 363,-224.5 316,-224.5"/>
<text text-anchor="middle" x="339.5" y="-231.5" font-family="Helvetica,sans-Serif" font-size="10.00">track.h</text>
</a>
</g>
</g>
<!-- Node3&#45;&gt;Node4 -->
<g id="edge3" class="edge"><title>Node3&#45;&gt;Node4</title>
<path fill="none" stroke="midnightblue" d="M579.776,-279.691C494.692,-262.771 405.034,-246.622 363.243,-239.193"/>
<polygon fill="midnightblue" stroke="midnightblue" points="579.099,-283.125 589.59,-281.651 580.469,-276.261 579.099,-283.125"/>
</g>
<!-- Node8 -->
<g id="node8" class="node"><title>Node8</title>
<g id="a_node8"><a xlink:href="main_8cpp.html" target="_top" xlink:title="main.cpp">
<polygon fill="none" stroke="black" points="464.5,-0.5 464.5,-19.5 520.5,-19.5 520.5,-0.5 464.5,-0.5"/>
<text text-anchor="middle" x="492.5" y="-7.5" font-family="Helvetica,sans-Serif" font-size="10.00">main.cpp</text>
</a>
</g>
</g>
<!-- Node3&#45;&gt;Node8 -->
<g id="edge26" class="edge"><title>Node3&#45;&gt;Node8</title>
<path fill="none" stroke="midnightblue" d="M630.262,-270.808C637.666,-249.226 648.5,-212.005 648.5,-179 648.5,-179 648.5,-179 648.5,-121 648.5,-59.1953 565.705,-29.0611 520.75,-17.2544"/>
<polygon fill="midnightblue" stroke="midnightblue" points="626.935,-269.718 626.872,-280.313 633.528,-272.07 626.935,-269.718"/>
</g>
<!-- Node13 -->
<g id="node13" class="node"><title>Node13</title>
<g id="a_node13"><a xlink:href="solver_8h.html" target="_top" xlink:title="solver.h">
<polygon fill="none" stroke="black" points="560,-112.5 560,-131.5 611,-131.5 611,-112.5 560,-112.5"/>
<text text-anchor="middle" x="585.5" y="-119.5" font-family="Helvetica,sans-Serif" font-size="10.00">solver.h</text>
</a>
</g>
</g>
<!-- Node3&#45;&gt;Node13 -->
<g id="edge27" class="edge"><title>Node3&#45;&gt;Node13</title>
<path fill="none" stroke="midnightblue" d="M619.134,-269.93C610.891,-233.92 593.336,-157.231 587.461,-131.568"/>
<polygon fill="midnightblue" stroke="midnightblue" points="615.814,-271.108 621.457,-280.075 622.637,-269.546 615.814,-271.108"/>
</g>
<!-- Node21 -->
<g id="node21" class="node"><title>Node21</title>
<g id="a_node21"><a xlink:href="point_g_p_s_8cpp.html" target="_top" xlink:title="pointGPS.cpp">
<polygon fill="none" stroke="black" points="677,-224.5 677,-243.5 754,-243.5 754,-224.5 677,-224.5"/>
<text text-anchor="middle" x="715.5" y="-231.5" font-family="Helvetica,sans-Serif" font-size="10.00">pointGPS.cpp</text>
</a>
</g>
</g>
<!-- Node3&#45;&gt;Node21 -->
<g id="edge28" class="edge"><title>Node3&#45;&gt;Node21</title>
<path fill="none" stroke="midnightblue" d="M647.05,-275.177C663.979,-265.241 686.283,-252.149 700.755,-243.655"/>
<polygon fill="midnightblue" stroke="midnightblue" points="645.134,-272.243 638.281,-280.324 648.677,-278.28 645.134,-272.243"/>
</g>
<!-- Node5 -->
<g id="node5" class="node"><title>Node5</title>
<g id="a_node5"><a xlink:href="filtering_8h.html" target="_top" xlink:title="filtering.h">
<polygon fill="none" stroke="black" points="311.5,-168.5 311.5,-187.5 367.5,-187.5 367.5,-168.5 311.5,-168.5"/>
<text text-anchor="middle" x="339.5" y="-175.5" font-family="Helvetica,sans-Serif" font-size="10.00">filtering.h</text>
</a>
</g>
</g>
<!-- Node4&#45;&gt;Node5 -->
<g id="edge4" class="edge"><title>Node4&#45;&gt;Node5</title>
<path fill="none" stroke="midnightblue" d="M339.5,-213.805C339.5,-204.91 339.5,-194.78 339.5,-187.751"/>
<polygon fill="midnightblue" stroke="midnightblue" points="336,-214.083 339.5,-224.083 343,-214.083 336,-214.083"/>
</g>
<!-- Node7 -->
<g id="node7" class="node"><title>Node7</title>
<g id="a_node7"><a xlink:href="_main_window_8h.html" target="_top" xlink:title="MainWindow.h">
<polygon fill="none" stroke="black" points="230,-56.5 230,-75.5 311,-75.5 311,-56.5 230,-56.5"/>
<text text-anchor="middle" x="270.5" y="-63.5" font-family="Helvetica,sans-Serif" font-size="10.00">MainWindow.h</text>
</a>
</g>
</g>
<!-- Node4&#45;&gt;Node7 -->
<g id="edge22" class="edge"><title>Node4&#45;&gt;Node7</title>
<path fill="none" stroke="midnightblue" d="M305.957,-229.48C279.734,-224.767 244.904,-213.749 227.5,-188 202.157,-150.505 244.045,-96.3899 262.475,-75.5901"/>
<polygon fill="midnightblue" stroke="midnightblue" points="305.461,-232.945 315.884,-231.043 306.55,-226.03 305.461,-232.945"/>
</g>
<!-- Node4&#45;&gt;Node8 -->
<g id="edge21" class="edge"><title>Node4&#45;&gt;Node8</title>
<path fill="none" stroke="midnightblue" d="M373.46,-231.884C405.392,-228.861 451.862,-218.985 476.5,-188 517.595,-136.319 501.165,-47.356 494.668,-19.5562"/>
<polygon fill="midnightblue" stroke="midnightblue" points="372.944,-228.413 363.241,-232.667 373.479,-235.392 372.944,-228.413"/>
</g>
<!-- Node10 -->
<g id="node10" class="node"><title>Node10</title>
<g id="a_node10"><a xlink:href="road_8h.html" target="_top" xlink:title="road.h">
<polygon fill="none" stroke="black" points="423.5,-168.5 423.5,-187.5 467.5,-187.5 467.5,-168.5 423.5,-168.5"/>
<text text-anchor="middle" x="445.5" y="-175.5" font-family="Helvetica,sans-Serif" font-size="10.00">road.h</text>
</a>
</g>
</g>
<!-- Node4&#45;&gt;Node10 -->
<g id="edge9" class="edge"><title>Node4&#45;&gt;Node10</title>
<path fill="none" stroke="midnightblue" d="M365.556,-219.726C385.184,-209.727 411.528,-196.307 428.512,-187.655"/>
<polygon fill="midnightblue" stroke="midnightblue" points="363.852,-216.666 356.531,-224.324 367.03,-222.903 363.852,-216.666"/>
</g>
<!-- Node11 -->
<g id="node11" class="node"><title>Node11</title>
<g id="a_node11"><a xlink:href="grid_8h.html" target="_top" xlink:title="grid.h">
<polygon fill="none" stroke="black" points="359,-112.5 359,-131.5 400,-131.5 400,-112.5 359,-112.5"/>
<text text-anchor="middle" x="379.5" y="-119.5" font-family="Helvetica,sans-Serif" font-size="10.00">grid.h</text>
</a>
</g>
</g>
<!-- Node4&#45;&gt;Node11 -->
<g id="edge18" class="edge"><title>Node4&#45;&gt;Node11</title>
<path fill="none" stroke="midnightblue" d="M356.912,-217.067C364.366,-209.128 372.307,-198.903 376.5,-188 383.799,-169.021 382.317,-144.596 380.794,-131.767"/>
<polygon fill="midnightblue" stroke="midnightblue" points="354.385,-214.644 349.778,-224.185 359.329,-219.6 354.385,-214.644"/>
</g>
<!-- Node16 -->
<g id="node16" class="node"><title>Node16</title>
<g id="a_node16"><a xlink:href="controller_8h.html" target="_top" xlink:title="controller.h">
<polygon fill="none" stroke="black" points="12,-168.5 12,-187.5 77,-187.5 77,-168.5 12,-168.5"/>
<text text-anchor="middle" x="44.5" y="-175.5" font-family="Helvetica,sans-Serif" font-size="10.00">controller.h</text>
</a>
</g>
</g>
<!-- Node4&#45;&gt;Node16 -->
<g id="edge19" class="edge"><title>Node4&#45;&gt;Node16</title>
<path fill="none" stroke="midnightblue" d="M305.732,-226.831C258.322,-218.168 169.332,-201.9 93.5,-188 88.2253,-187.033 82.6315,-186.007 77.1825,-185.006"/>
<polygon fill="midnightblue" stroke="midnightblue" points="305.285,-230.307 315.751,-228.662 306.543,-223.421 305.285,-230.307"/>
</g>
<!-- Node18 -->
<g id="node18" class="node"><title>Node18</title>
<g id="a_node18"><a xlink:href="sauvegarde_8h.html" target="_top" xlink:title="sauvegarde.h">
<polygon fill="none" stroke="black" points="102,-168.5 102,-187.5 177,-187.5 177,-168.5 102,-168.5"/>
<text text-anchor="middle" x="139.5" y="-175.5" font-family="Helvetica,sans-Serif" font-size="10.00">sauvegarde.h</text>
</a>
</g>
</g>
<!-- Node4&#45;&gt;Node18 -->
<g id="edge23" class="edge"><title>Node4&#45;&gt;Node18</title>
<path fill="none" stroke="midnightblue" d="M305.807,-223.903C268.2,-213.749 207.818,-197.446 171.087,-187.529"/>
<polygon fill="midnightblue" stroke="midnightblue" points="305.205,-227.366 315.772,-226.593 307.03,-220.608 305.205,-227.366"/>
</g>
<!-- Node20 -->
<g id="node20" class="node"><title>Node20</title>
<g id="a_node20"><a xlink:href="track_8cpp.html" target="_top" xlink:title="track.cpp">
<polygon fill="none" stroke="black" points="236,-168.5 236,-187.5 293,-187.5 293,-168.5 236,-168.5"/>
<text text-anchor="middle" x="264.5" y="-175.5" font-family="Helvetica,sans-Serif" font-size="10.00">track.cpp</text>
</a>
</g>
</g>
<!-- Node4&#45;&gt;Node20 -->
<g id="edge25" class="edge"><title>Node4&#45;&gt;Node20</title>
<path fill="none" stroke="midnightblue" d="M319.195,-218.38C305.639,-208.62 288.258,-196.106 276.769,-187.834"/>
<polygon fill="midnightblue" stroke="midnightblue" points="317.29,-221.321 327.45,-224.324 321.38,-215.641 317.29,-221.321"/>
</g>
<!-- Node6 -->
<g id="node6" class="node"><title>Node6</title>
<g id="a_node6"><a xlink:href="filtering_8cpp.html" target="_top" xlink:title="filtering.cpp">
<polygon fill="none" stroke="black" points="274,-112.5 274,-131.5 341,-131.5 341,-112.5 274,-112.5"/>
<text text-anchor="middle" x="307.5" y="-119.5" font-family="Helvetica,sans-Serif" font-size="10.00">filtering.cpp</text>
</a>
</g>
</g>
<!-- Node5&#45;&gt;Node6 -->
<g id="edge5" class="edge"><title>Node5&#45;&gt;Node6</title>
<path fill="none" stroke="midnightblue" d="M328.996,-159.275C323.527,-150.045 317.082,-139.17 312.686,-131.751"/>
<polygon fill="midnightblue" stroke="midnightblue" points="326.107,-161.264 334.216,-168.083 332.129,-157.696 326.107,-161.264"/>
</g>
<!-- Node5&#45;&gt;Node7 -->
<g id="edge6" class="edge"><title>Node5&#45;&gt;Node7</title>
<path fill="none" stroke="midnightblue" d="M303.263,-164.154C288.831,-157.046 273.721,-146.622 265.5,-132 255.404,-114.045 262.191,-88.7666 266.957,-75.6529"/>
<polygon fill="midnightblue" stroke="midnightblue" points="302.016,-167.431 312.571,-168.356 304.897,-161.051 302.016,-167.431"/>
</g>
<!-- Node7&#45;&gt;Node8 -->
<g id="edge7" class="edge"><title>Node7&#45;&gt;Node8</title>
<path fill="none" stroke="midnightblue" d="M315.643,-54.0193C360.115,-43.2018 426.68,-27.0102 464.18,-17.8886"/>
<polygon fill="midnightblue" stroke="midnightblue" points="314.566,-50.6791 305.677,-56.4435 316.22,-57.4808 314.566,-50.6791"/>
</g>
<!-- Node9 -->
<g id="node9" class="node"><title>Node9</title>
<g id="a_node9"><a xlink:href="_main_window_8cpp.html" target="_top" xlink:title="MainWindow.cpp">
<polygon fill="none" stroke="black" points="224.5,-0.5 224.5,-19.5 316.5,-19.5 316.5,-0.5 224.5,-0.5"/>
<text text-anchor="middle" x="270.5" y="-7.5" font-family="Helvetica,sans-Serif" font-size="10.00">MainWindow.cpp</text>
</a>
</g>
</g>
<!-- Node7&#45;&gt;Node9 -->
<g id="edge8" class="edge"><title>Node7&#45;&gt;Node9</title>
<path fill="none" stroke="midnightblue" d="M270.5,-45.8045C270.5,-36.9102 270.5,-26.7798 270.5,-19.7511"/>
<polygon fill="midnightblue" stroke="midnightblue" points="267,-46.083 270.5,-56.083 274,-46.083 267,-46.083"/>
</g>
<!-- Node10&#45;&gt;Node11 -->
<g id="edge10" class="edge"><title>Node10&#45;&gt;Node11</title>
<path fill="none" stroke="midnightblue" d="M426.946,-161.82C415.122,-152.145 400.214,-139.948 390.297,-131.834"/>
<polygon fill="midnightblue" stroke="midnightblue" points="424.94,-164.7 434.896,-168.324 429.373,-159.283 424.94,-164.7"/>
</g>
<!-- Node10&#45;&gt;Node13 -->
<g id="edge14" class="edge"><title>Node10&#45;&gt;Node13</title>
<path fill="none" stroke="midnightblue" d="M477.202,-164.772C503.5,-154.629 540.216,-140.467 563.42,-131.516"/>
<polygon fill="midnightblue" stroke="midnightblue" points="475.754,-161.579 467.683,-168.444 478.273,-168.11 475.754,-161.579"/>
</g>
<!-- Node15 -->
<g id="node15" class="node"><title>Node15</title>
<g id="a_node15"><a xlink:href="road_8cpp.html" target="_top" xlink:title="road.cpp">
<polygon fill="none" stroke="black" points="418.5,-112.5 418.5,-131.5 472.5,-131.5 472.5,-112.5 418.5,-112.5"/>
<text text-anchor="middle" x="445.5" y="-119.5" font-family="Helvetica,sans-Serif" font-size="10.00">road.cpp</text>
</a>
</g>
</g>
<!-- Node10&#45;&gt;Node15 -->
<g id="edge17" class="edge"><title>Node10&#45;&gt;Node15</title>
<path fill="none" stroke="midnightblue" d="M445.5,-157.805C445.5,-148.91 445.5,-138.78 445.5,-131.751"/>
<polygon fill="midnightblue" stroke="midnightblue" points="442,-158.083 445.5,-168.083 449,-158.083 442,-158.083"/>
</g>
<!-- Node11&#45;&gt;Node7 -->
<g id="edge13" class="edge"><title>Node11&#45;&gt;Node7</title>
<path fill="none" stroke="midnightblue" d="M352.981,-107.862C332.77,-97.8492 305.513,-84.3458 287.969,-75.6545"/>
<polygon fill="midnightblue" stroke="midnightblue" points="351.473,-111.021 361.987,-112.324 354.58,-104.748 351.473,-111.021"/>
</g>
<!-- Node11&#45;&gt;Node8 -->
<g id="edge12" class="edge"><title>Node11&#45;&gt;Node8</title>
<path fill="none" stroke="midnightblue" d="M395.726,-105.205C419.947,-81.6272 464.733,-38.0294 483.674,-19.5914"/>
<polygon fill="midnightblue" stroke="midnightblue" points="393.091,-102.885 388.367,-112.368 397.974,-107.901 393.091,-102.885"/>
</g>
<!-- Node12 -->
<g id="node12" class="node"><title>Node12</title>
<g id="a_node12"><a xlink:href="grid_8cpp.html" target="_top" xlink:title="grid.cpp">
<polygon fill="none" stroke="black" points="354,-56.5 354,-75.5 405,-75.5 405,-56.5 354,-56.5"/>
<text text-anchor="middle" x="379.5" y="-63.5" font-family="Helvetica,sans-Serif" font-size="10.00">grid.cpp</text>
</a>
</g>
</g>
<!-- Node11&#45;&gt;Node12 -->
<g id="edge11" class="edge"><title>Node11&#45;&gt;Node12</title>
<path fill="none" stroke="midnightblue" d="M379.5,-101.805C379.5,-92.9102 379.5,-82.7798 379.5,-75.7511"/>
<polygon fill="midnightblue" stroke="midnightblue" points="376,-102.083 379.5,-112.083 383,-102.083 376,-102.083"/>
</g>
<!-- Node13&#45;&gt;Node8 -->
<g id="edge15" class="edge"><title>Node13&#45;&gt;Node8</title>
<path fill="none" stroke="midnightblue" d="M592.921,-102.738C597.289,-88.8423 600.398,-69.8189 591.5,-56 575.964,-31.8721 543.975,-20.5318 520.549,-15.2999"/>
<polygon fill="midnightblue" stroke="midnightblue" points="589.611,-101.599 589.513,-112.193 596.196,-103.972 589.611,-101.599"/>
</g>
<!-- Node14 -->
<g id="node14" class="node"><title>Node14</title>
<g id="a_node14"><a xlink:href="solver_8cpp.html" target="_top" xlink:title="solver.cpp">
<polygon fill="none" stroke="black" points="520.5,-56.5 520.5,-75.5 582.5,-75.5 582.5,-56.5 520.5,-56.5"/>
<text text-anchor="middle" x="551.5" y="-63.5" font-family="Helvetica,sans-Serif" font-size="10.00">solver.cpp</text>
</a>
</g>
</g>
<!-- Node13&#45;&gt;Node14 -->
<g id="edge16" class="edge"><title>Node13&#45;&gt;Node14</title>
<path fill="none" stroke="midnightblue" d="M574.523,-103.566C568.673,-94.2747 561.73,-83.2484 557.01,-75.7511"/>
<polygon fill="midnightblue" stroke="midnightblue" points="571.596,-105.486 579.886,-112.083 577.519,-101.756 571.596,-105.486"/>
</g>
<!-- Node17 -->
<g id="node17" class="node"><title>Node17</title>
<g id="a_node17"><a xlink:href="controller_8cpp.html" target="_top" xlink:title="controller.cpp">
<polygon fill="none" stroke="black" points="0,-112.5 0,-131.5 75,-131.5 75,-112.5 0,-112.5"/>
<text text-anchor="middle" x="37.5" y="-119.5" font-family="Helvetica,sans-Serif" font-size="10.00">controller.cpp</text>
</a>
</g>
</g>
<!-- Node16&#45;&gt;Node17 -->
<g id="edge20" class="edge"><title>Node16&#45;&gt;Node17</title>
<path fill="none" stroke="midnightblue" d="M42.0501,-158.101C40.888,-149.136 39.5557,-138.858 38.6344,-131.751"/>
<polygon fill="midnightblue" stroke="midnightblue" points="38.5875,-158.616 43.3441,-168.083 45.5294,-157.716 38.5875,-158.616"/>
</g>
<!-- Node19 -->
<g id="node19" class="node"><title>Node19</title>
<g id="a_node19"><a xlink:href="sauvegarde_8cpp.html" target="_top" xlink:title="sauvegarde.cpp">
<polygon fill="none" stroke="black" points="93.5,-112.5 93.5,-131.5 179.5,-131.5 179.5,-112.5 93.5,-112.5"/>
<text text-anchor="middle" x="136.5" y="-119.5" font-family="Helvetica,sans-Serif" font-size="10.00">sauvegarde.cpp</text>
</a>
</g>
</g>
<!-- Node18&#45;&gt;Node19 -->
<g id="edge24" class="edge"><title>Node18&#45;&gt;Node19</title>
<path fill="none" stroke="midnightblue" d="M138.434,-157.805C137.939,-148.91 137.377,-138.78 136.986,-131.751"/>
<polygon fill="midnightblue" stroke="midnightblue" points="134.955,-158.293 139.005,-168.083 141.944,-157.904 134.955,-158.293"/>
</g>
</g>
</svg>
