<?xml version="1.0" encoding="UTF-8" standalone="no"?>
<!DOCTYPE svg PUBLIC "-//W3C//DTD SVG 1.1//EN"
 "http://www.w3.org/Graphics/SVG/1.1/DTD/svg11.dtd">
<!-- Generated by graphviz version 2.38.0 (20140413.2041)
 -->
<!-- Title: emissionprobability.h Pages: 1 -->
<svg width="993pt" height="476pt"
 viewBox="0.00 0.00 993.37 476.00" xmlns="http://www.w3.org/2000/svg" xmlns:xlink="http://www.w3.org/1999/xlink">
<g id="graph0" class="graph" transform="scale(1 1) rotate(0) translate(4 472)">
<title>emissionprobability.h</title>
<!-- Node1 -->
<g id="node1" class="node"><title>Node1</title>
<polygon fill="#bfbfbf" stroke="black" points="532.866,-448.5 532.866,-467.5 640.866,-467.5 640.866,-448.5 532.866,-448.5"/>
<text text-anchor="middle" x="586.866" y="-455.5" font-family="Helvetica,sans-Serif" font-size="10.00">emissionprobability.h</text>
</g>
<!-- Node2 -->
<g id="node2" class="node"><title>Node2</title>
<g id="a_node2"><a xlink:href="emissionprobability_8cpp.html" target="_top" xlink:title="emissionprobability.cpp">
<polygon fill="none" stroke="black" points="472.366,-392.5 472.366,-411.5 591.366,-411.5 591.366,-392.5 472.366,-392.5"/>
<text text-anchor="middle" x="531.866" y="-399.5" font-family="Helvetica,sans-Serif" font-size="10.00">emissionprobability.cpp</text>
</a>
</g>
</g>
<!-- Node1&#45;&gt;Node2 -->
<g id="edge1" class="edge"><title>Node1&#45;&gt;Node2</title>
<path fill="none" stroke="midnightblue" d="M570.572,-441.002C560.825,-431.433 548.813,-419.639 540.779,-411.751"/>
<polygon fill="midnightblue" stroke="midnightblue" points="568.196,-443.575 577.784,-448.083 573.1,-438.58 568.196,-443.575"/>
</g>
<!-- Node3 -->
<g id="node3" class="node"><title>Node3</title>
<g id="a_node3"><a xlink:href="point_g_p_s_8h.html" target="_top" xlink:title="pointGPS.h">
<polygon fill="none" stroke="black" points="609.366,-392.5 609.366,-411.5 676.366,-411.5 676.366,-392.5 609.366,-392.5"/>
<text text-anchor="middle" x="642.866" y="-399.5" font-family="Helvetica,sans-Serif" font-size="10.00">pointGPS.h</text>
</a>
</g>
</g>
<!-- Node1&#45;&gt;Node3 -->
<g id="edge2" class="edge"><title>Node1&#45;&gt;Node3</title>
<path fill="none" stroke="midnightblue" d="M603.196,-441.253C613.131,-431.673 625.453,-419.791 633.705,-411.834"/>
<polygon fill="midnightblue" stroke="midnightblue" points="600.632,-438.863 595.863,-448.324 605.491,-443.902 600.632,-438.863"/>
</g>
<!-- Node4 -->
<g id="node4" class="node"><title>Node4</title>
<g id="a_node4"><a xlink:href="track_8h.html" target="_top" xlink:title="The class Track. ">
<polygon fill="none" stroke="black" points="258.366,-336.5 258.366,-355.5 305.366,-355.5 305.366,-336.5 258.366,-336.5"/>
<text text-anchor="middle" x="281.866" y="-343.5" font-family="Helvetica,sans-Serif" font-size="10.00">track.h</text>
</a>
</g>
</g>
<!-- Node3&#45;&gt;Node4 -->
<g id="edge3" class="edge"><title>Node3&#45;&gt;Node4</title>
<path fill="none" stroke="midnightblue" d="M598.924,-391.749C483.568,-371.582 357.138,-355.888 305.568,-349.76"/>
<polygon fill="midnightblue" stroke="midnightblue" points="598.524,-395.232 608.98,-393.523 599.741,-388.338 598.524,-395.232"/>
</g>
<!-- Node8 -->
<g id="node8" class="node"><title>Node8</title>
<g id="a_node8"><a xlink:href="main_8cpp.html" target="_top" xlink:title="main.cpp">
<polygon fill="none" stroke="black" points="453.866,-0.5 453.866,-19.5 509.866,-19.5 509.866,-0.5 453.866,-0.5"/>
<text text-anchor="middle" x="481.866" y="-7.5" font-family="Helvetica,sans-Serif" font-size="10.00">main.cpp</text>
</a>
</g>
</g>
<!-- Node3&#45;&gt;Node8 -->
<g id="edge42" class="edge"><title>Node3&#45;&gt;Node8</title>
<path fill="none" stroke="midnightblue" d="M686.649,-399.729C755.136,-395.149 879.866,-375.244 879.866,-291 879.866,-291 879.866,-291 879.866,-121 879.866,-44.2045 601.097,-18.9047 510.17,-12.6952"/>
<polygon fill="midnightblue" stroke="midnightblue" points="686.348,-396.24 676.57,-400.319 686.758,-403.228 686.348,-396.24"/>
</g>
<!-- Node13 -->
<g id="node13" class="node"><title>Node13</title>
<g id="a_node13"><a xlink:href="solver_8h.html" target="_top" xlink:title="solver.h">
<polygon fill="none" stroke="black" points="310.366,-168.5 310.366,-187.5 361.366,-187.5 361.366,-168.5 310.366,-168.5"/>
<text text-anchor="middle" x="335.866" y="-175.5" font-family="Helvetica,sans-Serif" font-size="10.00">solver.h</text>
</a>
</g>
</g>
<!-- Node3&#45;&gt;Node13 -->
<g id="edge41" class="edge"><title>Node3&#45;&gt;Node13</title>
<path fill="none" stroke="midnightblue" d="M598.97,-391.964C454.51,-372.994 98.7358,-400.377 19.8658,-300 -58.8033,-199.878 222.272,-182.558 310.311,-179.6"/>
<polygon fill="midnightblue" stroke="midnightblue" points="598.601,-395.447 608.999,-393.412 599.602,-388.518 598.601,-395.447"/>
</g>
<!-- Node17 -->
<g id="node17" class="node"><title>Node17</title>
<g id="a_node17"><a xlink:href="qmapscene_8h.html" target="_top" xlink:title="qmapscene.h">
<polygon fill="none" stroke="black" points="551.366,-224.5 551.366,-243.5 626.366,-243.5 626.366,-224.5 551.366,-224.5"/>
<text text-anchor="middle" x="588.866" y="-231.5" font-family="Helvetica,sans-Serif" font-size="10.00">qmapscene.h</text>
</a>
</g>
</g>
<!-- Node3&#45;&gt;Node17 -->
<g id="edge40" class="edge"><title>Node3&#45;&gt;Node17</title>
<path fill="none" stroke="midnightblue" d="M636.814,-382.395C625.165,-346.585 600.037,-269.342 591.653,-243.568"/>
<polygon fill="midnightblue" stroke="midnightblue" points="633.541,-383.648 639.963,-392.075 640.197,-381.483 633.541,-383.648"/>
</g>
<!-- Node25 -->
<g id="node25" class="node"><title>Node25</title>
<g id="a_node25"><a xlink:href="qmapviewer_8h.html" target="_top" xlink:title="qmapviewer.h">
<polygon fill="none" stroke="black" points="679.366,-224.5 679.366,-243.5 756.366,-243.5 756.366,-224.5 679.366,-224.5"/>
<text text-anchor="middle" x="717.866" y="-231.5" font-family="Helvetica,sans-Serif" font-size="10.00">qmapviewer.h</text>
</a>
</g>
</g>
<!-- Node3&#45;&gt;Node25 -->
<g id="edge36" class="edge"><title>Node3&#45;&gt;Node25</title>
<path fill="none" stroke="midnightblue" d="M651.064,-382.856C667.149,-347.252 702.299,-269.453 713.995,-243.568"/>
<polygon fill="midnightblue" stroke="midnightblue" points="647.826,-381.521 646.898,-392.075 654.205,-384.403 647.826,-381.521"/>
</g>
<!-- Node27 -->
<g id="node27" class="node"><title>Node27</title>
<g id="a_node27"><a xlink:href="point_g_p_s_8cpp.html" target="_top" xlink:title="pointGPS.cpp">
<polygon fill="none" stroke="black" points="908.366,-336.5 908.366,-355.5 985.366,-355.5 985.366,-336.5 908.366,-336.5"/>
<text text-anchor="middle" x="946.866" y="-343.5" font-family="Helvetica,sans-Serif" font-size="10.00">pointGPS.cpp</text>
</a>
</g>
</g>
<!-- Node3&#45;&gt;Node27 -->
<g id="edge43" class="edge"><title>Node3&#45;&gt;Node27</title>
<path fill="none" stroke="midnightblue" d="M686.764,-393.202C746.273,-382.632 851.602,-363.922 908.248,-353.86"/>
<polygon fill="midnightblue" stroke="midnightblue" points="685.794,-389.82 676.561,-395.015 687.019,-396.712 685.794,-389.82"/>
</g>
<!-- Node5 -->
<g id="node5" class="node"><title>Node5</title>
<g id="a_node5"><a xlink:href="filtering_8h.html" target="_top" xlink:title="filtering.h">
<polygon fill="none" stroke="black" points="28.8658,-280.5 28.8658,-299.5 84.8658,-299.5 84.8658,-280.5 28.8658,-280.5"/>
<text text-anchor="middle" x="56.8658" y="-287.5" font-family="Helvetica,sans-Serif" font-size="10.00">filtering.h</text>
</a>
</g>
</g>
<!-- Node4&#45;&gt;Node5 -->
<g id="edge4" class="edge"><title>Node4&#45;&gt;Node5</title>
<path fill="none" stroke="midnightblue" d="M248.198,-336.981C210.573,-328.009 147.841,-313.024 93.8658,-300 91.0381,-299.318 88.0895,-298.604 85.1449,-297.89"/>
<polygon fill="midnightblue" stroke="midnightblue" points="247.578,-340.431 258.117,-339.345 249.201,-333.622 247.578,-340.431"/>
</g>
<!-- Node7 -->
<g id="node7" class="node"><title>Node7</title>
<g id="a_node7"><a xlink:href="_main_window_8h.html" target="_top" xlink:title="MainWindow.h">
<polygon fill="none" stroke="black" points="341.366,-56.5 341.366,-75.5 422.366,-75.5 422.366,-56.5 341.366,-56.5"/>
<text text-anchor="middle" x="381.866" y="-63.5" font-family="Helvetica,sans-Serif" font-size="10.00">MainWindow.h</text>
</a>
</g>
</g>
<!-- Node4&#45;&gt;Node7 -->
<g id="edge31" class="edge"><title>Node4&#45;&gt;Node7</title>
<path fill="none" stroke="midnightblue" d="M280.693,-326.415C279.297,-293.238 279.504,-222.215 301.866,-168 318.157,-128.503 354.671,-91.7208 372.163,-75.5885"/>
<polygon fill="midnightblue" stroke="midnightblue" points="277.202,-326.679 281.22,-336.482 284.192,-326.313 277.202,-326.679"/>
</g>
<!-- Node4&#45;&gt;Node8 -->
<g id="edge32" class="edge"><title>Node4&#45;&gt;Node8</title>
<path fill="none" stroke="midnightblue" d="M247.96,-343.543C184.926,-340.149 53.0784,-329.618 19.8658,-300 -2.59733,-279.968 0.865778,-265.098 0.865778,-235 0.865778,-235 0.865778,-235 0.865778,-121 0.865778,-109.315 350.468,-37.6033 453.573,-16.7081"/>
<polygon fill="midnightblue" stroke="midnightblue" points="248.011,-347.05 258.176,-344.062 248.367,-340.059 248.011,-347.05"/>
</g>
<!-- Node10 -->
<g id="node10" class="node"><title>Node10</title>
<g id="a_node10"><a xlink:href="road_8h.html" target="_top" xlink:title="road.h">
<polygon fill="none" stroke="black" points="390.866,-280.5 390.866,-299.5 434.866,-299.5 434.866,-280.5 390.866,-280.5"/>
<text text-anchor="middle" x="412.866" y="-287.5" font-family="Helvetica,sans-Serif" font-size="10.00">road.h</text>
</a>
</g>
</g>
<!-- Node4&#45;&gt;Node10 -->
<g id="edge9" class="edge"><title>Node4&#45;&gt;Node10</title>
<path fill="none" stroke="midnightblue" d="M312.183,-332.503C336.741,-322.38 370.684,-308.388 392.206,-299.516"/>
<polygon fill="midnightblue" stroke="midnightblue" points="310.535,-329.397 302.623,-336.444 313.202,-335.868 310.535,-329.397"/>
</g>
<!-- Node11 -->
<g id="node11" class="node"><title>Node11</title>
<g id="a_node11"><a xlink:href="grid_8h.html" target="_top" xlink:title="grid.h">
<polygon fill="none" stroke="black" points="458.366,-224.5 458.366,-243.5 499.366,-243.5 499.366,-224.5 458.366,-224.5"/>
<text text-anchor="middle" x="478.866" y="-231.5" font-family="Helvetica,sans-Serif" font-size="10.00">grid.h</text>
</a>
</g>
</g>
<!-- Node4&#45;&gt;Node11 -->
<g id="edge29" class="edge"><title>Node4&#45;&gt;Node11</title>
<path fill="none" stroke="midnightblue" d="M315.67,-343.262C351.092,-339.832 406.659,-329.714 443.866,-300 462.493,-285.124 472.529,-257.551 476.625,-243.585"/>
<polygon fill="midnightblue" stroke="midnightblue" points="315.039,-339.802 305.366,-344.126 315.624,-346.778 315.039,-339.802"/>
</g>
<!-- Node4&#45;&gt;Node13 -->
<g id="edge30" class="edge"><title>Node4&#45;&gt;Node13</title>
<path fill="none" stroke="midnightblue" d="M287.918,-326.395C299.567,-290.585 324.694,-213.342 333.079,-187.568"/>
<polygon fill="midnightblue" stroke="midnightblue" points="284.534,-325.483 284.769,-336.075 291.191,-327.648 284.534,-325.483"/>
</g>
<!-- Node22 -->
<g id="node22" class="node"><title>Node22</title>
<g id="a_node22"><a xlink:href="sauvegarde_8h.html" target="_top" xlink:title="sauvegarde.h">
<polygon fill="none" stroke="black" points="178.366,-280.5 178.366,-299.5 253.366,-299.5 253.366,-280.5 178.366,-280.5"/>
<text text-anchor="middle" x="215.866" y="-287.5" font-family="Helvetica,sans-Serif" font-size="10.00">sauvegarde.h</text>
</a>
</g>
</g>
<!-- Node4&#45;&gt;Node22 -->
<g id="edge33" class="edge"><title>Node4&#45;&gt;Node22</title>
<path fill="none" stroke="midnightblue" d="M263.312,-329.82C251.488,-320.145 236.58,-307.948 226.663,-299.834"/>
<polygon fill="midnightblue" stroke="midnightblue" points="261.306,-332.7 271.262,-336.324 265.738,-327.283 261.306,-332.7"/>
</g>
<!-- Node24 -->
<g id="node24" class="node"><title>Node24</title>
<g id="a_node24"><a xlink:href="track_8cpp.html" target="_top" xlink:title="track.cpp">
<polygon fill="none" stroke="black" points="103.366,-280.5 103.366,-299.5 160.366,-299.5 160.366,-280.5 103.366,-280.5"/>
<text text-anchor="middle" x="131.866" y="-287.5" font-family="Helvetica,sans-Serif" font-size="10.00">track.cpp</text>
</a>
</g>
</g>
<!-- Node4&#45;&gt;Node24 -->
<g id="edge35" class="edge"><title>Node4&#45;&gt;Node24</title>
<path fill="none" stroke="midnightblue" d="M248.641,-333.039C220.418,-322.879 180.604,-308.546 155.523,-299.516"/>
<polygon fill="midnightblue" stroke="midnightblue" points="247.503,-336.349 258.098,-336.444 249.874,-329.763 247.503,-336.349"/>
</g>
<!-- Node6 -->
<g id="node6" class="node"><title>Node6</title>
<g id="a_node6"><a xlink:href="filtering_8cpp.html" target="_top" xlink:title="filtering.cpp">
<polygon fill="none" stroke="black" points="82.3658,-224.5 82.3658,-243.5 149.366,-243.5 149.366,-224.5 82.3658,-224.5"/>
<text text-anchor="middle" x="115.866" y="-231.5" font-family="Helvetica,sans-Serif" font-size="10.00">filtering.cpp</text>
</a>
</g>
</g>
<!-- Node5&#45;&gt;Node6 -->
<g id="edge5" class="edge"><title>Node5&#45;&gt;Node6</title>
<path fill="none" stroke="midnightblue" d="M73.7603,-273.537C84.2803,-263.909 97.4344,-251.869 106.214,-243.834"/>
<polygon fill="midnightblue" stroke="midnightblue" points="71.3588,-270.99 66.3451,-280.324 76.085,-276.154 71.3588,-270.99"/>
</g>
<!-- Node5&#45;&gt;Node7 -->
<g id="edge6" class="edge"><title>Node5&#45;&gt;Node7</title>
<path fill="none" stroke="midnightblue" d="M57.7961,-269.819C59.315,-255.954 63.177,-237.386 72.8658,-224 138.931,-132.726 273.669,-90.9789 341.273,-75.139"/>
<polygon fill="midnightblue" stroke="midnightblue" points="54.2793,-269.9 56.9949,-280.141 61.2583,-270.442 54.2793,-269.9"/>
</g>
<!-- Node7&#45;&gt;Node8 -->
<g id="edge7" class="edge"><title>Node7&#45;&gt;Node8</title>
<path fill="none" stroke="midnightblue" d="M406.954,-51.4526C425.415,-41.4835 449.962,-28.2279 465.839,-19.6545"/>
<polygon fill="midnightblue" stroke="midnightblue" points="405.069,-48.4928 397.933,-56.324 408.395,-54.6521 405.069,-48.4928"/>
</g>
<!-- Node9 -->
<g id="node9" class="node"><title>Node9</title>
<g id="a_node9"><a xlink:href="_main_window_8cpp.html" target="_top" xlink:title="MainWindow.cpp">
<polygon fill="none" stroke="black" points="335.866,-0.5 335.866,-19.5 427.866,-19.5 427.866,-0.5 335.866,-0.5"/>
<text text-anchor="middle" x="381.866" y="-7.5" font-family="Helvetica,sans-Serif" font-size="10.00">MainWindow.cpp</text>
</a>
</g>
</g>
<!-- Node7&#45;&gt;Node9 -->
<g id="edge8" class="edge"><title>Node7&#45;&gt;Node9</title>
<path fill="none" stroke="midnightblue" d="M381.866,-45.8045C381.866,-36.9102 381.866,-26.7798 381.866,-19.7511"/>
<polygon fill="midnightblue" stroke="midnightblue" points="378.366,-46.083 381.866,-56.083 385.366,-46.083 378.366,-46.083"/>
</g>
<!-- Node10&#45;&gt;Node11 -->
<g id="edge10" class="edge"><title>Node10&#45;&gt;Node11</title>
<path fill="none" stroke="midnightblue" d="M431.419,-273.82C443.244,-264.145 458.151,-251.948 468.069,-243.834"/>
<polygon fill="midnightblue" stroke="midnightblue" points="428.993,-271.283 423.47,-280.324 433.426,-276.7 428.993,-271.283"/>
</g>
<!-- Node10&#45;&gt;Node13 -->
<g id="edge27" class="edge"><title>Node10&#45;&gt;Node13</title>
<path fill="none" stroke="midnightblue" d="M398.86,-272.411C392.001,-264.06 383.757,-253.678 376.866,-244 362.936,-224.436 348.325,-200.249 340.878,-187.612"/>
<polygon fill="midnightblue" stroke="midnightblue" points="396.306,-274.814 405.392,-280.263 401.688,-270.337 396.306,-274.814"/>
</g>
<!-- Node10&#45;&gt;Node17 -->
<g id="edge22" class="edge"><title>Node10&#45;&gt;Node17</title>
<path fill="none" stroke="midnightblue" d="M444.826,-279.194C478.001,-269.015 529.373,-253.253 560.963,-243.561"/>
<polygon fill="midnightblue" stroke="midnightblue" points="443.69,-275.882 435.156,-282.161 445.743,-282.574 443.69,-275.882"/>
</g>
<!-- Node21 -->
<g id="node21" class="node"><title>Node21</title>
<g id="a_node21"><a xlink:href="road_8cpp.html" target="_top" xlink:title="road.cpp">
<polygon fill="none" stroke="black" points="385.866,-224.5 385.866,-243.5 439.866,-243.5 439.866,-224.5 385.866,-224.5"/>
<text text-anchor="middle" x="412.866" y="-231.5" font-family="Helvetica,sans-Serif" font-size="10.00">road.cpp</text>
</a>
</g>
</g>
<!-- Node10&#45;&gt;Node21 -->
<g id="edge28" class="edge"><title>Node10&#45;&gt;Node21</title>
<path fill="none" stroke="midnightblue" d="M412.866,-269.805C412.866,-260.91 412.866,-250.78 412.866,-243.751"/>
<polygon fill="midnightblue" stroke="midnightblue" points="409.366,-270.083 412.866,-280.083 416.366,-270.083 409.366,-270.083"/>
</g>
<!-- Node11&#45;&gt;Node7 -->
<g id="edge20" class="edge"><title>Node11&#45;&gt;Node7</title>
<path fill="none" stroke="midnightblue" d="M448.854,-221.57C434.296,-214.321 418.192,-203.37 409.866,-188 392.49,-155.924 457.048,-144.694 440.866,-112 432.58,-95.259 414.752,-83.0457 400.85,-75.6018"/>
<polygon fill="midnightblue" stroke="midnightblue" points="447.55,-224.822 458.099,-225.807 450.467,-218.459 447.55,-224.822"/>
</g>
<!-- Node11&#45;&gt;Node8 -->
<g id="edge21" class="edge"><title>Node11&#45;&gt;Node8</title>
<path fill="none" stroke="midnightblue" d="M479.119,-214.295C479.735,-168.644 481.3,-52.8537 481.746,-19.8837"/>
<polygon fill="midnightblue" stroke="midnightblue" points="475.619,-214.251 478.983,-224.297 482.618,-214.346 475.619,-214.251"/>
</g>
<!-- Node12 -->
<g id="node12" class="node"><title>Node12</title>
<g id="a_node12"><a xlink:href="grid_8cpp.html" target="_top" xlink:title="grid.cpp">
<polygon fill="none" stroke="black" points="418.366,-168.5 418.366,-187.5 469.366,-187.5 469.366,-168.5 418.366,-168.5"/>
<text text-anchor="middle" x="443.866" y="-175.5" font-family="Helvetica,sans-Serif" font-size="10.00">grid.cpp</text>
</a>
</g>
</g>
<!-- Node11&#45;&gt;Node12 -->
<g id="edge11" class="edge"><title>Node11&#45;&gt;Node12</title>
<path fill="none" stroke="midnightblue" d="M467.566,-215.566C461.544,-206.275 454.397,-195.248 449.538,-187.751"/>
<polygon fill="midnightblue" stroke="midnightblue" points="464.71,-217.595 473.086,-224.083 470.584,-213.788 464.71,-217.595"/>
</g>
<!-- Node11&#45;&gt;Node13 -->
<g id="edge12" class="edge"><title>Node11&#45;&gt;Node13</title>
<path fill="none" stroke="midnightblue" d="M448.387,-221.49C421.477,-211.329 382.852,-196.743 358.575,-187.576"/>
<polygon fill="midnightblue" stroke="midnightblue" points="447.481,-224.889 458.072,-225.148 449.954,-218.341 447.481,-224.889"/>
</g>
<!-- Node13&#45;&gt;Node7 -->
<g id="edge17" class="edge"><title>Node13&#45;&gt;Node7</title>
<path fill="none" stroke="midnightblue" d="M342.632,-158.389C347.48,-145.317 354.289,-127.474 360.866,-112 366.329,-99.1463 373.287,-84.5403 377.661,-75.5469"/>
<polygon fill="midnightblue" stroke="midnightblue" points="339.231,-157.497 339.07,-168.091 345.802,-159.91 339.231,-157.497"/>
</g>
<!-- Node13&#45;&gt;Node8 -->
<g id="edge18" class="edge"><title>Node13&#45;&gt;Node8</title>
<path fill="none" stroke="midnightblue" d="M329.059,-158.726C320.785,-133.061 310.503,-86.1138 332.866,-56 340.196,-46.129 412.413,-27.5489 453.551,-17.632"/>
<polygon fill="midnightblue" stroke="midnightblue" points="325.799,-160.009 332.381,-168.311 332.413,-157.716 325.799,-160.009"/>
</g>
<!-- Node14 -->
<g id="node14" class="node"><title>Node14</title>
<g id="a_node14"><a xlink:href="controller_8h.html" target="_top" xlink:title="controller.h">
<polygon fill="none" stroke="black" points="634.366,-112.5 634.366,-131.5 699.366,-131.5 699.366,-112.5 634.366,-112.5"/>
<text text-anchor="middle" x="666.866" y="-119.5" font-family="Helvetica,sans-Serif" font-size="10.00">controller.h</text>
</a>
</g>
</g>
<!-- Node13&#45;&gt;Node14 -->
<g id="edge13" class="edge"><title>Node13&#45;&gt;Node14</title>
<path fill="none" stroke="midnightblue" d="M371.682,-172.089C426.406,-164.434 534.051,-148.787 624.866,-132 627.946,-131.431 631.145,-130.806 634.343,-130.159"/>
<polygon fill="midnightblue" stroke="midnightblue" points="370.885,-168.666 361.463,-173.511 371.85,-175.599 370.885,-168.666"/>
</g>
<!-- Node16 -->
<g id="node16" class="node"><title>Node16</title>
<g id="a_node16"><a xlink:href="solver_8cpp.html" target="_top" xlink:title="solver.cpp">
<polygon fill="none" stroke="black" points="369.866,-112.5 369.866,-131.5 431.866,-131.5 431.866,-112.5 369.866,-112.5"/>
<text text-anchor="middle" x="400.866" y="-119.5" font-family="Helvetica,sans-Serif" font-size="10.00">solver.cpp</text>
</a>
</g>
</g>
<!-- Node13&#45;&gt;Node16 -->
<g id="edge19" class="edge"><title>Node13&#45;&gt;Node16</title>
<path fill="none" stroke="midnightblue" d="M354.138,-161.82C365.784,-152.145 380.465,-139.948 390.232,-131.834"/>
<polygon fill="midnightblue" stroke="midnightblue" points="351.764,-159.242 346.309,-168.324 356.238,-164.626 351.764,-159.242"/>
</g>
<!-- Node14&#45;&gt;Node7 -->
<g id="edge16" class="edge"><title>Node14&#45;&gt;Node7</title>
<path fill="none" stroke="midnightblue" d="M624.428,-111.959C547.233,-96.6217 469.144,-82.4736 422.778,-74.2159"/>
<polygon fill="midnightblue" stroke="midnightblue" points="623.834,-115.409 634.325,-113.933 625.203,-108.545 623.834,-115.409"/>
</g>
<!-- Node14&#45;&gt;Node8 -->
<g id="edge15" class="edge"><title>Node14&#45;&gt;Node8</title>
<path fill="none" stroke="midnightblue" d="M666.119,-101.724C664.529,-87.2531 660.054,-67.9508 647.866,-56 610.555,-19.4157 546.683,-11.8205 510,-10.6767"/>
<polygon fill="midnightblue" stroke="midnightblue" points="662.654,-102.341 666.868,-112.061 669.636,-101.835 662.654,-102.341"/>
</g>
<!-- Node15 -->
<g id="node15" class="node"><title>Node15</title>
<g id="a_node15"><a xlink:href="controller_8cpp.html" target="_top" xlink:title="controller.cpp">
<polygon fill="none" stroke="black" points="563.366,-56.5 563.366,-75.5 638.366,-75.5 638.366,-56.5 563.366,-56.5"/>
<text text-anchor="middle" x="600.866" y="-63.5" font-family="Helvetica,sans-Serif" font-size="10.00">controller.cpp</text>
</a>
</g>
</g>
<!-- Node14&#45;&gt;Node15 -->
<g id="edge14" class="edge"><title>Node14&#45;&gt;Node15</title>
<path fill="none" stroke="midnightblue" d="M648.312,-105.82C636.488,-96.1452 621.58,-83.9481 611.663,-75.8339"/>
<polygon fill="midnightblue" stroke="midnightblue" points="646.306,-108.7 656.262,-112.324 650.738,-103.283 646.306,-108.7"/>
</g>
<!-- Node18 -->
<g id="node18" class="node"><title>Node18</title>
<g id="a_node18"><a xlink:href="qmapwidget_8h.html" target="_top" xlink:title="qmapwidget.h">
<polygon fill="none" stroke="black" points="630.366,-168.5 630.366,-187.5 707.366,-187.5 707.366,-168.5 630.366,-168.5"/>
<text text-anchor="middle" x="668.866" y="-175.5" font-family="Helvetica,sans-Serif" font-size="10.00">qmapwidget.h</text>
</a>
</g>
</g>
<!-- Node17&#45;&gt;Node18 -->
<g id="edge23" class="edge"><title>Node17&#45;&gt;Node18</title>
<path fill="none" stroke="midnightblue" d="M610.166,-218.622C624.781,-208.757 643.693,-195.992 656.044,-187.655"/>
<polygon fill="midnightblue" stroke="midnightblue" points="608.049,-215.828 601.719,-224.324 611.966,-221.63 608.049,-215.828"/>
</g>
<!-- Node20 -->
<g id="node20" class="node"><title>Node20</title>
<g id="a_node20"><a xlink:href="qmapscene_8cpp.html" target="_top" xlink:title="qmapscene.cpp">
<polygon fill="none" stroke="black" points="525.866,-168.5 525.866,-187.5 611.866,-187.5 611.866,-168.5 525.866,-168.5"/>
<text text-anchor="middle" x="568.866" y="-175.5" font-family="Helvetica,sans-Serif" font-size="10.00">qmapscene.cpp</text>
</a>
</g>
</g>
<!-- Node17&#45;&gt;Node20 -->
<g id="edge26" class="edge"><title>Node17&#45;&gt;Node20</title>
<path fill="none" stroke="midnightblue" d="M582.084,-214.69C578.714,-205.589 574.797,-195.014 572.107,-187.751"/>
<polygon fill="midnightblue" stroke="midnightblue" points="578.808,-215.921 585.563,-224.083 585.372,-213.49 578.808,-215.921"/>
</g>
<!-- Node18&#45;&gt;Node14 -->
<g id="edge24" class="edge"><title>Node18&#45;&gt;Node14</title>
<path fill="none" stroke="midnightblue" d="M668.155,-157.805C667.825,-148.91 667.45,-138.78 667.19,-131.751"/>
<polygon fill="midnightblue" stroke="midnightblue" points="664.668,-158.219 668.536,-168.083 671.663,-157.96 664.668,-158.219"/>
</g>
<!-- Node19 -->
<g id="node19" class="node"><title>Node19</title>
<g id="a_node19"><a xlink:href="qmapwidget_8cpp.html" target="_top" xlink:title="qmapwidget.cpp">
<polygon fill="none" stroke="black" points="527.866,-112.5 527.866,-131.5 615.866,-131.5 615.866,-112.5 527.866,-112.5"/>
<text text-anchor="middle" x="571.866" y="-119.5" font-family="Helvetica,sans-Serif" font-size="10.00">qmapwidget.cpp</text>
</a>
</g>
</g>
<!-- Node18&#45;&gt;Node19 -->
<g id="edge25" class="edge"><title>Node18&#45;&gt;Node19</title>
<path fill="none" stroke="midnightblue" d="M644.531,-163.453C626.623,-153.483 602.812,-140.228 587.412,-131.655"/>
<polygon fill="midnightblue" stroke="midnightblue" points="642.841,-166.518 653.281,-168.324 646.246,-160.402 642.841,-166.518"/>
</g>
<!-- Node23 -->
<g id="node23" class="node"><title>Node23</title>
<g id="a_node23"><a xlink:href="sauvegarde_8cpp.html" target="_top" xlink:title="sauvegarde.cpp">
<polygon fill="none" stroke="black" points="167.866,-224.5 167.866,-243.5 253.866,-243.5 253.866,-224.5 167.866,-224.5"/>
<text text-anchor="middle" x="210.866" y="-231.5" font-family="Helvetica,sans-Serif" font-size="10.00">sauvegarde.cpp</text>
</a>
</g>
</g>
<!-- Node22&#45;&gt;Node23 -->
<g id="edge34" class="edge"><title>Node22&#45;&gt;Node23</title>
<path fill="none" stroke="midnightblue" d="M214.116,-270.101C213.286,-261.136 212.334,-250.858 211.676,-243.751"/>
<polygon fill="midnightblue" stroke="midnightblue" points="210.633,-270.448 215.04,-280.083 217.603,-269.803 210.633,-270.448"/>
</g>
<!-- Node25&#45;&gt;Node14 -->
<g id="edge37" class="edge"><title>Node25&#45;&gt;Node14</title>
<path fill="none" stroke="midnightblue" d="M721.442,-214.097C723.088,-200.637 723.434,-182.448 716.866,-168 709.616,-152.053 693.696,-139.344 681.755,-131.554"/>
<polygon fill="midnightblue" stroke="midnightblue" points="717.964,-213.684 719.877,-224.105 724.88,-214.766 717.964,-213.684"/>
</g>
<!-- Node25&#45;&gt;Node18 -->
<g id="edge38" class="edge"><title>Node25&#45;&gt;Node18</title>
<path fill="none" stroke="midnightblue" d="M702.831,-216.431C694.244,-206.967 683.822,-195.483 676.807,-187.751"/>
<polygon fill="midnightblue" stroke="midnightblue" points="700.463,-219.029 709.774,-224.083 705.646,-214.325 700.463,-219.029"/>
</g>
<!-- Node26 -->
<g id="node26" class="node"><title>Node26</title>
<g id="a_node26"><a xlink:href="qmapviewer_8cpp.html" target="_top" xlink:title="qmapviewer.cpp">
<polygon fill="none" stroke="black" points="763.866,-168.5 763.866,-187.5 851.866,-187.5 851.866,-168.5 763.866,-168.5"/>
<text text-anchor="middle" x="807.866" y="-175.5" font-family="Helvetica,sans-Serif" font-size="10.00">qmapviewer.cpp</text>
</a>
</g>
</g>
<!-- Node25&#45;&gt;Node26 -->
<g id="edge39" class="edge"><title>Node25&#45;&gt;Node26</title>
<path fill="none" stroke="midnightblue" d="M740.904,-219.177C757.465,-209.241 779.284,-196.149 793.442,-187.655"/>
<polygon fill="midnightblue" stroke="midnightblue" points="739.1,-216.178 732.326,-224.324 742.702,-222.18 739.1,-216.178"/>
</g>
</g>
</svg>
