<?xml version="1.0" encoding="UTF-8" standalone="no"?>
<!DOCTYPE svg PUBLIC "-//W3C//DTD SVG 1.1//EN"
 "http://www.w3.org/Graphics/SVG/1.1/DTD/svg11.dtd">
<!-- Generated by graphviz version 2.38.0 (20140413.2041)
 -->
<!-- Title: file.h Pages: 1 -->
<svg width="286pt" height="84pt"
 viewBox="0.00 0.00 285.50 84.00" xmlns="http://www.w3.org/2000/svg" xmlns:xlink="http://www.w3.org/1999/xlink">
<g id="graph0" class="graph" transform="scale(1 1) rotate(0) translate(4 80)">
<title>file.h</title>
<!-- Node1 -->
<g id="node1" class="node"><title>Node1</title>
<polygon fill="#bfbfbf" stroke="black" points="111,-56.5 111,-75.5 149,-75.5 149,-56.5 111,-56.5"/>
<text text-anchor="middle" x="130" y="-63.5" font-family="Helvetica,sans-Serif" font-size="10.00">file.h</text>
</g>
<!-- Node2 -->
<g id="node2" class="node"><title>Node2</title>
<polygon fill="none" stroke="#bfbfbf" points="0,-0.5 0,-19.5 40,-19.5 40,-0.5 0,-0.5"/>
<text text-anchor="middle" x="20" y="-7.5" font-family="Helvetica,sans-Serif" font-size="10.00">QFile</text>
</g>
<!-- Node1&#45;&gt;Node2 -->
<g id="edge1" class="edge"><title>Node1&#45;&gt;Node2</title>
<path fill="none" stroke="midnightblue" d="M112.327,-56.324C94.6059,-47.6247 67.0968,-34.1202 46.7116,-24.113"/>
<polygon fill="midnightblue" stroke="midnightblue" points="48.1486,-20.9195 37.6295,-19.6545 45.0639,-27.2031 48.1486,-20.9195"/>
</g>
<!-- Node3 -->
<g id="node3" class="node"><title>Node3</title>
<polygon fill="none" stroke="#bfbfbf" points="58,-0.5 58,-19.5 126,-19.5 126,-0.5 58,-0.5"/>
<text text-anchor="middle" x="92" y="-7.5" font-family="Helvetica,sans-Serif" font-size="10.00">QFileDialog</text>
</g>
<!-- Node1&#45;&gt;Node3 -->
<g id="edge2" class="edge"><title>Node1&#45;&gt;Node3</title>
<path fill="none" stroke="midnightblue" d="M123.725,-56.083C118.358,-48.4554 110.482,-37.2645 103.921,-27.9408"/>
<polygon fill="midnightblue" stroke="midnightblue" points="106.775,-25.9149 98.1582,-19.7511 101.051,-29.9434 106.775,-25.9149"/>
</g>
<!-- Node4 -->
<g id="node4" class="node"><title>Node4</title>
<polygon fill="none" stroke="#bfbfbf" points="144,-0.5 144,-19.5 194,-19.5 194,-0.5 144,-0.5"/>
<text text-anchor="middle" x="169" y="-7.5" font-family="Helvetica,sans-Serif" font-size="10.00">QString</text>
</g>
<!-- Node1&#45;&gt;Node4 -->
<g id="edge3" class="edge"><title>Node1&#45;&gt;Node4</title>
<path fill="none" stroke="midnightblue" d="M136.44,-56.083C141.949,-48.4554 150.031,-37.2645 156.765,-27.9408"/>
<polygon fill="midnightblue" stroke="midnightblue" points="159.662,-29.9071 162.68,-19.7511 153.987,-25.8087 159.662,-29.9071"/>
</g>
<!-- Node5 -->
<g id="node5" class="node"><title>Node5</title>
<polygon fill="none" stroke="#bfbfbf" points="212.5,-0.5 212.5,-19.5 277.5,-19.5 277.5,-0.5 212.5,-0.5"/>
<text text-anchor="middle" x="245" y="-7.5" font-family="Helvetica,sans-Serif" font-size="10.00">QStringList</text>
</g>
<!-- Node1&#45;&gt;Node5 -->
<g id="edge4" class="edge"><title>Node1&#45;&gt;Node5</title>
<path fill="none" stroke="midnightblue" d="M148.222,-56.4435C166.896,-47.6751 196.156,-33.9355 217.617,-23.8579"/>
<polygon fill="midnightblue" stroke="midnightblue" points="219.299,-26.935 226.863,-19.5164 216.324,-20.5988 219.299,-26.935"/>
</g>
</g>
</svg>
