<?xml version="1.0" encoding="UTF-8" standalone="no"?>
<!DOCTYPE svg PUBLIC "-//W3C//DTD SVG 1.1//EN"
 "http://www.w3.org/Graphics/SVG/1.1/DTD/svg11.dtd">
<!-- Generated by graphviz version 2.38.0 (20140413.2041)
 -->
<!-- Title: file.h Pages: 1 -->
<svg width="476pt" height="252pt"
 viewBox="0.00 0.00 475.50 252.00" xmlns="http://www.w3.org/2000/svg" xmlns:xlink="http://www.w3.org/1999/xlink">
<g id="graph0" class="graph" transform="scale(1 1) rotate(0) translate(4 248)">
<title>file.h</title>
<!-- Node1 -->
<g id="node1" class="node"><title>Node1</title>
<polygon fill="#bfbfbf" stroke="black" points="221.5,-224.5 221.5,-243.5 259.5,-243.5 259.5,-224.5 221.5,-224.5"/>
<text text-anchor="middle" x="240.5" y="-231.5" font-family="Helvetica,sans-Serif" font-size="10.00">file.h</text>
</g>
<!-- Node2 -->
<g id="node2" class="node"><title>Node2</title>
<g id="a_node2"><a xlink:href="file_8cpp.html" target="_top" xlink:title="file.cpp">
<polygon fill="none" stroke="black" points="110.5,-168.5 110.5,-187.5 158.5,-187.5 158.5,-168.5 110.5,-168.5"/>
<text text-anchor="middle" x="134.5" y="-175.5" font-family="Helvetica,sans-Serif" font-size="10.00">file.cpp</text>
</a>
</g>
</g>
<!-- Node1&#45;&gt;Node2 -->
<g id="edge1" class="edge"><title>Node1&#45;&gt;Node2</title>
<path fill="none" stroke="midnightblue" d="M214.444,-219.726C194.816,-209.727 168.472,-196.307 151.488,-187.655"/>
<polygon fill="midnightblue" stroke="midnightblue" points="212.97,-222.903 223.469,-224.324 216.148,-216.666 212.97,-222.903"/>
</g>
<!-- Node3 -->
<g id="node3" class="node"><title>Node3</title>
<g id="a_node3"><a xlink:href="filtering_8h.html" target="_top" xlink:title="filtering.h">
<polygon fill="none" stroke="black" points="176.5,-168.5 176.5,-187.5 232.5,-187.5 232.5,-168.5 176.5,-168.5"/>
<text text-anchor="middle" x="204.5" y="-175.5" font-family="Helvetica,sans-Serif" font-size="10.00">filtering.h</text>
</a>
</g>
</g>
<!-- Node1&#45;&gt;Node3 -->
<g id="edge2" class="edge"><title>Node1&#45;&gt;Node3</title>
<path fill="none" stroke="midnightblue" d="M228.877,-215.566C222.683,-206.275 215.332,-195.248 210.334,-187.751"/>
<polygon fill="midnightblue" stroke="midnightblue" points="226.096,-217.704 234.555,-224.083 231.92,-213.821 226.096,-217.704"/>
</g>
<!-- Node8 -->
<g id="node8" class="node"><title>Node8</title>
<g id="a_node8"><a xlink:href="solver_8h.html" target="_top" xlink:title="solver.h">
<polygon fill="none" stroke="black" points="251,-168.5 251,-187.5 302,-187.5 302,-168.5 251,-168.5"/>
<text text-anchor="middle" x="276.5" y="-175.5" font-family="Helvetica,sans-Serif" font-size="10.00">solver.h</text>
</a>
</g>
</g>
<!-- Node1&#45;&gt;Node8 -->
<g id="edge7" class="edge"><title>Node1&#45;&gt;Node8</title>
<path fill="none" stroke="midnightblue" d="M252.123,-215.566C258.317,-206.275 265.668,-195.248 270.666,-187.751"/>
<polygon fill="midnightblue" stroke="midnightblue" points="249.08,-213.821 246.445,-224.083 254.904,-217.704 249.08,-213.821"/>
</g>
<!-- Node12 -->
<g id="node12" class="node"><title>Node12</title>
<g id="a_node12"><a xlink:href="loading_8h.html" target="_top" xlink:title="loading.h">
<polygon fill="none" stroke="black" points="345.5,-168.5 345.5,-187.5 401.5,-187.5 401.5,-168.5 345.5,-168.5"/>
<text text-anchor="middle" x="373.5" y="-175.5" font-family="Helvetica,sans-Serif" font-size="10.00">loading.h</text>
</a>
</g>
</g>
<!-- Node1&#45;&gt;Node12 -->
<g id="edge15" class="edge"><title>Node1&#45;&gt;Node12</title>
<path fill="none" stroke="midnightblue" d="M268.878,-221.478C293.868,-211.332 329.705,-196.781 352.281,-187.615"/>
<polygon fill="midnightblue" stroke="midnightblue" points="267.504,-218.258 259.556,-225.263 270.138,-224.744 267.504,-218.258"/>
</g>
<!-- Node4 -->
<g id="node4" class="node"><title>Node4</title>
<g id="a_node4"><a xlink:href="filtering_8cpp.html" target="_top" xlink:title="filtering.cpp">
<polygon fill="none" stroke="black" points="0,-112.5 0,-131.5 67,-131.5 67,-112.5 0,-112.5"/>
<text text-anchor="middle" x="33.5" y="-119.5" font-family="Helvetica,sans-Serif" font-size="10.00">filtering.cpp</text>
</a>
</g>
</g>
<!-- Node3&#45;&gt;Node4 -->
<g id="edge3" class="edge"><title>Node3&#45;&gt;Node4</title>
<path fill="none" stroke="midnightblue" d="M167.464,-165.304C135.243,-155.129 89.3112,-140.625 60.4687,-131.516"/>
<polygon fill="midnightblue" stroke="midnightblue" points="166.815,-168.77 177.405,-168.444 168.923,-162.095 166.815,-168.77"/>
</g>
<!-- Node5 -->
<g id="node5" class="node"><title>Node5</title>
<g id="a_node5"><a xlink:href="_main_window_8h.html" target="_top" xlink:title="MainWindow.h">
<polygon fill="none" stroke="black" points="255,-56.5 255,-75.5 336,-75.5 336,-56.5 255,-56.5"/>
<text text-anchor="middle" x="295.5" y="-63.5" font-family="Helvetica,sans-Serif" font-size="10.00">MainWindow.h</text>
</a>
</g>
</g>
<!-- Node3&#45;&gt;Node5 -->
<g id="edge4" class="edge"><title>Node3&#45;&gt;Node5</title>
<path fill="none" stroke="midnightblue" d="M210.793,-158.89C216.183,-145.076 224.911,-126.088 236.5,-112 249.021,-96.7779 267.65,-83.6773 280.613,-75.5996"/>
<polygon fill="midnightblue" stroke="midnightblue" points="207.507,-157.685 207.33,-168.278 214.075,-160.107 207.507,-157.685"/>
</g>
<!-- Node6 -->
<g id="node6" class="node"><title>Node6</title>
<g id="a_node6"><a xlink:href="main_8cpp.html" target="_top" xlink:title="main.cpp">
<polygon fill="none" stroke="black" points="105.5,-0.5 105.5,-19.5 161.5,-19.5 161.5,-0.5 105.5,-0.5"/>
<text text-anchor="middle" x="133.5" y="-7.5" font-family="Helvetica,sans-Serif" font-size="10.00">main.cpp</text>
</a>
</g>
</g>
<!-- Node5&#45;&gt;Node6 -->
<g id="edge5" class="edge"><title>Node5&#45;&gt;Node6</title>
<path fill="none" stroke="midnightblue" d="M260.016,-53.172C229.512,-43.0039 186.255,-28.5852 159.049,-19.5164"/>
<polygon fill="midnightblue" stroke="midnightblue" points="259.237,-56.6016 269.831,-56.4435 261.451,-49.9608 259.237,-56.6016"/>
</g>
<!-- Node7 -->
<g id="node7" class="node"><title>Node7</title>
<g id="a_node7"><a xlink:href="_main_window_8cpp.html" target="_top" xlink:title="MainWindow.cpp">
<polygon fill="none" stroke="black" points="249.5,-0.5 249.5,-19.5 341.5,-19.5 341.5,-0.5 249.5,-0.5"/>
<text text-anchor="middle" x="295.5" y="-7.5" font-family="Helvetica,sans-Serif" font-size="10.00">MainWindow.cpp</text>
</a>
</g>
</g>
<!-- Node5&#45;&gt;Node7 -->
<g id="edge6" class="edge"><title>Node5&#45;&gt;Node7</title>
<path fill="none" stroke="midnightblue" d="M295.5,-45.8045C295.5,-36.9102 295.5,-26.7798 295.5,-19.7511"/>
<polygon fill="midnightblue" stroke="midnightblue" points="292,-46.083 295.5,-56.083 299,-46.083 292,-46.083"/>
</g>
<!-- Node8&#45;&gt;Node5 -->
<g id="edge13" class="edge"><title>Node8&#45;&gt;Node5</title>
<path fill="none" stroke="midnightblue" d="M295.29,-161.657C303.469,-153.761 312.165,-143.402 316.5,-132 324.086,-112.047 310.622,-88.018 301.959,-75.5092"/>
<polygon fill="midnightblue" stroke="midnightblue" points="292.858,-159.137 287.766,-168.427 297.541,-164.34 292.858,-159.137"/>
</g>
<!-- Node8&#45;&gt;Node6 -->
<g id="edge12" class="edge"><title>Node8&#45;&gt;Node6</title>
<path fill="none" stroke="midnightblue" d="M241.049,-167.721C193.969,-155.318 116.464,-134.585 114.5,-132 88.2501,-97.4645 115.901,-41.1338 128.217,-19.6743"/>
<polygon fill="midnightblue" stroke="midnightblue" points="240.318,-171.148 250.88,-170.307 242.099,-164.378 240.318,-171.148"/>
</g>
<!-- Node9 -->
<g id="node9" class="node"><title>Node9</title>
<g id="a_node9"><a xlink:href="controller_8h.html" target="_top" xlink:title="controller.h">
<polygon fill="none" stroke="black" points="124,-112.5 124,-131.5 189,-131.5 189,-112.5 124,-112.5"/>
<text text-anchor="middle" x="156.5" y="-119.5" font-family="Helvetica,sans-Serif" font-size="10.00">controller.h</text>
</a>
</g>
</g>
<!-- Node8&#45;&gt;Node9 -->
<g id="edge8" class="edge"><title>Node8&#45;&gt;Node9</title>
<path fill="none" stroke="midnightblue" d="M248.127,-164.232C225.68,-154.131 194.965,-140.309 175.425,-131.516"/>
<polygon fill="midnightblue" stroke="midnightblue" points="246.93,-167.532 257.486,-168.444 249.803,-161.148 246.93,-167.532"/>
</g>
<!-- Node11 -->
<g id="node11" class="node"><title>Node11</title>
<g id="a_node11"><a xlink:href="solver_8cpp.html" target="_top" xlink:title="solver.cpp">
<polygon fill="none" stroke="black" points="245.5,-112.5 245.5,-131.5 307.5,-131.5 307.5,-112.5 245.5,-112.5"/>
<text text-anchor="middle" x="276.5" y="-119.5" font-family="Helvetica,sans-Serif" font-size="10.00">solver.cpp</text>
</a>
</g>
</g>
<!-- Node8&#45;&gt;Node11 -->
<g id="edge14" class="edge"><title>Node8&#45;&gt;Node11</title>
<path fill="none" stroke="midnightblue" d="M276.5,-157.805C276.5,-148.91 276.5,-138.78 276.5,-131.751"/>
<polygon fill="midnightblue" stroke="midnightblue" points="273,-158.083 276.5,-168.083 280,-158.083 273,-158.083"/>
</g>
<!-- Node9&#45;&gt;Node5 -->
<g id="edge11" class="edge"><title>Node9&#45;&gt;Node5</title>
<path fill="none" stroke="midnightblue" d="M187.976,-108.772C214.085,-98.6287 250.539,-84.4669 273.578,-75.5164"/>
<polygon fill="midnightblue" stroke="midnightblue" points="186.579,-105.56 178.525,-112.444 189.114,-112.085 186.579,-105.56"/>
</g>
<!-- Node9&#45;&gt;Node6 -->
<g id="edge10" class="edge"><title>Node9&#45;&gt;Node6</title>
<path fill="none" stroke="midnightblue" d="M152.6,-102.348C147.562,-78.2538 139.001,-37.3079 135.296,-19.5914"/>
<polygon fill="midnightblue" stroke="midnightblue" points="149.223,-103.297 154.695,-112.368 156.074,-101.864 149.223,-103.297"/>
</g>
<!-- Node10 -->
<g id="node10" class="node"><title>Node10</title>
<g id="a_node10"><a xlink:href="controller_8cpp.html" target="_top" xlink:title="controller.cpp">
<polygon fill="none" stroke="black" points="162,-56.5 162,-75.5 237,-75.5 237,-56.5 162,-56.5"/>
<text text-anchor="middle" x="199.5" y="-63.5" font-family="Helvetica,sans-Serif" font-size="10.00">controller.cpp</text>
</a>
</g>
</g>
<!-- Node9&#45;&gt;Node10 -->
<g id="edge9" class="edge"><title>Node9&#45;&gt;Node10</title>
<path fill="none" stroke="midnightblue" d="M169.922,-104.144C177.414,-94.7357 186.437,-83.4046 192.532,-75.7511"/>
<polygon fill="midnightblue" stroke="midnightblue" points="167.092,-102.08 163.601,-112.083 172.568,-106.44 167.092,-102.08"/>
</g>
<!-- Node12&#45;&gt;Node5 -->
<g id="edge17" class="edge"><title>Node12&#45;&gt;Node5</title>
<path fill="none" stroke="midnightblue" d="M363.054,-159.809C354.822,-146.521 342.874,-127.791 331.5,-112 322.144,-99.0108 310.421,-84.68 302.944,-75.7585"/>
<polygon fill="midnightblue" stroke="midnightblue" points="360.116,-161.712 368.33,-168.404 366.081,-158.05 360.116,-161.712"/>
</g>
<!-- Node13 -->
<g id="node13" class="node"><title>Node13</title>
<g id="a_node13"><a xlink:href="loading_8cpp.html" target="_top" xlink:title="loading.cpp">
<polygon fill="none" stroke="black" points="401.5,-112.5 401.5,-131.5 467.5,-131.5 467.5,-112.5 401.5,-112.5"/>
<text text-anchor="middle" x="434.5" y="-119.5" font-family="Helvetica,sans-Serif" font-size="10.00">loading.cpp</text>
</a>
</g>
</g>
<!-- Node12&#45;&gt;Node13 -->
<g id="edge16" class="edge"><title>Node12&#45;&gt;Node13</title>
<path fill="none" stroke="midnightblue" d="M390.967,-161.537C401.844,-151.909 415.444,-139.869 424.521,-131.834"/>
<polygon fill="midnightblue" stroke="midnightblue" points="388.468,-159.075 383.301,-168.324 393.108,-164.316 388.468,-159.075"/>
</g>
</g>
</svg>
