<?xml version="1.0" encoding="UTF-8" standalone="no"?>
<!DOCTYPE svg PUBLIC "-//W3C//DTD SVG 1.1//EN"
 "http://www.w3.org/Graphics/SVG/1.1/DTD/svg11.dtd">
<!-- Generated by graphviz version 2.38.0 (20140413.2041)
 -->
<!-- Title: file.h Pages: 1 -->
<svg width="321pt" height="196pt"
 viewBox="0.00 0.00 321.00 196.00" xmlns="http://www.w3.org/2000/svg" xmlns:xlink="http://www.w3.org/1999/xlink">
<g id="graph0" class="graph" transform="scale(1 1) rotate(0) translate(4 192)">
<title>file.h</title>
<!-- Node1 -->
<g id="node1" class="node"><title>Node1</title>
<polygon fill="#bfbfbf" stroke="black" points="57,-168.5 57,-187.5 95,-187.5 95,-168.5 57,-168.5"/>
<text text-anchor="middle" x="76" y="-175.5" font-family="Helvetica,sans-Serif" font-size="10.00">file.h</text>
</g>
<!-- Node2 -->
<g id="node2" class="node"><title>Node2</title>
<g id="a_node2"><a xlink:href="file_8cpp.html" target="_top" xlink:title="file.cpp">
<polygon fill="none" stroke="black" points="0,-112.5 0,-131.5 48,-131.5 48,-112.5 0,-112.5"/>
<text text-anchor="middle" x="24" y="-119.5" font-family="Helvetica,sans-Serif" font-size="10.00">file.cpp</text>
</a>
</g>
</g>
<!-- Node1&#45;&gt;Node2 -->
<g id="edge1" class="edge"><title>Node1&#45;&gt;Node2</title>
<path fill="none" stroke="midnightblue" d="M60.3206,-160.718C51.1553,-151.2 39.9474,-139.561 32.427,-131.751"/>
<polygon fill="midnightblue" stroke="midnightblue" points="57.9557,-163.308 67.4133,-168.083 62.9979,-158.452 57.9557,-163.308"/>
</g>
<!-- Node3 -->
<g id="node3" class="node"><title>Node3</title>
<g id="a_node3"><a xlink:href="loading_8h.html" target="_top" xlink:title="loading.h">
<polygon fill="none" stroke="black" points="126,-112.5 126,-131.5 182,-131.5 182,-112.5 126,-112.5"/>
<text text-anchor="middle" x="154" y="-119.5" font-family="Helvetica,sans-Serif" font-size="10.00">loading.h</text>
</a>
</g>
</g>
<!-- Node1&#45;&gt;Node3 -->
<g id="edge2" class="edge"><title>Node1&#45;&gt;Node3</title>
<path fill="none" stroke="midnightblue" d="M96.768,-162.622C111.017,-152.757 129.456,-139.992 141.499,-131.655"/>
<polygon fill="midnightblue" stroke="midnightblue" points="94.7617,-159.754 88.532,-168.324 98.7462,-165.51 94.7617,-159.754"/>
</g>
<!-- Node5 -->
<g id="node5" class="node"><title>Node5</title>
<g id="a_node5"><a xlink:href="main_8cpp.html" target="_top" xlink:title="main.cpp">
<polygon fill="none" stroke="black" points="86,-0.5 86,-19.5 142,-19.5 142,-0.5 86,-0.5"/>
<text text-anchor="middle" x="114" y="-7.5" font-family="Helvetica,sans-Serif" font-size="10.00">main.cpp</text>
</a>
</g>
</g>
<!-- Node1&#45;&gt;Node5 -->
<g id="edge8" class="edge"><title>Node1&#45;&gt;Node5</title>
<path fill="none" stroke="midnightblue" d="M80.3655,-157.93C88.6086,-121.92 106.164,-45.2312 112.039,-19.5681"/>
<polygon fill="midnightblue" stroke="midnightblue" points="76.8628,-157.546 78.043,-168.075 83.6863,-159.108 76.8628,-157.546"/>
</g>
<!-- Node4 -->
<g id="node4" class="node"><title>Node4</title>
<g id="a_node4"><a xlink:href="loading_8cpp.html" target="_top" xlink:title="loading.cpp">
<polygon fill="none" stroke="black" points="142,-56.5 142,-75.5 208,-75.5 208,-56.5 142,-56.5"/>
<text text-anchor="middle" x="175" y="-63.5" font-family="Helvetica,sans-Serif" font-size="10.00">loading.cpp</text>
</a>
</g>
</g>
<!-- Node3&#45;&gt;Node4 -->
<g id="edge3" class="edge"><title>Node3&#45;&gt;Node4</title>
<path fill="none" stroke="midnightblue" d="M161.121,-102.69C164.66,-93.589 168.772,-83.0141 171.597,-75.7511"/>
<polygon fill="midnightblue" stroke="midnightblue" points="157.83,-101.494 157.468,-112.083 164.354,-104.032 157.83,-101.494"/>
</g>
<!-- Node3&#45;&gt;Node5 -->
<g id="edge4" class="edge"><title>Node3&#45;&gt;Node5</title>
<path fill="none" stroke="midnightblue" d="M144.827,-102.988C140.891,-94.8649 136.421,-85.0755 133,-76 125.535,-56.1979 119.174,-32.1075 116.056,-19.5491"/>
<polygon fill="midnightblue" stroke="midnightblue" points="141.824,-104.809 149.408,-112.207 148.093,-101.694 141.824,-104.809"/>
</g>
<!-- Node6 -->
<g id="node6" class="node"><title>Node6</title>
<g id="a_node6"><a xlink:href="_main_window_8h.html" target="_top" xlink:title="MainWindow.h">
<polygon fill="none" stroke="black" points="226.5,-56.5 226.5,-75.5 307.5,-75.5 307.5,-56.5 226.5,-56.5"/>
<text text-anchor="middle" x="267" y="-63.5" font-family="Helvetica,sans-Serif" font-size="10.00">MainWindow.h</text>
</a>
</g>
</g>
<!-- Node3&#45;&gt;Node6 -->
<g id="edge5" class="edge"><title>Node3&#45;&gt;Node6</title>
<path fill="none" stroke="midnightblue" d="M181.003,-108.096C202.114,-98.0073 230.862,-84.2697 249.179,-75.5164"/>
<polygon fill="midnightblue" stroke="midnightblue" points="179.419,-104.974 171.905,-112.444 182.437,-111.29 179.419,-104.974"/>
</g>
<!-- Node6&#45;&gt;Node5 -->
<g id="edge6" class="edge"><title>Node6&#45;&gt;Node5</title>
<path fill="none" stroke="midnightblue" d="M233.111,-53.0392C204.323,-42.8786 163.713,-28.5457 138.13,-19.5164"/>
<polygon fill="midnightblue" stroke="midnightblue" points="232.162,-56.4157 242.757,-56.4435 234.492,-49.8148 232.162,-56.4157"/>
</g>
<!-- Node7 -->
<g id="node7" class="node"><title>Node7</title>
<g id="a_node7"><a xlink:href="_main_window_8cpp.html" target="_top" xlink:title="MainWindow.cpp">
<polygon fill="none" stroke="black" points="221,-0.5 221,-19.5 313,-19.5 313,-0.5 221,-0.5"/>
<text text-anchor="middle" x="267" y="-7.5" font-family="Helvetica,sans-Serif" font-size="10.00">MainWindow.cpp</text>
</a>
</g>
</g>
<!-- Node6&#45;&gt;Node7 -->
<g id="edge7" class="edge"><title>Node6&#45;&gt;Node7</title>
<path fill="none" stroke="midnightblue" d="M267,-45.8045C267,-36.9102 267,-26.7798 267,-19.7511"/>
<polygon fill="midnightblue" stroke="midnightblue" points="263.5,-46.083 267,-56.083 270.5,-46.083 263.5,-46.083"/>
</g>
</g>
</svg>
