<?xml version="1.0" encoding="UTF-8" standalone="no"?>
<!DOCTYPE svg PUBLIC "-//W3C//DTD SVG 1.1//EN"
 "http://www.w3.org/Graphics/SVG/1.1/DTD/svg11.dtd">
<!-- Generated by graphviz version 2.38.0 (20140413.2041)
 -->
<!-- Title: file.h Pages: 1 -->
<svg width="609pt" height="140pt"
 viewBox="0.00 0.00 609.00 140.00" xmlns="http://www.w3.org/2000/svg" xmlns:xlink="http://www.w3.org/1999/xlink">
<g id="graph0" class="graph" transform="scale(1 1) rotate(0) translate(4 136)">
<title>file.h</title>
<!-- Node1 -->
<g id="node1" class="node"><title>Node1</title>
<polygon fill="#bfbfbf" stroke="black" points="270,-112.5 270,-131.5 308,-131.5 308,-112.5 270,-112.5"/>
<text text-anchor="middle" x="289" y="-119.5" font-family="Helvetica,sans-Serif" font-size="10.00">file.h</text>
</g>
<!-- Node2 -->
<g id="node2" class="node"><title>Node2</title>
<polygon fill="none" stroke="#bfbfbf" points="0,-56.5 0,-75.5 40,-75.5 40,-56.5 0,-56.5"/>
<text text-anchor="middle" x="20" y="-63.5" font-family="Helvetica,sans-Serif" font-size="10.00">QFile</text>
</g>
<!-- Node1&#45;&gt;Node2 -->
<g id="edge1" class="edge"><title>Node1&#45;&gt;Node2</title>
<path fill="none" stroke="midnightblue" d="M269.86,-118.182C230.462,-112.219 137.322,-97.2886 49.9913,-76.0142"/>
<polygon fill="midnightblue" stroke="midnightblue" points="50.7451,-72.5953 40.1976,-73.5951 49.0664,-79.3911 50.7451,-72.5953"/>
</g>
<!-- Node3 -->
<g id="node3" class="node"><title>Node3</title>
<polygon fill="none" stroke="#bfbfbf" points="58,-56.5 58,-75.5 126,-75.5 126,-56.5 58,-56.5"/>
<text text-anchor="middle" x="92" y="-63.5" font-family="Helvetica,sans-Serif" font-size="10.00">QFileDialog</text>
</g>
<!-- Node1&#45;&gt;Node3 -->
<g id="edge2" class="edge"><title>Node1&#45;&gt;Node3</title>
<path fill="none" stroke="midnightblue" d="M269.752,-115.724C238.268,-107.094 175.073,-89.7714 133.149,-78.2795"/>
<polygon fill="midnightblue" stroke="midnightblue" points="133.812,-74.8321 123.242,-75.5639 131.961,-81.5831 133.812,-74.8321"/>
</g>
<!-- Node4 -->
<g id="node4" class="node"><title>Node4</title>
<polygon fill="none" stroke="#bfbfbf" points="144,-56.5 144,-75.5 194,-75.5 194,-56.5 144,-56.5"/>
<text text-anchor="middle" x="169" y="-63.5" font-family="Helvetica,sans-Serif" font-size="10.00">QString</text>
</g>
<!-- Node1&#45;&gt;Node4 -->
<g id="edge3" class="edge"><title>Node1&#45;&gt;Node4</title>
<path fill="none" stroke="midnightblue" d="M269.986,-112.444C250.412,-103.636 219.692,-89.8116 197.271,-79.722"/>
<polygon fill="midnightblue" stroke="midnightblue" points="198.481,-76.4284 187.925,-75.5164 195.608,-82.8119 198.481,-76.4284"/>
</g>
<!-- Node5 -->
<g id="node5" class="node"><title>Node5</title>
<polygon fill="none" stroke="#bfbfbf" points="212.5,-56.5 212.5,-75.5 277.5,-75.5 277.5,-56.5 212.5,-56.5"/>
<text text-anchor="middle" x="245" y="-63.5" font-family="Helvetica,sans-Serif" font-size="10.00">QStringList</text>
</g>
<!-- Node1&#45;&gt;Node5 -->
<g id="edge4" class="edge"><title>Node1&#45;&gt;Node5</title>
<path fill="none" stroke="midnightblue" d="M281.734,-112.083C275.455,-104.377 266.212,-93.0333 258.569,-83.6531"/>
<polygon fill="midnightblue" stroke="midnightblue" points="261.161,-81.2926 252.131,-75.7511 255.734,-85.7143 261.161,-81.2926"/>
</g>
<!-- Node6 -->
<g id="node6" class="node"><title>Node6</title>
<polygon fill="none" stroke="#bfbfbf" points="295.5,-56.5 295.5,-75.5 370.5,-75.5 370.5,-56.5 295.5,-56.5"/>
<text text-anchor="middle" x="333" y="-63.5" font-family="Helvetica,sans-Serif" font-size="10.00">QTextStream</text>
</g>
<!-- Node1&#45;&gt;Node6 -->
<g id="edge5" class="edge"><title>Node1&#45;&gt;Node6</title>
<path fill="none" stroke="midnightblue" d="M296.266,-112.083C302.545,-104.377 311.788,-93.0333 319.431,-83.6531"/>
<polygon fill="midnightblue" stroke="midnightblue" points="322.266,-85.7143 325.869,-75.7511 316.839,-81.2926 322.266,-85.7143"/>
</g>
<!-- Node7 -->
<g id="node7" class="node"><title>Node7</title>
<polygon fill="none" stroke="#bfbfbf" points="389,-56.5 389,-75.5 443,-75.5 443,-56.5 389,-56.5"/>
<text text-anchor="middle" x="416" y="-63.5" font-family="Helvetica,sans-Serif" font-size="10.00">iostream</text>
</g>
<!-- Node1&#45;&gt;Node7 -->
<g id="edge6" class="edge"><title>Node1&#45;&gt;Node7</title>
<path fill="none" stroke="midnightblue" d="M308.013,-112.916C328.691,-104.123 362.017,-89.9534 386.183,-79.6781"/>
<polygon fill="midnightblue" stroke="midnightblue" points="387.76,-82.8109 395.593,-75.677 385.021,-76.369 387.76,-82.8109"/>
</g>
<!-- Node8 -->
<g id="node8" class="node"><title>Node8</title>
<polygon fill="none" stroke="#bfbfbf" points="461.5,-56.5 461.5,-75.5 502.5,-75.5 502.5,-56.5 461.5,-56.5"/>
<text text-anchor="middle" x="482" y="-63.5" font-family="Helvetica,sans-Serif" font-size="10.00">string</text>
</g>
<!-- Node1&#45;&gt;Node8 -->
<g id="edge7" class="edge"><title>Node1&#45;&gt;Node8</title>
<path fill="none" stroke="midnightblue" d="M308.11,-115.871C336.988,-108.089 393.693,-92.6877 451.671,-76.0467"/>
<polygon fill="midnightblue" stroke="midnightblue" points="452.719,-79.387 461.361,-73.257 450.783,-72.6602 452.719,-79.387"/>
</g>
<!-- Node9 -->
<g id="node9" class="node"><title>Node9</title>
<g id="a_node9"><a xlink:href="myexception_8h.html" target="_top" xlink:title="myexception.h">
<polygon fill="none" stroke="black" points="521,-56.5 521,-75.5 601,-75.5 601,-56.5 521,-56.5"/>
<text text-anchor="middle" x="561" y="-63.5" font-family="Helvetica,sans-Serif" font-size="10.00">myexception.h</text>
</a>
</g>
</g>
<!-- Node1&#45;&gt;Node9 -->
<g id="edge8" class="edge"><title>Node1&#45;&gt;Node9</title>
<path fill="none" stroke="midnightblue" d="M308.127,-117.203C349.736,-108.942 449.631,-89.1101 510.675,-76.9909"/>
<polygon fill="midnightblue" stroke="midnightblue" points="511.734,-80.3492 520.861,-74.9688 510.371,-73.4832 511.734,-80.3492"/>
</g>
<!-- Node10 -->
<g id="node10" class="node"><title>Node10</title>
<polygon fill="none" stroke="#bfbfbf" points="531.5,-0.5 531.5,-19.5 590.5,-19.5 590.5,-0.5 531.5,-0.5"/>
<text text-anchor="middle" x="561" y="-7.5" font-family="Helvetica,sans-Serif" font-size="10.00">exception</text>
</g>
<!-- Node9&#45;&gt;Node10 -->
<g id="edge9" class="edge"><title>Node9&#45;&gt;Node10</title>
<path fill="none" stroke="midnightblue" d="M561,-56.083C561,-49.0059 561,-38.8611 561,-29.9865"/>
<polygon fill="midnightblue" stroke="midnightblue" points="564.5,-29.751 561,-19.7511 557.5,-29.7511 564.5,-29.751"/>
</g>
</g>
</svg>
