<?xml version="1.0" encoding="UTF-8" standalone="no"?>
<!DOCTYPE svg PUBLIC "-//W3C//DTD SVG 1.1//EN"
 "http://www.w3.org/Graphics/SVG/1.1/DTD/svg11.dtd">
<!-- Generated by graphviz version 2.38.0 (20140413.2041)
 -->
<!-- Title: file.h Pages: 1 -->
<svg width="230pt" height="196pt"
 viewBox="0.00 0.00 230.00 196.00" xmlns="http://www.w3.org/2000/svg" xmlns:xlink="http://www.w3.org/1999/xlink">
<g id="graph0" class="graph" transform="scale(1 1) rotate(0) translate(4 192)">
<title>file.h</title>
<!-- Node1 -->
<g id="node1" class="node"><title>Node1</title>
<polygon fill="#bfbfbf" stroke="black" points="106,-168.5 106,-187.5 144,-187.5 144,-168.5 106,-168.5"/>
<text text-anchor="middle" x="125" y="-175.5" font-family="Helvetica,sans-Serif" font-size="10.00">file.h</text>
</g>
<!-- Node2 -->
<g id="node2" class="node"><title>Node2</title>
<g id="a_node2"><a xlink:href="file_8cpp.html" target="_top" xlink:title="file.cpp">
<polygon fill="none" stroke="black" points="31,-112.5 31,-131.5 79,-131.5 79,-112.5 31,-112.5"/>
<text text-anchor="middle" x="55" y="-119.5" font-family="Helvetica,sans-Serif" font-size="10.00">file.cpp</text>
</a>
</g>
</g>
<!-- Node1&#45;&gt;Node2 -->
<g id="edge1" class="edge"><title>Node1&#45;&gt;Node2</title>
<path fill="none" stroke="midnightblue" d="M105.686,-162.101C93.0883,-152.382 77.0719,-140.027 66.4513,-131.834"/>
<polygon fill="midnightblue" stroke="midnightblue" points="103.698,-164.987 113.753,-168.324 107.973,-159.445 103.698,-164.987"/>
</g>
<!-- Node3 -->
<g id="node3" class="node"><title>Node3</title>
<g id="a_node3"><a xlink:href="loading_8h.html" target="_top" xlink:title="loading.h">
<polygon fill="none" stroke="black" points="97,-112.5 97,-131.5 153,-131.5 153,-112.5 97,-112.5"/>
<text text-anchor="middle" x="125" y="-119.5" font-family="Helvetica,sans-Serif" font-size="10.00">loading.h</text>
</a>
</g>
</g>
<!-- Node1&#45;&gt;Node3 -->
<g id="edge2" class="edge"><title>Node1&#45;&gt;Node3</title>
<path fill="none" stroke="midnightblue" d="M125,-157.805C125,-148.91 125,-138.78 125,-131.751"/>
<polygon fill="midnightblue" stroke="midnightblue" points="121.5,-158.083 125,-168.083 128.5,-158.083 121.5,-158.083"/>
</g>
<!-- Node6 -->
<g id="node6" class="node"><title>Node6</title>
<g id="a_node6"><a xlink:href="main_8cpp.html" target="_top" xlink:title="main.cpp">
<polygon fill="none" stroke="black" points="166,-0.5 166,-19.5 222,-19.5 222,-0.5 166,-0.5"/>
<text text-anchor="middle" x="194" y="-7.5" font-family="Helvetica,sans-Serif" font-size="10.00">main.cpp</text>
</a>
</g>
</g>
<!-- Node1&#45;&gt;Node6 -->
<g id="edge7" class="edge"><title>Node1&#45;&gt;Node6</title>
<path fill="none" stroke="midnightblue" d="M141.108,-160.922C148.413,-152.837 156.605,-142.533 162,-132 182.009,-92.9332 190.365,-40.1817 193,-19.6655"/>
<polygon fill="midnightblue" stroke="midnightblue" points="138.56,-158.522 134.234,-168.194 143.647,-163.331 138.56,-158.522"/>
</g>
<!-- Node4 -->
<g id="node4" class="node"><title>Node4</title>
<g id="a_node4"><a xlink:href="loading_8cpp.html" target="_top" xlink:title="loading.cpp">
<polygon fill="none" stroke="black" points="0,-56.5 0,-75.5 66,-75.5 66,-56.5 0,-56.5"/>
<text text-anchor="middle" x="33" y="-63.5" font-family="Helvetica,sans-Serif" font-size="10.00">loading.cpp</text>
</a>
</g>
</g>
<!-- Node3&#45;&gt;Node4 -->
<g id="edge3" class="edge"><title>Node3&#45;&gt;Node4</title>
<path fill="none" stroke="midnightblue" d="M101.45,-107.177C84.5211,-97.2407 62.2172,-84.1492 47.7447,-75.6545"/>
<polygon fill="midnightblue" stroke="midnightblue" points="99.8227,-110.28 110.219,-112.324 103.366,-104.243 99.8227,-110.28"/>
</g>
<!-- Node5 -->
<g id="node5" class="node"><title>Node5</title>
<g id="a_node5"><a xlink:href="_main_window_8h.html" target="_top" xlink:title="MainWindow.h">
<polygon fill="none" stroke="black" points="84.5,-56.5 84.5,-75.5 165.5,-75.5 165.5,-56.5 84.5,-56.5"/>
<text text-anchor="middle" x="125" y="-63.5" font-family="Helvetica,sans-Serif" font-size="10.00">MainWindow.h</text>
</a>
</g>
</g>
<!-- Node3&#45;&gt;Node5 -->
<g id="edge4" class="edge"><title>Node3&#45;&gt;Node5</title>
<path fill="none" stroke="midnightblue" d="M125,-101.805C125,-92.9102 125,-82.7798 125,-75.7511"/>
<polygon fill="midnightblue" stroke="midnightblue" points="121.5,-102.083 125,-112.083 128.5,-102.083 121.5,-102.083"/>
</g>
<!-- Node5&#45;&gt;Node6 -->
<g id="edge5" class="edge"><title>Node5&#45;&gt;Node6</title>
<path fill="none" stroke="midnightblue" d="M144.038,-50.1008C156.456,-40.3824 172.243,-28.0269 182.712,-19.8339"/>
<polygon fill="midnightblue" stroke="midnightblue" points="141.804,-47.4046 136.086,-56.324 146.118,-52.9171 141.804,-47.4046"/>
</g>
<!-- Node7 -->
<g id="node7" class="node"><title>Node7</title>
<g id="a_node7"><a xlink:href="_main_window_8cpp.html" target="_top" xlink:title="MainWindow.cpp">
<polygon fill="none" stroke="black" points="56,-0.5 56,-19.5 148,-19.5 148,-0.5 56,-0.5"/>
<text text-anchor="middle" x="102" y="-7.5" font-family="Helvetica,sans-Serif" font-size="10.00">MainWindow.cpp</text>
</a>
</g>
</g>
<!-- Node5&#45;&gt;Node7 -->
<g id="edge6" class="edge"><title>Node5&#45;&gt;Node7</title>
<path fill="none" stroke="midnightblue" d="M117.201,-46.6897C113.325,-37.589 108.821,-27.0141 105.727,-19.7511"/>
<polygon fill="midnightblue" stroke="midnightblue" points="114.063,-48.2543 121.202,-56.083 120.503,-45.5112 114.063,-48.2543"/>
</g>
</g>
</svg>
