<?xml version="1.0" encoding="UTF-8" standalone="no"?>
<!DOCTYPE svg PUBLIC "-//W3C//DTD SVG 1.1//EN"
 "http://www.w3.org/Graphics/SVG/1.1/DTD/svg11.dtd">
<!-- Generated by graphviz version 2.38.0 (20140413.2041)
 -->
<!-- Title: filtering.cpp Pages: 1 -->
<!--zoomable 308 -->
<svg id="main" version="1.1" xmlns="http://www.w3.org/2000/svg" xmlns:xlink="http://www.w3.org/1999/xlink" xml:space="preserve" onload="init(evt)">
<style type="text/css"><![CDATA[
.edge:hover path { stroke: red; }
.edge:hover polygon { stroke: red; fill: red; }
]]></style>
<script type="text/javascript"><![CDATA[
var edges = document.getElementsByTagName('g');
if (edges && edges.length) {
  for (var i=0;i<edges.length;i++) {
    if (edges[i].id.substr(0,4)=='edge') {
      edges[i].setAttribute('class','edge');
    }
  }
}
]]></script>
        <defs>
                <circle id="rim" cx="0" cy="0" r="7"/>
                <circle id="rim2" cx="0" cy="0" r="3.5"/>
                <g id="zoomPlus">
                        <use xlink:href="#rim" fill="#404040">
                                <set attributeName="fill" to="#808080" begin="zoomplus.mouseover" end="zoomplus.mouseout"/>
                        </use>
                        <path d="M-4,0h8M0,-4v8" fill="none" stroke="white" stroke-width="1.5" pointer-events="none"/>
                </g>
                <g id="zoomMin">
                        <use xlink:href="#rim" fill="#404040">
                                <set attributeName="fill" to="#808080" begin="zoomminus.mouseover" end="zoomminus.mouseout"/>
                        </use>
                        <path d="M-4,0h8" fill="none" stroke="white" stroke-width="1.5" pointer-events="none"/>
                </g>
                <g id="dirArrow">
                        <path fill="none" stroke="white" stroke-width="1.5" d="M0,-3.0v7 M-2.5,-0.5L0,-3.0L2.5,-0.5"/>
                </g>
               <g id="resetDef">
                       <use xlink:href="#rim2" fill="#404040">
                               <set attributeName="fill" to="#808080" begin="reset.mouseover" end="reset.mouseout"/>
                       </use>
               </g>
        </defs>

<script type="text/javascript">
var viewWidth = 1093;
var viewHeight = 308;
var sectionId = 'dynsection-0';
</script>
<script xlink:href="svgpan.js"/>
<svg id="graph" class="graph">
<g id="viewport">
<title>filtering.cpp</title>
<!-- Node1 -->
<g id="node1" class="node"><title>Node1</title>
<polygon fill="#bfbfbf" stroke="black" points="457.5,-280.5 457.5,-299.5 524.5,-299.5 524.5,-280.5 457.5,-280.5"/>
<text text-anchor="middle" x="491" y="-287.5" font-family="Helvetica,sans-Serif" font-size="10.00">filtering.cpp</text>
</g>
<!-- Node2 -->
<g id="node2" class="node"><title>Node2</title>
<g id="a_node2"><a xlink:href="filtering_8h.html" target="_top" xlink:title="filtering.h">
<polygon fill="none" stroke="black" points="463,-224.5 463,-243.5 519,-243.5 519,-224.5 463,-224.5"/>
<text text-anchor="middle" x="491" y="-231.5" font-family="Helvetica,sans-Serif" font-size="10.00">filtering.h</text>
</a>
</g>
</g>
<!-- Node1&#45;&gt;Node2 -->
<g id="edge1" class="edge"><title>Node1&#45;&gt;Node2</title>
<path fill="none" stroke="midnightblue" d="M491,-280.083C491,-273.006 491,-262.861 491,-253.986"/>
<polygon fill="midnightblue" stroke="midnightblue" points="494.5,-253.751 491,-243.751 487.5,-253.751 494.5,-253.751"/>
</g>
<!-- Node3 -->
<g id="node3" class="node"><title>Node3</title>
<polygon fill="none" stroke="#bfbfbf" points="0,-168.5 0,-187.5 72,-187.5 72,-168.5 0,-168.5"/>
<text text-anchor="middle" x="36" y="-175.5" font-family="Helvetica,sans-Serif" font-size="10.00">QApplication</text>
</g>
<!-- Node2&#45;&gt;Node3 -->
<g id="edge2" class="edge"><title>Node2&#45;&gt;Node3</title>
<path fill="none" stroke="midnightblue" d="M462.554,-230.747C397.228,-225.387 231.276,-210.72 82.5253,-188.116"/>
<polygon fill="midnightblue" stroke="midnightblue" points="82.716,-184.604 72.3005,-186.545 81.6531,-191.523 82.716,-184.604"/>
</g>
<!-- Node4 -->
<g id="node4" class="node"><title>Node4</title>
<polygon fill="none" stroke="#bfbfbf" points="90,-168.5 90,-187.5 188,-187.5 188,-168.5 90,-168.5"/>
<text text-anchor="middle" x="139" y="-175.5" font-family="Helvetica,sans-Serif" font-size="10.00">QDialogButtonBox</text>
</g>
<!-- Node2&#45;&gt;Node4 -->
<g id="edge3" class="edge"><title>Node2&#45;&gt;Node4</title>
<path fill="none" stroke="midnightblue" d="M462.616,-228.675C411.795,-220.928 301.642,-204.116 198.049,-188.159"/>
<polygon fill="midnightblue" stroke="midnightblue" points="198.463,-184.682 188.047,-186.618 197.397,-191.6 198.463,-184.682"/>
</g>
<!-- Node5 -->
<g id="node5" class="node"><title>Node5</title>
<polygon fill="none" stroke="#bfbfbf" points="206,-168.5 206,-187.5 274,-187.5 274,-168.5 206,-168.5"/>
<text text-anchor="middle" x="240" y="-175.5" font-family="Helvetica,sans-Serif" font-size="10.00">QGroupBox</text>
</g>
<!-- Node2&#45;&gt;Node5 -->
<g id="edge4" class="edge"><title>Node2&#45;&gt;Node5</title>
<path fill="none" stroke="midnightblue" d="M462.695,-226.91C419.184,-217.55 335.512,-199.548 284.036,-188.474"/>
<polygon fill="midnightblue" stroke="midnightblue" points="284.704,-185.038 274.192,-186.356 283.232,-191.881 284.704,-185.038"/>
</g>
<!-- Node6 -->
<g id="node6" class="node"><title>Node6</title>
<polygon fill="none" stroke="#bfbfbf" points="292.5,-168.5 292.5,-187.5 371.5,-187.5 371.5,-168.5 292.5,-168.5"/>
<text text-anchor="middle" x="332" y="-175.5" font-family="Helvetica,sans-Serif" font-size="10.00">QLCDNumber</text>
</g>
<!-- Node2&#45;&gt;Node6 -->
<g id="edge5" class="edge"><title>Node2&#45;&gt;Node6</title>
<path fill="none" stroke="midnightblue" d="M465.806,-224.444C439.057,-215.359 396.597,-200.939 366.695,-190.783"/>
<polygon fill="midnightblue" stroke="midnightblue" points="367.671,-187.418 357.076,-187.516 365.419,-194.046 367.671,-187.418"/>
</g>
<!-- Node7 -->
<g id="node7" class="node"><title>Node7</title>
<polygon fill="none" stroke="#bfbfbf" points="389.5,-168.5 389.5,-187.5 436.5,-187.5 436.5,-168.5 389.5,-168.5"/>
<text text-anchor="middle" x="413" y="-175.5" font-family="Helvetica,sans-Serif" font-size="10.00">QLabel</text>
</g>
<!-- Node2&#45;&gt;Node7 -->
<g id="edge6" class="edge"><title>Node2&#45;&gt;Node7</title>
<path fill="none" stroke="midnightblue" d="M478.468,-224.324C466.414,-215.979 447.973,-203.212 433.731,-193.352"/>
<polygon fill="midnightblue" stroke="midnightblue" points="435.715,-190.469 425.501,-187.655 431.731,-196.224 435.715,-190.469"/>
</g>
<!-- Node8 -->
<g id="node8" class="node"><title>Node8</title>
<polygon fill="none" stroke="#bfbfbf" points="61.5,-112.5 61.5,-131.5 114.5,-131.5 114.5,-112.5 61.5,-112.5"/>
<text text-anchor="middle" x="88" y="-119.5" font-family="Helvetica,sans-Serif" font-size="10.00">QObject</text>
</g>
<!-- Node2&#45;&gt;Node8 -->
<g id="edge7" class="edge"><title>Node2&#45;&gt;Node8</title>
<path fill="none" stroke="midnightblue" d="M487.725,-224.474C481.699,-210.072 467.383,-181.209 445,-168 385.474,-132.872 208.763,-143.99 124.689,-131.907"/>
<polygon fill="midnightblue" stroke="midnightblue" points="125.101,-128.428 114.667,-130.269 123.972,-135.336 125.101,-128.428"/>
</g>
<!-- Node9 -->
<g id="node9" class="node"><title>Node9</title>
<polygon fill="none" stroke="#bfbfbf" points="656.5,-168.5 656.5,-187.5 731.5,-187.5 731.5,-168.5 656.5,-168.5"/>
<text text-anchor="middle" x="694" y="-175.5" font-family="Helvetica,sans-Serif" font-size="10.00">QPushButton</text>
</g>
<!-- Node2&#45;&gt;Node9 -->
<g id="edge8" class="edge"><title>Node2&#45;&gt;Node9</title>
<path fill="none" stroke="midnightblue" d="M519.226,-225.492C553.775,-216.301 612.575,-200.66 652.331,-190.084"/>
<polygon fill="midnightblue" stroke="midnightblue" points="653.238,-193.465 662.002,-187.512 651.438,-186.7 653.238,-193.465"/>
</g>
<!-- Node10 -->
<g id="node10" class="node"><title>Node10</title>
<polygon fill="none" stroke="#bfbfbf" points="749.5,-168.5 749.5,-187.5 798.5,-187.5 798.5,-168.5 749.5,-168.5"/>
<text text-anchor="middle" x="774" y="-175.5" font-family="Helvetica,sans-Serif" font-size="10.00">QSlider</text>
</g>
<!-- Node2&#45;&gt;Node10 -->
<g id="edge9" class="edge"><title>Node2&#45;&gt;Node10</title>
<path fill="none" stroke="midnightblue" d="M519.282,-228.743C564.06,-221.823 654.19,-207.167 739.369,-188.226"/>
<polygon fill="midnightblue" stroke="midnightblue" points="740.204,-191.626 749.193,-186.018 738.668,-184.797 740.204,-191.626"/>
</g>
<!-- Node11 -->
<g id="node11" class="node"><title>Node11</title>
<polygon fill="none" stroke="#bfbfbf" points="816.5,-168.5 816.5,-187.5 893.5,-187.5 893.5,-168.5 816.5,-168.5"/>
<text text-anchor="middle" x="855" y="-175.5" font-family="Helvetica,sans-Serif" font-size="10.00">QVBoxLayout</text>
</g>
<!-- Node2&#45;&gt;Node11 -->
<g id="edge10" class="edge"><title>Node2&#45;&gt;Node11</title>
<path fill="none" stroke="midnightblue" d="M519.057,-229.479C572.807,-222.634 694.237,-206.694 806.189,-188.242"/>
<polygon fill="midnightblue" stroke="midnightblue" points="807.006,-191.654 816.298,-186.564 805.86,-184.749 807.006,-191.654"/>
</g>
<!-- Node12 -->
<g id="node12" class="node"><title>Node12</title>
<polygon fill="none" stroke="#bfbfbf" points="911.5,-168.5 911.5,-187.5 966.5,-187.5 966.5,-168.5 911.5,-168.5"/>
<text text-anchor="middle" x="939" y="-175.5" font-family="Helvetica,sans-Serif" font-size="10.00">QWidget</text>
</g>
<!-- Node2&#45;&gt;Node12 -->
<g id="edge11" class="edge"><title>Node2&#45;&gt;Node12</title>
<path fill="none" stroke="midnightblue" d="M519.163,-231.252C584.616,-226.907 752.169,-214.166 900.949,-188.168"/>
<polygon fill="midnightblue" stroke="midnightblue" points="901.938,-191.547 911.173,-186.355 900.715,-184.655 901.938,-191.547"/>
</g>
<!-- Node13 -->
<g id="node13" class="node"><title>Node13</title>
<g id="a_node13"><a xlink:href="track_8h.html" target="_top" xlink:title="The class Track. ">
<polygon fill="none" stroke="black" points="493.5,-168.5 493.5,-187.5 540.5,-187.5 540.5,-168.5 493.5,-168.5"/>
<text text-anchor="middle" x="517" y="-175.5" font-family="Helvetica,sans-Serif" font-size="10.00">track.h</text>
</a>
</g>
</g>
<!-- Node2&#45;&gt;Node13 -->
<g id="edge12" class="edge"><title>Node2&#45;&gt;Node13</title>
<path fill="none" stroke="midnightblue" d="M495.293,-224.083C498.852,-216.691 504.022,-205.953 508.424,-196.811"/>
<polygon fill="midnightblue" stroke="midnightblue" points="511.602,-198.279 512.787,-187.751 505.295,-195.243 511.602,-198.279"/>
</g>
<!-- Node25 -->
<g id="node25" class="node"><title>Node25</title>
<g id="a_node25"><a xlink:href="file_8h.html" target="_top" xlink:title="file.h">
<polygon fill="none" stroke="black" points="600,-168.5 600,-187.5 638,-187.5 638,-168.5 600,-168.5"/>
<text text-anchor="middle" x="619" y="-175.5" font-family="Helvetica,sans-Serif" font-size="10.00">file.h</text>
</a>
</g>
</g>
<!-- Node2&#45;&gt;Node25 -->
<g id="edge27" class="edge"><title>Node2&#45;&gt;Node25</title>
<path fill="none" stroke="midnightblue" d="M511.282,-224.444C532.595,-215.452 566.299,-201.233 590.328,-191.096"/>
<polygon fill="midnightblue" stroke="midnightblue" points="591.798,-194.275 599.651,-187.163 589.077,-187.825 591.798,-194.275"/>
</g>
<!-- Node13&#45;&gt;Node8 -->
<g id="edge13" class="edge"><title>Node13&#45;&gt;Node8</title>
<path fill="none" stroke="midnightblue" d="M493.381,-170.898C488.642,-169.817 483.68,-168.787 479,-168 325.391,-142.158 281.362,-159.151 124.655,-132.059"/>
<polygon fill="midnightblue" stroke="midnightblue" points="125.118,-128.586 114.662,-130.298 123.903,-135.48 125.118,-128.586"/>
</g>
<!-- Node14 -->
<g id="node14" class="node"><title>Node14</title>
<g id="a_node14"><a xlink:href="point_g_p_s_8h.html" target="_top" xlink:title="pointGPS.h">
<polygon fill="none" stroke="black" points="132.5,-112.5 132.5,-131.5 199.5,-131.5 199.5,-112.5 132.5,-112.5"/>
<text text-anchor="middle" x="166" y="-119.5" font-family="Helvetica,sans-Serif" font-size="10.00">pointGPS.h</text>
</a>
</g>
</g>
<!-- Node13&#45;&gt;Node14 -->
<g id="edge14" class="edge"><title>Node13&#45;&gt;Node14</title>
<path fill="none" stroke="midnightblue" d="M493.359,-171.024C488.621,-169.933 483.666,-168.867 479,-168 362.142,-146.278 331.338,-150.958 214,-132 212.535,-131.763 211.046,-131.517 209.544,-131.263"/>
<polygon fill="midnightblue" stroke="midnightblue" points="209.986,-127.788 199.532,-129.51 208.778,-134.683 209.986,-127.788"/>
</g>
<!-- Node17 -->
<g id="node17" class="node"><title>Node17</title>
<polygon fill="none" stroke="#bfbfbf" points="463,-0.5 463,-19.5 517,-19.5 517,-0.5 463,-0.5"/>
<text text-anchor="middle" x="490" y="-7.5" font-family="Helvetica,sans-Serif" font-size="10.00">iostream</text>
</g>
<!-- Node13&#45;&gt;Node17 -->
<g id="edge23" class="edge"><title>Node13&#45;&gt;Node17</title>
<path fill="none" stroke="midnightblue" d="M515.415,-168.382C513.762,-159.331 511.122,-144.678 509,-132 502.936,-95.7731 496.405,-53.3452 492.798,-29.5778"/>
<polygon fill="midnightblue" stroke="midnightblue" points="496.233,-28.8825 491.277,-19.5181 489.311,-29.929 496.233,-28.8825"/>
</g>
<!-- Node18 -->
<g id="node18" class="node"><title>Node18</title>
<polygon fill="none" stroke="#bfbfbf" points="207,-56.5 207,-75.5 251,-75.5 251,-56.5 207,-56.5"/>
<text text-anchor="middle" x="229" y="-63.5" font-family="Helvetica,sans-Serif" font-size="10.00">vector</text>
</g>
<!-- Node13&#45;&gt;Node18 -->
<g id="edge26" class="edge"><title>Node13&#45;&gt;Node18</title>
<path fill="none" stroke="midnightblue" d="M493.346,-171.094C488.609,-169.997 483.657,-168.911 479,-168 427.799,-157.98 285.972,-166.687 247,-132 234.036,-120.461 230.05,-100.495 228.991,-85.7275"/>
<polygon fill="midnightblue" stroke="midnightblue" points="232.487,-85.5504 228.652,-75.674 225.491,-85.7863 232.487,-85.5504"/>
</g>
<!-- Node19 -->
<g id="node19" class="node"><title>Node19</title>
<polygon fill="none" stroke="#bfbfbf" points="256.5,-112.5 256.5,-131.5 323.5,-131.5 323.5,-112.5 256.5,-112.5"/>
<text text-anchor="middle" x="290" y="-119.5" font-family="Helvetica,sans-Serif" font-size="10.00">QDateTime</text>
</g>
<!-- Node13&#45;&gt;Node19 -->
<g id="edge19" class="edge"><title>Node13&#45;&gt;Node19</title>
<path fill="none" stroke="midnightblue" d="M493.136,-171.323C455.382,-162.342 381.301,-144.719 333.799,-133.419"/>
<polygon fill="midnightblue" stroke="midnightblue" points="334.335,-129.949 323.796,-131.04 332.715,-136.759 334.335,-129.949"/>
</g>
<!-- Node20 -->
<g id="node20" class="node"><title>Node20</title>
<polygon fill="none" stroke="#bfbfbf" points="518,-112.5 518,-131.5 568,-131.5 568,-112.5 518,-112.5"/>
<text text-anchor="middle" x="543" y="-119.5" font-family="Helvetica,sans-Serif" font-size="10.00">QString</text>
</g>
<!-- Node13&#45;&gt;Node20 -->
<g id="edge20" class="edge"><title>Node13&#45;&gt;Node20</title>
<path fill="none" stroke="midnightblue" d="M521.293,-168.083C524.852,-160.691 530.022,-149.953 534.424,-140.811"/>
<polygon fill="midnightblue" stroke="midnightblue" points="537.602,-142.279 538.787,-131.751 531.295,-139.243 537.602,-142.279"/>
</g>
<!-- Node21 -->
<g id="node21" class="node"><title>Node21</title>
<polygon fill="none" stroke="#bfbfbf" points="586.5,-112.5 586.5,-131.5 651.5,-131.5 651.5,-112.5 586.5,-112.5"/>
<text text-anchor="middle" x="619" y="-119.5" font-family="Helvetica,sans-Serif" font-size="10.00">QStringList</text>
</g>
<!-- Node13&#45;&gt;Node21 -->
<g id="edge21" class="edge"><title>Node13&#45;&gt;Node21</title>
<path fill="none" stroke="midnightblue" d="M533.388,-168.324C549.671,-159.703 574.867,-146.364 593.716,-136.386"/>
<polygon fill="midnightblue" stroke="midnightblue" points="595.452,-139.427 602.653,-131.655 592.177,-133.24 595.452,-139.427"/>
</g>
<!-- Node22 -->
<g id="node22" class="node"><title>Node22</title>
<polygon fill="none" stroke="#bfbfbf" points="342,-112.5 342,-131.5 392,-131.5 392,-112.5 342,-112.5"/>
<text text-anchor="middle" x="367" y="-119.5" font-family="Helvetica,sans-Serif" font-size="10.00">fstream</text>
</g>
<!-- Node13&#45;&gt;Node22 -->
<g id="edge22" class="edge"><title>Node13&#45;&gt;Node22</title>
<path fill="none" stroke="midnightblue" d="M493.232,-168.444C468.107,-159.399 428.289,-145.064 400.1,-134.916"/>
<polygon fill="midnightblue" stroke="midnightblue" points="401.251,-131.611 390.657,-131.516 398.88,-138.197 401.251,-131.611"/>
</g>
<!-- Node23 -->
<g id="node23" class="node"><title>Node23</title>
<polygon fill="none" stroke="#bfbfbf" points="410,-112.5 410,-131.5 462,-131.5 462,-112.5 410,-112.5"/>
<text text-anchor="middle" x="436" y="-119.5" font-family="Helvetica,sans-Serif" font-size="10.00">sstream</text>
</g>
<!-- Node13&#45;&gt;Node23 -->
<g id="edge24" class="edge"><title>Node13&#45;&gt;Node23</title>
<path fill="none" stroke="midnightblue" d="M503.986,-168.324C491.468,-159.979 472.318,-147.212 457.529,-137.352"/>
<polygon fill="midnightblue" stroke="midnightblue" points="459.244,-134.289 448.982,-131.655 455.361,-140.114 459.244,-134.289"/>
</g>
<!-- Node24 -->
<g id="node24" class="node"><title>Node24</title>
<polygon fill="none" stroke="#bfbfbf" points="669.5,-112.5 669.5,-131.5 710.5,-131.5 710.5,-112.5 669.5,-112.5"/>
<text text-anchor="middle" x="690" y="-119.5" font-family="Helvetica,sans-Serif" font-size="10.00">string</text>
</g>
<!-- Node13&#45;&gt;Node24 -->
<g id="edge25" class="edge"><title>Node13&#45;&gt;Node24</title>
<path fill="none" stroke="midnightblue" d="M540.692,-169.605C571.554,-159.972 625.559,-143.114 659.464,-132.531"/>
<polygon fill="midnightblue" stroke="midnightblue" points="660.79,-135.784 669.293,-129.463 658.705,-129.102 660.79,-135.784"/>
</g>
<!-- Node15 -->
<g id="node15" class="node"><title>Node15</title>
<g id="a_node15"><a xlink:href="emissionprobability_8h.html" target="_top" xlink:title="emissionprobability.h">
<polygon fill="none" stroke="black" points="17,-56.5 17,-75.5 125,-75.5 125,-56.5 17,-56.5"/>
<text text-anchor="middle" x="71" y="-63.5" font-family="Helvetica,sans-Serif" font-size="10.00">emissionprobability.h</text>
</a>
</g>
</g>
<!-- Node14&#45;&gt;Node15 -->
<g id="edge15" class="edge"><title>Node14&#45;&gt;Node15</title>
<path fill="none" stroke="midnightblue" d="M150.737,-112.324C135.779,-103.822 112.745,-90.7288 95.2733,-80.7975"/>
<polygon fill="midnightblue" stroke="midnightblue" points="96.6488,-77.5534 86.2255,-75.6545 93.1896,-83.639 96.6488,-77.5534"/>
</g>
<!-- Node16 -->
<g id="node16" class="node"><title>Node16</title>
<g id="a_node16"><a xlink:href="point_8h.html" target="_top" xlink:title="Class Point. ">
<polygon fill="none" stroke="black" points="143,-56.5 143,-75.5 189,-75.5 189,-56.5 143,-56.5"/>
<text text-anchor="middle" x="166" y="-63.5" font-family="Helvetica,sans-Serif" font-size="10.00">point.h</text>
</a>
</g>
</g>
<!-- Node14&#45;&gt;Node16 -->
<g id="edge16" class="edge"><title>Node14&#45;&gt;Node16</title>
<path fill="none" stroke="midnightblue" d="M166,-112.083C166,-105.006 166,-94.8611 166,-85.9865"/>
<polygon fill="midnightblue" stroke="midnightblue" points="169.5,-85.751 166,-75.7511 162.5,-85.7511 169.5,-85.751"/>
</g>
<!-- Node14&#45;&gt;Node18 -->
<g id="edge18" class="edge"><title>Node14&#45;&gt;Node18</title>
<path fill="none" stroke="midnightblue" d="M176.122,-112.324C185.526,-104.263 199.744,-92.0765 211.069,-82.3695"/>
<polygon fill="midnightblue" stroke="midnightblue" points="213.379,-84.9993 218.694,-75.8339 208.823,-79.6844 213.379,-84.9993"/>
</g>
<!-- Node16&#45;&gt;Node17 -->
<g id="edge17" class="edge"><title>Node16&#45;&gt;Node17</title>
<path fill="none" stroke="midnightblue" d="M189.337,-58.0837C192.241,-57.3275 195.18,-56.6115 198,-56 288.654,-36.3424 396.946,-22.0014 452.717,-15.2753"/>
<polygon fill="midnightblue" stroke="midnightblue" points="453.311,-18.7293 462.826,-14.0703 452.482,-11.7785 453.311,-18.7293"/>
</g>
<!-- Node25&#45;&gt;Node17 -->
<g id="edge33" class="edge"><title>Node25&#45;&gt;Node17</title>
<path fill="none" stroke="midnightblue" d="M638.376,-171.147C664.993,-162.669 710.645,-146.41 720,-132 724.84,-124.545 724.86,-119.442 720,-112 677.078,-46.2738 580.807,-23.0422 527.428,-15.0412"/>
<polygon fill="midnightblue" stroke="midnightblue" points="527.741,-11.551 517.353,-13.636 526.774,-18.4839 527.741,-11.551"/>
</g>
<!-- Node25&#45;&gt;Node20 -->
<g id="edge30" class="edge"><title>Node25&#45;&gt;Node20</title>
<path fill="none" stroke="midnightblue" d="M606.789,-168.324C595.224,-160.107 577.625,-147.602 563.839,-137.807"/>
<polygon fill="midnightblue" stroke="midnightblue" points="565.612,-134.773 555.433,-131.834 561.557,-140.479 565.612,-134.773"/>
</g>
<!-- Node25&#45;&gt;Node21 -->
<g id="edge31" class="edge"><title>Node25&#45;&gt;Node21</title>
<path fill="none" stroke="midnightblue" d="M619,-168.083C619,-161.006 619,-150.861 619,-141.986"/>
<polygon fill="midnightblue" stroke="midnightblue" points="622.5,-141.751 619,-131.751 615.5,-141.751 622.5,-141.751"/>
</g>
<!-- Node25&#45;&gt;Node24 -->
<g id="edge34" class="edge"><title>Node25&#45;&gt;Node24</title>
<path fill="none" stroke="midnightblue" d="M630.407,-168.324C641.109,-160.185 657.341,-147.839 670.163,-138.087"/>
<polygon fill="midnightblue" stroke="midnightblue" points="672.544,-140.673 678.385,-131.834 668.307,-135.102 672.544,-140.673"/>
</g>
<!-- Node26 -->
<g id="node26" class="node"><title>Node26</title>
<polygon fill="none" stroke="#bfbfbf" points="767,-112.5 767,-131.5 807,-131.5 807,-112.5 767,-112.5"/>
<text text-anchor="middle" x="787" y="-119.5" font-family="Helvetica,sans-Serif" font-size="10.00">QFile</text>
</g>
<!-- Node25&#45;&gt;Node26 -->
<g id="edge28" class="edge"><title>Node25&#45;&gt;Node26</title>
<path fill="none" stroke="midnightblue" d="M638.272,-170.806C667.328,-161.466 722.602,-143.699 756.97,-132.653"/>
<polygon fill="midnightblue" stroke="midnightblue" points="758.463,-135.849 766.913,-129.457 756.321,-129.185 758.463,-135.849"/>
</g>
<!-- Node27 -->
<g id="node27" class="node"><title>Node27</title>
<polygon fill="none" stroke="#bfbfbf" points="825,-112.5 825,-131.5 893,-131.5 893,-112.5 825,-112.5"/>
<text text-anchor="middle" x="859" y="-119.5" font-family="Helvetica,sans-Serif" font-size="10.00">QFileDialog</text>
</g>
<!-- Node25&#45;&gt;Node27 -->
<g id="edge29" class="edge"><title>Node25&#45;&gt;Node27</title>
<path fill="none" stroke="midnightblue" d="M638.273,-170.751C641.506,-169.78 644.838,-168.826 648,-168 656.093,-165.886 755.662,-144.804 815.082,-132.26"/>
<polygon fill="midnightblue" stroke="midnightblue" points="815.904,-135.664 824.966,-130.174 814.459,-128.815 815.904,-135.664"/>
</g>
<!-- Node28 -->
<g id="node28" class="node"><title>Node28</title>
<polygon fill="none" stroke="#bfbfbf" points="911.5,-112.5 911.5,-131.5 986.5,-131.5 986.5,-112.5 911.5,-112.5"/>
<text text-anchor="middle" x="949" y="-119.5" font-family="Helvetica,sans-Serif" font-size="10.00">QTextStream</text>
</g>
<!-- Node25&#45;&gt;Node28 -->
<g id="edge32" class="edge"><title>Node25&#45;&gt;Node28</title>
<path fill="none" stroke="midnightblue" d="M638.227,-170.562C641.466,-169.613 644.811,-168.716 648,-168 756.097,-143.73 787.751,-150.317 901.188,-132.044"/>
<polygon fill="midnightblue" stroke="midnightblue" points="902.017,-135.455 911.319,-130.382 900.884,-128.547 902.017,-135.455"/>
</g>
<!-- Node29 -->
<g id="node29" class="node"><title>Node29</title>
<g id="a_node29"><a xlink:href="myexception_8h.html" target="_top" xlink:title="myexception.h">
<polygon fill="none" stroke="black" points="1005,-112.5 1005,-131.5 1085,-131.5 1085,-112.5 1005,-112.5"/>
<text text-anchor="middle" x="1045" y="-119.5" font-family="Helvetica,sans-Serif" font-size="10.00">myexception.h</text>
</a>
</g>
</g>
<!-- Node25&#45;&gt;Node29 -->
<g id="edge35" class="edge"><title>Node25&#45;&gt;Node29</title>
<path fill="none" stroke="midnightblue" d="M638.205,-170.458C641.446,-169.522 644.798,-168.656 648,-168 797.058,-137.474 840.236,-153.343 994.6,-132.08"/>
<polygon fill="midnightblue" stroke="midnightblue" points="995.517,-135.485 1004.93,-130.625 994.54,-128.554 995.517,-135.485"/>
</g>
<!-- Node30 -->
<g id="node30" class="node"><title>Node30</title>
<polygon fill="none" stroke="#bfbfbf" points="1015.5,-56.5 1015.5,-75.5 1074.5,-75.5 1074.5,-56.5 1015.5,-56.5"/>
<text text-anchor="middle" x="1045" y="-63.5" font-family="Helvetica,sans-Serif" font-size="10.00">exception</text>
</g>
<!-- Node29&#45;&gt;Node30 -->
<g id="edge36" class="edge"><title>Node29&#45;&gt;Node30</title>
<path fill="none" stroke="midnightblue" d="M1045,-112.083C1045,-105.006 1045,-94.8611 1045,-85.9865"/>
<polygon fill="midnightblue" stroke="midnightblue" points="1048.5,-85.751 1045,-75.7511 1041.5,-85.7511 1048.5,-85.751"/>
</g>
</g>
</svg>
        <g id="navigator" transform="translate(0 0)" fill="#404254">
                <rect fill="#f2f5e9" fill-opacity="0.5" stroke="#606060" stroke-width=".5" x="0" y="0" width="60" height="60"/>
                <use id="zoomplus" xlink:href="#zoomPlus" x="17" y="9" onmousedown="handleZoom(evt,'in')"/>
                <use id="zoomminus" xlink:href="#zoomMin" x="42" y="9" onmousedown="handleZoom(evt,'out')"/>
                <use id="reset" xlink:href="#resetDef" x="30" y="36" onmousedown="handleReset()"/>
                <g id="arrowUp" xlink:href="#dirArrow" transform="translate(30 24)" onmousedown="handlePan(0,-1)">
                  <use xlink:href="#rim" fill="#404040">
                        <set attributeName="fill" to="#808080" begin="arrowUp.mouseover" end="arrowUp.mouseout"/>
                  </use>
                  <path fill="none" stroke="white" stroke-width="1.5" d="M0,-3.0v7 M-2.5,-0.5L0,-3.0L2.5,-0.5"/>
                </g>
                <g id="arrowRight" xlink:href="#dirArrow" transform="rotate(90) translate(36 -43)" onmousedown="handlePan(1,0)">
                  <use xlink:href="#rim" fill="#404040">
                        <set attributeName="fill" to="#808080" begin="arrowRight.mouseover" end="arrowRight.mouseout"/>
                  </use>
                  <path fill="none" stroke="white" stroke-width="1.5" d="M0,-3.0v7 M-2.5,-0.5L0,-3.0L2.5,-0.5"/>
                </g>
                <g id="arrowDown" xlink:href="#dirArrow" transform="rotate(180) translate(-30 -48)" onmousedown="handlePan(0,1)">
                  <use xlink:href="#rim" fill="#404040">
                        <set attributeName="fill" to="#808080" begin="arrowDown.mouseover" end="arrowDown.mouseout"/>
                  </use>
                  <path fill="none" stroke="white" stroke-width="1.5" d="M0,-3.0v7 M-2.5,-0.5L0,-3.0L2.5,-0.5"/>
                </g>
                <g id="arrowLeft" xlink:href="#dirArrow" transform="rotate(270) translate(-36 17)" onmousedown="handlePan(-1,0)">
                  <use xlink:href="#rim" fill="#404040">
                        <set attributeName="fill" to="#808080" begin="arrowLeft.mouseover" end="arrowLeft.mouseout"/>
                  </use>
                  <path fill="none" stroke="white" stroke-width="1.5" d="M0,-3.0v7 M-2.5,-0.5L0,-3.0L2.5,-0.5"/>
                </g>
        </g>
        <svg viewBox="0 0 15 15" width="100%" height="30px" preserveAspectRatio="xMaxYMin meet">
         <g id="arrow_out" transform="scale(0.3 0.3)">
          <a xlink:href="filtering_8cpp__incl_org.svg" target="_base">
           <rect id="button" ry="5" rx="5" y="6" x="6" height="38" width="38"
                fill="#f2f5e9" fill-opacity="0.5" stroke="#606060" stroke-width="1.0"/>
           <path id="arrow"
             d="M 11.500037,31.436501 C 11.940474,20.09759 22.043105,11.32322 32.158766,21.979434 L 37.068811,17.246167 C 37.068811,17.246167 37.088388,32 37.088388,32 L 22.160133,31.978069 C 22.160133,31.978069 26.997745,27.140456 26.997745,27.140456 C 18.528582,18.264221 13.291696,25.230495 11.500037,31.436501 z"
             style="fill:#404040;"/>
          </a>
         </g>
        </svg>
</svg>
