<?xml version="1.0" encoding="UTF-8" standalone="no"?>
<!DOCTYPE svg PUBLIC "-//W3C//DTD SVG 1.1//EN"
 "http://www.w3.org/Graphics/SVG/1.1/DTD/svg11.dtd">
<!-- Generated by graphviz version 2.38.0 (20140413.2041)
 -->
<!-- Title: filtering.cpp Pages: 1 -->
<svg width="866pt" height="308pt"
 viewBox="0.00 0.00 865.60 308.00" xmlns="http://www.w3.org/2000/svg" xmlns:xlink="http://www.w3.org/1999/xlink">
<g id="graph0" class="graph" transform="scale(1 1) rotate(0) translate(4 304)">
<title>filtering.cpp</title>
<!-- Node1 -->
<g id="node1" class="node"><title>Node1</title>
<polygon fill="#bfbfbf" stroke="black" points="371.5,-280.5 371.5,-299.5 438.5,-299.5 438.5,-280.5 371.5,-280.5"/>
<text text-anchor="middle" x="405" y="-287.5" font-family="Helvetica,sans-Serif" font-size="10.00">filtering.cpp</text>
</g>
<!-- Node2 -->
<g id="node2" class="node"><title>Node2</title>
<g id="a_node2"><a xlink:href="filtering_8h.html" target="_top" xlink:title="filtering.h">
<polygon fill="none" stroke="black" points="377,-224.5 377,-243.5 433,-243.5 433,-224.5 377,-224.5"/>
<text text-anchor="middle" x="405" y="-231.5" font-family="Helvetica,sans-Serif" font-size="10.00">filtering.h</text>
</a>
</g>
</g>
<!-- Node1&#45;&gt;Node2 -->
<g id="edge1" class="edge"><title>Node1&#45;&gt;Node2</title>
<path fill="none" stroke="midnightblue" d="M405,-280.083C405,-273.006 405,-262.861 405,-253.986"/>
<polygon fill="midnightblue" stroke="midnightblue" points="408.5,-253.751 405,-243.751 401.5,-253.751 408.5,-253.751"/>
</g>
<!-- Node3 -->
<g id="node3" class="node"><title>Node3</title>
<polygon fill="none" stroke="#bfbfbf" points="0,-168.5 0,-187.5 72,-187.5 72,-168.5 0,-168.5"/>
<text text-anchor="middle" x="36" y="-175.5" font-family="Helvetica,sans-Serif" font-size="10.00">QApplication</text>
</g>
<!-- Node2&#45;&gt;Node3 -->
<g id="edge2" class="edge"><title>Node2&#45;&gt;Node3</title>
<path fill="none" stroke="midnightblue" d="M376.743,-229.649C321.95,-223.027 197.236,-207.358 82.3347,-188.144"/>
<polygon fill="midnightblue" stroke="midnightblue" points="82.7577,-184.666 72.315,-186.455 81.5942,-191.569 82.7577,-184.666"/>
</g>
<!-- Node4 -->
<g id="node4" class="node"><title>Node4</title>
<polygon fill="none" stroke="#bfbfbf" points="90,-168.5 90,-187.5 158,-187.5 158,-168.5 90,-168.5"/>
<text text-anchor="middle" x="124" y="-175.5" font-family="Helvetica,sans-Serif" font-size="10.00">QGroupBox</text>
</g>
<!-- Node2&#45;&gt;Node4 -->
<g id="edge3" class="edge"><title>Node2&#45;&gt;Node4</title>
<path fill="none" stroke="midnightblue" d="M376.755,-227.843C333.891,-219.978 249.6,-204.356 168.169,-188.204"/>
<polygon fill="midnightblue" stroke="midnightblue" points="168.746,-184.751 158.255,-186.232 167.38,-191.616 168.746,-184.751"/>
</g>
<!-- Node5 -->
<g id="node5" class="node"><title>Node5</title>
<polygon fill="none" stroke="#bfbfbf" points="176.5,-168.5 176.5,-187.5 255.5,-187.5 255.5,-168.5 176.5,-168.5"/>
<text text-anchor="middle" x="216" y="-175.5" font-family="Helvetica,sans-Serif" font-size="10.00">QLCDNumber</text>
</g>
<!-- Node2&#45;&gt;Node5 -->
<g id="edge4" class="edge"><title>Node2&#45;&gt;Node5</title>
<path fill="none" stroke="midnightblue" d="M376.705,-224.916C344.607,-215.745 292.031,-200.723 255.806,-190.373"/>
<polygon fill="midnightblue" stroke="midnightblue" points="256.63,-186.968 246.053,-187.587 254.707,-193.699 256.63,-186.968"/>
</g>
<!-- Node6 -->
<g id="node6" class="node"><title>Node6</title>
<polygon fill="none" stroke="#bfbfbf" points="273.5,-168.5 273.5,-187.5 320.5,-187.5 320.5,-168.5 273.5,-168.5"/>
<text text-anchor="middle" x="297" y="-175.5" font-family="Helvetica,sans-Serif" font-size="10.00">QLabel</text>
</g>
<!-- Node2&#45;&gt;Node6 -->
<g id="edge5" class="edge"><title>Node2&#45;&gt;Node6</title>
<path fill="none" stroke="midnightblue" d="M387.648,-224.324C370.328,-215.664 343.485,-202.242 323.498,-192.249"/>
<polygon fill="midnightblue" stroke="midnightblue" points="324.819,-188.996 314.309,-187.655 321.688,-195.257 324.819,-188.996"/>
</g>
<!-- Node7 -->
<g id="node7" class="node"><title>Node7</title>
<polygon fill="none" stroke="#bfbfbf" points="378.5,-112.5 378.5,-131.5 431.5,-131.5 431.5,-112.5 378.5,-112.5"/>
<text text-anchor="middle" x="405" y="-119.5" font-family="Helvetica,sans-Serif" font-size="10.00">QObject</text>
</g>
<!-- Node2&#45;&gt;Node7 -->
<g id="edge6" class="edge"><title>Node2&#45;&gt;Node7</title>
<path fill="none" stroke="midnightblue" d="M405,-224.368C405,-206.617 405,-165.666 405,-141.597"/>
<polygon fill="midnightblue" stroke="midnightblue" points="408.5,-141.591 405,-131.591 401.5,-141.591 408.5,-141.591"/>
</g>
<!-- Node8 -->
<g id="node8" class="node"><title>Node8</title>
<polygon fill="none" stroke="#bfbfbf" points="498.5,-168.5 498.5,-187.5 573.5,-187.5 573.5,-168.5 498.5,-168.5"/>
<text text-anchor="middle" x="536" y="-175.5" font-family="Helvetica,sans-Serif" font-size="10.00">QPushButton</text>
</g>
<!-- Node2&#45;&gt;Node8 -->
<g id="edge7" class="edge"><title>Node2&#45;&gt;Node8</title>
<path fill="none" stroke="midnightblue" d="M425.757,-224.444C447.316,-215.557 481.263,-201.563 505.794,-191.451"/>
<polygon fill="midnightblue" stroke="midnightblue" points="507.428,-194.563 515.34,-187.516 504.761,-188.092 507.428,-194.563"/>
</g>
<!-- Node9 -->
<g id="node9" class="node"><title>Node9</title>
<polygon fill="none" stroke="#bfbfbf" points="591.5,-168.5 591.5,-187.5 640.5,-187.5 640.5,-168.5 591.5,-168.5"/>
<text text-anchor="middle" x="616" y="-175.5" font-family="Helvetica,sans-Serif" font-size="10.00">QSlider</text>
</g>
<!-- Node2&#45;&gt;Node9 -->
<g id="edge8" class="edge"><title>Node2&#45;&gt;Node9</title>
<path fill="none" stroke="midnightblue" d="M433.225,-225.915C466.332,-217.584 523.123,-203.233 581.698,-188.059"/>
<polygon fill="midnightblue" stroke="midnightblue" points="582.693,-191.417 591.493,-185.518 580.935,-184.641 582.693,-191.417"/>
</g>
<!-- Node10 -->
<g id="node10" class="node"><title>Node10</title>
<polygon fill="none" stroke="#bfbfbf" points="658.5,-168.5 658.5,-187.5 735.5,-187.5 735.5,-168.5 658.5,-168.5"/>
<text text-anchor="middle" x="697" y="-175.5" font-family="Helvetica,sans-Serif" font-size="10.00">QVBoxLayout</text>
</g>
<!-- Node2&#45;&gt;Node10 -->
<g id="edge9" class="edge"><title>Node2&#45;&gt;Node10</title>
<path fill="none" stroke="midnightblue" d="M433.184,-227.83C476.887,-219.808 563.906,-203.81 648.46,-188.096"/>
<polygon fill="midnightblue" stroke="midnightblue" points="649.298,-191.5 658.489,-186.231 648.018,-184.618 649.298,-191.5"/>
</g>
<!-- Node11 -->
<g id="node11" class="node"><title>Node11</title>
<polygon fill="none" stroke="#bfbfbf" points="753.5,-168.5 753.5,-187.5 808.5,-187.5 808.5,-168.5 753.5,-168.5"/>
<text text-anchor="middle" x="781" y="-175.5" font-family="Helvetica,sans-Serif" font-size="10.00">QWidget</text>
</g>
<!-- Node2&#45;&gt;Node11 -->
<g id="edge10" class="edge"><title>Node2&#45;&gt;Node11</title>
<path fill="none" stroke="midnightblue" d="M433.288,-230.276C490.075,-224.587 622.141,-210.251 743.022,-187.997"/>
<polygon fill="midnightblue" stroke="midnightblue" points="744,-191.375 753.189,-186.102 742.716,-184.494 744,-191.375"/>
</g>
<!-- Node12 -->
<g id="node12" class="node"><title>Node12</title>
<g id="a_node12"><a xlink:href="file_8h.html" target="_top" xlink:title="file.h">
<polygon fill="none" stroke="black" points="339,-168.5 339,-187.5 377,-187.5 377,-168.5 339,-168.5"/>
<text text-anchor="middle" x="358" y="-175.5" font-family="Helvetica,sans-Serif" font-size="10.00">file.h</text>
</a>
</g>
</g>
<!-- Node2&#45;&gt;Node12 -->
<g id="edge11" class="edge"><title>Node2&#45;&gt;Node12</title>
<path fill="none" stroke="midnightblue" d="M397.239,-224.083C390.463,-216.298 380.457,-204.801 372.245,-195.367"/>
<polygon fill="midnightblue" stroke="midnightblue" points="374.822,-192.996 365.617,-187.751 369.542,-197.592 374.822,-192.996"/>
</g>
<!-- Node17 -->
<g id="node17" class="node"><title>Node17</title>
<g id="a_node17"><a xlink:href="track_8h.html" target="_top" xlink:title="The class Track. ">
<polygon fill="none" stroke="black" points="433.5,-168.5 433.5,-187.5 480.5,-187.5 480.5,-168.5 433.5,-168.5"/>
<text text-anchor="middle" x="457" y="-175.5" font-family="Helvetica,sans-Serif" font-size="10.00">track.h</text>
</a>
</g>
</g>
<!-- Node2&#45;&gt;Node17 -->
<g id="edge16" class="edge"><title>Node2&#45;&gt;Node17</title>
<path fill="none" stroke="midnightblue" d="M413.587,-224.083C421.159,-216.22 432.378,-204.569 441.514,-195.081"/>
<polygon fill="midnightblue" stroke="midnightblue" points="444.158,-197.382 448.573,-187.751 439.115,-192.527 444.158,-197.382"/>
</g>
<!-- Node13 -->
<g id="node13" class="node"><title>Node13</title>
<polygon fill="none" stroke="#bfbfbf" points="83,-112.5 83,-131.5 123,-131.5 123,-112.5 83,-112.5"/>
<text text-anchor="middle" x="103" y="-119.5" font-family="Helvetica,sans-Serif" font-size="10.00">QFile</text>
</g>
<!-- Node12&#45;&gt;Node13 -->
<g id="edge12" class="edge"><title>Node12&#45;&gt;Node13</title>
<path fill="none" stroke="midnightblue" d="M338.747,-170.671C335.512,-169.709 332.174,-168.78 329,-168 245.602,-147.517 220.21,-152.809 132.982,-131.989"/>
<polygon fill="midnightblue" stroke="midnightblue" points="133.739,-128.572 123.195,-129.607 132.083,-135.373 133.739,-128.572"/>
</g>
<!-- Node14 -->
<g id="node14" class="node"><title>Node14</title>
<polygon fill="none" stroke="#bfbfbf" points="141,-112.5 141,-131.5 209,-131.5 209,-112.5 141,-112.5"/>
<text text-anchor="middle" x="175" y="-119.5" font-family="Helvetica,sans-Serif" font-size="10.00">QFileDialog</text>
</g>
<!-- Node12&#45;&gt;Node14 -->
<g id="edge13" class="edge"><title>Node12&#45;&gt;Node14</title>
<path fill="none" stroke="midnightblue" d="M338.983,-171.048C335.658,-170.022 332.23,-168.973 329,-168 290.134,-156.291 245.614,-143.331 214.471,-134.338"/>
<polygon fill="midnightblue" stroke="midnightblue" points="215.432,-130.973 204.854,-131.564 213.492,-137.699 215.432,-130.973"/>
</g>
<!-- Node15 -->
<g id="node15" class="node"><title>Node15</title>
<polygon fill="none" stroke="#bfbfbf" points="227,-112.5 227,-131.5 277,-131.5 277,-112.5 227,-112.5"/>
<text text-anchor="middle" x="252" y="-119.5" font-family="Helvetica,sans-Serif" font-size="10.00">QString</text>
</g>
<!-- Node12&#45;&gt;Node15 -->
<g id="edge14" class="edge"><title>Node12&#45;&gt;Node15</title>
<path fill="none" stroke="midnightblue" d="M340.969,-168.324C323.97,-159.664 297.624,-146.242 278.007,-136.249"/>
<polygon fill="midnightblue" stroke="midnightblue" points="279.488,-133.075 268.988,-131.655 276.31,-139.312 279.488,-133.075"/>
</g>
<!-- Node16 -->
<g id="node16" class="node"><title>Node16</title>
<polygon fill="none" stroke="#bfbfbf" points="295.5,-112.5 295.5,-131.5 360.5,-131.5 360.5,-112.5 295.5,-112.5"/>
<text text-anchor="middle" x="328" y="-119.5" font-family="Helvetica,sans-Serif" font-size="10.00">QStringList</text>
</g>
<!-- Node12&#45;&gt;Node16 -->
<g id="edge15" class="edge"><title>Node12&#45;&gt;Node16</title>
<path fill="none" stroke="midnightblue" d="M353.046,-168.083C348.896,-160.613 342.847,-149.724 337.733,-140.52"/>
<polygon fill="midnightblue" stroke="midnightblue" points="340.778,-138.793 332.862,-131.751 334.659,-142.192 340.778,-138.793"/>
</g>
<!-- Node17&#45;&gt;Node7 -->
<g id="edge17" class="edge"><title>Node17&#45;&gt;Node7</title>
<path fill="none" stroke="midnightblue" d="M448.413,-168.083C440.841,-160.22 429.622,-148.569 420.486,-139.081"/>
<polygon fill="midnightblue" stroke="midnightblue" points="422.885,-136.527 413.427,-131.751 417.842,-141.382 422.885,-136.527"/>
</g>
<!-- Node17&#45;&gt;Node15 -->
<g id="edge25" class="edge"><title>Node17&#45;&gt;Node15</title>
<path fill="none" stroke="midnightblue" d="M433.486,-170.824C402.257,-162.618 345.126,-147.599 286.968,-132.253"/>
<polygon fill="midnightblue" stroke="midnightblue" points="287.812,-128.856 277.25,-129.688 286.026,-135.624 287.812,-128.856"/>
</g>
<!-- Node17&#45;&gt;Node16 -->
<g id="edge26" class="edge"><title>Node17&#45;&gt;Node16</title>
<path fill="none" stroke="midnightblue" d="M436.56,-168.444C415.33,-159.557 381.901,-145.563 357.745,-135.451"/>
<polygon fill="midnightblue" stroke="midnightblue" points="358.921,-132.149 348.345,-131.516 356.218,-138.606 358.921,-132.149"/>
</g>
<!-- Node18 -->
<g id="node18" class="node"><title>Node18</title>
<g id="a_node18"><a xlink:href="point_g_p_s_8h.html" target="_top" xlink:title="pointGPS.h">
<polygon fill="none" stroke="black" points="488.5,-112.5 488.5,-131.5 555.5,-131.5 555.5,-112.5 488.5,-112.5"/>
<text text-anchor="middle" x="522" y="-119.5" font-family="Helvetica,sans-Serif" font-size="10.00">pointGPS.h</text>
</a>
</g>
</g>
<!-- Node17&#45;&gt;Node18 -->
<g id="edge18" class="edge"><title>Node17&#45;&gt;Node18</title>
<path fill="none" stroke="midnightblue" d="M467.443,-168.324C477.146,-160.263 491.815,-148.077 503.5,-138.369"/>
<polygon fill="midnightblue" stroke="midnightblue" points="505.911,-140.916 511.367,-131.834 501.438,-135.532 505.911,-140.916"/>
</g>
<!-- Node21 -->
<g id="node21" class="node"><title>Node21</title>
<polygon fill="none" stroke="#bfbfbf" points="752,-0.5 752,-19.5 806,-19.5 806,-0.5 752,-0.5"/>
<text text-anchor="middle" x="779" y="-7.5" font-family="Helvetica,sans-Serif" font-size="10.00">iostream</text>
</g>
<!-- Node17&#45;&gt;Node21 -->
<g id="edge28" class="edge"><title>Node17&#45;&gt;Node21</title>
<path fill="none" stroke="midnightblue" d="M480.656,-169.851C483.452,-169.154 486.278,-168.515 489,-168 567.779,-153.09 794.208,-191.456 848,-132 877.976,-98.8678 828.742,-50.5329 799.019,-26.1978"/>
<polygon fill="midnightblue" stroke="midnightblue" points="800.889,-23.2129 790.883,-19.7306 796.533,-28.6928 800.889,-23.2129"/>
</g>
<!-- Node22 -->
<g id="node22" class="node"><title>Node22</title>
<polygon fill="none" stroke="#bfbfbf" points="602,-0.5 602,-19.5 646,-19.5 646,-0.5 602,-0.5"/>
<text text-anchor="middle" x="624" y="-7.5" font-family="Helvetica,sans-Serif" font-size="10.00">vector</text>
</g>
<!-- Node17&#45;&gt;Node22 -->
<g id="edge31" class="edge"><title>Node17&#45;&gt;Node22</title>
<path fill="none" stroke="midnightblue" d="M455.816,-168.408C453.329,-146.647 449.979,-88.7659 479,-56 507.464,-23.863 558.402,-14.4035 591.696,-11.774"/>
<polygon fill="midnightblue" stroke="midnightblue" points="592.072,-15.2574 601.834,-11.1402 591.635,-8.27104 592.072,-15.2574"/>
</g>
<!-- Node23 -->
<g id="node23" class="node"><title>Node23</title>
<polygon fill="none" stroke="#bfbfbf" points="573.5,-112.5 573.5,-131.5 640.5,-131.5 640.5,-112.5 573.5,-112.5"/>
<text text-anchor="middle" x="607" y="-119.5" font-family="Helvetica,sans-Serif" font-size="10.00">QDateTime</text>
</g>
<!-- Node17&#45;&gt;Node23 -->
<g id="edge24" class="edge"><title>Node17&#45;&gt;Node23</title>
<path fill="none" stroke="midnightblue" d="M480.768,-168.444C505.893,-159.399 545.711,-145.064 573.9,-134.916"/>
<polygon fill="midnightblue" stroke="midnightblue" points="575.12,-138.197 583.343,-131.516 572.749,-131.611 575.12,-138.197"/>
</g>
<!-- Node24 -->
<g id="node24" class="node"><title>Node24</title>
<polygon fill="none" stroke="#bfbfbf" points="659,-112.5 659,-131.5 709,-131.5 709,-112.5 659,-112.5"/>
<text text-anchor="middle" x="684" y="-119.5" font-family="Helvetica,sans-Serif" font-size="10.00">fstream</text>
</g>
<!-- Node17&#45;&gt;Node24 -->
<g id="edge27" class="edge"><title>Node17&#45;&gt;Node24</title>
<path fill="none" stroke="midnightblue" d="M480.728,-170.176C483.511,-169.42 486.314,-168.679 489,-168 559.664,-150.127 578.14,-149.078 649,-132 649.099,-131.976 649.198,-131.952 649.298,-131.928"/>
<polygon fill="midnightblue" stroke="midnightblue" points="649.921,-135.38 658.788,-129.581 648.24,-128.584 649.921,-135.38"/>
</g>
<!-- Node25 -->
<g id="node25" class="node"><title>Node25</title>
<polygon fill="none" stroke="#bfbfbf" points="727,-112.5 727,-131.5 779,-131.5 779,-112.5 727,-112.5"/>
<text text-anchor="middle" x="753" y="-119.5" font-family="Helvetica,sans-Serif" font-size="10.00">sstream</text>
</g>
<!-- Node17&#45;&gt;Node25 -->
<g id="edge29" class="edge"><title>Node17&#45;&gt;Node25</title>
<path fill="none" stroke="midnightblue" d="M480.687,-170.001C483.477,-169.277 486.294,-168.591 489,-168 586.509,-146.701 615.318,-152.454 716.652,-132.106"/>
<polygon fill="midnightblue" stroke="midnightblue" points="717.594,-135.486 726.69,-130.053 716.191,-128.628 717.594,-135.486"/>
</g>
<!-- Node26 -->
<g id="node26" class="node"><title>Node26</title>
<polygon fill="none" stroke="#bfbfbf" points="797.5,-112.5 797.5,-131.5 838.5,-131.5 838.5,-112.5 797.5,-112.5"/>
<text text-anchor="middle" x="818" y="-119.5" font-family="Helvetica,sans-Serif" font-size="10.00">string</text>
</g>
<!-- Node17&#45;&gt;Node26 -->
<g id="edge30" class="edge"><title>Node17&#45;&gt;Node26</title>
<path fill="none" stroke="midnightblue" d="M480.667,-169.904C483.461,-169.197 486.283,-168.542 489,-168 617.055,-142.442 655.123,-158.501 787.355,-131.757"/>
<polygon fill="midnightblue" stroke="midnightblue" points="788.378,-135.12 797.463,-129.668 786.961,-128.265 788.378,-135.12"/>
</g>
<!-- Node19 -->
<g id="node19" class="node"><title>Node19</title>
<g id="a_node19"><a xlink:href="emissionprobability_8h.html" target="_top" xlink:title="emissionprobability.h">
<polygon fill="none" stroke="black" points="488,-56.5 488,-75.5 596,-75.5 596,-56.5 488,-56.5"/>
<text text-anchor="middle" x="542" y="-63.5" font-family="Helvetica,sans-Serif" font-size="10.00">emissionprobability.h</text>
</a>
</g>
</g>
<!-- Node18&#45;&gt;Node19 -->
<g id="edge19" class="edge"><title>Node18&#45;&gt;Node19</title>
<path fill="none" stroke="midnightblue" d="M525.303,-112.083C527.982,-104.849 531.849,-94.4087 535.186,-85.3968"/>
<polygon fill="midnightblue" stroke="midnightblue" points="538.568,-86.3442 538.759,-75.7511 532.004,-83.9129 538.568,-86.3442"/>
</g>
<!-- Node20 -->
<g id="node20" class="node"><title>Node20</title>
<g id="a_node20"><a xlink:href="point_8h.html" target="_top" xlink:title="Class Point. ">
<polygon fill="none" stroke="black" points="652,-56.5 652,-75.5 698,-75.5 698,-56.5 652,-56.5"/>
<text text-anchor="middle" x="675" y="-63.5" font-family="Helvetica,sans-Serif" font-size="10.00">point.h</text>
</a>
</g>
</g>
<!-- Node18&#45;&gt;Node20 -->
<g id="edge20" class="edge"><title>Node18&#45;&gt;Node20</title>
<path fill="none" stroke="midnightblue" d="M546.243,-112.444C572.172,-103.292 613.443,-88.726 642.248,-78.5594"/>
<polygon fill="midnightblue" stroke="midnightblue" points="643.607,-81.7917 651.872,-75.1629 641.277,-75.1907 643.607,-81.7917"/>
</g>
<!-- Node18&#45;&gt;Node22 -->
<g id="edge23" class="edge"><title>Node18&#45;&gt;Node22</title>
<path fill="none" stroke="midnightblue" d="M549.59,-112.35C567.782,-105.302 590.791,-93.6003 605,-76 615.722,-62.7184 620.394,-43.5948 622.429,-29.5276"/>
<polygon fill="midnightblue" stroke="midnightblue" points="625.913,-29.8689 623.561,-19.5383 618.957,-29.0805 625.913,-29.8689"/>
</g>
<!-- Node20&#45;&gt;Node21 -->
<g id="edge21" class="edge"><title>Node20&#45;&gt;Node21</title>
<path fill="none" stroke="midnightblue" d="M691.709,-56.324C708.312,-47.7034 734.002,-34.3643 753.22,-24.3855"/>
<polygon fill="midnightblue" stroke="midnightblue" points="755.07,-27.3689 762.332,-19.6545 751.844,-21.1565 755.07,-27.3689"/>
</g>
<!-- Node20&#45;&gt;Node22 -->
<g id="edge22" class="edge"><title>Node20&#45;&gt;Node22</title>
<path fill="none" stroke="midnightblue" d="M666.578,-56.083C659.152,-48.2195 648.148,-36.5688 639.188,-27.0813"/>
<polygon fill="midnightblue" stroke="midnightblue" points="641.676,-24.618 632.265,-19.7511 636.587,-29.4244 641.676,-24.618"/>
</g>
</g>
</svg>
