<?xml version="1.0" encoding="UTF-8" standalone="no"?>
<!DOCTYPE svg PUBLIC "-//W3C//DTD SVG 1.1//EN"
 "http://www.w3.org/Graphics/SVG/1.1/DTD/svg11.dtd">
<!-- Generated by graphviz version 2.38.0 (20140413.2041)
 -->
<!-- Title: filtering.h Pages: 1 -->
<!--zoomable 252 -->
<svg id="main" version="1.1" xmlns="http://www.w3.org/2000/svg" xmlns:xlink="http://www.w3.org/1999/xlink" xml:space="preserve" onload="init(evt)">
<style type="text/css"><![CDATA[
.edge:hover path { stroke: red; }
.edge:hover polygon { stroke: red; fill: red; }
]]></style>
<script type="text/javascript"><![CDATA[
var edges = document.getElementsByTagName('g');
if (edges && edges.length) {
  for (var i=0;i<edges.length;i++) {
    if (edges[i].id.substr(0,4)=='edge') {
      edges[i].setAttribute('class','edge');
    }
  }
}
]]></script>
        <defs>
                <circle id="rim" cx="0" cy="0" r="7"/>
                <circle id="rim2" cx="0" cy="0" r="3.5"/>
                <g id="zoomPlus">
                        <use xlink:href="#rim" fill="#404040">
                                <set attributeName="fill" to="#808080" begin="zoomplus.mouseover" end="zoomplus.mouseout"/>
                        </use>
                        <path d="M-4,0h8M0,-4v8" fill="none" stroke="white" stroke-width="1.5" pointer-events="none"/>
                </g>
                <g id="zoomMin">
                        <use xlink:href="#rim" fill="#404040">
                                <set attributeName="fill" to="#808080" begin="zoomminus.mouseover" end="zoomminus.mouseout"/>
                        </use>
                        <path d="M-4,0h8" fill="none" stroke="white" stroke-width="1.5" pointer-events="none"/>
                </g>
                <g id="dirArrow">
                        <path fill="none" stroke="white" stroke-width="1.5" d="M0,-3.0v7 M-2.5,-0.5L0,-3.0L2.5,-0.5"/>
                </g>
               <g id="resetDef">
                       <use xlink:href="#rim2" fill="#404040">
                               <set attributeName="fill" to="#808080" begin="reset.mouseover" end="reset.mouseout"/>
                       </use>
               </g>
        </defs>

<script type="text/javascript">
var viewWidth = 1518;
var viewHeight = 252;
var sectionId = 'dynsection-0';
</script>
<script xlink:href="svgpan.js"/>
<svg id="graph" class="graph">
<g id="viewport">
<title>filtering.h</title>
<!-- Node1 -->
<g id="node1" class="node"><title>Node1</title>
<polygon fill="#bfbfbf" stroke="black" points="494,-224.5 494,-243.5 550,-243.5 550,-224.5 494,-224.5"/>
<text text-anchor="middle" x="522" y="-231.5" font-family="Helvetica,sans-Serif" font-size="10.00">filtering.h</text>
</g>
<!-- Node2 -->
<g id="node2" class="node"><title>Node2</title>
<polygon fill="none" stroke="#bfbfbf" points="0,-168.5 0,-187.5 72,-187.5 72,-168.5 0,-168.5"/>
<text text-anchor="middle" x="36" y="-175.5" font-family="Helvetica,sans-Serif" font-size="10.00">QApplication</text>
</g>
<!-- Node1&#45;&gt;Node2 -->
<g id="edge1" class="edge"><title>Node1&#45;&gt;Node2</title>
<path fill="none" stroke="midnightblue" d="M493.764,-231.061C425.086,-226.145 243.701,-211.96 82.4007,-188.082"/>
<polygon fill="midnightblue" stroke="midnightblue" points="82.7048,-184.589 72.2968,-186.569 81.6684,-191.511 82.7048,-184.589"/>
</g>
<!-- Node3 -->
<g id="node3" class="node"><title>Node3</title>
<polygon fill="none" stroke="#bfbfbf" points="90,-168.5 90,-187.5 188,-187.5 188,-168.5 90,-168.5"/>
<text text-anchor="middle" x="139" y="-175.5" font-family="Helvetica,sans-Serif" font-size="10.00">QDialogButtonBox</text>
</g>
<!-- Node1&#45;&gt;Node3 -->
<g id="edge2" class="edge"><title>Node1&#45;&gt;Node3</title>
<path fill="none" stroke="midnightblue" d="M493.721,-229.243C438.87,-221.921 313.957,-205.082 198.141,-188.148"/>
<polygon fill="midnightblue" stroke="midnightblue" points="198.441,-184.655 188.039,-186.667 197.426,-191.581 198.441,-184.655"/>
</g>
<!-- Node4 -->
<g id="node4" class="node"><title>Node4</title>
<polygon fill="none" stroke="#bfbfbf" points="206,-168.5 206,-187.5 274,-187.5 274,-168.5 206,-168.5"/>
<text text-anchor="middle" x="240" y="-175.5" font-family="Helvetica,sans-Serif" font-size="10.00">QGroupBox</text>
</g>
<!-- Node1&#45;&gt;Node4 -->
<g id="edge3" class="edge"><title>Node1&#45;&gt;Node4</title>
<path fill="none" stroke="midnightblue" d="M493.635,-227.851C450.589,-219.996 365.942,-204.387 284.205,-188.21"/>
<polygon fill="midnightblue" stroke="midnightblue" points="284.745,-184.749 274.255,-186.235 283.382,-191.615 284.745,-184.749"/>
</g>
<!-- Node5 -->
<g id="node5" class="node"><title>Node5</title>
<polygon fill="none" stroke="#bfbfbf" points="292.5,-168.5 292.5,-187.5 371.5,-187.5 371.5,-168.5 292.5,-168.5"/>
<text text-anchor="middle" x="332" y="-175.5" font-family="Helvetica,sans-Serif" font-size="10.00">QLCDNumber</text>
</g>
<!-- Node1&#45;&gt;Node5 -->
<g id="edge4" class="edge"><title>Node1&#45;&gt;Node5</title>
<path fill="none" stroke="midnightblue" d="M493.965,-225.032C461.695,-215.861 408.452,-200.729 371.877,-190.333"/>
<polygon fill="midnightblue" stroke="midnightblue" points="372.61,-186.903 362.034,-187.536 370.696,-193.637 372.61,-186.903"/>
</g>
<!-- Node6 -->
<g id="node6" class="node"><title>Node6</title>
<polygon fill="none" stroke="#bfbfbf" points="389.5,-168.5 389.5,-187.5 436.5,-187.5 436.5,-168.5 389.5,-168.5"/>
<text text-anchor="middle" x="413" y="-175.5" font-family="Helvetica,sans-Serif" font-size="10.00">QLabel</text>
</g>
<!-- Node1&#45;&gt;Node6 -->
<g id="edge5" class="edge"><title>Node1&#45;&gt;Node6</title>
<path fill="none" stroke="midnightblue" d="M504.487,-224.324C486.928,-215.625 459.669,-202.12 439.469,-192.113"/>
<polygon fill="midnightblue" stroke="midnightblue" points="440.984,-188.958 430.469,-187.655 437.876,-195.23 440.984,-188.958"/>
</g>
<!-- Node7 -->
<g id="node7" class="node"><title>Node7</title>
<polygon fill="none" stroke="#bfbfbf" points="454.5,-168.5 454.5,-187.5 507.5,-187.5 507.5,-168.5 454.5,-168.5"/>
<text text-anchor="middle" x="481" y="-175.5" font-family="Helvetica,sans-Serif" font-size="10.00">QObject</text>
</g>
<!-- Node1&#45;&gt;Node7 -->
<g id="edge6" class="edge"><title>Node1&#45;&gt;Node7</title>
<path fill="none" stroke="midnightblue" d="M515.23,-224.083C509.438,-216.455 500.942,-205.264 493.862,-195.941"/>
<polygon fill="midnightblue" stroke="midnightblue" points="496.479,-193.599 487.644,-187.751 490.904,-197.832 496.479,-193.599"/>
</g>
<!-- Node8 -->
<g id="node8" class="node"><title>Node8</title>
<polygon fill="none" stroke="#bfbfbf" points="525.5,-168.5 525.5,-187.5 600.5,-187.5 600.5,-168.5 525.5,-168.5"/>
<text text-anchor="middle" x="563" y="-175.5" font-family="Helvetica,sans-Serif" font-size="10.00">QPushButton</text>
</g>
<!-- Node1&#45;&gt;Node8 -->
<g id="edge7" class="edge"><title>Node1&#45;&gt;Node8</title>
<path fill="none" stroke="midnightblue" d="M528.77,-224.083C534.562,-216.455 543.058,-205.264 550.138,-195.941"/>
<polygon fill="midnightblue" stroke="midnightblue" points="553.096,-197.832 556.356,-187.751 547.521,-193.599 553.096,-197.832"/>
</g>
<!-- Node9 -->
<g id="node9" class="node"><title>Node9</title>
<polygon fill="none" stroke="#bfbfbf" points="618.5,-168.5 618.5,-187.5 667.5,-187.5 667.5,-168.5 618.5,-168.5"/>
<text text-anchor="middle" x="643" y="-175.5" font-family="Helvetica,sans-Serif" font-size="10.00">QSlider</text>
</g>
<!-- Node1&#45;&gt;Node9 -->
<g id="edge8" class="edge"><title>Node1&#45;&gt;Node9</title>
<path fill="none" stroke="midnightblue" d="M541.173,-224.444C560.909,-215.636 591.885,-201.812 614.493,-191.722"/>
<polygon fill="midnightblue" stroke="midnightblue" points="616.211,-194.788 623.917,-187.516 613.359,-188.396 616.211,-194.788"/>
</g>
<!-- Node10 -->
<g id="node10" class="node"><title>Node10</title>
<polygon fill="none" stroke="#bfbfbf" points="685.5,-168.5 685.5,-187.5 762.5,-187.5 762.5,-168.5 685.5,-168.5"/>
<text text-anchor="middle" x="724" y="-175.5" font-family="Helvetica,sans-Serif" font-size="10.00">QVBoxLayout</text>
</g>
<!-- Node1&#45;&gt;Node10 -->
<g id="edge9" class="edge"><title>Node1&#45;&gt;Node10</title>
<path fill="none" stroke="midnightblue" d="M550.087,-225.492C584.393,-216.321 642.729,-200.726 682.285,-190.152"/>
<polygon fill="midnightblue" stroke="midnightblue" points="683.403,-193.476 692.16,-187.512 681.595,-186.713 683.403,-193.476"/>
</g>
<!-- Node11 -->
<g id="node11" class="node"><title>Node11</title>
<polygon fill="none" stroke="#bfbfbf" points="780.5,-168.5 780.5,-187.5 835.5,-187.5 835.5,-168.5 780.5,-168.5"/>
<text text-anchor="middle" x="808" y="-175.5" font-family="Helvetica,sans-Serif" font-size="10.00">QWidget</text>
</g>
<!-- Node1&#45;&gt;Node11 -->
<g id="edge10" class="edge"><title>Node1&#45;&gt;Node11</title>
<path fill="none" stroke="midnightblue" d="M550.113,-228.483C594.636,-221.207 684.301,-206.063 770.243,-188.055"/>
<polygon fill="midnightblue" stroke="midnightblue" points="771.099,-191.452 780.16,-185.961 769.653,-184.603 771.099,-191.452"/>
</g>
<!-- Node12 -->
<g id="node12" class="node"><title>Node12</title>
<g id="a_node12"><a xlink:href="track_8h.html" target="_top" xlink:title="The class Track. ">
<polygon fill="none" stroke="black" points="1159.5,-168.5 1159.5,-187.5 1206.5,-187.5 1206.5,-168.5 1159.5,-168.5"/>
<text text-anchor="middle" x="1183" y="-175.5" font-family="Helvetica,sans-Serif" font-size="10.00">track.h</text>
</a>
</g>
</g>
<!-- Node1&#45;&gt;Node12 -->
<g id="edge11" class="edge"><title>Node1&#45;&gt;Node12</title>
<path fill="none" stroke="midnightblue" d="M550.402,-230.68C657.156,-221.958 1034.14,-191.161 1149.32,-181.751"/>
<polygon fill="midnightblue" stroke="midnightblue" points="1149.65,-185.237 1159.33,-180.934 1149.08,-178.26 1149.65,-185.237"/>
</g>
<!-- Node24 -->
<g id="node24" class="node"><title>Node24</title>
<g id="a_node24"><a xlink:href="file_8h.html" target="_top" xlink:title="file.h">
<polygon fill="none" stroke="black" points="854,-168.5 854,-187.5 892,-187.5 892,-168.5 854,-168.5"/>
<text text-anchor="middle" x="873" y="-175.5" font-family="Helvetica,sans-Serif" font-size="10.00">file.h</text>
</a>
</g>
</g>
<!-- Node1&#45;&gt;Node24 -->
<g id="edge25" class="edge"><title>Node1&#45;&gt;Node24</title>
<path fill="none" stroke="midnightblue" d="M550.271,-230.603C606.648,-225.482 736.856,-211.947 844,-188 844.1,-187.978 844.2,-187.955 844.299,-187.933"/>
<polygon fill="midnightblue" stroke="midnightblue" points="844.992,-191.37 853.774,-185.444 843.213,-184.599 844.992,-191.37"/>
</g>
<!-- Node13 -->
<g id="node13" class="node"><title>Node13</title>
<g id="a_node13"><a xlink:href="point_g_p_s_8h.html" target="_top" xlink:title="pointGPS.h">
<polygon fill="none" stroke="black" points="1180.5,-112.5 1180.5,-131.5 1247.5,-131.5 1247.5,-112.5 1180.5,-112.5"/>
<text text-anchor="middle" x="1214" y="-119.5" font-family="Helvetica,sans-Serif" font-size="10.00">pointGPS.h</text>
</a>
</g>
</g>
<!-- Node12&#45;&gt;Node13 -->
<g id="edge12" class="edge"><title>Node12&#45;&gt;Node13</title>
<path fill="none" stroke="midnightblue" d="M1188.12,-168.083C1192.41,-160.613 1198.66,-149.724 1203.94,-140.52"/>
<polygon fill="midnightblue" stroke="midnightblue" points="1207.03,-142.166 1208.98,-131.751 1200.96,-138.681 1207.03,-142.166"/>
</g>
<!-- Node16 -->
<g id="node16" class="node"><title>Node16</title>
<polygon fill="none" stroke="#bfbfbf" points="1072,-0.5 1072,-19.5 1126,-19.5 1126,-0.5 1072,-0.5"/>
<text text-anchor="middle" x="1099" y="-7.5" font-family="Helvetica,sans-Serif" font-size="10.00">iostream</text>
</g>
<!-- Node12&#45;&gt;Node16 -->
<g id="edge21" class="edge"><title>Node12&#45;&gt;Node16</title>
<path fill="none" stroke="midnightblue" d="M1206.65,-169.675C1223.99,-162.917 1246.31,-151.004 1257,-132 1273.55,-102.557 1277.35,-82.9579 1257,-56 1242.43,-36.7059 1177.88,-23.2321 1135.92,-16.3307"/>
<polygon fill="midnightblue" stroke="midnightblue" points="1136.47,-12.8743 1126.05,-14.7581 1135.37,-19.7872 1136.47,-12.8743"/>
</g>
<!-- Node17 -->
<g id="node17" class="node"><title>Node17</title>
<polygon fill="none" stroke="#bfbfbf" points="1014,-56.5 1014,-75.5 1058,-75.5 1058,-56.5 1014,-56.5"/>
<text text-anchor="middle" x="1036" y="-63.5" font-family="Helvetica,sans-Serif" font-size="10.00">vector</text>
</g>
<!-- Node12&#45;&gt;Node17 -->
<g id="edge24" class="edge"><title>Node12&#45;&gt;Node17</title>
<path fill="none" stroke="midnightblue" d="M1178.21,-168.351C1170.34,-154.784 1153.46,-128.365 1133,-112 1113.53,-96.4244 1087.79,-84.8058 1067.72,-77.2794"/>
<polygon fill="midnightblue" stroke="midnightblue" points="1068.68,-73.9067 1058.09,-73.8157 1066.31,-80.4936 1068.68,-73.9067"/>
</g>
<!-- Node18 -->
<g id="node18" class="node"><title>Node18</title>
<polygon fill="none" stroke="#bfbfbf" points="1304.5,-112.5 1304.5,-131.5 1371.5,-131.5 1371.5,-112.5 1304.5,-112.5"/>
<text text-anchor="middle" x="1338" y="-119.5" font-family="Helvetica,sans-Serif" font-size="10.00">QDateTime</text>
</g>
<!-- Node12&#45;&gt;Node18 -->
<g id="edge17" class="edge"><title>Node12&#45;&gt;Node18</title>
<path fill="none" stroke="midnightblue" d="M1206.54,-168.799C1232.49,-159.759 1274.45,-145.14 1303.97,-134.854"/>
<polygon fill="midnightblue" stroke="midnightblue" points="1305.18,-138.142 1313.47,-131.547 1302.87,-131.532 1305.18,-138.142"/>
</g>
<!-- Node19 -->
<g id="node19" class="node"><title>Node19</title>
<polygon fill="none" stroke="#bfbfbf" points="1074,-112.5 1074,-131.5 1124,-131.5 1124,-112.5 1074,-112.5"/>
<text text-anchor="middle" x="1099" y="-119.5" font-family="Helvetica,sans-Serif" font-size="10.00">QString</text>
</g>
<!-- Node12&#45;&gt;Node19 -->
<g id="edge18" class="edge"><title>Node12&#45;&gt;Node19</title>
<path fill="none" stroke="midnightblue" d="M1169.5,-168.324C1156.4,-159.9 1136.29,-146.971 1120.89,-137.074"/>
<polygon fill="midnightblue" stroke="midnightblue" points="1122.77,-134.118 1112.46,-131.655 1118.98,-140.006 1122.77,-134.118"/>
</g>
<!-- Node20 -->
<g id="node20" class="node"><title>Node20</title>
<polygon fill="none" stroke="#bfbfbf" points="931.5,-112.5 931.5,-131.5 996.5,-131.5 996.5,-112.5 931.5,-112.5"/>
<text text-anchor="middle" x="964" y="-119.5" font-family="Helvetica,sans-Serif" font-size="10.00">QStringList</text>
</g>
<!-- Node12&#45;&gt;Node20 -->
<g id="edge19" class="edge"><title>Node12&#45;&gt;Node20</title>
<path fill="none" stroke="midnightblue" d="M1159.15,-171.118C1122.56,-162.097 1052.05,-144.712 1006.56,-133.494"/>
<polygon fill="midnightblue" stroke="midnightblue" points="1007.24,-130.057 996.693,-131.061 1005.56,-136.854 1007.24,-130.057"/>
</g>
<!-- Node21 -->
<g id="node21" class="node"><title>Node21</title>
<polygon fill="none" stroke="#bfbfbf" points="1390,-112.5 1390,-131.5 1440,-131.5 1440,-112.5 1390,-112.5"/>
<text text-anchor="middle" x="1415" y="-119.5" font-family="Helvetica,sans-Serif" font-size="10.00">fstream</text>
</g>
<!-- Node12&#45;&gt;Node21 -->
<g id="edge20" class="edge"><title>Node12&#45;&gt;Node21</title>
<path fill="none" stroke="midnightblue" d="M1206.53,-171.933C1241.95,-164.248 1311.28,-148.968 1379.69,-132.258"/>
<polygon fill="midnightblue" stroke="midnightblue" points="1380.9,-135.567 1389.77,-129.783 1379.23,-128.768 1380.9,-135.567"/>
</g>
<!-- Node22 -->
<g id="node22" class="node"><title>Node22</title>
<polygon fill="none" stroke="#bfbfbf" points="1458,-112.5 1458,-131.5 1510,-131.5 1510,-112.5 1458,-112.5"/>
<text text-anchor="middle" x="1484" y="-119.5" font-family="Helvetica,sans-Serif" font-size="10.00">sstream</text>
</g>
<!-- Node12&#45;&gt;Node22 -->
<g id="edge22" class="edge"><title>Node12&#45;&gt;Node22</title>
<path fill="none" stroke="midnightblue" d="M1206.61,-173.687C1251.6,-167.23 1352.89,-151.998 1447.65,-132.145"/>
<polygon fill="midnightblue" stroke="midnightblue" points="1448.62,-135.516 1457.68,-130.02 1447.17,-128.668 1448.62,-135.516"/>
</g>
<!-- Node23 -->
<g id="node23" class="node"><title>Node23</title>
<polygon fill="none" stroke="#bfbfbf" points="1014.5,-112.5 1014.5,-131.5 1055.5,-131.5 1055.5,-112.5 1014.5,-112.5"/>
<text text-anchor="middle" x="1035" y="-119.5" font-family="Helvetica,sans-Serif" font-size="10.00">string</text>
</g>
<!-- Node12&#45;&gt;Node23 -->
<g id="edge23" class="edge"><title>Node12&#45;&gt;Node23</title>
<path fill="none" stroke="midnightblue" d="M1159.55,-168.444C1134.14,-159.173 1093.51,-144.346 1065.6,-134.165"/>
<polygon fill="midnightblue" stroke="midnightblue" points="1066.54,-130.783 1055.95,-130.643 1064.14,-137.359 1066.54,-130.783"/>
</g>
<!-- Node14 -->
<g id="node14" class="node"><title>Node14</title>
<g id="a_node14"><a xlink:href="emissionprobability_8h.html" target="_top" xlink:title="emissionprobability.h">
<polygon fill="none" stroke="black" points="1140,-56.5 1140,-75.5 1248,-75.5 1248,-56.5 1140,-56.5"/>
<text text-anchor="middle" x="1194" y="-63.5" font-family="Helvetica,sans-Serif" font-size="10.00">emissionprobability.h</text>
</a>
</g>
</g>
<!-- Node13&#45;&gt;Node14 -->
<g id="edge13" class="edge"><title>Node13&#45;&gt;Node14</title>
<path fill="none" stroke="midnightblue" d="M1210.7,-112.083C1208.02,-104.849 1204.15,-94.4087 1200.81,-85.3968"/>
<polygon fill="midnightblue" stroke="midnightblue" points="1204,-83.9129 1197.24,-75.7511 1197.43,-86.3442 1204,-83.9129"/>
</g>
<!-- Node15 -->
<g id="node15" class="node"><title>Node15</title>
<g id="a_node15"><a xlink:href="point_8h.html" target="_top" xlink:title="Class Point. ">
<polygon fill="none" stroke="black" points="1076,-56.5 1076,-75.5 1122,-75.5 1122,-56.5 1076,-56.5"/>
<text text-anchor="middle" x="1099" y="-63.5" font-family="Helvetica,sans-Serif" font-size="10.00">point.h</text>
</a>
</g>
</g>
<!-- Node13&#45;&gt;Node15 -->
<g id="edge14" class="edge"><title>Node13&#45;&gt;Node15</title>
<path fill="none" stroke="midnightblue" d="M1195.78,-112.444C1177.1,-103.675 1147.84,-89.9355 1126.38,-79.8579"/>
<polygon fill="midnightblue" stroke="midnightblue" points="1127.68,-76.5988 1117.14,-75.5164 1124.7,-82.935 1127.68,-76.5988"/>
</g>
<!-- Node13&#45;&gt;Node17 -->
<g id="edge16" class="edge"><title>Node13&#45;&gt;Node17</title>
<path fill="none" stroke="midnightblue" d="M1185.8,-112.444C1153.72,-102.714 1101.48,-86.8642 1067.93,-76.688"/>
<polygon fill="midnightblue" stroke="midnightblue" points="1068.75,-73.2789 1058.17,-73.7251 1066.72,-79.9775 1068.75,-73.2789"/>
</g>
<!-- Node15&#45;&gt;Node16 -->
<g id="edge15" class="edge"><title>Node15&#45;&gt;Node16</title>
<path fill="none" stroke="midnightblue" d="M1099,-56.083C1099,-49.0059 1099,-38.8611 1099,-29.9865"/>
<polygon fill="midnightblue" stroke="midnightblue" points="1102.5,-29.751 1099,-19.7511 1095.5,-29.7511 1102.5,-29.751"/>
</g>
<!-- Node24&#45;&gt;Node16 -->
<g id="edge31" class="edge"><title>Node24&#45;&gt;Node16</title>
<path fill="none" stroke="midnightblue" d="M853.775,-170.556C850.535,-169.608 847.19,-168.713 844,-168 729.486,-142.419 512.736,-203.653 586,-112 645.651,-37.3779 954.028,-17.1866 1061.78,-12.366"/>
<polygon fill="midnightblue" stroke="midnightblue" points="1062.02,-15.859 1071.86,-11.9341 1061.72,-8.86544 1062.02,-15.859"/>
</g>
<!-- Node24&#45;&gt;Node19 -->
<g id="edge28" class="edge"><title>Node24&#45;&gt;Node19</title>
<path fill="none" stroke="midnightblue" d="M892.12,-172.709C925.141,-165.258 995.212,-149.269 1064.07,-132.182"/>
<polygon fill="midnightblue" stroke="midnightblue" points="1064.91,-135.578 1073.77,-129.764 1063.22,-128.786 1064.91,-135.578"/>
</g>
<!-- Node24&#45;&gt;Node20 -->
<g id="edge29" class="edge"><title>Node24&#45;&gt;Node20</title>
<path fill="none" stroke="midnightblue" d="M887.621,-168.324C901.949,-159.822 924.013,-146.729 940.749,-136.797"/>
<polygon fill="midnightblue" stroke="midnightblue" points="942.602,-139.768 949.416,-131.655 939.03,-133.748 942.602,-139.768"/>
</g>
<!-- Node24&#45;&gt;Node23 -->
<g id="edge32" class="edge"><title>Node24&#45;&gt;Node23</title>
<path fill="none" stroke="midnightblue" d="M892.22,-170.593C920.019,-161.327 971.722,-144.093 1004.69,-133.103"/>
<polygon fill="midnightblue" stroke="midnightblue" points="1005.89,-136.391 1014.27,-129.909 1003.68,-129.751 1005.89,-136.391"/>
</g>
<!-- Node25 -->
<g id="node25" class="node"><title>Node25</title>
<polygon fill="none" stroke="#bfbfbf" points="595,-112.5 595,-131.5 635,-131.5 635,-112.5 595,-112.5"/>
<text text-anchor="middle" x="615" y="-119.5" font-family="Helvetica,sans-Serif" font-size="10.00">QFile</text>
</g>
<!-- Node24&#45;&gt;Node25 -->
<g id="edge26" class="edge"><title>Node24&#45;&gt;Node25</title>
<path fill="none" stroke="midnightblue" d="M853.749,-170.664C850.513,-169.703 847.175,-168.775 844,-168 759.345,-147.328 733.542,-152.979 645.114,-132.014"/>
<polygon fill="midnightblue" stroke="midnightblue" points="645.736,-128.564 635.193,-129.614 644.089,-135.367 645.736,-128.564"/>
</g>
<!-- Node26 -->
<g id="node26" class="node"><title>Node26</title>
<polygon fill="none" stroke="#bfbfbf" points="653,-112.5 653,-131.5 721,-131.5 721,-112.5 653,-112.5"/>
<text text-anchor="middle" x="687" y="-119.5" font-family="Helvetica,sans-Serif" font-size="10.00">QFileDialog</text>
</g>
<!-- Node24&#45;&gt;Node26 -->
<g id="edge27" class="edge"><title>Node24&#45;&gt;Node26</title>
<path fill="none" stroke="midnightblue" d="M853.987,-171.034C850.662,-170.01 847.233,-168.965 844,-168 804.405,-156.183 759.014,-143.238 727.256,-134.278"/>
<polygon fill="midnightblue" stroke="midnightblue" points="728.023,-130.858 717.448,-131.515 726.125,-137.595 728.023,-130.858"/>
</g>
<!-- Node27 -->
<g id="node27" class="node"><title>Node27</title>
<polygon fill="none" stroke="#bfbfbf" points="739.5,-112.5 739.5,-131.5 814.5,-131.5 814.5,-112.5 739.5,-112.5"/>
<text text-anchor="middle" x="777" y="-119.5" font-family="Helvetica,sans-Serif" font-size="10.00">QTextStream</text>
</g>
<!-- Node24&#45;&gt;Node27 -->
<g id="edge30" class="edge"><title>Node24&#45;&gt;Node27</title>
<path fill="none" stroke="midnightblue" d="M857.576,-168.324C842.46,-159.822 819.185,-146.729 801.529,-136.797"/>
<polygon fill="midnightblue" stroke="midnightblue" points="802.817,-133.507 792.386,-131.655 799.386,-139.608 802.817,-133.507"/>
</g>
<!-- Node28 -->
<g id="node28" class="node"><title>Node28</title>
<g id="a_node28"><a xlink:href="myexception_8h.html" target="_top" xlink:title="myexception.h">
<polygon fill="none" stroke="black" points="833,-112.5 833,-131.5 913,-131.5 913,-112.5 833,-112.5"/>
<text text-anchor="middle" x="873" y="-119.5" font-family="Helvetica,sans-Serif" font-size="10.00">myexception.h</text>
</a>
</g>
</g>
<!-- Node24&#45;&gt;Node28 -->
<g id="edge33" class="edge"><title>Node24&#45;&gt;Node28</title>
<path fill="none" stroke="midnightblue" d="M873,-168.083C873,-161.006 873,-150.861 873,-141.986"/>
<polygon fill="midnightblue" stroke="midnightblue" points="876.5,-141.751 873,-131.751 869.5,-141.751 876.5,-141.751"/>
</g>
<!-- Node29 -->
<g id="node29" class="node"><title>Node29</title>
<polygon fill="none" stroke="#bfbfbf" points="843.5,-56.5 843.5,-75.5 902.5,-75.5 902.5,-56.5 843.5,-56.5"/>
<text text-anchor="middle" x="873" y="-63.5" font-family="Helvetica,sans-Serif" font-size="10.00">exception</text>
</g>
<!-- Node28&#45;&gt;Node29 -->
<g id="edge34" class="edge"><title>Node28&#45;&gt;Node29</title>
<path fill="none" stroke="midnightblue" d="M873,-112.083C873,-105.006 873,-94.8611 873,-85.9865"/>
<polygon fill="midnightblue" stroke="midnightblue" points="876.5,-85.751 873,-75.7511 869.5,-85.7511 876.5,-85.751"/>
</g>
</g>
</svg>
        <g id="navigator" transform="translate(0 0)" fill="#404254">
                <rect fill="#f2f5e9" fill-opacity="0.5" stroke="#606060" stroke-width=".5" x="0" y="0" width="60" height="60"/>
                <use id="zoomplus" xlink:href="#zoomPlus" x="17" y="9" onmousedown="handleZoom(evt,'in')"/>
                <use id="zoomminus" xlink:href="#zoomMin" x="42" y="9" onmousedown="handleZoom(evt,'out')"/>
                <use id="reset" xlink:href="#resetDef" x="30" y="36" onmousedown="handleReset()"/>
                <g id="arrowUp" xlink:href="#dirArrow" transform="translate(30 24)" onmousedown="handlePan(0,-1)">
                  <use xlink:href="#rim" fill="#404040">
                        <set attributeName="fill" to="#808080" begin="arrowUp.mouseover" end="arrowUp.mouseout"/>
                  </use>
                  <path fill="none" stroke="white" stroke-width="1.5" d="M0,-3.0v7 M-2.5,-0.5L0,-3.0L2.5,-0.5"/>
                </g>
                <g id="arrowRight" xlink:href="#dirArrow" transform="rotate(90) translate(36 -43)" onmousedown="handlePan(1,0)">
                  <use xlink:href="#rim" fill="#404040">
                        <set attributeName="fill" to="#808080" begin="arrowRight.mouseover" end="arrowRight.mouseout"/>
                  </use>
                  <path fill="none" stroke="white" stroke-width="1.5" d="M0,-3.0v7 M-2.5,-0.5L0,-3.0L2.5,-0.5"/>
                </g>
                <g id="arrowDown" xlink:href="#dirArrow" transform="rotate(180) translate(-30 -48)" onmousedown="handlePan(0,1)">
                  <use xlink:href="#rim" fill="#404040">
                        <set attributeName="fill" to="#808080" begin="arrowDown.mouseover" end="arrowDown.mouseout"/>
                  </use>
                  <path fill="none" stroke="white" stroke-width="1.5" d="M0,-3.0v7 M-2.5,-0.5L0,-3.0L2.5,-0.5"/>
                </g>
                <g id="arrowLeft" xlink:href="#dirArrow" transform="rotate(270) translate(-36 17)" onmousedown="handlePan(-1,0)">
                  <use xlink:href="#rim" fill="#404040">
                        <set attributeName="fill" to="#808080" begin="arrowLeft.mouseover" end="arrowLeft.mouseout"/>
                  </use>
                  <path fill="none" stroke="white" stroke-width="1.5" d="M0,-3.0v7 M-2.5,-0.5L0,-3.0L2.5,-0.5"/>
                </g>
        </g>
        <svg viewBox="0 0 15 15" width="100%" height="30px" preserveAspectRatio="xMaxYMin meet">
         <g id="arrow_out" transform="scale(0.3 0.3)">
          <a xlink:href="filtering_8h__incl_org.svg" target="_base">
           <rect id="button" ry="5" rx="5" y="6" x="6" height="38" width="38"
                fill="#f2f5e9" fill-opacity="0.5" stroke="#606060" stroke-width="1.0"/>
           <path id="arrow"
             d="M 11.500037,31.436501 C 11.940474,20.09759 22.043105,11.32322 32.158766,21.979434 L 37.068811,17.246167 C 37.068811,17.246167 37.088388,32 37.088388,32 L 22.160133,31.978069 C 22.160133,31.978069 26.997745,27.140456 26.997745,27.140456 C 18.528582,18.264221 13.291696,25.230495 11.500037,31.436501 z"
             style="fill:#404040;"/>
          </a>
         </g>
        </svg>
</svg>
