<?xml version="1.0" encoding="UTF-8" standalone="no"?>
<!DOCTYPE svg PUBLIC "-//W3C//DTD SVG 1.1//EN"
 "http://www.w3.org/Graphics/SVG/1.1/DTD/svg11.dtd">
<!-- Generated by graphviz version 2.38.0 (20140413.2041)
 -->
<!-- Title: grid.h Pages: 1 -->
<svg width="373pt" height="252pt"
 viewBox="0.00 0.00 372.50 252.00" xmlns="http://www.w3.org/2000/svg" xmlns:xlink="http://www.w3.org/1999/xlink">
<g id="graph0" class="graph" transform="scale(1 1) rotate(0) translate(4 248)">
<title>grid.h</title>
<!-- Node1 -->
<g id="node1" class="node"><title>Node1</title>
<polygon fill="#bfbfbf" stroke="black" points="108,-224.5 108,-243.5 149,-243.5 149,-224.5 108,-224.5"/>
<text text-anchor="middle" x="128.5" y="-231.5" font-family="Helvetica,sans-Serif" font-size="10.00">grid.h</text>
</g>
<!-- Node2 -->
<g id="node2" class="node"><title>Node2</title>
<g id="a_node2"><a xlink:href="grid_8cpp.html" target="_top" xlink:title="grid.cpp">
<polygon fill="none" stroke="black" points="0,-168.5 0,-187.5 51,-187.5 51,-168.5 0,-168.5"/>
<text text-anchor="middle" x="25.5" y="-175.5" font-family="Helvetica,sans-Serif" font-size="10.00">grid.cpp</text>
</a>
</g>
</g>
<!-- Node1&#45;&gt;Node2 -->
<g id="edge1" class="edge"><title>Node1&#45;&gt;Node2</title>
<path fill="none" stroke="midnightblue" d="M102.921,-219.59C83.8766,-209.605 58.4356,-196.267 42.0077,-187.655"/>
<polygon fill="midnightblue" stroke="midnightblue" points="101.469,-222.78 111.951,-224.324 104.72,-216.581 101.469,-222.78"/>
</g>
<!-- Node3 -->
<g id="node3" class="node"><title>Node3</title>
<g id="a_node3"><a xlink:href="solver_8h.html" target="_top" xlink:title="solver.h">
<polygon fill="none" stroke="black" points="155,-168.5 155,-187.5 206,-187.5 206,-168.5 155,-168.5"/>
<text text-anchor="middle" x="180.5" y="-175.5" font-family="Helvetica,sans-Serif" font-size="10.00">solver.h</text>
</a>
</g>
</g>
<!-- Node1&#45;&gt;Node3 -->
<g id="edge2" class="edge"><title>Node1&#45;&gt;Node3</title>
<path fill="none" stroke="midnightblue" d="M144.179,-216.718C153.345,-207.2 164.553,-195.561 172.073,-187.751"/>
<polygon fill="midnightblue" stroke="midnightblue" points="141.502,-214.452 137.087,-224.083 146.544,-219.308 141.502,-214.452"/>
</g>
<!-- Node6 -->
<g id="node6" class="node"><title>Node6</title>
<g id="a_node6"><a xlink:href="main_8cpp.html" target="_top" xlink:title="main.cpp">
<polygon fill="none" stroke="black" points="143.5,-0.5 143.5,-19.5 199.5,-19.5 199.5,-0.5 143.5,-0.5"/>
<text text-anchor="middle" x="171.5" y="-7.5" font-family="Helvetica,sans-Serif" font-size="10.00">main.cpp</text>
</a>
</g>
</g>
<!-- Node1&#45;&gt;Node6 -->
<g id="edge13" class="edge"><title>Node1&#45;&gt;Node6</title>
<path fill="none" stroke="midnightblue" d="M124.128,-214.389C117.256,-181.172 106.812,-110.089 128.5,-56 134.613,-40.755 148.626,-27.7492 159.003,-19.698"/>
<polygon fill="midnightblue" stroke="midnightblue" points="120.78,-215.458 126.351,-224.47 127.615,-213.951 120.78,-215.458"/>
</g>
<!-- Node7 -->
<g id="node7" class="node"><title>Node7</title>
<g id="a_node7"><a xlink:href="_main_window_8h.html" target="_top" xlink:title="MainWindow.h">
<polygon fill="none" stroke="black" points="278,-56.5 278,-75.5 359,-75.5 359,-56.5 278,-56.5"/>
<text text-anchor="middle" x="318.5" y="-63.5" font-family="Helvetica,sans-Serif" font-size="10.00">MainWindow.h</text>
</a>
</g>
</g>
<!-- Node1&#45;&gt;Node7 -->
<g id="edge12" class="edge"><title>Node1&#45;&gt;Node7</title>
<path fill="none" stroke="midnightblue" d="M159.139,-228.71C207.524,-220.104 300.254,-195.754 340.5,-132 352.074,-113.665 336.072,-88.547 325.853,-75.5577"/>
<polygon fill="midnightblue" stroke="midnightblue" points="158.532,-225.263 149.243,-230.36 159.683,-232.168 158.532,-225.263"/>
</g>
<!-- Node4 -->
<g id="node4" class="node"><title>Node4</title>
<g id="a_node4"><a xlink:href="controller_8h.html" target="_top" xlink:title="controller.h">
<polygon fill="none" stroke="black" points="148,-112.5 148,-131.5 213,-131.5 213,-112.5 148,-112.5"/>
<text text-anchor="middle" x="180.5" y="-119.5" font-family="Helvetica,sans-Serif" font-size="10.00">controller.h</text>
</a>
</g>
</g>
<!-- Node3&#45;&gt;Node4 -->
<g id="edge3" class="edge"><title>Node3&#45;&gt;Node4</title>
<path fill="none" stroke="midnightblue" d="M180.5,-157.805C180.5,-148.91 180.5,-138.78 180.5,-131.751"/>
<polygon fill="midnightblue" stroke="midnightblue" points="177,-158.083 180.5,-168.083 184,-158.083 177,-158.083"/>
</g>
<!-- Node3&#45;&gt;Node6 -->
<g id="edge10" class="edge"><title>Node3&#45;&gt;Node6</title>
<path fill="none" stroke="midnightblue" d="M160.547,-161.491C152.081,-153.664 143.116,-143.411 138.5,-132 125.832,-100.684 126.761,-88.0282 137.5,-56 142.356,-41.5174 153.919,-27.9752 162.212,-19.6053"/>
<polygon fill="midnightblue" stroke="midnightblue" points="158.491,-164.338 168.353,-168.21 163.057,-159.033 158.491,-164.338"/>
</g>
<!-- Node3&#45;&gt;Node7 -->
<g id="edge9" class="edge"><title>Node3&#45;&gt;Node7</title>
<path fill="none" stroke="midnightblue" d="M199.144,-161.654C215.297,-148.407 239.333,-128.807 260.5,-112 276.669,-99.1613 295.601,-84.5513 307.323,-75.553"/>
<polygon fill="midnightblue" stroke="midnightblue" points="196.556,-159.251 191.05,-168.302 200.999,-164.66 196.556,-159.251"/>
</g>
<!-- Node9 -->
<g id="node9" class="node"><title>Node9</title>
<g id="a_node9"><a xlink:href="solver_8cpp.html" target="_top" xlink:title="solver.cpp">
<polygon fill="none" stroke="black" points="269.5,-112.5 269.5,-131.5 331.5,-131.5 331.5,-112.5 269.5,-112.5"/>
<text text-anchor="middle" x="300.5" y="-119.5" font-family="Helvetica,sans-Serif" font-size="10.00">solver.cpp</text>
</a>
</g>
</g>
<!-- Node3&#45;&gt;Node9 -->
<g id="edge11" class="edge"><title>Node3&#45;&gt;Node9</title>
<path fill="none" stroke="midnightblue" d="M208.873,-164.232C231.32,-154.131 262.035,-140.309 281.575,-131.516"/>
<polygon fill="midnightblue" stroke="midnightblue" points="207.197,-161.148 199.514,-168.444 210.07,-167.532 207.197,-161.148"/>
</g>
<!-- Node5 -->
<g id="node5" class="node"><title>Node5</title>
<g id="a_node5"><a xlink:href="controller_8cpp.html" target="_top" xlink:title="controller.cpp">
<polygon fill="none" stroke="black" points="146,-56.5 146,-75.5 221,-75.5 221,-56.5 146,-56.5"/>
<text text-anchor="middle" x="183.5" y="-63.5" font-family="Helvetica,sans-Serif" font-size="10.00">controller.cpp</text>
</a>
</g>
</g>
<!-- Node4&#45;&gt;Node5 -->
<g id="edge4" class="edge"><title>Node4&#45;&gt;Node5</title>
<path fill="none" stroke="midnightblue" d="M181.566,-101.805C182.061,-92.9102 182.623,-82.7798 183.014,-75.7511"/>
<polygon fill="midnightblue" stroke="midnightblue" points="178.056,-101.904 180.995,-112.083 185.045,-102.293 178.056,-101.904"/>
</g>
<!-- Node4&#45;&gt;Node6 -->
<g id="edge5" class="edge"><title>Node4&#45;&gt;Node6</title>
<path fill="none" stroke="midnightblue" d="M203.584,-106.557C220.43,-94.0492 238.817,-75.021 229.5,-56 221.315,-39.2896 203.601,-27.003 189.889,-19.5294"/>
<polygon fill="midnightblue" stroke="midnightblue" points="201.288,-103.89 195.07,-112.468 205.28,-109.64 201.288,-103.89"/>
</g>
<!-- Node4&#45;&gt;Node7 -->
<g id="edge6" class="edge"><title>Node4&#45;&gt;Node7</title>
<path fill="none" stroke="midnightblue" d="M211.749,-108.772C237.671,-98.6287 273.862,-84.4669 296.736,-75.5164"/>
<polygon fill="midnightblue" stroke="midnightblue" points="210.404,-105.54 202.367,-112.444 212.954,-112.059 210.404,-105.54"/>
</g>
<!-- Node7&#45;&gt;Node6 -->
<g id="edge7" class="edge"><title>Node7&#45;&gt;Node6</title>
<path fill="none" stroke="midnightblue" d="M285.577,-52.9058C257.94,-42.7536 219.156,-28.5063 194.684,-19.5164"/>
<polygon fill="midnightblue" stroke="midnightblue" points="284.614,-56.2806 295.207,-56.4435 287.028,-49.71 284.614,-56.2806"/>
</g>
<!-- Node8 -->
<g id="node8" class="node"><title>Node8</title>
<g id="a_node8"><a xlink:href="_main_window_8cpp.html" target="_top" xlink:title="MainWindow.cpp">
<polygon fill="none" stroke="black" points="272.5,-0.5 272.5,-19.5 364.5,-19.5 364.5,-0.5 272.5,-0.5"/>
<text text-anchor="middle" x="318.5" y="-7.5" font-family="Helvetica,sans-Serif" font-size="10.00">MainWindow.cpp</text>
</a>
</g>
</g>
<!-- Node7&#45;&gt;Node8 -->
<g id="edge8" class="edge"><title>Node7&#45;&gt;Node8</title>
<path fill="none" stroke="midnightblue" d="M318.5,-45.8045C318.5,-36.9102 318.5,-26.7798 318.5,-19.7511"/>
<polygon fill="midnightblue" stroke="midnightblue" points="315,-46.083 318.5,-56.083 322,-46.083 315,-46.083"/>
</g>
</g>
</svg>
