<?xml version="1.0" encoding="UTF-8" standalone="no"?>
<!DOCTYPE svg PUBLIC "-//W3C//DTD SVG 1.1//EN"
 "http://www.w3.org/Graphics/SVG/1.1/DTD/svg11.dtd">
<!-- Generated by graphviz version 2.38.0 (20140413.2041)
 -->
<!-- Title: grid.h Pages: 1 -->
<!--zoomable 308 -->
<svg id="main" version="1.1" xmlns="http://www.w3.org/2000/svg" xmlns:xlink="http://www.w3.org/1999/xlink" xml:space="preserve" onload="init(evt)">
<style type="text/css"><![CDATA[
.edge:hover path { stroke: red; }
.edge:hover polygon { stroke: red; fill: red; }
]]></style>
<script type="text/javascript"><![CDATA[
var edges = document.getElementsByTagName('g');
if (edges && edges.length) {
  for (var i=0;i<edges.length;i++) {
    if (edges[i].id.substr(0,4)=='edge') {
      edges[i].setAttribute('class','edge');
    }
  }
}
]]></script>
        <defs>
                <circle id="rim" cx="0" cy="0" r="7"/>
                <circle id="rim2" cx="0" cy="0" r="3.5"/>
                <g id="zoomPlus">
                        <use xlink:href="#rim" fill="#404040">
                                <set attributeName="fill" to="#808080" begin="zoomplus.mouseover" end="zoomplus.mouseout"/>
                        </use>
                        <path d="M-4,0h8M0,-4v8" fill="none" stroke="white" stroke-width="1.5" pointer-events="none"/>
                </g>
                <g id="zoomMin">
                        <use xlink:href="#rim" fill="#404040">
                                <set attributeName="fill" to="#808080" begin="zoomminus.mouseover" end="zoomminus.mouseout"/>
                        </use>
                        <path d="M-4,0h8" fill="none" stroke="white" stroke-width="1.5" pointer-events="none"/>
                </g>
                <g id="dirArrow">
                        <path fill="none" stroke="white" stroke-width="1.5" d="M0,-3.0v7 M-2.5,-0.5L0,-3.0L2.5,-0.5"/>
                </g>
               <g id="resetDef">
                       <use xlink:href="#rim2" fill="#404040">
                               <set attributeName="fill" to="#808080" begin="reset.mouseover" end="reset.mouseout"/>
                       </use>
               </g>
        </defs>

<script type="text/javascript">
var viewWidth = 802;
var viewHeight = 308;
var sectionId = 'dynsection-0';
</script>
<script xlink:href="svgpan.js"/>
<svg id="graph" class="graph">
<g id="viewport">
<title>grid.h</title>
<!-- Node1 -->
<g id="node1" class="node"><title>Node1</title>
<polygon fill="#bfbfbf" stroke="black" points="430.9,-280.5 430.9,-299.5 471.9,-299.5 471.9,-280.5 430.9,-280.5"/>
<text text-anchor="middle" x="451.4" y="-287.5" font-family="Helvetica,sans-Serif" font-size="10.00">grid.h</text>
</g>
<!-- Node2 -->
<g id="node2" class="node"><title>Node2</title>
<g id="a_node2"><a xlink:href="road_8h.html" target="_top" xlink:title="road.h">
<polygon fill="none" stroke="black" points="455.4,-224.5 455.4,-243.5 499.4,-243.5 499.4,-224.5 455.4,-224.5"/>
<text text-anchor="middle" x="477.4" y="-231.5" font-family="Helvetica,sans-Serif" font-size="10.00">road.h</text>
</a>
</g>
</g>
<!-- Node1&#45;&gt;Node2 -->
<g id="edge1" class="edge"><title>Node1&#45;&gt;Node2</title>
<path fill="none" stroke="midnightblue" d="M455.694,-280.083C459.253,-272.691 464.423,-261.953 468.824,-252.811"/>
<polygon fill="midnightblue" stroke="midnightblue" points="472.002,-254.279 473.187,-243.751 465.695,-251.243 472.002,-254.279"/>
</g>
<!-- Node6 -->
<g id="node6" class="node"><title>Node6</title>
<polygon fill="none" stroke="#bfbfbf" points="388.4,-0.5 388.4,-19.5 432.4,-19.5 432.4,-0.5 388.4,-0.5"/>
<text text-anchor="middle" x="410.4" y="-7.5" font-family="Helvetica,sans-Serif" font-size="10.00">vector</text>
</g>
<!-- Node1&#45;&gt;Node6 -->
<g id="edge29" class="edge"><title>Node1&#45;&gt;Node6</title>
<path fill="none" stroke="midnightblue" d="M430.733,-287.002C356.03,-279.218 104.4,-247.885 104.4,-179 104.4,-179 104.4,-179 104.4,-121 104.4,-63.3085 299.451,-27.621 378.101,-15.5758"/>
<polygon fill="midnightblue" stroke="midnightblue" points="379.023,-18.9768 388.393,-14.0333 377.985,-12.0541 379.023,-18.9768"/>
</g>
<!-- Node7 -->
<g id="node7" class="node"><title>Node7</title>
<g id="a_node7"><a xlink:href="track_8h.html" target="_top" xlink:title="The class Track. ">
<polygon fill="none" stroke="black" points="398.9,-168.5 398.9,-187.5 445.9,-187.5 445.9,-168.5 398.9,-168.5"/>
<text text-anchor="middle" x="422.4" y="-175.5" font-family="Helvetica,sans-Serif" font-size="10.00">track.h</text>
</a>
</g>
</g>
<!-- Node1&#45;&gt;Node7 -->
<g id="edge25" class="edge"><title>Node1&#45;&gt;Node7</title>
<path fill="none" stroke="midnightblue" d="M449.125,-280.368C444.423,-262.537 433.551,-221.295 427.217,-197.272"/>
<polygon fill="midnightblue" stroke="midnightblue" points="430.599,-196.369 424.665,-187.591 423.83,-198.153 430.599,-196.369"/>
</g>
<!-- Node8 -->
<g id="node8" class="node"><title>Node8</title>
<polygon fill="none" stroke="#bfbfbf" points="22.9002,-112.5 22.9002,-131.5 75.9002,-131.5 75.9002,-112.5 22.9002,-112.5"/>
<text text-anchor="middle" x="49.4002" y="-119.5" font-family="Helvetica,sans-Serif" font-size="10.00">QObject</text>
</g>
<!-- Node1&#45;&gt;Node8 -->
<g id="edge26" class="edge"><title>Node1&#45;&gt;Node8</title>
<path fill="none" stroke="midnightblue" d="M430.636,-289.209C361.882,-289.484 143.02,-286.906 90.4002,-244 59.4153,-218.735 51.7373,-169.062 49.9064,-141.877"/>
<polygon fill="midnightblue" stroke="midnightblue" points="53.3956,-141.564 49.4288,-131.74 46.4034,-141.894 53.3956,-141.564"/>
</g>
<!-- Node12 -->
<g id="node12" class="node"><title>Node12</title>
<polygon fill="none" stroke="#bfbfbf" points="744.4,-112.5 744.4,-131.5 794.4,-131.5 794.4,-112.5 744.4,-112.5"/>
<text text-anchor="middle" x="769.4" y="-119.5" font-family="Helvetica,sans-Serif" font-size="10.00">QString</text>
</g>
<!-- Node1&#45;&gt;Node12 -->
<g id="edge27" class="edge"><title>Node1&#45;&gt;Node12</title>
<path fill="none" stroke="midnightblue" d="M468.05,-280.309C520.211,-253.08 680.721,-169.292 743.68,-136.426"/>
<polygon fill="midnightblue" stroke="midnightblue" points="745.67,-139.335 752.916,-131.605 742.431,-133.13 745.67,-139.335"/>
</g>
<!-- Node18 -->
<g id="node18" class="node"><title>Node18</title>
<polygon fill="none" stroke="#bfbfbf" points="626.9,-224.5 626.9,-243.5 709.9,-243.5 709.9,-224.5 626.9,-224.5"/>
<text text-anchor="middle" x="668.4" y="-231.5" font-family="Helvetica,sans-Serif" font-size="10.00">unordered_map</text>
</g>
<!-- Node1&#45;&gt;Node18 -->
<g id="edge28" class="edge"><title>Node1&#45;&gt;Node18</title>
<path fill="none" stroke="midnightblue" d="M472.207,-283.822C507.094,-275.141 578.108,-257.469 624.446,-245.938"/>
<polygon fill="midnightblue" stroke="midnightblue" points="625.365,-249.316 634.223,-243.505 623.674,-242.523 625.365,-249.316"/>
</g>
<!-- Node3 -->
<g id="node3" class="node"><title>Node3</title>
<g id="a_node3"><a xlink:href="pointroad_8h.html" target="_top" xlink:title="pointroad.h">
<polygon fill="none" stroke="black" points="562.9,-112.5 562.9,-131.5 627.9,-131.5 627.9,-112.5 562.9,-112.5"/>
<text text-anchor="middle" x="595.4" y="-119.5" font-family="Helvetica,sans-Serif" font-size="10.00">pointroad.h</text>
</a>
</g>
</g>
<!-- Node2&#45;&gt;Node3 -->
<g id="edge2" class="edge"><title>Node2&#45;&gt;Node3</title>
<path fill="none" stroke="midnightblue" d="M486.74,-224.131C499.97,-211.583 524.95,-187.951 546.4,-168 556.997,-158.144 568.959,-147.156 578.411,-138.505"/>
<polygon fill="midnightblue" stroke="midnightblue" points="580.954,-140.922 585.974,-131.592 576.232,-135.755 580.954,-140.922"/>
</g>
<!-- Node2&#45;&gt;Node6 -->
<g id="edge24" class="edge"><title>Node2&#45;&gt;Node6</title>
<path fill="none" stroke="midnightblue" d="M455.255,-231.723C370.708,-226.343 70.169,-202.455 13.4002,-132 -23.9943,-85.59 22.2384,-83.5614 90.4002,-56 189.552,-15.9079 318.483,-10.5726 377.859,-10.4617"/>
<polygon fill="midnightblue" stroke="midnightblue" points="378.103,-13.9624 388.114,-10.4947 378.125,-6.96248 378.103,-13.9624"/>
</g>
<!-- Node2&#45;&gt;Node7 -->
<g id="edge8" class="edge"><title>Node2&#45;&gt;Node7</title>
<path fill="none" stroke="midnightblue" d="M468.318,-224.083C460.229,-216.141 448.205,-204.335 438.49,-194.797"/>
<polygon fill="midnightblue" stroke="midnightblue" points="440.901,-192.26 431.313,-187.751 435.997,-197.254 440.901,-192.26"/>
</g>
<!-- Node16 -->
<g id="node16" class="node"><title>Node16</title>
<polygon fill="none" stroke="#bfbfbf" points="684.9,-112.5 684.9,-131.5 725.9,-131.5 725.9,-112.5 684.9,-112.5"/>
<text text-anchor="middle" x="705.4" y="-119.5" font-family="Helvetica,sans-Serif" font-size="10.00">string</text>
</g>
<!-- Node2&#45;&gt;Node16 -->
<g id="edge23" class="edge"><title>Node2&#45;&gt;Node16</title>
<path fill="none" stroke="midnightblue" d="M489.807,-224.387C509.306,-211.102 548.601,-185.336 584.4,-168 614.363,-153.49 650.29,-140.669 675.174,-132.461"/>
<polygon fill="midnightblue" stroke="midnightblue" points="676.357,-135.757 684.786,-129.339 674.194,-129.1 676.357,-135.757"/>
</g>
<!-- Node17 -->
<g id="node17" class="node"><title>Node17</title>
<polygon fill="none" stroke="#bfbfbf" points="464.4,-168.5 464.4,-187.5 494.4,-187.5 494.4,-168.5 464.4,-168.5"/>
<text text-anchor="middle" x="479.4" y="-175.5" font-family="Helvetica,sans-Serif" font-size="10.00">set</text>
</g>
<!-- Node2&#45;&gt;Node17 -->
<g id="edge22" class="edge"><title>Node2&#45;&gt;Node17</title>
<path fill="none" stroke="midnightblue" d="M477.73,-224.083C477.993,-217.006 478.368,-206.861 478.697,-197.986"/>
<polygon fill="midnightblue" stroke="midnightblue" points="482.203,-197.874 479.076,-187.751 475.208,-197.615 482.203,-197.874"/>
</g>
<!-- Node4 -->
<g id="node4" class="node"><title>Node4</title>
<g id="a_node4"><a xlink:href="point_8h.html" target="_top" xlink:title="Class Point. ">
<polygon fill="none" stroke="black" points="558.4,-56.5 558.4,-75.5 604.4,-75.5 604.4,-56.5 558.4,-56.5"/>
<text text-anchor="middle" x="581.4" y="-63.5" font-family="Helvetica,sans-Serif" font-size="10.00">point.h</text>
</a>
</g>
</g>
<!-- Node3&#45;&gt;Node4 -->
<g id="edge3" class="edge"><title>Node3&#45;&gt;Node4</title>
<path fill="none" stroke="midnightblue" d="M593.088,-112.083C591.233,-104.927 588.565,-94.6353 586.246,-85.6911"/>
<polygon fill="midnightblue" stroke="midnightblue" points="589.567,-84.5527 583.669,-75.7511 582.791,-86.3094 589.567,-84.5527"/>
</g>
<!-- Node5 -->
<g id="node5" class="node"><title>Node5</title>
<polygon fill="none" stroke="#bfbfbf" points="605.4,-0.5 605.4,-19.5 659.4,-19.5 659.4,-0.5 605.4,-0.5"/>
<text text-anchor="middle" x="632.4" y="-7.5" font-family="Helvetica,sans-Serif" font-size="10.00">iostream</text>
</g>
<!-- Node3&#45;&gt;Node5 -->
<g id="edge6" class="edge"><title>Node3&#45;&gt;Node5</title>
<path fill="none" stroke="midnightblue" d="M599.099,-112.466C602.925,-103.483 608.952,-88.8848 613.4,-76 618.736,-60.5457 623.881,-42.7011 627.469,-29.6234"/>
<polygon fill="midnightblue" stroke="midnightblue" points="630.862,-30.4827 630.086,-19.9164 624.103,-28.6606 630.862,-30.4827"/>
</g>
<!-- Node3&#45;&gt;Node6 -->
<g id="edge7" class="edge"><title>Node3&#45;&gt;Node6</title>
<path fill="none" stroke="midnightblue" d="M582.999,-112.424C564.319,-99.6256 527.706,-74.9995 495.4,-56 476.15,-44.6785 453.813,-32.9037 436.869,-24.2395"/>
<polygon fill="midnightblue" stroke="midnightblue" points="438.081,-20.9298 427.58,-19.5246 434.913,-27.1718 438.081,-20.9298"/>
</g>
<!-- Node4&#45;&gt;Node5 -->
<g id="edge4" class="edge"><title>Node4&#45;&gt;Node5</title>
<path fill="none" stroke="midnightblue" d="M589.822,-56.083C597.248,-48.2195 608.252,-36.5688 617.212,-27.0813"/>
<polygon fill="midnightblue" stroke="midnightblue" points="619.814,-29.4244 624.135,-19.7511 614.724,-24.618 619.814,-29.4244"/>
</g>
<!-- Node4&#45;&gt;Node6 -->
<g id="edge5" class="edge"><title>Node4&#45;&gt;Node6</title>
<path fill="none" stroke="midnightblue" d="M558.338,-57.7173C528.431,-48.2729 476.113,-31.7513 442.382,-21.0994"/>
<polygon fill="midnightblue" stroke="midnightblue" points="443.145,-17.6703 432.556,-17.9964 441.037,-24.3453 443.145,-17.6703"/>
</g>
<!-- Node7&#45;&gt;Node5 -->
<g id="edge18" class="edge"><title>Node7&#45;&gt;Node5</title>
<path fill="none" stroke="midnightblue" d="M446.143,-170.312C449.248,-169.5 452.394,-168.708 455.4,-168 535.236,-149.198 584.367,-195.402 636.4,-132 660.318,-102.856 648.754,-55.1478 639.689,-29.1989"/>
<polygon fill="midnightblue" stroke="midnightblue" points="642.852,-27.6653 636.068,-19.5277 636.297,-30.1201 642.852,-27.6653"/>
</g>
<!-- Node7&#45;&gt;Node6 -->
<g id="edge21" class="edge"><title>Node7&#45;&gt;Node6</title>
<path fill="none" stroke="midnightblue" d="M426.865,-168.183C432.921,-154.855 441.754,-129.3 430.4,-112 408.338,-78.3835 369.462,-109.617 347.4,-76 334.214,-55.9071 359.264,-36.6242 381.574,-24.3541"/>
<polygon fill="midnightblue" stroke="midnightblue" points="383.273,-27.4155 390.532,-19.698 380.044,-21.2044 383.273,-27.4155"/>
</g>
<!-- Node7&#45;&gt;Node8 -->
<g id="edge9" class="edge"><title>Node7&#45;&gt;Node8</title>
<path fill="none" stroke="midnightblue" d="M398.784,-173.581C335.617,-164.436 162.411,-139.361 86.2059,-128.328"/>
<polygon fill="midnightblue" stroke="midnightblue" points="86.5167,-124.837 76.1184,-126.868 85.5137,-131.765 86.5167,-124.837"/>
</g>
<!-- Node9 -->
<g id="node9" class="node"><title>Node9</title>
<g id="a_node9"><a xlink:href="point_g_p_s_8h.html" target="_top" xlink:title="pointGPS.h">
<polygon fill="none" stroke="black" points="477.9,-112.5 477.9,-131.5 544.9,-131.5 544.9,-112.5 477.9,-112.5"/>
<text text-anchor="middle" x="511.4" y="-119.5" font-family="Helvetica,sans-Serif" font-size="10.00">pointGPS.h</text>
</a>
</g>
</g>
<!-- Node7&#45;&gt;Node9 -->
<g id="edge10" class="edge"><title>Node7&#45;&gt;Node9</title>
<path fill="none" stroke="midnightblue" d="M436.7,-168.324C450.583,-159.9 471.893,-146.971 488.204,-137.074"/>
<polygon fill="midnightblue" stroke="midnightblue" points="490.402,-139.834 497.136,-131.655 486.771,-133.85 490.402,-139.834"/>
</g>
<!-- Node11 -->
<g id="node11" class="node"><title>Node11</title>
<polygon fill="none" stroke="#bfbfbf" points="132.9,-112.5 132.9,-131.5 199.9,-131.5 199.9,-112.5 132.9,-112.5"/>
<text text-anchor="middle" x="166.4" y="-119.5" font-family="Helvetica,sans-Serif" font-size="10.00">QDateTime</text>
</g>
<!-- Node7&#45;&gt;Node11 -->
<g id="edge14" class="edge"><title>Node7&#45;&gt;Node11</title>
<path fill="none" stroke="midnightblue" d="M398.643,-172.035C360.843,-164.129 284.417,-148.118 210.291,-132.396"/>
<polygon fill="midnightblue" stroke="midnightblue" points="210.833,-128.933 200.324,-130.281 209.379,-135.781 210.833,-128.933"/>
</g>
<!-- Node7&#45;&gt;Node12 -->
<g id="edge15" class="edge"><title>Node7&#45;&gt;Node12</title>
<path fill="none" stroke="midnightblue" d="M446.1,-170.115C449.212,-169.335 452.372,-168.605 455.4,-168 575.317,-144.058 610.493,-155.485 734.369,-131.965"/>
<polygon fill="midnightblue" stroke="midnightblue" points="735.082,-135.392 744.234,-130.054 733.751,-128.52 735.082,-135.392"/>
</g>
<!-- Node13 -->
<g id="node13" class="node"><title>Node13</title>
<polygon fill="none" stroke="#bfbfbf" points="217.9,-112.5 217.9,-131.5 282.9,-131.5 282.9,-112.5 217.9,-112.5"/>
<text text-anchor="middle" x="250.4" y="-119.5" font-family="Helvetica,sans-Serif" font-size="10.00">QStringList</text>
</g>
<!-- Node7&#45;&gt;Node13 -->
<g id="edge16" class="edge"><title>Node7&#45;&gt;Node13</title>
<path fill="none" stroke="midnightblue" d="M398.845,-169.605C370.162,-160.6 321.374,-145.282 287.598,-134.678"/>
<polygon fill="midnightblue" stroke="midnightblue" points="288.226,-131.207 277.636,-131.551 286.129,-137.886 288.226,-131.207"/>
</g>
<!-- Node14 -->
<g id="node14" class="node"><title>Node14</title>
<polygon fill="none" stroke="#bfbfbf" points="301.4,-112.5 301.4,-131.5 351.4,-131.5 351.4,-112.5 301.4,-112.5"/>
<text text-anchor="middle" x="326.4" y="-119.5" font-family="Helvetica,sans-Serif" font-size="10.00">fstream</text>
</g>
<!-- Node7&#45;&gt;Node14 -->
<g id="edge17" class="edge"><title>Node7&#45;&gt;Node14</title>
<path fill="none" stroke="midnightblue" d="M406.976,-168.324C391.861,-159.822 368.585,-146.729 350.929,-136.797"/>
<polygon fill="midnightblue" stroke="midnightblue" points="352.218,-133.507 341.786,-131.655 348.786,-139.608 352.218,-133.507"/>
</g>
<!-- Node15 -->
<g id="node15" class="node"><title>Node15</title>
<polygon fill="none" stroke="#bfbfbf" points="369.4,-112.5 369.4,-131.5 421.4,-131.5 421.4,-112.5 369.4,-112.5"/>
<text text-anchor="middle" x="395.4" y="-119.5" font-family="Helvetica,sans-Serif" font-size="10.00">sstream</text>
</g>
<!-- Node7&#45;&gt;Node15 -->
<g id="edge19" class="edge"><title>Node7&#45;&gt;Node15</title>
<path fill="none" stroke="midnightblue" d="M417.942,-168.083C414.246,-160.691 408.877,-149.953 404.306,-140.811"/>
<polygon fill="midnightblue" stroke="midnightblue" points="407.378,-139.13 399.776,-131.751 401.117,-142.261 407.378,-139.13"/>
</g>
<!-- Node7&#45;&gt;Node16 -->
<g id="edge20" class="edge"><title>Node7&#45;&gt;Node16</title>
<path fill="none" stroke="midnightblue" d="M446.123,-170.224C449.232,-169.426 452.384,-168.662 455.4,-168 550.033,-147.228 575.619,-152.083 670.4,-132 671.858,-131.691 673.346,-131.362 674.847,-131.019"/>
<polygon fill="midnightblue" stroke="midnightblue" points="675.845,-134.379 684.741,-128.625 674.199,-127.575 675.845,-134.379"/>
</g>
<!-- Node9&#45;&gt;Node4 -->
<g id="edge12" class="edge"><title>Node9&#45;&gt;Node4</title>
<path fill="none" stroke="midnightblue" d="M522.647,-112.324C533.198,-104.185 549.201,-91.8395 561.842,-82.0874"/>
<polygon fill="midnightblue" stroke="midnightblue" points="564.169,-84.7132 569.949,-75.8339 559.893,-79.1707 564.169,-84.7132"/>
</g>
<!-- Node9&#45;&gt;Node6 -->
<g id="edge13" class="edge"><title>Node9&#45;&gt;Node6</title>
<path fill="none" stroke="midnightblue" d="M507.731,-112.251C501.879,-99.0118 489.438,-73.5719 473.4,-56 462.244,-43.7772 447.248,-32.9029 434.684,-24.907"/>
<polygon fill="midnightblue" stroke="midnightblue" points="436.411,-21.8599 426.056,-19.6154 432.751,-27.8271 436.411,-21.8599"/>
</g>
<!-- Node10 -->
<g id="node10" class="node"><title>Node10</title>
<g id="a_node10"><a xlink:href="emissionprobability_8h.html" target="_top" xlink:title="emissionprobability.h">
<polygon fill="none" stroke="black" points="356.4,-56.5 356.4,-75.5 464.4,-75.5 464.4,-56.5 356.4,-56.5"/>
<text text-anchor="middle" x="410.4" y="-63.5" font-family="Helvetica,sans-Serif" font-size="10.00">emissionprobability.h</text>
</a>
</g>
</g>
<!-- Node9&#45;&gt;Node10 -->
<g id="edge11" class="edge"><title>Node9&#45;&gt;Node10</title>
<path fill="none" stroke="midnightblue" d="M495.173,-112.324C479.049,-103.703 454.1,-90.3643 435.436,-80.3855"/>
<polygon fill="midnightblue" stroke="midnightblue" points="437.056,-77.283 426.587,-75.6545 433.756,-83.456 437.056,-77.283"/>
</g>
</g>
</svg>
        <g id="navigator" transform="translate(0 0)" fill="#404254">
                <rect fill="#f2f5e9" fill-opacity="0.5" stroke="#606060" stroke-width=".5" x="0" y="0" width="60" height="60"/>
                <use id="zoomplus" xlink:href="#zoomPlus" x="17" y="9" onmousedown="handleZoom(evt,'in')"/>
                <use id="zoomminus" xlink:href="#zoomMin" x="42" y="9" onmousedown="handleZoom(evt,'out')"/>
                <use id="reset" xlink:href="#resetDef" x="30" y="36" onmousedown="handleReset()"/>
                <g id="arrowUp" xlink:href="#dirArrow" transform="translate(30 24)" onmousedown="handlePan(0,-1)">
                  <use xlink:href="#rim" fill="#404040">
                        <set attributeName="fill" to="#808080" begin="arrowUp.mouseover" end="arrowUp.mouseout"/>
                  </use>
                  <path fill="none" stroke="white" stroke-width="1.5" d="M0,-3.0v7 M-2.5,-0.5L0,-3.0L2.5,-0.5"/>
                </g>
                <g id="arrowRight" xlink:href="#dirArrow" transform="rotate(90) translate(36 -43)" onmousedown="handlePan(1,0)">
                  <use xlink:href="#rim" fill="#404040">
                        <set attributeName="fill" to="#808080" begin="arrowRight.mouseover" end="arrowRight.mouseout"/>
                  </use>
                  <path fill="none" stroke="white" stroke-width="1.5" d="M0,-3.0v7 M-2.5,-0.5L0,-3.0L2.5,-0.5"/>
                </g>
                <g id="arrowDown" xlink:href="#dirArrow" transform="rotate(180) translate(-30 -48)" onmousedown="handlePan(0,1)">
                  <use xlink:href="#rim" fill="#404040">
                        <set attributeName="fill" to="#808080" begin="arrowDown.mouseover" end="arrowDown.mouseout"/>
                  </use>
                  <path fill="none" stroke="white" stroke-width="1.5" d="M0,-3.0v7 M-2.5,-0.5L0,-3.0L2.5,-0.5"/>
                </g>
                <g id="arrowLeft" xlink:href="#dirArrow" transform="rotate(270) translate(-36 17)" onmousedown="handlePan(-1,0)">
                  <use xlink:href="#rim" fill="#404040">
                        <set attributeName="fill" to="#808080" begin="arrowLeft.mouseover" end="arrowLeft.mouseout"/>
                  </use>
                  <path fill="none" stroke="white" stroke-width="1.5" d="M0,-3.0v7 M-2.5,-0.5L0,-3.0L2.5,-0.5"/>
                </g>
        </g>
        <svg viewBox="0 0 15 15" width="100%" height="30px" preserveAspectRatio="xMaxYMin meet">
         <g id="arrow_out" transform="scale(0.3 0.3)">
          <a xlink:href="grid_8h__incl_org.svg" target="_base">
           <rect id="button" ry="5" rx="5" y="6" x="6" height="38" width="38"
                fill="#f2f5e9" fill-opacity="0.5" stroke="#606060" stroke-width="1.0"/>
           <path id="arrow"
             d="M 11.500037,31.436501 C 11.940474,20.09759 22.043105,11.32322 32.158766,21.979434 L 37.068811,17.246167 C 37.068811,17.246167 37.088388,32 37.088388,32 L 22.160133,31.978069 C 22.160133,31.978069 26.997745,27.140456 26.997745,27.140456 C 18.528582,18.264221 13.291696,25.230495 11.500037,31.436501 z"
             style="fill:#404040;"/>
          </a>
         </g>
        </svg>
</svg>
