<?xml version="1.0" encoding="UTF-8" standalone="no"?>
<!DOCTYPE svg PUBLIC "-//W3C//DTD SVG 1.1//EN"
 "http://www.w3.org/Graphics/SVG/1.1/DTD/svg11.dtd">
<!-- Generated by graphviz version 2.38.0 (20140413.2041)
 -->
<!-- Title: grid.h Pages: 1 -->
<svg width="692pt" height="308pt"
 viewBox="0.00 0.00 691.72 308.00" xmlns="http://www.w3.org/2000/svg" xmlns:xlink="http://www.w3.org/1999/xlink">
<g id="graph0" class="graph" transform="scale(1 1) rotate(0) translate(4 304)">
<title>grid.h</title>
<!-- Node1 -->
<g id="node1" class="node"><title>Node1</title>
<polygon fill="#bfbfbf" stroke="black" points="301.217,-280.5 301.217,-299.5 342.217,-299.5 342.217,-280.5 301.217,-280.5"/>
<text text-anchor="middle" x="321.717" y="-287.5" font-family="Helvetica,sans-Serif" font-size="10.00">grid.h</text>
</g>
<!-- Node2 -->
<g id="node2" class="node"><title>Node2</title>
<g id="a_node2"><a xlink:href="road_8h.html" target="_top" xlink:title="road.h">
<polygon fill="none" stroke="black" points="125.717,-224.5 125.717,-243.5 169.717,-243.5 169.717,-224.5 125.717,-224.5"/>
<text text-anchor="middle" x="147.717" y="-231.5" font-family="Helvetica,sans-Serif" font-size="10.00">road.h</text>
</a>
</g>
</g>
<!-- Node1&#45;&gt;Node2 -->
<g id="edge1" class="edge"><title>Node1&#45;&gt;Node2</title>
<path fill="none" stroke="midnightblue" d="M301.074,-282.593C271.086,-273.287 215.203,-255.944 179.814,-244.961"/>
<polygon fill="midnightblue" stroke="midnightblue" points="180.566,-241.53 169.978,-241.909 178.491,-248.215 180.566,-241.53"/>
</g>
<!-- Node6 -->
<g id="node6" class="node"><title>Node6</title>
<polygon fill="none" stroke="#bfbfbf" points="69.7171,-56.5 69.7171,-75.5 113.717,-75.5 113.717,-56.5 69.7171,-56.5"/>
<text text-anchor="middle" x="91.7171" y="-63.5" font-family="Helvetica,sans-Serif" font-size="10.00">vector</text>
</g>
<!-- Node1&#45;&gt;Node6 -->
<g id="edge26" class="edge"><title>Node1&#45;&gt;Node6</title>
<path fill="none" stroke="midnightblue" d="M301.068,-288.242C248.221,-285.127 107.222,-269.222 35.7171,-188 11.8276,-160.864 -11.931,-142.973 6.71713,-112 18.2318,-92.8752 40.9025,-81.4528 59.9364,-74.9038"/>
<polygon fill="midnightblue" stroke="midnightblue" points="60.9871,-78.2424 69.48,-71.9083 58.8907,-71.5637 60.9871,-78.2424"/>
</g>
<!-- Node7 -->
<g id="node7" class="node"><title>Node7</title>
<g id="a_node7"><a xlink:href="track_8h.html" target="_top" xlink:title="The class Track. ">
<polygon fill="none" stroke="black" points="298.217,-168.5 298.217,-187.5 345.217,-187.5 345.217,-168.5 298.217,-168.5"/>
<text text-anchor="middle" x="321.717" y="-175.5" font-family="Helvetica,sans-Serif" font-size="10.00">track.h</text>
</a>
</g>
</g>
<!-- Node1&#45;&gt;Node7 -->
<g id="edge23" class="edge"><title>Node1&#45;&gt;Node7</title>
<path fill="none" stroke="midnightblue" d="M321.717,-280.368C321.717,-262.617 321.717,-221.666 321.717,-197.597"/>
<polygon fill="midnightblue" stroke="midnightblue" points="325.217,-197.591 321.717,-187.591 318.217,-197.591 325.217,-197.591"/>
</g>
<!-- Node11 -->
<g id="node11" class="node"><title>Node11</title>
<polygon fill="none" stroke="#bfbfbf" points="633.717,-112.5 633.717,-131.5 683.717,-131.5 683.717,-112.5 633.717,-112.5"/>
<text text-anchor="middle" x="658.717" y="-119.5" font-family="Helvetica,sans-Serif" font-size="10.00">QString</text>
</g>
<!-- Node1&#45;&gt;Node11 -->
<g id="edge24" class="edge"><title>Node1&#45;&gt;Node11</title>
<path fill="none" stroke="midnightblue" d="M329.194,-280.294C341.312,-266.651 366.536,-240.127 392.717,-224 432.856,-199.274 561.015,-155.272 623.624,-134.483"/>
<polygon fill="midnightblue" stroke="midnightblue" points="625.05,-137.698 633.444,-131.235 622.851,-131.053 625.05,-137.698"/>
</g>
<!-- Node17 -->
<g id="node17" class="node"><title>Node17</title>
<polygon fill="none" stroke="#bfbfbf" points="402.217,-224.5 402.217,-243.5 485.217,-243.5 485.217,-224.5 402.217,-224.5"/>
<text text-anchor="middle" x="443.717" y="-231.5" font-family="Helvetica,sans-Serif" font-size="10.00">unordered_map</text>
</g>
<!-- Node1&#45;&gt;Node17 -->
<g id="edge25" class="edge"><title>Node1&#45;&gt;Node17</title>
<path fill="none" stroke="midnightblue" d="M341.048,-280.444C361.037,-271.596 392.46,-257.687 415.281,-247.586"/>
<polygon fill="midnightblue" stroke="midnightblue" points="416.749,-250.764 424.476,-243.516 413.915,-244.363 416.749,-250.764"/>
</g>
<!-- Node3 -->
<g id="node3" class="node"><title>Node3</title>
<g id="a_node3"><a xlink:href="pointroad_8h.html" target="_top" xlink:title="pointroad.h">
<polygon fill="none" stroke="black" points="22.2171,-112.5 22.2171,-131.5 87.2171,-131.5 87.2171,-112.5 22.2171,-112.5"/>
<text text-anchor="middle" x="54.7171" y="-119.5" font-family="Helvetica,sans-Serif" font-size="10.00">pointroad.h</text>
</a>
</g>
</g>
<!-- Node2&#45;&gt;Node3 -->
<g id="edge2" class="edge"><title>Node2&#45;&gt;Node3</title>
<path fill="none" stroke="midnightblue" d="M140.42,-224.368C124.936,-206.055 88.5767,-163.049 68.5508,-139.362"/>
<polygon fill="midnightblue" stroke="midnightblue" points="71.1099,-136.968 61.9808,-131.591 65.7643,-141.488 71.1099,-136.968"/>
</g>
<!-- Node2&#45;&gt;Node6 -->
<g id="edge22" class="edge"><title>Node2&#45;&gt;Node6</title>
<path fill="none" stroke="midnightblue" d="M126.116,-224.387C94.4209,-210.417 36.5042,-179.504 12.7171,-132 0.25176,-107.106 32.67,-88.328 59.6805,-77.5092"/>
<polygon fill="midnightblue" stroke="midnightblue" points="61.1703,-80.6882 69.2939,-73.8869 58.7021,-74.1378 61.1703,-80.6882"/>
</g>
<!-- Node2&#45;&gt;Node7 -->
<g id="edge7" class="edge"><title>Node2&#45;&gt;Node7</title>
<path fill="none" stroke="midnightblue" d="M169.754,-226.161C199.718,-216.862 253.566,-200.15 288.457,-189.322"/>
<polygon fill="midnightblue" stroke="midnightblue" points="289.681,-192.607 298.194,-186.3 287.606,-185.922 289.681,-192.607"/>
</g>
<!-- Node15 -->
<g id="node15" class="node"><title>Node15</title>
<polygon fill="none" stroke="#bfbfbf" points="105.217,-112.5 105.217,-131.5 146.217,-131.5 146.217,-112.5 105.217,-112.5"/>
<text text-anchor="middle" x="125.717" y="-119.5" font-family="Helvetica,sans-Serif" font-size="10.00">string</text>
</g>
<!-- Node2&#45;&gt;Node15 -->
<g id="edge21" class="edge"><title>Node2&#45;&gt;Node15</title>
<path fill="none" stroke="midnightblue" d="M145.991,-224.368C142.441,-206.617 134.25,-165.666 129.437,-141.597"/>
<polygon fill="midnightblue" stroke="midnightblue" points="132.829,-140.711 127.435,-131.591 125.965,-142.084 132.829,-140.711"/>
</g>
<!-- Node16 -->
<g id="node16" class="node"><title>Node16</title>
<polygon fill="none" stroke="#bfbfbf" points="153.717,-168.5 153.717,-187.5 183.717,-187.5 183.717,-168.5 153.717,-168.5"/>
<text text-anchor="middle" x="168.717" y="-175.5" font-family="Helvetica,sans-Serif" font-size="10.00">set</text>
</g>
<!-- Node2&#45;&gt;Node16 -->
<g id="edge20" class="edge"><title>Node2&#45;&gt;Node16</title>
<path fill="none" stroke="midnightblue" d="M151.185,-224.083C154.029,-216.77 158.147,-206.181 161.677,-197.103"/>
<polygon fill="midnightblue" stroke="midnightblue" points="164.951,-198.34 165.314,-187.751 158.427,-195.803 164.951,-198.34"/>
</g>
<!-- Node4 -->
<g id="node4" class="node"><title>Node4</title>
<g id="a_node4"><a xlink:href="point_8h.html" target="_top" xlink:title="Class Point. ">
<polygon fill="none" stroke="black" points="131.717,-56.5 131.717,-75.5 177.717,-75.5 177.717,-56.5 131.717,-56.5"/>
<text text-anchor="middle" x="154.717" y="-63.5" font-family="Helvetica,sans-Serif" font-size="10.00">point.h</text>
</a>
</g>
</g>
<!-- Node3&#45;&gt;Node4 -->
<g id="edge3" class="edge"><title>Node3&#45;&gt;Node4</title>
<path fill="none" stroke="midnightblue" d="M70.7839,-112.324C86.6749,-103.743 111.225,-90.486 129.676,-80.5224"/>
<polygon fill="midnightblue" stroke="midnightblue" points="131.554,-83.4857 138.69,-75.6545 128.228,-77.3264 131.554,-83.4857"/>
</g>
<!-- Node5 -->
<g id="node5" class="node"><title>Node5</title>
<polygon fill="none" stroke="#bfbfbf" points="127.717,-0.5 127.717,-19.5 181.717,-19.5 181.717,-0.5 127.717,-0.5"/>
<text text-anchor="middle" x="154.717" y="-7.5" font-family="Helvetica,sans-Serif" font-size="10.00">iostream</text>
</g>
<!-- Node3&#45;&gt;Node5 -->
<g id="edge5" class="edge"><title>Node3&#45;&gt;Node5</title>
<path fill="none" stroke="midnightblue" d="M52.9772,-112.089C50.8714,-98.6391 48.9322,-72.9271 60.7171,-56 74.0434,-36.859 97.783,-25.5846 118.07,-19.1079"/>
<polygon fill="midnightblue" stroke="midnightblue" points="119.072,-22.4616 127.691,-16.3003 117.111,-15.7418 119.072,-22.4616"/>
</g>
<!-- Node3&#45;&gt;Node6 -->
<g id="edge6" class="edge"><title>Node3&#45;&gt;Node6</title>
<path fill="none" stroke="midnightblue" d="M60.8269,-112.083C65.9993,-104.534 73.5633,-93.4948 79.9116,-84.2298"/>
<polygon fill="midnightblue" stroke="midnightblue" points="82.9559,-85.9787 85.721,-75.7511 77.1814,-82.0221 82.9559,-85.9787"/>
</g>
<!-- Node4&#45;&gt;Node5 -->
<g id="edge4" class="edge"><title>Node4&#45;&gt;Node5</title>
<path fill="none" stroke="midnightblue" d="M154.717,-56.083C154.717,-49.0059 154.717,-38.8611 154.717,-29.9865"/>
<polygon fill="midnightblue" stroke="midnightblue" points="158.217,-29.751 154.717,-19.7511 151.217,-29.7511 158.217,-29.751"/>
</g>
<!-- Node7&#45;&gt;Node5 -->
<g id="edge16" class="edge"><title>Node7&#45;&gt;Node5</title>
<path fill="none" stroke="midnightblue" d="M333.959,-168.385C349.201,-156.505 372.254,-134.052 363.717,-112 351.564,-80.6067 341.332,-73.7324 312.717,-56 275.418,-32.886 225.886,-21.3011 192.295,-15.7361"/>
<polygon fill="midnightblue" stroke="midnightblue" points="192.404,-12.2111 181.985,-14.1338 191.329,-19.1281 192.404,-12.2111"/>
</g>
<!-- Node7&#45;&gt;Node6 -->
<g id="edge19" class="edge"><title>Node7&#45;&gt;Node6</title>
<path fill="none" stroke="midnightblue" d="M297.943,-170.429C271.739,-162.78 228.668,-149.001 193.717,-132 163.587,-117.344 131.39,-95.7063 111.409,-81.4835"/>
<polygon fill="midnightblue" stroke="midnightblue" points="113.297,-78.5305 103.139,-75.5222 109.204,-84.209 113.297,-78.5305"/>
</g>
<!-- Node8 -->
<g id="node8" class="node"><title>Node8</title>
<g id="a_node8"><a xlink:href="point_g_p_s_8h.html" target="_top" xlink:title="pointGPS.h">
<polygon fill="none" stroke="black" points="203.217,-112.5 203.217,-131.5 270.217,-131.5 270.217,-112.5 203.217,-112.5"/>
<text text-anchor="middle" x="236.717" y="-119.5" font-family="Helvetica,sans-Serif" font-size="10.00">pointGPS.h</text>
</a>
</g>
</g>
<!-- Node7&#45;&gt;Node8 -->
<g id="edge8" class="edge"><title>Node7&#45;&gt;Node8</title>
<path fill="none" stroke="midnightblue" d="M308.06,-168.324C294.801,-159.9 274.449,-146.971 258.871,-137.074"/>
<polygon fill="midnightblue" stroke="midnightblue" points="260.658,-134.063 250.34,-131.655 256.904,-139.971 260.658,-134.063"/>
</g>
<!-- Node10 -->
<g id="node10" class="node"><title>Node10</title>
<polygon fill="none" stroke="#bfbfbf" points="288.217,-112.5 288.217,-131.5 355.217,-131.5 355.217,-112.5 288.217,-112.5"/>
<text text-anchor="middle" x="321.717" y="-119.5" font-family="Helvetica,sans-Serif" font-size="10.00">QDateTime</text>
</g>
<!-- Node7&#45;&gt;Node10 -->
<g id="edge12" class="edge"><title>Node7&#45;&gt;Node10</title>
<path fill="none" stroke="midnightblue" d="M321.717,-168.083C321.717,-161.006 321.717,-150.861 321.717,-141.986"/>
<polygon fill="midnightblue" stroke="midnightblue" points="325.217,-141.751 321.717,-131.751 318.217,-141.751 325.217,-141.751"/>
</g>
<!-- Node7&#45;&gt;Node11 -->
<g id="edge13" class="edge"><title>Node7&#45;&gt;Node11</title>
<path fill="none" stroke="midnightblue" d="M345.358,-171.024C350.096,-169.933 355.051,-168.867 359.717,-168 473.38,-146.872 506.363,-154.784 623.468,-132.027"/>
<polygon fill="midnightblue" stroke="midnightblue" points="624.416,-135.408 633.547,-130.034 623.058,-128.541 624.416,-135.408"/>
</g>
<!-- Node12 -->
<g id="node12" class="node"><title>Node12</title>
<polygon fill="none" stroke="#bfbfbf" points="412.217,-112.5 412.217,-131.5 477.217,-131.5 477.217,-112.5 412.217,-112.5"/>
<text text-anchor="middle" x="444.717" y="-119.5" font-family="Helvetica,sans-Serif" font-size="10.00">QStringList</text>
</g>
<!-- Node7&#45;&gt;Node12 -->
<g id="edge14" class="edge"><title>Node7&#45;&gt;Node12</title>
<path fill="none" stroke="midnightblue" d="M341.207,-168.444C361.359,-159.596 393.04,-145.687 416.048,-135.586"/>
<polygon fill="midnightblue" stroke="midnightblue" points="417.569,-138.741 425.319,-131.516 414.755,-132.332 417.569,-138.741"/>
</g>
<!-- Node13 -->
<g id="node13" class="node"><title>Node13</title>
<polygon fill="none" stroke="#bfbfbf" points="495.717,-112.5 495.717,-131.5 545.717,-131.5 545.717,-112.5 495.717,-112.5"/>
<text text-anchor="middle" x="520.717" y="-119.5" font-family="Helvetica,sans-Serif" font-size="10.00">fstream</text>
</g>
<!-- Node7&#45;&gt;Node13 -->
<g id="edge15" class="edge"><title>Node7&#45;&gt;Node13</title>
<path fill="none" stroke="midnightblue" d="M345.327,-170.593C380.159,-161.141 445.542,-143.399 485.89,-132.451"/>
<polygon fill="midnightblue" stroke="midnightblue" points="486.841,-135.819 495.575,-129.822 485.007,-129.064 486.841,-135.819"/>
</g>
<!-- Node14 -->
<g id="node14" class="node"><title>Node14</title>
<polygon fill="none" stroke="#bfbfbf" points="563.717,-112.5 563.717,-131.5 615.717,-131.5 615.717,-112.5 563.717,-112.5"/>
<text text-anchor="middle" x="589.717" y="-119.5" font-family="Helvetica,sans-Serif" font-size="10.00">sstream</text>
</g>
<!-- Node7&#45;&gt;Node14 -->
<g id="edge17" class="edge"><title>Node7&#45;&gt;Node14</title>
<path fill="none" stroke="midnightblue" d="M345.393,-171.2C350.128,-170.094 355.073,-168.978 359.717,-168 442.841,-150.495 466.932,-150.928 553.397,-132.17"/>
<polygon fill="midnightblue" stroke="midnightblue" points="554.373,-135.539 563.391,-129.978 552.873,-128.702 554.373,-135.539"/>
</g>
<!-- Node7&#45;&gt;Node15 -->
<g id="edge18" class="edge"><title>Node7&#45;&gt;Node15</title>
<path fill="none" stroke="midnightblue" d="M298.075,-170.486C262.559,-160.701 195.433,-142.207 156.255,-131.413"/>
<polygon fill="midnightblue" stroke="midnightblue" points="157.034,-127.998 146.464,-128.716 155.175,-134.746 157.034,-127.998"/>
</g>
<!-- Node8&#45;&gt;Node4 -->
<g id="edge10" class="edge"><title>Node8&#45;&gt;Node4</title>
<path fill="none" stroke="midnightblue" d="M223.542,-112.324C210.87,-103.979 191.484,-91.2122 176.512,-81.3524"/>
<polygon fill="midnightblue" stroke="midnightblue" points="178.136,-78.2313 167.859,-75.6545 174.286,-84.0776 178.136,-78.2313"/>
</g>
<!-- Node8&#45;&gt;Node6 -->
<g id="edge11" class="edge"><title>Node8&#45;&gt;Node6</title>
<path fill="none" stroke="midnightblue" d="M213.741,-112.444C189.418,-103.385 150.848,-89.0213 123.592,-78.8705"/>
<polygon fill="midnightblue" stroke="midnightblue" points="124.702,-75.5491 114.109,-75.339 122.259,-82.109 124.702,-75.5491"/>
</g>
<!-- Node9 -->
<g id="node9" class="node"><title>Node9</title>
<g id="a_node9"><a xlink:href="emissionprobability_8h.html" target="_top" xlink:title="emissionprobability.h">
<polygon fill="none" stroke="black" points="195.717,-56.5 195.717,-75.5 303.717,-75.5 303.717,-56.5 195.717,-56.5"/>
<text text-anchor="middle" x="249.717" y="-63.5" font-family="Helvetica,sans-Serif" font-size="10.00">emissionprobability.h</text>
</a>
</g>
</g>
<!-- Node8&#45;&gt;Node9 -->
<g id="edge9" class="edge"><title>Node8&#45;&gt;Node9</title>
<path fill="none" stroke="midnightblue" d="M238.864,-112.083C240.586,-104.927 243.064,-94.6353 245.217,-85.6911"/>
<polygon fill="midnightblue" stroke="midnightblue" points="248.673,-86.2925 247.61,-75.7511 241.867,-84.6541 248.673,-86.2925"/>
</g>
</g>
</svg>
