<?xml version="1.0" encoding="UTF-8" standalone="no"?>
<!DOCTYPE svg PUBLIC "-//W3C//DTD SVG 1.1//EN"
 "http://www.w3.org/Graphics/SVG/1.1/DTD/svg11.dtd">
<!-- Generated by graphviz version 2.38.0 (20140413.2041)
 -->
<!-- Title: grid.cpp Pages: 1 -->
<svg width="898pt" height="364pt"
 viewBox="0.00 0.00 897.50 364.00" xmlns="http://www.w3.org/2000/svg" xmlns:xlink="http://www.w3.org/1999/xlink">
<g id="graph0" class="graph" transform="scale(1 1) rotate(0) translate(4 360)">
<title>grid.cpp</title>
<!-- Node1 -->
<g id="node1" class="node"><title>Node1</title>
<polygon fill="#bfbfbf" stroke="black" points="669.5,-336.5 669.5,-355.5 720.5,-355.5 720.5,-336.5 669.5,-336.5"/>
<text text-anchor="middle" x="695" y="-343.5" font-family="Helvetica,sans-Serif" font-size="10.00">grid.cpp</text>
</g>
<!-- Node2 -->
<g id="node2" class="node"><title>Node2</title>
<g id="a_node2"><a xlink:href="grid_8h.html" target="_top" xlink:title="grid.h">
<polygon fill="none" stroke="black" points="381.5,-280.5 381.5,-299.5 422.5,-299.5 422.5,-280.5 381.5,-280.5"/>
<text text-anchor="middle" x="402" y="-287.5" font-family="Helvetica,sans-Serif" font-size="10.00">grid.h</text>
</a>
</g>
</g>
<!-- Node1&#45;&gt;Node2 -->
<g id="edge1" class="edge"><title>Node1&#45;&gt;Node2</title>
<path fill="none" stroke="midnightblue" d="M669.255,-340.255C615.356,-330.322 490.839,-307.373 432.808,-296.678"/>
<polygon fill="midnightblue" stroke="midnightblue" points="433.246,-293.2 422.777,-294.829 431.977,-300.084 433.246,-293.2"/>
</g>
<!-- Node6 -->
<g id="node6" class="node"><title>Node6</title>
<polygon fill="none" stroke="#bfbfbf" points="316,-0.5 316,-19.5 370,-19.5 370,-0.5 316,-0.5"/>
<text text-anchor="middle" x="343" y="-7.5" font-family="Helvetica,sans-Serif" font-size="10.00">iostream</text>
</g>
<!-- Node1&#45;&gt;Node6 -->
<g id="edge34" class="edge"><title>Node1&#45;&gt;Node6</title>
<path fill="none" stroke="midnightblue" d="M669.179,-344.253C572.712,-341.258 233.682,-328.869 130,-300 67.7698,-282.673 0,-299.598 0,-235 0,-235 0,-235 0,-121 0,-57.3764 216.696,-25.3993 305.612,-14.9563"/>
<polygon fill="midnightblue" stroke="midnightblue" points="306.262,-18.4048 315.799,-13.7889 305.465,-11.4503 306.262,-18.4048"/>
</g>
<!-- Node7 -->
<g id="node7" class="node"><title>Node7</title>
<polygon fill="none" stroke="#bfbfbf" points="169,-56.5 169,-75.5 213,-75.5 213,-56.5 169,-56.5"/>
<text text-anchor="middle" x="191" y="-63.5" font-family="Helvetica,sans-Serif" font-size="10.00">vector</text>
</g>
<!-- Node1&#45;&gt;Node7 -->
<g id="edge36" class="edge"><title>Node1&#45;&gt;Node7</title>
<path fill="none" stroke="midnightblue" d="M669.245,-343.464C547.775,-335.886 38,-300.198 38,-235 38,-235 38,-235 38,-177 38,-117.968 114.015,-87.5033 158.885,-74.663"/>
<polygon fill="midnightblue" stroke="midnightblue" points="160.022,-77.9808 168.752,-71.9781 158.184,-71.2264 160.022,-77.9808"/>
</g>
<!-- Node13 -->
<g id="node13" class="node"><title>Node13</title>
<polygon fill="none" stroke="#bfbfbf" points="673,-112.5 673,-131.5 723,-131.5 723,-112.5 673,-112.5"/>
<text text-anchor="middle" x="698" y="-119.5" font-family="Helvetica,sans-Serif" font-size="10.00">QString</text>
</g>
<!-- Node1&#45;&gt;Node13 -->
<g id="edge30" class="edge"><title>Node1&#45;&gt;Node13</title>
<path fill="none" stroke="midnightblue" d="M695.118,-336.297C695.559,-303.633 697.123,-187.866 697.744,-141.957"/>
<polygon fill="midnightblue" stroke="midnightblue" points="701.244,-141.93 697.88,-131.884 694.245,-141.836 701.244,-141.93"/>
</g>
<!-- Node14 -->
<g id="node14" class="node"><title>Node14</title>
<polygon fill="none" stroke="#bfbfbf" points="741.5,-112.5 741.5,-131.5 806.5,-131.5 806.5,-112.5 741.5,-112.5"/>
<text text-anchor="middle" x="774" y="-119.5" font-family="Helvetica,sans-Serif" font-size="10.00">QStringList</text>
</g>
<!-- Node1&#45;&gt;Node14 -->
<g id="edge31" class="edge"><title>Node1&#45;&gt;Node14</title>
<path fill="none" stroke="midnightblue" d="M695.755,-336.444C698.352,-310.07 708.446,-228.175 738,-168 743.107,-157.603 750.958,-147.405 758.026,-139.354"/>
<polygon fill="midnightblue" stroke="midnightblue" points="760.763,-141.549 764.962,-131.822 755.613,-136.808 760.763,-141.549"/>
</g>
<!-- Node15 -->
<g id="node15" class="node"><title>Node15</title>
<polygon fill="none" stroke="#bfbfbf" points="825,-112.5 825,-131.5 875,-131.5 875,-112.5 825,-112.5"/>
<text text-anchor="middle" x="850" y="-119.5" font-family="Helvetica,sans-Serif" font-size="10.00">fstream</text>
</g>
<!-- Node1&#45;&gt;Node15 -->
<g id="edge32" class="edge"><title>Node1&#45;&gt;Node15</title>
<path fill="none" stroke="midnightblue" d="M701.076,-336.297C724.173,-303.217 806.775,-184.909 837.963,-140.241"/>
<polygon fill="midnightblue" stroke="midnightblue" points="840.942,-142.087 843.797,-131.884 835.203,-138.079 840.942,-142.087"/>
</g>
<!-- Node20 -->
<g id="node20" class="node"><title>Node20</title>
<polygon fill="none" stroke="#bfbfbf" points="780,-280.5 780,-299.5 830,-299.5 830,-280.5 780,-280.5"/>
<text text-anchor="middle" x="805" y="-287.5" font-family="Helvetica,sans-Serif" font-size="10.00">iomanip</text>
</g>
<!-- Node1&#45;&gt;Node20 -->
<g id="edge33" class="edge"><title>Node1&#45;&gt;Node20</title>
<path fill="none" stroke="midnightblue" d="M712.673,-336.324C730.394,-327.625 757.903,-314.12 778.288,-304.113"/>
<polygon fill="midnightblue" stroke="midnightblue" points="779.936,-307.203 787.37,-299.655 776.851,-300.919 779.936,-307.203"/>
</g>
<!-- Node21 -->
<g id="node21" class="node"><title>Node21</title>
<polygon fill="none" stroke="#bfbfbf" points="848.5,-280.5 848.5,-299.5 889.5,-299.5 889.5,-280.5 848.5,-280.5"/>
<text text-anchor="middle" x="869" y="-287.5" font-family="Helvetica,sans-Serif" font-size="10.00">regex</text>
</g>
<!-- Node1&#45;&gt;Node21 -->
<g id="edge35" class="edge"><title>Node1&#45;&gt;Node21</title>
<path fill="none" stroke="midnightblue" d="M720.674,-337.032C752.115,-327.275 805.298,-310.769 838.709,-300.401"/>
<polygon fill="midnightblue" stroke="midnightblue" points="839.884,-303.701 848.397,-297.394 837.809,-297.015 839.884,-303.701"/>
</g>
<!-- Node3 -->
<g id="node3" class="node"><title>Node3</title>
<g id="a_node3"><a xlink:href="road_8h.html" target="_top" xlink:title="road.h">
<polygon fill="none" stroke="black" points="283,-224.5 283,-243.5 327,-243.5 327,-224.5 283,-224.5"/>
<text text-anchor="middle" x="305" y="-231.5" font-family="Helvetica,sans-Serif" font-size="10.00">road.h</text>
</a>
</g>
</g>
<!-- Node2&#45;&gt;Node3 -->
<g id="edge2" class="edge"><title>Node2&#45;&gt;Node3</title>
<path fill="none" stroke="midnightblue" d="M386.415,-280.324C371.001,-271.743 347.188,-258.486 329.29,-248.522"/>
<polygon fill="midnightblue" stroke="midnightblue" points="330.986,-245.461 320.546,-243.655 327.581,-251.577 330.986,-245.461"/>
</g>
<!-- Node2&#45;&gt;Node7 -->
<g id="edge29" class="edge"><title>Node2&#45;&gt;Node7</title>
<path fill="none" stroke="midnightblue" d="M381.361,-286.197C350.317,-281.309 290.502,-269.238 246,-244 182.541,-208.012 155.076,-198.909 126,-132 116.539,-110.228 140.018,-91.8117 161.352,-80.2024"/>
<polygon fill="midnightblue" stroke="midnightblue" points="162.946,-83.3181 170.261,-75.6537 159.763,-77.0837 162.946,-83.3181"/>
</g>
<!-- Node8 -->
<g id="node8" class="node"><title>Node8</title>
<g id="a_node8"><a xlink:href="track_8h.html" target="_top" xlink:title="The class Track. ">
<polygon fill="none" stroke="black" points="485.5,-168.5 485.5,-187.5 532.5,-187.5 532.5,-168.5 485.5,-168.5"/>
<text text-anchor="middle" x="509" y="-175.5" font-family="Helvetica,sans-Serif" font-size="10.00">track.h</text>
</a>
</g>
</g>
<!-- Node2&#45;&gt;Node8 -->
<g id="edge25" class="edge"><title>Node2&#45;&gt;Node8</title>
<path fill="none" stroke="midnightblue" d="M412.282,-280.372C422.623,-271.551 438.873,-257.298 452,-244 467.569,-228.228 484.141,-209.026 495.379,-195.598"/>
<polygon fill="midnightblue" stroke="midnightblue" points="498.239,-197.632 501.93,-187.701 492.852,-193.163 498.239,-197.632"/>
</g>
<!-- Node9 -->
<g id="node9" class="node"><title>Node9</title>
<polygon fill="none" stroke="#bfbfbf" points="142.5,-112.5 142.5,-131.5 195.5,-131.5 195.5,-112.5 142.5,-112.5"/>
<text text-anchor="middle" x="169" y="-119.5" font-family="Helvetica,sans-Serif" font-size="10.00">QObject</text>
</g>
<!-- Node2&#45;&gt;Node9 -->
<g id="edge26" class="edge"><title>Node2&#45;&gt;Node9</title>
<path fill="none" stroke="midnightblue" d="M381.448,-285.2C354.847,-279.551 307.895,-267.044 274,-244 232.189,-215.575 196.814,-166.509 179.817,-140.448"/>
<polygon fill="midnightblue" stroke="midnightblue" points="182.553,-138.229 174.227,-131.677 176.65,-141.991 182.553,-138.229"/>
</g>
<!-- Node2&#45;&gt;Node13 -->
<g id="edge27" class="edge"><title>Node2&#45;&gt;Node13</title>
<path fill="none" stroke="midnightblue" d="M417.497,-280.309C465.95,-253.136 614.842,-169.636 673.697,-136.63"/>
<polygon fill="midnightblue" stroke="midnightblue" points="675.646,-139.549 682.656,-131.605 672.222,-133.444 675.646,-139.549"/>
</g>
<!-- Node19 -->
<g id="node19" class="node"><title>Node19</title>
<polygon fill="none" stroke="#bfbfbf" points="360.5,-224.5 360.5,-243.5 443.5,-243.5 443.5,-224.5 360.5,-224.5"/>
<text text-anchor="middle" x="402" y="-231.5" font-family="Helvetica,sans-Serif" font-size="10.00">unordered_map</text>
</g>
<!-- Node2&#45;&gt;Node19 -->
<g id="edge28" class="edge"><title>Node2&#45;&gt;Node19</title>
<path fill="none" stroke="midnightblue" d="M402,-280.083C402,-273.006 402,-262.861 402,-253.986"/>
<polygon fill="midnightblue" stroke="midnightblue" points="405.5,-253.751 402,-243.751 398.5,-253.751 405.5,-253.751"/>
</g>
<!-- Node4 -->
<g id="node4" class="node"><title>Node4</title>
<g id="a_node4"><a xlink:href="pointroad_8h.html" target="_top" xlink:title="pointroad.h">
<polygon fill="none" stroke="black" points="311.5,-112.5 311.5,-131.5 376.5,-131.5 376.5,-112.5 311.5,-112.5"/>
<text text-anchor="middle" x="344" y="-119.5" font-family="Helvetica,sans-Serif" font-size="10.00">pointroad.h</text>
</a>
</g>
</g>
<!-- Node3&#45;&gt;Node4 -->
<g id="edge3" class="edge"><title>Node3&#45;&gt;Node4</title>
<path fill="none" stroke="midnightblue" d="M309.342,-224.18C313.657,-215.211 320.293,-200.844 325,-188 330.689,-172.477 335.862,-154.394 339.368,-141.248"/>
<polygon fill="midnightblue" stroke="midnightblue" points="342.765,-142.09 341.896,-131.531 335.991,-140.328 342.765,-142.09"/>
</g>
<!-- Node3&#45;&gt;Node7 -->
<g id="edge24" class="edge"><title>Node3&#45;&gt;Node7</title>
<path fill="none" stroke="midnightblue" d="M282.811,-227.624C244.184,-216.93 165.601,-188.95 133,-132 121.546,-111.991 144.299,-92.7635 164.582,-80.4816"/>
<polygon fill="midnightblue" stroke="midnightblue" points="166.354,-83.5005 173.306,-75.5054 162.885,-77.4202 166.354,-83.5005"/>
</g>
<!-- Node3&#45;&gt;Node8 -->
<g id="edge8" class="edge"><title>Node3&#45;&gt;Node8</title>
<path fill="none" stroke="midnightblue" d="M327.22,-227.118C362.995,-217.648 433.581,-198.964 475.491,-187.87"/>
<polygon fill="midnightblue" stroke="midnightblue" points="476.466,-191.232 485.238,-185.29 474.675,-184.466 476.466,-191.232"/>
</g>
<!-- Node17 -->
<g id="node17" class="node"><title>Node17</title>
<polygon fill="none" stroke="#bfbfbf" points="213.5,-112.5 213.5,-131.5 254.5,-131.5 254.5,-112.5 213.5,-112.5"/>
<text text-anchor="middle" x="234" y="-119.5" font-family="Helvetica,sans-Serif" font-size="10.00">string</text>
</g>
<!-- Node3&#45;&gt;Node17 -->
<g id="edge23" class="edge"><title>Node3&#45;&gt;Node17</title>
<path fill="none" stroke="midnightblue" d="M299.429,-224.368C287.764,-206.296 260.577,-164.176 245.171,-140.307"/>
<polygon fill="midnightblue" stroke="midnightblue" points="247.909,-138.095 239.545,-131.591 242.028,-141.891 247.909,-138.095"/>
</g>
<!-- Node18 -->
<g id="node18" class="node"><title>Node18</title>
<polygon fill="none" stroke="#bfbfbf" points="286,-168.5 286,-187.5 316,-187.5 316,-168.5 286,-168.5"/>
<text text-anchor="middle" x="301" y="-175.5" font-family="Helvetica,sans-Serif" font-size="10.00">set</text>
</g>
<!-- Node3&#45;&gt;Node18 -->
<g id="edge22" class="edge"><title>Node3&#45;&gt;Node18</title>
<path fill="none" stroke="midnightblue" d="M304.339,-224.083C303.815,-217.006 303.064,-206.861 302.406,-197.986"/>
<polygon fill="midnightblue" stroke="midnightblue" points="305.877,-197.465 301.648,-187.751 298.897,-197.982 305.877,-197.465"/>
</g>
<!-- Node5 -->
<g id="node5" class="node"><title>Node5</title>
<g id="a_node5"><a xlink:href="point_8h.html" target="_top" xlink:title="Class Point. ">
<polygon fill="none" stroke="black" points="346,-56.5 346,-75.5 392,-75.5 392,-56.5 346,-56.5"/>
<text text-anchor="middle" x="369" y="-63.5" font-family="Helvetica,sans-Serif" font-size="10.00">point.h</text>
</a>
</g>
</g>
<!-- Node4&#45;&gt;Node5 -->
<g id="edge4" class="edge"><title>Node4&#45;&gt;Node5</title>
<path fill="none" stroke="midnightblue" d="M348.128,-112.083C351.514,-104.77 356.416,-94.1814 360.619,-85.1034"/>
<polygon fill="midnightblue" stroke="midnightblue" points="363.923,-86.2962 364.949,-75.7511 357.571,-83.3553 363.923,-86.2962"/>
</g>
<!-- Node4&#45;&gt;Node6 -->
<g id="edge6" class="edge"><title>Node4&#45;&gt;Node6</title>
<path fill="none" stroke="midnightblue" d="M342.261,-112.419C340.528,-103.399 337.987,-88.7704 337,-76 335.797,-60.4445 337.623,-42.8214 339.569,-29.8532"/>
<polygon fill="midnightblue" stroke="midnightblue" points="343.048,-30.2628 341.235,-19.8243 336.143,-29.1151 343.048,-30.2628"/>
</g>
<!-- Node4&#45;&gt;Node7 -->
<g id="edge7" class="edge"><title>Node4&#45;&gt;Node7</title>
<path fill="none" stroke="midnightblue" d="M319.757,-112.444C293.526,-103.186 251.595,-88.3866 222.752,-78.2066"/>
<polygon fill="midnightblue" stroke="midnightblue" points="223.738,-74.8429 213.143,-74.8151 221.408,-81.4438 223.738,-74.8429"/>
</g>
<!-- Node5&#45;&gt;Node6 -->
<g id="edge5" class="edge"><title>Node5&#45;&gt;Node6</title>
<path fill="none" stroke="midnightblue" d="M364.707,-56.083C361.148,-48.6913 355.978,-37.9533 351.576,-28.8111"/>
<polygon fill="midnightblue" stroke="midnightblue" points="354.705,-27.2427 347.213,-19.7511 348.398,-30.2795 354.705,-27.2427"/>
</g>
<!-- Node8&#45;&gt;Node6 -->
<g id="edge18" class="edge"><title>Node8&#45;&gt;Node6</title>
<path fill="none" stroke="midnightblue" d="M532.755,-173.871C573.021,-167.469 648.243,-150.137 626,-112 576.207,-26.6273 445.121,-12.2997 380.334,-10.6197"/>
<polygon fill="midnightblue" stroke="midnightblue" points="380.214,-7.11726 370.155,-10.4467 380.094,-14.1163 380.214,-7.11726"/>
</g>
<!-- Node8&#45;&gt;Node7 -->
<g id="edge21" class="edge"><title>Node8&#45;&gt;Node7</title>
<path fill="none" stroke="midnightblue" d="M485.328,-174.322C446.125,-169.349 365.729,-156.858 302,-132 284.134,-125.031 240.279,-98.1562 213.348,-81.2219"/>
<polygon fill="midnightblue" stroke="midnightblue" points="214.923,-78.0766 204.599,-75.6955 211.184,-83.9949 214.923,-78.0766"/>
</g>
<!-- Node8&#45;&gt;Node9 -->
<g id="edge9" class="edge"><title>Node8&#45;&gt;Node9</title>
<path fill="none" stroke="midnightblue" d="M485.124,-174.345C435.037,-168.59 315.184,-153.857 205.58,-132.155"/>
<polygon fill="midnightblue" stroke="midnightblue" points="206.179,-128.705 195.686,-130.171 204.803,-135.568 206.179,-128.705"/>
</g>
<!-- Node10 -->
<g id="node10" class="node"><title>Node10</title>
<g id="a_node10"><a xlink:href="point_g_p_s_8h.html" target="_top" xlink:title="pointGPS.h">
<polygon fill="none" stroke="black" points="394.5,-112.5 394.5,-131.5 461.5,-131.5 461.5,-112.5 394.5,-112.5"/>
<text text-anchor="middle" x="428" y="-119.5" font-family="Helvetica,sans-Serif" font-size="10.00">pointGPS.h</text>
</a>
</g>
</g>
<!-- Node8&#45;&gt;Node10 -->
<g id="edge10" class="edge"><title>Node8&#45;&gt;Node10</title>
<path fill="none" stroke="midnightblue" d="M495.986,-168.324C483.468,-159.979 464.318,-147.212 449.529,-137.352"/>
<polygon fill="midnightblue" stroke="midnightblue" points="451.244,-134.289 440.982,-131.655 447.361,-140.114 451.244,-134.289"/>
</g>
<!-- Node12 -->
<g id="node12" class="node"><title>Node12</title>
<polygon fill="none" stroke="#bfbfbf" points="479.5,-112.5 479.5,-131.5 546.5,-131.5 546.5,-112.5 479.5,-112.5"/>
<text text-anchor="middle" x="513" y="-119.5" font-family="Helvetica,sans-Serif" font-size="10.00">QDateTime</text>
</g>
<!-- Node8&#45;&gt;Node12 -->
<g id="edge14" class="edge"><title>Node8&#45;&gt;Node12</title>
<path fill="none" stroke="midnightblue" d="M509.661,-168.083C510.185,-161.006 510.936,-150.861 511.594,-141.986"/>
<polygon fill="midnightblue" stroke="midnightblue" points="515.103,-141.982 512.352,-131.751 508.123,-141.465 515.103,-141.982"/>
</g>
<!-- Node8&#45;&gt;Node13 -->
<g id="edge15" class="edge"><title>Node8&#45;&gt;Node13</title>
<path fill="none" stroke="midnightblue" d="M532.555,-170.27C565.438,-160.875 625.329,-143.763 663.319,-132.909"/>
<polygon fill="midnightblue" stroke="midnightblue" points="664.29,-136.272 672.943,-130.159 662.367,-129.541 664.29,-136.272"/>
</g>
<!-- Node8&#45;&gt;Node14 -->
<g id="edge16" class="edge"><title>Node8&#45;&gt;Node14</title>
<path fill="none" stroke="midnightblue" d="M532.782,-172.298C571.9,-164.543 652.525,-148.473 731.348,-132.115"/>
<polygon fill="midnightblue" stroke="midnightblue" points="732.371,-135.478 741.449,-130.015 730.946,-128.624 732.371,-135.478"/>
</g>
<!-- Node8&#45;&gt;Node15 -->
<g id="edge17" class="edge"><title>Node8&#45;&gt;Node15</title>
<path fill="none" stroke="midnightblue" d="M532.653,-174.459C582.851,-168.869 703.879,-154.354 814.81,-132.045"/>
<polygon fill="midnightblue" stroke="midnightblue" points="815.725,-135.431 824.824,-130.004 814.327,-128.572 815.725,-135.431"/>
</g>
<!-- Node16 -->
<g id="node16" class="node"><title>Node16</title>
<polygon fill="none" stroke="#bfbfbf" points="565,-112.5 565,-131.5 617,-131.5 617,-112.5 565,-112.5"/>
<text text-anchor="middle" x="591" y="-119.5" font-family="Helvetica,sans-Serif" font-size="10.00">sstream</text>
</g>
<!-- Node8&#45;&gt;Node16 -->
<g id="edge19" class="edge"><title>Node8&#45;&gt;Node16</title>
<path fill="none" stroke="midnightblue" d="M522.175,-168.324C534.847,-159.979 554.233,-147.212 569.206,-137.352"/>
<polygon fill="midnightblue" stroke="midnightblue" points="571.431,-140.078 577.858,-131.655 567.581,-134.231 571.431,-140.078"/>
</g>
<!-- Node8&#45;&gt;Node17 -->
<g id="edge20" class="edge"><title>Node8&#45;&gt;Node17</title>
<path fill="none" stroke="midnightblue" d="M485.389,-173.108C442.242,-165.877 347.838,-149.507 269,-132 267.545,-131.677 266.059,-131.336 264.56,-130.984"/>
<polygon fill="midnightblue" stroke="midnightblue" points="265.219,-127.542 254.673,-128.558 263.551,-134.341 265.219,-127.542"/>
</g>
<!-- Node10&#45;&gt;Node5 -->
<g id="edge12" class="edge"><title>Node10&#45;&gt;Node5</title>
<path fill="none" stroke="midnightblue" d="M418.521,-112.324C409.799,-104.341 396.657,-92.3128 386.102,-82.6529"/>
<polygon fill="midnightblue" stroke="midnightblue" points="388.392,-80.0036 378.652,-75.8339 383.666,-85.1674 388.392,-80.0036"/>
</g>
<!-- Node10&#45;&gt;Node7 -->
<g id="edge13" class="edge"><title>Node10&#45;&gt;Node7</title>
<path fill="none" stroke="midnightblue" d="M394.295,-113.32C348.65,-102.92 267.753,-84.4881 223.003,-74.2919"/>
<polygon fill="midnightblue" stroke="midnightblue" points="223.765,-70.8759 213.238,-72.0668 222.21,-77.701 223.765,-70.8759"/>
</g>
<!-- Node11 -->
<g id="node11" class="node"><title>Node11</title>
<g id="a_node11"><a xlink:href="emissionprobability_8h.html" target="_top" xlink:title="emissionprobability.h">
<polygon fill="none" stroke="black" points="410,-56.5 410,-75.5 518,-75.5 518,-56.5 410,-56.5"/>
<text text-anchor="middle" x="464" y="-63.5" font-family="Helvetica,sans-Serif" font-size="10.00">emissionprobability.h</text>
</a>
</g>
</g>
<!-- Node10&#45;&gt;Node11 -->
<g id="edge11" class="edge"><title>Node10&#45;&gt;Node11</title>
<path fill="none" stroke="midnightblue" d="M433.945,-112.083C438.977,-104.534 446.337,-93.4948 452.513,-84.2298"/>
<polygon fill="midnightblue" stroke="midnightblue" points="455.531,-86.0131 458.166,-75.7511 449.707,-82.1301 455.531,-86.0131"/>
</g>
</g>
</svg>
