<?xml version="1.0" encoding="UTF-8" standalone="no"?>
<!DOCTYPE svg PUBLIC "-//W3C//DTD SVG 1.1//EN"
 "http://www.w3.org/Graphics/SVG/1.1/DTD/svg11.dtd">
<!-- Generated by graphviz version 2.38.0 (20140413.2041)
 -->
<!-- Title: Graphical Class Hierarchy Pages: 1 -->
<svg width="179pt" height="104pt"
 viewBox="0.00 0.00 179.00 104.00" xmlns="http://www.w3.org/2000/svg" xmlns:xlink="http://www.w3.org/1999/xlink">
<g id="graph0" class="graph" transform="scale(1 1) rotate(0) translate(4 100)">
<title>Graphical Class Hierarchy</title>
<!-- Node1 -->
<g id="node1" class="node"><title>Node1</title>
<polygon fill="none" stroke="#bfbfbf" points="0,-38.5 0,-57.5 53,-57.5 53,-38.5 0,-38.5"/>
<text text-anchor="middle" x="26.5" y="-45.5" font-family="Helvetica,sans-Serif" font-size="10.00">QObject</text>
</g>
<!-- Node2 -->
<g id="node2" class="node"><title>Node2</title>
<g id="a_node2"><a xlink:href="class_controller.html" target="_top" xlink:title="Controller">
<polygon fill="none" stroke="black" points="100.5,-76.5 100.5,-95.5 159.5,-95.5 159.5,-76.5 100.5,-76.5"/>
<text text-anchor="middle" x="130" y="-83.5" font-family="Helvetica,sans-Serif" font-size="10.00">Controller</text>
</a>
</g>
</g>
<!-- Node1&#45;&gt;Node2 -->
<g id="edge1" class="edge"><title>Node1&#45;&gt;Node2</title>
<path fill="none" stroke="midnightblue" d="M62.5389,-61.118C75.9634,-66.1439 91.0152,-71.7791 103.395,-76.4141"/>
<polygon fill="midnightblue" stroke="midnightblue" points="63.7051,-57.8174 53.1127,-57.589 61.2507,-64.3731 63.7051,-57.8174"/>
</g>
<!-- Node3 -->
<g id="node3" class="node"><title>Node3</title>
<g id="a_node3"><a xlink:href="class_graphic_emitter.html" target="_top" xlink:title="GraphicEmitter">
<polygon fill="none" stroke="black" points="89,-38.5 89,-57.5 171,-57.5 171,-38.5 89,-38.5"/>
<text text-anchor="middle" x="130" y="-45.5" font-family="Helvetica,sans-Serif" font-size="10.00">GraphicEmitter</text>
</a>
</g>
</g>
<!-- Node1&#45;&gt;Node3 -->
<g id="edge2" class="edge"><title>Node1&#45;&gt;Node3</title>
<path fill="none" stroke="midnightblue" d="M63.1998,-48C71.4698,-48 80.3261,-48 88.7752,-48"/>
<polygon fill="midnightblue" stroke="midnightblue" points="63.1128,-44.5001 53.1127,-48 63.1127,-51.5001 63.1128,-44.5001"/>
</g>
<!-- Node4 -->
<g id="node4" class="node"><title>Node4</title>
<g id="a_node4"><a xlink:href="class_solver.html" target="_top" xlink:title="Solver">
<polygon fill="none" stroke="black" points="108,-0.5 108,-19.5 152,-19.5 152,-0.5 108,-0.5"/>
<text text-anchor="middle" x="130" y="-7.5" font-family="Helvetica,sans-Serif" font-size="10.00">Solver</text>
</a>
</g>
</g>
<!-- Node1&#45;&gt;Node4 -->
<g id="edge3" class="edge"><title>Node1&#45;&gt;Node4</title>
<path fill="none" stroke="midnightblue" d="M62.6493,-34.8406C77.7026,-29.2049 94.7844,-22.8098 107.846,-17.9198"/>
<polygon fill="midnightblue" stroke="midnightblue" points="61.2507,-31.6269 53.1127,-38.411 63.7051,-38.1826 61.2507,-31.6269"/>
</g>
</g>
</svg>
