<?xml version="1.0" encoding="UTF-8" standalone="no"?>
<!DOCTYPE svg PUBLIC "-//W3C//DTD SVG 1.1//EN"
 "http://www.w3.org/Graphics/SVG/1.1/DTD/svg11.dtd">
<!-- Generated by graphviz version 2.38.0 (20140413.2041)
 -->
<!-- Title: Graphical Class Hierarchy Pages: 1 -->
<svg width="145pt" height="66pt"
 viewBox="0.00 0.00 145.00 66.00" xmlns="http://www.w3.org/2000/svg" xmlns:xlink="http://www.w3.org/1999/xlink">
<g id="graph0" class="graph" transform="scale(1 1) rotate(0) translate(4 62)">
<title>Graphical Class Hierarchy</title>
<!-- Node1 -->
<g id="node1" class="node"><title>Node1</title>
<g id="a_node1"><a xlink:href="class_point.html" target="_top" xlink:title="The Point class. ">
<polygon fill="none" stroke="black" points="0,-19.5 0,-38.5 39,-38.5 39,-19.5 0,-19.5"/>
<text text-anchor="middle" x="19.5" y="-26.5" font-family="Helvetica,sans-Serif" font-size="10.00">Point</text>
</a>
</g>
</g>
<!-- Node2 -->
<g id="node2" class="node"><title>Node2</title>
<g id="a_node2"><a xlink:href="class_point_g_p_s.html" target="_top" xlink:title="PointGPS">
<polygon fill="none" stroke="black" points="76,-38.5 76,-57.5 136,-57.5 136,-38.5 76,-38.5"/>
<text text-anchor="middle" x="106" y="-45.5" font-family="Helvetica,sans-Serif" font-size="10.00">PointGPS</text>
</a>
</g>
</g>
<!-- Node1&#45;&gt;Node2 -->
<g id="edge1" class="edge"><title>Node1&#45;&gt;Node2</title>
<path fill="none" stroke="midnightblue" d="M49.1591,-35.4441C57.7071,-37.3661 67.0858,-39.4749 75.6757,-41.4064"/>
<polygon fill="midnightblue" stroke="midnightblue" points="49.7775,-31.9958 39.2533,-33.2167 48.2419,-38.8253 49.7775,-31.9958"/>
</g>
<!-- Node3 -->
<g id="node3" class="node"><title>Node3</title>
<g id="a_node3"><a xlink:href="class_point_road.html" target="_top" xlink:title="PointRoad">
<polygon fill="none" stroke="black" points="75,-0.5 75,-19.5 137,-19.5 137,-0.5 75,-0.5"/>
<text text-anchor="middle" x="106" y="-7.5" font-family="Helvetica,sans-Serif" font-size="10.00">PointRoad</text>
</a>
</g>
</g>
<!-- Node1&#45;&gt;Node3 -->
<g id="edge2" class="edge"><title>Node1&#45;&gt;Node3</title>
<path fill="none" stroke="midnightblue" d="M49.1489,-22.5582C57.3717,-20.7093 66.364,-18.6874 74.6838,-16.8167"/>
<polygon fill="midnightblue" stroke="midnightblue" points="48.2419,-19.1747 39.2533,-24.7833 49.7775,-26.0042 48.2419,-19.1747"/>
</g>
</g>
</svg>
