<?xml version="1.0" encoding="UTF-8" standalone="no"?>
<!DOCTYPE svg PUBLIC "-//W3C//DTD SVG 1.1//EN"
 "http://www.w3.org/Graphics/SVG/1.1/DTD/svg11.dtd">
<!-- Generated by graphviz version 2.38.0 (20140413.2041)
 -->
<!-- Title: Graphical Class Hierarchy Pages: 1 -->
<svg width="179pt" height="218pt"
 viewBox="0.00 0.00 179.00 218.00" xmlns="http://www.w3.org/2000/svg" xmlns:xlink="http://www.w3.org/1999/xlink">
<g id="graph0" class="graph" transform="scale(1 1) rotate(0) translate(4 214)">
<title>Graphical Class Hierarchy</title>
<!-- Node1 -->
<g id="node1" class="node"><title>Node1</title>
<polygon fill="none" stroke="#bfbfbf" points="0,-95.5 0,-114.5 53,-114.5 53,-95.5 0,-95.5"/>
<text text-anchor="middle" x="26.5" y="-102.5" font-family="Helvetica,sans-Serif" font-size="10.00">QObject</text>
</g>
<!-- Node2 -->
<g id="node2" class="node"><title>Node2</title>
<g id="a_node2"><a xlink:href="class_controller.html" target="_top" xlink:title="Controller">
<polygon fill="none" stroke="black" points="100.5,-190.5 100.5,-209.5 159.5,-209.5 159.5,-190.5 100.5,-190.5"/>
<text text-anchor="middle" x="130" y="-197.5" font-family="Helvetica,sans-Serif" font-size="10.00">Controller</text>
</a>
</g>
</g>
<!-- Node1&#45;&gt;Node2 -->
<g id="edge1" class="edge"><title>Node1&#45;&gt;Node2</title>
<path fill="none" stroke="midnightblue" d="M38.9081,-123.399C50.0303,-140.145 68.2645,-164.675 89,-181 93.5908,-184.614 98.9812,-187.757 104.292,-190.39"/>
<polygon fill="midnightblue" stroke="midnightblue" points="41.5728,-121.072 33.2162,-114.559 35.6874,-124.862 41.5728,-121.072"/>
</g>
<!-- Node3 -->
<g id="node3" class="node"><title>Node3</title>
<g id="a_node3"><a xlink:href="class_graphic_emitter.html" target="_top" xlink:title="GraphicEmitter">
<polygon fill="none" stroke="black" points="89,-152.5 89,-171.5 171,-171.5 171,-152.5 89,-152.5"/>
<text text-anchor="middle" x="130" y="-159.5" font-family="Helvetica,sans-Serif" font-size="10.00">GraphicEmitter</text>
</a>
</g>
</g>
<!-- Node1&#45;&gt;Node3 -->
<g id="edge2" class="edge"><title>Node1&#45;&gt;Node3</title>
<path fill="none" stroke="midnightblue" d="M50.4022,-119.984C61.8236,-127.24 75.9525,-135.898 89,-143 94.9423,-146.234 101.526,-149.49 107.608,-152.371"/>
<polygon fill="midnightblue" stroke="midnightblue" points="52.201,-116.979 41.8954,-114.521 48.4185,-122.869 52.201,-116.979"/>
</g>
<!-- Node4 -->
<g id="node4" class="node"><title>Node4</title>
<g id="a_node4"><a xlink:href="class_grid.html" target="_top" xlink:title="Grid embedded roads. This describes the network. ">
<polygon fill="none" stroke="black" points="112.5,-114.5 112.5,-133.5 147.5,-133.5 147.5,-114.5 112.5,-114.5"/>
<text text-anchor="middle" x="130" y="-121.5" font-family="Helvetica,sans-Serif" font-size="10.00">Grid</text>
</a>
</g>
</g>
<!-- Node1&#45;&gt;Node4 -->
<g id="edge3" class="edge"><title>Node1&#45;&gt;Node4</title>
<path fill="none" stroke="midnightblue" d="M63.1399,-111.672C79.8619,-114.802 98.9923,-118.383 112.31,-120.876"/>
<polygon fill="midnightblue" stroke="midnightblue" points="63.586,-108.194 53.1127,-109.795 62.298,-115.075 63.586,-108.194"/>
</g>
<!-- Node5 -->
<g id="node5" class="node"><title>Node5</title>
<g id="a_node5"><a xlink:href="class_q_map_viewer.html" target="_top" xlink:title="QMapViewer">
<polygon fill="none" stroke="black" points="93.5,-76.5 93.5,-95.5 166.5,-95.5 166.5,-76.5 93.5,-76.5"/>
<text text-anchor="middle" x="130" y="-83.5" font-family="Helvetica,sans-Serif" font-size="10.00">QMapViewer</text>
</a>
</g>
</g>
<!-- Node1&#45;&gt;Node5 -->
<g id="edge4" class="edge"><title>Node1&#45;&gt;Node5</title>
<path fill="none" stroke="midnightblue" d="M63.0081,-98.3532C72.8653,-96.508 83.5681,-94.5045 93.4289,-92.6586"/>
<polygon fill="midnightblue" stroke="midnightblue" points="62.298,-94.9252 53.1127,-100.205 63.586,-101.806 62.298,-94.9252"/>
</g>
<!-- Node6 -->
<g id="node6" class="node"><title>Node6</title>
<g id="a_node6"><a xlink:href="class_solver.html" target="_top" xlink:title="Solver">
<polygon fill="none" stroke="black" points="108,-38.5 108,-57.5 152,-57.5 152,-38.5 108,-38.5"/>
<text text-anchor="middle" x="130" y="-45.5" font-family="Helvetica,sans-Serif" font-size="10.00">Solver</text>
</a>
</g>
</g>
<!-- Node1&#45;&gt;Node6 -->
<g id="edge5" class="edge"><title>Node1&#45;&gt;Node6</title>
<path fill="none" stroke="midnightblue" d="M50.4022,-90.0164C61.8236,-82.7595 75.9525,-74.1018 89,-67 94.9423,-63.7656 101.526,-60.5098 107.608,-57.6294"/>
<polygon fill="midnightblue" stroke="midnightblue" points="48.4185,-87.1307 41.8954,-95.4794 52.201,-93.0208 48.4185,-87.1307"/>
</g>
<!-- Node7 -->
<g id="node7" class="node"><title>Node7</title>
<g id="a_node7"><a xlink:href="class_track.html" target="_top" xlink:title="The Track class. ">
<polygon fill="none" stroke="black" points="109.5,-0.5 109.5,-19.5 150.5,-19.5 150.5,-0.5 109.5,-0.5"/>
<text text-anchor="middle" x="130" y="-7.5" font-family="Helvetica,sans-Serif" font-size="10.00">Track</text>
</a>
</g>
</g>
<!-- Node1&#45;&gt;Node7 -->
<g id="edge6" class="edge"><title>Node1&#45;&gt;Node7</title>
<path fill="none" stroke="midnightblue" d="M38.9081,-86.6014C50.0303,-69.8553 68.2645,-45.3253 89,-29 95.0406,-24.2442 102.465,-20.3047 109.271,-17.2694"/>
<polygon fill="midnightblue" stroke="midnightblue" points="35.6874,-85.1383 33.2162,-95.4409 41.5728,-88.9281 35.6874,-85.1383"/>
</g>
</g>
</svg>
