<?xml version="1.0" encoding="UTF-8" standalone="no"?>
<!DOCTYPE svg PUBLIC "-//W3C//DTD SVG 1.1//EN"
 "http://www.w3.org/Graphics/SVG/1.1/DTD/svg11.dtd">
<!-- Generated by graphviz version 2.38.0 (20140413.2041)
 -->
<!-- Title: Graphical Class Hierarchy Pages: 1 -->
<svg width="156pt" height="142pt"
 viewBox="0.00 0.00 156.00 142.00" xmlns="http://www.w3.org/2000/svg" xmlns:xlink="http://www.w3.org/1999/xlink">
<g id="graph0" class="graph" transform="scale(1 1) rotate(0) translate(4 138)">
<title>Graphical Class Hierarchy</title>
<!-- Node1 -->
<g id="node1" class="node"><title>Node1</title>
<polygon fill="none" stroke="#bfbfbf" points="0,-57.5 0,-76.5 53,-76.5 53,-57.5 0,-57.5"/>
<text text-anchor="middle" x="26.5" y="-64.5" font-family="Helvetica,sans-Serif" font-size="10.00">QObject</text>
</g>
<!-- Node2 -->
<g id="node2" class="node"><title>Node2</title>
<g id="a_node2"><a xlink:href="class_controller.html" target="_top" xlink:title="Controller">
<polygon fill="none" stroke="black" points="89,-114.5 89,-133.5 148,-133.5 148,-114.5 89,-114.5"/>
<text text-anchor="middle" x="118.5" y="-121.5" font-family="Helvetica,sans-Serif" font-size="10.00">Controller</text>
</a>
</g>
</g>
<!-- Node1&#45;&gt;Node2 -->
<g id="edge1" class="edge"><title>Node1&#45;&gt;Node2</title>
<path fill="none" stroke="midnightblue" d="M51.2167,-82.0206C67.4503,-92.3018 88.485,-105.624 102.458,-114.474"/>
<polygon fill="midnightblue" stroke="midnightblue" points="53.0882,-79.063 42.7673,-76.6693 49.3428,-84.9767 53.0882,-79.063"/>
</g>
<!-- Node3 -->
<g id="node3" class="node"><title>Node3</title>
<g id="a_node3"><a xlink:href="class_grid.html" target="_top" xlink:title="Grid embedded roads. This describes the network. ">
<polygon fill="none" stroke="black" points="101,-76.5 101,-95.5 136,-95.5 136,-76.5 101,-76.5"/>
<text text-anchor="middle" x="118.5" y="-83.5" font-family="Helvetica,sans-Serif" font-size="10.00">Grid</text>
</a>
</g>
</g>
<!-- Node1&#45;&gt;Node3 -->
<g id="edge2" class="edge"><title>Node1&#45;&gt;Node3</title>
<path fill="none" stroke="midnightblue" d="M63.1962,-74.5359C76.2512,-77.2919 90.3985,-80.2786 100.98,-82.5123"/>
<polygon fill="midnightblue" stroke="midnightblue" points="63.557,-71.035 53.0497,-72.3938 62.111,-77.884 63.557,-71.035"/>
</g>
<!-- Node4 -->
<g id="node4" class="node"><title>Node4</title>
<g id="a_node4"><a xlink:href="class_solver.html" target="_top" xlink:title="Solver">
<polygon fill="none" stroke="black" points="96.5,-38.5 96.5,-57.5 140.5,-57.5 140.5,-38.5 96.5,-38.5"/>
<text text-anchor="middle" x="118.5" y="-45.5" font-family="Helvetica,sans-Serif" font-size="10.00">Solver</text>
</a>
</g>
</g>
<!-- Node1&#45;&gt;Node4 -->
<g id="edge3" class="edge"><title>Node1&#45;&gt;Node4</title>
<path fill="none" stroke="midnightblue" d="M63.1019,-59.484C74.3951,-57.0999 86.5148,-54.5413 96.4416,-52.4457"/>
<polygon fill="midnightblue" stroke="midnightblue" points="62.111,-56.116 53.0497,-61.6062 63.557,-62.965 62.111,-56.116"/>
</g>
<!-- Node5 -->
<g id="node5" class="node"><title>Node5</title>
<g id="a_node5"><a xlink:href="class_track.html" target="_top" xlink:title="The Track class. ">
<polygon fill="none" stroke="black" points="98,-0.5 98,-19.5 139,-19.5 139,-0.5 98,-0.5"/>
<text text-anchor="middle" x="118.5" y="-7.5" font-family="Helvetica,sans-Serif" font-size="10.00">Track</text>
</a>
</g>
</g>
<!-- Node1&#45;&gt;Node5 -->
<g id="edge4" class="edge"><title>Node1&#45;&gt;Node5</title>
<path fill="none" stroke="midnightblue" d="M51.2167,-51.9794C67.4503,-41.6982 88.485,-28.3762 102.458,-19.5265"/>
<polygon fill="midnightblue" stroke="midnightblue" points="49.3428,-49.0233 42.7673,-57.3307 53.0882,-54.937 49.3428,-49.0233"/>
</g>
</g>
</svg>
