<?xml version="1.0" encoding="UTF-8" standalone="no"?>
<!DOCTYPE svg PUBLIC "-//W3C//DTD SVG 1.1//EN"
 "http://www.w3.org/Graphics/SVG/1.1/DTD/svg11.dtd">
<!-- Generated by graphviz version 2.38.0 (20140413.2041)
 -->
<!-- Title: Graphical Class Hierarchy Pages: 1 -->
<svg width="189pt" height="180pt"
 viewBox="0.00 0.00 189.00 180.00" xmlns="http://www.w3.org/2000/svg" xmlns:xlink="http://www.w3.org/1999/xlink">
<g id="graph0" class="graph" transform="scale(1 1) rotate(0) translate(4 176)">
<title>Graphical Class Hierarchy</title>
<!-- Node1 -->
<g id="node1" class="node"><title>Node1</title>
<polygon fill="none" stroke="#bfbfbf" points="0,-76.5 0,-95.5 55,-95.5 55,-76.5 0,-76.5"/>
<text text-anchor="middle" x="27.5" y="-83.5" font-family="Helvetica,sans-Serif" font-size="10.00">QWidget</text>
</g>
<!-- Node2 -->
<g id="node2" class="node"><title>Node2</title>
<g id="a_node2"><a xlink:href="class_filtering.html" target="_top" xlink:title="Filtering">
<polygon fill="none" stroke="black" points="110.5,-152.5 110.5,-171.5 161.5,-171.5 161.5,-152.5 110.5,-152.5"/>
<text text-anchor="middle" x="136" y="-159.5" font-family="Helvetica,sans-Serif" font-size="10.00">Filtering</text>
</a>
</g>
</g>
<!-- Node1&#45;&gt;Node2 -->
<g id="edge1" class="edge"><title>Node1&#45;&gt;Node2</title>
<path fill="none" stroke="midnightblue" d="M44.0376,-102.921C55.9901,-115.216 73.3926,-131.627 91,-143 96.871,-146.792 103.627,-150.142 110.054,-152.93"/>
<polygon fill="midnightblue" stroke="midnightblue" points="46.4456,-100.374 37.0228,-95.5305 41.3683,-105.193 46.4456,-100.374"/>
</g>
<!-- Node3 -->
<g id="node3" class="node"><title>Node3</title>
<g id="a_node3"><a xlink:href="class_loading.html" target="_top" xlink:title="Loading">
<polygon fill="none" stroke="black" points="111,-114.5 111,-133.5 161,-133.5 161,-114.5 111,-114.5"/>
<text text-anchor="middle" x="136" y="-121.5" font-family="Helvetica,sans-Serif" font-size="10.00">Loading</text>
</a>
</g>
</g>
<!-- Node1&#45;&gt;Node3 -->
<g id="edge2" class="edge"><title>Node1&#45;&gt;Node3</title>
<path fill="none" stroke="midnightblue" d="M64.7522,-98.935C79.987,-104.371 97.2957,-110.547 110.92,-115.408"/>
<polygon fill="midnightblue" stroke="midnightblue" points="65.6944,-95.5552 55.0997,-95.491 63.3419,-102.148 65.6944,-95.5552"/>
</g>
<!-- Node4 -->
<g id="node4" class="node"><title>Node4</title>
<g id="a_node4"><a xlink:href="class_main_window.html" target="_top" xlink:title="MainWindow">
<polygon fill="none" stroke="black" points="99.5,-76.5 99.5,-95.5 172.5,-95.5 172.5,-76.5 99.5,-76.5"/>
<text text-anchor="middle" x="136" y="-83.5" font-family="Helvetica,sans-Serif" font-size="10.00">MainWindow</text>
</a>
</g>
</g>
<!-- Node1&#45;&gt;Node4 -->
<g id="edge3" class="edge"><title>Node1&#45;&gt;Node4</title>
<path fill="none" stroke="midnightblue" d="M65.2257,-86C76.1913,-86 88.1947,-86 99.1063,-86"/>
<polygon fill="midnightblue" stroke="midnightblue" points="65.0998,-82.5001 55.0997,-86 65.0997,-89.5001 65.0998,-82.5001"/>
</g>
<!-- Node5 -->
<g id="node5" class="node"><title>Node5</title>
<g id="a_node5"><a xlink:href="class_q_map_widget.html" target="_top" xlink:title="QMapWidget">
<polygon fill="none" stroke="black" points="99,-38.5 99,-57.5 173,-57.5 173,-38.5 99,-38.5"/>
<text text-anchor="middle" x="136" y="-45.5" font-family="Helvetica,sans-Serif" font-size="10.00">QMapWidget</text>
</a>
</g>
</g>
<!-- Node1&#45;&gt;Node5 -->
<g id="edge4" class="edge"><title>Node1&#45;&gt;Node5</title>
<path fill="none" stroke="midnightblue" d="M64.6614,-73.0973C78.9835,-67.9871 95.1504,-62.2186 108.37,-57.5017"/>
<polygon fill="midnightblue" stroke="midnightblue" points="63.3419,-69.8519 55.0997,-76.509 65.6944,-76.4448 63.3419,-69.8519"/>
</g>
<!-- Node6 -->
<g id="node6" class="node"><title>Node6</title>
<g id="a_node6"><a xlink:href="class_q_process_viewer.html" target="_top" xlink:title="QProcessViewer">
<polygon fill="none" stroke="black" points="91,-0.5 91,-19.5 181,-19.5 181,-0.5 91,-0.5"/>
<text text-anchor="middle" x="136" y="-7.5" font-family="Helvetica,sans-Serif" font-size="10.00">QProcessViewer</text>
</a>
</g>
</g>
<!-- Node1&#45;&gt;Node6 -->
<g id="edge5" class="edge"><title>Node1&#45;&gt;Node6</title>
<path fill="none" stroke="midnightblue" d="M44.0376,-69.0786C55.9901,-56.7837 73.3926,-40.3734 91,-29 96.4517,-25.4785 102.666,-22.3391 108.672,-19.6758"/>
<polygon fill="midnightblue" stroke="midnightblue" points="41.3683,-66.8068 37.0228,-76.4695 46.4456,-71.6257 41.3683,-66.8068"/>
</g>
</g>
</svg>
