<?xml version="1.0" encoding="UTF-8" standalone="no"?>
<!DOCTYPE svg PUBLIC "-//W3C//DTD SVG 1.1//EN"
 "http://www.w3.org/Graphics/SVG/1.1/DTD/svg11.dtd">
<!-- Generated by graphviz version 2.38.0 (20140413.2041)
 -->
<!-- Title: Graphical Class Hierarchy Pages: 1 -->
<svg width="172pt" height="104pt"
 viewBox="0.00 0.00 172.00 104.00" xmlns="http://www.w3.org/2000/svg" xmlns:xlink="http://www.w3.org/1999/xlink">
<g id="graph0" class="graph" transform="scale(1 1) rotate(0) translate(4 100)">
<title>Graphical Class Hierarchy</title>
<!-- Node1 -->
<g id="node1" class="node"><title>Node1</title>
<polygon fill="none" stroke="#bfbfbf" points="0,-38.5 0,-57.5 55,-57.5 55,-38.5 0,-38.5"/>
<text text-anchor="middle" x="27.5" y="-45.5" font-family="Helvetica,sans-Serif" font-size="10.00">QWidget</text>
</g>
<!-- Node2 -->
<g id="node2" class="node"><title>Node2</title>
<g id="a_node2"><a xlink:href="class_filtering.html" target="_top" xlink:title="Filtering">
<polygon fill="none" stroke="black" points="102,-76.5 102,-95.5 153,-95.5 153,-76.5 102,-76.5"/>
<text text-anchor="middle" x="127.5" y="-83.5" font-family="Helvetica,sans-Serif" font-size="10.00">Filtering</text>
</a>
</g>
</g>
<!-- Node1&#45;&gt;Node2 -->
<g id="edge1" class="edge"><title>Node1&#45;&gt;Node2</title>
<path fill="none" stroke="midnightblue" d="M62.7086,-61.2646C75.5742,-66.2533 89.9411,-71.8241 101.778,-76.4141"/>
<polygon fill="midnightblue" stroke="midnightblue" points="63.8185,-57.9411 53.2295,-57.589 61.2878,-64.4676 63.8185,-57.9411"/>
</g>
<!-- Node3 -->
<g id="node3" class="node"><title>Node3</title>
<g id="a_node3"><a xlink:href="class_loading.html" target="_top" xlink:title="Loading">
<polygon fill="none" stroke="black" points="102.5,-38.5 102.5,-57.5 152.5,-57.5 152.5,-38.5 102.5,-38.5"/>
<text text-anchor="middle" x="127.5" y="-45.5" font-family="Helvetica,sans-Serif" font-size="10.00">Loading</text>
</a>
</g>
</g>
<!-- Node1&#45;&gt;Node3 -->
<g id="edge2" class="edge"><title>Node1&#45;&gt;Node3</title>
<path fill="none" stroke="midnightblue" d="M65.1129,-48C77.5376,-48 91.0995,-48 102.309,-48"/>
<polygon fill="midnightblue" stroke="midnightblue" points="65.0202,-44.5001 55.0202,-48 65.0202,-51.5001 65.0202,-44.5001"/>
</g>
<!-- Node4 -->
<g id="node4" class="node"><title>Node4</title>
<g id="a_node4"><a xlink:href="class_q_map_viewer.html" target="_top" xlink:title="QMapViewer">
<polygon fill="none" stroke="black" points="91,-0.5 91,-19.5 164,-19.5 164,-0.5 91,-0.5"/>
<text text-anchor="middle" x="127.5" y="-7.5" font-family="Helvetica,sans-Serif" font-size="10.00">QMapViewer</text>
</a>
</g>
</g>
<!-- Node1&#45;&gt;Node4 -->
<g id="edge3" class="edge"><title>Node1&#45;&gt;Node4</title>
<path fill="none" stroke="midnightblue" d="M62.7086,-34.7354C75.5742,-29.7467 89.9411,-24.1759 101.778,-19.5859"/>
<polygon fill="midnightblue" stroke="midnightblue" points="61.2878,-31.5324 53.2295,-38.411 63.8185,-38.0589 61.2878,-31.5324"/>
</g>
</g>
</svg>
