<?xml version="1.0" encoding="UTF-8" standalone="no"?>
<!DOCTYPE svg PUBLIC "-//W3C//DTD SVG 1.1//EN"
 "http://www.w3.org/Graphics/SVG/1.1/DTD/svg11.dtd">
<!-- Generated by graphviz version 2.38.0 (20140413.2041)
 -->
<!-- Title: journalprocess.cpp Pages: 1 -->
<svg width="312pt" height="140pt"
 viewBox="0.00 0.00 311.50 140.00" xmlns="http://www.w3.org/2000/svg" xmlns:xlink="http://www.w3.org/1999/xlink">
<g id="graph0" class="graph" transform="scale(1 1) rotate(0) translate(4 136)">
<title>journalprocess.cpp</title>
<!-- Node1 -->
<g id="node1" class="node"><title>Node1</title>
<polygon fill="#bfbfbf" stroke="black" points="153,-112.5 153,-131.5 251,-131.5 251,-112.5 153,-112.5"/>
<text text-anchor="middle" x="202" y="-119.5" font-family="Helvetica,sans-Serif" font-size="10.00">journalprocess.cpp</text>
</g>
<!-- Node2 -->
<g id="node2" class="node"><title>Node2</title>
<g id="a_node2"><a xlink:href="journalprocess_8h.html" target="_top" xlink:title="journalprocess.h">
<polygon fill="none" stroke="black" points="112,-56.5 112,-75.5 200,-75.5 200,-56.5 112,-56.5"/>
<text text-anchor="middle" x="156" y="-63.5" font-family="Helvetica,sans-Serif" font-size="10.00">journalprocess.h</text>
</a>
</g>
</g>
<!-- Node1&#45;&gt;Node2 -->
<g id="edge1" class="edge"><title>Node1&#45;&gt;Node2</title>
<path fill="none" stroke="midnightblue" d="M194.404,-112.083C187.773,-104.298 177.979,-92.8015 169.942,-83.3665"/>
<polygon fill="midnightblue" stroke="midnightblue" points="172.604,-81.0939 163.455,-75.7511 167.275,-85.6332 172.604,-81.0939"/>
</g>
<!-- Node7 -->
<g id="node7" class="node"><title>Node7</title>
<polygon fill="none" stroke="#bfbfbf" points="218.5,-56.5 218.5,-75.5 279.5,-75.5 279.5,-56.5 218.5,-56.5"/>
<text text-anchor="middle" x="249" y="-63.5" font-family="Helvetica,sans-Serif" font-size="10.00">QTextEdit</text>
</g>
<!-- Node1&#45;&gt;Node7 -->
<g id="edge6" class="edge"><title>Node1&#45;&gt;Node7</title>
<path fill="none" stroke="midnightblue" d="M209.761,-112.083C216.537,-104.298 226.543,-92.8015 234.755,-83.3665"/>
<polygon fill="midnightblue" stroke="midnightblue" points="237.458,-85.592 241.383,-75.7511 232.178,-80.9963 237.458,-85.592"/>
</g>
<!-- Node3 -->
<g id="node3" class="node"><title>Node3</title>
<polygon fill="none" stroke="#bfbfbf" points="0,-0.5 0,-19.5 72,-19.5 72,-0.5 0,-0.5"/>
<text text-anchor="middle" x="36" y="-7.5" font-family="Helvetica,sans-Serif" font-size="10.00">QApplication</text>
</g>
<!-- Node2&#45;&gt;Node3 -->
<g id="edge2" class="edge"><title>Node2&#45;&gt;Node3</title>
<path fill="none" stroke="midnightblue" d="M136.986,-56.4435C117.412,-47.6356 86.6924,-33.8116 64.2711,-23.722"/>
<polygon fill="midnightblue" stroke="midnightblue" points="65.4809,-20.4284 54.9254,-19.5164 62.6083,-26.8119 65.4809,-20.4284"/>
</g>
<!-- Node4 -->
<g id="node4" class="node"><title>Node4</title>
<polygon fill="none" stroke="#bfbfbf" points="90.5,-0.5 90.5,-19.5 143.5,-19.5 143.5,-0.5 90.5,-0.5"/>
<text text-anchor="middle" x="117" y="-7.5" font-family="Helvetica,sans-Serif" font-size="10.00">QObject</text>
</g>
<!-- Node2&#45;&gt;Node4 -->
<g id="edge3" class="edge"><title>Node2&#45;&gt;Node4</title>
<path fill="none" stroke="midnightblue" d="M149.56,-56.083C144.051,-48.4554 135.969,-37.2645 129.235,-27.9408"/>
<polygon fill="midnightblue" stroke="midnightblue" points="132.013,-25.8087 123.32,-19.7511 126.338,-29.9071 132.013,-25.8087"/>
</g>
<!-- Node5 -->
<g id="node5" class="node"><title>Node5</title>
<polygon fill="none" stroke="#bfbfbf" points="161.5,-0.5 161.5,-19.5 230.5,-19.5 230.5,-0.5 161.5,-0.5"/>
<text text-anchor="middle" x="196" y="-7.5" font-family="Helvetica,sans-Serif" font-size="10.00">QScrollArea</text>
</g>
<!-- Node2&#45;&gt;Node5 -->
<g id="edge4" class="edge"><title>Node2&#45;&gt;Node5</title>
<path fill="none" stroke="midnightblue" d="M162.605,-56.083C168.255,-48.4554 176.545,-37.2645 183.451,-27.9408"/>
<polygon fill="midnightblue" stroke="midnightblue" points="186.378,-29.87 189.518,-19.7511 180.753,-25.7034 186.378,-29.87"/>
</g>
<!-- Node6 -->
<g id="node6" class="node"><title>Node6</title>
<polygon fill="none" stroke="#bfbfbf" points="248.5,-0.5 248.5,-19.5 303.5,-19.5 303.5,-0.5 248.5,-0.5"/>
<text text-anchor="middle" x="276" y="-7.5" font-family="Helvetica,sans-Serif" font-size="10.00">QWidget</text>
</g>
<!-- Node2&#45;&gt;Node6 -->
<g id="edge5" class="edge"><title>Node2&#45;&gt;Node6</title>
<path fill="none" stroke="midnightblue" d="M175.014,-56.4435C194.588,-47.6356 225.308,-33.8116 247.729,-23.722"/>
<polygon fill="midnightblue" stroke="midnightblue" points="249.392,-26.8119 257.075,-19.5164 246.519,-20.4284 249.392,-26.8119"/>
</g>
</g>
</svg>
