<?xml version="1.0" encoding="UTF-8" standalone="no"?>
<!DOCTYPE svg PUBLIC "-//W3C//DTD SVG 1.1//EN"
 "http://www.w3.org/Graphics/SVG/1.1/DTD/svg11.dtd">
<!-- Generated by graphviz version 2.38.0 (20140413.2041)
 -->
<!-- Title: journalprocess.cpp Pages: 1 -->
<svg width="601pt" height="140pt"
 viewBox="0.00 0.00 600.50 140.00" xmlns="http://www.w3.org/2000/svg" xmlns:xlink="http://www.w3.org/1999/xlink">
<g id="graph0" class="graph" transform="scale(1 1) rotate(0) translate(4 136)">
<title>journalprocess.cpp</title>
<!-- Node1 -->
<g id="node1" class="node"><title>Node1</title>
<polygon fill="#bfbfbf" stroke="black" points="392,-112.5 392,-131.5 490,-131.5 490,-112.5 392,-112.5"/>
<text text-anchor="middle" x="441" y="-119.5" font-family="Helvetica,sans-Serif" font-size="10.00">journalprocess.cpp</text>
</g>
<!-- Node2 -->
<g id="node2" class="node"><title>Node2</title>
<g id="a_node2"><a xlink:href="journalprocess_8h.html" target="_top" xlink:title="journalprocess.h">
<polygon fill="none" stroke="black" points="152,-56.5 152,-75.5 240,-75.5 240,-56.5 152,-56.5"/>
<text text-anchor="middle" x="196" y="-63.5" font-family="Helvetica,sans-Serif" font-size="10.00">journalprocess.h</text>
</a>
</g>
</g>
<!-- Node1&#45;&gt;Node2 -->
<g id="edge1" class="edge"><title>Node1&#45;&gt;Node2</title>
<path fill="none" stroke="midnightblue" d="M402.179,-112.444C359.439,-103.023 290.668,-87.8656 244.434,-77.6752"/>
<polygon fill="midnightblue" stroke="midnightblue" points="245.158,-74.251 234.639,-75.5164 243.652,-81.0869 245.158,-74.251"/>
</g>
<!-- Node7 -->
<g id="node7" class="node"><title>Node7</title>
<g id="a_node7"><a xlink:href="qdebugstream_8h.html" target="_top" xlink:title="qdebugstream.h">
<polygon fill="none" stroke="black" points="398,-56.5 398,-75.5 484,-75.5 484,-56.5 398,-56.5"/>
<text text-anchor="middle" x="441" y="-63.5" font-family="Helvetica,sans-Serif" font-size="10.00">qdebugstream.h</text>
</a>
</g>
</g>
<!-- Node1&#45;&gt;Node7 -->
<g id="edge6" class="edge"><title>Node1&#45;&gt;Node7</title>
<path fill="none" stroke="midnightblue" d="M441,-112.083C441,-105.006 441,-94.8611 441,-85.9865"/>
<polygon fill="midnightblue" stroke="midnightblue" points="444.5,-85.751 441,-75.7511 437.5,-85.7511 444.5,-85.751"/>
</g>
<!-- Node11 -->
<g id="node11" class="node"><title>Node11</title>
<polygon fill="none" stroke="#bfbfbf" points="531.5,-0.5 531.5,-19.5 592.5,-19.5 592.5,-0.5 531.5,-0.5"/>
<text text-anchor="middle" x="562" y="-7.5" font-family="Helvetica,sans-Serif" font-size="10.00">QTextEdit</text>
</g>
<!-- Node1&#45;&gt;Node11 -->
<g id="edge11" class="edge"><title>Node1&#45;&gt;Node11</title>
<path fill="none" stroke="midnightblue" d="M451.078,-112.497C461.635,-103.539 478.645,-88.962 493,-76 511.379,-59.4041 531.99,-39.8616 545.86,-26.5698"/>
<polygon fill="midnightblue" stroke="midnightblue" points="548.395,-28.9883 553.18,-19.5356 543.545,-23.9411 548.395,-28.9883"/>
</g>
<!-- Node3 -->
<g id="node3" class="node"><title>Node3</title>
<polygon fill="none" stroke="#bfbfbf" points="0,-0.5 0,-19.5 72,-19.5 72,-0.5 0,-0.5"/>
<text text-anchor="middle" x="36" y="-7.5" font-family="Helvetica,sans-Serif" font-size="10.00">QApplication</text>
</g>
<!-- Node2&#45;&gt;Node3 -->
<g id="edge2" class="edge"><title>Node2&#45;&gt;Node3</title>
<path fill="none" stroke="midnightblue" d="M170.648,-56.4435C143.731,-47.3591 101.004,-32.9388 70.913,-22.7831"/>
<polygon fill="midnightblue" stroke="midnightblue" points="71.828,-19.3981 61.2339,-19.5164 69.5895,-26.0305 71.828,-19.3981"/>
</g>
<!-- Node4 -->
<g id="node4" class="node"><title>Node4</title>
<polygon fill="none" stroke="#bfbfbf" points="90.5,-0.5 90.5,-19.5 143.5,-19.5 143.5,-0.5 90.5,-0.5"/>
<text text-anchor="middle" x="117" y="-7.5" font-family="Helvetica,sans-Serif" font-size="10.00">QObject</text>
</g>
<!-- Node2&#45;&gt;Node4 -->
<g id="edge3" class="edge"><title>Node2&#45;&gt;Node4</title>
<path fill="none" stroke="midnightblue" d="M183.307,-56.324C171.099,-47.979 152.422,-35.2122 137.997,-25.3524"/>
<polygon fill="midnightblue" stroke="midnightblue" points="139.892,-22.4082 129.661,-19.6545 135.942,-28.1871 139.892,-22.4082"/>
</g>
<!-- Node5 -->
<g id="node5" class="node"><title>Node5</title>
<polygon fill="none" stroke="#bfbfbf" points="161.5,-0.5 161.5,-19.5 230.5,-19.5 230.5,-0.5 161.5,-0.5"/>
<text text-anchor="middle" x="196" y="-7.5" font-family="Helvetica,sans-Serif" font-size="10.00">QScrollArea</text>
</g>
<!-- Node2&#45;&gt;Node5 -->
<g id="edge4" class="edge"><title>Node2&#45;&gt;Node5</title>
<path fill="none" stroke="midnightblue" d="M196,-56.083C196,-49.0059 196,-38.8611 196,-29.9865"/>
<polygon fill="midnightblue" stroke="midnightblue" points="199.5,-29.751 196,-19.7511 192.5,-29.7511 199.5,-29.751"/>
</g>
<!-- Node6 -->
<g id="node6" class="node"><title>Node6</title>
<polygon fill="none" stroke="#bfbfbf" points="248.5,-0.5 248.5,-19.5 303.5,-19.5 303.5,-0.5 248.5,-0.5"/>
<text text-anchor="middle" x="276" y="-7.5" font-family="Helvetica,sans-Serif" font-size="10.00">QWidget</text>
</g>
<!-- Node2&#45;&gt;Node6 -->
<g id="edge5" class="edge"><title>Node2&#45;&gt;Node6</title>
<path fill="none" stroke="midnightblue" d="M208.853,-56.324C221.216,-47.979 240.13,-35.2122 254.737,-25.3524"/>
<polygon fill="midnightblue" stroke="midnightblue" points="256.848,-28.1503 263.179,-19.6545 252.932,-22.3483 256.848,-28.1503"/>
</g>
<!-- Node8 -->
<g id="node8" class="node"><title>Node8</title>
<polygon fill="none" stroke="#bfbfbf" points="322,-0.5 322,-19.5 376,-19.5 376,-0.5 322,-0.5"/>
<text text-anchor="middle" x="349" y="-7.5" font-family="Helvetica,sans-Serif" font-size="10.00">iostream</text>
</g>
<!-- Node7&#45;&gt;Node8 -->
<g id="edge7" class="edge"><title>Node7&#45;&gt;Node8</title>
<path fill="none" stroke="midnightblue" d="M426.219,-56.324C411.733,-47.8215 389.427,-34.7288 372.507,-24.7975"/>
<polygon fill="midnightblue" stroke="midnightblue" points="374.141,-21.6981 363.745,-19.6545 370.597,-27.735 374.141,-21.6981"/>
</g>
<!-- Node9 -->
<g id="node9" class="node"><title>Node9</title>
<polygon fill="none" stroke="#bfbfbf" points="394,-0.5 394,-19.5 454,-19.5 454,-0.5 394,-0.5"/>
<text text-anchor="middle" x="424" y="-7.5" font-family="Helvetica,sans-Serif" font-size="10.00">streambuf</text>
</g>
<!-- Node7&#45;&gt;Node9 -->
<g id="edge8" class="edge"><title>Node7&#45;&gt;Node9</title>
<path fill="none" stroke="midnightblue" d="M438.193,-56.083C435.915,-48.8486 432.629,-38.4087 429.792,-29.3968"/>
<polygon fill="midnightblue" stroke="midnightblue" points="433.096,-28.2385 426.755,-19.7511 426.419,-30.3406 433.096,-28.2385"/>
</g>
<!-- Node10 -->
<g id="node10" class="node"><title>Node10</title>
<polygon fill="none" stroke="#bfbfbf" points="472.5,-0.5 472.5,-19.5 513.5,-19.5 513.5,-0.5 472.5,-0.5"/>
<text text-anchor="middle" x="493" y="-7.5" font-family="Helvetica,sans-Serif" font-size="10.00">string</text>
</g>
<!-- Node7&#45;&gt;Node10 -->
<g id="edge9" class="edge"><title>Node7&#45;&gt;Node10</title>
<path fill="none" stroke="midnightblue" d="M449.587,-56.083C457.159,-48.2195 468.378,-36.5688 477.514,-27.0813"/>
<polygon fill="midnightblue" stroke="midnightblue" points="480.158,-29.3821 484.573,-19.7511 475.115,-24.5266 480.158,-29.3821"/>
</g>
<!-- Node7&#45;&gt;Node11 -->
<g id="edge10" class="edge"><title>Node7&#45;&gt;Node11</title>
<path fill="none" stroke="midnightblue" d="M460.173,-56.4435C479.909,-47.6356 510.885,-33.8116 533.493,-23.722"/>
<polygon fill="midnightblue" stroke="midnightblue" points="535.211,-26.788 542.917,-19.5164 532.359,-20.3957 535.211,-26.788"/>
</g>
</g>
</svg>
