<?xml version="1.0" encoding="UTF-8" standalone="no"?>
<!DOCTYPE svg PUBLIC "-//W3C//DTD SVG 1.1//EN"
 "http://www.w3.org/Graphics/SVG/1.1/DTD/svg11.dtd">
<!-- Generated by graphviz version 2.38.0 (20140413.2041)
 -->
<!-- Title: kdtree.h Pages: 1 -->
<svg width="158pt" height="252pt"
 viewBox="0.00 0.00 158.00 252.00" xmlns="http://www.w3.org/2000/svg" xmlns:xlink="http://www.w3.org/1999/xlink">
<g id="graph0" class="graph" transform="scale(1 1) rotate(0) translate(4 248)">
<title>kdtree.h</title>
<!-- Node1 -->
<g id="node1" class="node"><title>Node1</title>
<polygon fill="#bfbfbf" stroke="black" points="34,-224.5 34,-243.5 86,-243.5 86,-224.5 34,-224.5"/>
<text text-anchor="middle" x="60" y="-231.5" font-family="Helvetica,sans-Serif" font-size="10.00">kdtree.h</text>
</g>
<!-- Node2 -->
<g id="node2" class="node"><title>Node2</title>
<polygon fill="none" stroke="#bfbfbf" points="0,-0.5 0,-19.5 44,-19.5 44,-0.5 0,-0.5"/>
<text text-anchor="middle" x="22" y="-7.5" font-family="Helvetica,sans-Serif" font-size="10.00">vector</text>
</g>
<!-- Node1&#45;&gt;Node2 -->
<g id="edge1" class="edge"><title>Node1&#45;&gt;Node2</title>
<path fill="none" stroke="midnightblue" d="M58.5104,-224.297C52.9191,-191.633 33.1032,-75.8661 25.2449,-29.9573"/>
<polygon fill="midnightblue" stroke="midnightblue" points="28.6577,-29.1499 23.5206,-19.8837 21.7581,-30.3309 28.6577,-29.1499"/>
</g>
<!-- Node3 -->
<g id="node3" class="node"><title>Node3</title>
<g id="a_node3"><a xlink:href="point_8h.html" target="_top" xlink:title="Class Point. ">
<polygon fill="none" stroke="black" points="55.5,-56.5 55.5,-75.5 110.5,-75.5 110.5,-56.5 55.5,-56.5"/>
<text text-anchor="middle" x="83" y="-63.5" font-family="Helvetica,sans-Serif" font-size="10.00">../point.h</text>
</a>
</g>
</g>
<!-- Node1&#45;&gt;Node3 -->
<g id="edge2" class="edge"><title>Node1&#45;&gt;Node3</title>
<path fill="none" stroke="midnightblue" d="M61.2366,-224.075C64.857,-197.945 75.4889,-121.211 80.4261,-85.577"/>
<polygon fill="midnightblue" stroke="midnightblue" points="83.9072,-85.9539 81.8129,-75.5681 76.9735,-84.9931 83.9072,-85.9539"/>
</g>
<!-- Node5 -->
<g id="node5" class="node"><title>Node5</title>
<g id="a_node5"><a xlink:href="boxnode_8h.html" target="_top" xlink:title="boxnode.h">
<polygon fill="none" stroke="black" points="88,-168.5 88,-187.5 150,-187.5 150,-168.5 88,-168.5"/>
<text text-anchor="middle" x="119" y="-175.5" font-family="Helvetica,sans-Serif" font-size="10.00">boxnode.h</text>
</a>
</g>
</g>
<!-- Node1&#45;&gt;Node5 -->
<g id="edge5" class="edge"><title>Node1&#45;&gt;Node5</title>
<path fill="none" stroke="midnightblue" d="M69.4794,-224.324C78.2011,-216.341 91.3435,-204.313 101.898,-194.653"/>
<polygon fill="midnightblue" stroke="midnightblue" points="104.334,-197.167 109.348,-187.834 99.6083,-192.004 104.334,-197.167"/>
</g>
<!-- Node3&#45;&gt;Node2 -->
<g id="edge4" class="edge"><title>Node3&#45;&gt;Node2</title>
<path fill="none" stroke="midnightblue" d="M73.1993,-56.324C64.1819,-48.3414 50.594,-36.3128 39.682,-26.6529"/>
<polygon fill="midnightblue" stroke="midnightblue" points="41.7866,-23.8416 31.979,-19.8339 37.1467,-29.083 41.7866,-23.8416"/>
</g>
<!-- Node4 -->
<g id="node4" class="node"><title>Node4</title>
<polygon fill="none" stroke="#bfbfbf" points="62,-0.5 62,-19.5 116,-19.5 116,-0.5 62,-0.5"/>
<text text-anchor="middle" x="89" y="-7.5" font-family="Helvetica,sans-Serif" font-size="10.00">iostream</text>
</g>
<!-- Node3&#45;&gt;Node4 -->
<g id="edge3" class="edge"><title>Node3&#45;&gt;Node4</title>
<path fill="none" stroke="midnightblue" d="M83.9908,-56.083C84.7859,-48.9272 85.9294,-38.6353 86.9232,-29.6911"/>
<polygon fill="midnightblue" stroke="midnightblue" points="90.4018,-30.0765 88.0277,-19.7511 83.4447,-29.3034 90.4018,-30.0765"/>
</g>
<!-- Node6 -->
<g id="node6" class="node"><title>Node6</title>
<g id="a_node6"><a xlink:href="box_8h.html" target="_top" xlink:title="box.h">
<polygon fill="none" stroke="black" points="93.5,-112.5 93.5,-131.5 134.5,-131.5 134.5,-112.5 93.5,-112.5"/>
<text text-anchor="middle" x="114" y="-119.5" font-family="Helvetica,sans-Serif" font-size="10.00">box.h</text>
</a>
</g>
</g>
<!-- Node5&#45;&gt;Node6 -->
<g id="edge6" class="edge"><title>Node5&#45;&gt;Node6</title>
<path fill="none" stroke="midnightblue" d="M118.174,-168.083C117.519,-161.006 116.58,-150.861 115.758,-141.986"/>
<polygon fill="midnightblue" stroke="midnightblue" points="119.217,-141.386 114.81,-131.751 112.247,-142.031 119.217,-141.386"/>
</g>
<!-- Node6&#45;&gt;Node3 -->
<g id="edge7" class="edge"><title>Node6&#45;&gt;Node3</title>
<path fill="none" stroke="midnightblue" d="M108.881,-112.083C104.592,-104.613 98.3418,-93.7244 93.0577,-84.5199"/>
<polygon fill="midnightblue" stroke="midnightblue" points="96.0379,-82.6811 88.0238,-75.7511 89.9671,-86.1662 96.0379,-82.6811"/>
</g>
</g>
</svg>
