<?xml version="1.0" encoding="UTF-8" standalone="no"?>
<!DOCTYPE svg PUBLIC "-//W3C//DTD SVG 1.1//EN"
 "http://www.w3.org/Graphics/SVG/1.1/DTD/svg11.dtd">
<!-- Generated by graphviz version 2.38.0 (20140413.2041)
 -->
<!-- Title: kdtree.cpp Pages: 1 -->
<svg width="238pt" height="308pt"
 viewBox="0.00 0.00 238.00 308.00" xmlns="http://www.w3.org/2000/svg" xmlns:xlink="http://www.w3.org/1999/xlink">
<g id="graph0" class="graph" transform="scale(1 1) rotate(0) translate(4 304)">
<title>kdtree.cpp</title>
<!-- Node1 -->
<g id="node1" class="node"><title>Node1</title>
<polygon fill="#bfbfbf" stroke="black" points="113,-280.5 113,-299.5 175,-299.5 175,-280.5 113,-280.5"/>
<text text-anchor="middle" x="144" y="-287.5" font-family="Helvetica,sans-Serif" font-size="10.00">kdtree.cpp</text>
</g>
<!-- Node2 -->
<g id="node2" class="node"><title>Node2</title>
<g id="a_node2"><a xlink:href="kdtree_8h.html" target="_top" xlink:title="kdtree.h">
<polygon fill="none" stroke="black" points="46,-224.5 46,-243.5 98,-243.5 98,-224.5 46,-224.5"/>
<text text-anchor="middle" x="72" y="-231.5" font-family="Helvetica,sans-Serif" font-size="10.00">kdtree.h</text>
</a>
</g>
</g>
<!-- Node1&#45;&gt;Node2 -->
<g id="edge1" class="edge"><title>Node1&#45;&gt;Node2</title>
<path fill="none" stroke="midnightblue" d="M132.432,-280.324C121.58,-272.185 105.119,-259.839 92.1166,-250.087"/>
<polygon fill="midnightblue" stroke="midnightblue" points="93.8786,-247.034 83.7785,-243.834 89.6785,-252.634 93.8786,-247.034"/>
</g>
<!-- Node8 -->
<g id="node8" class="node"><title>Node8</title>
<polygon fill="none" stroke="#bfbfbf" points="116,-224.5 116,-243.5 172,-243.5 172,-224.5 116,-224.5"/>
<text text-anchor="middle" x="144" y="-231.5" font-family="Helvetica,sans-Serif" font-size="10.00">algorithm</text>
</g>
<!-- Node1&#45;&gt;Node8 -->
<g id="edge8" class="edge"><title>Node1&#45;&gt;Node8</title>
<path fill="none" stroke="midnightblue" d="M144,-280.083C144,-273.006 144,-262.861 144,-253.986"/>
<polygon fill="midnightblue" stroke="midnightblue" points="147.5,-253.751 144,-243.751 140.5,-253.751 147.5,-253.751"/>
</g>
<!-- Node9 -->
<g id="node9" class="node"><title>Node9</title>
<polygon fill="none" stroke="#bfbfbf" points="190,-224.5 190,-243.5 230,-243.5 230,-224.5 190,-224.5"/>
<text text-anchor="middle" x="210" y="-231.5" font-family="Helvetica,sans-Serif" font-size="10.00">limits</text>
</g>
<!-- Node1&#45;&gt;Node9 -->
<g id="edge9" class="edge"><title>Node1&#45;&gt;Node9</title>
<path fill="none" stroke="midnightblue" d="M154.604,-280.324C164.456,-272.263 179.351,-260.077 191.215,-250.369"/>
<polygon fill="midnightblue" stroke="midnightblue" points="193.68,-252.875 199.203,-243.834 189.247,-247.457 193.68,-252.875"/>
</g>
<!-- Node3 -->
<g id="node3" class="node"><title>Node3</title>
<polygon fill="none" stroke="#bfbfbf" points="-3.55271e-15,-168.5 -3.55271e-15,-187.5 44,-187.5 44,-168.5 -3.55271e-15,-168.5"/>
<text text-anchor="middle" x="22" y="-175.5" font-family="Helvetica,sans-Serif" font-size="10.00">vector</text>
</g>
<!-- Node2&#45;&gt;Node3 -->
<g id="edge2" class="edge"><title>Node2&#45;&gt;Node3</title>
<path fill="none" stroke="midnightblue" d="M63.7435,-224.083C56.5353,-216.298 45.8902,-204.801 37.1542,-195.367"/>
<polygon fill="midnightblue" stroke="midnightblue" points="39.4651,-192.711 30.1028,-187.751 34.3288,-197.467 39.4651,-192.711"/>
</g>
<!-- Node4 -->
<g id="node4" class="node"><title>Node4</title>
<g id="a_node4"><a xlink:href="point_8h.html" target="_top" xlink:title="Class Point. ">
<polygon fill="none" stroke="black" points="71.5,-56.5 71.5,-75.5 126.5,-75.5 126.5,-56.5 71.5,-56.5"/>
<text text-anchor="middle" x="99" y="-63.5" font-family="Helvetica,sans-Serif" font-size="10.00">../point.h</text>
</a>
</g>
</g>
<!-- Node2&#45;&gt;Node4 -->
<g id="edge3" class="edge"><title>Node2&#45;&gt;Node4</title>
<path fill="none" stroke="midnightblue" d="M73.4516,-224.075C77.7017,-197.945 90.1826,-121.211 95.9784,-85.577"/>
<polygon fill="midnightblue" stroke="midnightblue" points="99.4555,-86.0003 97.6064,-75.5681 92.5463,-84.8765 99.4555,-86.0003"/>
</g>
<!-- Node6 -->
<g id="node6" class="node"><title>Node6</title>
<g id="a_node6"><a xlink:href="boxnode_8h.html" target="_top" xlink:title="boxnode.h">
<polygon fill="none" stroke="black" points="100,-168.5 100,-187.5 162,-187.5 162,-168.5 100,-168.5"/>
<text text-anchor="middle" x="131" y="-175.5" font-family="Helvetica,sans-Serif" font-size="10.00">boxnode.h</text>
</a>
</g>
</g>
<!-- Node2&#45;&gt;Node6 -->
<g id="edge5" class="edge"><title>Node2&#45;&gt;Node6</title>
<path fill="none" stroke="midnightblue" d="M81.4794,-224.324C90.2011,-216.341 103.343,-204.313 113.898,-194.653"/>
<polygon fill="midnightblue" stroke="midnightblue" points="116.334,-197.167 121.348,-187.834 111.608,-192.004 116.334,-197.167"/>
</g>
<!-- Node5 -->
<g id="node5" class="node"><title>Node5</title>
<polygon fill="none" stroke="#bfbfbf" points="72,-0.5 72,-19.5 126,-19.5 126,-0.5 72,-0.5"/>
<text text-anchor="middle" x="99" y="-7.5" font-family="Helvetica,sans-Serif" font-size="10.00">iostream</text>
</g>
<!-- Node4&#45;&gt;Node5 -->
<g id="edge4" class="edge"><title>Node4&#45;&gt;Node5</title>
<path fill="none" stroke="midnightblue" d="M99,-56.083C99,-49.0059 99,-38.8611 99,-29.9865"/>
<polygon fill="midnightblue" stroke="midnightblue" points="102.5,-29.751 99,-19.7511 95.5001,-29.7511 102.5,-29.751"/>
</g>
<!-- Node7 -->
<g id="node7" class="node"><title>Node7</title>
<g id="a_node7"><a xlink:href="box_8h.html" target="_top" xlink:title="box.h">
<polygon fill="none" stroke="black" points="105.5,-112.5 105.5,-131.5 146.5,-131.5 146.5,-112.5 105.5,-112.5"/>
<text text-anchor="middle" x="126" y="-119.5" font-family="Helvetica,sans-Serif" font-size="10.00">box.h</text>
</a>
</g>
</g>
<!-- Node6&#45;&gt;Node7 -->
<g id="edge6" class="edge"><title>Node6&#45;&gt;Node7</title>
<path fill="none" stroke="midnightblue" d="M130.174,-168.083C129.519,-161.006 128.58,-150.861 127.758,-141.986"/>
<polygon fill="midnightblue" stroke="midnightblue" points="131.217,-141.386 126.81,-131.751 124.247,-142.031 131.217,-141.386"/>
</g>
<!-- Node7&#45;&gt;Node4 -->
<g id="edge7" class="edge"><title>Node7&#45;&gt;Node4</title>
<path fill="none" stroke="midnightblue" d="M121.541,-112.083C117.846,-104.691 112.477,-93.9533 107.906,-84.8111"/>
<polygon fill="midnightblue" stroke="midnightblue" points="110.978,-83.1301 103.376,-75.7511 104.717,-86.2606 110.978,-83.1301"/>
</g>
</g>
</svg>
