<?xml version="1.0" encoding="UTF-8" standalone="no"?>
<!DOCTYPE svg PUBLIC "-//W3C//DTD SVG 1.1//EN"
 "http://www.w3.org/Graphics/SVG/1.1/DTD/svg11.dtd">
<!-- Generated by graphviz version 2.38.0 (20140413.2041)
 -->
<!-- Title: loading.h Pages: 1 -->
<svg width="1126pt" height="196pt"
 viewBox="0.00 0.00 1126.00 196.00" xmlns="http://www.w3.org/2000/svg" xmlns:xlink="http://www.w3.org/1999/xlink">
<g id="graph0" class="graph" transform="scale(1 1) rotate(0) translate(4 192)">
<title>loading.h</title>
<!-- Node1 -->
<g id="node1" class="node"><title>Node1</title>
<polygon fill="#bfbfbf" stroke="black" points="397,-168.5 397,-187.5 453,-187.5 453,-168.5 397,-168.5"/>
<text text-anchor="middle" x="425" y="-175.5" font-family="Helvetica,sans-Serif" font-size="10.00">loading.h</text>
</g>
<!-- Node2 -->
<g id="node2" class="node"><title>Node2</title>
<polygon fill="none" stroke="#bfbfbf" points="0,-112.5 0,-131.5 72,-131.5 72,-112.5 0,-112.5"/>
<text text-anchor="middle" x="36" y="-119.5" font-family="Helvetica,sans-Serif" font-size="10.00">QApplication</text>
</g>
<!-- Node1&#45;&gt;Node2 -->
<g id="edge1" class="edge"><title>Node1&#45;&gt;Node2</title>
<path fill="none" stroke="midnightblue" d="M396.813,-173.964C339.509,-167.652 205.107,-152.139 82.2639,-132.117"/>
<polygon fill="midnightblue" stroke="midnightblue" points="82.7463,-128.649 72.3109,-130.48 81.6105,-135.556 82.7463,-128.649"/>
</g>
<!-- Node3 -->
<g id="node3" class="node"><title>Node3</title>
<polygon fill="none" stroke="#bfbfbf" points="90,-112.5 90,-131.5 188,-131.5 188,-112.5 90,-112.5"/>
<text text-anchor="middle" x="139" y="-119.5" font-family="Helvetica,sans-Serif" font-size="10.00">QDialogButtonBox</text>
</g>
<!-- Node1&#45;&gt;Node3 -->
<g id="edge2" class="edge"><title>Node1&#45;&gt;Node3</title>
<path fill="none" stroke="midnightblue" d="M396.795,-171.674C349.902,-162.821 255.075,-144.916 194.425,-133.465"/>
<polygon fill="midnightblue" stroke="midnightblue" points="194.734,-129.961 184.258,-131.545 193.435,-136.84 194.734,-129.961"/>
</g>
<!-- Node4 -->
<g id="node4" class="node"><title>Node4</title>
<polygon fill="none" stroke="#bfbfbf" points="206,-112.5 206,-131.5 274,-131.5 274,-112.5 206,-112.5"/>
<text text-anchor="middle" x="240" y="-119.5" font-family="Helvetica,sans-Serif" font-size="10.00">QGroupBox</text>
</g>
<!-- Node1&#45;&gt;Node4 -->
<g id="edge3" class="edge"><title>Node1&#45;&gt;Node4</title>
<path fill="none" stroke="midnightblue" d="M396.902,-168.799C365.531,-159.641 314.539,-144.757 279.241,-134.454"/>
<polygon fill="midnightblue" stroke="midnightblue" points="279.86,-130.989 269.28,-131.547 277.899,-137.709 279.86,-130.989"/>
</g>
<!-- Node5 -->
<g id="node5" class="node"><title>Node5</title>
<polygon fill="none" stroke="#bfbfbf" points="292.5,-112.5 292.5,-131.5 339.5,-131.5 339.5,-112.5 292.5,-112.5"/>
<text text-anchor="middle" x="316" y="-119.5" font-family="Helvetica,sans-Serif" font-size="10.00">QLabel</text>
</g>
<!-- Node1&#45;&gt;Node5 -->
<g id="edge4" class="edge"><title>Node1&#45;&gt;Node5</title>
<path fill="none" stroke="midnightblue" d="M407.487,-168.324C389.928,-159.625 362.669,-146.12 342.469,-136.113"/>
<polygon fill="midnightblue" stroke="midnightblue" points="343.984,-132.958 333.469,-131.655 340.876,-139.23 343.984,-132.958"/>
</g>
<!-- Node6 -->
<g id="node6" class="node"><title>Node6</title>
<polygon fill="none" stroke="#bfbfbf" points="357.5,-112.5 357.5,-131.5 410.5,-131.5 410.5,-112.5 357.5,-112.5"/>
<text text-anchor="middle" x="384" y="-119.5" font-family="Helvetica,sans-Serif" font-size="10.00">QObject</text>
</g>
<!-- Node1&#45;&gt;Node6 -->
<g id="edge5" class="edge"><title>Node1&#45;&gt;Node6</title>
<path fill="none" stroke="midnightblue" d="M418.23,-168.083C412.438,-160.455 403.942,-149.264 396.862,-139.941"/>
<polygon fill="midnightblue" stroke="midnightblue" points="399.479,-137.599 390.644,-131.751 393.904,-141.832 399.479,-137.599"/>
</g>
<!-- Node7 -->
<g id="node7" class="node"><title>Node7</title>
<polygon fill="none" stroke="#bfbfbf" points="428.5,-112.5 428.5,-131.5 503.5,-131.5 503.5,-112.5 428.5,-112.5"/>
<text text-anchor="middle" x="466" y="-119.5" font-family="Helvetica,sans-Serif" font-size="10.00">QPushButton</text>
</g>
<!-- Node1&#45;&gt;Node7 -->
<g id="edge6" class="edge"><title>Node1&#45;&gt;Node7</title>
<path fill="none" stroke="midnightblue" d="M431.77,-168.083C437.562,-160.455 446.058,-149.264 453.138,-139.941"/>
<polygon fill="midnightblue" stroke="midnightblue" points="456.096,-141.832 459.356,-131.751 450.521,-137.599 456.096,-141.832"/>
</g>
<!-- Node8 -->
<g id="node8" class="node"><title>Node8</title>
<polygon fill="none" stroke="#bfbfbf" points="522,-112.5 522,-131.5 600,-131.5 600,-112.5 522,-112.5"/>
<text text-anchor="middle" x="561" y="-119.5" font-family="Helvetica,sans-Serif" font-size="10.00">QRadioButton</text>
</g>
<!-- Node1&#45;&gt;Node8 -->
<g id="edge7" class="edge"><title>Node1&#45;&gt;Node8</title>
<path fill="none" stroke="midnightblue" d="M446.55,-168.444C469.031,-159.517 504.488,-145.439 529.98,-135.317"/>
<polygon fill="midnightblue" stroke="midnightblue" points="531.549,-138.46 539.551,-131.516 528.965,-131.954 531.549,-138.46"/>
</g>
<!-- Node9 -->
<g id="node9" class="node"><title>Node9</title>
<polygon fill="none" stroke="#bfbfbf" points="618.5,-112.5 618.5,-131.5 695.5,-131.5 695.5,-112.5 618.5,-112.5"/>
<text text-anchor="middle" x="657" y="-119.5" font-family="Helvetica,sans-Serif" font-size="10.00">QVBoxLayout</text>
</g>
<!-- Node1&#45;&gt;Node9 -->
<g id="edge8" class="edge"><title>Node1&#45;&gt;Node9</title>
<path fill="none" stroke="midnightblue" d="M453.448,-170.379C492.564,-161.274 563.434,-144.778 610.365,-133.855"/>
<polygon fill="midnightblue" stroke="midnightblue" points="611.341,-137.221 620.287,-131.545 609.754,-130.403 611.341,-137.221"/>
</g>
<!-- Node10 -->
<g id="node10" class="node"><title>Node10</title>
<polygon fill="none" stroke="#bfbfbf" points="713.5,-112.5 713.5,-131.5 768.5,-131.5 768.5,-112.5 713.5,-112.5"/>
<text text-anchor="middle" x="741" y="-119.5" font-family="Helvetica,sans-Serif" font-size="10.00">QWidget</text>
</g>
<!-- Node1&#45;&gt;Node10 -->
<g id="edge9" class="edge"><title>Node1&#45;&gt;Node10</title>
<path fill="none" stroke="midnightblue" d="M453.363,-173.26C502.405,-166.619 606.393,-151.764 703.2,-132.242"/>
<polygon fill="midnightblue" stroke="midnightblue" points="704.047,-135.641 713.146,-130.214 702.648,-128.782 704.047,-135.641"/>
</g>
<!-- Node11 -->
<g id="node11" class="node"><title>Node11</title>
<g id="a_node11"><a xlink:href="file_8h.html" target="_top" xlink:title="file.h">
<polygon fill="none" stroke="black" points="787,-112.5 787,-131.5 825,-131.5 825,-112.5 787,-112.5"/>
<text text-anchor="middle" x="806" y="-119.5" font-family="Helvetica,sans-Serif" font-size="10.00">file.h</text>
</a>
</g>
</g>
<!-- Node1&#45;&gt;Node11 -->
<g id="edge10" class="edge"><title>Node1&#45;&gt;Node11</title>
<path fill="none" stroke="midnightblue" d="M453.217,-175.175C511.934,-171.002 651.565,-159.121 777.07,-131.833"/>
<polygon fill="midnightblue" stroke="midnightblue" points="777.841,-135.248 786.848,-129.669 776.328,-128.413 777.841,-135.248"/>
</g>
<!-- Node12 -->
<g id="node12" class="node"><title>Node12</title>
<polygon fill="none" stroke="#bfbfbf" points="517,-56.5 517,-75.5 557,-75.5 557,-56.5 517,-56.5"/>
<text text-anchor="middle" x="537" y="-63.5" font-family="Helvetica,sans-Serif" font-size="10.00">QFile</text>
</g>
<!-- Node11&#45;&gt;Node12 -->
<g id="edge11" class="edge"><title>Node11&#45;&gt;Node12</title>
<path fill="none" stroke="midnightblue" d="M786.823,-114.438C783.887,-113.549 780.877,-112.703 778,-112 688.242,-90.0725 660.768,-97.6567 567.079,-75.9794"/>
<polygon fill="midnightblue" stroke="midnightblue" points="567.724,-72.5355 557.187,-73.6401 566.113,-79.3476 567.724,-72.5355"/>
</g>
<!-- Node13 -->
<g id="node13" class="node"><title>Node13</title>
<polygon fill="none" stroke="#bfbfbf" points="575,-56.5 575,-75.5 643,-75.5 643,-56.5 575,-56.5"/>
<text text-anchor="middle" x="609" y="-63.5" font-family="Helvetica,sans-Serif" font-size="10.00">QFileDialog</text>
</g>
<!-- Node11&#45;&gt;Node13 -->
<g id="edge12" class="edge"><title>Node11&#45;&gt;Node13</title>
<path fill="none" stroke="midnightblue" d="M786.76,-114.674C783.833,-113.753 780.842,-112.834 778,-112 735.708,-99.5813 687.036,-86.7765 652.82,-78.0171"/>
<polygon fill="midnightblue" stroke="midnightblue" points="653.684,-74.6256 643.13,-75.5456 651.954,-81.4085 653.684,-74.6256"/>
</g>
<!-- Node14 -->
<g id="node14" class="node"><title>Node14</title>
<polygon fill="none" stroke="#bfbfbf" points="661,-56.5 661,-75.5 711,-75.5 711,-56.5 661,-56.5"/>
<text text-anchor="middle" x="686" y="-63.5" font-family="Helvetica,sans-Serif" font-size="10.00">QString</text>
</g>
<!-- Node11&#45;&gt;Node14 -->
<g id="edge13" class="edge"><title>Node11&#45;&gt;Node14</title>
<path fill="none" stroke="midnightblue" d="M786.986,-112.444C767.412,-103.636 736.692,-89.8116 714.271,-79.722"/>
<polygon fill="midnightblue" stroke="midnightblue" points="715.481,-76.4284 704.925,-75.5164 712.608,-82.8119 715.481,-76.4284"/>
</g>
<!-- Node15 -->
<g id="node15" class="node"><title>Node15</title>
<polygon fill="none" stroke="#bfbfbf" points="729.5,-56.5 729.5,-75.5 794.5,-75.5 794.5,-56.5 729.5,-56.5"/>
<text text-anchor="middle" x="762" y="-63.5" font-family="Helvetica,sans-Serif" font-size="10.00">QStringList</text>
</g>
<!-- Node11&#45;&gt;Node15 -->
<g id="edge14" class="edge"><title>Node11&#45;&gt;Node15</title>
<path fill="none" stroke="midnightblue" d="M798.734,-112.083C792.455,-104.377 783.212,-93.0333 775.569,-83.6531"/>
<polygon fill="midnightblue" stroke="midnightblue" points="778.161,-81.2926 769.131,-75.7511 772.734,-85.7143 778.161,-81.2926"/>
</g>
<!-- Node16 -->
<g id="node16" class="node"><title>Node16</title>
<polygon fill="none" stroke="#bfbfbf" points="812.5,-56.5 812.5,-75.5 887.5,-75.5 887.5,-56.5 812.5,-56.5"/>
<text text-anchor="middle" x="850" y="-63.5" font-family="Helvetica,sans-Serif" font-size="10.00">QTextStream</text>
</g>
<!-- Node11&#45;&gt;Node16 -->
<g id="edge15" class="edge"><title>Node11&#45;&gt;Node16</title>
<path fill="none" stroke="midnightblue" d="M813.266,-112.083C819.545,-104.377 828.788,-93.0333 836.431,-83.6531"/>
<polygon fill="midnightblue" stroke="midnightblue" points="839.266,-85.7143 842.869,-75.7511 833.839,-81.2926 839.266,-85.7143"/>
</g>
<!-- Node17 -->
<g id="node17" class="node"><title>Node17</title>
<polygon fill="none" stroke="#bfbfbf" points="906,-56.5 906,-75.5 960,-75.5 960,-56.5 906,-56.5"/>
<text text-anchor="middle" x="933" y="-63.5" font-family="Helvetica,sans-Serif" font-size="10.00">iostream</text>
</g>
<!-- Node11&#45;&gt;Node17 -->
<g id="edge16" class="edge"><title>Node11&#45;&gt;Node17</title>
<path fill="none" stroke="midnightblue" d="M825.013,-112.916C845.691,-104.123 879.017,-89.9534 903.183,-79.6781"/>
<polygon fill="midnightblue" stroke="midnightblue" points="904.76,-82.8109 912.593,-75.677 902.021,-76.369 904.76,-82.8109"/>
</g>
<!-- Node18 -->
<g id="node18" class="node"><title>Node18</title>
<polygon fill="none" stroke="#bfbfbf" points="978.5,-56.5 978.5,-75.5 1019.5,-75.5 1019.5,-56.5 978.5,-56.5"/>
<text text-anchor="middle" x="999" y="-63.5" font-family="Helvetica,sans-Serif" font-size="10.00">string</text>
</g>
<!-- Node11&#45;&gt;Node18 -->
<g id="edge17" class="edge"><title>Node11&#45;&gt;Node18</title>
<path fill="none" stroke="midnightblue" d="M825.11,-115.871C853.988,-108.089 910.693,-92.6877 968.671,-76.0467"/>
<polygon fill="midnightblue" stroke="midnightblue" points="969.719,-79.387 978.361,-73.257 967.783,-72.6602 969.719,-79.387"/>
</g>
<!-- Node19 -->
<g id="node19" class="node"><title>Node19</title>
<g id="a_node19"><a xlink:href="myexception_8h.html" target="_top" xlink:title="myexception.h">
<polygon fill="none" stroke="black" points="1038,-56.5 1038,-75.5 1118,-75.5 1118,-56.5 1038,-56.5"/>
<text text-anchor="middle" x="1078" y="-63.5" font-family="Helvetica,sans-Serif" font-size="10.00">myexception.h</text>
</a>
</g>
</g>
<!-- Node11&#45;&gt;Node19 -->
<g id="edge18" class="edge"><title>Node11&#45;&gt;Node19</title>
<path fill="none" stroke="midnightblue" d="M825.127,-117.203C866.736,-108.942 966.631,-89.1101 1027.68,-76.9909"/>
<polygon fill="midnightblue" stroke="midnightblue" points="1028.73,-80.3492 1037.86,-74.9688 1027.37,-73.4832 1028.73,-80.3492"/>
</g>
<!-- Node20 -->
<g id="node20" class="node"><title>Node20</title>
<polygon fill="none" stroke="#bfbfbf" points="1048.5,-0.5 1048.5,-19.5 1107.5,-19.5 1107.5,-0.5 1048.5,-0.5"/>
<text text-anchor="middle" x="1078" y="-7.5" font-family="Helvetica,sans-Serif" font-size="10.00">exception</text>
</g>
<!-- Node19&#45;&gt;Node20 -->
<g id="edge19" class="edge"><title>Node19&#45;&gt;Node20</title>
<path fill="none" stroke="midnightblue" d="M1078,-56.083C1078,-49.0059 1078,-38.8611 1078,-29.9865"/>
<polygon fill="midnightblue" stroke="midnightblue" points="1081.5,-29.751 1078,-19.7511 1074.5,-29.7511 1081.5,-29.751"/>
</g>
</g>
</svg>
