<?xml version="1.0" encoding="UTF-8" standalone="no"?>
<!DOCTYPE svg PUBLIC "-//W3C//DTD SVG 1.1//EN"
 "http://www.w3.org/Graphics/SVG/1.1/DTD/svg11.dtd">
<!-- Generated by graphviz version 2.38.0 (20140413.2041)
 -->
<!-- Title: loading.h Pages: 1 -->
<svg width="845pt" height="140pt"
 viewBox="0.00 0.00 844.50 140.00" xmlns="http://www.w3.org/2000/svg" xmlns:xlink="http://www.w3.org/1999/xlink">
<g id="graph0" class="graph" transform="scale(1 1) rotate(0) translate(4 136)">
<title>loading.h</title>
<!-- Node1 -->
<g id="node1" class="node"><title>Node1</title>
<polygon fill="#bfbfbf" stroke="black" points="322,-112.5 322,-131.5 378,-131.5 378,-112.5 322,-112.5"/>
<text text-anchor="middle" x="350" y="-119.5" font-family="Helvetica,sans-Serif" font-size="10.00">loading.h</text>
</g>
<!-- Node2 -->
<g id="node2" class="node"><title>Node2</title>
<polygon fill="none" stroke="#bfbfbf" points="0,-56.5 0,-75.5 72,-75.5 72,-56.5 0,-56.5"/>
<text text-anchor="middle" x="36" y="-63.5" font-family="Helvetica,sans-Serif" font-size="10.00">QApplication</text>
</g>
<!-- Node1&#45;&gt;Node2 -->
<g id="edge1" class="edge"><title>Node1&#45;&gt;Node2</title>
<path fill="none" stroke="midnightblue" d="M321.677,-116.564C274.265,-109.074 175.603,-93.2082 82.222,-76.1804"/>
<polygon fill="midnightblue" stroke="midnightblue" points="82.7973,-72.7277 72.3304,-74.3686 81.5361,-79.6131 82.7973,-72.7277"/>
</g>
<!-- Node3 -->
<g id="node3" class="node"><title>Node3</title>
<polygon fill="none" stroke="#bfbfbf" points="90,-56.5 90,-75.5 158,-75.5 158,-56.5 90,-56.5"/>
<text text-anchor="middle" x="124" y="-63.5" font-family="Helvetica,sans-Serif" font-size="10.00">QGroupBox</text>
</g>
<!-- Node1&#45;&gt;Node3 -->
<g id="edge2" class="edge"><title>Node1&#45;&gt;Node3</title>
<path fill="none" stroke="midnightblue" d="M321.834,-114.27C283.221,-105.044 213.466,-88.3769 167.95,-77.5014"/>
<polygon fill="midnightblue" stroke="midnightblue" points="168.603,-74.0588 158.063,-75.1389 166.976,-80.8671 168.603,-74.0588"/>
</g>
<!-- Node4 -->
<g id="node4" class="node"><title>Node4</title>
<polygon fill="none" stroke="#bfbfbf" points="176.5,-56.5 176.5,-75.5 223.5,-75.5 223.5,-56.5 176.5,-56.5"/>
<text text-anchor="middle" x="200" y="-63.5" font-family="Helvetica,sans-Serif" font-size="10.00">QLabel</text>
</g>
<!-- Node1&#45;&gt;Node4 -->
<g id="edge3" class="edge"><title>Node1&#45;&gt;Node4</title>
<path fill="none" stroke="midnightblue" d="M326.232,-112.444C301.107,-103.399 261.289,-89.064 233.1,-78.9158"/>
<polygon fill="midnightblue" stroke="midnightblue" points="234.251,-75.6106 223.657,-75.5164 231.88,-82.1968 234.251,-75.6106"/>
</g>
<!-- Node5 -->
<g id="node5" class="node"><title>Node5</title>
<polygon fill="none" stroke="#bfbfbf" points="241.5,-56.5 241.5,-75.5 294.5,-75.5 294.5,-56.5 241.5,-56.5"/>
<text text-anchor="middle" x="268" y="-63.5" font-family="Helvetica,sans-Serif" font-size="10.00">QObject</text>
</g>
<!-- Node1&#45;&gt;Node5 -->
<g id="edge4" class="edge"><title>Node1&#45;&gt;Node5</title>
<path fill="none" stroke="midnightblue" d="M336.825,-112.324C324.153,-103.979 304.767,-91.2122 289.794,-81.3524"/>
<polygon fill="midnightblue" stroke="midnightblue" points="291.419,-78.2313 281.142,-75.6545 287.569,-84.0776 291.419,-78.2313"/>
</g>
<!-- Node6 -->
<g id="node6" class="node"><title>Node6</title>
<polygon fill="none" stroke="#bfbfbf" points="312.5,-56.5 312.5,-75.5 387.5,-75.5 387.5,-56.5 312.5,-56.5"/>
<text text-anchor="middle" x="350" y="-63.5" font-family="Helvetica,sans-Serif" font-size="10.00">QPushButton</text>
</g>
<!-- Node1&#45;&gt;Node6 -->
<g id="edge5" class="edge"><title>Node1&#45;&gt;Node6</title>
<path fill="none" stroke="midnightblue" d="M350,-112.083C350,-105.006 350,-94.8611 350,-85.9865"/>
<polygon fill="midnightblue" stroke="midnightblue" points="353.5,-85.751 350,-75.7511 346.5,-85.7511 353.5,-85.751"/>
</g>
<!-- Node7 -->
<g id="node7" class="node"><title>Node7</title>
<polygon fill="none" stroke="#bfbfbf" points="406,-56.5 406,-75.5 484,-75.5 484,-56.5 406,-56.5"/>
<text text-anchor="middle" x="445" y="-63.5" font-family="Helvetica,sans-Serif" font-size="10.00">QRadioButton</text>
</g>
<!-- Node1&#45;&gt;Node7 -->
<g id="edge6" class="edge"><title>Node1&#45;&gt;Node7</title>
<path fill="none" stroke="midnightblue" d="M365.263,-112.324C380.221,-103.822 403.255,-90.7288 420.727,-80.7975"/>
<polygon fill="midnightblue" stroke="midnightblue" points="422.81,-83.639 429.774,-75.6545 419.351,-77.5534 422.81,-83.639"/>
</g>
<!-- Node8 -->
<g id="node8" class="node"><title>Node8</title>
<polygon fill="none" stroke="#bfbfbf" points="502.5,-56.5 502.5,-75.5 579.5,-75.5 579.5,-56.5 502.5,-56.5"/>
<text text-anchor="middle" x="541" y="-63.5" font-family="Helvetica,sans-Serif" font-size="10.00">QVBoxLayout</text>
</g>
<!-- Node1&#45;&gt;Node8 -->
<g id="edge7" class="edge"><title>Node1&#45;&gt;Node8</title>
<path fill="none" stroke="midnightblue" d="M378.183,-113.032C410.622,-103.861 464.145,-88.7286 500.913,-78.3334"/>
<polygon fill="midnightblue" stroke="midnightblue" points="502.137,-81.6246 510.808,-75.536 500.233,-74.8886 502.137,-81.6246"/>
</g>
<!-- Node9 -->
<g id="node9" class="node"><title>Node9</title>
<polygon fill="none" stroke="#bfbfbf" points="597.5,-56.5 597.5,-75.5 652.5,-75.5 652.5,-56.5 597.5,-56.5"/>
<text text-anchor="middle" x="625" y="-63.5" font-family="Helvetica,sans-Serif" font-size="10.00">QWidget</text>
</g>
<!-- Node1&#45;&gt;Node9 -->
<g id="edge8" class="edge"><title>Node1&#45;&gt;Node9</title>
<path fill="none" stroke="midnightblue" d="M378.072,-116.267C421.095,-108.893 506.126,-93.8514 587.258,-76.293"/>
<polygon fill="midnightblue" stroke="midnightblue" points="588.106,-79.6905 597.13,-74.1396 586.614,-72.8513 588.106,-79.6905"/>
</g>
<!-- Node10 -->
<g id="node10" class="node"><title>Node10</title>
<g id="a_node10"><a xlink:href="file_8h.html" target="_top" xlink:title="file.h">
<polygon fill="none" stroke="black" points="671,-56.5 671,-75.5 709,-75.5 709,-56.5 671,-56.5"/>
<text text-anchor="middle" x="690" y="-63.5" font-family="Helvetica,sans-Serif" font-size="10.00">file.h</text>
</a>
</g>
</g>
<!-- Node1&#45;&gt;Node10 -->
<g id="edge9" class="edge"><title>Node1&#45;&gt;Node10</title>
<path fill="none" stroke="midnightblue" d="M378.26,-118.527C431.753,-113.504 551.532,-100.629 660.961,-75.8984"/>
<polygon fill="midnightblue" stroke="midnightblue" points="661.878,-79.2791 670.839,-73.6267 660.309,-72.4571 661.878,-79.2791"/>
</g>
<!-- Node11 -->
<g id="node11" class="node"><title>Node11</title>
<polygon fill="none" stroke="#bfbfbf" points="559,-0.5 559,-19.5 599,-19.5 599,-0.5 559,-0.5"/>
<text text-anchor="middle" x="579" y="-7.5" font-family="Helvetica,sans-Serif" font-size="10.00">QFile</text>
</g>
<!-- Node10&#45;&gt;Node11 -->
<g id="edge10" class="edge"><title>Node10&#45;&gt;Node11</title>
<path fill="none" stroke="midnightblue" d="M672.166,-56.324C654.284,-47.6247 626.525,-34.1202 605.954,-24.113"/>
<polygon fill="midnightblue" stroke="midnightblue" points="607.313,-20.8819 596.79,-19.6545 604.251,-27.1765 607.313,-20.8819"/>
</g>
<!-- Node12 -->
<g id="node12" class="node"><title>Node12</title>
<polygon fill="none" stroke="#bfbfbf" points="617,-0.5 617,-19.5 685,-19.5 685,-0.5 617,-0.5"/>
<text text-anchor="middle" x="651" y="-7.5" font-family="Helvetica,sans-Serif" font-size="10.00">QFileDialog</text>
</g>
<!-- Node10&#45;&gt;Node12 -->
<g id="edge11" class="edge"><title>Node10&#45;&gt;Node12</title>
<path fill="none" stroke="midnightblue" d="M683.56,-56.083C678.051,-48.4554 669.969,-37.2645 663.235,-27.9408"/>
<polygon fill="midnightblue" stroke="midnightblue" points="666.013,-25.8087 657.32,-19.7511 660.338,-29.9071 666.013,-25.8087"/>
</g>
<!-- Node13 -->
<g id="node13" class="node"><title>Node13</title>
<polygon fill="none" stroke="#bfbfbf" points="703,-0.5 703,-19.5 753,-19.5 753,-0.5 703,-0.5"/>
<text text-anchor="middle" x="728" y="-7.5" font-family="Helvetica,sans-Serif" font-size="10.00">QString</text>
</g>
<!-- Node10&#45;&gt;Node13 -->
<g id="edge12" class="edge"><title>Node10&#45;&gt;Node13</title>
<path fill="none" stroke="midnightblue" d="M696.275,-56.083C701.642,-48.4554 709.518,-37.2645 716.079,-27.9408"/>
<polygon fill="midnightblue" stroke="midnightblue" points="718.949,-29.9434 721.842,-19.7511 713.225,-25.9149 718.949,-29.9434"/>
</g>
<!-- Node14 -->
<g id="node14" class="node"><title>Node14</title>
<polygon fill="none" stroke="#bfbfbf" points="771.5,-0.5 771.5,-19.5 836.5,-19.5 836.5,-0.5 771.5,-0.5"/>
<text text-anchor="middle" x="804" y="-7.5" font-family="Helvetica,sans-Serif" font-size="10.00">QStringList</text>
</g>
<!-- Node10&#45;&gt;Node14 -->
<g id="edge13" class="edge"><title>Node10&#45;&gt;Node14</title>
<path fill="none" stroke="midnightblue" d="M708.064,-56.4435C726.575,-47.6751 755.581,-33.9355 776.855,-23.8579"/>
<polygon fill="midnightblue" stroke="midnightblue" points="778.482,-26.9604 786.021,-19.5164 775.485,-20.6343 778.482,-26.9604"/>
</g>
</g>
</svg>
