<?xml version="1.0" encoding="UTF-8" standalone="no"?>
<!DOCTYPE svg PUBLIC "-//W3C//DTD SVG 1.1//EN"
 "http://www.w3.org/Graphics/SVG/1.1/DTD/svg11.dtd">
<!-- Generated by graphviz version 2.38.0 (20140413.2041)
 -->
<!-- Title: loading.h Pages: 1 -->
<svg width="225pt" height="140pt"
 viewBox="0.00 0.00 225.00 140.00" xmlns="http://www.w3.org/2000/svg" xmlns:xlink="http://www.w3.org/1999/xlink">
<g id="graph0" class="graph" transform="scale(1 1) rotate(0) translate(4 136)">
<title>loading.h</title>
<!-- Node1 -->
<g id="node1" class="node"><title>Node1</title>
<polygon fill="#bfbfbf" stroke="black" points="51,-112.5 51,-131.5 107,-131.5 107,-112.5 51,-112.5"/>
<text text-anchor="middle" x="79" y="-119.5" font-family="Helvetica,sans-Serif" font-size="10.00">loading.h</text>
</g>
<!-- Node2 -->
<g id="node2" class="node"><title>Node2</title>
<g id="a_node2"><a xlink:href="loading_8cpp.html" target="_top" xlink:title="loading.cpp">
<polygon fill="none" stroke="black" points="0,-56.5 0,-75.5 66,-75.5 66,-56.5 0,-56.5"/>
<text text-anchor="middle" x="33" y="-63.5" font-family="Helvetica,sans-Serif" font-size="10.00">loading.cpp</text>
</a>
</g>
</g>
<!-- Node1&#45;&gt;Node2 -->
<g id="edge1" class="edge"><title>Node1&#45;&gt;Node2</title>
<path fill="none" stroke="midnightblue" d="M64.886,-104.431C56.824,-94.9673 47.0408,-83.4827 40.4546,-75.7511"/>
<polygon fill="midnightblue" stroke="midnightblue" points="62.255,-106.74 71.404,-112.083 67.5837,-102.201 62.255,-106.74"/>
</g>
<!-- Node3 -->
<g id="node3" class="node"><title>Node3</title>
<g id="a_node3"><a xlink:href="_main_window_8h.html" target="_top" xlink:title="MainWindow.h">
<polygon fill="none" stroke="black" points="84.5,-56.5 84.5,-75.5 165.5,-75.5 165.5,-56.5 84.5,-56.5"/>
<text text-anchor="middle" x="125" y="-63.5" font-family="Helvetica,sans-Serif" font-size="10.00">MainWindow.h</text>
</a>
</g>
</g>
<!-- Node1&#45;&gt;Node3 -->
<g id="edge2" class="edge"><title>Node1&#45;&gt;Node3</title>
<path fill="none" stroke="midnightblue" d="M93.114,-104.431C101.176,-94.9673 110.959,-83.4827 117.545,-75.7511"/>
<polygon fill="midnightblue" stroke="midnightblue" points="90.4163,-102.201 86.596,-112.083 95.745,-106.74 90.4163,-102.201"/>
</g>
<!-- Node4 -->
<g id="node4" class="node"><title>Node4</title>
<g id="a_node4"><a xlink:href="main_8cpp.html" target="_top" xlink:title="main.cpp">
<polygon fill="none" stroke="black" points="51,-0.5 51,-19.5 107,-19.5 107,-0.5 51,-0.5"/>
<text text-anchor="middle" x="79" y="-7.5" font-family="Helvetica,sans-Serif" font-size="10.00">main.cpp</text>
</a>
</g>
</g>
<!-- Node3&#45;&gt;Node4 -->
<g id="edge3" class="edge"><title>Node3&#45;&gt;Node4</title>
<path fill="none" stroke="midnightblue" d="M110.886,-48.4314C102.824,-38.9673 93.0408,-27.4827 86.4546,-19.7511"/>
<polygon fill="midnightblue" stroke="midnightblue" points="108.255,-50.7402 117.404,-56.083 113.584,-46.2009 108.255,-50.7402"/>
</g>
<!-- Node5 -->
<g id="node5" class="node"><title>Node5</title>
<g id="a_node5"><a xlink:href="_main_window_8cpp.html" target="_top" xlink:title="MainWindow.cpp">
<polygon fill="none" stroke="black" points="125,-0.5 125,-19.5 217,-19.5 217,-0.5 125,-0.5"/>
<text text-anchor="middle" x="171" y="-7.5" font-family="Helvetica,sans-Serif" font-size="10.00">MainWindow.cpp</text>
</a>
</g>
</g>
<!-- Node3&#45;&gt;Node5 -->
<g id="edge4" class="edge"><title>Node3&#45;&gt;Node5</title>
<path fill="none" stroke="midnightblue" d="M139.114,-48.4314C147.176,-38.9673 156.959,-27.4827 163.545,-19.7511"/>
<polygon fill="midnightblue" stroke="midnightblue" points="136.416,-46.2009 132.596,-56.083 141.745,-50.7402 136.416,-46.2009"/>
</g>
</g>
</svg>
