<?xml version="1.0" encoding="UTF-8" standalone="no"?>
<!DOCTYPE svg PUBLIC "-//W3C//DTD SVG 1.1//EN"
 "http://www.w3.org/Graphics/SVG/1.1/DTD/svg11.dtd">
<!-- Generated by graphviz version 2.38.0 (20140413.2041)
 -->
<!-- Title: main Pages: 1 -->
<!--zoomable 313 -->
<svg id="main" version="1.1" xmlns="http://www.w3.org/2000/svg" xmlns:xlink="http://www.w3.org/1999/xlink" xml:space="preserve" onload="init(evt)">
<style type="text/css"><![CDATA[
.edge:hover path { stroke: red; }
.edge:hover polygon { stroke: red; fill: red; }
]]></style>
<script type="text/javascript"><![CDATA[
var edges = document.getElementsByTagName('g');
if (edges && edges.length) {
  for (var i=0;i<edges.length;i++) {
    if (edges[i].id.substr(0,4)=='edge') {
      edges[i].setAttribute('class','edge');
    }
  }
}
]]></script>
        <defs>
                <circle id="rim" cx="0" cy="0" r="7"/>
                <circle id="rim2" cx="0" cy="0" r="3.5"/>
                <g id="zoomPlus">
                        <use xlink:href="#rim" fill="#404040">
                                <set attributeName="fill" to="#808080" begin="zoomplus.mouseover" end="zoomplus.mouseout"/>
                        </use>
                        <path d="M-4,0h8M0,-4v8" fill="none" stroke="white" stroke-width="1.5" pointer-events="none"/>
                </g>
                <g id="zoomMin">
                        <use xlink:href="#rim" fill="#404040">
                                <set attributeName="fill" to="#808080" begin="zoomminus.mouseover" end="zoomminus.mouseout"/>
                        </use>
                        <path d="M-4,0h8" fill="none" stroke="white" stroke-width="1.5" pointer-events="none"/>
                </g>
                <g id="dirArrow">
                        <path fill="none" stroke="white" stroke-width="1.5" d="M0,-3.0v7 M-2.5,-0.5L0,-3.0L2.5,-0.5"/>
                </g>
               <g id="resetDef">
                       <use xlink:href="#rim2" fill="#404040">
                               <set attributeName="fill" to="#808080" begin="reset.mouseover" end="reset.mouseout"/>
                       </use>
               </g>
        </defs>

<script type="text/javascript">
var viewWidth = 969;
var viewHeight = 313;
var sectionId = 'dynsection-7';
</script>
<script xlink:href="svgpan.js"/>
<svg id="graph" class="graph">
<g id="viewport">
<title>main</title>
<!-- Node1 -->
<g id="node1" class="node"><title>Node1</title>
<polygon fill="#bfbfbf" stroke="black" points="0,-114.5 0,-133.5 38,-133.5 38,-114.5 0,-114.5"/>
<text text-anchor="middle" x="19" y="-121.5" font-family="Helvetica,sans-Serif" font-size="10.00">main</text>
</g>
<!-- Node2 -->
<g id="node2" class="node"><title>Node2</title>
<g id="a_node2"><a xlink:href="main_8cpp.html#a9dd67c19acf7317c6296b63e29dcfab9" target="_top" xlink:title="dev_thread">
<polygon fill="none" stroke="black" points="74,-133.5 74,-152.5 139,-152.5 139,-133.5 74,-133.5"/>
<text text-anchor="middle" x="106.5" y="-140.5" font-family="Helvetica,sans-Serif" font-size="10.00">dev_thread</text>
</a>
</g>
</g>
<!-- Node1&#45;&gt;Node2 -->
<g id="edge1" class="edge"><title>Node1&#45;&gt;Node2</title>
<path fill="none" stroke="midnightblue" d="M38.1324,-128.029C45.764,-129.725 54.9834,-131.774 64.1194,-133.804"/>
<polygon fill="midnightblue" stroke="midnightblue" points="63.3999,-137.23 73.921,-135.982 64.9185,-130.396 63.3999,-137.23"/>
</g>
<!-- Node26 -->
<g id="node26" class="node"><title>Node26</title>
<g id="a_node26"><a xlink:href="main_8cpp.html#af1ae2a39d3963d837f4b3a851eb17170" target="_top" xlink:title="dev_ui2">
<polygon fill="none" stroke="black" points="81.5,-95.5 81.5,-114.5 131.5,-114.5 131.5,-95.5 81.5,-95.5"/>
<text text-anchor="middle" x="106.5" y="-102.5" font-family="Helvetica,sans-Serif" font-size="10.00">dev_ui2</text>
</a>
</g>
</g>
<!-- Node1&#45;&gt;Node26 -->
<g id="edge26" class="edge"><title>Node1&#45;&gt;Node26</title>
<path fill="none" stroke="midnightblue" d="M38.1324,-119.971C47.7401,-117.836 59.8643,-115.141 71.1704,-112.629"/>
<polygon fill="midnightblue" stroke="midnightblue" points="72.2252,-115.98 81.2278,-110.394 70.7067,-109.147 72.2252,-115.98"/>
</g>
<!-- Node3 -->
<g id="node3" class="node"><title>Node3</title>
<g id="a_node3"><a xlink:href="class_solver.html#a97bc7169c18b339fecd4937150f907c3" target="_top" xlink:title="Solver::start">
<polygon fill="none" stroke="black" points="205.5,-171.5 205.5,-190.5 275.5,-190.5 275.5,-171.5 205.5,-171.5"/>
<text text-anchor="middle" x="240.5" y="-178.5" font-family="Helvetica,sans-Serif" font-size="10.00">Solver::start</text>
</a>
</g>
</g>
<!-- Node2&#45;&gt;Node3 -->
<g id="edge2" class="edge"><title>Node2&#45;&gt;Node3</title>
<path fill="none" stroke="midnightblue" d="M139.117,-152.102C156.315,-157.053 177.833,-163.247 196.532,-168.63"/>
<polygon fill="midnightblue" stroke="midnightblue" points="195.721,-172.039 206.299,-171.442 197.657,-165.312 195.721,-172.039"/>
</g>
<!-- Node24 -->
<g id="node24" class="node"><title>Node24</title>
<g id="a_node24"><a xlink:href="class_controller.html#ab8e345d91e901e46e0ad42a0b75ef94c" target="_top" xlink:title="Controller::addSolver">
<polygon fill="none" stroke="black" points="186.5,-133.5 186.5,-152.5 294.5,-152.5 294.5,-133.5 186.5,-133.5"/>
<text text-anchor="middle" x="240.5" y="-140.5" font-family="Helvetica,sans-Serif" font-size="10.00">Controller::addSolver</text>
</a>
</g>
</g>
<!-- Node2&#45;&gt;Node24 -->
<g id="edge24" class="edge"><title>Node2&#45;&gt;Node24</title>
<path fill="none" stroke="midnightblue" d="M139.117,-143C150.311,-143 163.336,-143 176.222,-143"/>
<polygon fill="midnightblue" stroke="midnightblue" points="176.49,-146.5 186.49,-143 176.489,-139.5 176.49,-146.5"/>
</g>
<!-- Node25 -->
<g id="node25" class="node"><title>Node25</title>
<g id="a_node25"><a xlink:href="class_controller.html#aa92b9a18a88aeb59c53272c3beab2724" target="_top" xlink:title="Controller::connectSignals">
<polygon fill="none" stroke="black" points="175,-95.5 175,-114.5 306,-114.5 306,-95.5 175,-95.5"/>
<text text-anchor="middle" x="240.5" y="-102.5" font-family="Helvetica,sans-Serif" font-size="10.00">Controller::connectSignals</text>
</a>
</g>
</g>
<!-- Node2&#45;&gt;Node25 -->
<g id="edge25" class="edge"><title>Node2&#45;&gt;Node25</title>
<path fill="none" stroke="midnightblue" d="M139.117,-133.898C156.315,-128.947 177.833,-122.753 196.532,-117.37"/>
<polygon fill="midnightblue" stroke="midnightblue" points="197.657,-120.688 206.299,-114.558 195.721,-113.961 197.657,-120.688"/>
</g>
<!-- Node4 -->
<g id="node4" class="node"><title>Node4</title>
<g id="a_node4"><a xlink:href="class_track.html#aff258a8c303ee8a09a962d237f3823e7" target="_top" xlink:title="Reads a csv file and inserts each point in m_points vector. ">
<polygon fill="none" stroke="black" points="352.5,-266.5 352.5,-285.5 462.5,-285.5 462.5,-266.5 352.5,-266.5"/>
<text text-anchor="middle" x="407.5" y="-273.5" font-family="Helvetica,sans-Serif" font-size="10.00">Track::readFromCSV</text>
</a>
</g>
</g>
<!-- Node3&#45;&gt;Node4 -->
<g id="edge3" class="edge"><title>Node3&#45;&gt;Node4</title>
<path fill="none" stroke="midnightblue" d="M251.507,-190.574C268.684,-206.52 305.473,-238.585 342,-257 346.51,-259.274 351.338,-261.322 356.247,-263.155"/>
<polygon fill="midnightblue" stroke="midnightblue" points="355.132,-266.473 365.727,-266.419 357.411,-259.854 355.132,-266.473"/>
</g>
<!-- Node8 -->
<g id="node8" class="node"><title>Node8</title>
<g id="a_node8"><a xlink:href="class_track.html#ad262a30c2abcd29cf4cdc04facd290ee" target="_top" xlink:title="Track::getPointsAsPointer">
<polygon fill="none" stroke="black" points="342,-228.5 342,-247.5 473,-247.5 473,-228.5 342,-228.5"/>
<text text-anchor="middle" x="407.5" y="-235.5" font-family="Helvetica,sans-Serif" font-size="10.00">Track::getPointsAsPointer</text>
</a>
</g>
</g>
<!-- Node3&#45;&gt;Node8 -->
<g id="edge7" class="edge"><title>Node3&#45;&gt;Node8</title>
<path fill="none" stroke="midnightblue" d="M265.28,-190.568C285.53,-198.577 315.475,-210.093 342,-219 348.543,-221.197 355.504,-223.393 362.341,-225.471"/>
<polygon fill="midnightblue" stroke="midnightblue" points="361.623,-228.909 372.207,-228.417 363.627,-222.202 361.623,-228.909"/>
</g>
<!-- Node9 -->
<g id="node9" class="node"><title>Node9</title>
<g id="a_node9"><a xlink:href="class_track.html#abf3b02de2c94d38c6a79b7c932aa6c5b" target="_top" xlink:title="Return a string containing information about the content of this object. ">
<polygon fill="none" stroke="black" points="373.5,-190.5 373.5,-209.5 441.5,-209.5 441.5,-190.5 373.5,-190.5"/>
<text text-anchor="middle" x="407.5" y="-197.5" font-family="Helvetica,sans-Serif" font-size="10.00">Track::infos</text>
</a>
</g>
</g>
<!-- Node3&#45;&gt;Node9 -->
<g id="edge8" class="edge"><title>Node3&#45;&gt;Node9</title>
<path fill="none" stroke="midnightblue" d="M275.688,-184.937C301.133,-187.867 336.045,-191.887 363.402,-195.037"/>
<polygon fill="midnightblue" stroke="midnightblue" points="363.147,-198.531 373.482,-196.198 363.948,-191.577 363.147,-198.531"/>
</g>
<!-- Node10 -->
<g id="node10" class="node"><title>Node10</title>
<g id="a_node10"><a xlink:href="class_grid.html#ae848f1c59c544adc1af9133409ee0106" target="_top" xlink:title="Reads a csv file and inserts info into the corresponding attributs. ">
<polygon fill="none" stroke="black" points="356,-152.5 356,-171.5 459,-171.5 459,-152.5 356,-152.5"/>
<text text-anchor="middle" x="407.5" y="-159.5" font-family="Helvetica,sans-Serif" font-size="10.00">Grid::readFromCSV</text>
</a>
</g>
</g>
<!-- Node3&#45;&gt;Node10 -->
<g id="edge9" class="edge"><title>Node3&#45;&gt;Node10</title>
<path fill="none" stroke="midnightblue" d="M275.688,-177.063C295.924,-174.733 322.147,-171.713 345.796,-168.99"/>
<polygon fill="midnightblue" stroke="midnightblue" points="346.215,-172.465 355.748,-167.844 345.414,-165.511 346.215,-172.465"/>
</g>
<!-- Node21 -->
<g id="node21" class="node"><title>Node21</title>
<g id="a_node21"><a xlink:href="class_grid.html#a37103de283959ce994c5c76113b7b033" target="_top" xlink:title="Grid::infos">
<polygon fill="none" stroke="black" points="376.5,-114.5 376.5,-133.5 438.5,-133.5 438.5,-114.5 376.5,-114.5"/>
<text text-anchor="middle" x="407.5" y="-121.5" font-family="Helvetica,sans-Serif" font-size="10.00">Grid::infos</text>
</a>
</g>
</g>
<!-- Node3&#45;&gt;Node21 -->
<g id="edge21" class="edge"><title>Node3&#45;&gt;Node21</title>
<path fill="none" stroke="midnightblue" d="M275.745,-172.287C285.647,-169.4 296.375,-165.912 306,-162 322.76,-155.188 325.24,-149.812 342,-143 349.765,-139.844 358.249,-136.963 366.437,-134.452"/>
<polygon fill="midnightblue" stroke="midnightblue" points="367.603,-137.758 376.21,-131.579 365.629,-131.042 367.603,-137.758"/>
</g>
<!-- Node22 -->
<g id="node22" class="node"><title>Node22</title>
<g id="a_node22"><a xlink:href="class_grid.html#aea292f48c96b2e9d1abee08040cd3833" target="_top" xlink:title="buildMarkovMatrix ">
<polygon fill="none" stroke="black" points="347.5,-76.5 347.5,-95.5 467.5,-95.5 467.5,-76.5 347.5,-76.5"/>
<text text-anchor="middle" x="407.5" y="-83.5" font-family="Helvetica,sans-Serif" font-size="10.00">Grid::buildMarkovMatrix</text>
</a>
</g>
</g>
<!-- Node3&#45;&gt;Node22 -->
<g id="edge22" class="edge"><title>Node3&#45;&gt;Node22</title>
<path fill="none" stroke="midnightblue" d="M275.779,-175.75C286.222,-172.933 297.244,-168.614 306,-162 329.908,-143.939 318.092,-123.061 342,-105 344.481,-103.125 347.145,-101.435 349.926,-99.9113"/>
<polygon fill="midnightblue" stroke="midnightblue" points="351.564,-103.009 359.127,-95.5884 348.588,-96.673 351.564,-103.009"/>
</g>
<!-- Node5 -->
<g id="node5" class="node"><title>Node5</title>
<g id="a_node5"><a xlink:href="class_track.html#ab0315e74b9b49e40d163a2ff978d833c" target="_top" xlink:title="Creates a new point and inserts it in m_points. ">
<polygon fill="none" stroke="black" points="537,-285.5 537,-304.5 623,-304.5 623,-285.5 537,-285.5"/>
<text text-anchor="middle" x="580" y="-292.5" font-family="Helvetica,sans-Serif" font-size="10.00">Track::addPoint</text>
</a>
</g>
</g>
<!-- Node4&#45;&gt;Node5 -->
<g id="edge4" class="edge"><title>Node4&#45;&gt;Node5</title>
<path fill="none" stroke="midnightblue" d="M462.916,-282.064C483.425,-284.349 506.687,-286.942 526.972,-289.202"/>
<polygon fill="midnightblue" stroke="midnightblue" points="526.646,-292.687 536.972,-290.317 527.421,-285.73 526.646,-292.687"/>
</g>
<!-- Node7 -->
<g id="node7" class="node"><title>Node7</title>
<g id="a_node7"><a xlink:href="class_track.html#aac5002af6aa69a20101a5709dbbebc82" target="_top" xlink:title="Apply a threshold to bounding box once the data file has been read. ">
<polygon fill="none" stroke="black" points="509,-247.5 509,-266.5 651,-266.5 651,-247.5 509,-247.5"/>
<text text-anchor="middle" x="580" y="-254.5" font-family="Helvetica,sans-Serif" font-size="10.00">Track::applyThresholdToBox</text>
</a>
</g>
</g>
<!-- Node4&#45;&gt;Node7 -->
<g id="edge6" class="edge"><title>Node4&#45;&gt;Node7</title>
<path fill="none" stroke="midnightblue" d="M462.916,-269.936C474.337,-268.663 486.611,-267.296 498.749,-265.943"/>
<polygon fill="midnightblue" stroke="midnightblue" points="499.341,-269.399 508.892,-264.813 498.566,-262.442 499.341,-269.399"/>
</g>
<!-- Node6 -->
<g id="node6" class="node"><title>Node6</title>
<g id="a_node6"><a xlink:href="class_track.html#af947410651d847174d7b18d8e9df9ca7" target="_top" xlink:title="Update the enclosing box of the track. ">
<polygon fill="none" stroke="black" points="721,-285.5 721,-304.5 815,-304.5 815,-285.5 721,-285.5"/>
<text text-anchor="middle" x="768" y="-292.5" font-family="Helvetica,sans-Serif" font-size="10.00">Track::updateBox</text>
</a>
</g>
</g>
<!-- Node5&#45;&gt;Node6 -->
<g id="edge5" class="edge"><title>Node5&#45;&gt;Node6</title>
<path fill="none" stroke="midnightblue" d="M623.206,-295C649.076,-295 682.51,-295 710.627,-295"/>
<polygon fill="midnightblue" stroke="midnightblue" points="710.722,-298.5 720.722,-295 710.722,-291.5 710.722,-298.5"/>
</g>
<!-- Node11 -->
<g id="node11" class="node"><title>Node11</title>
<g id="a_node11"><a xlink:href="class_grid.html#a6b6af4fb2545b398b47794de576f15f5" target="_top" xlink:title="Test if a point is in the defined area of a track. ">
<polygon fill="none" stroke="black" points="536,-190.5 536,-209.5 624,-209.5 624,-190.5 536,-190.5"/>
<text text-anchor="middle" x="580" y="-197.5" font-family="Helvetica,sans-Serif" font-size="10.00">Grid::inFootPrint</text>
</a>
</g>
</g>
<!-- Node10&#45;&gt;Node11 -->
<g id="edge10" class="edge"><title>Node10&#45;&gt;Node11</title>
<path fill="none" stroke="midnightblue" d="M451.524,-171.589C474.226,-176.649 502.273,-182.9 526.274,-188.249"/>
<polygon fill="midnightblue" stroke="midnightblue" points="525.763,-191.721 536.285,-190.48 527.286,-184.888 525.763,-191.721"/>
</g>
<!-- Node12 -->
<g id="node12" class="node"><title>Node12</title>
<g id="a_node12"><a xlink:href="class_grid.html#a58233ab60f7477144af334f205606aa4" target="_top" xlink:title="Find max and min of the grid. ">
<polygon fill="none" stroke="black" points="536,-152.5 536,-171.5 624,-171.5 624,-152.5 536,-152.5"/>
<text text-anchor="middle" x="580" y="-159.5" font-family="Helvetica,sans-Serif" font-size="10.00">Grid::updateGrid</text>
</a>
</g>
</g>
<!-- Node10&#45;&gt;Node12 -->
<g id="edge11" class="edge"><title>Node10&#45;&gt;Node12</title>
<path fill="none" stroke="midnightblue" d="M459.194,-162C480.199,-162 504.573,-162 525.831,-162"/>
<polygon fill="midnightblue" stroke="midnightblue" points="525.989,-165.5 535.989,-162 525.989,-158.5 525.989,-165.5"/>
</g>
<!-- Node13 -->
<g id="node13" class="node"><title>Node13</title>
<g id="a_node13"><a xlink:href="class_grid.html#aba1830bc145f128d6deeed29cfb94c9f" target="_top" xlink:title="Creates a new road and inserts it in m_road. ">
<polygon fill="none" stroke="black" points="540,-114.5 540,-133.5 620,-133.5 620,-114.5 540,-114.5"/>
<text text-anchor="middle" x="580" y="-121.5" font-family="Helvetica,sans-Serif" font-size="10.00">Grid::addRoad</text>
</a>
</g>
</g>
<!-- Node10&#45;&gt;Node13 -->
<g id="edge12" class="edge"><title>Node10&#45;&gt;Node13</title>
<path fill="none" stroke="midnightblue" d="M451.524,-152.411C475.368,-147.097 505.108,-140.469 529.864,-134.951"/>
<polygon fill="midnightblue" stroke="midnightblue" points="530.784,-138.332 539.784,-132.74 529.262,-131.5 530.784,-138.332"/>
</g>
<!-- Node14 -->
<g id="node14" class="node"><title>Node14</title>
<g id="a_node14"><a xlink:href="class_point_road.html#aa1b90c3fdf8ae7a1fcd8ce6182d13287" target="_top" xlink:title="PointRoad::outputInfos">
<polygon fill="none" stroke="black" points="709.5,-228.5 709.5,-247.5 826.5,-247.5 826.5,-228.5 709.5,-228.5"/>
<text text-anchor="middle" x="768" y="-235.5" font-family="Helvetica,sans-Serif" font-size="10.00">PointRoad::outputInfos</text>
</a>
</g>
</g>
<!-- Node13&#45;&gt;Node14 -->
<g id="edge13" class="edge"><title>Node13&#45;&gt;Node14</title>
<path fill="none" stroke="midnightblue" d="M620.164,-128.432C631.076,-131.22 642.308,-135.727 651,-143 679.665,-166.985 657.957,-195.475 687,-219 690.988,-222.23 695.434,-224.928 700.131,-227.179"/>
<polygon fill="midnightblue" stroke="midnightblue" points="698.836,-230.431 709.416,-230.98 701.487,-223.953 698.836,-230.431"/>
</g>
<!-- Node15 -->
<g id="node15" class="node"><title>Node15</title>
<g id="a_node15"><a xlink:href="class_point_road.html#ab53ccb3c883bdfd27c707901c5c658c8" target="_top" xlink:title="PointRoad::updateBelongToRoad">
<polygon fill="none" stroke="black" points="687,-190.5 687,-209.5 849,-209.5 849,-190.5 687,-190.5"/>
<text text-anchor="middle" x="768" y="-197.5" font-family="Helvetica,sans-Serif" font-size="10.00">PointRoad::updateBelongToRoad</text>
</a>
</g>
</g>
<!-- Node13&#45;&gt;Node15 -->
<g id="edge14" class="edge"><title>Node13&#45;&gt;Node15</title>
<path fill="none" stroke="midnightblue" d="M620.311,-130.658C630.754,-133.477 641.704,-137.444 651,-143 670.969,-154.936 666.843,-169.384 687,-181 690.861,-183.225 694.97,-185.19 699.21,-186.925"/>
<polygon fill="midnightblue" stroke="midnightblue" points="698.058,-190.231 708.652,-190.369 700.457,-183.655 698.058,-190.231"/>
</g>
<!-- Node16 -->
<g id="node16" class="node"><title>Node16</title>
<g id="a_node16"><a xlink:href="class_point_road.html#a998665db2d7e4fc4935ef95df092ff2b" target="_top" xlink:title="PointRoad::setid">
<polygon fill="none" stroke="black" points="723.5,-152.5 723.5,-171.5 812.5,-171.5 812.5,-152.5 723.5,-152.5"/>
<text text-anchor="middle" x="768" y="-159.5" font-family="Helvetica,sans-Serif" font-size="10.00">PointRoad::setid</text>
</a>
</g>
</g>
<!-- Node13&#45;&gt;Node16 -->
<g id="edge15" class="edge"><title>Node13&#45;&gt;Node16</title>
<path fill="none" stroke="midnightblue" d="M620.446,-132.059C647.441,-137.574 683.57,-144.955 713.2,-151.009"/>
<polygon fill="midnightblue" stroke="midnightblue" points="712.886,-154.517 723.384,-153.089 714.287,-147.658 712.886,-154.517"/>
</g>
<!-- Node17 -->
<g id="node17" class="node"><title>Node17</title>
<g id="a_node17"><a xlink:href="class_point_road.html#a81372f2c2c0fe1084fa2397289518124" target="_top" xlink:title="PointRoad::id">
<polygon fill="none" stroke="black" points="885,-133.5 885,-152.5 961,-152.5 961,-133.5 885,-133.5"/>
<text text-anchor="middle" x="923" y="-140.5" font-family="Helvetica,sans-Serif" font-size="10.00">PointRoad::id</text>
</a>
</g>
</g>
<!-- Node13&#45;&gt;Node17 -->
<g id="edge18" class="edge"><title>Node13&#45;&gt;Node17</title>
<path fill="none" stroke="midnightblue" d="M620.117,-126.18C683.053,-129.686 806.588,-136.569 874.491,-140.353"/>
<polygon fill="midnightblue" stroke="midnightblue" points="874.714,-143.871 884.894,-140.932 875.104,-136.881 874.714,-143.871"/>
</g>
<!-- Node18 -->
<g id="node18" class="node"><title>Node18</title>
<g id="a_node18"><a xlink:href="class_point_road.html#ae83941b37b026758fdd7974b4b186fbc" target="_top" xlink:title="PointRoad::isNode">
<polygon fill="none" stroke="black" points="718.5,-76.5 718.5,-95.5 817.5,-95.5 817.5,-76.5 718.5,-76.5"/>
<text text-anchor="middle" x="768" y="-83.5" font-family="Helvetica,sans-Serif" font-size="10.00">PointRoad::isNode</text>
</a>
</g>
</g>
<!-- Node13&#45;&gt;Node18 -->
<g id="edge17" class="edge"><title>Node13&#45;&gt;Node18</title>
<path fill="none" stroke="midnightblue" d="M620.446,-115.941C646.583,-110.601 681.281,-103.512 710.354,-97.5729"/>
<polygon fill="midnightblue" stroke="midnightblue" points="711.282,-100.956 720.379,-95.5246 709.881,-94.0972 711.282,-100.956"/>
</g>
<!-- Node19 -->
<g id="node19" class="node"><title>Node19</title>
<g id="a_node19"><a xlink:href="class_road.html#a7f97b4f20c598103baad510b19a0c0b5" target="_top" xlink:title="Add a point to the road. ">
<polygon fill="none" stroke="black" points="726,-38.5 726,-57.5 810,-57.5 810,-38.5 726,-38.5"/>
<text text-anchor="middle" x="768" y="-45.5" font-family="Helvetica,sans-Serif" font-size="10.00">Road::addPoint</text>
</a>
</g>
</g>
<!-- Node13&#45;&gt;Node19 -->
<g id="edge19" class="edge"><title>Node13&#45;&gt;Node19</title>
<path fill="none" stroke="midnightblue" d="M620.311,-117.342C630.754,-114.523 641.704,-110.556 651,-105 670.969,-93.0642 666.843,-78.6161 687,-67 695.812,-61.9215 705.917,-58.1981 715.911,-55.4689"/>
<polygon fill="midnightblue" stroke="midnightblue" points="716.928,-58.8236 725.816,-53.0578 715.272,-52.0222 716.928,-58.8236"/>
</g>
<!-- Node20 -->
<g id="node20" class="node"><title>Node20</title>
<g id="a_node20"><a xlink:href="class_road.html#ad6715392969e36eb10efac542519755c" target="_top" xlink:title="Get the id of the road. ">
<polygon fill="none" stroke="black" points="730.5,-0.5 730.5,-19.5 805.5,-19.5 805.5,-0.5 730.5,-0.5"/>
<text text-anchor="middle" x="768" y="-7.5" font-family="Helvetica,sans-Serif" font-size="10.00">Road::edgeId</text>
</a>
</g>
</g>
<!-- Node13&#45;&gt;Node20 -->
<g id="edge20" class="edge"><title>Node13&#45;&gt;Node20</title>
<path fill="none" stroke="midnightblue" d="M620.164,-119.568C631.076,-116.78 642.308,-112.273 651,-105 679.665,-81.0155 657.957,-52.5248 687,-29 696.446,-21.3487 708.46,-16.6853 720.288,-13.8686"/>
<polygon fill="midnightblue" stroke="midnightblue" points="720.995,-17.2967 730.12,-11.9119 719.629,-10.4313 720.995,-17.2967"/>
</g>
<!-- Node16&#45;&gt;Node17 -->
<g id="edge16" class="edge"><title>Node16&#45;&gt;Node17</title>
<path fill="none" stroke="midnightblue" d="M812.844,-156.555C832.244,-154.146 855.094,-151.309 874.861,-148.854"/>
<polygon fill="midnightblue" stroke="midnightblue" points="875.39,-152.315 884.882,-147.609 874.527,-145.369 875.39,-152.315"/>
</g>
<!-- Node23 -->
<g id="node23" class="node"><title>Node23</title>
<g id="a_node23"><a xlink:href="class_grid.html#a54c76e927f8428bca87520d8ca310bec" target="_top" xlink:title="Grid::getRoadEntry">
<polygon fill="none" stroke="black" points="529.5,-76.5 529.5,-95.5 630.5,-95.5 630.5,-76.5 529.5,-76.5"/>
<text text-anchor="middle" x="580" y="-83.5" font-family="Helvetica,sans-Serif" font-size="10.00">Grid::getRoadEntry</text>
</a>
</g>
</g>
<!-- Node22&#45;&gt;Node23 -->
<g id="edge23" class="edge"><title>Node22&#45;&gt;Node23</title>
<path fill="none" stroke="midnightblue" d="M467.654,-86C484.301,-86 502.417,-86 519.106,-86"/>
<polygon fill="midnightblue" stroke="midnightblue" points="519.288,-89.5001 529.288,-86 519.288,-82.5001 519.288,-89.5001"/>
</g>
</g>
</svg>
        <g id="navigator" transform="translate(0 0)" fill="#404254">
                <rect fill="#f2f5e9" fill-opacity="0.5" stroke="#606060" stroke-width=".5" x="0" y="0" width="60" height="60"/>
                <use id="zoomplus" xlink:href="#zoomPlus" x="17" y="9" onmousedown="handleZoom(evt,'in')"/>
                <use id="zoomminus" xlink:href="#zoomMin" x="42" y="9" onmousedown="handleZoom(evt,'out')"/>
                <use id="reset" xlink:href="#resetDef" x="30" y="36" onmousedown="handleReset()"/>
                <g id="arrowUp" xlink:href="#dirArrow" transform="translate(30 24)" onmousedown="handlePan(0,-1)">
                  <use xlink:href="#rim" fill="#404040">
                        <set attributeName="fill" to="#808080" begin="arrowUp.mouseover" end="arrowUp.mouseout"/>
                  </use>
                  <path fill="none" stroke="white" stroke-width="1.5" d="M0,-3.0v7 M-2.5,-0.5L0,-3.0L2.5,-0.5"/>
                </g>
                <g id="arrowRight" xlink:href="#dirArrow" transform="rotate(90) translate(36 -43)" onmousedown="handlePan(1,0)">
                  <use xlink:href="#rim" fill="#404040">
                        <set attributeName="fill" to="#808080" begin="arrowRight.mouseover" end="arrowRight.mouseout"/>
                  </use>
                  <path fill="none" stroke="white" stroke-width="1.5" d="M0,-3.0v7 M-2.5,-0.5L0,-3.0L2.5,-0.5"/>
                </g>
                <g id="arrowDown" xlink:href="#dirArrow" transform="rotate(180) translate(-30 -48)" onmousedown="handlePan(0,1)">
                  <use xlink:href="#rim" fill="#404040">
                        <set attributeName="fill" to="#808080" begin="arrowDown.mouseover" end="arrowDown.mouseout"/>
                  </use>
                  <path fill="none" stroke="white" stroke-width="1.5" d="M0,-3.0v7 M-2.5,-0.5L0,-3.0L2.5,-0.5"/>
                </g>
                <g id="arrowLeft" xlink:href="#dirArrow" transform="rotate(270) translate(-36 17)" onmousedown="handlePan(-1,0)">
                  <use xlink:href="#rim" fill="#404040">
                        <set attributeName="fill" to="#808080" begin="arrowLeft.mouseover" end="arrowLeft.mouseout"/>
                  </use>
                  <path fill="none" stroke="white" stroke-width="1.5" d="M0,-3.0v7 M-2.5,-0.5L0,-3.0L2.5,-0.5"/>
                </g>
        </g>
        <svg viewBox="0 0 15 15" width="100%" height="30px" preserveAspectRatio="xMaxYMin meet">
         <g id="arrow_out" transform="scale(0.3 0.3)">
          <a xlink:href="main_8cpp_a0ddf1224851353fc92bfbff6f499fa97_cgraph_org.svg" target="_base">
           <rect id="button" ry="5" rx="5" y="6" x="6" height="38" width="38"
                fill="#f2f5e9" fill-opacity="0.5" stroke="#606060" stroke-width="1.0"/>
           <path id="arrow"
             d="M 11.500037,31.436501 C 11.940474,20.09759 22.043105,11.32322 32.158766,21.979434 L 37.068811,17.246167 C 37.068811,17.246167 37.088388,32 37.088388,32 L 22.160133,31.978069 C 22.160133,31.978069 26.997745,27.140456 26.997745,27.140456 C 18.528582,18.264221 13.291696,25.230495 11.500037,31.436501 z"
             style="fill:#404040;"/>
          </a>
         </g>
        </svg>
</svg>
