<?xml version="1.0" encoding="UTF-8" standalone="no"?>
<!DOCTYPE svg PUBLIC "-//W3C//DTD SVG 1.1//EN"
 "http://www.w3.org/Graphics/SVG/1.1/DTD/svg11.dtd">
<!-- Generated by graphviz version 2.38.0 (20140413.2041)
 -->
<!-- Title: dev_thread Pages: 1 -->
<svg width="843pt" height="256pt"
 viewBox="0.00 0.00 843.00 256.00" xmlns="http://www.w3.org/2000/svg" xmlns:xlink="http://www.w3.org/1999/xlink">
<g id="graph0" class="graph" transform="scale(1 1) rotate(0) translate(4 252)">
<title>dev_thread</title>
<!-- Node1 -->
<g id="node1" class="node"><title>Node1</title>
<polygon fill="#bfbfbf" stroke="black" points="0,-114.5 0,-133.5 65,-133.5 65,-114.5 0,-114.5"/>
<text text-anchor="middle" x="32.5" y="-121.5" font-family="Helvetica,sans-Serif" font-size="10.00">dev_thread</text>
</g>
<!-- Node2 -->
<g id="node2" class="node"><title>Node2</title>
<g id="a_node2"><a xlink:href="class_solver.html#a97bc7169c18b339fecd4937150f907c3" target="_top" xlink:title="Solver::start">
<polygon fill="none" stroke="black" points="131.5,-152.5 131.5,-171.5 201.5,-171.5 201.5,-152.5 131.5,-152.5"/>
<text text-anchor="middle" x="166.5" y="-159.5" font-family="Helvetica,sans-Serif" font-size="10.00">Solver::start</text>
</a>
</g>
</g>
<!-- Node1&#45;&gt;Node2 -->
<g id="edge1" class="edge"><title>Node1&#45;&gt;Node2</title>
<path fill="none" stroke="midnightblue" d="M65.1173,-133.102C82.3147,-138.053 103.833,-144.247 122.532,-149.63"/>
<polygon fill="midnightblue" stroke="midnightblue" points="121.721,-153.039 132.299,-152.442 123.657,-146.312 121.721,-153.039"/>
</g>
<!-- Node19 -->
<g id="node19" class="node"><title>Node19</title>
<g id="a_node19"><a xlink:href="class_controller.html#ab8e345d91e901e46e0ad42a0b75ef94c" target="_top" xlink:title="Controller::addSolver">
<polygon fill="none" stroke="black" points="112.5,-114.5 112.5,-133.5 220.5,-133.5 220.5,-114.5 112.5,-114.5"/>
<text text-anchor="middle" x="166.5" y="-121.5" font-family="Helvetica,sans-Serif" font-size="10.00">Controller::addSolver</text>
</a>
</g>
</g>
<!-- Node1&#45;&gt;Node19 -->
<g id="edge19" class="edge"><title>Node1&#45;&gt;Node19</title>
<path fill="none" stroke="midnightblue" d="M65.1173,-124C76.3113,-124 89.3362,-124 102.222,-124"/>
<polygon fill="midnightblue" stroke="midnightblue" points="102.49,-127.5 112.49,-124 102.489,-120.5 102.49,-127.5"/>
</g>
<!-- Node20 -->
<g id="node20" class="node"><title>Node20</title>
<g id="a_node20"><a xlink:href="class_controller.html#aa92b9a18a88aeb59c53272c3beab2724" target="_top" xlink:title="Controller::connectSignals">
<polygon fill="none" stroke="black" points="101,-76.5 101,-95.5 232,-95.5 232,-76.5 101,-76.5"/>
<text text-anchor="middle" x="166.5" y="-83.5" font-family="Helvetica,sans-Serif" font-size="10.00">Controller::connectSignals</text>
</a>
</g>
</g>
<!-- Node1&#45;&gt;Node20 -->
<g id="edge20" class="edge"><title>Node1&#45;&gt;Node20</title>
<path fill="none" stroke="midnightblue" d="M65.1173,-114.898C82.3147,-109.947 103.833,-103.753 122.532,-98.3697"/>
<polygon fill="midnightblue" stroke="midnightblue" points="123.657,-101.688 132.299,-95.558 121.721,-94.9611 123.657,-101.688"/>
</g>
<!-- Node3 -->
<g id="node3" class="node"><title>Node3</title>
<g id="a_node3"><a xlink:href="class_track.html#aff258a8c303ee8a09a962d237f3823e7" target="_top" xlink:title="Reads a csv file and inserts each point in m_points vector. ">
<polygon fill="none" stroke="black" points="273,-228.5 273,-247.5 383,-247.5 383,-228.5 273,-228.5"/>
<text text-anchor="middle" x="328" y="-235.5" font-family="Helvetica,sans-Serif" font-size="10.00">Track::readFromCSV</text>
</a>
</g>
</g>
<!-- Node2&#45;&gt;Node3 -->
<g id="edge2" class="edge"><title>Node2&#45;&gt;Node3</title>
<path fill="none" stroke="midnightblue" d="M182.323,-171.69C201.5,-183.923 236.226,-205.049 268,-219 272.988,-221.19 278.311,-223.257 283.64,-225.164"/>
<polygon fill="midnightblue" stroke="midnightblue" points="282.576,-228.499 293.171,-228.415 284.837,-221.874 282.576,-228.499"/>
</g>
<!-- Node4 -->
<g id="node4" class="node"><title>Node4</title>
<g id="a_node4"><a xlink:href="class_track.html#abf3b02de2c94d38c6a79b7c932aa6c5b" target="_top" xlink:title="Return a string containing information about the content of this object. ">
<polygon fill="none" stroke="black" points="294,-190.5 294,-209.5 362,-209.5 362,-190.5 294,-190.5"/>
<text text-anchor="middle" x="328" y="-197.5" font-family="Helvetica,sans-Serif" font-size="10.00">Track::infos</text>
</a>
</g>
</g>
<!-- Node2&#45;&gt;Node4 -->
<g id="edge3" class="edge"><title>Node2&#45;&gt;Node4</title>
<path fill="none" stroke="midnightblue" d="M201.717,-170.152C225.798,-175.889 258.209,-183.611 284.032,-189.763"/>
<polygon fill="midnightblue" stroke="midnightblue" points="283.393,-193.209 293.932,-192.122 285.015,-186.399 283.393,-193.209"/>
</g>
<!-- Node5 -->
<g id="node5" class="node"><title>Node5</title>
<g id="a_node5"><a xlink:href="class_grid.html#ae848f1c59c544adc1af9133409ee0106" target="_top" xlink:title="Reads a csv file and inserts info into the corresponding attributs. ">
<polygon fill="none" stroke="black" points="276.5,-152.5 276.5,-171.5 379.5,-171.5 379.5,-152.5 276.5,-152.5"/>
<text text-anchor="middle" x="328" y="-159.5" font-family="Helvetica,sans-Serif" font-size="10.00">Grid::readFromCSV</text>
</a>
</g>
</g>
<!-- Node2&#45;&gt;Node5 -->
<g id="edge4" class="edge"><title>Node2&#45;&gt;Node5</title>
<path fill="none" stroke="midnightblue" d="M201.717,-162C220.524,-162 244.412,-162 266.274,-162"/>
<polygon fill="midnightblue" stroke="midnightblue" points="266.48,-165.5 276.48,-162 266.48,-158.5 266.48,-165.5"/>
</g>
<!-- Node16 -->
<g id="node16" class="node"><title>Node16</title>
<g id="a_node16"><a xlink:href="class_grid.html#a37103de283959ce994c5c76113b7b033" target="_top" xlink:title="Grid::infos">
<polygon fill="none" stroke="black" points="297,-114.5 297,-133.5 359,-133.5 359,-114.5 297,-114.5"/>
<text text-anchor="middle" x="328" y="-121.5" font-family="Helvetica,sans-Serif" font-size="10.00">Grid::infos</text>
</a>
</g>
</g>
<!-- Node2&#45;&gt;Node16 -->
<g id="edge16" class="edge"><title>Node2&#45;&gt;Node16</title>
<path fill="none" stroke="midnightblue" d="M201.717,-153.848C226.687,-147.899 260.613,-139.816 286.863,-133.562"/>
<polygon fill="midnightblue" stroke="midnightblue" points="287.956,-136.9 296.873,-131.178 286.334,-130.091 287.956,-136.9"/>
</g>
<!-- Node17 -->
<g id="node17" class="node"><title>Node17</title>
<g id="a_node17"><a xlink:href="class_grid.html#aea292f48c96b2e9d1abee08040cd3833" target="_top" xlink:title="buildMarkovMatrix ">
<polygon fill="none" stroke="black" points="268,-76.5 268,-95.5 388,-95.5 388,-76.5 268,-76.5"/>
<text text-anchor="middle" x="328" y="-83.5" font-family="Helvetica,sans-Serif" font-size="10.00">Grid::buildMarkovMatrix</text>
</a>
</g>
</g>
<!-- Node2&#45;&gt;Node17 -->
<g id="edge17" class="edge"><title>Node2&#45;&gt;Node17</title>
<path fill="none" stroke="midnightblue" d="M201.72,-155.503C211.935,-152.64 222.841,-148.608 232,-143 251.84,-130.851 248.314,-117.397 268,-105 271.193,-102.989 274.618,-101.173 278.151,-99.5358"/>
<polygon fill="midnightblue" stroke="midnightblue" points="279.764,-102.657 287.674,-95.6084 277.095,-96.1855 279.764,-102.657"/>
</g>
<!-- Node6 -->
<g id="node6" class="node"><title>Node6</title>
<g id="a_node6"><a xlink:href="class_grid.html#a6b6af4fb2545b398b47794de576f15f5" target="_top" xlink:title="Test if a point is in the defined area of a track. ">
<polygon fill="none" stroke="black" points="430.5,-190.5 430.5,-209.5 518.5,-209.5 518.5,-190.5 430.5,-190.5"/>
<text text-anchor="middle" x="474.5" y="-197.5" font-family="Helvetica,sans-Serif" font-size="10.00">Grid::inFootPrint</text>
</a>
</g>
</g>
<!-- Node5&#45;&gt;Node6 -->
<g id="edge5" class="edge"><title>Node5&#45;&gt;Node6</title>
<path fill="none" stroke="midnightblue" d="M365.463,-171.589C384.274,-176.536 407.415,-182.621 427.447,-187.889"/>
<polygon fill="midnightblue" stroke="midnightblue" points="426.737,-191.322 437.299,-190.48 428.518,-184.552 426.737,-191.322"/>
</g>
<!-- Node7 -->
<g id="node7" class="node"><title>Node7</title>
<g id="a_node7"><a xlink:href="class_grid.html#a58233ab60f7477144af334f205606aa4" target="_top" xlink:title="Find max and min of the grid. ">
<polygon fill="none" stroke="black" points="430.5,-152.5 430.5,-171.5 518.5,-171.5 518.5,-152.5 430.5,-152.5"/>
<text text-anchor="middle" x="474.5" y="-159.5" font-family="Helvetica,sans-Serif" font-size="10.00">Grid::updateGrid</text>
</a>
</g>
</g>
<!-- Node5&#45;&gt;Node7 -->
<g id="edge6" class="edge"><title>Node5&#45;&gt;Node7</title>
<path fill="none" stroke="midnightblue" d="M379.539,-162C392.64,-162 406.79,-162 420.035,-162"/>
<polygon fill="midnightblue" stroke="midnightblue" points="420.427,-165.5 430.427,-162 420.426,-158.5 420.427,-165.5"/>
</g>
<!-- Node8 -->
<g id="node8" class="node"><title>Node8</title>
<g id="a_node8"><a xlink:href="class_grid.html#aba1830bc145f128d6deeed29cfb94c9f" target="_top" xlink:title="Creates a new road and inserts it in m_road. ">
<polygon fill="none" stroke="black" points="434.5,-114.5 434.5,-133.5 514.5,-133.5 514.5,-114.5 434.5,-114.5"/>
<text text-anchor="middle" x="474.5" y="-121.5" font-family="Helvetica,sans-Serif" font-size="10.00">Grid::addRoad</text>
</a>
</g>
</g>
<!-- Node5&#45;&gt;Node8 -->
<g id="edge7" class="edge"><title>Node5&#45;&gt;Node8</title>
<path fill="none" stroke="midnightblue" d="M365.463,-152.411C384.274,-147.464 407.415,-141.379 427.447,-136.111"/>
<polygon fill="midnightblue" stroke="midnightblue" points="428.518,-139.448 437.299,-133.52 426.737,-132.678 428.518,-139.448"/>
</g>
<!-- Node9 -->
<g id="node9" class="node"><title>Node9</title>
<g id="a_node9"><a xlink:href="class_point_road.html#aa1b90c3fdf8ae7a1fcd8ce6182d13287" target="_top" xlink:title="PointRoad::outputInfos">
<polygon fill="none" stroke="black" points="583.5,-228.5 583.5,-247.5 700.5,-247.5 700.5,-228.5 583.5,-228.5"/>
<text text-anchor="middle" x="642" y="-235.5" font-family="Helvetica,sans-Serif" font-size="10.00">PointRoad::outputInfos</text>
</a>
</g>
</g>
<!-- Node8&#45;&gt;Node9 -->
<g id="edge8" class="edge"><title>Node8&#45;&gt;Node9</title>
<path fill="none" stroke="midnightblue" d="M510.485,-133.513C515.753,-136.006 520.814,-139.12 525,-143 552.412,-168.407 531.957,-195.475 561,-219 564.988,-222.23 569.434,-224.928 574.131,-227.179"/>
<polygon fill="midnightblue" stroke="midnightblue" points="572.836,-230.431 583.416,-230.98 575.487,-223.953 572.836,-230.431"/>
</g>
<!-- Node10 -->
<g id="node10" class="node"><title>Node10</title>
<g id="a_node10"><a xlink:href="class_point_road.html#ab53ccb3c883bdfd27c707901c5c658c8" target="_top" xlink:title="PointRoad::updateBelongToRoad">
<polygon fill="none" stroke="black" points="561,-190.5 561,-209.5 723,-209.5 723,-190.5 561,-190.5"/>
<text text-anchor="middle" x="642" y="-197.5" font-family="Helvetica,sans-Serif" font-size="10.00">PointRoad::updateBelongToRoad</text>
</a>
</g>
</g>
<!-- Node8&#45;&gt;Node10 -->
<g id="edge9" class="edge"><title>Node8&#45;&gt;Node10</title>
<path fill="none" stroke="midnightblue" d="M506.657,-133.52C512.989,-136.114 519.414,-139.264 525,-143 544.338,-155.933 540.843,-169.384 561,-181 564.861,-183.225 568.97,-185.19 573.21,-186.925"/>
<polygon fill="midnightblue" stroke="midnightblue" points="572.058,-190.231 582.652,-190.369 574.457,-183.655 572.058,-190.231"/>
</g>
<!-- Node11 -->
<g id="node11" class="node"><title>Node11</title>
<g id="a_node11"><a xlink:href="class_point_road.html#a998665db2d7e4fc4935ef95df092ff2b" target="_top" xlink:title="PointRoad::setid">
<polygon fill="none" stroke="black" points="597.5,-152.5 597.5,-171.5 686.5,-171.5 686.5,-152.5 597.5,-152.5"/>
<text text-anchor="middle" x="642" y="-159.5" font-family="Helvetica,sans-Serif" font-size="10.00">PointRoad::setid</text>
</a>
</g>
</g>
<!-- Node8&#45;&gt;Node11 -->
<g id="edge10" class="edge"><title>Node8&#45;&gt;Node11</title>
<path fill="none" stroke="midnightblue" d="M514.721,-133.005C537.053,-138.133 565.297,-144.618 589.408,-150.154"/>
<polygon fill="midnightblue" stroke="midnightblue" points="588.93,-153.635 599.459,-152.462 590.496,-146.813 588.93,-153.635"/>
</g>
<!-- Node12 -->
<g id="node12" class="node"><title>Node12</title>
<g id="a_node12"><a xlink:href="class_point_road.html#a81372f2c2c0fe1084fa2397289518124" target="_top" xlink:title="PointRoad::id">
<polygon fill="none" stroke="black" points="759,-133.5 759,-152.5 835,-152.5 835,-133.5 759,-133.5"/>
<text text-anchor="middle" x="797" y="-140.5" font-family="Helvetica,sans-Serif" font-size="10.00">PointRoad::id</text>
</a>
</g>
</g>
<!-- Node8&#45;&gt;Node12 -->
<g id="edge13" class="edge"><title>Node8&#45;&gt;Node12</title>
<path fill="none" stroke="midnightblue" d="M514.8,-126.33C573.86,-129.831 685.323,-136.439 748.736,-140.198"/>
<polygon fill="midnightblue" stroke="midnightblue" points="748.673,-143.7 758.863,-140.798 749.087,-136.713 748.673,-143.7"/>
</g>
<!-- Node13 -->
<g id="node13" class="node"><title>Node13</title>
<g id="a_node13"><a xlink:href="class_point_road.html#ae83941b37b026758fdd7974b4b186fbc" target="_top" xlink:title="PointRoad::isNode">
<polygon fill="none" stroke="black" points="592.5,-76.5 592.5,-95.5 691.5,-95.5 691.5,-76.5 592.5,-76.5"/>
<text text-anchor="middle" x="642" y="-83.5" font-family="Helvetica,sans-Serif" font-size="10.00">PointRoad::isNode</text>
</a>
</g>
</g>
<!-- Node8&#45;&gt;Node13 -->
<g id="edge12" class="edge"><title>Node8&#45;&gt;Node13</title>
<path fill="none" stroke="midnightblue" d="M514.721,-114.995C537.053,-109.867 565.297,-103.382 589.408,-97.8458"/>
<polygon fill="midnightblue" stroke="midnightblue" points="590.496,-101.187 599.459,-95.538 588.93,-94.3647 590.496,-101.187"/>
</g>
<!-- Node14 -->
<g id="node14" class="node"><title>Node14</title>
<g id="a_node14"><a xlink:href="class_road.html#a7f97b4f20c598103baad510b19a0c0b5" target="_top" xlink:title="Add a point to the road. ">
<polygon fill="none" stroke="black" points="600,-38.5 600,-57.5 684,-57.5 684,-38.5 600,-38.5"/>
<text text-anchor="middle" x="642" y="-45.5" font-family="Helvetica,sans-Serif" font-size="10.00">Road::addPoint</text>
</a>
</g>
</g>
<!-- Node8&#45;&gt;Node14 -->
<g id="edge14" class="edge"><title>Node8&#45;&gt;Node14</title>
<path fill="none" stroke="midnightblue" d="M506.657,-114.48C512.989,-111.886 519.414,-108.736 525,-105 544.338,-92.0671 540.843,-78.6161 561,-67 569.812,-61.9215 579.917,-58.1981 589.911,-55.4689"/>
<polygon fill="midnightblue" stroke="midnightblue" points="590.928,-58.8236 599.816,-53.0578 589.272,-52.0222 590.928,-58.8236"/>
</g>
<!-- Node15 -->
<g id="node15" class="node"><title>Node15</title>
<g id="a_node15"><a xlink:href="class_road.html#ad6715392969e36eb10efac542519755c" target="_top" xlink:title="Get the id of the road. ">
<polygon fill="none" stroke="black" points="604.5,-0.5 604.5,-19.5 679.5,-19.5 679.5,-0.5 604.5,-0.5"/>
<text text-anchor="middle" x="642" y="-7.5" font-family="Helvetica,sans-Serif" font-size="10.00">Road::edgeId</text>
</a>
</g>
</g>
<!-- Node8&#45;&gt;Node15 -->
<g id="edge15" class="edge"><title>Node8&#45;&gt;Node15</title>
<path fill="none" stroke="midnightblue" d="M510.485,-114.487C515.753,-111.994 520.814,-108.88 525,-105 552.412,-79.5929 531.957,-52.5248 561,-29 570.446,-21.3487 582.46,-16.6853 594.288,-13.8686"/>
<polygon fill="midnightblue" stroke="midnightblue" points="594.995,-17.2967 604.12,-11.9119 593.629,-10.4313 594.995,-17.2967"/>
</g>
<!-- Node11&#45;&gt;Node12 -->
<g id="edge11" class="edge"><title>Node11&#45;&gt;Node12</title>
<path fill="none" stroke="midnightblue" d="M686.844,-156.555C706.244,-154.146 729.094,-151.309 748.861,-148.854"/>
<polygon fill="midnightblue" stroke="midnightblue" points="749.39,-152.315 758.882,-147.609 748.527,-145.369 749.39,-152.315"/>
</g>
<!-- Node18 -->
<g id="node18" class="node"><title>Node18</title>
<g id="a_node18"><a xlink:href="class_grid.html#a54c76e927f8428bca87520d8ca310bec" target="_top" xlink:title="Grid::getRoadEntry">
<polygon fill="none" stroke="black" points="424,-76.5 424,-95.5 525,-95.5 525,-76.5 424,-76.5"/>
<text text-anchor="middle" x="474.5" y="-83.5" font-family="Helvetica,sans-Serif" font-size="10.00">Grid::getRoadEntry</text>
</a>
</g>
</g>
<!-- Node17&#45;&gt;Node18 -->
<g id="edge18" class="edge"><title>Node17&#45;&gt;Node18</title>
<path fill="none" stroke="midnightblue" d="M388.191,-86C396.613,-86 405.28,-86 413.714,-86"/>
<polygon fill="midnightblue" stroke="midnightblue" points="413.853,-89.5001 423.853,-86 413.853,-82.5001 413.853,-89.5001"/>
</g>
</g>
</svg>
