<?xml version="1.0" encoding="UTF-8" standalone="no"?>
<!DOCTYPE svg PUBLIC "-//W3C//DTD SVG 1.1//EN"
 "http://www.w3.org/Graphics/SVG/1.1/DTD/svg11.dtd">
<!-- Generated by graphviz version 2.38.0 (20140413.2041)
 -->
<!-- Title: main Pages: 1 -->
<svg width="969pt" height="560pt"
 viewBox="0.00 0.00 969.00 560.00" xmlns="http://www.w3.org/2000/svg" xmlns:xlink="http://www.w3.org/1999/xlink">
<g id="graph0" class="graph" transform="scale(1 1) rotate(0) translate(4 556)">
<title>main</title>
<!-- Node1 -->
<g id="node1" class="node"><title>Node1</title>
<polygon fill="#bfbfbf" stroke="black" points="0,-228.5 0,-247.5 38,-247.5 38,-228.5 0,-228.5"/>
<text text-anchor="middle" x="19" y="-235.5" font-family="Helvetica,sans-Serif" font-size="10.00">main</text>
</g>
<!-- Node2 -->
<g id="node2" class="node"><title>Node2</title>
<g id="a_node2"><a xlink:href="main_8cpp.html#a9dd67c19acf7317c6296b63e29dcfab9" target="_top" xlink:title="dev_thread">
<polygon fill="none" stroke="black" points="74,-228.5 74,-247.5 139,-247.5 139,-228.5 74,-228.5"/>
<text text-anchor="middle" x="106.5" y="-235.5" font-family="Helvetica,sans-Serif" font-size="10.00">dev_thread</text>
</a>
</g>
</g>
<!-- Node1&#45;&gt;Node2 -->
<g id="edge1" class="edge"><title>Node1&#45;&gt;Node2</title>
<path fill="none" stroke="midnightblue" d="M38.1324,-238C45.6828,-238 54.7875,-238 63.8278,-238"/>
<polygon fill="midnightblue" stroke="midnightblue" points="63.9211,-241.5 73.921,-238 63.921,-234.5 63.9211,-241.5"/>
</g>
<!-- Node3 -->
<g id="node3" class="node"><title>Node3</title>
<g id="a_node3"><a xlink:href="class_solver.html#a97bc7169c18b339fecd4937150f907c3" target="_top" xlink:title="Solver::start">
<polygon fill="none" stroke="black" points="205.5,-266.5 205.5,-285.5 275.5,-285.5 275.5,-266.5 205.5,-266.5"/>
<text text-anchor="middle" x="240.5" y="-273.5" font-family="Helvetica,sans-Serif" font-size="10.00">Solver::start</text>
</a>
</g>
</g>
<!-- Node2&#45;&gt;Node3 -->
<g id="edge2" class="edge"><title>Node2&#45;&gt;Node3</title>
<path fill="none" stroke="midnightblue" d="M139.117,-247.102C156.315,-252.053 177.833,-258.247 196.532,-263.63"/>
<polygon fill="midnightblue" stroke="midnightblue" points="195.721,-267.039 206.299,-266.442 197.657,-260.312 195.721,-267.039"/>
</g>
<!-- Node35 -->
<g id="node35" class="node"><title>Node35</title>
<g id="a_node35"><a xlink:href="class_controller.html#ab8e345d91e901e46e0ad42a0b75ef94c" target="_top" xlink:title="Controller::addSolver">
<polygon fill="none" stroke="black" points="186.5,-228.5 186.5,-247.5 294.5,-247.5 294.5,-228.5 186.5,-228.5"/>
<text text-anchor="middle" x="240.5" y="-235.5" font-family="Helvetica,sans-Serif" font-size="10.00">Controller::addSolver</text>
</a>
</g>
</g>
<!-- Node2&#45;&gt;Node35 -->
<g id="edge35" class="edge"><title>Node2&#45;&gt;Node35</title>
<path fill="none" stroke="midnightblue" d="M139.117,-238C150.311,-238 163.336,-238 176.222,-238"/>
<polygon fill="midnightblue" stroke="midnightblue" points="176.49,-241.5 186.49,-238 176.489,-234.5 176.49,-241.5"/>
</g>
<!-- Node36 -->
<g id="node36" class="node"><title>Node36</title>
<g id="a_node36"><a xlink:href="class_controller.html#aa92b9a18a88aeb59c53272c3beab2724" target="_top" xlink:title="Controller::connectSignals">
<polygon fill="none" stroke="black" points="175,-190.5 175,-209.5 306,-209.5 306,-190.5 175,-190.5"/>
<text text-anchor="middle" x="240.5" y="-197.5" font-family="Helvetica,sans-Serif" font-size="10.00">Controller::connectSignals</text>
</a>
</g>
</g>
<!-- Node2&#45;&gt;Node36 -->
<g id="edge36" class="edge"><title>Node2&#45;&gt;Node36</title>
<path fill="none" stroke="midnightblue" d="M139.117,-228.898C156.315,-223.947 177.833,-217.753 196.532,-212.37"/>
<polygon fill="midnightblue" stroke="midnightblue" points="197.657,-215.688 206.299,-209.558 195.721,-208.961 197.657,-215.688"/>
</g>
<!-- Node4 -->
<g id="node4" class="node"><title>Node4</title>
<g id="a_node4"><a xlink:href="class_track.html#aff258a8c303ee8a09a962d237f3823e7" target="_top" xlink:title="Reads a csv file and inserts each point in m_points vector. ">
<polygon fill="none" stroke="black" points="352.5,-494.5 352.5,-513.5 462.5,-513.5 462.5,-494.5 352.5,-494.5"/>
<text text-anchor="middle" x="407.5" y="-501.5" font-family="Helvetica,sans-Serif" font-size="10.00">Track::readFromCSV</text>
</a>
</g>
</g>
<!-- Node3&#45;&gt;Node4 -->
<g id="edge3" class="edge"><title>Node3&#45;&gt;Node4</title>
<path fill="none" stroke="midnightblue" d="M243.241,-285.588C249.746,-318.608 275.739,-428.675 342,-485 343.985,-486.687 346.113,-488.224 348.346,-489.625"/>
<polygon fill="midnightblue" stroke="midnightblue" points="346.906,-492.823 357.386,-494.38 350.165,-486.627 346.906,-492.823"/>
</g>
<!-- Node8 -->
<g id="node8" class="node"><title>Node8</title>
<g id="a_node8"><a xlink:href="class_track.html#a58fcdaf47f2c87bb7095933616f5a4bc" target="_top" xlink:title="This is a temporal filter, which deletes points depending on a time value. ">
<polygon fill="none" stroke="black" points="354,-456.5 354,-475.5 461,-475.5 461,-456.5 354,-456.5"/>
<text text-anchor="middle" x="407.5" y="-463.5" font-family="Helvetica,sans-Serif" font-size="10.00">Track::temporalFilter</text>
</a>
</g>
</g>
<!-- Node3&#45;&gt;Node8 -->
<g id="edge7" class="edge"><title>Node3&#45;&gt;Node8</title>
<path fill="none" stroke="midnightblue" d="M244.416,-285.848C253.594,-315.112 284.733,-402.282 342,-447 344.329,-448.819 346.828,-450.463 349.441,-451.951"/>
<polygon fill="midnightblue" stroke="midnightblue" points="348.154,-455.216 358.679,-456.426 351.206,-448.917 348.154,-455.216"/>
</g>
<!-- Node10 -->
<g id="node10" class="node"><title>Node10</title>
<g id="a_node10"><a xlink:href="class_track.html#a9f1da7896167f44da967acf9fd05d92a" target="_top" xlink:title="This is a space filter, which deletes points depending on a distance interval. ">
<polygon fill="none" stroke="black" points="360,-418.5 360,-437.5 455,-437.5 455,-418.5 360,-418.5"/>
<text text-anchor="middle" x="407.5" y="-425.5" font-family="Helvetica,sans-Serif" font-size="10.00">Track::spaceFilter</text>
</a>
</g>
</g>
<!-- Node3&#45;&gt;Node10 -->
<g id="edge9" class="edge"><title>Node3&#45;&gt;Node10</title>
<path fill="none" stroke="midnightblue" d="M246.067,-285.714C258.112,-310.267 293.204,-375.252 342,-409 344.871,-410.986 347.952,-412.767 351.154,-414.364"/>
<polygon fill="midnightblue" stroke="midnightblue" points="349.86,-417.618 360.426,-418.396 352.651,-411.198 349.86,-417.618"/>
</g>
<!-- Node12 -->
<g id="node12" class="node"><title>Node12</title>
<g id="a_node12"><a xlink:href="class_track.html#ad262a30c2abcd29cf4cdc04facd290ee" target="_top" xlink:title="Track::getPointsAsPointer">
<polygon fill="none" stroke="black" points="342,-380.5 342,-399.5 473,-399.5 473,-380.5 342,-380.5"/>
<text text-anchor="middle" x="407.5" y="-387.5" font-family="Helvetica,sans-Serif" font-size="10.00">Track::getPointsAsPointer</text>
</a>
</g>
</g>
<!-- Node3&#45;&gt;Node12 -->
<g id="edge11" class="edge"><title>Node3&#45;&gt;Node12</title>
<path fill="none" stroke="midnightblue" d="M248.986,-285.636C264.346,-304.757 301.414,-347.661 342,-371 345.861,-373.22 350.004,-375.201 354.26,-376.964"/>
<polygon fill="midnightblue" stroke="midnightblue" points="353.096,-380.265 363.688,-380.484 355.544,-373.708 353.096,-380.265"/>
</g>
<!-- Node13 -->
<g id="node13" class="node"><title>Node13</title>
<g id="a_node13"><a xlink:href="class_track.html#abf3b02de2c94d38c6a79b7c932aa6c5b" target="_top" xlink:title="Return a string containing information about the content of this object. ">
<polygon fill="none" stroke="black" points="373.5,-342.5 373.5,-361.5 441.5,-361.5 441.5,-342.5 373.5,-342.5"/>
<text text-anchor="middle" x="407.5" y="-349.5" font-family="Helvetica,sans-Serif" font-size="10.00">Track::infos</text>
</a>
</g>
</g>
<!-- Node3&#45;&gt;Node13 -->
<g id="edge12" class="edge"><title>Node3&#45;&gt;Node13</title>
<path fill="none" stroke="midnightblue" d="M255.938,-285.603C274.988,-297.936 309.869,-319.37 342,-333 348.797,-335.883 356.173,-338.502 363.427,-340.81"/>
<polygon fill="midnightblue" stroke="midnightblue" points="362.591,-344.214 373.176,-343.762 364.619,-337.514 362.591,-344.214"/>
</g>
<!-- Node14 -->
<g id="node14" class="node"><title>Node14</title>
<g id="a_node14"><a xlink:href="class_grid.html#ae848f1c59c544adc1af9133409ee0106" target="_top" xlink:title="Reads a csv file and inserts info into the corresponding attributs. ">
<polygon fill="none" stroke="black" points="356,-304.5 356,-323.5 459,-323.5 459,-304.5 356,-304.5"/>
<text text-anchor="middle" x="407.5" y="-311.5" font-family="Helvetica,sans-Serif" font-size="10.00">Grid::readFromCSV</text>
</a>
</g>
</g>
<!-- Node3&#45;&gt;Node14 -->
<g id="edge13" class="edge"><title>Node3&#45;&gt;Node14</title>
<path fill="none" stroke="midnightblue" d="M275.688,-283.874C298.604,-289.151 329.199,-296.197 355.039,-302.148"/>
<polygon fill="midnightblue" stroke="midnightblue" points="354.518,-305.62 365.048,-304.454 356.089,-298.798 354.518,-305.62"/>
</g>
<!-- Node25 -->
<g id="node25" class="node"><title>Node25</title>
<g id="a_node25"><a xlink:href="class_grid.html#a5fa1f98ecc8f485e4eee5b55b56243a0" target="_top" xlink:title="Grid::infos">
<polygon fill="none" stroke="black" points="376.5,-266.5 376.5,-285.5 438.5,-285.5 438.5,-266.5 376.5,-266.5"/>
<text text-anchor="middle" x="407.5" y="-273.5" font-family="Helvetica,sans-Serif" font-size="10.00">Grid::infos</text>
</a>
</g>
</g>
<!-- Node3&#45;&gt;Node25 -->
<g id="edge25" class="edge"><title>Node3&#45;&gt;Node25</title>
<path fill="none" stroke="midnightblue" d="M275.688,-276C301.97,-276 338.352,-276 366.077,-276"/>
<polygon fill="midnightblue" stroke="midnightblue" points="366.239,-279.5 376.239,-276 366.239,-272.5 366.239,-279.5"/>
</g>
<!-- Node26 -->
<g id="node26" class="node"><title>Node26</title>
<g id="a_node26"><a xlink:href="class_grid.html#aa96eed7a551f45aeee1068a289bd2a7b" target="_top" xlink:title="Grid::xMinGrid">
<polygon fill="none" stroke="black" points="367.5,-228.5 367.5,-247.5 447.5,-247.5 447.5,-228.5 367.5,-228.5"/>
<text text-anchor="middle" x="407.5" y="-235.5" font-family="Helvetica,sans-Serif" font-size="10.00">Grid::xMinGrid</text>
</a>
</g>
</g>
<!-- Node3&#45;&gt;Node26 -->
<g id="edge26" class="edge"><title>Node3&#45;&gt;Node26</title>
<path fill="none" stroke="midnightblue" d="M275.688,-268.126C299.375,-262.671 331.267,-255.326 357.63,-249.255"/>
<polygon fill="midnightblue" stroke="midnightblue" points="358.475,-252.652 367.435,-246.997 356.904,-245.83 358.475,-252.652"/>
</g>
<!-- Node27 -->
<g id="node27" class="node"><title>Node27</title>
<g id="a_node27"><a xlink:href="class_grid.html#aa3dd1e75998e6214c3ef33cdc5e02204" target="_top" xlink:title="Grid::xMaxGrid">
<polygon fill="none" stroke="black" points="366,-190.5 366,-209.5 449,-209.5 449,-190.5 366,-190.5"/>
<text text-anchor="middle" x="407.5" y="-197.5" font-family="Helvetica,sans-Serif" font-size="10.00">Grid::xMaxGrid</text>
</a>
</g>
</g>
<!-- Node3&#45;&gt;Node27 -->
<g id="edge27" class="edge"><title>Node3&#45;&gt;Node27</title>
<path fill="none" stroke="midnightblue" d="M275.72,-269.503C285.935,-266.64 296.841,-262.608 306,-257 325.84,-244.851 322.16,-231.149 342,-219 346.429,-216.288 351.266,-213.945 356.236,-211.924"/>
<polygon fill="midnightblue" stroke="midnightblue" points="357.677,-215.125 365.884,-208.424 355.29,-208.544 357.677,-215.125"/>
</g>
<!-- Node28 -->
<g id="node28" class="node"><title>Node28</title>
<g id="a_node28"><a xlink:href="class_grid.html#afa95de5fff735d1121572075a872121c" target="_top" xlink:title="Grid::yMinGrid">
<polygon fill="none" stroke="black" points="367.5,-152.5 367.5,-171.5 447.5,-171.5 447.5,-152.5 367.5,-152.5"/>
<text text-anchor="middle" x="407.5" y="-159.5" font-family="Helvetica,sans-Serif" font-size="10.00">Grid::yMinGrid</text>
</a>
</g>
</g>
<!-- Node3&#45;&gt;Node28 -->
<g id="edge28" class="edge"><title>Node3&#45;&gt;Node28</title>
<path fill="none" stroke="midnightblue" d="M275.611,-271.547C286.283,-268.776 297.483,-264.283 306,-257 334.406,-232.71 313.594,-205.29 342,-181 346.604,-177.063 351.991,-173.942 357.656,-171.467"/>
<polygon fill="midnightblue" stroke="midnightblue" points="359.193,-174.63 367.36,-167.882 356.767,-168.064 359.193,-174.63"/>
</g>
<!-- Node29 -->
<g id="node29" class="node"><title>Node29</title>
<g id="a_node29"><a xlink:href="class_grid.html#a97ee4a72430770462f5e2ba140f2ca65" target="_top" xlink:title="Grid::yMaxGrid">
<polygon fill="none" stroke="black" points="366,-114.5 366,-133.5 449,-133.5 449,-114.5 366,-114.5"/>
<text text-anchor="middle" x="407.5" y="-121.5" font-family="Helvetica,sans-Serif" font-size="10.00">Grid::yMaxGrid</text>
</a>
</g>
</g>
<!-- Node3&#45;&gt;Node29 -->
<g id="edge29" class="edge"><title>Node3&#45;&gt;Node29</title>
<path fill="none" stroke="midnightblue" d="M275.547,-272.375C286.466,-269.672 297.832,-265.011 306,-257 343.933,-219.796 304.067,-180.204 342,-143 346.063,-139.015 350.917,-135.859 356.115,-133.36"/>
<polygon fill="midnightblue" stroke="midnightblue" points="357.741,-136.48 365.743,-129.536 355.157,-129.975 357.741,-136.48"/>
</g>
<!-- Node30 -->
<g id="node30" class="node"><title>Node30</title>
<g id="a_node30"><a xlink:href="class_grid.html#aea292f48c96b2e9d1abee08040cd3833" target="_top" xlink:title="buildMarkovMatrix ">
<polygon fill="none" stroke="black" points="347.5,-76.5 347.5,-95.5 467.5,-95.5 467.5,-76.5 347.5,-76.5"/>
<text text-anchor="middle" x="407.5" y="-83.5" font-family="Helvetica,sans-Serif" font-size="10.00">Grid::buildMarkovMatrix</text>
</a>
</g>
</g>
<!-- Node3&#45;&gt;Node30 -->
<g id="edge30" class="edge"><title>Node3&#45;&gt;Node30</title>
<path fill="none" stroke="midnightblue" d="M275.554,-272.793C286.604,-270.131 298.051,-265.389 306,-257 353.749,-206.604 294.251,-155.396 342,-105 343.385,-103.538 344.876,-102.187 346.453,-100.939"/>
<polygon fill="midnightblue" stroke="midnightblue" points="348.41,-103.842 354.955,-95.5109 344.643,-97.9418 348.41,-103.842"/>
</g>
<!-- Node32 -->
<g id="node32" class="node"><title>Node32</title>
<g id="a_node32"><a xlink:href="class_solver.html#a8851263dce9a1edb047e07406eb3c566" target="_top" xlink:title="Solver::viterbiSetup">
<polygon fill="none" stroke="black" points="356.5,-38.5 356.5,-57.5 458.5,-57.5 458.5,-38.5 356.5,-38.5"/>
<text text-anchor="middle" x="407.5" y="-45.5" font-family="Helvetica,sans-Serif" font-size="10.00">Solver::viterbiSetup</text>
</a>
</g>
</g>
<!-- Node3&#45;&gt;Node32 -->
<g id="edge32" class="edge"><title>Node3&#45;&gt;Node32</title>
<path fill="none" stroke="midnightblue" d="M275.77,-272.993C286.84,-270.35 298.243,-265.567 306,-257 363.685,-193.287 284.315,-130.713 342,-67 343.748,-65.0691 345.682,-63.3305 347.755,-61.7653"/>
<polygon fill="midnightblue" stroke="midnightblue" points="349.616,-64.73 356.347,-56.548 345.983,-58.7467 349.616,-64.73"/>
</g>
<!-- Node5 -->
<g id="node5" class="node"><title>Node5</title>
<g id="a_node5"><a xlink:href="class_track.html#ab0315e74b9b49e40d163a2ff978d833c" target="_top" xlink:title="Creates a new point and inserts it in m_points. ">
<polygon fill="none" stroke="black" points="537,-532.5 537,-551.5 623,-551.5 623,-532.5 537,-532.5"/>
<text text-anchor="middle" x="580" y="-539.5" font-family="Helvetica,sans-Serif" font-size="10.00">Track::addPoint</text>
</a>
</g>
</g>
<!-- Node4&#45;&gt;Node5 -->
<g id="edge4" class="edge"><title>Node4&#45;&gt;Node5</title>
<path fill="none" stroke="midnightblue" d="M451.524,-513.589C474.399,-518.687 502.7,-524.995 526.821,-530.371"/>
<polygon fill="midnightblue" stroke="midnightblue" points="526.353,-533.852 536.874,-532.611 527.875,-527.02 526.353,-533.852"/>
</g>
<!-- Node7 -->
<g id="node7" class="node"><title>Node7</title>
<g id="a_node7"><a xlink:href="class_track.html#aac5002af6aa69a20101a5709dbbebc82" target="_top" xlink:title="Apply a threshold to bounding box once the data file has been read. ">
<polygon fill="none" stroke="black" points="509,-494.5 509,-513.5 651,-513.5 651,-494.5 509,-494.5"/>
<text text-anchor="middle" x="580" y="-501.5" font-family="Helvetica,sans-Serif" font-size="10.00">Track::applyThresholdToBox</text>
</a>
</g>
</g>
<!-- Node4&#45;&gt;Node7 -->
<g id="edge6" class="edge"><title>Node4&#45;&gt;Node7</title>
<path fill="none" stroke="midnightblue" d="M462.916,-504C474.337,-504 486.611,-504 498.749,-504"/>
<polygon fill="midnightblue" stroke="midnightblue" points="498.892,-507.5 508.892,-504 498.892,-500.5 498.892,-507.5"/>
</g>
<!-- Node6 -->
<g id="node6" class="node"><title>Node6</title>
<g id="a_node6"><a xlink:href="class_track.html#af947410651d847174d7b18d8e9df9ca7" target="_top" xlink:title="Update the enclosing box of the track. ">
<polygon fill="none" stroke="black" points="721,-532.5 721,-551.5 815,-551.5 815,-532.5 721,-532.5"/>
<text text-anchor="middle" x="768" y="-539.5" font-family="Helvetica,sans-Serif" font-size="10.00">Track::updateBox</text>
</a>
</g>
</g>
<!-- Node5&#45;&gt;Node6 -->
<g id="edge5" class="edge"><title>Node5&#45;&gt;Node6</title>
<path fill="none" stroke="midnightblue" d="M623.206,-542C649.076,-542 682.51,-542 710.627,-542"/>
<polygon fill="midnightblue" stroke="midnightblue" points="710.722,-545.5 720.722,-542 710.722,-538.5 710.722,-545.5"/>
</g>
<!-- Node9 -->
<g id="node9" class="node"><title>Node9</title>
<g id="a_node9"><a xlink:href="class_point_g_p_s.html#aa8a0cbf3cfbc3f4ac9d16737c00fcb88" target="_top" xlink:title="PointGPS::timeStamp">
<polygon fill="none" stroke="black" points="523.5,-456.5 523.5,-475.5 636.5,-475.5 636.5,-456.5 523.5,-456.5"/>
<text text-anchor="middle" x="580" y="-463.5" font-family="Helvetica,sans-Serif" font-size="10.00">PointGPS::timeStamp</text>
</a>
</g>
</g>
<!-- Node8&#45;&gt;Node9 -->
<g id="edge8" class="edge"><title>Node8&#45;&gt;Node9</title>
<path fill="none" stroke="midnightblue" d="M461.047,-466C477.569,-466 496.023,-466 513.337,-466"/>
<polygon fill="midnightblue" stroke="midnightblue" points="513.377,-469.5 523.377,-466 513.376,-462.5 513.377,-469.5"/>
</g>
<!-- Node11 -->
<g id="node11" class="node"><title>Node11</title>
<g id="a_node11"><a xlink:href="class_track.html#a0477b30aca07ba3f43b25d4c6ea782e0" target="_top" xlink:title="Deletes a occurence. ">
<polygon fill="none" stroke="black" points="528,-418.5 528,-437.5 632,-437.5 632,-418.5 528,-418.5"/>
<text text-anchor="middle" x="580" y="-425.5" font-family="Helvetica,sans-Serif" font-size="10.00">Track::delPointGPS</text>
</a>
</g>
</g>
<!-- Node10&#45;&gt;Node11 -->
<g id="edge10" class="edge"><title>Node10&#45;&gt;Node11</title>
<path fill="none" stroke="midnightblue" d="M455.09,-428C474.405,-428 497.08,-428 517.716,-428"/>
<polygon fill="midnightblue" stroke="midnightblue" points="517.974,-431.5 527.974,-428 517.974,-424.5 517.974,-431.5"/>
</g>
<!-- Node15 -->
<g id="node15" class="node"><title>Node15</title>
<g id="a_node15"><a xlink:href="class_grid.html#a6b6af4fb2545b398b47794de576f15f5" target="_top" xlink:title="Test if a point is in the defined area of a track. ">
<polygon fill="none" stroke="black" points="536,-342.5 536,-361.5 624,-361.5 624,-342.5 536,-342.5"/>
<text text-anchor="middle" x="580" y="-349.5" font-family="Helvetica,sans-Serif" font-size="10.00">Grid::inFootPrint</text>
</a>
</g>
</g>
<!-- Node14&#45;&gt;Node15 -->
<g id="edge14" class="edge"><title>Node14&#45;&gt;Node15</title>
<path fill="none" stroke="midnightblue" d="M451.524,-323.589C474.226,-328.649 502.273,-334.9 526.274,-340.249"/>
<polygon fill="midnightblue" stroke="midnightblue" points="525.763,-343.721 536.285,-342.48 527.286,-336.888 525.763,-343.721"/>
</g>
<!-- Node16 -->
<g id="node16" class="node"><title>Node16</title>
<g id="a_node16"><a xlink:href="class_grid.html#a58233ab60f7477144af334f205606aa4" target="_top" xlink:title="Find max and min of the grid. ">
<polygon fill="none" stroke="black" points="536,-304.5 536,-323.5 624,-323.5 624,-304.5 536,-304.5"/>
<text text-anchor="middle" x="580" y="-311.5" font-family="Helvetica,sans-Serif" font-size="10.00">Grid::updateGrid</text>
</a>
</g>
</g>
<!-- Node14&#45;&gt;Node16 -->
<g id="edge15" class="edge"><title>Node14&#45;&gt;Node16</title>
<path fill="none" stroke="midnightblue" d="M459.194,-314C480.199,-314 504.573,-314 525.831,-314"/>
<polygon fill="midnightblue" stroke="midnightblue" points="525.989,-317.5 535.989,-314 525.989,-310.5 525.989,-317.5"/>
</g>
<!-- Node17 -->
<g id="node17" class="node"><title>Node17</title>
<g id="a_node17"><a xlink:href="class_grid.html#aba1830bc145f128d6deeed29cfb94c9f" target="_top" xlink:title="Creates a new road and inserts it in m_road. ">
<polygon fill="none" stroke="black" points="540,-266.5 540,-285.5 620,-285.5 620,-266.5 540,-266.5"/>
<text text-anchor="middle" x="580" y="-273.5" font-family="Helvetica,sans-Serif" font-size="10.00">Grid::addRoad</text>
</a>
</g>
</g>
<!-- Node14&#45;&gt;Node17 -->
<g id="edge16" class="edge"><title>Node14&#45;&gt;Node17</title>
<path fill="none" stroke="midnightblue" d="M451.524,-304.411C475.368,-299.097 505.108,-292.469 529.864,-286.951"/>
<polygon fill="midnightblue" stroke="midnightblue" points="530.784,-290.332 539.784,-284.74 529.262,-283.5 530.784,-290.332"/>
</g>
<!-- Node18 -->
<g id="node18" class="node"><title>Node18</title>
<g id="a_node18"><a xlink:href="class_point_road.html#aa1b90c3fdf8ae7a1fcd8ce6182d13287" target="_top" xlink:title="PointRoad::outputInfos">
<polygon fill="none" stroke="black" points="709.5,-380.5 709.5,-399.5 826.5,-399.5 826.5,-380.5 709.5,-380.5"/>
<text text-anchor="middle" x="768" y="-387.5" font-family="Helvetica,sans-Serif" font-size="10.00">PointRoad::outputInfos</text>
</a>
</g>
</g>
<!-- Node17&#45;&gt;Node18 -->
<g id="edge17" class="edge"><title>Node17&#45;&gt;Node18</title>
<path fill="none" stroke="midnightblue" d="M620.164,-280.432C631.076,-283.22 642.308,-287.727 651,-295 679.665,-318.985 657.957,-347.475 687,-371 690.988,-374.23 695.434,-376.928 700.131,-379.179"/>
<polygon fill="midnightblue" stroke="midnightblue" points="698.836,-382.431 709.416,-382.98 701.487,-375.953 698.836,-382.431"/>
</g>
<!-- Node19 -->
<g id="node19" class="node"><title>Node19</title>
<g id="a_node19"><a xlink:href="class_point_road.html#ab53ccb3c883bdfd27c707901c5c658c8" target="_top" xlink:title="PointRoad::updateBelongToRoad">
<polygon fill="none" stroke="black" points="687,-342.5 687,-361.5 849,-361.5 849,-342.5 687,-342.5"/>
<text text-anchor="middle" x="768" y="-349.5" font-family="Helvetica,sans-Serif" font-size="10.00">PointRoad::updateBelongToRoad</text>
</a>
</g>
</g>
<!-- Node17&#45;&gt;Node19 -->
<g id="edge18" class="edge"><title>Node17&#45;&gt;Node19</title>
<path fill="none" stroke="midnightblue" d="M620.311,-282.658C630.754,-285.477 641.704,-289.444 651,-295 670.969,-306.936 666.843,-321.384 687,-333 690.861,-335.225 694.97,-337.19 699.21,-338.925"/>
<polygon fill="midnightblue" stroke="midnightblue" points="698.058,-342.231 708.652,-342.369 700.457,-335.655 698.058,-342.231"/>
</g>
<!-- Node20 -->
<g id="node20" class="node"><title>Node20</title>
<g id="a_node20"><a xlink:href="class_point_road.html#a998665db2d7e4fc4935ef95df092ff2b" target="_top" xlink:title="PointRoad::setid">
<polygon fill="none" stroke="black" points="723.5,-304.5 723.5,-323.5 812.5,-323.5 812.5,-304.5 723.5,-304.5"/>
<text text-anchor="middle" x="768" y="-311.5" font-family="Helvetica,sans-Serif" font-size="10.00">PointRoad::setid</text>
</a>
</g>
</g>
<!-- Node17&#45;&gt;Node20 -->
<g id="edge19" class="edge"><title>Node17&#45;&gt;Node20</title>
<path fill="none" stroke="midnightblue" d="M620.446,-284.059C647.441,-289.574 683.57,-296.955 713.2,-303.009"/>
<polygon fill="midnightblue" stroke="midnightblue" points="712.886,-306.517 723.384,-305.089 714.287,-299.658 712.886,-306.517"/>
</g>
<!-- Node21 -->
<g id="node21" class="node"><title>Node21</title>
<g id="a_node21"><a xlink:href="class_point_road.html#a81372f2c2c0fe1084fa2397289518124" target="_top" xlink:title="PointRoad::id">
<polygon fill="none" stroke="black" points="885,-285.5 885,-304.5 961,-304.5 961,-285.5 885,-285.5"/>
<text text-anchor="middle" x="923" y="-292.5" font-family="Helvetica,sans-Serif" font-size="10.00">PointRoad::id</text>
</a>
</g>
</g>
<!-- Node17&#45;&gt;Node21 -->
<g id="edge22" class="edge"><title>Node17&#45;&gt;Node21</title>
<path fill="none" stroke="midnightblue" d="M620.117,-278.18C683.053,-281.686 806.588,-288.569 874.491,-292.353"/>
<polygon fill="midnightblue" stroke="midnightblue" points="874.714,-295.871 884.894,-292.932 875.104,-288.881 874.714,-295.871"/>
</g>
<!-- Node22 -->
<g id="node22" class="node"><title>Node22</title>
<g id="a_node22"><a xlink:href="class_point_road.html#ae83941b37b026758fdd7974b4b186fbc" target="_top" xlink:title="PointRoad::isNode">
<polygon fill="none" stroke="black" points="718.5,-228.5 718.5,-247.5 817.5,-247.5 817.5,-228.5 718.5,-228.5"/>
<text text-anchor="middle" x="768" y="-235.5" font-family="Helvetica,sans-Serif" font-size="10.00">PointRoad::isNode</text>
</a>
</g>
</g>
<!-- Node17&#45;&gt;Node22 -->
<g id="edge21" class="edge"><title>Node17&#45;&gt;Node22</title>
<path fill="none" stroke="midnightblue" d="M620.446,-267.941C646.583,-262.601 681.281,-255.512 710.354,-249.573"/>
<polygon fill="midnightblue" stroke="midnightblue" points="711.282,-252.956 720.379,-247.525 709.881,-246.097 711.282,-252.956"/>
</g>
<!-- Node23 -->
<g id="node23" class="node"><title>Node23</title>
<g id="a_node23"><a xlink:href="class_road.html#a7f97b4f20c598103baad510b19a0c0b5" target="_top" xlink:title="Add a point to the road. ">
<polygon fill="none" stroke="black" points="726,-190.5 726,-209.5 810,-209.5 810,-190.5 726,-190.5"/>
<text text-anchor="middle" x="768" y="-197.5" font-family="Helvetica,sans-Serif" font-size="10.00">Road::addPoint</text>
</a>
</g>
</g>
<!-- Node17&#45;&gt;Node23 -->
<g id="edge23" class="edge"><title>Node17&#45;&gt;Node23</title>
<path fill="none" stroke="midnightblue" d="M595.855,-266.394C615.837,-253.858 652.821,-231.993 687,-219 696.111,-215.536 706.053,-212.569 715.735,-210.079"/>
<polygon fill="midnightblue" stroke="midnightblue" points="716.796,-213.423 725.684,-207.656 715.14,-206.622 716.796,-213.423"/>
</g>
<!-- Node24 -->
<g id="node24" class="node"><title>Node24</title>
<g id="a_node24"><a xlink:href="class_road.html#ad6715392969e36eb10efac542519755c" target="_top" xlink:title="Get the id of the road. ">
<polygon fill="none" stroke="black" points="730.5,-152.5 730.5,-171.5 805.5,-171.5 805.5,-152.5 730.5,-152.5"/>
<text text-anchor="middle" x="768" y="-159.5" font-family="Helvetica,sans-Serif" font-size="10.00">Road::edgeId</text>
</a>
</g>
</g>
<!-- Node17&#45;&gt;Node24 -->
<g id="edge24" class="edge"><title>Node17&#45;&gt;Node24</title>
<path fill="none" stroke="midnightblue" d="M588.666,-266.49C604.747,-247.211 644.082,-203.45 687,-181 697.272,-175.627 709.078,-171.75 720.411,-168.962"/>
<polygon fill="midnightblue" stroke="midnightblue" points="721.198,-172.373 730.197,-166.781 719.676,-165.54 721.198,-172.373"/>
</g>
<!-- Node20&#45;&gt;Node21 -->
<g id="edge20" class="edge"><title>Node20&#45;&gt;Node21</title>
<path fill="none" stroke="midnightblue" d="M812.844,-308.555C832.244,-306.146 855.094,-303.309 874.861,-300.854"/>
<polygon fill="midnightblue" stroke="midnightblue" points="875.39,-304.315 884.882,-299.609 874.527,-297.369 875.39,-304.315"/>
</g>
<!-- Node31 -->
<g id="node31" class="node"><title>Node31</title>
<g id="a_node31"><a xlink:href="class_grid.html#a54c76e927f8428bca87520d8ca310bec" target="_top" xlink:title="Grid::getRoadEntry">
<polygon fill="none" stroke="black" points="529.5,-76.5 529.5,-95.5 630.5,-95.5 630.5,-76.5 529.5,-76.5"/>
<text text-anchor="middle" x="580" y="-83.5" font-family="Helvetica,sans-Serif" font-size="10.00">Grid::getRoadEntry</text>
</a>
</g>
</g>
<!-- Node30&#45;&gt;Node31 -->
<g id="edge31" class="edge"><title>Node30&#45;&gt;Node31</title>
<path fill="none" stroke="midnightblue" d="M467.654,-86C484.301,-86 502.417,-86 519.106,-86"/>
<polygon fill="midnightblue" stroke="midnightblue" points="519.288,-89.5001 529.288,-86 519.288,-82.5001 519.288,-89.5001"/>
</g>
<!-- Node33 -->
<g id="node33" class="node"><title>Node33</title>
<g id="a_node33"><a xlink:href="class_grid.html#aa0545cd5f236dced312b694dc768f137" target="_top" xlink:title="Getters. ">
<polygon fill="none" stroke="black" points="527,-38.5 527,-57.5 633,-57.5 633,-38.5 527,-38.5"/>
<text text-anchor="middle" x="580" y="-45.5" font-family="Helvetica,sans-Serif" font-size="10.00">Grid::getNoOfRoads</text>
</a>
</g>
</g>
<!-- Node32&#45;&gt;Node33 -->
<g id="edge33" class="edge"><title>Node32&#45;&gt;Node33</title>
<path fill="none" stroke="midnightblue" d="M458.733,-48C476.885,-48 497.6,-48 516.664,-48"/>
<polygon fill="midnightblue" stroke="midnightblue" points="516.758,-51.5001 526.758,-48 516.758,-44.5001 516.758,-51.5001"/>
</g>
<!-- Node34 -->
<g id="node34" class="node"><title>Node34</title>
<g id="a_node34"><a xlink:href="class_track.html#aa16b233f5eaca258da5f00aca77e00f9" target="_top" xlink:title="Track::getNoOfPoints">
<polygon fill="none" stroke="black" points="524,-0.5 524,-19.5 636,-19.5 636,-0.5 524,-0.5"/>
<text text-anchor="middle" x="580" y="-7.5" font-family="Helvetica,sans-Serif" font-size="10.00">Track::getNoOfPoints</text>
</a>
</g>
</g>
<!-- Node32&#45;&gt;Node34 -->
<g id="edge34" class="edge"><title>Node32&#45;&gt;Node34</title>
<path fill="none" stroke="midnightblue" d="M451.524,-38.411C474.226,-33.3513 502.273,-27.1004 526.274,-21.7512"/>
<polygon fill="midnightblue" stroke="midnightblue" points="527.286,-25.1117 536.285,-19.5201 525.763,-18.2793 527.286,-25.1117"/>
</g>
</g>
</svg>
