<?xml version="1.0" encoding="UTF-8" standalone="no"?>
<!DOCTYPE svg PUBLIC "-//W3C//DTD SVG 1.1//EN"
 "http://www.w3.org/Graphics/SVG/1.1/DTD/svg11.dtd">
<!-- Generated by graphviz version 2.38.0 (20140413.2041)
 -->
<!-- Title: dev_img Pages: 1 -->
<svg width="197pt" height="66pt"
 viewBox="0.00 0.00 197.00 66.00" xmlns="http://www.w3.org/2000/svg" xmlns:xlink="http://www.w3.org/1999/xlink">
<g id="graph0" class="graph" transform="scale(1 1) rotate(0) translate(4 62)">
<title>dev_img</title>
<!-- Node1 -->
<g id="node1" class="node"><title>Node1</title>
<polygon fill="#bfbfbf" stroke="black" points="0,-19.5 0,-38.5 53,-38.5 53,-19.5 0,-19.5"/>
<text text-anchor="middle" x="26.5" y="-26.5" font-family="Helvetica,sans-Serif" font-size="10.00">dev_img</text>
</g>
<!-- Node2 -->
<g id="node2" class="node"><title>Node2</title>
<g id="a_node2"><a xlink:href="class_map.html#ad7554d14b445b15ef83465ae3829bf76" target="_top" xlink:title="Map::makePolyline">
<polygon fill="none" stroke="black" points="89,-38.5 89,-57.5 189,-57.5 189,-38.5 89,-38.5"/>
<text text-anchor="middle" x="139" y="-45.5" font-family="Helvetica,sans-Serif" font-size="10.00">Map::makePolyline</text>
</a>
</g>
</g>
<!-- Node1&#45;&gt;Node2 -->
<g id="edge1" class="edge"><title>Node1&#45;&gt;Node2</title>
<path fill="none" stroke="midnightblue" d="M53.1287,-33.4067C60.8182,-34.7289 69.5945,-36.238 78.5189,-37.7725"/>
<polygon fill="midnightblue" stroke="midnightblue" points="78.1593,-41.2619 88.6078,-39.5072 79.3456,-34.3632 78.1593,-41.2619"/>
</g>
<!-- Node3 -->
<g id="node3" class="node"><title>Node3</title>
<g id="a_node3"><a xlink:href="class_map.html#ad25cd1c04791edcda24f7aaba0ca6557" target="_top" xlink:title="save the current image ">
<polygon fill="none" stroke="black" points="108,-0.5 108,-19.5 170,-19.5 170,-0.5 108,-0.5"/>
<text text-anchor="middle" x="139" y="-7.5" font-family="Helvetica,sans-Serif" font-size="10.00">Map::save</text>
</a>
</g>
</g>
<!-- Node1&#45;&gt;Node3 -->
<g id="edge2" class="edge"><title>Node1&#45;&gt;Node3</title>
<path fill="none" stroke="midnightblue" d="M53.1287,-24.5933C66.3898,-22.3131 82.8834,-19.4771 97.7944,-16.9132"/>
<polygon fill="midnightblue" stroke="midnightblue" points="98.5432,-20.3359 107.805,-15.1918 97.3569,-13.4371 98.5432,-20.3359"/>
</g>
</g>
</svg>
