<?xml version="1.0" encoding="UTF-8" standalone="no"?>
<!DOCTYPE svg PUBLIC "-//W3C//DTD SVG 1.1//EN"
 "http://www.w3.org/Graphics/SVG/1.1/DTD/svg11.dtd">
<!-- Generated by graphviz version 2.38.0 (20140413.2041)
 -->
<!-- Title: dev_img Pages: 1 -->
<svg width="409pt" height="256pt"
 viewBox="0.00 0.00 409.00 256.00" xmlns="http://www.w3.org/2000/svg" xmlns:xlink="http://www.w3.org/1999/xlink">
<g id="graph0" class="graph" transform="scale(1 1) rotate(0) translate(4 252)">
<title>dev_img</title>
<!-- Node1 -->
<g id="node1" class="node"><title>Node1</title>
<polygon fill="#bfbfbf" stroke="black" points="0,-114.5 0,-133.5 53,-133.5 53,-114.5 0,-114.5"/>
<text text-anchor="middle" x="26.5" y="-121.5" font-family="Helvetica,sans-Serif" font-size="10.00">dev_img</text>
</g>
<!-- Node2 -->
<g id="node2" class="node"><title>Node2</title>
<g id="a_node2"><a xlink:href="class_map.html#a65a21293c1d7351ea086f685991b6fae" target="_top" xlink:title="scaleCalculator ">
<polygon fill="none" stroke="black" points="107.5,-228.5 107.5,-247.5 216.5,-247.5 216.5,-228.5 107.5,-228.5"/>
<text text-anchor="middle" x="162" y="-235.5" font-family="Helvetica,sans-Serif" font-size="10.00">Map::scaleCalculator</text>
</a>
</g>
</g>
<!-- Node1&#45;&gt;Node2 -->
<g id="edge1" class="edge"><title>Node1&#45;&gt;Node2</title>
<path fill="none" stroke="midnightblue" d="M31.0274,-133.782C38.5329,-153.165 57.9781,-196.517 89,-219 91.8607,-221.073 94.9311,-222.92 98.1338,-224.566"/>
<polygon fill="midnightblue" stroke="midnightblue" points="96.8853,-227.841 107.446,-228.691 99.7203,-221.441 96.8853,-227.841"/>
</g>
<!-- Node3 -->
<g id="node3" class="node"><title>Node3</title>
<g id="a_node3"><a xlink:href="class_map.html#a76eec388eebc5e22e1aa39082b885aa4" target="_top" xlink:title="deltaCalculator ">
<polygon fill="none" stroke="black" points="108.5,-190.5 108.5,-209.5 215.5,-209.5 215.5,-190.5 108.5,-190.5"/>
<text text-anchor="middle" x="162" y="-197.5" font-family="Helvetica,sans-Serif" font-size="10.00">Map::deltaCalculator</text>
</a>
</g>
</g>
<!-- Node1&#45;&gt;Node3 -->
<g id="edge2" class="edge"><title>Node1&#45;&gt;Node3</title>
<path fill="none" stroke="midnightblue" d="M35.1863,-133.604C45.8994,-146.343 66.5485,-168.655 89,-181 93.1703,-183.293 97.63,-185.319 102.21,-187.109"/>
<polygon fill="midnightblue" stroke="midnightblue" points="101.13,-190.439 111.724,-190.457 103.453,-183.836 101.13,-190.439"/>
</g>
<!-- Node4 -->
<g id="node4" class="node"><title>Node4</title>
<g id="a_node4"><a xlink:href="class_map.html#ab31f3b3557f28b10e312d6c910146dcb" target="_top" xlink:title="makePolyline ">
<polygon fill="none" stroke="black" points="112,-152.5 112,-171.5 212,-171.5 212,-152.5 112,-152.5"/>
<text text-anchor="middle" x="162" y="-159.5" font-family="Helvetica,sans-Serif" font-size="10.00">Map::makePolyline</text>
</a>
</g>
</g>
<!-- Node1&#45;&gt;Node4 -->
<g id="edge3" class="edge"><title>Node1&#45;&gt;Node4</title>
<path fill="none" stroke="midnightblue" d="M53.1622,-132.189C64.1655,-135.633 77.1822,-139.617 89,-143 96.9524,-145.277 105.427,-147.602 113.667,-149.81"/>
<polygon fill="midnightblue" stroke="midnightblue" points="112.986,-153.25 123.55,-152.433 114.782,-146.485 112.986,-153.25"/>
</g>
<!-- Node5 -->
<g id="node5" class="node"><title>Node5</title>
<g id="a_node5"><a xlink:href="class_map.html#af49cbdcf946167a1192d4ba67618f070" target="_top" xlink:title="Map::makePolylineFromRoad">
<polygon fill="none" stroke="black" points="89,-114.5 89,-133.5 235,-133.5 235,-114.5 89,-114.5"/>
<text text-anchor="middle" x="162" y="-121.5" font-family="Helvetica,sans-Serif" font-size="10.00">Map::makePolylineFromRoad</text>
</a>
</g>
</g>
<!-- Node1&#45;&gt;Node5 -->
<g id="edge4" class="edge"><title>Node1&#45;&gt;Node5</title>
<path fill="none" stroke="midnightblue" d="M53.2401,-124C60.8632,-124 69.6513,-124 78.8522,-124"/>
<polygon fill="midnightblue" stroke="midnightblue" points="78.9627,-127.5 88.9627,-124 78.9626,-120.5 78.9627,-127.5"/>
</g>
<!-- Node7 -->
<g id="node7" class="node"><title>Node7</title>
<g id="a_node7"><a xlink:href="class_map.html#a9013c3efbd674f2880d67222eb5fefc2" target="_top" xlink:title="Map::makePointFromTrack">
<polygon fill="none" stroke="black" points="94.5,-76.5 94.5,-95.5 229.5,-95.5 229.5,-76.5 94.5,-76.5"/>
<text text-anchor="middle" x="162" y="-83.5" font-family="Helvetica,sans-Serif" font-size="10.00">Map::makePointFromTrack</text>
</a>
</g>
</g>
<!-- Node1&#45;&gt;Node7 -->
<g id="edge6" class="edge"><title>Node1&#45;&gt;Node7</title>
<path fill="none" stroke="midnightblue" d="M53.1622,-115.811C64.1655,-112.367 77.1822,-108.383 89,-105 96.9524,-102.723 105.427,-100.398 113.667,-98.1901"/>
<polygon fill="midnightblue" stroke="midnightblue" points="114.782,-101.515 123.55,-95.5668 112.986,-94.7496 114.782,-101.515"/>
</g>
<!-- Node8 -->
<g id="node8" class="node"><title>Node8</title>
<g id="a_node8"><a xlink:href="class_map.html#a252bb9c052015eac4e2a6b5cbe39f31c" target="_top" xlink:title="Map::landmarkMaker">
<polygon fill="none" stroke="black" points="108,-38.5 108,-57.5 216,-57.5 216,-38.5 108,-38.5"/>
<text text-anchor="middle" x="162" y="-45.5" font-family="Helvetica,sans-Serif" font-size="10.00">Map::landmarkMaker</text>
</a>
</g>
</g>
<!-- Node1&#45;&gt;Node8 -->
<g id="edge8" class="edge"><title>Node1&#45;&gt;Node8</title>
<path fill="none" stroke="midnightblue" d="M35.1863,-114.396C45.8994,-101.657 66.5485,-79.3449 89,-67 93.1703,-64.707 97.63,-62.6806 102.21,-60.8915"/>
<polygon fill="midnightblue" stroke="midnightblue" points="103.453,-64.1643 111.724,-57.5431 101.13,-57.5613 103.453,-64.1643"/>
</g>
<!-- Node10 -->
<g id="node10" class="node"><title>Node10</title>
<g id="a_node10"><a xlink:href="class_map.html#a9b194ba0253bb86032877a5fa49ea122" target="_top" xlink:title="save the current image ">
<polygon fill="none" stroke="black" points="131,-0.5 131,-19.5 193,-19.5 193,-0.5 131,-0.5"/>
<text text-anchor="middle" x="162" y="-7.5" font-family="Helvetica,sans-Serif" font-size="10.00">Map::save</text>
</a>
</g>
</g>
<!-- Node1&#45;&gt;Node10 -->
<g id="edge10" class="edge"><title>Node1&#45;&gt;Node10</title>
<path fill="none" stroke="midnightblue" d="M31.0274,-114.218C38.5329,-94.835 57.9781,-51.483 89,-29 98.2968,-22.2622 109.809,-17.9127 120.88,-15.1052"/>
<polygon fill="midnightblue" stroke="midnightblue" points="121.82,-18.4826 130.847,-12.9362 120.331,-11.6427 121.82,-18.4826"/>
</g>
<!-- Node6 -->
<g id="node6" class="node"><title>Node6</title>
<g id="a_node6"><a xlink:href="class_map.html#afcf922c62157c1c6a39cc76daa07c51f" target="_top" xlink:title="coordinateTranslator ">
<polygon fill="none" stroke="black" points="271,-95.5 271,-114.5 401,-114.5 401,-95.5 271,-95.5"/>
<text text-anchor="middle" x="336" y="-102.5" font-family="Helvetica,sans-Serif" font-size="10.00">Map::coordinateTranslator</text>
</a>
</g>
</g>
<!-- Node5&#45;&gt;Node6 -->
<g id="edge5" class="edge"><title>Node5&#45;&gt;Node6</title>
<path fill="none" stroke="midnightblue" d="M235.445,-115.997C243.8,-115.074 252.329,-114.132 260.708,-113.207"/>
<polygon fill="midnightblue" stroke="midnightblue" points="261.276,-116.665 270.831,-112.088 260.507,-109.708 261.276,-116.665"/>
</g>
<!-- Node7&#45;&gt;Node6 -->
<g id="edge7" class="edge"><title>Node7&#45;&gt;Node6</title>
<path fill="none" stroke="midnightblue" d="M229.992,-93.4003C240.038,-94.51 250.448,-95.6599 260.636,-96.7853"/>
<polygon fill="midnightblue" stroke="midnightblue" points="260.404,-100.281 270.728,-97.9002 261.173,-93.3233 260.404,-100.281"/>
</g>
<!-- Node9 -->
<g id="node9" class="node"><title>Node9</title>
<g id="a_node9"><a xlink:href="class_map.html#a4ce23875252638dd588889f105620e00" target="_top" xlink:title="Map::write">
<polygon fill="none" stroke="black" points="305,-38.5 305,-57.5 367,-57.5 367,-38.5 305,-38.5"/>
<text text-anchor="middle" x="336" y="-45.5" font-family="Helvetica,sans-Serif" font-size="10.00">Map::write</text>
</a>
</g>
</g>
<!-- Node8&#45;&gt;Node9 -->
<g id="edge9" class="edge"><title>Node8&#45;&gt;Node9</title>
<path fill="none" stroke="midnightblue" d="M216.009,-48C241.346,-48 271.186,-48 294.645,-48"/>
<polygon fill="midnightblue" stroke="midnightblue" points="294.935,-51.5001 304.935,-48 294.935,-44.5001 294.935,-51.5001"/>
</g>
</g>
</svg>
