<?xml version="1.0" encoding="UTF-8" standalone="no"?>
<!DOCTYPE svg PUBLIC "-//W3C//DTD SVG 1.1//EN"
 "http://www.w3.org/Graphics/SVG/1.1/DTD/svg11.dtd">
<!-- Generated by graphviz version 2.38.0 (20140413.2041)
 -->
<!-- Title: dev_thread Pages: 1 -->
<svg width="895pt" height="313pt"
 viewBox="0.00 0.00 895.00 313.00" xmlns="http://www.w3.org/2000/svg" xmlns:xlink="http://www.w3.org/1999/xlink">
<g id="graph0" class="graph" transform="scale(1 1) rotate(0) translate(4 309)">
<title>dev_thread</title>
<!-- Node1 -->
<g id="node1" class="node"><title>Node1</title>
<polygon fill="#bfbfbf" stroke="black" points="0,-133.5 0,-152.5 65,-152.5 65,-133.5 0,-133.5"/>
<text text-anchor="middle" x="32.5" y="-140.5" font-family="Helvetica,sans-Serif" font-size="10.00">dev_thread</text>
</g>
<!-- Node2 -->
<g id="node2" class="node"><title>Node2</title>
<g id="a_node2"><a xlink:href="class_solver.html#a97bc7169c18b339fecd4937150f907c3" target="_top" xlink:title="Solver::start">
<polygon fill="none" stroke="black" points="131.5,-171.5 131.5,-190.5 201.5,-190.5 201.5,-171.5 131.5,-171.5"/>
<text text-anchor="middle" x="166.5" y="-178.5" font-family="Helvetica,sans-Serif" font-size="10.00">Solver::start</text>
</a>
</g>
</g>
<!-- Node1&#45;&gt;Node2 -->
<g id="edge1" class="edge"><title>Node1&#45;&gt;Node2</title>
<path fill="none" stroke="midnightblue" d="M65.1173,-152.102C82.3147,-157.053 103.833,-163.247 122.532,-168.63"/>
<polygon fill="midnightblue" stroke="midnightblue" points="121.721,-172.039 132.299,-171.442 123.657,-165.312 121.721,-172.039"/>
</g>
<!-- Node23 -->
<g id="node23" class="node"><title>Node23</title>
<g id="a_node23"><a xlink:href="class_controller.html#ab8e345d91e901e46e0ad42a0b75ef94c" target="_top" xlink:title="Controller::addSolver">
<polygon fill="none" stroke="black" points="112.5,-133.5 112.5,-152.5 220.5,-152.5 220.5,-133.5 112.5,-133.5"/>
<text text-anchor="middle" x="166.5" y="-140.5" font-family="Helvetica,sans-Serif" font-size="10.00">Controller::addSolver</text>
</a>
</g>
</g>
<!-- Node1&#45;&gt;Node23 -->
<g id="edge23" class="edge"><title>Node1&#45;&gt;Node23</title>
<path fill="none" stroke="midnightblue" d="M65.1173,-143C76.3113,-143 89.3362,-143 102.222,-143"/>
<polygon fill="midnightblue" stroke="midnightblue" points="102.49,-146.5 112.49,-143 102.489,-139.5 102.49,-146.5"/>
</g>
<!-- Node24 -->
<g id="node24" class="node"><title>Node24</title>
<g id="a_node24"><a xlink:href="class_controller.html#aa92b9a18a88aeb59c53272c3beab2724" target="_top" xlink:title="Controller::connectSignals">
<polygon fill="none" stroke="black" points="101,-95.5 101,-114.5 232,-114.5 232,-95.5 101,-95.5"/>
<text text-anchor="middle" x="166.5" y="-102.5" font-family="Helvetica,sans-Serif" font-size="10.00">Controller::connectSignals</text>
</a>
</g>
</g>
<!-- Node1&#45;&gt;Node24 -->
<g id="edge24" class="edge"><title>Node1&#45;&gt;Node24</title>
<path fill="none" stroke="midnightblue" d="M65.1173,-133.898C82.3147,-128.947 103.833,-122.753 122.532,-117.37"/>
<polygon fill="midnightblue" stroke="midnightblue" points="123.657,-120.688 132.299,-114.558 121.721,-113.961 123.657,-120.688"/>
</g>
<!-- Node3 -->
<g id="node3" class="node"><title>Node3</title>
<g id="a_node3"><a xlink:href="class_track.html#aff258a8c303ee8a09a962d237f3823e7" target="_top" xlink:title="Reads a csv file and inserts each point in m_points vector. ">
<polygon fill="none" stroke="black" points="278.5,-266.5 278.5,-285.5 388.5,-285.5 388.5,-266.5 278.5,-266.5"/>
<text text-anchor="middle" x="333.5" y="-273.5" font-family="Helvetica,sans-Serif" font-size="10.00">Track::readFromCSV</text>
</a>
</g>
</g>
<!-- Node2&#45;&gt;Node3 -->
<g id="edge2" class="edge"><title>Node2&#45;&gt;Node3</title>
<path fill="none" stroke="midnightblue" d="M177.507,-190.574C194.684,-206.52 231.473,-238.585 268,-257 272.51,-259.274 277.338,-261.322 282.247,-263.155"/>
<polygon fill="midnightblue" stroke="midnightblue" points="281.132,-266.473 291.727,-266.419 283.411,-259.854 281.132,-266.473"/>
</g>
<!-- Node7 -->
<g id="node7" class="node"><title>Node7</title>
<g id="a_node7"><a xlink:href="class_track.html#ad262a30c2abcd29cf4cdc04facd290ee" target="_top" xlink:title="Track::getPointsAsPointer">
<polygon fill="none" stroke="black" points="268,-228.5 268,-247.5 399,-247.5 399,-228.5 268,-228.5"/>
<text text-anchor="middle" x="333.5" y="-235.5" font-family="Helvetica,sans-Serif" font-size="10.00">Track::getPointsAsPointer</text>
</a>
</g>
</g>
<!-- Node2&#45;&gt;Node7 -->
<g id="edge6" class="edge"><title>Node2&#45;&gt;Node7</title>
<path fill="none" stroke="midnightblue" d="M191.28,-190.568C211.53,-198.577 241.475,-210.093 268,-219 274.543,-221.197 281.504,-223.393 288.341,-225.471"/>
<polygon fill="midnightblue" stroke="midnightblue" points="287.623,-228.909 298.207,-228.417 289.627,-222.202 287.623,-228.909"/>
</g>
<!-- Node8 -->
<g id="node8" class="node"><title>Node8</title>
<g id="a_node8"><a xlink:href="class_track.html#abf3b02de2c94d38c6a79b7c932aa6c5b" target="_top" xlink:title="Return a string containing information about the content of this object. ">
<polygon fill="none" stroke="black" points="299.5,-190.5 299.5,-209.5 367.5,-209.5 367.5,-190.5 299.5,-190.5"/>
<text text-anchor="middle" x="333.5" y="-197.5" font-family="Helvetica,sans-Serif" font-size="10.00">Track::infos</text>
</a>
</g>
</g>
<!-- Node2&#45;&gt;Node8 -->
<g id="edge7" class="edge"><title>Node2&#45;&gt;Node8</title>
<path fill="none" stroke="midnightblue" d="M201.688,-184.937C227.133,-187.867 262.045,-191.887 289.402,-195.037"/>
<polygon fill="midnightblue" stroke="midnightblue" points="289.147,-198.531 299.482,-196.198 289.948,-191.577 289.147,-198.531"/>
</g>
<!-- Node9 -->
<g id="node9" class="node"><title>Node9</title>
<g id="a_node9"><a xlink:href="class_grid.html#ae848f1c59c544adc1af9133409ee0106" target="_top" xlink:title="Reads a csv file and inserts info into the corresponding attributs. ">
<polygon fill="none" stroke="black" points="282,-152.5 282,-171.5 385,-171.5 385,-152.5 282,-152.5"/>
<text text-anchor="middle" x="333.5" y="-159.5" font-family="Helvetica,sans-Serif" font-size="10.00">Grid::readFromCSV</text>
</a>
</g>
</g>
<!-- Node2&#45;&gt;Node9 -->
<g id="edge8" class="edge"><title>Node2&#45;&gt;Node9</title>
<path fill="none" stroke="midnightblue" d="M201.688,-177.063C221.924,-174.733 248.147,-171.713 271.796,-168.99"/>
<polygon fill="midnightblue" stroke="midnightblue" points="272.215,-172.465 281.748,-167.844 271.414,-165.511 272.215,-172.465"/>
</g>
<!-- Node20 -->
<g id="node20" class="node"><title>Node20</title>
<g id="a_node20"><a xlink:href="class_grid.html#a37103de283959ce994c5c76113b7b033" target="_top" xlink:title="Grid::infos">
<polygon fill="none" stroke="black" points="302.5,-114.5 302.5,-133.5 364.5,-133.5 364.5,-114.5 302.5,-114.5"/>
<text text-anchor="middle" x="333.5" y="-121.5" font-family="Helvetica,sans-Serif" font-size="10.00">Grid::infos</text>
</a>
</g>
</g>
<!-- Node2&#45;&gt;Node20 -->
<g id="edge20" class="edge"><title>Node2&#45;&gt;Node20</title>
<path fill="none" stroke="midnightblue" d="M201.745,-172.287C211.647,-169.4 222.375,-165.912 232,-162 248.76,-155.188 251.24,-149.812 268,-143 275.765,-139.844 284.249,-136.963 292.437,-134.452"/>
<polygon fill="midnightblue" stroke="midnightblue" points="293.603,-137.758 302.21,-131.579 291.629,-131.042 293.603,-137.758"/>
</g>
<!-- Node21 -->
<g id="node21" class="node"><title>Node21</title>
<g id="a_node21"><a xlink:href="class_grid.html#aea292f48c96b2e9d1abee08040cd3833" target="_top" xlink:title="buildMarkovMatrix ">
<polygon fill="none" stroke="black" points="273.5,-76.5 273.5,-95.5 393.5,-95.5 393.5,-76.5 273.5,-76.5"/>
<text text-anchor="middle" x="333.5" y="-83.5" font-family="Helvetica,sans-Serif" font-size="10.00">Grid::buildMarkovMatrix</text>
</a>
</g>
</g>
<!-- Node2&#45;&gt;Node21 -->
<g id="edge21" class="edge"><title>Node2&#45;&gt;Node21</title>
<path fill="none" stroke="midnightblue" d="M201.779,-175.75C212.222,-172.933 223.244,-168.614 232,-162 255.908,-143.939 244.092,-123.061 268,-105 270.481,-103.125 273.145,-101.435 275.926,-99.9113"/>
<polygon fill="midnightblue" stroke="midnightblue" points="277.564,-103.009 285.127,-95.5884 274.588,-96.673 277.564,-103.009"/>
</g>
<!-- Node4 -->
<g id="node4" class="node"><title>Node4</title>
<g id="a_node4"><a xlink:href="class_track.html#ab0315e74b9b49e40d163a2ff978d833c" target="_top" xlink:title="Creates a new point and inserts it in m_points. ">
<polygon fill="none" stroke="black" points="463,-285.5 463,-304.5 549,-304.5 549,-285.5 463,-285.5"/>
<text text-anchor="middle" x="506" y="-292.5" font-family="Helvetica,sans-Serif" font-size="10.00">Track::addPoint</text>
</a>
</g>
</g>
<!-- Node3&#45;&gt;Node4 -->
<g id="edge3" class="edge"><title>Node3&#45;&gt;Node4</title>
<path fill="none" stroke="midnightblue" d="M388.916,-282.064C409.425,-284.349 432.687,-286.942 452.972,-289.202"/>
<polygon fill="midnightblue" stroke="midnightblue" points="452.646,-292.687 462.972,-290.317 453.421,-285.73 452.646,-292.687"/>
</g>
<!-- Node6 -->
<g id="node6" class="node"><title>Node6</title>
<g id="a_node6"><a xlink:href="class_track.html#aac5002af6aa69a20101a5709dbbebc82" target="_top" xlink:title="Apply a threshold to bounding box once the data file has been read. ">
<polygon fill="none" stroke="black" points="435,-247.5 435,-266.5 577,-266.5 577,-247.5 435,-247.5"/>
<text text-anchor="middle" x="506" y="-254.5" font-family="Helvetica,sans-Serif" font-size="10.00">Track::applyThresholdToBox</text>
</a>
</g>
</g>
<!-- Node3&#45;&gt;Node6 -->
<g id="edge5" class="edge"><title>Node3&#45;&gt;Node6</title>
<path fill="none" stroke="midnightblue" d="M388.916,-269.936C400.337,-268.663 412.611,-267.296 424.749,-265.943"/>
<polygon fill="midnightblue" stroke="midnightblue" points="425.341,-269.399 434.892,-264.813 424.566,-262.442 425.341,-269.399"/>
</g>
<!-- Node5 -->
<g id="node5" class="node"><title>Node5</title>
<g id="a_node5"><a xlink:href="class_track.html#af947410651d847174d7b18d8e9df9ca7" target="_top" xlink:title="Update the enclosing box of the track. ">
<polygon fill="none" stroke="black" points="647,-285.5 647,-304.5 741,-304.5 741,-285.5 647,-285.5"/>
<text text-anchor="middle" x="694" y="-292.5" font-family="Helvetica,sans-Serif" font-size="10.00">Track::updateBox</text>
</a>
</g>
</g>
<!-- Node4&#45;&gt;Node5 -->
<g id="edge4" class="edge"><title>Node4&#45;&gt;Node5</title>
<path fill="none" stroke="midnightblue" d="M549.206,-295C575.076,-295 608.51,-295 636.627,-295"/>
<polygon fill="midnightblue" stroke="midnightblue" points="636.722,-298.5 646.722,-295 636.722,-291.5 636.722,-298.5"/>
</g>
<!-- Node10 -->
<g id="node10" class="node"><title>Node10</title>
<g id="a_node10"><a xlink:href="class_grid.html#a6b6af4fb2545b398b47794de576f15f5" target="_top" xlink:title="Test if a point is in the defined area of a track. ">
<polygon fill="none" stroke="black" points="462,-190.5 462,-209.5 550,-209.5 550,-190.5 462,-190.5"/>
<text text-anchor="middle" x="506" y="-197.5" font-family="Helvetica,sans-Serif" font-size="10.00">Grid::inFootPrint</text>
</a>
</g>
</g>
<!-- Node9&#45;&gt;Node10 -->
<g id="edge9" class="edge"><title>Node9&#45;&gt;Node10</title>
<path fill="none" stroke="midnightblue" d="M377.524,-171.589C400.226,-176.649 428.273,-182.9 452.274,-188.249"/>
<polygon fill="midnightblue" stroke="midnightblue" points="451.763,-191.721 462.285,-190.48 453.286,-184.888 451.763,-191.721"/>
</g>
<!-- Node11 -->
<g id="node11" class="node"><title>Node11</title>
<g id="a_node11"><a xlink:href="class_grid.html#a58233ab60f7477144af334f205606aa4" target="_top" xlink:title="Find max and min of the grid. ">
<polygon fill="none" stroke="black" points="462,-152.5 462,-171.5 550,-171.5 550,-152.5 462,-152.5"/>
<text text-anchor="middle" x="506" y="-159.5" font-family="Helvetica,sans-Serif" font-size="10.00">Grid::updateGrid</text>
</a>
</g>
</g>
<!-- Node9&#45;&gt;Node11 -->
<g id="edge10" class="edge"><title>Node9&#45;&gt;Node11</title>
<path fill="none" stroke="midnightblue" d="M385.194,-162C406.199,-162 430.573,-162 451.831,-162"/>
<polygon fill="midnightblue" stroke="midnightblue" points="451.989,-165.5 461.989,-162 451.989,-158.5 451.989,-165.5"/>
</g>
<!-- Node12 -->
<g id="node12" class="node"><title>Node12</title>
<g id="a_node12"><a xlink:href="class_grid.html#aba1830bc145f128d6deeed29cfb94c9f" target="_top" xlink:title="Creates a new road and inserts it in m_road. ">
<polygon fill="none" stroke="black" points="466,-114.5 466,-133.5 546,-133.5 546,-114.5 466,-114.5"/>
<text text-anchor="middle" x="506" y="-121.5" font-family="Helvetica,sans-Serif" font-size="10.00">Grid::addRoad</text>
</a>
</g>
</g>
<!-- Node9&#45;&gt;Node12 -->
<g id="edge11" class="edge"><title>Node9&#45;&gt;Node12</title>
<path fill="none" stroke="midnightblue" d="M377.524,-152.411C401.368,-147.097 431.108,-140.469 455.864,-134.951"/>
<polygon fill="midnightblue" stroke="midnightblue" points="456.784,-138.332 465.784,-132.74 455.262,-131.5 456.784,-138.332"/>
</g>
<!-- Node13 -->
<g id="node13" class="node"><title>Node13</title>
<g id="a_node13"><a xlink:href="class_point_road.html#aa1b90c3fdf8ae7a1fcd8ce6182d13287" target="_top" xlink:title="PointRoad::outputInfos">
<polygon fill="none" stroke="black" points="635.5,-228.5 635.5,-247.5 752.5,-247.5 752.5,-228.5 635.5,-228.5"/>
<text text-anchor="middle" x="694" y="-235.5" font-family="Helvetica,sans-Serif" font-size="10.00">PointRoad::outputInfos</text>
</a>
</g>
</g>
<!-- Node12&#45;&gt;Node13 -->
<g id="edge12" class="edge"><title>Node12&#45;&gt;Node13</title>
<path fill="none" stroke="midnightblue" d="M546.164,-128.432C557.076,-131.22 568.308,-135.727 577,-143 605.665,-166.985 583.957,-195.475 613,-219 616.988,-222.23 621.434,-224.928 626.131,-227.179"/>
<polygon fill="midnightblue" stroke="midnightblue" points="624.836,-230.431 635.416,-230.98 627.487,-223.953 624.836,-230.431"/>
</g>
<!-- Node14 -->
<g id="node14" class="node"><title>Node14</title>
<g id="a_node14"><a xlink:href="class_point_road.html#ab53ccb3c883bdfd27c707901c5c658c8" target="_top" xlink:title="PointRoad::updateBelongToRoad">
<polygon fill="none" stroke="black" points="613,-190.5 613,-209.5 775,-209.5 775,-190.5 613,-190.5"/>
<text text-anchor="middle" x="694" y="-197.5" font-family="Helvetica,sans-Serif" font-size="10.00">PointRoad::updateBelongToRoad</text>
</a>
</g>
</g>
<!-- Node12&#45;&gt;Node14 -->
<g id="edge13" class="edge"><title>Node12&#45;&gt;Node14</title>
<path fill="none" stroke="midnightblue" d="M546.311,-130.658C556.754,-133.477 567.704,-137.444 577,-143 596.969,-154.936 592.843,-169.384 613,-181 616.861,-183.225 620.97,-185.19 625.21,-186.925"/>
<polygon fill="midnightblue" stroke="midnightblue" points="624.058,-190.231 634.652,-190.369 626.457,-183.655 624.058,-190.231"/>
</g>
<!-- Node15 -->
<g id="node15" class="node"><title>Node15</title>
<g id="a_node15"><a xlink:href="class_point_road.html#a998665db2d7e4fc4935ef95df092ff2b" target="_top" xlink:title="PointRoad::setid">
<polygon fill="none" stroke="black" points="649.5,-152.5 649.5,-171.5 738.5,-171.5 738.5,-152.5 649.5,-152.5"/>
<text text-anchor="middle" x="694" y="-159.5" font-family="Helvetica,sans-Serif" font-size="10.00">PointRoad::setid</text>
</a>
</g>
</g>
<!-- Node12&#45;&gt;Node15 -->
<g id="edge14" class="edge"><title>Node12&#45;&gt;Node15</title>
<path fill="none" stroke="midnightblue" d="M546.446,-132.059C573.441,-137.574 609.57,-144.955 639.2,-151.009"/>
<polygon fill="midnightblue" stroke="midnightblue" points="638.886,-154.517 649.384,-153.089 640.287,-147.658 638.886,-154.517"/>
</g>
<!-- Node16 -->
<g id="node16" class="node"><title>Node16</title>
<g id="a_node16"><a xlink:href="class_point_road.html#a81372f2c2c0fe1084fa2397289518124" target="_top" xlink:title="PointRoad::id">
<polygon fill="none" stroke="black" points="811,-133.5 811,-152.5 887,-152.5 887,-133.5 811,-133.5"/>
<text text-anchor="middle" x="849" y="-140.5" font-family="Helvetica,sans-Serif" font-size="10.00">PointRoad::id</text>
</a>
</g>
</g>
<!-- Node12&#45;&gt;Node16 -->
<g id="edge17" class="edge"><title>Node12&#45;&gt;Node16</title>
<path fill="none" stroke="midnightblue" d="M546.117,-126.18C609.053,-129.686 732.588,-136.569 800.491,-140.353"/>
<polygon fill="midnightblue" stroke="midnightblue" points="800.714,-143.871 810.894,-140.932 801.104,-136.881 800.714,-143.871"/>
</g>
<!-- Node17 -->
<g id="node17" class="node"><title>Node17</title>
<g id="a_node17"><a xlink:href="class_point_road.html#ae83941b37b026758fdd7974b4b186fbc" target="_top" xlink:title="PointRoad::isNode">
<polygon fill="none" stroke="black" points="644.5,-76.5 644.5,-95.5 743.5,-95.5 743.5,-76.5 644.5,-76.5"/>
<text text-anchor="middle" x="694" y="-83.5" font-family="Helvetica,sans-Serif" font-size="10.00">PointRoad::isNode</text>
</a>
</g>
</g>
<!-- Node12&#45;&gt;Node17 -->
<g id="edge16" class="edge"><title>Node12&#45;&gt;Node17</title>
<path fill="none" stroke="midnightblue" d="M546.446,-115.941C572.583,-110.601 607.281,-103.512 636.354,-97.5729"/>
<polygon fill="midnightblue" stroke="midnightblue" points="637.282,-100.956 646.379,-95.5246 635.881,-94.0972 637.282,-100.956"/>
</g>
<!-- Node18 -->
<g id="node18" class="node"><title>Node18</title>
<g id="a_node18"><a xlink:href="class_road.html#a7f97b4f20c598103baad510b19a0c0b5" target="_top" xlink:title="Add a point to the road. ">
<polygon fill="none" stroke="black" points="652,-38.5 652,-57.5 736,-57.5 736,-38.5 652,-38.5"/>
<text text-anchor="middle" x="694" y="-45.5" font-family="Helvetica,sans-Serif" font-size="10.00">Road::addPoint</text>
</a>
</g>
</g>
<!-- Node12&#45;&gt;Node18 -->
<g id="edge18" class="edge"><title>Node12&#45;&gt;Node18</title>
<path fill="none" stroke="midnightblue" d="M546.311,-117.342C556.754,-114.523 567.704,-110.556 577,-105 596.969,-93.0642 592.843,-78.6161 613,-67 621.812,-61.9215 631.917,-58.1981 641.911,-55.4689"/>
<polygon fill="midnightblue" stroke="midnightblue" points="642.928,-58.8236 651.816,-53.0578 641.272,-52.0222 642.928,-58.8236"/>
</g>
<!-- Node19 -->
<g id="node19" class="node"><title>Node19</title>
<g id="a_node19"><a xlink:href="class_road.html#ad6715392969e36eb10efac542519755c" target="_top" xlink:title="Get the id of the road. ">
<polygon fill="none" stroke="black" points="656.5,-0.5 656.5,-19.5 731.5,-19.5 731.5,-0.5 656.5,-0.5"/>
<text text-anchor="middle" x="694" y="-7.5" font-family="Helvetica,sans-Serif" font-size="10.00">Road::edgeId</text>
</a>
</g>
</g>
<!-- Node12&#45;&gt;Node19 -->
<g id="edge19" class="edge"><title>Node12&#45;&gt;Node19</title>
<path fill="none" stroke="midnightblue" d="M546.164,-119.568C557.076,-116.78 568.308,-112.273 577,-105 605.665,-81.0155 583.957,-52.5248 613,-29 622.446,-21.3487 634.46,-16.6853 646.288,-13.8686"/>
<polygon fill="midnightblue" stroke="midnightblue" points="646.995,-17.2967 656.12,-11.9119 645.629,-10.4313 646.995,-17.2967"/>
</g>
<!-- Node15&#45;&gt;Node16 -->
<g id="edge15" class="edge"><title>Node15&#45;&gt;Node16</title>
<path fill="none" stroke="midnightblue" d="M738.844,-156.555C758.244,-154.146 781.094,-151.309 800.861,-148.854"/>
<polygon fill="midnightblue" stroke="midnightblue" points="801.39,-152.315 810.882,-147.609 800.527,-145.369 801.39,-152.315"/>
</g>
<!-- Node22 -->
<g id="node22" class="node"><title>Node22</title>
<g id="a_node22"><a xlink:href="class_grid.html#a54c76e927f8428bca87520d8ca310bec" target="_top" xlink:title="Grid::getRoadEntry">
<polygon fill="none" stroke="black" points="455.5,-76.5 455.5,-95.5 556.5,-95.5 556.5,-76.5 455.5,-76.5"/>
<text text-anchor="middle" x="506" y="-83.5" font-family="Helvetica,sans-Serif" font-size="10.00">Grid::getRoadEntry</text>
</a>
</g>
</g>
<!-- Node21&#45;&gt;Node22 -->
<g id="edge22" class="edge"><title>Node21&#45;&gt;Node22</title>
<path fill="none" stroke="midnightblue" d="M393.654,-86C410.301,-86 428.417,-86 445.106,-86"/>
<polygon fill="midnightblue" stroke="midnightblue" points="445.288,-89.5001 455.288,-86 445.288,-82.5001 445.288,-89.5001"/>
</g>
</g>
</svg>
