<?xml version="1.0" encoding="UTF-8" standalone="no"?>
<!DOCTYPE svg PUBLIC "-//W3C//DTD SVG 1.1//EN"
 "http://www.w3.org/Graphics/SVG/1.1/DTD/svg11.dtd">
<!-- Generated by graphviz version 2.38.0 (20140413.2041)
 -->
<!-- Title: dev_all Pages: 1 -->
<svg width="717pt" height="555pt"
 viewBox="0.00 0.00 717.00 555.00" xmlns="http://www.w3.org/2000/svg" xmlns:xlink="http://www.w3.org/1999/xlink">
<g id="graph0" class="graph" transform="scale(1 1) rotate(0) translate(4 551)">
<title>dev_all</title>
<!-- Node1 -->
<g id="node1" class="node"><title>Node1</title>
<polygon fill="#bfbfbf" stroke="black" points="0,-299.5 0,-318.5 47,-318.5 47,-299.5 0,-299.5"/>
<text text-anchor="middle" x="23.5" y="-306.5" font-family="Helvetica,sans-Serif" font-size="10.00">dev_all</text>
</g>
<!-- Node2 -->
<g id="node2" class="node"><title>Node2</title>
<g id="a_node2"><a xlink:href="class_track.html#aff258a8c303ee8a09a962d237f3823e7" target="_top" xlink:title="Reads a csv file and inserts each point in m_points vector. ">
<polygon fill="none" stroke="black" points="93.5,-489.5 93.5,-508.5 203.5,-508.5 203.5,-489.5 93.5,-489.5"/>
<text text-anchor="middle" x="148.5" y="-496.5" font-family="Helvetica,sans-Serif" font-size="10.00">Track::readFromCSV</text>
</a>
</g>
</g>
<!-- Node1&#45;&gt;Node2 -->
<g id="edge1" class="edge"><title>Node1&#45;&gt;Node2</title>
<path fill="none" stroke="midnightblue" d="M24.8552,-318.749C26.4496,-347.734 35.187,-434.207 83,-480 84.644,-481.575 86.4118,-483.019 88.2749,-484.345"/>
<polygon fill="midnightblue" stroke="midnightblue" points="86.5678,-487.402 96.9668,-489.429 90.102,-481.359 86.5678,-487.402"/>
</g>
<!-- Node3 -->
<g id="node3" class="node"><title>Node3</title>
<g id="a_node3"><a xlink:href="class_track.html#a1bdd5f826a2b58fcbca40fb7fb2de1c8" target="_top" xlink:title="Print some informations to user in console. ">
<polygon fill="none" stroke="black" points="100.5,-451.5 100.5,-470.5 196.5,-470.5 196.5,-451.5 100.5,-451.5"/>
<text text-anchor="middle" x="148.5" y="-458.5" font-family="Helvetica,sans-Serif" font-size="10.00">Track::outputInfos</text>
</a>
</g>
</g>
<!-- Node1&#45;&gt;Node3 -->
<g id="edge2" class="edge"><title>Node1&#45;&gt;Node3</title>
<path fill="none" stroke="midnightblue" d="M25.9172,-318.666C30.0164,-343.105 44.1721,-407.846 83,-442 85.4981,-444.197 88.2394,-446.141 91.1387,-447.86"/>
<polygon fill="midnightblue" stroke="midnightblue" points="89.7128,-451.06 100.226,-452.373 92.8265,-444.79 89.7128,-451.06"/>
</g>
<!-- Node4 -->
<g id="node4" class="node"><title>Node4</title>
<g id="a_node4"><a xlink:href="class_grid.html#a19318437702e712955d0c4631c94cb04" target="_top" xlink:title="setZone Save data about our area of roads ">
<polygon fill="none" stroke="black" points="92.5,-413.5 92.5,-432.5 204.5,-432.5 204.5,-413.5 92.5,-413.5"/>
<text text-anchor="middle" x="148.5" y="-420.5" font-family="Helvetica,sans-Serif" font-size="10.00">Grid::setBoundingBox</text>
</a>
</g>
</g>
<!-- Node1&#45;&gt;Node4 -->
<g id="edge3" class="edge"><title>Node1&#45;&gt;Node4</title>
<path fill="none" stroke="midnightblue" d="M30.3308,-318.84C39.8636,-334.328 60.0396,-364.716 83,-385 93.4525,-394.234 106.476,-402.404 118.078,-408.779"/>
<polygon fill="midnightblue" stroke="midnightblue" points="116.525,-411.917 127.001,-413.493 119.794,-405.727 116.525,-411.917"/>
</g>
<!-- Node9 -->
<g id="node9" class="node"><title>Node9</title>
<g id="a_node9"><a xlink:href="class_grid.html#ae848f1c59c544adc1af9133409ee0106" target="_top" xlink:title="readFromCSV Reads a csv file and inserts info into the corresponding attributs ">
<polygon fill="none" stroke="black" points="97,-356.5 97,-375.5 200,-375.5 200,-356.5 97,-356.5"/>
<text text-anchor="middle" x="148.5" y="-363.5" font-family="Helvetica,sans-Serif" font-size="10.00">Grid::readFromCSV</text>
</a>
</g>
</g>
<!-- Node1&#45;&gt;Node9 -->
<g id="edge8" class="edge"><title>Node1&#45;&gt;Node9</title>
<path fill="none" stroke="midnightblue" d="M36.8913,-318.577C48.3288,-327.036 66.0571,-339.203 83,-347 87.971,-349.287 93.2841,-351.374 98.6473,-353.257"/>
<polygon fill="midnightblue" stroke="midnightblue" points="97.6994,-356.63 108.292,-356.426 99.8841,-349.979 97.6994,-356.63"/>
</g>
<!-- Node20 -->
<g id="node20" class="node"><title>Node20</title>
<g id="a_node20"><a xlink:href="class_grid.html#a58f05023aca02a77494c52263bd2df20" target="_top" xlink:title="Grid::outputInfos">
<polygon fill="none" stroke="black" points="104,-318.5 104,-337.5 193,-337.5 193,-318.5 104,-318.5"/>
<text text-anchor="middle" x="148.5" y="-325.5" font-family="Helvetica,sans-Serif" font-size="10.00">Grid::outputInfos</text>
</a>
</g>
</g>
<!-- Node1&#45;&gt;Node20 -->
<g id="edge20" class="edge"><title>Node1&#45;&gt;Node20</title>
<path fill="none" stroke="midnightblue" d="M47.0601,-312.485C60.2124,-314.517 77.401,-317.172 93.8316,-319.71"/>
<polygon fill="midnightblue" stroke="midnightblue" points="93.504,-323.201 103.921,-321.268 94.5727,-316.283 93.504,-323.201"/>
</g>
<!-- Node21 -->
<g id="node21" class="node"><title>Node21</title>
<g id="a_node21"><a xlink:href="class_grid.html#aea292f48c96b2e9d1abee08040cd3833" target="_top" xlink:title="buildMarkovMatrix ">
<polygon fill="none" stroke="black" points="88.5,-280.5 88.5,-299.5 208.5,-299.5 208.5,-280.5 88.5,-280.5"/>
<text text-anchor="middle" x="148.5" y="-287.5" font-family="Helvetica,sans-Serif" font-size="10.00">Grid::buildMarkovMatrix</text>
</a>
</g>
</g>
<!-- Node1&#45;&gt;Node21 -->
<g id="edge21" class="edge"><title>Node1&#45;&gt;Node21</title>
<path fill="none" stroke="midnightblue" d="M47.0601,-305.515C56.1254,-304.115 67.1082,-302.418 78.4387,-300.668"/>
<polygon fill="midnightblue" stroke="midnightblue" points="79.0974,-304.108 88.4459,-299.122 78.0287,-297.19 79.0974,-304.108"/>
</g>
<!-- Node23 -->
<g id="node23" class="node"><title>Node23</title>
<g id="a_node23"><a xlink:href="class_grid.html#ae43b7156c770eb4a8812d7ecce223b36" target="_top" xlink:title="Grid::getRoads">
<polygon fill="none" stroke="black" points="107,-242.5 107,-261.5 190,-261.5 190,-242.5 107,-242.5"/>
<text text-anchor="middle" x="148.5" y="-249.5" font-family="Helvetica,sans-Serif" font-size="10.00">Grid::getRoads</text>
</a>
</g>
</g>
<!-- Node1&#45;&gt;Node23 -->
<g id="edge23" class="edge"><title>Node1&#45;&gt;Node23</title>
<path fill="none" stroke="midnightblue" d="M36.8913,-299.423C48.3288,-290.964 66.0571,-278.797 83,-271 87.971,-268.713 93.2841,-266.626 98.6473,-264.743"/>
<polygon fill="midnightblue" stroke="midnightblue" points="99.8841,-268.021 108.292,-261.574 97.6994,-261.37 99.8841,-268.021"/>
</g>
<!-- Node24 -->
<g id="node24" class="node"><title>Node24</title>
<g id="a_node24"><a xlink:href="class_grid.html#a3e3943e4ae3440bd4bf2e6b7fc73ed55" target="_top" xlink:title="Grid::getPoints">
<polygon fill="none" stroke="black" points="107.5,-204.5 107.5,-223.5 189.5,-223.5 189.5,-204.5 107.5,-204.5"/>
<text text-anchor="middle" x="148.5" y="-211.5" font-family="Helvetica,sans-Serif" font-size="10.00">Grid::getPoints</text>
</a>
</g>
</g>
<!-- Node1&#45;&gt;Node24 -->
<g id="edge24" class="edge"><title>Node1&#45;&gt;Node24</title>
<path fill="none" stroke="midnightblue" d="M29.3603,-299.248C37.9383,-283.038 57.3129,-250.597 83,-233 87.5143,-229.907 92.538,-227.31 97.7331,-225.131"/>
<polygon fill="midnightblue" stroke="midnightblue" points="99.0243,-228.385 107.196,-221.643 96.6031,-221.817 99.0243,-228.385"/>
</g>
<!-- Node25 -->
<g id="node25" class="node"><title>Node25</title>
<g id="a_node25"><a xlink:href="class_track.html#ad262a30c2abcd29cf4cdc04facd290ee" target="_top" xlink:title="Track::getPointsAsPointer">
<polygon fill="none" stroke="black" points="83,-166.5 83,-185.5 214,-185.5 214,-166.5 83,-166.5"/>
<text text-anchor="middle" x="148.5" y="-173.5" font-family="Helvetica,sans-Serif" font-size="10.00">Track::getPointsAsPointer</text>
</a>
</g>
</g>
<!-- Node1&#45;&gt;Node25 -->
<g id="edge25" class="edge"><title>Node1&#45;&gt;Node25</title>
<path fill="none" stroke="midnightblue" d="M26.6714,-299.424C32.138,-277.531 48.5599,-223.516 83,-195 85.0456,-193.306 87.237,-191.764 89.5321,-190.358"/>
<polygon fill="midnightblue" stroke="midnightblue" points="91.5146,-193.275 98.8098,-185.592 88.3156,-187.048 91.5146,-193.275"/>
</g>
<!-- Node26 -->
<g id="node26" class="node"><title>Node26</title>
<g id="a_node26"><a xlink:href="class_solver.html#a0c67ab4d4fd9c36cfcbfdc13021b419f" target="_top" xlink:title="Solver::initialize">
<polygon fill="none" stroke="black" points="105.5,-119.5 105.5,-138.5 191.5,-138.5 191.5,-119.5 105.5,-119.5"/>
<text text-anchor="middle" x="148.5" y="-126.5" font-family="Helvetica,sans-Serif" font-size="10.00">Solver::initialize</text>
</a>
</g>
</g>
<!-- Node1&#45;&gt;Node26 -->
<g id="edge26" class="edge"><title>Node1&#45;&gt;Node26</title>
<path fill="none" stroke="midnightblue" d="M25.6059,-299.45C29.1178,-273.264 42.2984,-199.455 83,-157 88.5243,-151.238 95.4348,-146.592 102.663,-142.869"/>
<polygon fill="midnightblue" stroke="midnightblue" points="104.276,-145.98 111.908,-138.632 101.359,-139.617 104.276,-145.98"/>
</g>
<!-- Node5 -->
<g id="node5" class="node"><title>Node5</title>
<g id="a_node5"><a xlink:href="class_grid.html#a13d6d18b26d70ab5871a8c2ddf7fa1b5" target="_top" xlink:title="Grid::xMin">
<polygon fill="none" stroke="black" points="270.5,-527.5 270.5,-546.5 332.5,-546.5 332.5,-527.5 270.5,-527.5"/>
<text text-anchor="middle" x="301.5" y="-534.5" font-family="Helvetica,sans-Serif" font-size="10.00">Grid::xMin</text>
</a>
</g>
</g>
<!-- Node4&#45;&gt;Node5 -->
<g id="edge4" class="edge"><title>Node4&#45;&gt;Node5</title>
<path fill="none" stroke="midnightblue" d="M198.636,-432.595C204.193,-435.049 209.475,-438.131 214,-442 242.406,-466.29 222.504,-492.684 250,-518 253.307,-521.045 257.148,-523.615 261.207,-525.783"/>
<polygon fill="midnightblue" stroke="midnightblue" points="259.766,-528.972 270.319,-529.912 262.655,-522.596 259.766,-528.972"/>
</g>
<!-- Node6 -->
<g id="node6" class="node"><title>Node6</title>
<g id="a_node6"><a xlink:href="class_grid.html#a5e140affdf9653d8badf596f1f151908" target="_top" xlink:title="Grid::xMax">
<polygon fill="none" stroke="black" points="269,-489.5 269,-508.5 334,-508.5 334,-489.5 269,-489.5"/>
<text text-anchor="middle" x="301.5" y="-496.5" font-family="Helvetica,sans-Serif" font-size="10.00">Grid::xMax</text>
</a>
</g>
</g>
<!-- Node4&#45;&gt;Node6 -->
<g id="edge5" class="edge"><title>Node4&#45;&gt;Node6</title>
<path fill="none" stroke="midnightblue" d="M193.509,-432.566C200.637,-435.058 207.728,-438.159 214,-442 233.84,-454.149 230.619,-467.131 250,-480 253.068,-482.037 256.384,-483.896 259.801,-485.585"/>
<polygon fill="midnightblue" stroke="midnightblue" points="258.416,-488.799 268.976,-489.659 261.257,-482.402 258.416,-488.799"/>
</g>
<!-- Node7 -->
<g id="node7" class="node"><title>Node7</title>
<g id="a_node7"><a xlink:href="class_grid.html#a6acf01d876905d8709f4fb8ebe18aa94" target="_top" xlink:title="Grid::yMin">
<polygon fill="none" stroke="black" points="270.5,-451.5 270.5,-470.5 332.5,-470.5 332.5,-451.5 270.5,-451.5"/>
<text text-anchor="middle" x="301.5" y="-458.5" font-family="Helvetica,sans-Serif" font-size="10.00">Grid::yMin</text>
</a>
</g>
</g>
<!-- Node4&#45;&gt;Node7 -->
<g id="edge6" class="edge"><title>Node4&#45;&gt;Node7</title>
<path fill="none" stroke="midnightblue" d="M187.604,-432.589C209.878,-438.195 237.963,-445.262 260.549,-450.946"/>
<polygon fill="midnightblue" stroke="midnightblue" points="259.946,-454.403 270.498,-453.45 261.655,-447.615 259.946,-454.403"/>
</g>
<!-- Node8 -->
<g id="node8" class="node"><title>Node8</title>
<g id="a_node8"><a xlink:href="class_grid.html#abfa1a601742ca69a5ecc3b6a5318d7a8" target="_top" xlink:title="Grid::yMax">
<polygon fill="none" stroke="black" points="269,-413.5 269,-432.5 334,-432.5 334,-413.5 269,-413.5"/>
<text text-anchor="middle" x="301.5" y="-420.5" font-family="Helvetica,sans-Serif" font-size="10.00">Grid::yMax</text>
</a>
</g>
</g>
<!-- Node4&#45;&gt;Node8 -->
<g id="edge7" class="edge"><title>Node4&#45;&gt;Node8</title>
<path fill="none" stroke="midnightblue" d="M204.869,-423C222.545,-423 241.809,-423 258.385,-423"/>
<polygon fill="midnightblue" stroke="midnightblue" points="258.845,-426.5 268.845,-423 258.845,-419.5 258.845,-426.5"/>
</g>
<!-- Node10 -->
<g id="node10" class="node"><title>Node10</title>
<g id="a_node10"><a xlink:href="class_grid.html#a6b6af4fb2545b398b47794de576f15f5" target="_top" xlink:title="inFootPrint Test if a point is in the defined area of a track ">
<polygon fill="none" stroke="black" points="257.5,-375.5 257.5,-394.5 345.5,-394.5 345.5,-375.5 257.5,-375.5"/>
<text text-anchor="middle" x="301.5" y="-382.5" font-family="Helvetica,sans-Serif" font-size="10.00">Grid::inFootPrint</text>
</a>
</g>
</g>
<!-- Node9&#45;&gt;Node10 -->
<g id="edge9" class="edge"><title>Node9&#45;&gt;Node10</title>
<path fill="none" stroke="midnightblue" d="M200.201,-372.38C215.237,-374.272 231.75,-376.349 246.96,-378.263"/>
<polygon fill="midnightblue" stroke="midnightblue" points="246.89,-381.782 257.248,-379.558 247.764,-374.837 246.89,-381.782"/>
</g>
<!-- Node11 -->
<g id="node11" class="node"><title>Node11</title>
<g id="a_node11"><a xlink:href="class_grid.html#a58233ab60f7477144af334f205606aa4" target="_top" xlink:title="updateGrid Find max and min of the grid ">
<polygon fill="none" stroke="black" points="257.5,-337.5 257.5,-356.5 345.5,-356.5 345.5,-337.5 257.5,-337.5"/>
<text text-anchor="middle" x="301.5" y="-344.5" font-family="Helvetica,sans-Serif" font-size="10.00">Grid::updateGrid</text>
</a>
</g>
</g>
<!-- Node9&#45;&gt;Node11 -->
<g id="edge10" class="edge"><title>Node9&#45;&gt;Node11</title>
<path fill="none" stroke="midnightblue" d="M200.201,-359.62C215.237,-357.728 231.75,-355.651 246.96,-353.737"/>
<polygon fill="midnightblue" stroke="midnightblue" points="247.764,-357.163 257.248,-352.442 246.89,-350.218 247.764,-357.163"/>
</g>
<!-- Node12 -->
<g id="node12" class="node"><title>Node12</title>
<g id="a_node12"><a xlink:href="class_grid.html#aba1830bc145f128d6deeed29cfb94c9f" target="_top" xlink:title="addRoad Creates a new road and inserts it in m_road ">
<polygon fill="none" stroke="black" points="261.5,-299.5 261.5,-318.5 341.5,-318.5 341.5,-299.5 261.5,-299.5"/>
<text text-anchor="middle" x="301.5" y="-306.5" font-family="Helvetica,sans-Serif" font-size="10.00">Grid::addRoad</text>
</a>
</g>
</g>
<!-- Node9&#45;&gt;Node12 -->
<g id="edge11" class="edge"><title>Node9&#45;&gt;Node12</title>
<path fill="none" stroke="midnightblue" d="M186.434,-356.494C195.566,-353.77 205.24,-350.56 214,-347 230.76,-340.188 233.501,-335.422 250,-328 254.413,-326.015 259.101,-324.057 263.774,-322.197"/>
<polygon fill="midnightblue" stroke="midnightblue" points="265.182,-325.405 273.25,-318.537 262.661,-318.875 265.182,-325.405"/>
</g>
<!-- Node13 -->
<g id="node13" class="node"><title>Node13</title>
<g id="a_node13"><a xlink:href="class_point_road.html#aa1b90c3fdf8ae7a1fcd8ce6182d13287" target="_top" xlink:title="PointRoad::outputInfos">
<polygon fill="none" stroke="black" points="414.5,-418.5 414.5,-437.5 531.5,-437.5 531.5,-418.5 414.5,-418.5"/>
<text text-anchor="middle" x="473" y="-425.5" font-family="Helvetica,sans-Serif" font-size="10.00">PointRoad::outputInfos</text>
</a>
</g>
</g>
<!-- Node12&#45;&gt;Node13 -->
<g id="edge12" class="edge"><title>Node12&#45;&gt;Node13</title>
<path fill="none" stroke="midnightblue" d="M338.788,-318.576C343.965,-321.051 348.911,-324.143 353,-328 381.658,-355.032 358.586,-383.96 389,-409 393.679,-412.852 398.988,-415.958 404.606,-418.458"/>
<polygon fill="midnightblue" stroke="midnightblue" points="403.702,-421.858 414.294,-422.116 406.175,-415.309 403.702,-421.858"/>
</g>
<!-- Node14 -->
<g id="node14" class="node"><title>Node14</title>
<g id="a_node14"><a xlink:href="class_point_road.html#ab53ccb3c883bdfd27c707901c5c658c8" target="_top" xlink:title="PointRoad::updateBelongToRoad">
<polygon fill="none" stroke="black" points="392,-380.5 392,-399.5 554,-399.5 554,-380.5 392,-380.5"/>
<text text-anchor="middle" x="473" y="-387.5" font-family="Helvetica,sans-Serif" font-size="10.00">PointRoad::updateBelongToRoad</text>
</a>
</g>
</g>
<!-- Node12&#45;&gt;Node14 -->
<g id="edge13" class="edge"><title>Node12&#45;&gt;Node14</title>
<path fill="none" stroke="midnightblue" d="M335.267,-318.508C341.452,-321.068 347.651,-324.207 353,-328 373.332,-342.417 367.743,-357.985 389,-371 392.447,-373.111 396.105,-374.987 399.889,-376.656"/>
<polygon fill="midnightblue" stroke="midnightblue" points="398.918,-380.033 409.507,-380.389 401.451,-373.507 398.918,-380.033"/>
</g>
<!-- Node15 -->
<g id="node15" class="node"><title>Node15</title>
<g id="a_node15"><a xlink:href="class_point_road.html#a998665db2d7e4fc4935ef95df092ff2b" target="_top" xlink:title="PointRoad::setid">
<polygon fill="none" stroke="black" points="428.5,-342.5 428.5,-361.5 517.5,-361.5 517.5,-342.5 428.5,-342.5"/>
<text text-anchor="middle" x="473" y="-349.5" font-family="Helvetica,sans-Serif" font-size="10.00">PointRoad::setid</text>
</a>
</g>
</g>
<!-- Node12&#45;&gt;Node15 -->
<g id="edge14" class="edge"><title>Node12&#45;&gt;Node15</title>
<path fill="none" stroke="midnightblue" d="M340.118,-318.543C365.025,-324.862 397.895,-333.201 424.589,-339.972"/>
<polygon fill="midnightblue" stroke="midnightblue" points="423.934,-343.417 434.488,-342.484 425.655,-336.632 423.934,-343.417"/>
</g>
<!-- Node16 -->
<g id="node16" class="node"><title>Node16</title>
<g id="a_node16"><a xlink:href="class_point_road.html#a81372f2c2c0fe1084fa2397289518124" target="_top" xlink:title="PointRoad::id">
<polygon fill="none" stroke="black" points="613,-323.5 613,-342.5 689,-342.5 689,-323.5 613,-323.5"/>
<text text-anchor="middle" x="651" y="-330.5" font-family="Helvetica,sans-Serif" font-size="10.00">PointRoad::id</text>
</a>
</g>
</g>
<!-- Node12&#45;&gt;Node16 -->
<g id="edge17" class="edge"><title>Node12&#45;&gt;Node16</title>
<path fill="none" stroke="midnightblue" d="M341.687,-311.706C405.928,-316.143 533.404,-324.947 602.617,-329.728"/>
<polygon fill="midnightblue" stroke="midnightblue" points="602.582,-333.233 612.799,-330.431 603.064,-326.25 602.582,-333.233"/>
</g>
<!-- Node17 -->
<g id="node17" class="node"><title>Node17</title>
<g id="a_node17"><a xlink:href="class_point_road.html#ae83941b37b026758fdd7974b4b186fbc" target="_top" xlink:title="PointRoad::isNode">
<polygon fill="none" stroke="black" points="423.5,-266.5 423.5,-285.5 522.5,-285.5 522.5,-266.5 423.5,-266.5"/>
<text text-anchor="middle" x="473" y="-273.5" font-family="Helvetica,sans-Serif" font-size="10.00">PointRoad::isNode</text>
</a>
</g>
</g>
<!-- Node12&#45;&gt;Node17 -->
<g id="edge16" class="edge"><title>Node12&#45;&gt;Node17</title>
<path fill="none" stroke="midnightblue" d="M341.813,-301.346C363.035,-297.214 389.653,-292.032 413.282,-287.432"/>
<polygon fill="midnightblue" stroke="midnightblue" points="414.054,-290.847 423.201,-285.501 412.716,-283.976 414.054,-290.847"/>
</g>
<!-- Node18 -->
<g id="node18" class="node"><title>Node18</title>
<g id="a_node18"><a xlink:href="class_road.html#a7f97b4f20c598103baad510b19a0c0b5" target="_top" xlink:title="Add a point to the road. ">
<polygon fill="none" stroke="black" points="431,-228.5 431,-247.5 515,-247.5 515,-228.5 431,-228.5"/>
<text text-anchor="middle" x="473" y="-235.5" font-family="Helvetica,sans-Serif" font-size="10.00">Road::addPoint</text>
</a>
</g>
</g>
<!-- Node12&#45;&gt;Node18 -->
<g id="edge18" class="edge"><title>Node12&#45;&gt;Node18</title>
<path fill="none" stroke="midnightblue" d="M333.559,-299.452C340.201,-296.831 347.014,-293.678 353,-290 371.494,-278.638 369.783,-267.09 389,-257 398.82,-251.844 410.014,-248.078 420.932,-245.33"/>
<polygon fill="midnightblue" stroke="midnightblue" points="421.858,-248.71 430.835,-243.083 420.308,-241.883 421.858,-248.71"/>
</g>
<!-- Node19 -->
<g id="node19" class="node"><title>Node19</title>
<g id="a_node19"><a xlink:href="class_road.html#ad6715392969e36eb10efac542519755c" target="_top" xlink:title="Get the id of the road. ">
<polygon fill="none" stroke="black" points="435.5,-190.5 435.5,-209.5 510.5,-209.5 510.5,-190.5 435.5,-190.5"/>
<text text-anchor="middle" x="473" y="-197.5" font-family="Helvetica,sans-Serif" font-size="10.00">Road::edgeId</text>
</a>
</g>
</g>
<!-- Node12&#45;&gt;Node19 -->
<g id="edge19" class="edge"><title>Node12&#45;&gt;Node19</title>
<path fill="none" stroke="midnightblue" d="M338.097,-299.481C343.483,-296.989 348.675,-293.876 353,-290 379.348,-266.388 361.121,-240.784 389,-219 399.294,-210.956 412.372,-206.202 425.085,-203.425"/>
<polygon fill="midnightblue" stroke="midnightblue" points="425.93,-206.828 435.143,-201.596 424.678,-199.941 425.93,-206.828"/>
</g>
<!-- Node15&#45;&gt;Node16 -->
<g id="edge15" class="edge"><title>Node15&#45;&gt;Node16</title>
<path fill="none" stroke="midnightblue" d="M517.506,-347.303C543.387,-344.509 576.236,-340.963 602.751,-338.101"/>
<polygon fill="midnightblue" stroke="midnightblue" points="603.377,-341.554 612.944,-337 602.626,-334.594 603.377,-341.554"/>
</g>
<!-- Node22 -->
<g id="node22" class="node"><title>Node22</title>
<g id="a_node22"><a xlink:href="class_grid.html#a54c76e927f8428bca87520d8ca310bec" target="_top" xlink:title="Grid::getRoadEntry">
<polygon fill="none" stroke="black" points="251,-261.5 251,-280.5 352,-280.5 352,-261.5 251,-261.5"/>
<text text-anchor="middle" x="301.5" y="-268.5" font-family="Helvetica,sans-Serif" font-size="10.00">Grid::getRoadEntry</text>
</a>
</g>
</g>
<!-- Node21&#45;&gt;Node22 -->
<g id="edge22" class="edge"><title>Node21&#45;&gt;Node22</title>
<path fill="none" stroke="midnightblue" d="M208.746,-282.545C219.265,-281.222 230.226,-279.842 240.759,-278.517"/>
<polygon fill="midnightblue" stroke="midnightblue" points="241.213,-281.988 250.697,-277.267 240.339,-275.042 241.213,-281.988"/>
</g>
<!-- Node27 -->
<g id="node27" class="node"><title>Node27</title>
<g id="a_node27"><a xlink:href="class_solver.html#a11051ddab551fdcee7dc71dcad1d0fd7" target="_top" xlink:title="Solver::setDistance">
<polygon fill="none" stroke="black" points="250,-114.5 250,-133.5 353,-133.5 353,-114.5 250,-114.5"/>
<text text-anchor="middle" x="301.5" y="-121.5" font-family="Helvetica,sans-Serif" font-size="10.00">Solver::setDistance</text>
</a>
</g>
</g>
<!-- Node26&#45;&gt;Node27 -->
<g id="edge27" class="edge"><title>Node26&#45;&gt;Node27</title>
<path fill="none" stroke="midnightblue" d="M191.562,-127.607C206.38,-127.117 223.351,-126.555 239.418,-126.023"/>
<polygon fill="midnightblue" stroke="midnightblue" points="239.935,-129.507 249.814,-125.678 239.704,-122.511 239.935,-129.507"/>
</g>
<!-- Node27&#45;&gt;Node19 -->
<g id="edge36" class="edge"><title>Node27&#45;&gt;Node19</title>
<path fill="none" stroke="midnightblue" d="M314.035,-133.576C329.923,-146.285 359.893,-168.562 389,-181 400.363,-185.856 413.155,-189.566 425.232,-192.362"/>
<polygon fill="midnightblue" stroke="midnightblue" points="424.648,-195.816 435.16,-194.5 426.121,-188.973 424.648,-195.816"/>
</g>
<!-- Node28 -->
<g id="node28" class="node"><title>Node28</title>
<g id="a_node28"><a xlink:href="class_point_g_p_s.html#a9a622f6883b721ee5f04f092a76ece64" target="_top" xlink:title="PointGPS::infos">
<polygon fill="none" stroke="black" points="429.5,-152.5 429.5,-171.5 516.5,-171.5 516.5,-152.5 429.5,-152.5"/>
<text text-anchor="middle" x="473" y="-159.5" font-family="Helvetica,sans-Serif" font-size="10.00">PointGPS::infos</text>
</a>
</g>
</g>
<!-- Node27&#45;&gt;Node28 -->
<g id="edge28" class="edge"><title>Node27&#45;&gt;Node28</title>
<path fill="none" stroke="midnightblue" d="M345.272,-133.589C367.841,-138.649 395.723,-144.9 419.583,-150.249"/>
<polygon fill="midnightblue" stroke="midnightblue" points="419.012,-153.708 429.536,-152.48 420.543,-146.877 419.012,-153.708"/>
</g>
<!-- Node30 -->
<g id="node30" class="node"><title>Node30</title>
<g id="a_node30"><a xlink:href="class_road.html#acb1a56234cdbb34e0cf5c647c7c6406d" target="_top" xlink:title="print some informations about the road ">
<polygon fill="none" stroke="black" points="425.5,-114.5 425.5,-133.5 520.5,-133.5 520.5,-114.5 425.5,-114.5"/>
<text text-anchor="middle" x="473" y="-121.5" font-family="Helvetica,sans-Serif" font-size="10.00">Road::outputInfos</text>
</a>
</g>
</g>
<!-- Node27&#45;&gt;Node30 -->
<g id="edge30" class="edge"><title>Node27&#45;&gt;Node30</title>
<path fill="none" stroke="midnightblue" d="M353.356,-124C372.787,-124 395.064,-124 415.029,-124"/>
<polygon fill="midnightblue" stroke="midnightblue" points="415.231,-127.5 425.231,-124 415.231,-120.5 415.231,-127.5"/>
</g>
<!-- Node31 -->
<g id="node31" class="node"><title>Node31</title>
<g id="a_node31"><a xlink:href="class_road.html#a2877f55c577ddff8c519e7f44c2256d5" target="_top" xlink:title="Get the vector of points composing the road. ">
<polygon fill="none" stroke="black" points="413.5,-76.5 413.5,-95.5 532.5,-95.5 532.5,-76.5 413.5,-76.5"/>
<text text-anchor="middle" x="473" y="-83.5" font-family="Helvetica,sans-Serif" font-size="10.00">Road::vectorOfPointsId</text>
</a>
</g>
</g>
<!-- Node27&#45;&gt;Node31 -->
<g id="edge31" class="edge"><title>Node27&#45;&gt;Node31</title>
<path fill="none" stroke="midnightblue" d="M345.272,-114.411C367.841,-109.351 395.723,-103.1 419.583,-97.7512"/>
<polygon fill="midnightblue" stroke="midnightblue" points="420.543,-101.123 429.536,-95.5201 419.012,-94.2925 420.543,-101.123"/>
</g>
<!-- Node32 -->
<g id="node32" class="node"><title>Node32</title>
<g id="a_node32"><a xlink:href="class_point.html#a39daa6ebd31cdc2d7151db77bfdf2166" target="_top" xlink:title="Compute the distance between a point and a segment. ">
<polygon fill="none" stroke="black" points="407,-38.5 407,-57.5 539,-57.5 539,-38.5 407,-38.5"/>
<text text-anchor="middle" x="473" y="-45.5" font-family="Helvetica,sans-Serif" font-size="10.00">Point::distanceToSegment</text>
</a>
</g>
</g>
<!-- Node27&#45;&gt;Node32 -->
<g id="edge32" class="edge"><title>Node27&#45;&gt;Node32</title>
<path fill="none" stroke="midnightblue" d="M314.035,-114.424C329.923,-101.715 359.893,-79.4382 389,-67 394.888,-64.484 401.159,-62.2756 407.515,-60.3425"/>
<polygon fill="midnightblue" stroke="midnightblue" points="408.852,-63.6026 417.532,-57.527 406.958,-56.8638 408.852,-63.6026"/>
</g>
<!-- Node35 -->
<g id="node35" class="node"><title>Node35</title>
<g id="a_node35"><a xlink:href="class_point_g_p_s.html#a9c833db3ff338f3cd2ee8480db6c7d56" target="_top" xlink:title="PointGPS::addEmissionProbability">
<polygon fill="none" stroke="black" points="389,-0.5 389,-19.5 557,-19.5 557,-0.5 389,-0.5"/>
<text text-anchor="middle" x="473" y="-7.5" font-family="Helvetica,sans-Serif" font-size="10.00">PointGPS::addEmissionProbability</text>
</a>
</g>
</g>
<!-- Node27&#45;&gt;Node35 -->
<g id="edge35" class="edge"><title>Node27&#45;&gt;Node35</title>
<path fill="none" stroke="midnightblue" d="M308.306,-114.424C320.599,-95.0228 351.248,-51.0493 389,-29 392.837,-26.7587 396.918,-24.7818 401.132,-23.0381"/>
<polygon fill="midnightblue" stroke="midnightblue" points="402.351,-26.3191 410.527,-19.5813 399.934,-19.7497 402.351,-26.3191"/>
</g>
<!-- Node29 -->
<g id="node29" class="node"><title>Node29</title>
<g id="a_node29"><a xlink:href="class_point.html#a1c2033a89f5dc6faa9e50f06c2111e88" target="_top" xlink:title="Point::infos">
<polygon fill="none" stroke="black" points="618,-152.5 618,-171.5 684,-171.5 684,-152.5 618,-152.5"/>
<text text-anchor="middle" x="651" y="-159.5" font-family="Helvetica,sans-Serif" font-size="10.00">Point::infos</text>
</a>
</g>
</g>
<!-- Node28&#45;&gt;Node29 -->
<g id="edge29" class="edge"><title>Node28&#45;&gt;Node29</title>
<path fill="none" stroke="midnightblue" d="M516.605,-162C544.299,-162 580.253,-162 607.855,-162"/>
<polygon fill="midnightblue" stroke="midnightblue" points="607.991,-165.5 617.991,-162 607.991,-158.5 607.991,-165.5"/>
</g>
<!-- Node33 -->
<g id="node33" class="node"><title>Node33</title>
<g id="a_node33"><a xlink:href="class_point.html#a9d93fb520b4a3e170aab25ea738b105c" target="_top" xlink:title="Check if two points share the same coordinates. ">
<polygon fill="none" stroke="black" points="599,-57.5 599,-76.5 703,-76.5 703,-57.5 599,-57.5"/>
<text text-anchor="middle" x="651" y="-64.5" font-family="Helvetica,sans-Serif" font-size="10.00">Point::samePointAs</text>
</a>
</g>
</g>
<!-- Node32&#45;&gt;Node33 -->
<g id="edge33" class="edge"><title>Node32&#45;&gt;Node33</title>
<path fill="none" stroke="midnightblue" d="M539.036,-55.0209C555.262,-56.7726 572.608,-58.6451 588.649,-60.3769"/>
<polygon fill="midnightblue" stroke="midnightblue" points="588.659,-63.8982 598.977,-61.4919 589.411,-56.9387 588.659,-63.8982"/>
</g>
<!-- Node34 -->
<g id="node34" class="node"><title>Node34</title>
<g id="a_node34"><a xlink:href="class_point.html#a7cd7f7e2c0f1a11b66eac8b6f360bfd9" target="_top" xlink:title="Calculate distance between two points. ">
<polygon fill="none" stroke="black" points="593,-19.5 593,-38.5 709,-38.5 709,-19.5 593,-19.5"/>
<text text-anchor="middle" x="651" y="-26.5" font-family="Helvetica,sans-Serif" font-size="10.00">Point::distanceToPoint</text>
</a>
</g>
</g>
<!-- Node32&#45;&gt;Node34 -->
<g id="edge34" class="edge"><title>Node32&#45;&gt;Node34</title>
<path fill="none" stroke="midnightblue" d="M539.036,-40.9791C553.219,-39.4479 568.258,-37.8244 582.534,-36.2833"/>
<polygon fill="midnightblue" stroke="midnightblue" points="583.204,-39.7314 592.77,-35.1782 582.453,-32.7718 583.204,-39.7314"/>
</g>
</g>
</svg>
