<?xml version="1.0" encoding="UTF-8" standalone="no"?>
<!DOCTYPE svg PUBLIC "-//W3C//DTD SVG 1.1//EN"
 "http://www.w3.org/Graphics/SVG/1.1/DTD/svg11.dtd">
<!-- Generated by graphviz version 2.38.0 (20140413.2041)
 -->
<!-- Title: dev_file Pages: 1 -->
<svg width="327pt" height="66pt"
 viewBox="0.00 0.00 327.00 66.00" xmlns="http://www.w3.org/2000/svg" xmlns:xlink="http://www.w3.org/1999/xlink">
<g id="graph0" class="graph" transform="scale(1 1) rotate(0) translate(4 62)">
<title>dev_file</title>
<!-- Node1 -->
<g id="node1" class="node"><title>Node1</title>
<polygon fill="#bfbfbf" stroke="black" points="0,-19.5 0,-38.5 50,-38.5 50,-19.5 0,-19.5"/>
<text text-anchor="middle" x="25" y="-26.5" font-family="Helvetica,sans-Serif" font-size="10.00">dev_file</text>
</g>
<!-- Node2 -->
<g id="node2" class="node"><title>Node2</title>
<g id="a_node2"><a xlink:href="class_file.html#a7177a8eac75b0fc5425ebd65e16c2d6f" target="_top" xlink:title="The UI to select the file&#39;s path to open. ">
<polygon fill="none" stroke="black" points="86,-38.5 86,-57.5 206,-57.5 206,-38.5 86,-38.5"/>
<text text-anchor="middle" x="146" y="-45.5" font-family="Helvetica,sans-Serif" font-size="10.00">File::selectFilesToOpen</text>
</a>
</g>
</g>
<!-- Node1&#45;&gt;Node2 -->
<g id="edge1" class="edge"><title>Node1&#45;&gt;Node2</title>
<path fill="none" stroke="midnightblue" d="M50.0814,-32.8449C57.6624,-34.0553 66.4494,-35.4583 75.5563,-36.9123"/>
<polygon fill="midnightblue" stroke="midnightblue" points="75.095,-40.383 85.5218,-38.5035 76.1987,-33.4705 75.095,-40.383"/>
</g>
<!-- Node4 -->
<g id="node4" class="node"><title>Node4</title>
<g id="a_node4"><a xlink:href="class_file.html#a2cd702098066c4abde1c20ee708fa91f" target="_top" xlink:title="The function to convert WGS84 ShapeFile(s) to Lambert 93 CSV(s) ">
<polygon fill="none" stroke="black" points="108.5,-0.5 108.5,-19.5 183.5,-19.5 183.5,-0.5 108.5,-0.5"/>
<text text-anchor="middle" x="146" y="-7.5" font-family="Helvetica,sans-Serif" font-size="10.00">File::shp2csv</text>
</a>
</g>
</g>
<!-- Node1&#45;&gt;Node4 -->
<g id="edge3" class="edge"><title>Node1&#45;&gt;Node4</title>
<path fill="none" stroke="midnightblue" d="M50.0814,-25.1551C63.9169,-22.946 81.7694,-20.0956 98.252,-17.464"/>
<polygon fill="midnightblue" stroke="midnightblue" points="98.9665,-20.8943 108.29,-15.8613 97.8628,-13.9819 98.9665,-20.8943"/>
</g>
<!-- Node3 -->
<g id="node3" class="node"><title>Node3</title>
<g id="a_node3"><a xlink:href="class_file.html#ac464caa98a33cfe227111dd7cd5e77e1" target="_top" xlink:title="The split function to split the path file to filePath, fileName, fileExtension attributes. ">
<polygon fill="none" stroke="black" points="242,-38.5 242,-57.5 319,-57.5 319,-38.5 242,-38.5"/>
<text text-anchor="middle" x="280.5" y="-45.5" font-family="Helvetica,sans-Serif" font-size="10.00">File::splitPath</text>
</a>
</g>
</g>
<!-- Node2&#45;&gt;Node3 -->
<g id="edge2" class="edge"><title>Node2&#45;&gt;Node3</title>
<path fill="none" stroke="midnightblue" d="M206.274,-48C214.801,-48 223.484,-48 231.749,-48"/>
<polygon fill="midnightblue" stroke="midnightblue" points="231.952,-51.5001 241.952,-48 231.952,-44.5001 231.952,-51.5001"/>
</g>
</g>
</svg>
