<?xml version="1.0" encoding="UTF-8" standalone="no"?>
<!DOCTYPE svg PUBLIC "-//W3C//DTD SVG 1.1//EN"
 "http://www.w3.org/Graphics/SVG/1.1/DTD/svg11.dtd">
<!-- Generated by graphviz version 2.38.0 (20140413.2041)
 -->
<!-- Title: dev_gridAndTrack Pages: 1 -->
<!--zoomable 446 -->
<svg id="main" version="1.1" xmlns="http://www.w3.org/2000/svg" xmlns:xlink="http://www.w3.org/1999/xlink" xml:space="preserve" onload="init(evt)">
<style type="text/css"><![CDATA[
.edge:hover path { stroke: red; }
.edge:hover polygon { stroke: red; fill: red; }
]]></style>
<script type="text/javascript"><![CDATA[
var edges = document.getElementsByTagName('g');
if (edges && edges.length) {
  for (var i=0;i<edges.length;i++) {
    if (edges[i].id.substr(0,4)=='edge') {
      edges[i].setAttribute('class','edge');
    }
  }
}
]]></script>
        <defs>
                <circle id="rim" cx="0" cy="0" r="7"/>
                <circle id="rim2" cx="0" cy="0" r="3.5"/>
                <g id="zoomPlus">
                        <use xlink:href="#rim" fill="#404040">
                                <set attributeName="fill" to="#808080" begin="zoomplus.mouseover" end="zoomplus.mouseout"/>
                        </use>
                        <path d="M-4,0h8M0,-4v8" fill="none" stroke="white" stroke-width="1.5" pointer-events="none"/>
                </g>
                <g id="zoomMin">
                        <use xlink:href="#rim" fill="#404040">
                                <set attributeName="fill" to="#808080" begin="zoomminus.mouseover" end="zoomminus.mouseout"/>
                        </use>
                        <path d="M-4,0h8" fill="none" stroke="white" stroke-width="1.5" pointer-events="none"/>
                </g>
                <g id="dirArrow">
                        <path fill="none" stroke="white" stroke-width="1.5" d="M0,-3.0v7 M-2.5,-0.5L0,-3.0L2.5,-0.5"/>
                </g>
               <g id="resetDef">
                       <use xlink:href="#rim2" fill="#404040">
                               <set attributeName="fill" to="#808080" begin="reset.mouseover" end="reset.mouseout"/>
                       </use>
               </g>
        </defs>

<script type="text/javascript">
var viewWidth = 764;
var viewHeight = 446;
var sectionId = 'dynsection-3';
</script>
<script xlink:href="svgpan.js"/>
<svg id="graph" class="graph">
<g id="viewport">
<title>dev_gridAndTrack</title>
<!-- Node1 -->
<g id="node1" class="node"><title>Node1</title>
<polygon fill="#bfbfbf" stroke="black" points="0,-218.5 0,-237.5 95,-237.5 95,-218.5 0,-218.5"/>
<text text-anchor="middle" x="47.5" y="-225.5" font-family="Helvetica,sans-Serif" font-size="10.00">dev_gridAndTrack</text>
</g>
<!-- Node2 -->
<g id="node2" class="node"><title>Node2</title>
<g id="a_node2"><a xlink:href="class_track.html#aff258a8c303ee8a09a962d237f3823e7" target="_top" xlink:title="Reads a csv file and inserts each point in m_points vector. ">
<polygon fill="none" stroke="black" points="144.5,-380.5 144.5,-399.5 254.5,-399.5 254.5,-380.5 144.5,-380.5"/>
<text text-anchor="middle" x="199.5" y="-387.5" font-family="Helvetica,sans-Serif" font-size="10.00">Track::readFromCSV</text>
</a>
</g>
</g>
<!-- Node1&#45;&gt;Node2 -->
<g id="edge1" class="edge"><title>Node1&#45;&gt;Node2</title>
<path fill="none" stroke="midnightblue" d="M57.434,-237.649C81.9705,-264.148 150.663,-338.336 182.243,-372.443"/>
<polygon fill="midnightblue" stroke="midnightblue" points="180.061,-375.237 189.423,-380.197 185.197,-370.481 180.061,-375.237"/>
</g>
<!-- Node6 -->
<g id="node6" class="node"><title>Node6</title>
<g id="a_node6"><a xlink:href="class_track.html#a1bdd5f826a2b58fcbca40fb7fb2de1c8" target="_top" xlink:title="Print some informations to user in console. ">
<polygon fill="none" stroke="black" points="151.5,-285.5 151.5,-304.5 247.5,-304.5 247.5,-285.5 151.5,-285.5"/>
<text text-anchor="middle" x="199.5" y="-292.5" font-family="Helvetica,sans-Serif" font-size="10.00">Track::outputInfos</text>
</a>
</g>
</g>
<!-- Node1&#45;&gt;Node6 -->
<g id="edge5" class="edge"><title>Node1&#45;&gt;Node6</title>
<path fill="none" stroke="midnightblue" d="M62.5288,-237.648C78.5017,-248.274 105.671,-265.271 131,-276 136.53,-278.342 142.435,-280.487 148.365,-282.424"/>
<polygon fill="midnightblue" stroke="midnightblue" points="147.72,-285.888 158.307,-285.485 149.779,-279.198 147.72,-285.888"/>
</g>
<!-- Node7 -->
<g id="node7" class="node"><title>Node7</title>
<g id="a_node7"><a xlink:href="class_grid.html#aa2fcca933248f3c1f4361f1b7826b692" target="_top" xlink:title="Save data about our area of roads. ">
<polygon fill="none" stroke="black" points="131,-247.5 131,-266.5 268,-266.5 268,-247.5 131,-247.5"/>
<text text-anchor="middle" x="199.5" y="-254.5" font-family="Helvetica,sans-Serif" font-size="10.00">Grid::setTrackBoundingBox</text>
</a>
</g>
</g>
<!-- Node1&#45;&gt;Node7 -->
<g id="edge6" class="edge"><title>Node1&#45;&gt;Node7</title>
<path fill="none" stroke="midnightblue" d="M95.1387,-237.017C109.114,-239.719 124.63,-242.718 139.301,-245.555"/>
<polygon fill="midnightblue" stroke="midnightblue" points="138.811,-249.025 149.294,-247.487 140.14,-242.152 138.811,-249.025"/>
</g>
<!-- Node12 -->
<g id="node12" class="node"><title>Node12</title>
<g id="a_node12"><a xlink:href="class_grid.html#ae848f1c59c544adc1af9133409ee0106" target="_top" xlink:title="Reads a csv file and inserts info into the corresponding attributs. ">
<polygon fill="none" stroke="black" points="148,-190.5 148,-209.5 251,-209.5 251,-190.5 148,-190.5"/>
<text text-anchor="middle" x="199.5" y="-197.5" font-family="Helvetica,sans-Serif" font-size="10.00">Grid::readFromCSV</text>
</a>
</g>
</g>
<!-- Node1&#45;&gt;Node12 -->
<g id="edge11" class="edge"><title>Node1&#45;&gt;Node12</title>
<path fill="none" stroke="midnightblue" d="M95.1387,-219.294C108.634,-216.775 123.565,-213.988 137.785,-211.333"/>
<polygon fill="midnightblue" stroke="midnightblue" points="138.795,-214.705 147.983,-209.43 137.511,-207.824 138.795,-214.705"/>
</g>
<!-- Node23 -->
<g id="node23" class="node"><title>Node23</title>
<g id="a_node23"><a xlink:href="class_grid.html#a58f05023aca02a77494c52263bd2df20" target="_top" xlink:title="Grid::outputInfos">
<polygon fill="none" stroke="black" points="155,-152.5 155,-171.5 244,-171.5 244,-152.5 155,-152.5"/>
<text text-anchor="middle" x="199.5" y="-159.5" font-family="Helvetica,sans-Serif" font-size="10.00">Grid::outputInfos</text>
</a>
</g>
</g>
<!-- Node1&#45;&gt;Node23 -->
<g id="edge23" class="edge"><title>Node1&#45;&gt;Node23</title>
<path fill="none" stroke="midnightblue" d="M62.8504,-218.384C78.8884,-207.985 105.907,-191.494 131,-181 136.54,-178.683 142.452,-176.553 148.385,-174.625"/>
<polygon fill="midnightblue" stroke="midnightblue" points="149.798,-177.853 158.331,-171.572 147.744,-171.161 149.798,-177.853"/>
</g>
<!-- Node24 -->
<g id="node24" class="node"><title>Node24</title>
<g id="a_node24"><a xlink:href="class_grid.html#aea292f48c96b2e9d1abee08040cd3833" target="_top" xlink:title="buildMarkovMatrix ">
<polygon fill="none" stroke="black" points="139.5,-95.5 139.5,-114.5 259.5,-114.5 259.5,-95.5 139.5,-95.5"/>
<text text-anchor="middle" x="199.5" y="-102.5" font-family="Helvetica,sans-Serif" font-size="10.00">Grid::buildMarkovMatrix</text>
</a>
</g>
</g>
<!-- Node1&#45;&gt;Node24 -->
<g id="edge24" class="edge"><title>Node1&#45;&gt;Node24</title>
<path fill="none" stroke="midnightblue" d="M56.1685,-218.456C69.9173,-201.748 100.212,-166.724 131,-143 142.714,-133.973 156.82,-125.69 169.101,-119.177"/>
<polygon fill="midnightblue" stroke="midnightblue" points="170.78,-122.249 178.067,-114.558 167.574,-116.026 170.78,-122.249"/>
</g>
<!-- Node3 -->
<g id="node3" class="node"><title>Node3</title>
<g id="a_node3"><a xlink:href="class_track.html#ab0315e74b9b49e40d163a2ff978d833c" target="_top" xlink:title="Creates a new point and inserts it in m_points. ">
<polygon fill="none" stroke="black" points="332,-418.5 332,-437.5 418,-437.5 418,-418.5 332,-418.5"/>
<text text-anchor="middle" x="375" y="-425.5" font-family="Helvetica,sans-Serif" font-size="10.00">Track::addPoint</text>
</a>
</g>
</g>
<!-- Node2&#45;&gt;Node3 -->
<g id="edge2" class="edge"><title>Node2&#45;&gt;Node3</title>
<path fill="none" stroke="midnightblue" d="M244.281,-399.589C267.839,-404.749 297.052,-411.147 321.788,-416.564"/>
<polygon fill="midnightblue" stroke="midnightblue" points="321.213,-420.022 331.73,-418.742 322.711,-413.184 321.213,-420.022"/>
</g>
<!-- Node5 -->
<g id="node5" class="node"><title>Node5</title>
<g id="a_node5"><a xlink:href="class_track.html#aac5002af6aa69a20101a5709dbbebc82" target="_top" xlink:title="Apply a threshold to bounding box once the data file has been read. ">
<polygon fill="none" stroke="black" points="304,-380.5 304,-399.5 446,-399.5 446,-380.5 304,-380.5"/>
<text text-anchor="middle" x="375" y="-387.5" font-family="Helvetica,sans-Serif" font-size="10.00">Track::applyThresholdToBox</text>
</a>
</g>
</g>
<!-- Node2&#45;&gt;Node5 -->
<g id="edge4" class="edge"><title>Node2&#45;&gt;Node5</title>
<path fill="none" stroke="midnightblue" d="M254.92,-390C267.274,-390 280.649,-390 293.821,-390"/>
<polygon fill="midnightblue" stroke="midnightblue" points="293.833,-393.5 303.833,-390 293.833,-386.5 293.833,-393.5"/>
</g>
<!-- Node4 -->
<g id="node4" class="node"><title>Node4</title>
<g id="a_node4"><a xlink:href="class_track.html#af947410651d847174d7b18d8e9df9ca7" target="_top" xlink:title="Update the enclosing box of the track. ">
<polygon fill="none" stroke="black" points="516,-418.5 516,-437.5 610,-437.5 610,-418.5 516,-418.5"/>
<text text-anchor="middle" x="563" y="-425.5" font-family="Helvetica,sans-Serif" font-size="10.00">Track::updateBox</text>
</a>
</g>
</g>
<!-- Node3&#45;&gt;Node4 -->
<g id="edge3" class="edge"><title>Node3&#45;&gt;Node4</title>
<path fill="none" stroke="midnightblue" d="M418.206,-428C444.076,-428 477.51,-428 505.627,-428"/>
<polygon fill="midnightblue" stroke="midnightblue" points="505.722,-431.5 515.722,-428 505.722,-424.5 505.722,-431.5"/>
</g>
<!-- Node8 -->
<g id="node8" class="node"><title>Node8</title>
<g id="a_node8"><a xlink:href="class_grid.html#a13d6d18b26d70ab5871a8c2ddf7fa1b5" target="_top" xlink:title="Grid::xMin">
<polygon fill="none" stroke="black" points="344,-342.5 344,-361.5 406,-361.5 406,-342.5 344,-342.5"/>
<text text-anchor="middle" x="375" y="-349.5" font-family="Helvetica,sans-Serif" font-size="10.00">Grid::xMin</text>
</a>
</g>
</g>
<!-- Node7&#45;&gt;Node8 -->
<g id="edge7" class="edge"><title>Node7&#45;&gt;Node8</title>
<path fill="none" stroke="midnightblue" d="M250.762,-266.616C256.905,-269.067 262.828,-272.142 268,-276 292.016,-293.916 279.9,-315.196 304,-333 312.75,-339.464 323.566,-343.729 334.057,-346.543"/>
<polygon fill="midnightblue" stroke="midnightblue" points="333.408,-349.985 343.938,-348.821 334.98,-343.164 333.408,-349.985"/>
</g>
<!-- Node9 -->
<g id="node9" class="node"><title>Node9</title>
<g id="a_node9"><a xlink:href="class_grid.html#a5e140affdf9653d8badf596f1f151908" target="_top" xlink:title="Grid::xMax">
<polygon fill="none" stroke="black" points="342.5,-304.5 342.5,-323.5 407.5,-323.5 407.5,-304.5 342.5,-304.5"/>
<text text-anchor="middle" x="375" y="-311.5" font-family="Helvetica,sans-Serif" font-size="10.00">Grid::xMax</text>
</a>
</g>
</g>
<!-- Node7&#45;&gt;Node9 -->
<g id="edge8" class="edge"><title>Node7&#45;&gt;Node9</title>
<path fill="none" stroke="midnightblue" d="M239.874,-266.573C249.221,-269.258 259.069,-272.433 268,-276 284.801,-282.711 287.168,-288.368 304,-295 313.043,-298.563 322.997,-301.705 332.49,-304.355"/>
<polygon fill="midnightblue" stroke="midnightblue" points="331.594,-307.739 342.158,-306.937 333.399,-300.976 331.594,-307.739"/>
</g>
<!-- Node10 -->
<g id="node10" class="node"><title>Node10</title>
<g id="a_node10"><a xlink:href="class_grid.html#a6acf01d876905d8709f4fb8ebe18aa94" target="_top" xlink:title="Grid::yMin">
<polygon fill="none" stroke="black" points="344,-266.5 344,-285.5 406,-285.5 406,-266.5 344,-266.5"/>
<text text-anchor="middle" x="375" y="-273.5" font-family="Helvetica,sans-Serif" font-size="10.00">Grid::yMin</text>
</a>
</g>
</g>
<!-- Node7&#45;&gt;Node10 -->
<g id="edge9" class="edge"><title>Node7&#45;&gt;Node10</title>
<path fill="none" stroke="midnightblue" d="M268.076,-264.4C290.337,-266.838 314.37,-269.47 333.908,-271.61"/>
<polygon fill="midnightblue" stroke="midnightblue" points="333.649,-275.102 343.97,-272.711 334.411,-268.144 333.649,-275.102"/>
</g>
<!-- Node11 -->
<g id="node11" class="node"><title>Node11</title>
<g id="a_node11"><a xlink:href="class_grid.html#abfa1a601742ca69a5ecc3b6a5318d7a8" target="_top" xlink:title="Grid::yMax">
<polygon fill="none" stroke="black" points="342.5,-228.5 342.5,-247.5 407.5,-247.5 407.5,-228.5 342.5,-228.5"/>
<text text-anchor="middle" x="375" y="-235.5" font-family="Helvetica,sans-Serif" font-size="10.00">Grid::yMax</text>
</a>
</g>
</g>
<!-- Node7&#45;&gt;Node11 -->
<g id="edge10" class="edge"><title>Node7&#45;&gt;Node11</title>
<path fill="none" stroke="midnightblue" d="M268.076,-249.6C289.592,-247.244 312.764,-244.706 331.932,-242.607"/>
<polygon fill="midnightblue" stroke="midnightblue" points="332.574,-246.058 342.133,-241.49 331.812,-239.099 332.574,-246.058"/>
</g>
<!-- Node13 -->
<g id="node13" class="node"><title>Node13</title>
<g id="a_node13"><a xlink:href="class_grid.html#a6b6af4fb2545b398b47794de576f15f5" target="_top" xlink:title="Test if a point is in the defined area of a track. ">
<polygon fill="none" stroke="black" points="331,-190.5 331,-209.5 419,-209.5 419,-190.5 331,-190.5"/>
<text text-anchor="middle" x="375" y="-197.5" font-family="Helvetica,sans-Serif" font-size="10.00">Grid::inFootPrint</text>
</a>
</g>
</g>
<!-- Node12&#45;&gt;Node13 -->
<g id="edge12" class="edge"><title>Node12&#45;&gt;Node13</title>
<path fill="none" stroke="midnightblue" d="M251.15,-200C272.995,-200 298.559,-200 320.692,-200"/>
<polygon fill="midnightblue" stroke="midnightblue" points="320.922,-203.5 330.922,-200 320.922,-196.5 320.922,-203.5"/>
</g>
<!-- Node14 -->
<g id="node14" class="node"><title>Node14</title>
<g id="a_node14"><a xlink:href="class_grid.html#a58233ab60f7477144af334f205606aa4" target="_top" xlink:title="Find max and min of the grid. ">
<polygon fill="none" stroke="black" points="331,-152.5 331,-171.5 419,-171.5 419,-152.5 331,-152.5"/>
<text text-anchor="middle" x="375" y="-159.5" font-family="Helvetica,sans-Serif" font-size="10.00">Grid::updateGrid</text>
</a>
</g>
</g>
<!-- Node12&#45;&gt;Node14 -->
<g id="edge13" class="edge"><title>Node12&#45;&gt;Node14</title>
<path fill="none" stroke="midnightblue" d="M244.281,-190.411C267.574,-185.309 296.396,-178.997 320.952,-173.618"/>
<polygon fill="midnightblue" stroke="midnightblue" points="321.814,-177.013 330.834,-171.454 320.316,-170.175 321.814,-177.013"/>
</g>
<!-- Node15 -->
<g id="node15" class="node"><title>Node15</title>
<g id="a_node15"><a xlink:href="class_grid.html#aba1830bc145f128d6deeed29cfb94c9f" target="_top" xlink:title="Creates a new road and inserts it in m_road. ">
<polygon fill="none" stroke="black" points="335,-114.5 335,-133.5 415,-133.5 415,-114.5 335,-114.5"/>
<text text-anchor="middle" x="375" y="-121.5" font-family="Helvetica,sans-Serif" font-size="10.00">Grid::addRoad</text>
</a>
</g>
</g>
<!-- Node12&#45;&gt;Node15 -->
<g id="edge14" class="edge"><title>Node12&#45;&gt;Node15</title>
<path fill="none" stroke="midnightblue" d="M247.264,-190.406C254.484,-187.928 261.643,-184.84 268,-181 287.913,-168.971 284.031,-154.936 304,-143 310.391,-139.18 317.563,-136.111 324.816,-133.65"/>
<polygon fill="midnightblue" stroke="midnightblue" points="326.134,-136.908 334.689,-130.658 324.104,-130.209 326.134,-136.908"/>
</g>
<!-- Node16 -->
<g id="node16" class="node"><title>Node16</title>
<g id="a_node16"><a xlink:href="class_point_road.html#aa1b90c3fdf8ae7a1fcd8ce6182d13287" target="_top" xlink:title="PointRoad::outputInfos">
<polygon fill="none" stroke="black" points="504.5,-228.5 504.5,-247.5 621.5,-247.5 621.5,-228.5 504.5,-228.5"/>
<text text-anchor="middle" x="563" y="-235.5" font-family="Helvetica,sans-Serif" font-size="10.00">PointRoad::outputInfos</text>
</a>
</g>
</g>
<!-- Node15&#45;&gt;Node16 -->
<g id="edge15" class="edge"><title>Node15&#45;&gt;Node16</title>
<path fill="none" stroke="midnightblue" d="M415.164,-128.432C426.076,-131.22 437.308,-135.727 446,-143 474.665,-166.985 452.957,-195.475 482,-219 485.988,-222.23 490.434,-224.928 495.131,-227.179"/>
<polygon fill="midnightblue" stroke="midnightblue" points="493.836,-230.431 504.416,-230.98 496.487,-223.953 493.836,-230.431"/>
</g>
<!-- Node17 -->
<g id="node17" class="node"><title>Node17</title>
<g id="a_node17"><a xlink:href="class_point_road.html#ab53ccb3c883bdfd27c707901c5c658c8" target="_top" xlink:title="PointRoad::updateBelongToRoad">
<polygon fill="none" stroke="black" points="482,-190.5 482,-209.5 644,-209.5 644,-190.5 482,-190.5"/>
<text text-anchor="middle" x="563" y="-197.5" font-family="Helvetica,sans-Serif" font-size="10.00">PointRoad::updateBelongToRoad</text>
</a>
</g>
</g>
<!-- Node15&#45;&gt;Node17 -->
<g id="edge16" class="edge"><title>Node15&#45;&gt;Node17</title>
<path fill="none" stroke="midnightblue" d="M415.311,-130.658C425.754,-133.477 436.704,-137.444 446,-143 465.969,-154.936 461.843,-169.384 482,-181 485.861,-183.225 489.97,-185.19 494.21,-186.925"/>
<polygon fill="midnightblue" stroke="midnightblue" points="493.058,-190.231 503.652,-190.369 495.457,-183.655 493.058,-190.231"/>
</g>
<!-- Node18 -->
<g id="node18" class="node"><title>Node18</title>
<g id="a_node18"><a xlink:href="class_point_road.html#a998665db2d7e4fc4935ef95df092ff2b" target="_top" xlink:title="PointRoad::setid">
<polygon fill="none" stroke="black" points="518.5,-152.5 518.5,-171.5 607.5,-171.5 607.5,-152.5 518.5,-152.5"/>
<text text-anchor="middle" x="563" y="-159.5" font-family="Helvetica,sans-Serif" font-size="10.00">PointRoad::setid</text>
</a>
</g>
</g>
<!-- Node15&#45;&gt;Node18 -->
<g id="edge17" class="edge"><title>Node15&#45;&gt;Node18</title>
<path fill="none" stroke="midnightblue" d="M415.446,-132.059C442.441,-137.574 478.57,-144.955 508.2,-151.009"/>
<polygon fill="midnightblue" stroke="midnightblue" points="507.886,-154.517 518.384,-153.089 509.287,-147.658 507.886,-154.517"/>
</g>
<!-- Node19 -->
<g id="node19" class="node"><title>Node19</title>
<g id="a_node19"><a xlink:href="class_point_road.html#a81372f2c2c0fe1084fa2397289518124" target="_top" xlink:title="PointRoad::id">
<polygon fill="none" stroke="black" points="680,-133.5 680,-152.5 756,-152.5 756,-133.5 680,-133.5"/>
<text text-anchor="middle" x="718" y="-140.5" font-family="Helvetica,sans-Serif" font-size="10.00">PointRoad::id</text>
</a>
</g>
</g>
<!-- Node15&#45;&gt;Node19 -->
<g id="edge20" class="edge"><title>Node15&#45;&gt;Node19</title>
<path fill="none" stroke="midnightblue" d="M415.117,-126.18C478.053,-129.686 601.588,-136.569 669.491,-140.353"/>
<polygon fill="midnightblue" stroke="midnightblue" points="669.714,-143.871 679.894,-140.932 670.104,-136.881 669.714,-143.871"/>
</g>
<!-- Node20 -->
<g id="node20" class="node"><title>Node20</title>
<g id="a_node20"><a xlink:href="class_point_road.html#ae83941b37b026758fdd7974b4b186fbc" target="_top" xlink:title="PointRoad::isNode">
<polygon fill="none" stroke="black" points="513.5,-76.5 513.5,-95.5 612.5,-95.5 612.5,-76.5 513.5,-76.5"/>
<text text-anchor="middle" x="563" y="-83.5" font-family="Helvetica,sans-Serif" font-size="10.00">PointRoad::isNode</text>
</a>
</g>
</g>
<!-- Node15&#45;&gt;Node20 -->
<g id="edge19" class="edge"><title>Node15&#45;&gt;Node20</title>
<path fill="none" stroke="midnightblue" d="M415.446,-115.941C441.583,-110.601 476.281,-103.512 505.354,-97.5729"/>
<polygon fill="midnightblue" stroke="midnightblue" points="506.282,-100.956 515.379,-95.5246 504.881,-94.0972 506.282,-100.956"/>
</g>
<!-- Node21 -->
<g id="node21" class="node"><title>Node21</title>
<g id="a_node21"><a xlink:href="class_road.html#a7f97b4f20c598103baad510b19a0c0b5" target="_top" xlink:title="Add a point to the road. ">
<polygon fill="none" stroke="black" points="521,-38.5 521,-57.5 605,-57.5 605,-38.5 521,-38.5"/>
<text text-anchor="middle" x="563" y="-45.5" font-family="Helvetica,sans-Serif" font-size="10.00">Road::addPoint</text>
</a>
</g>
</g>
<!-- Node15&#45;&gt;Node21 -->
<g id="edge21" class="edge"><title>Node15&#45;&gt;Node21</title>
<path fill="none" stroke="midnightblue" d="M415.311,-117.342C425.754,-114.523 436.704,-110.556 446,-105 465.969,-93.0642 461.843,-78.6161 482,-67 490.812,-61.9215 500.917,-58.1981 510.911,-55.4689"/>
<polygon fill="midnightblue" stroke="midnightblue" points="511.928,-58.8236 520.816,-53.0578 510.272,-52.0222 511.928,-58.8236"/>
</g>
<!-- Node22 -->
<g id="node22" class="node"><title>Node22</title>
<g id="a_node22"><a xlink:href="class_road.html#ad6715392969e36eb10efac542519755c" target="_top" xlink:title="Get the id of the road. ">
<polygon fill="none" stroke="black" points="525.5,-0.5 525.5,-19.5 600.5,-19.5 600.5,-0.5 525.5,-0.5"/>
<text text-anchor="middle" x="563" y="-7.5" font-family="Helvetica,sans-Serif" font-size="10.00">Road::edgeId</text>
</a>
</g>
</g>
<!-- Node15&#45;&gt;Node22 -->
<g id="edge22" class="edge"><title>Node15&#45;&gt;Node22</title>
<path fill="none" stroke="midnightblue" d="M415.164,-119.568C426.076,-116.78 437.308,-112.273 446,-105 474.665,-81.0155 452.957,-52.5248 482,-29 491.446,-21.3487 503.46,-16.6853 515.288,-13.8686"/>
<polygon fill="midnightblue" stroke="midnightblue" points="515.995,-17.2967 525.12,-11.9119 514.629,-10.4313 515.995,-17.2967"/>
</g>
<!-- Node18&#45;&gt;Node19 -->
<g id="edge18" class="edge"><title>Node18&#45;&gt;Node19</title>
<path fill="none" stroke="midnightblue" d="M607.844,-156.555C627.244,-154.146 650.094,-151.309 669.861,-148.854"/>
<polygon fill="midnightblue" stroke="midnightblue" points="670.39,-152.315 679.882,-147.609 669.527,-145.369 670.39,-152.315"/>
</g>
<!-- Node25 -->
<g id="node25" class="node"><title>Node25</title>
<g id="a_node25"><a xlink:href="class_grid.html#a54c76e927f8428bca87520d8ca310bec" target="_top" xlink:title="Grid::getRoadEntry">
<polygon fill="none" stroke="black" points="324.5,-76.5 324.5,-95.5 425.5,-95.5 425.5,-76.5 324.5,-76.5"/>
<text text-anchor="middle" x="375" y="-83.5" font-family="Helvetica,sans-Serif" font-size="10.00">Grid::getRoadEntry</text>
</a>
</g>
</g>
<!-- Node24&#45;&gt;Node25 -->
<g id="edge25" class="edge"><title>Node24&#45;&gt;Node25</title>
<path fill="none" stroke="midnightblue" d="M259.724,-98.5144C277.285,-96.5913 296.525,-94.4843 314.127,-92.5567"/>
<polygon fill="midnightblue" stroke="midnightblue" points="314.717,-96.0131 324.276,-91.4452 313.955,-89.0547 314.717,-96.0131"/>
</g>
</g>
</svg>
        <g id="navigator" transform="translate(0 0)" fill="#404254">
                <rect fill="#f2f5e9" fill-opacity="0.5" stroke="#606060" stroke-width=".5" x="0" y="0" width="60" height="60"/>
                <use id="zoomplus" xlink:href="#zoomPlus" x="17" y="9" onmousedown="handleZoom(evt,'in')"/>
                <use id="zoomminus" xlink:href="#zoomMin" x="42" y="9" onmousedown="handleZoom(evt,'out')"/>
                <use id="reset" xlink:href="#resetDef" x="30" y="36" onmousedown="handleReset()"/>
                <g id="arrowUp" xlink:href="#dirArrow" transform="translate(30 24)" onmousedown="handlePan(0,-1)">
                  <use xlink:href="#rim" fill="#404040">
                        <set attributeName="fill" to="#808080" begin="arrowUp.mouseover" end="arrowUp.mouseout"/>
                  </use>
                  <path fill="none" stroke="white" stroke-width="1.5" d="M0,-3.0v7 M-2.5,-0.5L0,-3.0L2.5,-0.5"/>
                </g>
                <g id="arrowRight" xlink:href="#dirArrow" transform="rotate(90) translate(36 -43)" onmousedown="handlePan(1,0)">
                  <use xlink:href="#rim" fill="#404040">
                        <set attributeName="fill" to="#808080" begin="arrowRight.mouseover" end="arrowRight.mouseout"/>
                  </use>
                  <path fill="none" stroke="white" stroke-width="1.5" d="M0,-3.0v7 M-2.5,-0.5L0,-3.0L2.5,-0.5"/>
                </g>
                <g id="arrowDown" xlink:href="#dirArrow" transform="rotate(180) translate(-30 -48)" onmousedown="handlePan(0,1)">
                  <use xlink:href="#rim" fill="#404040">
                        <set attributeName="fill" to="#808080" begin="arrowDown.mouseover" end="arrowDown.mouseout"/>
                  </use>
                  <path fill="none" stroke="white" stroke-width="1.5" d="M0,-3.0v7 M-2.5,-0.5L0,-3.0L2.5,-0.5"/>
                </g>
                <g id="arrowLeft" xlink:href="#dirArrow" transform="rotate(270) translate(-36 17)" onmousedown="handlePan(-1,0)">
                  <use xlink:href="#rim" fill="#404040">
                        <set attributeName="fill" to="#808080" begin="arrowLeft.mouseover" end="arrowLeft.mouseout"/>
                  </use>
                  <path fill="none" stroke="white" stroke-width="1.5" d="M0,-3.0v7 M-2.5,-0.5L0,-3.0L2.5,-0.5"/>
                </g>
        </g>
        <svg viewBox="0 0 15 15" width="100%" height="30px" preserveAspectRatio="xMaxYMin meet">
         <g id="arrow_out" transform="scale(0.3 0.3)">
          <a xlink:href="main_8cpp_a141063eccadf0e03662d414d897d9f5d_cgraph_org.svg" target="_base">
           <rect id="button" ry="5" rx="5" y="6" x="6" height="38" width="38"
                fill="#f2f5e9" fill-opacity="0.5" stroke="#606060" stroke-width="1.0"/>
           <path id="arrow"
             d="M 11.500037,31.436501 C 11.940474,20.09759 22.043105,11.32322 32.158766,21.979434 L 37.068811,17.246167 C 37.068811,17.246167 37.088388,32 37.088388,32 L 22.160133,31.978069 C 22.160133,31.978069 26.997745,27.140456 26.997745,27.140456 C 18.528582,18.264221 13.291696,25.230495 11.500037,31.436501 z"
             style="fill:#404040;"/>
          </a>
         </g>
        </svg>
</svg>
