<?xml version="1.0" encoding="UTF-8" standalone="no"?>
<!DOCTYPE svg PUBLIC "-//W3C//DTD SVG 1.1//EN"
 "http://www.w3.org/Graphics/SVG/1.1/DTD/svg11.dtd">
<!-- Generated by graphviz version 2.38.0 (20140413.2041)
 -->
<!-- Title: dev_thread Pages: 1 -->
<svg width="895pt" height="560pt"
 viewBox="0.00 0.00 895.00 560.00" xmlns="http://www.w3.org/2000/svg" xmlns:xlink="http://www.w3.org/1999/xlink">
<g id="graph0" class="graph" transform="scale(1 1) rotate(0) translate(4 556)">
<title>dev_thread</title>
<!-- Node1 -->
<g id="node1" class="node"><title>Node1</title>
<polygon fill="#bfbfbf" stroke="black" points="0,-228.5 0,-247.5 65,-247.5 65,-228.5 0,-228.5"/>
<text text-anchor="middle" x="32.5" y="-235.5" font-family="Helvetica,sans-Serif" font-size="10.00">dev_thread</text>
</g>
<!-- Node2 -->
<g id="node2" class="node"><title>Node2</title>
<g id="a_node2"><a xlink:href="class_solver.html#a97bc7169c18b339fecd4937150f907c3" target="_top" xlink:title="Solver::start">
<polygon fill="none" stroke="black" points="131.5,-266.5 131.5,-285.5 201.5,-285.5 201.5,-266.5 131.5,-266.5"/>
<text text-anchor="middle" x="166.5" y="-273.5" font-family="Helvetica,sans-Serif" font-size="10.00">Solver::start</text>
</a>
</g>
</g>
<!-- Node1&#45;&gt;Node2 -->
<g id="edge1" class="edge"><title>Node1&#45;&gt;Node2</title>
<path fill="none" stroke="midnightblue" d="M65.1173,-247.102C82.3147,-252.053 103.833,-258.247 122.532,-263.63"/>
<polygon fill="midnightblue" stroke="midnightblue" points="121.721,-267.039 132.299,-266.442 123.657,-260.312 121.721,-267.039"/>
</g>
<!-- Node34 -->
<g id="node34" class="node"><title>Node34</title>
<g id="a_node34"><a xlink:href="class_controller.html#ab8e345d91e901e46e0ad42a0b75ef94c" target="_top" xlink:title="Controller::addSolver">
<polygon fill="none" stroke="black" points="112.5,-228.5 112.5,-247.5 220.5,-247.5 220.5,-228.5 112.5,-228.5"/>
<text text-anchor="middle" x="166.5" y="-235.5" font-family="Helvetica,sans-Serif" font-size="10.00">Controller::addSolver</text>
</a>
</g>
</g>
<!-- Node1&#45;&gt;Node34 -->
<g id="edge34" class="edge"><title>Node1&#45;&gt;Node34</title>
<path fill="none" stroke="midnightblue" d="M65.1173,-238C76.3113,-238 89.3362,-238 102.222,-238"/>
<polygon fill="midnightblue" stroke="midnightblue" points="102.49,-241.5 112.49,-238 102.489,-234.5 102.49,-241.5"/>
</g>
<!-- Node35 -->
<g id="node35" class="node"><title>Node35</title>
<g id="a_node35"><a xlink:href="class_controller.html#aa92b9a18a88aeb59c53272c3beab2724" target="_top" xlink:title="Controller::connectSignals">
<polygon fill="none" stroke="black" points="101,-190.5 101,-209.5 232,-209.5 232,-190.5 101,-190.5"/>
<text text-anchor="middle" x="166.5" y="-197.5" font-family="Helvetica,sans-Serif" font-size="10.00">Controller::connectSignals</text>
</a>
</g>
</g>
<!-- Node1&#45;&gt;Node35 -->
<g id="edge35" class="edge"><title>Node1&#45;&gt;Node35</title>
<path fill="none" stroke="midnightblue" d="M65.1173,-228.898C82.3147,-223.947 103.833,-217.753 122.532,-212.37"/>
<polygon fill="midnightblue" stroke="midnightblue" points="123.657,-215.688 132.299,-209.558 121.721,-208.961 123.657,-215.688"/>
</g>
<!-- Node3 -->
<g id="node3" class="node"><title>Node3</title>
<g id="a_node3"><a xlink:href="class_track.html#aff258a8c303ee8a09a962d237f3823e7" target="_top" xlink:title="Reads a csv file and inserts each point in m_points vector. ">
<polygon fill="none" stroke="black" points="278.5,-494.5 278.5,-513.5 388.5,-513.5 388.5,-494.5 278.5,-494.5"/>
<text text-anchor="middle" x="333.5" y="-501.5" font-family="Helvetica,sans-Serif" font-size="10.00">Track::readFromCSV</text>
</a>
</g>
</g>
<!-- Node2&#45;&gt;Node3 -->
<g id="edge2" class="edge"><title>Node2&#45;&gt;Node3</title>
<path fill="none" stroke="midnightblue" d="M169.241,-285.588C175.746,-318.608 201.739,-428.675 268,-485 269.985,-486.687 272.113,-488.224 274.346,-489.625"/>
<polygon fill="midnightblue" stroke="midnightblue" points="272.906,-492.823 283.386,-494.38 276.165,-486.627 272.906,-492.823"/>
</g>
<!-- Node7 -->
<g id="node7" class="node"><title>Node7</title>
<g id="a_node7"><a xlink:href="class_track.html#a58fcdaf47f2c87bb7095933616f5a4bc" target="_top" xlink:title="This is a temporal filter, which deletes points depending on a time value. ">
<polygon fill="none" stroke="black" points="280,-456.5 280,-475.5 387,-475.5 387,-456.5 280,-456.5"/>
<text text-anchor="middle" x="333.5" y="-463.5" font-family="Helvetica,sans-Serif" font-size="10.00">Track::temporalFilter</text>
</a>
</g>
</g>
<!-- Node2&#45;&gt;Node7 -->
<g id="edge6" class="edge"><title>Node2&#45;&gt;Node7</title>
<path fill="none" stroke="midnightblue" d="M170.416,-285.848C179.594,-315.112 210.733,-402.282 268,-447 270.329,-448.819 272.828,-450.463 275.441,-451.951"/>
<polygon fill="midnightblue" stroke="midnightblue" points="274.154,-455.216 284.679,-456.426 277.206,-448.917 274.154,-455.216"/>
</g>
<!-- Node9 -->
<g id="node9" class="node"><title>Node9</title>
<g id="a_node9"><a xlink:href="class_track.html#a9f1da7896167f44da967acf9fd05d92a" target="_top" xlink:title="This is a space filter, which deletes points depending on a distance interval. ">
<polygon fill="none" stroke="black" points="286,-418.5 286,-437.5 381,-437.5 381,-418.5 286,-418.5"/>
<text text-anchor="middle" x="333.5" y="-425.5" font-family="Helvetica,sans-Serif" font-size="10.00">Track::spaceFilter</text>
</a>
</g>
</g>
<!-- Node2&#45;&gt;Node9 -->
<g id="edge8" class="edge"><title>Node2&#45;&gt;Node9</title>
<path fill="none" stroke="midnightblue" d="M172.067,-285.714C184.112,-310.267 219.204,-375.252 268,-409 270.871,-410.986 273.952,-412.767 277.154,-414.364"/>
<polygon fill="midnightblue" stroke="midnightblue" points="275.86,-417.618 286.426,-418.396 278.651,-411.198 275.86,-417.618"/>
</g>
<!-- Node11 -->
<g id="node11" class="node"><title>Node11</title>
<g id="a_node11"><a xlink:href="class_track.html#ad262a30c2abcd29cf4cdc04facd290ee" target="_top" xlink:title="Track::getPointsAsPointer">
<polygon fill="none" stroke="black" points="268,-380.5 268,-399.5 399,-399.5 399,-380.5 268,-380.5"/>
<text text-anchor="middle" x="333.5" y="-387.5" font-family="Helvetica,sans-Serif" font-size="10.00">Track::getPointsAsPointer</text>
</a>
</g>
</g>
<!-- Node2&#45;&gt;Node11 -->
<g id="edge10" class="edge"><title>Node2&#45;&gt;Node11</title>
<path fill="none" stroke="midnightblue" d="M174.986,-285.636C190.346,-304.757 227.414,-347.661 268,-371 271.861,-373.22 276.004,-375.201 280.26,-376.964"/>
<polygon fill="midnightblue" stroke="midnightblue" points="279.096,-380.265 289.688,-380.484 281.544,-373.708 279.096,-380.265"/>
</g>
<!-- Node12 -->
<g id="node12" class="node"><title>Node12</title>
<g id="a_node12"><a xlink:href="class_track.html#abf3b02de2c94d38c6a79b7c932aa6c5b" target="_top" xlink:title="Return a string containing information about the content of this object. ">
<polygon fill="none" stroke="black" points="299.5,-342.5 299.5,-361.5 367.5,-361.5 367.5,-342.5 299.5,-342.5"/>
<text text-anchor="middle" x="333.5" y="-349.5" font-family="Helvetica,sans-Serif" font-size="10.00">Track::infos</text>
</a>
</g>
</g>
<!-- Node2&#45;&gt;Node12 -->
<g id="edge11" class="edge"><title>Node2&#45;&gt;Node12</title>
<path fill="none" stroke="midnightblue" d="M181.938,-285.603C200.988,-297.936 235.869,-319.37 268,-333 274.797,-335.883 282.173,-338.502 289.427,-340.81"/>
<polygon fill="midnightblue" stroke="midnightblue" points="288.591,-344.214 299.176,-343.762 290.619,-337.514 288.591,-344.214"/>
</g>
<!-- Node13 -->
<g id="node13" class="node"><title>Node13</title>
<g id="a_node13"><a xlink:href="class_grid.html#ae848f1c59c544adc1af9133409ee0106" target="_top" xlink:title="Reads a csv file and inserts info into the corresponding attributs. ">
<polygon fill="none" stroke="black" points="282,-304.5 282,-323.5 385,-323.5 385,-304.5 282,-304.5"/>
<text text-anchor="middle" x="333.5" y="-311.5" font-family="Helvetica,sans-Serif" font-size="10.00">Grid::readFromCSV</text>
</a>
</g>
</g>
<!-- Node2&#45;&gt;Node13 -->
<g id="edge12" class="edge"><title>Node2&#45;&gt;Node13</title>
<path fill="none" stroke="midnightblue" d="M201.688,-283.874C224.604,-289.151 255.199,-296.197 281.039,-302.148"/>
<polygon fill="midnightblue" stroke="midnightblue" points="280.518,-305.62 291.048,-304.454 282.089,-298.798 280.518,-305.62"/>
</g>
<!-- Node24 -->
<g id="node24" class="node"><title>Node24</title>
<g id="a_node24"><a xlink:href="class_grid.html#a5fa1f98ecc8f485e4eee5b55b56243a0" target="_top" xlink:title="Grid::infos">
<polygon fill="none" stroke="black" points="302.5,-266.5 302.5,-285.5 364.5,-285.5 364.5,-266.5 302.5,-266.5"/>
<text text-anchor="middle" x="333.5" y="-273.5" font-family="Helvetica,sans-Serif" font-size="10.00">Grid::infos</text>
</a>
</g>
</g>
<!-- Node2&#45;&gt;Node24 -->
<g id="edge24" class="edge"><title>Node2&#45;&gt;Node24</title>
<path fill="none" stroke="midnightblue" d="M201.688,-276C227.97,-276 264.352,-276 292.077,-276"/>
<polygon fill="midnightblue" stroke="midnightblue" points="292.239,-279.5 302.239,-276 292.239,-272.5 292.239,-279.5"/>
</g>
<!-- Node25 -->
<g id="node25" class="node"><title>Node25</title>
<g id="a_node25"><a xlink:href="class_grid.html#aa96eed7a551f45aeee1068a289bd2a7b" target="_top" xlink:title="Grid::xMinGrid">
<polygon fill="none" stroke="black" points="293.5,-228.5 293.5,-247.5 373.5,-247.5 373.5,-228.5 293.5,-228.5"/>
<text text-anchor="middle" x="333.5" y="-235.5" font-family="Helvetica,sans-Serif" font-size="10.00">Grid::xMinGrid</text>
</a>
</g>
</g>
<!-- Node2&#45;&gt;Node25 -->
<g id="edge25" class="edge"><title>Node2&#45;&gt;Node25</title>
<path fill="none" stroke="midnightblue" d="M201.688,-268.126C225.375,-262.671 257.267,-255.326 283.63,-249.255"/>
<polygon fill="midnightblue" stroke="midnightblue" points="284.475,-252.652 293.435,-246.997 282.904,-245.83 284.475,-252.652"/>
</g>
<!-- Node26 -->
<g id="node26" class="node"><title>Node26</title>
<g id="a_node26"><a xlink:href="class_grid.html#aa3dd1e75998e6214c3ef33cdc5e02204" target="_top" xlink:title="Grid::xMaxGrid">
<polygon fill="none" stroke="black" points="292,-190.5 292,-209.5 375,-209.5 375,-190.5 292,-190.5"/>
<text text-anchor="middle" x="333.5" y="-197.5" font-family="Helvetica,sans-Serif" font-size="10.00">Grid::xMaxGrid</text>
</a>
</g>
</g>
<!-- Node2&#45;&gt;Node26 -->
<g id="edge26" class="edge"><title>Node2&#45;&gt;Node26</title>
<path fill="none" stroke="midnightblue" d="M201.72,-269.503C211.935,-266.64 222.841,-262.608 232,-257 251.84,-244.851 248.16,-231.149 268,-219 272.429,-216.288 277.266,-213.945 282.236,-211.924"/>
<polygon fill="midnightblue" stroke="midnightblue" points="283.677,-215.125 291.884,-208.424 281.29,-208.544 283.677,-215.125"/>
</g>
<!-- Node27 -->
<g id="node27" class="node"><title>Node27</title>
<g id="a_node27"><a xlink:href="class_grid.html#afa95de5fff735d1121572075a872121c" target="_top" xlink:title="Grid::yMinGrid">
<polygon fill="none" stroke="black" points="293.5,-152.5 293.5,-171.5 373.5,-171.5 373.5,-152.5 293.5,-152.5"/>
<text text-anchor="middle" x="333.5" y="-159.5" font-family="Helvetica,sans-Serif" font-size="10.00">Grid::yMinGrid</text>
</a>
</g>
</g>
<!-- Node2&#45;&gt;Node27 -->
<g id="edge27" class="edge"><title>Node2&#45;&gt;Node27</title>
<path fill="none" stroke="midnightblue" d="M201.611,-271.547C212.283,-268.776 223.483,-264.283 232,-257 260.406,-232.71 239.594,-205.29 268,-181 272.604,-177.063 277.991,-173.942 283.656,-171.467"/>
<polygon fill="midnightblue" stroke="midnightblue" points="285.193,-174.63 293.36,-167.882 282.767,-168.064 285.193,-174.63"/>
</g>
<!-- Node28 -->
<g id="node28" class="node"><title>Node28</title>
<g id="a_node28"><a xlink:href="class_grid.html#a97ee4a72430770462f5e2ba140f2ca65" target="_top" xlink:title="Grid::yMaxGrid">
<polygon fill="none" stroke="black" points="292,-114.5 292,-133.5 375,-133.5 375,-114.5 292,-114.5"/>
<text text-anchor="middle" x="333.5" y="-121.5" font-family="Helvetica,sans-Serif" font-size="10.00">Grid::yMaxGrid</text>
</a>
</g>
</g>
<!-- Node2&#45;&gt;Node28 -->
<g id="edge28" class="edge"><title>Node2&#45;&gt;Node28</title>
<path fill="none" stroke="midnightblue" d="M201.547,-272.375C212.466,-269.672 223.832,-265.011 232,-257 269.933,-219.796 230.067,-180.204 268,-143 272.063,-139.015 276.917,-135.859 282.115,-133.36"/>
<polygon fill="midnightblue" stroke="midnightblue" points="283.741,-136.48 291.743,-129.536 281.157,-129.975 283.741,-136.48"/>
</g>
<!-- Node29 -->
<g id="node29" class="node"><title>Node29</title>
<g id="a_node29"><a xlink:href="class_grid.html#aea292f48c96b2e9d1abee08040cd3833" target="_top" xlink:title="buildMarkovMatrix ">
<polygon fill="none" stroke="black" points="273.5,-76.5 273.5,-95.5 393.5,-95.5 393.5,-76.5 273.5,-76.5"/>
<text text-anchor="middle" x="333.5" y="-83.5" font-family="Helvetica,sans-Serif" font-size="10.00">Grid::buildMarkovMatrix</text>
</a>
</g>
</g>
<!-- Node2&#45;&gt;Node29 -->
<g id="edge29" class="edge"><title>Node2&#45;&gt;Node29</title>
<path fill="none" stroke="midnightblue" d="M201.554,-272.793C212.604,-270.131 224.051,-265.389 232,-257 279.749,-206.604 220.251,-155.396 268,-105 269.385,-103.538 270.876,-102.187 272.453,-100.939"/>
<polygon fill="midnightblue" stroke="midnightblue" points="274.41,-103.842 280.955,-95.5109 270.643,-97.9418 274.41,-103.842"/>
</g>
<!-- Node31 -->
<g id="node31" class="node"><title>Node31</title>
<g id="a_node31"><a xlink:href="class_solver.html#a8851263dce9a1edb047e07406eb3c566" target="_top" xlink:title="Solver::viterbiSetup">
<polygon fill="none" stroke="black" points="282.5,-38.5 282.5,-57.5 384.5,-57.5 384.5,-38.5 282.5,-38.5"/>
<text text-anchor="middle" x="333.5" y="-45.5" font-family="Helvetica,sans-Serif" font-size="10.00">Solver::viterbiSetup</text>
</a>
</g>
</g>
<!-- Node2&#45;&gt;Node31 -->
<g id="edge31" class="edge"><title>Node2&#45;&gt;Node31</title>
<path fill="none" stroke="midnightblue" d="M201.77,-272.993C212.84,-270.35 224.243,-265.567 232,-257 289.685,-193.287 210.315,-130.713 268,-67 269.748,-65.0691 271.682,-63.3305 273.755,-61.7653"/>
<polygon fill="midnightblue" stroke="midnightblue" points="275.616,-64.73 282.347,-56.548 271.983,-58.7467 275.616,-64.73"/>
</g>
<!-- Node4 -->
<g id="node4" class="node"><title>Node4</title>
<g id="a_node4"><a xlink:href="class_track.html#ab0315e74b9b49e40d163a2ff978d833c" target="_top" xlink:title="Creates a new point and inserts it in m_points. ">
<polygon fill="none" stroke="black" points="463,-532.5 463,-551.5 549,-551.5 549,-532.5 463,-532.5"/>
<text text-anchor="middle" x="506" y="-539.5" font-family="Helvetica,sans-Serif" font-size="10.00">Track::addPoint</text>
</a>
</g>
</g>
<!-- Node3&#45;&gt;Node4 -->
<g id="edge3" class="edge"><title>Node3&#45;&gt;Node4</title>
<path fill="none" stroke="midnightblue" d="M377.524,-513.589C400.399,-518.687 428.7,-524.995 452.821,-530.371"/>
<polygon fill="midnightblue" stroke="midnightblue" points="452.353,-533.852 462.874,-532.611 453.875,-527.02 452.353,-533.852"/>
</g>
<!-- Node6 -->
<g id="node6" class="node"><title>Node6</title>
<g id="a_node6"><a xlink:href="class_track.html#aac5002af6aa69a20101a5709dbbebc82" target="_top" xlink:title="Apply a threshold to bounding box once the data file has been read. ">
<polygon fill="none" stroke="black" points="435,-494.5 435,-513.5 577,-513.5 577,-494.5 435,-494.5"/>
<text text-anchor="middle" x="506" y="-501.5" font-family="Helvetica,sans-Serif" font-size="10.00">Track::applyThresholdToBox</text>
</a>
</g>
</g>
<!-- Node3&#45;&gt;Node6 -->
<g id="edge5" class="edge"><title>Node3&#45;&gt;Node6</title>
<path fill="none" stroke="midnightblue" d="M388.916,-504C400.337,-504 412.611,-504 424.749,-504"/>
<polygon fill="midnightblue" stroke="midnightblue" points="424.892,-507.5 434.892,-504 424.892,-500.5 424.892,-507.5"/>
</g>
<!-- Node5 -->
<g id="node5" class="node"><title>Node5</title>
<g id="a_node5"><a xlink:href="class_track.html#af947410651d847174d7b18d8e9df9ca7" target="_top" xlink:title="Update the enclosing box of the track. ">
<polygon fill="none" stroke="black" points="647,-532.5 647,-551.5 741,-551.5 741,-532.5 647,-532.5"/>
<text text-anchor="middle" x="694" y="-539.5" font-family="Helvetica,sans-Serif" font-size="10.00">Track::updateBox</text>
</a>
</g>
</g>
<!-- Node4&#45;&gt;Node5 -->
<g id="edge4" class="edge"><title>Node4&#45;&gt;Node5</title>
<path fill="none" stroke="midnightblue" d="M549.206,-542C575.076,-542 608.51,-542 636.627,-542"/>
<polygon fill="midnightblue" stroke="midnightblue" points="636.722,-545.5 646.722,-542 636.722,-538.5 636.722,-545.5"/>
</g>
<!-- Node8 -->
<g id="node8" class="node"><title>Node8</title>
<g id="a_node8"><a xlink:href="class_point_g_p_s.html#aa8a0cbf3cfbc3f4ac9d16737c00fcb88" target="_top" xlink:title="PointGPS::timeStamp">
<polygon fill="none" stroke="black" points="449.5,-456.5 449.5,-475.5 562.5,-475.5 562.5,-456.5 449.5,-456.5"/>
<text text-anchor="middle" x="506" y="-463.5" font-family="Helvetica,sans-Serif" font-size="10.00">PointGPS::timeStamp</text>
</a>
</g>
</g>
<!-- Node7&#45;&gt;Node8 -->
<g id="edge7" class="edge"><title>Node7&#45;&gt;Node8</title>
<path fill="none" stroke="midnightblue" d="M387.047,-466C403.569,-466 422.023,-466 439.337,-466"/>
<polygon fill="midnightblue" stroke="midnightblue" points="439.377,-469.5 449.377,-466 439.376,-462.5 439.377,-469.5"/>
</g>
<!-- Node10 -->
<g id="node10" class="node"><title>Node10</title>
<g id="a_node10"><a xlink:href="class_track.html#a0477b30aca07ba3f43b25d4c6ea782e0" target="_top" xlink:title="Deletes a occurence. ">
<polygon fill="none" stroke="black" points="454,-418.5 454,-437.5 558,-437.5 558,-418.5 454,-418.5"/>
<text text-anchor="middle" x="506" y="-425.5" font-family="Helvetica,sans-Serif" font-size="10.00">Track::delPointGPS</text>
</a>
</g>
</g>
<!-- Node9&#45;&gt;Node10 -->
<g id="edge9" class="edge"><title>Node9&#45;&gt;Node10</title>
<path fill="none" stroke="midnightblue" d="M381.09,-428C400.405,-428 423.08,-428 443.716,-428"/>
<polygon fill="midnightblue" stroke="midnightblue" points="443.974,-431.5 453.974,-428 443.974,-424.5 443.974,-431.5"/>
</g>
<!-- Node14 -->
<g id="node14" class="node"><title>Node14</title>
<g id="a_node14"><a xlink:href="class_grid.html#a6b6af4fb2545b398b47794de576f15f5" target="_top" xlink:title="Test if a point is in the defined area of a track. ">
<polygon fill="none" stroke="black" points="462,-342.5 462,-361.5 550,-361.5 550,-342.5 462,-342.5"/>
<text text-anchor="middle" x="506" y="-349.5" font-family="Helvetica,sans-Serif" font-size="10.00">Grid::inFootPrint</text>
</a>
</g>
</g>
<!-- Node13&#45;&gt;Node14 -->
<g id="edge13" class="edge"><title>Node13&#45;&gt;Node14</title>
<path fill="none" stroke="midnightblue" d="M377.524,-323.589C400.226,-328.649 428.273,-334.9 452.274,-340.249"/>
<polygon fill="midnightblue" stroke="midnightblue" points="451.763,-343.721 462.285,-342.48 453.286,-336.888 451.763,-343.721"/>
</g>
<!-- Node15 -->
<g id="node15" class="node"><title>Node15</title>
<g id="a_node15"><a xlink:href="class_grid.html#a58233ab60f7477144af334f205606aa4" target="_top" xlink:title="Find max and min of the grid. ">
<polygon fill="none" stroke="black" points="462,-304.5 462,-323.5 550,-323.5 550,-304.5 462,-304.5"/>
<text text-anchor="middle" x="506" y="-311.5" font-family="Helvetica,sans-Serif" font-size="10.00">Grid::updateGrid</text>
</a>
</g>
</g>
<!-- Node13&#45;&gt;Node15 -->
<g id="edge14" class="edge"><title>Node13&#45;&gt;Node15</title>
<path fill="none" stroke="midnightblue" d="M385.194,-314C406.199,-314 430.573,-314 451.831,-314"/>
<polygon fill="midnightblue" stroke="midnightblue" points="451.989,-317.5 461.989,-314 451.989,-310.5 451.989,-317.5"/>
</g>
<!-- Node16 -->
<g id="node16" class="node"><title>Node16</title>
<g id="a_node16"><a xlink:href="class_grid.html#aba1830bc145f128d6deeed29cfb94c9f" target="_top" xlink:title="Creates a new road and inserts it in m_road. ">
<polygon fill="none" stroke="black" points="466,-266.5 466,-285.5 546,-285.5 546,-266.5 466,-266.5"/>
<text text-anchor="middle" x="506" y="-273.5" font-family="Helvetica,sans-Serif" font-size="10.00">Grid::addRoad</text>
</a>
</g>
</g>
<!-- Node13&#45;&gt;Node16 -->
<g id="edge15" class="edge"><title>Node13&#45;&gt;Node16</title>
<path fill="none" stroke="midnightblue" d="M377.524,-304.411C401.368,-299.097 431.108,-292.469 455.864,-286.951"/>
<polygon fill="midnightblue" stroke="midnightblue" points="456.784,-290.332 465.784,-284.74 455.262,-283.5 456.784,-290.332"/>
</g>
<!-- Node17 -->
<g id="node17" class="node"><title>Node17</title>
<g id="a_node17"><a xlink:href="class_point_road.html#aa1b90c3fdf8ae7a1fcd8ce6182d13287" target="_top" xlink:title="PointRoad::outputInfos">
<polygon fill="none" stroke="black" points="635.5,-380.5 635.5,-399.5 752.5,-399.5 752.5,-380.5 635.5,-380.5"/>
<text text-anchor="middle" x="694" y="-387.5" font-family="Helvetica,sans-Serif" font-size="10.00">PointRoad::outputInfos</text>
</a>
</g>
</g>
<!-- Node16&#45;&gt;Node17 -->
<g id="edge16" class="edge"><title>Node16&#45;&gt;Node17</title>
<path fill="none" stroke="midnightblue" d="M546.164,-280.432C557.076,-283.22 568.308,-287.727 577,-295 605.665,-318.985 583.957,-347.475 613,-371 616.988,-374.23 621.434,-376.928 626.131,-379.179"/>
<polygon fill="midnightblue" stroke="midnightblue" points="624.836,-382.431 635.416,-382.98 627.487,-375.953 624.836,-382.431"/>
</g>
<!-- Node18 -->
<g id="node18" class="node"><title>Node18</title>
<g id="a_node18"><a xlink:href="class_point_road.html#ab53ccb3c883bdfd27c707901c5c658c8" target="_top" xlink:title="PointRoad::updateBelongToRoad">
<polygon fill="none" stroke="black" points="613,-342.5 613,-361.5 775,-361.5 775,-342.5 613,-342.5"/>
<text text-anchor="middle" x="694" y="-349.5" font-family="Helvetica,sans-Serif" font-size="10.00">PointRoad::updateBelongToRoad</text>
</a>
</g>
</g>
<!-- Node16&#45;&gt;Node18 -->
<g id="edge17" class="edge"><title>Node16&#45;&gt;Node18</title>
<path fill="none" stroke="midnightblue" d="M546.311,-282.658C556.754,-285.477 567.704,-289.444 577,-295 596.969,-306.936 592.843,-321.384 613,-333 616.861,-335.225 620.97,-337.19 625.21,-338.925"/>
<polygon fill="midnightblue" stroke="midnightblue" points="624.058,-342.231 634.652,-342.369 626.457,-335.655 624.058,-342.231"/>
</g>
<!-- Node19 -->
<g id="node19" class="node"><title>Node19</title>
<g id="a_node19"><a xlink:href="class_point_road.html#a998665db2d7e4fc4935ef95df092ff2b" target="_top" xlink:title="PointRoad::setid">
<polygon fill="none" stroke="black" points="649.5,-304.5 649.5,-323.5 738.5,-323.5 738.5,-304.5 649.5,-304.5"/>
<text text-anchor="middle" x="694" y="-311.5" font-family="Helvetica,sans-Serif" font-size="10.00">PointRoad::setid</text>
</a>
</g>
</g>
<!-- Node16&#45;&gt;Node19 -->
<g id="edge18" class="edge"><title>Node16&#45;&gt;Node19</title>
<path fill="none" stroke="midnightblue" d="M546.446,-284.059C573.441,-289.574 609.57,-296.955 639.2,-303.009"/>
<polygon fill="midnightblue" stroke="midnightblue" points="638.886,-306.517 649.384,-305.089 640.287,-299.658 638.886,-306.517"/>
</g>
<!-- Node20 -->
<g id="node20" class="node"><title>Node20</title>
<g id="a_node20"><a xlink:href="class_point_road.html#a81372f2c2c0fe1084fa2397289518124" target="_top" xlink:title="PointRoad::id">
<polygon fill="none" stroke="black" points="811,-285.5 811,-304.5 887,-304.5 887,-285.5 811,-285.5"/>
<text text-anchor="middle" x="849" y="-292.5" font-family="Helvetica,sans-Serif" font-size="10.00">PointRoad::id</text>
</a>
</g>
</g>
<!-- Node16&#45;&gt;Node20 -->
<g id="edge21" class="edge"><title>Node16&#45;&gt;Node20</title>
<path fill="none" stroke="midnightblue" d="M546.117,-278.18C609.053,-281.686 732.588,-288.569 800.491,-292.353"/>
<polygon fill="midnightblue" stroke="midnightblue" points="800.714,-295.871 810.894,-292.932 801.104,-288.881 800.714,-295.871"/>
</g>
<!-- Node21 -->
<g id="node21" class="node"><title>Node21</title>
<g id="a_node21"><a xlink:href="class_point_road.html#ae83941b37b026758fdd7974b4b186fbc" target="_top" xlink:title="PointRoad::isNode">
<polygon fill="none" stroke="black" points="644.5,-228.5 644.5,-247.5 743.5,-247.5 743.5,-228.5 644.5,-228.5"/>
<text text-anchor="middle" x="694" y="-235.5" font-family="Helvetica,sans-Serif" font-size="10.00">PointRoad::isNode</text>
</a>
</g>
</g>
<!-- Node16&#45;&gt;Node21 -->
<g id="edge20" class="edge"><title>Node16&#45;&gt;Node21</title>
<path fill="none" stroke="midnightblue" d="M546.446,-267.941C572.583,-262.601 607.281,-255.512 636.354,-249.573"/>
<polygon fill="midnightblue" stroke="midnightblue" points="637.282,-252.956 646.379,-247.525 635.881,-246.097 637.282,-252.956"/>
</g>
<!-- Node22 -->
<g id="node22" class="node"><title>Node22</title>
<g id="a_node22"><a xlink:href="class_road.html#a7f97b4f20c598103baad510b19a0c0b5" target="_top" xlink:title="Add a point to the road. ">
<polygon fill="none" stroke="black" points="652,-190.5 652,-209.5 736,-209.5 736,-190.5 652,-190.5"/>
<text text-anchor="middle" x="694" y="-197.5" font-family="Helvetica,sans-Serif" font-size="10.00">Road::addPoint</text>
</a>
</g>
</g>
<!-- Node16&#45;&gt;Node22 -->
<g id="edge22" class="edge"><title>Node16&#45;&gt;Node22</title>
<path fill="none" stroke="midnightblue" d="M521.855,-266.394C541.837,-253.858 578.821,-231.993 613,-219 622.111,-215.536 632.053,-212.569 641.735,-210.079"/>
<polygon fill="midnightblue" stroke="midnightblue" points="642.796,-213.423 651.684,-207.656 641.14,-206.622 642.796,-213.423"/>
</g>
<!-- Node23 -->
<g id="node23" class="node"><title>Node23</title>
<g id="a_node23"><a xlink:href="class_road.html#ad6715392969e36eb10efac542519755c" target="_top" xlink:title="Get the id of the road. ">
<polygon fill="none" stroke="black" points="656.5,-152.5 656.5,-171.5 731.5,-171.5 731.5,-152.5 656.5,-152.5"/>
<text text-anchor="middle" x="694" y="-159.5" font-family="Helvetica,sans-Serif" font-size="10.00">Road::edgeId</text>
</a>
</g>
</g>
<!-- Node16&#45;&gt;Node23 -->
<g id="edge23" class="edge"><title>Node16&#45;&gt;Node23</title>
<path fill="none" stroke="midnightblue" d="M514.666,-266.49C530.747,-247.211 570.082,-203.45 613,-181 623.272,-175.627 635.078,-171.75 646.411,-168.962"/>
<polygon fill="midnightblue" stroke="midnightblue" points="647.198,-172.373 656.197,-166.781 645.676,-165.54 647.198,-172.373"/>
</g>
<!-- Node19&#45;&gt;Node20 -->
<g id="edge19" class="edge"><title>Node19&#45;&gt;Node20</title>
<path fill="none" stroke="midnightblue" d="M738.844,-308.555C758.244,-306.146 781.094,-303.309 800.861,-300.854"/>
<polygon fill="midnightblue" stroke="midnightblue" points="801.39,-304.315 810.882,-299.609 800.527,-297.369 801.39,-304.315"/>
</g>
<!-- Node30 -->
<g id="node30" class="node"><title>Node30</title>
<g id="a_node30"><a xlink:href="class_grid.html#a54c76e927f8428bca87520d8ca310bec" target="_top" xlink:title="Grid::getRoadEntry">
<polygon fill="none" stroke="black" points="455.5,-76.5 455.5,-95.5 556.5,-95.5 556.5,-76.5 455.5,-76.5"/>
<text text-anchor="middle" x="506" y="-83.5" font-family="Helvetica,sans-Serif" font-size="10.00">Grid::getRoadEntry</text>
</a>
</g>
</g>
<!-- Node29&#45;&gt;Node30 -->
<g id="edge30" class="edge"><title>Node29&#45;&gt;Node30</title>
<path fill="none" stroke="midnightblue" d="M393.654,-86C410.301,-86 428.417,-86 445.106,-86"/>
<polygon fill="midnightblue" stroke="midnightblue" points="445.288,-89.5001 455.288,-86 445.288,-82.5001 445.288,-89.5001"/>
</g>
<!-- Node32 -->
<g id="node32" class="node"><title>Node32</title>
<g id="a_node32"><a xlink:href="class_grid.html#aa0545cd5f236dced312b694dc768f137" target="_top" xlink:title="Getters. ">
<polygon fill="none" stroke="black" points="453,-38.5 453,-57.5 559,-57.5 559,-38.5 453,-38.5"/>
<text text-anchor="middle" x="506" y="-45.5" font-family="Helvetica,sans-Serif" font-size="10.00">Grid::getNoOfRoads</text>
</a>
</g>
</g>
<!-- Node31&#45;&gt;Node32 -->
<g id="edge32" class="edge"><title>Node31&#45;&gt;Node32</title>
<path fill="none" stroke="midnightblue" d="M384.733,-48C402.885,-48 423.6,-48 442.664,-48"/>
<polygon fill="midnightblue" stroke="midnightblue" points="442.758,-51.5001 452.758,-48 442.758,-44.5001 442.758,-51.5001"/>
</g>
<!-- Node33 -->
<g id="node33" class="node"><title>Node33</title>
<g id="a_node33"><a xlink:href="class_track.html#aa16b233f5eaca258da5f00aca77e00f9" target="_top" xlink:title="Track::getNoOfPoints">
<polygon fill="none" stroke="black" points="450,-0.5 450,-19.5 562,-19.5 562,-0.5 450,-0.5"/>
<text text-anchor="middle" x="506" y="-7.5" font-family="Helvetica,sans-Serif" font-size="10.00">Track::getNoOfPoints</text>
</a>
</g>
</g>
<!-- Node31&#45;&gt;Node33 -->
<g id="edge33" class="edge"><title>Node31&#45;&gt;Node33</title>
<path fill="none" stroke="midnightblue" d="M377.524,-38.411C400.226,-33.3513 428.273,-27.1004 452.274,-21.7512"/>
<polygon fill="midnightblue" stroke="midnightblue" points="453.286,-25.1117 462.285,-19.5201 451.763,-18.2793 453.286,-25.1117"/>
</g>
</g>
</svg>
