<?xml version="1.0" encoding="UTF-8" standalone="no"?>
<!DOCTYPE svg PUBLIC "-//W3C//DTD SVG 1.1//EN"
 "http://www.w3.org/Graphics/SVG/1.1/DTD/svg11.dtd">
<!-- Generated by graphviz version 2.38.0 (20140413.2041)
 -->
<!-- Title: map.h Pages: 1 -->
<svg width="423pt" height="84pt"
 viewBox="0.00 0.00 422.50 84.00" xmlns="http://www.w3.org/2000/svg" xmlns:xlink="http://www.w3.org/1999/xlink">
<g id="graph0" class="graph" transform="scale(1 1) rotate(0) translate(4 80)">
<title>map.h</title>
<!-- Node1 -->
<g id="node1" class="node"><title>Node1</title>
<polygon fill="#bfbfbf" stroke="black" points="185,-56.5 185,-75.5 229,-75.5 229,-56.5 185,-56.5"/>
<text text-anchor="middle" x="207" y="-63.5" font-family="Helvetica,sans-Serif" font-size="10.00">map.h</text>
</g>
<!-- Node2 -->
<g id="node2" class="node"><title>Node2</title>
<polygon fill="none" stroke="#bfbfbf" points="0,-0.5 0,-19.5 54,-19.5 54,-0.5 0,-0.5"/>
<text text-anchor="middle" x="27" y="-7.5" font-family="Helvetica,sans-Serif" font-size="10.00">iostream</text>
</g>
<!-- Node1&#45;&gt;Node2 -->
<g id="edge1" class="edge"><title>Node1&#45;&gt;Node2</title>
<path fill="none" stroke="midnightblue" d="M184.928,-58.3785C154.809,-49.3428 100.424,-33.0272 64.0111,-22.1033"/>
<polygon fill="midnightblue" stroke="midnightblue" points="64.8366,-18.6969 54.2526,-19.1758 62.8251,-25.4017 64.8366,-18.6969"/>
</g>
<!-- Node3 -->
<g id="node3" class="node"><title>Node3</title>
<polygon fill="none" stroke="#bfbfbf" points="72.5,-0.5 72.5,-19.5 113.5,-19.5 113.5,-0.5 72.5,-0.5"/>
<text text-anchor="middle" x="93" y="-7.5" font-family="Helvetica,sans-Serif" font-size="10.00">string</text>
</g>
<!-- Node1&#45;&gt;Node3 -->
<g id="edge2" class="edge"><title>Node1&#45;&gt;Node3</title>
<path fill="none" stroke="midnightblue" d="M188.936,-56.4435C170.425,-47.6751 141.419,-33.9355 120.145,-23.8579"/>
<polygon fill="midnightblue" stroke="midnightblue" points="121.515,-20.6343 110.979,-19.5164 118.518,-26.9604 121.515,-20.6343"/>
</g>
<!-- Node4 -->
<g id="node4" class="node"><title>Node4</title>
<polygon fill="none" stroke="#bfbfbf" points="132,-0.5 132,-19.5 204,-19.5 204,-0.5 132,-0.5"/>
<text text-anchor="middle" x="168" y="-7.5" font-family="Helvetica,sans-Serif" font-size="10.00">QApplication</text>
</g>
<!-- Node1&#45;&gt;Node4 -->
<g id="edge3" class="edge"><title>Node1&#45;&gt;Node4</title>
<path fill="none" stroke="midnightblue" d="M200.56,-56.083C195.051,-48.4554 186.969,-37.2645 180.235,-27.9408"/>
<polygon fill="midnightblue" stroke="midnightblue" points="183.013,-25.8087 174.32,-19.7511 177.338,-29.9071 183.013,-25.8087"/>
</g>
<!-- Node5 -->
<g id="node5" class="node"><title>Node5</title>
<polygon fill="none" stroke="#bfbfbf" points="222,-0.5 222,-19.5 272,-19.5 272,-0.5 222,-0.5"/>
<text text-anchor="middle" x="247" y="-7.5" font-family="Helvetica,sans-Serif" font-size="10.00">QString</text>
</g>
<!-- Node1&#45;&gt;Node5 -->
<g id="edge4" class="edge"><title>Node1&#45;&gt;Node5</title>
<path fill="none" stroke="midnightblue" d="M213.605,-56.083C219.255,-48.4554 227.545,-37.2645 234.451,-27.9408"/>
<polygon fill="midnightblue" stroke="midnightblue" points="237.378,-29.87 240.518,-19.7511 231.753,-25.7034 237.378,-29.87"/>
</g>
<!-- Node6 -->
<g id="node6" class="node"><title>Node6</title>
<polygon fill="none" stroke="#bfbfbf" points="290.5,-0.5 290.5,-19.5 341.5,-19.5 341.5,-0.5 290.5,-0.5"/>
<text text-anchor="middle" x="316" y="-7.5" font-family="Helvetica,sans-Serif" font-size="10.00">QImage</text>
</g>
<!-- Node1&#45;&gt;Node6 -->
<g id="edge5" class="edge"><title>Node1&#45;&gt;Node6</title>
<path fill="none" stroke="midnightblue" d="M224.513,-56.324C242.072,-47.6247 269.331,-34.1202 289.531,-24.113"/>
<polygon fill="midnightblue" stroke="midnightblue" points="291.124,-27.23 298.531,-19.6545 288.016,-20.9575 291.124,-27.23"/>
</g>
<!-- Node7 -->
<g id="node7" class="node"><title>Node7</title>
<polygon fill="none" stroke="#bfbfbf" points="359.5,-0.5 359.5,-19.5 414.5,-19.5 414.5,-0.5 359.5,-0.5"/>
<text text-anchor="middle" x="387" y="-7.5" font-family="Helvetica,sans-Serif" font-size="10.00">QPainter</text>
</g>
<!-- Node1&#45;&gt;Node7 -->
<g id="edge6" class="edge"><title>Node1&#45;&gt;Node7</title>
<path fill="none" stroke="midnightblue" d="M229.072,-58.3785C259.105,-49.3685 313.266,-33.1201 349.677,-22.1968"/>
<polygon fill="midnightblue" stroke="midnightblue" points="350.869,-25.4935 359.441,-19.2676 348.857,-18.7887 350.869,-25.4935"/>
</g>
</g>
</svg>
