<?xml version="1.0" encoding="UTF-8" standalone="no"?>
<!DOCTYPE svg PUBLIC "-//W3C//DTD SVG 1.1//EN"
 "http://www.w3.org/Graphics/SVG/1.1/DTD/svg11.dtd">
<!-- Generated by graphviz version 2.38.0 (20140413.2041)
 -->
<!-- Title: myexception.h Pages: 1 -->
<svg width="392pt" height="252pt"
 viewBox="0.00 0.00 392.00 252.00" xmlns="http://www.w3.org/2000/svg" xmlns:xlink="http://www.w3.org/1999/xlink">
<g id="graph0" class="graph" transform="scale(1 1) rotate(0) translate(4 248)">
<title>myexception.h</title>
<!-- Node1 -->
<g id="node1" class="node"><title>Node1</title>
<polygon fill="#bfbfbf" stroke="black" points="230,-224.5 230,-243.5 310,-243.5 310,-224.5 230,-224.5"/>
<text text-anchor="middle" x="270" y="-231.5" font-family="Helvetica,sans-Serif" font-size="10.00">myexception.h</text>
</g>
<!-- Node2 -->
<g id="node2" class="node"><title>Node2</title>
<g id="a_node2"><a xlink:href="file_8h.html" target="_top" xlink:title="file.h">
<polygon fill="none" stroke="black" points="181,-168.5 181,-187.5 219,-187.5 219,-168.5 181,-168.5"/>
<text text-anchor="middle" x="200" y="-175.5" font-family="Helvetica,sans-Serif" font-size="10.00">file.h</text>
</a>
</g>
</g>
<!-- Node1&#45;&gt;Node2 -->
<g id="edge1" class="edge"><title>Node1&#45;&gt;Node2</title>
<path fill="none" stroke="midnightblue" d="M250.686,-218.101C238.088,-208.382 222.072,-196.027 211.451,-187.834"/>
<polygon fill="midnightblue" stroke="midnightblue" points="248.698,-220.987 258.753,-224.324 252.973,-215.445 248.698,-220.987"/>
</g>
<!-- Node6 -->
<g id="node6" class="node"><title>Node6</title>
<g id="a_node6"><a xlink:href="main_8cpp.html" target="_top" xlink:title="main.cpp">
<polygon fill="none" stroke="black" points="196,-0.5 196,-19.5 252,-19.5 252,-0.5 196,-0.5"/>
<text text-anchor="middle" x="224" y="-7.5" font-family="Helvetica,sans-Serif" font-size="10.00">main.cpp</text>
</a>
</g>
</g>
<!-- Node1&#45;&gt;Node6 -->
<g id="edge10" class="edge"><title>Node1&#45;&gt;Node6</title>
<path fill="none" stroke="midnightblue" d="M266.851,-214.266C261.305,-181.863 249.13,-113.318 236,-56 233.075,-43.2322 229.047,-28.6033 226.483,-19.5817"/>
<polygon fill="midnightblue" stroke="midnightblue" points="263.461,-215.207 268.584,-224.481 270.362,-214.036 263.461,-215.207"/>
</g>
<!-- Node9 -->
<g id="node9" class="node"><title>Node9</title>
<g id="a_node9"><a xlink:href="sauvegarde_8h.html" target="_top" xlink:title="sauvegarde.h">
<polygon fill="none" stroke="black" points="300.5,-168.5 300.5,-187.5 375.5,-187.5 375.5,-168.5 300.5,-168.5"/>
<text text-anchor="middle" x="338" y="-175.5" font-family="Helvetica,sans-Serif" font-size="10.00">sauvegarde.h</text>
</a>
</g>
</g>
<!-- Node1&#45;&gt;Node9 -->
<g id="edge11" class="edge"><title>Node1&#45;&gt;Node9</title>
<path fill="none" stroke="midnightblue" d="M288.762,-218.101C301,-208.382 316.559,-196.027 326.876,-187.834"/>
<polygon fill="midnightblue" stroke="midnightblue" points="286.58,-215.364 280.925,-224.324 290.933,-220.846 286.58,-215.364"/>
</g>
<!-- Node3 -->
<g id="node3" class="node"><title>Node3</title>
<g id="a_node3"><a xlink:href="file_8cpp.html" target="_top" xlink:title="file.cpp">
<polygon fill="none" stroke="black" points="82,-112.5 82,-131.5 130,-131.5 130,-112.5 82,-112.5"/>
<text text-anchor="middle" x="106" y="-119.5" font-family="Helvetica,sans-Serif" font-size="10.00">file.cpp</text>
</a>
</g>
</g>
<!-- Node2&#45;&gt;Node3 -->
<g id="edge2" class="edge"><title>Node2&#45;&gt;Node3</title>
<path fill="none" stroke="midnightblue" d="M175.938,-163.177C158.641,-153.241 135.852,-140.149 121.065,-131.655"/>
<polygon fill="midnightblue" stroke="midnightblue" points="174.483,-166.378 184.897,-168.324 177.97,-160.308 174.483,-166.378"/>
</g>
<!-- Node4 -->
<g id="node4" class="node"><title>Node4</title>
<g id="a_node4"><a xlink:href="loading_8h.html" target="_top" xlink:title="loading.h">
<polygon fill="none" stroke="black" points="148,-112.5 148,-131.5 204,-131.5 204,-112.5 148,-112.5"/>
<text text-anchor="middle" x="176" y="-119.5" font-family="Helvetica,sans-Serif" font-size="10.00">loading.h</text>
</a>
</g>
</g>
<!-- Node2&#45;&gt;Node4 -->
<g id="edge3" class="edge"><title>Node2&#45;&gt;Node4</title>
<path fill="none" stroke="midnightblue" d="M191.862,-158.69C187.817,-149.589 183.117,-139.014 179.889,-131.751"/>
<polygon fill="midnightblue" stroke="midnightblue" points="188.777,-160.366 196.037,-168.083 195.174,-157.523 188.777,-160.366"/>
</g>
<!-- Node2&#45;&gt;Node6 -->
<g id="edge9" class="edge"><title>Node2&#45;&gt;Node6</title>
<path fill="none" stroke="midnightblue" d="M206.071,-158.939C208.587,-150.794 211.307,-141.002 213,-132 220.838,-90.3328 223.149,-39.5032 223.78,-19.5856"/>
<polygon fill="midnightblue" stroke="midnightblue" points="202.729,-157.899 202.986,-168.491 209.39,-160.05 202.729,-157.899"/>
</g>
<!-- Node5 -->
<g id="node5" class="node"><title>Node5</title>
<g id="a_node5"><a xlink:href="loading_8cpp.html" target="_top" xlink:title="loading.cpp">
<polygon fill="none" stroke="black" points="0,-56.5 0,-75.5 66,-75.5 66,-56.5 0,-56.5"/>
<text text-anchor="middle" x="33" y="-63.5" font-family="Helvetica,sans-Serif" font-size="10.00">loading.cpp</text>
</a>
</g>
</g>
<!-- Node4&#45;&gt;Node5 -->
<g id="edge4" class="edge"><title>Node4&#45;&gt;Node5</title>
<path fill="none" stroke="midnightblue" d="M143.973,-108.906C117.088,-98.7536 79.3593,-84.5063 55.5528,-75.5164"/>
<polygon fill="midnightblue" stroke="midnightblue" points="142.75,-112.185 153.341,-112.444 145.222,-105.636 142.75,-112.185"/>
</g>
<!-- Node4&#45;&gt;Node6 -->
<g id="edge5" class="edge"><title>Node4&#45;&gt;Node6</title>
<path fill="none" stroke="midnightblue" d="M183.855,-102.998C194.329,-78.9968 212.45,-37.4683 220.251,-19.5914"/>
<polygon fill="midnightblue" stroke="midnightblue" points="180.558,-101.803 179.766,-112.368 186.974,-104.603 180.558,-101.803"/>
</g>
<!-- Node7 -->
<g id="node7" class="node"><title>Node7</title>
<g id="a_node7"><a xlink:href="_main_window_8h.html" target="_top" xlink:title="MainWindow.h">
<polygon fill="none" stroke="black" points="84.5,-56.5 84.5,-75.5 165.5,-75.5 165.5,-56.5 84.5,-56.5"/>
<text text-anchor="middle" x="125" y="-63.5" font-family="Helvetica,sans-Serif" font-size="10.00">MainWindow.h</text>
</a>
</g>
</g>
<!-- Node4&#45;&gt;Node7 -->
<g id="edge6" class="edge"><title>Node4&#45;&gt;Node7</title>
<path fill="none" stroke="midnightblue" d="M160.622,-104.718C151.633,-95.1997 140.641,-83.5608 133.265,-75.7511"/>
<polygon fill="midnightblue" stroke="midnightblue" points="158.168,-107.216 167.578,-112.083 163.257,-102.41 158.168,-107.216"/>
</g>
<!-- Node7&#45;&gt;Node6 -->
<g id="edge7" class="edge"><title>Node7&#45;&gt;Node6</title>
<path fill="none" stroke="midnightblue" d="M149.837,-51.4526C168.114,-41.4835 192.416,-28.2279 208.133,-19.6545"/>
<polygon fill="midnightblue" stroke="midnightblue" points="148.009,-48.4628 140.906,-56.324 151.361,-54.608 148.009,-48.4628"/>
</g>
<!-- Node8 -->
<g id="node8" class="node"><title>Node8</title>
<g id="a_node8"><a xlink:href="_main_window_8cpp.html" target="_top" xlink:title="MainWindow.cpp">
<polygon fill="none" stroke="black" points="79,-0.5 79,-19.5 171,-19.5 171,-0.5 79,-0.5"/>
<text text-anchor="middle" x="125" y="-7.5" font-family="Helvetica,sans-Serif" font-size="10.00">MainWindow.cpp</text>
</a>
</g>
</g>
<!-- Node7&#45;&gt;Node8 -->
<g id="edge8" class="edge"><title>Node7&#45;&gt;Node8</title>
<path fill="none" stroke="midnightblue" d="M125,-45.8045C125,-36.9102 125,-26.7798 125,-19.7511"/>
<polygon fill="midnightblue" stroke="midnightblue" points="121.5,-46.083 125,-56.083 128.5,-46.083 121.5,-46.083"/>
</g>
<!-- Node10 -->
<g id="node10" class="node"><title>Node10</title>
<g id="a_node10"><a xlink:href="sauvegarde_8cpp.html" target="_top" xlink:title="sauvegarde.cpp">
<polygon fill="none" stroke="black" points="298,-112.5 298,-131.5 384,-131.5 384,-112.5 298,-112.5"/>
<text text-anchor="middle" x="341" y="-119.5" font-family="Helvetica,sans-Serif" font-size="10.00">sauvegarde.cpp</text>
</a>
</g>
</g>
<!-- Node9&#45;&gt;Node10 -->
<g id="edge12" class="edge"><title>Node9&#45;&gt;Node10</title>
<path fill="none" stroke="midnightblue" d="M339.066,-157.805C339.561,-148.91 340.123,-138.78 340.514,-131.751"/>
<polygon fill="midnightblue" stroke="midnightblue" points="335.556,-157.904 338.495,-168.083 342.545,-158.293 335.556,-157.904"/>
</g>
</g>
</svg>
