<?xml version="1.0" encoding="UTF-8" standalone="no"?>
<!DOCTYPE svg PUBLIC "-//W3C//DTD SVG 1.1//EN"
 "http://www.w3.org/Graphics/SVG/1.1/DTD/svg11.dtd">
<!-- Generated by graphviz version 2.38.0 (20140413.2041)
 -->
<!-- Title: myexception.h Pages: 1 -->
<svg width="364pt" height="252pt"
 viewBox="0.00 0.00 364.36 252.00" xmlns="http://www.w3.org/2000/svg" xmlns:xlink="http://www.w3.org/1999/xlink">
<g id="graph0" class="graph" transform="scale(1 1) rotate(0) translate(4 248)">
<title>myexception.h</title>
<!-- Node1 -->
<g id="node1" class="node"><title>Node1</title>
<polygon fill="#bfbfbf" stroke="black" points="94.3618,-224.5 94.3618,-243.5 174.362,-243.5 174.362,-224.5 94.3618,-224.5"/>
<text text-anchor="middle" x="134.362" y="-231.5" font-family="Helvetica,sans-Serif" font-size="10.00">myexception.h</text>
</g>
<!-- Node2 -->
<g id="node2" class="node"><title>Node2</title>
<g id="a_node2"><a xlink:href="file_8h.html" target="_top" xlink:title="file.h">
<polygon fill="none" stroke="black" points="115.362,-168.5 115.362,-187.5 153.362,-187.5 153.362,-168.5 115.362,-168.5"/>
<text text-anchor="middle" x="134.362" y="-175.5" font-family="Helvetica,sans-Serif" font-size="10.00">file.h</text>
</a>
</g>
</g>
<!-- Node1&#45;&gt;Node2 -->
<g id="edge1" class="edge"><title>Node1&#45;&gt;Node2</title>
<path fill="none" stroke="midnightblue" d="M134.362,-213.805C134.362,-204.91 134.362,-194.78 134.362,-187.751"/>
<polygon fill="midnightblue" stroke="midnightblue" points="130.862,-214.083 134.362,-224.083 137.862,-214.083 130.862,-214.083"/>
</g>
<!-- Node7 -->
<g id="node7" class="node"><title>Node7</title>
<g id="a_node7"><a xlink:href="main_8cpp.html" target="_top" xlink:title="main.cpp">
<polygon fill="none" stroke="black" points="99.3618,-0.5 99.3618,-19.5 155.362,-19.5 155.362,-0.5 99.3618,-0.5"/>
<text text-anchor="middle" x="127.362" y="-7.5" font-family="Helvetica,sans-Serif" font-size="10.00">main.cpp</text>
</a>
</g>
</g>
<!-- Node1&#45;&gt;Node7 -->
<g id="edge13" class="edge"><title>Node1&#45;&gt;Node7</title>
<path fill="none" stroke="midnightblue" d="M104.622,-220.017C72.8758,-204.328 24.3199,-174.623 3.36176,-132 -6.60999,-111.72 9.4041,-65.1886 17.3618,-56 38.2989,-31.8241 74.2076,-20.427 99.2829,-15.1971"/>
<polygon fill="midnightblue" stroke="midnightblue" points="103.353,-223.289 113.886,-224.435 106.366,-216.971 103.353,-223.289"/>
</g>
<!-- Node11 -->
<g id="node11" class="node"><title>Node11</title>
<g id="a_node11"><a xlink:href="sauvegarde_8h.html" target="_top" xlink:title="sauvegarde.h">
<polygon fill="none" stroke="black" points="234.862,-168.5 234.862,-187.5 309.862,-187.5 309.862,-168.5 234.862,-168.5"/>
<text text-anchor="middle" x="272.362" y="-175.5" font-family="Helvetica,sans-Serif" font-size="10.00">sauvegarde.h</text>
</a>
</g>
</g>
<!-- Node1&#45;&gt;Node11 -->
<g id="edge14" class="edge"><title>Node1&#45;&gt;Node11</title>
<path fill="none" stroke="midnightblue" d="M165.611,-220.772C191.533,-210.629 227.724,-196.467 250.598,-187.516"/>
<polygon fill="midnightblue" stroke="midnightblue" points="164.265,-217.54 156.228,-224.444 166.816,-224.059 164.265,-217.54"/>
</g>
<!-- Node3 -->
<g id="node3" class="node"><title>Node3</title>
<g id="a_node3"><a xlink:href="file_8cpp.html" target="_top" xlink:title="file.cpp">
<polygon fill="none" stroke="black" points="12.3618,-112.5 12.3618,-131.5 60.3618,-131.5 60.3618,-112.5 12.3618,-112.5"/>
<text text-anchor="middle" x="36.3618" y="-119.5" font-family="Helvetica,sans-Serif" font-size="10.00">file.cpp</text>
</a>
</g>
</g>
<!-- Node2&#45;&gt;Node3 -->
<g id="edge2" class="edge"><title>Node2&#45;&gt;Node3</title>
<path fill="none" stroke="midnightblue" d="M109.776,-163.453C91.6836,-153.483 67.6271,-140.228 52.0681,-131.655"/>
<polygon fill="midnightblue" stroke="midnightblue" points="108.169,-166.563 118.616,-168.324 111.547,-160.432 108.169,-166.563"/>
</g>
<!-- Node4 -->
<g id="node4" class="node"><title>Node4</title>
<g id="a_node4"><a xlink:href="filtering_8h.html" target="_top" xlink:title="filtering.h">
<polygon fill="none" stroke="black" points="196.362,-112.5 196.362,-131.5 252.362,-131.5 252.362,-112.5 196.362,-112.5"/>
<text text-anchor="middle" x="224.362" y="-119.5" font-family="Helvetica,sans-Serif" font-size="10.00">filtering.h</text>
</a>
</g>
</g>
<!-- Node2&#45;&gt;Node4 -->
<g id="edge3" class="edge"><title>Node2&#45;&gt;Node4</title>
<path fill="none" stroke="midnightblue" d="M157.399,-163.177C173.961,-153.241 195.78,-140.149 209.938,-131.655"/>
<polygon fill="midnightblue" stroke="midnightblue" points="155.596,-160.178 148.822,-168.324 159.198,-166.18 155.596,-160.178"/>
</g>
<!-- Node2&#45;&gt;Node7 -->
<g id="edge12" class="edge"><title>Node2&#45;&gt;Node7</title>
<path fill="none" stroke="midnightblue" d="M138.896,-158.596C140.67,-150.495 142.487,-140.83 143.362,-132 147.538,-89.8266 135.423,-39.6966 129.923,-19.7828"/>
<polygon fill="midnightblue" stroke="midnightblue" points="135.461,-157.915 136.597,-168.449 142.278,-159.506 135.461,-157.915"/>
</g>
<!-- Node9 -->
<g id="node9" class="node"><title>Node9</title>
<g id="a_node9"><a xlink:href="loading_8h.html" target="_top" xlink:title="loading.h">
<polygon fill="none" stroke="black" points="78.3618,-112.5 78.3618,-131.5 134.362,-131.5 134.362,-112.5 78.3618,-112.5"/>
<text text-anchor="middle" x="106.362" y="-119.5" font-family="Helvetica,sans-Serif" font-size="10.00">loading.h</text>
</a>
</g>
</g>
<!-- Node2&#45;&gt;Node9 -->
<g id="edge8" class="edge"><title>Node2&#45;&gt;Node9</title>
<path fill="none" stroke="midnightblue" d="M125.019,-158.983C120.267,-149.817 114.706,-139.092 110.899,-131.751"/>
<polygon fill="midnightblue" stroke="midnightblue" points="122.028,-160.817 129.738,-168.083 128.242,-157.594 122.028,-160.817"/>
</g>
<!-- Node5 -->
<g id="node5" class="node"><title>Node5</title>
<g id="a_node5"><a xlink:href="filtering_8cpp.html" target="_top" xlink:title="filtering.cpp">
<polygon fill="none" stroke="black" points="285.862,-56.5 285.862,-75.5 352.862,-75.5 352.862,-56.5 285.862,-56.5"/>
<text text-anchor="middle" x="319.362" y="-63.5" font-family="Helvetica,sans-Serif" font-size="10.00">filtering.cpp</text>
</a>
</g>
</g>
<!-- Node4&#45;&gt;Node5 -->
<g id="edge4" class="edge"><title>Node4&#45;&gt;Node5</title>
<path fill="none" stroke="midnightblue" d="M248.679,-107.177C266.161,-97.2407 289.192,-84.1492 304.136,-75.6545"/>
<polygon fill="midnightblue" stroke="midnightblue" points="246.589,-104.339 239.625,-112.324 250.048,-110.425 246.589,-104.339"/>
</g>
<!-- Node6 -->
<g id="node6" class="node"><title>Node6</title>
<g id="a_node6"><a xlink:href="_main_window_8h.html" target="_top" xlink:title="MainWindow.h">
<polygon fill="none" stroke="black" points="186.862,-56.5 186.862,-75.5 267.862,-75.5 267.862,-56.5 186.862,-56.5"/>
<text text-anchor="middle" x="227.362" y="-63.5" font-family="Helvetica,sans-Serif" font-size="10.00">MainWindow.h</text>
</a>
</g>
</g>
<!-- Node4&#45;&gt;Node6 -->
<g id="edge5" class="edge"><title>Node4&#45;&gt;Node6</title>
<path fill="none" stroke="midnightblue" d="M225.428,-101.805C225.922,-92.9102 226.485,-82.7798 226.876,-75.7511"/>
<polygon fill="midnightblue" stroke="midnightblue" points="221.917,-101.904 224.857,-112.083 228.907,-102.293 221.917,-101.904"/>
</g>
<!-- Node6&#45;&gt;Node7 -->
<g id="edge6" class="edge"><title>Node6&#45;&gt;Node7</title>
<path fill="none" stroke="midnightblue" d="M202.274,-51.4526C183.813,-41.4835 159.265,-28.2279 143.389,-19.6545"/>
<polygon fill="midnightblue" stroke="midnightblue" points="200.833,-54.6521 211.295,-56.324 204.159,-48.4928 200.833,-54.6521"/>
</g>
<!-- Node8 -->
<g id="node8" class="node"><title>Node8</title>
<g id="a_node8"><a xlink:href="_main_window_8cpp.html" target="_top" xlink:title="MainWindow.cpp">
<polygon fill="none" stroke="black" points="181.362,-0.5 181.362,-19.5 273.362,-19.5 273.362,-0.5 181.362,-0.5"/>
<text text-anchor="middle" x="227.362" y="-7.5" font-family="Helvetica,sans-Serif" font-size="10.00">MainWindow.cpp</text>
</a>
</g>
</g>
<!-- Node6&#45;&gt;Node8 -->
<g id="edge7" class="edge"><title>Node6&#45;&gt;Node8</title>
<path fill="none" stroke="midnightblue" d="M227.362,-45.8045C227.362,-36.9102 227.362,-26.7798 227.362,-19.7511"/>
<polygon fill="midnightblue" stroke="midnightblue" points="223.862,-46.083 227.362,-56.083 230.862,-46.083 223.862,-46.083"/>
</g>
<!-- Node9&#45;&gt;Node6 -->
<g id="edge10" class="edge"><title>Node9&#45;&gt;Node6</title>
<path fill="none" stroke="midnightblue" d="M134.667,-108.368C157.327,-98.2553 188.488,-84.3486 208.279,-75.5164"/>
<polygon fill="midnightblue" stroke="midnightblue" points="133.24,-105.172 125.535,-112.444 136.093,-111.564 133.24,-105.172"/>
</g>
<!-- Node9&#45;&gt;Node7 -->
<g id="edge11" class="edge"><title>Node9&#45;&gt;Node7</title>
<path fill="none" stroke="midnightblue" d="M109.923,-102.348C114.522,-78.2538 122.339,-37.3079 125.722,-19.5914"/>
<polygon fill="midnightblue" stroke="midnightblue" points="106.447,-101.89 108.01,-112.368 113.323,-103.202 106.447,-101.89"/>
</g>
<!-- Node10 -->
<g id="node10" class="node"><title>Node10</title>
<g id="a_node10"><a xlink:href="loading_8cpp.html" target="_top" xlink:title="loading.cpp">
<polygon fill="none" stroke="black" points="26.3618,-56.5 26.3618,-75.5 92.3618,-75.5 92.3618,-56.5 26.3618,-56.5"/>
<text text-anchor="middle" x="59.3618" y="-63.5" font-family="Helvetica,sans-Serif" font-size="10.00">loading.cpp</text>
</a>
</g>
</g>
<!-- Node9&#45;&gt;Node10 -->
<g id="edge9" class="edge"><title>Node9&#45;&gt;Node10</title>
<path fill="none" stroke="midnightblue" d="M91.9409,-104.431C83.7037,-94.9673 73.7078,-83.4827 66.9784,-75.7511"/>
<polygon fill="midnightblue" stroke="midnightblue" points="89.3953,-106.838 98.6007,-112.083 94.6755,-102.242 89.3953,-106.838"/>
</g>
<!-- Node12 -->
<g id="node12" class="node"><title>Node12</title>
<g id="a_node12"><a xlink:href="sauvegarde_8cpp.html" target="_top" xlink:title="sauvegarde.cpp">
<polygon fill="none" stroke="black" points="270.362,-112.5 270.362,-131.5 356.362,-131.5 356.362,-112.5 270.362,-112.5"/>
<text text-anchor="middle" x="313.362" y="-119.5" font-family="Helvetica,sans-Serif" font-size="10.00">sauvegarde.cpp</text>
</a>
</g>
</g>
<!-- Node11&#45;&gt;Node12 -->
<g id="edge15" class="edge"><title>Node11&#45;&gt;Node12</title>
<path fill="none" stroke="midnightblue" d="M285.379,-159.855C292.478,-150.505 300.966,-139.327 306.717,-131.751"/>
<polygon fill="midnightblue" stroke="midnightblue" points="282.392,-158.002 279.132,-168.083 287.967,-162.235 282.392,-158.002"/>
</g>
</g>
</svg>
