<?xml version="1.0" encoding="UTF-8" standalone="no"?>
<!DOCTYPE svg PUBLIC "-//W3C//DTD SVG 1.1//EN"
 "http://www.w3.org/Graphics/SVG/1.1/DTD/svg11.dtd">
<!-- Generated by graphviz version 2.38.0 (20140413.2041)
 -->
<!-- Title: pointroad.h Pages: 1 -->
<svg width="351pt" height="252pt"
 viewBox="0.00 0.00 350.50 252.00" xmlns="http://www.w3.org/2000/svg" xmlns:xlink="http://www.w3.org/1999/xlink">
<g id="graph0" class="graph" transform="scale(1 1) rotate(0) translate(4 248)">
<title>pointroad.h</title>
<!-- Node1 -->
<g id="node1" class="node"><title>Node1</title>
<polygon fill="#bfbfbf" stroke="black" points="206.5,-224.5 206.5,-243.5 271.5,-243.5 271.5,-224.5 206.5,-224.5"/>
<text text-anchor="middle" x="239" y="-231.5" font-family="Helvetica,sans-Serif" font-size="10.00">pointroad.h</text>
</g>
<!-- Node2 -->
<g id="node2" class="node"><title>Node2</title>
<g id="a_node2"><a xlink:href="road_8h.html" target="_top" xlink:title="road.h">
<polygon fill="none" stroke="black" points="160,-168.5 160,-187.5 204,-187.5 204,-168.5 160,-168.5"/>
<text text-anchor="middle" x="182" y="-175.5" font-family="Helvetica,sans-Serif" font-size="10.00">road.h</text>
</a>
</g>
</g>
<!-- Node1&#45;&gt;Node2 -->
<g id="edge1" class="edge"><title>Node1&#45;&gt;Node2</title>
<path fill="none" stroke="midnightblue" d="M222.379,-217.253C212.266,-207.673 199.723,-195.791 191.325,-187.834"/>
<polygon fill="midnightblue" stroke="midnightblue" points="220.175,-219.987 229.842,-224.324 224.99,-214.906 220.175,-219.987"/>
</g>
<!-- Node8 -->
<g id="node8" class="node"><title>Node8</title>
<g id="a_node8"><a xlink:href="solver_8h.html" target="_top" xlink:title="solver.h">
<polygon fill="none" stroke="black" points="217.5,-112.5 217.5,-131.5 268.5,-131.5 268.5,-112.5 217.5,-112.5"/>
<text text-anchor="middle" x="243" y="-119.5" font-family="Helvetica,sans-Serif" font-size="10.00">solver.h</text>
</a>
</g>
</g>
<!-- Node1&#45;&gt;Node8 -->
<g id="edge12" class="edge"><title>Node1&#45;&gt;Node8</title>
<path fill="none" stroke="midnightblue" d="M239.678,-214.348C240.554,-190.254 242.043,-149.308 242.688,-131.591"/>
<polygon fill="midnightblue" stroke="midnightblue" points="236.18,-214.248 239.314,-224.368 243.175,-214.502 236.18,-214.248"/>
</g>
<!-- Node11 -->
<g id="node11" class="node"><title>Node11</title>
<g id="a_node11"><a xlink:href="pointroad_8cpp.html" target="_top" xlink:title="pointroad.cpp">
<polygon fill="none" stroke="black" points="267.5,-168.5 267.5,-187.5 342.5,-187.5 342.5,-168.5 267.5,-168.5"/>
<text text-anchor="middle" x="305" y="-175.5" font-family="Helvetica,sans-Serif" font-size="10.00">pointroad.cpp</text>
</a>
</g>
</g>
<!-- Node1&#45;&gt;Node11 -->
<g id="edge13" class="edge"><title>Node1&#45;&gt;Node11</title>
<path fill="none" stroke="midnightblue" d="M257.554,-217.82C269.378,-208.145 284.286,-195.948 294.203,-187.834"/>
<polygon fill="midnightblue" stroke="midnightblue" points="255.127,-215.283 249.604,-224.324 259.56,-220.7 255.127,-215.283"/>
</g>
<!-- Node3 -->
<g id="node3" class="node"><title>Node3</title>
<g id="a_node3"><a xlink:href="grid_8h.html" target="_top" xlink:title="grid.h">
<polygon fill="none" stroke="black" points="158.5,-112.5 158.5,-131.5 199.5,-131.5 199.5,-112.5 158.5,-112.5"/>
<text text-anchor="middle" x="179" y="-119.5" font-family="Helvetica,sans-Serif" font-size="10.00">grid.h</text>
</a>
</g>
</g>
<!-- Node2&#45;&gt;Node3 -->
<g id="edge2" class="edge"><title>Node2&#45;&gt;Node3</title>
<path fill="none" stroke="midnightblue" d="M180.934,-157.805C180.439,-148.91 179.877,-138.78 179.486,-131.751"/>
<polygon fill="midnightblue" stroke="midnightblue" points="177.455,-158.293 181.505,-168.083 184.444,-157.904 177.455,-158.293"/>
</g>
<!-- Node2&#45;&gt;Node8 -->
<g id="edge8" class="edge"><title>Node2&#45;&gt;Node8</title>
<path fill="none" stroke="midnightblue" d="M199.467,-161.537C210.344,-151.909 223.944,-139.869 233.021,-131.834"/>
<polygon fill="midnightblue" stroke="midnightblue" points="196.968,-159.075 191.801,-168.324 201.608,-164.316 196.968,-159.075"/>
</g>
<!-- Node10 -->
<g id="node10" class="node"><title>Node10</title>
<g id="a_node10"><a xlink:href="road_8cpp.html" target="_top" xlink:title="road.cpp">
<polygon fill="none" stroke="black" points="86,-112.5 86,-131.5 140,-131.5 140,-112.5 86,-112.5"/>
<text text-anchor="middle" x="113" y="-119.5" font-family="Helvetica,sans-Serif" font-size="10.00">road.cpp</text>
</a>
</g>
</g>
<!-- Node2&#45;&gt;Node10 -->
<g id="edge11" class="edge"><title>Node2&#45;&gt;Node10</title>
<path fill="none" stroke="midnightblue" d="M162.962,-162.101C150.544,-152.382 134.757,-140.027 124.288,-131.834"/>
<polygon fill="midnightblue" stroke="midnightblue" points="160.882,-164.917 170.914,-168.324 165.196,-159.405 160.882,-164.917"/>
</g>
<!-- Node4 -->
<g id="node4" class="node"><title>Node4</title>
<g id="a_node4"><a xlink:href="grid_8cpp.html" target="_top" xlink:title="grid.cpp">
<polygon fill="none" stroke="black" points="104.5,-56.5 104.5,-75.5 155.5,-75.5 155.5,-56.5 104.5,-56.5"/>
<text text-anchor="middle" x="130" y="-63.5" font-family="Helvetica,sans-Serif" font-size="10.00">grid.cpp</text>
</a>
</g>
</g>
<!-- Node3&#45;&gt;Node4 -->
<g id="edge3" class="edge"><title>Node3&#45;&gt;Node4</title>
<path fill="none" stroke="midnightblue" d="M163.966,-104.431C155.378,-94.9673 144.957,-83.4827 137.941,-75.7511"/>
<polygon fill="midnightblue" stroke="midnightblue" points="161.597,-107.029 170.909,-112.083 166.781,-102.325 161.597,-107.029"/>
</g>
<!-- Node5 -->
<g id="node5" class="node"><title>Node5</title>
<g id="a_node5"><a xlink:href="main_8cpp.html" target="_top" xlink:title="main.cpp">
<polygon fill="none" stroke="black" points="156,-0.5 156,-19.5 212,-19.5 212,-0.5 156,-0.5"/>
<text text-anchor="middle" x="184" y="-7.5" font-family="Helvetica,sans-Serif" font-size="10.00">main.cpp</text>
</a>
</g>
</g>
<!-- Node3&#45;&gt;Node5 -->
<g id="edge4" class="edge"><title>Node3&#45;&gt;Node5</title>
<path fill="none" stroke="midnightblue" d="M179.848,-102.348C180.943,-78.2538 182.804,-37.3079 183.609,-19.5914"/>
<polygon fill="midnightblue" stroke="midnightblue" points="176.35,-102.22 179.392,-112.368 183.343,-102.538 176.35,-102.22"/>
</g>
<!-- Node6 -->
<g id="node6" class="node"><title>Node6</title>
<g id="a_node6"><a xlink:href="_main_window_8h.html" target="_top" xlink:title="MainWindow.h">
<polygon fill="none" stroke="black" points="5.5,-56.5 5.5,-75.5 86.5,-75.5 86.5,-56.5 5.5,-56.5"/>
<text text-anchor="middle" x="46" y="-63.5" font-family="Helvetica,sans-Serif" font-size="10.00">MainWindow.h</text>
</a>
</g>
</g>
<!-- Node3&#45;&gt;Node6 -->
<g id="edge5" class="edge"><title>Node3&#45;&gt;Node6</title>
<path fill="none" stroke="midnightblue" d="M148.859,-108.762C123.915,-98.6348 89.1172,-84.5062 67.0742,-75.5565"/>
<polygon fill="midnightblue" stroke="midnightblue" points="147.637,-112.043 158.219,-112.562 150.27,-105.558 147.637,-112.043"/>
</g>
<!-- Node6&#45;&gt;Node5 -->
<g id="edge6" class="edge"><title>Node6&#45;&gt;Node5</title>
<path fill="none" stroke="midnightblue" d="M77.2493,-52.772C103.171,-42.6287 139.362,-28.4669 162.236,-19.5164"/>
<polygon fill="midnightblue" stroke="midnightblue" points="75.9035,-49.5401 67.8665,-56.4435 78.4544,-56.0588 75.9035,-49.5401"/>
</g>
<!-- Node7 -->
<g id="node7" class="node"><title>Node7</title>
<g id="a_node7"><a xlink:href="_main_window_8cpp.html" target="_top" xlink:title="MainWindow.cpp">
<polygon fill="none" stroke="black" points="0,-0.5 0,-19.5 92,-19.5 92,-0.5 0,-0.5"/>
<text text-anchor="middle" x="46" y="-7.5" font-family="Helvetica,sans-Serif" font-size="10.00">MainWindow.cpp</text>
</a>
</g>
</g>
<!-- Node6&#45;&gt;Node7 -->
<g id="edge7" class="edge"><title>Node6&#45;&gt;Node7</title>
<path fill="none" stroke="midnightblue" d="M46,-45.8045C46,-36.9102 46,-26.7798 46,-19.7511"/>
<polygon fill="midnightblue" stroke="midnightblue" points="42.5001,-46.083 46,-56.083 49.5001,-46.083 42.5001,-46.083"/>
</g>
<!-- Node8&#45;&gt;Node5 -->
<g id="edge9" class="edge"><title>Node8&#45;&gt;Node5</title>
<path fill="none" stroke="midnightblue" d="M263.125,-105.664C277.962,-92.4221 293.834,-72.8256 283,-56 267.464,-31.8721 235.475,-20.5318 212.049,-15.2999"/>
<polygon fill="midnightblue" stroke="midnightblue" points="260.599,-103.213 255.164,-112.308 265.084,-108.587 260.599,-103.213"/>
</g>
<!-- Node9 -->
<g id="node9" class="node"><title>Node9</title>
<g id="a_node9"><a xlink:href="solver_8cpp.html" target="_top" xlink:title="solver.cpp">
<polygon fill="none" stroke="black" points="212,-56.5 212,-75.5 274,-75.5 274,-56.5 212,-56.5"/>
<text text-anchor="middle" x="243" y="-63.5" font-family="Helvetica,sans-Serif" font-size="10.00">solver.cpp</text>
</a>
</g>
</g>
<!-- Node8&#45;&gt;Node9 -->
<g id="edge10" class="edge"><title>Node8&#45;&gt;Node9</title>
<path fill="none" stroke="midnightblue" d="M243,-101.805C243,-92.9102 243,-82.7798 243,-75.7511"/>
<polygon fill="midnightblue" stroke="midnightblue" points="239.5,-102.083 243,-112.083 246.5,-102.083 239.5,-102.083"/>
</g>
</g>
</svg>
