<?xml version="1.0" encoding="UTF-8" standalone="no"?>
<!DOCTYPE svg PUBLIC "-//W3C//DTD SVG 1.1//EN"
 "http://www.w3.org/Graphics/SVG/1.1/DTD/svg11.dtd">
<!-- Generated by graphviz version 2.38.0 (20140413.2041)
 -->
<!-- Title: point.h Pages: 1 -->
<svg width="1043pt" height="476pt"
 viewBox="0.00 0.00 1043.00 476.00" xmlns="http://www.w3.org/2000/svg" xmlns:xlink="http://www.w3.org/1999/xlink">
<g id="graph0" class="graph" transform="scale(1 1) rotate(0) translate(4 472)">
<title>point.h</title>
<!-- Node1 -->
<g id="node1" class="node"><title>Node1</title>
<polygon fill="#bfbfbf" stroke="black" points="831,-448.5 831,-467.5 877,-467.5 877,-448.5 831,-448.5"/>
<text text-anchor="middle" x="854" y="-455.5" font-family="Helvetica,sans-Serif" font-size="10.00">point.h</text>
</g>
<!-- Node2 -->
<g id="node2" class="node"><title>Node2</title>
<g id="a_node2"><a xlink:href="point_g_p_s_8h.html" target="_top" xlink:title="pointGPS.h">
<polygon fill="none" stroke="black" points="295.5,-392.5 295.5,-411.5 362.5,-411.5 362.5,-392.5 295.5,-392.5"/>
<text text-anchor="middle" x="329" y="-399.5" font-family="Helvetica,sans-Serif" font-size="10.00">pointGPS.h</text>
</a>
</g>
</g>
<!-- Node1&#45;&gt;Node2 -->
<g id="edge1" class="edge"><title>Node1&#45;&gt;Node2</title>
<path fill="none" stroke="midnightblue" d="M820.636,-453.568C726.153,-443.85 457.48,-416.215 362.648,-406.461"/>
<polygon fill="midnightblue" stroke="midnightblue" points="820.458,-457.068 830.764,-454.61 821.175,-450.105 820.458,-457.068"/>
</g>
<!-- Node27 -->
<g id="node27" class="node"><title>Node27</title>
<g id="a_node27"><a xlink:href="pointroad_8h.html" target="_top" xlink:title="pointroad.h">
<polygon fill="none" stroke="black" points="54.5,-336.5 54.5,-355.5 119.5,-355.5 119.5,-336.5 54.5,-336.5"/>
<text text-anchor="middle" x="87" y="-343.5" font-family="Helvetica,sans-Serif" font-size="10.00">pointroad.h</text>
</a>
</g>
</g>
<!-- Node1&#45;&gt;Node27 -->
<g id="edge43" class="edge"><title>Node1&#45;&gt;Node27</title>
<path fill="none" stroke="midnightblue" d="M820.524,-457.095C732.209,-456.755 485.966,-451.991 286,-412 219.177,-398.636 143.487,-369.98 107.766,-355.601"/>
<polygon fill="midnightblue" stroke="midnightblue" points="820.728,-460.595 830.736,-457.116 820.743,-453.595 820.728,-460.595"/>
</g>
<!-- Node29 -->
<g id="node29" class="node"><title>Node29</title>
<g id="a_node29"><a xlink:href="box_8h.html" target="_top" xlink:title="box.h">
<polygon fill="none" stroke="black" points="833.5,-392.5 833.5,-411.5 874.5,-411.5 874.5,-392.5 833.5,-392.5"/>
<text text-anchor="middle" x="854" y="-399.5" font-family="Helvetica,sans-Serif" font-size="10.00">box.h</text>
</a>
</g>
</g>
<!-- Node1&#45;&gt;Node29 -->
<g id="edge48" class="edge"><title>Node1&#45;&gt;Node29</title>
<path fill="none" stroke="midnightblue" d="M854,-437.805C854,-428.91 854,-418.78 854,-411.751"/>
<polygon fill="midnightblue" stroke="midnightblue" points="850.5,-438.083 854,-448.083 857.5,-438.083 850.5,-438.083"/>
</g>
<!-- Node33 -->
<g id="node33" class="node"><title>Node33</title>
<g id="a_node33"><a xlink:href="kdtree_8h.html" target="_top" xlink:title="kdtree.h">
<polygon fill="none" stroke="black" points="946,-280.5 946,-299.5 998,-299.5 998,-280.5 946,-280.5"/>
<text text-anchor="middle" x="972" y="-287.5" font-family="Helvetica,sans-Serif" font-size="10.00">kdtree.h</text>
</a>
</g>
</g>
<!-- Node1&#45;&gt;Node33 -->
<g id="edge54" class="edge"><title>Node1&#45;&gt;Node33</title>
<path fill="none" stroke="midnightblue" d="M867.746,-440.339C883.787,-420.644 910.812,-386.664 932,-356 945.558,-336.378 959.825,-312.214 967.102,-299.597"/>
<polygon fill="midnightblue" stroke="midnightblue" points="864.839,-438.365 861.21,-448.319 870.254,-442.801 864.839,-438.365"/>
</g>
<!-- Node35 -->
<g id="node35" class="node"><title>Node35</title>
<g id="a_node35"><a xlink:href="point_8cpp.html" target="_top" xlink:title="point.cpp">
<polygon fill="none" stroke="black" points="979,-392.5 979,-411.5 1035,-411.5 1035,-392.5 979,-392.5"/>
<text text-anchor="middle" x="1007" y="-399.5" font-family="Helvetica,sans-Serif" font-size="10.00">point.cpp</text>
</a>
</g>
</g>
<!-- Node1&#45;&gt;Node35 -->
<g id="edge55" class="edge"><title>Node1&#45;&gt;Node35</title>
<path fill="none" stroke="midnightblue" d="M886.865,-445.401C915.676,-435.232 956.891,-420.685 982.784,-411.547"/>
<polygon fill="midnightblue" stroke="midnightblue" points="885.502,-442.17 877.237,-448.799 887.832,-448.771 885.502,-442.17"/>
</g>
<!-- Node3 -->
<g id="node3" class="node"><title>Node3</title>
<g id="a_node3"><a xlink:href="track_8h.html" target="_top" xlink:title="The class Track. ">
<polygon fill="none" stroke="black" points="524.5,-336.5 524.5,-355.5 571.5,-355.5 571.5,-336.5 524.5,-336.5"/>
<text text-anchor="middle" x="548" y="-343.5" font-family="Helvetica,sans-Serif" font-size="10.00">track.h</text>
</a>
</g>
</g>
<!-- Node2&#45;&gt;Node3 -->
<g id="edge2" class="edge"><title>Node2&#45;&gt;Node3</title>
<path fill="none" stroke="midnightblue" d="M372.645,-390.238C418.251,-378.993 488.104,-361.769 524.346,-352.832"/>
<polygon fill="midnightblue" stroke="midnightblue" points="371.61,-386.888 362.739,-392.681 373.286,-393.685 371.61,-386.888"/>
</g>
<!-- Node7 -->
<g id="node7" class="node"><title>Node7</title>
<g id="a_node7"><a xlink:href="main_8cpp.html" target="_top" xlink:title="main.cpp">
<polygon fill="none" stroke="black" points="405,-0.5 405,-19.5 461,-19.5 461,-0.5 405,-0.5"/>
<text text-anchor="middle" x="433" y="-7.5" font-family="Helvetica,sans-Serif" font-size="10.00">main.cpp</text>
</a>
</g>
</g>
<!-- Node2&#45;&gt;Node7 -->
<g id="edge41" class="edge"><title>Node2&#45;&gt;Node7</title>
<path fill="none" stroke="midnightblue" d="M300.454,-388.123C241.972,-359.565 114,-284.969 114,-179 114,-179 114,-179 114,-121 114,-70.9354 159.993,-75.7446 206,-56 273.749,-26.9245 361.005,-16.4106 404.994,-12.7874"/>
<polygon fill="midnightblue" stroke="midnightblue" points="299.009,-391.311 309.541,-392.461 302.025,-384.994 299.009,-391.311"/>
</g>
<!-- Node12 -->
<g id="node12" class="node"><title>Node12</title>
<g id="a_node12"><a xlink:href="solver_8h.html" target="_top" xlink:title="solver.h">
<polygon fill="none" stroke="black" points="382.5,-168.5 382.5,-187.5 433.5,-187.5 433.5,-168.5 382.5,-168.5"/>
<text text-anchor="middle" x="408" y="-175.5" font-family="Helvetica,sans-Serif" font-size="10.00">solver.h</text>
</a>
</g>
</g>
<!-- Node2&#45;&gt;Node12 -->
<g id="edge40" class="edge"><title>Node2&#45;&gt;Node12</title>
<path fill="none" stroke="midnightblue" d="M349.854,-386.018C359.29,-378.143 369.715,-367.699 376,-356 407.331,-297.681 408.715,-214.568 408.266,-187.721"/>
<polygon fill="midnightblue" stroke="midnightblue" points="347.638,-383.308 341.945,-392.243 351.967,-388.809 347.638,-383.308"/>
</g>
<!-- Node16 -->
<g id="node16" class="node"><title>Node16</title>
<g id="a_node16"><a xlink:href="qmapscene_8h.html" target="_top" xlink:title="qmapscene.h">
<polygon fill="none" stroke="black" points="10.5,-224.5 10.5,-243.5 85.5,-243.5 85.5,-224.5 10.5,-224.5"/>
<text text-anchor="middle" x="48" y="-231.5" font-family="Helvetica,sans-Serif" font-size="10.00">qmapscene.h</text>
</a>
</g>
</g>
<!-- Node2&#45;&gt;Node16 -->
<g id="edge39" class="edge"><title>Node2&#45;&gt;Node16</title>
<path fill="none" stroke="midnightblue" d="M286.9,-389.465C263.264,-381.937 233.825,-370.755 210,-356 167.755,-329.838 168.154,-309.271 128,-280 107.912,-265.356 82.5991,-251.849 65.8887,-243.531"/>
<polygon fill="midnightblue" stroke="midnightblue" points="286.054,-392.866 296.641,-392.467 288.115,-386.177 286.054,-392.866"/>
</g>
<!-- Node24 -->
<g id="node24" class="node"><title>Node24</title>
<g id="a_node24"><a xlink:href="qmapviewer_8h.html" target="_top" xlink:title="qmapviewer.h">
<polygon fill="none" stroke="black" points="142.5,-224.5 142.5,-243.5 219.5,-243.5 219.5,-224.5 142.5,-224.5"/>
<text text-anchor="middle" x="181" y="-231.5" font-family="Helvetica,sans-Serif" font-size="10.00">qmapviewer.h</text>
</a>
</g>
</g>
<!-- Node2&#45;&gt;Node24 -->
<g id="edge35" class="edge"><title>Node2&#45;&gt;Node24</title>
<path fill="none" stroke="midnightblue" d="M310.08,-385.651C300.669,-377.453 289.518,-366.835 281,-356 257.014,-325.491 263.259,-309.465 238,-280 225.363,-265.259 207.303,-251.969 194.917,-243.718"/>
<polygon fill="midnightblue" stroke="midnightblue" points="307.897,-388.389 317.791,-392.178 312.419,-383.046 307.897,-388.389"/>
</g>
<!-- Node26 -->
<g id="node26" class="node"><title>Node26</title>
<g id="a_node26"><a xlink:href="point_g_p_s_8cpp.html" target="_top" xlink:title="pointGPS.cpp">
<polygon fill="none" stroke="black" points="290.5,-336.5 290.5,-355.5 367.5,-355.5 367.5,-336.5 290.5,-336.5"/>
<text text-anchor="middle" x="329" y="-343.5" font-family="Helvetica,sans-Serif" font-size="10.00">pointGPS.cpp</text>
</a>
</g>
</g>
<!-- Node2&#45;&gt;Node26 -->
<g id="edge42" class="edge"><title>Node2&#45;&gt;Node26</title>
<path fill="none" stroke="midnightblue" d="M329,-381.805C329,-372.91 329,-362.78 329,-355.751"/>
<polygon fill="midnightblue" stroke="midnightblue" points="325.5,-382.083 329,-392.083 332.5,-382.083 325.5,-382.083"/>
</g>
<!-- Node4 -->
<g id="node4" class="node"><title>Node4</title>
<g id="a_node4"><a xlink:href="filtering_8h.html" target="_top" xlink:title="filtering.h">
<polygon fill="none" stroke="black" points="708,-280.5 708,-299.5 764,-299.5 764,-280.5 708,-280.5"/>
<text text-anchor="middle" x="736" y="-287.5" font-family="Helvetica,sans-Serif" font-size="10.00">filtering.h</text>
</a>
</g>
</g>
<!-- Node3&#45;&gt;Node4 -->
<g id="edge3" class="edge"><title>Node3&#45;&gt;Node4</title>
<path fill="none" stroke="midnightblue" d="M581.834,-335.282C617.824,-324.944 674.111,-308.777 707.793,-299.102"/>
<polygon fill="midnightblue" stroke="midnightblue" points="580.455,-332.036 571.81,-338.161 582.388,-338.764 580.455,-332.036"/>
</g>
<!-- Node6 -->
<g id="node6" class="node"><title>Node6</title>
<g id="a_node6"><a xlink:href="_main_window_8h.html" target="_top" xlink:title="MainWindow.h">
<polygon fill="none" stroke="black" points="560.5,-56.5 560.5,-75.5 641.5,-75.5 641.5,-56.5 560.5,-56.5"/>
<text text-anchor="middle" x="601" y="-63.5" font-family="Helvetica,sans-Serif" font-size="10.00">MainWindow.h</text>
</a>
</g>
</g>
<!-- Node3&#45;&gt;Node6 -->
<g id="edge30" class="edge"><title>Node3&#45;&gt;Node6</title>
<path fill="none" stroke="midnightblue" d="M581.915,-345.017C628.212,-343.599 712.361,-335.772 773,-300 805.594,-280.772 828,-272.843 828,-235 828,-235 828,-235 828,-177 828,-95.107 706.876,-74.1603 641.583,-68.8179"/>
<polygon fill="midnightblue" stroke="midnightblue" points="581.734,-341.52 571.814,-345.242 581.89,-348.519 581.734,-341.52"/>
</g>
<!-- Node3&#45;&gt;Node7 -->
<g id="edge31" class="edge"><title>Node3&#45;&gt;Node7</title>
<path fill="none" stroke="midnightblue" d="M581.543,-341.48C607.766,-336.767 642.596,-325.749 660,-300 664.726,-293.008 701.267,-116.195 650,-56 625.864,-27.6605 514.238,-16.4528 461.171,-12.6695"/>
<polygon fill="midnightblue" stroke="midnightblue" points="580.95,-338.03 571.616,-343.043 582.039,-344.945 580.95,-338.03"/>
</g>
<!-- Node9 -->
<g id="node9" class="node"><title>Node9</title>
<g id="a_node9"><a xlink:href="road_8h.html" target="_top" xlink:title="road.h">
<polygon fill="none" stroke="black" points="307,-280.5 307,-299.5 351,-299.5 351,-280.5 307,-280.5"/>
<text text-anchor="middle" x="329" y="-287.5" font-family="Helvetica,sans-Serif" font-size="10.00">road.h</text>
</a>
</g>
</g>
<!-- Node3&#45;&gt;Node9 -->
<g id="edge8" class="edge"><title>Node3&#45;&gt;Node9</title>
<path fill="none" stroke="midnightblue" d="M514.205,-336.667C468.873,-325.489 389.635,-305.951 351.186,-296.47"/>
<polygon fill="midnightblue" stroke="midnightblue" points="513.599,-340.122 524.146,-339.118 515.275,-333.326 513.599,-340.122"/>
</g>
<!-- Node10 -->
<g id="node10" class="node"><title>Node10</title>
<g id="a_node10"><a xlink:href="grid_8h.html" target="_top" xlink:title="grid.h">
<polygon fill="none" stroke="black" points="492.5,-224.5 492.5,-243.5 533.5,-243.5 533.5,-224.5 492.5,-224.5"/>
<text text-anchor="middle" x="513" y="-231.5" font-family="Helvetica,sans-Serif" font-size="10.00">grid.h</text>
</a>
</g>
</g>
<!-- Node3&#45;&gt;Node10 -->
<g id="edge28" class="edge"><title>Node3&#45;&gt;Node10</title>
<path fill="none" stroke="midnightblue" d="M542.43,-326.49C538.479,-313.465 533.011,-295.636 528,-280 523.929,-267.296 519.003,-252.65 515.935,-243.607"/>
<polygon fill="midnightblue" stroke="midnightblue" points="539.105,-327.588 545.348,-336.148 545.806,-325.563 539.105,-327.588"/>
</g>
<!-- Node3&#45;&gt;Node12 -->
<g id="edge29" class="edge"><title>Node3&#45;&gt;Node12</title>
<path fill="none" stroke="midnightblue" d="M514.46,-336.143C494.256,-329.266 469.357,-317.834 453,-300 422.095,-266.305 411.869,-209.475 408.99,-187.778"/>
<polygon fill="midnightblue" stroke="midnightblue" points="513.645,-339.556 524.235,-339.248 515.764,-332.885 513.645,-339.556"/>
</g>
<!-- Node21 -->
<g id="node21" class="node"><title>Node21</title>
<g id="a_node21"><a xlink:href="sauvegarde_8h.html" target="_top" xlink:title="sauvegarde.h">
<polygon fill="none" stroke="black" points="576.5,-280.5 576.5,-299.5 651.5,-299.5 651.5,-280.5 576.5,-280.5"/>
<text text-anchor="middle" x="614" y="-287.5" font-family="Helvetica,sans-Serif" font-size="10.00">sauvegarde.h</text>
</a>
</g>
</g>
<!-- Node3&#45;&gt;Node21 -->
<g id="edge32" class="edge"><title>Node3&#45;&gt;Node21</title>
<path fill="none" stroke="midnightblue" d="M566.554,-329.82C578.378,-320.145 593.286,-307.948 603.203,-299.834"/>
<polygon fill="midnightblue" stroke="midnightblue" points="564.127,-327.283 558.604,-336.324 568.56,-332.7 564.127,-327.283"/>
</g>
<!-- Node23 -->
<g id="node23" class="node"><title>Node23</title>
<g id="a_node23"><a xlink:href="track_8cpp.html" target="_top" xlink:title="track.cpp">
<polygon fill="none" stroke="black" points="462.5,-280.5 462.5,-299.5 519.5,-299.5 519.5,-280.5 462.5,-280.5"/>
<text text-anchor="middle" x="491" y="-287.5" font-family="Helvetica,sans-Serif" font-size="10.00">track.cpp</text>
</a>
</g>
</g>
<!-- Node3&#45;&gt;Node23 -->
<g id="edge34" class="edge"><title>Node3&#45;&gt;Node23</title>
<path fill="none" stroke="midnightblue" d="M531.379,-329.253C521.266,-319.673 508.723,-307.791 500.325,-299.834"/>
<polygon fill="midnightblue" stroke="midnightblue" points="529.175,-331.987 538.842,-336.324 533.99,-326.906 529.175,-331.987"/>
</g>
<!-- Node5 -->
<g id="node5" class="node"><title>Node5</title>
<g id="a_node5"><a xlink:href="filtering_8cpp.html" target="_top" xlink:title="filtering.cpp">
<polygon fill="none" stroke="black" points="694.5,-224.5 694.5,-243.5 761.5,-243.5 761.5,-224.5 694.5,-224.5"/>
<text text-anchor="middle" x="728" y="-231.5" font-family="Helvetica,sans-Serif" font-size="10.00">filtering.cpp</text>
</a>
</g>
</g>
<!-- Node4&#45;&gt;Node5 -->
<g id="edge4" class="edge"><title>Node4&#45;&gt;Node5</title>
<path fill="none" stroke="midnightblue" d="M733.2,-270.101C731.872,-261.136 730.349,-250.858 729.296,-243.751"/>
<polygon fill="midnightblue" stroke="midnightblue" points="729.751,-270.704 734.679,-280.083 736.676,-269.678 729.751,-270.704"/>
</g>
<!-- Node4&#45;&gt;Node6 -->
<g id="edge5" class="edge"><title>Node4&#45;&gt;Node6</title>
<path fill="none" stroke="midnightblue" d="M753.213,-273.124C765.092,-260.15 777.502,-241.209 770,-224 737.913,-150.395 652.421,-95.7804 616.861,-75.5594"/>
<polygon fill="midnightblue" stroke="midnightblue" points="750.603,-270.786 746.069,-280.362 755.585,-275.704 750.603,-270.786"/>
</g>
<!-- Node6&#45;&gt;Node7 -->
<g id="edge6" class="edge"><title>Node6&#45;&gt;Node7</title>
<path fill="none" stroke="midnightblue" d="M564.614,-53.3044C532.958,-43.1294 487.832,-28.6246 459.496,-19.5164"/>
<polygon fill="midnightblue" stroke="midnightblue" points="563.789,-56.7155 574.38,-56.4435 565.931,-50.0513 563.789,-56.7155"/>
</g>
<!-- Node8 -->
<g id="node8" class="node"><title>Node8</title>
<g id="a_node8"><a xlink:href="_main_window_8cpp.html" target="_top" xlink:title="MainWindow.cpp">
<polygon fill="none" stroke="black" points="555,-0.5 555,-19.5 647,-19.5 647,-0.5 555,-0.5"/>
<text text-anchor="middle" x="601" y="-7.5" font-family="Helvetica,sans-Serif" font-size="10.00">MainWindow.cpp</text>
</a>
</g>
</g>
<!-- Node6&#45;&gt;Node8 -->
<g id="edge7" class="edge"><title>Node6&#45;&gt;Node8</title>
<path fill="none" stroke="midnightblue" d="M601,-45.8045C601,-36.9102 601,-26.7798 601,-19.7511"/>
<polygon fill="midnightblue" stroke="midnightblue" points="597.5,-46.083 601,-56.083 604.5,-46.083 597.5,-46.083"/>
</g>
<!-- Node9&#45;&gt;Node10 -->
<g id="edge9" class="edge"><title>Node9&#45;&gt;Node10</title>
<path fill="none" stroke="midnightblue" d="M361.18,-279.556C398.974,-268.464 460.547,-250.394 492.423,-241.039"/>
<polygon fill="midnightblue" stroke="midnightblue" points="359.804,-276.312 351.195,-282.486 361.776,-283.029 359.804,-276.312"/>
</g>
<!-- Node9&#45;&gt;Node12 -->
<g id="edge26" class="edge"><title>Node9&#45;&gt;Node12</title>
<path fill="none" stroke="midnightblue" d="M341.24,-271.957C358.36,-248.118 388.818,-205.709 401.83,-187.591"/>
<polygon fill="midnightblue" stroke="midnightblue" points="338.19,-270.204 335.199,-280.368 343.875,-274.288 338.19,-270.204"/>
</g>
<!-- Node9&#45;&gt;Node16 -->
<g id="edge21" class="edge"><title>Node9&#45;&gt;Node16</title>
<path fill="none" stroke="midnightblue" d="M296.903,-282.832C244.621,-272.785 141.329,-252.935 85.6599,-242.237"/>
<polygon fill="midnightblue" stroke="midnightblue" points="296.47,-286.313 306.95,-284.763 297.791,-279.438 296.47,-286.313"/>
</g>
<!-- Node20 -->
<g id="node20" class="node"><title>Node20</title>
<g id="a_node20"><a xlink:href="road_8cpp.html" target="_top" xlink:title="road.cpp">
<polygon fill="none" stroke="black" points="276,-224.5 276,-243.5 330,-243.5 330,-224.5 276,-224.5"/>
<text text-anchor="middle" x="303" y="-231.5" font-family="Helvetica,sans-Serif" font-size="10.00">road.cpp</text>
</a>
</g>
</g>
<!-- Node9&#45;&gt;Node20 -->
<g id="edge27" class="edge"><title>Node9&#45;&gt;Node20</title>
<path fill="none" stroke="midnightblue" d="M320.325,-270.983C315.912,-261.817 310.748,-251.092 307.213,-243.751"/>
<polygon fill="midnightblue" stroke="midnightblue" points="317.215,-272.591 324.707,-280.083 323.522,-269.555 317.215,-272.591"/>
</g>
<!-- Node10&#45;&gt;Node6 -->
<g id="edge19" class="edge"><title>Node10&#45;&gt;Node6</title>
<path fill="none" stroke="midnightblue" d="M542.888,-221.656C565.708,-212.315 594.34,-198.887 601,-188 623.255,-151.624 610.215,-96.8532 603.862,-75.734"/>
<polygon fill="midnightblue" stroke="midnightblue" points="541.531,-218.428 533.544,-225.389 544.129,-224.929 541.531,-218.428"/>
</g>
<!-- Node10&#45;&gt;Node7 -->
<g id="edge20" class="edge"><title>Node10&#45;&gt;Node7</title>
<path fill="none" stroke="midnightblue" d="M506.467,-214.872C490.163,-169.627 448.133,-52.9934 436.201,-19.8837"/>
<polygon fill="midnightblue" stroke="midnightblue" points="503.181,-216.076 509.864,-224.297 509.766,-213.703 503.181,-216.076"/>
</g>
<!-- Node11 -->
<g id="node11" class="node"><title>Node11</title>
<g id="a_node11"><a xlink:href="grid_8cpp.html" target="_top" xlink:title="grid.cpp">
<polygon fill="none" stroke="black" points="541.5,-168.5 541.5,-187.5 592.5,-187.5 592.5,-168.5 541.5,-168.5"/>
<text text-anchor="middle" x="567" y="-175.5" font-family="Helvetica,sans-Serif" font-size="10.00">grid.cpp</text>
</a>
</g>
</g>
<!-- Node10&#45;&gt;Node11 -->
<g id="edge10" class="edge"><title>Node10&#45;&gt;Node11</title>
<path fill="none" stroke="midnightblue" d="M528.998,-217.002C538.567,-207.433 550.361,-195.639 558.249,-187.751"/>
<polygon fill="midnightblue" stroke="midnightblue" points="526.513,-214.537 521.917,-224.083 531.463,-219.487 526.513,-214.537"/>
</g>
<!-- Node10&#45;&gt;Node12 -->
<g id="edge11" class="edge"><title>Node10&#45;&gt;Node12</title>
<path fill="none" stroke="midnightblue" d="M487.19,-219.726C467.747,-209.727 441.652,-196.307 424.828,-187.655"/>
<polygon fill="midnightblue" stroke="midnightblue" points="485.636,-222.863 496.13,-224.324 488.838,-216.638 485.636,-222.863"/>
</g>
<!-- Node12&#45;&gt;Node6 -->
<g id="edge16" class="edge"><title>Node12&#45;&gt;Node6</title>
<path fill="none" stroke="midnightblue" d="M432.035,-163.301C472.384,-140.304 552.591,-94.5906 585.926,-75.5914"/>
<polygon fill="midnightblue" stroke="midnightblue" points="430.099,-160.376 423.144,-168.368 433.565,-166.458 430.099,-160.376"/>
</g>
<!-- Node12&#45;&gt;Node7 -->
<g id="edge17" class="edge"><title>Node12&#45;&gt;Node7</title>
<path fill="none" stroke="midnightblue" d="M392.549,-160.55C386.1,-152.572 379.341,-142.462 376,-132 373.296,-123.532 373.741,-120.597 376,-112 385.874,-74.4159 413.257,-36.0957 426.137,-19.5112"/>
<polygon fill="midnightblue" stroke="midnightblue" points="390.056,-163.019 399.249,-168.286 395.348,-158.436 390.056,-163.019"/>
</g>
<!-- Node13 -->
<g id="node13" class="node"><title>Node13</title>
<g id="a_node13"><a xlink:href="controller_8h.html" target="_top" xlink:title="controller.h">
<polygon fill="none" stroke="black" points="263.5,-112.5 263.5,-131.5 328.5,-131.5 328.5,-112.5 263.5,-112.5"/>
<text text-anchor="middle" x="296" y="-119.5" font-family="Helvetica,sans-Serif" font-size="10.00">controller.h</text>
</a>
</g>
</g>
<!-- Node12&#45;&gt;Node13 -->
<g id="edge12" class="edge"><title>Node12&#45;&gt;Node13</title>
<path fill="none" stroke="midnightblue" d="M380.751,-163.862C359.984,-153.849 331.977,-140.346 313.95,-131.655"/>
<polygon fill="midnightblue" stroke="midnightblue" points="379.477,-167.134 390.005,-168.324 382.518,-160.828 379.477,-167.134"/>
</g>
<!-- Node15 -->
<g id="node15" class="node"><title>Node15</title>
<g id="a_node15"><a xlink:href="solver_8cpp.html" target="_top" xlink:title="solver.cpp">
<polygon fill="none" stroke="black" points="385,-112.5 385,-131.5 447,-131.5 447,-112.5 385,-112.5"/>
<text text-anchor="middle" x="416" y="-119.5" font-family="Helvetica,sans-Serif" font-size="10.00">solver.cpp</text>
</a>
</g>
</g>
<!-- Node12&#45;&gt;Node15 -->
<g id="edge18" class="edge"><title>Node12&#45;&gt;Node15</title>
<path fill="none" stroke="midnightblue" d="M410.8,-158.101C412.128,-149.136 413.651,-138.858 414.704,-131.751"/>
<polygon fill="midnightblue" stroke="midnightblue" points="407.324,-157.678 409.321,-168.083 414.249,-158.704 407.324,-157.678"/>
</g>
<!-- Node13&#45;&gt;Node6 -->
<g id="edge15" class="edge"><title>Node13&#45;&gt;Node6</title>
<path fill="none" stroke="midnightblue" d="M338.714,-113.438C397.535,-103.023 502.729,-84.3988 560.41,-74.1865"/>
<polygon fill="midnightblue" stroke="midnightblue" points="337.877,-110.031 328.64,-115.221 339.097,-116.924 337.877,-110.031"/>
</g>
<!-- Node13&#45;&gt;Node7 -->
<g id="edge14" class="edge"><title>Node13&#45;&gt;Node7</title>
<path fill="none" stroke="midnightblue" d="M305.397,-103.61C313.77,-89.3821 327.133,-69.4787 343,-56 362.438,-39.4874 388.978,-27.1729 408.196,-19.6389"/>
<polygon fill="midnightblue" stroke="midnightblue" points="302.3,-101.976 300.428,-112.404 308.394,-105.419 302.3,-101.976"/>
</g>
<!-- Node14 -->
<g id="node14" class="node"><title>Node14</title>
<g id="a_node14"><a xlink:href="controller_8cpp.html" target="_top" xlink:title="controller.cpp">
<polygon fill="none" stroke="black" points="215.5,-56.5 215.5,-75.5 290.5,-75.5 290.5,-56.5 215.5,-56.5"/>
<text text-anchor="middle" x="253" y="-63.5" font-family="Helvetica,sans-Serif" font-size="10.00">controller.cpp</text>
</a>
</g>
</g>
<!-- Node13&#45;&gt;Node14 -->
<g id="edge13" class="edge"><title>Node13&#45;&gt;Node14</title>
<path fill="none" stroke="midnightblue" d="M282.578,-104.144C275.086,-94.7357 266.063,-83.4046 259.968,-75.7511"/>
<polygon fill="midnightblue" stroke="midnightblue" points="279.932,-106.44 288.899,-112.083 285.408,-102.08 279.932,-106.44"/>
</g>
<!-- Node17 -->
<g id="node17" class="node"><title>Node17</title>
<g id="a_node17"><a xlink:href="qmapwidget_8h.html" target="_top" xlink:title="qmapwidget.h">
<polygon fill="none" stroke="black" points="142.5,-168.5 142.5,-187.5 219.5,-187.5 219.5,-168.5 142.5,-168.5"/>
<text text-anchor="middle" x="181" y="-175.5" font-family="Helvetica,sans-Serif" font-size="10.00">qmapwidget.h</text>
</a>
</g>
</g>
<!-- Node16&#45;&gt;Node17 -->
<g id="edge22" class="edge"><title>Node16&#45;&gt;Node17</title>
<path fill="none" stroke="midnightblue" d="M78.4478,-220.638C103.407,-210.504 138.077,-196.427 160.024,-187.516"/>
<polygon fill="midnightblue" stroke="midnightblue" points="77.023,-217.439 69.0742,-224.444 79.6564,-223.924 77.023,-217.439"/>
</g>
<!-- Node19 -->
<g id="node19" class="node"><title>Node19</title>
<g id="a_node19"><a xlink:href="qmapscene_8cpp.html" target="_top" xlink:title="qmapscene.cpp">
<polygon fill="none" stroke="black" points="0,-168.5 0,-187.5 86,-187.5 86,-168.5 0,-168.5"/>
<text text-anchor="middle" x="43" y="-175.5" font-family="Helvetica,sans-Serif" font-size="10.00">qmapscene.cpp</text>
</a>
</g>
</g>
<!-- Node16&#45;&gt;Node19 -->
<g id="edge25" class="edge"><title>Node16&#45;&gt;Node19</title>
<path fill="none" stroke="midnightblue" d="M46.25,-214.101C45.42,-205.136 44.4683,-194.858 43.8103,-187.751"/>
<polygon fill="midnightblue" stroke="midnightblue" points="42.7672,-214.448 47.1744,-224.083 49.7374,-213.803 42.7672,-214.448"/>
</g>
<!-- Node17&#45;&gt;Node13 -->
<g id="edge23" class="edge"><title>Node17&#45;&gt;Node13</title>
<path fill="none" stroke="midnightblue" d="M208.481,-164.096C229.966,-154.007 259.222,-140.27 277.863,-131.516"/>
<polygon fill="midnightblue" stroke="midnightblue" points="206.786,-161.025 199.222,-168.444 209.762,-167.361 206.786,-161.025"/>
</g>
<!-- Node18 -->
<g id="node18" class="node"><title>Node18</title>
<g id="a_node18"><a xlink:href="qmapwidget_8cpp.html" target="_top" xlink:title="qmapwidget.cpp">
<polygon fill="none" stroke="black" points="142,-112.5 142,-131.5 230,-131.5 230,-112.5 142,-112.5"/>
<text text-anchor="middle" x="186" y="-119.5" font-family="Helvetica,sans-Serif" font-size="10.00">qmapwidget.cpp</text>
</a>
</g>
</g>
<!-- Node17&#45;&gt;Node18 -->
<g id="edge24" class="edge"><title>Node17&#45;&gt;Node18</title>
<path fill="none" stroke="midnightblue" d="M182.75,-158.101C183.58,-149.136 184.532,-138.858 185.19,-131.751"/>
<polygon fill="midnightblue" stroke="midnightblue" points="179.263,-157.803 181.826,-168.083 186.233,-158.448 179.263,-157.803"/>
</g>
<!-- Node22 -->
<g id="node22" class="node"><title>Node22</title>
<g id="a_node22"><a xlink:href="sauvegarde_8cpp.html" target="_top" xlink:title="sauvegarde.cpp">
<polygon fill="none" stroke="black" points="552,-224.5 552,-243.5 638,-243.5 638,-224.5 552,-224.5"/>
<text text-anchor="middle" x="595" y="-231.5" font-family="Helvetica,sans-Serif" font-size="10.00">sauvegarde.cpp</text>
</a>
</g>
</g>
<!-- Node21&#45;&gt;Node22 -->
<g id="edge33" class="edge"><title>Node21&#45;&gt;Node22</title>
<path fill="none" stroke="midnightblue" d="M607.454,-270.396C604.276,-261.362 600.607,-250.936 598.079,-243.751"/>
<polygon fill="midnightblue" stroke="midnightblue" points="604.242,-271.812 610.863,-280.083 610.845,-269.488 604.242,-271.812"/>
</g>
<!-- Node24&#45;&gt;Node13 -->
<g id="edge36" class="edge"><title>Node24&#45;&gt;Node13</title>
<path fill="none" stroke="midnightblue" d="M228.649,-222.106C271.397,-211.852 328.407,-196.795 335,-188 349.287,-168.941 323.876,-144.339 307.76,-131.56"/>
<polygon fill="midnightblue" stroke="midnightblue" points="227.598,-218.758 218.677,-224.473 229.215,-225.569 227.598,-218.758"/>
</g>
<!-- Node24&#45;&gt;Node17 -->
<g id="edge37" class="edge"><title>Node24&#45;&gt;Node17</title>
<path fill="none" stroke="midnightblue" d="M181,-213.805C181,-204.91 181,-194.78 181,-187.751"/>
<polygon fill="midnightblue" stroke="midnightblue" points="177.5,-214.083 181,-224.083 184.5,-214.083 177.5,-214.083"/>
</g>
<!-- Node25 -->
<g id="node25" class="node"><title>Node25</title>
<g id="a_node25"><a xlink:href="qmapviewer_8cpp.html" target="_top" xlink:title="qmapviewer.cpp">
<polygon fill="none" stroke="black" points="238,-168.5 238,-187.5 326,-187.5 326,-168.5 238,-168.5"/>
<text text-anchor="middle" x="282" y="-175.5" font-family="Helvetica,sans-Serif" font-size="10.00">qmapviewer.cpp</text>
</a>
</g>
</g>
<!-- Node24&#45;&gt;Node25 -->
<g id="edge38" class="edge"><title>Node24&#45;&gt;Node25</title>
<path fill="none" stroke="midnightblue" d="M206.083,-219.59C224.757,-209.605 249.704,-196.267 265.813,-187.655"/>
<polygon fill="midnightblue" stroke="midnightblue" points="204.396,-216.522 197.227,-224.324 207.696,-222.696 204.396,-216.522"/>
</g>
<!-- Node27&#45;&gt;Node9 -->
<g id="edge44" class="edge"><title>Node27&#45;&gt;Node9</title>
<path fill="none" stroke="midnightblue" d="M129.519,-335.512C181.296,-323.959 266.792,-304.881 306.916,-295.928"/>
<polygon fill="midnightblue" stroke="midnightblue" points="128.635,-332.123 119.637,-337.717 130.159,-338.955 128.635,-332.123"/>
</g>
<!-- Node27&#45;&gt;Node12 -->
<g id="edge46" class="edge"><title>Node27&#45;&gt;Node12</title>
<path fill="none" stroke="midnightblue" d="M105.633,-329.835C137.162,-304.801 203.788,-254.565 267,-224 305.517,-205.376 353.576,-191.942 382.472,-184.826"/>
<polygon fill="midnightblue" stroke="midnightblue" points="103.318,-327.205 97.7032,-336.19 107.695,-332.667 103.318,-327.205"/>
</g>
<!-- Node27&#45;&gt;Node16 -->
<g id="edge45" class="edge"><title>Node27&#45;&gt;Node16</title>
<path fill="none" stroke="midnightblue" d="M62.6306,-330.726C52.0523,-323.089 40.7773,-312.64 35,-300 26.3887,-281.16 36.3141,-256.679 42.9662,-243.803"/>
<polygon fill="midnightblue" stroke="midnightblue" points="60.9582,-333.818 71.2167,-336.467 64.8488,-327.999 60.9582,-333.818"/>
</g>
<!-- Node28 -->
<g id="node28" class="node"><title>Node28</title>
<g id="a_node28"><a xlink:href="pointroad_8cpp.html" target="_top" xlink:title="pointroad.cpp">
<polygon fill="none" stroke="black" points="44.5,-280.5 44.5,-299.5 119.5,-299.5 119.5,-280.5 44.5,-280.5"/>
<text text-anchor="middle" x="82" y="-287.5" font-family="Helvetica,sans-Serif" font-size="10.00">pointroad.cpp</text>
</a>
</g>
</g>
<!-- Node27&#45;&gt;Node28 -->
<g id="edge47" class="edge"><title>Node27&#45;&gt;Node28</title>
<path fill="none" stroke="midnightblue" d="M85.25,-326.101C84.42,-317.136 83.4683,-306.858 82.8103,-299.751"/>
<polygon fill="midnightblue" stroke="midnightblue" points="81.7672,-326.448 86.1744,-336.083 88.7374,-325.803 81.7672,-326.448"/>
</g>
<!-- Node30 -->
<g id="node30" class="node"><title>Node30</title>
<g id="a_node30"><a xlink:href="box_8cpp.html" target="_top" xlink:title="box.cpp">
<polygon fill="none" stroke="black" points="791.5,-336.5 791.5,-355.5 842.5,-355.5 842.5,-336.5 791.5,-336.5"/>
<text text-anchor="middle" x="817" y="-343.5" font-family="Helvetica,sans-Serif" font-size="10.00">box.cpp</text>
</a>
</g>
</g>
<!-- Node29&#45;&gt;Node30 -->
<g id="edge49" class="edge"><title>Node29&#45;&gt;Node30</title>
<path fill="none" stroke="midnightblue" d="M842.054,-383.566C835.688,-374.275 828.133,-363.248 822.996,-355.751"/>
<polygon fill="midnightblue" stroke="midnightblue" points="839.351,-385.812 847.89,-392.083 845.125,-381.855 839.351,-385.812"/>
</g>
<!-- Node31 -->
<g id="node31" class="node"><title>Node31</title>
<g id="a_node31"><a xlink:href="boxnode_8h.html" target="_top" xlink:title="boxnode.h">
<polygon fill="none" stroke="black" points="861,-336.5 861,-355.5 923,-355.5 923,-336.5 861,-336.5"/>
<text text-anchor="middle" x="892" y="-343.5" font-family="Helvetica,sans-Serif" font-size="10.00">boxnode.h</text>
</a>
</g>
</g>
<!-- Node29&#45;&gt;Node31 -->
<g id="edge50" class="edge"><title>Node29&#45;&gt;Node31</title>
<path fill="none" stroke="midnightblue" d="M866.065,-383.855C872.645,-374.505 880.511,-363.327 885.842,-355.751"/>
<polygon fill="midnightblue" stroke="midnightblue" points="863.168,-381.891 860.275,-392.083 868.892,-385.919 863.168,-381.891"/>
</g>
<!-- Node32 -->
<g id="node32" class="node"><title>Node32</title>
<g id="a_node32"><a xlink:href="boxnode_8cpp.html" target="_top" xlink:title="boxnode.cpp">
<polygon fill="none" stroke="black" points="856,-280.5 856,-299.5 928,-299.5 928,-280.5 856,-280.5"/>
<text text-anchor="middle" x="892" y="-287.5" font-family="Helvetica,sans-Serif" font-size="10.00">boxnode.cpp</text>
</a>
</g>
</g>
<!-- Node31&#45;&gt;Node32 -->
<g id="edge51" class="edge"><title>Node31&#45;&gt;Node32</title>
<path fill="none" stroke="midnightblue" d="M892,-325.805C892,-316.91 892,-306.78 892,-299.751"/>
<polygon fill="midnightblue" stroke="midnightblue" points="888.5,-326.083 892,-336.083 895.5,-326.083 888.5,-326.083"/>
</g>
<!-- Node31&#45;&gt;Node33 -->
<g id="edge52" class="edge"><title>Node31&#45;&gt;Node33</title>
<path fill="none" stroke="midnightblue" d="M913.301,-330.622C927.915,-320.757 946.827,-307.992 959.179,-299.655"/>
<polygon fill="midnightblue" stroke="midnightblue" points="911.184,-327.828 904.853,-336.324 915.1,-333.63 911.184,-327.828"/>
</g>
<!-- Node34 -->
<g id="node34" class="node"><title>Node34</title>
<g id="a_node34"><a xlink:href="kdtree_8cpp.html" target="_top" xlink:title="kdtree.cpp">
<polygon fill="none" stroke="black" points="941,-224.5 941,-243.5 1003,-243.5 1003,-224.5 941,-224.5"/>
<text text-anchor="middle" x="972" y="-231.5" font-family="Helvetica,sans-Serif" font-size="10.00">kdtree.cpp</text>
</a>
</g>
</g>
<!-- Node33&#45;&gt;Node34 -->
<g id="edge53" class="edge"><title>Node33&#45;&gt;Node34</title>
<path fill="none" stroke="midnightblue" d="M972,-269.805C972,-260.91 972,-250.78 972,-243.751"/>
<polygon fill="midnightblue" stroke="midnightblue" points="968.5,-270.083 972,-280.083 975.5,-270.083 968.5,-270.083"/>
</g>
</g>
</svg>
