<?xml version="1.0" encoding="UTF-8" standalone="no"?>
<!DOCTYPE svg PUBLIC "-//W3C//DTD SVG 1.1//EN"
 "http://www.w3.org/Graphics/SVG/1.1/DTD/svg11.dtd">
<!-- Generated by graphviz version 2.38.0 (20140413.2041)
 -->
<!-- Title: point.h Pages: 1 -->
<!--zoomable 364 -->
<svg id="main" version="1.1" xmlns="http://www.w3.org/2000/svg" xmlns:xlink="http://www.w3.org/1999/xlink" xml:space="preserve" onload="init(evt)">
<style type="text/css"><![CDATA[
.edge:hover path { stroke: red; }
.edge:hover polygon { stroke: red; fill: red; }
]]></style>
<script type="text/javascript"><![CDATA[
var edges = document.getElementsByTagName('g');
if (edges && edges.length) {
  for (var i=0;i<edges.length;i++) {
    if (edges[i].id.substr(0,4)=='edge') {
      edges[i].setAttribute('class','edge');
    }
  }
}
]]></script>
        <defs>
                <circle id="rim" cx="0" cy="0" r="7"/>
                <circle id="rim2" cx="0" cy="0" r="3.5"/>
                <g id="zoomPlus">
                        <use xlink:href="#rim" fill="#404040">
                                <set attributeName="fill" to="#808080" begin="zoomplus.mouseover" end="zoomplus.mouseout"/>
                        </use>
                        <path d="M-4,0h8M0,-4v8" fill="none" stroke="white" stroke-width="1.5" pointer-events="none"/>
                </g>
                <g id="zoomMin">
                        <use xlink:href="#rim" fill="#404040">
                                <set attributeName="fill" to="#808080" begin="zoomminus.mouseover" end="zoomminus.mouseout"/>
                        </use>
                        <path d="M-4,0h8" fill="none" stroke="white" stroke-width="1.5" pointer-events="none"/>
                </g>
                <g id="dirArrow">
                        <path fill="none" stroke="white" stroke-width="1.5" d="M0,-3.0v7 M-2.5,-0.5L0,-3.0L2.5,-0.5"/>
                </g>
               <g id="resetDef">
                       <use xlink:href="#rim2" fill="#404040">
                               <set attributeName="fill" to="#808080" begin="reset.mouseover" end="reset.mouseout"/>
                       </use>
               </g>
        </defs>

<script type="text/javascript">
var viewWidth = 1002;
var viewHeight = 364;
var sectionId = 'dynsection-1';
</script>
<script xlink:href="svgpan.js"/>
<svg id="graph" class="graph">
<g id="viewport">
<title>point.h</title>
<!-- Node1 -->
<g id="node1" class="node"><title>Node1</title>
<polygon fill="#bfbfbf" stroke="black" points="790,-336.5 790,-355.5 836,-355.5 836,-336.5 790,-336.5"/>
<text text-anchor="middle" x="813" y="-343.5" font-family="Helvetica,sans-Serif" font-size="10.00">point.h</text>
</g>
<!-- Node2 -->
<g id="node2" class="node"><title>Node2</title>
<g id="a_node2"><a xlink:href="point_g_p_s_8h.html" target="_top" xlink:title="pointGPS.h">
<polygon fill="none" stroke="black" points="510.5,-280.5 510.5,-299.5 577.5,-299.5 577.5,-280.5 510.5,-280.5"/>
<text text-anchor="middle" x="544" y="-287.5" font-family="Helvetica,sans-Serif" font-size="10.00">pointGPS.h</text>
</a>
</g>
</g>
<!-- Node1&#45;&gt;Node2 -->
<g id="edge1" class="edge"><title>Node1&#45;&gt;Node2</title>
<path fill="none" stroke="midnightblue" d="M779.651,-338.305C728.147,-327.966 629.79,-308.222 577.934,-297.812"/>
<polygon fill="midnightblue" stroke="midnightblue" points="779.105,-341.766 789.599,-340.302 780.483,-334.903 779.105,-341.766"/>
</g>
<!-- Node21 -->
<g id="node21" class="node"><title>Node21</title>
<g id="a_node21"><a xlink:href="pointroad_8h.html" target="_top" xlink:title="pointroad.h">
<polygon fill="none" stroke="black" points="667.5,-224.5 667.5,-243.5 732.5,-243.5 732.5,-224.5 667.5,-224.5"/>
<text text-anchor="middle" x="700" y="-231.5" font-family="Helvetica,sans-Serif" font-size="10.00">pointroad.h</text>
</a>
</g>
</g>
<!-- Node1&#45;&gt;Node21 -->
<g id="edge28" class="edge"><title>Node1&#45;&gt;Node21</title>
<path fill="none" stroke="midnightblue" d="M796.774,-329.205C772.553,-305.627 727.767,-262.029 708.826,-243.591"/>
<polygon fill="midnightblue" stroke="midnightblue" points="794.526,-331.901 804.133,-336.368 799.409,-326.885 794.526,-331.901"/>
</g>
<!-- Node23 -->
<g id="node23" class="node"><title>Node23</title>
<g id="a_node23"><a xlink:href="box_8h.html" target="_top" xlink:title="box.h">
<polygon fill="none" stroke="black" points="792.5,-280.5 792.5,-299.5 833.5,-299.5 833.5,-280.5 792.5,-280.5"/>
<text text-anchor="middle" x="813" y="-287.5" font-family="Helvetica,sans-Serif" font-size="10.00">box.h</text>
</a>
</g>
</g>
<!-- Node1&#45;&gt;Node23 -->
<g id="edge32" class="edge"><title>Node1&#45;&gt;Node23</title>
<path fill="none" stroke="midnightblue" d="M813,-325.805C813,-316.91 813,-306.78 813,-299.751"/>
<polygon fill="midnightblue" stroke="midnightblue" points="809.5,-326.083 813,-336.083 816.5,-326.083 809.5,-326.083"/>
</g>
<!-- Node27 -->
<g id="node27" class="node"><title>Node27</title>
<g id="a_node27"><a xlink:href="kdtree_8h.html" target="_top" xlink:title="kdtree.h">
<polygon fill="none" stroke="black" points="884,-168.5 884,-187.5 936,-187.5 936,-168.5 884,-168.5"/>
<text text-anchor="middle" x="910" y="-175.5" font-family="Helvetica,sans-Serif" font-size="10.00">kdtree.h</text>
</a>
</g>
</g>
<!-- Node1&#45;&gt;Node27 -->
<g id="edge38" class="edge"><title>Node1&#45;&gt;Node27</title>
<path fill="none" stroke="midnightblue" d="M828.561,-328.906C846.049,-310.004 874.186,-277.02 891,-244 900.603,-225.142 906.095,-200.668 908.51,-187.799"/>
<polygon fill="midnightblue" stroke="midnightblue" points="825.879,-326.648 821.568,-336.326 830.974,-331.449 825.879,-326.648"/>
</g>
<!-- Node29 -->
<g id="node29" class="node"><title>Node29</title>
<g id="a_node29"><a xlink:href="point_8cpp.html" target="_top" xlink:title="point.cpp">
<polygon fill="none" stroke="black" points="938,-280.5 938,-299.5 994,-299.5 994,-280.5 938,-280.5"/>
<text text-anchor="middle" x="966" y="-287.5" font-family="Helvetica,sans-Serif" font-size="10.00">point.cpp</text>
</a>
</g>
</g>
<!-- Node1&#45;&gt;Node29 -->
<g id="edge39" class="edge"><title>Node1&#45;&gt;Node29</title>
<path fill="none" stroke="midnightblue" d="M845.865,-333.401C874.676,-323.232 915.891,-308.685 941.784,-299.547"/>
<polygon fill="midnightblue" stroke="midnightblue" points="844.502,-330.17 836.237,-336.799 846.832,-336.771 844.502,-330.17"/>
</g>
<!-- Node3 -->
<g id="node3" class="node"><title>Node3</title>
<g id="a_node3"><a xlink:href="track_8h.html" target="_top" xlink:title="The class Track. ">
<polygon fill="none" stroke="black" points="302.5,-224.5 302.5,-243.5 349.5,-243.5 349.5,-224.5 302.5,-224.5"/>
<text text-anchor="middle" x="326" y="-231.5" font-family="Helvetica,sans-Serif" font-size="10.00">track.h</text>
</a>
</g>
</g>
<!-- Node2&#45;&gt;Node3 -->
<g id="edge2" class="edge"><title>Node2&#45;&gt;Node3</title>
<path fill="none" stroke="midnightblue" d="M500.554,-278.238C455.157,-266.993 385.622,-249.769 349.546,-240.832"/>
<polygon fill="midnightblue" stroke="midnightblue" points="499.867,-281.674 510.415,-280.681 501.55,-274.879 499.867,-281.674"/>
</g>
<!-- Node7 -->
<g id="node7" class="node"><title>Node7</title>
<g id="a_node7"><a xlink:href="main_8cpp.html" target="_top" xlink:title="main.cpp">
<polygon fill="none" stroke="black" points="276,-0.5 276,-19.5 332,-19.5 332,-0.5 276,-0.5"/>
<text text-anchor="middle" x="304" y="-7.5" font-family="Helvetica,sans-Serif" font-size="10.00">main.cpp</text>
</a>
</g>
</g>
<!-- Node2&#45;&gt;Node7 -->
<g id="edge25" class="edge"><title>Node2&#45;&gt;Node7</title>
<path fill="none" stroke="midnightblue" d="M500.053,-289.421C370.644,-289.491 0,-280.805 0,-179 0,-179 0,-179 0,-121 0,-72.3765 43.6181,-75.8619 88,-56 151.459,-27.6006 233.509,-16.851 275.891,-12.9996"/>
<polygon fill="midnightblue" stroke="midnightblue" points="500.389,-292.92 510.381,-289.396 500.373,-285.92 500.389,-292.92"/>
</g>
<!-- Node12 -->
<g id="node12" class="node"><title>Node12</title>
<g id="a_node12"><a xlink:href="solver_8h.html" target="_top" xlink:title="solver.h">
<polygon fill="none" stroke="black" points="557.5,-112.5 557.5,-131.5 608.5,-131.5 608.5,-112.5 557.5,-112.5"/>
<text text-anchor="middle" x="583" y="-119.5" font-family="Helvetica,sans-Serif" font-size="10.00">solver.h</text>
</a>
</g>
</g>
<!-- Node2&#45;&gt;Node12 -->
<g id="edge26" class="edge"><title>Node2&#45;&gt;Node12</title>
<path fill="none" stroke="midnightblue" d="M548.48,-269.93C556.94,-233.92 574.958,-157.231 580.987,-131.568"/>
<polygon fill="midnightblue" stroke="midnightblue" points="544.977,-269.54 546.097,-280.075 551.791,-271.141 544.977,-269.54"/>
</g>
<!-- Node20 -->
<g id="node20" class="node"><title>Node20</title>
<g id="a_node20"><a xlink:href="point_g_p_s_8cpp.html" target="_top" xlink:title="pointGPS.cpp">
<polygon fill="none" stroke="black" points="572.5,-224.5 572.5,-243.5 649.5,-243.5 649.5,-224.5 572.5,-224.5"/>
<text text-anchor="middle" x="611" y="-231.5" font-family="Helvetica,sans-Serif" font-size="10.00">pointGPS.cpp</text>
</a>
</g>
</g>
<!-- Node2&#45;&gt;Node20 -->
<g id="edge27" class="edge"><title>Node2&#45;&gt;Node20</title>
<path fill="none" stroke="midnightblue" d="M562.835,-273.82C574.838,-264.145 589.972,-251.948 600.039,-243.834"/>
<polygon fill="midnightblue" stroke="midnightblue" points="560.354,-271.324 554.765,-280.324 564.747,-276.774 560.354,-271.324"/>
</g>
<!-- Node4 -->
<g id="node4" class="node"><title>Node4</title>
<g id="a_node4"><a xlink:href="filtering_8h.html" target="_top" xlink:title="filtering.h">
<polygon fill="none" stroke="black" points="373,-168.5 373,-187.5 429,-187.5 429,-168.5 373,-168.5"/>
<text text-anchor="middle" x="401" y="-175.5" font-family="Helvetica,sans-Serif" font-size="10.00">filtering.h</text>
</a>
</g>
</g>
<!-- Node3&#45;&gt;Node4 -->
<g id="edge3" class="edge"><title>Node3&#45;&gt;Node4</title>
<path fill="none" stroke="midnightblue" d="M346.305,-218.38C359.861,-208.62 377.242,-196.106 388.731,-187.834"/>
<polygon fill="midnightblue" stroke="midnightblue" points="344.12,-215.641 338.05,-224.324 348.21,-221.321 344.12,-215.641"/>
</g>
<!-- Node6 -->
<g id="node6" class="node"><title>Node6</title>
<g id="a_node6"><a xlink:href="_main_window_8h.html" target="_top" xlink:title="MainWindow.h">
<polygon fill="none" stroke="black" points="365.5,-56.5 365.5,-75.5 446.5,-75.5 446.5,-56.5 365.5,-56.5"/>
<text text-anchor="middle" x="406" y="-63.5" font-family="Helvetica,sans-Serif" font-size="10.00">MainWindow.h</text>
</a>
</g>
</g>
<!-- Node3&#45;&gt;Node6 -->
<g id="edge21" class="edge"><title>Node3&#45;&gt;Node6</title>
<path fill="none" stroke="midnightblue" d="M359.543,-229.48C385.766,-224.767 420.596,-213.749 438,-188 462.701,-151.455 428.106,-96.7833 412.723,-75.7122"/>
<polygon fill="midnightblue" stroke="midnightblue" points="358.95,-226.03 349.616,-231.043 360.039,-232.945 358.95,-226.03"/>
</g>
<!-- Node3&#45;&gt;Node7 -->
<g id="edge20" class="edge"><title>Node3&#45;&gt;Node7</title>
<path fill="none" stroke="midnightblue" d="M292.182,-231.803C229.36,-228.853 98.1896,-219.044 67,-188 49.0807,-170.164 59.2309,-157.184 57,-132 56.2156,-123.146 52.0448,-119.38 57,-112 106.973,-37.5756 222.518,-17.9563 275.958,-12.8126"/>
<polygon fill="midnightblue" stroke="midnightblue" points="292.223,-235.308 302.366,-232.249 292.529,-228.315 292.223,-235.308"/>
</g>
<!-- Node9 -->
<g id="node9" class="node"><title>Node9</title>
<g id="a_node9"><a xlink:href="road_8h.html" target="_top" xlink:title="road.h">
<polygon fill="none" stroke="black" points="485,-168.5 485,-187.5 529,-187.5 529,-168.5 485,-168.5"/>
<text text-anchor="middle" x="507" y="-175.5" font-family="Helvetica,sans-Serif" font-size="10.00">road.h</text>
</a>
</g>
</g>
<!-- Node3&#45;&gt;Node9 -->
<g id="edge8" class="edge"><title>Node3&#45;&gt;Node9</title>
<path fill="none" stroke="midnightblue" d="M359.364,-223.046C395.873,-212.154 453.372,-195 484.752,-185.638"/>
<polygon fill="midnightblue" stroke="midnightblue" points="358.245,-219.728 349.663,-225.94 360.246,-226.435 358.245,-219.728"/>
</g>
<!-- Node10 -->
<g id="node10" class="node"><title>Node10</title>
<g id="a_node10"><a xlink:href="grid_8h.html" target="_top" xlink:title="grid.h">
<polygon fill="none" stroke="black" points="264.5,-112.5 264.5,-131.5 305.5,-131.5 305.5,-112.5 264.5,-112.5"/>
<text text-anchor="middle" x="285" y="-119.5" font-family="Helvetica,sans-Serif" font-size="10.00">grid.h</text>
</a>
</g>
</g>
<!-- Node3&#45;&gt;Node10 -->
<g id="edge17" class="edge"><title>Node3&#45;&gt;Node10</title>
<path fill="none" stroke="midnightblue" d="M308.122,-217.15C300.468,-209.229 292.311,-198.995 288,-188 280.577,-169.069 282.109,-144.625 283.674,-131.779"/>
<polygon fill="midnightblue" stroke="midnightblue" points="305.828,-219.802 315.447,-224.243 310.698,-214.773 305.828,-219.802"/>
</g>
<!-- Node15 -->
<g id="node15" class="node"><title>Node15</title>
<g id="a_node15"><a xlink:href="controller_8h.html" target="_top" xlink:title="controller.h">
<polygon fill="none" stroke="black" points="76.5,-168.5 76.5,-187.5 141.5,-187.5 141.5,-168.5 76.5,-168.5"/>
<text text-anchor="middle" x="109" y="-175.5" font-family="Helvetica,sans-Serif" font-size="10.00">controller.h</text>
</a>
</g>
</g>
<!-- Node3&#45;&gt;Node15 -->
<g id="edge18" class="edge"><title>Node3&#45;&gt;Node15</title>
<path fill="none" stroke="midnightblue" d="M292.577,-224.683C251.565,-214.477 182.478,-197.285 141.768,-187.154"/>
<polygon fill="midnightblue" stroke="midnightblue" points="291.815,-228.1 302.364,-227.118 293.505,-221.307 291.815,-228.1"/>
</g>
<!-- Node17 -->
<g id="node17" class="node"><title>Node17</title>
<g id="a_node17"><a xlink:href="sauvegarde_8h.html" target="_top" xlink:title="sauvegarde.h">
<polygon fill="none" stroke="black" points="165.5,-168.5 165.5,-187.5 240.5,-187.5 240.5,-168.5 165.5,-168.5"/>
<text text-anchor="middle" x="203" y="-175.5" font-family="Helvetica,sans-Serif" font-size="10.00">sauvegarde.h</text>
</a>
</g>
</g>
<!-- Node3&#45;&gt;Node17 -->
<g id="edge22" class="edge"><title>Node3&#45;&gt;Node17</title>
<path fill="none" stroke="midnightblue" d="M297.227,-220.368C274.193,-210.255 242.516,-196.349 222.399,-187.516"/>
<polygon fill="midnightblue" stroke="midnightblue" points="295.947,-223.628 306.51,-224.444 298.761,-217.219 295.947,-223.628"/>
</g>
<!-- Node19 -->
<g id="node19" class="node"><title>Node19</title>
<g id="a_node19"><a xlink:href="track_8cpp.html" target="_top" xlink:title="track.cpp">
<polygon fill="none" stroke="black" points="297.5,-168.5 297.5,-187.5 354.5,-187.5 354.5,-168.5 297.5,-168.5"/>
<text text-anchor="middle" x="326" y="-175.5" font-family="Helvetica,sans-Serif" font-size="10.00">track.cpp</text>
</a>
</g>
</g>
<!-- Node3&#45;&gt;Node19 -->
<g id="edge24" class="edge"><title>Node3&#45;&gt;Node19</title>
<path fill="none" stroke="midnightblue" d="M326,-213.805C326,-204.91 326,-194.78 326,-187.751"/>
<polygon fill="midnightblue" stroke="midnightblue" points="322.5,-214.083 326,-224.083 329.5,-214.083 322.5,-214.083"/>
</g>
<!-- Node5 -->
<g id="node5" class="node"><title>Node5</title>
<g id="a_node5"><a xlink:href="filtering_8cpp.html" target="_top" xlink:title="filtering.cpp">
<polygon fill="none" stroke="black" points="323.5,-112.5 323.5,-131.5 390.5,-131.5 390.5,-112.5 323.5,-112.5"/>
<text text-anchor="middle" x="357" y="-119.5" font-family="Helvetica,sans-Serif" font-size="10.00">filtering.cpp</text>
</a>
</g>
</g>
<!-- Node4&#45;&gt;Node5 -->
<g id="edge4" class="edge"><title>Node4&#45;&gt;Node5</title>
<path fill="none" stroke="midnightblue" d="M387.265,-160.144C379.599,-150.736 370.367,-139.405 364.131,-131.751"/>
<polygon fill="midnightblue" stroke="midnightblue" points="384.704,-162.541 393.734,-168.083 390.131,-158.12 384.704,-162.541"/>
</g>
<!-- Node4&#45;&gt;Node6 -->
<g id="edge5" class="edge"><title>Node4&#45;&gt;Node6</title>
<path fill="none" stroke="midnightblue" d="M401.848,-158.348C402.943,-134.254 404.804,-93.3079 405.609,-75.5914"/>
<polygon fill="midnightblue" stroke="midnightblue" points="398.35,-158.22 401.392,-168.368 405.343,-158.538 398.35,-158.22"/>
</g>
<!-- Node6&#45;&gt;Node7 -->
<g id="edge6" class="edge"><title>Node6&#45;&gt;Node7</title>
<path fill="none" stroke="midnightblue" d="M380.669,-51.5895C361.81,-41.6052 336.616,-28.2672 320.347,-19.6545"/>
<polygon fill="midnightblue" stroke="midnightblue" points="379.136,-54.7383 389.612,-56.324 382.412,-48.5518 379.136,-54.7383"/>
</g>
<!-- Node8 -->
<g id="node8" class="node"><title>Node8</title>
<g id="a_node8"><a xlink:href="_main_window_8cpp.html" target="_top" xlink:title="MainWindow.cpp">
<polygon fill="none" stroke="black" points="360,-0.5 360,-19.5 452,-19.5 452,-0.5 360,-0.5"/>
<text text-anchor="middle" x="406" y="-7.5" font-family="Helvetica,sans-Serif" font-size="10.00">MainWindow.cpp</text>
</a>
</g>
</g>
<!-- Node6&#45;&gt;Node8 -->
<g id="edge7" class="edge"><title>Node6&#45;&gt;Node8</title>
<path fill="none" stroke="midnightblue" d="M406,-45.8045C406,-36.9102 406,-26.7798 406,-19.7511"/>
<polygon fill="midnightblue" stroke="midnightblue" points="402.5,-46.083 406,-56.083 409.5,-46.083 402.5,-46.083"/>
</g>
<!-- Node9&#45;&gt;Node10 -->
<g id="edge9" class="edge"><title>Node9&#45;&gt;Node10</title>
<path fill="none" stroke="midnightblue" d="M474.792,-170.232C436.331,-161.98 370.15,-147.238 314,-132 311.253,-131.254 308.374,-130.423 305.542,-129.575"/>
<polygon fill="midnightblue" stroke="midnightblue" points="474.363,-173.719 484.873,-172.383 475.824,-166.873 474.363,-173.719"/>
</g>
<!-- Node9&#45;&gt;Node12 -->
<g id="edge13" class="edge"><title>Node9&#45;&gt;Node12</title>
<path fill="none" stroke="midnightblue" d="M527.576,-162.38C541.312,-152.62 558.925,-140.106 570.567,-131.834"/>
<polygon fill="midnightblue" stroke="midnightblue" points="525.335,-159.679 519.211,-168.324 529.39,-165.385 525.335,-159.679"/>
</g>
<!-- Node14 -->
<g id="node14" class="node"><title>Node14</title>
<g id="a_node14"><a xlink:href="road_8cpp.html" target="_top" xlink:title="road.cpp">
<polygon fill="none" stroke="black" points="485,-112.5 485,-131.5 539,-131.5 539,-112.5 485,-112.5"/>
<text text-anchor="middle" x="512" y="-119.5" font-family="Helvetica,sans-Serif" font-size="10.00">road.cpp</text>
</a>
</g>
</g>
<!-- Node9&#45;&gt;Node14 -->
<g id="edge16" class="edge"><title>Node9&#45;&gt;Node14</title>
<path fill="none" stroke="midnightblue" d="M508.75,-158.101C509.58,-149.136 510.532,-138.858 511.19,-131.751"/>
<polygon fill="midnightblue" stroke="midnightblue" points="505.263,-157.803 507.826,-168.083 512.233,-158.448 505.263,-157.803"/>
</g>
<!-- Node10&#45;&gt;Node6 -->
<g id="edge12" class="edge"><title>Node10&#45;&gt;Node6</title>
<path fill="none" stroke="midnightblue" d="M313.306,-108.368C335.965,-98.2553 367.126,-84.3486 386.917,-75.5164"/>
<polygon fill="midnightblue" stroke="midnightblue" points="311.878,-105.172 304.173,-112.444 314.731,-111.564 311.878,-105.172"/>
</g>
<!-- Node10&#45;&gt;Node7 -->
<g id="edge11" class="edge"><title>Node10&#45;&gt;Node7</title>
<path fill="none" stroke="midnightblue" d="M288.222,-102.348C292.383,-78.2538 299.456,-37.3079 302.516,-19.5914"/>
<polygon fill="midnightblue" stroke="midnightblue" points="284.744,-101.919 286.491,-112.368 291.642,-103.11 284.744,-101.919"/>
</g>
<!-- Node11 -->
<g id="node11" class="node"><title>Node11</title>
<g id="a_node11"><a xlink:href="grid_8cpp.html" target="_top" xlink:title="grid.cpp">
<polygon fill="none" stroke="black" points="224.5,-56.5 224.5,-75.5 275.5,-75.5 275.5,-56.5 224.5,-56.5"/>
<text text-anchor="middle" x="250" y="-63.5" font-family="Helvetica,sans-Serif" font-size="10.00">grid.cpp</text>
</a>
</g>
</g>
<!-- Node10&#45;&gt;Node11 -->
<g id="edge10" class="edge"><title>Node10&#45;&gt;Node11</title>
<path fill="none" stroke="midnightblue" d="M273.7,-103.566C267.678,-94.2747 260.531,-83.2484 255.672,-75.7511"/>
<polygon fill="midnightblue" stroke="midnightblue" points="270.844,-105.595 279.22,-112.083 276.719,-101.788 270.844,-105.595"/>
</g>
<!-- Node12&#45;&gt;Node7 -->
<g id="edge14" class="edge"><title>Node12&#45;&gt;Node7</title>
<path fill="none" stroke="midnightblue" d="M559.194,-107.269C533.934,-93.0942 492.562,-70.9919 455,-56 413.208,-39.3194 362.776,-25.4952 332.064,-17.744"/>
<polygon fill="midnightblue" stroke="midnightblue" points="557.619,-110.399 568.045,-112.282 561.069,-104.309 557.619,-110.399"/>
</g>
<!-- Node13 -->
<g id="node13" class="node"><title>Node13</title>
<g id="a_node13"><a xlink:href="solver_8cpp.html" target="_top" xlink:title="solver.cpp">
<polygon fill="none" stroke="black" points="552,-56.5 552,-75.5 614,-75.5 614,-56.5 552,-56.5"/>
<text text-anchor="middle" x="583" y="-63.5" font-family="Helvetica,sans-Serif" font-size="10.00">solver.cpp</text>
</a>
</g>
</g>
<!-- Node12&#45;&gt;Node13 -->
<g id="edge15" class="edge"><title>Node12&#45;&gt;Node13</title>
<path fill="none" stroke="midnightblue" d="M583,-101.805C583,-92.9102 583,-82.7798 583,-75.7511"/>
<polygon fill="midnightblue" stroke="midnightblue" points="579.5,-102.083 583,-112.083 586.5,-102.083 579.5,-102.083"/>
</g>
<!-- Node16 -->
<g id="node16" class="node"><title>Node16</title>
<g id="a_node16"><a xlink:href="controller_8cpp.html" target="_top" xlink:title="controller.cpp">
<polygon fill="none" stroke="black" points="66.5,-112.5 66.5,-131.5 141.5,-131.5 141.5,-112.5 66.5,-112.5"/>
<text text-anchor="middle" x="104" y="-119.5" font-family="Helvetica,sans-Serif" font-size="10.00">controller.cpp</text>
</a>
</g>
</g>
<!-- Node15&#45;&gt;Node16 -->
<g id="edge19" class="edge"><title>Node15&#45;&gt;Node16</title>
<path fill="none" stroke="midnightblue" d="M107.25,-158.101C106.42,-149.136 105.468,-138.858 104.81,-131.751"/>
<polygon fill="midnightblue" stroke="midnightblue" points="103.767,-158.448 108.174,-168.083 110.737,-157.803 103.767,-158.448"/>
</g>
<!-- Node18 -->
<g id="node18" class="node"><title>Node18</title>
<g id="a_node18"><a xlink:href="sauvegarde_8cpp.html" target="_top" xlink:title="sauvegarde.cpp">
<polygon fill="none" stroke="black" points="160,-112.5 160,-131.5 246,-131.5 246,-112.5 160,-112.5"/>
<text text-anchor="middle" x="203" y="-119.5" font-family="Helvetica,sans-Serif" font-size="10.00">sauvegarde.cpp</text>
</a>
</g>
</g>
<!-- Node17&#45;&gt;Node18 -->
<g id="edge23" class="edge"><title>Node17&#45;&gt;Node18</title>
<path fill="none" stroke="midnightblue" d="M203,-157.805C203,-148.91 203,-138.78 203,-131.751"/>
<polygon fill="midnightblue" stroke="midnightblue" points="199.5,-158.083 203,-168.083 206.5,-158.083 199.5,-158.083"/>
</g>
<!-- Node21&#45;&gt;Node9 -->
<g id="edge29" class="edge"><title>Node21&#45;&gt;Node9</title>
<path fill="none" stroke="midnightblue" d="M659.773,-221.745C620.064,-210.635 560.817,-194.058 529.034,-185.165"/>
<polygon fill="midnightblue" stroke="midnightblue" points="658.845,-225.12 669.419,-224.444 660.731,-218.378 658.845,-225.12"/>
</g>
<!-- Node21&#45;&gt;Node12 -->
<g id="edge30" class="edge"><title>Node21&#45;&gt;Node12</title>
<path fill="none" stroke="midnightblue" d="M683.526,-217.512C658.525,-194.007 611.835,-150.11 592.138,-131.591"/>
<polygon fill="midnightblue" stroke="midnightblue" points="681.136,-220.069 690.819,-224.368 685.931,-214.969 681.136,-220.069"/>
</g>
<!-- Node22 -->
<g id="node22" class="node"><title>Node22</title>
<g id="a_node22"><a xlink:href="pointroad_8cpp.html" target="_top" xlink:title="pointroad.cpp">
<polygon fill="none" stroke="black" points="662.5,-168.5 662.5,-187.5 737.5,-187.5 737.5,-168.5 662.5,-168.5"/>
<text text-anchor="middle" x="700" y="-175.5" font-family="Helvetica,sans-Serif" font-size="10.00">pointroad.cpp</text>
</a>
</g>
</g>
<!-- Node21&#45;&gt;Node22 -->
<g id="edge31" class="edge"><title>Node21&#45;&gt;Node22</title>
<path fill="none" stroke="midnightblue" d="M700,-213.805C700,-204.91 700,-194.78 700,-187.751"/>
<polygon fill="midnightblue" stroke="midnightblue" points="696.5,-214.083 700,-224.083 703.5,-214.083 696.5,-214.083"/>
</g>
<!-- Node24 -->
<g id="node24" class="node"><title>Node24</title>
<g id="a_node24"><a xlink:href="box_8cpp.html" target="_top" xlink:title="box.cpp">
<polygon fill="none" stroke="black" points="750.5,-224.5 750.5,-243.5 801.5,-243.5 801.5,-224.5 750.5,-224.5"/>
<text text-anchor="middle" x="776" y="-231.5" font-family="Helvetica,sans-Serif" font-size="10.00">box.cpp</text>
</a>
</g>
</g>
<!-- Node23&#45;&gt;Node24 -->
<g id="edge33" class="edge"><title>Node23&#45;&gt;Node24</title>
<path fill="none" stroke="midnightblue" d="M801.054,-271.566C794.688,-262.275 787.133,-251.248 781.996,-243.751"/>
<polygon fill="midnightblue" stroke="midnightblue" points="798.351,-273.812 806.89,-280.083 804.125,-269.855 798.351,-273.812"/>
</g>
<!-- Node25 -->
<g id="node25" class="node"><title>Node25</title>
<g id="a_node25"><a xlink:href="boxnode_8h.html" target="_top" xlink:title="boxnode.h">
<polygon fill="none" stroke="black" points="820,-224.5 820,-243.5 882,-243.5 882,-224.5 820,-224.5"/>
<text text-anchor="middle" x="851" y="-231.5" font-family="Helvetica,sans-Serif" font-size="10.00">boxnode.h</text>
</a>
</g>
</g>
<!-- Node23&#45;&gt;Node25 -->
<g id="edge34" class="edge"><title>Node23&#45;&gt;Node25</title>
<path fill="none" stroke="midnightblue" d="M825.065,-271.855C831.645,-262.505 839.511,-251.327 844.842,-243.751"/>
<polygon fill="midnightblue" stroke="midnightblue" points="822.168,-269.891 819.275,-280.083 827.892,-273.919 822.168,-269.891"/>
</g>
<!-- Node26 -->
<g id="node26" class="node"><title>Node26</title>
<g id="a_node26"><a xlink:href="boxnode_8cpp.html" target="_top" xlink:title="boxnode.cpp">
<polygon fill="none" stroke="black" points="794,-168.5 794,-187.5 866,-187.5 866,-168.5 794,-168.5"/>
<text text-anchor="middle" x="830" y="-175.5" font-family="Helvetica,sans-Serif" font-size="10.00">boxnode.cpp</text>
</a>
</g>
</g>
<!-- Node25&#45;&gt;Node26 -->
<g id="edge35" class="edge"><title>Node25&#45;&gt;Node26</title>
<path fill="none" stroke="midnightblue" d="M843.879,-214.69C840.34,-205.589 836.228,-195.014 833.403,-187.751"/>
<polygon fill="midnightblue" stroke="midnightblue" points="840.646,-216.032 847.532,-224.083 847.17,-213.494 840.646,-216.032"/>
</g>
<!-- Node25&#45;&gt;Node27 -->
<g id="edge36" class="edge"><title>Node25&#45;&gt;Node27</title>
<path fill="none" stroke="midnightblue" d="M867.895,-217.537C878.415,-207.909 891.569,-195.869 900.348,-187.834"/>
<polygon fill="midnightblue" stroke="midnightblue" points="865.493,-214.99 860.479,-224.324 870.219,-220.154 865.493,-214.99"/>
</g>
<!-- Node28 -->
<g id="node28" class="node"><title>Node28</title>
<g id="a_node28"><a xlink:href="kdtree_8cpp.html" target="_top" xlink:title="kdtree.cpp">
<polygon fill="none" stroke="black" points="879,-112.5 879,-131.5 941,-131.5 941,-112.5 879,-112.5"/>
<text text-anchor="middle" x="910" y="-119.5" font-family="Helvetica,sans-Serif" font-size="10.00">kdtree.cpp</text>
</a>
</g>
</g>
<!-- Node27&#45;&gt;Node28 -->
<g id="edge37" class="edge"><title>Node27&#45;&gt;Node28</title>
<path fill="none" stroke="midnightblue" d="M910,-157.805C910,-148.91 910,-138.78 910,-131.751"/>
<polygon fill="midnightblue" stroke="midnightblue" points="906.5,-158.083 910,-168.083 913.5,-158.083 906.5,-158.083"/>
</g>
</g>
</svg>
        <g id="navigator" transform="translate(0 0)" fill="#404254">
                <rect fill="#f2f5e9" fill-opacity="0.5" stroke="#606060" stroke-width=".5" x="0" y="0" width="60" height="60"/>
                <use id="zoomplus" xlink:href="#zoomPlus" x="17" y="9" onmousedown="handleZoom(evt,'in')"/>
                <use id="zoomminus" xlink:href="#zoomMin" x="42" y="9" onmousedown="handleZoom(evt,'out')"/>
                <use id="reset" xlink:href="#resetDef" x="30" y="36" onmousedown="handleReset()"/>
                <g id="arrowUp" xlink:href="#dirArrow" transform="translate(30 24)" onmousedown="handlePan(0,-1)">
                  <use xlink:href="#rim" fill="#404040">
                        <set attributeName="fill" to="#808080" begin="arrowUp.mouseover" end="arrowUp.mouseout"/>
                  </use>
                  <path fill="none" stroke="white" stroke-width="1.5" d="M0,-3.0v7 M-2.5,-0.5L0,-3.0L2.5,-0.5"/>
                </g>
                <g id="arrowRight" xlink:href="#dirArrow" transform="rotate(90) translate(36 -43)" onmousedown="handlePan(1,0)">
                  <use xlink:href="#rim" fill="#404040">
                        <set attributeName="fill" to="#808080" begin="arrowRight.mouseover" end="arrowRight.mouseout"/>
                  </use>
                  <path fill="none" stroke="white" stroke-width="1.5" d="M0,-3.0v7 M-2.5,-0.5L0,-3.0L2.5,-0.5"/>
                </g>
                <g id="arrowDown" xlink:href="#dirArrow" transform="rotate(180) translate(-30 -48)" onmousedown="handlePan(0,1)">
                  <use xlink:href="#rim" fill="#404040">
                        <set attributeName="fill" to="#808080" begin="arrowDown.mouseover" end="arrowDown.mouseout"/>
                  </use>
                  <path fill="none" stroke="white" stroke-width="1.5" d="M0,-3.0v7 M-2.5,-0.5L0,-3.0L2.5,-0.5"/>
                </g>
                <g id="arrowLeft" xlink:href="#dirArrow" transform="rotate(270) translate(-36 17)" onmousedown="handlePan(-1,0)">
                  <use xlink:href="#rim" fill="#404040">
                        <set attributeName="fill" to="#808080" begin="arrowLeft.mouseover" end="arrowLeft.mouseout"/>
                  </use>
                  <path fill="none" stroke="white" stroke-width="1.5" d="M0,-3.0v7 M-2.5,-0.5L0,-3.0L2.5,-0.5"/>
                </g>
        </g>
        <svg viewBox="0 0 15 15" width="100%" height="30px" preserveAspectRatio="xMaxYMin meet">
         <g id="arrow_out" transform="scale(0.3 0.3)">
          <a xlink:href="point_8h__dep__incl_org.svg" target="_base">
           <rect id="button" ry="5" rx="5" y="6" x="6" height="38" width="38"
                fill="#f2f5e9" fill-opacity="0.5" stroke="#606060" stroke-width="1.0"/>
           <path id="arrow"
             d="M 11.500037,31.436501 C 11.940474,20.09759 22.043105,11.32322 32.158766,21.979434 L 37.068811,17.246167 C 37.068811,17.246167 37.088388,32 37.088388,32 L 22.160133,31.978069 C 22.160133,31.978069 26.997745,27.140456 26.997745,27.140456 C 18.528582,18.264221 13.291696,25.230495 11.500037,31.436501 z"
             style="fill:#404040;"/>
          </a>
         </g>
        </svg>
</svg>
