<?xml version="1.0" encoding="UTF-8" standalone="no"?>
<!DOCTYPE svg PUBLIC "-//W3C//DTD SVG 1.1//EN"
 "http://www.w3.org/Graphics/SVG/1.1/DTD/svg11.dtd">
<!-- Generated by graphviz version 2.38.0 (20140413.2041)
 -->
<!-- Title: pointroad.h Pages: 1 -->
<svg width="141pt" height="140pt"
 viewBox="0.00 0.00 141.00 140.00" xmlns="http://www.w3.org/2000/svg" xmlns:xlink="http://www.w3.org/1999/xlink">
<g id="graph0" class="graph" transform="scale(1 1) rotate(0) translate(4 136)">
<title>pointroad.h</title>
<!-- Node1 -->
<g id="node1" class="node"><title>Node1</title>
<polygon fill="#bfbfbf" stroke="black" points="36.5,-112.5 36.5,-131.5 101.5,-131.5 101.5,-112.5 36.5,-112.5"/>
<text text-anchor="middle" x="69" y="-119.5" font-family="Helvetica,sans-Serif" font-size="10.00">pointroad.h</text>
</g>
<!-- Node2 -->
<g id="node2" class="node"><title>Node2</title>
<g id="a_node2"><a xlink:href="point_8h.html" target="_top" xlink:title="Class Point. ">
<polygon fill="none" stroke="black" points="46,-56.5 46,-75.5 92,-75.5 92,-56.5 46,-56.5"/>
<text text-anchor="middle" x="69" y="-63.5" font-family="Helvetica,sans-Serif" font-size="10.00">point.h</text>
</a>
</g>
</g>
<!-- Node1&#45;&gt;Node2 -->
<g id="edge1" class="edge"><title>Node1&#45;&gt;Node2</title>
<path fill="none" stroke="midnightblue" d="M69,-112.083C69,-105.006 69,-94.8611 69,-85.9865"/>
<polygon fill="midnightblue" stroke="midnightblue" points="72.5001,-85.751 69,-75.7511 65.5001,-85.7511 72.5001,-85.751"/>
</g>
<!-- Node3 -->
<g id="node3" class="node"><title>Node3</title>
<polygon fill="none" stroke="#bfbfbf" points="0,-0.5 0,-19.5 54,-19.5 54,-0.5 0,-0.5"/>
<text text-anchor="middle" x="27" y="-7.5" font-family="Helvetica,sans-Serif" font-size="10.00">iostream</text>
</g>
<!-- Node1&#45;&gt;Node3 -->
<g id="edge4" class="edge"><title>Node1&#45;&gt;Node3</title>
<path fill="none" stroke="midnightblue" d="M61.0253,-112.436C53.5489,-103.887 42.694,-90.0355 37,-76 31.0245,-61.2706 28.5908,-43.3383 27.6139,-30.0428"/>
<polygon fill="midnightblue" stroke="midnightblue" points="31.0933,-29.554 27.078,-19.7495 24.1028,-29.918 31.0933,-29.554"/>
</g>
<!-- Node4 -->
<g id="node4" class="node"><title>Node4</title>
<polygon fill="none" stroke="#bfbfbf" points="89,-0.5 89,-19.5 133,-19.5 133,-0.5 89,-0.5"/>
<text text-anchor="middle" x="111" y="-7.5" font-family="Helvetica,sans-Serif" font-size="10.00">vector</text>
</g>
<!-- Node1&#45;&gt;Node4 -->
<g id="edge5" class="edge"><title>Node1&#45;&gt;Node4</title>
<path fill="none" stroke="midnightblue" d="M76.9747,-112.436C84.4511,-103.887 95.306,-90.0355 101,-76 106.975,-61.2706 109.409,-43.3383 110.386,-30.0428"/>
<polygon fill="midnightblue" stroke="midnightblue" points="113.897,-29.918 110.922,-19.7495 106.907,-29.554 113.897,-29.918"/>
</g>
<!-- Node2&#45;&gt;Node3 -->
<g id="edge2" class="edge"><title>Node2&#45;&gt;Node3</title>
<path fill="none" stroke="midnightblue" d="M62.0646,-56.083C56.0708,-48.3768 47.2482,-37.0333 39.9524,-27.6531"/>
<polygon fill="midnightblue" stroke="midnightblue" points="42.7086,-25.4958 33.8064,-19.7511 37.1831,-29.7934 42.7086,-25.4958"/>
</g>
<!-- Node2&#45;&gt;Node4 -->
<g id="edge3" class="edge"><title>Node2&#45;&gt;Node4</title>
<path fill="none" stroke="midnightblue" d="M75.9354,-56.083C81.9292,-48.3768 90.7518,-37.0333 98.0476,-27.6531"/>
<polygon fill="midnightblue" stroke="midnightblue" points="100.817,-29.7934 104.194,-19.7511 95.2914,-25.4958 100.817,-29.7934"/>
</g>
</g>
</svg>
