<?xml version="1.0" encoding="UTF-8" standalone="no"?>
<!DOCTYPE svg PUBLIC "-//W3C//DTD SVG 1.1//EN"
 "http://www.w3.org/Graphics/SVG/1.1/DTD/svg11.dtd">
<!-- Generated by graphviz version 2.38.0 (20140413.2041)
 -->
<!-- Title: point.h Pages: 1 -->
<!--zoomable 308 -->
<svg id="main" version="1.1" xmlns="http://www.w3.org/2000/svg" xmlns:xlink="http://www.w3.org/1999/xlink" xml:space="preserve" onload="init(evt)">
<style type="text/css"><![CDATA[
.edge:hover path { stroke: red; }
.edge:hover polygon { stroke: red; fill: red; }
]]></style>
<script type="text/javascript"><![CDATA[
var edges = document.getElementsByTagName('g');
if (edges && edges.length) {
  for (var i=0;i<edges.length;i++) {
    if (edges[i].id.substr(0,4)=='edge') {
      edges[i].setAttribute('class','edge');
    }
  }
}
]]></script>
        <defs>
                <circle id="rim" cx="0" cy="0" r="7"/>
                <circle id="rim2" cx="0" cy="0" r="3.5"/>
                <g id="zoomPlus">
                        <use xlink:href="#rim" fill="#404040">
                                <set attributeName="fill" to="#808080" begin="zoomplus.mouseover" end="zoomplus.mouseout"/>
                        </use>
                        <path d="M-4,0h8M0,-4v8" fill="none" stroke="white" stroke-width="1.5" pointer-events="none"/>
                </g>
                <g id="zoomMin">
                        <use xlink:href="#rim" fill="#404040">
                                <set attributeName="fill" to="#808080" begin="zoomminus.mouseover" end="zoomminus.mouseout"/>
                        </use>
                        <path d="M-4,0h8" fill="none" stroke="white" stroke-width="1.5" pointer-events="none"/>
                </g>
                <g id="dirArrow">
                        <path fill="none" stroke="white" stroke-width="1.5" d="M0,-3.0v7 M-2.5,-0.5L0,-3.0L2.5,-0.5"/>
                </g>
               <g id="resetDef">
                       <use xlink:href="#rim2" fill="#404040">
                               <set attributeName="fill" to="#808080" begin="reset.mouseover" end="reset.mouseout"/>
                       </use>
               </g>
        </defs>

<script type="text/javascript">
var viewWidth = 984;
var viewHeight = 308;
var sectionId = 'dynsection-1';
</script>
<script xlink:href="svgpan.js"/>
<svg id="graph" class="graph">
<g id="viewport">
<title>point.h</title>
<!-- Node1 -->
<g id="node1" class="node"><title>Node1</title>
<polygon fill="#bfbfbf" stroke="black" points="771.895,-280.5 771.895,-299.5 817.895,-299.5 817.895,-280.5 771.895,-280.5"/>
<text text-anchor="middle" x="794.895" y="-287.5" font-family="Helvetica,sans-Serif" font-size="10.00">point.h</text>
</g>
<!-- Node2 -->
<g id="node2" class="node"><title>Node2</title>
<g id="a_node2"><a xlink:href="point_g_p_s_8h.html" target="_top" xlink:title="pointGPS.h">
<polygon fill="none" stroke="black" points="492.395,-224.5 492.395,-243.5 559.395,-243.5 559.395,-224.5 492.395,-224.5"/>
<text text-anchor="middle" x="525.895" y="-231.5" font-family="Helvetica,sans-Serif" font-size="10.00">pointGPS.h</text>
</a>
</g>
</g>
<!-- Node1&#45;&gt;Node2 -->
<g id="edge1" class="edge"><title>Node1&#45;&gt;Node2</title>
<path fill="none" stroke="midnightblue" d="M761.547,-282.305C710.042,-271.966 611.686,-252.222 559.829,-241.812"/>
<polygon fill="midnightblue" stroke="midnightblue" points="761.001,-285.766 771.494,-284.302 762.378,-278.903 761.001,-285.766"/>
</g>
<!-- Node21 -->
<g id="node21" class="node"><title>Node21</title>
<g id="a_node21"><a xlink:href="pointroad_8h.html" target="_top" xlink:title="pointroad.h">
<polygon fill="none" stroke="black" points="649.395,-168.5 649.395,-187.5 714.395,-187.5 714.395,-168.5 649.395,-168.5"/>
<text text-anchor="middle" x="681.895" y="-175.5" font-family="Helvetica,sans-Serif" font-size="10.00">pointroad.h</text>
</a>
</g>
</g>
<!-- Node1&#45;&gt;Node21 -->
<g id="edge26" class="edge"><title>Node1&#45;&gt;Node21</title>
<path fill="none" stroke="midnightblue" d="M778.67,-273.205C754.449,-249.627 709.662,-206.029 690.721,-187.591"/>
<polygon fill="midnightblue" stroke="midnightblue" points="776.421,-275.901 786.028,-280.368 781.304,-270.885 776.421,-275.901"/>
</g>
<!-- Node23 -->
<g id="node23" class="node"><title>Node23</title>
<g id="a_node23"><a xlink:href="box_8h.html" target="_top" xlink:title="box.h">
<polygon fill="none" stroke="black" points="774.395,-224.5 774.395,-243.5 815.395,-243.5 815.395,-224.5 774.395,-224.5"/>
<text text-anchor="middle" x="794.895" y="-231.5" font-family="Helvetica,sans-Serif" font-size="10.00">box.h</text>
</a>
</g>
</g>
<!-- Node1&#45;&gt;Node23 -->
<g id="edge30" class="edge"><title>Node1&#45;&gt;Node23</title>
<path fill="none" stroke="midnightblue" d="M794.895,-269.805C794.895,-260.91 794.895,-250.78 794.895,-243.751"/>
<polygon fill="midnightblue" stroke="midnightblue" points="791.395,-270.083 794.895,-280.083 798.395,-270.083 791.395,-270.083"/>
</g>
<!-- Node27 -->
<g id="node27" class="node"><title>Node27</title>
<g id="a_node27"><a xlink:href="kdtree_8h.html" target="_top" xlink:title="kdtree.h">
<polygon fill="none" stroke="black" points="865.895,-112.5 865.895,-131.5 917.895,-131.5 917.895,-112.5 865.895,-112.5"/>
<text text-anchor="middle" x="891.895" y="-119.5" font-family="Helvetica,sans-Serif" font-size="10.00">kdtree.h</text>
</a>
</g>
</g>
<!-- Node1&#45;&gt;Node27 -->
<g id="edge36" class="edge"><title>Node1&#45;&gt;Node27</title>
<path fill="none" stroke="midnightblue" d="M810.457,-272.906C827.944,-254.004 856.081,-221.02 872.895,-188 882.498,-169.142 887.99,-144.668 890.405,-131.799"/>
<polygon fill="midnightblue" stroke="midnightblue" points="807.775,-270.648 803.464,-280.326 812.869,-275.449 807.775,-270.648"/>
</g>
<!-- Node29 -->
<g id="node29" class="node"><title>Node29</title>
<g id="a_node29"><a xlink:href="point_8cpp.html" target="_top" xlink:title="point.cpp">
<polygon fill="none" stroke="black" points="919.895,-224.5 919.895,-243.5 975.895,-243.5 975.895,-224.5 919.895,-224.5"/>
<text text-anchor="middle" x="947.895" y="-231.5" font-family="Helvetica,sans-Serif" font-size="10.00">point.cpp</text>
</a>
</g>
</g>
<!-- Node1&#45;&gt;Node29 -->
<g id="edge37" class="edge"><title>Node1&#45;&gt;Node29</title>
<path fill="none" stroke="midnightblue" d="M827.761,-277.401C856.571,-267.232 897.787,-252.685 923.68,-243.547"/>
<polygon fill="midnightblue" stroke="midnightblue" points="826.398,-274.17 818.133,-280.799 828.728,-280.771 826.398,-274.17"/>
</g>
<!-- Node3 -->
<g id="node3" class="node"><title>Node3</title>
<g id="a_node3"><a xlink:href="track_8h.html" target="_top" xlink:title="The class Track. ">
<polygon fill="none" stroke="black" points="298.395,-168.5 298.395,-187.5 345.395,-187.5 345.395,-168.5 298.395,-168.5"/>
<text text-anchor="middle" x="321.895" y="-175.5" font-family="Helvetica,sans-Serif" font-size="10.00">track.h</text>
</a>
</g>
</g>
<!-- Node2&#45;&gt;Node3 -->
<g id="edge2" class="edge"><title>Node2&#45;&gt;Node3</title>
<path fill="none" stroke="midnightblue" d="M483.67,-221.823C441.821,-210.745 379.228,-194.176 345.483,-185.244"/>
<polygon fill="midnightblue" stroke="midnightblue" points="483.008,-225.268 493.571,-224.444 484.8,-218.501 483.008,-225.268"/>
</g>
<!-- Node7 -->
<g id="node7" class="node"><title>Node7</title>
<g id="a_node7"><a xlink:href="main_8cpp.html" target="_top" xlink:title="main.cpp">
<polygon fill="none" stroke="black" points="197.895,-0.5 197.895,-19.5 253.895,-19.5 253.895,-0.5 197.895,-0.5"/>
<text text-anchor="middle" x="225.895" y="-7.5" font-family="Helvetica,sans-Serif" font-size="10.00">main.cpp</text>
</a>
</g>
</g>
<!-- Node2&#45;&gt;Node7 -->
<g id="edge23" class="edge"><title>Node2&#45;&gt;Node7</title>
<path fill="none" stroke="midnightblue" d="M482.212,-228.911C375.919,-218.198 107.416,-186.327 37.8953,-132 9.53145,-109.835 -12.9116,-83.8504 9.89534,-56 61.3089,6.78321 109.677,-37.5933 188.895,-20 191.735,-19.3694 194.691,-18.6896 197.641,-17.9963"/>
<polygon fill="midnightblue" stroke="midnightblue" points="481.981,-232.405 492.278,-229.91 482.673,-225.439 481.981,-232.405"/>
</g>
<!-- Node12 -->
<g id="node12" class="node"><title>Node12</title>
<g id="a_node12"><a xlink:href="solver_8h.html" target="_top" xlink:title="solver.h">
<polygon fill="none" stroke="black" points="572.395,-56.5 572.395,-75.5 623.395,-75.5 623.395,-56.5 572.395,-56.5"/>
<text text-anchor="middle" x="597.895" y="-63.5" font-family="Helvetica,sans-Serif" font-size="10.00">solver.h</text>
</a>
</g>
</g>
<!-- Node2&#45;&gt;Node12 -->
<g id="edge24" class="edge"><title>Node2&#45;&gt;Node12</title>
<path fill="none" stroke="midnightblue" d="M530.222,-214.634C533.582,-201.432 538.704,-183.33 544.895,-168 559.281,-132.379 582.3,-92.7436 592.606,-75.6348"/>
<polygon fill="midnightblue" stroke="midnightblue" points="526.809,-213.858 527.829,-224.404 533.608,-215.523 526.809,-213.858"/>
</g>
<!-- Node20 -->
<g id="node20" class="node"><title>Node20</title>
<g id="a_node20"><a xlink:href="point_g_p_s_8cpp.html" target="_top" xlink:title="pointGPS.cpp">
<polygon fill="none" stroke="black" points="554.395,-168.5 554.395,-187.5 631.395,-187.5 631.395,-168.5 554.395,-168.5"/>
<text text-anchor="middle" x="592.895" y="-175.5" font-family="Helvetica,sans-Serif" font-size="10.00">pointGPS.cpp</text>
</a>
</g>
</g>
<!-- Node2&#45;&gt;Node20 -->
<g id="edge25" class="edge"><title>Node2&#45;&gt;Node20</title>
<path fill="none" stroke="midnightblue" d="M544.73,-217.82C556.734,-208.145 571.867,-195.948 581.935,-187.834"/>
<polygon fill="midnightblue" stroke="midnightblue" points="542.25,-215.324 536.66,-224.324 546.642,-220.774 542.25,-215.324"/>
</g>
<!-- Node4 -->
<g id="node4" class="node"><title>Node4</title>
<g id="a_node4"><a xlink:href="filtering_8h.html" target="_top" xlink:title="filtering.h">
<polygon fill="none" stroke="black" points="122.895,-112.5 122.895,-131.5 178.895,-131.5 178.895,-112.5 122.895,-112.5"/>
<text text-anchor="middle" x="150.895" y="-119.5" font-family="Helvetica,sans-Serif" font-size="10.00">filtering.h</text>
</a>
</g>
</g>
<!-- Node3&#45;&gt;Node4 -->
<g id="edge3" class="edge"><title>Node3&#45;&gt;Node4</title>
<path fill="none" stroke="midnightblue" d="M288.225,-166.367C255.904,-156.161 207.711,-140.942 177.849,-131.512"/>
<polygon fill="midnightblue" stroke="midnightblue" points="287.529,-169.818 298.119,-169.492 289.637,-163.143 287.529,-169.818"/>
</g>
<!-- Node3&#45;&gt;Node7 -->
<g id="edge19" class="edge"><title>Node3&#45;&gt;Node7</title>
<path fill="none" stroke="midnightblue" d="M288.569,-168.247C269.886,-161.522 247.974,-150.213 235.895,-132 212.13,-96.1641 219.89,-40.6055 224.024,-19.5134"/>
<polygon fill="midnightblue" stroke="midnightblue" points="287.66,-171.633 298.253,-171.443 289.853,-164.985 287.66,-171.633"/>
</g>
<!-- Node9 -->
<g id="node9" class="node"><title>Node9</title>
<g id="a_node9"><a xlink:href="road_8h.html" target="_top" xlink:title="road.h">
<polygon fill="none" stroke="black" points="459.895,-112.5 459.895,-131.5 503.895,-131.5 503.895,-112.5 459.895,-112.5"/>
<text text-anchor="middle" x="481.895" y="-119.5" font-family="Helvetica,sans-Serif" font-size="10.00">road.h</text>
</a>
</g>
</g>
<!-- Node3&#45;&gt;Node9 -->
<g id="edge8" class="edge"><title>Node3&#45;&gt;Node9</title>
<path fill="none" stroke="midnightblue" d="M355.124,-165.785C386.487,-155.2 432.631,-139.627 459.737,-130.478"/>
<polygon fill="midnightblue" stroke="midnightblue" points="353.86,-162.518 345.504,-169.032 356.098,-169.15 353.86,-162.518"/>
</g>
<!-- Node10 -->
<g id="node10" class="node"><title>Node10</title>
<g id="a_node10"><a xlink:href="grid_8h.html" target="_top" xlink:title="grid.h">
<polygon fill="none" stroke="black" points="440.395,-56.5 440.395,-75.5 481.395,-75.5 481.395,-56.5 440.395,-56.5"/>
<text text-anchor="middle" x="460.895" y="-63.5" font-family="Helvetica,sans-Serif" font-size="10.00">grid.h</text>
</a>
</g>
</g>
<!-- Node3&#45;&gt;Node10 -->
<g id="edge16" class="edge"><title>Node3&#45;&gt;Node10</title>
<path fill="none" stroke="midnightblue" d="M354.984,-164.816C373.011,-157.154 395.017,-146.051 411.895,-132 431.88,-115.363 448.45,-89.0627 456.19,-75.5847"/>
<polygon fill="midnightblue" stroke="midnightblue" points="353.371,-161.694 345.436,-168.715 356.017,-168.175 353.371,-161.694"/>
</g>
<!-- Node15 -->
<g id="node15" class="node"><title>Node15</title>
<g id="a_node15"><a xlink:href="controller_8h.html" target="_top" xlink:title="controller.h">
<polygon fill="none" stroke="black" points="245.395,-112.5 245.395,-131.5 310.395,-131.5 310.395,-112.5 245.395,-112.5"/>
<text text-anchor="middle" x="277.895" y="-119.5" font-family="Helvetica,sans-Serif" font-size="10.00">controller.h</text>
</a>
</g>
</g>
<!-- Node3&#45;&gt;Node15 -->
<g id="edge17" class="edge"><title>Node3&#45;&gt;Node15</title>
<path fill="none" stroke="midnightblue" d="M308.161,-160.144C300.495,-150.736 291.262,-139.405 285.026,-131.751"/>
<polygon fill="midnightblue" stroke="midnightblue" points="305.6,-162.541 314.63,-168.083 311.026,-158.12 305.6,-162.541"/>
</g>
<!-- Node17 -->
<g id="node17" class="node"><title>Node17</title>
<g id="a_node17"><a xlink:href="sauvegarde_8h.html" target="_top" xlink:title="sauvegarde.h">
<polygon fill="none" stroke="black" points="328.395,-112.5 328.395,-131.5 403.395,-131.5 403.395,-112.5 328.395,-112.5"/>
<text text-anchor="middle" x="365.895" y="-119.5" font-family="Helvetica,sans-Serif" font-size="10.00">sauvegarde.h</text>
</a>
</g>
</g>
<!-- Node3&#45;&gt;Node17 -->
<g id="edge20" class="edge"><title>Node3&#45;&gt;Node17</title>
<path fill="none" stroke="midnightblue" d="M335.63,-160.144C343.296,-150.736 352.529,-139.405 358.765,-131.751"/>
<polygon fill="midnightblue" stroke="midnightblue" points="332.764,-158.12 329.161,-168.083 338.191,-162.541 332.764,-158.12"/>
</g>
<!-- Node19 -->
<g id="node19" class="node"><title>Node19</title>
<g id="a_node19"><a xlink:href="track_8cpp.html" target="_top" xlink:title="track.cpp">
<polygon fill="none" stroke="black" points="47.3953,-112.5 47.3953,-131.5 104.395,-131.5 104.395,-112.5 47.3953,-112.5"/>
<text text-anchor="middle" x="75.8953" y="-119.5" font-family="Helvetica,sans-Serif" font-size="10.00">track.cpp</text>
</a>
</g>
</g>
<!-- Node3&#45;&gt;Node19 -->
<g id="edge22" class="edge"><title>Node3&#45;&gt;Node19</title>
<path fill="none" stroke="midnightblue" d="M288.12,-169.904C246.932,-161.202 175.219,-145.894 113.895,-132 110.854,-131.311 107.678,-130.579 104.515,-129.841"/>
<polygon fill="midnightblue" stroke="midnightblue" points="287.648,-173.382 298.155,-172.021 289.093,-166.532 287.648,-173.382"/>
</g>
<!-- Node5 -->
<g id="node5" class="node"><title>Node5</title>
<g id="a_node5"><a xlink:href="filtering_8cpp.html" target="_top" xlink:title="filtering.cpp">
<polygon fill="none" stroke="black" points="19.3953,-56.5 19.3953,-75.5 86.3953,-75.5 86.3953,-56.5 19.3953,-56.5"/>
<text text-anchor="middle" x="52.8953" y="-63.5" font-family="Helvetica,sans-Serif" font-size="10.00">filtering.cpp</text>
</a>
</g>
</g>
<!-- Node4&#45;&gt;Node5 -->
<g id="edge4" class="edge"><title>Node4&#45;&gt;Node5</title>
<path fill="none" stroke="midnightblue" d="M126.309,-107.453C108.217,-97.4835 84.1607,-84.2279 68.6017,-75.6545"/>
<polygon fill="midnightblue" stroke="midnightblue" points="124.702,-110.563 135.15,-112.324 128.081,-104.432 124.702,-110.563"/>
</g>
<!-- Node6 -->
<g id="node6" class="node"><title>Node6</title>
<g id="a_node6"><a xlink:href="_main_window_8h.html" target="_top" xlink:title="MainWindow.h">
<polygon fill="none" stroke="black" points="104.395,-56.5 104.395,-75.5 185.395,-75.5 185.395,-56.5 104.395,-56.5"/>
<text text-anchor="middle" x="144.895" y="-63.5" font-family="Helvetica,sans-Serif" font-size="10.00">MainWindow.h</text>
</a>
</g>
</g>
<!-- Node4&#45;&gt;Node6 -->
<g id="edge5" class="edge"><title>Node4&#45;&gt;Node6</title>
<path fill="none" stroke="midnightblue" d="M148.795,-102.101C147.799,-93.1357 146.657,-82.8579 145.868,-75.7511"/>
<polygon fill="midnightblue" stroke="midnightblue" points="145.322,-102.531 149.905,-112.083 152.279,-101.758 145.322,-102.531"/>
</g>
<!-- Node6&#45;&gt;Node7 -->
<g id="edge6" class="edge"><title>Node6&#45;&gt;Node7</title>
<path fill="none" stroke="midnightblue" d="M166.462,-50.6221C181.259,-40.7574 200.407,-27.9919 212.914,-19.6545"/>
<polygon fill="midnightblue" stroke="midnightblue" points="164.288,-47.8647 157.909,-56.324 168.171,-53.6891 164.288,-47.8647"/>
</g>
<!-- Node8 -->
<g id="node8" class="node"><title>Node8</title>
<g id="a_node8"><a xlink:href="_main_window_8cpp.html" target="_top" xlink:title="MainWindow.cpp">
<polygon fill="none" stroke="black" points="87.8953,-0.5 87.8953,-19.5 179.895,-19.5 179.895,-0.5 87.8953,-0.5"/>
<text text-anchor="middle" x="133.895" y="-7.5" font-family="Helvetica,sans-Serif" font-size="10.00">MainWindow.cpp</text>
</a>
</g>
</g>
<!-- Node6&#45;&gt;Node8 -->
<g id="edge7" class="edge"><title>Node6&#45;&gt;Node8</title>
<path fill="none" stroke="midnightblue" d="M141.045,-46.1005C139.219,-37.1357 137.126,-26.8579 135.678,-19.7511"/>
<polygon fill="midnightblue" stroke="midnightblue" points="137.653,-46.9829 143.079,-56.083 144.512,-45.5856 137.653,-46.9829"/>
</g>
<!-- Node9&#45;&gt;Node10 -->
<g id="edge9" class="edge"><title>Node9&#45;&gt;Node10</title>
<path fill="none" stroke="midnightblue" d="M474.775,-102.69C471.236,-93.589 467.123,-83.0141 464.299,-75.7511"/>
<polygon fill="midnightblue" stroke="midnightblue" points="471.541,-104.032 478.428,-112.083 478.065,-101.494 471.541,-104.032"/>
</g>
<!-- Node9&#45;&gt;Node12 -->
<g id="edge12" class="edge"><title>Node9&#45;&gt;Node12</title>
<path fill="none" stroke="midnightblue" d="M509.615,-108.096C531.287,-98.0073 560.797,-84.2697 579.601,-75.5164"/>
<polygon fill="midnightblue" stroke="midnightblue" points="507.865,-105.05 500.276,-112.444 510.819,-111.396 507.865,-105.05"/>
</g>
<!-- Node14 -->
<g id="node14" class="node"><title>Node14</title>
<g id="a_node14"><a xlink:href="road_8cpp.html" target="_top" xlink:title="road.cpp">
<polygon fill="none" stroke="black" points="499.895,-56.5 499.895,-75.5 553.895,-75.5 553.895,-56.5 499.895,-56.5"/>
<text text-anchor="middle" x="526.895" y="-63.5" font-family="Helvetica,sans-Serif" font-size="10.00">road.cpp</text>
</a>
</g>
</g>
<!-- Node9&#45;&gt;Node14 -->
<g id="edge15" class="edge"><title>Node9&#45;&gt;Node14</title>
<path fill="none" stroke="midnightblue" d="M495.942,-104.144C503.782,-94.7357 513.225,-83.4046 519.603,-75.7511"/>
<polygon fill="midnightblue" stroke="midnightblue" points="493.039,-102.16 489.326,-112.083 498.417,-106.641 493.039,-102.16"/>
</g>
<!-- Node10&#45;&gt;Node7 -->
<g id="edge11" class="edge"><title>Node10&#45;&gt;Node7</title>
<path fill="none" stroke="midnightblue" d="M430.557,-56.0745C361.483,-38.3488 291.749,-23.9682 253.907,-16.452"/>
<polygon fill="midnightblue" stroke="midnightblue" points="429.738,-59.4778 440.296,-58.5976 431.493,-52.7015 429.738,-59.4778"/>
</g>
<!-- Node11 -->
<g id="node11" class="node"><title>Node11</title>
<g id="a_node11"><a xlink:href="grid_8cpp.html" target="_top" xlink:title="grid.cpp">
<polygon fill="none" stroke="black" points="435.395,-0.5 435.395,-19.5 486.395,-19.5 486.395,-0.5 435.395,-0.5"/>
<text text-anchor="middle" x="460.895" y="-7.5" font-family="Helvetica,sans-Serif" font-size="10.00">grid.cpp</text>
</a>
</g>
</g>
<!-- Node10&#45;&gt;Node11 -->
<g id="edge10" class="edge"><title>Node10&#45;&gt;Node11</title>
<path fill="none" stroke="midnightblue" d="M460.895,-45.8045C460.895,-36.9102 460.895,-26.7798 460.895,-19.7511"/>
<polygon fill="midnightblue" stroke="midnightblue" points="457.395,-46.083 460.895,-56.083 464.395,-46.083 457.395,-46.083"/>
</g>
<!-- Node12&#45;&gt;Node7 -->
<g id="edge13" class="edge"><title>Node12&#45;&gt;Node7</title>
<path fill="none" stroke="midnightblue" d="M562.239,-56.0994C441.89,-33.105 310.532,-19.1074 254.04,-13.6149"/>
<polygon fill="midnightblue" stroke="midnightblue" points="561.878,-59.5944 572.361,-58.06 563.209,-52.7221 561.878,-59.5944"/>
</g>
<!-- Node13 -->
<g id="node13" class="node"><title>Node13</title>
<g id="a_node13"><a xlink:href="solver_8cpp.html" target="_top" xlink:title="solver.cpp">
<polygon fill="none" stroke="black" points="566.895,-0.5 566.895,-19.5 628.895,-19.5 628.895,-0.5 566.895,-0.5"/>
<text text-anchor="middle" x="597.895" y="-7.5" font-family="Helvetica,sans-Serif" font-size="10.00">solver.cpp</text>
</a>
</g>
</g>
<!-- Node12&#45;&gt;Node13 -->
<g id="edge14" class="edge"><title>Node12&#45;&gt;Node13</title>
<path fill="none" stroke="midnightblue" d="M597.895,-45.8045C597.895,-36.9102 597.895,-26.7798 597.895,-19.7511"/>
<polygon fill="midnightblue" stroke="midnightblue" points="594.395,-46.083 597.895,-56.083 601.395,-46.083 594.395,-46.083"/>
</g>
<!-- Node16 -->
<g id="node16" class="node"><title>Node16</title>
<g id="a_node16"><a xlink:href="controller_8cpp.html" target="_top" xlink:title="controller.cpp">
<polygon fill="none" stroke="black" points="242.395,-56.5 242.395,-75.5 317.395,-75.5 317.395,-56.5 242.395,-56.5"/>
<text text-anchor="middle" x="279.895" y="-63.5" font-family="Helvetica,sans-Serif" font-size="10.00">controller.cpp</text>
</a>
</g>
</g>
<!-- Node15&#45;&gt;Node16 -->
<g id="edge18" class="edge"><title>Node15&#45;&gt;Node16</title>
<path fill="none" stroke="midnightblue" d="M278.606,-101.805C278.936,-92.9102 279.311,-82.7798 279.571,-75.7511"/>
<polygon fill="midnightblue" stroke="midnightblue" points="275.098,-101.96 278.226,-112.083 282.093,-102.219 275.098,-101.96"/>
</g>
<!-- Node18 -->
<g id="node18" class="node"><title>Node18</title>
<g id="a_node18"><a xlink:href="sauvegarde_8cpp.html" target="_top" xlink:title="sauvegarde.cpp">
<polygon fill="none" stroke="black" points="335.895,-56.5 335.895,-75.5 421.895,-75.5 421.895,-56.5 335.895,-56.5"/>
<text text-anchor="middle" x="378.895" y="-63.5" font-family="Helvetica,sans-Serif" font-size="10.00">sauvegarde.cpp</text>
</a>
</g>
</g>
<!-- Node17&#45;&gt;Node18 -->
<g id="edge21" class="edge"><title>Node17&#45;&gt;Node18</title>
<path fill="none" stroke="midnightblue" d="M370.445,-102.101C372.603,-93.1357 375.078,-82.8579 376.789,-75.7511"/>
<polygon fill="midnightblue" stroke="midnightblue" points="366.98,-101.542 368.042,-112.083 373.785,-103.18 366.98,-101.542"/>
</g>
<!-- Node21&#45;&gt;Node9 -->
<g id="edge27" class="edge"><title>Node21&#45;&gt;Node9</title>
<path fill="none" stroke="midnightblue" d="M640.415,-165.8C599.024,-154.625 536.994,-137.877 504.149,-129.008"/>
<polygon fill="midnightblue" stroke="midnightblue" points="639.638,-169.216 650.205,-168.444 641.463,-162.458 639.638,-169.216"/>
</g>
<!-- Node21&#45;&gt;Node12 -->
<g id="edge28" class="edge"><title>Node21&#45;&gt;Node12</title>
<path fill="none" stroke="midnightblue" d="M663.757,-161.894C654.479,-153.633 643.385,-142.886 634.895,-132 620.522,-113.569 608.069,-88.9215 601.942,-75.9115"/>
<polygon fill="midnightblue" stroke="midnightblue" points="661.481,-164.552 671.331,-168.453 666.063,-159.261 661.481,-164.552"/>
</g>
<!-- Node22 -->
<g id="node22" class="node"><title>Node22</title>
<g id="a_node22"><a xlink:href="pointroad_8cpp.html" target="_top" xlink:title="pointroad.cpp">
<polygon fill="none" stroke="black" points="644.395,-112.5 644.395,-131.5 719.395,-131.5 719.395,-112.5 644.395,-112.5"/>
<text text-anchor="middle" x="681.895" y="-119.5" font-family="Helvetica,sans-Serif" font-size="10.00">pointroad.cpp</text>
</a>
</g>
</g>
<!-- Node21&#45;&gt;Node22 -->
<g id="edge29" class="edge"><title>Node21&#45;&gt;Node22</title>
<path fill="none" stroke="midnightblue" d="M681.895,-157.805C681.895,-148.91 681.895,-138.78 681.895,-131.751"/>
<polygon fill="midnightblue" stroke="midnightblue" points="678.395,-158.083 681.895,-168.083 685.395,-158.083 678.395,-158.083"/>
</g>
<!-- Node24 -->
<g id="node24" class="node"><title>Node24</title>
<g id="a_node24"><a xlink:href="box_8cpp.html" target="_top" xlink:title="box.cpp">
<polygon fill="none" stroke="black" points="732.395,-168.5 732.395,-187.5 783.395,-187.5 783.395,-168.5 732.395,-168.5"/>
<text text-anchor="middle" x="757.895" y="-175.5" font-family="Helvetica,sans-Serif" font-size="10.00">box.cpp</text>
</a>
</g>
</g>
<!-- Node23&#45;&gt;Node24 -->
<g id="edge31" class="edge"><title>Node23&#45;&gt;Node24</title>
<path fill="none" stroke="midnightblue" d="M782.95,-215.566C776.584,-206.275 769.029,-195.248 763.891,-187.751"/>
<polygon fill="midnightblue" stroke="midnightblue" points="780.246,-217.812 788.786,-224.083 786.02,-213.855 780.246,-217.812"/>
</g>
<!-- Node25 -->
<g id="node25" class="node"><title>Node25</title>
<g id="a_node25"><a xlink:href="boxnode_8h.html" target="_top" xlink:title="boxnode.h">
<polygon fill="none" stroke="black" points="801.895,-168.5 801.895,-187.5 863.895,-187.5 863.895,-168.5 801.895,-168.5"/>
<text text-anchor="middle" x="832.895" y="-175.5" font-family="Helvetica,sans-Serif" font-size="10.00">boxnode.h</text>
</a>
</g>
</g>
<!-- Node23&#45;&gt;Node25 -->
<g id="edge32" class="edge"><title>Node23&#45;&gt;Node25</title>
<path fill="none" stroke="midnightblue" d="M806.96,-215.855C813.54,-206.505 821.406,-195.327 826.737,-187.751"/>
<polygon fill="midnightblue" stroke="midnightblue" points="804.063,-213.891 801.17,-224.083 809.788,-217.919 804.063,-213.891"/>
</g>
<!-- Node26 -->
<g id="node26" class="node"><title>Node26</title>
<g id="a_node26"><a xlink:href="boxnode_8cpp.html" target="_top" xlink:title="boxnode.cpp">
<polygon fill="none" stroke="black" points="775.895,-112.5 775.895,-131.5 847.895,-131.5 847.895,-112.5 775.895,-112.5"/>
<text text-anchor="middle" x="811.895" y="-119.5" font-family="Helvetica,sans-Serif" font-size="10.00">boxnode.cpp</text>
</a>
</g>
</g>
<!-- Node25&#45;&gt;Node26 -->
<g id="edge33" class="edge"><title>Node25&#45;&gt;Node26</title>
<path fill="none" stroke="midnightblue" d="M825.775,-158.69C822.236,-149.589 818.123,-139.014 815.299,-131.751"/>
<polygon fill="midnightblue" stroke="midnightblue" points="822.541,-160.032 829.428,-168.083 829.065,-157.494 822.541,-160.032"/>
</g>
<!-- Node25&#45;&gt;Node27 -->
<g id="edge34" class="edge"><title>Node25&#45;&gt;Node27</title>
<path fill="none" stroke="midnightblue" d="M849.79,-161.537C860.31,-151.909 873.464,-139.869 882.243,-131.834"/>
<polygon fill="midnightblue" stroke="midnightblue" points="847.388,-158.99 842.375,-168.324 852.115,-164.154 847.388,-158.99"/>
</g>
<!-- Node28 -->
<g id="node28" class="node"><title>Node28</title>
<g id="a_node28"><a xlink:href="kdtree_8cpp.html" target="_top" xlink:title="kdtree.cpp">
<polygon fill="none" stroke="black" points="860.895,-56.5 860.895,-75.5 922.895,-75.5 922.895,-56.5 860.895,-56.5"/>
<text text-anchor="middle" x="891.895" y="-63.5" font-family="Helvetica,sans-Serif" font-size="10.00">kdtree.cpp</text>
</a>
</g>
</g>
<!-- Node27&#45;&gt;Node28 -->
<g id="edge35" class="edge"><title>Node27&#45;&gt;Node28</title>
<path fill="none" stroke="midnightblue" d="M891.895,-101.805C891.895,-92.9102 891.895,-82.7798 891.895,-75.7511"/>
<polygon fill="midnightblue" stroke="midnightblue" points="888.395,-102.083 891.895,-112.083 895.395,-102.083 888.395,-102.083"/>
</g>
</g>
</svg>
        <g id="navigator" transform="translate(0 0)" fill="#404254">
                <rect fill="#f2f5e9" fill-opacity="0.5" stroke="#606060" stroke-width=".5" x="0" y="0" width="60" height="60"/>
                <use id="zoomplus" xlink:href="#zoomPlus" x="17" y="9" onmousedown="handleZoom(evt,'in')"/>
                <use id="zoomminus" xlink:href="#zoomMin" x="42" y="9" onmousedown="handleZoom(evt,'out')"/>
                <use id="reset" xlink:href="#resetDef" x="30" y="36" onmousedown="handleReset()"/>
                <g id="arrowUp" xlink:href="#dirArrow" transform="translate(30 24)" onmousedown="handlePan(0,-1)">
                  <use xlink:href="#rim" fill="#404040">
                        <set attributeName="fill" to="#808080" begin="arrowUp.mouseover" end="arrowUp.mouseout"/>
                  </use>
                  <path fill="none" stroke="white" stroke-width="1.5" d="M0,-3.0v7 M-2.5,-0.5L0,-3.0L2.5,-0.5"/>
                </g>
                <g id="arrowRight" xlink:href="#dirArrow" transform="rotate(90) translate(36 -43)" onmousedown="handlePan(1,0)">
                  <use xlink:href="#rim" fill="#404040">
                        <set attributeName="fill" to="#808080" begin="arrowRight.mouseover" end="arrowRight.mouseout"/>
                  </use>
                  <path fill="none" stroke="white" stroke-width="1.5" d="M0,-3.0v7 M-2.5,-0.5L0,-3.0L2.5,-0.5"/>
                </g>
                <g id="arrowDown" xlink:href="#dirArrow" transform="rotate(180) translate(-30 -48)" onmousedown="handlePan(0,1)">
                  <use xlink:href="#rim" fill="#404040">
                        <set attributeName="fill" to="#808080" begin="arrowDown.mouseover" end="arrowDown.mouseout"/>
                  </use>
                  <path fill="none" stroke="white" stroke-width="1.5" d="M0,-3.0v7 M-2.5,-0.5L0,-3.0L2.5,-0.5"/>
                </g>
                <g id="arrowLeft" xlink:href="#dirArrow" transform="rotate(270) translate(-36 17)" onmousedown="handlePan(-1,0)">
                  <use xlink:href="#rim" fill="#404040">
                        <set attributeName="fill" to="#808080" begin="arrowLeft.mouseover" end="arrowLeft.mouseout"/>
                  </use>
                  <path fill="none" stroke="white" stroke-width="1.5" d="M0,-3.0v7 M-2.5,-0.5L0,-3.0L2.5,-0.5"/>
                </g>
        </g>
        <svg viewBox="0 0 15 15" width="100%" height="30px" preserveAspectRatio="xMaxYMin meet">
         <g id="arrow_out" transform="scale(0.3 0.3)">
          <a xlink:href="point_8h__dep__incl_org.svg" target="_base">
           <rect id="button" ry="5" rx="5" y="6" x="6" height="38" width="38"
                fill="#f2f5e9" fill-opacity="0.5" stroke="#606060" stroke-width="1.0"/>
           <path id="arrow"
             d="M 11.500037,31.436501 C 11.940474,20.09759 22.043105,11.32322 32.158766,21.979434 L 37.068811,17.246167 C 37.068811,17.246167 37.088388,32 37.088388,32 L 22.160133,31.978069 C 22.160133,31.978069 26.997745,27.140456 26.997745,27.140456 C 18.528582,18.264221 13.291696,25.230495 11.500037,31.436501 z"
             style="fill:#404040;"/>
          </a>
         </g>
        </svg>
</svg>
