<?xml version="1.0" encoding="UTF-8" standalone="no"?>
<!DOCTYPE svg PUBLIC "-//W3C//DTD SVG 1.1//EN"
 "http://www.w3.org/Graphics/SVG/1.1/DTD/svg11.dtd">
<!-- Generated by graphviz version 2.38.0 (20140413.2041)
 -->
<!-- Title: pointroad.h Pages: 1 -->
<svg width="274pt" height="196pt"
 viewBox="0.00 0.00 274.00 196.00" xmlns="http://www.w3.org/2000/svg" xmlns:xlink="http://www.w3.org/1999/xlink">
<g id="graph0" class="graph" transform="scale(1 1) rotate(0) translate(4 192)">
<title>pointroad.h</title>
<!-- Node1 -->
<g id="node1" class="node"><title>Node1</title>
<polygon fill="#bfbfbf" stroke="black" points="130,-168.5 130,-187.5 195,-187.5 195,-168.5 130,-168.5"/>
<text text-anchor="middle" x="162.5" y="-175.5" font-family="Helvetica,sans-Serif" font-size="10.00">pointroad.h</text>
</g>
<!-- Node2 -->
<g id="node2" class="node"><title>Node2</title>
<g id="a_node2"><a xlink:href="road_8h.html" target="_top" xlink:title="road.h">
<polygon fill="none" stroke="black" points="80.5,-112.5 80.5,-131.5 124.5,-131.5 124.5,-112.5 80.5,-112.5"/>
<text text-anchor="middle" x="102.5" y="-119.5" font-family="Helvetica,sans-Serif" font-size="10.00">road.h</text>
</a>
</g>
</g>
<!-- Node1&#45;&gt;Node2 -->
<g id="edge1" class="edge"><title>Node1&#45;&gt;Node2</title>
<path fill="none" stroke="midnightblue" d="M145.319,-161.537C134.621,-151.909 121.244,-139.869 112.315,-131.834"/>
<polygon fill="midnightblue" stroke="midnightblue" points="143.086,-164.236 152.86,-168.324 147.768,-159.033 143.086,-164.236"/>
</g>
<!-- Node6 -->
<g id="node6" class="node"><title>Node6</title>
<g id="a_node6"><a xlink:href="solver_8h.html" target="_top" xlink:title="solver.h">
<polygon fill="none" stroke="black" points="143,-56.5 143,-75.5 194,-75.5 194,-56.5 143,-56.5"/>
<text text-anchor="middle" x="168.5" y="-63.5" font-family="Helvetica,sans-Serif" font-size="10.00">solver.h</text>
</a>
</g>
</g>
<!-- Node1&#45;&gt;Node6 -->
<g id="edge9" class="edge"><title>Node1&#45;&gt;Node6</title>
<path fill="none" stroke="midnightblue" d="M163.517,-158.348C164.832,-134.254 167.065,-93.3079 168.031,-75.5914"/>
<polygon fill="midnightblue" stroke="midnightblue" points="160.021,-158.193 162.971,-168.368 167.01,-158.574 160.021,-158.193"/>
</g>
<!-- Node9 -->
<g id="node9" class="node"><title>Node9</title>
<g id="a_node9"><a xlink:href="pointroad_8cpp.html" target="_top" xlink:title="pointroad.cpp">
<polygon fill="none" stroke="black" points="191,-112.5 191,-131.5 266,-131.5 266,-112.5 191,-112.5"/>
<text text-anchor="middle" x="228.5" y="-119.5" font-family="Helvetica,sans-Serif" font-size="10.00">pointroad.cpp</text>
</a>
</g>
</g>
<!-- Node1&#45;&gt;Node9 -->
<g id="edge10" class="edge"><title>Node1&#45;&gt;Node9</title>
<path fill="none" stroke="midnightblue" d="M181.054,-161.82C192.878,-152.145 207.786,-139.948 217.703,-131.834"/>
<polygon fill="midnightblue" stroke="midnightblue" points="178.627,-159.283 173.104,-168.324 183.06,-164.7 178.627,-159.283"/>
</g>
<!-- Node3 -->
<g id="node3" class="node"><title>Node3</title>
<g id="a_node3"><a xlink:href="grid_8h.html" target="_top" xlink:title="grid.h">
<polygon fill="none" stroke="black" points="11,-56.5 11,-75.5 52,-75.5 52,-56.5 11,-56.5"/>
<text text-anchor="middle" x="31.5" y="-63.5" font-family="Helvetica,sans-Serif" font-size="10.00">grid.h</text>
</a>
</g>
</g>
<!-- Node2&#45;&gt;Node3 -->
<g id="edge2" class="edge"><title>Node2&#45;&gt;Node3</title>
<path fill="none" stroke="midnightblue" d="M82.9103,-106.101C70.1324,-96.3824 53.8873,-84.0269 43.1149,-75.8339"/>
<polygon fill="midnightblue" stroke="midnightblue" points="81.0143,-109.056 91.0926,-112.324 85.2519,-103.484 81.0143,-109.056"/>
</g>
<!-- Node2&#45;&gt;Node6 -->
<g id="edge5" class="edge"><title>Node2&#45;&gt;Node6</title>
<path fill="none" stroke="midnightblue" d="M121.054,-105.82C132.878,-96.1452 147.786,-83.9481 157.703,-75.8339"/>
<polygon fill="midnightblue" stroke="midnightblue" points="118.627,-103.283 113.104,-112.324 123.06,-108.7 118.627,-103.283"/>
</g>
<!-- Node8 -->
<g id="node8" class="node"><title>Node8</title>
<g id="a_node8"><a xlink:href="road_8cpp.html" target="_top" xlink:title="road.cpp">
<polygon fill="none" stroke="black" points="70.5,-56.5 70.5,-75.5 124.5,-75.5 124.5,-56.5 70.5,-56.5"/>
<text text-anchor="middle" x="97.5" y="-63.5" font-family="Helvetica,sans-Serif" font-size="10.00">road.cpp</text>
</a>
</g>
</g>
<!-- Node2&#45;&gt;Node8 -->
<g id="edge8" class="edge"><title>Node2&#45;&gt;Node8</title>
<path fill="none" stroke="midnightblue" d="M100.75,-102.101C99.92,-93.1357 98.9683,-82.8579 98.3103,-75.7511"/>
<polygon fill="midnightblue" stroke="midnightblue" points="97.2672,-102.448 101.674,-112.083 104.237,-101.803 97.2672,-102.448"/>
</g>
<!-- Node4 -->
<g id="node4" class="node"><title>Node4</title>
<g id="a_node4"><a xlink:href="grid_8cpp.html" target="_top" xlink:title="grid.cpp">
<polygon fill="none" stroke="black" points="0,-0.5 0,-19.5 51,-19.5 51,-0.5 0,-0.5"/>
<text text-anchor="middle" x="25.5" y="-7.5" font-family="Helvetica,sans-Serif" font-size="10.00">grid.cpp</text>
</a>
</g>
</g>
<!-- Node3&#45;&gt;Node4 -->
<g id="edge3" class="edge"><title>Node3&#45;&gt;Node4</title>
<path fill="none" stroke="midnightblue" d="M29.4001,-46.1005C28.404,-37.1357 27.262,-26.8579 26.4723,-19.7511"/>
<polygon fill="midnightblue" stroke="midnightblue" points="25.9262,-46.5307 30.5092,-56.083 32.8834,-45.7576 25.9262,-46.5307"/>
</g>
<!-- Node5 -->
<g id="node5" class="node"><title>Node5</title>
<g id="a_node5"><a xlink:href="main_8cpp.html" target="_top" xlink:title="main.cpp">
<polygon fill="none" stroke="black" points="69.5,-0.5 69.5,-19.5 125.5,-19.5 125.5,-0.5 69.5,-0.5"/>
<text text-anchor="middle" x="97.5" y="-7.5" font-family="Helvetica,sans-Serif" font-size="10.00">main.cpp</text>
</a>
</g>
</g>
<!-- Node3&#45;&gt;Node5 -->
<g id="edge4" class="edge"><title>Node3&#45;&gt;Node5</title>
<path fill="none" stroke="midnightblue" d="M50.0537,-49.8197C61.8781,-40.1452 76.7856,-27.9481 86.703,-19.8339"/>
<polygon fill="midnightblue" stroke="midnightblue" points="47.6273,-47.2827 42.104,-56.324 52.06,-52.7004 47.6273,-47.2827"/>
</g>
<!-- Node6&#45;&gt;Node5 -->
<g id="edge6" class="edge"><title>Node6&#45;&gt;Node5</title>
<path fill="none" stroke="midnightblue" d="M148.91,-50.1008C136.132,-40.3824 119.887,-28.0269 109.115,-19.8339"/>
<polygon fill="midnightblue" stroke="midnightblue" points="147.014,-53.0561 157.093,-56.324 151.252,-47.4844 147.014,-53.0561"/>
</g>
<!-- Node7 -->
<g id="node7" class="node"><title>Node7</title>
<g id="a_node7"><a xlink:href="solver_8cpp.html" target="_top" xlink:title="solver.cpp">
<polygon fill="none" stroke="black" points="143.5,-0.5 143.5,-19.5 205.5,-19.5 205.5,-0.5 143.5,-0.5"/>
<text text-anchor="middle" x="174.5" y="-7.5" font-family="Helvetica,sans-Serif" font-size="10.00">solver.cpp</text>
</a>
</g>
</g>
<!-- Node6&#45;&gt;Node7 -->
<g id="edge7" class="edge"><title>Node6&#45;&gt;Node7</title>
<path fill="none" stroke="midnightblue" d="M170.6,-46.1005C171.596,-37.1357 172.738,-26.8579 173.528,-19.7511"/>
<polygon fill="midnightblue" stroke="midnightblue" points="167.117,-45.7576 169.491,-56.083 174.074,-46.5307 167.117,-45.7576"/>
</g>
</g>
</svg>
