<?xml version="1.0" encoding="UTF-8" standalone="no"?>
<!DOCTYPE svg PUBLIC "-//W3C//DTD SVG 1.1//EN"
 "http://www.w3.org/Graphics/SVG/1.1/DTD/svg11.dtd">
<!-- Generated by graphviz version 2.38.0 (20140413.2041)
 -->
<!-- Title: pointroad.h Pages: 1 -->
<svg width="432pt" height="364pt"
 viewBox="0.00 0.00 432.00 364.00" xmlns="http://www.w3.org/2000/svg" xmlns:xlink="http://www.w3.org/1999/xlink">
<g id="graph0" class="graph" transform="scale(1 1) rotate(0) translate(4 360)">
<title>pointroad.h</title>
<!-- Node1 -->
<g id="node1" class="node"><title>Node1</title>
<polygon fill="#bfbfbf" stroke="black" points="212.5,-336.5 212.5,-355.5 277.5,-355.5 277.5,-336.5 212.5,-336.5"/>
<text text-anchor="middle" x="245" y="-343.5" font-family="Helvetica,sans-Serif" font-size="10.00">pointroad.h</text>
</g>
<!-- Node2 -->
<g id="node2" class="node"><title>Node2</title>
<g id="a_node2"><a xlink:href="road_8h.html" target="_top" xlink:title="road.h">
<polygon fill="none" stroke="black" points="154,-280.5 154,-299.5 198,-299.5 198,-280.5 154,-280.5"/>
<text text-anchor="middle" x="176" y="-287.5" font-family="Helvetica,sans-Serif" font-size="10.00">road.h</text>
</a>
</g>
</g>
<!-- Node1&#45;&gt;Node2 -->
<g id="edge1" class="edge"><title>Node1&#45;&gt;Node2</title>
<path fill="none" stroke="midnightblue" d="M225.962,-330.101C213.544,-320.382 197.757,-308.027 187.288,-299.834"/>
<polygon fill="midnightblue" stroke="midnightblue" points="223.882,-332.917 233.914,-336.324 228.196,-327.405 223.882,-332.917"/>
</g>
<!-- Node5 -->
<g id="node5" class="node"><title>Node5</title>
<g id="a_node5"><a xlink:href="solver_8h.html" target="_top" xlink:title="solver.h">
<polygon fill="none" stroke="black" points="163.5,-168.5 163.5,-187.5 214.5,-187.5 214.5,-168.5 163.5,-168.5"/>
<text text-anchor="middle" x="189" y="-175.5" font-family="Helvetica,sans-Serif" font-size="10.00">solver.h</text>
</a>
</g>
</g>
<!-- Node1&#45;&gt;Node5 -->
<g id="edge24" class="edge"><title>Node1&#45;&gt;Node5</title>
<path fill="none" stroke="midnightblue" d="M238.724,-326.395C226.643,-290.585 200.585,-213.342 191.89,-187.568"/>
<polygon fill="midnightblue" stroke="midnightblue" points="235.476,-327.719 241.989,-336.075 242.109,-325.481 235.476,-327.719"/>
</g>
<!-- Node12 -->
<g id="node12" class="node"><title>Node12</title>
<g id="a_node12"><a xlink:href="qmapscene_8h.html" target="_top" xlink:title="qmapscene.h">
<polygon fill="none" stroke="black" points="254.5,-224.5 254.5,-243.5 329.5,-243.5 329.5,-224.5 254.5,-224.5"/>
<text text-anchor="middle" x="292" y="-231.5" font-family="Helvetica,sans-Serif" font-size="10.00">qmapscene.h</text>
</a>
</g>
</g>
<!-- Node1&#45;&gt;Node12 -->
<g id="edge23" class="edge"><title>Node1&#45;&gt;Node12</title>
<path fill="none" stroke="midnightblue" d="M252.692,-326.998C262.947,-302.997 280.691,-261.468 288.329,-243.591"/>
<polygon fill="midnightblue" stroke="midnightblue" points="249.399,-325.798 248.688,-336.368 255.836,-328.548 249.399,-325.798"/>
</g>
<!-- Node17 -->
<g id="node17" class="node"><title>Node17</title>
<g id="a_node17"><a xlink:href="pointroad_8cpp.html" target="_top" xlink:title="pointroad.cpp">
<polygon fill="none" stroke="black" points="292.5,-280.5 292.5,-299.5 367.5,-299.5 367.5,-280.5 292.5,-280.5"/>
<text text-anchor="middle" x="330" y="-287.5" font-family="Helvetica,sans-Serif" font-size="10.00">pointroad.cpp</text>
</a>
</g>
</g>
<!-- Node1&#45;&gt;Node17 -->
<g id="edge25" class="edge"><title>Node1&#45;&gt;Node17</title>
<path fill="none" stroke="midnightblue" d="M267.194,-330.901C282.78,-320.999 303.13,-308.071 316.377,-299.655"/>
<polygon fill="midnightblue" stroke="midnightblue" points="265.221,-328.007 258.657,-336.324 268.974,-333.916 265.221,-328.007"/>
</g>
<!-- Node3 -->
<g id="node3" class="node"><title>Node3</title>
<g id="a_node3"><a xlink:href="grid_8h.html" target="_top" xlink:title="grid.h">
<polygon fill="none" stroke="black" points="46.5,-224.5 46.5,-243.5 87.5,-243.5 87.5,-224.5 46.5,-224.5"/>
<text text-anchor="middle" x="67" y="-231.5" font-family="Helvetica,sans-Serif" font-size="10.00">grid.h</text>
</a>
</g>
</g>
<!-- Node2&#45;&gt;Node3 -->
<g id="edge2" class="edge"><title>Node2&#45;&gt;Node3</title>
<path fill="none" stroke="midnightblue" d="M149.481,-275.862C129.27,-265.849 102.013,-252.346 84.4693,-243.655"/>
<polygon fill="midnightblue" stroke="midnightblue" points="147.973,-279.021 158.487,-280.324 151.08,-272.748 147.973,-279.021"/>
</g>
<!-- Node2&#45;&gt;Node5 -->
<g id="edge21" class="edge"><title>Node2&#45;&gt;Node5</title>
<path fill="none" stroke="midnightblue" d="M178.204,-270.348C181.052,-246.254 185.891,-205.308 187.985,-187.591"/>
<polygon fill="midnightblue" stroke="midnightblue" points="174.718,-270.027 177.02,-280.368 181.67,-270.848 174.718,-270.027"/>
</g>
<!-- Node2&#45;&gt;Node12 -->
<g id="edge16" class="edge"><title>Node2&#45;&gt;Node12</title>
<path fill="none" stroke="midnightblue" d="M203.72,-276.096C225.392,-266.007 254.902,-252.27 273.705,-243.516"/>
<polygon fill="midnightblue" stroke="midnightblue" points="201.969,-273.05 194.381,-280.444 204.923,-279.396 201.969,-273.05"/>
</g>
<!-- Node16 -->
<g id="node16" class="node"><title>Node16</title>
<g id="a_node16"><a xlink:href="road_8cpp.html" target="_top" xlink:title="road.cpp">
<polygon fill="none" stroke="black" points="106,-224.5 106,-243.5 160,-243.5 160,-224.5 106,-224.5"/>
<text text-anchor="middle" x="133" y="-231.5" font-family="Helvetica,sans-Serif" font-size="10.00">road.cpp</text>
</a>
</g>
</g>
<!-- Node2&#45;&gt;Node16 -->
<g id="edge22" class="edge"><title>Node2&#45;&gt;Node16</title>
<path fill="none" stroke="midnightblue" d="M162.578,-272.144C155.086,-262.736 146.063,-251.405 139.968,-243.751"/>
<polygon fill="midnightblue" stroke="midnightblue" points="159.932,-274.44 168.899,-280.083 165.408,-270.08 159.932,-274.44"/>
</g>
<!-- Node4 -->
<g id="node4" class="node"><title>Node4</title>
<g id="a_node4"><a xlink:href="grid_8cpp.html" target="_top" xlink:title="grid.cpp">
<polygon fill="none" stroke="black" points="94.5,-168.5 94.5,-187.5 145.5,-187.5 145.5,-168.5 94.5,-168.5"/>
<text text-anchor="middle" x="120" y="-175.5" font-family="Helvetica,sans-Serif" font-size="10.00">grid.cpp</text>
</a>
</g>
</g>
<!-- Node3&#45;&gt;Node4 -->
<g id="edge3" class="edge"><title>Node3&#45;&gt;Node4</title>
<path fill="none" stroke="midnightblue" d="M82.9809,-216.718C92.3225,-207.2 103.746,-195.561 111.411,-187.751"/>
<polygon fill="midnightblue" stroke="midnightblue" points="80.2587,-214.494 75.7519,-224.083 85.2545,-219.398 80.2587,-214.494"/>
</g>
<!-- Node3&#45;&gt;Node5 -->
<g id="edge4" class="edge"><title>Node3&#45;&gt;Node5</title>
<path fill="none" stroke="midnightblue" d="M95.5395,-220.368C118.386,-210.255 149.805,-196.349 169.759,-187.516"/>
<polygon fill="midnightblue" stroke="midnightblue" points="94.0589,-217.196 86.3313,-224.444 96.8922,-223.597 94.0589,-217.196"/>
</g>
<!-- Node8 -->
<g id="node8" class="node"><title>Node8</title>
<g id="a_node8"><a xlink:href="main_8cpp.html" target="_top" xlink:title="main.cpp">
<polygon fill="none" stroke="black" points="0,-0.5 0,-19.5 56,-19.5 56,-0.5 0,-0.5"/>
<text text-anchor="middle" x="28" y="-7.5" font-family="Helvetica,sans-Serif" font-size="10.00">main.cpp</text>
</a>
</g>
</g>
<!-- Node3&#45;&gt;Node8 -->
<g id="edge15" class="edge"><title>Node3&#45;&gt;Node8</title>
<path fill="none" stroke="midnightblue" d="M63.3112,-214.058C57.6148,-184.585 46.4523,-125.942 38,-76 34.6087,-55.9618 31.0988,-32.3644 29.2748,-19.8449"/>
<polygon fill="midnightblue" stroke="midnightblue" points="59.9313,-215.013 65.2717,-224.164 66.8032,-213.68 59.9313,-215.013"/>
</g>
<!-- Node9 -->
<g id="node9" class="node"><title>Node9</title>
<g id="a_node9"><a xlink:href="_main_window_8h.html" target="_top" xlink:title="MainWindow.h">
<polygon fill="none" stroke="black" points="74.5,-56.5 74.5,-75.5 155.5,-75.5 155.5,-56.5 74.5,-56.5"/>
<text text-anchor="middle" x="115" y="-63.5" font-family="Helvetica,sans-Serif" font-size="10.00">MainWindow.h</text>
</a>
</g>
</g>
<!-- Node3&#45;&gt;Node9 -->
<g id="edge14" class="edge"><title>Node3&#45;&gt;Node9</title>
<path fill="none" stroke="midnightblue" d="M67.2734,-214.152C68.1879,-189.786 71.7422,-146.402 85,-112 90.3348,-98.1571 100.512,-84.2601 107.522,-75.6488"/>
<polygon fill="midnightblue" stroke="midnightblue" points="63.7665,-214.376 67.0055,-224.463 70.7641,-214.558 63.7665,-214.376"/>
</g>
<!-- Node6 -->
<g id="node6" class="node"><title>Node6</title>
<g id="a_node6"><a xlink:href="controller_8h.html" target="_top" xlink:title="controller.h">
<polygon fill="none" stroke="black" points="212.5,-112.5 212.5,-131.5 277.5,-131.5 277.5,-112.5 212.5,-112.5"/>
<text text-anchor="middle" x="245" y="-119.5" font-family="Helvetica,sans-Serif" font-size="10.00">controller.h</text>
</a>
</g>
</g>
<!-- Node5&#45;&gt;Node6 -->
<g id="edge5" class="edge"><title>Node5&#45;&gt;Node6</title>
<path fill="none" stroke="midnightblue" d="M205.33,-161.253C215.265,-151.673 227.588,-139.791 235.839,-131.834"/>
<polygon fill="midnightblue" stroke="midnightblue" points="202.766,-158.863 197.997,-168.324 207.625,-163.902 202.766,-158.863"/>
</g>
<!-- Node5&#45;&gt;Node8 -->
<g id="edge12" class="edge"><title>Node5&#45;&gt;Node8</title>
<path fill="none" stroke="midnightblue" d="M154.246,-164.983C128.223,-155.44 95.4001,-142.074 85,-132 50.8073,-98.8801 34.8251,-41.2125 29.8142,-19.55"/>
<polygon fill="midnightblue" stroke="midnightblue" points="153.23,-168.337 163.825,-168.438 155.606,-161.752 153.23,-168.337"/>
</g>
<!-- Node5&#45;&gt;Node9 -->
<g id="edge11" class="edge"><title>Node5&#45;&gt;Node9</title>
<path fill="none" stroke="midnightblue" d="M184.79,-158.683C181.065,-145.01 174.695,-126.298 165,-112 154.907,-97.1143 138.863,-83.8535 127.681,-75.6494"/>
<polygon fill="midnightblue" stroke="midnightblue" points="181.397,-159.54 187.223,-168.389 188.186,-157.838 181.397,-159.54"/>
</g>
<!-- Node11 -->
<g id="node11" class="node"><title>Node11</title>
<g id="a_node11"><a xlink:href="solver_8cpp.html" target="_top" xlink:title="solver.cpp">
<polygon fill="none" stroke="black" points="94,-112.5 94,-131.5 156,-131.5 156,-112.5 94,-112.5"/>
<text text-anchor="middle" x="125" y="-119.5" font-family="Helvetica,sans-Serif" font-size="10.00">solver.cpp</text>
</a>
</g>
</g>
<!-- Node5&#45;&gt;Node11 -->
<g id="edge13" class="edge"><title>Node5&#45;&gt;Node11</title>
<path fill="none" stroke="midnightblue" d="M171.009,-161.82C159.542,-152.145 145.087,-139.948 135.47,-131.834"/>
<polygon fill="midnightblue" stroke="midnightblue" points="168.817,-164.55 178.717,-168.324 173.331,-159.2 168.817,-164.55"/>
</g>
<!-- Node7 -->
<g id="node7" class="node"><title>Node7</title>
<g id="a_node7"><a xlink:href="controller_8cpp.html" target="_top" xlink:title="controller.cpp">
<polygon fill="none" stroke="black" points="212.5,-56.5 212.5,-75.5 287.5,-75.5 287.5,-56.5 212.5,-56.5"/>
<text text-anchor="middle" x="250" y="-63.5" font-family="Helvetica,sans-Serif" font-size="10.00">controller.cpp</text>
</a>
</g>
</g>
<!-- Node6&#45;&gt;Node7 -->
<g id="edge6" class="edge"><title>Node6&#45;&gt;Node7</title>
<path fill="none" stroke="midnightblue" d="M246.75,-102.101C247.58,-93.1357 248.532,-82.8579 249.19,-75.7511"/>
<polygon fill="midnightblue" stroke="midnightblue" points="243.263,-101.803 245.826,-112.083 250.233,-102.448 243.263,-101.803"/>
</g>
<!-- Node6&#45;&gt;Node8 -->
<g id="edge7" class="edge"><title>Node6&#45;&gt;Node8</title>
<path fill="none" stroke="midnightblue" d="M228.665,-104.933C213.148,-90.4279 188.594,-69.3685 164,-56 145.208,-45.7855 90.2755,-28.983 56.2489,-19.0561"/>
<polygon fill="midnightblue" stroke="midnightblue" points="226.651,-107.85 236.299,-112.227 231.487,-102.788 226.651,-107.85"/>
</g>
<!-- Node6&#45;&gt;Node9 -->
<g id="edge8" class="edge"><title>Node6&#45;&gt;Node9</title>
<path fill="none" stroke="midnightblue" d="M214.915,-108.503C190.543,-98.3795 156.86,-84.388 135.503,-75.5164"/>
<polygon fill="midnightblue" stroke="midnightblue" points="213.823,-111.84 224.401,-112.444 216.509,-105.375 213.823,-111.84"/>
</g>
<!-- Node9&#45;&gt;Node8 -->
<g id="edge9" class="edge"><title>Node9&#45;&gt;Node8</title>
<path fill="none" stroke="midnightblue" d="M92.2842,-50.9005C76.3311,-40.9986 55.5025,-28.0705 41.9434,-19.6545"/>
<polygon fill="midnightblue" stroke="midnightblue" points="90.6797,-54.024 101.022,-56.324 94.3713,-48.0765 90.6797,-54.024"/>
</g>
<!-- Node10 -->
<g id="node10" class="node"><title>Node10</title>
<g id="a_node10"><a xlink:href="_main_window_8cpp.html" target="_top" xlink:title="MainWindow.cpp">
<polygon fill="none" stroke="black" points="74,-0.5 74,-19.5 166,-19.5 166,-0.5 74,-0.5"/>
<text text-anchor="middle" x="120" y="-7.5" font-family="Helvetica,sans-Serif" font-size="10.00">MainWindow.cpp</text>
</a>
</g>
</g>
<!-- Node9&#45;&gt;Node10 -->
<g id="edge10" class="edge"><title>Node9&#45;&gt;Node10</title>
<path fill="none" stroke="midnightblue" d="M116.75,-46.1005C117.58,-37.1357 118.532,-26.8579 119.19,-19.7511"/>
<polygon fill="midnightblue" stroke="midnightblue" points="113.263,-45.8029 115.826,-56.083 120.233,-46.4483 113.263,-45.8029"/>
</g>
<!-- Node13 -->
<g id="node13" class="node"><title>Node13</title>
<g id="a_node13"><a xlink:href="qmapwidget_8h.html" target="_top" xlink:title="qmapwidget.h">
<polygon fill="none" stroke="black" points="242.5,-168.5 242.5,-187.5 319.5,-187.5 319.5,-168.5 242.5,-168.5"/>
<text text-anchor="middle" x="281" y="-175.5" font-family="Helvetica,sans-Serif" font-size="10.00">qmapwidget.h</text>
</a>
</g>
</g>
<!-- Node12&#45;&gt;Node13 -->
<g id="edge17" class="edge"><title>Node12&#45;&gt;Node13</title>
<path fill="none" stroke="midnightblue" d="M288.15,-214.101C286.324,-205.136 284.23,-194.858 282.783,-187.751"/>
<polygon fill="midnightblue" stroke="midnightblue" points="284.758,-214.983 290.184,-224.083 291.617,-213.586 284.758,-214.983"/>
</g>
<!-- Node15 -->
<g id="node15" class="node"><title>Node15</title>
<g id="a_node15"><a xlink:href="qmapscene_8cpp.html" target="_top" xlink:title="qmapscene.cpp">
<polygon fill="none" stroke="black" points="338,-168.5 338,-187.5 424,-187.5 424,-168.5 338,-168.5"/>
<text text-anchor="middle" x="381" y="-175.5" font-family="Helvetica,sans-Serif" font-size="10.00">qmapscene.cpp</text>
</a>
</g>
</g>
<!-- Node12&#45;&gt;Node15 -->
<g id="edge20" class="edge"><title>Node12&#45;&gt;Node15</title>
<path fill="none" stroke="midnightblue" d="M315.238,-218.901C331.558,-208.999 352.865,-196.071 366.736,-187.655"/>
<polygon fill="midnightblue" stroke="midnightblue" points="313.033,-216.144 306.299,-224.324 316.664,-222.129 313.033,-216.144"/>
</g>
<!-- Node13&#45;&gt;Node6 -->
<g id="edge18" class="edge"><title>Node13&#45;&gt;Node6</title>
<path fill="none" stroke="midnightblue" d="M269.377,-159.566C263.183,-150.275 255.832,-139.248 250.834,-131.751"/>
<polygon fill="midnightblue" stroke="midnightblue" points="266.596,-161.704 275.055,-168.083 272.42,-157.821 266.596,-161.704"/>
</g>
<!-- Node14 -->
<g id="node14" class="node"><title>Node14</title>
<g id="a_node14"><a xlink:href="qmapwidget_8cpp.html" target="_top" xlink:title="qmapwidget.cpp">
<polygon fill="none" stroke="black" points="296,-112.5 296,-131.5 384,-131.5 384,-112.5 296,-112.5"/>
<text text-anchor="middle" x="340" y="-119.5" font-family="Helvetica,sans-Serif" font-size="10.00">qmapwidget.cpp</text>
</a>
</g>
</g>
<!-- Node13&#45;&gt;Node14 -->
<g id="edge19" class="edge"><title>Node13&#45;&gt;Node14</title>
<path fill="none" stroke="midnightblue" d="M297.895,-161.537C308.415,-151.909 321.569,-139.869 330.348,-131.834"/>
<polygon fill="midnightblue" stroke="midnightblue" points="295.493,-158.99 290.479,-168.324 300.219,-164.154 295.493,-158.99"/>
</g>
</g>
</svg>
