<?xml version="1.0" encoding="UTF-8" standalone="no"?>
<!DOCTYPE svg PUBLIC "-//W3C//DTD SVG 1.1//EN"
 "http://www.w3.org/Graphics/SVG/1.1/DTD/svg11.dtd">
<!-- Generated by graphviz version 2.38.0 (20140413.2041)
 -->
<!-- Title: pointroad.h Pages: 1 -->
<svg width="460pt" height="364pt"
 viewBox="0.00 0.00 459.53 364.00" xmlns="http://www.w3.org/2000/svg" xmlns:xlink="http://www.w3.org/1999/xlink">
<g id="graph0" class="graph" transform="scale(1 1) rotate(0) translate(4 360)">
<title>pointroad.h</title>
<!-- Node1 -->
<g id="node1" class="node"><title>Node1</title>
<polygon fill="#bfbfbf" stroke="black" points="194.029,-336.5 194.029,-355.5 259.029,-355.5 259.029,-336.5 194.029,-336.5"/>
<text text-anchor="middle" x="226.529" y="-343.5" font-family="Helvetica,sans-Serif" font-size="10.00">pointroad.h</text>
</g>
<!-- Node2 -->
<g id="node2" class="node"><title>Node2</title>
<g id="a_node2"><a xlink:href="road_8h.html" target="_top" xlink:title="road.h">
<polygon fill="none" stroke="black" points="179.529,-280.5 179.529,-299.5 223.529,-299.5 223.529,-280.5 179.529,-280.5"/>
<text text-anchor="middle" x="201.529" y="-287.5" font-family="Helvetica,sans-Serif" font-size="10.00">road.h</text>
</a>
</g>
</g>
<!-- Node1&#45;&gt;Node2 -->
<g id="edge1" class="edge"><title>Node1&#45;&gt;Node2</title>
<path fill="none" stroke="midnightblue" d="M218.188,-326.983C213.944,-317.817 208.979,-307.092 205.581,-299.751"/>
<polygon fill="midnightblue" stroke="midnightblue" points="215.023,-328.479 222.401,-336.083 221.376,-325.538 215.023,-328.479"/>
</g>
<!-- Node5 -->
<g id="node5" class="node"><title>Node5</title>
<g id="a_node5"><a xlink:href="solver_8h.html" target="_top" xlink:title="solver.h">
<polygon fill="none" stroke="black" points="84.0291,-168.5 84.0291,-187.5 135.029,-187.5 135.029,-168.5 84.0291,-168.5"/>
<text text-anchor="middle" x="109.529" y="-175.5" font-family="Helvetica,sans-Serif" font-size="10.00">solver.h</text>
</a>
</g>
</g>
<!-- Node1&#45;&gt;Node5 -->
<g id="edge24" class="edge"><title>Node1&#45;&gt;Node5</title>
<path fill="none" stroke="midnightblue" d="M204.423,-330.705C179.78,-313.423 140.974,-281.891 122.529,-244 113.463,-225.375 110.719,-200.806 109.889,-187.86"/>
<polygon fill="midnightblue" stroke="midnightblue" points="202.563,-333.673 212.797,-336.413 206.505,-327.888 202.563,-333.673"/>
</g>
<!-- Node12 -->
<g id="node12" class="node"><title>Node12</title>
<g id="a_node12"><a xlink:href="qmapscene_8h.html" target="_top" xlink:title="qmapscene.h">
<polygon fill="none" stroke="black" points="280.029,-224.5 280.029,-243.5 355.029,-243.5 355.029,-224.5 280.029,-224.5"/>
<text text-anchor="middle" x="317.529" y="-231.5" font-family="Helvetica,sans-Serif" font-size="10.00">qmapscene.h</text>
</a>
</g>
</g>
<!-- Node1&#45;&gt;Node12 -->
<g id="edge25" class="edge"><title>Node1&#45;&gt;Node12</title>
<path fill="none" stroke="midnightblue" d="M237.01,-327.409C245.387,-313.906 257.797,-295.082 270.529,-280 282.043,-266.361 297.247,-252.416 307.201,-243.739"/>
<polygon fill="midnightblue" stroke="midnightblue" points="233.887,-325.809 231.677,-336.171 239.866,-329.449 233.887,-325.809"/>
</g>
<!-- Node17 -->
<g id="node17" class="node"><title>Node17</title>
<g id="a_node17"><a xlink:href="pointroad_8cpp.html" target="_top" xlink:title="pointroad.cpp">
<polygon fill="none" stroke="black" points="280.029,-280.5 280.029,-299.5 355.029,-299.5 355.029,-280.5 280.029,-280.5"/>
<text text-anchor="middle" x="317.529" y="-287.5" font-family="Helvetica,sans-Serif" font-size="10.00">pointroad.cpp</text>
</a>
</g>
</g>
<!-- Node1&#45;&gt;Node17 -->
<g id="edge26" class="edge"><title>Node1&#45;&gt;Node17</title>
<path fill="none" stroke="midnightblue" d="M249.823,-331.177C266.568,-321.241 288.63,-308.149 302.945,-299.655"/>
<polygon fill="midnightblue" stroke="midnightblue" points="247.964,-328.211 241.15,-336.324 251.536,-334.231 247.964,-328.211"/>
</g>
<!-- Node3 -->
<g id="node3" class="node"><title>Node3</title>
<g id="a_node3"><a xlink:href="grid_8h.html" target="_top" xlink:title="grid.h">
<polygon fill="none" stroke="black" points="148.029,-224.5 148.029,-243.5 189.029,-243.5 189.029,-224.5 148.029,-224.5"/>
<text text-anchor="middle" x="168.529" y="-231.5" font-family="Helvetica,sans-Serif" font-size="10.00">grid.h</text>
</a>
</g>
</g>
<!-- Node2&#45;&gt;Node3 -->
<g id="edge2" class="edge"><title>Node2&#45;&gt;Node3</title>
<path fill="none" stroke="midnightblue" d="M190.697,-271.275C185.057,-262.045 178.411,-251.17 173.877,-243.751"/>
<polygon fill="midnightblue" stroke="midnightblue" points="187.879,-273.375 196.08,-280.083 193.852,-269.725 187.879,-273.375"/>
</g>
<!-- Node2&#45;&gt;Node5 -->
<g id="edge16" class="edge"><title>Node2&#45;&gt;Node5</title>
<path fill="none" stroke="midnightblue" d="M176.191,-275.261C163.58,-267.426 148.863,-256.647 138.529,-244 124.299,-226.585 115.645,-201.079 111.831,-187.788"/>
<polygon fill="midnightblue" stroke="midnightblue" points="174.523,-278.341 184.909,-280.431 178.093,-272.32 174.523,-278.341"/>
</g>
<!-- Node2&#45;&gt;Node12 -->
<g id="edge17" class="edge"><title>Node2&#45;&gt;Node12</title>
<path fill="none" stroke="midnightblue" d="M229.249,-276.096C250.921,-266.007 280.431,-252.27 299.235,-243.516"/>
<polygon fill="midnightblue" stroke="midnightblue" points="227.498,-273.05 219.91,-280.444 230.453,-279.396 227.498,-273.05"/>
</g>
<!-- Node16 -->
<g id="node16" class="node"><title>Node16</title>
<g id="a_node16"><a xlink:href="road_8cpp.html" target="_top" xlink:title="road.cpp">
<polygon fill="none" stroke="black" points="207.529,-224.5 207.529,-243.5 261.529,-243.5 261.529,-224.5 207.529,-224.5"/>
<text text-anchor="middle" x="234.529" y="-231.5" font-family="Helvetica,sans-Serif" font-size="10.00">road.cpp</text>
</a>
</g>
</g>
<!-- Node2&#45;&gt;Node16 -->
<g id="edge23" class="edge"><title>Node2&#45;&gt;Node16</title>
<path fill="none" stroke="midnightblue" d="M212.361,-271.275C218.001,-262.045 224.647,-251.17 229.181,-243.751"/>
<polygon fill="midnightblue" stroke="midnightblue" points="209.206,-269.725 206.978,-280.083 215.179,-273.375 209.206,-269.725"/>
</g>
<!-- Node4 -->
<g id="node4" class="node"><title>Node4</title>
<g id="a_node4"><a xlink:href="grid_8cpp.html" target="_top" xlink:title="grid.cpp">
<polygon fill="none" stroke="black" points="153.029,-168.5 153.029,-187.5 204.029,-187.5 204.029,-168.5 153.029,-168.5"/>
<text text-anchor="middle" x="178.529" y="-175.5" font-family="Helvetica,sans-Serif" font-size="10.00">grid.cpp</text>
</a>
</g>
</g>
<!-- Node3&#45;&gt;Node4 -->
<g id="edge3" class="edge"><title>Node3&#45;&gt;Node4</title>
<path fill="none" stroke="midnightblue" d="M172.029,-214.101C173.689,-205.136 175.592,-194.858 176.909,-187.751"/>
<polygon fill="midnightblue" stroke="midnightblue" points="168.56,-213.613 170.18,-224.083 175.443,-214.888 168.56,-213.613"/>
</g>
<!-- Node3&#45;&gt;Node5 -->
<g id="edge4" class="edge"><title>Node3&#45;&gt;Node5</title>
<path fill="none" stroke="midnightblue" d="M151.635,-217.537C141.115,-207.909 127.96,-195.869 119.181,-187.834"/>
<polygon fill="midnightblue" stroke="midnightblue" points="149.31,-220.154 159.05,-224.324 154.036,-214.99 149.31,-220.154"/>
</g>
<!-- Node8 -->
<g id="node8" class="node"><title>Node8</title>
<g id="a_node8"><a xlink:href="main_8cpp.html" target="_top" xlink:title="main.cpp">
<polygon fill="none" stroke="black" points="1.52913,-0.5 1.52913,-19.5 57.5291,-19.5 57.5291,-0.5 1.52913,-0.5"/>
<text text-anchor="middle" x="29.5291" y="-7.5" font-family="Helvetica,sans-Serif" font-size="10.00">main.cpp</text>
</a>
</g>
</g>
<!-- Node3&#45;&gt;Node8 -->
<g id="edge15" class="edge"><title>Node3&#45;&gt;Node8</title>
<path fill="none" stroke="midnightblue" d="M138.204,-224.531C99.4118,-211.803 34.2839,-183.553 9.52913,-132 -5.09721,-101.54 -0.0872164,-88.9199 7.52913,-56 10.6654,-42.4442 18.4751,-28.255 23.8913,-19.5194"/>
<polygon fill="midnightblue" stroke="midnightblue" points="137.336,-227.927 147.925,-227.577 139.429,-221.247 137.336,-227.927"/>
</g>
<!-- Node9 -->
<g id="node9" class="node"><title>Node9</title>
<g id="a_node9"><a xlink:href="_main_window_8h.html" target="_top" xlink:title="MainWindow.h">
<polygon fill="none" stroke="black" points="180.029,-56.5 180.029,-75.5 261.029,-75.5 261.029,-56.5 180.029,-56.5"/>
<text text-anchor="middle" x="220.529" y="-63.5" font-family="Helvetica,sans-Serif" font-size="10.00">MainWindow.h</text>
</a>
</g>
</g>
<!-- Node3&#45;&gt;Node9 -->
<g id="edge14" class="edge"><title>Node3&#45;&gt;Node9</title>
<path fill="none" stroke="midnightblue" d="M188.89,-217.804C197.779,-209.964 207.343,-199.61 212.529,-188 229.873,-149.171 224.827,-96.282 221.927,-75.6972"/>
<polygon fill="midnightblue" stroke="midnightblue" points="186.548,-215.199 181.06,-224.262 191.002,-220.599 186.548,-215.199"/>
</g>
<!-- Node6 -->
<g id="node6" class="node"><title>Node6</title>
<g id="a_node6"><a xlink:href="controller_8h.html" target="_top" xlink:title="controller.h">
<polygon fill="none" stroke="black" points="110.029,-112.5 110.029,-131.5 175.029,-131.5 175.029,-112.5 110.029,-112.5"/>
<text text-anchor="middle" x="142.529" y="-119.5" font-family="Helvetica,sans-Serif" font-size="10.00">controller.h</text>
</a>
</g>
</g>
<!-- Node5&#45;&gt;Node6 -->
<g id="edge5" class="edge"><title>Node5&#45;&gt;Node6</title>
<path fill="none" stroke="midnightblue" d="M120.361,-159.275C126.001,-150.045 132.647,-139.17 137.181,-131.751"/>
<polygon fill="midnightblue" stroke="midnightblue" points="117.206,-157.725 114.978,-168.083 123.179,-161.375 117.206,-157.725"/>
</g>
<!-- Node5&#45;&gt;Node8 -->
<g id="edge11" class="edge"><title>Node5&#45;&gt;Node8</title>
<path fill="none" stroke="midnightblue" d="M74.0014,-168.748C54.5921,-162.231 32.1913,-150.965 20.5291,-132 -1.87051,-95.5742 16.9135,-40.8327 25.6513,-19.7276"/>
<polygon fill="midnightblue" stroke="midnightblue" points="73.2197,-172.169 83.8058,-171.739 75.2621,-165.473 73.2197,-172.169"/>
</g>
<!-- Node5&#45;&gt;Node9 -->
<g id="edge12" class="edge"><title>Node5&#45;&gt;Node9</title>
<path fill="none" stroke="midnightblue" d="M138.54,-163.777C153.276,-156.034 170.723,-145.182 183.529,-132 199.997,-115.05 211.751,-89.3476 217.17,-75.9048"/>
<polygon fill="midnightblue" stroke="midnightblue" points="136.687,-160.791 129.323,-168.409 139.83,-167.046 136.687,-160.791"/>
</g>
<!-- Node11 -->
<g id="node11" class="node"><title>Node11</title>
<g id="a_node11"><a xlink:href="solver_8cpp.html" target="_top" xlink:title="solver.cpp">
<polygon fill="none" stroke="black" points="29.5291,-112.5 29.5291,-131.5 91.5291,-131.5 91.5291,-112.5 29.5291,-112.5"/>
<text text-anchor="middle" x="60.5291" y="-119.5" font-family="Helvetica,sans-Serif" font-size="10.00">solver.cpp</text>
</a>
</g>
</g>
<!-- Node5&#45;&gt;Node11 -->
<g id="edge13" class="edge"><title>Node5&#45;&gt;Node11</title>
<path fill="none" stroke="midnightblue" d="M94.4946,-160.431C85.9069,-150.967 75.4857,-139.483 68.4699,-131.751"/>
<polygon fill="midnightblue" stroke="midnightblue" points="92.1259,-163.029 101.438,-168.083 97.3098,-158.325 92.1259,-163.029"/>
</g>
<!-- Node7 -->
<g id="node7" class="node"><title>Node7</title>
<g id="a_node7"><a xlink:href="controller_8cpp.html" target="_top" xlink:title="controller.cpp">
<polygon fill="none" stroke="black" points="87.0291,-56.5 87.0291,-75.5 162.029,-75.5 162.029,-56.5 87.0291,-56.5"/>
<text text-anchor="middle" x="124.529" y="-63.5" font-family="Helvetica,sans-Serif" font-size="10.00">controller.cpp</text>
</a>
</g>
</g>
<!-- Node6&#45;&gt;Node7 -->
<g id="edge6" class="edge"><title>Node6&#45;&gt;Node7</title>
<path fill="none" stroke="midnightblue" d="M136.328,-102.396C133.316,-93.362 129.841,-82.936 127.446,-75.7511"/>
<polygon fill="midnightblue" stroke="midnightblue" points="133.074,-103.703 139.557,-112.083 139.715,-101.489 133.074,-103.703"/>
</g>
<!-- Node6&#45;&gt;Node8 -->
<g id="edge7" class="edge"><title>Node6&#45;&gt;Node8</title>
<path fill="none" stroke="midnightblue" d="M118.476,-107.039C105.561,-98.9055 89.8174,-87.9187 77.5291,-76 59.2023,-58.2244 42.6732,-32.8704 34.6486,-19.6979"/>
<polygon fill="midnightblue" stroke="midnightblue" points="116.934,-110.198 127.291,-112.43 120.586,-104.227 116.934,-110.198"/>
</g>
<!-- Node6&#45;&gt;Node9 -->
<g id="edge8" class="edge"><title>Node6&#45;&gt;Node9</title>
<path fill="none" stroke="midnightblue" d="M163.297,-106.622C177.546,-96.7574 195.985,-83.9919 208.028,-75.6545"/>
<polygon fill="midnightblue" stroke="midnightblue" points="161.291,-103.754 155.061,-112.324 165.275,-109.51 161.291,-103.754"/>
</g>
<!-- Node9&#45;&gt;Node8 -->
<g id="edge9" class="edge"><title>Node9&#45;&gt;Node8</title>
<path fill="none" stroke="midnightblue" d="M180.376,-53.6479C143.638,-43.261 90.211,-28.1561 57.7841,-18.9883"/>
<polygon fill="midnightblue" stroke="midnightblue" points="179.69,-57.0909 190.265,-56.4435 181.594,-50.3549 179.69,-57.0909"/>
</g>
<!-- Node10 -->
<g id="node10" class="node"><title>Node10</title>
<g id="a_node10"><a xlink:href="_main_window_8cpp.html" target="_top" xlink:title="MainWindow.cpp">
<polygon fill="none" stroke="black" points="174.529,-0.5 174.529,-19.5 266.529,-19.5 266.529,-0.5 174.529,-0.5"/>
<text text-anchor="middle" x="220.529" y="-7.5" font-family="Helvetica,sans-Serif" font-size="10.00">MainWindow.cpp</text>
</a>
</g>
</g>
<!-- Node9&#45;&gt;Node10 -->
<g id="edge10" class="edge"><title>Node9&#45;&gt;Node10</title>
<path fill="none" stroke="midnightblue" d="M220.529,-45.8045C220.529,-36.9102 220.529,-26.7798 220.529,-19.7511"/>
<polygon fill="midnightblue" stroke="midnightblue" points="217.029,-46.083 220.529,-56.083 224.029,-46.083 217.029,-46.083"/>
</g>
<!-- Node13 -->
<g id="node13" class="node"><title>Node13</title>
<g id="a_node13"><a xlink:href="qmapwidget_8h.html" target="_top" xlink:title="qmapwidget.h">
<polygon fill="none" stroke="black" points="270.029,-168.5 270.029,-187.5 347.029,-187.5 347.029,-168.5 270.029,-168.5"/>
<text text-anchor="middle" x="308.529" y="-175.5" font-family="Helvetica,sans-Serif" font-size="10.00">qmapwidget.h</text>
</a>
</g>
</g>
<!-- Node12&#45;&gt;Node13 -->
<g id="edge18" class="edge"><title>Node12&#45;&gt;Node13</title>
<path fill="none" stroke="midnightblue" d="M314.379,-214.101C312.885,-205.136 311.172,-194.858 309.988,-187.751"/>
<polygon fill="midnightblue" stroke="midnightblue" points="310.947,-214.794 316.043,-224.083 317.851,-213.644 310.947,-214.794"/>
</g>
<!-- Node15 -->
<g id="node15" class="node"><title>Node15</title>
<g id="a_node15"><a xlink:href="qmapscene_8cpp.html" target="_top" xlink:title="qmapscene.cpp">
<polygon fill="none" stroke="black" points="365.529,-168.5 365.529,-187.5 451.529,-187.5 451.529,-168.5 365.529,-168.5"/>
<text text-anchor="middle" x="408.529" y="-175.5" font-family="Helvetica,sans-Serif" font-size="10.00">qmapscene.cpp</text>
</a>
</g>
</g>
<!-- Node12&#45;&gt;Node15 -->
<g id="edge22" class="edge"><title>Node12&#45;&gt;Node15</title>
<path fill="none" stroke="midnightblue" d="M340.823,-219.177C357.568,-209.241 379.63,-196.149 393.945,-187.655"/>
<polygon fill="midnightblue" stroke="midnightblue" points="338.964,-216.211 332.15,-224.324 342.536,-222.231 338.964,-216.211"/>
</g>
<!-- Node13&#45;&gt;Node6 -->
<g id="edge19" class="edge"><title>Node13&#45;&gt;Node6</title>
<path fill="none" stroke="midnightblue" d="M272.576,-165.304C241.297,-155.129 196.708,-140.625 168.709,-131.516"/>
<polygon fill="midnightblue" stroke="midnightblue" points="271.634,-168.678 282.226,-168.444 273.799,-162.022 271.634,-168.678"/>
</g>
<!-- Node13&#45;&gt;Node9 -->
<g id="edge21" class="edge"><title>Node13&#45;&gt;Node9</title>
<path fill="none" stroke="midnightblue" d="M295.147,-160.272C276.124,-136.494 241.96,-93.7889 227.402,-75.5914"/>
<polygon fill="midnightblue" stroke="midnightblue" points="292.644,-162.746 301.624,-168.368 298.11,-158.373 292.644,-162.746"/>
</g>
<!-- Node14 -->
<g id="node14" class="node"><title>Node14</title>
<g id="a_node14"><a xlink:href="qmapwidget_8cpp.html" target="_top" xlink:title="qmapwidget.cpp">
<polygon fill="none" stroke="black" points="307.529,-112.5 307.529,-131.5 395.529,-131.5 395.529,-112.5 307.529,-112.5"/>
<text text-anchor="middle" x="351.529" y="-119.5" font-family="Helvetica,sans-Serif" font-size="10.00">qmapwidget.cpp</text>
</a>
</g>
</g>
<!-- Node13&#45;&gt;Node14 -->
<g id="edge20" class="edge"><title>Node13&#45;&gt;Node14</title>
<path fill="none" stroke="midnightblue" d="M321.952,-160.144C329.443,-150.736 338.466,-139.405 344.561,-131.751"/>
<polygon fill="midnightblue" stroke="midnightblue" points="319.121,-158.08 315.63,-168.083 324.597,-162.44 319.121,-158.08"/>
</g>
</g>
</svg>
