<?xml version="1.0" encoding="UTF-8" standalone="no"?>
<!DOCTYPE svg PUBLIC "-//W3C//DTD SVG 1.1//EN"
 "http://www.w3.org/Graphics/SVG/1.1/DTD/svg11.dtd">
<!-- Generated by graphviz version 2.38.0 (20140413.2041)
 -->
<!-- Title: pointroad.h Pages: 1 -->
<svg width="319pt" height="364pt"
 viewBox="0.00 0.00 319.25 364.00" xmlns="http://www.w3.org/2000/svg" xmlns:xlink="http://www.w3.org/1999/xlink">
<g id="graph0" class="graph" transform="scale(1 1) rotate(0) translate(4 360)">
<title>pointroad.h</title>
<!-- Node1 -->
<g id="node1" class="node"><title>Node1</title>
<polygon fill="#bfbfbf" stroke="black" points="155,-336.5 155,-355.5 220,-355.5 220,-336.5 155,-336.5"/>
<text text-anchor="middle" x="187.5" y="-343.5" font-family="Helvetica,sans-Serif" font-size="10.00">pointroad.h</text>
</g>
<!-- Node2 -->
<g id="node2" class="node"><title>Node2</title>
<g id="a_node2"><a xlink:href="road_8h.html" target="_top" xlink:title="road.h">
<polygon fill="none" stroke="black" points="165.5,-280.5 165.5,-299.5 209.5,-299.5 209.5,-280.5 165.5,-280.5"/>
<text text-anchor="middle" x="187.5" y="-287.5" font-family="Helvetica,sans-Serif" font-size="10.00">road.h</text>
</a>
</g>
</g>
<!-- Node1&#45;&gt;Node2 -->
<g id="edge1" class="edge"><title>Node1&#45;&gt;Node2</title>
<path fill="none" stroke="midnightblue" d="M187.5,-325.805C187.5,-316.91 187.5,-306.78 187.5,-299.751"/>
<polygon fill="midnightblue" stroke="midnightblue" points="184,-326.083 187.5,-336.083 191,-326.083 184,-326.083"/>
</g>
<!-- Node5 -->
<g id="node5" class="node"><title>Node5</title>
<g id="a_node5"><a xlink:href="solver_8h.html" target="_top" xlink:title="solver.h">
<polygon fill="none" stroke="black" points="129,-168.5 129,-187.5 180,-187.5 180,-168.5 129,-168.5"/>
<text text-anchor="middle" x="154.5" y="-175.5" font-family="Helvetica,sans-Serif" font-size="10.00">solver.h</text>
</a>
</g>
</g>
<!-- Node1&#45;&gt;Node5 -->
<g id="edge18" class="edge"><title>Node1&#45;&gt;Node5</title>
<path fill="none" stroke="midnightblue" d="M172.603,-328.448C166.37,-320.449 159.814,-310.351 156.5,-300 143.622,-259.782 149.734,-208.126 152.954,-187.786"/>
<polygon fill="midnightblue" stroke="midnightblue" points="169.983,-330.771 179.071,-336.217 175.362,-326.292 169.983,-330.771"/>
</g>
<!-- Node13 -->
<g id="node13" class="node"><title>Node13</title>
<g id="a_node13"><a xlink:href="pointroad_8cpp.html" target="_top" xlink:title="pointroad.cpp">
<polygon fill="none" stroke="black" points="227,-280.5 227,-299.5 302,-299.5 302,-280.5 227,-280.5"/>
<text text-anchor="middle" x="264.5" y="-287.5" font-family="Helvetica,sans-Serif" font-size="10.00">pointroad.cpp</text>
</a>
</g>
</g>
<!-- Node1&#45;&gt;Node13 -->
<g id="edge19" class="edge"><title>Node1&#45;&gt;Node13</title>
<path fill="none" stroke="midnightblue" d="M208.401,-330.342C222.411,-320.517 240.383,-307.913 252.159,-299.655"/>
<polygon fill="midnightblue" stroke="midnightblue" points="206.049,-327.717 199.871,-336.324 210.068,-333.448 206.049,-327.717"/>
</g>
<!-- Node3 -->
<g id="node3" class="node"><title>Node3</title>
<g id="a_node3"><a xlink:href="grid_8h.html" target="_top" xlink:title="grid.h">
<polygon fill="none" stroke="black" points="255,-224.5 255,-243.5 296,-243.5 296,-224.5 255,-224.5"/>
<text text-anchor="middle" x="275.5" y="-231.5" font-family="Helvetica,sans-Serif" font-size="10.00">grid.h</text>
</a>
</g>
</g>
<!-- Node2&#45;&gt;Node3 -->
<g id="edge2" class="edge"><title>Node2&#45;&gt;Node3</title>
<path fill="none" stroke="midnightblue" d="M210.477,-274.901C226.613,-264.999 247.681,-252.071 261.396,-243.655"/>
<polygon fill="midnightblue" stroke="midnightblue" points="208.331,-272.111 201.639,-280.324 211.993,-278.077 208.331,-272.111"/>
</g>
<!-- Node2&#45;&gt;Node5 -->
<g id="edge16" class="edge"><title>Node2&#45;&gt;Node5</title>
<path fill="none" stroke="midnightblue" d="M181.75,-270.771C179.192,-262.594 176.162,-252.823 173.5,-244 167.456,-223.965 160.631,-200.366 157.033,-187.846"/>
<polygon fill="midnightblue" stroke="midnightblue" points="178.435,-271.896 184.772,-280.387 185.113,-269.797 178.435,-271.896"/>
</g>
<!-- Node12 -->
<g id="node12" class="node"><title>Node12</title>
<g id="a_node12"><a xlink:href="road_8cpp.html" target="_top" xlink:title="road.cpp">
<polygon fill="none" stroke="black" points="182.5,-224.5 182.5,-243.5 236.5,-243.5 236.5,-224.5 182.5,-224.5"/>
<text text-anchor="middle" x="209.5" y="-231.5" font-family="Helvetica,sans-Serif" font-size="10.00">road.cpp</text>
</a>
</g>
</g>
<!-- Node2&#45;&gt;Node12 -->
<g id="edge17" class="edge"><title>Node2&#45;&gt;Node12</title>
<path fill="none" stroke="midnightblue" d="M194.96,-270.69C198.667,-261.589 202.976,-251.014 205.935,-243.751"/>
<polygon fill="midnightblue" stroke="midnightblue" points="191.665,-269.502 191.133,-280.083 198.147,-272.143 191.665,-269.502"/>
</g>
<!-- Node4 -->
<g id="node4" class="node"><title>Node4</title>
<g id="a_node4"><a xlink:href="grid_8cpp.html" target="_top" xlink:title="grid.cpp">
<polygon fill="none" stroke="black" points="250,-168.5 250,-187.5 301,-187.5 301,-168.5 250,-168.5"/>
<text text-anchor="middle" x="275.5" y="-175.5" font-family="Helvetica,sans-Serif" font-size="10.00">grid.cpp</text>
</a>
</g>
</g>
<!-- Node3&#45;&gt;Node4 -->
<g id="edge3" class="edge"><title>Node3&#45;&gt;Node4</title>
<path fill="none" stroke="midnightblue" d="M275.5,-213.805C275.5,-204.91 275.5,-194.78 275.5,-187.751"/>
<polygon fill="midnightblue" stroke="midnightblue" points="272,-214.083 275.5,-224.083 279,-214.083 272,-214.083"/>
</g>
<!-- Node3&#45;&gt;Node5 -->
<g id="edge4" class="edge"><title>Node3&#45;&gt;Node5</title>
<path fill="none" stroke="midnightblue" d="M247.194,-220.368C224.535,-210.255 193.374,-196.349 173.583,-187.516"/>
<polygon fill="midnightblue" stroke="midnightblue" points="245.769,-223.564 256.327,-224.444 248.622,-217.172 245.769,-223.564"/>
</g>
<!-- Node8 -->
<g id="node8" class="node"><title>Node8</title>
<g id="a_node8"><a xlink:href="main_8cpp.html" target="_top" xlink:title="main.cpp">
<polygon fill="none" stroke="black" points="231.5,-0.5 231.5,-19.5 287.5,-19.5 287.5,-0.5 231.5,-0.5"/>
<text text-anchor="middle" x="259.5" y="-7.5" font-family="Helvetica,sans-Serif" font-size="10.00">main.cpp</text>
</a>
</g>
</g>
<!-- Node3&#45;&gt;Node8 -->
<g id="edge15" class="edge"><title>Node3&#45;&gt;Node8</title>
<path fill="none" stroke="midnightblue" d="M291.683,-216.962C298.597,-208.98 305.896,-198.749 309.5,-188 312.326,-179.572 310.865,-176.783 309.5,-168 300.408,-109.488 273.328,-42.9506 263.295,-19.6228"/>
<polygon fill="midnightblue" stroke="midnightblue" points="289.023,-214.683 284.788,-224.395 294.155,-219.444 289.023,-214.683"/>
</g>
<!-- Node9 -->
<g id="node9" class="node"><title>Node9</title>
<g id="a_node9"><a xlink:href="_main_window_8h.html" target="_top" xlink:title="MainWindow.h">
<polygon fill="none" stroke="black" points="132,-56.5 132,-75.5 213,-75.5 213,-56.5 132,-56.5"/>
<text text-anchor="middle" x="172.5" y="-63.5" font-family="Helvetica,sans-Serif" font-size="10.00">MainWindow.h</text>
</a>
</g>
</g>
<!-- Node3&#45;&gt;Node9 -->
<g id="edge14" class="edge"><title>Node3&#45;&gt;Node9</title>
<path fill="none" stroke="midnightblue" d="M261.51,-216.639C254.75,-208.345 246.766,-197.943 240.5,-188 220.365,-156.051 221.455,-144.663 202.5,-112 194.959,-99.0063 185.126,-84.6766 178.811,-75.7566"/>
<polygon fill="midnightblue" stroke="midnightblue" points="258.897,-218.972 267.988,-224.414 264.275,-214.491 258.897,-218.972"/>
</g>
<!-- Node6 -->
<g id="node6" class="node"><title>Node6</title>
<g id="a_node6"><a xlink:href="controller_8h.html" target="_top" xlink:title="controller.h">
<polygon fill="none" stroke="black" points="10,-112.5 10,-131.5 75,-131.5 75,-112.5 10,-112.5"/>
<text text-anchor="middle" x="42.5" y="-119.5" font-family="Helvetica,sans-Serif" font-size="10.00">controller.h</text>
</a>
</g>
</g>
<!-- Node5&#45;&gt;Node6 -->
<g id="edge5" class="edge"><title>Node5&#45;&gt;Node6</title>
<path fill="none" stroke="midnightblue" d="M127.251,-163.862C106.484,-153.849 78.4766,-140.346 60.4501,-131.655"/>
<polygon fill="midnightblue" stroke="midnightblue" points="125.977,-167.134 136.505,-168.324 129.018,-160.828 125.977,-167.134"/>
</g>
<!-- Node5&#45;&gt;Node8 -->
<g id="edge12" class="edge"><title>Node5&#45;&gt;Node8</title>
<path fill="none" stroke="midnightblue" d="M173.764,-161.911C183.264,-153.781 194.392,-143.145 202.5,-132 230.231,-93.8812 249.824,-40.1317 256.748,-19.5099"/>
<polygon fill="midnightblue" stroke="midnightblue" points="171.435,-159.296 165.952,-168.361 175.892,-164.694 171.435,-159.296"/>
</g>
<!-- Node5&#45;&gt;Node9 -->
<g id="edge11" class="edge"><title>Node5&#45;&gt;Node9</title>
<path fill="none" stroke="midnightblue" d="M137.718,-160.606C126.49,-147.562 115.028,-128.777 122.5,-112 129.627,-95.9975 145.568,-83.2984 157.548,-75.5256"/>
<polygon fill="midnightblue" stroke="midnightblue" points="135.483,-163.342 144.861,-168.27 140.604,-158.569 135.483,-163.342"/>
</g>
<!-- Node11 -->
<g id="node11" class="node"><title>Node11</title>
<g id="a_node11"><a xlink:href="solver_8cpp.html" target="_top" xlink:title="solver.cpp">
<polygon fill="none" stroke="black" points="131.5,-112.5 131.5,-131.5 193.5,-131.5 193.5,-112.5 131.5,-112.5"/>
<text text-anchor="middle" x="162.5" y="-119.5" font-family="Helvetica,sans-Serif" font-size="10.00">solver.cpp</text>
</a>
</g>
</g>
<!-- Node5&#45;&gt;Node11 -->
<g id="edge13" class="edge"><title>Node5&#45;&gt;Node11</title>
<path fill="none" stroke="midnightblue" d="M157.3,-158.101C158.628,-149.136 160.151,-138.858 161.204,-131.751"/>
<polygon fill="midnightblue" stroke="midnightblue" points="153.824,-157.678 155.821,-168.083 160.749,-158.704 153.824,-157.678"/>
</g>
<!-- Node7 -->
<g id="node7" class="node"><title>Node7</title>
<g id="a_node7"><a xlink:href="controller_8cpp.html" target="_top" xlink:title="controller.cpp">
<polygon fill="none" stroke="black" points="0,-56.5 0,-75.5 75,-75.5 75,-56.5 0,-56.5"/>
<text text-anchor="middle" x="37.5" y="-63.5" font-family="Helvetica,sans-Serif" font-size="10.00">controller.cpp</text>
</a>
</g>
</g>
<!-- Node6&#45;&gt;Node7 -->
<g id="edge6" class="edge"><title>Node6&#45;&gt;Node7</title>
<path fill="none" stroke="midnightblue" d="M40.75,-102.101C39.92,-93.1357 38.9683,-82.8579 38.3103,-75.7511"/>
<polygon fill="midnightblue" stroke="midnightblue" points="37.2672,-102.448 41.6744,-112.083 44.2374,-101.803 37.2672,-102.448"/>
</g>
<!-- Node6&#45;&gt;Node8 -->
<g id="edge7" class="edge"><title>Node6&#45;&gt;Node8</title>
<path fill="none" stroke="midnightblue" d="M58.5895,-104.909C73.8853,-90.3864 98.1163,-69.3158 122.5,-56 141.451,-45.651 197.067,-28.8169 231.331,-18.9363"/>
<polygon fill="midnightblue" stroke="midnightblue" points="55.8037,-102.735 51.0669,-112.212 60.6797,-107.758 55.8037,-102.735"/>
</g>
<!-- Node6&#45;&gt;Node9 -->
<g id="edge8" class="edge"><title>Node6&#45;&gt;Node9</title>
<path fill="none" stroke="midnightblue" d="M72.5854,-108.503C96.9567,-98.3795 130.64,-84.388 151.997,-75.5164"/>
<polygon fill="midnightblue" stroke="midnightblue" points="70.9912,-105.375 63.0989,-112.444 73.6765,-111.84 70.9912,-105.375"/>
</g>
<!-- Node9&#45;&gt;Node8 -->
<g id="edge9" class="edge"><title>Node9&#45;&gt;Node8</title>
<path fill="none" stroke="midnightblue" d="M195.216,-50.9005C211.169,-40.9986 231.997,-28.0705 245.557,-19.6545"/>
<polygon fill="midnightblue" stroke="midnightblue" points="193.129,-48.0765 186.478,-56.324 196.82,-54.024 193.129,-48.0765"/>
</g>
<!-- Node10 -->
<g id="node10" class="node"><title>Node10</title>
<g id="a_node10"><a xlink:href="_main_window_8cpp.html" target="_top" xlink:title="MainWindow.cpp">
<polygon fill="none" stroke="black" points="121.5,-0.5 121.5,-19.5 213.5,-19.5 213.5,-0.5 121.5,-0.5"/>
<text text-anchor="middle" x="167.5" y="-7.5" font-family="Helvetica,sans-Serif" font-size="10.00">MainWindow.cpp</text>
</a>
</g>
</g>
<!-- Node9&#45;&gt;Node10 -->
<g id="edge10" class="edge"><title>Node9&#45;&gt;Node10</title>
<path fill="none" stroke="midnightblue" d="M170.75,-46.1005C169.92,-37.1357 168.968,-26.8579 168.31,-19.7511"/>
<polygon fill="midnightblue" stroke="midnightblue" points="167.267,-46.4483 171.674,-56.083 174.237,-45.8029 167.267,-46.4483"/>
</g>
</g>
</svg>
