<?xml version="1.0" encoding="UTF-8" standalone="no"?>
<!DOCTYPE svg PUBLIC "-//W3C//DTD SVG 1.1//EN"
 "http://www.w3.org/Graphics/SVG/1.1/DTD/svg11.dtd">
<!-- Generated by graphviz version 2.38.0 (20140413.2041)
 -->
<!-- Title: point.h Pages: 1 -->
<svg width="958pt" height="476pt"
 viewBox="0.00 0.00 958.00 476.00" xmlns="http://www.w3.org/2000/svg" xmlns:xlink="http://www.w3.org/1999/xlink">
<g id="graph0" class="graph" transform="scale(1 1) rotate(0) translate(4 472)">
<title>point.h</title>
<!-- Node1 -->
<g id="node1" class="node"><title>Node1</title>
<polygon fill="#bfbfbf" stroke="black" points="751,-448.5 751,-467.5 797,-467.5 797,-448.5 751,-448.5"/>
<text text-anchor="middle" x="774" y="-455.5" font-family="Helvetica,sans-Serif" font-size="10.00">point.h</text>
</g>
<!-- Node2 -->
<g id="node2" class="node"><title>Node2</title>
<g id="a_node2"><a xlink:href="point_g_p_s_8h.html" target="_top" xlink:title="pointGPS.h">
<polygon fill="none" stroke="black" points="418.5,-392.5 418.5,-411.5 485.5,-411.5 485.5,-392.5 418.5,-392.5"/>
<text text-anchor="middle" x="452" y="-399.5" font-family="Helvetica,sans-Serif" font-size="10.00">pointGPS.h</text>
</a>
</g>
</g>
<!-- Node1&#45;&gt;Node2 -->
<g id="edge1" class="edge"><title>Node1&#45;&gt;Node2</title>
<path fill="none" stroke="midnightblue" d="M740.884,-451.446C679.3,-441.119 547.796,-419.065 485.742,-408.659"/>
<polygon fill="midnightblue" stroke="midnightblue" points="740.401,-454.914 750.843,-453.116 741.559,-448.011 740.401,-454.914"/>
</g>
<!-- Node25 -->
<g id="node25" class="node"><title>Node25</title>
<g id="a_node25"><a xlink:href="pointroad_8h.html" target="_top" xlink:title="pointroad.h">
<polygon fill="none" stroke="black" points="622.5,-336.5 622.5,-355.5 687.5,-355.5 687.5,-336.5 622.5,-336.5"/>
<text text-anchor="middle" x="655" y="-343.5" font-family="Helvetica,sans-Serif" font-size="10.00">pointroad.h</text>
</a>
</g>
</g>
<!-- Node1&#45;&gt;Node25 -->
<g id="edge40" class="edge"><title>Node1&#45;&gt;Node25</title>
<path fill="none" stroke="midnightblue" d="M757.244,-441.512C731.816,-418.007 684.328,-374.11 664.294,-355.591"/>
<polygon fill="midnightblue" stroke="midnightblue" points="754.943,-444.151 764.662,-448.368 759.695,-439.01 754.943,-444.151"/>
</g>
<!-- Node27 -->
<g id="node27" class="node"><title>Node27</title>
<g id="a_node27"><a xlink:href="box_8h.html" target="_top" xlink:title="box.h">
<polygon fill="none" stroke="black" points="753.5,-392.5 753.5,-411.5 794.5,-411.5 794.5,-392.5 753.5,-392.5"/>
<text text-anchor="middle" x="774" y="-399.5" font-family="Helvetica,sans-Serif" font-size="10.00">box.h</text>
</a>
</g>
</g>
<!-- Node1&#45;&gt;Node27 -->
<g id="edge45" class="edge"><title>Node1&#45;&gt;Node27</title>
<path fill="none" stroke="midnightblue" d="M774,-437.805C774,-428.91 774,-418.78 774,-411.751"/>
<polygon fill="midnightblue" stroke="midnightblue" points="770.5,-438.083 774,-448.083 777.5,-438.083 770.5,-438.083"/>
</g>
<!-- Node31 -->
<g id="node31" class="node"><title>Node31</title>
<g id="a_node31"><a xlink:href="kdtree_8h.html" target="_top" xlink:title="kdtree.h">
<polygon fill="none" stroke="black" points="840,-280.5 840,-299.5 892,-299.5 892,-280.5 840,-280.5"/>
<text text-anchor="middle" x="866" y="-287.5" font-family="Helvetica,sans-Serif" font-size="10.00">kdtree.h</text>
</a>
</g>
</g>
<!-- Node1&#45;&gt;Node31 -->
<g id="edge51" class="edge"><title>Node1&#45;&gt;Node31</title>
<path fill="none" stroke="midnightblue" d="M788.174,-440.683C804.17,-421.544 830.035,-388.312 846,-356 855.414,-336.947 861.477,-312.552 864.248,-299.747"/>
<polygon fill="midnightblue" stroke="midnightblue" points="785.399,-438.543 781.59,-448.43 790.733,-443.077 785.399,-438.543"/>
</g>
<!-- Node33 -->
<g id="node33" class="node"><title>Node33</title>
<g id="a_node33"><a xlink:href="point_8cpp.html" target="_top" xlink:title="point.cpp">
<polygon fill="none" stroke="black" points="894,-392.5 894,-411.5 950,-411.5 950,-392.5 894,-392.5"/>
<text text-anchor="middle" x="922" y="-399.5" font-family="Helvetica,sans-Serif" font-size="10.00">point.cpp</text>
</a>
</g>
</g>
<!-- Node1&#45;&gt;Node33 -->
<g id="edge52" class="edge"><title>Node1&#45;&gt;Node33</title>
<path fill="none" stroke="midnightblue" d="M806.806,-445.03C834.611,-434.885 873.803,-420.585 898.549,-411.556"/>
<polygon fill="midnightblue" stroke="midnightblue" points="805.32,-441.847 797.125,-448.562 807.719,-448.423 805.32,-441.847"/>
</g>
<!-- Node3 -->
<g id="node3" class="node"><title>Node3</title>
<g id="a_node3"><a xlink:href="track_8h.html" target="_top" xlink:title="The class Track. ">
<polygon fill="none" stroke="black" points="277.5,-336.5 277.5,-355.5 324.5,-355.5 324.5,-336.5 277.5,-336.5"/>
<text text-anchor="middle" x="301" y="-343.5" font-family="Helvetica,sans-Serif" font-size="10.00">track.h</text>
</a>
</g>
</g>
<!-- Node2&#45;&gt;Node3 -->
<g id="edge2" class="edge"><title>Node2&#45;&gt;Node3</title>
<path fill="none" stroke="midnightblue" d="M418.554,-389.039C390.142,-378.879 350.063,-364.546 324.814,-355.516"/>
<polygon fill="midnightblue" stroke="midnightblue" points="417.479,-392.372 428.074,-392.444 419.836,-385.781 417.479,-392.372"/>
</g>
<!-- Node7 -->
<g id="node7" class="node"><title>Node7</title>
<g id="a_node7"><a xlink:href="main_8cpp.html" target="_top" xlink:title="main.cpp">
<polygon fill="none" stroke="black" points="154,-0.5 154,-19.5 210,-19.5 210,-0.5 154,-0.5"/>
<text text-anchor="middle" x="182" y="-7.5" font-family="Helvetica,sans-Serif" font-size="10.00">main.cpp</text>
</a>
</g>
</g>
<!-- Node2&#45;&gt;Node7 -->
<g id="edge38" class="edge"><title>Node2&#45;&gt;Node7</title>
<path fill="none" stroke="midnightblue" d="M408.322,-399.626C294.941,-394.879 0,-374.506 0,-291 0,-291 0,-291 0,-121 0,-49.9289 102.909,-23.5444 153.961,-14.828"/>
<polygon fill="midnightblue" stroke="midnightblue" points="408.265,-403.126 418.396,-400.026 408.543,-396.132 408.265,-403.126"/>
</g>
<!-- Node12 -->
<g id="node12" class="node"><title>Node12</title>
<g id="a_node12"><a xlink:href="solver_8h.html" target="_top" xlink:title="solver.h">
<polygon fill="none" stroke="black" points="416.5,-168.5 416.5,-187.5 467.5,-187.5 467.5,-168.5 416.5,-168.5"/>
<text text-anchor="middle" x="442" y="-175.5" font-family="Helvetica,sans-Serif" font-size="10.00">solver.h</text>
</a>
</g>
</g>
<!-- Node2&#45;&gt;Node12 -->
<g id="edge36" class="edge"><title>Node2&#45;&gt;Node12</title>
<path fill="none" stroke="midnightblue" d="M444.444,-382.782C441.492,-374.725 438.468,-365.043 437,-356 426.61,-291.973 436.744,-213.248 440.628,-187.55"/>
<polygon fill="midnightblue" stroke="midnightblue" points="441.244,-384.209 448.144,-392.249 447.763,-381.661 441.244,-384.209"/>
</g>
<!-- Node16 -->
<g id="node16" class="node"><title>Node16</title>
<g id="a_node16"><a xlink:href="qmapscene_8h.html" target="_top" xlink:title="qmapscene.h">
<polygon fill="none" stroke="black" points="618.5,-224.5 618.5,-243.5 693.5,-243.5 693.5,-224.5 618.5,-224.5"/>
<text text-anchor="middle" x="656" y="-231.5" font-family="Helvetica,sans-Serif" font-size="10.00">qmapscene.h</text>
</a>
</g>
</g>
<!-- Node2&#45;&gt;Node16 -->
<g id="edge37" class="edge"><title>Node2&#45;&gt;Node16</title>
<path fill="none" stroke="midnightblue" d="M479.647,-387.774C495.596,-379.586 515.662,-368.307 532,-356 570.406,-327.068 574.522,-313.517 609,-280 622.122,-267.244 637.458,-252.612 646.951,-243.586"/>
<polygon fill="midnightblue" stroke="midnightblue" points="477.688,-384.841 470.319,-392.454 480.827,-391.098 477.688,-384.841"/>
</g>
<!-- Node24 -->
<g id="node24" class="node"><title>Node24</title>
<g id="a_node24"><a xlink:href="point_g_p_s_8cpp.html" target="_top" xlink:title="pointGPS.cpp">
<polygon fill="none" stroke="black" points="446.5,-336.5 446.5,-355.5 523.5,-355.5 523.5,-336.5 446.5,-336.5"/>
<text text-anchor="middle" x="485" y="-343.5" font-family="Helvetica,sans-Serif" font-size="10.00">pointGPS.cpp</text>
</a>
</g>
</g>
<!-- Node2&#45;&gt;Node24 -->
<g id="edge39" class="edge"><title>Node2&#45;&gt;Node24</title>
<path fill="none" stroke="midnightblue" d="M462.832,-383.275C468.472,-374.045 475.118,-363.17 479.652,-355.751"/>
<polygon fill="midnightblue" stroke="midnightblue" points="459.677,-381.725 457.449,-392.083 465.65,-385.375 459.677,-381.725"/>
</g>
<!-- Node4 -->
<g id="node4" class="node"><title>Node4</title>
<g id="a_node4"><a xlink:href="filtering_8h.html" target="_top" xlink:title="filtering.h">
<polygon fill="none" stroke="black" points="273,-280.5 273,-299.5 329,-299.5 329,-280.5 273,-280.5"/>
<text text-anchor="middle" x="301" y="-287.5" font-family="Helvetica,sans-Serif" font-size="10.00">filtering.h</text>
</a>
</g>
</g>
<!-- Node3&#45;&gt;Node4 -->
<g id="edge3" class="edge"><title>Node3&#45;&gt;Node4</title>
<path fill="none" stroke="midnightblue" d="M301,-325.805C301,-316.91 301,-306.78 301,-299.751"/>
<polygon fill="midnightblue" stroke="midnightblue" points="297.5,-326.083 301,-336.083 304.5,-326.083 297.5,-326.083"/>
</g>
<!-- Node6 -->
<g id="node6" class="node"><title>Node6</title>
<g id="a_node6"><a xlink:href="_main_window_8h.html" target="_top" xlink:title="MainWindow.h">
<polygon fill="none" stroke="black" points="304.5,-56.5 304.5,-75.5 385.5,-75.5 385.5,-56.5 304.5,-56.5"/>
<text text-anchor="middle" x="345" y="-63.5" font-family="Helvetica,sans-Serif" font-size="10.00">MainWindow.h</text>
</a>
</g>
</g>
<!-- Node3&#45;&gt;Node6 -->
<g id="edge31" class="edge"><title>Node3&#45;&gt;Node6</title>
<path fill="none" stroke="midnightblue" d="M283.024,-329.869C256.622,-307.181 209.554,-264.798 201,-244 197.619,-235.779 197.776,-232.284 201,-224 228.095,-154.375 302.088,-96.8757 332.098,-75.7161"/>
<polygon fill="midnightblue" stroke="midnightblue" points="280.913,-332.669 290.794,-336.491 285.453,-327.341 280.913,-332.669"/>
</g>
<!-- Node3&#45;&gt;Node7 -->
<g id="edge32" class="edge"><title>Node3&#45;&gt;Node7</title>
<path fill="none" stroke="midnightblue" d="M267.29,-343.073C207.771,-338.995 87.4629,-327.504 57,-300 34.6603,-279.83 38,-265.098 38,-235 38,-235 38,-235 38,-121 38,-63.2717 111.987,-31.7846 153.894,-18.5801"/>
<polygon fill="midnightblue" stroke="midnightblue" points="267.113,-346.569 277.321,-343.73 267.57,-339.584 267.113,-346.569"/>
</g>
<!-- Node9 -->
<g id="node9" class="node"><title>Node9</title>
<g id="a_node9"><a xlink:href="road_8h.html" target="_top" xlink:title="road.h">
<polygon fill="none" stroke="black" points="475,-280.5 475,-299.5 519,-299.5 519,-280.5 475,-280.5"/>
<text text-anchor="middle" x="497" y="-287.5" font-family="Helvetica,sans-Serif" font-size="10.00">road.h</text>
</a>
</g>
</g>
<!-- Node3&#45;&gt;Node9 -->
<g id="edge8" class="edge"><title>Node3&#45;&gt;Node9</title>
<path fill="none" stroke="midnightblue" d="M334.479,-335.776C374.549,-324.737 440.518,-306.561 474.784,-297.121"/>
<polygon fill="midnightblue" stroke="midnightblue" points="333.353,-332.456 324.642,-338.486 335.213,-339.204 333.353,-332.456"/>
</g>
<!-- Node10 -->
<g id="node10" class="node"><title>Node10</title>
<g id="a_node10"><a xlink:href="grid_8h.html" target="_top" xlink:title="grid.h">
<polygon fill="none" stroke="black" points="334.5,-224.5 334.5,-243.5 375.5,-243.5 375.5,-224.5 334.5,-224.5"/>
<text text-anchor="middle" x="355" y="-231.5" font-family="Helvetica,sans-Serif" font-size="10.00">grid.h</text>
</a>
</g>
</g>
<!-- Node3&#45;&gt;Node10 -->
<g id="edge29" class="edge"><title>Node3&#45;&gt;Node10</title>
<path fill="none" stroke="midnightblue" d="M317.12,-328.929C324.429,-320.845 332.62,-310.54 338,-300 347.546,-281.3 352.072,-256.762 353.919,-243.84"/>
<polygon fill="midnightblue" stroke="midnightblue" points="314.573,-326.529 310.243,-336.198 319.658,-331.339 314.573,-326.529"/>
</g>
<!-- Node3&#45;&gt;Node12 -->
<g id="edge30" class="edge"><title>Node3&#45;&gt;Node12</title>
<path fill="none" stroke="midnightblue" d="M321.697,-330.18C332.518,-321.926 345.632,-311.096 356,-300 391.543,-261.961 424.54,-208.615 436.879,-187.803"/>
<polygon fill="midnightblue" stroke="midnightblue" points="319.537,-327.424 313.606,-336.203 323.717,-333.039 319.537,-327.424"/>
</g>
<!-- Node21 -->
<g id="node21" class="node"><title>Node21</title>
<g id="a_node21"><a xlink:href="sauvegarde_8h.html" target="_top" xlink:title="sauvegarde.h">
<polygon fill="none" stroke="black" points="141.5,-280.5 141.5,-299.5 216.5,-299.5 216.5,-280.5 141.5,-280.5"/>
<text text-anchor="middle" x="179" y="-287.5" font-family="Helvetica,sans-Serif" font-size="10.00">sauvegarde.h</text>
</a>
</g>
</g>
<!-- Node3&#45;&gt;Node21 -->
<g id="edge33" class="edge"><title>Node3&#45;&gt;Node21</title>
<path fill="none" stroke="midnightblue" d="M272.461,-332.368C249.614,-322.255 218.195,-308.349 198.241,-299.516"/>
<polygon fill="midnightblue" stroke="midnightblue" points="271.108,-335.597 281.669,-336.444 273.941,-329.196 271.108,-335.597"/>
</g>
<!-- Node23 -->
<g id="node23" class="node"><title>Node23</title>
<g id="a_node23"><a xlink:href="track_8cpp.html" target="_top" xlink:title="track.cpp">
<polygon fill="none" stroke="black" points="66.5,-280.5 66.5,-299.5 123.5,-299.5 123.5,-280.5 66.5,-280.5"/>
<text text-anchor="middle" x="95" y="-287.5" font-family="Helvetica,sans-Serif" font-size="10.00">track.cpp</text>
</a>
</g>
</g>
<!-- Node3&#45;&gt;Node23 -->
<g id="edge35" class="edge"><title>Node3&#45;&gt;Node23</title>
<path fill="none" stroke="midnightblue" d="M267.56,-336.234C227.575,-325.753 161.336,-308.389 123.616,-298.501"/>
<polygon fill="midnightblue" stroke="midnightblue" points="266.808,-339.655 277.369,-338.806 268.584,-332.884 266.808,-339.655"/>
</g>
<!-- Node5 -->
<g id="node5" class="node"><title>Node5</title>
<g id="a_node5"><a xlink:href="filtering_8cpp.html" target="_top" xlink:title="filtering.cpp">
<polygon fill="none" stroke="black" points="210.5,-224.5 210.5,-243.5 277.5,-243.5 277.5,-224.5 210.5,-224.5"/>
<text text-anchor="middle" x="244" y="-231.5" font-family="Helvetica,sans-Serif" font-size="10.00">filtering.cpp</text>
</a>
</g>
</g>
<!-- Node4&#45;&gt;Node5 -->
<g id="edge4" class="edge"><title>Node4&#45;&gt;Node5</title>
<path fill="none" stroke="midnightblue" d="M284.379,-273.253C274.266,-263.673 261.723,-251.791 253.325,-243.834"/>
<polygon fill="midnightblue" stroke="midnightblue" points="282.175,-275.987 291.842,-280.324 286.99,-270.906 282.175,-275.987"/>
</g>
<!-- Node4&#45;&gt;Node6 -->
<g id="edge5" class="edge"><title>Node4&#45;&gt;Node6</title>
<path fill="none" stroke="midnightblue" d="M298.06,-270.181C294.904,-246.16 291.304,-203.466 299,-168 306.886,-131.659 329.027,-92.7076 339.446,-75.7371"/>
<polygon fill="midnightblue" stroke="midnightblue" points="294.636,-270.959 299.523,-280.359 301.565,-269.963 294.636,-270.959"/>
</g>
<!-- Node6&#45;&gt;Node7 -->
<g id="edge6" class="edge"><title>Node6&#45;&gt;Node7</title>
<path fill="none" stroke="midnightblue" d="M309.297,-53.172C278.604,-43.0039 235.081,-28.5852 207.707,-19.5164"/>
<polygon fill="midnightblue" stroke="midnightblue" points="308.579,-56.6211 319.172,-56.4435 310.78,-49.9762 308.579,-56.6211"/>
</g>
<!-- Node8 -->
<g id="node8" class="node"><title>Node8</title>
<g id="a_node8"><a xlink:href="_main_window_8cpp.html" target="_top" xlink:title="MainWindow.cpp">
<polygon fill="none" stroke="black" points="299,-0.5 299,-19.5 391,-19.5 391,-0.5 299,-0.5"/>
<text text-anchor="middle" x="345" y="-7.5" font-family="Helvetica,sans-Serif" font-size="10.00">MainWindow.cpp</text>
</a>
</g>
</g>
<!-- Node6&#45;&gt;Node8 -->
<g id="edge7" class="edge"><title>Node6&#45;&gt;Node8</title>
<path fill="none" stroke="midnightblue" d="M345,-45.8045C345,-36.9102 345,-26.7798 345,-19.7511"/>
<polygon fill="midnightblue" stroke="midnightblue" points="341.5,-46.083 345,-56.083 348.5,-46.083 341.5,-46.083"/>
</g>
<!-- Node9&#45;&gt;Node10 -->
<g id="edge9" class="edge"><title>Node9&#45;&gt;Node10</title>
<path fill="none" stroke="midnightblue" d="M465.293,-276.942C437.923,-266.534 399.182,-251.802 375.648,-242.852"/>
<polygon fill="midnightblue" stroke="midnightblue" points="464.221,-280.279 474.812,-280.562 466.71,-273.737 464.221,-280.279"/>
</g>
<!-- Node9&#45;&gt;Node12 -->
<g id="edge21" class="edge"><title>Node9&#45;&gt;Node12</title>
<path fill="none" stroke="midnightblue" d="M488.16,-271.32C476.185,-247.37 455.274,-205.548 446.296,-187.591"/>
<polygon fill="midnightblue" stroke="midnightblue" points="485.082,-272.989 492.684,-280.368 491.343,-269.859 485.082,-272.989"/>
</g>
<!-- Node9&#45;&gt;Node16 -->
<g id="edge22" class="edge"><title>Node9&#45;&gt;Node16</title>
<path fill="none" stroke="midnightblue" d="M528.698,-278.235C558.748,-268.029 603.292,-252.901 630.938,-243.512"/>
<polygon fill="midnightblue" stroke="midnightblue" points="527.452,-274.962 519.108,-281.492 529.703,-281.59 527.452,-274.962"/>
</g>
<!-- Node20 -->
<g id="node20" class="node"><title>Node20</title>
<g id="a_node20"><a xlink:href="road_8cpp.html" target="_top" xlink:title="road.cpp">
<polygon fill="none" stroke="black" points="508,-224.5 508,-243.5 562,-243.5 562,-224.5 508,-224.5"/>
<text text-anchor="middle" x="535" y="-231.5" font-family="Helvetica,sans-Serif" font-size="10.00">road.cpp</text>
</a>
</g>
</g>
<!-- Node9&#45;&gt;Node20 -->
<g id="edge28" class="edge"><title>Node9&#45;&gt;Node20</title>
<path fill="none" stroke="midnightblue" d="M509.065,-271.855C515.645,-262.505 523.511,-251.327 528.842,-243.751"/>
<polygon fill="midnightblue" stroke="midnightblue" points="506.168,-269.891 503.275,-280.083 511.892,-273.919 506.168,-269.891"/>
</g>
<!-- Node10&#45;&gt;Node6 -->
<g id="edge19" class="edge"><title>Node10&#45;&gt;Node6</title>
<path fill="none" stroke="midnightblue" d="M361.552,-214.7C364.111,-206.628 366.732,-196.958 368,-188 373.994,-145.656 356.584,-95.6219 348.681,-75.7583"/>
<polygon fill="midnightblue" stroke="midnightblue" points="358.229,-213.602 358.344,-224.197 364.861,-215.843 358.229,-213.602"/>
</g>
<!-- Node10&#45;&gt;Node7 -->
<g id="edge20" class="edge"><title>Node10&#45;&gt;Node7</title>
<path fill="none" stroke="midnightblue" d="M333.752,-218.383C322.684,-210.187 309.34,-199.348 299,-188 246.402,-130.278 200.682,-46.773 186.519,-19.7734"/>
<polygon fill="midnightblue" stroke="midnightblue" points="331.879,-221.347 342.04,-224.348 335.968,-215.666 331.879,-221.347"/>
</g>
<!-- Node11 -->
<g id="node11" class="node"><title>Node11</title>
<g id="a_node11"><a xlink:href="grid_8cpp.html" target="_top" xlink:title="grid.cpp">
<polygon fill="none" stroke="black" points="308.5,-168.5 308.5,-187.5 359.5,-187.5 359.5,-168.5 308.5,-168.5"/>
<text text-anchor="middle" x="334" y="-175.5" font-family="Helvetica,sans-Serif" font-size="10.00">grid.cpp</text>
</a>
</g>
</g>
<!-- Node10&#45;&gt;Node11 -->
<g id="edge10" class="edge"><title>Node10&#45;&gt;Node11</title>
<path fill="none" stroke="midnightblue" d="M347.879,-214.69C344.34,-205.589 340.228,-195.014 337.403,-187.751"/>
<polygon fill="midnightblue" stroke="midnightblue" points="344.646,-216.032 351.532,-224.083 351.17,-213.494 344.646,-216.032"/>
</g>
<!-- Node10&#45;&gt;Node12 -->
<g id="edge11" class="edge"><title>Node10&#45;&gt;Node12</title>
<path fill="none" stroke="midnightblue" d="M377.716,-218.901C393.669,-208.999 414.497,-196.071 428.057,-187.655"/>
<polygon fill="midnightblue" stroke="midnightblue" points="375.629,-216.077 368.978,-224.324 379.32,-222.024 375.629,-216.077"/>
</g>
<!-- Node12&#45;&gt;Node6 -->
<g id="edge17" class="edge"><title>Node12&#45;&gt;Node6</title>
<path fill="none" stroke="midnightblue" d="M427.439,-160.672C419.843,-152.14 410.406,-141.521 402,-132 384.318,-111.973 363.668,-88.3709 352.726,-75.8479"/>
<polygon fill="midnightblue" stroke="midnightblue" points="425.049,-163.251 434.314,-168.388 430.275,-158.594 425.049,-163.251"/>
</g>
<!-- Node12&#45;&gt;Node7 -->
<g id="edge16" class="edge"><title>Node12&#45;&gt;Node7</title>
<path fill="none" stroke="midnightblue" d="M419.842,-162.853C367.547,-129.465 237.676,-46.5471 195.478,-19.6051"/>
<polygon fill="midnightblue" stroke="midnightblue" points="418.075,-165.877 428.387,-168.309 421.842,-159.977 418.075,-165.877"/>
</g>
<!-- Node13 -->
<g id="node13" class="node"><title>Node13</title>
<g id="a_node13"><a xlink:href="controller_8h.html" target="_top" xlink:title="controller.h">
<polygon fill="none" stroke="black" points="529.5,-112.5 529.5,-131.5 594.5,-131.5 594.5,-112.5 529.5,-112.5"/>
<text text-anchor="middle" x="562" y="-119.5" font-family="Helvetica,sans-Serif" font-size="10.00">controller.h</text>
</a>
</g>
</g>
<!-- Node12&#45;&gt;Node13 -->
<g id="edge12" class="edge"><title>Node12&#45;&gt;Node13</title>
<path fill="none" stroke="midnightblue" d="M470.373,-164.232C492.82,-154.131 523.535,-140.309 543.075,-131.516"/>
<polygon fill="midnightblue" stroke="midnightblue" points="468.697,-161.148 461.014,-168.444 471.57,-167.532 468.697,-161.148"/>
</g>
<!-- Node15 -->
<g id="node15" class="node"><title>Node15</title>
<g id="a_node15"><a xlink:href="solver_8cpp.html" target="_top" xlink:title="solver.cpp">
<polygon fill="none" stroke="black" points="411,-112.5 411,-131.5 473,-131.5 473,-112.5 411,-112.5"/>
<text text-anchor="middle" x="442" y="-119.5" font-family="Helvetica,sans-Serif" font-size="10.00">solver.cpp</text>
</a>
</g>
</g>
<!-- Node12&#45;&gt;Node15 -->
<g id="edge18" class="edge"><title>Node12&#45;&gt;Node15</title>
<path fill="none" stroke="midnightblue" d="M442,-157.805C442,-148.91 442,-138.78 442,-131.751"/>
<polygon fill="midnightblue" stroke="midnightblue" points="438.5,-158.083 442,-168.083 445.5,-158.083 438.5,-158.083"/>
</g>
<!-- Node13&#45;&gt;Node6 -->
<g id="edge15" class="edge"><title>Node13&#45;&gt;Node6</title>
<path fill="none" stroke="midnightblue" d="M519.084,-110.32C478.119,-100.126 417.192,-84.9648 379.345,-75.5467"/>
<polygon fill="midnightblue" stroke="midnightblue" points="518.493,-113.78 529.042,-112.799 520.184,-106.987 518.493,-113.78"/>
</g>
<!-- Node13&#45;&gt;Node7 -->
<g id="edge14" class="edge"><title>Node13&#45;&gt;Node7</title>
<path fill="none" stroke="midnightblue" d="M533.205,-108.23C500.131,-93.9467 443.984,-70.8702 394,-56 329.266,-36.7415 251.083,-22.3662 210.137,-15.4944"/>
<polygon fill="midnightblue" stroke="midnightblue" points="532.13,-111.579 542.696,-112.361 534.924,-105.161 532.13,-111.579"/>
</g>
<!-- Node14 -->
<g id="node14" class="node"><title>Node14</title>
<g id="a_node14"><a xlink:href="controller_8cpp.html" target="_top" xlink:title="controller.cpp">
<polygon fill="none" stroke="black" points="524.5,-56.5 524.5,-75.5 599.5,-75.5 599.5,-56.5 524.5,-56.5"/>
<text text-anchor="middle" x="562" y="-63.5" font-family="Helvetica,sans-Serif" font-size="10.00">controller.cpp</text>
</a>
</g>
</g>
<!-- Node13&#45;&gt;Node14 -->
<g id="edge13" class="edge"><title>Node13&#45;&gt;Node14</title>
<path fill="none" stroke="midnightblue" d="M562,-101.805C562,-92.9102 562,-82.7798 562,-75.7511"/>
<polygon fill="midnightblue" stroke="midnightblue" points="558.5,-102.083 562,-112.083 565.5,-102.083 558.5,-102.083"/>
</g>
<!-- Node17 -->
<g id="node17" class="node"><title>Node17</title>
<g id="a_node17"><a xlink:href="qmapwidget_8h.html" target="_top" xlink:title="qmapwidget.h">
<polygon fill="none" stroke="black" points="523.5,-168.5 523.5,-187.5 600.5,-187.5 600.5,-168.5 523.5,-168.5"/>
<text text-anchor="middle" x="562" y="-175.5" font-family="Helvetica,sans-Serif" font-size="10.00">qmapwidget.h</text>
</a>
</g>
</g>
<!-- Node16&#45;&gt;Node17 -->
<g id="edge23" class="edge"><title>Node16&#45;&gt;Node17</title>
<path fill="none" stroke="midnightblue" d="M631.938,-219.177C614.641,-209.241 591.852,-196.149 577.065,-187.655"/>
<polygon fill="midnightblue" stroke="midnightblue" points="630.483,-222.378 640.897,-224.324 633.97,-216.308 630.483,-222.378"/>
</g>
<!-- Node19 -->
<g id="node19" class="node"><title>Node19</title>
<g id="a_node19"><a xlink:href="qmapscene_8cpp.html" target="_top" xlink:title="qmapscene.cpp">
<polygon fill="none" stroke="black" points="619,-168.5 619,-187.5 705,-187.5 705,-168.5 619,-168.5"/>
<text text-anchor="middle" x="662" y="-175.5" font-family="Helvetica,sans-Serif" font-size="10.00">qmapscene.cpp</text>
</a>
</g>
</g>
<!-- Node16&#45;&gt;Node19 -->
<g id="edge27" class="edge"><title>Node16&#45;&gt;Node19</title>
<path fill="none" stroke="midnightblue" d="M658.1,-214.101C659.096,-205.136 660.238,-194.858 661.028,-187.751"/>
<polygon fill="midnightblue" stroke="midnightblue" points="654.617,-213.758 656.991,-224.083 661.574,-214.531 654.617,-213.758"/>
</g>
<!-- Node17&#45;&gt;Node6 -->
<g id="edge26" class="edge"><title>Node17&#45;&gt;Node6</title>
<path fill="none" stroke="midnightblue" d="M545.91,-160.909C530.615,-146.386 506.384,-125.316 482,-112 450.58,-94.8416 411.514,-82.8111 383.148,-75.5336"/>
<polygon fill="midnightblue" stroke="midnightblue" points="543.82,-163.758 553.433,-168.212 548.696,-158.735 543.82,-163.758"/>
</g>
<!-- Node17&#45;&gt;Node13 -->
<g id="edge24" class="edge"><title>Node17&#45;&gt;Node13</title>
<path fill="none" stroke="midnightblue" d="M562,-157.805C562,-148.91 562,-138.78 562,-131.751"/>
<polygon fill="midnightblue" stroke="midnightblue" points="558.5,-158.083 562,-168.083 565.5,-158.083 558.5,-158.083"/>
</g>
<!-- Node18 -->
<g id="node18" class="node"><title>Node18</title>
<g id="a_node18"><a xlink:href="qmapwidget_8cpp.html" target="_top" xlink:title="qmapwidget.cpp">
<polygon fill="none" stroke="black" points="613,-112.5 613,-131.5 701,-131.5 701,-112.5 613,-112.5"/>
<text text-anchor="middle" x="657" y="-119.5" font-family="Helvetica,sans-Serif" font-size="10.00">qmapwidget.cpp</text>
</a>
</g>
</g>
<!-- Node17&#45;&gt;Node18 -->
<g id="edge25" class="edge"><title>Node17&#45;&gt;Node18</title>
<path fill="none" stroke="midnightblue" d="M586.318,-163.177C603.799,-153.241 626.83,-140.149 641.774,-131.655"/>
<polygon fill="midnightblue" stroke="midnightblue" points="584.227,-160.339 577.263,-168.324 587.687,-166.425 584.227,-160.339"/>
</g>
<!-- Node22 -->
<g id="node22" class="node"><title>Node22</title>
<g id="a_node22"><a xlink:href="sauvegarde_8cpp.html" target="_top" xlink:title="sauvegarde.cpp">
<polygon fill="none" stroke="black" points="68,-224.5 68,-243.5 154,-243.5 154,-224.5 68,-224.5"/>
<text text-anchor="middle" x="111" y="-231.5" font-family="Helvetica,sans-Serif" font-size="10.00">sauvegarde.cpp</text>
</a>
</g>
</g>
<!-- Node21&#45;&gt;Node22 -->
<g id="edge34" class="edge"><title>Node21&#45;&gt;Node22</title>
<path fill="none" stroke="midnightblue" d="M160.238,-274.101C148,-264.382 132.441,-252.027 122.124,-243.834"/>
<polygon fill="midnightblue" stroke="midnightblue" points="158.067,-276.846 168.075,-280.324 162.42,-271.364 158.067,-276.846"/>
</g>
<!-- Node25&#45;&gt;Node9 -->
<g id="edge41" class="edge"><title>Node25&#45;&gt;Node9</title>
<path fill="none" stroke="midnightblue" d="M620.466,-333.197C589.641,-322.662 545.419,-307.548 519.114,-298.558"/>
<polygon fill="midnightblue" stroke="midnightblue" points="619.37,-336.521 629.964,-336.444 621.634,-329.898 619.37,-336.521"/>
</g>
<!-- Node25&#45;&gt;Node12 -->
<g id="edge42" class="edge"><title>Node25&#45;&gt;Node12</title>
<path fill="none" stroke="midnightblue" d="M636.407,-329.45C627.4,-321.298 616.861,-310.782 609,-300 586.751,-269.485 599.357,-248.941 571,-224 541.434,-197.996 495.971,-186.795 467.659,-182.133"/>
<polygon fill="midnightblue" stroke="midnightblue" points="634.298,-332.256 644.127,-336.211 638.91,-326.99 634.298,-332.256"/>
</g>
<!-- Node25&#45;&gt;Node16 -->
<g id="edge43" class="edge"><title>Node25&#45;&gt;Node16</title>
<path fill="none" stroke="midnightblue" d="M677.174,-330.161C686.719,-322.424 696.853,-312.053 702,-300 711.555,-277.623 686.23,-255.292 669.468,-243.52"/>
<polygon fill="midnightblue" stroke="midnightblue" points="674.96,-327.447 669.078,-336.259 679.172,-333.038 674.96,-327.447"/>
</g>
<!-- Node26 -->
<g id="node26" class="node"><title>Node26</title>
<g id="a_node26"><a xlink:href="pointroad_8cpp.html" target="_top" xlink:title="pointroad.cpp">
<polygon fill="none" stroke="black" points="618.5,-280.5 618.5,-299.5 693.5,-299.5 693.5,-280.5 618.5,-280.5"/>
<text text-anchor="middle" x="656" y="-287.5" font-family="Helvetica,sans-Serif" font-size="10.00">pointroad.cpp</text>
</a>
</g>
</g>
<!-- Node25&#45;&gt;Node26 -->
<g id="edge44" class="edge"><title>Node25&#45;&gt;Node26</title>
<path fill="none" stroke="midnightblue" d="M655.355,-325.805C655.52,-316.91 655.708,-306.78 655.838,-299.751"/>
<polygon fill="midnightblue" stroke="midnightblue" points="651.851,-326.02 655.165,-336.083 658.85,-326.15 651.851,-326.02"/>
</g>
<!-- Node28 -->
<g id="node28" class="node"><title>Node28</title>
<g id="a_node28"><a xlink:href="box_8cpp.html" target="_top" xlink:title="box.cpp">
<polygon fill="none" stroke="black" points="786.5,-336.5 786.5,-355.5 837.5,-355.5 837.5,-336.5 786.5,-336.5"/>
<text text-anchor="middle" x="812" y="-343.5" font-family="Helvetica,sans-Serif" font-size="10.00">box.cpp</text>
</a>
</g>
</g>
<!-- Node27&#45;&gt;Node28 -->
<g id="edge46" class="edge"><title>Node27&#45;&gt;Node28</title>
<path fill="none" stroke="midnightblue" d="M786.065,-383.855C792.645,-374.505 800.511,-363.327 805.842,-355.751"/>
<polygon fill="midnightblue" stroke="midnightblue" points="783.168,-381.891 780.275,-392.083 788.892,-385.919 783.168,-381.891"/>
</g>
<!-- Node29 -->
<g id="node29" class="node"><title>Node29</title>
<g id="a_node29"><a xlink:href="boxnode_8h.html" target="_top" xlink:title="boxnode.h">
<polygon fill="none" stroke="black" points="706,-336.5 706,-355.5 768,-355.5 768,-336.5 706,-336.5"/>
<text text-anchor="middle" x="737" y="-343.5" font-family="Helvetica,sans-Serif" font-size="10.00">boxnode.h</text>
</a>
</g>
</g>
<!-- Node27&#45;&gt;Node29 -->
<g id="edge47" class="edge"><title>Node27&#45;&gt;Node29</title>
<path fill="none" stroke="midnightblue" d="M762.054,-383.566C755.688,-374.275 748.133,-363.248 742.996,-355.751"/>
<polygon fill="midnightblue" stroke="midnightblue" points="759.351,-385.812 767.89,-392.083 765.125,-381.855 759.351,-385.812"/>
</g>
<!-- Node30 -->
<g id="node30" class="node"><title>Node30</title>
<g id="a_node30"><a xlink:href="boxnode_8cpp.html" target="_top" xlink:title="boxnode.cpp">
<polygon fill="none" stroke="black" points="750,-280.5 750,-299.5 822,-299.5 822,-280.5 750,-280.5"/>
<text text-anchor="middle" x="786" y="-287.5" font-family="Helvetica,sans-Serif" font-size="10.00">boxnode.cpp</text>
</a>
</g>
</g>
<!-- Node29&#45;&gt;Node30 -->
<g id="edge48" class="edge"><title>Node29&#45;&gt;Node30</title>
<path fill="none" stroke="midnightblue" d="M752.034,-328.431C760.622,-318.967 771.043,-307.483 778.059,-299.751"/>
<polygon fill="midnightblue" stroke="midnightblue" points="749.219,-326.325 745.091,-336.083 754.403,-331.029 749.219,-326.325"/>
</g>
<!-- Node29&#45;&gt;Node31 -->
<g id="edge49" class="edge"><title>Node29&#45;&gt;Node31</title>
<path fill="none" stroke="midnightblue" d="M766.854,-332.503C791.038,-322.38 824.462,-308.388 845.655,-299.516"/>
<polygon fill="midnightblue" stroke="midnightblue" points="765.313,-329.354 757.44,-336.444 768.016,-335.811 765.313,-329.354"/>
</g>
<!-- Node32 -->
<g id="node32" class="node"><title>Node32</title>
<g id="a_node32"><a xlink:href="kdtree_8cpp.html" target="_top" xlink:title="kdtree.cpp">
<polygon fill="none" stroke="black" points="835,-224.5 835,-243.5 897,-243.5 897,-224.5 835,-224.5"/>
<text text-anchor="middle" x="866" y="-231.5" font-family="Helvetica,sans-Serif" font-size="10.00">kdtree.cpp</text>
</a>
</g>
</g>
<!-- Node31&#45;&gt;Node32 -->
<g id="edge50" class="edge"><title>Node31&#45;&gt;Node32</title>
<path fill="none" stroke="midnightblue" d="M866,-269.805C866,-260.91 866,-250.78 866,-243.751"/>
<polygon fill="midnightblue" stroke="midnightblue" points="862.5,-270.083 866,-280.083 869.5,-270.083 862.5,-270.083"/>
</g>
</g>
</svg>
