<?xml version="1.0" encoding="UTF-8" standalone="no"?>
<!DOCTYPE svg PUBLIC "-//W3C//DTD SVG 1.1//EN"
 "http://www.w3.org/Graphics/SVG/1.1/DTD/svg11.dtd">
<!-- Generated by graphviz version 2.38.0 (20140413.2041)
 -->
<!-- Title: pointGPS.h Pages: 1 -->
<!--zoomable 420 -->
<svg id="main" version="1.1" xmlns="http://www.w3.org/2000/svg" xmlns:xlink="http://www.w3.org/1999/xlink" xml:space="preserve" onload="init(evt)">
<style type="text/css"><![CDATA[
.edge:hover path { stroke: red; }
.edge:hover polygon { stroke: red; fill: red; }
]]></style>
<script type="text/javascript"><![CDATA[
var edges = document.getElementsByTagName('g');
if (edges && edges.length) {
  for (var i=0;i<edges.length;i++) {
    if (edges[i].id.substr(0,4)=='edge') {
      edges[i].setAttribute('class','edge');
    }
  }
}
]]></script>
        <defs>
                <circle id="rim" cx="0" cy="0" r="7"/>
                <circle id="rim2" cx="0" cy="0" r="3.5"/>
                <g id="zoomPlus">
                        <use xlink:href="#rim" fill="#404040">
                                <set attributeName="fill" to="#808080" begin="zoomplus.mouseover" end="zoomplus.mouseout"/>
                        </use>
                        <path d="M-4,0h8M0,-4v8" fill="none" stroke="white" stroke-width="1.5" pointer-events="none"/>
                </g>
                <g id="zoomMin">
                        <use xlink:href="#rim" fill="#404040">
                                <set attributeName="fill" to="#808080" begin="zoomminus.mouseover" end="zoomminus.mouseout"/>
                        </use>
                        <path d="M-4,0h8" fill="none" stroke="white" stroke-width="1.5" pointer-events="none"/>
                </g>
                <g id="dirArrow">
                        <path fill="none" stroke="white" stroke-width="1.5" d="M0,-3.0v7 M-2.5,-0.5L0,-3.0L2.5,-0.5"/>
                </g>
               <g id="resetDef">
                       <use xlink:href="#rim2" fill="#404040">
                               <set attributeName="fill" to="#808080" begin="reset.mouseover" end="reset.mouseout"/>
                       </use>
               </g>
        </defs>

<script type="text/javascript">
var viewWidth = 778;
var viewHeight = 420;
var sectionId = 'dynsection-1';
</script>
<script xlink:href="svgpan.js"/>
<svg id="graph" class="graph">
<g id="viewport">
<title>pointGPS.h</title>
<!-- Node1 -->
<g id="node1" class="node"><title>Node1</title>
<polygon fill="#bfbfbf" stroke="black" points="425.5,-392.5 425.5,-411.5 492.5,-411.5 492.5,-392.5 425.5,-392.5"/>
<text text-anchor="middle" x="459" y="-399.5" font-family="Helvetica,sans-Serif" font-size="10.00">pointGPS.h</text>
</g>
<!-- Node2 -->
<g id="node2" class="node"><title>Node2</title>
<g id="a_node2"><a xlink:href="track_8h.html" target="_top" xlink:title="The class Track. ">
<polygon fill="none" stroke="black" points="271.5,-336.5 271.5,-355.5 318.5,-355.5 318.5,-336.5 271.5,-336.5"/>
<text text-anchor="middle" x="295" y="-343.5" font-family="Helvetica,sans-Serif" font-size="10.00">track.h</text>
</a>
</g>
</g>
<!-- Node1&#45;&gt;Node2 -->
<g id="edge1" class="edge"><title>Node1&#45;&gt;Node2</title>
<path fill="none" stroke="midnightblue" d="M423.244,-389.227C391.546,-378.79 346.152,-363.843 318.735,-354.815"/>
<polygon fill="midnightblue" stroke="midnightblue" points="422.421,-392.64 433.014,-392.444 424.61,-385.992 422.421,-392.64"/>
</g>
<!-- Node6 -->
<g id="node6" class="node"><title>Node6</title>
<g id="a_node6"><a xlink:href="main_8cpp.html" target="_top" xlink:title="main.cpp">
<polygon fill="none" stroke="black" points="181,-0.5 181,-19.5 237,-19.5 237,-0.5 181,-0.5"/>
<text text-anchor="middle" x="209" y="-7.5" font-family="Helvetica,sans-Serif" font-size="10.00">main.cpp</text>
</a>
</g>
</g>
<!-- Node1&#45;&gt;Node6 -->
<g id="edge37" class="edge"><title>Node1&#45;&gt;Node6</title>
<path fill="none" stroke="midnightblue" d="M502.868,-396.84C563.091,-388.441 664,-363.545 664,-291 664,-291 664,-291 664,-121 664,-76.8609 336.319,-28.418 237.119,-14.764"/>
<polygon fill="midnightblue" stroke="midnightblue" points="502.319,-393.382 492.852,-398.138 503.219,-400.324 502.319,-393.382"/>
</g>
<!-- Node11 -->
<g id="node11" class="node"><title>Node11</title>
<g id="a_node11"><a xlink:href="solver_8h.html" target="_top" xlink:title="solver.h">
<polygon fill="none" stroke="black" points="129.5,-168.5 129.5,-187.5 180.5,-187.5 180.5,-168.5 129.5,-168.5"/>
<text text-anchor="middle" x="155" y="-175.5" font-family="Helvetica,sans-Serif" font-size="10.00">solver.h</text>
</a>
</g>
</g>
<!-- Node1&#45;&gt;Node11 -->
<g id="edge35" class="edge"><title>Node1&#45;&gt;Node11</title>
<path fill="none" stroke="midnightblue" d="M415.294,-396.753C320.408,-386.528 100.563,-357.06 57,-300 36.5026,-273.152 38.7677,-252.435 57,-224 72.8657,-199.256 106.13,-187.937 129.486,-182.883"/>
<polygon fill="midnightblue" stroke="midnightblue" points="415.11,-400.253 425.422,-397.822 415.845,-393.292 415.11,-400.253"/>
</g>
<!-- Node15 -->
<g id="node15" class="node"><title>Node15</title>
<g id="a_node15"><a xlink:href="qmapscene_8h.html" target="_top" xlink:title="qmapscene.h">
<polygon fill="none" stroke="black" points="421.5,-224.5 421.5,-243.5 496.5,-243.5 496.5,-224.5 421.5,-224.5"/>
<text text-anchor="middle" x="459" y="-231.5" font-family="Helvetica,sans-Serif" font-size="10.00">qmapscene.h</text>
</a>
</g>
</g>
<!-- Node1&#45;&gt;Node15 -->
<g id="edge36" class="edge"><title>Node1&#45;&gt;Node15</title>
<path fill="none" stroke="midnightblue" d="M459,-381.93C459,-345.92 459,-269.231 459,-243.568"/>
<polygon fill="midnightblue" stroke="midnightblue" points="455.5,-382.075 459,-392.075 462.5,-382.075 455.5,-382.075"/>
</g>
<!-- Node23 -->
<g id="node23" class="node"><title>Node23</title>
<g id="a_node23"><a xlink:href="point_g_p_s_8cpp.html" target="_top" xlink:title="pointGPS.cpp">
<polygon fill="none" stroke="black" points="692.5,-336.5 692.5,-355.5 769.5,-355.5 769.5,-336.5 692.5,-336.5"/>
<text text-anchor="middle" x="731" y="-343.5" font-family="Helvetica,sans-Serif" font-size="10.00">pointGPS.cpp</text>
</a>
</g>
</g>
<!-- Node1&#45;&gt;Node23 -->
<g id="edge38" class="edge"><title>Node1&#45;&gt;Node23</title>
<path fill="none" stroke="midnightblue" d="M502.618,-392.341C554.997,-381.942 642.047,-364.66 692.189,-354.705"/>
<polygon fill="midnightblue" stroke="midnightblue" points="501.752,-388.944 492.625,-394.324 503.115,-395.81 501.752,-388.944"/>
</g>
<!-- Node3 -->
<g id="node3" class="node"><title>Node3</title>
<g id="a_node3"><a xlink:href="filtering_8h.html" target="_top" xlink:title="filtering.h">
<polygon fill="none" stroke="black" points="528,-280.5 528,-299.5 584,-299.5 584,-280.5 528,-280.5"/>
<text text-anchor="middle" x="556" y="-287.5" font-family="Helvetica,sans-Serif" font-size="10.00">filtering.h</text>
</a>
</g>
</g>
<!-- Node2&#45;&gt;Node3 -->
<g id="edge2" class="edge"><title>Node2&#45;&gt;Node3</title>
<path fill="none" stroke="midnightblue" d="M328.671,-338.034C380.675,-327.274 479.573,-306.813 527.945,-296.805"/>
<polygon fill="midnightblue" stroke="midnightblue" points="327.706,-334.659 318.622,-340.113 329.124,-341.514 327.706,-334.659"/>
</g>
<!-- Node5 -->
<g id="node5" class="node"><title>Node5</title>
<g id="a_node5"><a xlink:href="_main_window_8h.html" target="_top" xlink:title="MainWindow.h">
<polygon fill="none" stroke="black" points="349.5,-56.5 349.5,-75.5 430.5,-75.5 430.5,-56.5 349.5,-56.5"/>
<text text-anchor="middle" x="390" y="-63.5" font-family="Helvetica,sans-Serif" font-size="10.00">MainWindow.h</text>
</a>
</g>
</g>
<!-- Node2&#45;&gt;Node5 -->
<g id="edge30" class="edge"><title>Node2&#45;&gt;Node5</title>
<path fill="none" stroke="midnightblue" d="M319.093,-330.72C346.649,-312.357 388,-277.689 388,-235 388,-235 388,-235 388,-177 388,-139.181 389.196,-94.0608 389.739,-75.5568"/>
<polygon fill="midnightblue" stroke="midnightblue" points="316.894,-327.972 310.357,-336.31 320.667,-333.868 316.894,-327.972"/>
</g>
<!-- Node2&#45;&gt;Node6 -->
<g id="edge31" class="edge"><title>Node2&#45;&gt;Node6</title>
<path fill="none" stroke="midnightblue" d="M261.288,-342.383C203.443,-337.29 88.4616,-324.353 57,-300 9.99124,-263.613 0,-238.446 0,-179 0,-179 0,-179 0,-121 0,-40.2232 123.765,-18.6273 180.813,-12.9635"/>
<polygon fill="midnightblue" stroke="midnightblue" points="261.13,-345.882 271.391,-343.243 261.725,-338.907 261.13,-345.882"/>
</g>
<!-- Node8 -->
<g id="node8" class="node"><title>Node8</title>
<g id="a_node8"><a xlink:href="road_8h.html" target="_top" xlink:title="road.h">
<polygon fill="none" stroke="black" points="273,-280.5 273,-299.5 317,-299.5 317,-280.5 273,-280.5"/>
<text text-anchor="middle" x="295" y="-287.5" font-family="Helvetica,sans-Serif" font-size="10.00">road.h</text>
</a>
</g>
</g>
<!-- Node2&#45;&gt;Node8 -->
<g id="edge7" class="edge"><title>Node2&#45;&gt;Node8</title>
<path fill="none" stroke="midnightblue" d="M295,-325.805C295,-316.91 295,-306.78 295,-299.751"/>
<polygon fill="midnightblue" stroke="midnightblue" points="291.5,-326.083 295,-336.083 298.5,-326.083 291.5,-326.083"/>
</g>
<!-- Node9 -->
<g id="node9" class="node"><title>Node9</title>
<g id="a_node9"><a xlink:href="grid_8h.html" target="_top" xlink:title="grid.h">
<polygon fill="none" stroke="black" points="318.5,-224.5 318.5,-243.5 359.5,-243.5 359.5,-224.5 318.5,-224.5"/>
<text text-anchor="middle" x="339" y="-231.5" font-family="Helvetica,sans-Serif" font-size="10.00">grid.h</text>
</a>
</g>
</g>
<!-- Node2&#45;&gt;Node9 -->
<g id="edge28" class="edge"><title>Node2&#45;&gt;Node9</title>
<path fill="none" stroke="midnightblue" d="M308.821,-328.445C314.941,-320.33 321.71,-310.137 326,-300 334.073,-280.923 337.22,-256.538 338.377,-243.741"/>
<polygon fill="midnightblue" stroke="midnightblue" points="306.039,-326.319 302.582,-336.334 311.53,-330.661 306.039,-326.319"/>
</g>
<!-- Node2&#45;&gt;Node11 -->
<g id="edge29" class="edge"><title>Node2&#45;&gt;Node11</title>
<path fill="none" stroke="midnightblue" d="M278.375,-329.185C258.508,-309.918 224.725,-275.972 199,-244 183.623,-224.889 168.117,-200.518 160.266,-187.732"/>
<polygon fill="midnightblue" stroke="midnightblue" points="276.105,-331.858 285.738,-336.269 280.959,-326.814 276.105,-331.858"/>
</g>
<!-- Node20 -->
<g id="node20" class="node"><title>Node20</title>
<g id="a_node20"><a xlink:href="sauvegarde_8h.html" target="_top" xlink:title="sauvegarde.h">
<polygon fill="none" stroke="black" points="66.5,-280.5 66.5,-299.5 141.5,-299.5 141.5,-280.5 66.5,-280.5"/>
<text text-anchor="middle" x="104" y="-287.5" font-family="Helvetica,sans-Serif" font-size="10.00">sauvegarde.h</text>
</a>
</g>
</g>
<!-- Node2&#45;&gt;Node20 -->
<g id="edge32" class="edge"><title>Node2&#45;&gt;Node20</title>
<path fill="none" stroke="midnightblue" d="M261.163,-335.434C225.126,-325.245 168.624,-309.271 134.089,-299.507"/>
<polygon fill="midnightblue" stroke="midnightblue" points="260.621,-338.917 271.196,-338.27 262.525,-332.181 260.621,-338.917"/>
</g>
<!-- Node22 -->
<g id="node22" class="node"><title>Node22</title>
<g id="a_node22"><a xlink:href="track_8cpp.html" target="_top" xlink:title="track.cpp">
<polygon fill="none" stroke="black" points="159.5,-280.5 159.5,-299.5 216.5,-299.5 216.5,-280.5 159.5,-280.5"/>
<text text-anchor="middle" x="188" y="-287.5" font-family="Helvetica,sans-Serif" font-size="10.00">track.cpp</text>
</a>
</g>
</g>
<!-- Node2&#45;&gt;Node22 -->
<g id="edge34" class="edge"><title>Node2&#45;&gt;Node22</title>
<path fill="none" stroke="midnightblue" d="M268.698,-331.726C248.885,-321.727 222.293,-308.307 205.149,-299.655"/>
<polygon fill="midnightblue" stroke="midnightblue" points="267.304,-334.943 277.809,-336.324 270.458,-328.694 267.304,-334.943"/>
</g>
<!-- Node4 -->
<g id="node4" class="node"><title>Node4</title>
<g id="a_node4"><a xlink:href="filtering_8cpp.html" target="_top" xlink:title="filtering.cpp">
<polygon fill="none" stroke="black" points="522.5,-224.5 522.5,-243.5 589.5,-243.5 589.5,-224.5 522.5,-224.5"/>
<text text-anchor="middle" x="556" y="-231.5" font-family="Helvetica,sans-Serif" font-size="10.00">filtering.cpp</text>
</a>
</g>
</g>
<!-- Node3&#45;&gt;Node4 -->
<g id="edge3" class="edge"><title>Node3&#45;&gt;Node4</title>
<path fill="none" stroke="midnightblue" d="M556,-269.805C556,-260.91 556,-250.78 556,-243.751"/>
<polygon fill="midnightblue" stroke="midnightblue" points="552.5,-270.083 556,-280.083 559.5,-270.083 552.5,-270.083"/>
</g>
<!-- Node3&#45;&gt;Node5 -->
<g id="edge4" class="edge"><title>Node3&#45;&gt;Node5</title>
<path fill="none" stroke="midnightblue" d="M575.177,-273.848C583.872,-265.909 593.432,-255.46 599,-244 613.843,-213.451 618.618,-199.915 607,-168 581.627,-98.3001 486.137,-76.6948 430.645,-70.0013"/>
<polygon fill="midnightblue" stroke="midnightblue" points="572.872,-271.214 567.576,-280.39 577.438,-276.52 572.872,-271.214"/>
</g>
<!-- Node5&#45;&gt;Node6 -->
<g id="edge5" class="edge"><title>Node5&#45;&gt;Node6</title>
<path fill="none" stroke="midnightblue" d="M351.651,-53.5589C317.397,-43.3395 268.012,-28.6059 237.248,-19.4275"/>
<polygon fill="midnightblue" stroke="midnightblue" points="350.737,-56.9385 361.32,-56.4435 352.738,-50.2306 350.737,-56.9385"/>
</g>
<!-- Node7 -->
<g id="node7" class="node"><title>Node7</title>
<g id="a_node7"><a xlink:href="_main_window_8cpp.html" target="_top" xlink:title="MainWindow.cpp">
<polygon fill="none" stroke="black" points="344,-0.5 344,-19.5 436,-19.5 436,-0.5 344,-0.5"/>
<text text-anchor="middle" x="390" y="-7.5" font-family="Helvetica,sans-Serif" font-size="10.00">MainWindow.cpp</text>
</a>
</g>
</g>
<!-- Node5&#45;&gt;Node7 -->
<g id="edge6" class="edge"><title>Node5&#45;&gt;Node7</title>
<path fill="none" stroke="midnightblue" d="M390,-45.8045C390,-36.9102 390,-26.7798 390,-19.7511"/>
<polygon fill="midnightblue" stroke="midnightblue" points="386.5,-46.083 390,-56.083 393.5,-46.083 386.5,-46.083"/>
</g>
<!-- Node8&#45;&gt;Node9 -->
<g id="edge8" class="edge"><title>Node8&#45;&gt;Node9</title>
<path fill="none" stroke="midnightblue" d="M308.735,-272.144C316.401,-262.736 325.633,-251.405 331.869,-243.751"/>
<polygon fill="midnightblue" stroke="midnightblue" points="305.869,-270.12 302.266,-280.083 311.296,-274.541 305.869,-270.12"/>
</g>
<!-- Node8&#45;&gt;Node11 -->
<g id="edge20" class="edge"><title>Node8&#45;&gt;Node11</title>
<path fill="none" stroke="midnightblue" d="M292.287,-270.005C289.323,-255.686 283.248,-236.45 271,-224 258.048,-210.834 210.642,-195.179 180.589,-186.234"/>
<polygon fill="midnightblue" stroke="midnightblue" points="288.9,-270.956 294.056,-280.212 295.797,-269.761 288.9,-270.956"/>
</g>
<!-- Node8&#45;&gt;Node15 -->
<g id="edge21" class="edge"><title>Node8&#45;&gt;Node15</title>
<path fill="none" stroke="midnightblue" d="M326.966,-278.475C357.88,-268.296 404.154,-253.059 432.912,-243.59"/>
<polygon fill="midnightblue" stroke="midnightblue" points="325.521,-275.265 317.118,-281.717 327.711,-281.914 325.521,-275.265"/>
</g>
<!-- Node19 -->
<g id="node19" class="node"><title>Node19</title>
<g id="a_node19"><a xlink:href="road_8cpp.html" target="_top" xlink:title="road.cpp">
<polygon fill="none" stroke="black" points="208,-224.5 208,-243.5 262,-243.5 262,-224.5 208,-224.5"/>
<text text-anchor="middle" x="235" y="-231.5" font-family="Helvetica,sans-Serif" font-size="10.00">road.cpp</text>
</a>
</g>
</g>
<!-- Node8&#45;&gt;Node19 -->
<g id="edge27" class="edge"><title>Node8&#45;&gt;Node19</title>
<path fill="none" stroke="midnightblue" d="M277.819,-273.537C267.121,-263.909 253.744,-251.869 244.815,-243.834"/>
<polygon fill="midnightblue" stroke="midnightblue" points="275.586,-276.236 285.36,-280.324 280.268,-271.033 275.586,-276.236"/>
</g>
<!-- Node9&#45;&gt;Node5 -->
<g id="edge18" class="edge"><title>Node9&#45;&gt;Node5</title>
<path fill="none" stroke="midnightblue" d="M343.936,-214.66C350.424,-190.865 362.367,-148.118 374,-112 378.118,-99.2144 383.431,-84.5902 386.778,-75.5745"/>
<polygon fill="midnightblue" stroke="midnightblue" points="340.523,-213.871 341.286,-224.438 347.28,-215.701 340.523,-213.871"/>
</g>
<!-- Node9&#45;&gt;Node6 -->
<g id="edge19" class="edge"><title>Node9&#45;&gt;Node6</title>
<path fill="none" stroke="midnightblue" d="M320.479,-217.766C304.176,-204.446 279.718,-184.68 258,-168 236.568,-151.54 221.204,-156.111 209,-132 189.741,-93.9525 201.026,-40.1612 206.524,-19.5191"/>
<polygon fill="midnightblue" stroke="midnightblue" points="318.674,-220.812 328.628,-224.442 323.11,-215.397 318.674,-220.812"/>
</g>
<!-- Node10 -->
<g id="node10" class="node"><title>Node10</title>
<g id="a_node10"><a xlink:href="grid_8cpp.html" target="_top" xlink:title="grid.cpp">
<polygon fill="none" stroke="black" points="198.5,-168.5 198.5,-187.5 249.5,-187.5 249.5,-168.5 198.5,-168.5"/>
<text text-anchor="middle" x="224" y="-175.5" font-family="Helvetica,sans-Serif" font-size="10.00">grid.cpp</text>
</a>
</g>
</g>
<!-- Node9&#45;&gt;Node10 -->
<g id="edge9" class="edge"><title>Node9&#45;&gt;Node10</title>
<path fill="none" stroke="midnightblue" d="M311.519,-220.096C290.034,-210.007 260.778,-196.27 242.137,-187.516"/>
<polygon fill="midnightblue" stroke="midnightblue" points="310.238,-223.361 320.778,-224.444 313.214,-217.025 310.238,-223.361"/>
</g>
<!-- Node9&#45;&gt;Node11 -->
<g id="edge10" class="edge"><title>Node9&#45;&gt;Node11</title>
<path fill="none" stroke="midnightblue" d="M308.375,-224.012C272.627,-213.521 214.148,-196.359 180.675,-186.535"/>
<polygon fill="midnightblue" stroke="midnightblue" points="307.67,-227.453 318.251,-226.91 309.641,-220.736 307.67,-227.453"/>
</g>
<!-- Node11&#45;&gt;Node5 -->
<g id="edge16" class="edge"><title>Node11&#45;&gt;Node5</title>
<path fill="none" stroke="midnightblue" d="M190.333,-166.572C224.574,-156.256 273.907,-140.774 292,-132 325.801,-115.609 361.64,-89.2012 379.126,-75.6431"/>
<polygon fill="midnightblue" stroke="midnightblue" points="189.254,-163.242 180.679,-169.465 191.263,-169.948 189.254,-163.242"/>
</g>
<!-- Node11&#45;&gt;Node6 -->
<g id="edge15" class="edge"><title>Node11&#45;&gt;Node6</title>
<path fill="none" stroke="midnightblue" d="M125.614,-163.65C104.419,-151.927 81.1353,-133.428 91,-112 111.861,-66.6848 164.195,-34.1188 191.619,-19.5404"/>
<polygon fill="midnightblue" stroke="midnightblue" points="124.284,-166.902 134.773,-168.397 127.505,-160.688 124.284,-166.902"/>
</g>
<!-- Node12 -->
<g id="node12" class="node"><title>Node12</title>
<g id="a_node12"><a xlink:href="controller_8h.html" target="_top" xlink:title="controller.h">
<polygon fill="none" stroke="black" points="218.5,-112.5 218.5,-131.5 283.5,-131.5 283.5,-112.5 218.5,-112.5"/>
<text text-anchor="middle" x="251" y="-119.5" font-family="Helvetica,sans-Serif" font-size="10.00">controller.h</text>
</a>
</g>
</g>
<!-- Node11&#45;&gt;Node12 -->
<g id="edge11" class="edge"><title>Node11&#45;&gt;Node12</title>
<path fill="none" stroke="midnightblue" d="M179.574,-163.177C197.239,-153.241 220.513,-140.149 235.614,-131.655"/>
<polygon fill="midnightblue" stroke="midnightblue" points="177.424,-160.371 170.424,-168.324 180.856,-166.472 177.424,-160.371"/>
</g>
<!-- Node14 -->
<g id="node14" class="node"><title>Node14</title>
<g id="a_node14"><a xlink:href="solver_8cpp.html" target="_top" xlink:title="solver.cpp">
<polygon fill="none" stroke="black" points="100,-112.5 100,-131.5 162,-131.5 162,-112.5 100,-112.5"/>
<text text-anchor="middle" x="131" y="-119.5" font-family="Helvetica,sans-Serif" font-size="10.00">solver.cpp</text>
</a>
</g>
</g>
<!-- Node11&#45;&gt;Node14 -->
<g id="edge17" class="edge"><title>Node11&#45;&gt;Node14</title>
<path fill="none" stroke="midnightblue" d="M146.862,-158.69C142.817,-149.589 138.117,-139.014 134.889,-131.751"/>
<polygon fill="midnightblue" stroke="midnightblue" points="143.777,-160.366 151.037,-168.083 150.174,-157.523 143.777,-160.366"/>
</g>
<!-- Node12&#45;&gt;Node5 -->
<g id="edge14" class="edge"><title>Node12&#45;&gt;Node5</title>
<path fill="none" stroke="midnightblue" d="M282.476,-108.772C308.585,-98.6287 345.039,-84.4669 368.078,-75.5164"/>
<polygon fill="midnightblue" stroke="midnightblue" points="281.079,-105.56 273.025,-112.444 283.614,-112.085 281.079,-105.56"/>
</g>
<!-- Node12&#45;&gt;Node6 -->
<g id="edge13" class="edge"><title>Node12&#45;&gt;Node6</title>
<path fill="none" stroke="midnightblue" d="M244.127,-102.998C234.962,-78.9968 219.106,-37.4683 212.28,-19.5914"/>
<polygon fill="midnightblue" stroke="midnightblue" points="240.867,-104.275 247.704,-112.368 247.407,-101.778 240.867,-104.275"/>
</g>
<!-- Node13 -->
<g id="node13" class="node"><title>Node13</title>
<g id="a_node13"><a xlink:href="controller_8cpp.html" target="_top" xlink:title="controller.cpp">
<polygon fill="none" stroke="black" points="256.5,-56.5 256.5,-75.5 331.5,-75.5 331.5,-56.5 256.5,-56.5"/>
<text text-anchor="middle" x="294" y="-63.5" font-family="Helvetica,sans-Serif" font-size="10.00">controller.cpp</text>
</a>
</g>
</g>
<!-- Node12&#45;&gt;Node13 -->
<g id="edge12" class="edge"><title>Node12&#45;&gt;Node13</title>
<path fill="none" stroke="midnightblue" d="M264.422,-104.144C271.914,-94.7357 280.937,-83.4046 287.032,-75.7511"/>
<polygon fill="midnightblue" stroke="midnightblue" points="261.592,-102.08 258.101,-112.083 267.068,-106.44 261.592,-102.08"/>
</g>
<!-- Node16 -->
<g id="node16" class="node"><title>Node16</title>
<g id="a_node16"><a xlink:href="qmapwidget_8h.html" target="_top" xlink:title="qmapwidget.h">
<polygon fill="none" stroke="black" points="520.5,-168.5 520.5,-187.5 597.5,-187.5 597.5,-168.5 520.5,-168.5"/>
<text text-anchor="middle" x="559" y="-175.5" font-family="Helvetica,sans-Serif" font-size="10.00">qmapwidget.h</text>
</a>
</g>
</g>
<!-- Node15&#45;&gt;Node16 -->
<g id="edge22" class="edge"><title>Node15&#45;&gt;Node16</title>
<path fill="none" stroke="midnightblue" d="M484.088,-219.453C502.549,-209.483 527.097,-196.228 542.973,-187.655"/>
<polygon fill="midnightblue" stroke="midnightblue" points="482.203,-216.493 475.067,-224.324 485.529,-222.652 482.203,-216.493"/>
</g>
<!-- Node18 -->
<g id="node18" class="node"><title>Node18</title>
<g id="a_node18"><a xlink:href="qmapscene_8cpp.html" target="_top" xlink:title="qmapscene.cpp">
<polygon fill="none" stroke="black" points="416,-168.5 416,-187.5 502,-187.5 502,-168.5 416,-168.5"/>
<text text-anchor="middle" x="459" y="-175.5" font-family="Helvetica,sans-Serif" font-size="10.00">qmapscene.cpp</text>
</a>
</g>
</g>
<!-- Node15&#45;&gt;Node18 -->
<g id="edge26" class="edge"><title>Node15&#45;&gt;Node18</title>
<path fill="none" stroke="midnightblue" d="M459,-213.805C459,-204.91 459,-194.78 459,-187.751"/>
<polygon fill="midnightblue" stroke="midnightblue" points="455.5,-214.083 459,-224.083 462.5,-214.083 455.5,-214.083"/>
</g>
<!-- Node16&#45;&gt;Node5 -->
<g id="edge25" class="edge"><title>Node16&#45;&gt;Node5</title>
<path fill="none" stroke="midnightblue" d="M558.163,-157.815C556.524,-143.393 552.027,-124.113 540,-112 511.169,-82.9642 464.394,-72.5155 430.739,-68.8347"/>
<polygon fill="midnightblue" stroke="midnightblue" points="554.698,-158.408 558.954,-168.11 561.677,-157.871 554.698,-158.408"/>
</g>
<!-- Node16&#45;&gt;Node12 -->
<g id="edge23" class="edge"><title>Node16&#45;&gt;Node12</title>
<path fill="none" stroke="midnightblue" d="M510.604,-167.95C422.51,-152.114 331.432,-136.583 283.861,-128.536"/>
<polygon fill="midnightblue" stroke="midnightblue" points="510.034,-171.403 520.496,-169.732 511.275,-164.514 510.034,-171.403"/>
</g>
<!-- Node17 -->
<g id="node17" class="node"><title>Node17</title>
<g id="a_node17"><a xlink:href="qmapwidget_8cpp.html" target="_top" xlink:title="qmapwidget.cpp">
<polygon fill="none" stroke="black" points="443,-112.5 443,-131.5 531,-131.5 531,-112.5 443,-112.5"/>
<text text-anchor="middle" x="487" y="-119.5" font-family="Helvetica,sans-Serif" font-size="10.00">qmapwidget.cpp</text>
</a>
</g>
</g>
<!-- Node16&#45;&gt;Node17 -->
<g id="edge24" class="edge"><title>Node16&#45;&gt;Node17</title>
<path fill="none" stroke="midnightblue" d="M539.134,-162.101C526.177,-152.382 509.703,-140.027 498.779,-131.834"/>
<polygon fill="midnightblue" stroke="midnightblue" points="537.332,-165.124 547.432,-168.324 541.532,-159.524 537.332,-165.124"/>
</g>
<!-- Node21 -->
<g id="node21" class="node"><title>Node21</title>
<g id="a_node21"><a xlink:href="sauvegarde_8cpp.html" target="_top" xlink:title="sauvegarde.cpp">
<polygon fill="none" stroke="black" points="66,-224.5 66,-243.5 152,-243.5 152,-224.5 66,-224.5"/>
<text text-anchor="middle" x="109" y="-231.5" font-family="Helvetica,sans-Serif" font-size="10.00">sauvegarde.cpp</text>
</a>
</g>
</g>
<!-- Node20&#45;&gt;Node21 -->
<g id="edge33" class="edge"><title>Node20&#45;&gt;Node21</title>
<path fill="none" stroke="midnightblue" d="M105.75,-270.101C106.58,-261.136 107.532,-250.858 108.19,-243.751"/>
<polygon fill="midnightblue" stroke="midnightblue" points="102.263,-269.803 104.826,-280.083 109.233,-270.448 102.263,-269.803"/>
</g>
</g>
</svg>
        <g id="navigator" transform="translate(0 0)" fill="#404254">
                <rect fill="#f2f5e9" fill-opacity="0.5" stroke="#606060" stroke-width=".5" x="0" y="0" width="60" height="60"/>
                <use id="zoomplus" xlink:href="#zoomPlus" x="17" y="9" onmousedown="handleZoom(evt,'in')"/>
                <use id="zoomminus" xlink:href="#zoomMin" x="42" y="9" onmousedown="handleZoom(evt,'out')"/>
                <use id="reset" xlink:href="#resetDef" x="30" y="36" onmousedown="handleReset()"/>
                <g id="arrowUp" xlink:href="#dirArrow" transform="translate(30 24)" onmousedown="handlePan(0,-1)">
                  <use xlink:href="#rim" fill="#404040">
                        <set attributeName="fill" to="#808080" begin="arrowUp.mouseover" end="arrowUp.mouseout"/>
                  </use>
                  <path fill="none" stroke="white" stroke-width="1.5" d="M0,-3.0v7 M-2.5,-0.5L0,-3.0L2.5,-0.5"/>
                </g>
                <g id="arrowRight" xlink:href="#dirArrow" transform="rotate(90) translate(36 -43)" onmousedown="handlePan(1,0)">
                  <use xlink:href="#rim" fill="#404040">
                        <set attributeName="fill" to="#808080" begin="arrowRight.mouseover" end="arrowRight.mouseout"/>
                  </use>
                  <path fill="none" stroke="white" stroke-width="1.5" d="M0,-3.0v7 M-2.5,-0.5L0,-3.0L2.5,-0.5"/>
                </g>
                <g id="arrowDown" xlink:href="#dirArrow" transform="rotate(180) translate(-30 -48)" onmousedown="handlePan(0,1)">
                  <use xlink:href="#rim" fill="#404040">
                        <set attributeName="fill" to="#808080" begin="arrowDown.mouseover" end="arrowDown.mouseout"/>
                  </use>
                  <path fill="none" stroke="white" stroke-width="1.5" d="M0,-3.0v7 M-2.5,-0.5L0,-3.0L2.5,-0.5"/>
                </g>
                <g id="arrowLeft" xlink:href="#dirArrow" transform="rotate(270) translate(-36 17)" onmousedown="handlePan(-1,0)">
                  <use xlink:href="#rim" fill="#404040">
                        <set attributeName="fill" to="#808080" begin="arrowLeft.mouseover" end="arrowLeft.mouseout"/>
                  </use>
                  <path fill="none" stroke="white" stroke-width="1.5" d="M0,-3.0v7 M-2.5,-0.5L0,-3.0L2.5,-0.5"/>
                </g>
        </g>
        <svg viewBox="0 0 15 15" width="100%" height="30px" preserveAspectRatio="xMaxYMin meet">
         <g id="arrow_out" transform="scale(0.3 0.3)">
          <a xlink:href="point_g_p_s_8h__dep__incl_org.svg" target="_base">
           <rect id="button" ry="5" rx="5" y="6" x="6" height="38" width="38"
                fill="#f2f5e9" fill-opacity="0.5" stroke="#606060" stroke-width="1.0"/>
           <path id="arrow"
             d="M 11.500037,31.436501 C 11.940474,20.09759 22.043105,11.32322 32.158766,21.979434 L 37.068811,17.246167 C 37.068811,17.246167 37.088388,32 37.088388,32 L 22.160133,31.978069 C 22.160133,31.978069 26.997745,27.140456 26.997745,27.140456 C 18.528582,18.264221 13.291696,25.230495 11.500037,31.436501 z"
             style="fill:#404040;"/>
          </a>
         </g>
        </svg>
</svg>
