<?xml version="1.0" encoding="UTF-8" standalone="no"?>
<!DOCTYPE svg PUBLIC "-//W3C//DTD SVG 1.1//EN"
 "http://www.w3.org/Graphics/SVG/1.1/DTD/svg11.dtd">
<!-- Generated by graphviz version 2.38.0 (20140413.2041)
 -->
<!-- Title: pointroad.h Pages: 1 -->
<svg width="154pt" height="140pt"
 viewBox="0.00 0.00 154.00 140.00" xmlns="http://www.w3.org/2000/svg" xmlns:xlink="http://www.w3.org/1999/xlink">
<g id="graph0" class="graph" transform="scale(1 1) rotate(0) translate(4 136)">
<title>pointroad.h</title>
<!-- Node1 -->
<g id="node1" class="node"><title>Node1</title>
<polygon fill="#bfbfbf" stroke="black" points="41.5,-112.5 41.5,-131.5 106.5,-131.5 106.5,-112.5 41.5,-112.5"/>
<text text-anchor="middle" x="74" y="-119.5" font-family="Helvetica,sans-Serif" font-size="10.00">pointroad.h</text>
</g>
<!-- Node2 -->
<g id="node2" class="node"><title>Node2</title>
<g id="a_node2"><a xlink:href="point_8h.html" target="_top" xlink:title="Class Point. ">
<polygon fill="none" stroke="black" points="0,-56.5 0,-75.5 46,-75.5 46,-56.5 0,-56.5"/>
<text text-anchor="middle" x="23" y="-63.5" font-family="Helvetica,sans-Serif" font-size="10.00">point.h</text>
</a>
</g>
</g>
<!-- Node1&#45;&gt;Node2 -->
<g id="edge1" class="edge"><title>Node1&#45;&gt;Node2</title>
<path fill="none" stroke="midnightblue" d="M65.5784,-112.083C58.1518,-104.22 47.1483,-92.5688 38.1878,-83.0813"/>
<polygon fill="midnightblue" stroke="midnightblue" points="40.6757,-80.618 31.2649,-75.7511 35.5866,-85.4244 40.6757,-80.618"/>
</g>
<!-- Node3 -->
<g id="node3" class="node"><title>Node3</title>
<polygon fill="none" stroke="#bfbfbf" points="21,-0.5 21,-19.5 75,-19.5 75,-0.5 21,-0.5"/>
<text text-anchor="middle" x="48" y="-7.5" font-family="Helvetica,sans-Serif" font-size="10.00">iostream</text>
</g>
<!-- Node1&#45;&gt;Node3 -->
<g id="edge3" class="edge"><title>Node1&#45;&gt;Node3</title>
<path fill="none" stroke="midnightblue" d="M71.9598,-112.368C67.764,-94.617 58.0848,-53.6664 52.3958,-29.5974"/>
<polygon fill="midnightblue" stroke="midnightblue" points="55.7372,-28.5182 50.0307,-19.5914 48.9249,-30.1284 55.7372,-28.5182"/>
</g>
<!-- Node4 -->
<g id="node4" class="node"><title>Node4</title>
<polygon fill="none" stroke="#bfbfbf" points="102,-56.5 102,-75.5 146,-75.5 146,-56.5 102,-56.5"/>
<text text-anchor="middle" x="124" y="-63.5" font-family="Helvetica,sans-Serif" font-size="10.00">vector</text>
</g>
<!-- Node1&#45;&gt;Node4 -->
<g id="edge4" class="edge"><title>Node1&#45;&gt;Node4</title>
<path fill="none" stroke="midnightblue" d="M82.2565,-112.083C89.4647,-104.298 100.11,-92.8015 108.846,-83.3665"/>
<polygon fill="midnightblue" stroke="midnightblue" points="111.671,-85.4666 115.897,-75.7511 106.535,-80.7108 111.671,-85.4666"/>
</g>
<!-- Node2&#45;&gt;Node3 -->
<g id="edge2" class="edge"><title>Node2&#45;&gt;Node3</title>
<path fill="none" stroke="midnightblue" d="M27.1282,-56.083C30.5139,-48.77 35.416,-38.1814 39.6188,-29.1034"/>
<polygon fill="midnightblue" stroke="midnightblue" points="42.9234,-30.2962 43.9486,-19.7511 36.5711,-27.3553 42.9234,-30.2962"/>
</g>
</g>
</svg>
