<?xml version="1.0" encoding="UTF-8" standalone="no"?>
<!DOCTYPE svg PUBLIC "-//W3C//DTD SVG 1.1//EN"
 "http://www.w3.org/Graphics/SVG/1.1/DTD/svg11.dtd">
<!-- Generated by graphviz version 2.38.0 (20140413.2041)
 -->
<!-- Title: qmapscene.cpp Pages: 1 -->
<svg width="904pt" height="364pt"
 viewBox="0.00 0.00 903.50 364.00" xmlns="http://www.w3.org/2000/svg" xmlns:xlink="http://www.w3.org/1999/xlink">
<g id="graph0" class="graph" transform="scale(1 1) rotate(0) translate(4 360)">
<title>qmapscene.cpp</title>
<!-- Node1 -->
<g id="node1" class="node"><title>Node1</title>
<polygon fill="#bfbfbf" stroke="black" points="338.5,-336.5 338.5,-355.5 424.5,-355.5 424.5,-336.5 338.5,-336.5"/>
<text text-anchor="middle" x="381.5" y="-343.5" font-family="Helvetica,sans-Serif" font-size="10.00">qmapscene.cpp</text>
</g>
<!-- Node2 -->
<g id="node2" class="node"><title>Node2</title>
<g id="a_node2"><a xlink:href="qmapscene_8h.html" target="_top" xlink:title="qmapscene.h">
<polygon fill="none" stroke="black" points="306,-280.5 306,-299.5 381,-299.5 381,-280.5 306,-280.5"/>
<text text-anchor="middle" x="343.5" y="-287.5" font-family="Helvetica,sans-Serif" font-size="10.00">qmapscene.h</text>
</a>
</g>
</g>
<!-- Node1&#45;&gt;Node2 -->
<g id="edge1" class="edge"><title>Node1&#45;&gt;Node2</title>
<path fill="none" stroke="midnightblue" d="M375.225,-336.083C369.858,-328.455 361.982,-317.264 355.421,-307.941"/>
<polygon fill="midnightblue" stroke="midnightblue" points="358.275,-305.915 349.658,-299.751 352.551,-309.943 358.275,-305.915"/>
</g>
<!-- Node22 -->
<g id="node22" class="node"><title>Node22</title>
<polygon fill="none" stroke="#bfbfbf" points="399,-280.5 399,-299.5 440,-299.5 440,-280.5 399,-280.5"/>
<text text-anchor="middle" x="419.5" y="-287.5" font-family="Helvetica,sans-Serif" font-size="10.00">QPen</text>
</g>
<!-- Node1&#45;&gt;Node22 -->
<g id="edge31" class="edge"><title>Node1&#45;&gt;Node22</title>
<path fill="none" stroke="midnightblue" d="M387.775,-336.083C393.142,-328.455 401.018,-317.264 407.579,-307.941"/>
<polygon fill="midnightblue" stroke="midnightblue" points="410.449,-309.943 413.342,-299.751 404.725,-305.915 410.449,-309.943"/>
</g>
<!-- Node3 -->
<g id="node3" class="node"><title>Node3</title>
<polygon fill="none" stroke="#bfbfbf" points="0,-224.5 0,-243.5 91,-243.5 91,-224.5 0,-224.5"/>
<text text-anchor="middle" x="45.5" y="-231.5" font-family="Helvetica,sans-Serif" font-size="10.00">QGraphicsScene</text>
</g>
<!-- Node2&#45;&gt;Node3 -->
<g id="edge2" class="edge"><title>Node2&#45;&gt;Node3</title>
<path fill="none" stroke="midnightblue" d="M305.758,-282.161C254.088,-272.798 160.946,-255.92 101.232,-245.099"/>
<polygon fill="midnightblue" stroke="midnightblue" points="101.683,-241.624 91.2187,-243.285 100.434,-248.512 101.683,-241.624"/>
</g>
<!-- Node4 -->
<g id="node4" class="node"><title>Node4</title>
<polygon fill="none" stroke="#bfbfbf" points="109.5,-224.5 109.5,-243.5 213.5,-243.5 213.5,-224.5 109.5,-224.5"/>
<text text-anchor="middle" x="161.5" y="-231.5" font-family="Helvetica,sans-Serif" font-size="10.00">QGraphicsRectItem</text>
</g>
<!-- Node2&#45;&gt;Node4 -->
<g id="edge3" class="edge"><title>Node2&#45;&gt;Node4</title>
<path fill="none" stroke="midnightblue" d="M314.662,-280.444C283.644,-271.241 234.171,-256.562 199.882,-246.388"/>
<polygon fill="midnightblue" stroke="midnightblue" points="200.786,-243.006 190.204,-243.516 198.795,-249.716 200.786,-243.006"/>
</g>
<!-- Node5 -->
<g id="node5" class="node"><title>Node5</title>
<polygon fill="none" stroke="#bfbfbf" points="232,-224.5 232,-243.5 315,-243.5 315,-224.5 232,-224.5"/>
<text text-anchor="middle" x="273.5" y="-231.5" font-family="Helvetica,sans-Serif" font-size="10.00">unordered_map</text>
</g>
<!-- Node2&#45;&gt;Node5 -->
<g id="edge4" class="edge"><title>Node2&#45;&gt;Node5</title>
<path fill="none" stroke="midnightblue" d="M332.253,-280.324C321.703,-272.185 305.699,-259.839 293.058,-250.087"/>
<polygon fill="midnightblue" stroke="midnightblue" points="295.007,-247.171 284.951,-243.834 290.731,-252.713 295.007,-247.171"/>
</g>
<!-- Node6 -->
<g id="node6" class="node"><title>Node6</title>
<polygon fill="none" stroke="#bfbfbf" points="851.5,-56.5 851.5,-75.5 895.5,-75.5 895.5,-56.5 851.5,-56.5"/>
<text text-anchor="middle" x="873.5" y="-63.5" font-family="Helvetica,sans-Serif" font-size="10.00">vector</text>
</g>
<!-- Node2&#45;&gt;Node6 -->
<g id="edge5" class="edge"><title>Node2&#45;&gt;Node6</title>
<path fill="none" stroke="midnightblue" d="M381.117,-281.452C471.813,-263.047 700.431,-215.367 773.5,-188 823.397,-169.312 851.997,-177.635 879.5,-132 887.901,-118.061 884.988,-99.3058 880.811,-85.5245"/>
<polygon fill="midnightblue" stroke="midnightblue" points="883.989,-84.0085 877.383,-75.7255 877.382,-86.3204 883.989,-84.0085"/>
</g>
<!-- Node7 -->
<g id="node7" class="node"><title>Node7</title>
<g id="a_node7"><a xlink:href="point_g_p_s_8h.html" target="_top" xlink:title="pointGPS.h">
<polygon fill="none" stroke="black" points="762,-112.5 762,-131.5 829,-131.5 829,-112.5 762,-112.5"/>
<text text-anchor="middle" x="795.5" y="-119.5" font-family="Helvetica,sans-Serif" font-size="10.00">pointGPS.h</text>
</a>
</g>
</g>
<!-- Node2&#45;&gt;Node7 -->
<g id="edge6" class="edge"><title>Node2&#45;&gt;Node7</title>
<path fill="none" stroke="midnightblue" d="M370.462,-280.484C397.992,-271.693 441.904,-257.41 479.5,-244 584.938,-206.392 708.498,-157.728 764.779,-135.306"/>
<polygon fill="midnightblue" stroke="midnightblue" points="766.179,-138.515 774.17,-131.559 763.585,-132.014 766.179,-138.515"/>
</g>
<!-- Node11 -->
<g id="node11" class="node"><title>Node11</title>
<g id="a_node11"><a xlink:href="pointroad_8h.html" target="_top" xlink:title="pointroad.h">
<polygon fill="none" stroke="black" points="135,-112.5 135,-131.5 200,-131.5 200,-112.5 135,-112.5"/>
<text text-anchor="middle" x="167.5" y="-119.5" font-family="Helvetica,sans-Serif" font-size="10.00">pointroad.h</text>
</a>
</g>
</g>
<!-- Node2&#45;&gt;Node11 -->
<g id="edge11" class="edge"><title>Node2&#45;&gt;Node11</title>
<path fill="none" stroke="midnightblue" d="M342.701,-280.143C341.101,-266.763 336.459,-241.141 323.5,-224 291.041,-181.068 234.644,-151.201 199.289,-135.601"/>
<polygon fill="midnightblue" stroke="midnightblue" points="200.482,-132.305 189.912,-131.581 197.724,-138.739 200.482,-132.305"/>
</g>
<!-- Node12 -->
<g id="node12" class="node"><title>Node12</title>
<g id="a_node12"><a xlink:href="road_8h.html" target="_top" xlink:title="road.h">
<polygon fill="none" stroke="black" points="426.5,-224.5 426.5,-243.5 470.5,-243.5 470.5,-224.5 426.5,-224.5"/>
<text text-anchor="middle" x="448.5" y="-231.5" font-family="Helvetica,sans-Serif" font-size="10.00">road.h</text>
</a>
</g>
</g>
<!-- Node2&#45;&gt;Node12 -->
<g id="edge15" class="edge"><title>Node2&#45;&gt;Node12</title>
<path fill="none" stroke="midnightblue" d="M360.37,-280.324C377.209,-271.664 403.307,-258.242 422.738,-248.249"/>
<polygon fill="midnightblue" stroke="midnightblue" points="424.38,-251.341 431.672,-243.655 421.178,-245.116 424.38,-251.341"/>
</g>
<!-- Node7&#45;&gt;Node6 -->
<g id="edge10" class="edge"><title>Node7&#45;&gt;Node6</title>
<path fill="none" stroke="midnightblue" d="M808.032,-112.324C820.086,-103.979 838.527,-91.2122 852.769,-81.3524"/>
<polygon fill="midnightblue" stroke="midnightblue" points="854.769,-84.2243 860.999,-75.6545 850.785,-78.469 854.769,-84.2243"/>
</g>
<!-- Node8 -->
<g id="node8" class="node"><title>Node8</title>
<g id="a_node8"><a xlink:href="emissionprobability_8h.html" target="_top" xlink:title="emissionprobability.h">
<polygon fill="none" stroke="black" points="725.5,-56.5 725.5,-75.5 833.5,-75.5 833.5,-56.5 725.5,-56.5"/>
<text text-anchor="middle" x="779.5" y="-63.5" font-family="Helvetica,sans-Serif" font-size="10.00">emissionprobability.h</text>
</a>
</g>
</g>
<!-- Node7&#45;&gt;Node8 -->
<g id="edge7" class="edge"><title>Node7&#45;&gt;Node8</title>
<path fill="none" stroke="midnightblue" d="M792.858,-112.083C790.714,-104.849 787.621,-94.4087 784.951,-85.3968"/>
<polygon fill="midnightblue" stroke="midnightblue" points="788.29,-84.3447 782.093,-75.7511 781.578,-86.3334 788.29,-84.3447"/>
</g>
<!-- Node9 -->
<g id="node9" class="node"><title>Node9</title>
<g id="a_node9"><a xlink:href="point_8h.html" target="_top" xlink:title="Class Point. ">
<polygon fill="none" stroke="black" points="209.5,-56.5 209.5,-75.5 255.5,-75.5 255.5,-56.5 209.5,-56.5"/>
<text text-anchor="middle" x="232.5" y="-63.5" font-family="Helvetica,sans-Serif" font-size="10.00">point.h</text>
</a>
</g>
</g>
<!-- Node7&#45;&gt;Node9 -->
<g id="edge8" class="edge"><title>Node7&#45;&gt;Node9</title>
<path fill="none" stroke="midnightblue" d="M761.64,-113.365C758.894,-112.861 756.155,-112.398 753.5,-112 570.499,-84.5993 348.649,-72.3051 265.808,-68.4315"/>
<polygon fill="midnightblue" stroke="midnightblue" points="265.88,-64.9313 255.731,-67.9701 265.56,-71.924 265.88,-64.9313"/>
</g>
<!-- Node10 -->
<g id="node10" class="node"><title>Node10</title>
<polygon fill="none" stroke="#bfbfbf" points="205.5,-0.5 205.5,-19.5 259.5,-19.5 259.5,-0.5 205.5,-0.5"/>
<text text-anchor="middle" x="232.5" y="-7.5" font-family="Helvetica,sans-Serif" font-size="10.00">iostream</text>
</g>
<!-- Node9&#45;&gt;Node10 -->
<g id="edge9" class="edge"><title>Node9&#45;&gt;Node10</title>
<path fill="none" stroke="midnightblue" d="M232.5,-56.083C232.5,-49.0059 232.5,-38.8611 232.5,-29.9865"/>
<polygon fill="midnightblue" stroke="midnightblue" points="236,-29.751 232.5,-19.7511 229,-29.7511 236,-29.751"/>
</g>
<!-- Node11&#45;&gt;Node6 -->
<g id="edge14" class="edge"><title>Node11&#45;&gt;Node6</title>
<path fill="none" stroke="midnightblue" d="M200.09,-113.355C202.924,-112.84 205.756,-112.377 208.5,-112 484.833,-74.0717 562.505,-122.488 841.287,-75.8008"/>
<polygon fill="midnightblue" stroke="midnightblue" points="842.018,-79.2268 851.289,-74.0996 840.844,-72.3259 842.018,-79.2268"/>
</g>
<!-- Node11&#45;&gt;Node9 -->
<g id="edge12" class="edge"><title>Node11&#45;&gt;Node9</title>
<path fill="none" stroke="midnightblue" d="M177.943,-112.324C187.646,-104.263 202.315,-92.0765 214,-82.3695"/>
<polygon fill="midnightblue" stroke="midnightblue" points="216.411,-84.9163 221.867,-75.8339 211.938,-79.532 216.411,-84.9163"/>
</g>
<!-- Node11&#45;&gt;Node10 -->
<g id="edge13" class="edge"><title>Node11&#45;&gt;Node10</title>
<path fill="none" stroke="midnightblue" d="M171.381,-112.369C177.185,-99.7086 188.71,-75.4923 200.5,-56 206.329,-46.3618 213.549,-36.0911 219.655,-27.7991"/>
<polygon fill="midnightblue" stroke="midnightblue" points="222.527,-29.8024 225.724,-19.7014 216.926,-25.6041 222.527,-29.8024"/>
</g>
<!-- Node12&#45;&gt;Node6 -->
<g id="edge30" class="edge"><title>Node12&#45;&gt;Node6</title>
<path fill="none" stroke="midnightblue" d="M470.692,-230.67C548.221,-222.077 805.29,-189.637 860.5,-132 872.058,-119.934 874.687,-100.647 874.798,-86.2109"/>
<polygon fill="midnightblue" stroke="midnightblue" points="878.286,-85.7872 874.469,-75.9039 871.29,-86.0104 878.286,-85.7872"/>
</g>
<!-- Node12&#45;&gt;Node11 -->
<g id="edge16" class="edge"><title>Node12&#45;&gt;Node11</title>
<path fill="none" stroke="midnightblue" d="M446.003,-224.198C441.465,-209.92 430.441,-181.91 410.5,-168 338.335,-117.663 300.643,-147.499 210.245,-132.153"/>
<polygon fill="midnightblue" stroke="midnightblue" points="210.618,-128.663 200.149,-130.289 209.348,-135.547 210.618,-128.663"/>
</g>
<!-- Node13 -->
<g id="node13" class="node"><title>Node13</title>
<g id="a_node13"><a xlink:href="track_8h.html" target="_top" xlink:title="The class Track. ">
<polygon fill="none" stroke="black" points="496,-168.5 496,-187.5 543,-187.5 543,-168.5 496,-168.5"/>
<text text-anchor="middle" x="519.5" y="-175.5" font-family="Helvetica,sans-Serif" font-size="10.00">track.h</text>
</a>
</g>
</g>
<!-- Node12&#45;&gt;Node13 -->
<g id="edge17" class="edge"><title>Node12&#45;&gt;Node13</title>
<path fill="none" stroke="midnightblue" d="M459.907,-224.324C470.609,-216.185 486.841,-203.839 499.663,-194.087"/>
<polygon fill="midnightblue" stroke="midnightblue" points="502.044,-196.673 507.885,-187.834 497.807,-191.102 502.044,-196.673"/>
</g>
<!-- Node20 -->
<g id="node20" class="node"><title>Node20</title>
<polygon fill="none" stroke="#bfbfbf" points="218,-112.5 218,-131.5 259,-131.5 259,-112.5 218,-112.5"/>
<text text-anchor="middle" x="238.5" y="-119.5" font-family="Helvetica,sans-Serif" font-size="10.00">string</text>
</g>
<!-- Node12&#45;&gt;Node20 -->
<g id="edge29" class="edge"><title>Node12&#45;&gt;Node20</title>
<path fill="none" stroke="midnightblue" d="M450.793,-224.185C453.802,-210.39 457.223,-183.664 443.5,-168 392.607,-109.909 348.694,-149.621 273.5,-132 272.049,-131.66 270.566,-131.306 269.07,-130.943"/>
<polygon fill="midnightblue" stroke="midnightblue" points="269.742,-127.503 259.192,-128.478 268.047,-134.295 269.742,-127.503"/>
</g>
<!-- Node21 -->
<g id="node21" class="node"><title>Node21</title>
<polygon fill="none" stroke="#bfbfbf" points="371.5,-168.5 371.5,-187.5 401.5,-187.5 401.5,-168.5 371.5,-168.5"/>
<text text-anchor="middle" x="386.5" y="-175.5" font-family="Helvetica,sans-Serif" font-size="10.00">set</text>
</g>
<!-- Node12&#45;&gt;Node21 -->
<g id="edge28" class="edge"><title>Node12&#45;&gt;Node21</title>
<path fill="none" stroke="midnightblue" d="M438.539,-224.324C429.373,-216.341 415.563,-204.313 404.472,-194.653"/>
<polygon fill="midnightblue" stroke="midnightblue" points="406.482,-191.762 396.643,-187.834 401.885,-197.041 406.482,-191.762"/>
</g>
<!-- Node13&#45;&gt;Node6 -->
<g id="edge27" class="edge"><title>Node13&#45;&gt;Node6</title>
<path fill="none" stroke="midnightblue" d="M543.431,-176.37C609.143,-174.219 790.658,-165.331 838.5,-132 854.24,-121.034 863.539,-100.672 868.548,-85.6498"/>
<polygon fill="midnightblue" stroke="midnightblue" points="871.962,-86.4487 871.468,-75.8654 865.254,-84.4468 871.962,-86.4487"/>
</g>
<!-- Node13&#45;&gt;Node7 -->
<g id="edge19" class="edge"><title>Node13&#45;&gt;Node7</title>
<path fill="none" stroke="midnightblue" d="M543.115,-172.629C583.717,-165.078 669.618,-148.942 751.61,-132.356"/>
<polygon fill="midnightblue" stroke="midnightblue" points="752.483,-135.75 761.587,-130.331 751.09,-128.89 752.483,-135.75"/>
</g>
<!-- Node13&#45;&gt;Node10 -->
<g id="edge24" class="edge"><title>Node13&#45;&gt;Node10</title>
<path fill="none" stroke="midnightblue" d="M495.955,-173.161C443.759,-164.49 321.729,-143.269 306.5,-132 275.478,-109.044 285.049,-88.6669 264.5,-56 258.502,-46.4655 251.269,-36.2034 245.198,-27.8902"/>
<polygon fill="midnightblue" stroke="midnightblue" points="247.943,-25.7156 239.18,-19.761 242.317,-29.8807 247.943,-25.7156"/>
</g>
<!-- Node14 -->
<g id="node14" class="node"><title>Node14</title>
<polygon fill="none" stroke="#bfbfbf" points="454,-112.5 454,-131.5 507,-131.5 507,-112.5 454,-112.5"/>
<text text-anchor="middle" x="480.5" y="-119.5" font-family="Helvetica,sans-Serif" font-size="10.00">QObject</text>
</g>
<!-- Node13&#45;&gt;Node14 -->
<g id="edge18" class="edge"><title>Node13&#45;&gt;Node14</title>
<path fill="none" stroke="midnightblue" d="M513.06,-168.083C507.551,-160.455 499.469,-149.264 492.735,-139.941"/>
<polygon fill="midnightblue" stroke="midnightblue" points="495.513,-137.809 486.82,-131.751 489.838,-141.907 495.513,-137.809"/>
</g>
<!-- Node15 -->
<g id="node15" class="node"><title>Node15</title>
<polygon fill="none" stroke="#bfbfbf" points="525,-112.5 525,-131.5 592,-131.5 592,-112.5 525,-112.5"/>
<text text-anchor="middle" x="558.5" y="-119.5" font-family="Helvetica,sans-Serif" font-size="10.00">QDateTime</text>
</g>
<!-- Node13&#45;&gt;Node15 -->
<g id="edge20" class="edge"><title>Node13&#45;&gt;Node15</title>
<path fill="none" stroke="midnightblue" d="M525.94,-168.083C531.449,-160.455 539.531,-149.264 546.265,-139.941"/>
<polygon fill="midnightblue" stroke="midnightblue" points="549.162,-141.907 552.18,-131.751 543.487,-137.809 549.162,-141.907"/>
</g>
<!-- Node16 -->
<g id="node16" class="node"><title>Node16</title>
<polygon fill="none" stroke="#bfbfbf" points="610.5,-112.5 610.5,-131.5 660.5,-131.5 660.5,-112.5 610.5,-112.5"/>
<text text-anchor="middle" x="635.5" y="-119.5" font-family="Helvetica,sans-Serif" font-size="10.00">QString</text>
</g>
<!-- Node13&#45;&gt;Node16 -->
<g id="edge21" class="edge"><title>Node13&#45;&gt;Node16</title>
<path fill="none" stroke="midnightblue" d="M537.881,-168.444C556.716,-159.675 586.231,-145.935 607.879,-135.858"/>
<polygon fill="midnightblue" stroke="midnightblue" points="609.617,-138.91 617.205,-131.516 606.662,-132.564 609.617,-138.91"/>
</g>
<!-- Node17 -->
<g id="node17" class="node"><title>Node17</title>
<polygon fill="none" stroke="#bfbfbf" points="679,-112.5 679,-131.5 744,-131.5 744,-112.5 679,-112.5"/>
<text text-anchor="middle" x="711.5" y="-119.5" font-family="Helvetica,sans-Serif" font-size="10.00">QStringList</text>
</g>
<!-- Node13&#45;&gt;Node17 -->
<g id="edge22" class="edge"><title>Node13&#45;&gt;Node17</title>
<path fill="none" stroke="midnightblue" d="M543.043,-170.379C574.94,-161.408 632.351,-145.261 671.183,-134.339"/>
<polygon fill="midnightblue" stroke="midnightblue" points="672.438,-137.622 681.117,-131.545 670.543,-130.884 672.438,-137.622"/>
</g>
<!-- Node18 -->
<g id="node18" class="node"><title>Node18</title>
<polygon fill="none" stroke="#bfbfbf" points="315.5,-112.5 315.5,-131.5 365.5,-131.5 365.5,-112.5 315.5,-112.5"/>
<text text-anchor="middle" x="340.5" y="-119.5" font-family="Helvetica,sans-Serif" font-size="10.00">fstream</text>
</g>
<!-- Node13&#45;&gt;Node18 -->
<g id="edge23" class="edge"><title>Node13&#45;&gt;Node18</title>
<path fill="none" stroke="midnightblue" d="M495.73,-169.829C464.916,-160.533 410.935,-144.248 375.449,-133.543"/>
<polygon fill="midnightblue" stroke="midnightblue" points="376.106,-130.086 365.522,-130.548 374.085,-136.788 376.106,-130.086"/>
</g>
<!-- Node19 -->
<g id="node19" class="node"><title>Node19</title>
<polygon fill="none" stroke="#bfbfbf" points="383.5,-112.5 383.5,-131.5 435.5,-131.5 435.5,-112.5 383.5,-112.5"/>
<text text-anchor="middle" x="409.5" y="-119.5" font-family="Helvetica,sans-Serif" font-size="10.00">sstream</text>
</g>
<!-- Node13&#45;&gt;Node19 -->
<g id="edge25" class="edge"><title>Node13&#45;&gt;Node19</title>
<path fill="none" stroke="midnightblue" d="M501.827,-168.324C484.106,-159.625 456.597,-146.12 436.212,-136.113"/>
<polygon fill="midnightblue" stroke="midnightblue" points="437.649,-132.919 427.13,-131.655 434.564,-139.203 437.649,-132.919"/>
</g>
<!-- Node13&#45;&gt;Node20 -->
<g id="edge26" class="edge"><title>Node13&#45;&gt;Node20</title>
<path fill="none" stroke="midnightblue" d="M495.833,-171.158C491.097,-170.056 486.149,-168.952 481.5,-168 389.588,-149.18 365.228,-151.698 273.5,-132 272.043,-131.687 270.555,-131.355 269.055,-131.009"/>
<polygon fill="midnightblue" stroke="midnightblue" points="269.707,-127.566 259.163,-128.606 268.054,-134.368 269.707,-127.566"/>
</g>
</g>
</svg>
