<?xml version="1.0" encoding="UTF-8" standalone="no"?>
<!DOCTYPE svg PUBLIC "-//W3C//DTD SVG 1.1//EN"
 "http://www.w3.org/Graphics/SVG/1.1/DTD/svg11.dtd">
<!-- Generated by graphviz version 2.38.0 (20140413.2041)
 -->
<!-- Title: qmapviewer.h Pages: 1 -->
<svg width="423pt" height="84pt"
 viewBox="0.00 0.00 422.50 84.00" xmlns="http://www.w3.org/2000/svg" xmlns:xlink="http://www.w3.org/1999/xlink">
<g id="graph0" class="graph" transform="scale(1 1) rotate(0) translate(4 80)">
<title>qmapviewer.h</title>
<!-- Node1 -->
<g id="node1" class="node"><title>Node1</title>
<polygon fill="#bfbfbf" stroke="black" points="183.5,-56.5 183.5,-75.5 260.5,-75.5 260.5,-56.5 183.5,-56.5"/>
<text text-anchor="middle" x="222" y="-63.5" font-family="Helvetica,sans-Serif" font-size="10.00">qmapviewer.h</text>
</g>
<!-- Node2 -->
<g id="node2" class="node"><title>Node2</title>
<polygon fill="none" stroke="#bfbfbf" points="0,-0.5 0,-19.5 72,-19.5 72,-0.5 0,-0.5"/>
<text text-anchor="middle" x="36" y="-7.5" font-family="Helvetica,sans-Serif" font-size="10.00">QApplication</text>
</g>
<!-- Node1&#45;&gt;Node2 -->
<g id="edge1" class="edge"><title>Node1&#45;&gt;Node2</title>
<path fill="none" stroke="midnightblue" d="M192.528,-56.4435C160.829,-47.2406 110.268,-32.5617 75.2251,-22.3879"/>
<polygon fill="midnightblue" stroke="midnightblue" points="75.9137,-18.9434 65.3344,-19.5164 73.962,-25.6658 75.9137,-18.9434"/>
</g>
<!-- Node3 -->
<g id="node3" class="node"><title>Node3</title>
<polygon fill="none" stroke="#bfbfbf" points="90.5,-0.5 90.5,-19.5 141.5,-19.5 141.5,-0.5 90.5,-0.5"/>
<text text-anchor="middle" x="116" y="-7.5" font-family="Helvetica,sans-Serif" font-size="10.00">QImage</text>
</g>
<!-- Node1&#45;&gt;Node3 -->
<g id="edge2" class="edge"><title>Node1&#45;&gt;Node3</title>
<path fill="none" stroke="midnightblue" d="M204.969,-56.324C187.97,-47.6641 161.624,-34.2424 142.007,-24.249"/>
<polygon fill="midnightblue" stroke="midnightblue" points="143.488,-21.0752 132.988,-19.6545 140.31,-27.3125 143.488,-21.0752"/>
</g>
<!-- Node4 -->
<g id="node4" class="node"><title>Node4</title>
<polygon fill="none" stroke="#bfbfbf" points="159.5,-0.5 159.5,-19.5 214.5,-19.5 214.5,-0.5 159.5,-0.5"/>
<text text-anchor="middle" x="187" y="-7.5" font-family="Helvetica,sans-Serif" font-size="10.00">QPainter</text>
</g>
<!-- Node1&#45;&gt;Node4 -->
<g id="edge3" class="edge"><title>Node1&#45;&gt;Node4</title>
<path fill="none" stroke="midnightblue" d="M216.22,-56.083C211.328,-48.5341 204.173,-37.4948 198.167,-28.2298"/>
<polygon fill="midnightblue" stroke="midnightblue" points="201.048,-26.239 192.672,-19.7511 195.174,-30.0463 201.048,-26.239"/>
</g>
<!-- Node5 -->
<g id="node5" class="node"><title>Node5</title>
<polygon fill="none" stroke="#bfbfbf" points="233,-0.5 233,-19.5 283,-19.5 283,-0.5 233,-0.5"/>
<text text-anchor="middle" x="258" y="-7.5" font-family="Helvetica,sans-Serif" font-size="10.00">QString</text>
</g>
<!-- Node1&#45;&gt;Node5 -->
<g id="edge4" class="edge"><title>Node1&#45;&gt;Node5</title>
<path fill="none" stroke="midnightblue" d="M227.945,-56.083C232.977,-48.5341 240.337,-37.4948 246.513,-28.2298"/>
<polygon fill="midnightblue" stroke="midnightblue" points="249.531,-30.0131 252.166,-19.7511 243.707,-26.1301 249.531,-30.0131"/>
</g>
<!-- Node6 -->
<g id="node6" class="node"><title>Node6</title>
<polygon fill="none" stroke="#bfbfbf" points="301,-0.5 301,-19.5 355,-19.5 355,-0.5 301,-0.5"/>
<text text-anchor="middle" x="328" y="-7.5" font-family="Helvetica,sans-Serif" font-size="10.00">iostream</text>
</g>
<!-- Node1&#45;&gt;Node6 -->
<g id="edge5" class="edge"><title>Node1&#45;&gt;Node6</title>
<path fill="none" stroke="midnightblue" d="M239.031,-56.324C256.03,-47.6641 282.376,-34.2424 301.993,-24.249"/>
<polygon fill="midnightblue" stroke="midnightblue" points="303.69,-27.3125 311.012,-19.6545 300.512,-21.0752 303.69,-27.3125"/>
</g>
<!-- Node7 -->
<g id="node7" class="node"><title>Node7</title>
<polygon fill="none" stroke="#bfbfbf" points="373.5,-0.5 373.5,-19.5 414.5,-19.5 414.5,-0.5 373.5,-0.5"/>
<text text-anchor="middle" x="394" y="-7.5" font-family="Helvetica,sans-Serif" font-size="10.00">string</text>
</g>
<!-- Node1&#45;&gt;Node7 -->
<g id="edge6" class="edge"><title>Node1&#45;&gt;Node7</title>
<path fill="none" stroke="midnightblue" d="M249.254,-56.4435C280.367,-46.6756 331.129,-30.7385 363.527,-20.5673"/>
<polygon fill="midnightblue" stroke="midnightblue" points="364.859,-23.8174 373.352,-17.4826 362.762,-17.1388 364.859,-23.8174"/>
</g>
</g>
</svg>
