<?xml version="1.0" encoding="UTF-8" standalone="no"?>
<!DOCTYPE svg PUBLIC "-//W3C//DTD SVG 1.1//EN"
 "http://www.w3.org/Graphics/SVG/1.1/DTD/svg11.dtd">
<!-- Generated by graphviz version 2.38.0 (20140413.2041)
 -->
<!-- Title: qmapscene.cpp Pages: 1 -->
<svg width="1168pt" height="364pt"
 viewBox="0.00 0.00 1167.50 364.00" xmlns="http://www.w3.org/2000/svg" xmlns:xlink="http://www.w3.org/1999/xlink">
<g id="graph0" class="graph" transform="scale(1 1) rotate(0) translate(4 360)">
<title>qmapscene.cpp</title>
<!-- Node1 -->
<g id="node1" class="node"><title>Node1</title>
<polygon fill="#bfbfbf" stroke="black" points="812,-336.5 812,-355.5 898,-355.5 898,-336.5 812,-336.5"/>
<text text-anchor="middle" x="855" y="-343.5" font-family="Helvetica,sans-Serif" font-size="10.00">qmapscene.cpp</text>
</g>
<!-- Node2 -->
<g id="node2" class="node"><title>Node2</title>
<g id="a_node2"><a xlink:href="qmapscene_8h.html" target="_top" xlink:title="qmapscene.h">
<polygon fill="none" stroke="black" points="779.5,-280.5 779.5,-299.5 854.5,-299.5 854.5,-280.5 779.5,-280.5"/>
<text text-anchor="middle" x="817" y="-287.5" font-family="Helvetica,sans-Serif" font-size="10.00">qmapscene.h</text>
</a>
</g>
</g>
<!-- Node1&#45;&gt;Node2 -->
<g id="edge1" class="edge"><title>Node1&#45;&gt;Node2</title>
<path fill="none" stroke="midnightblue" d="M848.725,-336.083C843.358,-328.455 835.482,-317.264 828.921,-307.941"/>
<polygon fill="midnightblue" stroke="midnightblue" points="831.775,-305.915 823.158,-299.751 826.051,-309.943 831.775,-305.915"/>
</g>
<!-- Node22 -->
<g id="node22" class="node"><title>Node22</title>
<polygon fill="none" stroke="#bfbfbf" points="872.5,-280.5 872.5,-299.5 913.5,-299.5 913.5,-280.5 872.5,-280.5"/>
<text text-anchor="middle" x="893" y="-287.5" font-family="Helvetica,sans-Serif" font-size="10.00">QPen</text>
</g>
<!-- Node1&#45;&gt;Node22 -->
<g id="edge32" class="edge"><title>Node1&#45;&gt;Node22</title>
<path fill="none" stroke="midnightblue" d="M861.275,-336.083C866.642,-328.455 874.518,-317.264 881.079,-307.941"/>
<polygon fill="midnightblue" stroke="midnightblue" points="883.949,-309.943 886.842,-299.751 878.225,-305.915 883.949,-309.943"/>
</g>
<!-- Node3 -->
<g id="node3" class="node"><title>Node3</title>
<g id="a_node3"><a xlink:href="point_g_p_s_8h.html" target="_top" xlink:title="../pointGPS.h">
<polygon fill="none" stroke="black" points="92,-112.5 92,-131.5 168,-131.5 168,-112.5 92,-112.5"/>
<text text-anchor="middle" x="130" y="-119.5" font-family="Helvetica,sans-Serif" font-size="10.00">../pointGPS.h</text>
</a>
</g>
</g>
<!-- Node2&#45;&gt;Node3 -->
<g id="edge2" class="edge"><title>Node2&#45;&gt;Node3</title>
<path fill="none" stroke="midnightblue" d="M779.219,-287.134C684.538,-282.16 439.125,-267.351 361,-244 277.874,-219.154 189.755,-163.701 150.7,-137.388"/>
<polygon fill="midnightblue" stroke="midnightblue" points="152.515,-134.39 142.281,-131.652 148.574,-140.175 152.515,-134.39"/>
</g>
<!-- Node7 -->
<g id="node7" class="node"><title>Node7</title>
<polygon fill="none" stroke="#bfbfbf" points="289,-0.5 289,-19.5 333,-19.5 333,-0.5 289,-0.5"/>
<text text-anchor="middle" x="311" y="-7.5" font-family="Helvetica,sans-Serif" font-size="10.00">vector</text>
</g>
<!-- Node2&#45;&gt;Node7 -->
<g id="edge31" class="edge"><title>Node2&#45;&gt;Node7</title>
<path fill="none" stroke="midnightblue" d="M817,-280.442C817,-261.936 817,-216.812 817,-179 817,-179 817,-179 817,-121 817,-23.6666 454.97,-12.2913 343.362,-11.0971"/>
<polygon fill="midnightblue" stroke="midnightblue" points="343.097,-7.59484 333.068,-11.0089 343.037,-14.5946 343.097,-7.59484"/>
</g>
<!-- Node8 -->
<g id="node8" class="node"><title>Node8</title>
<g id="a_node8"><a xlink:href="pointroad_8h.html" target="_top" xlink:title="../pointroad.h">
<polygon fill="none" stroke="black" points="0,-112.5 0,-131.5 74,-131.5 74,-112.5 0,-112.5"/>
<text text-anchor="middle" x="37" y="-119.5" font-family="Helvetica,sans-Serif" font-size="10.00">../pointroad.h</text>
</a>
</g>
</g>
<!-- Node2&#45;&gt;Node8 -->
<g id="edge8" class="edge"><title>Node2&#45;&gt;Node8</title>
<path fill="none" stroke="midnightblue" d="M779.219,-287.324C676.667,-282.515 394.779,-267.488 305,-244 209.556,-219.03 105.487,-162.805 60.2065,-136.744"/>
<polygon fill="midnightblue" stroke="midnightblue" points="61.8655,-133.66 51.4606,-131.662 58.3489,-139.712 61.8655,-133.66"/>
</g>
<!-- Node9 -->
<g id="node9" class="node"><title>Node9</title>
<g id="a_node9"><a xlink:href="road_8h.html" target="_top" xlink:title="../road.h">
<polygon fill="none" stroke="black" points="370.5,-224.5 370.5,-243.5 423.5,-243.5 423.5,-224.5 370.5,-224.5"/>
<text text-anchor="middle" x="397" y="-231.5" font-family="Helvetica,sans-Serif" font-size="10.00">../road.h</text>
</a>
</g>
</g>
<!-- Node2&#45;&gt;Node9 -->
<g id="edge12" class="edge"><title>Node2&#45;&gt;Node9</title>
<path fill="none" stroke="midnightblue" d="M779.358,-284.16C699.293,-273.866 512.959,-249.909 433.719,-239.721"/>
<polygon fill="midnightblue" stroke="midnightblue" points="434.077,-236.238 423.712,-238.434 433.184,-243.181 434.077,-236.238"/>
</g>
<!-- Node19 -->
<g id="node19" class="node"><title>Node19</title>
<polygon fill="none" stroke="#bfbfbf" points="845,-224.5 845,-243.5 949,-243.5 949,-224.5 845,-224.5"/>
<text text-anchor="middle" x="897" y="-231.5" font-family="Helvetica,sans-Serif" font-size="10.00">QGraphicsRectItem</text>
</g>
<!-- Node2&#45;&gt;Node19 -->
<g id="edge28" class="edge"><title>Node2&#45;&gt;Node19</title>
<path fill="none" stroke="midnightblue" d="M829.853,-280.324C842.216,-271.979 861.13,-259.212 875.737,-249.352"/>
<polygon fill="midnightblue" stroke="midnightblue" points="877.848,-252.15 884.179,-243.655 873.932,-246.348 877.848,-252.15"/>
</g>
<!-- Node20 -->
<g id="node20" class="node"><title>Node20</title>
<polygon fill="none" stroke="#bfbfbf" points="967.5,-224.5 967.5,-243.5 1058.5,-243.5 1058.5,-224.5 967.5,-224.5"/>
<text text-anchor="middle" x="1013" y="-231.5" font-family="Helvetica,sans-Serif" font-size="10.00">QGraphicsScene</text>
</g>
<!-- Node2&#45;&gt;Node20 -->
<g id="edge29" class="edge"><title>Node2&#45;&gt;Node20</title>
<path fill="none" stroke="midnightblue" d="M848.057,-280.444C881.603,-271.201 935.197,-256.436 972.141,-246.257"/>
<polygon fill="midnightblue" stroke="midnightblue" points="973.377,-249.547 982.089,-243.516 971.518,-242.798 973.377,-249.547"/>
</g>
<!-- Node21 -->
<g id="node21" class="node"><title>Node21</title>
<polygon fill="none" stroke="#bfbfbf" points="1076.5,-224.5 1076.5,-243.5 1159.5,-243.5 1159.5,-224.5 1076.5,-224.5"/>
<text text-anchor="middle" x="1118" y="-231.5" font-family="Helvetica,sans-Serif" font-size="10.00">unordered_map</text>
</g>
<!-- Node2&#45;&gt;Node21 -->
<g id="edge30" class="edge"><title>Node2&#45;&gt;Node21</title>
<path fill="none" stroke="midnightblue" d="M854.701,-281.731C857.846,-281.14 860.977,-280.556 864,-280 951.453,-263.911 975.722,-260.389 1066.38,-244.283"/>
<polygon fill="midnightblue" stroke="midnightblue" points="1067.03,-247.722 1076.26,-242.524 1065.8,-240.831 1067.03,-247.722"/>
</g>
<!-- Node4 -->
<g id="node4" class="node"><title>Node4</title>
<g id="a_node4"><a xlink:href="emissionprobability_8h.html" target="_top" xlink:title="emissionprobability.h">
<polygon fill="none" stroke="black" points="118,-56.5 118,-75.5 226,-75.5 226,-56.5 118,-56.5"/>
<text text-anchor="middle" x="172" y="-63.5" font-family="Helvetica,sans-Serif" font-size="10.00">emissionprobability.h</text>
</a>
</g>
</g>
<!-- Node3&#45;&gt;Node4 -->
<g id="edge3" class="edge"><title>Node3&#45;&gt;Node4</title>
<path fill="none" stroke="midnightblue" d="M136.935,-112.083C142.929,-104.377 151.752,-93.0333 159.048,-83.6531"/>
<polygon fill="midnightblue" stroke="midnightblue" points="161.817,-85.7934 165.194,-75.7511 156.291,-81.4958 161.817,-85.7934"/>
</g>
<!-- Node5 -->
<g id="node5" class="node"><title>Node5</title>
<g id="a_node5"><a xlink:href="point_8h.html" target="_top" xlink:title="Class Point. ">
<polygon fill="none" stroke="black" points="16,-56.5 16,-75.5 62,-75.5 62,-56.5 16,-56.5"/>
<text text-anchor="middle" x="39" y="-63.5" font-family="Helvetica,sans-Serif" font-size="10.00">point.h</text>
</a>
</g>
</g>
<!-- Node3&#45;&gt;Node5 -->
<g id="edge4" class="edge"><title>Node3&#45;&gt;Node5</title>
<path fill="none" stroke="midnightblue" d="M115.379,-112.324C101.051,-103.822 78.9875,-90.7288 62.2513,-80.7975"/>
<polygon fill="midnightblue" stroke="midnightblue" points="63.9704,-77.7478 53.5844,-75.6545 60.3982,-83.7677 63.9704,-77.7478"/>
</g>
<!-- Node3&#45;&gt;Node7 -->
<g id="edge7" class="edge"><title>Node3&#45;&gt;Node7</title>
<path fill="none" stroke="midnightblue" d="M155.666,-112.479C177.606,-104.627 209.567,-91.8116 235,-76 257.891,-61.7687 280.969,-40.8929 295.588,-26.6657"/>
<polygon fill="midnightblue" stroke="midnightblue" points="298.148,-29.0564 302.785,-19.5301 293.219,-24.0856 298.148,-29.0564"/>
</g>
<!-- Node6 -->
<g id="node6" class="node"><title>Node6</title>
<polygon fill="none" stroke="#bfbfbf" points="12,-0.5 12,-19.5 66,-19.5 66,-0.5 12,-0.5"/>
<text text-anchor="middle" x="39" y="-7.5" font-family="Helvetica,sans-Serif" font-size="10.00">iostream</text>
</g>
<!-- Node5&#45;&gt;Node6 -->
<g id="edge5" class="edge"><title>Node5&#45;&gt;Node6</title>
<path fill="none" stroke="midnightblue" d="M39,-56.083C39,-49.0059 39,-38.8611 39,-29.9865"/>
<polygon fill="midnightblue" stroke="midnightblue" points="42.5001,-29.751 39,-19.7511 35.5001,-29.7511 42.5001,-29.751"/>
</g>
<!-- Node5&#45;&gt;Node7 -->
<g id="edge6" class="edge"><title>Node5&#45;&gt;Node7</title>
<path fill="none" stroke="midnightblue" d="M62.052,-59.2065C66.6623,-58.1004 71.4778,-56.9823 76,-56 148.154,-40.3261 233.404,-24.7235 278.778,-16.6496"/>
<polygon fill="midnightblue" stroke="midnightblue" points="279.659,-20.0481 288.895,-14.8568 278.437,-13.1555 279.659,-20.0481"/>
</g>
<!-- Node8&#45;&gt;Node5 -->
<g id="edge9" class="edge"><title>Node8&#45;&gt;Node5</title>
<path fill="none" stroke="midnightblue" d="M37.3303,-112.083C37.5924,-105.006 37.9681,-94.8611 38.2968,-85.9865"/>
<polygon fill="midnightblue" stroke="midnightblue" points="41.8033,-85.8738 38.6759,-75.7511 34.8081,-85.6147 41.8033,-85.8738"/>
</g>
<!-- Node8&#45;&gt;Node6 -->
<g id="edge10" class="edge"><title>Node8&#45;&gt;Node6</title>
<path fill="none" stroke="midnightblue" d="M28.4679,-112.444C17.4031,-100.267 0.270733,-77.0747 7,-56 10.3406,-45.538 17.0998,-35.4277 23.5488,-27.4496"/>
<polygon fill="midnightblue" stroke="midnightblue" points="26.3477,-29.5641 30.2486,-19.7136 21.0562,-24.9815 26.3477,-29.5641"/>
</g>
<!-- Node8&#45;&gt;Node7 -->
<g id="edge11" class="edge"><title>Node8&#45;&gt;Node7</title>
<path fill="none" stroke="midnightblue" d="M43.9636,-112.302C55.7723,-98.1741 81.1702,-70.3745 109,-56 164.355,-27.4084 237.401,-16.9037 278.774,-13.1014"/>
<polygon fill="midnightblue" stroke="midnightblue" points="279.155,-16.5818 288.825,-12.2534 278.566,-9.60658 279.155,-16.5818"/>
</g>
<!-- Node9&#45;&gt;Node7 -->
<g id="edge27" class="edge"><title>Node9&#45;&gt;Node7</title>
<path fill="none" stroke="midnightblue" d="M423.586,-233.267C521.372,-233.37 850.781,-225.47 760,-112 707.372,-46.2187 436.791,-20.2781 343.031,-13.1766"/>
<polygon fill="midnightblue" stroke="midnightblue" points="343.231,-9.682 333.001,-12.4383 342.718,-16.6631 343.231,-9.682"/>
</g>
<!-- Node9&#45;&gt;Node8 -->
<g id="edge13" class="edge"><title>Node9&#45;&gt;Node8</title>
<path fill="none" stroke="midnightblue" d="M370.236,-224.822C306.894,-205.468 147.654,-156.811 74.6399,-134.501"/>
<polygon fill="midnightblue" stroke="midnightblue" points="75.5149,-131.109 64.9286,-131.534 73.4693,-137.803 75.5149,-131.109"/>
</g>
<!-- Node10 -->
<g id="node10" class="node"><title>Node10</title>
<g id="a_node10"><a xlink:href="track_8h.html" target="_top" xlink:title="The class Track. ">
<polygon fill="none" stroke="black" points="401.5,-168.5 401.5,-187.5 448.5,-187.5 448.5,-168.5 401.5,-168.5"/>
<text text-anchor="middle" x="425" y="-175.5" font-family="Helvetica,sans-Serif" font-size="10.00">track.h</text>
</a>
</g>
</g>
<!-- Node9&#45;&gt;Node10 -->
<g id="edge14" class="edge"><title>Node9&#45;&gt;Node10</title>
<path fill="none" stroke="midnightblue" d="M401.624,-224.083C405.456,-216.691 411.024,-205.953 415.765,-196.811"/>
<polygon fill="midnightblue" stroke="midnightblue" points="418.966,-198.24 420.462,-187.751 412.752,-195.018 418.966,-198.24"/>
</g>
<!-- Node17 -->
<g id="node17" class="node"><title>Node17</title>
<polygon fill="none" stroke="#bfbfbf" points="186.5,-112.5 186.5,-131.5 227.5,-131.5 227.5,-112.5 186.5,-112.5"/>
<text text-anchor="middle" x="207" y="-119.5" font-family="Helvetica,sans-Serif" font-size="10.00">string</text>
</g>
<!-- Node9&#45;&gt;Node17 -->
<g id="edge26" class="edge"><title>Node9&#45;&gt;Node17</title>
<path fill="none" stroke="midnightblue" d="M382.091,-224.368C349.209,-205.332 270.245,-159.615 230.578,-136.65"/>
<polygon fill="midnightblue" stroke="midnightblue" points="232.248,-133.573 221.84,-131.591 228.74,-139.631 232.248,-133.573"/>
</g>
<!-- Node18 -->
<g id="node18" class="node"><title>Node18</title>
<polygon fill="none" stroke="#bfbfbf" points="353,-168.5 353,-187.5 383,-187.5 383,-168.5 353,-168.5"/>
<text text-anchor="middle" x="368" y="-175.5" font-family="Helvetica,sans-Serif" font-size="10.00">set</text>
</g>
<!-- Node9&#45;&gt;Node18 -->
<g id="edge25" class="edge"><title>Node9&#45;&gt;Node18</title>
<path fill="none" stroke="midnightblue" d="M392.211,-224.083C388.242,-216.691 382.475,-205.953 377.565,-196.811"/>
<polygon fill="midnightblue" stroke="midnightblue" points="380.514,-194.905 372.7,-187.751 374.347,-198.217 380.514,-194.905"/>
</g>
<!-- Node10&#45;&gt;Node3 -->
<g id="edge16" class="edge"><title>Node10&#45;&gt;Node3</title>
<path fill="none" stroke="midnightblue" d="M401.277,-170.224C398.169,-169.426 395.016,-168.662 392,-168 300.509,-147.917 274.1,-149.012 178.324,-132.191"/>
<polygon fill="midnightblue" stroke="midnightblue" points="178.664,-128.697 168.206,-130.393 177.439,-135.589 178.664,-128.697"/>
</g>
<!-- Node10&#45;&gt;Node6 -->
<g id="edge21" class="edge"><title>Node10&#45;&gt;Node6</title>
<path fill="none" stroke="midnightblue" d="M401.434,-170.103C370.122,-160.671 316.796,-143.6 300,-132 263.427,-106.742 273.02,-79.0217 235,-56 185.411,-25.9728 117.692,-15.9662 76.225,-12.6414"/>
<polygon fill="midnightblue" stroke="midnightblue" points="76.245,-9.13407 66.022,-11.9162 75.7487,-16.1165 76.245,-9.13407"/>
</g>
<!-- Node10&#45;&gt;Node7 -->
<g id="edge24" class="edge"><title>Node10&#45;&gt;Node7</title>
<path fill="none" stroke="midnightblue" d="M401.352,-169.062C370.076,-158.332 318.271,-139.661 313,-132 291.838,-101.242 299.091,-54.8817 305.508,-29.4008"/>
<polygon fill="midnightblue" stroke="midnightblue" points="308.932,-30.1485 308.207,-19.5785 302.182,-28.2938 308.932,-30.1485"/>
</g>
<!-- Node11 -->
<g id="node11" class="node"><title>Node11</title>
<polygon fill="none" stroke="#bfbfbf" points="544.5,-112.5 544.5,-131.5 597.5,-131.5 597.5,-112.5 544.5,-112.5"/>
<text text-anchor="middle" x="571" y="-119.5" font-family="Helvetica,sans-Serif" font-size="10.00">QObject</text>
</g>
<!-- Node10&#45;&gt;Node11 -->
<g id="edge15" class="edge"><title>Node10&#45;&gt;Node11</title>
<path fill="none" stroke="midnightblue" d="M448.134,-168.444C472.482,-159.438 511.007,-145.189 538.423,-135.049"/>
<polygon fill="midnightblue" stroke="midnightblue" points="539.809,-138.268 547.974,-131.516 537.381,-131.703 539.809,-138.268"/>
</g>
<!-- Node12 -->
<g id="node12" class="node"><title>Node12</title>
<polygon fill="none" stroke="#bfbfbf" points="615.5,-112.5 615.5,-131.5 682.5,-131.5 682.5,-112.5 615.5,-112.5"/>
<text text-anchor="middle" x="649" y="-119.5" font-family="Helvetica,sans-Serif" font-size="10.00">QDateTime</text>
</g>
<!-- Node10&#45;&gt;Node12 -->
<g id="edge17" class="edge"><title>Node10&#45;&gt;Node12</title>
<path fill="none" stroke="midnightblue" d="M448.549,-171.323C485.699,-162.367 558.495,-144.818 605.384,-133.514"/>
<polygon fill="midnightblue" stroke="midnightblue" points="606.362,-136.879 615.263,-131.133 604.721,-130.074 606.362,-136.879"/>
</g>
<!-- Node13 -->
<g id="node13" class="node"><title>Node13</title>
<polygon fill="none" stroke="#bfbfbf" points="701,-112.5 701,-131.5 751,-131.5 751,-112.5 701,-112.5"/>
<text text-anchor="middle" x="726" y="-119.5" font-family="Helvetica,sans-Serif" font-size="10.00">QString</text>
</g>
<!-- Node10&#45;&gt;Node13 -->
<g id="edge18" class="edge"><title>Node10&#45;&gt;Node13</title>
<path fill="none" stroke="midnightblue" d="M448.712,-173.75C493.938,-167.393 595.8,-152.313 691.026,-132.049"/>
<polygon fill="midnightblue" stroke="midnightblue" points="691.772,-135.469 700.811,-129.943 690.299,-128.626 691.772,-135.469"/>
</g>
<!-- Node14 -->
<g id="node14" class="node"><title>Node14</title>
<polygon fill="none" stroke="#bfbfbf" points="322.5,-112.5 322.5,-131.5 387.5,-131.5 387.5,-112.5 322.5,-112.5"/>
<text text-anchor="middle" x="355" y="-119.5" font-family="Helvetica,sans-Serif" font-size="10.00">QStringList</text>
</g>
<!-- Node10&#45;&gt;Node14 -->
<g id="edge19" class="edge"><title>Node10&#45;&gt;Node14</title>
<path fill="none" stroke="midnightblue" d="M413.753,-168.324C403.203,-160.185 387.199,-147.839 374.558,-138.087"/>
<polygon fill="midnightblue" stroke="midnightblue" points="376.507,-135.171 366.451,-131.834 372.231,-140.713 376.507,-135.171"/>
</g>
<!-- Node15 -->
<g id="node15" class="node"><title>Node15</title>
<polygon fill="none" stroke="#bfbfbf" points="406,-112.5 406,-131.5 456,-131.5 456,-112.5 406,-112.5"/>
<text text-anchor="middle" x="431" y="-119.5" font-family="Helvetica,sans-Serif" font-size="10.00">fstream</text>
</g>
<!-- Node10&#45;&gt;Node15 -->
<g id="edge20" class="edge"><title>Node10&#45;&gt;Node15</title>
<path fill="none" stroke="midnightblue" d="M425.991,-168.083C426.786,-160.927 427.929,-150.635 428.923,-141.691"/>
<polygon fill="midnightblue" stroke="midnightblue" points="432.402,-142.076 430.028,-131.751 425.445,-141.303 432.402,-142.076"/>
</g>
<!-- Node16 -->
<g id="node16" class="node"><title>Node16</title>
<polygon fill="none" stroke="#bfbfbf" points="474,-112.5 474,-131.5 526,-131.5 526,-112.5 474,-112.5"/>
<text text-anchor="middle" x="500" y="-119.5" font-family="Helvetica,sans-Serif" font-size="10.00">sstream</text>
</g>
<!-- Node10&#45;&gt;Node16 -->
<g id="edge22" class="edge"><title>Node10&#45;&gt;Node16</title>
<path fill="none" stroke="midnightblue" d="M437.05,-168.324C448.463,-160.107 465.831,-147.602 479.435,-137.807"/>
<polygon fill="midnightblue" stroke="midnightblue" points="481.66,-140.517 487.731,-131.834 477.57,-134.837 481.66,-140.517"/>
</g>
<!-- Node10&#45;&gt;Node17 -->
<g id="edge23" class="edge"><title>Node10&#45;&gt;Node17</title>
<path fill="none" stroke="midnightblue" d="M401.23,-170.424C398.129,-169.593 394.991,-168.767 392,-168 325.587,-150.978 308.535,-148.538 242,-132 240.554,-131.641 239.075,-131.27 237.582,-130.894"/>
<polygon fill="midnightblue" stroke="midnightblue" points="238.268,-127.458 227.714,-128.385 236.543,-134.242 238.268,-127.458"/>
</g>
</g>
</svg>
