<?xml version="1.0" encoding="UTF-8" standalone="no"?>
<!DOCTYPE svg PUBLIC "-//W3C//DTD SVG 1.1//EN"
 "http://www.w3.org/Graphics/SVG/1.1/DTD/svg11.dtd">
<!-- Generated by graphviz version 2.38.0 (20140413.2041)
 -->
<!-- Title: qmapviewer.h Pages: 1 -->
<svg width="324pt" height="252pt"
 viewBox="0.00 0.00 323.50 252.00" xmlns="http://www.w3.org/2000/svg" xmlns:xlink="http://www.w3.org/1999/xlink">
<g id="graph0" class="graph" transform="scale(1 1) rotate(0) translate(4 248)">
<title>qmapviewer.h</title>
<!-- Node1 -->
<g id="node1" class="node"><title>Node1</title>
<polygon fill="#bfbfbf" stroke="black" points="132,-224.5 132,-243.5 209,-243.5 209,-224.5 132,-224.5"/>
<text text-anchor="middle" x="170.5" y="-231.5" font-family="Helvetica,sans-Serif" font-size="10.00">qmapviewer.h</text>
</g>
<!-- Node2 -->
<g id="node2" class="node"><title>Node2</title>
<g id="a_node2"><a xlink:href="controller_8h.html" target="_top" xlink:title="controller.h">
<polygon fill="none" stroke="black" points="71,-112.5 71,-131.5 136,-131.5 136,-112.5 71,-112.5"/>
<text text-anchor="middle" x="103.5" y="-119.5" font-family="Helvetica,sans-Serif" font-size="10.00">controller.h</text>
</a>
</g>
</g>
<!-- Node1&#45;&gt;Node2 -->
<g id="edge1" class="edge"><title>Node1&#45;&gt;Node2</title>
<path fill="none" stroke="midnightblue" d="M150.114,-218.103C140.509,-210.138 129.623,-199.592 122.5,-188 111.297,-169.769 106.42,-144.607 104.537,-131.584"/>
<polygon fill="midnightblue" stroke="midnightblue" points="148.079,-220.955 158.098,-224.399 152.413,-215.459 148.079,-220.955"/>
</g>
<!-- Node7 -->
<g id="node7" class="node"><title>Node7</title>
<g id="a_node7"><a xlink:href="qmapwidget_8h.html" target="_top" xlink:title="qmapwidget.h">
<polygon fill="none" stroke="black" points="132,-168.5 132,-187.5 209,-187.5 209,-168.5 132,-168.5"/>
<text text-anchor="middle" x="170.5" y="-175.5" font-family="Helvetica,sans-Serif" font-size="10.00">qmapwidget.h</text>
</a>
</g>
</g>
<!-- Node1&#45;&gt;Node7 -->
<g id="edge7" class="edge"><title>Node1&#45;&gt;Node7</title>
<path fill="none" stroke="midnightblue" d="M170.5,-213.805C170.5,-204.91 170.5,-194.78 170.5,-187.751"/>
<polygon fill="midnightblue" stroke="midnightblue" points="167,-214.083 170.5,-224.083 174,-214.083 167,-214.083"/>
</g>
<!-- Node9 -->
<g id="node9" class="node"><title>Node9</title>
<g id="a_node9"><a xlink:href="qmapviewer_8cpp.html" target="_top" xlink:title="qmapviewer.cpp">
<polygon fill="none" stroke="black" points="227.5,-168.5 227.5,-187.5 315.5,-187.5 315.5,-168.5 227.5,-168.5"/>
<text text-anchor="middle" x="271.5" y="-175.5" font-family="Helvetica,sans-Serif" font-size="10.00">qmapviewer.cpp</text>
</a>
</g>
</g>
<!-- Node1&#45;&gt;Node9 -->
<g id="edge10" class="edge"><title>Node1&#45;&gt;Node9</title>
<path fill="none" stroke="midnightblue" d="M195.583,-219.59C214.257,-209.605 239.204,-196.267 255.313,-187.655"/>
<polygon fill="midnightblue" stroke="midnightblue" points="193.896,-216.522 186.727,-224.324 197.196,-222.696 193.896,-216.522"/>
</g>
<!-- Node3 -->
<g id="node3" class="node"><title>Node3</title>
<g id="a_node3"><a xlink:href="controller_8cpp.html" target="_top" xlink:title="controller.cpp">
<polygon fill="none" stroke="black" points="0,-56.5 0,-75.5 75,-75.5 75,-56.5 0,-56.5"/>
<text text-anchor="middle" x="37.5" y="-63.5" font-family="Helvetica,sans-Serif" font-size="10.00">controller.cpp</text>
</a>
</g>
</g>
<!-- Node2&#45;&gt;Node3 -->
<g id="edge2" class="edge"><title>Node2&#45;&gt;Node3</title>
<path fill="none" stroke="midnightblue" d="M84.9463,-105.82C73.1219,-96.1452 58.2144,-83.9481 48.297,-75.8339"/>
<polygon fill="midnightblue" stroke="midnightblue" points="82.94,-108.7 92.896,-112.324 87.3727,-103.283 82.94,-108.7"/>
</g>
<!-- Node4 -->
<g id="node4" class="node"><title>Node4</title>
<g id="a_node4"><a xlink:href="main_8cpp.html" target="_top" xlink:title="main.cpp">
<polygon fill="none" stroke="black" points="75.5,-0.5 75.5,-19.5 131.5,-19.5 131.5,-0.5 75.5,-0.5"/>
<text text-anchor="middle" x="103.5" y="-7.5" font-family="Helvetica,sans-Serif" font-size="10.00">main.cpp</text>
</a>
</g>
</g>
<!-- Node2&#45;&gt;Node4 -->
<g id="edge3" class="edge"><title>Node2&#45;&gt;Node4</title>
<path fill="none" stroke="midnightblue" d="M103.5,-102.348C103.5,-78.2538 103.5,-37.3079 103.5,-19.5914"/>
<polygon fill="midnightblue" stroke="midnightblue" points="100,-102.368 103.5,-112.368 107,-102.369 100,-102.368"/>
</g>
<!-- Node5 -->
<g id="node5" class="node"><title>Node5</title>
<g id="a_node5"><a xlink:href="_main_window_8h.html" target="_top" xlink:title="MainWindow.h">
<polygon fill="none" stroke="black" points="132,-56.5 132,-75.5 213,-75.5 213,-56.5 132,-56.5"/>
<text text-anchor="middle" x="172.5" y="-63.5" font-family="Helvetica,sans-Serif" font-size="10.00">MainWindow.h</text>
</a>
</g>
</g>
<!-- Node2&#45;&gt;Node5 -->
<g id="edge4" class="edge"><title>Node2&#45;&gt;Node5</title>
<path fill="none" stroke="midnightblue" d="M122.538,-106.101C134.956,-96.3824 150.743,-84.0269 161.212,-75.8339"/>
<polygon fill="midnightblue" stroke="midnightblue" points="120.304,-103.405 114.586,-112.324 124.618,-108.917 120.304,-103.405"/>
</g>
<!-- Node5&#45;&gt;Node4 -->
<g id="edge5" class="edge"><title>Node5&#45;&gt;Node4</title>
<path fill="none" stroke="midnightblue" d="M153.462,-50.1008C141.044,-40.3824 125.257,-28.0269 114.788,-19.8339"/>
<polygon fill="midnightblue" stroke="midnightblue" points="151.382,-52.9171 161.414,-56.324 155.696,-47.4046 151.382,-52.9171"/>
</g>
<!-- Node6 -->
<g id="node6" class="node"><title>Node6</title>
<g id="a_node6"><a xlink:href="_main_window_8cpp.html" target="_top" xlink:title="MainWindow.cpp">
<polygon fill="none" stroke="black" points="149.5,-0.5 149.5,-19.5 241.5,-19.5 241.5,-0.5 149.5,-0.5"/>
<text text-anchor="middle" x="195.5" y="-7.5" font-family="Helvetica,sans-Serif" font-size="10.00">MainWindow.cpp</text>
</a>
</g>
</g>
<!-- Node5&#45;&gt;Node6 -->
<g id="edge6" class="edge"><title>Node5&#45;&gt;Node6</title>
<path fill="none" stroke="midnightblue" d="M180.299,-46.6897C184.175,-37.589 188.679,-27.0141 191.773,-19.7511"/>
<polygon fill="midnightblue" stroke="midnightblue" points="176.997,-45.5112 176.298,-56.083 183.437,-48.2543 176.997,-45.5112"/>
</g>
<!-- Node7&#45;&gt;Node2 -->
<g id="edge8" class="edge"><title>Node7&#45;&gt;Node2</title>
<path fill="none" stroke="midnightblue" d="M151.665,-161.82C139.662,-152.145 124.528,-139.948 114.461,-131.834"/>
<polygon fill="midnightblue" stroke="midnightblue" points="149.753,-164.774 159.735,-168.324 154.146,-159.324 149.753,-164.774"/>
</g>
<!-- Node8 -->
<g id="node8" class="node"><title>Node8</title>
<g id="a_node8"><a xlink:href="qmapwidget_8cpp.html" target="_top" xlink:title="qmapwidget.cpp">
<polygon fill="none" stroke="black" points="154.5,-112.5 154.5,-131.5 242.5,-131.5 242.5,-112.5 154.5,-112.5"/>
<text text-anchor="middle" x="198.5" y="-119.5" font-family="Helvetica,sans-Serif" font-size="10.00">qmapwidget.cpp</text>
</a>
</g>
</g>
<!-- Node7&#45;&gt;Node8 -->
<g id="edge9" class="edge"><title>Node7&#45;&gt;Node8</title>
<path fill="none" stroke="midnightblue" d="M179.842,-158.983C184.595,-149.817 190.156,-139.092 193.962,-131.751"/>
<polygon fill="midnightblue" stroke="midnightblue" points="176.62,-157.594 175.124,-168.083 182.834,-160.817 176.62,-157.594"/>
</g>
</g>
</svg>
