<?xml version="1.0" encoding="UTF-8" standalone="no"?>
<!DOCTYPE svg PUBLIC "-//W3C//DTD SVG 1.1//EN"
 "http://www.w3.org/Graphics/SVG/1.1/DTD/svg11.dtd">
<!-- Generated by graphviz version 2.38.0 (20140413.2041)
 -->
<!-- Title: qmapviewer.cpp Pages: 1 -->
<svg width="566pt" height="252pt"
 viewBox="0.00 0.00 565.50 252.00" xmlns="http://www.w3.org/2000/svg" xmlns:xlink="http://www.w3.org/1999/xlink">
<g id="graph0" class="graph" transform="scale(1 1) rotate(0) translate(4 248)">
<title>qmapviewer.cpp</title>
<!-- Node1 -->
<g id="node1" class="node"><title>Node1</title>
<polygon fill="#bfbfbf" stroke="black" points="198.5,-224.5 198.5,-243.5 286.5,-243.5 286.5,-224.5 198.5,-224.5"/>
<text text-anchor="middle" x="242.5" y="-231.5" font-family="Helvetica,sans-Serif" font-size="10.00">qmapviewer.cpp</text>
</g>
<!-- Node2 -->
<g id="node2" class="node"><title>Node2</title>
<g id="a_node2"><a xlink:href="qmapviewer_8h.html" target="_top" xlink:title="qmapviewer.h">
<polygon fill="none" stroke="black" points="204,-168.5 204,-187.5 281,-187.5 281,-168.5 204,-168.5"/>
<text text-anchor="middle" x="242.5" y="-175.5" font-family="Helvetica,sans-Serif" font-size="10.00">qmapviewer.h</text>
</a>
</g>
</g>
<!-- Node1&#45;&gt;Node2 -->
<g id="edge1" class="edge"><title>Node1&#45;&gt;Node2</title>
<path fill="none" stroke="midnightblue" d="M242.5,-224.083C242.5,-217.006 242.5,-206.861 242.5,-197.986"/>
<polygon fill="midnightblue" stroke="midnightblue" points="246,-197.751 242.5,-187.751 239,-197.751 246,-197.751"/>
</g>
<!-- Node3 -->
<g id="node3" class="node"><title>Node3</title>
<polygon fill="none" stroke="#bfbfbf" points="0,-112.5 0,-131.5 51,-131.5 51,-112.5 0,-112.5"/>
<text text-anchor="middle" x="25.5" y="-119.5" font-family="Helvetica,sans-Serif" font-size="10.00">QImage</text>
</g>
<!-- Node2&#45;&gt;Node3 -->
<g id="edge2" class="edge"><title>Node2&#45;&gt;Node3</title>
<path fill="none" stroke="midnightblue" d="M207.585,-168.469C172.934,-159.981 118.046,-146.474 61.022,-132.114"/>
<polygon fill="midnightblue" stroke="midnightblue" points="61.6595,-128.665 51.1072,-129.614 59.948,-135.453 61.6595,-128.665"/>
</g>
<!-- Node4 -->
<g id="node4" class="node"><title>Node4</title>
<polygon fill="none" stroke="#bfbfbf" points="69,-112.5 69,-131.5 126,-131.5 126,-112.5 69,-112.5"/>
<text text-anchor="middle" x="97.5" y="-119.5" font-family="Helvetica,sans-Serif" font-size="10.00">QPixmap</text>
</g>
<!-- Node2&#45;&gt;Node4 -->
<g id="edge3" class="edge"><title>Node2&#45;&gt;Node4</title>
<path fill="none" stroke="midnightblue" d="M219.524,-168.444C195.343,-159.438 157.082,-145.189 129.854,-135.049"/>
<polygon fill="midnightblue" stroke="midnightblue" points="130.961,-131.727 120.368,-131.516 128.518,-138.286 130.961,-131.727"/>
</g>
<!-- Node5 -->
<g id="node5" class="node"><title>Node5</title>
<polygon fill="none" stroke="#bfbfbf" points="144,-112.5 144,-131.5 199,-131.5 199,-112.5 144,-112.5"/>
<text text-anchor="middle" x="171.5" y="-119.5" font-family="Helvetica,sans-Serif" font-size="10.00">QPainter</text>
</g>
<!-- Node2&#45;&gt;Node5 -->
<g id="edge4" class="edge"><title>Node2&#45;&gt;Node5</title>
<path fill="none" stroke="midnightblue" d="M231.093,-168.324C220.391,-160.185 204.159,-147.839 191.337,-138.087"/>
<polygon fill="midnightblue" stroke="midnightblue" points="193.193,-135.102 183.115,-131.834 188.956,-140.673 193.193,-135.102"/>
</g>
<!-- Node6 -->
<g id="node6" class="node"><title>Node6</title>
<polygon fill="none" stroke="#bfbfbf" points="217.5,-112.5 217.5,-131.5 267.5,-131.5 267.5,-112.5 217.5,-112.5"/>
<text text-anchor="middle" x="242.5" y="-119.5" font-family="Helvetica,sans-Serif" font-size="10.00">QString</text>
</g>
<!-- Node2&#45;&gt;Node6 -->
<g id="edge5" class="edge"><title>Node2&#45;&gt;Node6</title>
<path fill="none" stroke="midnightblue" d="M242.5,-168.083C242.5,-161.006 242.5,-150.861 242.5,-141.986"/>
<polygon fill="midnightblue" stroke="midnightblue" points="246,-141.751 242.5,-131.751 239,-141.751 246,-141.751"/>
</g>
<!-- Node7 -->
<g id="node7" class="node"><title>Node7</title>
<polygon fill="none" stroke="#bfbfbf" points="356.5,-0.5 356.5,-19.5 410.5,-19.5 410.5,-0.5 356.5,-0.5"/>
<text text-anchor="middle" x="383.5" y="-7.5" font-family="Helvetica,sans-Serif" font-size="10.00">iostream</text>
</g>
<!-- Node2&#45;&gt;Node7 -->
<g id="edge6" class="edge"><title>Node2&#45;&gt;Node7</title>
<path fill="none" stroke="midnightblue" d="M249.773,-168.378C257.024,-159.562 268.24,-145.312 276.5,-132 296.411,-99.9107 289.365,-84.1848 314.5,-56 326.101,-42.9915 342.295,-32.1699 356.079,-24.4013"/>
<polygon fill="midnightblue" stroke="midnightblue" points="358.002,-27.3411 365.151,-19.5215 354.686,-21.1764 358.002,-27.3411"/>
</g>
<!-- Node8 -->
<g id="node8" class="node"><title>Node8</title>
<polygon fill="none" stroke="#bfbfbf" points="324,-112.5 324,-131.5 365,-131.5 365,-112.5 324,-112.5"/>
<text text-anchor="middle" x="344.5" y="-119.5" font-family="Helvetica,sans-Serif" font-size="10.00">string</text>
</g>
<!-- Node2&#45;&gt;Node8 -->
<g id="edge7" class="edge"><title>Node2&#45;&gt;Node8</title>
<path fill="none" stroke="midnightblue" d="M258.888,-168.324C275.171,-159.703 300.367,-146.364 319.216,-136.386"/>
<polygon fill="midnightblue" stroke="midnightblue" points="320.952,-139.427 328.153,-131.655 317.677,-133.24 320.952,-139.427"/>
</g>
<!-- Node9 -->
<g id="node9" class="node"><title>Node9</title>
<g id="a_node9"><a xlink:href="point_g_p_s_8h.html" target="_top" xlink:title="pointGPS.h">
<polygon fill="none" stroke="black" points="411,-112.5 411,-131.5 478,-131.5 478,-112.5 411,-112.5"/>
<text text-anchor="middle" x="444.5" y="-119.5" font-family="Helvetica,sans-Serif" font-size="10.00">pointGPS.h</text>
</a>
</g>
</g>
<!-- Node2&#45;&gt;Node9 -->
<g id="edge8" class="edge"><title>Node2&#45;&gt;Node9</title>
<path fill="none" stroke="midnightblue" d="M274.508,-168.444C309.229,-159.162 364.788,-144.309 402.877,-134.127"/>
<polygon fill="midnightblue" stroke="midnightblue" points="403.885,-137.48 412.642,-131.516 402.078,-130.718 403.885,-137.48"/>
</g>
<!-- Node10 -->
<g id="node10" class="node"><title>Node10</title>
<g id="a_node10"><a xlink:href="emissionprobability_8h.html" target="_top" xlink:title="emissionprobability.h">
<polygon fill="none" stroke="black" points="323.5,-56.5 323.5,-75.5 431.5,-75.5 431.5,-56.5 323.5,-56.5"/>
<text text-anchor="middle" x="377.5" y="-63.5" font-family="Helvetica,sans-Serif" font-size="10.00">emissionprobability.h</text>
</a>
</g>
</g>
<!-- Node9&#45;&gt;Node10 -->
<g id="edge9" class="edge"><title>Node9&#45;&gt;Node10</title>
<path fill="none" stroke="midnightblue" d="M433.735,-112.324C423.734,-104.263 408.613,-92.0765 396.57,-82.3695"/>
<polygon fill="midnightblue" stroke="midnightblue" points="398.443,-79.3841 388.461,-75.8339 394.05,-84.8343 398.443,-79.3841"/>
</g>
<!-- Node11 -->
<g id="node11" class="node"><title>Node11</title>
<g id="a_node11"><a xlink:href="point_8h.html" target="_top" xlink:title="Class Point. ">
<polygon fill="none" stroke="black" points="449.5,-56.5 449.5,-75.5 495.5,-75.5 495.5,-56.5 449.5,-56.5"/>
<text text-anchor="middle" x="472.5" y="-63.5" font-family="Helvetica,sans-Serif" font-size="10.00">point.h</text>
</a>
</g>
</g>
<!-- Node9&#45;&gt;Node11 -->
<g id="edge10" class="edge"><title>Node9&#45;&gt;Node11</title>
<path fill="none" stroke="midnightblue" d="M449.124,-112.083C452.956,-104.691 458.524,-93.9533 463.265,-84.8111"/>
<polygon fill="midnightblue" stroke="midnightblue" points="466.466,-86.2398 467.962,-75.7511 460.252,-83.0175 466.466,-86.2398"/>
</g>
<!-- Node12 -->
<g id="node12" class="node"><title>Node12</title>
<polygon fill="none" stroke="#bfbfbf" points="513.5,-56.5 513.5,-75.5 557.5,-75.5 557.5,-56.5 513.5,-56.5"/>
<text text-anchor="middle" x="535.5" y="-63.5" font-family="Helvetica,sans-Serif" font-size="10.00">vector</text>
</g>
<!-- Node9&#45;&gt;Node12 -->
<g id="edge12" class="edge"><title>Node9&#45;&gt;Node12</title>
<path fill="none" stroke="midnightblue" d="M459.121,-112.324C473.449,-103.822 495.513,-90.7288 512.249,-80.7975"/>
<polygon fill="midnightblue" stroke="midnightblue" points="514.102,-83.7677 520.916,-75.6545 510.53,-77.7478 514.102,-83.7677"/>
</g>
<!-- Node11&#45;&gt;Node7 -->
<g id="edge11" class="edge"><title>Node11&#45;&gt;Node7</title>
<path fill="none" stroke="midnightblue" d="M458.201,-56.324C444.317,-47.9002 423.008,-34.9709 406.696,-25.0741"/>
<polygon fill="midnightblue" stroke="midnightblue" points="408.129,-21.8495 397.764,-19.6545 404.498,-27.8341 408.129,-21.8495"/>
</g>
</g>
</svg>
