<?xml version="1.0" encoding="UTF-8" standalone="no"?>
<!DOCTYPE svg PUBLIC "-//W3C//DTD SVG 1.1//EN"
 "http://www.w3.org/Graphics/SVG/1.1/DTD/svg11.dtd">
<!-- Generated by graphviz version 2.38.0 (20140413.2041)
 -->
<!-- Title: qprocessviewer.h Pages: 1 -->
<svg width="235pt" height="84pt"
 viewBox="0.00 0.00 235.00 84.00" xmlns="http://www.w3.org/2000/svg" xmlns:xlink="http://www.w3.org/1999/xlink">
<g id="graph0" class="graph" transform="scale(1 1) rotate(0) translate(4 80)">
<title>qprocessviewer.h</title>
<!-- Node1 -->
<g id="node1" class="node"><title>Node1</title>
<polygon fill="#bfbfbf" stroke="black" points="77,-56.5 77,-75.5 170,-75.5 170,-56.5 77,-56.5"/>
<text text-anchor="middle" x="123.5" y="-63.5" font-family="Helvetica,sans-Serif" font-size="10.00">qprocessviewer.h</text>
</g>
<!-- Node2 -->
<g id="node2" class="node"><title>Node2</title>
<polygon fill="none" stroke="#bfbfbf" points="0,-0.5 0,-19.5 75,-19.5 75,-0.5 0,-0.5"/>
<text text-anchor="middle" x="37.5" y="-7.5" font-family="Helvetica,sans-Serif" font-size="10.00">QPushButton</text>
</g>
<!-- Node1&#45;&gt;Node2 -->
<g id="edge1" class="edge"><title>Node1&#45;&gt;Node2</title>
<path fill="none" stroke="midnightblue" d="M109.683,-56.324C96.267,-47.9002 75.6759,-34.9709 59.9144,-25.0741"/>
<polygon fill="midnightblue" stroke="midnightblue" points="61.6132,-22.0081 51.2831,-19.6545 57.8908,-27.9364 61.6132,-22.0081"/>
</g>
<!-- Node3 -->
<g id="node3" class="node"><title>Node3</title>
<polygon fill="none" stroke="#bfbfbf" points="93,-0.5 93,-19.5 154,-19.5 154,-0.5 93,-0.5"/>
<text text-anchor="middle" x="123.5" y="-7.5" font-family="Helvetica,sans-Serif" font-size="10.00">QTextEdit</text>
</g>
<!-- Node1&#45;&gt;Node3 -->
<g id="edge2" class="edge"><title>Node1&#45;&gt;Node3</title>
<path fill="none" stroke="midnightblue" d="M123.5,-56.083C123.5,-49.0059 123.5,-38.8611 123.5,-29.9865"/>
<polygon fill="midnightblue" stroke="midnightblue" points="127,-29.751 123.5,-19.7511 120,-29.7511 127,-29.751"/>
</g>
<!-- Node4 -->
<g id="node4" class="node"><title>Node4</title>
<polygon fill="none" stroke="#bfbfbf" points="172,-0.5 172,-19.5 227,-19.5 227,-0.5 172,-0.5"/>
<text text-anchor="middle" x="199.5" y="-7.5" font-family="Helvetica,sans-Serif" font-size="10.00">QWidget</text>
</g>
<!-- Node1&#45;&gt;Node4 -->
<g id="edge3" class="edge"><title>Node1&#45;&gt;Node4</title>
<path fill="none" stroke="midnightblue" d="M135.711,-56.324C147.276,-48.1066 164.875,-35.6017 178.661,-25.8069"/>
<polygon fill="midnightblue" stroke="midnightblue" points="180.943,-28.4791 187.067,-19.8339 176.888,-22.7729 180.943,-28.4791"/>
</g>
</g>
</svg>
