<?xml version="1.0" encoding="UTF-8" standalone="no"?>
<!DOCTYPE svg PUBLIC "-//W3C//DTD SVG 1.1//EN"
 "http://www.w3.org/Graphics/SVG/1.1/DTD/svg11.dtd">
<!-- Generated by graphviz version 2.38.0 (20140413.2041)
 -->
<!-- Title: road.cpp Pages: 1 -->
<!--zoomable 308 -->
<svg id="main" version="1.1" xmlns="http://www.w3.org/2000/svg" xmlns:xlink="http://www.w3.org/1999/xlink" xml:space="preserve" onload="init(evt)">
<style type="text/css"><![CDATA[
.edge:hover path { stroke: red; }
.edge:hover polygon { stroke: red; fill: red; }
]]></style>
<script type="text/javascript"><![CDATA[
var edges = document.getElementsByTagName('g');
if (edges && edges.length) {
  for (var i=0;i<edges.length;i++) {
    if (edges[i].id.substr(0,4)=='edge') {
      edges[i].setAttribute('class','edge');
    }
  }
}
]]></script>
        <defs>
                <circle id="rim" cx="0" cy="0" r="7"/>
                <circle id="rim2" cx="0" cy="0" r="3.5"/>
                <g id="zoomPlus">
                        <use xlink:href="#rim" fill="#404040">
                                <set attributeName="fill" to="#808080" begin="zoomplus.mouseover" end="zoomplus.mouseout"/>
                        </use>
                        <path d="M-4,0h8M0,-4v8" fill="none" stroke="white" stroke-width="1.5" pointer-events="none"/>
                </g>
                <g id="zoomMin">
                        <use xlink:href="#rim" fill="#404040">
                                <set attributeName="fill" to="#808080" begin="zoomminus.mouseover" end="zoomminus.mouseout"/>
                        </use>
                        <path d="M-4,0h8" fill="none" stroke="white" stroke-width="1.5" pointer-events="none"/>
                </g>
                <g id="dirArrow">
                        <path fill="none" stroke="white" stroke-width="1.5" d="M0,-3.0v7 M-2.5,-0.5L0,-3.0L2.5,-0.5"/>
                </g>
               <g id="resetDef">
                       <use xlink:href="#rim2" fill="#404040">
                               <set attributeName="fill" to="#808080" begin="reset.mouseover" end="reset.mouseout"/>
                       </use>
               </g>
        </defs>

<script type="text/javascript">
var viewWidth = 741;
var viewHeight = 308;
var sectionId = 'dynsection-0';
</script>
<script xlink:href="svgpan.js"/>
<svg id="graph" class="graph">
<g id="viewport">
<title>road.cpp</title>
<!-- Node1 -->
<g id="node1" class="node"><title>Node1</title>
<polygon fill="#bfbfbf" stroke="black" points="564.439,-280.5 564.439,-299.5 618.439,-299.5 618.439,-280.5 564.439,-280.5"/>
<text text-anchor="middle" x="591.439" y="-287.5" font-family="Helvetica,sans-Serif" font-size="10.00">road.cpp</text>
</g>
<!-- Node2 -->
<g id="node2" class="node"><title>Node2</title>
<g id="a_node2"><a xlink:href="road_8h.html" target="_top" xlink:title="road.h">
<polygon fill="none" stroke="black" points="402.439,-224.5 402.439,-243.5 446.439,-243.5 446.439,-224.5 402.439,-224.5"/>
<text text-anchor="middle" x="424.439" y="-231.5" font-family="Helvetica,sans-Serif" font-size="10.00">road.h</text>
</a>
</g>
</g>
<!-- Node1&#45;&gt;Node2 -->
<g id="edge1" class="edge"><title>Node1&#45;&gt;Node2</title>
<path fill="none" stroke="midnightblue" d="M564.978,-280.444C535.433,-270.89 487.64,-255.436 456.126,-245.246"/>
<polygon fill="midnightblue" stroke="midnightblue" points="457.102,-241.883 446.511,-242.137 454.949,-248.544 457.102,-241.883"/>
</g>
<!-- Node5 -->
<g id="node5" class="node"><title>Node5</title>
<polygon fill="none" stroke="#bfbfbf" points="128.439,-0.5 128.439,-19.5 182.439,-19.5 182.439,-0.5 128.439,-0.5"/>
<text text-anchor="middle" x="155.439" y="-7.5" font-family="Helvetica,sans-Serif" font-size="10.00">iostream</text>
</g>
<!-- Node1&#45;&gt;Node5 -->
<g id="edge23" class="edge"><title>Node1&#45;&gt;Node5</title>
<path fill="none" stroke="midnightblue" d="M618.483,-281.515C659.683,-268.274 733.439,-236.535 733.439,-179 733.439,-179 733.439,-179 733.439,-121 733.439,-65.7337 320.367,-25.2964 192.624,-14.1125"/>
<polygon fill="midnightblue" stroke="midnightblue" points="192.807,-10.6154 182.542,-13.239 192.203,-17.5893 192.807,-10.6154"/>
</g>
<!-- Node3 -->
<g id="node3" class="node"><title>Node3</title>
<g id="a_node3"><a xlink:href="pointroad_8h.html" target="_top" xlink:title="pointroad.h">
<polygon fill="none" stroke="black" points="3.9394,-112.5 3.9394,-131.5 68.9394,-131.5 68.9394,-112.5 3.9394,-112.5"/>
<text text-anchor="middle" x="36.4394" y="-119.5" font-family="Helvetica,sans-Serif" font-size="10.00">pointroad.h</text>
</a>
</g>
</g>
<!-- Node2&#45;&gt;Node3 -->
<g id="edge2" class="edge"><title>Node2&#45;&gt;Node3</title>
<path fill="none" stroke="midnightblue" d="M402.026,-232.327C335.045,-229.964 137.668,-220.357 83.4394,-188 65.3669,-177.216 52.2528,-156.513 44.5411,-141.359"/>
<polygon fill="midnightblue" stroke="midnightblue" points="47.5219,-139.477 40.0707,-131.945 41.1986,-142.48 47.5219,-139.477"/>
</g>
<!-- Node6 -->
<g id="node6" class="node"><title>Node6</title>
<polygon fill="none" stroke="#bfbfbf" points="77.4394,-56.5 77.4394,-75.5 121.439,-75.5 121.439,-56.5 77.4394,-56.5"/>
<text text-anchor="middle" x="99.4394" y="-63.5" font-family="Helvetica,sans-Serif" font-size="10.00">vector</text>
</g>
<!-- Node2&#45;&gt;Node6 -->
<g id="edge22" class="edge"><title>Node2&#45;&gt;Node6</title>
<path fill="none" stroke="midnightblue" d="M402.36,-231.489C348.501,-226.672 208.841,-207.216 127.439,-132 114.207,-119.773 106.947,-100.229 103.159,-85.761"/>
<polygon fill="midnightblue" stroke="midnightblue" points="106.543,-84.8572 100.898,-75.8916 99.7197,-86.4208 106.543,-84.8572"/>
</g>
<!-- Node7 -->
<g id="node7" class="node"><title>Node7</title>
<g id="a_node7"><a xlink:href="track_8h.html" target="_top" xlink:title="The class Track. ">
<polygon fill="none" stroke="black" points="374.939,-168.5 374.939,-187.5 421.939,-187.5 421.939,-168.5 374.939,-168.5"/>
<text text-anchor="middle" x="398.439" y="-175.5" font-family="Helvetica,sans-Serif" font-size="10.00">track.h</text>
</a>
</g>
</g>
<!-- Node2&#45;&gt;Node7 -->
<g id="edge7" class="edge"><title>Node2&#45;&gt;Node7</title>
<path fill="none" stroke="midnightblue" d="M420.146,-224.083C416.587,-216.691 411.417,-205.953 407.015,-196.811"/>
<polygon fill="midnightblue" stroke="midnightblue" points="410.145,-195.243 402.653,-187.751 403.838,-198.279 410.145,-195.243"/>
</g>
<!-- Node15 -->
<g id="node15" class="node"><title>Node15</title>
<polygon fill="none" stroke="#bfbfbf" points="663.939,-112.5 663.939,-131.5 704.939,-131.5 704.939,-112.5 663.939,-112.5"/>
<text text-anchor="middle" x="684.439" y="-119.5" font-family="Helvetica,sans-Serif" font-size="10.00">string</text>
</g>
<!-- Node2&#45;&gt;Node15 -->
<g id="edge21" class="edge"><title>Node2&#45;&gt;Node15</title>
<path fill="none" stroke="midnightblue" d="M427.899,-224.21C433.997,-209.949 448.068,-181.963 469.439,-168 536.962,-123.885 570.572,-149.946 653.986,-131.773"/>
<polygon fill="midnightblue" stroke="midnightblue" points="654.914,-135.15 663.857,-129.468 653.323,-128.334 654.914,-135.15"/>
</g>
<!-- Node16 -->
<g id="node16" class="node"><title>Node16</title>
<polygon fill="none" stroke="#bfbfbf" points="478.439,-168.5 478.439,-187.5 508.439,-187.5 508.439,-168.5 478.439,-168.5"/>
<text text-anchor="middle" x="493.439" y="-175.5" font-family="Helvetica,sans-Serif" font-size="10.00">set</text>
</g>
<!-- Node2&#45;&gt;Node16 -->
<g id="edge20" class="edge"><title>Node2&#45;&gt;Node16</title>
<path fill="none" stroke="midnightblue" d="M435.525,-224.324C445.925,-216.185 461.7,-203.839 474.161,-194.087"/>
<polygon fill="midnightblue" stroke="midnightblue" points="476.434,-196.753 482.152,-187.834 472.119,-191.241 476.434,-196.753"/>
</g>
<!-- Node4 -->
<g id="node4" class="node"><title>Node4</title>
<g id="a_node4"><a xlink:href="point_8h.html" target="_top" xlink:title="Class Point. ">
<polygon fill="none" stroke="black" points="13.4394,-56.5 13.4394,-75.5 59.4394,-75.5 59.4394,-56.5 13.4394,-56.5"/>
<text text-anchor="middle" x="36.4394" y="-63.5" font-family="Helvetica,sans-Serif" font-size="10.00">point.h</text>
</a>
</g>
</g>
<!-- Node3&#45;&gt;Node4 -->
<g id="edge3" class="edge"><title>Node3&#45;&gt;Node4</title>
<path fill="none" stroke="midnightblue" d="M36.4394,-112.083C36.4394,-105.006 36.4394,-94.8611 36.4394,-85.9865"/>
<polygon fill="midnightblue" stroke="midnightblue" points="39.9395,-85.751 36.4394,-75.7511 32.9395,-85.7511 39.9395,-85.751"/>
</g>
<!-- Node3&#45;&gt;Node5 -->
<g id="edge5" class="edge"><title>Node3&#45;&gt;Node5</title>
<path fill="none" stroke="midnightblue" d="M26.5341,-112.447C12.7035,-99.4639 -9.24238,-74.3538 4.4394,-56 30.4794,-21.068 82.5692,-12.1841 118.213,-10.4576"/>
<polygon fill="midnightblue" stroke="midnightblue" points="118.364,-13.9546 128.247,-10.1373 118.141,-6.95819 118.364,-13.9546"/>
</g>
<!-- Node3&#45;&gt;Node6 -->
<g id="edge6" class="edge"><title>Node3&#45;&gt;Node6</title>
<path fill="none" stroke="midnightblue" d="M46.5614,-112.324C55.9658,-104.263 70.1835,-92.0765 81.5084,-82.3695"/>
<polygon fill="midnightblue" stroke="midnightblue" points="83.8184,-84.9993 89.1332,-75.8339 79.2628,-79.6844 83.8184,-84.9993"/>
</g>
<!-- Node4&#45;&gt;Node5 -->
<g id="edge4" class="edge"><title>Node4&#45;&gt;Node5</title>
<path fill="none" stroke="midnightblue" d="M55.2953,-56.4435C74.7054,-47.6356 105.169,-33.8116 127.404,-23.722"/>
<polygon fill="midnightblue" stroke="midnightblue" points="129.012,-26.836 136.672,-19.5164 126.119,-20.4615 129.012,-26.836"/>
</g>
<!-- Node7&#45;&gt;Node5 -->
<g id="edge16" class="edge"><title>Node7&#45;&gt;Node5</title>
<path fill="none" stroke="midnightblue" d="M374.651,-174.427C347.578,-170.238 303.834,-159.429 278.439,-132 254.55,-106.196 279.539,-82.513 256.439,-56 240.001,-37.133 214.116,-25.8123 192.667,-19.2448"/>
<polygon fill="midnightblue" stroke="midnightblue" points="193.44,-15.8262 182.865,-16.471 191.534,-22.5617 193.44,-15.8262"/>
</g>
<!-- Node7&#45;&gt;Node6 -->
<g id="edge19" class="edge"><title>Node7&#45;&gt;Node6</title>
<path fill="none" stroke="midnightblue" d="M374.804,-177.739C329.051,-178.124 226.546,-173.81 154.439,-132 134.927,-120.686 119.137,-99.769 109.562,-84.7147"/>
<polygon fill="midnightblue" stroke="midnightblue" points="112.36,-82.5765 104.192,-75.8284 106.369,-86.1972 112.36,-82.5765"/>
</g>
<!-- Node8 -->
<g id="node8" class="node"><title>Node8</title>
<g id="a_node8"><a xlink:href="point_g_p_s_8h.html" target="_top" xlink:title="pointGPS.h">
<polygon fill="none" stroke="black" points="163.939,-112.5 163.939,-131.5 230.939,-131.5 230.939,-112.5 163.939,-112.5"/>
<text text-anchor="middle" x="197.439" y="-119.5" font-family="Helvetica,sans-Serif" font-size="10.00">pointGPS.h</text>
</a>
</g>
</g>
<!-- Node7&#45;&gt;Node8 -->
<g id="edge8" class="edge"><title>Node7&#45;&gt;Node8</title>
<path fill="none" stroke="midnightblue" d="M374.593,-170.593C341.161,-161.612 279.866,-145.145 238.881,-134.134"/>
<polygon fill="midnightblue" stroke="midnightblue" points="239.75,-130.743 229.184,-131.529 237.934,-137.503 239.75,-130.743"/>
</g>
<!-- Node10 -->
<g id="node10" class="node"><title>Node10</title>
<polygon fill="none" stroke="#bfbfbf" points="287.939,-112.5 287.939,-131.5 354.939,-131.5 354.939,-112.5 287.939,-112.5"/>
<text text-anchor="middle" x="321.439" y="-119.5" font-family="Helvetica,sans-Serif" font-size="10.00">QDateTime</text>
</g>
<!-- Node7&#45;&gt;Node10 -->
<g id="edge12" class="edge"><title>Node7&#45;&gt;Node10</title>
<path fill="none" stroke="midnightblue" d="M386.068,-168.324C374.281,-160.058 356.307,-147.453 342.304,-137.632"/>
<polygon fill="midnightblue" stroke="midnightblue" points="343.977,-134.531 333.78,-131.655 339.958,-140.262 343.977,-134.531"/>
</g>
<!-- Node11 -->
<g id="node11" class="node"><title>Node11</title>
<polygon fill="none" stroke="#bfbfbf" points="373.439,-112.5 373.439,-131.5 423.439,-131.5 423.439,-112.5 373.439,-112.5"/>
<text text-anchor="middle" x="398.439" y="-119.5" font-family="Helvetica,sans-Serif" font-size="10.00">QString</text>
</g>
<!-- Node7&#45;&gt;Node11 -->
<g id="edge13" class="edge"><title>Node7&#45;&gt;Node11</title>
<path fill="none" stroke="midnightblue" d="M398.439,-168.083C398.439,-161.006 398.439,-150.861 398.439,-141.986"/>
<polygon fill="midnightblue" stroke="midnightblue" points="401.94,-141.751 398.439,-131.751 394.94,-141.751 401.94,-141.751"/>
</g>
<!-- Node12 -->
<g id="node12" class="node"><title>Node12</title>
<polygon fill="none" stroke="#bfbfbf" points="441.939,-112.5 441.939,-131.5 506.939,-131.5 506.939,-112.5 441.939,-112.5"/>
<text text-anchor="middle" x="474.439" y="-119.5" font-family="Helvetica,sans-Serif" font-size="10.00">QStringList</text>
</g>
<!-- Node7&#45;&gt;Node12 -->
<g id="edge14" class="edge"><title>Node7&#45;&gt;Node12</title>
<path fill="none" stroke="midnightblue" d="M410.65,-168.324C422.215,-160.107 439.815,-147.602 453.6,-137.807"/>
<polygon fill="midnightblue" stroke="midnightblue" points="455.882,-140.479 462.007,-131.834 451.827,-134.773 455.882,-140.479"/>
</g>
<!-- Node13 -->
<g id="node13" class="node"><title>Node13</title>
<polygon fill="none" stroke="#bfbfbf" points="525.439,-112.5 525.439,-131.5 575.439,-131.5 575.439,-112.5 525.439,-112.5"/>
<text text-anchor="middle" x="550.439" y="-119.5" font-family="Helvetica,sans-Serif" font-size="10.00">fstream</text>
</g>
<!-- Node7&#45;&gt;Node13 -->
<g id="edge15" class="edge"><title>Node7&#45;&gt;Node13</title>
<path fill="none" stroke="midnightblue" d="M422.189,-168.562C447.584,-159.541 488.064,-145.16 516.745,-134.97"/>
<polygon fill="midnightblue" stroke="midnightblue" points="518.103,-138.202 526.355,-131.556 515.76,-131.606 518.103,-138.202"/>
</g>
<!-- Node14 -->
<g id="node14" class="node"><title>Node14</title>
<polygon fill="none" stroke="#bfbfbf" points="593.439,-112.5 593.439,-131.5 645.439,-131.5 645.439,-112.5 593.439,-112.5"/>
<text text-anchor="middle" x="619.439" y="-119.5" font-family="Helvetica,sans-Serif" font-size="10.00">sstream</text>
</g>
<!-- Node7&#45;&gt;Node14 -->
<g id="edge17" class="edge"><title>Node7&#45;&gt;Node14</title>
<path fill="none" stroke="midnightblue" d="M421.955,-171.425C455.548,-163.436 519.453,-148.147 583.255,-132.271"/>
<polygon fill="midnightblue" stroke="midnightblue" points="584.22,-135.638 593.076,-129.822 582.527,-128.846 584.22,-135.638"/>
</g>
<!-- Node7&#45;&gt;Node15 -->
<g id="edge18" class="edge"><title>Node7&#45;&gt;Node15</title>
<path fill="none" stroke="midnightblue" d="M422.101,-171.13C426.837,-170.03 431.786,-168.934 436.439,-168 529.617,-149.295 557.018,-153.827 653.955,-131.834"/>
<polygon fill="midnightblue" stroke="midnightblue" points="654.917,-135.204 663.875,-129.547 653.345,-128.383 654.917,-135.204"/>
</g>
<!-- Node8&#45;&gt;Node4 -->
<g id="edge10" class="edge"><title>Node8&#45;&gt;Node4</title>
<path fill="none" stroke="midnightblue" d="M171.928,-112.444C144.126,-103.119 99.5621,-88.1716 69.1934,-77.9858"/>
<polygon fill="midnightblue" stroke="midnightblue" points="70.0773,-74.5907 59.4834,-74.729 67.8513,-81.2274 70.0773,-74.5907"/>
</g>
<!-- Node8&#45;&gt;Node6 -->
<g id="edge11" class="edge"><title>Node8&#45;&gt;Node6</title>
<path fill="none" stroke="midnightblue" d="M181.694,-112.324C166.121,-103.743 142.062,-90.486 123.98,-80.5224"/>
<polygon fill="midnightblue" stroke="midnightblue" points="125.593,-77.4152 115.146,-75.6545 122.215,-83.546 125.593,-77.4152"/>
</g>
<!-- Node9 -->
<g id="node9" class="node"><title>Node9</title>
<g id="a_node9"><a xlink:href="emissionprobability_8h.html" target="_top" xlink:title="emissionprobability.h">
<polygon fill="none" stroke="black" points="139.439,-56.5 139.439,-75.5 247.439,-75.5 247.439,-56.5 139.439,-56.5"/>
<text text-anchor="middle" x="193.439" y="-63.5" font-family="Helvetica,sans-Serif" font-size="10.00">emissionprobability.h</text>
</a>
</g>
</g>
<!-- Node8&#45;&gt;Node9 -->
<g id="edge9" class="edge"><title>Node8&#45;&gt;Node9</title>
<path fill="none" stroke="midnightblue" d="M196.779,-112.083C196.255,-105.006 195.503,-94.8611 194.846,-85.9865"/>
<polygon fill="midnightblue" stroke="midnightblue" points="198.317,-85.4652 194.088,-75.7511 191.336,-85.9823 198.317,-85.4652"/>
</g>
</g>
</svg>
        <g id="navigator" transform="translate(0 0)" fill="#404254">
                <rect fill="#f2f5e9" fill-opacity="0.5" stroke="#606060" stroke-width=".5" x="0" y="0" width="60" height="60"/>
                <use id="zoomplus" xlink:href="#zoomPlus" x="17" y="9" onmousedown="handleZoom(evt,'in')"/>
                <use id="zoomminus" xlink:href="#zoomMin" x="42" y="9" onmousedown="handleZoom(evt,'out')"/>
                <use id="reset" xlink:href="#resetDef" x="30" y="36" onmousedown="handleReset()"/>
                <g id="arrowUp" xlink:href="#dirArrow" transform="translate(30 24)" onmousedown="handlePan(0,-1)">
                  <use xlink:href="#rim" fill="#404040">
                        <set attributeName="fill" to="#808080" begin="arrowUp.mouseover" end="arrowUp.mouseout"/>
                  </use>
                  <path fill="none" stroke="white" stroke-width="1.5" d="M0,-3.0v7 M-2.5,-0.5L0,-3.0L2.5,-0.5"/>
                </g>
                <g id="arrowRight" xlink:href="#dirArrow" transform="rotate(90) translate(36 -43)" onmousedown="handlePan(1,0)">
                  <use xlink:href="#rim" fill="#404040">
                        <set attributeName="fill" to="#808080" begin="arrowRight.mouseover" end="arrowRight.mouseout"/>
                  </use>
                  <path fill="none" stroke="white" stroke-width="1.5" d="M0,-3.0v7 M-2.5,-0.5L0,-3.0L2.5,-0.5"/>
                </g>
                <g id="arrowDown" xlink:href="#dirArrow" transform="rotate(180) translate(-30 -48)" onmousedown="handlePan(0,1)">
                  <use xlink:href="#rim" fill="#404040">
                        <set attributeName="fill" to="#808080" begin="arrowDown.mouseover" end="arrowDown.mouseout"/>
                  </use>
                  <path fill="none" stroke="white" stroke-width="1.5" d="M0,-3.0v7 M-2.5,-0.5L0,-3.0L2.5,-0.5"/>
                </g>
                <g id="arrowLeft" xlink:href="#dirArrow" transform="rotate(270) translate(-36 17)" onmousedown="handlePan(-1,0)">
                  <use xlink:href="#rim" fill="#404040">
                        <set attributeName="fill" to="#808080" begin="arrowLeft.mouseover" end="arrowLeft.mouseout"/>
                  </use>
                  <path fill="none" stroke="white" stroke-width="1.5" d="M0,-3.0v7 M-2.5,-0.5L0,-3.0L2.5,-0.5"/>
                </g>
        </g>
        <svg viewBox="0 0 15 15" width="100%" height="30px" preserveAspectRatio="xMaxYMin meet">
         <g id="arrow_out" transform="scale(0.3 0.3)">
          <a xlink:href="road_8cpp__incl_org.svg" target="_base">
           <rect id="button" ry="5" rx="5" y="6" x="6" height="38" width="38"
                fill="#f2f5e9" fill-opacity="0.5" stroke="#606060" stroke-width="1.0"/>
           <path id="arrow"
             d="M 11.500037,31.436501 C 11.940474,20.09759 22.043105,11.32322 32.158766,21.979434 L 37.068811,17.246167 C 37.068811,17.246167 37.088388,32 37.088388,32 L 22.160133,31.978069 C 22.160133,31.978069 26.997745,27.140456 26.997745,27.140456 C 18.528582,18.264221 13.291696,25.230495 11.500037,31.436501 z"
             style="fill:#404040;"/>
          </a>
         </g>
        </svg>
</svg>
