<?xml version="1.0" encoding="UTF-8" standalone="no"?>
<!DOCTYPE svg PUBLIC "-//W3C//DTD SVG 1.1//EN"
 "http://www.w3.org/Graphics/SVG/1.1/DTD/svg11.dtd">
<!-- Generated by graphviz version 2.38.0 (20140413.2041)
 -->
<!-- Title: road.h Pages: 1 -->
<svg width="236pt" height="140pt"
 viewBox="0.00 0.00 235.50 140.00" xmlns="http://www.w3.org/2000/svg" xmlns:xlink="http://www.w3.org/1999/xlink">
<g id="graph0" class="graph" transform="scale(1 1) rotate(0) translate(4 136)">
<title>road.h</title>
<!-- Node1 -->
<g id="node1" class="node"><title>Node1</title>
<polygon fill="#bfbfbf" stroke="black" points="107.5,-112.5 107.5,-131.5 151.5,-131.5 151.5,-112.5 107.5,-112.5"/>
<text text-anchor="middle" x="129.5" y="-119.5" font-family="Helvetica,sans-Serif" font-size="10.00">road.h</text>
</g>
<!-- Node2 -->
<g id="node2" class="node"><title>Node2</title>
<g id="a_node2"><a xlink:href="grid_8h.html" target="_top" xlink:title="grid.h">
<polygon fill="none" stroke="black" points="45,-56.5 45,-75.5 86,-75.5 86,-56.5 45,-56.5"/>
<text text-anchor="middle" x="65.5" y="-63.5" font-family="Helvetica,sans-Serif" font-size="10.00">grid.h</text>
</a>
</g>
</g>
<!-- Node1&#45;&gt;Node2 -->
<g id="edge1" class="edge"><title>Node1&#45;&gt;Node2</title>
<path fill="none" stroke="midnightblue" d="M111.509,-105.82C100.042,-96.1452 85.5867,-83.9481 75.9698,-75.8339"/>
<polygon fill="midnightblue" stroke="midnightblue" points="109.317,-108.55 119.217,-112.324 113.831,-103.2 109.317,-108.55"/>
</g>
<!-- Node5 -->
<g id="node5" class="node"><title>Node5</title>
<g id="a_node5"><a xlink:href="solver_8h.html" target="_top" xlink:title="solver.h">
<polygon fill="none" stroke="black" points="104,-56.5 104,-75.5 155,-75.5 155,-56.5 104,-56.5"/>
<text text-anchor="middle" x="129.5" y="-63.5" font-family="Helvetica,sans-Serif" font-size="10.00">solver.h</text>
</a>
</g>
</g>
<!-- Node1&#45;&gt;Node5 -->
<g id="edge4" class="edge"><title>Node1&#45;&gt;Node5</title>
<path fill="none" stroke="midnightblue" d="M129.5,-101.805C129.5,-92.9102 129.5,-82.7798 129.5,-75.7511"/>
<polygon fill="midnightblue" stroke="midnightblue" points="126,-102.083 129.5,-112.083 133,-102.083 126,-102.083"/>
</g>
<!-- Node7 -->
<g id="node7" class="node"><title>Node7</title>
<g id="a_node7"><a xlink:href="road_8cpp.html" target="_top" xlink:title="road.cpp">
<polygon fill="none" stroke="black" points="173.5,-56.5 173.5,-75.5 227.5,-75.5 227.5,-56.5 173.5,-56.5"/>
<text text-anchor="middle" x="200.5" y="-63.5" font-family="Helvetica,sans-Serif" font-size="10.00">road.cpp</text>
</a>
</g>
</g>
<!-- Node1&#45;&gt;Node7 -->
<g id="edge7" class="edge"><title>Node1&#45;&gt;Node7</title>
<path fill="none" stroke="midnightblue" d="M149.09,-106.101C161.868,-96.3824 178.113,-84.0269 188.885,-75.8339"/>
<polygon fill="midnightblue" stroke="midnightblue" points="146.748,-103.484 140.907,-112.324 150.986,-109.056 146.748,-103.484"/>
</g>
<!-- Node3 -->
<g id="node3" class="node"><title>Node3</title>
<g id="a_node3"><a xlink:href="grid_8cpp.html" target="_top" xlink:title="grid.cpp">
<polygon fill="none" stroke="black" points="0,-0.5 0,-19.5 51,-19.5 51,-0.5 0,-0.5"/>
<text text-anchor="middle" x="25.5" y="-7.5" font-family="Helvetica,sans-Serif" font-size="10.00">grid.cpp</text>
</a>
</g>
</g>
<!-- Node2&#45;&gt;Node3 -->
<g id="edge2" class="edge"><title>Node2&#45;&gt;Node3</title>
<path fill="none" stroke="midnightblue" d="M52.8003,-47.8554C45.874,-38.5048 37.5937,-27.3265 31.9823,-19.7511"/>
<polygon fill="midnightblue" stroke="midnightblue" points="50.13,-50.1307 58.8948,-56.083 55.755,-45.9641 50.13,-50.1307"/>
</g>
<!-- Node4 -->
<g id="node4" class="node"><title>Node4</title>
<g id="a_node4"><a xlink:href="main_8cpp.html" target="_top" xlink:title="main.cpp">
<polygon fill="none" stroke="black" points="69.5,-0.5 69.5,-19.5 125.5,-19.5 125.5,-0.5 69.5,-0.5"/>
<text text-anchor="middle" x="97.5" y="-7.5" font-family="Helvetica,sans-Serif" font-size="10.00">main.cpp</text>
</a>
</g>
</g>
<!-- Node2&#45;&gt;Node4 -->
<g id="edge3" class="edge"><title>Node2&#45;&gt;Node4</title>
<path fill="none" stroke="midnightblue" d="M76.0039,-47.2747C81.4731,-38.0454 87.9176,-27.1703 92.3142,-19.7511"/>
<polygon fill="midnightblue" stroke="midnightblue" points="72.8712,-45.6957 70.7841,-56.083 78.8932,-49.2644 72.8712,-45.6957"/>
</g>
<!-- Node5&#45;&gt;Node4 -->
<g id="edge5" class="edge"><title>Node5&#45;&gt;Node4</title>
<path fill="none" stroke="midnightblue" d="M118.996,-47.2747C113.527,-38.0454 107.082,-27.1703 102.686,-19.7511"/>
<polygon fill="midnightblue" stroke="midnightblue" points="116.107,-49.2644 124.216,-56.083 122.129,-45.6957 116.107,-49.2644"/>
</g>
<!-- Node6 -->
<g id="node6" class="node"><title>Node6</title>
<g id="a_node6"><a xlink:href="solver_8cpp.html" target="_top" xlink:title="solver.cpp">
<polygon fill="none" stroke="black" points="143.5,-0.5 143.5,-19.5 205.5,-19.5 205.5,-0.5 143.5,-0.5"/>
<text text-anchor="middle" x="174.5" y="-7.5" font-family="Helvetica,sans-Serif" font-size="10.00">solver.cpp</text>
</a>
</g>
</g>
<!-- Node5&#45;&gt;Node6 -->
<g id="edge6" class="edge"><title>Node5&#45;&gt;Node6</title>
<path fill="none" stroke="midnightblue" d="M143.547,-48.144C151.387,-38.7357 160.829,-27.4046 167.207,-19.7511"/>
<polygon fill="midnightblue" stroke="midnightblue" points="140.644,-46.1601 136.931,-56.083 146.021,-50.6414 140.644,-46.1601"/>
</g>
</g>
</svg>
