<?xml version="1.0" encoding="UTF-8" standalone="no"?>
<!DOCTYPE svg PUBLIC "-//W3C//DTD SVG 1.1//EN"
 "http://www.w3.org/Graphics/SVG/1.1/DTD/svg11.dtd">
<!-- Generated by graphviz version 2.38.0 (20140413.2041)
 -->
<!-- Title: road.h Pages: 1 -->
<svg width="829pt" height="252pt"
 viewBox="0.00 0.00 828.50 252.00" xmlns="http://www.w3.org/2000/svg" xmlns:xlink="http://www.w3.org/1999/xlink">
<g id="graph0" class="graph" transform="scale(1 1) rotate(0) translate(4 248)">
<title>road.h</title>
<!-- Node1 -->
<g id="node1" class="node"><title>Node1</title>
<polygon fill="#bfbfbf" stroke="black" points="691.5,-224.5 691.5,-243.5 735.5,-243.5 735.5,-224.5 691.5,-224.5"/>
<text text-anchor="middle" x="713.5" y="-231.5" font-family="Helvetica,sans-Serif" font-size="10.00">road.h</text>
</g>
<!-- Node2 -->
<g id="node2" class="node"><title>Node2</title>
<g id="a_node2"><a xlink:href="pointroad_8h.html" target="_top" xlink:title="pointroad.h">
<polygon fill="none" stroke="black" points="0,-112.5 0,-131.5 65,-131.5 65,-112.5 0,-112.5"/>
<text text-anchor="middle" x="32.5" y="-119.5" font-family="Helvetica,sans-Serif" font-size="10.00">pointroad.h</text>
</a>
</g>
</g>
<!-- Node1&#45;&gt;Node2 -->
<g id="edge1" class="edge"><title>Node1&#45;&gt;Node2</title>
<path fill="none" stroke="midnightblue" d="M691.345,-229.985C610.387,-218.865 322.822,-178.476 74.9404,-132.001"/>
<polygon fill="midnightblue" stroke="midnightblue" points="75.5023,-128.546 65.0274,-130.136 74.2074,-135.425 75.5023,-128.546"/>
</g>
<!-- Node5 -->
<g id="node5" class="node"><title>Node5</title>
<polygon fill="none" stroke="#bfbfbf" points="295.5,-56.5 295.5,-75.5 339.5,-75.5 339.5,-56.5 295.5,-56.5"/>
<text text-anchor="middle" x="317.5" y="-63.5" font-family="Helvetica,sans-Serif" font-size="10.00">vector</text>
</g>
<!-- Node1&#45;&gt;Node5 -->
<g id="edge22" class="edge"><title>Node1&#45;&gt;Node5</title>
<path fill="none" stroke="midnightblue" d="M720.021,-224.426C735.705,-202.708 772.119,-144.921 742.5,-112 716.308,-82.8883 444.286,-71.1882 349.7,-67.9802"/>
<polygon fill="midnightblue" stroke="midnightblue" points="349.689,-64.4781 339.579,-67.6467 349.458,-71.4743 349.689,-64.4781"/>
</g>
<!-- Node6 -->
<g id="node6" class="node"><title>Node6</title>
<g id="a_node6"><a xlink:href="track_8h.html" target="_top" xlink:title="The class Track. ">
<polygon fill="none" stroke="black" points="427,-168.5 427,-187.5 474,-187.5 474,-168.5 427,-168.5"/>
<text text-anchor="middle" x="450.5" y="-175.5" font-family="Helvetica,sans-Serif" font-size="10.00">track.h</text>
</a>
</g>
</g>
<!-- Node1&#45;&gt;Node6 -->
<g id="edge6" class="edge"><title>Node1&#45;&gt;Node6</title>
<path fill="none" stroke="midnightblue" d="M691.077,-228.396C644.864,-218.907 538.794,-197.129 484.25,-185.93"/>
<polygon fill="midnightblue" stroke="midnightblue" points="484.876,-182.485 474.376,-183.902 483.468,-189.342 484.876,-182.485"/>
</g>
<!-- Node15 -->
<g id="node15" class="node"><title>Node15</title>
<polygon fill="none" stroke="#bfbfbf" points="693,-112.5 693,-131.5 734,-131.5 734,-112.5 693,-112.5"/>
<text text-anchor="middle" x="713.5" y="-119.5" font-family="Helvetica,sans-Serif" font-size="10.00">string</text>
</g>
<!-- Node1&#45;&gt;Node15 -->
<g id="edge21" class="edge"><title>Node1&#45;&gt;Node15</title>
<path fill="none" stroke="midnightblue" d="M713.5,-224.368C713.5,-206.617 713.5,-165.666 713.5,-141.597"/>
<polygon fill="midnightblue" stroke="midnightblue" points="717,-141.591 713.5,-131.591 710,-141.591 717,-141.591"/>
</g>
<!-- Node16 -->
<g id="node16" class="node"><title>Node16</title>
<polygon fill="none" stroke="#bfbfbf" points="790.5,-168.5 790.5,-187.5 820.5,-187.5 820.5,-168.5 790.5,-168.5"/>
<text text-anchor="middle" x="805.5" y="-175.5" font-family="Helvetica,sans-Serif" font-size="10.00">set</text>
</g>
<!-- Node1&#45;&gt;Node16 -->
<g id="edge20" class="edge"><title>Node1&#45;&gt;Node16</title>
<path fill="none" stroke="midnightblue" d="M728.281,-224.324C742.767,-215.822 765.073,-202.729 781.993,-192.797"/>
<polygon fill="midnightblue" stroke="midnightblue" points="783.903,-195.735 790.755,-187.655 780.359,-189.698 783.903,-195.735"/>
</g>
<!-- Node3 -->
<g id="node3" class="node"><title>Node3</title>
<g id="a_node3"><a xlink:href="point_8h.html" target="_top" xlink:title="Class Point. ">
<polygon fill="none" stroke="black" points="94.5,-56.5 94.5,-75.5 140.5,-75.5 140.5,-56.5 94.5,-56.5"/>
<text text-anchor="middle" x="117.5" y="-63.5" font-family="Helvetica,sans-Serif" font-size="10.00">point.h</text>
</a>
</g>
</g>
<!-- Node2&#45;&gt;Node3 -->
<g id="edge2" class="edge"><title>Node2&#45;&gt;Node3</title>
<path fill="none" stroke="midnightblue" d="M46.1567,-112.324C59.4163,-103.9 79.768,-90.9709 95.3462,-81.0741"/>
<polygon fill="midnightblue" stroke="midnightblue" points="97.3133,-83.9711 103.877,-75.6545 93.5596,-78.0626 97.3133,-83.9711"/>
</g>
<!-- Node4 -->
<g id="node4" class="node"><title>Node4</title>
<polygon fill="none" stroke="#bfbfbf" points="90.5,-0.5 90.5,-19.5 144.5,-19.5 144.5,-0.5 90.5,-0.5"/>
<text text-anchor="middle" x="117.5" y="-7.5" font-family="Helvetica,sans-Serif" font-size="10.00">iostream</text>
</g>
<!-- Node2&#45;&gt;Node4 -->
<g id="edge4" class="edge"><title>Node2&#45;&gt;Node4</title>
<path fill="none" stroke="midnightblue" d="M39.1698,-112.368C53.2593,-94.135 86.2619,-51.4257 104.615,-27.6752"/>
<polygon fill="midnightblue" stroke="midnightblue" points="107.516,-29.6444 110.861,-19.5914 101.977,-25.3642 107.516,-29.6444"/>
</g>
<!-- Node2&#45;&gt;Node5 -->
<g id="edge5" class="edge"><title>Node2&#45;&gt;Node5</title>
<path fill="none" stroke="midnightblue" d="M65.0313,-113.885C68.227,-113.229 71.4241,-112.59 74.5,-112 165.241,-94.5816 191.611,-97.1575 285.329,-76.0558"/>
<polygon fill="midnightblue" stroke="midnightblue" points="286.258,-79.4339 295.229,-73.7962 284.701,-72.6094 286.258,-79.4339"/>
</g>
<!-- Node3&#45;&gt;Node4 -->
<g id="edge3" class="edge"><title>Node3&#45;&gt;Node4</title>
<path fill="none" stroke="midnightblue" d="M117.5,-56.083C117.5,-49.0059 117.5,-38.8611 117.5,-29.9865"/>
<polygon fill="midnightblue" stroke="midnightblue" points="121,-29.751 117.5,-19.7511 114,-29.7511 121,-29.751"/>
</g>
<!-- Node6&#45;&gt;Node4 -->
<g id="edge16" class="edge"><title>Node6&#45;&gt;Node4</title>
<path fill="none" stroke="midnightblue" d="M474.25,-176.997C535.591,-176.194 691.344,-168.674 644.5,-112 581.893,-36.2547 264.553,-16.7593 154.862,-12.2447"/>
<polygon fill="midnightblue" stroke="midnightblue" points="154.742,-8.73733 144.612,-11.842 154.467,-15.7319 154.742,-8.73733"/>
</g>
<!-- Node6&#45;&gt;Node5 -->
<g id="edge19" class="edge"><title>Node6&#45;&gt;Node5</title>
<path fill="none" stroke="midnightblue" d="M426.964,-173.9C401.173,-169.268 360.306,-158.093 336.5,-132 324.995,-119.39 320.429,-100.176 318.631,-85.9052"/>
<polygon fill="midnightblue" stroke="midnightblue" points="322.098,-85.3808 317.703,-75.7403 315.127,-86.0171 322.098,-85.3808"/>
</g>
<!-- Node7 -->
<g id="node7" class="node"><title>Node7</title>
<polygon fill="none" stroke="#bfbfbf" points="346,-112.5 346,-131.5 399,-131.5 399,-112.5 346,-112.5"/>
<text text-anchor="middle" x="372.5" y="-119.5" font-family="Helvetica,sans-Serif" font-size="10.00">QObject</text>
</g>
<!-- Node6&#45;&gt;Node7 -->
<g id="edge7" class="edge"><title>Node6&#45;&gt;Node7</title>
<path fill="none" stroke="midnightblue" d="M437.968,-168.324C425.914,-159.979 407.473,-147.212 393.231,-137.352"/>
<polygon fill="midnightblue" stroke="midnightblue" points="395.215,-134.469 385.001,-131.655 391.231,-140.224 395.215,-134.469"/>
</g>
<!-- Node8 -->
<g id="node8" class="node"><title>Node8</title>
<g id="a_node8"><a xlink:href="point_g_p_s_8h.html" target="_top" xlink:title="pointGPS.h">
<polygon fill="none" stroke="black" points="222,-112.5 222,-131.5 289,-131.5 289,-112.5 222,-112.5"/>
<text text-anchor="middle" x="255.5" y="-119.5" font-family="Helvetica,sans-Serif" font-size="10.00">pointGPS.h</text>
</a>
</g>
</g>
<!-- Node6&#45;&gt;Node8 -->
<g id="edge8" class="edge"><title>Node6&#45;&gt;Node8</title>
<path fill="none" stroke="midnightblue" d="M426.978,-170.486C394.643,-161.532 335.973,-145.285 296.374,-134.319"/>
<polygon fill="midnightblue" stroke="midnightblue" points="297.068,-130.88 286.497,-131.584 295.2,-137.626 297.068,-130.88"/>
</g>
<!-- Node10 -->
<g id="node10" class="node"><title>Node10</title>
<polygon fill="none" stroke="#bfbfbf" points="417,-112.5 417,-131.5 484,-131.5 484,-112.5 417,-112.5"/>
<text text-anchor="middle" x="450.5" y="-119.5" font-family="Helvetica,sans-Serif" font-size="10.00">QDateTime</text>
</g>
<!-- Node6&#45;&gt;Node10 -->
<g id="edge12" class="edge"><title>Node6&#45;&gt;Node10</title>
<path fill="none" stroke="midnightblue" d="M450.5,-168.083C450.5,-161.006 450.5,-150.861 450.5,-141.986"/>
<polygon fill="midnightblue" stroke="midnightblue" points="454,-141.751 450.5,-131.751 447,-141.751 454,-141.751"/>
</g>
<!-- Node11 -->
<g id="node11" class="node"><title>Node11</title>
<polygon fill="none" stroke="#bfbfbf" points="502.5,-112.5 502.5,-131.5 552.5,-131.5 552.5,-112.5 502.5,-112.5"/>
<text text-anchor="middle" x="527.5" y="-119.5" font-family="Helvetica,sans-Serif" font-size="10.00">QString</text>
</g>
<!-- Node6&#45;&gt;Node11 -->
<g id="edge13" class="edge"><title>Node6&#45;&gt;Node11</title>
<path fill="none" stroke="midnightblue" d="M462.871,-168.324C474.658,-160.058 492.632,-147.453 506.636,-137.632"/>
<polygon fill="midnightblue" stroke="midnightblue" points="508.982,-140.262 515.159,-131.655 504.962,-134.531 508.982,-140.262"/>
</g>
<!-- Node12 -->
<g id="node12" class="node"><title>Node12</title>
<polygon fill="none" stroke="#bfbfbf" points="571,-112.5 571,-131.5 636,-131.5 636,-112.5 571,-112.5"/>
<text text-anchor="middle" x="603.5" y="-119.5" font-family="Helvetica,sans-Serif" font-size="10.00">QStringList</text>
</g>
<!-- Node6&#45;&gt;Node12 -->
<g id="edge14" class="edge"><title>Node6&#45;&gt;Node12</title>
<path fill="none" stroke="midnightblue" d="M474.071,-168.681C499.64,-159.656 540.683,-145.171 569.686,-134.934"/>
<polygon fill="midnightblue" stroke="midnightblue" points="571.132,-138.136 579.397,-131.507 568.802,-131.535 571.132,-138.136"/>
</g>
<!-- Node13 -->
<g id="node13" class="node"><title>Node13</title>
<polygon fill="none" stroke="#bfbfbf" points="83.5,-112.5 83.5,-131.5 133.5,-131.5 133.5,-112.5 83.5,-112.5"/>
<text text-anchor="middle" x="108.5" y="-119.5" font-family="Helvetica,sans-Serif" font-size="10.00">fstream</text>
</g>
<!-- Node6&#45;&gt;Node13 -->
<g id="edge15" class="edge"><title>Node6&#45;&gt;Node13</title>
<path fill="none" stroke="midnightblue" d="M426.77,-174.465C376.407,-168.888 254.984,-154.396 143.72,-132.05"/>
<polygon fill="midnightblue" stroke="midnightblue" points="144.173,-128.571 133.676,-130.005 142.776,-135.43 144.173,-128.571"/>
</g>
<!-- Node14 -->
<g id="node14" class="node"><title>Node14</title>
<polygon fill="none" stroke="#bfbfbf" points="151.5,-112.5 151.5,-131.5 203.5,-131.5 203.5,-112.5 151.5,-112.5"/>
<text text-anchor="middle" x="177.5" y="-119.5" font-family="Helvetica,sans-Serif" font-size="10.00">sstream</text>
</g>
<!-- Node6&#45;&gt;Node14 -->
<g id="edge17" class="edge"><title>Node6&#45;&gt;Node14</title>
<path fill="none" stroke="midnightblue" d="M426.749,-173.035C385.447,-166.027 297.52,-150.614 213.756,-132.17"/>
<polygon fill="midnightblue" stroke="midnightblue" points="214.35,-128.717 203.829,-129.965 212.832,-135.55 214.35,-128.717"/>
</g>
<!-- Node6&#45;&gt;Node15 -->
<g id="edge18" class="edge"><title>Node6&#45;&gt;Node15</title>
<path fill="none" stroke="midnightblue" d="M474.226,-172.777C515.772,-165.279 604.334,-148.84 678.5,-132 679.953,-131.67 681.438,-131.324 682.936,-130.967"/>
<polygon fill="midnightblue" stroke="midnightblue" points="683.951,-134.322 692.819,-128.525 682.272,-127.526 683.951,-134.322"/>
</g>
<!-- Node8&#45;&gt;Node3 -->
<g id="edge10" class="edge"><title>Node8&#45;&gt;Node3</title>
<path fill="none" stroke="midnightblue" d="M233.633,-112.444C210.721,-103.478 174.525,-89.314 148.634,-79.1827"/>
<polygon fill="midnightblue" stroke="midnightblue" points="149.852,-75.9011 139.264,-75.5164 147.301,-82.4198 149.852,-75.9011"/>
</g>
<!-- Node8&#45;&gt;Node5 -->
<g id="edge11" class="edge"><title>Node8&#45;&gt;Node5</title>
<path fill="none" stroke="midnightblue" d="M265.461,-112.324C274.627,-104.341 288.437,-92.3128 299.528,-82.6529"/>
<polygon fill="midnightblue" stroke="midnightblue" points="302.115,-85.041 307.357,-75.8339 297.518,-79.7624 302.115,-85.041"/>
</g>
<!-- Node9 -->
<g id="node9" class="node"><title>Node9</title>
<g id="a_node9"><a xlink:href="emissionprobability_8h.html" target="_top" xlink:title="emissionprobability.h">
<polygon fill="none" stroke="black" points="169.5,-56.5 169.5,-75.5 277.5,-75.5 277.5,-56.5 169.5,-56.5"/>
<text text-anchor="middle" x="223.5" y="-63.5" font-family="Helvetica,sans-Serif" font-size="10.00">emissionprobability.h</text>
</a>
</g>
</g>
<!-- Node8&#45;&gt;Node9 -->
<g id="edge9" class="edge"><title>Node8&#45;&gt;Node9</title>
<path fill="none" stroke="midnightblue" d="M250.216,-112.083C245.789,-104.613 239.337,-93.7244 233.882,-84.5199"/>
<polygon fill="midnightblue" stroke="midnightblue" points="236.795,-82.5697 228.686,-75.7511 230.773,-86.1383 236.795,-82.5697"/>
</g>
</g>
</svg>
