<?xml version="1.0" encoding="UTF-8" standalone="no"?>
<!DOCTYPE svg PUBLIC "-//W3C//DTD SVG 1.1//EN"
 "http://www.w3.org/Graphics/SVG/1.1/DTD/svg11.dtd">
<!-- Generated by graphviz version 2.38.0 (20140413.2041)
 -->
<!-- Title: road.cpp Pages: 1 -->
<!--zoomable 308 -->
<svg id="main" version="1.1" xmlns="http://www.w3.org/2000/svg" xmlns:xlink="http://www.w3.org/1999/xlink" xml:space="preserve" onload="init(evt)">
<style type="text/css"><![CDATA[
.edge:hover path { stroke: red; }
.edge:hover polygon { stroke: red; fill: red; }
]]></style>
<script type="text/javascript"><![CDATA[
var edges = document.getElementsByTagName('g');
if (edges && edges.length) {
  for (var i=0;i<edges.length;i++) {
    if (edges[i].id.substr(0,4)=='edge') {
      edges[i].setAttribute('class','edge');
    }
  }
}
]]></script>
        <defs>
                <circle id="rim" cx="0" cy="0" r="7"/>
                <circle id="rim2" cx="0" cy="0" r="3.5"/>
                <g id="zoomPlus">
                        <use xlink:href="#rim" fill="#404040">
                                <set attributeName="fill" to="#808080" begin="zoomplus.mouseover" end="zoomplus.mouseout"/>
                        </use>
                        <path d="M-4,0h8M0,-4v8" fill="none" stroke="white" stroke-width="1.5" pointer-events="none"/>
                </g>
                <g id="zoomMin">
                        <use xlink:href="#rim" fill="#404040">
                                <set attributeName="fill" to="#808080" begin="zoomminus.mouseover" end="zoomminus.mouseout"/>
                        </use>
                        <path d="M-4,0h8" fill="none" stroke="white" stroke-width="1.5" pointer-events="none"/>
                </g>
                <g id="dirArrow">
                        <path fill="none" stroke="white" stroke-width="1.5" d="M0,-3.0v7 M-2.5,-0.5L0,-3.0L2.5,-0.5"/>
                </g>
               <g id="resetDef">
                       <use xlink:href="#rim2" fill="#404040">
                               <set attributeName="fill" to="#808080" begin="reset.mouseover" end="reset.mouseout"/>
                       </use>
               </g>
        </defs>

<script type="text/javascript">
var viewWidth = 801;
var viewHeight = 308;
var sectionId = 'dynsection-0';
</script>
<script xlink:href="svgpan.js"/>
<svg id="graph" class="graph">
<g id="viewport">
<title>road.cpp</title>
<!-- Node1 -->
<g id="node1" class="node"><title>Node1</title>
<polygon fill="#bfbfbf" stroke="black" points="438.27,-280.5 438.27,-299.5 492.27,-299.5 492.27,-280.5 438.27,-280.5"/>
<text text-anchor="middle" x="465.27" y="-287.5" font-family="Helvetica,sans-Serif" font-size="10.00">road.cpp</text>
</g>
<!-- Node2 -->
<g id="node2" class="node"><title>Node2</title>
<g id="a_node2"><a xlink:href="road_8h.html" target="_top" xlink:title="road.h">
<polygon fill="none" stroke="black" points="116.27,-224.5 116.27,-243.5 160.27,-243.5 160.27,-224.5 116.27,-224.5"/>
<text text-anchor="middle" x="138.27" y="-231.5" font-family="Helvetica,sans-Serif" font-size="10.00">road.h</text>
</a>
</g>
</g>
<!-- Node1&#45;&gt;Node2 -->
<g id="edge1" class="edge"><title>Node1&#45;&gt;Node2</title>
<path fill="none" stroke="midnightblue" d="M438.232,-284.535C378.368,-274.649 234.854,-250.95 170.477,-240.319"/>
<polygon fill="midnightblue" stroke="midnightblue" points="170.926,-236.845 160.489,-238.669 169.785,-243.752 170.926,-236.845"/>
</g>
<!-- Node5 -->
<g id="node5" class="node"><title>Node5</title>
<polygon fill="none" stroke="#bfbfbf" points="679.27,-0.5 679.27,-19.5 733.27,-19.5 733.27,-0.5 679.27,-0.5"/>
<text text-anchor="middle" x="706.27" y="-7.5" font-family="Helvetica,sans-Serif" font-size="10.00">iostream</text>
</g>
<!-- Node1&#45;&gt;Node5 -->
<g id="edge24" class="edge"><title>Node1&#45;&gt;Node5</title>
<path fill="none" stroke="midnightblue" d="M492.39,-285.837C570.975,-275.924 793.27,-242.29 793.27,-179 793.27,-179 793.27,-179 793.27,-121 793.27,-79.3996 754.517,-44.3306 728.74,-25.6049"/>
<polygon fill="midnightblue" stroke="midnightblue" points="730.451,-22.5314 720.248,-19.679 726.445,-28.2719 730.451,-22.5314"/>
</g>
<!-- Node3 -->
<g id="node3" class="node"><title>Node3</title>
<g id="a_node3"><a xlink:href="pointroad_8h.html" target="_top" xlink:title="pointroad.h">
<polygon fill="none" stroke="black" points="699.77,-112.5 699.77,-131.5 764.77,-131.5 764.77,-112.5 699.77,-112.5"/>
<text text-anchor="middle" x="732.27" y="-119.5" font-family="Helvetica,sans-Serif" font-size="10.00">pointroad.h</text>
</a>
</g>
</g>
<!-- Node2&#45;&gt;Node3 -->
<g id="edge2" class="edge"><title>Node2&#45;&gt;Node3</title>
<path fill="none" stroke="midnightblue" d="M160.401,-229.197C233.947,-216.509 477.059,-174.151 689.632,-132.077"/>
<polygon fill="midnightblue" stroke="midnightblue" points="690.602,-135.453 699.73,-130.074 689.24,-128.587 690.602,-135.453"/>
</g>
<!-- Node6 -->
<g id="node6" class="node"><title>Node6</title>
<polygon fill="none" stroke="#bfbfbf" points="185.27,-56.5 185.27,-75.5 229.27,-75.5 229.27,-56.5 185.27,-56.5"/>
<text text-anchor="middle" x="207.27" y="-63.5" font-family="Helvetica,sans-Serif" font-size="10.00">vector</text>
</g>
<!-- Node2&#45;&gt;Node6 -->
<g id="edge23" class="edge"><title>Node2&#45;&gt;Node6</title>
<path fill="none" stroke="midnightblue" d="M126.047,-224.399C98.5578,-204.758 33.3886,-156.424 22.2695,-132 18.5866,-123.91 16.7769,-118.989 22.2695,-112 40.9262,-88.2613 127.164,-75.4872 175.03,-70.1175"/>
<polygon fill="midnightblue" stroke="midnightblue" points="175.618,-73.5745 185.186,-69.0247 174.869,-66.6147 175.618,-73.5745"/>
</g>
<!-- Node7 -->
<g id="node7" class="node"><title>Node7</title>
<g id="a_node7"><a xlink:href="track_8h.html" target="_top" xlink:title="The class Track. ">
<polygon fill="none" stroke="black" points="248.77,-168.5 248.77,-187.5 295.77,-187.5 295.77,-168.5 248.77,-168.5"/>
<text text-anchor="middle" x="272.27" y="-175.5" font-family="Helvetica,sans-Serif" font-size="10.00">track.h</text>
</a>
</g>
</g>
<!-- Node2&#45;&gt;Node7 -->
<g id="edge7" class="edge"><title>Node2&#45;&gt;Node7</title>
<path fill="none" stroke="midnightblue" d="M159.502,-224.444C181.653,-215.517 216.588,-201.439 241.706,-191.317"/>
<polygon fill="midnightblue" stroke="midnightblue" points="243.169,-194.501 251.136,-187.516 240.553,-188.008 243.169,-194.501"/>
</g>
<!-- Node16 -->
<g id="node16" class="node"><title>Node16</title>
<polygon fill="none" stroke="#bfbfbf" points="31.7695,-112.5 31.7695,-131.5 72.7695,-131.5 72.7695,-112.5 31.7695,-112.5"/>
<text text-anchor="middle" x="52.2695" y="-119.5" font-family="Helvetica,sans-Serif" font-size="10.00">string</text>
</g>
<!-- Node2&#45;&gt;Node16 -->
<g id="edge22" class="edge"><title>Node2&#45;&gt;Node16</title>
<path fill="none" stroke="midnightblue" d="M116.154,-232.915C85.2102,-231.455 29.9147,-223.665 4.26955,-188 -8.32848,-170.48 11.5449,-150.546 29.415,-137.424"/>
<polygon fill="midnightblue" stroke="midnightblue" points="31.6433,-140.139 37.8755,-131.571 27.6605,-134.382 31.6433,-140.139"/>
</g>
<!-- Node17 -->
<g id="node17" class="node"><title>Node17</title>
<polygon fill="none" stroke="#bfbfbf" points="13.2695,-168.5 13.2695,-187.5 43.2695,-187.5 43.2695,-168.5 13.2695,-168.5"/>
<text text-anchor="middle" x="28.2695" y="-175.5" font-family="Helvetica,sans-Serif" font-size="10.00">set</text>
</g>
<!-- Node2&#45;&gt;Node17 -->
<g id="edge21" class="edge"><title>Node2&#45;&gt;Node17</title>
<path fill="none" stroke="midnightblue" d="M120.596,-224.324C102.141,-215.264 73.0707,-200.993 52.486,-190.888"/>
<polygon fill="midnightblue" stroke="midnightblue" points="53.9393,-187.703 43.4203,-186.438 50.8546,-193.986 53.9393,-187.703"/>
</g>
<!-- Node4 -->
<g id="node4" class="node"><title>Node4</title>
<g id="a_node4"><a xlink:href="point_8h.html" target="_top" xlink:title="Class Point. ">
<polygon fill="none" stroke="black" points="658.27,-56.5 658.27,-75.5 704.27,-75.5 704.27,-56.5 658.27,-56.5"/>
<text text-anchor="middle" x="681.27" y="-63.5" font-family="Helvetica,sans-Serif" font-size="10.00">point.h</text>
</a>
</g>
</g>
<!-- Node3&#45;&gt;Node4 -->
<g id="edge3" class="edge"><title>Node3&#45;&gt;Node4</title>
<path fill="none" stroke="midnightblue" d="M723.848,-112.083C716.421,-104.22 705.418,-92.5688 696.457,-83.0813"/>
<polygon fill="midnightblue" stroke="midnightblue" points="698.945,-80.618 689.534,-75.7511 693.856,-85.4244 698.945,-80.618"/>
</g>
<!-- Node3&#45;&gt;Node5 -->
<g id="edge5" class="edge"><title>Node3&#45;&gt;Node5</title>
<path fill="none" stroke="midnightblue" d="M730.229,-112.368C726.034,-94.617 716.354,-53.6664 710.665,-29.5974"/>
<polygon fill="midnightblue" stroke="midnightblue" points="714.007,-28.5182 708.3,-19.5914 707.194,-30.1284 714.007,-28.5182"/>
</g>
<!-- Node3&#45;&gt;Node6 -->
<g id="edge6" class="edge"><title>Node3&#45;&gt;Node6</title>
<path fill="none" stroke="midnightblue" d="M699.324,-113.548C696.271,-112.976 693.219,-112.448 690.27,-112 515.551,-85.4373 470.167,-93.0928 294.27,-76 276.169,-74.241 255.963,-72.1581 239.583,-70.4392"/>
<polygon fill="midnightblue" stroke="midnightblue" points="239.744,-66.9369 229.432,-69.3694 239.01,-73.8983 239.744,-66.9369"/>
</g>
<!-- Node4&#45;&gt;Node5 -->
<g id="edge4" class="edge"><title>Node4&#45;&gt;Node5</title>
<path fill="none" stroke="midnightblue" d="M685.398,-56.083C688.783,-48.77 693.686,-38.1814 697.888,-29.1034"/>
<polygon fill="midnightblue" stroke="midnightblue" points="701.193,-30.2962 702.218,-19.7511 694.841,-27.3553 701.193,-30.2962"/>
</g>
<!-- Node7&#45;&gt;Node5 -->
<g id="edge17" class="edge"><title>Node7&#45;&gt;Node5</title>
<path fill="none" stroke="midnightblue" d="M248.593,-175.845C220.056,-173.032 173.206,-163.563 151.27,-132 134.758,-108.243 162.596,-65.7163 176.27,-56 216.24,-27.5965 554.722,-15.348 668.862,-11.9997"/>
<polygon fill="midnightblue" stroke="midnightblue" points="669.294,-15.4888 679.19,-11.7032 669.093,-8.49166 669.294,-15.4888"/>
</g>
<!-- Node7&#45;&gt;Node6 -->
<g id="edge20" class="edge"><title>Node7&#45;&gt;Node6</title>
<path fill="none" stroke="midnightblue" d="M248.728,-175.242C221.7,-171.819 178.497,-161.731 158.27,-132 146.109,-114.127 165.977,-94.4053 183.938,-81.4258"/>
<polygon fill="midnightblue" stroke="midnightblue" points="186.154,-84.1516 192.454,-75.6333 182.217,-78.3637 186.154,-84.1516"/>
</g>
<!-- Node8 -->
<g id="node8" class="node"><title>Node8</title>
<polygon fill="none" stroke="#bfbfbf" points="167.77,-112.5 167.77,-131.5 220.77,-131.5 220.77,-112.5 167.77,-112.5"/>
<text text-anchor="middle" x="194.27" y="-119.5" font-family="Helvetica,sans-Serif" font-size="10.00">QObject</text>
</g>
<!-- Node7&#45;&gt;Node8 -->
<g id="edge8" class="edge"><title>Node7&#45;&gt;Node8</title>
<path fill="none" stroke="midnightblue" d="M259.737,-168.324C247.684,-159.979 229.243,-147.212 215.001,-137.352"/>
<polygon fill="midnightblue" stroke="midnightblue" points="216.985,-134.469 206.77,-131.655 213,-140.224 216.985,-134.469"/>
</g>
<!-- Node9 -->
<g id="node9" class="node"><title>Node9</title>
<g id="a_node9"><a xlink:href="point_g_p_s_8h.html" target="_top" xlink:title="pointGPS.h">
<polygon fill="none" stroke="black" points="323.77,-112.5 323.77,-131.5 390.77,-131.5 390.77,-112.5 323.77,-112.5"/>
<text text-anchor="middle" x="357.27" y="-119.5" font-family="Helvetica,sans-Serif" font-size="10.00">pointGPS.h</text>
</a>
</g>
</g>
<!-- Node7&#45;&gt;Node9 -->
<g id="edge9" class="edge"><title>Node7&#45;&gt;Node9</title>
<path fill="none" stroke="midnightblue" d="M285.926,-168.324C299.186,-159.9 319.538,-146.971 335.116,-137.074"/>
<polygon fill="midnightblue" stroke="midnightblue" points="337.083,-139.971 343.647,-131.655 333.329,-134.063 337.083,-139.971"/>
</g>
<!-- Node11 -->
<g id="node11" class="node"><title>Node11</title>
<polygon fill="none" stroke="#bfbfbf" points="238.77,-112.5 238.77,-131.5 305.77,-131.5 305.77,-112.5 238.77,-112.5"/>
<text text-anchor="middle" x="272.27" y="-119.5" font-family="Helvetica,sans-Serif" font-size="10.00">QDateTime</text>
</g>
<!-- Node7&#45;&gt;Node11 -->
<g id="edge13" class="edge"><title>Node7&#45;&gt;Node11</title>
<path fill="none" stroke="midnightblue" d="M272.27,-168.083C272.27,-161.006 272.27,-150.861 272.27,-141.986"/>
<polygon fill="midnightblue" stroke="midnightblue" points="275.77,-141.751 272.27,-131.751 268.77,-141.751 275.77,-141.751"/>
</g>
<!-- Node12 -->
<g id="node12" class="node"><title>Node12</title>
<polygon fill="none" stroke="#bfbfbf" points="409.27,-112.5 409.27,-131.5 459.27,-131.5 459.27,-112.5 409.27,-112.5"/>
<text text-anchor="middle" x="434.27" y="-119.5" font-family="Helvetica,sans-Serif" font-size="10.00">QString</text>
</g>
<!-- Node7&#45;&gt;Node12 -->
<g id="edge14" class="edge"><title>Node7&#45;&gt;Node12</title>
<path fill="none" stroke="midnightblue" d="M295.826,-169.148C323.065,-160.068 368.162,-145.036 399.451,-134.606"/>
<polygon fill="midnightblue" stroke="midnightblue" points="400.705,-137.878 409.085,-131.395 398.491,-131.237 400.705,-137.878"/>
</g>
<!-- Node13 -->
<g id="node13" class="node"><title>Node13</title>
<polygon fill="none" stroke="#bfbfbf" points="477.77,-112.5 477.77,-131.5 542.77,-131.5 542.77,-112.5 477.77,-112.5"/>
<text text-anchor="middle" x="510.27" y="-119.5" font-family="Helvetica,sans-Serif" font-size="10.00">QStringList</text>
</g>
<!-- Node7&#45;&gt;Node13 -->
<g id="edge15" class="edge"><title>Node7&#45;&gt;Node13</title>
<path fill="none" stroke="midnightblue" d="M295.96,-171.625C335.999,-162.54 417.583,-144.03 467.735,-132.651"/>
<polygon fill="midnightblue" stroke="midnightblue" points="468.651,-136.032 477.629,-130.406 467.102,-129.205 468.651,-136.032"/>
</g>
<!-- Node14 -->
<g id="node14" class="node"><title>Node14</title>
<polygon fill="none" stroke="#bfbfbf" points="561.27,-112.5 561.27,-131.5 611.27,-131.5 611.27,-112.5 561.27,-112.5"/>
<text text-anchor="middle" x="586.27" y="-119.5" font-family="Helvetica,sans-Serif" font-size="10.00">fstream</text>
</g>
<!-- Node7&#45;&gt;Node14 -->
<g id="edge16" class="edge"><title>Node7&#45;&gt;Node14</title>
<path fill="none" stroke="midnightblue" d="M296.016,-173.995C342.909,-167.889 450.854,-152.98 551.099,-132.073"/>
<polygon fill="midnightblue" stroke="midnightblue" points="552.024,-135.455 561.085,-129.965 550.578,-128.606 552.024,-135.455"/>
</g>
<!-- Node15 -->
<g id="node15" class="node"><title>Node15</title>
<polygon fill="none" stroke="#bfbfbf" points="629.27,-112.5 629.27,-131.5 681.27,-131.5 681.27,-112.5 629.27,-112.5"/>
<text text-anchor="middle" x="655.27" y="-119.5" font-family="Helvetica,sans-Serif" font-size="10.00">sstream</text>
</g>
<!-- Node7&#45;&gt;Node15 -->
<g id="edge18" class="edge"><title>Node7&#45;&gt;Node15</title>
<path fill="none" stroke="midnightblue" d="M296.059,-174.942C351.183,-169.96 492.033,-155.992 619.076,-132.025"/>
<polygon fill="midnightblue" stroke="midnightblue" points="619.81,-135.448 628.975,-130.132 618.495,-128.573 619.81,-135.448"/>
</g>
<!-- Node7&#45;&gt;Node16 -->
<g id="edge19" class="edge"><title>Node7&#45;&gt;Node16</title>
<path fill="none" stroke="midnightblue" d="M248.59,-171.345C213.379,-162.912 145.149,-146.48 87.2695,-132 85.824,-131.638 84.3454,-131.266 82.8524,-130.889"/>
<polygon fill="midnightblue" stroke="midnightblue" points="83.5409,-127.453 72.9863,-128.375 81.8123,-134.236 83.5409,-127.453"/>
</g>
<!-- Node9&#45;&gt;Node4 -->
<g id="edge11" class="edge"><title>Node9&#45;&gt;Node4</title>
<path fill="none" stroke="midnightblue" d="M391.041,-113.773C394.157,-113.154 397.269,-112.554 400.27,-112 489.586,-95.5108 595.53,-79.4982 648.163,-71.7807"/>
<polygon fill="midnightblue" stroke="midnightblue" points="648.869,-75.2147 658.259,-70.3064 647.858,-68.2882 648.869,-75.2147"/>
</g>
<!-- Node9&#45;&gt;Node6 -->
<g id="edge12" class="edge"><title>Node9&#45;&gt;Node6</title>
<path fill="none" stroke="midnightblue" d="M333.502,-112.444C307.933,-103.239 267.149,-88.5565 238.888,-78.3826"/>
<polygon fill="midnightblue" stroke="midnightblue" points="240.054,-75.0825 229.459,-74.9883 237.683,-81.6687 240.054,-75.0825"/>
</g>
<!-- Node10 -->
<g id="node10" class="node"><title>Node10</title>
<g id="a_node10"><a xlink:href="emissionprobability_8h.html" target="_top" xlink:title="emissionprobability.h">
<polygon fill="none" stroke="black" points="303.27,-56.5 303.27,-75.5 411.27,-75.5 411.27,-56.5 303.27,-56.5"/>
<text text-anchor="middle" x="357.27" y="-63.5" font-family="Helvetica,sans-Serif" font-size="10.00">emissionprobability.h</text>
</a>
</g>
</g>
<!-- Node9&#45;&gt;Node10 -->
<g id="edge10" class="edge"><title>Node9&#45;&gt;Node10</title>
<path fill="none" stroke="midnightblue" d="M357.27,-112.083C357.27,-105.006 357.27,-94.8611 357.27,-85.9865"/>
<polygon fill="midnightblue" stroke="midnightblue" points="360.77,-85.751 357.27,-75.7511 353.77,-85.7511 360.77,-85.751"/>
</g>
</g>
</svg>
        <g id="navigator" transform="translate(0 0)" fill="#404254">
                <rect fill="#f2f5e9" fill-opacity="0.5" stroke="#606060" stroke-width=".5" x="0" y="0" width="60" height="60"/>
                <use id="zoomplus" xlink:href="#zoomPlus" x="17" y="9" onmousedown="handleZoom(evt,'in')"/>
                <use id="zoomminus" xlink:href="#zoomMin" x="42" y="9" onmousedown="handleZoom(evt,'out')"/>
                <use id="reset" xlink:href="#resetDef" x="30" y="36" onmousedown="handleReset()"/>
                <g id="arrowUp" xlink:href="#dirArrow" transform="translate(30 24)" onmousedown="handlePan(0,-1)">
                  <use xlink:href="#rim" fill="#404040">
                        <set attributeName="fill" to="#808080" begin="arrowUp.mouseover" end="arrowUp.mouseout"/>
                  </use>
                  <path fill="none" stroke="white" stroke-width="1.5" d="M0,-3.0v7 M-2.5,-0.5L0,-3.0L2.5,-0.5"/>
                </g>
                <g id="arrowRight" xlink:href="#dirArrow" transform="rotate(90) translate(36 -43)" onmousedown="handlePan(1,0)">
                  <use xlink:href="#rim" fill="#404040">
                        <set attributeName="fill" to="#808080" begin="arrowRight.mouseover" end="arrowRight.mouseout"/>
                  </use>
                  <path fill="none" stroke="white" stroke-width="1.5" d="M0,-3.0v7 M-2.5,-0.5L0,-3.0L2.5,-0.5"/>
                </g>
                <g id="arrowDown" xlink:href="#dirArrow" transform="rotate(180) translate(-30 -48)" onmousedown="handlePan(0,1)">
                  <use xlink:href="#rim" fill="#404040">
                        <set attributeName="fill" to="#808080" begin="arrowDown.mouseover" end="arrowDown.mouseout"/>
                  </use>
                  <path fill="none" stroke="white" stroke-width="1.5" d="M0,-3.0v7 M-2.5,-0.5L0,-3.0L2.5,-0.5"/>
                </g>
                <g id="arrowLeft" xlink:href="#dirArrow" transform="rotate(270) translate(-36 17)" onmousedown="handlePan(-1,0)">
                  <use xlink:href="#rim" fill="#404040">
                        <set attributeName="fill" to="#808080" begin="arrowLeft.mouseover" end="arrowLeft.mouseout"/>
                  </use>
                  <path fill="none" stroke="white" stroke-width="1.5" d="M0,-3.0v7 M-2.5,-0.5L0,-3.0L2.5,-0.5"/>
                </g>
        </g>
        <svg viewBox="0 0 15 15" width="100%" height="30px" preserveAspectRatio="xMaxYMin meet">
         <g id="arrow_out" transform="scale(0.3 0.3)">
          <a xlink:href="road_8cpp__incl_org.svg" target="_base">
           <rect id="button" ry="5" rx="5" y="6" x="6" height="38" width="38"
                fill="#f2f5e9" fill-opacity="0.5" stroke="#606060" stroke-width="1.0"/>
           <path id="arrow"
             d="M 11.500037,31.436501 C 11.940474,20.09759 22.043105,11.32322 32.158766,21.979434 L 37.068811,17.246167 C 37.068811,17.246167 37.088388,32 37.088388,32 L 22.160133,31.978069 C 22.160133,31.978069 26.997745,27.140456 26.997745,27.140456 C 18.528582,18.264221 13.291696,25.230495 11.500037,31.436501 z"
             style="fill:#404040;"/>
          </a>
         </g>
        </svg>
</svg>
