<?xml version="1.0" encoding="UTF-8" standalone="no"?>
<!DOCTYPE svg PUBLIC "-//W3C//DTD SVG 1.1//EN"
 "http://www.w3.org/Graphics/SVG/1.1/DTD/svg11.dtd">
<!-- Generated by graphviz version 2.38.0 (20140413.2041)
 -->
<!-- Title: road.h Pages: 1 -->
<svg width="708pt" height="252pt"
 viewBox="0.00 0.00 708.00 252.00" xmlns="http://www.w3.org/2000/svg" xmlns:xlink="http://www.w3.org/1999/xlink">
<g id="graph0" class="graph" transform="scale(1 1) rotate(0) translate(4 248)">
<title>road.h</title>
<!-- Node1 -->
<g id="node1" class="node"><title>Node1</title>
<polygon fill="#bfbfbf" stroke="black" points="391.5,-224.5 391.5,-243.5 435.5,-243.5 435.5,-224.5 391.5,-224.5"/>
<text text-anchor="middle" x="413.5" y="-231.5" font-family="Helvetica,sans-Serif" font-size="10.00">road.h</text>
</g>
<!-- Node2 -->
<g id="node2" class="node"><title>Node2</title>
<g id="a_node2"><a xlink:href="pointroad_8h.html" target="_top" xlink:title="pointroad.h">
<polygon fill="none" stroke="black" points="0,-112.5 0,-131.5 65,-131.5 65,-112.5 0,-112.5"/>
<text text-anchor="middle" x="32.5" y="-119.5" font-family="Helvetica,sans-Serif" font-size="10.00">pointroad.h</text>
</a>
</g>
</g>
<!-- Node1&#45;&gt;Node2 -->
<g id="edge1" class="edge"><title>Node1&#45;&gt;Node2</title>
<path fill="none" stroke="midnightblue" d="M391.077,-232.256C325.019,-229.715 132.466,-219.702 79.5,-188 61.4421,-177.192 48.3254,-156.493 40.609,-141.347"/>
<polygon fill="midnightblue" stroke="midnightblue" points="43.5905,-139.466 36.1353,-131.938 37.2687,-142.472 43.5905,-139.466"/>
</g>
<!-- Node5 -->
<g id="node5" class="node"><title>Node5</title>
<polygon fill="none" stroke="#bfbfbf" points="124.5,-56.5 124.5,-75.5 168.5,-75.5 168.5,-56.5 124.5,-56.5"/>
<text text-anchor="middle" x="146.5" y="-63.5" font-family="Helvetica,sans-Serif" font-size="10.00">vector</text>
</g>
<!-- Node1&#45;&gt;Node5 -->
<g id="edge21" class="edge"><title>Node1&#45;&gt;Node5</title>
<path fill="none" stroke="midnightblue" d="M391.126,-233.496C333.303,-233.408 178.801,-224.181 112.5,-132 101.311,-116.443 115.021,-96.7184 128.226,-83.0996"/>
<polygon fill="midnightblue" stroke="midnightblue" points="130.968,-85.3184 135.75,-75.8643 126.116,-80.2727 130.968,-85.3184"/>
</g>
<!-- Node6 -->
<g id="node6" class="node"><title>Node6</title>
<g id="a_node6"><a xlink:href="track_8h.html" target="_top" xlink:title="The class Track. ">
<polygon fill="none" stroke="black" points="390,-168.5 390,-187.5 437,-187.5 437,-168.5 390,-168.5"/>
<text text-anchor="middle" x="413.5" y="-175.5" font-family="Helvetica,sans-Serif" font-size="10.00">track.h</text>
</a>
</g>
</g>
<!-- Node1&#45;&gt;Node6 -->
<g id="edge6" class="edge"><title>Node1&#45;&gt;Node6</title>
<path fill="none" stroke="midnightblue" d="M413.5,-224.083C413.5,-217.006 413.5,-206.861 413.5,-197.986"/>
<polygon fill="midnightblue" stroke="midnightblue" points="417,-197.751 413.5,-187.751 410,-197.751 417,-197.751"/>
</g>
<!-- Node14 -->
<g id="node14" class="node"><title>Node14</title>
<polygon fill="none" stroke="#bfbfbf" points="659,-112.5 659,-131.5 700,-131.5 700,-112.5 659,-112.5"/>
<text text-anchor="middle" x="679.5" y="-119.5" font-family="Helvetica,sans-Serif" font-size="10.00">string</text>
</g>
<!-- Node1&#45;&gt;Node14 -->
<g id="edge20" class="edge"><title>Node1&#45;&gt;Node14</title>
<path fill="none" stroke="midnightblue" d="M420.332,-224.286C431.926,-210.134 456.901,-182.3 484.5,-168 548.41,-134.885 574.657,-149.463 649.081,-131.849"/>
<polygon fill="midnightblue" stroke="midnightblue" points="650.042,-135.217 658.902,-129.406 648.352,-128.424 650.042,-135.217"/>
</g>
<!-- Node15 -->
<g id="node15" class="node"><title>Node15</title>
<polygon fill="none" stroke="#bfbfbf" points="493.5,-168.5 493.5,-187.5 523.5,-187.5 523.5,-168.5 493.5,-168.5"/>
<text text-anchor="middle" x="508.5" y="-175.5" font-family="Helvetica,sans-Serif" font-size="10.00">set</text>
</g>
<!-- Node1&#45;&gt;Node15 -->
<g id="edge19" class="edge"><title>Node1&#45;&gt;Node15</title>
<path fill="none" stroke="midnightblue" d="M428.763,-224.324C443.721,-215.822 466.755,-202.729 484.227,-192.797"/>
<polygon fill="midnightblue" stroke="midnightblue" points="486.31,-195.639 493.274,-187.655 482.851,-189.553 486.31,-195.639"/>
</g>
<!-- Node3 -->
<g id="node3" class="node"><title>Node3</title>
<g id="a_node3"><a xlink:href="point_8h.html" target="_top" xlink:title="Class Point. ">
<polygon fill="none" stroke="black" points="60.5,-56.5 60.5,-75.5 106.5,-75.5 106.5,-56.5 60.5,-56.5"/>
<text text-anchor="middle" x="83.5" y="-63.5" font-family="Helvetica,sans-Serif" font-size="10.00">point.h</text>
</a>
</g>
</g>
<!-- Node2&#45;&gt;Node3 -->
<g id="edge2" class="edge"><title>Node2&#45;&gt;Node3</title>
<path fill="none" stroke="midnightblue" d="M40.9216,-112.083C48.3482,-104.22 59.3517,-92.5688 68.3122,-83.0813"/>
<polygon fill="midnightblue" stroke="midnightblue" points="70.9134,-85.4244 75.2351,-75.7511 65.8243,-80.618 70.9134,-85.4244"/>
</g>
<!-- Node4 -->
<g id="node4" class="node"><title>Node4</title>
<polygon fill="none" stroke="#bfbfbf" points="56.5,-0.5 56.5,-19.5 110.5,-19.5 110.5,-0.5 56.5,-0.5"/>
<text text-anchor="middle" x="83.5" y="-7.5" font-family="Helvetica,sans-Serif" font-size="10.00">iostream</text>
</g>
<!-- Node2&#45;&gt;Node4 -->
<g id="edge4" class="edge"><title>Node2&#45;&gt;Node4</title>
<path fill="none" stroke="midnightblue" d="M34.0892,-112.251C36.6269,-99.4424 42.271,-75.0441 51.5,-56 56.3509,-45.9902 63.3783,-35.8098 69.6128,-27.6697"/>
<polygon fill="midnightblue" stroke="midnightblue" points="72.4342,-29.7452 75.926,-19.7423 66.9584,-25.3844 72.4342,-29.7452"/>
</g>
<!-- Node2&#45;&gt;Node5 -->
<g id="edge5" class="edge"><title>Node2&#45;&gt;Node5</title>
<path fill="none" stroke="midnightblue" d="M50.5636,-112.444C69.0748,-103.675 98.0807,-89.9355 119.355,-79.8579"/>
<polygon fill="midnightblue" stroke="midnightblue" points="120.982,-82.9604 128.521,-75.5164 117.985,-76.6343 120.982,-82.9604"/>
</g>
<!-- Node3&#45;&gt;Node4 -->
<g id="edge3" class="edge"><title>Node3&#45;&gt;Node4</title>
<path fill="none" stroke="midnightblue" d="M83.5,-56.083C83.5,-49.0059 83.5,-38.8611 83.5,-29.9865"/>
<polygon fill="midnightblue" stroke="midnightblue" points="87.0001,-29.751 83.5,-19.7511 80.0001,-29.7511 87.0001,-29.751"/>
</g>
<!-- Node6&#45;&gt;Node4 -->
<g id="edge15" class="edge"><title>Node6&#45;&gt;Node4</title>
<path fill="none" stroke="midnightblue" d="M421.847,-168.453C433.475,-155.479 451.809,-130.38 439.5,-112 403.589,-58.3776 204.783,-26.7142 120.877,-15.5694"/>
<polygon fill="midnightblue" stroke="midnightblue" points="121.132,-12.0731 110.763,-14.2519 120.228,-19.0144 121.132,-12.0731"/>
</g>
<!-- Node6&#45;&gt;Node5 -->
<g id="edge18" class="edge"><title>Node6&#45;&gt;Node5</title>
<path fill="none" stroke="midnightblue" d="M418.287,-168.225C425.057,-154.487 435.171,-127.836 421.5,-112 387.503,-72.6187 246.451,-86.0765 178.935,-75.7315"/>
<polygon fill="midnightblue" stroke="midnightblue" points="179.227,-72.2264 168.758,-73.855 177.958,-79.1103 179.227,-72.2264"/>
</g>
<!-- Node7 -->
<g id="node7" class="node"><title>Node7</title>
<g id="a_node7"><a xlink:href="point_g_p_s_8h.html" target="_top" xlink:title="pointGPS.h">
<polygon fill="none" stroke="black" points="192,-112.5 192,-131.5 259,-131.5 259,-112.5 192,-112.5"/>
<text text-anchor="middle" x="225.5" y="-119.5" font-family="Helvetica,sans-Serif" font-size="10.00">pointGPS.h</text>
</a>
</g>
</g>
<!-- Node6&#45;&gt;Node7 -->
<g id="edge7" class="edge"><title>Node6&#45;&gt;Node7</title>
<path fill="none" stroke="midnightblue" d="M389.69,-170.161C358.307,-161.147 302.676,-145.168 264.958,-134.334"/>
<polygon fill="midnightblue" stroke="midnightblue" points="265.883,-130.958 255.305,-131.561 263.95,-137.686 265.883,-130.958"/>
</g>
<!-- Node9 -->
<g id="node9" class="node"><title>Node9</title>
<polygon fill="none" stroke="#bfbfbf" points="277,-112.5 277,-131.5 344,-131.5 344,-112.5 277,-112.5"/>
<text text-anchor="middle" x="310.5" y="-119.5" font-family="Helvetica,sans-Serif" font-size="10.00">QDateTime</text>
</g>
<!-- Node6&#45;&gt;Node9 -->
<g id="edge11" class="edge"><title>Node6&#45;&gt;Node9</title>
<path fill="none" stroke="midnightblue" d="M396.951,-168.324C380.508,-159.703 355.065,-146.364 336.032,-136.386"/>
<polygon fill="midnightblue" stroke="midnightblue" points="337.489,-133.198 327.008,-131.655 334.239,-139.398 337.489,-133.198"/>
</g>
<!-- Node10 -->
<g id="node10" class="node"><title>Node10</title>
<polygon fill="none" stroke="#bfbfbf" points="362.5,-112.5 362.5,-131.5 412.5,-131.5 412.5,-112.5 362.5,-112.5"/>
<text text-anchor="middle" x="387.5" y="-119.5" font-family="Helvetica,sans-Serif" font-size="10.00">QString</text>
</g>
<!-- Node6&#45;&gt;Node10 -->
<g id="edge12" class="edge"><title>Node6&#45;&gt;Node10</title>
<path fill="none" stroke="midnightblue" d="M409.207,-168.083C405.648,-160.691 400.478,-149.953 396.076,-140.811"/>
<polygon fill="midnightblue" stroke="midnightblue" points="399.205,-139.243 391.713,-131.751 392.898,-142.279 399.205,-139.243"/>
</g>
<!-- Node11 -->
<g id="node11" class="node"><title>Node11</title>
<polygon fill="none" stroke="#bfbfbf" points="507,-112.5 507,-131.5 572,-131.5 572,-112.5 507,-112.5"/>
<text text-anchor="middle" x="539.5" y="-119.5" font-family="Helvetica,sans-Serif" font-size="10.00">QStringList</text>
</g>
<!-- Node6&#45;&gt;Node11 -->
<g id="edge13" class="edge"><title>Node6&#45;&gt;Node11</title>
<path fill="none" stroke="midnightblue" d="M433.465,-168.444C454.109,-159.596 486.563,-145.687 510.132,-135.586"/>
<polygon fill="midnightblue" stroke="midnightblue" points="511.816,-138.673 519.628,-131.516 509.058,-132.239 511.816,-138.673"/>
</g>
<!-- Node12 -->
<g id="node12" class="node"><title>Node12</title>
<polygon fill="none" stroke="#bfbfbf" points="590.5,-112.5 590.5,-131.5 640.5,-131.5 640.5,-112.5 590.5,-112.5"/>
<text text-anchor="middle" x="615.5" y="-119.5" font-family="Helvetica,sans-Serif" font-size="10.00">fstream</text>
</g>
<!-- Node6&#45;&gt;Node12 -->
<g id="edge14" class="edge"><title>Node6&#45;&gt;Node12</title>
<path fill="none" stroke="midnightblue" d="M437.067,-170.7C472.374,-161.261 539.231,-143.389 580.327,-132.403"/>
<polygon fill="midnightblue" stroke="midnightblue" points="581.428,-135.731 590.185,-129.767 579.62,-128.969 581.428,-135.731"/>
</g>
<!-- Node13 -->
<g id="node13" class="node"><title>Node13</title>
<polygon fill="none" stroke="#bfbfbf" points="121.5,-112.5 121.5,-131.5 173.5,-131.5 173.5,-112.5 121.5,-112.5"/>
<text text-anchor="middle" x="147.5" y="-119.5" font-family="Helvetica,sans-Serif" font-size="10.00">sstream</text>
</g>
<!-- Node6&#45;&gt;Node13 -->
<g id="edge16" class="edge"><title>Node6&#45;&gt;Node13</title>
<path fill="none" stroke="midnightblue" d="M389.793,-172.861C349.476,-165.72 264.785,-150.275 183.7,-132.17"/>
<polygon fill="midnightblue" stroke="midnightblue" points="184.357,-128.731 173.833,-129.95 182.82,-135.56 184.357,-128.731"/>
</g>
<!-- Node6&#45;&gt;Node14 -->
<g id="edge17" class="edge"><title>Node6&#45;&gt;Node14</title>
<path fill="none" stroke="midnightblue" d="M437.174,-171.19C441.909,-170.085 446.855,-168.972 451.5,-168 535.97,-150.331 560.799,-152.685 649.023,-131.871"/>
<polygon fill="midnightblue" stroke="midnightblue" points="650.015,-135.233 658.925,-129.502 648.385,-128.425 650.015,-135.233"/>
</g>
<!-- Node7&#45;&gt;Node3 -->
<g id="edge9" class="edge"><title>Node7&#45;&gt;Node3</title>
<path fill="none" stroke="midnightblue" d="M203,-112.444C179.423,-103.478 142.178,-89.314 115.536,-79.1827"/>
<polygon fill="midnightblue" stroke="midnightblue" points="116.486,-75.7995 105.895,-75.5164 113.998,-82.3424 116.486,-75.7995"/>
</g>
<!-- Node7&#45;&gt;Node5 -->
<g id="edge10" class="edge"><title>Node7&#45;&gt;Node5</title>
<path fill="none" stroke="midnightblue" d="M212.807,-112.324C200.599,-103.979 181.922,-91.2122 167.497,-81.3524"/>
<polygon fill="midnightblue" stroke="midnightblue" points="169.392,-78.4082 159.161,-75.6545 165.442,-84.1871 169.392,-78.4082"/>
</g>
<!-- Node8 -->
<g id="node8" class="node"><title>Node8</title>
<g id="a_node8"><a xlink:href="emissionprobability_8h.html" target="_top" xlink:title="emissionprobability.h">
<polygon fill="none" stroke="black" points="186.5,-56.5 186.5,-75.5 294.5,-75.5 294.5,-56.5 186.5,-56.5"/>
<text text-anchor="middle" x="240.5" y="-63.5" font-family="Helvetica,sans-Serif" font-size="10.00">emissionprobability.h</text>
</a>
</g>
</g>
<!-- Node7&#45;&gt;Node8 -->
<g id="edge8" class="edge"><title>Node7&#45;&gt;Node8</title>
<path fill="none" stroke="midnightblue" d="M227.977,-112.083C229.986,-104.849 232.886,-94.4087 235.39,-85.3968"/>
<polygon fill="midnightblue" stroke="midnightblue" points="238.765,-86.323 238.069,-75.7511 232.02,-84.4495 238.765,-86.323"/>
</g>
</g>
</svg>
