<?xml version="1.0" encoding="UTF-8" standalone="no"?>
<!DOCTYPE svg PUBLIC "-//W3C//DTD SVG 1.1//EN"
 "http://www.w3.org/Graphics/SVG/1.1/DTD/svg11.dtd">
<!-- Generated by graphviz version 2.38.0 (20140413.2041)
 -->
<!-- Title: road.h Pages: 1 -->
<svg width="426pt" height="308pt"
 viewBox="0.00 0.00 426.49 308.00" xmlns="http://www.w3.org/2000/svg" xmlns:xlink="http://www.w3.org/1999/xlink">
<g id="graph0" class="graph" transform="scale(1 1) rotate(0) translate(4 304)">
<title>road.h</title>
<!-- Node1 -->
<g id="node1" class="node"><title>Node1</title>
<polygon fill="#bfbfbf" stroke="black" points="189.495,-280.5 189.495,-299.5 233.495,-299.5 233.495,-280.5 189.495,-280.5"/>
<text text-anchor="middle" x="211.495" y="-287.5" font-family="Helvetica,sans-Serif" font-size="10.00">road.h</text>
</g>
<!-- Node2 -->
<g id="node2" class="node"><title>Node2</title>
<g id="a_node2"><a xlink:href="grid_8h.html" target="_top" xlink:title="grid.h">
<polygon fill="none" stroke="black" points="79.9949,-224.5 79.9949,-243.5 120.995,-243.5 120.995,-224.5 79.9949,-224.5"/>
<text text-anchor="middle" x="100.495" y="-231.5" font-family="Helvetica,sans-Serif" font-size="10.00">grid.h</text>
</a>
</g>
</g>
<!-- Node1&#45;&gt;Node2 -->
<g id="edge1" class="edge"><title>Node1&#45;&gt;Node2</title>
<path fill="none" stroke="midnightblue" d="M184.489,-275.862C163.907,-265.849 136.15,-252.346 118.285,-243.655"/>
<polygon fill="midnightblue" stroke="midnightblue" points="183.137,-279.097 193.661,-280.324 186.2,-272.802 183.137,-279.097"/>
</g>
<!-- Node4 -->
<g id="node4" class="node"><title>Node4</title>
<g id="a_node4"><a xlink:href="solver_8h.html" target="_top" xlink:title="solver.h">
<polygon fill="none" stroke="black" points="142.995,-168.5 142.995,-187.5 193.995,-187.5 193.995,-168.5 142.995,-168.5"/>
<text text-anchor="middle" x="168.495" y="-175.5" font-family="Helvetica,sans-Serif" font-size="10.00">solver.h</text>
</a>
</g>
</g>
<!-- Node1&#45;&gt;Node4 -->
<g id="edge20" class="edge"><title>Node1&#45;&gt;Node4</title>
<path fill="none" stroke="midnightblue" d="M204.458,-270.998C195.075,-246.997 178.842,-205.468 171.853,-187.591"/>
<polygon fill="midnightblue" stroke="midnightblue" points="201.22,-272.329 208.121,-280.368 207.74,-269.78 201.22,-272.329"/>
</g>
<!-- Node11 -->
<g id="node11" class="node"><title>Node11</title>
<g id="a_node11"><a xlink:href="qmapscene_8h.html" target="_top" xlink:title="qmapscene.h">
<polygon fill="none" stroke="black" points="208.995,-224.5 208.995,-243.5 283.995,-243.5 283.995,-224.5 208.995,-224.5"/>
<text text-anchor="middle" x="246.495" y="-231.5" font-family="Helvetica,sans-Serif" font-size="10.00">qmapscene.h</text>
</a>
</g>
</g>
<!-- Node1&#45;&gt;Node11 -->
<g id="edge15" class="edge"><title>Node1&#45;&gt;Node11</title>
<path fill="none" stroke="midnightblue" d="M222.795,-271.566C228.817,-262.275 235.963,-251.248 240.823,-243.751"/>
<polygon fill="midnightblue" stroke="midnightblue" points="219.776,-269.788 217.274,-280.083 225.65,-273.595 219.776,-269.788"/>
</g>
<!-- Node15 -->
<g id="node15" class="node"><title>Node15</title>
<g id="a_node15"><a xlink:href="road_8cpp.html" target="_top" xlink:title="road.cpp">
<polygon fill="none" stroke="black" points="302.495,-224.5 302.495,-243.5 356.495,-243.5 356.495,-224.5 302.495,-224.5"/>
<text text-anchor="middle" x="329.495" y="-231.5" font-family="Helvetica,sans-Serif" font-size="10.00">road.cpp</text>
</a>
</g>
</g>
<!-- Node1&#45;&gt;Node15 -->
<g id="edge21" class="edge"><title>Node1&#45;&gt;Node15</title>
<path fill="none" stroke="midnightblue" d="M239.395,-276.232C261.467,-266.131 291.671,-252.309 310.885,-243.516"/>
<polygon fill="midnightblue" stroke="midnightblue" points="237.829,-273.1 230.192,-280.444 240.742,-279.465 237.829,-273.1"/>
</g>
<!-- Node3 -->
<g id="node3" class="node"><title>Node3</title>
<g id="a_node3"><a xlink:href="grid_8cpp.html" target="_top" xlink:title="grid.cpp">
<polygon fill="none" stroke="black" points="20.9949,-168.5 20.9949,-187.5 71.9949,-187.5 71.9949,-168.5 20.9949,-168.5"/>
<text text-anchor="middle" x="46.4949" y="-175.5" font-family="Helvetica,sans-Serif" font-size="10.00">grid.cpp</text>
</a>
</g>
</g>
<!-- Node2&#45;&gt;Node3 -->
<g id="edge2" class="edge"><title>Node2&#45;&gt;Node3</title>
<path fill="none" stroke="midnightblue" d="M84.4973,-217.002C74.9277,-207.433 63.1337,-195.639 55.2459,-187.751"/>
<polygon fill="midnightblue" stroke="midnightblue" points="82.0319,-219.487 91.5778,-224.083 86.9816,-214.537 82.0319,-219.487"/>
</g>
<!-- Node2&#45;&gt;Node4 -->
<g id="edge3" class="edge"><title>Node2&#45;&gt;Node4</title>
<path fill="none" stroke="midnightblue" d="M119.257,-218.101C131.495,-208.382 147.054,-196.027 157.371,-187.834"/>
<polygon fill="midnightblue" stroke="midnightblue" points="117.075,-215.364 111.42,-224.324 121.428,-220.846 117.075,-215.364"/>
</g>
<!-- Node7 -->
<g id="node7" class="node"><title>Node7</title>
<g id="a_node7"><a xlink:href="main_8cpp.html" target="_top" xlink:title="main.cpp">
<polygon fill="none" stroke="black" points="34.4949,-0.5 34.4949,-19.5 90.4949,-19.5 90.4949,-0.5 34.4949,-0.5"/>
<text text-anchor="middle" x="62.4949" y="-7.5" font-family="Helvetica,sans-Serif" font-size="10.00">main.cpp</text>
</a>
</g>
</g>
<!-- Node2&#45;&gt;Node7 -->
<g id="edge14" class="edge"><title>Node2&#45;&gt;Node7</title>
<path fill="none" stroke="midnightblue" d="M69.8106,-226.299C49.4166,-220.079 24.1416,-208.566 11.4949,-188 -24.0183,-130.249 34.2625,-46.7632 55.3457,-19.7709"/>
<polygon fill="midnightblue" stroke="midnightblue" points="69.0739,-229.726 79.6449,-229.017 70.9385,-222.979 69.0739,-229.726"/>
</g>
<!-- Node8 -->
<g id="node8" class="node"><title>Node8</title>
<g id="a_node8"><a xlink:href="_main_window_8h.html" target="_top" xlink:title="MainWindow.h">
<polygon fill="none" stroke="black" points="108.995,-56.5 108.995,-75.5 189.995,-75.5 189.995,-56.5 108.995,-56.5"/>
<text text-anchor="middle" x="149.495" y="-63.5" font-family="Helvetica,sans-Serif" font-size="10.00">MainWindow.h</text>
</a>
</g>
</g>
<!-- Node2&#45;&gt;Node8 -->
<g id="edge13" class="edge"><title>Node2&#45;&gt;Node8</title>
<path fill="none" stroke="midnightblue" d="M100.964,-214.149C102.123,-189.779 106.082,-146.39 119.495,-112 124.886,-98.1787 135.05,-84.2767 142.042,-75.6583"/>
<polygon fill="midnightblue" stroke="midnightblue" points="97.4549,-214.341 100.591,-224.462 104.45,-214.595 97.4549,-214.341"/>
</g>
<!-- Node5 -->
<g id="node5" class="node"><title>Node5</title>
<g id="a_node5"><a xlink:href="controller_8h.html" target="_top" xlink:title="controller.h">
<polygon fill="none" stroke="black" points="246.995,-112.5 246.995,-131.5 311.995,-131.5 311.995,-112.5 246.995,-112.5"/>
<text text-anchor="middle" x="279.495" y="-119.5" font-family="Helvetica,sans-Serif" font-size="10.00">controller.h</text>
</a>
</g>
</g>
<!-- Node4&#45;&gt;Node5 -->
<g id="edge4" class="edge"><title>Node4&#45;&gt;Node5</title>
<path fill="none" stroke="midnightblue" d="M195.5,-163.862C216.083,-153.849 243.84,-140.346 261.705,-131.655"/>
<polygon fill="midnightblue" stroke="midnightblue" points="193.79,-160.802 186.329,-168.324 196.852,-167.097 193.79,-160.802"/>
</g>
<!-- Node4&#45;&gt;Node7 -->
<g id="edge11" class="edge"><title>Node4&#45;&gt;Node7</title>
<path fill="none" stroke="midnightblue" d="M148.812,-161.98C139.109,-153.867 127.751,-143.227 119.495,-132 91.568,-94.0242 72.0898,-40.1909 65.2216,-19.5283"/>
<polygon fill="midnightblue" stroke="midnightblue" points="146.809,-164.861 156.792,-168.41 151.201,-159.41 146.809,-164.861"/>
</g>
<!-- Node4&#45;&gt;Node8 -->
<g id="edge10" class="edge"><title>Node4&#45;&gt;Node8</title>
<path fill="none" stroke="midnightblue" d="M184.857,-160.55C195.791,-147.475 206.922,-128.676 199.495,-112 192.368,-95.9975 176.427,-83.2984 164.447,-75.5256"/>
<polygon fill="midnightblue" stroke="midnightblue" points="182.015,-158.475 177.896,-168.236 187.203,-163.173 182.015,-158.475"/>
</g>
<!-- Node10 -->
<g id="node10" class="node"><title>Node10</title>
<g id="a_node10"><a xlink:href="solver_8cpp.html" target="_top" xlink:title="solver.cpp">
<polygon fill="none" stroke="black" points="128.495,-112.5 128.495,-131.5 190.495,-131.5 190.495,-112.5 128.495,-112.5"/>
<text text-anchor="middle" x="159.495" y="-119.5" font-family="Helvetica,sans-Serif" font-size="10.00">solver.cpp</text>
</a>
</g>
</g>
<!-- Node4&#45;&gt;Node10 -->
<g id="edge12" class="edge"><title>Node4&#45;&gt;Node10</title>
<path fill="none" stroke="midnightblue" d="M165.345,-158.101C163.851,-149.136 162.138,-138.858 160.953,-131.751"/>
<polygon fill="midnightblue" stroke="midnightblue" points="161.912,-158.794 167.009,-168.083 168.817,-157.644 161.912,-158.794"/>
</g>
<!-- Node6 -->
<g id="node6" class="node"><title>Node6</title>
<g id="a_node6"><a xlink:href="controller_8cpp.html" target="_top" xlink:title="controller.cpp">
<polygon fill="none" stroke="black" points="246.995,-56.5 246.995,-75.5 321.995,-75.5 321.995,-56.5 246.995,-56.5"/>
<text text-anchor="middle" x="284.495" y="-63.5" font-family="Helvetica,sans-Serif" font-size="10.00">controller.cpp</text>
</a>
</g>
</g>
<!-- Node5&#45;&gt;Node6 -->
<g id="edge5" class="edge"><title>Node5&#45;&gt;Node6</title>
<path fill="none" stroke="midnightblue" d="M281.245,-102.101C282.075,-93.1357 283.027,-82.8579 283.685,-75.7511"/>
<polygon fill="midnightblue" stroke="midnightblue" points="277.757,-101.803 280.32,-112.083 284.728,-102.448 277.757,-101.803"/>
</g>
<!-- Node5&#45;&gt;Node7 -->
<g id="edge6" class="edge"><title>Node5&#45;&gt;Node7</title>
<path fill="none" stroke="midnightblue" d="M263.16,-104.933C247.643,-90.4279 223.089,-69.3685 198.495,-56 179.703,-45.7855 124.77,-28.983 90.7438,-19.0561"/>
<polygon fill="midnightblue" stroke="midnightblue" points="261.146,-107.85 270.794,-112.227 265.982,-102.788 261.146,-107.85"/>
</g>
<!-- Node5&#45;&gt;Node8 -->
<g id="edge7" class="edge"><title>Node5&#45;&gt;Node8</title>
<path fill="none" stroke="midnightblue" d="M249.409,-108.503C225.038,-98.3795 191.355,-84.388 169.997,-75.5164"/>
<polygon fill="midnightblue" stroke="midnightblue" points="248.318,-111.84 258.896,-112.444 251.004,-105.375 248.318,-111.84"/>
</g>
<!-- Node8&#45;&gt;Node7 -->
<g id="edge8" class="edge"><title>Node8&#45;&gt;Node7</title>
<path fill="none" stroke="midnightblue" d="M126.779,-50.9005C110.826,-40.9986 89.9974,-28.0705 76.4382,-19.6545"/>
<polygon fill="midnightblue" stroke="midnightblue" points="125.175,-54.024 135.517,-56.324 128.866,-48.0765 125.175,-54.024"/>
</g>
<!-- Node9 -->
<g id="node9" class="node"><title>Node9</title>
<g id="a_node9"><a xlink:href="_main_window_8cpp.html" target="_top" xlink:title="MainWindow.cpp">
<polygon fill="none" stroke="black" points="108.495,-0.5 108.495,-19.5 200.495,-19.5 200.495,-0.5 108.495,-0.5"/>
<text text-anchor="middle" x="154.495" y="-7.5" font-family="Helvetica,sans-Serif" font-size="10.00">MainWindow.cpp</text>
</a>
</g>
</g>
<!-- Node8&#45;&gt;Node9 -->
<g id="edge9" class="edge"><title>Node8&#45;&gt;Node9</title>
<path fill="none" stroke="midnightblue" d="M151.245,-46.1005C152.075,-37.1357 153.027,-26.8579 153.685,-19.7511"/>
<polygon fill="midnightblue" stroke="midnightblue" points="147.757,-45.8029 150.32,-56.083 154.728,-46.4483 147.757,-45.8029"/>
</g>
<!-- Node12 -->
<g id="node12" class="node"><title>Node12</title>
<g id="a_node12"><a xlink:href="qmapwidget_8h.html" target="_top" xlink:title="qmapwidget.h">
<polygon fill="none" stroke="black" points="230.995,-168.5 230.995,-187.5 307.995,-187.5 307.995,-168.5 230.995,-168.5"/>
<text text-anchor="middle" x="269.495" y="-175.5" font-family="Helvetica,sans-Serif" font-size="10.00">qmapwidget.h</text>
</a>
</g>
</g>
<!-- Node11&#45;&gt;Node12 -->
<g id="edge16" class="edge"><title>Node11&#45;&gt;Node12</title>
<path fill="none" stroke="midnightblue" d="M254.294,-214.69C258.17,-205.589 262.674,-195.014 265.768,-187.751"/>
<polygon fill="midnightblue" stroke="midnightblue" points="250.991,-213.511 250.293,-224.083 257.432,-216.254 250.991,-213.511"/>
</g>
<!-- Node14 -->
<g id="node14" class="node"><title>Node14</title>
<g id="a_node14"><a xlink:href="qmapscene_8cpp.html" target="_top" xlink:title="qmapscene.cpp">
<polygon fill="none" stroke="black" points="326.495,-168.5 326.495,-187.5 412.495,-187.5 412.495,-168.5 326.495,-168.5"/>
<text text-anchor="middle" x="369.495" y="-175.5" font-family="Helvetica,sans-Serif" font-size="10.00">qmapscene.cpp</text>
</a>
</g>
</g>
<!-- Node11&#45;&gt;Node14 -->
<g id="edge19" class="edge"><title>Node11&#45;&gt;Node14</title>
<path fill="none" stroke="midnightblue" d="M275.268,-220.368C298.302,-210.255 329.979,-196.349 350.096,-187.516"/>
<polygon fill="midnightblue" stroke="midnightblue" points="273.734,-217.219 265.985,-224.444 276.548,-223.628 273.734,-217.219"/>
</g>
<!-- Node12&#45;&gt;Node5 -->
<g id="edge17" class="edge"><title>Node12&#45;&gt;Node5</title>
<path fill="none" stroke="midnightblue" d="M272.995,-158.101C274.655,-149.136 276.558,-138.858 277.874,-131.751"/>
<polygon fill="midnightblue" stroke="midnightblue" points="269.526,-157.613 271.146,-168.083 276.409,-158.888 269.526,-157.613"/>
</g>
<!-- Node13 -->
<g id="node13" class="node"><title>Node13</title>
<g id="a_node13"><a xlink:href="qmapwidget_8cpp.html" target="_top" xlink:title="qmapwidget.cpp">
<polygon fill="none" stroke="black" points="330.495,-112.5 330.495,-131.5 418.495,-131.5 418.495,-112.5 330.495,-112.5"/>
<text text-anchor="middle" x="374.495" y="-119.5" font-family="Helvetica,sans-Serif" font-size="10.00">qmapwidget.cpp</text>
</a>
</g>
</g>
<!-- Node12&#45;&gt;Node13 -->
<g id="edge18" class="edge"><title>Node12&#45;&gt;Node13</title>
<path fill="none" stroke="midnightblue" d="M295.305,-163.726C314.748,-153.727 340.843,-140.307 357.667,-131.655"/>
<polygon fill="midnightblue" stroke="midnightblue" points="293.657,-160.638 286.365,-168.324 296.859,-166.863 293.657,-160.638"/>
</g>
</g>
</svg>
