<?xml version="1.0" encoding="UTF-8" standalone="no"?>
<!DOCTYPE svg PUBLIC "-//W3C//DTD SVG 1.1//EN"
 "http://www.w3.org/Graphics/SVG/1.1/DTD/svg11.dtd">
<!-- Generated by graphviz version 2.38.0 (20140413.2041)
 -->
<!-- Title: road.h Pages: 1 -->
<svg width="309pt" height="308pt"
 viewBox="0.00 0.00 309.36 308.00" xmlns="http://www.w3.org/2000/svg" xmlns:xlink="http://www.w3.org/1999/xlink">
<g id="graph0" class="graph" transform="scale(1 1) rotate(0) translate(4 304)">
<title>road.h</title>
<!-- Node1 -->
<g id="node1" class="node"><title>Node1</title>
<polygon fill="#bfbfbf" stroke="black" points="170.363,-280.5 170.363,-299.5 214.363,-299.5 214.363,-280.5 170.363,-280.5"/>
<text text-anchor="middle" x="192.363" y="-287.5" font-family="Helvetica,sans-Serif" font-size="10.00">road.h</text>
</g>
<!-- Node2 -->
<g id="node2" class="node"><title>Node2</title>
<g id="a_node2"><a xlink:href="grid_8h.html" target="_top" xlink:title="grid.h">
<polygon fill="none" stroke="black" points="122.863,-224.5 122.863,-243.5 163.863,-243.5 163.863,-224.5 122.863,-224.5"/>
<text text-anchor="middle" x="143.363" y="-231.5" font-family="Helvetica,sans-Serif" font-size="10.00">grid.h</text>
</a>
</g>
</g>
<!-- Node1&#45;&gt;Node2 -->
<g id="edge1" class="edge"><title>Node1&#45;&gt;Node2</title>
<path fill="none" stroke="midnightblue" d="M177.329,-272.431C168.741,-262.967 158.32,-251.483 151.304,-243.751"/>
<polygon fill="midnightblue" stroke="midnightblue" points="174.96,-275.029 184.272,-280.083 180.144,-270.325 174.96,-275.029"/>
</g>
<!-- Node4 -->
<g id="node4" class="node"><title>Node4</title>
<g id="a_node4"><a xlink:href="solver_8h.html" target="_top" xlink:title="solver.h">
<polygon fill="none" stroke="black" points="166.863,-168.5 166.863,-187.5 217.863,-187.5 217.863,-168.5 166.863,-168.5"/>
<text text-anchor="middle" x="192.363" y="-175.5" font-family="Helvetica,sans-Serif" font-size="10.00">solver.h</text>
</a>
</g>
</g>
<!-- Node1&#45;&gt;Node4 -->
<g id="edge15" class="edge"><title>Node1&#45;&gt;Node4</title>
<path fill="none" stroke="midnightblue" d="M192.363,-270.348C192.363,-246.254 192.363,-205.308 192.363,-187.591"/>
<polygon fill="midnightblue" stroke="midnightblue" points="188.863,-270.368 192.363,-280.368 195.863,-270.369 188.863,-270.368"/>
</g>
<!-- Node11 -->
<g id="node11" class="node"><title>Node11</title>
<g id="a_node11"><a xlink:href="road_8cpp.html" target="_top" xlink:title="road.cpp">
<polygon fill="none" stroke="black" points="220.363,-224.5 220.363,-243.5 274.363,-243.5 274.363,-224.5 220.363,-224.5"/>
<text text-anchor="middle" x="247.363" y="-231.5" font-family="Helvetica,sans-Serif" font-size="10.00">road.cpp</text>
</a>
</g>
</g>
<!-- Node1&#45;&gt;Node11 -->
<g id="edge16" class="edge"><title>Node1&#45;&gt;Node11</title>
<path fill="none" stroke="midnightblue" d="M208.657,-273.002C218.404,-263.433 230.416,-251.639 238.45,-243.751"/>
<polygon fill="midnightblue" stroke="midnightblue" points="206.129,-270.58 201.445,-280.083 211.033,-275.575 206.129,-270.58"/>
</g>
<!-- Node3 -->
<g id="node3" class="node"><title>Node3</title>
<g id="a_node3"><a xlink:href="grid_8cpp.html" target="_top" xlink:title="grid.cpp">
<polygon fill="none" stroke="black" points="97.8631,-168.5 97.8631,-187.5 148.863,-187.5 148.863,-168.5 97.8631,-168.5"/>
<text text-anchor="middle" x="123.363" y="-175.5" font-family="Helvetica,sans-Serif" font-size="10.00">grid.cpp</text>
</a>
</g>
</g>
<!-- Node2&#45;&gt;Node3 -->
<g id="edge2" class="edge"><title>Node2&#45;&gt;Node3</title>
<path fill="none" stroke="midnightblue" d="M136.581,-214.69C133.211,-205.589 129.294,-195.014 126.604,-187.751"/>
<polygon fill="midnightblue" stroke="midnightblue" points="133.305,-215.921 140.06,-224.083 139.869,-213.49 133.305,-215.921"/>
</g>
<!-- Node2&#45;&gt;Node4 -->
<g id="edge3" class="edge"><title>Node2&#45;&gt;Node4</title>
<path fill="none" stroke="midnightblue" d="M158.398,-216.431C166.985,-206.967 177.407,-195.483 184.422,-187.751"/>
<polygon fill="midnightblue" stroke="midnightblue" points="155.582,-214.325 151.454,-224.083 160.766,-219.029 155.582,-214.325"/>
</g>
<!-- Node7 -->
<g id="node7" class="node"><title>Node7</title>
<g id="a_node7"><a xlink:href="main_8cpp.html" target="_top" xlink:title="main.cpp">
<polygon fill="none" stroke="black" points="115.363,-0.5 115.363,-19.5 171.363,-19.5 171.363,-0.5 115.363,-0.5"/>
<text text-anchor="middle" x="143.363" y="-7.5" font-family="Helvetica,sans-Serif" font-size="10.00">main.cpp</text>
</a>
</g>
</g>
<!-- Node2&#45;&gt;Node7 -->
<g id="edge14" class="edge"><title>Node2&#45;&gt;Node7</title>
<path fill="none" stroke="midnightblue" d="M119.122,-219.256C70.0566,-189.673 -32.7522,-117.648 11.3631,-56 34.8933,-23.1183 83.8969,-13.9871 115.126,-11.6123"/>
<polygon fill="midnightblue" stroke="midnightblue" points="117.496,-222.36 127.886,-224.432 121.056,-216.333 117.496,-222.36"/>
</g>
<!-- Node8 -->
<g id="node8" class="node"><title>Node8</title>
<g id="a_node8"><a xlink:href="_main_window_8h.html" target="_top" xlink:title="MainWindow.h">
<polygon fill="none" stroke="black" points="214.863,-56.5 214.863,-75.5 295.863,-75.5 295.863,-56.5 214.863,-56.5"/>
<text text-anchor="middle" x="255.363" y="-63.5" font-family="Helvetica,sans-Serif" font-size="10.00">MainWindow.h</text>
</a>
</g>
</g>
<!-- Node2&#45;&gt;Node8 -->
<g id="edge13" class="edge"><title>Node2&#45;&gt;Node8</title>
<path fill="none" stroke="midnightblue" d="M173.376,-221.845C207.344,-207.255 260.299,-178 278.363,-132 286.151,-112.167 271.989,-88.4895 262.637,-75.9021"/>
<polygon fill="midnightblue" stroke="midnightblue" points="171.837,-218.693 163.924,-225.738 174.503,-225.166 171.837,-218.693"/>
</g>
<!-- Node5 -->
<g id="node5" class="node"><title>Node5</title>
<g id="a_node5"><a xlink:href="controller_8h.html" target="_top" xlink:title="controller.h">
<polygon fill="none" stroke="black" points="68.8631,-112.5 68.8631,-131.5 133.863,-131.5 133.863,-112.5 68.8631,-112.5"/>
<text text-anchor="middle" x="101.363" y="-119.5" font-family="Helvetica,sans-Serif" font-size="10.00">controller.h</text>
</a>
</g>
</g>
<!-- Node4&#45;&gt;Node5 -->
<g id="edge4" class="edge"><title>Node4&#45;&gt;Node5</title>
<path fill="none" stroke="midnightblue" d="M169.069,-163.177C152.324,-153.241 130.263,-140.149 115.948,-131.655"/>
<polygon fill="midnightblue" stroke="midnightblue" points="167.356,-166.231 177.742,-168.324 170.929,-160.211 167.356,-166.231"/>
</g>
<!-- Node4&#45;&gt;Node7 -->
<g id="edge11" class="edge"><title>Node4&#45;&gt;Node7</title>
<path fill="none" stroke="midnightblue" d="M186.871,-158.395C176.301,-122.585 153.5,-45.3423 145.892,-19.5681"/>
<polygon fill="midnightblue" stroke="midnightblue" points="183.541,-159.475 189.729,-168.075 190.254,-157.493 183.541,-159.475"/>
</g>
<!-- Node4&#45;&gt;Node8 -->
<g id="edge10" class="edge"><title>Node4&#45;&gt;Node8</title>
<path fill="none" stroke="midnightblue" d="M225.423,-164.008C239.129,-156.781 253.615,-146.304 261.363,-132 271.187,-113.864 264.01,-88.6623 259.04,-75.6076"/>
<polygon fill="midnightblue" stroke="midnightblue" points="223.625,-160.99 216.151,-168.499 226.677,-167.29 223.625,-160.99"/>
</g>
<!-- Node10 -->
<g id="node10" class="node"><title>Node10</title>
<g id="a_node10"><a xlink:href="solver_8cpp.html" target="_top" xlink:title="solver.cpp">
<polygon fill="none" stroke="black" points="190.363,-112.5 190.363,-131.5 252.363,-131.5 252.363,-112.5 190.363,-112.5"/>
<text text-anchor="middle" x="221.363" y="-119.5" font-family="Helvetica,sans-Serif" font-size="10.00">solver.cpp</text>
</a>
</g>
</g>
<!-- Node4&#45;&gt;Node10 -->
<g id="edge12" class="edge"><title>Node4&#45;&gt;Node10</title>
<path fill="none" stroke="midnightblue" d="M202.039,-158.983C206.961,-149.817 212.721,-139.092 216.663,-131.751"/>
<polygon fill="midnightblue" stroke="midnightblue" points="198.8,-157.617 197.152,-168.083 204.967,-160.929 198.8,-157.617"/>
</g>
<!-- Node6 -->
<g id="node6" class="node"><title>Node6</title>
<g id="a_node6"><a xlink:href="controller_8cpp.html" target="_top" xlink:title="controller.cpp">
<polygon fill="none" stroke="black" points="20.8631,-56.5 20.8631,-75.5 95.8631,-75.5 95.8631,-56.5 20.8631,-56.5"/>
<text text-anchor="middle" x="58.3631" y="-63.5" font-family="Helvetica,sans-Serif" font-size="10.00">controller.cpp</text>
</a>
</g>
</g>
<!-- Node5&#45;&gt;Node6 -->
<g id="edge5" class="edge"><title>Node5&#45;&gt;Node6</title>
<path fill="none" stroke="midnightblue" d="M87.9407,-104.144C80.4489,-94.7357 71.426,-83.4046 65.3315,-75.7511"/>
<polygon fill="midnightblue" stroke="midnightblue" points="85.2952,-106.44 94.2625,-112.083 90.7712,-102.08 85.2952,-106.44"/>
</g>
<!-- Node5&#45;&gt;Node7 -->
<g id="edge6" class="edge"><title>Node5&#45;&gt;Node7</title>
<path fill="none" stroke="midnightblue" d="M108.237,-102.998C117.401,-78.9968 133.257,-37.4683 140.083,-19.5914"/>
<polygon fill="midnightblue" stroke="midnightblue" points="104.956,-101.778 104.659,-112.368 111.496,-104.275 104.956,-101.778"/>
</g>
<!-- Node5&#45;&gt;Node8 -->
<g id="edge7" class="edge"><title>Node5&#45;&gt;Node8</title>
<path fill="none" stroke="midnightblue" d="M135.474,-109.039C164.45,-98.8786 205.325,-84.5457 231.075,-75.5164"/>
<polygon fill="midnightblue" stroke="midnightblue" points="134.043,-105.832 125.765,-112.444 136.36,-112.437 134.043,-105.832"/>
</g>
<!-- Node8&#45;&gt;Node7 -->
<g id="edge8" class="edge"><title>Node8&#45;&gt;Node7</title>
<path fill="none" stroke="midnightblue" d="M228.114,-51.8622C207.347,-41.8492 179.34,-28.3458 161.313,-19.6545"/>
<polygon fill="midnightblue" stroke="midnightblue" points="226.841,-55.1336 237.368,-56.324 229.881,-48.8282 226.841,-55.1336"/>
</g>
<!-- Node9 -->
<g id="node9" class="node"><title>Node9</title>
<g id="a_node9"><a xlink:href="_main_window_8cpp.html" target="_top" xlink:title="MainWindow.cpp">
<polygon fill="none" stroke="black" points="209.363,-0.5 209.363,-19.5 301.363,-19.5 301.363,-0.5 209.363,-0.5"/>
<text text-anchor="middle" x="255.363" y="-7.5" font-family="Helvetica,sans-Serif" font-size="10.00">MainWindow.cpp</text>
</a>
</g>
</g>
<!-- Node8&#45;&gt;Node9 -->
<g id="edge9" class="edge"><title>Node8&#45;&gt;Node9</title>
<path fill="none" stroke="midnightblue" d="M255.363,-45.8045C255.363,-36.9102 255.363,-26.7798 255.363,-19.7511"/>
<polygon fill="midnightblue" stroke="midnightblue" points="251.863,-46.083 255.363,-56.083 258.863,-46.083 251.863,-46.083"/>
</g>
</g>
</svg>
