<?xml version="1.0" encoding="UTF-8" standalone="no"?>
<!DOCTYPE svg PUBLIC "-//W3C//DTD SVG 1.1//EN"
 "http://www.w3.org/Graphics/SVG/1.1/DTD/svg11.dtd">
<!-- Generated by graphviz version 2.38.0 (20140413.2041)
 -->
<!-- Title: road.h Pages: 1 -->
<svg width="494pt" height="308pt"
 viewBox="0.00 0.00 494.09 308.00" xmlns="http://www.w3.org/2000/svg" xmlns:xlink="http://www.w3.org/1999/xlink">
<g id="graph0" class="graph" transform="scale(1 1) rotate(0) translate(4 304)">
<title>road.h</title>
<!-- Node1 -->
<g id="node1" class="node"><title>Node1</title>
<polygon fill="#bfbfbf" stroke="black" points="218.093,-280.5 218.093,-299.5 262.093,-299.5 262.093,-280.5 218.093,-280.5"/>
<text text-anchor="middle" x="240.093" y="-287.5" font-family="Helvetica,sans-Serif" font-size="10.00">road.h</text>
</g>
<!-- Node2 -->
<g id="node2" class="node"><title>Node2</title>
<g id="a_node2"><a xlink:href="grid_8h.html" target="_top" xlink:title="grid.h">
<polygon fill="none" stroke="black" points="71.593,-224.5 71.593,-243.5 112.593,-243.5 112.593,-224.5 71.593,-224.5"/>
<text text-anchor="middle" x="92.093" y="-231.5" font-family="Helvetica,sans-Serif" font-size="10.00">grid.h</text>
</a>
</g>
</g>
<!-- Node1&#45;&gt;Node2 -->
<g id="edge1" class="edge"><title>Node1&#45;&gt;Node2</title>
<path fill="none" stroke="midnightblue" d="M208.321,-277.408C179.484,-266.886 137.788,-251.673 112.964,-242.615"/>
<polygon fill="midnightblue" stroke="midnightblue" points="207.342,-280.776 217.936,-280.916 209.741,-274.2 207.342,-280.776"/>
</g>
<!-- Node4 -->
<g id="node4" class="node"><title>Node4</title>
<g id="a_node4"><a xlink:href="solver_8h.html" target="_top" xlink:title="solver.h">
<polygon fill="none" stroke="black" points="171.593,-168.5 171.593,-187.5 222.593,-187.5 222.593,-168.5 171.593,-168.5"/>
<text text-anchor="middle" x="197.093" y="-175.5" font-family="Helvetica,sans-Serif" font-size="10.00">solver.h</text>
</a>
</g>
</g>
<!-- Node1&#45;&gt;Node4 -->
<g id="edge15" class="edge"><title>Node1&#45;&gt;Node4</title>
<path fill="none" stroke="midnightblue" d="M233.056,-270.998C223.674,-246.997 207.44,-205.468 200.452,-187.591"/>
<polygon fill="midnightblue" stroke="midnightblue" points="229.818,-272.329 236.719,-280.368 236.338,-269.78 229.818,-272.329"/>
</g>
<!-- Node11 -->
<g id="node11" class="node"><title>Node11</title>
<g id="a_node11"><a xlink:href="qmapscene_8h.html" target="_top" xlink:title="qmapscene.h">
<polygon fill="none" stroke="black" points="237.593,-224.5 237.593,-243.5 312.593,-243.5 312.593,-224.5 237.593,-224.5"/>
<text text-anchor="middle" x="275.093" y="-231.5" font-family="Helvetica,sans-Serif" font-size="10.00">qmapscene.h</text>
</a>
</g>
</g>
<!-- Node1&#45;&gt;Node11 -->
<g id="edge16" class="edge"><title>Node1&#45;&gt;Node11</title>
<path fill="none" stroke="midnightblue" d="M251.393,-271.566C257.415,-262.275 264.562,-251.248 269.421,-243.751"/>
<polygon fill="midnightblue" stroke="midnightblue" points="248.375,-269.788 245.873,-280.083 254.249,-273.595 248.375,-269.788"/>
</g>
<!-- Node15 -->
<g id="node15" class="node"><title>Node15</title>
<g id="a_node15"><a xlink:href="road_8cpp.html" target="_top" xlink:title="road.cpp">
<polygon fill="none" stroke="black" points="331.093,-224.5 331.093,-243.5 385.093,-243.5 385.093,-224.5 331.093,-224.5"/>
<text text-anchor="middle" x="358.093" y="-231.5" font-family="Helvetica,sans-Serif" font-size="10.00">road.cpp</text>
</a>
</g>
</g>
<!-- Node1&#45;&gt;Node15 -->
<g id="edge22" class="edge"><title>Node1&#45;&gt;Node15</title>
<path fill="none" stroke="midnightblue" d="M267.993,-276.232C290.066,-266.131 320.269,-252.309 339.483,-243.516"/>
<polygon fill="midnightblue" stroke="midnightblue" points="266.427,-273.1 258.79,-280.444 269.34,-279.465 266.427,-273.1"/>
</g>
<!-- Node3 -->
<g id="node3" class="node"><title>Node3</title>
<g id="a_node3"><a xlink:href="grid_8cpp.html" target="_top" xlink:title="grid.cpp">
<polygon fill="none" stroke="black" points="12.593,-168.5 12.593,-187.5 63.593,-187.5 63.593,-168.5 12.593,-168.5"/>
<text text-anchor="middle" x="38.093" y="-175.5" font-family="Helvetica,sans-Serif" font-size="10.00">grid.cpp</text>
</a>
</g>
</g>
<!-- Node2&#45;&gt;Node3 -->
<g id="edge2" class="edge"><title>Node2&#45;&gt;Node3</title>
<path fill="none" stroke="midnightblue" d="M76.0955,-217.002C66.5259,-207.433 54.7319,-195.639 46.8441,-187.751"/>
<polygon fill="midnightblue" stroke="midnightblue" points="73.6301,-219.487 83.176,-224.083 78.5798,-214.537 73.6301,-219.487"/>
</g>
<!-- Node2&#45;&gt;Node4 -->
<g id="edge3" class="edge"><title>Node2&#45;&gt;Node4</title>
<path fill="none" stroke="midnightblue" d="M117.903,-219.726C137.346,-209.727 163.441,-196.307 180.265,-187.655"/>
<polygon fill="midnightblue" stroke="midnightblue" points="116.255,-216.638 108.963,-224.324 119.457,-222.863 116.255,-216.638"/>
</g>
<!-- Node7 -->
<g id="node7" class="node"><title>Node7</title>
<g id="a_node7"><a xlink:href="main_8cpp.html" target="_top" xlink:title="main.cpp">
<polygon fill="none" stroke="black" points="108.093,-0.5 108.093,-19.5 164.093,-19.5 164.093,-0.5 108.093,-0.5"/>
<text text-anchor="middle" x="136.093" y="-7.5" font-family="Helvetica,sans-Serif" font-size="10.00">main.cpp</text>
</a>
</g>
</g>
<!-- Node2&#45;&gt;Node7 -->
<g id="edge14" class="edge"><title>Node2&#45;&gt;Node7</title>
<path fill="none" stroke="midnightblue" d="M61.4088,-226.299C41.0148,-220.079 15.7398,-208.566 3.09305,-188 -1.56315,-180.428 0.0332627,-176.346 3.09305,-168 28.0552,-99.9149 97.0593,-41.087 124.561,-19.6468"/>
<polygon fill="midnightblue" stroke="midnightblue" points="60.6721,-229.726 71.2431,-229.017 62.5367,-222.979 60.6721,-229.726"/>
</g>
<!-- Node8 -->
<g id="node8" class="node"><title>Node8</title>
<g id="a_node8"><a xlink:href="_main_window_8h.html" target="_top" xlink:title="MainWindow.h">
<polygon fill="none" stroke="black" points="200.593,-56.5 200.593,-75.5 281.593,-75.5 281.593,-56.5 200.593,-56.5"/>
<text text-anchor="middle" x="241.093" y="-63.5" font-family="Helvetica,sans-Serif" font-size="10.00">MainWindow.h</text>
</a>
</g>
</g>
<!-- Node2&#45;&gt;Node8 -->
<g id="edge13" class="edge"><title>Node2&#45;&gt;Node8</title>
<path fill="none" stroke="midnightblue" d="M96.6993,-214.216C103.911,-188.282 120.129,-141.392 149.093,-112 166.44,-94.3962 192.073,-82.6423 211.879,-75.5756"/>
<polygon fill="midnightblue" stroke="midnightblue" points="93.2251,-213.667 94.0774,-224.227 99.9967,-215.44 93.2251,-213.667"/>
</g>
<!-- Node5 -->
<g id="node5" class="node"><title>Node5</title>
<g id="a_node5"><a xlink:href="controller_8h.html" target="_top" xlink:title="controller.h">
<polygon fill="none" stroke="black" points="314.593,-112.5 314.593,-131.5 379.593,-131.5 379.593,-112.5 314.593,-112.5"/>
<text text-anchor="middle" x="347.093" y="-119.5" font-family="Helvetica,sans-Serif" font-size="10.00">controller.h</text>
</a>
</g>
</g>
<!-- Node4&#45;&gt;Node5 -->
<g id="edge4" class="edge"><title>Node4&#45;&gt;Node5</title>
<path fill="none" stroke="midnightblue" d="M230.318,-165.039C258.541,-154.879 298.355,-140.546 323.436,-131.516"/>
<polygon fill="midnightblue" stroke="midnightblue" points="229.084,-161.763 220.861,-168.444 231.455,-168.349 229.084,-161.763"/>
</g>
<!-- Node4&#45;&gt;Node7 -->
<g id="edge10" class="edge"><title>Node4&#45;&gt;Node7</title>
<path fill="none" stroke="midnightblue" d="M175.419,-162.298C165.694,-154.489 155.083,-144.019 149.093,-132 130.057,-93.8024 132.968,-40.5484 135.043,-19.7815"/>
<polygon fill="midnightblue" stroke="midnightblue" points="173.502,-165.236 183.598,-168.448 177.709,-159.641 173.502,-165.236"/>
</g>
<!-- Node4&#45;&gt;Node8 -->
<g id="edge11" class="edge"><title>Node4&#45;&gt;Node8</title>
<path fill="none" stroke="midnightblue" d="M211.443,-160.54C217.779,-152.446 224.758,-142.244 229.093,-132 237.143,-112.978 239.806,-88.5705 240.677,-75.7552"/>
<polygon fill="midnightblue" stroke="midnightblue" points="208.628,-158.452 204.976,-168.398 214.033,-162.901 208.628,-158.452"/>
</g>
<!-- Node10 -->
<g id="node10" class="node"><title>Node10</title>
<g id="a_node10"><a xlink:href="solver_8cpp.html" target="_top" xlink:title="solver.cpp">
<polygon fill="none" stroke="black" points="158.093,-112.5 158.093,-131.5 220.093,-131.5 220.093,-112.5 158.093,-112.5"/>
<text text-anchor="middle" x="189.093" y="-119.5" font-family="Helvetica,sans-Serif" font-size="10.00">solver.cpp</text>
</a>
</g>
</g>
<!-- Node4&#45;&gt;Node10 -->
<g id="edge12" class="edge"><title>Node4&#45;&gt;Node10</title>
<path fill="none" stroke="midnightblue" d="M194.293,-158.101C192.965,-149.136 191.442,-138.858 190.39,-131.751"/>
<polygon fill="midnightblue" stroke="midnightblue" points="190.844,-158.704 195.772,-168.083 197.769,-157.678 190.844,-158.704"/>
</g>
<!-- Node6 -->
<g id="node6" class="node"><title>Node6</title>
<g id="a_node6"><a xlink:href="controller_8cpp.html" target="_top" xlink:title="controller.cpp">
<polygon fill="none" stroke="black" points="338.593,-56.5 338.593,-75.5 413.593,-75.5 413.593,-56.5 338.593,-56.5"/>
<text text-anchor="middle" x="376.093" y="-63.5" font-family="Helvetica,sans-Serif" font-size="10.00">controller.cpp</text>
</a>
</g>
</g>
<!-- Node5&#45;&gt;Node6 -->
<g id="edge5" class="edge"><title>Node5&#45;&gt;Node6</title>
<path fill="none" stroke="midnightblue" d="M356.769,-102.983C361.691,-93.8168 367.451,-83.0922 371.393,-75.7511"/>
<polygon fill="midnightblue" stroke="midnightblue" points="353.53,-101.617 351.882,-112.083 359.697,-104.929 353.53,-101.617"/>
</g>
<!-- Node5&#45;&gt;Node7 -->
<g id="edge6" class="edge"><title>Node5&#45;&gt;Node7</title>
<path fill="none" stroke="midnightblue" d="M336.155,-103.774C325.943,-89.037 309.403,-68.3113 290.093,-56 269.131,-42.6354 202.53,-26.0301 164.126,-17.2009"/>
<polygon fill="midnightblue" stroke="midnightblue" points="333.468,-106.053 341.918,-112.444 339.298,-102.179 333.468,-106.053"/>
</g>
<!-- Node5&#45;&gt;Node8 -->
<g id="edge7" class="edge"><title>Node5&#45;&gt;Node8</title>
<path fill="none" stroke="midnightblue" d="M321.037,-107.726C301.409,-97.7271 275.065,-84.3065 258.082,-75.6545"/>
<polygon fill="midnightblue" stroke="midnightblue" points="319.563,-110.903 330.062,-112.324 322.741,-104.666 319.563,-110.903"/>
</g>
<!-- Node8&#45;&gt;Node7 -->
<g id="edge8" class="edge"><title>Node8&#45;&gt;Node7</title>
<path fill="none" stroke="midnightblue" d="M215.283,-51.7261C195.84,-41.7271 169.745,-28.3065 152.921,-19.6545"/>
<polygon fill="midnightblue" stroke="midnightblue" points="213.729,-54.8629 224.223,-56.324 216.931,-48.6379 213.729,-54.8629"/>
</g>
<!-- Node9 -->
<g id="node9" class="node"><title>Node9</title>
<g id="a_node9"><a xlink:href="_main_window_8cpp.html" target="_top" xlink:title="MainWindow.cpp">
<polygon fill="none" stroke="black" points="195.093,-0.5 195.093,-19.5 287.093,-19.5 287.093,-0.5 195.093,-0.5"/>
<text text-anchor="middle" x="241.093" y="-7.5" font-family="Helvetica,sans-Serif" font-size="10.00">MainWindow.cpp</text>
</a>
</g>
</g>
<!-- Node8&#45;&gt;Node9 -->
<g id="edge9" class="edge"><title>Node8&#45;&gt;Node9</title>
<path fill="none" stroke="midnightblue" d="M241.093,-45.8045C241.093,-36.9102 241.093,-26.7798 241.093,-19.7511"/>
<polygon fill="midnightblue" stroke="midnightblue" points="237.593,-46.083 241.093,-56.083 244.593,-46.083 237.593,-46.083"/>
</g>
<!-- Node12 -->
<g id="node12" class="node"><title>Node12</title>
<g id="a_node12"><a xlink:href="qmapwidget_8h.html" target="_top" xlink:title="qmapwidget.h">
<polygon fill="none" stroke="black" points="247.593,-168.5 247.593,-187.5 324.593,-187.5 324.593,-168.5 247.593,-168.5"/>
<text text-anchor="middle" x="286.093" y="-175.5" font-family="Helvetica,sans-Serif" font-size="10.00">qmapwidget.h</text>
</a>
</g>
</g>
<!-- Node11&#45;&gt;Node12 -->
<g id="edge17" class="edge"><title>Node11&#45;&gt;Node12</title>
<path fill="none" stroke="midnightblue" d="M278.943,-214.101C280.769,-205.136 282.863,-194.858 284.31,-187.751"/>
<polygon fill="midnightblue" stroke="midnightblue" points="275.476,-213.586 276.909,-224.083 282.335,-214.983 275.476,-213.586"/>
</g>
<!-- Node14 -->
<g id="node14" class="node"><title>Node14</title>
<g id="a_node14"><a xlink:href="qmapscene_8cpp.html" target="_top" xlink:title="qmapscene.cpp">
<polygon fill="none" stroke="black" points="343.093,-168.5 343.093,-187.5 429.093,-187.5 429.093,-168.5 343.093,-168.5"/>
<text text-anchor="middle" x="386.093" y="-175.5" font-family="Helvetica,sans-Serif" font-size="10.00">qmapscene.cpp</text>
</a>
</g>
</g>
<!-- Node11&#45;&gt;Node14 -->
<g id="edge21" class="edge"><title>Node11&#45;&gt;Node14</title>
<path fill="none" stroke="midnightblue" d="M302.098,-219.862C322.681,-209.849 350.438,-196.346 368.303,-187.655"/>
<polygon fill="midnightblue" stroke="midnightblue" points="300.388,-216.802 292.927,-224.324 303.451,-223.097 300.388,-216.802"/>
</g>
<!-- Node12&#45;&gt;Node5 -->
<g id="edge18" class="edge"><title>Node12&#45;&gt;Node5</title>
<path fill="none" stroke="midnightblue" d="M303.56,-161.537C314.437,-151.909 328.037,-139.869 337.114,-131.834"/>
<polygon fill="midnightblue" stroke="midnightblue" points="301.061,-159.075 295.894,-168.324 305.701,-164.316 301.061,-159.075"/>
</g>
<!-- Node12&#45;&gt;Node8 -->
<g id="edge20" class="edge"><title>Node12&#45;&gt;Node8</title>
<path fill="none" stroke="midnightblue" d="M278.729,-158.998C268.91,-134.997 251.921,-93.4683 244.608,-75.5914"/>
<polygon fill="midnightblue" stroke="midnightblue" points="275.536,-160.438 282.562,-168.368 282.015,-157.788 275.536,-160.438"/>
</g>
<!-- Node13 -->
<g id="node13" class="node"><title>Node13</title>
<g id="a_node13"><a xlink:href="qmapwidget_8cpp.html" target="_top" xlink:title="qmapwidget.cpp">
<polygon fill="none" stroke="black" points="398.093,-112.5 398.093,-131.5 486.093,-131.5 486.093,-112.5 398.093,-112.5"/>
<text text-anchor="middle" x="442.093" y="-119.5" font-family="Helvetica,sans-Serif" font-size="10.00">qmapwidget.cpp</text>
</a>
</g>
</g>
<!-- Node12&#45;&gt;Node13 -->
<g id="edge19" class="edge"><title>Node12&#45;&gt;Node13</title>
<path fill="none" stroke="midnightblue" d="M320.263,-165.172C349.637,-155.004 391.291,-140.585 417.49,-131.516"/>
<polygon fill="midnightblue" stroke="midnightblue" points="319.117,-161.865 310.812,-168.444 321.406,-168.48 319.117,-161.865"/>
</g>
</g>
</svg>
