<?xml version="1.0" encoding="UTF-8" standalone="no"?>
<!DOCTYPE svg PUBLIC "-//W3C//DTD SVG 1.1//EN"
 "http://www.w3.org/Graphics/SVG/1.1/DTD/svg11.dtd">
<!-- Generated by graphviz version 2.38.0 (20140413.2041)
 -->
<!-- Title: sauvegarde.cpp Pages: 1 -->
<svg width="902pt" height="308pt"
 viewBox="0.00 0.00 902.00 308.00" xmlns="http://www.w3.org/2000/svg" xmlns:xlink="http://www.w3.org/1999/xlink">
<g id="graph0" class="graph" transform="scale(1 1) rotate(0) translate(4 304)">
<title>sauvegarde.cpp</title>
<!-- Node1 -->
<g id="node1" class="node"><title>Node1</title>
<polygon fill="#bfbfbf" stroke="black" points="158.5,-280.5 158.5,-299.5 244.5,-299.5 244.5,-280.5 158.5,-280.5"/>
<text text-anchor="middle" x="201.5" y="-287.5" font-family="Helvetica,sans-Serif" font-size="10.00">sauvegarde.cpp</text>
</g>
<!-- Node2 -->
<g id="node2" class="node"><title>Node2</title>
<g id="a_node2"><a xlink:href="sauvegarde_8h.html" target="_top" xlink:title="sauvegarde.h">
<polygon fill="none" stroke="black" points="164,-224.5 164,-243.5 239,-243.5 239,-224.5 164,-224.5"/>
<text text-anchor="middle" x="201.5" y="-231.5" font-family="Helvetica,sans-Serif" font-size="10.00">sauvegarde.h</text>
</a>
</g>
</g>
<!-- Node1&#45;&gt;Node2 -->
<g id="edge1" class="edge"><title>Node1&#45;&gt;Node2</title>
<path fill="none" stroke="midnightblue" d="M201.5,-280.083C201.5,-273.006 201.5,-262.861 201.5,-253.986"/>
<polygon fill="midnightblue" stroke="midnightblue" points="205,-253.751 201.5,-243.751 198,-253.751 205,-253.751"/>
</g>
<!-- Node3 -->
<g id="node3" class="node"><title>Node3</title>
<polygon fill="none" stroke="#bfbfbf" points="0,-168.5 0,-187.5 37,-187.5 37,-168.5 0,-168.5"/>
<text text-anchor="middle" x="18.5" y="-175.5" font-family="Helvetica,sans-Serif" font-size="10.00">QDir</text>
</g>
<!-- Node2&#45;&gt;Node3 -->
<g id="edge2" class="edge"><title>Node2&#45;&gt;Node3</title>
<path fill="none" stroke="midnightblue" d="M171.13,-224.459C141.782,-216.144 95.8406,-202.971 46.9634,-188.078"/>
<polygon fill="midnightblue" stroke="midnightblue" points="47.7393,-184.655 37.1528,-185.077 45.6918,-191.349 47.7393,-184.655"/>
</g>
<!-- Node4 -->
<g id="node4" class="node"><title>Node4</title>
<polygon fill="none" stroke="#bfbfbf" points="55.5,-168.5 55.5,-187.5 95.5,-187.5 95.5,-168.5 55.5,-168.5"/>
<text text-anchor="middle" x="75.5" y="-175.5" font-family="Helvetica,sans-Serif" font-size="10.00">QFile</text>
</g>
<!-- Node2&#45;&gt;Node4 -->
<g id="edge3" class="edge"><title>Node2&#45;&gt;Node4</title>
<path fill="none" stroke="midnightblue" d="M181.535,-224.444C160.891,-215.596 128.437,-201.687 104.868,-191.586"/>
<polygon fill="midnightblue" stroke="midnightblue" points="105.942,-188.239 95.3717,-187.516 103.184,-194.673 105.942,-188.239"/>
</g>
<!-- Node5 -->
<g id="node5" class="node"><title>Node5</title>
<polygon fill="none" stroke="#bfbfbf" points="245.5,-112.5 245.5,-131.5 295.5,-131.5 295.5,-112.5 245.5,-112.5"/>
<text text-anchor="middle" x="270.5" y="-119.5" font-family="Helvetica,sans-Serif" font-size="10.00">QString</text>
</g>
<!-- Node2&#45;&gt;Node5 -->
<g id="edge4" class="edge"><title>Node2&#45;&gt;Node5</title>
<path fill="none" stroke="midnightblue" d="M239.242,-225.196C259.656,-218.845 283.156,-207.595 295.5,-188 305.016,-172.895 295.237,-153.59 285.256,-139.956"/>
<polygon fill="midnightblue" stroke="midnightblue" points="287.83,-137.569 278.869,-131.916 282.349,-141.923 287.83,-137.569"/>
</g>
<!-- Node6 -->
<g id="node6" class="node"><title>Node6</title>
<polygon fill="none" stroke="#bfbfbf" points="212,-168.5 212,-187.5 287,-187.5 287,-168.5 212,-168.5"/>
<text text-anchor="middle" x="249.5" y="-175.5" font-family="Helvetica,sans-Serif" font-size="10.00">QTextStream</text>
</g>
<!-- Node2&#45;&gt;Node6 -->
<g id="edge5" class="edge"><title>Node2&#45;&gt;Node6</title>
<path fill="none" stroke="midnightblue" d="M209.426,-224.083C216.346,-216.298 226.565,-204.801 234.952,-195.367"/>
<polygon fill="midnightblue" stroke="midnightblue" points="237.694,-197.55 241.721,-187.751 232.462,-192.9 237.694,-197.55"/>
</g>
<!-- Node7 -->
<g id="node7" class="node"><title>Node7</title>
<g id="a_node7"><a xlink:href="myexception_8h.html" target="_top" xlink:title="myexception.h">
<polygon fill="none" stroke="black" points="113.5,-168.5 113.5,-187.5 193.5,-187.5 193.5,-168.5 113.5,-168.5"/>
<text text-anchor="middle" x="153.5" y="-175.5" font-family="Helvetica,sans-Serif" font-size="10.00">myexception.h</text>
</a>
</g>
</g>
<!-- Node2&#45;&gt;Node7 -->
<g id="edge6" class="edge"><title>Node2&#45;&gt;Node7</title>
<path fill="none" stroke="midnightblue" d="M193.574,-224.083C186.654,-216.298 176.435,-204.801 168.048,-195.367"/>
<polygon fill="midnightblue" stroke="midnightblue" points="170.538,-192.9 161.279,-187.751 165.306,-197.55 170.538,-192.9"/>
</g>
<!-- Node9 -->
<g id="node9" class="node"><title>Node9</title>
<g id="a_node9"><a xlink:href="track_8h.html" target="_top" xlink:title="The class Track. ">
<polygon fill="none" stroke="black" points="484,-168.5 484,-187.5 531,-187.5 531,-168.5 484,-168.5"/>
<text text-anchor="middle" x="507.5" y="-175.5" font-family="Helvetica,sans-Serif" font-size="10.00">track.h</text>
</a>
</g>
</g>
<!-- Node2&#45;&gt;Node9 -->
<g id="edge8" class="edge"><title>Node2&#45;&gt;Node9</title>
<path fill="none" stroke="midnightblue" d="M239.022,-226.379C299.118,-215.773 416.041,-195.14 473.695,-184.966"/>
<polygon fill="midnightblue" stroke="midnightblue" points="474.504,-188.377 483.743,-183.192 473.287,-181.484 474.504,-188.377"/>
</g>
<!-- Node8 -->
<g id="node8" class="node"><title>Node8</title>
<polygon fill="none" stroke="#bfbfbf" points="124,-112.5 124,-131.5 183,-131.5 183,-112.5 124,-112.5"/>
<text text-anchor="middle" x="153.5" y="-119.5" font-family="Helvetica,sans-Serif" font-size="10.00">exception</text>
</g>
<!-- Node7&#45;&gt;Node8 -->
<g id="edge7" class="edge"><title>Node7&#45;&gt;Node8</title>
<path fill="none" stroke="midnightblue" d="M153.5,-168.083C153.5,-161.006 153.5,-150.861 153.5,-141.986"/>
<polygon fill="midnightblue" stroke="midnightblue" points="157,-141.751 153.5,-131.751 150,-141.751 157,-141.751"/>
</g>
<!-- Node9&#45;&gt;Node5 -->
<g id="edge16" class="edge"><title>Node9&#45;&gt;Node5</title>
<path fill="none" stroke="midnightblue" d="M483.721,-171.623C446.541,-163.208 372.382,-146.401 309.5,-132 308.243,-131.712 306.963,-131.419 305.67,-131.122"/>
<polygon fill="midnightblue" stroke="midnightblue" points="306.203,-127.653 295.672,-128.822 304.633,-134.475 306.203,-127.653"/>
</g>
<!-- Node10 -->
<g id="node10" class="node"><title>Node10</title>
<polygon fill="none" stroke="#bfbfbf" points="756,-112.5 756,-131.5 809,-131.5 809,-112.5 756,-112.5"/>
<text text-anchor="middle" x="782.5" y="-119.5" font-family="Helvetica,sans-Serif" font-size="10.00">QObject</text>
</g>
<!-- Node9&#45;&gt;Node10 -->
<g id="edge9" class="edge"><title>Node9&#45;&gt;Node10</title>
<path fill="none" stroke="midnightblue" d="M531.111,-173.108C572.615,-166.153 661.546,-150.741 745.807,-132.271"/>
<polygon fill="midnightblue" stroke="midnightblue" points="746.783,-135.639 755.791,-130.063 745.271,-128.805 746.783,-135.639"/>
</g>
<!-- Node11 -->
<g id="node11" class="node"><title>Node11</title>
<g id="a_node11"><a xlink:href="point_g_p_s_8h.html" target="_top" xlink:title="pointGPS.h">
<polygon fill="none" stroke="black" points="827,-112.5 827,-131.5 894,-131.5 894,-112.5 827,-112.5"/>
<text text-anchor="middle" x="860.5" y="-119.5" font-family="Helvetica,sans-Serif" font-size="10.00">pointGPS.h</text>
</a>
</g>
</g>
<!-- Node9&#45;&gt;Node11 -->
<g id="edge10" class="edge"><title>Node9&#45;&gt;Node11</title>
<path fill="none" stroke="midnightblue" d="M531.388,-174.101C582.103,-167.829 704.456,-152.07 816.498,-132.27"/>
<polygon fill="midnightblue" stroke="midnightblue" points="817.382,-135.668 826.613,-130.467 816.154,-128.777 817.382,-135.668"/>
</g>
<!-- Node14 -->
<g id="node14" class="node"><title>Node14</title>
<polygon fill="none" stroke="#bfbfbf" points="564.5,-0.5 564.5,-19.5 618.5,-19.5 618.5,-0.5 564.5,-0.5"/>
<text text-anchor="middle" x="591.5" y="-7.5" font-family="Helvetica,sans-Serif" font-size="10.00">iostream</text>
</g>
<!-- Node9&#45;&gt;Node14 -->
<g id="edge19" class="edge"><title>Node9&#45;&gt;Node14</title>
<path fill="none" stroke="midnightblue" d="M483.698,-175.055C437.825,-170.304 344.018,-155.153 371.5,-112 411.841,-48.657 503.052,-24.5331 554.463,-15.7395"/>
<polygon fill="midnightblue" stroke="midnightblue" points="555.173,-19.1706 564.493,-14.1325 554.065,-12.2588 555.173,-19.1706"/>
</g>
<!-- Node15 -->
<g id="node15" class="node"><title>Node15</title>
<polygon fill="none" stroke="#bfbfbf" points="500.5,-56.5 500.5,-75.5 544.5,-75.5 544.5,-56.5 500.5,-56.5"/>
<text text-anchor="middle" x="522.5" y="-63.5" font-family="Helvetica,sans-Serif" font-size="10.00">vector</text>
</g>
<!-- Node9&#45;&gt;Node15 -->
<g id="edge22" class="edge"><title>Node9&#45;&gt;Node15</title>
<path fill="none" stroke="midnightblue" d="M483.766,-174.231C439.685,-168.108 352.115,-150.771 380.5,-112 405.519,-77.8256 456.644,-68.9597 490.232,-67.007"/>
<polygon fill="midnightblue" stroke="midnightblue" points="490.616,-70.4944 500.466,-66.5926 490.333,-63.5002 490.616,-70.4944"/>
</g>
<!-- Node16 -->
<g id="node16" class="node"><title>Node16</title>
<polygon fill="none" stroke="#bfbfbf" points="390,-112.5 390,-131.5 457,-131.5 457,-112.5 390,-112.5"/>
<text text-anchor="middle" x="423.5" y="-119.5" font-family="Helvetica,sans-Serif" font-size="10.00">QDateTime</text>
</g>
<!-- Node9&#45;&gt;Node16 -->
<g id="edge15" class="edge"><title>Node9&#45;&gt;Node16</title>
<path fill="none" stroke="midnightblue" d="M494.004,-168.324C480.9,-159.9 460.788,-146.971 445.393,-137.074"/>
<polygon fill="midnightblue" stroke="midnightblue" points="447.267,-134.118 436.963,-131.655 443.482,-140.006 447.267,-134.118"/>
</g>
<!-- Node17 -->
<g id="node17" class="node"><title>Node17</title>
<polygon fill="none" stroke="#bfbfbf" points="475,-112.5 475,-131.5 540,-131.5 540,-112.5 475,-112.5"/>
<text text-anchor="middle" x="507.5" y="-119.5" font-family="Helvetica,sans-Serif" font-size="10.00">QStringList</text>
</g>
<!-- Node9&#45;&gt;Node17 -->
<g id="edge17" class="edge"><title>Node9&#45;&gt;Node17</title>
<path fill="none" stroke="midnightblue" d="M507.5,-168.083C507.5,-161.006 507.5,-150.861 507.5,-141.986"/>
<polygon fill="midnightblue" stroke="midnightblue" points="511,-141.751 507.5,-131.751 504,-141.751 511,-141.751"/>
</g>
<!-- Node18 -->
<g id="node18" class="node"><title>Node18</title>
<polygon fill="none" stroke="#bfbfbf" points="558.5,-112.5 558.5,-131.5 608.5,-131.5 608.5,-112.5 558.5,-112.5"/>
<text text-anchor="middle" x="583.5" y="-119.5" font-family="Helvetica,sans-Serif" font-size="10.00">fstream</text>
</g>
<!-- Node9&#45;&gt;Node18 -->
<g id="edge18" class="edge"><title>Node9&#45;&gt;Node18</title>
<path fill="none" stroke="midnightblue" d="M519.711,-168.324C531.276,-160.107 548.875,-147.602 562.661,-137.807"/>
<polygon fill="midnightblue" stroke="midnightblue" points="564.943,-140.479 571.067,-131.834 560.888,-134.773 564.943,-140.479"/>
</g>
<!-- Node19 -->
<g id="node19" class="node"><title>Node19</title>
<polygon fill="none" stroke="#bfbfbf" points="626.5,-112.5 626.5,-131.5 678.5,-131.5 678.5,-112.5 626.5,-112.5"/>
<text text-anchor="middle" x="652.5" y="-119.5" font-family="Helvetica,sans-Serif" font-size="10.00">sstream</text>
</g>
<!-- Node9&#45;&gt;Node19 -->
<g id="edge20" class="edge"><title>Node9&#45;&gt;Node19</title>
<path fill="none" stroke="midnightblue" d="M530.476,-168.444C554.657,-159.438 592.918,-145.189 620.146,-135.049"/>
<polygon fill="midnightblue" stroke="midnightblue" points="621.482,-138.286 629.632,-131.516 619.039,-131.727 621.482,-138.286"/>
</g>
<!-- Node20 -->
<g id="node20" class="node"><title>Node20</title>
<polygon fill="none" stroke="#bfbfbf" points="697,-112.5 697,-131.5 738,-131.5 738,-112.5 697,-112.5"/>
<text text-anchor="middle" x="717.5" y="-119.5" font-family="Helvetica,sans-Serif" font-size="10.00">string</text>
</g>
<!-- Node9&#45;&gt;Node20 -->
<g id="edge21" class="edge"><title>Node9&#45;&gt;Node20</title>
<path fill="none" stroke="midnightblue" d="M531.179,-171.451C563.931,-163.697 625.119,-148.924 686.954,-132.049"/>
<polygon fill="midnightblue" stroke="midnightblue" points="688.163,-135.347 696.88,-129.323 686.31,-128.596 688.163,-135.347"/>
</g>
<!-- Node12 -->
<g id="node12" class="node"><title>Node12</title>
<g id="a_node12"><a xlink:href="emissionprobability_8h.html" target="_top" xlink:title="emissionprobability.h">
<polygon fill="none" stroke="black" points="711.5,-56.5 711.5,-75.5 819.5,-75.5 819.5,-56.5 711.5,-56.5"/>
<text text-anchor="middle" x="765.5" y="-63.5" font-family="Helvetica,sans-Serif" font-size="10.00">emissionprobability.h</text>
</a>
</g>
</g>
<!-- Node11&#45;&gt;Node12 -->
<g id="edge11" class="edge"><title>Node11&#45;&gt;Node12</title>
<path fill="none" stroke="midnightblue" d="M845.237,-112.324C830.279,-103.822 807.245,-90.7288 789.773,-80.7975"/>
<polygon fill="midnightblue" stroke="midnightblue" points="791.149,-77.5534 780.726,-75.6545 787.69,-83.639 791.149,-77.5534"/>
</g>
<!-- Node13 -->
<g id="node13" class="node"><title>Node13</title>
<g id="a_node13"><a xlink:href="point_8h.html" target="_top" xlink:title="Class Point. ">
<polygon fill="none" stroke="black" points="837.5,-56.5 837.5,-75.5 883.5,-75.5 883.5,-56.5 837.5,-56.5"/>
<text text-anchor="middle" x="860.5" y="-63.5" font-family="Helvetica,sans-Serif" font-size="10.00">point.h</text>
</a>
</g>
</g>
<!-- Node11&#45;&gt;Node13 -->
<g id="edge12" class="edge"><title>Node11&#45;&gt;Node13</title>
<path fill="none" stroke="midnightblue" d="M860.5,-112.083C860.5,-105.006 860.5,-94.8611 860.5,-85.9865"/>
<polygon fill="midnightblue" stroke="midnightblue" points="864,-85.751 860.5,-75.7511 857,-85.7511 864,-85.751"/>
</g>
<!-- Node11&#45;&gt;Node15 -->
<g id="edge14" class="edge"><title>Node11&#45;&gt;Node15</title>
<path fill="none" stroke="midnightblue" d="M826.609,-113.554C823.869,-113.009 821.141,-112.483 818.5,-112 723.11,-94.5451 609.55,-78.6319 554.964,-71.2836"/>
<polygon fill="midnightblue" stroke="midnightblue" points="555.232,-67.7883 544.856,-69.9302 554.303,-74.7264 555.232,-67.7883"/>
</g>
<!-- Node13&#45;&gt;Node14 -->
<g id="edge13" class="edge"><title>Node13&#45;&gt;Node14</title>
<path fill="none" stroke="midnightblue" d="M837.49,-58.2715C834.476,-57.4659 831.421,-56.6868 828.5,-56 758.38,-39.515 675.503,-24.8688 628.662,-17.0316"/>
<polygon fill="midnightblue" stroke="midnightblue" points="629.112,-13.5584 618.673,-15.3724 627.965,-20.4638 629.112,-13.5584"/>
</g>
</g>
</svg>
