<?xml version="1.0" encoding="UTF-8" standalone="no"?>
<!DOCTYPE svg PUBLIC "-//W3C//DTD SVG 1.1//EN"
 "http://www.w3.org/Graphics/SVG/1.1/DTD/svg11.dtd">
<!-- Generated by graphviz version 2.38.0 (20140413.2041)
 -->
<!-- Title: sauvegarde.cpp Pages: 1 -->
<svg width="878pt" height="308pt"
 viewBox="0.00 0.00 877.79 308.00" xmlns="http://www.w3.org/2000/svg" xmlns:xlink="http://www.w3.org/1999/xlink">
<g id="graph0" class="graph" transform="scale(1 1) rotate(0) translate(4 304)">
<title>sauvegarde.cpp</title>
<!-- Node1 -->
<g id="node1" class="node"><title>Node1</title>
<polygon fill="#bfbfbf" stroke="black" points="158.5,-280.5 158.5,-299.5 244.5,-299.5 244.5,-280.5 158.5,-280.5"/>
<text text-anchor="middle" x="201.5" y="-287.5" font-family="Helvetica,sans-Serif" font-size="10.00">sauvegarde.cpp</text>
</g>
<!-- Node2 -->
<g id="node2" class="node"><title>Node2</title>
<g id="a_node2"><a xlink:href="sauvegarde_8h.html" target="_top" xlink:title="sauvegarde.h">
<polygon fill="none" stroke="black" points="164,-224.5 164,-243.5 239,-243.5 239,-224.5 164,-224.5"/>
<text text-anchor="middle" x="201.5" y="-231.5" font-family="Helvetica,sans-Serif" font-size="10.00">sauvegarde.h</text>
</a>
</g>
</g>
<!-- Node1&#45;&gt;Node2 -->
<g id="edge1" class="edge"><title>Node1&#45;&gt;Node2</title>
<path fill="none" stroke="midnightblue" d="M201.5,-280.083C201.5,-273.006 201.5,-262.861 201.5,-253.986"/>
<polygon fill="midnightblue" stroke="midnightblue" points="205,-253.751 201.5,-243.751 198,-253.751 205,-253.751"/>
</g>
<!-- Node3 -->
<g id="node3" class="node"><title>Node3</title>
<polygon fill="none" stroke="#bfbfbf" points="0,-168.5 0,-187.5 37,-187.5 37,-168.5 0,-168.5"/>
<text text-anchor="middle" x="18.5" y="-175.5" font-family="Helvetica,sans-Serif" font-size="10.00">QDir</text>
</g>
<!-- Node2&#45;&gt;Node3 -->
<g id="edge2" class="edge"><title>Node2&#45;&gt;Node3</title>
<path fill="none" stroke="midnightblue" d="M171.13,-224.459C141.782,-216.144 95.8406,-202.971 46.9634,-188.078"/>
<polygon fill="midnightblue" stroke="midnightblue" points="47.7393,-184.655 37.1528,-185.077 45.6918,-191.349 47.7393,-184.655"/>
</g>
<!-- Node4 -->
<g id="node4" class="node"><title>Node4</title>
<polygon fill="none" stroke="#bfbfbf" points="55.5,-168.5 55.5,-187.5 95.5,-187.5 95.5,-168.5 55.5,-168.5"/>
<text text-anchor="middle" x="75.5" y="-175.5" font-family="Helvetica,sans-Serif" font-size="10.00">QFile</text>
</g>
<!-- Node2&#45;&gt;Node4 -->
<g id="edge3" class="edge"><title>Node2&#45;&gt;Node4</title>
<path fill="none" stroke="midnightblue" d="M181.535,-224.444C160.891,-215.596 128.437,-201.687 104.868,-191.586"/>
<polygon fill="midnightblue" stroke="midnightblue" points="105.942,-188.239 95.3717,-187.516 103.184,-194.673 105.942,-188.239"/>
</g>
<!-- Node5 -->
<g id="node5" class="node"><title>Node5</title>
<polygon fill="none" stroke="#bfbfbf" points="245.5,-112.5 245.5,-131.5 295.5,-131.5 295.5,-112.5 245.5,-112.5"/>
<text text-anchor="middle" x="270.5" y="-119.5" font-family="Helvetica,sans-Serif" font-size="10.00">QString</text>
</g>
<!-- Node2&#45;&gt;Node5 -->
<g id="edge4" class="edge"><title>Node2&#45;&gt;Node5</title>
<path fill="none" stroke="midnightblue" d="M239.242,-225.196C259.656,-218.845 283.156,-207.595 295.5,-188 305.016,-172.895 295.237,-153.59 285.256,-139.956"/>
<polygon fill="midnightblue" stroke="midnightblue" points="287.83,-137.569 278.869,-131.916 282.349,-141.923 287.83,-137.569"/>
</g>
<!-- Node6 -->
<g id="node6" class="node"><title>Node6</title>
<polygon fill="none" stroke="#bfbfbf" points="212,-168.5 212,-187.5 287,-187.5 287,-168.5 212,-168.5"/>
<text text-anchor="middle" x="249.5" y="-175.5" font-family="Helvetica,sans-Serif" font-size="10.00">QTextStream</text>
</g>
<!-- Node2&#45;&gt;Node6 -->
<g id="edge5" class="edge"><title>Node2&#45;&gt;Node6</title>
<path fill="none" stroke="midnightblue" d="M209.426,-224.083C216.346,-216.298 226.565,-204.801 234.952,-195.367"/>
<polygon fill="midnightblue" stroke="midnightblue" points="237.694,-197.55 241.721,-187.751 232.462,-192.9 237.694,-197.55"/>
</g>
<!-- Node7 -->
<g id="node7" class="node"><title>Node7</title>
<g id="a_node7"><a xlink:href="myexception_8h.html" target="_top" xlink:title="myexception.h">
<polygon fill="none" stroke="black" points="113.5,-168.5 113.5,-187.5 193.5,-187.5 193.5,-168.5 113.5,-168.5"/>
<text text-anchor="middle" x="153.5" y="-175.5" font-family="Helvetica,sans-Serif" font-size="10.00">myexception.h</text>
</a>
</g>
</g>
<!-- Node2&#45;&gt;Node7 -->
<g id="edge6" class="edge"><title>Node2&#45;&gt;Node7</title>
<path fill="none" stroke="midnightblue" d="M193.574,-224.083C186.654,-216.298 176.435,-204.801 168.048,-195.367"/>
<polygon fill="midnightblue" stroke="midnightblue" points="170.538,-192.9 161.279,-187.751 165.306,-197.55 170.538,-192.9"/>
</g>
<!-- Node9 -->
<g id="node9" class="node"><title>Node9</title>
<g id="a_node9"><a xlink:href="track_8h.html" target="_top" xlink:title="The class Track. ">
<polygon fill="none" stroke="black" points="531,-168.5 531,-187.5 578,-187.5 578,-168.5 531,-168.5"/>
<text text-anchor="middle" x="554.5" y="-175.5" font-family="Helvetica,sans-Serif" font-size="10.00">track.h</text>
</a>
</g>
</g>
<!-- Node2&#45;&gt;Node9 -->
<g id="edge8" class="edge"><title>Node2&#45;&gt;Node9</title>
<path fill="none" stroke="midnightblue" d="M239.277,-227.221C308.497,-216.632 454.615,-194.28 520.735,-184.165"/>
<polygon fill="midnightblue" stroke="midnightblue" points="521.28,-187.623 530.635,-182.651 520.221,-180.703 521.28,-187.623"/>
</g>
<!-- Node8 -->
<g id="node8" class="node"><title>Node8</title>
<polygon fill="none" stroke="#bfbfbf" points="124,-112.5 124,-131.5 183,-131.5 183,-112.5 124,-112.5"/>
<text text-anchor="middle" x="153.5" y="-119.5" font-family="Helvetica,sans-Serif" font-size="10.00">exception</text>
</g>
<!-- Node7&#45;&gt;Node8 -->
<g id="edge7" class="edge"><title>Node7&#45;&gt;Node8</title>
<path fill="none" stroke="midnightblue" d="M153.5,-168.083C153.5,-161.006 153.5,-150.861 153.5,-141.986"/>
<polygon fill="midnightblue" stroke="midnightblue" points="157,-141.751 153.5,-131.751 150,-141.751 157,-141.751"/>
</g>
<!-- Node9&#45;&gt;Node5 -->
<g id="edge17" class="edge"><title>Node9&#45;&gt;Node5</title>
<path fill="none" stroke="midnightblue" d="M530.78,-173.01C486.954,-165.556 390.384,-148.752 309.5,-132 308.237,-131.738 306.952,-131.467 305.655,-131.19"/>
<polygon fill="midnightblue" stroke="midnightblue" points="306.158,-127.717 295.639,-128.977 304.648,-134.552 306.158,-127.717"/>
</g>
<!-- Node10 -->
<g id="node10" class="node"><title>Node10</title>
<polygon fill="none" stroke="#bfbfbf" points="803,-112.5 803,-131.5 856,-131.5 856,-112.5 803,-112.5"/>
<text text-anchor="middle" x="829.5" y="-119.5" font-family="Helvetica,sans-Serif" font-size="10.00">QObject</text>
</g>
<!-- Node9&#45;&gt;Node10 -->
<g id="edge9" class="edge"><title>Node9&#45;&gt;Node10</title>
<path fill="none" stroke="midnightblue" d="M578.111,-173.108C619.615,-166.153 708.546,-150.741 792.807,-132.271"/>
<polygon fill="midnightblue" stroke="midnightblue" points="793.783,-135.639 802.791,-130.063 792.271,-128.805 793.783,-135.639"/>
</g>
<!-- Node11 -->
<g id="node11" class="node"><title>Node11</title>
<g id="a_node11"><a xlink:href="point_g_p_s_8h.html" target="_top" xlink:title="pointGPS.h">
<polygon fill="none" stroke="black" points="352,-112.5 352,-131.5 419,-131.5 419,-112.5 352,-112.5"/>
<text text-anchor="middle" x="385.5" y="-119.5" font-family="Helvetica,sans-Serif" font-size="10.00">pointGPS.h</text>
</a>
</g>
</g>
<!-- Node9&#45;&gt;Node11 -->
<g id="edge10" class="edge"><title>Node9&#45;&gt;Node11</title>
<path fill="none" stroke="midnightblue" d="M530.645,-169.378C502.362,-160.341 454.922,-145.182 422.011,-134.666"/>
<polygon fill="midnightblue" stroke="midnightblue" points="422.892,-131.273 412.301,-131.564 420.761,-137.941 422.892,-131.273"/>
</g>
<!-- Node14 -->
<g id="node14" class="node"><title>Node14</title>
<polygon fill="none" stroke="#bfbfbf" points="314.5,-0.5 314.5,-19.5 368.5,-19.5 368.5,-0.5 314.5,-0.5"/>
<text text-anchor="middle" x="341.5" y="-7.5" font-family="Helvetica,sans-Serif" font-size="10.00">iostream</text>
</g>
<!-- Node9&#45;&gt;Node14 -->
<g id="edge20" class="edge"><title>Node9&#45;&gt;Node14</title>
<path fill="none" stroke="midnightblue" d="M530.794,-175.586C480.574,-172.047 366.125,-160.921 342.5,-132 318.661,-102.817 327.738,-55.1241 335.308,-29.1882"/>
<polygon fill="midnightblue" stroke="midnightblue" points="338.686,-30.1121 338.359,-19.5223 332.011,-28.0047 338.686,-30.1121"/>
</g>
<!-- Node15 -->
<g id="node15" class="node"><title>Node15</title>
<polygon fill="none" stroke="#bfbfbf" points="403.5,-0.5 403.5,-19.5 447.5,-19.5 447.5,-0.5 403.5,-0.5"/>
<text text-anchor="middle" x="425.5" y="-7.5" font-family="Helvetica,sans-Serif" font-size="10.00">vector</text>
</g>
<!-- Node9&#45;&gt;Node15 -->
<g id="edge23" class="edge"><title>Node9&#45;&gt;Node15</title>
<path fill="none" stroke="midnightblue" d="M578.326,-177.365C644.511,-177.82 828.186,-175.102 865.5,-132 871.318,-125.28 871.038,-118.953 865.5,-112 814.187,-47.5733 550.546,-20.8568 457.812,-13.3568"/>
<polygon fill="midnightblue" stroke="midnightblue" points="457.868,-9.85052 447.624,-12.5552 457.319,-16.8289 457.868,-9.85052"/>
</g>
<!-- Node16 -->
<g id="node16" class="node"><title>Node16</title>
<polygon fill="none" stroke="#bfbfbf" points="437,-112.5 437,-131.5 504,-131.5 504,-112.5 437,-112.5"/>
<text text-anchor="middle" x="470.5" y="-119.5" font-family="Helvetica,sans-Serif" font-size="10.00">QDateTime</text>
</g>
<!-- Node9&#45;&gt;Node16 -->
<g id="edge16" class="edge"><title>Node9&#45;&gt;Node16</title>
<path fill="none" stroke="midnightblue" d="M541.004,-168.324C527.9,-159.9 507.788,-146.971 492.393,-137.074"/>
<polygon fill="midnightblue" stroke="midnightblue" points="494.267,-134.118 483.963,-131.655 490.482,-140.006 494.267,-134.118"/>
</g>
<!-- Node17 -->
<g id="node17" class="node"><title>Node17</title>
<polygon fill="none" stroke="#bfbfbf" points="522,-112.5 522,-131.5 587,-131.5 587,-112.5 522,-112.5"/>
<text text-anchor="middle" x="554.5" y="-119.5" font-family="Helvetica,sans-Serif" font-size="10.00">QStringList</text>
</g>
<!-- Node9&#45;&gt;Node17 -->
<g id="edge18" class="edge"><title>Node9&#45;&gt;Node17</title>
<path fill="none" stroke="midnightblue" d="M554.5,-168.083C554.5,-161.006 554.5,-150.861 554.5,-141.986"/>
<polygon fill="midnightblue" stroke="midnightblue" points="558,-141.751 554.5,-131.751 551,-141.751 558,-141.751"/>
</g>
<!-- Node18 -->
<g id="node18" class="node"><title>Node18</title>
<polygon fill="none" stroke="#bfbfbf" points="605.5,-112.5 605.5,-131.5 655.5,-131.5 655.5,-112.5 605.5,-112.5"/>
<text text-anchor="middle" x="630.5" y="-119.5" font-family="Helvetica,sans-Serif" font-size="10.00">fstream</text>
</g>
<!-- Node9&#45;&gt;Node18 -->
<g id="edge19" class="edge"><title>Node9&#45;&gt;Node18</title>
<path fill="none" stroke="midnightblue" d="M566.711,-168.324C578.276,-160.107 595.875,-147.602 609.661,-137.807"/>
<polygon fill="midnightblue" stroke="midnightblue" points="611.943,-140.479 618.067,-131.834 607.888,-134.773 611.943,-140.479"/>
</g>
<!-- Node19 -->
<g id="node19" class="node"><title>Node19</title>
<polygon fill="none" stroke="#bfbfbf" points="673.5,-112.5 673.5,-131.5 725.5,-131.5 725.5,-112.5 673.5,-112.5"/>
<text text-anchor="middle" x="699.5" y="-119.5" font-family="Helvetica,sans-Serif" font-size="10.00">sstream</text>
</g>
<!-- Node9&#45;&gt;Node19 -->
<g id="edge21" class="edge"><title>Node9&#45;&gt;Node19</title>
<path fill="none" stroke="midnightblue" d="M577.476,-168.444C601.657,-159.438 639.918,-145.189 667.146,-135.049"/>
<polygon fill="midnightblue" stroke="midnightblue" points="668.482,-138.286 676.632,-131.516 666.039,-131.727 668.482,-138.286"/>
</g>
<!-- Node20 -->
<g id="node20" class="node"><title>Node20</title>
<polygon fill="none" stroke="#bfbfbf" points="744,-112.5 744,-131.5 785,-131.5 785,-112.5 744,-112.5"/>
<text text-anchor="middle" x="764.5" y="-119.5" font-family="Helvetica,sans-Serif" font-size="10.00">string</text>
</g>
<!-- Node9&#45;&gt;Node20 -->
<g id="edge22" class="edge"><title>Node9&#45;&gt;Node20</title>
<path fill="none" stroke="midnightblue" d="M578.179,-171.451C610.931,-163.697 672.119,-148.924 733.954,-132.049"/>
<polygon fill="midnightblue" stroke="midnightblue" points="735.163,-135.347 743.88,-129.323 733.31,-128.596 735.163,-135.347"/>
</g>
<!-- Node12 -->
<g id="node12" class="node"><title>Node12</title>
<g id="a_node12"><a xlink:href="emissionprobability_8h.html" target="_top" xlink:title="emissionprobability.h">
<polygon fill="none" stroke="black" points="453.5,-56.5 453.5,-75.5 561.5,-75.5 561.5,-56.5 453.5,-56.5"/>
<text text-anchor="middle" x="507.5" y="-63.5" font-family="Helvetica,sans-Serif" font-size="10.00">emissionprobability.h</text>
</a>
</g>
</g>
<!-- Node11&#45;&gt;Node12 -->
<g id="edge11" class="edge"><title>Node11&#45;&gt;Node12</title>
<path fill="none" stroke="midnightblue" d="M404.831,-112.444C424.82,-103.596 456.243,-89.6875 479.064,-79.5865"/>
<polygon fill="midnightblue" stroke="midnightblue" points="480.532,-82.7645 488.259,-75.5164 477.698,-76.3635 480.532,-82.7645"/>
</g>
<!-- Node13 -->
<g id="node13" class="node"><title>Node13</title>
<g id="a_node13"><a xlink:href="point_8h.html" target="_top" xlink:title="Class Point. ">
<polygon fill="none" stroke="black" points="351.5,-56.5 351.5,-75.5 397.5,-75.5 397.5,-56.5 351.5,-56.5"/>
<text text-anchor="middle" x="374.5" y="-63.5" font-family="Helvetica,sans-Serif" font-size="10.00">point.h</text>
</a>
</g>
</g>
<!-- Node11&#45;&gt;Node13 -->
<g id="edge12" class="edge"><title>Node11&#45;&gt;Node13</title>
<path fill="none" stroke="midnightblue" d="M383.684,-112.083C382.226,-104.927 380.129,-94.6353 378.307,-85.6911"/>
<polygon fill="midnightblue" stroke="midnightblue" points="381.708,-84.8512 376.283,-75.7511 374.849,-86.2485 381.708,-84.8512"/>
</g>
<!-- Node11&#45;&gt;Node15 -->
<g id="edge15" class="edge"><title>Node11&#45;&gt;Node15</title>
<path fill="none" stroke="midnightblue" d="M390.092,-112.207C394.647,-103.259 401.634,-88.9074 406.5,-76 412.332,-60.5296 417.49,-42.4418 420.955,-29.2804"/>
<polygon fill="midnightblue" stroke="midnightblue" points="424.357,-30.1046 423.444,-19.5491 417.575,-28.3695 424.357,-30.1046"/>
</g>
<!-- Node13&#45;&gt;Node14 -->
<g id="edge13" class="edge"><title>Node13&#45;&gt;Node14</title>
<path fill="none" stroke="midnightblue" d="M369.051,-56.083C364.486,-48.6127 357.832,-37.7244 352.207,-28.5199"/>
<polygon fill="midnightblue" stroke="midnightblue" points="355.049,-26.4588 346.848,-19.7511 349.076,-30.109 355.049,-26.4588"/>
</g>
<!-- Node13&#45;&gt;Node15 -->
<g id="edge14" class="edge"><title>Node13&#45;&gt;Node15</title>
<path fill="none" stroke="midnightblue" d="M382.922,-56.083C390.348,-48.2195 401.352,-36.5688 410.312,-27.0813"/>
<polygon fill="midnightblue" stroke="midnightblue" points="412.913,-29.4244 417.235,-19.7511 407.824,-24.618 412.913,-29.4244"/>
</g>
</g>
</svg>
