<?xml version="1.0" encoding="UTF-8" standalone="no"?>
<!DOCTYPE svg PUBLIC "-//W3C//DTD SVG 1.1//EN"
 "http://www.w3.org/Graphics/SVG/1.1/DTD/svg11.dtd">
<!-- Generated by graphviz version 2.38.0 (20140413.2041)
 -->
<!-- Title: solver.h Pages: 1 -->
<svg width="275pt" height="196pt"
 viewBox="0.00 0.00 274.91 196.00" xmlns="http://www.w3.org/2000/svg" xmlns:xlink="http://www.w3.org/1999/xlink">
<g id="graph0" class="graph" transform="scale(1 1) rotate(0) translate(4 192)">
<title>solver.h</title>
<!-- Node1 -->
<g id="node1" class="node"><title>Node1</title>
<polygon fill="#bfbfbf" stroke="black" points="120.413,-168.5 120.413,-187.5 171.413,-187.5 171.413,-168.5 120.413,-168.5"/>
<text text-anchor="middle" x="145.913" y="-175.5" font-family="Helvetica,sans-Serif" font-size="10.00">solver.h</text>
</g>
<!-- Node2 -->
<g id="node2" class="node"><title>Node2</title>
<g id="a_node2"><a xlink:href="controller_8h.html" target="_top" xlink:title="controller.h">
<polygon fill="none" stroke="black" points="83.4131,-112.5 83.4131,-131.5 148.413,-131.5 148.413,-112.5 83.4131,-112.5"/>
<text text-anchor="middle" x="115.913" y="-119.5" font-family="Helvetica,sans-Serif" font-size="10.00">controller.h</text>
</a>
</g>
</g>
<!-- Node1&#45;&gt;Node2 -->
<g id="edge1" class="edge"><title>Node1&#45;&gt;Node2</title>
<path fill="none" stroke="midnightblue" d="M136.066,-159.275C130.938,-150.045 124.897,-139.17 120.775,-131.751"/>
<polygon fill="midnightblue" stroke="midnightblue" points="133.043,-161.041 140.959,-168.083 139.162,-157.642 133.043,-161.041"/>
</g>
<!-- Node4 -->
<g id="node4" class="node"><title>Node4</title>
<g id="a_node4"><a xlink:href="main_8cpp.html" target="_top" xlink:title="main.cpp">
<polygon fill="none" stroke="black" points="75.9131,-0.5 75.9131,-19.5 131.913,-19.5 131.913,-0.5 75.9131,-0.5"/>
<text text-anchor="middle" x="103.913" y="-7.5" font-family="Helvetica,sans-Serif" font-size="10.00">main.cpp</text>
</a>
</g>
</g>
<!-- Node1&#45;&gt;Node4 -->
<g id="edge8" class="edge"><title>Node1&#45;&gt;Node4</title>
<path fill="none" stroke="midnightblue" d="M112.256,-164.641C77.2794,-149.714 24.671,-120.872 2.9131,-76 -13.099,-42.9775 40.6438,-24.6383 75.7968,-16.4011"/>
<polygon fill="midnightblue" stroke="midnightblue" points="111.033,-167.923 121.613,-168.484 113.692,-161.448 111.033,-167.923"/>
</g>
<!-- Node5 -->
<g id="node5" class="node"><title>Node5</title>
<g id="a_node5"><a xlink:href="_main_window_8h.html" target="_top" xlink:title="MainWindow.h">
<polygon fill="none" stroke="black" points="144.413,-56.5 144.413,-75.5 225.413,-75.5 225.413,-56.5 144.413,-56.5"/>
<text text-anchor="middle" x="184.913" y="-63.5" font-family="Helvetica,sans-Serif" font-size="10.00">MainWindow.h</text>
</a>
</g>
</g>
<!-- Node1&#45;&gt;Node5 -->
<g id="edge7" class="edge"><title>Node1&#45;&gt;Node5</title>
<path fill="none" stroke="midnightblue" d="M152.41,-158.674C160.937,-134.625 175.557,-93.3881 181.867,-75.5914"/>
<polygon fill="midnightblue" stroke="midnightblue" points="149.016,-157.774 148.973,-168.368 155.614,-160.113 149.016,-157.774"/>
</g>
<!-- Node7 -->
<g id="node7" class="node"><title>Node7</title>
<g id="a_node7"><a xlink:href="solver_8cpp.html" target="_top" xlink:title="solver.cpp">
<polygon fill="none" stroke="black" points="204.913,-112.5 204.913,-131.5 266.913,-131.5 266.913,-112.5 204.913,-112.5"/>
<text text-anchor="middle" x="235.913" y="-119.5" font-family="Helvetica,sans-Serif" font-size="10.00">solver.cpp</text>
</a>
</g>
</g>
<!-- Node1&#45;&gt;Node7 -->
<g id="edge9" class="edge"><title>Node1&#45;&gt;Node7</title>
<path fill="none" stroke="midnightblue" d="M168.951,-163.177C185.512,-153.241 207.331,-140.149 221.489,-131.655"/>
<polygon fill="midnightblue" stroke="midnightblue" points="167.147,-160.178 160.373,-168.324 170.749,-166.18 167.147,-160.178"/>
</g>
<!-- Node3 -->
<g id="node3" class="node"><title>Node3</title>
<g id="a_node3"><a xlink:href="controller_8cpp.html" target="_top" xlink:title="controller.cpp">
<polygon fill="none" stroke="black" points="12.4131,-56.5 12.4131,-75.5 87.4131,-75.5 87.4131,-56.5 12.4131,-56.5"/>
<text text-anchor="middle" x="49.9131" y="-63.5" font-family="Helvetica,sans-Serif" font-size="10.00">controller.cpp</text>
</a>
</g>
</g>
<!-- Node2&#45;&gt;Node3 -->
<g id="edge2" class="edge"><title>Node2&#45;&gt;Node3</title>
<path fill="none" stroke="midnightblue" d="M97.3594,-105.82C85.535,-96.1452 70.6275,-83.9481 60.7101,-75.8339"/>
<polygon fill="midnightblue" stroke="midnightblue" points="95.3531,-108.7 105.309,-112.324 99.7858,-103.283 95.3531,-108.7"/>
</g>
<!-- Node2&#45;&gt;Node4 -->
<g id="edge3" class="edge"><title>Node2&#45;&gt;Node4</title>
<path fill="none" stroke="midnightblue" d="M113.878,-102.348C111.25,-78.2538 106.783,-37.3079 104.85,-19.5914"/>
<polygon fill="midnightblue" stroke="midnightblue" points="110.408,-102.807 114.971,-112.368 117.366,-102.048 110.408,-102.807"/>
</g>
<!-- Node2&#45;&gt;Node5 -->
<g id="edge4" class="edge"><title>Node2&#45;&gt;Node5</title>
<path fill="none" stroke="midnightblue" d="M134.951,-106.101C147.369,-96.3824 163.156,-84.0269 173.625,-75.8339"/>
<polygon fill="midnightblue" stroke="midnightblue" points="132.717,-103.405 126.999,-112.324 137.031,-108.917 132.717,-103.405"/>
</g>
<!-- Node5&#45;&gt;Node4 -->
<g id="edge5" class="edge"><title>Node5&#45;&gt;Node4</title>
<path fill="none" stroke="midnightblue" d="M163.346,-50.6221C148.549,-40.7574 129.401,-27.9919 116.895,-19.6545"/>
<polygon fill="midnightblue" stroke="midnightblue" points="161.637,-53.6891 171.899,-56.324 165.52,-47.8647 161.637,-53.6891"/>
</g>
<!-- Node6 -->
<g id="node6" class="node"><title>Node6</title>
<g id="a_node6"><a xlink:href="_main_window_8cpp.html" target="_top" xlink:title="MainWindow.cpp">
<polygon fill="none" stroke="black" points="149.913,-0.5 149.913,-19.5 241.913,-19.5 241.913,-0.5 149.913,-0.5"/>
<text text-anchor="middle" x="195.913" y="-7.5" font-family="Helvetica,sans-Serif" font-size="10.00">MainWindow.cpp</text>
</a>
</g>
</g>
<!-- Node5&#45;&gt;Node6 -->
<g id="edge6" class="edge"><title>Node5&#45;&gt;Node6</title>
<path fill="none" stroke="midnightblue" d="M188.763,-46.1005C190.589,-37.1357 192.683,-26.8579 194.13,-19.7511"/>
<polygon fill="midnightblue" stroke="midnightblue" points="185.296,-45.5856 186.73,-56.083 192.155,-46.9829 185.296,-45.5856"/>
</g>
</g>
</svg>
