<?xml version="1.0" encoding="UTF-8" standalone="no"?>
<!DOCTYPE svg PUBLIC "-//W3C//DTD SVG 1.1//EN"
 "http://www.w3.org/Graphics/SVG/1.1/DTD/svg11.dtd">
<!-- Generated by graphviz version 2.38.0 (20140413.2041)
 -->
<!-- Title: solver.h Pages: 1 -->
<!--zoomable 308 -->
<svg id="main" version="1.1" xmlns="http://www.w3.org/2000/svg" xmlns:xlink="http://www.w3.org/1999/xlink" xml:space="preserve" onload="init(evt)">
<style type="text/css"><![CDATA[
.edge:hover path { stroke: red; }
.edge:hover polygon { stroke: red; fill: red; }
]]></style>
<script type="text/javascript"><![CDATA[
var edges = document.getElementsByTagName('g');
if (edges && edges.length) {
  for (var i=0;i<edges.length;i++) {
    if (edges[i].id.substr(0,4)=='edge') {
      edges[i].setAttribute('class','edge');
    }
  }
}
]]></script>
        <defs>
                <circle id="rim" cx="0" cy="0" r="7"/>
                <circle id="rim2" cx="0" cy="0" r="3.5"/>
                <g id="zoomPlus">
                        <use xlink:href="#rim" fill="#404040">
                                <set attributeName="fill" to="#808080" begin="zoomplus.mouseover" end="zoomplus.mouseout"/>
                        </use>
                        <path d="M-4,0h8M0,-4v8" fill="none" stroke="white" stroke-width="1.5" pointer-events="none"/>
                </g>
                <g id="zoomMin">
                        <use xlink:href="#rim" fill="#404040">
                                <set attributeName="fill" to="#808080" begin="zoomminus.mouseover" end="zoomminus.mouseout"/>
                        </use>
                        <path d="M-4,0h8" fill="none" stroke="white" stroke-width="1.5" pointer-events="none"/>
                </g>
                <g id="dirArrow">
                        <path fill="none" stroke="white" stroke-width="1.5" d="M0,-3.0v7 M-2.5,-0.5L0,-3.0L2.5,-0.5"/>
                </g>
               <g id="resetDef">
                       <use xlink:href="#rim2" fill="#404040">
                               <set attributeName="fill" to="#808080" begin="reset.mouseover" end="reset.mouseout"/>
                       </use>
               </g>
        </defs>

<script type="text/javascript">
var viewWidth = 774;
var viewHeight = 308;
var sectionId = 'dynsection-0';
</script>
<script xlink:href="svgpan.js"/>
<svg id="graph" class="graph">
<g id="viewport">
<title>solver.h</title>
<!-- Node1 -->
<g id="node1" class="node"><title>Node1</title>
<polygon fill="#bfbfbf" stroke="black" points="585.844,-280.5 585.844,-299.5 636.844,-299.5 636.844,-280.5 585.844,-280.5"/>
<text text-anchor="middle" x="611.344" y="-287.5" font-family="Helvetica,sans-Serif" font-size="10.00">solver.h</text>
</g>
<!-- Node2 -->
<g id="node2" class="node"><title>Node2</title>
<g id="a_node2"><a xlink:href="point_g_p_s_8h.html" target="_top" xlink:title="pointGPS.h">
<polygon fill="none" stroke="black" points="646.844,-112.5 646.844,-131.5 713.844,-131.5 713.844,-112.5 646.844,-112.5"/>
<text text-anchor="middle" x="680.344" y="-119.5" font-family="Helvetica,sans-Serif" font-size="10.00">pointGPS.h</text>
</a>
</g>
</g>
<!-- Node1&#45;&gt;Node2 -->
<g id="edge1" class="edge"><title>Node1&#45;&gt;Node2</title>
<path fill="none" stroke="midnightblue" d="M615.053,-280.075C625.962,-253.832 658.087,-176.545 672.813,-141.117"/>
<polygon fill="midnightblue" stroke="midnightblue" points="676.176,-142.146 676.782,-131.568 669.712,-139.459 676.176,-142.146"/>
</g>
<!-- Node6 -->
<g id="node6" class="node"><title>Node6</title>
<polygon fill="none" stroke="#bfbfbf" points="494.344,-56.5 494.344,-75.5 538.344,-75.5 538.344,-56.5 494.344,-56.5"/>
<text text-anchor="middle" x="516.344" y="-63.5" font-family="Helvetica,sans-Serif" font-size="10.00">vector</text>
</g>
<!-- Node1&#45;&gt;Node6 -->
<g id="edge26" class="edge"><title>Node1&#45;&gt;Node6</title>
<path fill="none" stroke="midnightblue" d="M585.569,-286.487C479.287,-275.543 77.213,-228.205 4.34372,-132 -1.02327,-124.914 -1.66022,-118.555 4.34372,-112 36.7562,-76.6138 376.208,-68.923 483.813,-67.369"/>
<polygon fill="midnightblue" stroke="midnightblue" points="484.106,-70.8655 494.058,-67.2298 484.011,-63.8661 484.106,-70.8655"/>
</g>
<!-- Node7 -->
<g id="node7" class="node"><title>Node7</title>
<g id="a_node7"><a xlink:href="pointroad_8h.html" target="_top" xlink:title="pointroad.h">
<polygon fill="none" stroke="black" points="563.844,-112.5 563.844,-131.5 628.844,-131.5 628.844,-112.5 563.844,-112.5"/>
<text text-anchor="middle" x="596.344" y="-119.5" font-family="Helvetica,sans-Serif" font-size="10.00">pointroad.h</text>
</a>
</g>
</g>
<!-- Node1&#45;&gt;Node7 -->
<g id="edge6" class="edge"><title>Node1&#45;&gt;Node7</title>
<path fill="none" stroke="midnightblue" d="M610.537,-280.075C608.176,-253.945 601.242,-177.211 598.022,-141.577"/>
<polygon fill="midnightblue" stroke="midnightblue" points="601.504,-141.213 597.118,-131.568 594.532,-141.843 601.504,-141.213"/>
</g>
<!-- Node8 -->
<g id="node8" class="node"><title>Node8</title>
<g id="a_node8"><a xlink:href="road_8h.html" target="_top" xlink:title="road.h">
<polygon fill="none" stroke="black" points="432.344,-224.5 432.344,-243.5 476.344,-243.5 476.344,-224.5 432.344,-224.5"/>
<text text-anchor="middle" x="454.344" y="-231.5" font-family="Helvetica,sans-Serif" font-size="10.00">road.h</text>
</a>
</g>
</g>
<!-- Node1&#45;&gt;Node8 -->
<g id="edge10" class="edge"><title>Node1&#45;&gt;Node8</title>
<path fill="none" stroke="midnightblue" d="M586.467,-280.444C559.278,-271.092 515.649,-256.086 486.03,-245.898"/>
<polygon fill="midnightblue" stroke="midnightblue" points="487.161,-242.586 476.566,-242.643 484.884,-249.206 487.161,-242.586"/>
</g>
<!-- Node17 -->
<g id="node17" class="node"><title>Node17</title>
<polygon fill="none" stroke="#bfbfbf" points="677.844,-224.5 677.844,-243.5 760.844,-243.5 760.844,-224.5 677.844,-224.5"/>
<text text-anchor="middle" x="719.344" y="-231.5" font-family="Helvetica,sans-Serif" font-size="10.00">unordered_map</text>
</g>
<!-- Node1&#45;&gt;Node17 -->
<g id="edge25" class="edge"><title>Node1&#45;&gt;Node17</title>
<path fill="none" stroke="midnightblue" d="M628.696,-280.324C646.016,-271.664 672.859,-258.242 692.846,-248.249"/>
<polygon fill="midnightblue" stroke="midnightblue" points="694.656,-251.257 702.035,-243.655 691.525,-244.996 694.656,-251.257"/>
</g>
<!-- Node3 -->
<g id="node3" class="node"><title>Node3</title>
<g id="a_node3"><a xlink:href="emissionprobability_8h.html" target="_top" xlink:title="emissionprobability.h">
<polygon fill="none" stroke="black" points="658.344,-56.5 658.344,-75.5 766.344,-75.5 766.344,-56.5 658.344,-56.5"/>
<text text-anchor="middle" x="712.344" y="-63.5" font-family="Helvetica,sans-Serif" font-size="10.00">emissionprobability.h</text>
</a>
</g>
</g>
<!-- Node2&#45;&gt;Node3 -->
<g id="edge2" class="edge"><title>Node2&#45;&gt;Node3</title>
<path fill="none" stroke="midnightblue" d="M685.628,-112.083C690.055,-104.613 696.507,-93.7244 701.962,-84.5199"/>
<polygon fill="midnightblue" stroke="midnightblue" points="705.071,-86.1383 707.158,-75.7511 699.049,-82.5697 705.071,-86.1383"/>
</g>
<!-- Node4 -->
<g id="node4" class="node"><title>Node4</title>
<g id="a_node4"><a xlink:href="point_8h.html" target="_top" xlink:title="Class Point. ">
<polygon fill="none" stroke="black" points="594.344,-56.5 594.344,-75.5 640.344,-75.5 640.344,-56.5 594.344,-56.5"/>
<text text-anchor="middle" x="617.344" y="-63.5" font-family="Helvetica,sans-Serif" font-size="10.00">point.h</text>
</a>
</g>
</g>
<!-- Node2&#45;&gt;Node4 -->
<g id="edge3" class="edge"><title>Node2&#45;&gt;Node4</title>
<path fill="none" stroke="midnightblue" d="M670.222,-112.324C660.817,-104.263 646.6,-92.0765 635.275,-82.3695"/>
<polygon fill="midnightblue" stroke="midnightblue" points="637.52,-79.6844 627.65,-75.8339 632.965,-84.9993 637.52,-79.6844"/>
</g>
<!-- Node2&#45;&gt;Node6 -->
<g id="edge5" class="edge"><title>Node2&#45;&gt;Node6</title>
<path fill="none" stroke="midnightblue" d="M654.357,-112.444C625.632,-102.985 579.338,-87.7421 548.387,-77.551"/>
<polygon fill="midnightblue" stroke="midnightblue" points="549.12,-74.1073 538.527,-74.3042 546.93,-80.7562 549.12,-74.1073"/>
</g>
<!-- Node5 -->
<g id="node5" class="node"><title>Node5</title>
<polygon fill="none" stroke="#bfbfbf" points="539.344,-0.5 539.344,-19.5 593.344,-19.5 593.344,-0.5 539.344,-0.5"/>
<text text-anchor="middle" x="566.344" y="-7.5" font-family="Helvetica,sans-Serif" font-size="10.00">iostream</text>
</g>
<!-- Node4&#45;&gt;Node5 -->
<g id="edge4" class="edge"><title>Node4&#45;&gt;Node5</title>
<path fill="none" stroke="midnightblue" d="M608.922,-56.083C601.495,-48.2195 590.492,-36.5688 581.532,-27.0813"/>
<polygon fill="midnightblue" stroke="midnightblue" points="584.019,-24.618 574.609,-19.7511 578.93,-29.4244 584.019,-24.618"/>
</g>
<!-- Node7&#45;&gt;Node4 -->
<g id="edge7" class="edge"><title>Node7&#45;&gt;Node4</title>
<path fill="none" stroke="midnightblue" d="M599.811,-112.083C602.655,-104.77 606.773,-94.1814 610.304,-85.1034"/>
<polygon fill="midnightblue" stroke="midnightblue" points="613.578,-86.3397 613.941,-75.7511 607.054,-83.8025 613.578,-86.3397"/>
</g>
<!-- Node7&#45;&gt;Node5 -->
<g id="edge8" class="edge"><title>Node7&#45;&gt;Node5</title>
<path fill="none" stroke="midnightblue" d="M593.99,-112.368C589.126,-94.5366 577.879,-53.2953 571.327,-29.2717"/>
<polygon fill="midnightblue" stroke="midnightblue" points="574.695,-28.3181 568.687,-19.5914 567.941,-30.16 574.695,-28.3181"/>
</g>
<!-- Node7&#45;&gt;Node6 -->
<g id="edge9" class="edge"><title>Node7&#45;&gt;Node6</title>
<path fill="none" stroke="midnightblue" d="M583.49,-112.324C571.127,-103.979 552.214,-91.2122 537.607,-81.3524"/>
<polygon fill="midnightblue" stroke="midnightblue" points="539.412,-78.3483 529.165,-75.6545 535.496,-84.1503 539.412,-78.3483"/>
</g>
<!-- Node8&#45;&gt;Node6 -->
<g id="edge24" class="edge"><title>Node8&#45;&gt;Node6</title>
<path fill="none" stroke="midnightblue" d="M458.973,-224.31C467.985,-207.105 488.077,-167.309 500.344,-132 505.653,-116.717 509.92,-98.8328 512.708,-85.6969"/>
<polygon fill="midnightblue" stroke="midnightblue" points="516.206,-86.0566 514.766,-75.5601 509.346,-84.6637 516.206,-86.0566"/>
</g>
<!-- Node8&#45;&gt;Node7 -->
<g id="edge11" class="edge"><title>Node8&#45;&gt;Node7</title>
<path fill="none" stroke="midnightblue" d="M476.485,-226.096C496.963,-218.929 527.451,-206.2 549.344,-188 565.353,-174.691 578.693,-154.759 587.021,-140.478"/>
<polygon fill="midnightblue" stroke="midnightblue" points="590.134,-142.082 591.957,-131.645 584.024,-138.667 590.134,-142.082"/>
</g>
<!-- Node9 -->
<g id="node9" class="node"><title>Node9</title>
<g id="a_node9"><a xlink:href="track_8h.html" target="_top" xlink:title="The class Track. ">
<polygon fill="none" stroke="black" points="350.844,-168.5 350.844,-187.5 397.844,-187.5 397.844,-168.5 350.844,-168.5"/>
<text text-anchor="middle" x="374.344" y="-175.5" font-family="Helvetica,sans-Serif" font-size="10.00">track.h</text>
</a>
</g>
</g>
<!-- Node8&#45;&gt;Node9 -->
<g id="edge12" class="edge"><title>Node8&#45;&gt;Node9</title>
<path fill="none" stroke="midnightblue" d="M441.49,-224.324C429.127,-215.979 410.214,-203.212 395.607,-193.352"/>
<polygon fill="midnightblue" stroke="midnightblue" points="397.412,-190.348 387.165,-187.655 393.496,-196.15 397.412,-190.348"/>
</g>
<!-- Node15 -->
<g id="node15" class="node"><title>Node15</title>
<polygon fill="none" stroke="#bfbfbf" points="13.8437,-112.5 13.8437,-131.5 54.8437,-131.5 54.8437,-112.5 13.8437,-112.5"/>
<text text-anchor="middle" x="34.3437" y="-119.5" font-family="Helvetica,sans-Serif" font-size="10.00">string</text>
</g>
<!-- Node8&#45;&gt;Node15 -->
<g id="edge23" class="edge"><title>Node8&#45;&gt;Node15</title>
<path fill="none" stroke="midnightblue" d="M432.059,-227.164C361.945,-208.8 145.735,-152.174 65.0901,-131.053"/>
<polygon fill="midnightblue" stroke="midnightblue" points="65.6336,-127.577 55.073,-128.429 63.86,-134.349 65.6336,-127.577"/>
</g>
<!-- Node16 -->
<g id="node16" class="node"><title>Node16</title>
<polygon fill="none" stroke="#bfbfbf" points="302.344,-168.5 302.344,-187.5 332.344,-187.5 332.344,-168.5 302.344,-168.5"/>
<text text-anchor="middle" x="317.344" y="-175.5" font-family="Helvetica,sans-Serif" font-size="10.00">set</text>
</g>
<!-- Node8&#45;&gt;Node16 -->
<g id="edge22" class="edge"><title>Node8&#45;&gt;Node16</title>
<path fill="none" stroke="midnightblue" d="M432.636,-224.444C407.991,-214.729 367.867,-198.914 342.045,-188.736"/>
<polygon fill="midnightblue" stroke="midnightblue" points="343.174,-185.419 332.587,-185.008 340.607,-191.932 343.174,-185.419"/>
</g>
<!-- Node9&#45;&gt;Node2 -->
<g id="edge13" class="edge"><title>Node9&#45;&gt;Node2</title>
<path fill="none" stroke="midnightblue" d="M397.971,-173.257C442.512,-166.137 542.164,-149.903 636.566,-132.089"/>
<polygon fill="midnightblue" stroke="midnightblue" points="637.394,-135.495 646.566,-130.192 636.089,-128.617 637.394,-135.495"/>
</g>
<!-- Node9&#45;&gt;Node5 -->
<g id="edge18" class="edge"><title>Node9&#45;&gt;Node5</title>
<path fill="none" stroke="midnightblue" d="M350.631,-170.177C347.521,-169.387 344.365,-168.637 341.344,-168 234.593,-145.484 33.8929,-196.954 102.344,-112 156.111,-45.2705 428.548,-20.3135 529.042,-13.2901"/>
<polygon fill="midnightblue" stroke="midnightblue" points="529.308,-16.7802 539.048,-12.6108 528.833,-9.79632 529.308,-16.7802"/>
</g>
<!-- Node9&#45;&gt;Node6 -->
<g id="edge21" class="edge"><title>Node9&#45;&gt;Node6</title>
<path fill="none" stroke="midnightblue" d="M398.169,-171.328C420.916,-164.924 455.079,-152.614 478.344,-132 492.829,-119.165 503.27,-99.4332 509.5,-85.0762"/>
<polygon fill="midnightblue" stroke="midnightblue" points="512.768,-86.3295 513.289,-75.7474 506.283,-83.6952 512.768,-86.3295"/>
</g>
<!-- Node10 -->
<g id="node10" class="node"><title>Node10</title>
<polygon fill="none" stroke="#bfbfbf" points="111.844,-112.5 111.844,-131.5 178.844,-131.5 178.844,-112.5 111.844,-112.5"/>
<text text-anchor="middle" x="145.344" y="-119.5" font-family="Helvetica,sans-Serif" font-size="10.00">QDateTime</text>
</g>
<!-- Node9&#45;&gt;Node10 -->
<g id="edge14" class="edge"><title>Node9&#45;&gt;Node10</title>
<path fill="none" stroke="midnightblue" d="M350.581,-170.396C347.479,-169.57 344.339,-168.752 341.344,-168 289.166,-154.901 228.792,-141.268 188.992,-132.489"/>
<polygon fill="midnightblue" stroke="midnightblue" points="189.603,-129.04 179.085,-130.31 188.1,-135.876 189.603,-129.04"/>
</g>
<!-- Node11 -->
<g id="node11" class="node"><title>Node11</title>
<polygon fill="none" stroke="#bfbfbf" points="197.344,-112.5 197.344,-131.5 247.344,-131.5 247.344,-112.5 197.344,-112.5"/>
<text text-anchor="middle" x="222.344" y="-119.5" font-family="Helvetica,sans-Serif" font-size="10.00">QString</text>
</g>
<!-- Node9&#45;&gt;Node11 -->
<g id="edge15" class="edge"><title>Node9&#45;&gt;Node11</title>
<path fill="none" stroke="midnightblue" d="M350.594,-168.562C325.199,-159.541 284.72,-145.16 256.038,-134.97"/>
<polygon fill="midnightblue" stroke="midnightblue" points="257.023,-131.606 246.429,-131.556 254.68,-138.202 257.023,-131.606"/>
</g>
<!-- Node12 -->
<g id="node12" class="node"><title>Node12</title>
<polygon fill="none" stroke="#bfbfbf" points="265.844,-112.5 265.844,-131.5 330.844,-131.5 330.844,-112.5 265.844,-112.5"/>
<text text-anchor="middle" x="298.344" y="-119.5" font-family="Helvetica,sans-Serif" font-size="10.00">QStringList</text>
</g>
<!-- Node9&#45;&gt;Node12 -->
<g id="edge16" class="edge"><title>Node9&#45;&gt;Node12</title>
<path fill="none" stroke="midnightblue" d="M362.133,-168.324C350.568,-160.107 332.968,-147.602 319.183,-137.807"/>
<polygon fill="midnightblue" stroke="midnightblue" points="320.956,-134.773 310.777,-131.834 316.901,-140.479 320.956,-134.773"/>
</g>
<!-- Node13 -->
<g id="node13" class="node"><title>Node13</title>
<polygon fill="none" stroke="#bfbfbf" points="349.344,-112.5 349.344,-131.5 399.344,-131.5 399.344,-112.5 349.344,-112.5"/>
<text text-anchor="middle" x="374.344" y="-119.5" font-family="Helvetica,sans-Serif" font-size="10.00">fstream</text>
</g>
<!-- Node9&#45;&gt;Node13 -->
<g id="edge17" class="edge"><title>Node9&#45;&gt;Node13</title>
<path fill="none" stroke="midnightblue" d="M374.344,-168.083C374.344,-161.006 374.344,-150.861 374.344,-141.986"/>
<polygon fill="midnightblue" stroke="midnightblue" points="377.844,-141.751 374.344,-131.751 370.844,-141.751 377.844,-141.751"/>
</g>
<!-- Node14 -->
<g id="node14" class="node"><title>Node14</title>
<polygon fill="none" stroke="#bfbfbf" points="417.344,-112.5 417.344,-131.5 469.344,-131.5 469.344,-112.5 417.344,-112.5"/>
<text text-anchor="middle" x="443.344" y="-119.5" font-family="Helvetica,sans-Serif" font-size="10.00">sstream</text>
</g>
<!-- Node9&#45;&gt;Node14 -->
<g id="edge19" class="edge"><title>Node9&#45;&gt;Node14</title>
<path fill="none" stroke="midnightblue" d="M385.43,-168.324C395.83,-160.185 411.604,-147.839 424.065,-138.087"/>
<polygon fill="midnightblue" stroke="midnightblue" points="426.338,-140.753 432.056,-131.834 422.024,-135.241 426.338,-140.753"/>
</g>
<!-- Node9&#45;&gt;Node15 -->
<g id="edge20" class="edge"><title>Node9&#45;&gt;Node15</title>
<path fill="none" stroke="midnightblue" d="M350.642,-170.126C347.53,-169.344 344.371,-168.61 341.344,-168 221.805,-143.903 189.054,-155.226 69.3437,-132 67.8809,-131.716 66.3883,-131.408 64.8839,-131.081"/>
<polygon fill="midnightblue" stroke="midnightblue" points="65.515,-127.634 54.9785,-128.744 63.9076,-134.447 65.515,-127.634"/>
</g>
</g>
</svg>
        <g id="navigator" transform="translate(0 0)" fill="#404254">
                <rect fill="#f2f5e9" fill-opacity="0.5" stroke="#606060" stroke-width=".5" x="0" y="0" width="60" height="60"/>
                <use id="zoomplus" xlink:href="#zoomPlus" x="17" y="9" onmousedown="handleZoom(evt,'in')"/>
                <use id="zoomminus" xlink:href="#zoomMin" x="42" y="9" onmousedown="handleZoom(evt,'out')"/>
                <use id="reset" xlink:href="#resetDef" x="30" y="36" onmousedown="handleReset()"/>
                <g id="arrowUp" xlink:href="#dirArrow" transform="translate(30 24)" onmousedown="handlePan(0,-1)">
                  <use xlink:href="#rim" fill="#404040">
                        <set attributeName="fill" to="#808080" begin="arrowUp.mouseover" end="arrowUp.mouseout"/>
                  </use>
                  <path fill="none" stroke="white" stroke-width="1.5" d="M0,-3.0v7 M-2.5,-0.5L0,-3.0L2.5,-0.5"/>
                </g>
                <g id="arrowRight" xlink:href="#dirArrow" transform="rotate(90) translate(36 -43)" onmousedown="handlePan(1,0)">
                  <use xlink:href="#rim" fill="#404040">
                        <set attributeName="fill" to="#808080" begin="arrowRight.mouseover" end="arrowRight.mouseout"/>
                  </use>
                  <path fill="none" stroke="white" stroke-width="1.5" d="M0,-3.0v7 M-2.5,-0.5L0,-3.0L2.5,-0.5"/>
                </g>
                <g id="arrowDown" xlink:href="#dirArrow" transform="rotate(180) translate(-30 -48)" onmousedown="handlePan(0,1)">
                  <use xlink:href="#rim" fill="#404040">
                        <set attributeName="fill" to="#808080" begin="arrowDown.mouseover" end="arrowDown.mouseout"/>
                  </use>
                  <path fill="none" stroke="white" stroke-width="1.5" d="M0,-3.0v7 M-2.5,-0.5L0,-3.0L2.5,-0.5"/>
                </g>
                <g id="arrowLeft" xlink:href="#dirArrow" transform="rotate(270) translate(-36 17)" onmousedown="handlePan(-1,0)">
                  <use xlink:href="#rim" fill="#404040">
                        <set attributeName="fill" to="#808080" begin="arrowLeft.mouseover" end="arrowLeft.mouseout"/>
                  </use>
                  <path fill="none" stroke="white" stroke-width="1.5" d="M0,-3.0v7 M-2.5,-0.5L0,-3.0L2.5,-0.5"/>
                </g>
        </g>
        <svg viewBox="0 0 15 15" width="100%" height="30px" preserveAspectRatio="xMaxYMin meet">
         <g id="arrow_out" transform="scale(0.3 0.3)">
          <a xlink:href="solver_8h__incl_org.svg" target="_base">
           <rect id="button" ry="5" rx="5" y="6" x="6" height="38" width="38"
                fill="#f2f5e9" fill-opacity="0.5" stroke="#606060" stroke-width="1.0"/>
           <path id="arrow"
             d="M 11.500037,31.436501 C 11.940474,20.09759 22.043105,11.32322 32.158766,21.979434 L 37.068811,17.246167 C 37.068811,17.246167 37.088388,32 37.088388,32 L 22.160133,31.978069 C 22.160133,31.978069 26.997745,27.140456 26.997745,27.140456 C 18.528582,18.264221 13.291696,25.230495 11.500037,31.436501 z"
             style="fill:#404040;"/>
          </a>
         </g>
        </svg>
</svg>
