<?xml version="1.0" encoding="UTF-8" standalone="no"?>
<!DOCTYPE svg PUBLIC "-//W3C//DTD SVG 1.1//EN"
 "http://www.w3.org/Graphics/SVG/1.1/DTD/svg11.dtd">
<!-- Generated by graphviz version 2.38.0 (20140413.2041)
 -->
<!-- Title: solver.h Pages: 1 -->
<svg width="1220pt" height="364pt"
 viewBox="0.00 0.00 1219.88 364.00" xmlns="http://www.w3.org/2000/svg" xmlns:xlink="http://www.w3.org/1999/xlink">
<g id="graph0" class="graph" transform="scale(1 1) rotate(0) translate(4 360)">
<title>solver.h</title>
<!-- Node1 -->
<g id="node1" class="node"><title>Node1</title>
<polygon fill="#bfbfbf" stroke="black" points="417.377,-336.5 417.377,-355.5 468.377,-355.5 468.377,-336.5 417.377,-336.5"/>
<text text-anchor="middle" x="442.877" y="-343.5" font-family="Helvetica,sans-Serif" font-size="10.00">solver.h</text>
</g>
<!-- Node2 -->
<g id="node2" class="node"><title>Node2</title>
<polygon fill="none" stroke="#bfbfbf" points="114.377,-112.5 114.377,-131.5 167.377,-131.5 167.377,-112.5 114.377,-112.5"/>
<text text-anchor="middle" x="140.877" y="-119.5" font-family="Helvetica,sans-Serif" font-size="10.00">QObject</text>
</g>
<!-- Node1&#45;&gt;Node2 -->
<g id="edge1" class="edge"><title>Node1&#45;&gt;Node2</title>
<path fill="none" stroke="midnightblue" d="M417.111,-337.849C372.402,-324.579 278.914,-292.96 212.877,-244 186.544,-224.477 181.481,-216.264 164.877,-188 156.308,-173.414 149.911,-155.239 145.886,-141.82"/>
<polygon fill="midnightblue" stroke="midnightblue" points="149.155,-140.519 143.066,-131.849 142.419,-142.424 149.155,-140.519"/>
</g>
<!-- Node3 -->
<g id="node3" class="node"><title>Node3</title>
<g id="a_node3"><a xlink:href="grid_8h.html" target="_top" xlink:title="grid.h">
<polygon fill="none" stroke="black" points="422.377,-280.5 422.377,-299.5 463.377,-299.5 463.377,-280.5 422.377,-280.5"/>
<text text-anchor="middle" x="442.877" y="-287.5" font-family="Helvetica,sans-Serif" font-size="10.00">grid.h</text>
</a>
</g>
</g>
<!-- Node1&#45;&gt;Node3 -->
<g id="edge2" class="edge"><title>Node1&#45;&gt;Node3</title>
<path fill="none" stroke="midnightblue" d="M442.877,-336.083C442.877,-329.006 442.877,-318.861 442.877,-309.986"/>
<polygon fill="midnightblue" stroke="midnightblue" points="446.377,-309.751 442.877,-299.751 439.377,-309.751 446.377,-309.751"/>
</g>
<!-- Node4 -->
<g id="node4" class="node"><title>Node4</title>
<g id="a_node4"><a xlink:href="road_8h.html" target="_top" xlink:title="road.h">
<polygon fill="none" stroke="black" points="506.877,-224.5 506.877,-243.5 550.877,-243.5 550.877,-224.5 506.877,-224.5"/>
<text text-anchor="middle" x="528.877" y="-231.5" font-family="Helvetica,sans-Serif" font-size="10.00">road.h</text>
</a>
</g>
</g>
<!-- Node1&#45;&gt;Node4 -->
<g id="edge33" class="edge"><title>Node1&#45;&gt;Node4</title>
<path fill="none" stroke="midnightblue" d="M449.625,-336.368C463.88,-318.135 497.271,-275.426 515.84,-251.675"/>
<polygon fill="midnightblue" stroke="midnightblue" points="518.758,-253.625 522.16,-243.591 513.243,-249.314 518.758,-253.625"/>
</g>
<!-- Node5 -->
<g id="node5" class="node"><title>Node5</title>
<g id="a_node5"><a xlink:href="pointroad_8h.html" target="_top" xlink:title="pointroad.h">
<polygon fill="none" stroke="black" points="772.377,-112.5 772.377,-131.5 837.377,-131.5 837.377,-112.5 772.377,-112.5"/>
<text text-anchor="middle" x="804.877" y="-119.5" font-family="Helvetica,sans-Serif" font-size="10.00">pointroad.h</text>
</a>
</g>
</g>
<!-- Node1&#45;&gt;Node5 -->
<g id="edge32" class="edge"><title>Node1&#45;&gt;Node5</title>
<path fill="none" stroke="midnightblue" d="M461.68,-336.408C481.42,-327.377 513.353,-312.741 540.877,-300 594.286,-275.276 611.255,-275.647 660.877,-244 711.556,-211.678 763.807,-163.277 789.166,-138.632"/>
<polygon fill="midnightblue" stroke="midnightblue" points="791.732,-141.017 796.418,-131.515 786.829,-136.021 791.732,-141.017"/>
</g>
<!-- Node8 -->
<g id="node8" class="node"><title>Node8</title>
<polygon fill="none" stroke="#bfbfbf" points="266.877,-56.5 266.877,-75.5 310.877,-75.5 310.877,-56.5 266.877,-56.5"/>
<text text-anchor="middle" x="288.877" y="-63.5" font-family="Helvetica,sans-Serif" font-size="10.00">vector</text>
</g>
<!-- Node1&#45;&gt;Node8 -->
<g id="edge46" class="edge"><title>Node1&#45;&gt;Node8</title>
<path fill="none" stroke="midnightblue" d="M417.202,-344.172C322.869,-340.444 0.876644,-321.391 0.876644,-235 0.876644,-235 0.876644,-235 0.876644,-177 0.876644,-146.902 -2.62993,-131.983 19.8766,-112 54.4358,-81.3154 192.7,-71.2613 256.419,-68.2166"/>
<polygon fill="midnightblue" stroke="midnightblue" points="256.861,-71.7004 266.695,-67.7559 256.548,-64.7074 256.861,-71.7004"/>
</g>
<!-- Node9 -->
<g id="node9" class="node"><title>Node9</title>
<g id="a_node9"><a xlink:href="track_8h.html" target="_top" xlink:title="The class Track. ">
<polygon fill="none" stroke="black" points="403.377,-168.5 403.377,-187.5 450.377,-187.5 450.377,-168.5 403.377,-168.5"/>
<text text-anchor="middle" x="426.877" y="-175.5" font-family="Helvetica,sans-Serif" font-size="10.00">track.h</text>
</a>
</g>
</g>
<!-- Node1&#45;&gt;Node9 -->
<g id="edge34" class="edge"><title>Node1&#45;&gt;Node9</title>
<path fill="none" stroke="midnightblue" d="M434.663,-336.182C427.333,-327.663 417.121,-314.019 412.877,-300 402.195,-264.721 412.55,-221.389 420.246,-197.325"/>
<polygon fill="midnightblue" stroke="midnightblue" points="423.605,-198.317 423.51,-187.722 416.978,-196.064 423.605,-198.317"/>
</g>
<!-- Node10 -->
<g id="node10" class="node"><title>Node10</title>
<g id="a_node10"><a xlink:href="point_g_p_s_8h.html" target="_top" xlink:title="pointGPS.h">
<polygon fill="none" stroke="black" points="29.3766,-112.5 29.3766,-131.5 96.3766,-131.5 96.3766,-112.5 29.3766,-112.5"/>
<text text-anchor="middle" x="62.8766" y="-119.5" font-family="Helvetica,sans-Serif" font-size="10.00">pointGPS.h</text>
</a>
</g>
</g>
<!-- Node1&#45;&gt;Node10 -->
<g id="edge31" class="edge"><title>Node1&#45;&gt;Node10</title>
<path fill="none" stroke="midnightblue" d="M417.319,-341.287C382.386,-335.583 318.31,-322.851 267.877,-300 182.593,-261.357 105.952,-175.741 76.1077,-139.605"/>
<polygon fill="midnightblue" stroke="midnightblue" points="78.5763,-137.094 69.5515,-131.543 73.1453,-141.51 78.5763,-137.094"/>
</g>
<!-- Node19 -->
<g id="node19" class="node"><title>Node19</title>
<polygon fill="none" stroke="#bfbfbf" points="569.377,-224.5 569.377,-243.5 652.377,-243.5 652.377,-224.5 569.377,-224.5"/>
<text text-anchor="middle" x="610.877" y="-231.5" font-family="Helvetica,sans-Serif" font-size="10.00">unordered_map</text>
</g>
<!-- Node1&#45;&gt;Node19 -->
<g id="edge45" class="edge"><title>Node1&#45;&gt;Node19</title>
<path fill="none" stroke="midnightblue" d="M456.059,-336.368C484.888,-317.492 553.78,-272.385 589.133,-249.237"/>
<polygon fill="midnightblue" stroke="midnightblue" points="591.306,-251.997 597.755,-243.591 587.472,-246.141 591.306,-251.997"/>
</g>
<!-- Node20 -->
<g id="node20" class="node"><title>Node20</title>
<g id="a_node20"><a xlink:href="file_8h.html" target="_top" xlink:title="file.h">
<polygon fill="none" stroke="black" points="846.877,-168.5 846.877,-187.5 884.877,-187.5 884.877,-168.5 846.877,-168.5"/>
<text text-anchor="middle" x="865.877" y="-175.5" font-family="Helvetica,sans-Serif" font-size="10.00">file.h</text>
</a>
</g>
</g>
<!-- Node1&#45;&gt;Node20 -->
<g id="edge35" class="edge"><title>Node1&#45;&gt;Node20</title>
<path fill="none" stroke="midnightblue" d="M468.433,-344.192C537.693,-341.598 727.313,-331.71 779.877,-300 820.204,-275.672 846.779,-224.419 858.687,-197.078"/>
<polygon fill="midnightblue" stroke="midnightblue" points="862.032,-198.15 862.651,-187.573 855.571,-195.455 862.032,-198.15"/>
</g>
<!-- Node3&#45;&gt;Node2 -->
<g id="edge27" class="edge"><title>Node3&#45;&gt;Node2</title>
<path fill="none" stroke="midnightblue" d="M422.343,-288.726C383.913,-287.331 299.699,-280.037 240.877,-244 198.429,-217.995 165.644,-167.496 150.344,-140.698"/>
<polygon fill="midnightblue" stroke="midnightblue" points="153.26,-138.739 145.352,-131.688 147.137,-142.131 153.26,-138.739"/>
</g>
<!-- Node3&#45;&gt;Node4 -->
<g id="edge3" class="edge"><title>Node3&#45;&gt;Node4</title>
<path fill="none" stroke="midnightblue" d="M456.694,-280.324C470.11,-271.9 490.701,-258.971 506.462,-249.074"/>
<polygon fill="midnightblue" stroke="midnightblue" points="508.486,-251.936 515.094,-243.655 504.763,-246.008 508.486,-251.936"/>
</g>
<!-- Node3&#45;&gt;Node8 -->
<g id="edge30" class="edge"><title>Node3&#45;&gt;Node8</title>
<path fill="none" stroke="midnightblue" d="M422.05,-282.214C374.742,-265.529 259.817,-217.511 214.877,-132 202.603,-108.646 232.003,-89.8322 257.303,-78.5688"/>
<polygon fill="midnightblue" stroke="midnightblue" points="258.834,-81.7222 266.703,-74.628 256.127,-75.2666 258.834,-81.7222"/>
</g>
<!-- Node3&#45;&gt;Node9 -->
<g id="edge26" class="edge"><title>Node3&#45;&gt;Node9</title>
<path fill="none" stroke="midnightblue" d="M441.621,-280.368C439.039,-262.617 433.083,-221.666 429.582,-197.597"/>
<polygon fill="midnightblue" stroke="midnightblue" points="433.029,-196.983 428.126,-187.591 426.102,-197.991 433.029,-196.983"/>
</g>
<!-- Node13 -->
<g id="node13" class="node"><title>Node13</title>
<polygon fill="none" stroke="#bfbfbf" points="523.877,-112.5 523.877,-131.5 573.877,-131.5 573.877,-112.5 523.877,-112.5"/>
<text text-anchor="middle" x="548.877" y="-119.5" font-family="Helvetica,sans-Serif" font-size="10.00">QString</text>
</g>
<!-- Node3&#45;&gt;Node13 -->
<g id="edge28" class="edge"><title>Node3&#45;&gt;Node13</title>
<path fill="none" stroke="midnightblue" d="M448.576,-280.075C465.478,-253.606 515.538,-175.209 537.887,-140.21"/>
<polygon fill="midnightblue" stroke="midnightblue" points="540.973,-141.88 543.405,-131.568 535.074,-138.113 540.973,-141.88"/>
</g>
<!-- Node3&#45;&gt;Node19 -->
<g id="edge29" class="edge"><title>Node3&#45;&gt;Node19</title>
<path fill="none" stroke="midnightblue" d="M463.477,-282.379C491.149,-273.484 540.767,-257.535 574.728,-246.619"/>
<polygon fill="midnightblue" stroke="midnightblue" points="575.842,-249.938 584.291,-243.545 573.7,-243.273 575.842,-249.938"/>
</g>
<!-- Node4&#45;&gt;Node5 -->
<g id="edge4" class="edge"><title>Node4&#45;&gt;Node5</title>
<path fill="none" stroke="midnightblue" d="M551.065,-226.15C577.485,-217.831 622.821,-203.036 660.877,-188 702.408,-171.591 749.354,-149.764 778.032,-136.047"/>
<polygon fill="midnightblue" stroke="midnightblue" points="779.878,-139.043 787.374,-131.555 776.845,-132.734 779.878,-139.043"/>
</g>
<!-- Node4&#45;&gt;Node8 -->
<g id="edge25" class="edge"><title>Node4&#45;&gt;Node8</title>
<path fill="none" stroke="midnightblue" d="M538.44,-224.458C561.005,-203.301 613.447,-147.605 582.877,-112 565.965,-92.3028 394.185,-75.7818 321.297,-69.6027"/>
<polygon fill="midnightblue" stroke="midnightblue" points="321.548,-66.1115 311.291,-68.7669 320.965,-73.0872 321.548,-66.1115"/>
</g>
<!-- Node4&#45;&gt;Node9 -->
<g id="edge9" class="edge"><title>Node4&#45;&gt;Node9</title>
<path fill="none" stroke="midnightblue" d="M512.489,-224.324C496.205,-215.703 471.009,-202.364 452.16,-192.386"/>
<polygon fill="midnightblue" stroke="midnightblue" points="453.7,-189.24 443.224,-187.655 450.424,-195.427 453.7,-189.24"/>
</g>
<!-- Node17 -->
<g id="node17" class="node"><title>Node17</title>
<polygon fill="none" stroke="#bfbfbf" points="630.377,-112.5 630.377,-131.5 671.377,-131.5 671.377,-112.5 630.377,-112.5"/>
<text text-anchor="middle" x="650.877" y="-119.5" font-family="Helvetica,sans-Serif" font-size="10.00">string</text>
</g>
<!-- Node4&#45;&gt;Node17 -->
<g id="edge24" class="edge"><title>Node4&#45;&gt;Node17</title>
<path fill="none" stroke="midnightblue" d="M551.031,-225.524C582.234,-214.795 635.999,-195.5 641.877,-188 652.079,-174.981 653.604,-155.822 653.012,-141.675"/>
<polygon fill="midnightblue" stroke="midnightblue" points="656.494,-141.307 652.21,-131.617 649.516,-141.864 656.494,-141.307"/>
</g>
<!-- Node18 -->
<g id="node18" class="node"><title>Node18</title>
<polygon fill="none" stroke="#bfbfbf" points="602.877,-168.5 602.877,-187.5 632.877,-187.5 632.877,-168.5 602.877,-168.5"/>
<text text-anchor="middle" x="617.877" y="-175.5" font-family="Helvetica,sans-Serif" font-size="10.00">set</text>
</g>
<!-- Node4&#45;&gt;Node18 -->
<g id="edge23" class="edge"><title>Node4&#45;&gt;Node18</title>
<path fill="none" stroke="midnightblue" d="M543.176,-224.324C557.06,-215.9 578.369,-202.971 594.68,-193.074"/>
<polygon fill="midnightblue" stroke="midnightblue" points="596.879,-195.834 603.613,-187.655 593.248,-189.85 596.879,-195.834"/>
</g>
<!-- Node6 -->
<g id="node6" class="node"><title>Node6</title>
<g id="a_node6"><a xlink:href="point_8h.html" target="_top" xlink:title="Class Point. ">
<polygon fill="none" stroke="black" points="421.877,-56.5 421.877,-75.5 467.877,-75.5 467.877,-56.5 421.877,-56.5"/>
<text text-anchor="middle" x="444.877" y="-63.5" font-family="Helvetica,sans-Serif" font-size="10.00">point.h</text>
</a>
</g>
</g>
<!-- Node5&#45;&gt;Node6 -->
<g id="edge5" class="edge"><title>Node5&#45;&gt;Node6</title>
<path fill="none" stroke="midnightblue" d="M772.362,-113.796C769.163,-113.158 765.96,-112.548 762.877,-112 659.513,-93.6354 536.179,-77.9427 478.161,-70.9255"/>
<polygon fill="midnightblue" stroke="midnightblue" points="478.454,-67.4355 468.108,-69.7175 477.619,-74.3856 478.454,-67.4355"/>
</g>
<!-- Node7 -->
<g id="node7" class="node"><title>Node7</title>
<polygon fill="none" stroke="#bfbfbf" points="555.877,-0.5 555.877,-19.5 609.877,-19.5 609.877,-0.5 555.877,-0.5"/>
<text text-anchor="middle" x="582.877" y="-7.5" font-family="Helvetica,sans-Serif" font-size="10.00">iostream</text>
</g>
<!-- Node5&#45;&gt;Node7 -->
<g id="edge7" class="edge"><title>Node5&#45;&gt;Node7</title>
<path fill="none" stroke="midnightblue" d="M787.457,-112.368C748.713,-93.1711 655.212,-46.8418 609.262,-24.074"/>
<polygon fill="midnightblue" stroke="midnightblue" points="610.73,-20.8952 600.216,-19.5914 607.622,-27.1674 610.73,-20.8952"/>
</g>
<!-- Node5&#45;&gt;Node8 -->
<g id="edge8" class="edge"><title>Node5&#45;&gt;Node8</title>
<path fill="none" stroke="midnightblue" d="M771.929,-113.561C768.877,-112.986 765.825,-112.454 762.877,-112 677.12,-98.7869 413.244,-76.982 321.062,-69.563"/>
<polygon fill="midnightblue" stroke="midnightblue" points="321.19,-66.0621 310.942,-68.7509 320.63,-73.0397 321.19,-66.0621"/>
</g>
<!-- Node6&#45;&gt;Node7 -->
<g id="edge6" class="edge"><title>Node6&#45;&gt;Node7</title>
<path fill="none" stroke="midnightblue" d="M466.743,-56.4435C489.656,-47.4776 525.852,-33.314 551.743,-23.1827"/>
<polygon fill="midnightblue" stroke="midnightblue" points="553.075,-26.4198 561.112,-19.5164 550.525,-19.9011 553.075,-26.4198"/>
</g>
<!-- Node9&#45;&gt;Node2 -->
<g id="edge10" class="edge"><title>Node9&#45;&gt;Node2</title>
<path fill="none" stroke="midnightblue" d="M402.984,-172.489C353.085,-163.067 237.504,-141.244 177.901,-129.991"/>
<polygon fill="midnightblue" stroke="midnightblue" points="178.273,-126.499 167.797,-128.083 176.974,-133.377 178.273,-126.499"/>
</g>
<!-- Node9&#45;&gt;Node7 -->
<g id="edge19" class="edge"><title>Node9&#45;&gt;Node7</title>
<path fill="none" stroke="midnightblue" d="M435.264,-168.075C460.457,-141.267 535.71,-61.1902 567.948,-26.8851"/>
<polygon fill="midnightblue" stroke="midnightblue" points="570.527,-29.2522 574.825,-19.5681 565.426,-24.4584 570.527,-29.2522"/>
</g>
<!-- Node9&#45;&gt;Node8 -->
<g id="edge22" class="edge"><title>Node9&#45;&gt;Node8</title>
<path fill="none" stroke="midnightblue" d="M431.977,-168.479C439.256,-155.089 450.432,-128.907 437.877,-112 411.159,-76.0211 356.526,-67.7728 321.359,-66.4255"/>
<polygon fill="midnightblue" stroke="midnightblue" points="321.195,-62.9212 311.122,-66.2058 321.045,-69.9196 321.195,-62.9212"/>
</g>
<!-- Node9&#45;&gt;Node10 -->
<g id="edge11" class="edge"><title>Node9&#45;&gt;Node10</title>
<path fill="none" stroke="midnightblue" d="M403.352,-174.303C351.556,-168.24 223.57,-152.574 106.929,-132.268"/>
<polygon fill="midnightblue" stroke="midnightblue" points="107.216,-128.765 96.7614,-130.481 106.005,-135.659 107.216,-128.765"/>
</g>
<!-- Node12 -->
<g id="node12" class="node"><title>Node12</title>
<polygon fill="none" stroke="#bfbfbf" points="362.377,-112.5 362.377,-131.5 429.377,-131.5 429.377,-112.5 362.377,-112.5"/>
<text text-anchor="middle" x="395.877" y="-119.5" font-family="Helvetica,sans-Serif" font-size="10.00">QDateTime</text>
</g>
<!-- Node9&#45;&gt;Node12 -->
<g id="edge15" class="edge"><title>Node9&#45;&gt;Node12</title>
<path fill="none" stroke="midnightblue" d="M421.758,-168.083C417.469,-160.613 411.218,-149.724 405.934,-140.52"/>
<polygon fill="midnightblue" stroke="midnightblue" points="408.915,-138.681 400.9,-131.751 402.844,-142.166 408.915,-138.681"/>
</g>
<!-- Node9&#45;&gt;Node13 -->
<g id="edge16" class="edge"><title>Node9&#45;&gt;Node13</title>
<path fill="none" stroke="midnightblue" d="M446.208,-168.444C466.197,-159.596 497.62,-145.687 520.441,-135.586"/>
<polygon fill="midnightblue" stroke="midnightblue" points="521.908,-138.764 529.636,-131.516 519.075,-132.363 521.908,-138.764"/>
</g>
<!-- Node14 -->
<g id="node14" class="node"><title>Node14</title>
<polygon fill="none" stroke="#bfbfbf" points="689.377,-112.5 689.377,-131.5 754.377,-131.5 754.377,-112.5 689.377,-112.5"/>
<text text-anchor="middle" x="721.877" y="-119.5" font-family="Helvetica,sans-Serif" font-size="10.00">QStringList</text>
</g>
<!-- Node9&#45;&gt;Node14 -->
<g id="edge17" class="edge"><title>Node9&#45;&gt;Node14</title>
<path fill="none" stroke="midnightblue" d="M450.647,-173.058C493.957,-165.815 588.837,-149.665 679.455,-132.024"/>
<polygon fill="midnightblue" stroke="midnightblue" points="680.198,-135.445 689.34,-130.09 678.854,-128.575 680.198,-135.445"/>
</g>
<!-- Node15 -->
<g id="node15" class="node"><title>Node15</title>
<polygon fill="none" stroke="#bfbfbf" points="223.877,-112.5 223.877,-131.5 273.877,-131.5 273.877,-112.5 223.877,-112.5"/>
<text text-anchor="middle" x="248.877" y="-119.5" font-family="Helvetica,sans-Serif" font-size="10.00">fstream</text>
</g>
<!-- Node9&#45;&gt;Node15 -->
<g id="edge18" class="edge"><title>Node9&#45;&gt;Node15</title>
<path fill="none" stroke="midnightblue" d="M403.24,-169.829C372.684,-160.559 319.219,-144.34 283.929,-133.634"/>
<polygon fill="midnightblue" stroke="midnightblue" points="284.634,-130.19 274.049,-130.636 282.602,-136.889 284.634,-130.19"/>
</g>
<!-- Node16 -->
<g id="node16" class="node"><title>Node16</title>
<polygon fill="none" stroke="#bfbfbf" points="291.877,-112.5 291.877,-131.5 343.877,-131.5 343.877,-112.5 291.877,-112.5"/>
<text text-anchor="middle" x="317.877" y="-119.5" font-family="Helvetica,sans-Serif" font-size="10.00">sstream</text>
</g>
<!-- Node9&#45;&gt;Node16 -->
<g id="edge20" class="edge"><title>Node9&#45;&gt;Node16</title>
<path fill="none" stroke="midnightblue" d="M409.364,-168.324C391.804,-159.625 364.545,-146.12 344.345,-136.113"/>
<polygon fill="midnightblue" stroke="midnightblue" points="345.86,-132.958 335.346,-131.655 342.753,-139.23 345.86,-132.958"/>
</g>
<!-- Node9&#45;&gt;Node17 -->
<g id="edge21" class="edge"><title>Node9&#45;&gt;Node17</title>
<path fill="none" stroke="midnightblue" d="M450.425,-171.323C491.275,-161.475 575.226,-141.237 620.439,-130.338"/>
<polygon fill="midnightblue" stroke="midnightblue" points="621.36,-133.716 630.261,-127.97 619.719,-126.911 621.36,-133.716"/>
</g>
<!-- Node10&#45;&gt;Node6 -->
<g id="edge13" class="edge"><title>Node10&#45;&gt;Node6</title>
<path fill="none" stroke="midnightblue" d="M96.7577,-113.498C99.4995,-112.965 102.231,-112.458 104.877,-112 216.679,-92.6541 350.426,-77.1753 411.5,-70.5258"/>
<polygon fill="midnightblue" stroke="midnightblue" points="412.128,-73.9784 421.694,-69.4247 411.376,-67.0189 412.128,-73.9784"/>
</g>
<!-- Node10&#45;&gt;Node8 -->
<g id="edge14" class="edge"><title>Node10&#45;&gt;Node8</title>
<path fill="none" stroke="midnightblue" d="M96.7111,-112.916C140.053,-102.56 214.621,-84.7426 256.998,-74.6171"/>
<polygon fill="midnightblue" stroke="midnightblue" points="257.875,-78.006 266.788,-72.2778 256.248,-71.1977 257.875,-78.006"/>
</g>
<!-- Node11 -->
<g id="node11" class="node"><title>Node11</title>
<g id="a_node11"><a xlink:href="emissionprobability_8h.html" target="_top" xlink:title="emissionprobability.h">
<polygon fill="none" stroke="black" points="8.87664,-56.5 8.87664,-75.5 116.877,-75.5 116.877,-56.5 8.87664,-56.5"/>
<text text-anchor="middle" x="62.8766" y="-63.5" font-family="Helvetica,sans-Serif" font-size="10.00">emissionprobability.h</text>
</a>
</g>
</g>
<!-- Node10&#45;&gt;Node11 -->
<g id="edge12" class="edge"><title>Node10&#45;&gt;Node11</title>
<path fill="none" stroke="midnightblue" d="M62.8766,-112.083C62.8766,-105.006 62.8766,-94.8611 62.8766,-85.9865"/>
<polygon fill="midnightblue" stroke="midnightblue" points="66.3767,-85.751 62.8766,-75.7511 59.3767,-85.7511 66.3767,-85.751"/>
</g>
<!-- Node20&#45;&gt;Node7 -->
<g id="edge41" class="edge"><title>Node20&#45;&gt;Node7</title>
<path fill="none" stroke="midnightblue" d="M865.504,-168.268C864.466,-154.588 860.556,-128.015 845.877,-112 785.363,-45.9794 676.869,-22.7315 619.987,-14.8449"/>
<polygon fill="midnightblue" stroke="midnightblue" points="620.358,-11.3637 609.99,-13.5442 619.455,-18.3052 620.358,-11.3637"/>
</g>
<!-- Node20&#45;&gt;Node13 -->
<g id="edge38" class="edge"><title>Node20&#45;&gt;Node13</title>
<path fill="none" stroke="midnightblue" d="M846.524,-173.703C794.464,-164.835 650.861,-140.373 583.989,-128.981"/>
<polygon fill="midnightblue" stroke="midnightblue" points="584.387,-125.499 573.941,-127.27 583.212,-132.399 584.387,-125.499"/>
</g>
<!-- Node20&#45;&gt;Node14 -->
<g id="edge39" class="edge"><title>Node20&#45;&gt;Node14</title>
<path fill="none" stroke="midnightblue" d="M846.755,-169.829C823.212,-161.001 782.861,-145.869 754.408,-135.199"/>
<polygon fill="midnightblue" stroke="midnightblue" points="755.48,-131.863 744.888,-131.629 753.022,-138.418 755.48,-131.863"/>
</g>
<!-- Node20&#45;&gt;Node17 -->
<g id="edge42" class="edge"><title>Node20&#45;&gt;Node17</title>
<path fill="none" stroke="midnightblue" d="M846.763,-172.797C814.527,-165.62 747.123,-150.231 681.144,-132.228"/>
<polygon fill="midnightblue" stroke="midnightblue" points="681.994,-128.832 671.424,-129.554 680.137,-135.581 681.994,-128.832"/>
</g>
<!-- Node21 -->
<g id="node21" class="node"><title>Node21</title>
<polygon fill="none" stroke="#bfbfbf" points="893.877,-112.5 893.877,-131.5 933.877,-131.5 933.877,-112.5 893.877,-112.5"/>
<text text-anchor="middle" x="913.877" y="-119.5" font-family="Helvetica,sans-Serif" font-size="10.00">QFile</text>
</g>
<!-- Node20&#45;&gt;Node21 -->
<g id="edge36" class="edge"><title>Node20&#45;&gt;Node21</title>
<path fill="none" stroke="midnightblue" d="M873.803,-168.083C880.723,-160.298 890.942,-148.801 899.329,-139.367"/>
<polygon fill="midnightblue" stroke="midnightblue" points="902.07,-141.55 906.098,-131.751 896.838,-136.9 902.07,-141.55"/>
</g>
<!-- Node22 -->
<g id="node22" class="node"><title>Node22</title>
<polygon fill="none" stroke="#bfbfbf" points="951.877,-112.5 951.877,-131.5 1019.88,-131.5 1019.88,-112.5 951.877,-112.5"/>
<text text-anchor="middle" x="985.877" y="-119.5" font-family="Helvetica,sans-Serif" font-size="10.00">QFileDialog</text>
</g>
<!-- Node20&#45;&gt;Node22 -->
<g id="edge37" class="edge"><title>Node20&#45;&gt;Node22</title>
<path fill="none" stroke="midnightblue" d="M884.891,-168.444C904.464,-159.636 935.184,-145.812 957.606,-135.722"/>
<polygon fill="midnightblue" stroke="midnightblue" points="959.268,-138.812 966.951,-131.516 956.396,-132.428 959.268,-138.812"/>
</g>
<!-- Node23 -->
<g id="node23" class="node"><title>Node23</title>
<polygon fill="none" stroke="#bfbfbf" points="1038.38,-112.5 1038.38,-131.5 1113.38,-131.5 1113.38,-112.5 1038.38,-112.5"/>
<text text-anchor="middle" x="1075.88" y="-119.5" font-family="Helvetica,sans-Serif" font-size="10.00">QTextStream</text>
</g>
<!-- Node20&#45;&gt;Node23 -->
<g id="edge40" class="edge"><title>Node20&#45;&gt;Node23</title>
<path fill="none" stroke="midnightblue" d="M884.883,-172.113C918.111,-163.568 987.537,-145.716 1032.9,-134.052"/>
<polygon fill="midnightblue" stroke="midnightblue" points="1033.93,-137.399 1042.75,-131.519 1032.19,-130.62 1033.93,-137.399"/>
</g>
<!-- Node24 -->
<g id="node24" class="node"><title>Node24</title>
<g id="a_node24"><a xlink:href="myexception_8h.html" target="_top" xlink:title="myexception.h">
<polygon fill="none" stroke="black" points="1131.88,-112.5 1131.88,-131.5 1211.88,-131.5 1211.88,-112.5 1131.88,-112.5"/>
<text text-anchor="middle" x="1171.88" y="-119.5" font-family="Helvetica,sans-Serif" font-size="10.00">myexception.h</text>
</a>
</g>
</g>
<!-- Node20&#45;&gt;Node24 -->
<g id="edge43" class="edge"><title>Node20&#45;&gt;Node24</title>
<path fill="none" stroke="midnightblue" d="M884.908,-173.723C926.081,-166.623 1026.73,-149.202 1121.71,-132.198"/>
<polygon fill="midnightblue" stroke="midnightblue" points="1122.54,-135.604 1131.77,-130.395 1121.31,-128.714 1122.54,-135.604"/>
</g>
<!-- Node25 -->
<g id="node25" class="node"><title>Node25</title>
<polygon fill="none" stroke="#bfbfbf" points="1142.38,-56.5 1142.38,-75.5 1201.38,-75.5 1201.38,-56.5 1142.38,-56.5"/>
<text text-anchor="middle" x="1171.88" y="-63.5" font-family="Helvetica,sans-Serif" font-size="10.00">exception</text>
</g>
<!-- Node24&#45;&gt;Node25 -->
<g id="edge44" class="edge"><title>Node24&#45;&gt;Node25</title>
<path fill="none" stroke="midnightblue" d="M1171.88,-112.083C1171.88,-105.006 1171.88,-94.8611 1171.88,-85.9865"/>
<polygon fill="midnightblue" stroke="midnightblue" points="1175.38,-85.751 1171.88,-75.7511 1168.38,-85.7511 1175.38,-85.751"/>
</g>
</g>
</svg>
