<?xml version="1.0" encoding="UTF-8" standalone="no"?>
<!DOCTYPE svg PUBLIC "-//W3C//DTD SVG 1.1//EN"
 "http://www.w3.org/Graphics/SVG/1.1/DTD/svg11.dtd">
<!-- Generated by graphviz version 2.38.0 (20140413.2041)
 -->
<!-- Title: hashFunc::operator() Pages: 1 -->
<svg width="201pt" height="66pt"
 viewBox="0.00 0.00 201.00 66.00" xmlns="http://www.w3.org/2000/svg" xmlns:xlink="http://www.w3.org/1999/xlink">
<g id="graph0" class="graph" transform="scale(1 1) rotate(0) translate(4 62)">
<title>hashFunc::operator()</title>
<!-- Node1 -->
<g id="node1" class="node"><title>Node1</title>
<polygon fill="#bfbfbf" stroke="black" points="0,-19.5 0,-38.5 107,-38.5 107,-19.5 0,-19.5"/>
<text text-anchor="middle" x="53.5" y="-26.5" font-family="Helvetica,sans-Serif" font-size="10.00">hashFunc::operator()</text>
</g>
<!-- Node2 -->
<g id="node2" class="node"><title>Node2</title>
<g id="a_node2"><a xlink:href="class_point.html#a3eef47b1c4849b3395a8f9c658ca7c4a" target="_top" xlink:title="Point::x">
<polygon fill="none" stroke="black" points="143,-38.5 143,-57.5 193,-57.5 193,-38.5 143,-38.5"/>
<text text-anchor="middle" x="168" y="-45.5" font-family="Helvetica,sans-Serif" font-size="10.00">Point::x</text>
</a>
</g>
</g>
<!-- Node1&#45;&gt;Node2 -->
<g id="edge1" class="edge"><title>Node1&#45;&gt;Node2</title>
<path fill="none" stroke="midnightblue" d="M107.127,-37.8881C115.795,-39.352 124.578,-40.8354 132.649,-42.1985"/>
<polygon fill="midnightblue" stroke="midnightblue" points="132.335,-45.695 142.778,-43.9093 133.501,-38.7927 132.335,-45.695"/>
</g>
<!-- Node3 -->
<g id="node3" class="node"><title>Node3</title>
<g id="a_node3"><a xlink:href="class_point.html#a96e90df6b3c18e64c31abdf196e49ae9" target="_top" xlink:title="Point::y">
<polygon fill="none" stroke="black" points="143,-0.5 143,-19.5 193,-19.5 193,-0.5 143,-0.5"/>
<text text-anchor="middle" x="168" y="-7.5" font-family="Helvetica,sans-Serif" font-size="10.00">Point::y</text>
</a>
</g>
</g>
<!-- Node1&#45;&gt;Node3 -->
<g id="edge2" class="edge"><title>Node1&#45;&gt;Node3</title>
<path fill="none" stroke="midnightblue" d="M107.127,-20.1119C115.795,-18.648 124.578,-17.1646 132.649,-15.8015"/>
<polygon fill="midnightblue" stroke="midnightblue" points="133.501,-19.2073 142.778,-14.0907 132.335,-12.305 133.501,-19.2073"/>
</g>
</g>
</svg>
