<?xml version="1.0" encoding="UTF-8" standalone="no"?>
<!DOCTYPE svg PUBLIC "-//W3C//DTD SVG 1.1//EN"
 "http://www.w3.org/Graphics/SVG/1.1/DTD/svg11.dtd">
<!-- Generated by graphviz version 2.38.0 (20140413.2041)
 -->
<!-- Title: track.h Pages: 1 -->
<svg width="612pt" height="196pt"
 viewBox="0.00 0.00 611.50 196.00" xmlns="http://www.w3.org/2000/svg" xmlns:xlink="http://www.w3.org/1999/xlink">
<g id="graph0" class="graph" transform="scale(1 1) rotate(0) translate(4 192)">
<title>track.h</title>
<!-- Node1 -->
<g id="node1" class="node"><title>Node1</title>
<polygon fill="#bfbfbf" stroke="black" points="280,-168.5 280,-187.5 327,-187.5 327,-168.5 280,-168.5"/>
<text text-anchor="middle" x="303.5" y="-175.5" font-family="Helvetica,sans-Serif" font-size="10.00">track.h</text>
</g>
<!-- Node2 -->
<g id="node2" class="node"><title>Node2</title>
<g id="a_node2"><a xlink:href="filtering_8h.html" target="_top" xlink:title="filtering.h">
<polygon fill="none" stroke="black" points="97.5,-112.5 97.5,-131.5 153.5,-131.5 153.5,-112.5 97.5,-112.5"/>
<text text-anchor="middle" x="125.5" y="-119.5" font-family="Helvetica,sans-Serif" font-size="10.00">filtering.h</text>
</a>
</g>
</g>
<!-- Node1&#45;&gt;Node2 -->
<g id="edge1" class="edge"><title>Node1&#45;&gt;Node2</title>
<path fill="none" stroke="midnightblue" d="M270.039,-166.849C236.432,-156.654 185.224,-141.119 153.641,-131.537"/>
<polygon fill="midnightblue" stroke="midnightblue" points="269.278,-170.275 279.863,-169.829 271.31,-163.577 269.278,-170.275"/>
</g>
<!-- Node5 -->
<g id="node5" class="node"><title>Node5</title>
<g id="a_node5"><a xlink:href="main_8cpp.html" target="_top" xlink:title="main.cpp">
<polygon fill="none" stroke="black" points="166.5,-0.5 166.5,-19.5 222.5,-19.5 222.5,-0.5 166.5,-0.5"/>
<text text-anchor="middle" x="194.5" y="-7.5" font-family="Helvetica,sans-Serif" font-size="10.00">main.cpp</text>
</a>
</g>
</g>
<!-- Node1&#45;&gt;Node5 -->
<g id="edge17" class="edge"><title>Node1&#45;&gt;Node5</title>
<path fill="none" stroke="midnightblue" d="M285.394,-161.727C264.88,-143.432 231.917,-110.861 213.5,-76 203.615,-57.2882 198.237,-32.7549 195.916,-19.8374"/>
<polygon fill="midnightblue" stroke="midnightblue" points="283.256,-164.507 293.093,-168.444 287.858,-159.232 283.256,-164.507"/>
</g>
<!-- Node7 -->
<g id="node7" class="node"><title>Node7</title>
<g id="a_node7"><a xlink:href="road_8h.html" target="_top" xlink:title="road.h">
<polygon fill="none" stroke="black" points="281.5,-112.5 281.5,-131.5 325.5,-131.5 325.5,-112.5 281.5,-112.5"/>
<text text-anchor="middle" x="303.5" y="-119.5" font-family="Helvetica,sans-Serif" font-size="10.00">road.h</text>
</a>
</g>
</g>
<!-- Node1&#45;&gt;Node7 -->
<g id="edge6" class="edge"><title>Node1&#45;&gt;Node7</title>
<path fill="none" stroke="midnightblue" d="M303.5,-157.805C303.5,-148.91 303.5,-138.78 303.5,-131.751"/>
<polygon fill="midnightblue" stroke="midnightblue" points="300,-158.083 303.5,-168.083 307,-158.083 300,-158.083"/>
</g>
<!-- Node8 -->
<g id="node8" class="node"><title>Node8</title>
<g id="a_node8"><a xlink:href="grid_8h.html" target="_top" xlink:title="grid.h">
<polygon fill="none" stroke="black" points="223,-56.5 223,-75.5 264,-75.5 264,-56.5 223,-56.5"/>
<text text-anchor="middle" x="243.5" y="-63.5" font-family="Helvetica,sans-Serif" font-size="10.00">grid.h</text>
</a>
</g>
</g>
<!-- Node1&#45;&gt;Node8 -->
<g id="edge14" class="edge"><title>Node1&#45;&gt;Node8</title>
<path fill="none" stroke="midnightblue" d="M290.888,-160.273C284.934,-151.998 277.956,-141.721 272.5,-132 261.614,-112.604 251.699,-88.3484 246.772,-75.6564"/>
<polygon fill="midnightblue" stroke="midnightblue" points="288.081,-162.364 296.826,-168.346 293.72,-158.217 288.081,-162.364"/>
</g>
<!-- Node13 -->
<g id="node13" class="node"><title>Node13</title>
<g id="a_node13"><a xlink:href="controller_8h.html" target="_top" xlink:title="controller.h">
<polygon fill="none" stroke="black" points="344,-112.5 344,-131.5 409,-131.5 409,-112.5 344,-112.5"/>
<text text-anchor="middle" x="376.5" y="-119.5" font-family="Helvetica,sans-Serif" font-size="10.00">controller.h</text>
</a>
</g>
</g>
<!-- Node1&#45;&gt;Node13 -->
<g id="edge15" class="edge"><title>Node1&#45;&gt;Node13</title>
<path fill="none" stroke="midnightblue" d="M323.642,-162.101C336.779,-152.382 353.482,-140.027 364.558,-131.834"/>
<polygon fill="midnightblue" stroke="midnightblue" points="321.187,-159.563 315.229,-168.324 325.35,-165.191 321.187,-159.563"/>
</g>
<!-- Node15 -->
<g id="node15" class="node"><title>Node15</title>
<g id="a_node15"><a xlink:href="sauvegarde_8h.html" target="_top" xlink:title="sauvegarde.h">
<polygon fill="none" stroke="black" points="427,-112.5 427,-131.5 502,-131.5 502,-112.5 427,-112.5"/>
<text text-anchor="middle" x="464.5" y="-119.5" font-family="Helvetica,sans-Serif" font-size="10.00">sauvegarde.h</text>
</a>
</g>
</g>
<!-- Node1&#45;&gt;Node15 -->
<g id="edge18" class="edge"><title>Node1&#45;&gt;Node15</title>
<path fill="none" stroke="midnightblue" d="M336.985,-165.769C367.357,-155.582 411.474,-140.785 439.05,-131.536"/>
<polygon fill="midnightblue" stroke="midnightblue" points="335.624,-162.534 327.256,-169.032 337.85,-169.17 335.624,-162.534"/>
</g>
<!-- Node17 -->
<g id="node17" class="node"><title>Node17</title>
<g id="a_node17"><a xlink:href="track_8cpp.html" target="_top" xlink:title="track.cpp">
<polygon fill="none" stroke="black" points="520,-112.5 520,-131.5 577,-131.5 577,-112.5 520,-112.5"/>
<text text-anchor="middle" x="548.5" y="-119.5" font-family="Helvetica,sans-Serif" font-size="10.00">track.cpp</text>
</a>
</g>
</g>
<!-- Node1&#45;&gt;Node17 -->
<g id="edge20" class="edge"><title>Node1&#45;&gt;Node17</title>
<path fill="none" stroke="midnightblue" d="M337.111,-169.893C378.099,-161.18 449.465,-145.861 510.5,-132 513.541,-131.309 516.716,-130.576 519.879,-129.838"/>
<polygon fill="midnightblue" stroke="midnightblue" points="336.18,-166.512 327.125,-172.013 337.634,-173.36 336.18,-166.512"/>
</g>
<!-- Node3 -->
<g id="node3" class="node"><title>Node3</title>
<g id="a_node3"><a xlink:href="filtering_8cpp.html" target="_top" xlink:title="filtering.cpp">
<polygon fill="none" stroke="black" points="0,-56.5 0,-75.5 67,-75.5 67,-56.5 0,-56.5"/>
<text text-anchor="middle" x="33.5" y="-63.5" font-family="Helvetica,sans-Serif" font-size="10.00">filtering.cpp</text>
</a>
</g>
</g>
<!-- Node2&#45;&gt;Node3 -->
<g id="edge2" class="edge"><title>Node2&#45;&gt;Node3</title>
<path fill="none" stroke="midnightblue" d="M101.95,-107.177C85.0211,-97.2407 62.7172,-84.1492 48.2447,-75.6545"/>
<polygon fill="midnightblue" stroke="midnightblue" points="100.323,-110.28 110.719,-112.324 103.866,-104.243 100.323,-110.28"/>
</g>
<!-- Node4 -->
<g id="node4" class="node"><title>Node4</title>
<g id="a_node4"><a xlink:href="_main_window_8h.html" target="_top" xlink:title="MainWindow.h">
<polygon fill="none" stroke="black" points="85,-56.5 85,-75.5 166,-75.5 166,-56.5 85,-56.5"/>
<text text-anchor="middle" x="125.5" y="-63.5" font-family="Helvetica,sans-Serif" font-size="10.00">MainWindow.h</text>
</a>
</g>
</g>
<!-- Node2&#45;&gt;Node4 -->
<g id="edge3" class="edge"><title>Node2&#45;&gt;Node4</title>
<path fill="none" stroke="midnightblue" d="M125.5,-101.805C125.5,-92.9102 125.5,-82.7798 125.5,-75.7511"/>
<polygon fill="midnightblue" stroke="midnightblue" points="122,-102.083 125.5,-112.083 129,-102.083 122,-102.083"/>
</g>
<!-- Node4&#45;&gt;Node5 -->
<g id="edge4" class="edge"><title>Node4&#45;&gt;Node5</title>
<path fill="none" stroke="midnightblue" d="M144.538,-50.1008C156.956,-40.3824 172.743,-28.0269 183.212,-19.8339"/>
<polygon fill="midnightblue" stroke="midnightblue" points="142.304,-47.4046 136.586,-56.324 146.618,-52.9171 142.304,-47.4046"/>
</g>
<!-- Node6 -->
<g id="node6" class="node"><title>Node6</title>
<g id="a_node6"><a xlink:href="_main_window_8cpp.html" target="_top" xlink:title="MainWindow.cpp">
<polygon fill="none" stroke="black" points="56.5,-0.5 56.5,-19.5 148.5,-19.5 148.5,-0.5 56.5,-0.5"/>
<text text-anchor="middle" x="102.5" y="-7.5" font-family="Helvetica,sans-Serif" font-size="10.00">MainWindow.cpp</text>
</a>
</g>
</g>
<!-- Node4&#45;&gt;Node6 -->
<g id="edge5" class="edge"><title>Node4&#45;&gt;Node6</title>
<path fill="none" stroke="midnightblue" d="M117.701,-46.6897C113.825,-37.589 109.321,-27.0141 106.227,-19.7511"/>
<polygon fill="midnightblue" stroke="midnightblue" points="114.563,-48.2543 121.702,-56.083 121.003,-45.5112 114.563,-48.2543"/>
</g>
<!-- Node7&#45;&gt;Node8 -->
<g id="edge7" class="edge"><title>Node7&#45;&gt;Node8</title>
<path fill="none" stroke="midnightblue" d="M286.319,-105.537C275.621,-95.9087 262.244,-83.8694 253.315,-75.8339"/>
<polygon fill="midnightblue" stroke="midnightblue" points="284.086,-108.236 293.86,-112.324 288.768,-103.033 284.086,-108.236"/>
</g>
<!-- Node10 -->
<g id="node10" class="node"><title>Node10</title>
<g id="a_node10"><a xlink:href="solver_8h.html" target="_top" xlink:title="solver.h">
<polygon fill="none" stroke="black" points="282,-56.5 282,-75.5 333,-75.5 333,-56.5 282,-56.5"/>
<text text-anchor="middle" x="307.5" y="-63.5" font-family="Helvetica,sans-Serif" font-size="10.00">solver.h</text>
</a>
</g>
</g>
<!-- Node7&#45;&gt;Node10 -->
<g id="edge10" class="edge"><title>Node7&#45;&gt;Node10</title>
<path fill="none" stroke="midnightblue" d="M304.9,-102.101C305.564,-93.1357 306.325,-82.8579 306.852,-75.7511"/>
<polygon fill="midnightblue" stroke="midnightblue" points="301.409,-101.852 304.161,-112.083 308.39,-102.369 301.409,-101.852"/>
</g>
<!-- Node12 -->
<g id="node12" class="node"><title>Node12</title>
<g id="a_node12"><a xlink:href="road_8cpp.html" target="_top" xlink:title="road.cpp">
<polygon fill="none" stroke="black" points="351.5,-56.5 351.5,-75.5 405.5,-75.5 405.5,-56.5 351.5,-56.5"/>
<text text-anchor="middle" x="378.5" y="-63.5" font-family="Helvetica,sans-Serif" font-size="10.00">road.cpp</text>
</a>
</g>
</g>
<!-- Node7&#45;&gt;Node12 -->
<g id="edge13" class="edge"><title>Node7&#45;&gt;Node12</title>
<path fill="none" stroke="midnightblue" d="M323.805,-106.38C337.361,-96.6204 354.742,-84.1057 366.231,-75.8339"/>
<polygon fill="midnightblue" stroke="midnightblue" points="321.62,-103.641 315.55,-112.324 325.71,-109.321 321.62,-103.641"/>
</g>
<!-- Node8&#45;&gt;Node5 -->
<g id="edge9" class="edge"><title>Node8&#45;&gt;Node5</title>
<path fill="none" stroke="midnightblue" d="M228.466,-48.4314C219.878,-38.9673 209.457,-27.4827 202.441,-19.7511"/>
<polygon fill="midnightblue" stroke="midnightblue" points="226.097,-51.0293 235.409,-56.083 231.281,-46.3254 226.097,-51.0293"/>
</g>
<!-- Node9 -->
<g id="node9" class="node"><title>Node9</title>
<g id="a_node9"><a xlink:href="grid_8cpp.html" target="_top" xlink:title="grid.cpp">
<polygon fill="none" stroke="black" points="241,-0.5 241,-19.5 292,-19.5 292,-0.5 241,-0.5"/>
<text text-anchor="middle" x="266.5" y="-7.5" font-family="Helvetica,sans-Serif" font-size="10.00">grid.cpp</text>
</a>
</g>
</g>
<!-- Node8&#45;&gt;Node9 -->
<g id="edge8" class="edge"><title>Node8&#45;&gt;Node9</title>
<path fill="none" stroke="midnightblue" d="M251.299,-46.6897C255.175,-37.589 259.679,-27.0141 262.773,-19.7511"/>
<polygon fill="midnightblue" stroke="midnightblue" points="247.997,-45.5112 247.298,-56.083 254.437,-48.2543 247.997,-45.5112"/>
</g>
<!-- Node10&#45;&gt;Node5 -->
<g id="edge11" class="edge"><title>Node10&#45;&gt;Node5</title>
<path fill="none" stroke="midnightblue" d="M280.497,-52.096C259.386,-42.0073 230.638,-28.2697 212.321,-19.5164"/>
<polygon fill="midnightblue" stroke="midnightblue" points="279.063,-55.2897 289.595,-56.4435 282.081,-48.9738 279.063,-55.2897"/>
</g>
<!-- Node11 -->
<g id="node11" class="node"><title>Node11</title>
<g id="a_node11"><a xlink:href="solver_8cpp.html" target="_top" xlink:title="solver.cpp">
<polygon fill="none" stroke="black" points="310.5,-0.5 310.5,-19.5 372.5,-19.5 372.5,-0.5 310.5,-0.5"/>
<text text-anchor="middle" x="341.5" y="-7.5" font-family="Helvetica,sans-Serif" font-size="10.00">solver.cpp</text>
</a>
</g>
</g>
<!-- Node10&#45;&gt;Node11 -->
<g id="edge12" class="edge"><title>Node10&#45;&gt;Node11</title>
<path fill="none" stroke="midnightblue" d="M318.477,-47.5656C324.327,-38.2747 331.27,-27.2484 335.99,-19.7511"/>
<polygon fill="midnightblue" stroke="midnightblue" points="315.481,-45.7558 313.114,-56.083 321.404,-49.4855 315.481,-45.7558"/>
</g>
<!-- Node14 -->
<g id="node14" class="node"><title>Node14</title>
<g id="a_node14"><a xlink:href="controller_8cpp.html" target="_top" xlink:title="controller.cpp">
<polygon fill="none" stroke="black" points="424,-56.5 424,-75.5 499,-75.5 499,-56.5 424,-56.5"/>
<text text-anchor="middle" x="461.5" y="-63.5" font-family="Helvetica,sans-Serif" font-size="10.00">controller.cpp</text>
</a>
</g>
</g>
<!-- Node13&#45;&gt;Node14 -->
<g id="edge16" class="edge"><title>Node13&#45;&gt;Node14</title>
<path fill="none" stroke="midnightblue" d="M398.694,-106.901C414.28,-96.9986 434.63,-84.0705 447.877,-75.6545"/>
<polygon fill="midnightblue" stroke="midnightblue" points="396.721,-104.007 390.157,-112.324 400.474,-109.916 396.721,-104.007"/>
</g>
<!-- Node16 -->
<g id="node16" class="node"><title>Node16</title>
<g id="a_node16"><a xlink:href="sauvegarde_8cpp.html" target="_top" xlink:title="sauvegarde.cpp">
<polygon fill="none" stroke="black" points="517.5,-56.5 517.5,-75.5 603.5,-75.5 603.5,-56.5 517.5,-56.5"/>
<text text-anchor="middle" x="560.5" y="-63.5" font-family="Helvetica,sans-Serif" font-size="10.00">sauvegarde.cpp</text>
</a>
</g>
</g>
<!-- Node15&#45;&gt;Node16 -->
<g id="edge19" class="edge"><title>Node15&#45;&gt;Node16</title>
<path fill="none" stroke="midnightblue" d="M489.074,-107.177C506.739,-97.2407 530.013,-84.1492 545.114,-75.6545"/>
<polygon fill="midnightblue" stroke="midnightblue" points="486.924,-104.371 479.924,-112.324 490.356,-110.472 486.924,-104.371"/>
</g>
</g>
</svg>
