<?xml version="1.0" encoding="UTF-8" standalone="no"?>
<!DOCTYPE svg PUBLIC "-//W3C//DTD SVG 1.1//EN"
 "http://www.w3.org/Graphics/SVG/1.1/DTD/svg11.dtd">
<!-- Generated by graphviz version 2.38.0 (20140413.2041)
 -->
<!-- Title: track.h Pages: 1 -->
<svg width="801pt" height="196pt"
 viewBox="0.00 0.00 801.00 196.00" xmlns="http://www.w3.org/2000/svg" xmlns:xlink="http://www.w3.org/1999/xlink">
<g id="graph0" class="graph" transform="scale(1 1) rotate(0) translate(4 192)">
<title>track.h</title>
<!-- Node1 -->
<g id="node1" class="node"><title>Node1</title>
<polygon fill="#bfbfbf" stroke="black" points="424,-168.5 424,-187.5 471,-187.5 471,-168.5 424,-168.5"/>
<text text-anchor="middle" x="447.5" y="-175.5" font-family="Helvetica,sans-Serif" font-size="10.00">track.h</text>
</g>
<!-- Node2 -->
<g id="node2" class="node"><title>Node2</title>
<polygon fill="none" stroke="#bfbfbf" points="0,-112.5 0,-131.5 53,-131.5 53,-112.5 0,-112.5"/>
<text text-anchor="middle" x="26.5" y="-119.5" font-family="Helvetica,sans-Serif" font-size="10.00">QObject</text>
</g>
<!-- Node1&#45;&gt;Node2 -->
<g id="edge1" class="edge"><title>Node1&#45;&gt;Node2</title>
<path fill="none" stroke="midnightblue" d="M423.816,-175.011C363.889,-169.801 201.466,-154.58 67.5,-132 66.2065,-131.782 64.8922,-131.55 63.5664,-131.307"/>
<polygon fill="midnightblue" stroke="midnightblue" points="63.8215,-127.79 53.3327,-129.286 62.4647,-134.658 63.8215,-127.79"/>
</g>
<!-- Node3 -->
<g id="node3" class="node"><title>Node3</title>
<g id="a_node3"><a xlink:href="point_g_p_s_8h.html" target="_top" xlink:title="pointGPS.h">
<polygon fill="none" stroke="black" points="232,-112.5 232,-131.5 299,-131.5 299,-112.5 232,-112.5"/>
<text text-anchor="middle" x="265.5" y="-119.5" font-family="Helvetica,sans-Serif" font-size="10.00">pointGPS.h</text>
</a>
</g>
</g>
<!-- Node1&#45;&gt;Node3 -->
<g id="edge2" class="edge"><title>Node1&#45;&gt;Node3</title>
<path fill="none" stroke="midnightblue" d="M423.707,-169.94C393.321,-160.925 340.349,-145.208 304.14,-134.465"/>
<polygon fill="midnightblue" stroke="midnightblue" points="304.987,-131.065 294.404,-131.576 302.996,-137.776 304.987,-131.065"/>
</g>
<!-- Node6 -->
<g id="node6" class="node"><title>Node6</title>
<polygon fill="none" stroke="#bfbfbf" points="302.5,-0.5 302.5,-19.5 356.5,-19.5 356.5,-0.5 302.5,-0.5"/>
<text text-anchor="middle" x="329.5" y="-7.5" font-family="Helvetica,sans-Serif" font-size="10.00">iostream</text>
</g>
<!-- Node1&#45;&gt;Node6 -->
<g id="edge12" class="edge"><title>Node1&#45;&gt;Node6</title>
<path fill="none" stroke="midnightblue" d="M423.669,-169.329C405.541,-162.328 381.273,-150.259 366.5,-132 342.057,-101.788 333.728,-55.5496 330.914,-29.8618"/>
<polygon fill="midnightblue" stroke="midnightblue" points="334.374,-29.2731 329.971,-19.6368 327.404,-29.9159 334.374,-29.2731"/>
</g>
<!-- Node7 -->
<g id="node7" class="node"><title>Node7</title>
<polygon fill="none" stroke="#bfbfbf" points="223.5,-0.5 223.5,-19.5 267.5,-19.5 267.5,-0.5 223.5,-0.5"/>
<text text-anchor="middle" x="245.5" y="-7.5" font-family="Helvetica,sans-Serif" font-size="10.00">vector</text>
</g>
<!-- Node1&#45;&gt;Node7 -->
<g id="edge15" class="edge"><title>Node1&#45;&gt;Node7</title>
<path fill="none" stroke="midnightblue" d="M423.965,-174.103C351.823,-164.663 136.487,-132.116 100.5,-76 72.6931,-32.6398 162.586,-17.9521 213.279,-13.178"/>
<polygon fill="midnightblue" stroke="midnightblue" points="213.781,-16.6477 223.444,-12.303 213.181,-9.67353 213.781,-16.6477"/>
</g>
<!-- Node8 -->
<g id="node8" class="node"><title>Node8</title>
<polygon fill="none" stroke="#bfbfbf" points="376,-112.5 376,-131.5 443,-131.5 443,-112.5 376,-112.5"/>
<text text-anchor="middle" x="409.5" y="-119.5" font-family="Helvetica,sans-Serif" font-size="10.00">QDateTime</text>
</g>
<!-- Node1&#45;&gt;Node8 -->
<g id="edge8" class="edge"><title>Node1&#45;&gt;Node8</title>
<path fill="none" stroke="midnightblue" d="M441.225,-168.083C435.858,-160.455 427.982,-149.264 421.421,-139.941"/>
<polygon fill="midnightblue" stroke="midnightblue" points="424.275,-137.915 415.658,-131.751 418.551,-141.943 424.275,-137.915"/>
</g>
<!-- Node9 -->
<g id="node9" class="node"><title>Node9</title>
<polygon fill="none" stroke="#bfbfbf" points="461.5,-112.5 461.5,-131.5 511.5,-131.5 511.5,-112.5 461.5,-112.5"/>
<text text-anchor="middle" x="486.5" y="-119.5" font-family="Helvetica,sans-Serif" font-size="10.00">QString</text>
</g>
<!-- Node1&#45;&gt;Node9 -->
<g id="edge9" class="edge"><title>Node1&#45;&gt;Node9</title>
<path fill="none" stroke="midnightblue" d="M453.94,-168.083C459.449,-160.455 467.531,-149.264 474.265,-139.941"/>
<polygon fill="midnightblue" stroke="midnightblue" points="477.162,-141.907 480.18,-131.751 471.487,-137.809 477.162,-141.907"/>
</g>
<!-- Node10 -->
<g id="node10" class="node"><title>Node10</title>
<polygon fill="none" stroke="#bfbfbf" points="530,-112.5 530,-131.5 595,-131.5 595,-112.5 530,-112.5"/>
<text text-anchor="middle" x="562.5" y="-119.5" font-family="Helvetica,sans-Serif" font-size="10.00">QStringList</text>
</g>
<!-- Node1&#45;&gt;Node10 -->
<g id="edge10" class="edge"><title>Node1&#45;&gt;Node10</title>
<path fill="none" stroke="midnightblue" d="M465.722,-168.444C484.396,-159.675 513.656,-145.935 535.117,-135.858"/>
<polygon fill="midnightblue" stroke="midnightblue" points="536.799,-138.935 544.363,-131.516 533.824,-132.599 536.799,-138.935"/>
</g>
<!-- Node11 -->
<g id="node11" class="node"><title>Node11</title>
<polygon fill="none" stroke="#bfbfbf" points="613.5,-112.5 613.5,-131.5 663.5,-131.5 663.5,-112.5 613.5,-112.5"/>
<text text-anchor="middle" x="638.5" y="-119.5" font-family="Helvetica,sans-Serif" font-size="10.00">fstream</text>
</g>
<!-- Node1&#45;&gt;Node11 -->
<g id="edge11" class="edge"><title>Node1&#45;&gt;Node11</title>
<path fill="none" stroke="midnightblue" d="M471.304,-170.27C504.627,-160.849 565.395,-143.668 603.769,-132.819"/>
<polygon fill="midnightblue" stroke="midnightblue" points="604.814,-136.161 613.485,-130.072 602.91,-129.425 604.814,-136.161"/>
</g>
<!-- Node12 -->
<g id="node12" class="node"><title>Node12</title>
<polygon fill="none" stroke="#bfbfbf" points="681.5,-112.5 681.5,-131.5 733.5,-131.5 733.5,-112.5 681.5,-112.5"/>
<text text-anchor="middle" x="707.5" y="-119.5" font-family="Helvetica,sans-Serif" font-size="10.00">sstream</text>
</g>
<!-- Node1&#45;&gt;Node12 -->
<g id="edge13" class="edge"><title>Node1&#45;&gt;Node12</title>
<path fill="none" stroke="midnightblue" d="M471.238,-172.691C510.681,-165.438 592.419,-150.01 671.09,-132.229"/>
<polygon fill="midnightblue" stroke="midnightblue" points="672.191,-135.568 681.164,-129.935 670.637,-128.743 672.191,-135.568"/>
</g>
<!-- Node13 -->
<g id="node13" class="node"><title>Node13</title>
<polygon fill="none" stroke="#bfbfbf" points="752,-112.5 752,-131.5 793,-131.5 793,-112.5 752,-112.5"/>
<text text-anchor="middle" x="772.5" y="-119.5" font-family="Helvetica,sans-Serif" font-size="10.00">string</text>
</g>
<!-- Node1&#45;&gt;Node13 -->
<g id="edge14" class="edge"><title>Node1&#45;&gt;Node13</title>
<path fill="none" stroke="midnightblue" d="M471.036,-174.545C519.776,-169.22 635.394,-155.345 741.989,-131.813"/>
<polygon fill="midnightblue" stroke="midnightblue" points="742.952,-135.184 751.944,-129.58 741.42,-128.353 742.952,-135.184"/>
</g>
<!-- Node4 -->
<g id="node4" class="node"><title>Node4</title>
<g id="a_node4"><a xlink:href="emissionprobability_8h.html" target="_top" xlink:title="emissionprobability.h">
<polygon fill="none" stroke="black" points="109.5,-56.5 109.5,-75.5 217.5,-75.5 217.5,-56.5 109.5,-56.5"/>
<text text-anchor="middle" x="163.5" y="-63.5" font-family="Helvetica,sans-Serif" font-size="10.00">emissionprobability.h</text>
</a>
</g>
</g>
<!-- Node3&#45;&gt;Node4 -->
<g id="edge3" class="edge"><title>Node3&#45;&gt;Node4</title>
<path fill="none" stroke="midnightblue" d="M249.112,-112.324C232.829,-103.703 207.633,-90.3643 188.784,-80.3855"/>
<polygon fill="midnightblue" stroke="midnightblue" points="190.323,-77.2402 179.847,-75.6545 187.048,-83.4267 190.323,-77.2402"/>
</g>
<!-- Node5 -->
<g id="node5" class="node"><title>Node5</title>
<g id="a_node5"><a xlink:href="point_8h.html" target="_top" xlink:title="Class Point. ">
<polygon fill="none" stroke="black" points="273.5,-56.5 273.5,-75.5 319.5,-75.5 319.5,-56.5 273.5,-56.5"/>
<text text-anchor="middle" x="296.5" y="-63.5" font-family="Helvetica,sans-Serif" font-size="10.00">point.h</text>
</a>
</g>
</g>
<!-- Node3&#45;&gt;Node5 -->
<g id="edge4" class="edge"><title>Node3&#45;&gt;Node5</title>
<path fill="none" stroke="midnightblue" d="M270.619,-112.083C274.908,-104.613 281.158,-93.7244 286.442,-84.5199"/>
<polygon fill="midnightblue" stroke="midnightblue" points="289.533,-86.1662 291.476,-75.7511 283.462,-82.6811 289.533,-86.1662"/>
</g>
<!-- Node3&#45;&gt;Node7 -->
<g id="edge7" class="edge"><title>Node3&#45;&gt;Node7</title>
<path fill="none" stroke="midnightblue" d="M263.931,-112.368C260.703,-94.617 253.258,-53.6664 248.881,-29.5974"/>
<polygon fill="midnightblue" stroke="midnightblue" points="252.295,-28.804 247.062,-19.5914 245.407,-30.0562 252.295,-28.804"/>
</g>
<!-- Node5&#45;&gt;Node6 -->
<g id="edge5" class="edge"><title>Node5&#45;&gt;Node6</title>
<path fill="none" stroke="midnightblue" d="M301.949,-56.083C306.514,-48.6127 313.168,-37.7244 318.793,-28.5199"/>
<polygon fill="midnightblue" stroke="midnightblue" points="321.924,-30.109 324.152,-19.7511 315.951,-26.4588 321.924,-30.109"/>
</g>
<!-- Node5&#45;&gt;Node7 -->
<g id="edge6" class="edge"><title>Node5&#45;&gt;Node7</title>
<path fill="none" stroke="midnightblue" d="M288.078,-56.083C280.652,-48.2195 269.648,-36.5688 260.688,-27.0813"/>
<polygon fill="midnightblue" stroke="midnightblue" points="263.176,-24.618 253.765,-19.7511 258.087,-29.4244 263.176,-24.618"/>
</g>
</g>
</svg>
