<?xml version="1.0" encoding="UTF-8" standalone="no"?>
<!DOCTYPE svg PUBLIC "-//W3C//DTD SVG 1.1//EN"
 "http://www.w3.org/Graphics/SVG/1.1/DTD/svg11.dtd">
<!-- Generated by graphviz version 2.38.0 (20140413.2041)
 -->
<!-- Title: track.cpp Pages: 1 -->
<svg width="779pt" height="252pt"
 viewBox="0.00 0.00 779.32 252.00" xmlns="http://www.w3.org/2000/svg" xmlns:xlink="http://www.w3.org/1999/xlink">
<g id="graph0" class="graph" transform="scale(1 1) rotate(0) translate(4 248)">
<title>track.cpp</title>
<!-- Node1 -->
<g id="node1" class="node"><title>Node1</title>
<polygon fill="#bfbfbf" stroke="black" points="629.821,-224.5 629.821,-243.5 686.821,-243.5 686.821,-224.5 629.821,-224.5"/>
<text text-anchor="middle" x="658.321" y="-231.5" font-family="Helvetica,sans-Serif" font-size="10.00">track.cpp</text>
</g>
<!-- Node2 -->
<g id="node2" class="node"><title>Node2</title>
<g id="a_node2"><a xlink:href="track_8h.html" target="_top" xlink:title="The class Track. ">
<polygon fill="none" stroke="black" points="443.821,-168.5 443.821,-187.5 490.821,-187.5 490.821,-168.5 443.821,-168.5"/>
<text text-anchor="middle" x="467.321" y="-175.5" font-family="Helvetica,sans-Serif" font-size="10.00">track.h</text>
</a>
</g>
</g>
<!-- Node1&#45;&gt;Node2 -->
<g id="edge1" class="edge"><title>Node1&#45;&gt;Node2</title>
<path fill="none" stroke="midnightblue" d="M629.726,-224.916C595.196,-215.153 537.215,-198.76 500.679,-188.431"/>
<polygon fill="midnightblue" stroke="midnightblue" points="501.555,-185.042 490.98,-185.689 499.651,-191.778 501.555,-185.042"/>
</g>
<!-- Node13 -->
<g id="node13" class="node"><title>Node13</title>
<polygon fill="none" stroke="#bfbfbf" points="717.321,-112.5 717.321,-131.5 769.321,-131.5 769.321,-112.5 717.321,-112.5"/>
<text text-anchor="middle" x="743.321" y="-119.5" font-family="Helvetica,sans-Serif" font-size="10.00">sstream</text>
</g>
<!-- Node1&#45;&gt;Node13 -->
<g id="edge19" class="edge"><title>Node1&#45;&gt;Node13</title>
<path fill="none" stroke="midnightblue" d="M653.946,-224.241C648.009,-210.989 639.328,-185.532 650.321,-168 657.147,-157.115 685.458,-144.32 709.069,-135.162"/>
<polygon fill="midnightblue" stroke="midnightblue" points="710.377,-138.409 718.493,-131.598 707.901,-131.862 710.377,-138.409"/>
</g>
<!-- Node15 -->
<g id="node15" class="node"><title>Node15</title>
<polygon fill="none" stroke="#bfbfbf" points="659.821,-168.5 659.821,-187.5 712.821,-187.5 712.821,-168.5 659.821,-168.5"/>
<text text-anchor="middle" x="686.321" y="-175.5" font-family="Helvetica,sans-Serif" font-size="10.00">QLocale</text>
</g>
<!-- Node1&#45;&gt;Node15 -->
<g id="edge17" class="edge"><title>Node1&#45;&gt;Node15</title>
<path fill="none" stroke="midnightblue" d="M662.945,-224.083C666.777,-216.691 672.345,-205.953 677.086,-196.811"/>
<polygon fill="midnightblue" stroke="midnightblue" points="680.287,-198.24 681.783,-187.751 674.073,-195.018 680.287,-198.24"/>
</g>
<!-- Node16 -->
<g id="node16" class="node"><title>Node16</title>
<polygon fill="none" stroke="#bfbfbf" points="731.321,-168.5 731.321,-187.5 771.321,-187.5 771.321,-168.5 731.321,-168.5"/>
<text text-anchor="middle" x="751.321" y="-175.5" font-family="Helvetica,sans-Serif" font-size="10.00">limits</text>
</g>
<!-- Node1&#45;&gt;Node16 -->
<g id="edge18" class="edge"><title>Node1&#45;&gt;Node16</title>
<path fill="none" stroke="midnightblue" d="M673.263,-224.324C687.906,-215.822 710.455,-202.729 727.559,-192.797"/>
<polygon fill="midnightblue" stroke="midnightblue" points="729.526,-195.703 736.416,-187.655 726.011,-189.649 729.526,-195.703"/>
</g>
<!-- Node3 -->
<g id="node3" class="node"><title>Node3</title>
<polygon fill="none" stroke="#bfbfbf" points="645.821,-112.5 645.821,-131.5 698.821,-131.5 698.821,-112.5 645.821,-112.5"/>
<text text-anchor="middle" x="672.321" y="-119.5" font-family="Helvetica,sans-Serif" font-size="10.00">QObject</text>
</g>
<!-- Node2&#45;&gt;Node3 -->
<g id="edge2" class="edge"><title>Node2&#45;&gt;Node3</title>
<path fill="none" stroke="midnightblue" d="M490.837,-170.806C526.3,-161.464 593.769,-143.692 635.704,-132.645"/>
<polygon fill="midnightblue" stroke="midnightblue" points="636.746,-135.991 645.524,-130.059 634.962,-129.221 636.746,-135.991"/>
</g>
<!-- Node4 -->
<g id="node4" class="node"><title>Node4</title>
<g id="a_node4"><a xlink:href="point_g_p_s_8h.html" target="_top" xlink:title="pointGPS.h">
<polygon fill="none" stroke="black" points="136.821,-112.5 136.821,-131.5 203.821,-131.5 203.821,-112.5 136.821,-112.5"/>
<text text-anchor="middle" x="170.321" y="-119.5" font-family="Helvetica,sans-Serif" font-size="10.00">pointGPS.h</text>
</a>
</g>
</g>
<!-- Node2&#45;&gt;Node4 -->
<g id="edge3" class="edge"><title>Node2&#45;&gt;Node4</title>
<path fill="none" stroke="midnightblue" d="M443.768,-172.718C394.121,-163.691 278.065,-142.59 214.267,-130.99"/>
<polygon fill="midnightblue" stroke="midnightblue" points="214.583,-127.49 204.118,-129.145 213.331,-134.377 214.583,-127.49"/>
</g>
<!-- Node7 -->
<g id="node7" class="node"><title>Node7</title>
<polygon fill="none" stroke="#bfbfbf" points="207.321,-0.5 207.321,-19.5 261.321,-19.5 261.321,-0.5 207.321,-0.5"/>
<text text-anchor="middle" x="234.321" y="-7.5" font-family="Helvetica,sans-Serif" font-size="10.00">iostream</text>
</g>
<!-- Node2&#45;&gt;Node7 -->
<g id="edge13" class="edge"><title>Node2&#45;&gt;Node7</title>
<path fill="none" stroke="midnightblue" d="M443.482,-174.504C396.914,-169.166 296.231,-155.2 271.321,-132 242.475,-105.135 235.889,-56.4798 234.53,-29.7826"/>
<polygon fill="midnightblue" stroke="midnightblue" points="238.02,-29.4027 234.214,-19.5148 231.023,-29.6176 238.02,-29.4027"/>
</g>
<!-- Node8 -->
<g id="node8" class="node"><title>Node8</title>
<polygon fill="none" stroke="#bfbfbf" points="128.321,-0.5 128.321,-19.5 172.321,-19.5 172.321,-0.5 128.321,-0.5"/>
<text text-anchor="middle" x="150.321" y="-7.5" font-family="Helvetica,sans-Serif" font-size="10.00">vector</text>
</g>
<!-- Node2&#45;&gt;Node8 -->
<g id="edge16" class="edge"><title>Node2&#45;&gt;Node8</title>
<path fill="none" stroke="midnightblue" d="M443.602,-175.994C356.069,-171.698 53.7422,-151.505 5.32102,-76 -22.4859,-32.6398 67.4075,-17.9521 118.1,-13.178"/>
<polygon fill="midnightblue" stroke="midnightblue" points="118.602,-16.6477 128.265,-12.303 118.002,-9.67353 118.602,-16.6477"/>
</g>
<!-- Node9 -->
<g id="node9" class="node"><title>Node9</title>
<polygon fill="none" stroke="#bfbfbf" points="280.821,-112.5 280.821,-131.5 347.821,-131.5 347.821,-112.5 280.821,-112.5"/>
<text text-anchor="middle" x="314.321" y="-119.5" font-family="Helvetica,sans-Serif" font-size="10.00">QDateTime</text>
</g>
<!-- Node2&#45;&gt;Node9 -->
<g id="edge9" class="edge"><title>Node2&#45;&gt;Node9</title>
<path fill="none" stroke="midnightblue" d="M443.75,-168.681C418.181,-159.656 377.138,-145.171 348.135,-134.934"/>
<polygon fill="midnightblue" stroke="midnightblue" points="349.019,-131.535 338.424,-131.507 346.689,-138.136 349.019,-131.535"/>
</g>
<!-- Node10 -->
<g id="node10" class="node"><title>Node10</title>
<polygon fill="none" stroke="#bfbfbf" points="366.321,-112.5 366.321,-131.5 416.321,-131.5 416.321,-112.5 366.321,-112.5"/>
<text text-anchor="middle" x="391.321" y="-119.5" font-family="Helvetica,sans-Serif" font-size="10.00">QString</text>
</g>
<!-- Node2&#45;&gt;Node10 -->
<g id="edge10" class="edge"><title>Node2&#45;&gt;Node10</title>
<path fill="none" stroke="midnightblue" d="M455.11,-168.324C443.545,-160.107 425.946,-147.602 412.16,-137.807"/>
<polygon fill="midnightblue" stroke="midnightblue" points="413.933,-134.773 403.754,-131.834 409.878,-140.479 413.933,-134.773"/>
</g>
<!-- Node11 -->
<g id="node11" class="node"><title>Node11</title>
<polygon fill="none" stroke="#bfbfbf" points="434.821,-112.5 434.821,-131.5 499.821,-131.5 499.821,-112.5 434.821,-112.5"/>
<text text-anchor="middle" x="467.321" y="-119.5" font-family="Helvetica,sans-Serif" font-size="10.00">QStringList</text>
</g>
<!-- Node2&#45;&gt;Node11 -->
<g id="edge11" class="edge"><title>Node2&#45;&gt;Node11</title>
<path fill="none" stroke="midnightblue" d="M467.321,-168.083C467.321,-161.006 467.321,-150.861 467.321,-141.986"/>
<polygon fill="midnightblue" stroke="midnightblue" points="470.821,-141.751 467.321,-131.751 463.821,-141.751 470.821,-141.751"/>
</g>
<!-- Node12 -->
<g id="node12" class="node"><title>Node12</title>
<polygon fill="none" stroke="#bfbfbf" points="518.321,-112.5 518.321,-131.5 568.321,-131.5 568.321,-112.5 518.321,-112.5"/>
<text text-anchor="middle" x="543.321" y="-119.5" font-family="Helvetica,sans-Serif" font-size="10.00">fstream</text>
</g>
<!-- Node2&#45;&gt;Node12 -->
<g id="edge12" class="edge"><title>Node2&#45;&gt;Node12</title>
<path fill="none" stroke="midnightblue" d="M479.532,-168.324C491.097,-160.107 508.696,-147.602 522.482,-137.807"/>
<polygon fill="midnightblue" stroke="midnightblue" points="524.764,-140.479 530.888,-131.834 520.709,-134.773 524.764,-140.479"/>
</g>
<!-- Node2&#45;&gt;Node13 -->
<g id="edge14" class="edge"><title>Node2&#45;&gt;Node13</title>
<path fill="none" stroke="midnightblue" d="M490.921,-173.056C532.449,-166.013 621.491,-150.454 707.134,-131.924"/>
<polygon fill="midnightblue" stroke="midnightblue" points="707.993,-135.319 717.018,-129.768 706.501,-128.479 707.993,-135.319"/>
</g>
<!-- Node14 -->
<g id="node14" class="node"><title>Node14</title>
<polygon fill="none" stroke="#bfbfbf" points="586.821,-112.5 586.821,-131.5 627.821,-131.5 627.821,-112.5 586.821,-112.5"/>
<text text-anchor="middle" x="607.321" y="-119.5" font-family="Helvetica,sans-Serif" font-size="10.00">string</text>
</g>
<!-- Node2&#45;&gt;Node14 -->
<g id="edge15" class="edge"><title>Node2&#45;&gt;Node14</title>
<path fill="none" stroke="midnightblue" d="M489.504,-168.444C513.16,-159.319 550.77,-144.813 577.117,-134.65"/>
<polygon fill="midnightblue" stroke="midnightblue" points="578.54,-137.853 586.611,-130.988 576.021,-131.322 578.54,-137.853"/>
</g>
<!-- Node5 -->
<g id="node5" class="node"><title>Node5</title>
<g id="a_node5"><a xlink:href="emissionprobability_8h.html" target="_top" xlink:title="emissionprobability.h">
<polygon fill="none" stroke="black" points="14.321,-56.5 14.321,-75.5 122.321,-75.5 122.321,-56.5 14.321,-56.5"/>
<text text-anchor="middle" x="68.321" y="-63.5" font-family="Helvetica,sans-Serif" font-size="10.00">emissionprobability.h</text>
</a>
</g>
</g>
<!-- Node4&#45;&gt;Node5 -->
<g id="edge4" class="edge"><title>Node4&#45;&gt;Node5</title>
<path fill="none" stroke="midnightblue" d="M153.933,-112.324C137.65,-103.703 112.454,-90.3643 93.6048,-80.3855"/>
<polygon fill="midnightblue" stroke="midnightblue" points="95.1439,-77.2402 84.6684,-75.6545 91.8687,-83.4267 95.1439,-77.2402"/>
</g>
<!-- Node6 -->
<g id="node6" class="node"><title>Node6</title>
<g id="a_node6"><a xlink:href="point_8h.html" target="_top" xlink:title="Class Point. ">
<polygon fill="none" stroke="black" points="178.321,-56.5 178.321,-75.5 224.321,-75.5 224.321,-56.5 178.321,-56.5"/>
<text text-anchor="middle" x="201.321" y="-63.5" font-family="Helvetica,sans-Serif" font-size="10.00">point.h</text>
</a>
</g>
</g>
<!-- Node4&#45;&gt;Node6 -->
<g id="edge5" class="edge"><title>Node4&#45;&gt;Node6</title>
<path fill="none" stroke="midnightblue" d="M175.44,-112.083C179.729,-104.613 185.979,-93.7244 191.263,-84.5199"/>
<polygon fill="midnightblue" stroke="midnightblue" points="194.354,-86.1662 196.297,-75.7511 188.283,-82.6811 194.354,-86.1662"/>
</g>
<!-- Node4&#45;&gt;Node8 -->
<g id="edge8" class="edge"><title>Node4&#45;&gt;Node8</title>
<path fill="none" stroke="midnightblue" d="M168.752,-112.368C165.524,-94.617 158.079,-53.6664 153.702,-29.5974"/>
<polygon fill="midnightblue" stroke="midnightblue" points="157.116,-28.804 151.883,-19.5914 150.228,-30.0562 157.116,-28.804"/>
</g>
<!-- Node6&#45;&gt;Node7 -->
<g id="edge6" class="edge"><title>Node6&#45;&gt;Node7</title>
<path fill="none" stroke="midnightblue" d="M206.77,-56.083C211.335,-48.6127 217.989,-37.7244 223.614,-28.5199"/>
<polygon fill="midnightblue" stroke="midnightblue" points="226.745,-30.109 228.973,-19.7511 220.772,-26.4588 226.745,-30.109"/>
</g>
<!-- Node6&#45;&gt;Node8 -->
<g id="edge7" class="edge"><title>Node6&#45;&gt;Node8</title>
<path fill="none" stroke="midnightblue" d="M192.899,-56.083C185.473,-48.2195 174.469,-36.5688 165.509,-27.0813"/>
<polygon fill="midnightblue" stroke="midnightblue" points="167.997,-24.618 158.586,-19.7511 162.908,-29.4244 167.997,-24.618"/>
</g>
</g>
</svg>
