<?xml version="1.0" encoding="UTF-8" standalone="no"?>
<!DOCTYPE svg PUBLIC "-//W3C//DTD SVG 1.1//EN"
 "http://www.w3.org/Graphics/SVG/1.1/DTD/svg11.dtd">
<!-- Generated by graphviz version 2.38.0 (20140413.2041)
 -->
<!-- Title: track.cpp Pages: 1 -->
<svg width="716pt" height="252pt"
 viewBox="0.00 0.00 716.00 252.00" xmlns="http://www.w3.org/2000/svg" xmlns:xlink="http://www.w3.org/1999/xlink">
<g id="graph0" class="graph" transform="scale(1 1) rotate(0) translate(4 248)">
<title>track.cpp</title>
<!-- Node1 -->
<g id="node1" class="node"><title>Node1</title>
<polygon fill="#bfbfbf" stroke="black" points="565.5,-224.5 565.5,-243.5 622.5,-243.5 622.5,-224.5 565.5,-224.5"/>
<text text-anchor="middle" x="594" y="-231.5" font-family="Helvetica,sans-Serif" font-size="10.00">track.cpp</text>
</g>
<!-- Node2 -->
<g id="node2" class="node"><title>Node2</title>
<g id="a_node2"><a xlink:href="track_8h.html" target="_top" xlink:title="The class Track. ">
<polygon fill="none" stroke="black" points="377.5,-168.5 377.5,-187.5 424.5,-187.5 424.5,-168.5 377.5,-168.5"/>
<text text-anchor="middle" x="401" y="-175.5" font-family="Helvetica,sans-Serif" font-size="10.00">track.h</text>
</a>
</g>
</g>
<!-- Node1&#45;&gt;Node2 -->
<g id="edge1" class="edge"><title>Node1&#45;&gt;Node2</title>
<path fill="none" stroke="midnightblue" d="M565.106,-224.916C530.118,-215.126 471.302,-198.67 434.403,-188.346"/>
<polygon fill="midnightblue" stroke="midnightblue" points="435.188,-184.931 424.614,-185.607 433.301,-191.672 435.188,-184.931"/>
</g>
<!-- Node13 -->
<g id="node13" class="node"><title>Node13</title>
<polygon fill="none" stroke="#bfbfbf" points="656,-112.5 656,-131.5 708,-131.5 708,-112.5 656,-112.5"/>
<text text-anchor="middle" x="682" y="-119.5" font-family="Helvetica,sans-Serif" font-size="10.00">sstream</text>
</g>
<!-- Node1&#45;&gt;Node13 -->
<g id="edge18" class="edge"><title>Node1&#45;&gt;Node13</title>
<path fill="none" stroke="midnightblue" d="M589.598,-224.224C583.626,-210.949 574.899,-185.464 586,-168 593.03,-156.941 621.936,-144.263 646.21,-135.189"/>
<polygon fill="midnightblue" stroke="midnightblue" points="647.711,-138.367 655.91,-131.657 645.316,-131.789 647.711,-138.367"/>
</g>
<!-- Node15 -->
<g id="node15" class="node"><title>Node15</title>
<polygon fill="none" stroke="#bfbfbf" points="595.5,-168.5 595.5,-187.5 648.5,-187.5 648.5,-168.5 595.5,-168.5"/>
<text text-anchor="middle" x="622" y="-175.5" font-family="Helvetica,sans-Serif" font-size="10.00">QLocale</text>
</g>
<!-- Node1&#45;&gt;Node15 -->
<g id="edge16" class="edge"><title>Node1&#45;&gt;Node15</title>
<path fill="none" stroke="midnightblue" d="M598.624,-224.083C602.456,-216.691 608.024,-205.953 612.765,-196.811"/>
<polygon fill="midnightblue" stroke="midnightblue" points="615.966,-198.24 617.462,-187.751 609.752,-195.018 615.966,-198.24"/>
</g>
<!-- Node16 -->
<g id="node16" class="node"><title>Node16</title>
<polygon fill="none" stroke="#bfbfbf" points="667,-168.5 667,-187.5 707,-187.5 707,-168.5 667,-168.5"/>
<text text-anchor="middle" x="687" y="-175.5" font-family="Helvetica,sans-Serif" font-size="10.00">limits</text>
</g>
<!-- Node1&#45;&gt;Node16 -->
<g id="edge17" class="edge"><title>Node1&#45;&gt;Node16</title>
<path fill="none" stroke="midnightblue" d="M608.942,-224.324C623.585,-215.822 646.134,-202.729 663.238,-192.797"/>
<polygon fill="midnightblue" stroke="midnightblue" points="665.205,-195.703 672.095,-187.655 661.69,-189.649 665.205,-195.703"/>
</g>
<!-- Node3 -->
<g id="node3" class="node"><title>Node3</title>
<polygon fill="none" stroke="#bfbfbf" points="57.5,-112.5 57.5,-131.5 110.5,-131.5 110.5,-112.5 57.5,-112.5"/>
<text text-anchor="middle" x="84" y="-119.5" font-family="Helvetica,sans-Serif" font-size="10.00">QObject</text>
</g>
<!-- Node2&#45;&gt;Node3 -->
<g id="edge2" class="edge"><title>Node2&#45;&gt;Node3</title>
<path fill="none" stroke="midnightblue" d="M377.467,-174.002C330.465,-167.854 221.466,-152.791 120.727,-132.212"/>
<polygon fill="midnightblue" stroke="midnightblue" points="121.194,-128.735 110.693,-130.138 119.777,-135.59 121.194,-128.735"/>
</g>
<!-- Node4 -->
<g id="node4" class="node"><title>Node4</title>
<g id="a_node4"><a xlink:href="point_g_p_s_8h.html" target="_top" xlink:title="pointGPS.h">
<polygon fill="none" stroke="black" points="128.5,-112.5 128.5,-131.5 195.5,-131.5 195.5,-112.5 128.5,-112.5"/>
<text text-anchor="middle" x="162" y="-119.5" font-family="Helvetica,sans-Serif" font-size="10.00">pointGPS.h</text>
</a>
</g>
</g>
<!-- Node2&#45;&gt;Node4 -->
<g id="edge3" class="edge"><title>Node2&#45;&gt;Node4</title>
<path fill="none" stroke="midnightblue" d="M377.21,-171.625C337.223,-162.59 255.975,-144.233 205.546,-132.839"/>
<polygon fill="midnightblue" stroke="midnightblue" points="206.112,-129.378 195.586,-130.588 204.569,-136.206 206.112,-129.378"/>
</g>
<!-- Node7 -->
<g id="node7" class="node"><title>Node7</title>
<polygon fill="none" stroke="#bfbfbf" points="178,-0.5 178,-19.5 232,-19.5 232,-0.5 178,-0.5"/>
<text text-anchor="middle" x="205" y="-7.5" font-family="Helvetica,sans-Serif" font-size="10.00">iostream</text>
</g>
<!-- Node2&#45;&gt;Node7 -->
<g id="edge12" class="edge"><title>Node2&#45;&gt;Node7</title>
<path fill="none" stroke="midnightblue" d="M377.112,-173.388C350.757,-168.297 308.45,-156.712 281,-132 252.933,-106.733 263.773,-87.5379 243,-56 236.335,-45.8808 227.698,-35.4878 220.343,-27.2426"/>
<polygon fill="midnightblue" stroke="midnightblue" points="222.868,-24.8179 213.536,-19.803 217.704,-29.5434 222.868,-24.8179"/>
</g>
<!-- Node8 -->
<g id="node8" class="node"><title>Node8</title>
<polygon fill="none" stroke="#bfbfbf" points="190,-56.5 190,-75.5 234,-75.5 234,-56.5 190,-56.5"/>
<text text-anchor="middle" x="212" y="-63.5" font-family="Helvetica,sans-Serif" font-size="10.00">vector</text>
</g>
<!-- Node2&#45;&gt;Node8 -->
<g id="edge15" class="edge"><title>Node2&#45;&gt;Node8</title>
<path fill="none" stroke="midnightblue" d="M377.482,-175.57C345.075,-172.48 286.352,-162.731 248,-132 232.933,-119.927 223.178,-99.7525 217.675,-85.0767"/>
<polygon fill="midnightblue" stroke="midnightblue" points="220.963,-83.8763 214.403,-75.5566 214.343,-86.1513 220.963,-83.8763"/>
</g>
<!-- Node9 -->
<g id="node9" class="node"><title>Node9</title>
<polygon fill="none" stroke="#bfbfbf" points="290.5,-112.5 290.5,-131.5 357.5,-131.5 357.5,-112.5 290.5,-112.5"/>
<text text-anchor="middle" x="324" y="-119.5" font-family="Helvetica,sans-Serif" font-size="10.00">QDateTime</text>
</g>
<!-- Node2&#45;&gt;Node9 -->
<g id="edge8" class="edge"><title>Node2&#45;&gt;Node9</title>
<path fill="none" stroke="midnightblue" d="M388.629,-168.324C376.842,-160.058 358.868,-147.453 344.864,-137.632"/>
<polygon fill="midnightblue" stroke="midnightblue" points="346.538,-134.531 336.341,-131.655 342.518,-140.262 346.538,-134.531"/>
</g>
<!-- Node10 -->
<g id="node10" class="node"><title>Node10</title>
<polygon fill="none" stroke="#bfbfbf" points="376,-112.5 376,-131.5 426,-131.5 426,-112.5 376,-112.5"/>
<text text-anchor="middle" x="401" y="-119.5" font-family="Helvetica,sans-Serif" font-size="10.00">QString</text>
</g>
<!-- Node2&#45;&gt;Node10 -->
<g id="edge9" class="edge"><title>Node2&#45;&gt;Node10</title>
<path fill="none" stroke="midnightblue" d="M401,-168.083C401,-161.006 401,-150.861 401,-141.986"/>
<polygon fill="midnightblue" stroke="midnightblue" points="404.5,-141.751 401,-131.751 397.5,-141.751 404.5,-141.751"/>
</g>
<!-- Node11 -->
<g id="node11" class="node"><title>Node11</title>
<polygon fill="none" stroke="#bfbfbf" points="444.5,-112.5 444.5,-131.5 509.5,-131.5 509.5,-112.5 444.5,-112.5"/>
<text text-anchor="middle" x="477" y="-119.5" font-family="Helvetica,sans-Serif" font-size="10.00">QStringList</text>
</g>
<!-- Node2&#45;&gt;Node11 -->
<g id="edge10" class="edge"><title>Node2&#45;&gt;Node11</title>
<path fill="none" stroke="midnightblue" d="M413.211,-168.324C424.776,-160.107 442.375,-147.602 456.161,-137.807"/>
<polygon fill="midnightblue" stroke="midnightblue" points="458.443,-140.479 464.567,-131.834 454.388,-134.773 458.443,-140.479"/>
</g>
<!-- Node12 -->
<g id="node12" class="node"><title>Node12</title>
<polygon fill="none" stroke="#bfbfbf" points="528,-112.5 528,-131.5 578,-131.5 578,-112.5 528,-112.5"/>
<text text-anchor="middle" x="553" y="-119.5" font-family="Helvetica,sans-Serif" font-size="10.00">fstream</text>
</g>
<!-- Node2&#45;&gt;Node12 -->
<g id="edge11" class="edge"><title>Node2&#45;&gt;Node12</title>
<path fill="none" stroke="midnightblue" d="M424.75,-168.562C450.145,-159.541 490.624,-145.16 519.306,-134.97"/>
<polygon fill="midnightblue" stroke="midnightblue" points="520.664,-138.202 528.915,-131.556 518.32,-131.606 520.664,-138.202"/>
</g>
<!-- Node2&#45;&gt;Node13 -->
<g id="edge13" class="edge"><title>Node2&#45;&gt;Node13</title>
<path fill="none" stroke="midnightblue" d="M424.75,-173.152C467.039,-166.19 558.356,-150.663 645.875,-131.903"/>
<polygon fill="midnightblue" stroke="midnightblue" points="646.664,-135.313 655.699,-129.779 645.185,-128.471 646.664,-135.313"/>
</g>
<!-- Node14 -->
<g id="node14" class="node"><title>Node14</title>
<polygon fill="none" stroke="#bfbfbf" points="596.5,-112.5 596.5,-131.5 637.5,-131.5 637.5,-112.5 596.5,-112.5"/>
<text text-anchor="middle" x="617" y="-119.5" font-family="Helvetica,sans-Serif" font-size="10.00">string</text>
</g>
<!-- Node2&#45;&gt;Node14 -->
<g id="edge14" class="edge"><title>Node2&#45;&gt;Node14</title>
<path fill="none" stroke="midnightblue" d="M424.593,-171.723C458.28,-164.095 522.303,-149.258 586.501,-132.018"/>
<polygon fill="midnightblue" stroke="midnightblue" points="587.646,-135.334 596.385,-129.344 585.818,-128.577 587.646,-135.334"/>
</g>
<!-- Node5 -->
<g id="node5" class="node"><title>Node5</title>
<g id="a_node5"><a xlink:href="emissionprobability_8h.html" target="_top" xlink:title="emissionprobability.h">
<polygon fill="none" stroke="black" points="0,-56.5 0,-75.5 108,-75.5 108,-56.5 0,-56.5"/>
<text text-anchor="middle" x="54" y="-63.5" font-family="Helvetica,sans-Serif" font-size="10.00">emissionprobability.h</text>
</a>
</g>
</g>
<!-- Node4&#45;&gt;Node5 -->
<g id="edge4" class="edge"><title>Node4&#45;&gt;Node5</title>
<path fill="none" stroke="midnightblue" d="M144.648,-112.324C127.328,-103.664 100.485,-90.2424 80.4981,-80.249"/>
<polygon fill="midnightblue" stroke="midnightblue" points="81.8186,-76.9962 71.309,-75.6545 78.688,-83.2572 81.8186,-76.9962"/>
</g>
<!-- Node6 -->
<g id="node6" class="node"><title>Node6</title>
<g id="a_node6"><a xlink:href="point_8h.html" target="_top" xlink:title="Class Point. ">
<polygon fill="none" stroke="black" points="126,-56.5 126,-75.5 172,-75.5 172,-56.5 126,-56.5"/>
<text text-anchor="middle" x="149" y="-63.5" font-family="Helvetica,sans-Serif" font-size="10.00">point.h</text>
</a>
</g>
</g>
<!-- Node4&#45;&gt;Node6 -->
<g id="edge5" class="edge"><title>Node4&#45;&gt;Node6</title>
<path fill="none" stroke="midnightblue" d="M159.853,-112.083C158.131,-104.927 155.653,-94.6353 153.5,-85.6911"/>
<polygon fill="midnightblue" stroke="midnightblue" points="156.85,-84.6541 151.107,-75.7511 150.045,-86.2925 156.85,-84.6541"/>
</g>
<!-- Node4&#45;&gt;Node8 -->
<g id="edge7" class="edge"><title>Node4&#45;&gt;Node8</title>
<path fill="none" stroke="midnightblue" d="M170.256,-112.083C177.465,-104.298 188.11,-92.8015 196.846,-83.3665"/>
<polygon fill="midnightblue" stroke="midnightblue" points="199.671,-85.4666 203.897,-75.7511 194.535,-80.7108 199.671,-85.4666"/>
</g>
<!-- Node6&#45;&gt;Node7 -->
<g id="edge6" class="edge"><title>Node6&#45;&gt;Node7</title>
<path fill="none" stroke="midnightblue" d="M157.997,-56.324C166.194,-48.4196 178.506,-36.5482 188.472,-26.9377"/>
<polygon fill="midnightblue" stroke="midnightblue" points="191.07,-29.2947 195.839,-19.8339 186.211,-24.2558 191.07,-29.2947"/>
</g>
</g>
</svg>
