<?xml version="1.0" encoding="UTF-8" standalone="no"?>
<!DOCTYPE svg PUBLIC "-//W3C//DTD SVG 1.1//EN"
 "http://www.w3.org/Graphics/SVG/1.1/DTD/svg11.dtd">
<!-- Generated by graphviz version 2.38.0 (20140413.2041)
 -->
<!-- Title: track.h Pages: 1 -->
<!--zoomable 364 -->
<svg id="main" version="1.1" xmlns="http://www.w3.org/2000/svg" xmlns:xlink="http://www.w3.org/1999/xlink" xml:space="preserve" onload="init(evt)">
<style type="text/css"><![CDATA[
.edge:hover path { stroke: red; }
.edge:hover polygon { stroke: red; fill: red; }
]]></style>
<script type="text/javascript"><![CDATA[
var edges = document.getElementsByTagName('g');
if (edges && edges.length) {
  for (var i=0;i<edges.length;i++) {
    if (edges[i].id.substr(0,4)=='edge') {
      edges[i].setAttribute('class','edge');
    }
  }
}
]]></script>
        <defs>
                <circle id="rim" cx="0" cy="0" r="7"/>
                <circle id="rim2" cx="0" cy="0" r="3.5"/>
                <g id="zoomPlus">
                        <use xlink:href="#rim" fill="#404040">
                                <set attributeName="fill" to="#808080" begin="zoomplus.mouseover" end="zoomplus.mouseout"/>
                        </use>
                        <path d="M-4,0h8M0,-4v8" fill="none" stroke="white" stroke-width="1.5" pointer-events="none"/>
                </g>
                <g id="zoomMin">
                        <use xlink:href="#rim" fill="#404040">
                                <set attributeName="fill" to="#808080" begin="zoomminus.mouseover" end="zoomminus.mouseout"/>
                        </use>
                        <path d="M-4,0h8" fill="none" stroke="white" stroke-width="1.5" pointer-events="none"/>
                </g>
                <g id="dirArrow">
                        <path fill="none" stroke="white" stroke-width="1.5" d="M0,-3.0v7 M-2.5,-0.5L0,-3.0L2.5,-0.5"/>
                </g>
               <g id="resetDef">
                       <use xlink:href="#rim2" fill="#404040">
                               <set attributeName="fill" to="#808080" begin="reset.mouseover" end="reset.mouseout"/>
                       </use>
               </g>
        </defs>

<script type="text/javascript">
var viewWidth = 780;
var viewHeight = 364;
var sectionId = 'dynsection-1';
</script>
<script xlink:href="svgpan.js"/>
<svg id="graph" class="graph">
<g id="viewport">
<title>track.h</title>
<!-- Node1 -->
<g id="node1" class="node"><title>Node1</title>
<polygon fill="#bfbfbf" stroke="black" points="332,-336.5 332,-355.5 379,-355.5 379,-336.5 332,-336.5"/>
<text text-anchor="middle" x="355.5" y="-343.5" font-family="Helvetica,sans-Serif" font-size="10.00">track.h</text>
</g>
<!-- Node2 -->
<g id="node2" class="node"><title>Node2</title>
<g id="a_node2"><a xlink:href="filtering_8h.html" target="_top" xlink:title="filtering.h">
<polygon fill="none" stroke="black" points="49.5,-280.5 49.5,-299.5 105.5,-299.5 105.5,-280.5 49.5,-280.5"/>
<text text-anchor="middle" x="77.5" y="-287.5" font-family="Helvetica,sans-Serif" font-size="10.00">filtering.h</text>
</a>
</g>
</g>
<!-- Node1&#45;&gt;Node2 -->
<g id="edge1" class="edge"><title>Node1&#45;&gt;Node2</title>
<path fill="none" stroke="midnightblue" d="M321.691,-338.803C275.829,-330.339 191.371,-314.551 119.5,-300 115.115,-299.112 110.478,-298.146 105.948,-297.187"/>
<polygon fill="midnightblue" stroke="midnightblue" points="321.213,-342.273 331.681,-340.643 322.481,-335.389 321.213,-342.273"/>
</g>
<!-- Node4 -->
<g id="node4" class="node"><title>Node4</title>
<g id="a_node4"><a xlink:href="_main_window_8h.html" target="_top" xlink:title="MainWindow.h">
<polygon fill="none" stroke="black" points="135,-56.5 135,-75.5 216,-75.5 216,-56.5 135,-56.5"/>
<text text-anchor="middle" x="175.5" y="-63.5" font-family="Helvetica,sans-Serif" font-size="10.00">MainWindow.h</text>
</a>
</g>
</g>
<!-- Node1&#45;&gt;Node4 -->
<g id="edge28" class="edge"><title>Node1&#45;&gt;Node4</title>
<path fill="none" stroke="midnightblue" d="M321.632,-343.364C259.475,-338.348 133.5,-317.949 133.5,-235 133.5,-235 133.5,-235 133.5,-177 133.5,-136.934 158.12,-93.739 169.66,-75.6923"/>
<polygon fill="midnightblue" stroke="midnightblue" points="321.517,-346.865 331.742,-344.089 322.018,-339.883 321.517,-346.865"/>
</g>
<!-- Node5 -->
<g id="node5" class="node"><title>Node5</title>
<g id="a_node5"><a xlink:href="main_8cpp.html" target="_top" xlink:title="main.cpp">
<polygon fill="none" stroke="black" points="337.5,-0.5 337.5,-19.5 393.5,-19.5 393.5,-0.5 337.5,-0.5"/>
<text text-anchor="middle" x="365.5" y="-7.5" font-family="Helvetica,sans-Serif" font-size="10.00">main.cpp</text>
</a>
</g>
</g>
<!-- Node1&#45;&gt;Node5 -->
<g id="edge29" class="edge"><title>Node1&#45;&gt;Node5</title>
<path fill="none" stroke="midnightblue" d="M389.461,-344.366C455.215,-341.149 593.5,-323.825 593.5,-235 593.5,-235 593.5,-235 593.5,-121 593.5,-33.3211 455.035,-15.4946 393.915,-11.8967"/>
<polygon fill="midnightblue" stroke="midnightblue" points="389.041,-340.88 379.19,-344.782 389.324,-347.874 389.041,-340.88"/>
</g>
<!-- Node7 -->
<g id="node7" class="node"><title>Node7</title>
<g id="a_node7"><a xlink:href="road_8h.html" target="_top" xlink:title="road.h">
<polygon fill="none" stroke="black" points="361.5,-280.5 361.5,-299.5 405.5,-299.5 405.5,-280.5 361.5,-280.5"/>
<text text-anchor="middle" x="383.5" y="-287.5" font-family="Helvetica,sans-Serif" font-size="10.00">road.h</text>
</a>
</g>
</g>
<!-- Node1&#45;&gt;Node7 -->
<g id="edge6" class="edge"><title>Node1&#45;&gt;Node7</title>
<path fill="none" stroke="midnightblue" d="M364.842,-326.983C369.595,-317.817 375.156,-307.092 378.962,-299.751"/>
<polygon fill="midnightblue" stroke="midnightblue" points="361.62,-325.594 360.124,-336.083 367.834,-328.817 361.62,-325.594"/>
</g>
<!-- Node8 -->
<g id="node8" class="node"><title>Node8</title>
<g id="a_node8"><a xlink:href="grid_8h.html" target="_top" xlink:title="grid.h">
<polygon fill="none" stroke="black" points="259,-224.5 259,-243.5 300,-243.5 300,-224.5 259,-224.5"/>
<text text-anchor="middle" x="279.5" y="-231.5" font-family="Helvetica,sans-Serif" font-size="10.00">grid.h</text>
</a>
</g>
</g>
<!-- Node1&#45;&gt;Node8 -->
<g id="edge26" class="edge"><title>Node1&#45;&gt;Node8</title>
<path fill="none" stroke="midnightblue" d="M339.236,-329.1C331.257,-320.836 321.816,-310.326 314.5,-300 301.163,-281.176 289.277,-256.688 283.396,-243.808"/>
<polygon fill="midnightblue" stroke="midnightblue" points="336.797,-331.611 346.319,-336.256 341.771,-326.687 336.797,-331.611"/>
</g>
<!-- Node10 -->
<g id="node10" class="node"><title>Node10</title>
<g id="a_node10"><a xlink:href="solver_8h.html" target="_top" xlink:title="solver.h">
<polygon fill="none" stroke="black" points="308,-168.5 308,-187.5 359,-187.5 359,-168.5 308,-168.5"/>
<text text-anchor="middle" x="333.5" y="-175.5" font-family="Helvetica,sans-Serif" font-size="10.00">solver.h</text>
</a>
</g>
</g>
<!-- Node1&#45;&gt;Node10 -->
<g id="edge27" class="edge"><title>Node1&#45;&gt;Node10</title>
<path fill="none" stroke="midnightblue" d="M352.973,-325.93C348.2,-289.92 338.037,-213.231 334.636,-187.568"/>
<polygon fill="midnightblue" stroke="midnightblue" points="349.534,-326.622 354.317,-336.075 356.473,-325.702 349.534,-326.622"/>
</g>
<!-- Node19 -->
<g id="node19" class="node"><title>Node19</title>
<g id="a_node19"><a xlink:href="sauvegarde_8h.html" target="_top" xlink:title="sauvegarde.h">
<polygon fill="none" stroke="black" points="622,-280.5 622,-299.5 697,-299.5 697,-280.5 622,-280.5"/>
<text text-anchor="middle" x="659.5" y="-287.5" font-family="Helvetica,sans-Serif" font-size="10.00">sauvegarde.h</text>
</a>
</g>
</g>
<!-- Node1&#45;&gt;Node19 -->
<g id="edge30" class="edge"><title>Node1&#45;&gt;Node19</title>
<path fill="none" stroke="midnightblue" d="M389.058,-339.039C446.178,-328.893 561.913,-308.335 621.761,-297.704"/>
<polygon fill="midnightblue" stroke="midnightblue" points="388.335,-335.613 379.101,-340.808 389.559,-342.505 388.335,-335.613"/>
</g>
<!-- Node21 -->
<g id="node21" class="node"><title>Node21</title>
<g id="a_node21"><a xlink:href="track_8cpp.html" target="_top" xlink:title="track.cpp">
<polygon fill="none" stroke="black" points="715,-280.5 715,-299.5 772,-299.5 772,-280.5 715,-280.5"/>
<text text-anchor="middle" x="743.5" y="-287.5" font-family="Helvetica,sans-Serif" font-size="10.00">track.cpp</text>
</a>
</g>
</g>
<!-- Node1&#45;&gt;Node21 -->
<g id="edge32" class="edge"><title>Node1&#45;&gt;Node21</title>
<path fill="none" stroke="midnightblue" d="M389.515,-341.822C452.279,-335.693 590.409,-320.968 705.5,-300 708.568,-299.441 711.761,-298.792 714.934,-298.104"/>
<polygon fill="midnightblue" stroke="midnightblue" points="389.015,-338.354 379.398,-342.799 389.688,-345.321 389.015,-338.354"/>
</g>
<!-- Node3 -->
<g id="node3" class="node"><title>Node3</title>
<g id="a_node3"><a xlink:href="filtering_8cpp.html" target="_top" xlink:title="filtering.cpp">
<polygon fill="none" stroke="black" points="0,-224.5 0,-243.5 67,-243.5 67,-224.5 0,-224.5"/>
<text text-anchor="middle" x="33.5" y="-231.5" font-family="Helvetica,sans-Serif" font-size="10.00">filtering.cpp</text>
</a>
</g>
</g>
<!-- Node2&#45;&gt;Node3 -->
<g id="edge2" class="edge"><title>Node2&#45;&gt;Node3</title>
<path fill="none" stroke="midnightblue" d="M63.7655,-272.144C56.0995,-262.736 46.8667,-251.405 40.6305,-243.751"/>
<polygon fill="midnightblue" stroke="midnightblue" points="61.2042,-274.541 70.2343,-280.083 66.6309,-270.12 61.2042,-274.541"/>
</g>
<!-- Node2&#45;&gt;Node4 -->
<g id="edge3" class="edge"><title>Node2&#45;&gt;Node4</title>
<path fill="none" stroke="midnightblue" d="M78.0551,-269.693C79.8683,-235.382 87.5117,-162.635 119.5,-112 129.492,-96.1834 147.001,-83.4524 159.787,-75.6212"/>
<polygon fill="midnightblue" stroke="midnightblue" points="74.5399,-269.992 77.6265,-280.128 81.534,-270.28 74.5399,-269.992"/>
</g>
<!-- Node4&#45;&gt;Node5 -->
<g id="edge4" class="edge"><title>Node4&#45;&gt;Node5</title>
<path fill="none" stroke="midnightblue" d="M215.443,-53.6479C251.989,-43.261 305.136,-28.1561 337.393,-18.9883"/>
<polygon fill="midnightblue" stroke="midnightblue" points="214.268,-50.343 205.606,-56.4435 216.182,-57.0763 214.268,-50.343"/>
</g>
<!-- Node6 -->
<g id="node6" class="node"><title>Node6</title>
<g id="a_node6"><a xlink:href="_main_window_8cpp.html" target="_top" xlink:title="MainWindow.cpp">
<polygon fill="none" stroke="black" points="129.5,-0.5 129.5,-19.5 221.5,-19.5 221.5,-0.5 129.5,-0.5"/>
<text text-anchor="middle" x="175.5" y="-7.5" font-family="Helvetica,sans-Serif" font-size="10.00">MainWindow.cpp</text>
</a>
</g>
</g>
<!-- Node4&#45;&gt;Node6 -->
<g id="edge5" class="edge"><title>Node4&#45;&gt;Node6</title>
<path fill="none" stroke="midnightblue" d="M175.5,-45.8045C175.5,-36.9102 175.5,-26.7798 175.5,-19.7511"/>
<polygon fill="midnightblue" stroke="midnightblue" points="172,-46.083 175.5,-56.083 179,-46.083 172,-46.083"/>
</g>
<!-- Node7&#45;&gt;Node8 -->
<g id="edge7" class="edge"><title>Node7&#45;&gt;Node8</title>
<path fill="none" stroke="midnightblue" d="M357.672,-275.59C338.443,-265.605 312.755,-252.267 296.168,-243.655"/>
<polygon fill="midnightblue" stroke="midnightblue" points="356.303,-278.822 366.791,-280.324 359.529,-272.61 356.303,-278.822"/>
</g>
<!-- Node7&#45;&gt;Node10 -->
<g id="edge24" class="edge"><title>Node7&#45;&gt;Node10</title>
<path fill="none" stroke="midnightblue" d="M401.934,-273.435C415.351,-260.146 429.552,-240.605 419.5,-224 406.497,-202.521 379.497,-190.801 359.198,-184.756"/>
<polygon fill="midnightblue" stroke="midnightblue" points="399.289,-271.113 394.314,-280.467 404.036,-276.257 399.289,-271.113"/>
</g>
<!-- Node14 -->
<g id="node14" class="node"><title>Node14</title>
<g id="a_node14"><a xlink:href="qmapscene_8h.html" target="_top" xlink:title="qmapscene.h">
<polygon fill="none" stroke="black" points="467,-224.5 467,-243.5 542,-243.5 542,-224.5 467,-224.5"/>
<text text-anchor="middle" x="504.5" y="-231.5" font-family="Helvetica,sans-Serif" font-size="10.00">qmapscene.h</text>
</a>
</g>
</g>
<!-- Node7&#45;&gt;Node14 -->
<g id="edge19" class="edge"><title>Node7&#45;&gt;Node14</title>
<path fill="none" stroke="midnightblue" d="M411.806,-276.368C434.465,-266.255 465.626,-252.349 485.417,-243.516"/>
<polygon fill="midnightblue" stroke="midnightblue" points="410.378,-273.172 402.673,-280.444 413.231,-279.564 410.378,-273.172"/>
</g>
<!-- Node18 -->
<g id="node18" class="node"><title>Node18</title>
<g id="a_node18"><a xlink:href="road_8cpp.html" target="_top" xlink:title="road.cpp">
<polygon fill="none" stroke="black" points="356.5,-224.5 356.5,-243.5 410.5,-243.5 410.5,-224.5 356.5,-224.5"/>
<text text-anchor="middle" x="383.5" y="-231.5" font-family="Helvetica,sans-Serif" font-size="10.00">road.cpp</text>
</a>
</g>
</g>
<!-- Node7&#45;&gt;Node18 -->
<g id="edge25" class="edge"><title>Node7&#45;&gt;Node18</title>
<path fill="none" stroke="midnightblue" d="M383.5,-269.805C383.5,-260.91 383.5,-250.78 383.5,-243.751"/>
<polygon fill="midnightblue" stroke="midnightblue" points="380,-270.083 383.5,-280.083 387,-270.083 380,-270.083"/>
</g>
<!-- Node8&#45;&gt;Node4 -->
<g id="edge17" class="edge"><title>Node8&#45;&gt;Node4</title>
<path fill="none" stroke="midnightblue" d="M249.22,-225.67C229.246,-219.191 204.305,-207.626 190.5,-188 165.656,-152.68 170.882,-96.8151 174.03,-75.5773"/>
<polygon fill="midnightblue" stroke="midnightblue" points="248.258,-229.036 258.841,-228.534 250.254,-222.327 248.258,-229.036"/>
</g>
<!-- Node8&#45;&gt;Node5 -->
<g id="edge18" class="edge"><title>Node8&#45;&gt;Node5</title>
<path fill="none" stroke="midnightblue" d="M272.361,-215.005C263.853,-190.687 252.445,-146.418 266.5,-112 283.951,-69.2653 329.162,-34.8272 351.949,-19.5472"/>
<polygon fill="midnightblue" stroke="midnightblue" points="269.087,-216.243 275.855,-224.394 275.647,-213.801 269.087,-216.243"/>
</g>
<!-- Node9 -->
<g id="node9" class="node"><title>Node9</title>
<g id="a_node9"><a xlink:href="grid_8cpp.html" target="_top" xlink:title="grid.cpp">
<polygon fill="none" stroke="black" points="200,-168.5 200,-187.5 251,-187.5 251,-168.5 200,-168.5"/>
<text text-anchor="middle" x="225.5" y="-175.5" font-family="Helvetica,sans-Serif" font-size="10.00">grid.cpp</text>
</a>
</g>
</g>
<!-- Node8&#45;&gt;Node9 -->
<g id="edge8" class="edge"><title>Node8&#45;&gt;Node9</title>
<path fill="none" stroke="midnightblue" d="M263.502,-217.002C253.933,-207.433 242.139,-195.639 234.251,-187.751"/>
<polygon fill="midnightblue" stroke="midnightblue" points="261.037,-219.487 270.583,-224.083 265.987,-214.537 261.037,-219.487"/>
</g>
<!-- Node8&#45;&gt;Node10 -->
<g id="edge9" class="edge"><title>Node8&#45;&gt;Node10</title>
<path fill="none" stroke="midnightblue" d="M295.498,-217.002C305.067,-207.433 316.861,-195.639 324.749,-187.751"/>
<polygon fill="midnightblue" stroke="midnightblue" points="293.013,-214.537 288.417,-224.083 297.963,-219.487 293.013,-214.537"/>
</g>
<!-- Node10&#45;&gt;Node4 -->
<g id="edge14" class="edge"><title>Node10&#45;&gt;Node4</title>
<path fill="none" stroke="midnightblue" d="M312.158,-162.893C298.944,-154.101 281.661,-142.503 266.5,-132 237.773,-112.099 204.454,-88.0489 187.203,-75.523"/>
<polygon fill="midnightblue" stroke="midnightblue" points="310.314,-165.869 320.581,-168.482 314.184,-160.037 310.314,-165.869"/>
</g>
<!-- Node10&#45;&gt;Node5 -->
<g id="edge15" class="edge"><title>Node10&#45;&gt;Node5</title>
<path fill="none" stroke="midnightblue" d="M339.296,-158.882C341.759,-150.727 344.515,-140.942 346.5,-132 355.765,-90.2748 362.194,-39.4783 364.529,-19.5776"/>
<polygon fill="midnightblue" stroke="midnightblue" points="335.947,-157.867 336.316,-168.456 342.63,-159.948 335.947,-157.867"/>
</g>
<!-- Node11 -->
<g id="node11" class="node"><title>Node11</title>
<g id="a_node11"><a xlink:href="controller_8h.html" target="_top" xlink:title="controller.h">
<polygon fill="none" stroke="black" points="394,-112.5 394,-131.5 459,-131.5 459,-112.5 394,-112.5"/>
<text text-anchor="middle" x="426.5" y="-119.5" font-family="Helvetica,sans-Serif" font-size="10.00">controller.h</text>
</a>
</g>
</g>
<!-- Node10&#45;&gt;Node11 -->
<g id="edge10" class="edge"><title>Node10&#45;&gt;Node11</title>
<path fill="none" stroke="midnightblue" d="M357.306,-163.177C374.419,-153.241 396.965,-140.149 411.595,-131.655"/>
<polygon fill="midnightblue" stroke="midnightblue" points="355.332,-160.276 348.442,-168.324 358.847,-166.329 355.332,-160.276"/>
</g>
<!-- Node13 -->
<g id="node13" class="node"><title>Node13</title>
<g id="a_node13"><a xlink:href="solver_8cpp.html" target="_top" xlink:title="solver.cpp">
<polygon fill="none" stroke="black" points="275.5,-112.5 275.5,-131.5 337.5,-131.5 337.5,-112.5 275.5,-112.5"/>
<text text-anchor="middle" x="306.5" y="-119.5" font-family="Helvetica,sans-Serif" font-size="10.00">solver.cpp</text>
</a>
</g>
</g>
<!-- Node10&#45;&gt;Node13 -->
<g id="edge16" class="edge"><title>Node10&#45;&gt;Node13</title>
<path fill="none" stroke="midnightblue" d="M324.491,-158.983C319.908,-149.817 314.546,-139.092 310.876,-131.751"/>
<polygon fill="midnightblue" stroke="midnightblue" points="321.439,-160.704 329.041,-168.083 327.7,-157.573 321.439,-160.704"/>
</g>
<!-- Node11&#45;&gt;Node4 -->
<g id="edge13" class="edge"><title>Node11&#45;&gt;Node4</title>
<path fill="none" stroke="midnightblue" d="M384.025,-111.862C336.775,-101.697 261.047,-85.4046 215.024,-75.5032"/>
<polygon fill="midnightblue" stroke="midnightblue" points="383.431,-115.314 393.943,-113.996 384.903,-108.471 383.431,-115.314"/>
</g>
<!-- Node11&#45;&gt;Node5 -->
<g id="edge12" class="edge"><title>Node11&#45;&gt;Node5</title>
<path fill="none" stroke="midnightblue" d="M416.696,-103.32C403.414,-79.3697 380.222,-37.5484 370.264,-19.5914"/>
<polygon fill="midnightblue" stroke="midnightblue" points="413.803,-105.321 421.713,-112.368 419.925,-101.926 413.803,-105.321"/>
</g>
<!-- Node12 -->
<g id="node12" class="node"><title>Node12</title>
<g id="a_node12"><a xlink:href="controller_8cpp.html" target="_top" xlink:title="controller.cpp">
<polygon fill="none" stroke="black" points="432,-56.5 432,-75.5 507,-75.5 507,-56.5 432,-56.5"/>
<text text-anchor="middle" x="469.5" y="-63.5" font-family="Helvetica,sans-Serif" font-size="10.00">controller.cpp</text>
</a>
</g>
</g>
<!-- Node11&#45;&gt;Node12 -->
<g id="edge11" class="edge"><title>Node11&#45;&gt;Node12</title>
<path fill="none" stroke="midnightblue" d="M439.922,-104.144C447.414,-94.7357 456.437,-83.4046 462.532,-75.7511"/>
<polygon fill="midnightblue" stroke="midnightblue" points="437.092,-102.08 433.601,-112.083 442.568,-106.44 437.092,-102.08"/>
</g>
<!-- Node15 -->
<g id="node15" class="node"><title>Node15</title>
<g id="a_node15"><a xlink:href="qmapwidget_8h.html" target="_top" xlink:title="qmapwidget.h">
<polygon fill="none" stroke="black" points="384,-168.5 384,-187.5 461,-187.5 461,-168.5 384,-168.5"/>
<text text-anchor="middle" x="422.5" y="-175.5" font-family="Helvetica,sans-Serif" font-size="10.00">qmapwidget.h</text>
</a>
</g>
</g>
<!-- Node14&#45;&gt;Node15 -->
<g id="edge20" class="edge"><title>Node14&#45;&gt;Node15</title>
<path fill="none" stroke="midnightblue" d="M482.667,-218.622C467.687,-208.757 448.303,-195.992 435.642,-187.655"/>
<polygon fill="midnightblue" stroke="midnightblue" points="481.049,-221.747 491.325,-224.324 484.899,-215.901 481.049,-221.747"/>
</g>
<!-- Node17 -->
<g id="node17" class="node"><title>Node17</title>
<g id="a_node17"><a xlink:href="qmapscene_8cpp.html" target="_top" xlink:title="qmapscene.cpp">
<polygon fill="none" stroke="black" points="479.5,-168.5 479.5,-187.5 565.5,-187.5 565.5,-168.5 479.5,-168.5"/>
<text text-anchor="middle" x="522.5" y="-175.5" font-family="Helvetica,sans-Serif" font-size="10.00">qmapscene.cpp</text>
</a>
</g>
</g>
<!-- Node14&#45;&gt;Node17 -->
<g id="edge23" class="edge"><title>Node14&#45;&gt;Node17</title>
<path fill="none" stroke="midnightblue" d="M510.701,-214.396C513.713,-205.362 517.188,-194.936 519.583,-187.751"/>
<polygon fill="midnightblue" stroke="midnightblue" points="507.314,-213.489 507.472,-224.083 513.955,-215.703 507.314,-213.489"/>
</g>
<!-- Node15&#45;&gt;Node11 -->
<g id="edge21" class="edge"><title>Node15&#45;&gt;Node11</title>
<path fill="none" stroke="midnightblue" d="M423.9,-158.101C424.564,-149.136 425.325,-138.858 425.852,-131.751"/>
<polygon fill="midnightblue" stroke="midnightblue" points="420.409,-157.852 423.161,-168.083 427.39,-158.369 420.409,-157.852"/>
</g>
<!-- Node16 -->
<g id="node16" class="node"><title>Node16</title>
<g id="a_node16"><a xlink:href="qmapwidget_8cpp.html" target="_top" xlink:title="qmapwidget.cpp">
<polygon fill="none" stroke="black" points="477.5,-112.5 477.5,-131.5 565.5,-131.5 565.5,-112.5 477.5,-112.5"/>
<text text-anchor="middle" x="521.5" y="-119.5" font-family="Helvetica,sans-Serif" font-size="10.00">qmapwidget.cpp</text>
</a>
</g>
</g>
<!-- Node15&#45;&gt;Node16 -->
<g id="edge22" class="edge"><title>Node15&#45;&gt;Node16</title>
<path fill="none" stroke="midnightblue" d="M447.337,-163.453C465.614,-153.483 489.916,-140.228 505.633,-131.655"/>
<polygon fill="midnightblue" stroke="midnightblue" points="445.509,-160.463 438.406,-168.324 448.861,-166.608 445.509,-160.463"/>
</g>
<!-- Node20 -->
<g id="node20" class="node"><title>Node20</title>
<g id="a_node20"><a xlink:href="sauvegarde_8cpp.html" target="_top" xlink:title="sauvegarde.cpp">
<polygon fill="none" stroke="black" points="621.5,-224.5 621.5,-243.5 707.5,-243.5 707.5,-224.5 621.5,-224.5"/>
<text text-anchor="middle" x="664.5" y="-231.5" font-family="Helvetica,sans-Serif" font-size="10.00">sauvegarde.cpp</text>
</a>
</g>
</g>
<!-- Node19&#45;&gt;Node20 -->
<g id="edge31" class="edge"><title>Node19&#45;&gt;Node20</title>
<path fill="none" stroke="midnightblue" d="M661.25,-270.101C662.08,-261.136 663.032,-250.858 663.69,-243.751"/>
<polygon fill="midnightblue" stroke="midnightblue" points="657.763,-269.803 660.326,-280.083 664.733,-270.448 657.763,-269.803"/>
</g>
</g>
</svg>
        <g id="navigator" transform="translate(0 0)" fill="#404254">
                <rect fill="#f2f5e9" fill-opacity="0.5" stroke="#606060" stroke-width=".5" x="0" y="0" width="60" height="60"/>
                <use id="zoomplus" xlink:href="#zoomPlus" x="17" y="9" onmousedown="handleZoom(evt,'in')"/>
                <use id="zoomminus" xlink:href="#zoomMin" x="42" y="9" onmousedown="handleZoom(evt,'out')"/>
                <use id="reset" xlink:href="#resetDef" x="30" y="36" onmousedown="handleReset()"/>
                <g id="arrowUp" xlink:href="#dirArrow" transform="translate(30 24)" onmousedown="handlePan(0,-1)">
                  <use xlink:href="#rim" fill="#404040">
                        <set attributeName="fill" to="#808080" begin="arrowUp.mouseover" end="arrowUp.mouseout"/>
                  </use>
                  <path fill="none" stroke="white" stroke-width="1.5" d="M0,-3.0v7 M-2.5,-0.5L0,-3.0L2.5,-0.5"/>
                </g>
                <g id="arrowRight" xlink:href="#dirArrow" transform="rotate(90) translate(36 -43)" onmousedown="handlePan(1,0)">
                  <use xlink:href="#rim" fill="#404040">
                        <set attributeName="fill" to="#808080" begin="arrowRight.mouseover" end="arrowRight.mouseout"/>
                  </use>
                  <path fill="none" stroke="white" stroke-width="1.5" d="M0,-3.0v7 M-2.5,-0.5L0,-3.0L2.5,-0.5"/>
                </g>
                <g id="arrowDown" xlink:href="#dirArrow" transform="rotate(180) translate(-30 -48)" onmousedown="handlePan(0,1)">
                  <use xlink:href="#rim" fill="#404040">
                        <set attributeName="fill" to="#808080" begin="arrowDown.mouseover" end="arrowDown.mouseout"/>
                  </use>
                  <path fill="none" stroke="white" stroke-width="1.5" d="M0,-3.0v7 M-2.5,-0.5L0,-3.0L2.5,-0.5"/>
                </g>
                <g id="arrowLeft" xlink:href="#dirArrow" transform="rotate(270) translate(-36 17)" onmousedown="handlePan(-1,0)">
                  <use xlink:href="#rim" fill="#404040">
                        <set attributeName="fill" to="#808080" begin="arrowLeft.mouseover" end="arrowLeft.mouseout"/>
                  </use>
                  <path fill="none" stroke="white" stroke-width="1.5" d="M0,-3.0v7 M-2.5,-0.5L0,-3.0L2.5,-0.5"/>
                </g>
        </g>
        <svg viewBox="0 0 15 15" width="100%" height="30px" preserveAspectRatio="xMaxYMin meet">
         <g id="arrow_out" transform="scale(0.3 0.3)">
          <a xlink:href="track_8h__dep__incl_org.svg" target="_base">
           <rect id="button" ry="5" rx="5" y="6" x="6" height="38" width="38"
                fill="#f2f5e9" fill-opacity="0.5" stroke="#606060" stroke-width="1.0"/>
           <path id="arrow"
             d="M 11.500037,31.436501 C 11.940474,20.09759 22.043105,11.32322 32.158766,21.979434 L 37.068811,17.246167 C 37.068811,17.246167 37.088388,32 37.088388,32 L 22.160133,31.978069 C 22.160133,31.978069 26.997745,27.140456 26.997745,27.140456 C 18.528582,18.264221 13.291696,25.230495 11.500037,31.436501 z"
             style="fill:#404040;"/>
          </a>
         </g>
        </svg>
</svg>
