<?xml version="1.0" encoding="UTF-8" standalone="no"?>
<!DOCTYPE svg PUBLIC "-//W3C//DTD SVG 1.1//EN"
 "http://www.w3.org/Graphics/SVG/1.1/DTD/svg11.dtd">
<!-- Generated by graphviz version 2.38.0 (20140413.2041)
 -->
<!-- Title: track.h Pages: 1 -->
<svg width="689pt" height="364pt"
 viewBox="0.00 0.00 689.00 364.00" xmlns="http://www.w3.org/2000/svg" xmlns:xlink="http://www.w3.org/1999/xlink">
<g id="graph0" class="graph" transform="scale(1 1) rotate(0) translate(4 360)">
<title>track.h</title>
<!-- Node1 -->
<g id="node1" class="node"><title>Node1</title>
<polygon fill="#bfbfbf" stroke="black" points="362,-336.5 362,-355.5 409,-355.5 409,-336.5 362,-336.5"/>
<text text-anchor="middle" x="385.5" y="-343.5" font-family="Helvetica,sans-Serif" font-size="10.00">track.h</text>
</g>
<!-- Node2 -->
<g id="node2" class="node"><title>Node2</title>
<g id="a_node2"><a xlink:href="filtering_8h.html" target="_top" xlink:title="filtering.h">
<polygon fill="none" stroke="black" points="49.5,-280.5 49.5,-299.5 105.5,-299.5 105.5,-280.5 49.5,-280.5"/>
<text text-anchor="middle" x="77.5" y="-287.5" font-family="Helvetica,sans-Serif" font-size="10.00">filtering.h</text>
</a>
</g>
</g>
<!-- Node1&#45;&gt;Node2 -->
<g id="edge1" class="edge"><title>Node1&#45;&gt;Node2</title>
<path fill="none" stroke="midnightblue" d="M351.921,-339.8C301.384,-331.865 202.813,-315.966 119.5,-300 115.106,-299.158 110.464,-298.216 105.932,-297.268"/>
<polygon fill="midnightblue" stroke="midnightblue" points="351.533,-343.281 361.954,-341.369 352.615,-336.366 351.533,-343.281"/>
</g>
<!-- Node4 -->
<g id="node4" class="node"><title>Node4</title>
<g id="a_node4"><a xlink:href="_main_window_8h.html" target="_top" xlink:title="MainWindow.h">
<polygon fill="none" stroke="black" points="115,-56.5 115,-75.5 196,-75.5 196,-56.5 115,-56.5"/>
<text text-anchor="middle" x="155.5" y="-63.5" font-family="Helvetica,sans-Serif" font-size="10.00">MainWindow.h</text>
</a>
</g>
</g>
<!-- Node1&#45;&gt;Node4 -->
<g id="edge23" class="edge"><title>Node1&#45;&gt;Node4</title>
<path fill="none" stroke="midnightblue" d="M351.475,-345.149C282.673,-343.481 133.5,-329.023 133.5,-235 133.5,-235 133.5,-235 133.5,-177 133.5,-138.633 146.528,-94.1758 152.533,-75.7215"/>
<polygon fill="midnightblue" stroke="midnightblue" points="351.737,-348.654 361.792,-345.317 351.851,-341.655 351.737,-348.654"/>
</g>
<!-- Node5 -->
<g id="node5" class="node"><title>Node5</title>
<g id="a_node5"><a xlink:href="main_8cpp.html" target="_top" xlink:title="main.cpp">
<polygon fill="none" stroke="black" points="386.5,-0.5 386.5,-19.5 442.5,-19.5 442.5,-0.5 386.5,-0.5"/>
<text text-anchor="middle" x="414.5" y="-7.5" font-family="Helvetica,sans-Serif" font-size="10.00">main.cpp</text>
</a>
</g>
</g>
<!-- Node1&#45;&gt;Node5 -->
<g id="edge24" class="edge"><title>Node1&#45;&gt;Node5</title>
<path fill="none" stroke="midnightblue" d="M416.231,-332.15C450.896,-315.358 502.5,-282.401 502.5,-235 502.5,-235 502.5,-235 502.5,-121 502.5,-74.2883 453.514,-36.0471 428.639,-19.6391"/>
<polygon fill="midnightblue" stroke="midnightblue" points="414.555,-329.069 406.96,-336.456 417.503,-335.418 414.555,-329.069"/>
</g>
<!-- Node7 -->
<g id="node7" class="node"><title>Node7</title>
<g id="a_node7"><a xlink:href="road_8h.html" target="_top" xlink:title="road.h">
<polygon fill="none" stroke="black" points="317.5,-280.5 317.5,-299.5 361.5,-299.5 361.5,-280.5 317.5,-280.5"/>
<text text-anchor="middle" x="339.5" y="-287.5" font-family="Helvetica,sans-Serif" font-size="10.00">road.h</text>
</a>
</g>
</g>
<!-- Node1&#45;&gt;Node7 -->
<g id="edge6" class="edge"><title>Node1&#45;&gt;Node7</title>
<path fill="none" stroke="midnightblue" d="M371.386,-328.431C363.324,-318.967 353.541,-307.483 346.955,-299.751"/>
<polygon fill="midnightblue" stroke="midnightblue" points="368.755,-330.74 377.904,-336.083 374.084,-326.201 368.755,-330.74"/>
</g>
<!-- Node8 -->
<g id="node8" class="node"><title>Node8</title>
<g id="a_node8"><a xlink:href="grid_8h.html" target="_top" xlink:title="grid.h">
<polygon fill="none" stroke="black" points="232,-224.5 232,-243.5 273,-243.5 273,-224.5 232,-224.5"/>
<text text-anchor="middle" x="252.5" y="-231.5" font-family="Helvetica,sans-Serif" font-size="10.00">grid.h</text>
</a>
</g>
</g>
<!-- Node1&#45;&gt;Node8 -->
<g id="edge21" class="edge"><title>Node1&#45;&gt;Node8</title>
<path fill="none" stroke="midnightblue" d="M357.953,-331.764C342.592,-323.702 323.577,-312.552 308.5,-300 287.666,-282.655 268.151,-257.119 258.61,-243.806"/>
<polygon fill="midnightblue" stroke="midnightblue" points="356.479,-334.941 366.978,-336.369 359.661,-328.706 356.479,-334.941"/>
</g>
<!-- Node10 -->
<g id="node10" class="node"><title>Node10</title>
<g id="a_node10"><a xlink:href="solver_8h.html" target="_top" xlink:title="solver.h">
<polygon fill="none" stroke="black" points="348,-168.5 348,-187.5 399,-187.5 399,-168.5 348,-168.5"/>
<text text-anchor="middle" x="373.5" y="-175.5" font-family="Helvetica,sans-Serif" font-size="10.00">solver.h</text>
</a>
</g>
</g>
<!-- Node1&#45;&gt;Node10 -->
<g id="edge22" class="edge"><title>Node1&#45;&gt;Node10</title>
<path fill="none" stroke="midnightblue" d="M384.121,-325.93C381.518,-289.92 375.975,-213.231 374.119,-187.568"/>
<polygon fill="midnightblue" stroke="midnightblue" points="380.643,-326.354 384.855,-336.075 387.625,-325.849 380.643,-326.354"/>
</g>
<!-- Node15 -->
<g id="node15" class="node"><title>Node15</title>
<g id="a_node15"><a xlink:href="sauvegarde_8h.html" target="_top" xlink:title="sauvegarde.h">
<polygon fill="none" stroke="black" points="531,-280.5 531,-299.5 606,-299.5 606,-280.5 531,-280.5"/>
<text text-anchor="middle" x="568.5" y="-287.5" font-family="Helvetica,sans-Serif" font-size="10.00">sauvegarde.h</text>
</a>
</g>
</g>
<!-- Node1&#45;&gt;Node15 -->
<g id="edge25" class="edge"><title>Node1&#45;&gt;Node15</title>
<path fill="none" stroke="midnightblue" d="M418.684,-335.208C453.223,-325.016 506.768,-309.216 539.618,-299.522"/>
<polygon fill="midnightblue" stroke="midnightblue" points="417.65,-331.864 409.049,-338.051 419.631,-338.578 417.65,-331.864"/>
</g>
<!-- Node17 -->
<g id="node17" class="node"><title>Node17</title>
<g id="a_node17"><a xlink:href="track_8cpp.html" target="_top" xlink:title="track.cpp">
<polygon fill="none" stroke="black" points="624,-280.5 624,-299.5 681,-299.5 681,-280.5 624,-280.5"/>
<text text-anchor="middle" x="652.5" y="-287.5" font-family="Helvetica,sans-Serif" font-size="10.00">track.cpp</text>
</a>
</g>
</g>
<!-- Node1&#45;&gt;Node17 -->
<g id="edge27" class="edge"><title>Node1&#45;&gt;Node17</title>
<path fill="none" stroke="midnightblue" d="M419.333,-338.773C464.092,-330.44 545.396,-314.967 614.5,-300 617.548,-299.34 620.728,-298.626 623.893,-297.9"/>
<polygon fill="midnightblue" stroke="midnightblue" points="418.491,-335.37 409.298,-340.636 419.769,-342.252 418.491,-335.37"/>
</g>
<!-- Node3 -->
<g id="node3" class="node"><title>Node3</title>
<g id="a_node3"><a xlink:href="filtering_8cpp.html" target="_top" xlink:title="filtering.cpp">
<polygon fill="none" stroke="black" points="0,-224.5 0,-243.5 67,-243.5 67,-224.5 0,-224.5"/>
<text text-anchor="middle" x="33.5" y="-231.5" font-family="Helvetica,sans-Serif" font-size="10.00">filtering.cpp</text>
</a>
</g>
</g>
<!-- Node2&#45;&gt;Node3 -->
<g id="edge2" class="edge"><title>Node2&#45;&gt;Node3</title>
<path fill="none" stroke="midnightblue" d="M63.7655,-272.144C56.0995,-262.736 46.8667,-251.405 40.6305,-243.751"/>
<polygon fill="midnightblue" stroke="midnightblue" points="61.2042,-274.541 70.2343,-280.083 66.6309,-270.12 61.2042,-274.541"/>
</g>
<!-- Node2&#45;&gt;Node4 -->
<g id="edge3" class="edge"><title>Node2&#45;&gt;Node4</title>
<path fill="none" stroke="midnightblue" d="M79.2099,-270.337C82.8383,-237.038 93.2406,-165.83 119.5,-112 126.343,-97.9725 138.214,-84.3308 146.445,-75.8137"/>
<polygon fill="midnightblue" stroke="midnightblue" points="75.7118,-270.144 78.1941,-280.444 82.6767,-270.844 75.7118,-270.144"/>
</g>
<!-- Node4&#45;&gt;Node5 -->
<g id="edge4" class="edge"><title>Node4&#45;&gt;Node5</title>
<path fill="none" stroke="midnightblue" d="M206.281,-54.4124C260.125,-43.1863 343.225,-25.8604 386.357,-16.8676"/>
<polygon fill="midnightblue" stroke="midnightblue" points="205.329,-51.0356 196.254,-56.5031 206.758,-57.8883 205.329,-51.0356"/>
</g>
<!-- Node6 -->
<g id="node6" class="node"><title>Node6</title>
<g id="a_node6"><a xlink:href="_main_window_8cpp.html" target="_top" xlink:title="MainWindow.cpp">
<polygon fill="none" stroke="black" points="109.5,-0.5 109.5,-19.5 201.5,-19.5 201.5,-0.5 109.5,-0.5"/>
<text text-anchor="middle" x="155.5" y="-7.5" font-family="Helvetica,sans-Serif" font-size="10.00">MainWindow.cpp</text>
</a>
</g>
</g>
<!-- Node4&#45;&gt;Node6 -->
<g id="edge5" class="edge"><title>Node4&#45;&gt;Node6</title>
<path fill="none" stroke="midnightblue" d="M155.5,-45.8045C155.5,-36.9102 155.5,-26.7798 155.5,-19.7511"/>
<polygon fill="midnightblue" stroke="midnightblue" points="152,-46.083 155.5,-56.083 159,-46.083 152,-46.083"/>
</g>
<!-- Node7&#45;&gt;Node8 -->
<g id="edge7" class="edge"><title>Node7&#45;&gt;Node8</title>
<path fill="none" stroke="midnightblue" d="M316.784,-274.901C300.831,-264.999 280.003,-252.071 266.443,-243.655"/>
<polygon fill="midnightblue" stroke="midnightblue" points="315.18,-278.024 325.522,-280.324 318.871,-272.077 315.18,-278.024"/>
</g>
<!-- Node7&#45;&gt;Node10 -->
<g id="edge19" class="edge"><title>Node7&#45;&gt;Node10</title>
<path fill="none" stroke="midnightblue" d="M345.739,-270.799C348.495,-262.628 351.732,-252.853 354.5,-244 360.746,-224.026 367.492,-200.404 371.023,-187.863"/>
<polygon fill="midnightblue" stroke="midnightblue" points="342.378,-269.81 342.472,-280.404 349.006,-272.064 342.378,-269.81"/>
</g>
<!-- Node14 -->
<g id="node14" class="node"><title>Node14</title>
<g id="a_node14"><a xlink:href="road_8cpp.html" target="_top" xlink:title="road.cpp">
<polygon fill="none" stroke="black" points="291.5,-224.5 291.5,-243.5 345.5,-243.5 345.5,-224.5 291.5,-224.5"/>
<text text-anchor="middle" x="318.5" y="-231.5" font-family="Helvetica,sans-Serif" font-size="10.00">road.cpp</text>
</a>
</g>
</g>
<!-- Node7&#45;&gt;Node14 -->
<g id="edge20" class="edge"><title>Node7&#45;&gt;Node14</title>
<path fill="none" stroke="midnightblue" d="M332.379,-270.69C328.84,-261.589 324.728,-251.014 321.903,-243.751"/>
<polygon fill="midnightblue" stroke="midnightblue" points="329.146,-272.032 336.032,-280.083 335.67,-269.494 329.146,-272.032"/>
</g>
<!-- Node8&#45;&gt;Node4 -->
<g id="edge17" class="edge"><title>Node8&#45;&gt;Node4</title>
<path fill="none" stroke="midnightblue" d="M226.332,-219.432C213.845,-211.747 199.665,-201.05 190.5,-188 164.987,-151.672 157.928,-96.8731 156.099,-75.7401"/>
<polygon fill="midnightblue" stroke="midnightblue" points="224.625,-222.488 235.03,-224.487 228.142,-216.436 224.625,-222.488"/>
</g>
<!-- Node8&#45;&gt;Node5 -->
<g id="edge18" class="edge"><title>Node8&#45;&gt;Node5</title>
<path fill="none" stroke="midnightblue" d="M255.403,-214.142C262.036,-173.374 279.444,-78.8635 301.5,-56 324.224,-32.4438 360.856,-20.916 386.223,-15.4865"/>
<polygon fill="midnightblue" stroke="midnightblue" points="251.932,-213.687 253.823,-224.111 258.846,-214.782 251.932,-213.687"/>
</g>
<!-- Node9 -->
<g id="node9" class="node"><title>Node9</title>
<g id="a_node9"><a xlink:href="grid_8cpp.html" target="_top" xlink:title="grid.cpp">
<polygon fill="none" stroke="black" points="200,-168.5 200,-187.5 251,-187.5 251,-168.5 200,-168.5"/>
<text text-anchor="middle" x="225.5" y="-175.5" font-family="Helvetica,sans-Serif" font-size="10.00">grid.cpp</text>
</a>
</g>
</g>
<!-- Node8&#45;&gt;Node9 -->
<g id="edge8" class="edge"><title>Node8&#45;&gt;Node9</title>
<path fill="none" stroke="midnightblue" d="M243.491,-214.983C238.908,-205.817 233.546,-195.092 229.876,-187.751"/>
<polygon fill="midnightblue" stroke="midnightblue" points="240.439,-216.704 248.041,-224.083 246.7,-213.573 240.439,-216.704"/>
</g>
<!-- Node8&#45;&gt;Node10 -->
<g id="edge9" class="edge"><title>Node8&#45;&gt;Node10</title>
<path fill="none" stroke="midnightblue" d="M280.806,-220.368C303.465,-210.255 334.626,-196.349 354.417,-187.516"/>
<polygon fill="midnightblue" stroke="midnightblue" points="279.378,-217.172 271.673,-224.444 282.231,-223.564 279.378,-217.172"/>
</g>
<!-- Node10&#45;&gt;Node4 -->
<g id="edge14" class="edge"><title>Node10&#45;&gt;Node4</title>
<path fill="none" stroke="midnightblue" d="M346.582,-164.021C328.2,-155.111 303.317,-142.962 281.5,-132 241.91,-112.109 195.701,-88.0547 171.754,-75.5256"/>
<polygon fill="midnightblue" stroke="midnightblue" points="345.282,-167.28 355.808,-168.485 348.331,-160.978 345.282,-167.28"/>
</g>
<!-- Node10&#45;&gt;Node5 -->
<g id="edge15" class="edge"><title>Node10&#45;&gt;Node5</title>
<path fill="none" stroke="midnightblue" d="M408.097,-163.921C422.014,-156.747 436.613,-146.337 444.5,-132 465.573,-93.695 434.712,-40.5031 420.754,-19.7671"/>
<polygon fill="midnightblue" stroke="midnightblue" points="406.208,-160.942 398.661,-168.378 409.198,-167.272 406.208,-160.942"/>
</g>
<!-- Node11 -->
<g id="node11" class="node"><title>Node11</title>
<g id="a_node11"><a xlink:href="controller_8h.html" target="_top" xlink:title="controller.h">
<polygon fill="none" stroke="black" points="371,-112.5 371,-131.5 436,-131.5 436,-112.5 371,-112.5"/>
<text text-anchor="middle" x="403.5" y="-119.5" font-family="Helvetica,sans-Serif" font-size="10.00">controller.h</text>
</a>
</g>
</g>
<!-- Node10&#45;&gt;Node11 -->
<g id="edge10" class="edge"><title>Node10&#45;&gt;Node11</title>
<path fill="none" stroke="midnightblue" d="M383.347,-159.275C388.475,-150.045 394.516,-139.17 398.638,-131.751"/>
<polygon fill="midnightblue" stroke="midnightblue" points="380.251,-157.642 378.454,-168.083 386.37,-161.041 380.251,-157.642"/>
</g>
<!-- Node13 -->
<g id="node13" class="node"><title>Node13</title>
<g id="a_node13"><a xlink:href="solver_8cpp.html" target="_top" xlink:title="solver.cpp">
<polygon fill="none" stroke="black" points="290.5,-112.5 290.5,-131.5 352.5,-131.5 352.5,-112.5 290.5,-112.5"/>
<text text-anchor="middle" x="321.5" y="-119.5" font-family="Helvetica,sans-Serif" font-size="10.00">solver.cpp</text>
</a>
</g>
</g>
<!-- Node10&#45;&gt;Node13 -->
<g id="edge16" class="edge"><title>Node10&#45;&gt;Node13</title>
<path fill="none" stroke="midnightblue" d="M357.821,-160.718C348.655,-151.2 337.447,-139.561 329.927,-131.751"/>
<polygon fill="midnightblue" stroke="midnightblue" points="355.456,-163.308 364.913,-168.083 360.498,-158.452 355.456,-163.308"/>
</g>
<!-- Node11&#45;&gt;Node4 -->
<g id="edge13" class="edge"><title>Node11&#45;&gt;Node4</title>
<path fill="none" stroke="midnightblue" d="M361.026,-111.752C314.392,-101.597 240.129,-85.4273 194.797,-75.5566"/>
<polygon fill="midnightblue" stroke="midnightblue" points="360.308,-115.177 370.823,-113.885 361.797,-108.337 360.308,-115.177"/>
</g>
<!-- Node11&#45;&gt;Node5 -->
<g id="edge12" class="edge"><title>Node11&#45;&gt;Node5</title>
<path fill="none" stroke="midnightblue" d="M405.365,-102.348C407.775,-78.2538 411.869,-37.3079 413.641,-19.5914"/>
<polygon fill="midnightblue" stroke="midnightblue" points="401.876,-102.07 404.363,-112.368 408.841,-102.766 401.876,-102.07"/>
</g>
<!-- Node12 -->
<g id="node12" class="node"><title>Node12</title>
<g id="a_node12"><a xlink:href="controller_8cpp.html" target="_top" xlink:title="controller.cpp">
<polygon fill="none" stroke="black" points="311,-56.5 311,-75.5 386,-75.5 386,-56.5 311,-56.5"/>
<text text-anchor="middle" x="348.5" y="-63.5" font-family="Helvetica,sans-Serif" font-size="10.00">controller.cpp</text>
</a>
</g>
</g>
<!-- Node11&#45;&gt;Node12 -->
<g id="edge11" class="edge"><title>Node11&#45;&gt;Node12</title>
<path fill="none" stroke="midnightblue" d="M387.206,-105.002C377.459,-95.4329 365.447,-83.6389 357.413,-75.7511"/>
<polygon fill="midnightblue" stroke="midnightblue" points="384.83,-107.575 394.418,-112.083 389.734,-102.58 384.83,-107.575"/>
</g>
<!-- Node16 -->
<g id="node16" class="node"><title>Node16</title>
<g id="a_node16"><a xlink:href="sauvegarde_8cpp.html" target="_top" xlink:title="sauvegarde.cpp">
<polygon fill="none" stroke="black" points="530.5,-224.5 530.5,-243.5 616.5,-243.5 616.5,-224.5 530.5,-224.5"/>
<text text-anchor="middle" x="573.5" y="-231.5" font-family="Helvetica,sans-Serif" font-size="10.00">sauvegarde.cpp</text>
</a>
</g>
</g>
<!-- Node15&#45;&gt;Node16 -->
<g id="edge26" class="edge"><title>Node15&#45;&gt;Node16</title>
<path fill="none" stroke="midnightblue" d="M570.25,-270.101C571.08,-261.136 572.032,-250.858 572.69,-243.751"/>
<polygon fill="midnightblue" stroke="midnightblue" points="566.763,-269.803 569.326,-280.083 573.733,-270.448 566.763,-269.803"/>
</g>
</g>
</svg>
